<?xml version="1.0" encoding="UTF-8" standalone="no"?>
<!DOCTYPE svg PUBLIC "-//W3C//DTD SVG 1.1//EN"
 "http://www.w3.org/Graphics/SVG/1.1/DTD/svg11.dtd">
<!-- Generated by graphviz version 2.49.0 (20210829.0051)
 -->
<!-- Pages: 1 -->
<svg width="365pt" height="386pt"
 viewBox="0.00 0.00 365.00 386.00" xmlns="http://www.w3.org/2000/svg" xmlns:xlink="http://www.w3.org/1999/xlink">
<g id="graph0" class="graph" transform="scale(1 1) rotate(0) translate(4 382)">
<polygon fill="white" stroke="transparent" points="-4,4 -4,-382 361,-382 361,4 -4,4"/>
<!-- fake -->
<g id="node1" class="node">
<title>fake</title>
</g>
<!-- 0 -->
<g id="node2" class="node">
<title>0</title>
<ellipse fill="none" stroke="black" cx="160" cy="-283" rx="18" ry="18"/>
<ellipse fill="none" stroke="black" cx="160" cy="-283" rx="22" ry="22"/>
<text text-anchor="middle" x="160" y="-279.3" font-family="Times,serif" font-size="14.00">0</text>
</g>
<!-- fake&#45;&gt;0 -->
<g id="edge1" class="edge">
<title>fake&#45;&gt;0</title>
<path fill="none" stroke="black" stroke-width="2" d="M160,-341.98C160,-334.15 160,-324.61 160,-315.54"/>
<polygon fill="black" stroke="black" stroke-width="2" points="163.5,-315.24 160,-305.24 156.5,-315.24 163.5,-315.24"/>
</g>
<!-- 0&#45;&gt;0 -->
<g id="edge18" class="edge">
<title>0&#45;&gt;0</title>
<path fill="none" stroke="black" d="M180.99,-290.32C191.09,-291.22 200,-288.78 200,-283 200,-279.3 196.34,-276.96 191.06,-276"/>
<polygon fill="black" stroke="black" points="191.1,-272.5 180.99,-275.68 190.87,-279.5 191.1,-272.5"/>
<text text-anchor="middle" x="205" y="-279.3" font-family="Times,serif" font-size="14.00">3</text>
</g>
<!-- 2 -->
<g id="node4" class="node">
<title>2</title>
<ellipse fill="none" stroke="black" cx="193" cy="-192" rx="27" ry="18"/>
<text text-anchor="middle" x="193" y="-188.3" font-family="Times,serif" font-size="14.00">2</text>
</g>
<!-- 0&#45;&gt;2 -->
<g id="edge5" class="edge">
<title>0&#45;&gt;2</title>
<path fill="none" stroke="black" d="M167.32,-262.25C172.03,-249.56 178.2,-232.92 183.31,-219.14"/>
<polygon fill="black" stroke="black" points="186.61,-220.3 186.81,-209.71 180.05,-217.87 186.61,-220.3"/>
<text text-anchor="middle" x="184" y="-231.8" font-family="Times,serif" font-size="14.00">1</text>
</g>
<!-- 0&#45;&gt;2 -->
<g id="edge8" class="edge">
<title>0&#45;&gt;2</title>
<path fill="none" stroke="black" d="M176.33,-267.72C182.84,-260.96 189.58,-252.33 193,-243 195.6,-235.91 196.43,-227.86 196.4,-220.33"/>
<polygon fill="black" stroke="black" points="199.88,-219.98 195.87,-210.18 192.89,-220.34 199.88,-219.98"/>
<text text-anchor="middle" x="201" y="-231.8" font-family="Times,serif" font-size="14.00">0</text>
</g>
<!-- 0&#45;&gt;2 -->
<g id="edge10" class="edge">
<title>0&#45;&gt;2</title>
<path fill="none" stroke="black" d="M179.6,-272.45C190.73,-265.87 203.67,-255.96 210,-243 213.87,-235.06 212.43,-226.02 209.11,-217.83"/>
<polygon fill="black" stroke="black" points="212.17,-216.11 204.58,-208.72 205.9,-219.23 212.17,-216.11"/>
<text text-anchor="middle" x="217" y="-231.8" font-family="Times,serif" font-size="14.00">4</text>
</g>
<!-- 4 -->
<g id="node6" class="node">
<title>4</title>
<ellipse fill="none" stroke="black" cx="127" cy="-105" rx="27" ry="18"/>
<text text-anchor="middle" x="127" y="-101.3" font-family="Times,serif" font-size="14.00">4</text>
</g>
<!-- 0&#45;&gt;4 -->
<g id="edge19" class="edge">
<title>0&#45;&gt;4</title>
<path fill="none" stroke="black" d="M155.68,-261.37C154.46,-255.45 153.16,-248.97 152,-243 144.61,-204.86 136.65,-160.63 131.74,-132.98"/>
<polygon fill="black" stroke="black" points="135.15,-132.13 129.96,-122.9 128.26,-133.35 135.15,-132.13"/>
<text text-anchor="middle" x="150" y="-188.3" font-family="Times,serif" font-size="14.00">2</text>
</g>
<!-- 1 -->
<g id="node3" class="node">
<title>1</title>
<ellipse fill="none" stroke="black" cx="27" cy="-105" rx="27" ry="18"/>
<text text-anchor="middle" x="27" y="-101.3" font-family="Times,serif" font-size="14.00">1</text>
</g>
<!-- 1&#45;&gt;0 -->
<g id="edge2" class="edge">
<title>1&#45;&gt;0</title>
<path fill="none" stroke="black" d="M25.3,-122.99C23.39,-152.39 24.29,-212.56 59,-243 78.67,-260.25 106.82,-270.28 128.4,-275.83"/>
<polygon fill="black" stroke="black" points="127.87,-279.3 138.41,-278.21 129.49,-272.49 127.87,-279.3"/>
<text text-anchor="middle" x="42" y="-188.3" font-family="Times,serif" font-size="14.00">0</text>
</g>
<!-- 1&#45;&gt;0 -->
<g id="edge7" class="edge">
<title>1&#45;&gt;0</title>
<path fill="none" stroke="black" d="M38.7,-121.49C61.65,-151.85 112.75,-219.47 140.74,-256.52"/>
<polygon fill="black" stroke="black" points="138.18,-258.94 147.01,-264.8 143.77,-254.72 138.18,-258.94"/>
<text text-anchor="middle" x="110" y="-188.3" font-family="Times,serif" font-size="14.00">4</text>
</g>
<!-- 1&#45;&gt;0 -->
<g id="edge21" class="edge">
<title>1&#45;&gt;0</title>
<path fill="none" stroke="black" d="M20.15,-122.78C12.62,-143.83 2.96,-180.71 14,-210 31.04,-255.2 90.41,-272.14 127.99,-278.41"/>
<polygon fill="black" stroke="black" points="127.55,-281.88 137.96,-279.91 128.59,-274.96 127.55,-281.88"/>
<text text-anchor="middle" x="19" y="-188.3" font-family="Times,serif" font-size="14.00">3</text>
</g>
<!-- 1&#45;&gt;1 -->
<g id="edge12" class="edge">
<title>1&#45;&gt;1</title>
<path fill="none" stroke="black" d="M51.53,-112.75C62.51,-113.49 72,-110.91 72,-105 72,-101.03 67.72,-98.56 61.57,-97.59"/>
<polygon fill="black" stroke="black" points="61.65,-94.09 51.53,-97.25 61.41,-101.09 61.65,-94.09"/>
<text text-anchor="middle" x="77" y="-101.3" font-family="Times,serif" font-size="14.00">1</text>
</g>
<!-- 1&#45;&gt;2 -->
<g id="edge15" class="edge">
<title>1&#45;&gt;2</title>
<path fill="none" stroke="black" d="M45.69,-118.24C55.86,-124.93 68.65,-133.38 80,-141 89.83,-147.59 91.52,-150.51 102,-156 120.3,-165.59 141.83,-173.99 159.36,-180.16"/>
<polygon fill="black" stroke="black" points="158.56,-183.59 169.16,-183.52 160.84,-176.97 158.56,-183.59"/>
<text text-anchor="middle" x="107" y="-144.8" font-family="Times,serif" font-size="14.00">2</text>
</g>
<!-- 2&#45;&gt;0 -->
<g id="edge24" class="edge">
<title>2&#45;&gt;0</title>
<path fill="none" stroke="black" d="M176,-206.16C169.72,-212.08 163.33,-219.62 160,-228 157.17,-235.13 156.15,-243.22 156.07,-250.92"/>
<polygon fill="black" stroke="black" points="152.58,-251.21 156.46,-261.07 159.57,-250.94 152.58,-251.21"/>
<text text-anchor="middle" x="165" y="-231.8" font-family="Times,serif" font-size="14.00">1</text>
</g>
<!-- 2&#45;&gt;1 -->
<g id="edge9" class="edge">
<title>2&#45;&gt;1</title>
<path fill="none" stroke="black" d="M175.57,-178.22C160.34,-167.43 137.4,-152.01 116,-141 98.11,-131.79 77.2,-123.46 60.16,-117.23"/>
<polygon fill="black" stroke="black" points="61.21,-113.89 50.61,-113.82 58.85,-120.48 61.21,-113.89"/>
<text text-anchor="middle" x="145" y="-144.8" font-family="Times,serif" font-size="14.00">3</text>
</g>
<!-- 2&#45;&gt;2 -->
<g id="edge11" class="edge">
<title>2&#45;&gt;2</title>
<path fill="none" stroke="black" d="M219.79,-195.93C229.78,-196.06 238,-194.75 238,-192 238,-190.28 234.79,-189.13 229.94,-188.53"/>
<polygon fill="black" stroke="black" points="229.94,-185.03 219.79,-188.07 229.63,-192.02 229.94,-185.03"/>
<text text-anchor="middle" x="243" y="-188.3" font-family="Times,serif" font-size="14.00">2</text>
</g>
<!-- 2&#45;&gt;2 -->
<g id="edge16" class="edge">
<title>2&#45;&gt;2</title>
<path fill="none" stroke="black" d="M218.23,-198.94C237.04,-201.37 256,-199.05 256,-192 256,-186.21 243.24,-183.62 228.27,-184.21"/>
<polygon fill="black" stroke="black" points="227.9,-180.73 218.23,-185.06 228.49,-187.7 227.9,-180.73"/>
<text text-anchor="middle" x="261" y="-188.3" font-family="Times,serif" font-size="14.00">0</text>
</g>
<!-- 2&#45;&gt;4 -->
<g id="edge22" class="edge">
<title>2&#45;&gt;4</title>
<path fill="none" stroke="black" d="M187.89,-174.15C184.25,-163.9 178.64,-150.91 171,-141 166.25,-134.83 160.19,-129.11 154.09,-124.16"/>
<polygon fill="black" stroke="black" points="155.96,-121.18 145.88,-117.91 151.72,-126.75 155.96,-121.18"/>
<text text-anchor="middle" x="184" y="-144.8" font-family="Times,serif" font-size="14.00">4</text>
</g>
<!-- 3 -->
<g id="node5" class="node">
<title>3</title>
<ellipse fill="none" stroke="black" cx="302" cy="-18" rx="27" ry="18"/>
<text text-anchor="middle" x="302" y="-14.3" font-family="Times,serif" font-size="14.00">3</text>
</g>
<!-- 3&#45;&gt;0 -->
<g id="edge14" class="edge">
<title>3&#45;&gt;0</title>
<path fill="none" stroke="black" d="M314.53,-34.08C318.66,-39.93 322.77,-46.93 325,-54 329.42,-67.99 325.78,-72.33 326,-87 326.24,-103 329.49,-107.39 326,-123 316.66,-164.71 313.96,-178.56 285,-210 258.56,-238.71 217.98,-259.15 190.28,-270.75"/>
<polygon fill="black" stroke="black" points="188.66,-267.63 180.71,-274.62 191.29,-274.11 188.66,-267.63"/>
<text text-anchor="middle" x="326" y="-144.8" font-family="Times,serif" font-size="14.00">1</text>
</g>
<!-- 3&#45;&gt;2 -->
<g id="edge3" class="edge">
<title>3&#45;&gt;2</title>
<path fill="none" stroke="black" d="M300.79,-36.12C298.56,-57.85 292.31,-95.77 275,-123 261.53,-144.19 239.28,-162.03 221.35,-174.12"/>
<polygon fill="black" stroke="black" points="219.43,-171.19 212.96,-179.58 223.25,-177.06 219.43,-171.19"/>
<text text-anchor="middle" x="295" y="-101.3" font-family="Times,serif" font-size="14.00">2</text>
</g>
<!-- 3&#45;&gt;2 -->
<g id="edge23" class="edge">
<title>3&#45;&gt;2</title>
<path fill="none" stroke="black" d="M307.01,-35.95C312.38,-57.5 318.33,-95.24 304,-123 288.65,-152.74 253.92,-170.82 227.36,-180.79"/>
<polygon fill="black" stroke="black" points="225.91,-177.59 217.64,-184.22 228.24,-184.19 225.91,-177.59"/>
<text text-anchor="middle" x="317" y="-101.3" font-family="Times,serif" font-size="14.00">3</text>
</g>
<!-- 3&#45;&gt;3 -->
<g id="edge25" class="edge">
<title>3&#45;&gt;3</title>
<path fill="none" stroke="black" d="M326.53,-25.75C337.51,-26.49 347,-23.91 347,-18 347,-14.03 342.72,-11.56 336.57,-10.59"/>
<polygon fill="black" stroke="black" points="336.65,-7.09 326.53,-10.25 336.41,-14.09 336.65,-7.09"/>
<text text-anchor="middle" x="352" y="-14.3" font-family="Times,serif" font-size="14.00">4</text>
</g>
<!-- 3&#45;&gt;4 -->
<g id="edge20" class="edge">
<title>3&#45;&gt;4</title>
<path fill="none" stroke="black" d="M280.82,-29.29C250.03,-44.24 192.75,-72.06 157.44,-89.21"/>
<polygon fill="black" stroke="black" points="155.57,-86.23 148.11,-93.75 158.63,-92.53 155.57,-86.23"/>
<text text-anchor="middle" x="229" y="-57.8" font-family="Times,serif" font-size="14.00">0</text>
</g>
<!-- 4&#45;&gt;3 -->
<g id="edge26" class="edge">
<title>4&#45;&gt;3</title>
<path fill="none" stroke="black" d="M141.92,-89.52C154.02,-78.46 171.98,-63.54 190,-54 214.2,-41.19 243.86,-32.18 266.58,-26.52"/>
<polygon fill="black" stroke="black" points="267.58,-29.88 276.49,-24.15 265.95,-23.07 267.58,-29.88"/>
<text text-anchor="middle" x="195" y="-57.8" font-family="Times,serif" font-size="14.00">0</text>
</g>
<!-- 4&#45;&gt;4 -->
<g id="edge4" class="edge">
<title>4&#45;&gt;4</title>
<path fill="none" stroke="black" d="M154.24,-106.97C164.02,-107.01 172,-106.35 172,-105 172,-104.18 169.04,-103.61 164.51,-103.3"/>
<polygon fill="black" stroke="black" points="164.33,-99.8 154.24,-103.03 164.15,-106.79 164.33,-99.8"/>
<text text-anchor="middle" x="177" y="-101.3" font-family="Times,serif" font-size="14.00">3</text>
</g>
<!-- 4&#45;&gt;4 -->
<g id="edge6" class="edge">
<title>4&#45;&gt;4</title>
<path fill="none" stroke="black" d="M153.54,-108.55C171.91,-109.63 190,-108.45 190,-105 190,-102.2 178.06,-100.89 163.73,-101.08"/>
<polygon fill="black" stroke="black" points="163.41,-97.59 153.54,-101.45 163.66,-104.58 163.41,-97.59"/>
<text text-anchor="middle" x="195" y="-101.3" font-family="Times,serif" font-size="14.00">1</text>
</g>
<!-- 4&#45;&gt;4 -->
<g id="edge13" class="edge">
<title>4&#45;&gt;4</title>
<path fill="none" stroke="black" d="M153.13,-109.65C179.19,-112.3 208,-110.75 208,-105 208,-99.99 186.14,-98.17 163.28,-99.53"/>
<polygon fill="black" stroke="black" points="162.82,-96.06 153.13,-100.35 163.38,-103.04 162.82,-96.06"/>
<text text-anchor="middle" x="213" y="-101.3" font-family="Times,serif" font-size="14.00">2</text>
</g>
<!-- 4&#45;&gt;4 -->
<g id="edge17" class="edge">
<title>4&#45;&gt;4</title>
<path fill="none" stroke="black" d="M152.86,-110.45C186.12,-114.98 226,-113.16 226,-105 226,-97.67 193.81,-95.46 163.15,-98.36"/>
<polygon fill="black" stroke="black" points="162.39,-94.93 152.86,-99.55 163.19,-101.88 162.39,-94.93"/>
<text text-anchor="middle" x="231" y="-101.3" font-family="Times,serif" font-size="14.00">4</text>
</g>
</g>
</svg>
