<?xml version="1.0" encoding="UTF-8" standalone="no"?>
<!DOCTYPE svg PUBLIC "-//W3C//DTD SVG 1.1//EN"
 "http://www.w3.org/Graphics/SVG/1.1/DTD/svg11.dtd">
<!-- Generated by graphviz version 2.49.0 (20210829.0051)
 -->
<!-- Pages: 1 -->
<svg width="345pt" height="489pt"
 viewBox="0.00 0.00 344.91 489.00" xmlns="http://www.w3.org/2000/svg" xmlns:xlink="http://www.w3.org/1999/xlink">
<g id="graph0" class="graph" transform="scale(1 1) rotate(0) translate(4 485)">
<polygon fill="white" stroke="transparent" points="-4,4 -4,-485 340.91,-485 340.91,4 -4,4"/>
<!-- fake -->
<g id="node1" class="node">
<title>fake</title>
</g>
<!-- 4 -->
<g id="node6" class="node">
<title>4</title>
<ellipse fill="none" stroke="black" cx="183.91" cy="-386" rx="18" ry="18"/>
<ellipse fill="none" stroke="black" cx="183.91" cy="-386" rx="22" ry="22"/>
<text text-anchor="middle" x="183.91" y="-382.3" font-family="Times,serif" font-size="14.00">4</text>
</g>
<!-- fake&#45;&gt;4 -->
<g id="edge1" class="edge">
<title>fake&#45;&gt;4</title>
<path fill="none" stroke="black" stroke-width="2" d="M183.91,-444.98C183.91,-437.15 183.91,-427.61 183.91,-418.54"/>
<polygon fill="black" stroke="black" stroke-width="2" points="187.41,-418.24 183.91,-408.24 180.41,-418.24 187.41,-418.24"/>
</g>
<!-- 0 -->
<g id="node2" class="node">
<title>0</title>
<ellipse fill="none" stroke="black" cx="145.91" cy="-200" rx="27" ry="18"/>
<text text-anchor="middle" x="145.91" y="-196.3" font-family="Times,serif" font-size="14.00">0</text>
</g>
<!-- 1 -->
<g id="node3" class="node">
<title>1</title>
<ellipse fill="none" stroke="black" cx="151.91" cy="-109" rx="18" ry="18"/>
<ellipse fill="none" stroke="black" cx="151.91" cy="-109" rx="22" ry="22"/>
<text text-anchor="middle" x="151.91" y="-105.3" font-family="Times,serif" font-size="14.00">1</text>
</g>
<!-- 0&#45;&gt;1 -->
<g id="edge19" class="edge">
<title>0&#45;&gt;1</title>
<path fill="none" stroke="black" d="M138.07,-182.37C134.46,-172.66 131.46,-160.16 133.91,-149 134.73,-145.29 135.93,-141.5 137.34,-137.83"/>
<polygon fill="black" stroke="black" points="140.63,-139.03 141.41,-128.47 134.21,-136.24 140.63,-139.03"/>
<text text-anchor="middle" x="138.91" y="-152.8" font-family="Times,serif" font-size="14.00">4</text>
</g>
<!-- 2 -->
<g id="node4" class="node">
<title>2</title>
<ellipse fill="none" stroke="black" cx="105.91" cy="-291" rx="18" ry="18"/>
<ellipse fill="none" stroke="black" cx="105.91" cy="-291" rx="22" ry="22"/>
<text text-anchor="middle" x="105.91" y="-287.3" font-family="Times,serif" font-size="14.00">2</text>
</g>
<!-- 0&#45;&gt;2 -->
<g id="edge14" class="edge">
<title>0&#45;&gt;2</title>
<path fill="none" stroke="black" d="M151.24,-217.91C153.45,-227.94 154.56,-240.68 149.91,-251 146.18,-259.3 139.71,-266.54 132.87,-272.47"/>
<polygon fill="black" stroke="black" points="130.51,-269.87 124.8,-278.79 134.83,-275.38 130.51,-269.87"/>
<text text-anchor="middle" x="157.91" y="-239.8" font-family="Times,serif" font-size="14.00">0</text>
</g>
<!-- 0&#45;&gt;2 -->
<g id="edge26" class="edge">
<title>0&#45;&gt;2</title>
<path fill="none" stroke="black" d="M122.39,-209.27C110.37,-214.83 96.86,-223.47 89.91,-236 85.32,-244.29 86.5,-254.04 89.74,-262.97"/>
<polygon fill="black" stroke="black" points="86.6,-264.52 93.88,-272.21 92.98,-261.65 86.6,-264.52"/>
<text text-anchor="middle" x="94.91" y="-239.8" font-family="Times,serif" font-size="14.00">3</text>
</g>
<!-- 3 -->
<g id="node5" class="node">
<title>3</title>
<ellipse fill="none" stroke="black" cx="167.91" cy="-18" rx="27" ry="18"/>
<text text-anchor="middle" x="167.91" y="-14.3" font-family="Times,serif" font-size="14.00">3</text>
</g>
<!-- 0&#45;&gt;3 -->
<g id="edge23" class="edge">
<title>0&#45;&gt;3</title>
<path fill="none" stroke="black" d="M162.12,-185.14C168.02,-179.23 174.15,-171.88 177.91,-164 196.1,-125.91 186.25,-75.69 177.24,-45.45"/>
<polygon fill="black" stroke="black" points="180.49,-44.12 174.13,-35.64 173.81,-46.23 180.49,-44.12"/>
<text text-anchor="middle" x="192.91" y="-105.3" font-family="Times,serif" font-size="14.00">1</text>
</g>
<!-- 0&#45;&gt;4 -->
<g id="edge18" class="edge">
<title>0&#45;&gt;4</title>
<path fill="none" stroke="black" d="M157.27,-216.67C160.93,-222.48 164.64,-229.29 166.91,-236 180.15,-275.04 183.52,-322.78 184.16,-353.53"/>
<polygon fill="black" stroke="black" points="180.66,-353.7 184.28,-363.66 187.66,-353.62 180.66,-353.7"/>
<text text-anchor="middle" x="185.91" y="-287.3" font-family="Times,serif" font-size="14.00">2</text>
</g>
<!-- 1&#45;&gt;0 -->
<g id="edge5" class="edge">
<title>1&#45;&gt;0</title>
<path fill="none" stroke="black" d="M150.48,-131.19C149.67,-143.28 148.64,-158.58 147.76,-171.58"/>
<polygon fill="black" stroke="black" points="144.25,-171.63 147.07,-181.84 151.23,-172.1 144.25,-171.63"/>
<text text-anchor="middle" x="153.91" y="-152.8" font-family="Times,serif" font-size="14.00">0</text>
</g>
<!-- 1&#45;&gt;0 -->
<g id="edge12" class="edge">
<title>1&#45;&gt;0</title>
<path fill="none" stroke="black" d="M159.95,-129.55C163.15,-139.83 165.53,-152.62 162.91,-164 162.17,-167.23 161.09,-170.5 159.83,-173.68"/>
<polygon fill="black" stroke="black" points="156.62,-172.28 155.65,-182.83 162.99,-175.19 156.62,-172.28"/>
<text text-anchor="middle" x="168.91" y="-152.8" font-family="Times,serif" font-size="14.00">4</text>
</g>
<!-- 1&#45;&gt;3 -->
<g id="edge11" class="edge">
<title>1&#45;&gt;3</title>
<path fill="none" stroke="black" d="M135.27,-94.51C124.12,-83.75 112.7,-68.18 119.91,-54 123.91,-46.14 130.59,-39.62 137.72,-34.43"/>
<polygon fill="black" stroke="black" points="139.69,-37.33 146.16,-28.94 135.87,-31.46 139.69,-37.33"/>
<text text-anchor="middle" x="124.91" y="-57.8" font-family="Times,serif" font-size="14.00">2</text>
</g>
<!-- 1&#45;&gt;3 -->
<g id="edge24" class="edge">
<title>1&#45;&gt;3</title>
<path fill="none" stroke="black" d="M149.85,-87.01C149.38,-76.92 149.58,-64.72 151.91,-54 152.59,-50.9 153.56,-47.75 154.7,-44.67"/>
<polygon fill="black" stroke="black" points="158.02,-45.8 158.74,-35.23 151.59,-43.04 158.02,-45.8"/>
<text text-anchor="middle" x="156.91" y="-57.8" font-family="Times,serif" font-size="14.00">1</text>
</g>
<!-- 1&#45;&gt;4 -->
<g id="edge13" class="edge">
<title>1&#45;&gt;4</title>
<path fill="none" stroke="black" d="M165.34,-126.56C170.04,-133.17 174.9,-141.09 177.91,-149 206.89,-224.99 195.6,-249.68 196.91,-331 197.02,-337.67 197.98,-339.42 196.91,-346 196.41,-349.07 195.71,-352.23 194.88,-355.35"/>
<polygon fill="black" stroke="black" points="191.49,-354.48 191.92,-365.07 198.18,-356.52 191.49,-354.48"/>
<text text-anchor="middle" x="202.91" y="-239.8" font-family="Times,serif" font-size="14.00">3</text>
</g>
<!-- 2&#45;&gt;0 -->
<g id="edge8" class="edge">
<title>2&#45;&gt;0</title>
<path fill="none" stroke="black" d="M102.5,-269.14C101.72,-258.74 102.23,-246.23 106.91,-236 109.69,-229.92 114.09,-224.44 118.95,-219.73"/>
<polygon fill="black" stroke="black" points="121.51,-222.15 126.8,-212.97 116.94,-216.84 121.51,-222.15"/>
<text text-anchor="middle" x="111.91" y="-239.8" font-family="Times,serif" font-size="14.00">0</text>
</g>
<!-- 2&#45;&gt;0 -->
<g id="edge22" class="edge">
<title>2&#45;&gt;0</title>
<path fill="none" stroke="black" d="M114.59,-270.69C120.38,-257.81 128.05,-240.74 134.35,-226.71"/>
<polygon fill="black" stroke="black" points="137.55,-228.14 138.46,-217.58 131.17,-225.27 137.55,-228.14"/>
<text text-anchor="middle" x="133.91" y="-239.8" font-family="Times,serif" font-size="14.00">3</text>
</g>
<!-- 2&#45;&gt;1 -->
<g id="edge21" class="edge">
<title>2&#45;&gt;1</title>
<path fill="none" stroke="black" d="M84.37,-285.68C65.64,-280.72 39.43,-270.58 25.91,-251 0.07,-213.58 -11.43,-183.74 17.91,-149 48.74,-112.49 80.01,-149.87 123.91,-131 124.94,-130.56 125.97,-130.07 127,-129.54"/>
<polygon fill="black" stroke="black" points="129.19,-132.3 135.84,-124.06 125.5,-126.35 129.19,-132.3"/>
<text text-anchor="middle" x="11.91" y="-196.3" font-family="Times,serif" font-size="14.00">4</text>
</g>
<!-- 2&#45;&gt;2 -->
<g id="edge4" class="edge">
<title>2&#45;&gt;2</title>
<path fill="none" stroke="black" d="M126.49,-299.37C136.76,-300.53 145.91,-297.74 145.91,-291 145.91,-286.68 142.15,-283.99 136.76,-282.91"/>
<polygon fill="black" stroke="black" points="136.58,-279.41 126.49,-282.63 136.39,-286.4 136.58,-279.41"/>
<text text-anchor="middle" x="150.91" y="-287.3" font-family="Times,serif" font-size="14.00">1</text>
</g>
<!-- 2&#45;&gt;3 -->
<g id="edge7" class="edge">
<title>2&#45;&gt;3</title>
<path fill="none" stroke="black" d="M93,-272.65C88.94,-266.19 84.98,-258.58 82.91,-251 81.16,-244.57 82.57,-242.66 82.91,-236 87.14,-154.78 56.42,-121.42 101.91,-54 109.47,-42.8 121.8,-34.92 133.77,-29.51"/>
<polygon fill="black" stroke="black" points="135.25,-32.69 143.2,-25.69 132.62,-26.21 135.25,-32.69"/>
<text text-anchor="middle" x="84.91" y="-152.8" font-family="Times,serif" font-size="14.00">2</text>
</g>
<!-- 3&#45;&gt;0 -->
<g id="edge17" class="edge">
<title>3&#45;&gt;0</title>
<path fill="none" stroke="black" d="M144.8,-27.67C133.16,-33.32 120.03,-41.91 112.91,-54 90.47,-92.1 112.83,-144.13 130.09,-174.39"/>
<polygon fill="black" stroke="black" points="127.11,-176.23 135.22,-183.04 133.13,-172.66 127.11,-176.23"/>
<text text-anchor="middle" x="114.91" y="-105.3" font-family="Times,serif" font-size="14.00">1</text>
</g>
<!-- 3&#45;&gt;1 -->
<g id="edge3" class="edge">
<title>3&#45;&gt;1</title>
<path fill="none" stroke="black" d="M166.94,-36.23C166.2,-45.92 164.96,-58.2 162.91,-69 162.34,-72.01 161.65,-75.13 160.88,-78.23"/>
<polygon fill="black" stroke="black" points="157.5,-77.35 158.3,-87.92 164.26,-79.16 157.5,-77.35"/>
<text text-anchor="middle" x="169.91" y="-57.8" font-family="Times,serif" font-size="14.00">3</text>
</g>
<!-- 3&#45;&gt;3 -->
<g id="edge2" class="edge">
<title>3&#45;&gt;3</title>
<path fill="none" stroke="black" d="M194.71,-21.93C204.69,-22.06 212.91,-20.75 212.91,-18 212.91,-16.28 209.7,-15.13 204.85,-14.53"/>
<polygon fill="black" stroke="black" points="204.86,-11.03 194.71,-14.07 204.54,-18.02 204.86,-11.03"/>
<text text-anchor="middle" x="217.91" y="-14.3" font-family="Times,serif" font-size="14.00">0</text>
</g>
<!-- 3&#45;&gt;3 -->
<g id="edge20" class="edge">
<title>3&#45;&gt;3</title>
<path fill="none" stroke="black" d="M193.14,-24.94C211.95,-27.37 230.91,-25.05 230.91,-18 230.91,-12.21 218.15,-9.62 203.18,-10.21"/>
<polygon fill="black" stroke="black" points="202.81,-6.73 193.14,-11.06 203.4,-13.7 202.81,-6.73"/>
<text text-anchor="middle" x="235.91" y="-14.3" font-family="Times,serif" font-size="14.00">2</text>
</g>
<!-- 3&#45;&gt;4 -->
<g id="edge16" class="edge">
<title>3&#45;&gt;4</title>
<path fill="none" stroke="black" d="M194.52,-21.76C239.79,-28.09 326.91,-48.05 326.91,-108 326.91,-292 326.91,-292 326.91,-292 326.91,-344.8 257.54,-369.17 215.44,-379.09"/>
<polygon fill="black" stroke="black" points="214.64,-375.68 205.63,-381.26 216.15,-382.52 214.64,-375.68"/>
<text text-anchor="middle" x="331.91" y="-196.3" font-family="Times,serif" font-size="14.00">4</text>
</g>
<!-- 4&#45;&gt;2 -->
<g id="edge6" class="edge">
<title>4&#45;&gt;2</title>
<path fill="none" stroke="black" d="M161.74,-384.28C135.77,-382.1 93.79,-374.13 73.91,-346 66.5,-335.5 72.7,-323.22 81.56,-313.02"/>
<polygon fill="black" stroke="black" points="84.21,-315.31 88.66,-305.69 79.19,-310.43 84.21,-315.31"/>
<text text-anchor="middle" x="78.91" y="-334.8" font-family="Times,serif" font-size="14.00">2</text>
</g>
<!-- 4&#45;&gt;2 -->
<g id="edge9" class="edge">
<title>4&#45;&gt;2</title>
<path fill="none" stroke="black" d="M162.46,-380.57C144.22,-375.56 119.09,-365.42 106.91,-346 102.65,-339.21 101.12,-330.93 100.98,-322.91"/>
<polygon fill="black" stroke="black" points="104.49,-322.83 101.48,-312.67 97.5,-322.49 104.49,-322.83"/>
<text text-anchor="middle" x="111.91" y="-334.8" font-family="Times,serif" font-size="14.00">4</text>
</g>
<!-- 4&#45;&gt;2 -->
<g id="edge10" class="edge">
<title>4&#45;&gt;2</title>
<path fill="none" stroke="black" d="M166.99,-371.93C158.34,-364.8 147.97,-355.49 139.91,-346 133.05,-337.91 126.56,-328.32 121.13,-319.48"/>
<polygon fill="black" stroke="black" points="124,-317.45 115.88,-310.64 117.98,-321.02 124,-317.45"/>
<text text-anchor="middle" x="144.91" y="-334.8" font-family="Times,serif" font-size="14.00">0</text>
</g>
<!-- 4&#45;&gt;2 -->
<g id="edge25" class="edge">
<title>4&#45;&gt;2</title>
<path fill="none" stroke="black" d="M173.94,-366.36C167.72,-355.52 159.16,-341.9 149.91,-331 144.12,-324.18 137.13,-317.45 130.45,-311.56"/>
<polygon fill="black" stroke="black" points="132.71,-308.89 122.83,-305.07 128.17,-314.22 132.71,-308.89"/>
<text text-anchor="middle" x="164.91" y="-334.8" font-family="Times,serif" font-size="14.00">1</text>
</g>
<!-- 4&#45;&gt;3 -->
<g id="edge15" class="edge">
<title>4&#45;&gt;3</title>
<path fill="none" stroke="black" d="M204.01,-376.6C232.42,-363.23 280.91,-334.23 280.91,-292 280.91,-292 280.91,-292 280.91,-108 280.91,-67.2 234.89,-42.23 201.59,-29.5"/>
<polygon fill="black" stroke="black" points="202.75,-26.2 192.15,-26.08 200.36,-32.78 202.75,-26.2"/>
<text text-anchor="middle" x="285.91" y="-196.3" font-family="Times,serif" font-size="14.00">3</text>
</g>
</g>
</svg>
