<?xml version="1.0" encoding="UTF-8" standalone="no"?>
<!DOCTYPE svg PUBLIC "-//W3C//DTD SVG 1.1//EN"
 "http://www.w3.org/Graphics/SVG/1.1/DTD/svg11.dtd">
<!-- Generated by graphviz version 2.49.0 (20210829.0051)
 -->
<!-- Pages: 1 -->
<svg width="359pt" height="473pt"
 viewBox="0.00 0.00 359.00 473.00" xmlns="http://www.w3.org/2000/svg" xmlns:xlink="http://www.w3.org/1999/xlink">
<g id="graph0" class="graph" transform="scale(1 1) rotate(0) translate(4 469)">
<polygon fill="white" stroke="transparent" points="-4,4 -4,-469 355,-469 355,4 -4,4"/>
<!-- fake -->
<g id="node1" class="node">
<title>fake</title>
</g>
<!-- 4 -->
<g id="node6" class="node">
<title>4</title>
<ellipse fill="none" stroke="black" cx="163" cy="-374" rx="27" ry="18"/>
<text text-anchor="middle" x="163" y="-370.3" font-family="Times,serif" font-size="14.00">4</text>
</g>
<!-- fake&#45;&gt;4 -->
<g id="edge1" class="edge">
<title>fake&#45;&gt;4</title>
<path fill="none" stroke="black" stroke-width="2" d="M163,-428.81C163,-420.79 163,-411.05 163,-402.07"/>
<polygon fill="black" stroke="black" stroke-width="2" points="166.5,-402.03 163,-392.03 159.5,-402.03 166.5,-402.03"/>
</g>
<!-- 0 -->
<g id="node2" class="node">
<title>0</title>
<ellipse fill="none" stroke="black" cx="27" cy="-200" rx="27" ry="18"/>
<text text-anchor="middle" x="27" y="-196.3" font-family="Times,serif" font-size="14.00">0</text>
</g>
<!-- 2 -->
<g id="node4" class="node">
<title>2</title>
<ellipse fill="none" stroke="black" cx="216" cy="-109" rx="18" ry="18"/>
<ellipse fill="none" stroke="black" cx="216" cy="-109" rx="22" ry="22"/>
<text text-anchor="middle" x="216" y="-105.3" font-family="Times,serif" font-size="14.00">2</text>
</g>
<!-- 0&#45;&gt;2 -->
<g id="edge9" class="edge">
<title>0&#45;&gt;2</title>
<path fill="none" stroke="black" d="M38.04,-183.28C46.63,-172.16 59.51,-157.73 74,-149 108.38,-128.29 153.99,-118.31 184.14,-113.7"/>
<polygon fill="black" stroke="black" points="184.7,-117.15 194.11,-112.28 183.71,-110.22 184.7,-117.15"/>
<text text-anchor="middle" x="79" y="-152.8" font-family="Times,serif" font-size="14.00">0</text>
</g>
<!-- 3 -->
<g id="node5" class="node">
<title>3</title>
<ellipse fill="none" stroke="black" cx="167" cy="-18" rx="27" ry="18"/>
<text text-anchor="middle" x="167" y="-14.3" font-family="Times,serif" font-size="14.00">3</text>
</g>
<!-- 0&#45;&gt;3 -->
<g id="edge2" class="edge">
<title>0&#45;&gt;3</title>
<path fill="none" stroke="black" d="M22.84,-182.07C16.31,-150.82 7.99,-84.52 46,-54 69.98,-34.75 104.13,-26.08 130.03,-22.19"/>
<polygon fill="black" stroke="black" points="130.77,-25.62 140.22,-20.83 129.85,-18.68 130.77,-25.62"/>
<text text-anchor="middle" x="28" y="-105.3" font-family="Times,serif" font-size="14.00">2</text>
</g>
<!-- 0&#45;&gt;3 -->
<g id="edge15" class="edge">
<title>0&#45;&gt;3</title>
<path fill="none" stroke="black" d="M19.75,-182.62C14.18,-169.09 6.95,-149.21 4,-131 -1.76,-95.48 -0.99,-73.88 29,-54 59.37,-33.87 100.51,-25.32 129.96,-21.68"/>
<polygon fill="black" stroke="black" points="130.68,-25.13 140.24,-20.56 129.92,-18.17 130.68,-25.13"/>
<text text-anchor="middle" x="9" y="-105.3" font-family="Times,serif" font-size="14.00">3</text>
</g>
<!-- 0&#45;&gt;4 -->
<g id="edge10" class="edge">
<title>0&#45;&gt;4</title>
<path fill="none" stroke="black" d="M24.66,-218.2C21.7,-247.95 20.67,-308.62 56,-338 76.07,-354.69 104.32,-363.49 126.75,-368.09"/>
<polygon fill="black" stroke="black" points="126.13,-371.54 136.6,-369.93 127.41,-364.66 126.13,-371.54"/>
<text text-anchor="middle" x="38" y="-283.3" font-family="Times,serif" font-size="14.00">1</text>
</g>
<!-- 0&#45;&gt;4 -->
<g id="edge20" class="edge">
<title>0&#45;&gt;4</title>
<path fill="none" stroke="black" d="M33.43,-217.62C44.88,-245.41 71.08,-301.85 108,-338 115.44,-345.29 124.64,-351.86 133.37,-357.29"/>
<polygon fill="black" stroke="black" points="131.82,-360.43 142.21,-362.51 135.38,-354.41 131.82,-360.43"/>
<text text-anchor="middle" x="85" y="-283.3" font-family="Times,serif" font-size="14.00">4</text>
</g>
<!-- 1 -->
<g id="node3" class="node">
<title>1</title>
<ellipse fill="none" stroke="black" cx="132" cy="-287" rx="27" ry="18"/>
<text text-anchor="middle" x="132" y="-283.3" font-family="Times,serif" font-size="14.00">1</text>
</g>
<!-- 1&#45;&gt;0 -->
<g id="edge3" class="edge">
<title>1&#45;&gt;0</title>
<path fill="none" stroke="black" d="M113.5,-273.5C104.18,-267.02 92.8,-258.83 83,-251 71.76,-242.01 59.79,-231.47 49.81,-222.39"/>
<polygon fill="black" stroke="black" points="52.03,-219.67 42.3,-215.48 47.29,-224.82 52.03,-219.67"/>
<text text-anchor="middle" x="88" y="-239.8" font-family="Times,serif" font-size="14.00">0</text>
</g>
<!-- 1&#45;&gt;2 -->
<g id="edge7" class="edge">
<title>1&#45;&gt;2</title>
<path fill="none" stroke="black" d="M139.75,-269.76C154.03,-239.84 184.65,-175.68 202.44,-138.41"/>
<polygon fill="black" stroke="black" points="205.73,-139.64 206.88,-129.11 199.41,-136.62 205.73,-139.64"/>
<text text-anchor="middle" x="185" y="-196.3" font-family="Times,serif" font-size="14.00">1</text>
</g>
<!-- 1&#45;&gt;2 -->
<g id="edge12" class="edge">
<title>1&#45;&gt;2</title>
<path fill="none" stroke="black" d="M123.07,-270C109.11,-242.62 86.26,-186.14 112,-149 127.98,-125.94 159.38,-116.5 183.52,-112.64"/>
<polygon fill="black" stroke="black" points="184.24,-116.07 193.68,-111.27 183.3,-109.14 184.24,-116.07"/>
<text text-anchor="middle" x="108" y="-196.3" font-family="Times,serif" font-size="14.00">2</text>
</g>
<!-- 1&#45;&gt;3 -->
<g id="edge17" class="edge">
<title>1&#45;&gt;3</title>
<path fill="none" stroke="black" d="M129.41,-268.75C121.98,-218.18 101.74,-72.69 112,-54 117.11,-44.7 125.85,-37.52 134.88,-32.15"/>
<polygon fill="black" stroke="black" points="136.69,-35.15 143.88,-27.37 133.41,-28.97 136.69,-35.15"/>
<text text-anchor="middle" x="120" y="-152.8" font-family="Times,serif" font-size="14.00">3</text>
</g>
<!-- 1&#45;&gt;4 -->
<g id="edge26" class="edge">
<title>1&#45;&gt;4</title>
<path fill="none" stroke="black" d="M136.43,-304.86C139.16,-314.64 142.91,-327.14 147,-338 148.12,-340.97 149.37,-344.04 150.67,-347.07"/>
<polygon fill="black" stroke="black" points="147.59,-348.77 154.88,-356.46 153.98,-345.91 147.59,-348.77"/>
<text text-anchor="middle" x="152" y="-326.8" font-family="Times,serif" font-size="14.00">4</text>
</g>
<!-- 2&#45;&gt;3 -->
<g id="edge6" class="edge">
<title>2&#45;&gt;3</title>
<path fill="none" stroke="black" d="M201.46,-92.15C195.78,-85.37 189.55,-77.16 185,-69 180.94,-61.72 177.5,-53.34 174.75,-45.56"/>
<polygon fill="black" stroke="black" points="177.99,-44.21 171.54,-35.8 171.35,-46.39 177.99,-44.21"/>
<text text-anchor="middle" x="190" y="-57.8" font-family="Times,serif" font-size="14.00">2</text>
</g>
<!-- 2&#45;&gt;3 -->
<g id="edge8" class="edge">
<title>2&#45;&gt;3</title>
<path fill="none" stroke="black" d="M209.8,-87.84C206.18,-77.4 201.13,-64.63 195,-54 192.66,-49.95 189.88,-45.87 186.99,-42"/>
<polygon fill="black" stroke="black" points="189.57,-39.62 180.62,-33.95 184.08,-43.96 189.57,-39.62"/>
<text text-anchor="middle" x="207" y="-57.8" font-family="Times,serif" font-size="14.00">0</text>
</g>
<!-- 2&#45;&gt;3 -->
<g id="edge21" class="edge">
<title>2&#45;&gt;3</title>
<path fill="none" stroke="black" d="M220.33,-87.2C221.47,-76.7 221.19,-64.09 216,-54 211.87,-45.98 204.97,-39.39 197.62,-34.18"/>
<polygon fill="black" stroke="black" points="199.26,-31.08 188.93,-28.69 195.52,-36.99 199.26,-31.08"/>
<text text-anchor="middle" x="225" y="-57.8" font-family="Times,serif" font-size="14.00">1</text>
</g>
<!-- 2&#45;&gt;3 -->
<g id="edge22" class="edge">
<title>2&#45;&gt;3</title>
<path fill="none" stroke="black" d="M229.04,-90.61C235.61,-79.59 240.86,-65.33 234,-54 226.74,-42.01 213.88,-33.94 201.35,-28.6"/>
<polygon fill="black" stroke="black" points="202.53,-25.3 191.94,-25.02 200.05,-31.84 202.53,-25.3"/>
<text text-anchor="middle" x="242" y="-57.8" font-family="Times,serif" font-size="14.00">3</text>
</g>
<!-- 2&#45;&gt;4 -->
<g id="edge18" class="edge">
<title>2&#45;&gt;4</title>
<path fill="none" stroke="black" d="M220.47,-130.96C221.51,-136.77 222.48,-143.11 223,-149 223.59,-155.64 223.37,-157.34 223,-164 219.49,-227.4 215.32,-243.38 200,-305 196.3,-319.87 197.02,-324.38 190,-338 187.89,-342.1 185.28,-346.21 182.52,-350.09"/>
<polygon fill="black" stroke="black" points="179.66,-348.06 176.39,-358.14 185.23,-352.31 179.66,-348.06"/>
<text text-anchor="middle" x="220" y="-239.8" font-family="Times,serif" font-size="14.00">4</text>
</g>
<!-- 3&#45;&gt;0 -->
<g id="edge24" class="edge">
<title>3&#45;&gt;0</title>
<path fill="none" stroke="black" d="M140.72,-22.57C119.96,-26.72 91.63,-35.53 74,-54 57.7,-71.07 41.3,-134.76 32.85,-171.81"/>
<polygon fill="black" stroke="black" points="29.35,-171.41 30.58,-181.93 36.18,-172.93 29.35,-171.41"/>
<text text-anchor="middle" x="61" y="-105.3" font-family="Times,serif" font-size="14.00">4</text>
</g>
<!-- 3&#45;&gt;2 -->
<g id="edge4" class="edge">
<title>3&#45;&gt;2</title>
<path fill="none" stroke="black" d="M193.17,-22.47C226.67,-27.51 281.84,-38.03 294,-54 310.07,-75.1 275.07,-91.02 246.88,-99.93"/>
<polygon fill="black" stroke="black" points="245.88,-96.57 237.29,-102.78 247.87,-103.28 245.88,-96.57"/>
<text text-anchor="middle" x="303" y="-57.8" font-family="Times,serif" font-size="14.00">2</text>
</g>
<!-- 3&#45;&gt;2 -->
<g id="edge19" class="edge">
<title>3&#45;&gt;2</title>
<path fill="none" stroke="black" d="M145.6,-28.99C128.36,-38.48 108.56,-53.55 119,-69 133.39,-90.29 161.53,-99.96 183.81,-104.35"/>
<polygon fill="black" stroke="black" points="183.43,-107.84 193.88,-106.07 184.61,-100.94 183.43,-107.84"/>
<text text-anchor="middle" x="124" y="-57.8" font-family="Times,serif" font-size="14.00">3</text>
</g>
<!-- 3&#45;&gt;2 -->
<g id="edge25" class="edge">
<title>3&#45;&gt;2</title>
<path fill="none" stroke="black" d="M161.86,-36.07C159.8,-46.15 158.94,-58.89 164,-69 169.09,-79.17 178.23,-87.38 187.44,-93.59"/>
<polygon fill="black" stroke="black" points="185.82,-96.7 196.17,-98.94 189.47,-90.73 185.82,-96.7"/>
<text text-anchor="middle" x="169" y="-57.8" font-family="Times,serif" font-size="14.00">1</text>
</g>
<!-- 3&#45;&gt;4 -->
<g id="edge16" class="edge">
<title>3&#45;&gt;4</title>
<path fill="none" stroke="black" d="M194.13,-19.13C225.57,-20.61 277.46,-27.34 312,-54 333.56,-70.65 341,-80.76 341,-108 341,-288 341,-288 341,-288 341,-349.83 252.45,-366.73 200.26,-371.32"/>
<polygon fill="black" stroke="black" points="199.74,-367.84 190.03,-372.1 200.27,-374.82 199.74,-367.84"/>
<text text-anchor="middle" x="346" y="-196.3" font-family="Times,serif" font-size="14.00">0</text>
</g>
<!-- 4&#45;&gt;0 -->
<g id="edge13" class="edge">
<title>4&#45;&gt;0</title>
<path fill="none" stroke="black" d="M136.08,-371.59C97.36,-367.84 28.56,-354.23 10,-305 0.36,-279.43 7.76,-248.3 15.59,-226.8"/>
<polygon fill="black" stroke="black" points="18.89,-227.96 19.28,-217.37 12.37,-225.41 18.89,-227.96"/>
<text text-anchor="middle" x="15" y="-283.3" font-family="Times,serif" font-size="14.00">1</text>
</g>
<!-- 4&#45;&gt;1 -->
<g id="edge11" class="edge">
<title>4&#45;&gt;1</title>
<path fill="none" stroke="black" d="M163.52,-355.81C163.28,-345.91 162.03,-333.41 158,-323 156.4,-318.87 154.18,-314.8 151.69,-310.98"/>
<polygon fill="black" stroke="black" points="154.32,-308.63 145.61,-302.6 148.65,-312.75 154.32,-308.63"/>
<text text-anchor="middle" x="166" y="-326.8" font-family="Times,serif" font-size="14.00">0</text>
</g>
<!-- 4&#45;&gt;1 -->
<g id="edge14" class="edge">
<title>4&#45;&gt;1</title>
<path fill="none" stroke="black" d="M141.25,-363.06C131.33,-357.27 120.56,-348.94 115,-338 110.89,-329.92 112.49,-320.63 116,-312.27"/>
<polygon fill="black" stroke="black" points="119.13,-313.83 120.57,-303.33 112.9,-310.64 119.13,-313.83"/>
<text text-anchor="middle" x="120" y="-326.8" font-family="Times,serif" font-size="14.00">4</text>
</g>
<!-- 4&#45;&gt;2 -->
<g id="edge5" class="edge">
<title>4&#45;&gt;2</title>
<path fill="none" stroke="black" d="M169.26,-356.42C171.29,-350.65 173.42,-344.09 175,-338 193.03,-268.59 205.83,-185.27 211.94,-141.08"/>
<polygon fill="black" stroke="black" points="215.44,-141.36 213.32,-130.98 208.5,-140.42 215.44,-141.36"/>
<text text-anchor="middle" x="201" y="-239.8" font-family="Times,serif" font-size="14.00">2</text>
</g>
<!-- 4&#45;&gt;2 -->
<g id="edge23" class="edge">
<title>4&#45;&gt;2</title>
<path fill="none" stroke="black" d="M182.14,-360.89C190.42,-354.86 199.64,-346.94 206,-338 215.04,-325.28 213.76,-320.02 218,-305 236.96,-237.78 254.08,-216.73 237,-149 235.99,-145 234.49,-140.97 232.73,-137.09"/>
<polygon fill="black" stroke="black" points="235.69,-135.19 228.02,-127.88 229.46,-138.38 235.69,-135.19"/>
<text text-anchor="middle" x="243" y="-239.8" font-family="Times,serif" font-size="14.00">3</text>
</g>
</g>
</svg>
