<?xml version="1.0" encoding="UTF-8" standalone="no"?>
<!DOCTYPE svg PUBLIC "-//W3C//DTD SVG 1.1//EN"
 "http://www.w3.org/Graphics/SVG/1.1/DTD/svg11.dtd">
<!-- Generated by graphviz version 2.49.0 (20210829.0051)
 -->
<!-- Pages: 1 -->
<svg width="387pt" height="481pt"
 viewBox="0.00 0.00 386.87 481.00" xmlns="http://www.w3.org/2000/svg" xmlns:xlink="http://www.w3.org/1999/xlink">
<g id="graph0" class="graph" transform="scale(1 1) rotate(0) translate(4 477)">
<polygon fill="white" stroke="transparent" points="-4,4 -4,-477 382.87,-477 382.87,4 -4,4"/>
<!-- fake -->
<g id="node1" class="node">
<title>fake</title>
</g>
<!-- 0 -->
<g id="node2" class="node">
<title>0</title>
<ellipse fill="none" stroke="black" cx="165.87" cy="-382" rx="27" ry="18"/>
<text text-anchor="middle" x="165.87" y="-378.3" font-family="Times,serif" font-size="14.00">0</text>
</g>
<!-- fake&#45;&gt;0 -->
<g id="edge1" class="edge">
<title>fake&#45;&gt;0</title>
<path fill="none" stroke="black" stroke-width="2" d="M165.87,-436.81C165.87,-428.79 165.87,-419.05 165.87,-410.07"/>
<polygon fill="black" stroke="black" stroke-width="2" points="169.37,-410.03 165.87,-400.03 162.37,-410.03 169.37,-410.03"/>
</g>
<!-- 1 -->
<g id="node3" class="node">
<title>1</title>
<ellipse fill="none" stroke="black" cx="86.87" cy="-196" rx="18" ry="18"/>
<ellipse fill="none" stroke="black" cx="86.87" cy="-196" rx="22" ry="22"/>
<text text-anchor="middle" x="86.87" y="-192.3" font-family="Times,serif" font-size="14.00">1</text>
</g>
<!-- 0&#45;&gt;1 -->
<g id="edge8" class="edge">
<title>0&#45;&gt;1</title>
<path fill="none" stroke="black" d="M138.86,-380.72C107.86,-379.07 56.91,-372.18 22.87,-346 9.63,-335.81 9,-329.19 4.87,-313 -3.81,-278.94 -1.37,-261.44 22.87,-236 32.72,-225.67 45.88,-217.03 57.7,-210.53"/>
<polygon fill="black" stroke="black" points="59.56,-213.51 66.81,-205.79 56.32,-207.31 59.56,-213.51"/>
<text text-anchor="middle" x="9.87" y="-287.3" font-family="Times,serif" font-size="14.00">3</text>
</g>
<!-- 0&#45;&gt;1 -->
<g id="edge14" class="edge">
<title>0&#45;&gt;1</title>
<path fill="none" stroke="black" d="M139.82,-376.87C118.66,-372.37 89.12,-363.37 68.87,-346 56.19,-335.12 55,-329.19 50.87,-313 46.04,-294.05 46.38,-288.03 50.87,-269 54.62,-253.13 62.43,-236.77 69.82,-223.66"/>
<polygon fill="black" stroke="black" points="73.01,-225.14 75.07,-214.75 66.98,-221.59 73.01,-225.14"/>
<text text-anchor="middle" x="55.87" y="-287.3" font-family="Times,serif" font-size="14.00">1</text>
</g>
<!-- 2 -->
<g id="node4" class="node">
<title>2</title>
<ellipse fill="none" stroke="black" cx="200.87" cy="-105" rx="27" ry="18"/>
<text text-anchor="middle" x="200.87" y="-101.3" font-family="Times,serif" font-size="14.00">2</text>
</g>
<!-- 0&#45;&gt;2 -->
<g id="edge9" class="edge">
<title>0&#45;&gt;2</title>
<path fill="none" stroke="black" d="M181.63,-367.16C194.71,-354.55 212.33,-334.64 219.87,-313 241.52,-250.93 222.75,-172.4 210.11,-132.25"/>
<polygon fill="black" stroke="black" points="213.42,-131.09 206.98,-122.67 206.76,-133.26 213.42,-131.09"/>
<text text-anchor="middle" x="233.87" y="-239.8" font-family="Times,serif" font-size="14.00">2</text>
</g>
<!-- 3 -->
<g id="node5" class="node">
<title>3</title>
<ellipse fill="none" stroke="black" cx="132.87" cy="-291" rx="18" ry="18"/>
<ellipse fill="none" stroke="black" cx="132.87" cy="-291" rx="22" ry="22"/>
<text text-anchor="middle" x="132.87" y="-287.3" font-family="Times,serif" font-size="14.00">3</text>
</g>
<!-- 0&#45;&gt;3 -->
<g id="edge5" class="edge">
<title>0&#45;&gt;3</title>
<path fill="none" stroke="black" d="M149.12,-367.38C143.15,-361.5 137.11,-354.11 133.87,-346 131.03,-338.87 129.9,-330.79 129.69,-323.08"/>
<polygon fill="black" stroke="black" points="133.19,-323 129.88,-312.94 126.19,-322.87 133.19,-323"/>
<text text-anchor="middle" x="138.87" y="-334.8" font-family="Times,serif" font-size="14.00">4</text>
</g>
<!-- 0&#45;&gt;3 -->
<g id="edge6" class="edge">
<title>0&#45;&gt;3</title>
<path fill="none" stroke="black" d="M159.67,-364.26C155.18,-352.15 148.99,-335.47 143.7,-321.19"/>
<polygon fill="black" stroke="black" points="146.96,-319.93 140.21,-311.77 140.4,-322.37 146.96,-319.93"/>
<text text-anchor="middle" x="156.87" y="-334.8" font-family="Times,serif" font-size="14.00">0</text>
</g>
<!-- 1&#45;&gt;0 -->
<g id="edge21" class="edge">
<title>1&#45;&gt;0</title>
<path fill="none" stroke="black" d="M83.33,-217.74C80.19,-241.8 78.01,-282.1 91.87,-313 101.42,-334.28 121.18,-351.88 137.88,-363.84"/>
<polygon fill="black" stroke="black" points="136.03,-366.82 146.26,-369.57 139.98,-361.04 136.03,-366.82"/>
<text text-anchor="middle" x="96.87" y="-287.3" font-family="Times,serif" font-size="14.00">1</text>
</g>
<!-- 1&#45;&gt;1 -->
<g id="edge3" class="edge">
<title>1&#45;&gt;1</title>
<path fill="none" stroke="black" d="M108.68,-200.25C118.44,-200.65 126.87,-199.23 126.87,-196 126.87,-193.98 123.58,-192.67 118.73,-192.07"/>
<polygon fill="black" stroke="black" points="118.79,-188.57 108.68,-191.75 118.57,-195.56 118.79,-188.57"/>
<text text-anchor="middle" x="131.87" y="-192.3" font-family="Times,serif" font-size="14.00">4</text>
</g>
<!-- 1&#45;&gt;1 -->
<g id="edge10" class="edge">
<title>1&#45;&gt;1</title>
<path fill="none" stroke="black" d="M107.69,-203.2C125.76,-206.49 144.87,-204.09 144.87,-196 144.87,-189.43 132.26,-186.61 117.83,-187.55"/>
<polygon fill="black" stroke="black" points="117.19,-184.1 107.69,-188.8 118.04,-191.05 117.19,-184.1"/>
<text text-anchor="middle" x="149.87" y="-192.3" font-family="Times,serif" font-size="14.00">3</text>
</g>
<!-- 1&#45;&gt;2 -->
<g id="edge15" class="edge">
<title>1&#45;&gt;2</title>
<path fill="none" stroke="black" d="M106.3,-185.61C120.2,-178.44 139.02,-167.81 153.87,-156 163.97,-147.97 173.94,-137.79 182.07,-128.71"/>
<polygon fill="black" stroke="black" points="184.78,-130.94 188.71,-121.1 179.5,-126.34 184.78,-130.94"/>
<text text-anchor="middle" x="173.87" y="-144.8" font-family="Times,serif" font-size="14.00">0</text>
</g>
<!-- 4 -->
<g id="node6" class="node">
<title>4</title>
<ellipse fill="none" stroke="black" cx="200.87" cy="-18" rx="27" ry="18"/>
<text text-anchor="middle" x="200.87" y="-14.3" font-family="Times,serif" font-size="14.00">4</text>
</g>
<!-- 1&#45;&gt;4 -->
<g id="edge25" class="edge">
<title>1&#45;&gt;4</title>
<path fill="none" stroke="black" d="M89.13,-173.95C92.42,-150.98 100.18,-113.89 117.87,-87 131.78,-65.87 154.28,-48.02 172.35,-35.92"/>
<polygon fill="black" stroke="black" points="174.31,-38.82 180.81,-30.46 170.51,-32.95 174.31,-38.82"/>
<text text-anchor="middle" x="122.87" y="-101.3" font-family="Times,serif" font-size="14.00">2</text>
</g>
<!-- 2&#45;&gt;0 -->
<g id="edge20" class="edge">
<title>2&#45;&gt;0</title>
<path fill="none" stroke="black" d="M214.26,-120.86C219.08,-126.8 224.22,-133.9 227.87,-141 234.89,-154.62 235.02,-158.94 237.87,-174 249.38,-234.7 255.53,-253.8 237.87,-313 233.1,-329.01 231.23,-333.75 219.87,-346 212.94,-353.48 204.09,-360.08 195.56,-365.47"/>
<polygon fill="black" stroke="black" points="193.69,-362.51 186.89,-370.64 197.27,-368.52 193.69,-362.51"/>
<text text-anchor="middle" x="253.87" y="-239.8" font-family="Times,serif" font-size="14.00">3</text>
</g>
<!-- 2&#45;&gt;1 -->
<g id="edge22" class="edge">
<title>2&#45;&gt;1</title>
<path fill="none" stroke="black" d="M180.29,-116.93C168.86,-123.35 154.63,-131.97 142.87,-141 130.93,-150.18 118.76,-161.61 108.83,-171.59"/>
<polygon fill="black" stroke="black" points="106.19,-169.28 101.71,-178.88 111.2,-174.17 106.19,-169.28"/>
<text text-anchor="middle" x="147.87" y="-144.8" font-family="Times,serif" font-size="14.00">0</text>
</g>
<!-- 2&#45;&gt;2 -->
<g id="edge11" class="edge">
<title>2&#45;&gt;2</title>
<path fill="none" stroke="black" d="M227.67,-108.93C237.66,-109.06 245.87,-107.75 245.87,-105 245.87,-103.28 242.66,-102.13 237.82,-101.53"/>
<polygon fill="black" stroke="black" points="237.82,-98.03 227.67,-101.07 237.5,-105.02 237.82,-98.03"/>
<text text-anchor="middle" x="250.87" y="-101.3" font-family="Times,serif" font-size="14.00">4</text>
</g>
<!-- 2&#45;&gt;2 -->
<g id="edge16" class="edge">
<title>2&#45;&gt;2</title>
<path fill="none" stroke="black" d="M226.1,-111.94C244.92,-114.37 263.87,-112.05 263.87,-105 263.87,-99.21 251.12,-96.62 236.15,-97.21"/>
<polygon fill="black" stroke="black" points="235.77,-93.73 226.1,-98.06 236.36,-100.7 235.77,-93.73"/>
<text text-anchor="middle" x="268.87" y="-101.3" font-family="Times,serif" font-size="14.00">2</text>
</g>
<!-- 2&#45;&gt;4 -->
<g id="edge13" class="edge">
<title>2&#45;&gt;4</title>
<path fill="none" stroke="black" d="M200.87,-86.8C200.87,-75.16 200.87,-59.55 200.87,-46.24"/>
<polygon fill="black" stroke="black" points="204.37,-46.18 200.87,-36.18 197.37,-46.18 204.37,-46.18"/>
<text text-anchor="middle" x="205.87" y="-57.8" font-family="Times,serif" font-size="14.00">1</text>
</g>
<!-- 3&#45;&gt;1 -->
<g id="edge4" class="edge">
<title>3&#45;&gt;1</title>
<path fill="none" stroke="black" d="M123.34,-270.73C116.82,-257.55 108.08,-239.86 100.78,-225.12"/>
<polygon fill="black" stroke="black" points="103.81,-223.34 96.24,-215.93 97.53,-226.44 103.81,-223.34"/>
<text text-anchor="middle" x="116.87" y="-239.8" font-family="Times,serif" font-size="14.00">3</text>
</g>
<!-- 3&#45;&gt;1 -->
<g id="edge12" class="edge">
<title>3&#45;&gt;1</title>
<path fill="none" stroke="black" d="M133.27,-268.83C132.7,-258.47 130.84,-246.09 125.87,-236 122.45,-229.03 117.27,-222.56 111.81,-216.98"/>
<polygon fill="black" stroke="black" points="114,-214.23 104.31,-209.94 109.21,-219.34 114,-214.23"/>
<text text-anchor="middle" x="134.87" y="-239.8" font-family="Times,serif" font-size="14.00">2</text>
</g>
<!-- 3&#45;&gt;2 -->
<g id="edge23" class="edge">
<title>3&#45;&gt;2</title>
<path fill="none" stroke="black" d="M144.8,-272.36C153.89,-258.2 166.14,-237.53 173.87,-218 184.94,-190.07 192.31,-156.35 196.52,-133.26"/>
<polygon fill="black" stroke="black" points="200.01,-133.61 198.28,-123.15 193.12,-132.4 200.01,-133.61"/>
<text text-anchor="middle" x="191.87" y="-192.3" font-family="Times,serif" font-size="14.00">1</text>
</g>
<!-- 3&#45;&gt;3 -->
<g id="edge2" class="edge">
<title>3&#45;&gt;3</title>
<path fill="none" stroke="black" d="M154.68,-295.25C164.44,-295.65 172.87,-294.23 172.87,-291 172.87,-288.98 169.58,-287.67 164.73,-287.07"/>
<polygon fill="black" stroke="black" points="164.79,-283.57 154.68,-286.75 164.57,-290.56 164.79,-283.57"/>
<text text-anchor="middle" x="177.87" y="-287.3" font-family="Times,serif" font-size="14.00">0</text>
</g>
<!-- 3&#45;&gt;3 -->
<g id="edge24" class="edge">
<title>3&#45;&gt;3</title>
<path fill="none" stroke="black" d="M153.69,-298.2C171.76,-301.49 190.87,-299.09 190.87,-291 190.87,-284.43 178.26,-281.61 163.83,-282.55"/>
<polygon fill="black" stroke="black" points="163.19,-279.1 153.69,-283.8 164.04,-286.05 163.19,-279.1"/>
<text text-anchor="middle" x="195.87" y="-287.3" font-family="Times,serif" font-size="14.00">4</text>
</g>
<!-- 4&#45;&gt;0 -->
<g id="edge19" class="edge">
<title>4&#45;&gt;0</title>
<path fill="none" stroke="black" d="M226.15,-24.58C261.89,-34.13 322.87,-57.28 322.87,-104 322.87,-292 322.87,-292 322.87,-292 322.87,-347.05 248.91,-368.46 202.52,-376.47"/>
<polygon fill="black" stroke="black" points="201.83,-373.04 192.51,-378.07 202.93,-379.95 201.83,-373.04"/>
<text text-anchor="middle" x="327.87" y="-192.3" font-family="Times,serif" font-size="14.00">1</text>
</g>
<!-- 4&#45;&gt;0 -->
<g id="edge26" class="edge">
<title>4&#45;&gt;0</title>
<path fill="none" stroke="black" d="M227.87,-20.58C275.36,-24.98 368.87,-41.57 368.87,-104 368.87,-292 368.87,-292 368.87,-292 368.87,-363.51 261.89,-378.1 203.26,-380.72"/>
<polygon fill="black" stroke="black" points="203.12,-377.23 193.25,-381.08 203.37,-384.22 203.12,-377.23"/>
<text text-anchor="middle" x="373.87" y="-192.3" font-family="Times,serif" font-size="14.00">4</text>
</g>
<!-- 4&#45;&gt;1 -->
<g id="edge7" class="edge">
<title>4&#45;&gt;1</title>
<path fill="none" stroke="black" d="M190.13,-34.57C180.71,-48.29 166.72,-68.86 154.87,-87 136.96,-114.44 117.06,-146.21 103.43,-168.16"/>
<polygon fill="black" stroke="black" points="100.3,-166.58 98.01,-176.92 106.25,-170.26 100.3,-166.58"/>
<text text-anchor="middle" x="159.87" y="-101.3" font-family="Times,serif" font-size="14.00">3</text>
</g>
<!-- 4&#45;&gt;4 -->
<g id="edge17" class="edge">
<title>4&#45;&gt;4</title>
<path fill="none" stroke="black" d="M227.67,-21.93C237.66,-22.06 245.87,-20.75 245.87,-18 245.87,-16.28 242.66,-15.13 237.82,-14.53"/>
<polygon fill="black" stroke="black" points="237.82,-11.03 227.67,-14.07 237.5,-18.02 237.82,-11.03"/>
<text text-anchor="middle" x="250.87" y="-14.3" font-family="Times,serif" font-size="14.00">2</text>
</g>
<!-- 4&#45;&gt;4 -->
<g id="edge18" class="edge">
<title>4&#45;&gt;4</title>
<path fill="none" stroke="black" d="M226.1,-24.94C244.92,-27.37 263.87,-25.05 263.87,-18 263.87,-12.21 251.12,-9.62 236.15,-10.21"/>
<polygon fill="black" stroke="black" points="235.77,-6.73 226.1,-11.06 236.36,-13.7 235.77,-6.73"/>
<text text-anchor="middle" x="268.87" y="-14.3" font-family="Times,serif" font-size="14.00">0</text>
</g>
</g>
</svg>
