<?xml version="1.0" encoding="UTF-8" standalone="no"?>
<!DOCTYPE svg PUBLIC "-//W3C//DTD SVG 1.1//EN"
 "http://www.w3.org/Graphics/SVG/1.1/DTD/svg11.dtd">
<!-- Generated by graphviz version 2.49.0 (20210829.0051)
 -->
<!-- Pages: 1 -->
<svg width="387pt" height="481pt"
 viewBox="0.00 0.00 386.91 481.00" xmlns="http://www.w3.org/2000/svg" xmlns:xlink="http://www.w3.org/1999/xlink">
<g id="graph0" class="graph" transform="scale(1 1) rotate(0) translate(4 477)">
<polygon fill="white" stroke="transparent" points="-4,4 -4,-477 382.91,-477 382.91,4 -4,4"/>
<!-- fake -->
<g id="node1" class="node">
<title>fake</title>
</g>
<!-- 0 -->
<g id="node2" class="node">
<title>0</title>
<ellipse fill="none" stroke="black" cx="165.91" cy="-382" rx="27" ry="18"/>
<text text-anchor="middle" x="165.91" y="-378.3" font-family="Times,serif" font-size="14.00">0</text>
</g>
<!-- fake&#45;&gt;0 -->
<g id="edge1" class="edge">
<title>fake&#45;&gt;0</title>
<path fill="none" stroke="black" stroke-width="2" d="M165.91,-436.81C165.91,-428.79 165.91,-419.05 165.91,-410.07"/>
<polygon fill="black" stroke="black" stroke-width="2" points="169.41,-410.03 165.91,-400.03 162.41,-410.03 169.41,-410.03"/>
</g>
<!-- 1 -->
<g id="node3" class="node">
<title>1</title>
<ellipse fill="none" stroke="black" cx="81.91" cy="-200" rx="27" ry="18"/>
<text text-anchor="middle" x="81.91" y="-196.3" font-family="Times,serif" font-size="14.00">1</text>
</g>
<!-- 0&#45;&gt;1 -->
<g id="edge8" class="edge">
<title>0&#45;&gt;1</title>
<path fill="none" stroke="black" d="M138.9,-380.72C107.89,-379.07 56.94,-372.18 22.91,-346 9.67,-335.81 9.04,-329.19 4.91,-313 -3.78,-278.94 -1.49,-261.3 22.91,-236 30.8,-227.82 41.02,-220.87 50.72,-215.37"/>
<polygon fill="black" stroke="black" points="52.59,-218.34 59.78,-210.55 49.3,-212.16 52.59,-218.34"/>
<text text-anchor="middle" x="9.91" y="-287.3" font-family="Times,serif" font-size="14.00">3</text>
</g>
<!-- 0&#45;&gt;1 -->
<g id="edge14" class="edge">
<title>0&#45;&gt;1</title>
<path fill="none" stroke="black" d="M139.85,-376.87C118.69,-372.37 89.16,-363.37 68.91,-346 56.23,-335.12 55.04,-329.19 50.91,-313 46.08,-294.05 46.76,-288.11 50.91,-269 54.16,-254.05 60.99,-238.44 67.42,-225.95"/>
<polygon fill="black" stroke="black" points="70.54,-227.54 72.19,-217.08 64.37,-224.23 70.54,-227.54"/>
<text text-anchor="middle" x="55.91" y="-287.3" font-family="Times,serif" font-size="14.00">1</text>
</g>
<!-- 2 -->
<g id="node4" class="node">
<title>2</title>
<ellipse fill="none" stroke="black" cx="200.91" cy="-113" rx="27" ry="18"/>
<text text-anchor="middle" x="200.91" y="-109.3" font-family="Times,serif" font-size="14.00">2</text>
</g>
<!-- 0&#45;&gt;2 -->
<g id="edge9" class="edge">
<title>0&#45;&gt;2</title>
<path fill="none" stroke="black" d="M181.67,-367.16C194.74,-354.55 212.36,-334.64 219.91,-313 240.58,-253.74 222.56,-178.9 210.2,-140.06"/>
<polygon fill="black" stroke="black" points="213.52,-138.95 207.06,-130.55 206.88,-141.14 213.52,-138.95"/>
<text text-anchor="middle" x="233.91" y="-239.8" font-family="Times,serif" font-size="14.00">2</text>
</g>
<!-- 3 -->
<g id="node5" class="node">
<title>3</title>
<ellipse fill="none" stroke="black" cx="132.91" cy="-291" rx="18" ry="18"/>
<ellipse fill="none" stroke="black" cx="132.91" cy="-291" rx="22" ry="22"/>
<text text-anchor="middle" x="132.91" y="-287.3" font-family="Times,serif" font-size="14.00">3</text>
</g>
<!-- 0&#45;&gt;3 -->
<g id="edge5" class="edge">
<title>0&#45;&gt;3</title>
<path fill="none" stroke="black" d="M149.15,-367.38C143.18,-361.5 137.14,-354.11 133.91,-346 131.07,-338.87 129.94,-330.79 129.72,-323.08"/>
<polygon fill="black" stroke="black" points="133.22,-323 129.91,-312.94 126.22,-322.87 133.22,-323"/>
<text text-anchor="middle" x="138.91" y="-334.8" font-family="Times,serif" font-size="14.00">4</text>
</g>
<!-- 0&#45;&gt;3 -->
<g id="edge6" class="edge">
<title>0&#45;&gt;3</title>
<path fill="none" stroke="black" d="M159.7,-364.26C155.21,-352.15 149.03,-335.47 143.73,-321.19"/>
<polygon fill="black" stroke="black" points="147,-319.93 140.24,-311.77 140.43,-322.37 147,-319.93"/>
<text text-anchor="middle" x="156.91" y="-334.8" font-family="Times,serif" font-size="14.00">0</text>
</g>
<!-- 1&#45;&gt;0 -->
<g id="edge21" class="edge">
<title>1&#45;&gt;0</title>
<path fill="none" stroke="black" d="M79.86,-218.28C77.93,-241.15 77.21,-282.16 91.91,-313 101.88,-333.92 121.43,-351.44 137.93,-363.46"/>
<polygon fill="black" stroke="black" points="136.01,-366.38 146.21,-369.23 140.01,-360.64 136.01,-366.38"/>
<text text-anchor="middle" x="96.91" y="-287.3" font-family="Times,serif" font-size="14.00">1</text>
</g>
<!-- 1&#45;&gt;1 -->
<g id="edge3" class="edge">
<title>1&#45;&gt;1</title>
<path fill="none" stroke="black" d="M108.7,-203.93C118.69,-204.06 126.91,-202.75 126.91,-200 126.91,-198.28 123.7,-197.13 118.85,-196.53"/>
<polygon fill="black" stroke="black" points="118.85,-193.03 108.7,-196.07 118.53,-200.02 118.85,-193.03"/>
<text text-anchor="middle" x="131.91" y="-196.3" font-family="Times,serif" font-size="14.00">4</text>
</g>
<!-- 1&#45;&gt;1 -->
<g id="edge10" class="edge">
<title>1&#45;&gt;1</title>
<path fill="none" stroke="black" d="M107.14,-206.94C125.95,-209.37 144.91,-207.05 144.91,-200 144.91,-194.21 132.15,-191.62 117.18,-192.21"/>
<polygon fill="black" stroke="black" points="116.81,-188.73 107.14,-193.06 117.4,-195.7 116.81,-188.73"/>
<text text-anchor="middle" x="149.91" y="-196.3" font-family="Times,serif" font-size="14.00">3</text>
</g>
<!-- 1&#45;&gt;2 -->
<g id="edge15" class="edge">
<title>1&#45;&gt;2</title>
<path fill="none" stroke="black" d="M104.83,-190.39C119.6,-184.25 138.8,-175.12 153.91,-164 164.3,-156.35 174.31,-146.23 182.4,-137.09"/>
<polygon fill="black" stroke="black" points="185.14,-139.28 188.98,-129.41 179.82,-134.73 185.14,-139.28"/>
<text text-anchor="middle" x="175.91" y="-152.8" font-family="Times,serif" font-size="14.00">0</text>
</g>
<!-- 4 -->
<g id="node6" class="node">
<title>4</title>
<ellipse fill="none" stroke="black" cx="200.91" cy="-22" rx="18" ry="18"/>
<ellipse fill="none" stroke="black" cx="200.91" cy="-22" rx="22" ry="22"/>
<text text-anchor="middle" x="200.91" y="-18.3" font-family="Times,serif" font-size="14.00">4</text>
</g>
<!-- 1&#45;&gt;4 -->
<g id="edge25" class="edge">
<title>1&#45;&gt;4</title>
<path fill="none" stroke="black" d="M84.31,-181.88C88.01,-160.15 96.66,-122.22 114.91,-95 130.16,-72.24 154.63,-52.75 173.58,-39.81"/>
<polygon fill="black" stroke="black" points="175.69,-42.6 182.1,-34.16 171.83,-36.76 175.69,-42.6"/>
<text text-anchor="middle" x="119.91" y="-109.3" font-family="Times,serif" font-size="14.00">2</text>
</g>
<!-- 2&#45;&gt;0 -->
<g id="edge20" class="edge">
<title>2&#45;&gt;0</title>
<path fill="none" stroke="black" d="M214.92,-128.74C219.93,-134.66 225.24,-141.79 228.91,-149 262,-214.07 258.78,-243.05 237.91,-313 233.13,-329.01 231.27,-333.75 219.91,-346 212.97,-353.48 204.12,-360.08 195.59,-365.47"/>
<polygon fill="black" stroke="black" points="193.72,-362.51 186.92,-370.64 197.31,-368.52 193.72,-362.51"/>
<text text-anchor="middle" x="257.91" y="-239.8" font-family="Times,serif" font-size="14.00">3</text>
</g>
<!-- 2&#45;&gt;1 -->
<g id="edge22" class="edge">
<title>2&#45;&gt;1</title>
<path fill="none" stroke="black" d="M180.86,-125.14C169.48,-131.7 155.11,-140.39 142.91,-149 129.95,-158.15 116.22,-169.26 105.08,-178.68"/>
<polygon fill="black" stroke="black" points="102.79,-176.03 97.47,-185.19 107.34,-181.35 102.79,-176.03"/>
<text text-anchor="middle" x="147.91" y="-152.8" font-family="Times,serif" font-size="14.00">0</text>
</g>
<!-- 2&#45;&gt;2 -->
<g id="edge11" class="edge">
<title>2&#45;&gt;2</title>
<path fill="none" stroke="black" d="M227.7,-116.93C237.69,-117.06 245.91,-115.75 245.91,-113 245.91,-111.28 242.7,-110.13 237.85,-109.53"/>
<polygon fill="black" stroke="black" points="237.85,-106.03 227.7,-109.07 237.53,-113.02 237.85,-106.03"/>
<text text-anchor="middle" x="250.91" y="-109.3" font-family="Times,serif" font-size="14.00">4</text>
</g>
<!-- 2&#45;&gt;2 -->
<g id="edge16" class="edge">
<title>2&#45;&gt;2</title>
<path fill="none" stroke="black" d="M226.14,-119.94C244.95,-122.37 263.91,-120.05 263.91,-113 263.91,-107.21 251.15,-104.62 236.18,-105.21"/>
<polygon fill="black" stroke="black" points="235.81,-101.73 226.14,-106.06 236.4,-108.7 235.81,-101.73"/>
<text text-anchor="middle" x="268.91" y="-109.3" font-family="Times,serif" font-size="14.00">2</text>
</g>
<!-- 2&#45;&gt;4 -->
<g id="edge13" class="edge">
<title>2&#45;&gt;4</title>
<path fill="none" stroke="black" d="M200.91,-94.84C200.91,-83.44 200.91,-68.13 200.91,-54.58"/>
<polygon fill="black" stroke="black" points="204.41,-54.19 200.91,-44.19 197.41,-54.19 204.41,-54.19"/>
<text text-anchor="middle" x="205.91" y="-65.8" font-family="Times,serif" font-size="14.00">1</text>
</g>
<!-- 3&#45;&gt;1 -->
<g id="edge4" class="edge">
<title>3&#45;&gt;1</title>
<path fill="none" stroke="black" d="M122.34,-271.56C114.78,-258.36 104.51,-240.44 96.21,-225.96"/>
<polygon fill="black" stroke="black" points="99.1,-223.97 91.09,-217.03 93.03,-227.45 99.1,-223.97"/>
<text text-anchor="middle" x="114.91" y="-239.8" font-family="Times,serif" font-size="14.00">3</text>
</g>
<!-- 3&#45;&gt;1 -->
<g id="edge12" class="edge">
<title>3&#45;&gt;1</title>
<path fill="none" stroke="black" d="M132.79,-268.85C131.91,-258.38 129.58,-245.89 123.91,-236 120.29,-229.69 115.08,-224.03 109.55,-219.18"/>
<polygon fill="black" stroke="black" points="111.38,-216.17 101.37,-212.7 107.03,-221.65 111.38,-216.17"/>
<text text-anchor="middle" x="133.91" y="-239.8" font-family="Times,serif" font-size="14.00">2</text>
</g>
<!-- 3&#45;&gt;2 -->
<g id="edge23" class="edge">
<title>3&#45;&gt;2</title>
<path fill="none" stroke="black" d="M144.73,-272.32C153.78,-258.14 166,-237.46 173.91,-218 184.18,-192.72 191.53,-162.37 195.94,-141"/>
<polygon fill="black" stroke="black" points="199.41,-141.5 197.92,-131.01 192.54,-140.13 199.41,-141.5"/>
<text text-anchor="middle" x="190.91" y="-196.3" font-family="Times,serif" font-size="14.00">1</text>
</g>
<!-- 3&#45;&gt;3 -->
<g id="edge2" class="edge">
<title>3&#45;&gt;3</title>
<path fill="none" stroke="black" d="M154.71,-295.25C164.47,-295.65 172.91,-294.23 172.91,-291 172.91,-288.98 169.61,-287.67 164.76,-287.07"/>
<polygon fill="black" stroke="black" points="164.82,-283.57 154.71,-286.75 164.6,-290.56 164.82,-283.57"/>
<text text-anchor="middle" x="177.91" y="-287.3" font-family="Times,serif" font-size="14.00">0</text>
</g>
<!-- 3&#45;&gt;3 -->
<g id="edge24" class="edge">
<title>3&#45;&gt;3</title>
<path fill="none" stroke="black" d="M153.72,-298.2C171.79,-301.49 190.91,-299.09 190.91,-291 190.91,-284.43 178.29,-281.61 163.86,-282.55"/>
<polygon fill="black" stroke="black" points="163.22,-279.1 153.72,-283.8 164.07,-286.05 163.22,-279.1"/>
<text text-anchor="middle" x="195.91" y="-287.3" font-family="Times,serif" font-size="14.00">4</text>
</g>
<!-- 4&#45;&gt;0 -->
<g id="edge19" class="edge">
<title>4&#45;&gt;0</title>
<path fill="none" stroke="black" d="M222.16,-28.07C257.11,-37.82 322.91,-62.71 322.91,-112 322.91,-292 322.91,-292 322.91,-292 322.91,-347.05 248.94,-368.46 202.55,-376.47"/>
<polygon fill="black" stroke="black" points="201.86,-373.04 192.54,-378.07 202.97,-379.95 201.86,-373.04"/>
<text text-anchor="middle" x="327.91" y="-196.3" font-family="Times,serif" font-size="14.00">1</text>
</g>
<!-- 4&#45;&gt;0 -->
<g id="edge26" class="edge">
<title>4&#45;&gt;0</title>
<path fill="none" stroke="black" d="M222.87,-24.57C268.41,-29.15 368.91,-46.65 368.91,-112 368.91,-292 368.91,-292 368.91,-292 368.91,-363.51 261.93,-378.1 203.29,-380.72"/>
<polygon fill="black" stroke="black" points="203.16,-377.23 193.29,-381.08 203.4,-384.22 203.16,-377.23"/>
<text text-anchor="middle" x="373.91" y="-196.3" font-family="Times,serif" font-size="14.00">4</text>
</g>
<!-- 4&#45;&gt;1 -->
<g id="edge7" class="edge">
<title>4&#45;&gt;1</title>
<path fill="none" stroke="black" d="M188.97,-40.65C167.51,-72.39 122.41,-139.1 98.16,-174.97"/>
<polygon fill="black" stroke="black" points="95.17,-173.14 92.47,-183.38 100.97,-177.06 95.17,-173.14"/>
<text text-anchor="middle" x="155.91" y="-109.3" font-family="Times,serif" font-size="14.00">3</text>
</g>
<!-- 4&#45;&gt;4 -->
<g id="edge17" class="edge">
<title>4&#45;&gt;4</title>
<path fill="none" stroke="black" d="M222.71,-26.25C232.47,-26.65 240.91,-25.23 240.91,-22 240.91,-19.98 237.61,-18.67 232.76,-18.07"/>
<polygon fill="black" stroke="black" points="232.82,-14.57 222.71,-17.75 232.6,-21.56 232.82,-14.57"/>
<text text-anchor="middle" x="245.91" y="-18.3" font-family="Times,serif" font-size="14.00">2</text>
</g>
<!-- 4&#45;&gt;4 -->
<g id="edge18" class="edge">
<title>4&#45;&gt;4</title>
<path fill="none" stroke="black" d="M221.72,-29.2C239.79,-32.49 258.91,-30.09 258.91,-22 258.91,-15.43 246.29,-12.61 231.86,-13.55"/>
<polygon fill="black" stroke="black" points="231.22,-10.1 221.72,-14.8 232.07,-17.05 231.22,-10.1"/>
<text text-anchor="middle" x="263.91" y="-18.3" font-family="Times,serif" font-size="14.00">0</text>
</g>
</g>
</svg>
