<?xml version="1.0" encoding="UTF-8" standalone="no"?>
<!DOCTYPE svg PUBLIC "-//W3C//DTD SVG 1.1//EN"
 "http://www.w3.org/Graphics/SVG/1.1/DTD/svg11.dtd">
<!-- Generated by graphviz version 2.49.0 (20210829.0051)
 -->
<!-- Pages: 1 -->
<svg width="390pt" height="473pt"
 viewBox="0.00 0.00 389.52 473.00" xmlns="http://www.w3.org/2000/svg" xmlns:xlink="http://www.w3.org/1999/xlink">
<g id="graph0" class="graph" transform="scale(1 1) rotate(0) translate(4 469)">
<polygon fill="white" stroke="transparent" points="-4,4 -4,-469 385.52,-469 385.52,4 -4,4"/>
<!-- fake -->
<g id="node1" class="node">
<title>fake</title>
</g>
<!-- 0 -->
<g id="node2" class="node">
<title>0</title>
<ellipse fill="none" stroke="black" cx="213" cy="-374" rx="27" ry="18"/>
<text text-anchor="middle" x="213" y="-370.3" font-family="Times,serif" font-size="14.00">0</text>
</g>
<!-- fake&#45;&gt;0 -->
<g id="edge1" class="edge">
<title>fake&#45;&gt;0</title>
<path fill="none" stroke="black" stroke-width="2" d="M213,-428.81C213,-420.79 213,-411.05 213,-402.07"/>
<polygon fill="black" stroke="black" stroke-width="2" points="216.5,-402.03 213,-392.03 209.5,-402.03 216.5,-402.03"/>
</g>
<!-- 1 -->
<g id="node3" class="node">
<title>1</title>
<ellipse fill="none" stroke="black" cx="236" cy="-196" rx="18" ry="18"/>
<ellipse fill="none" stroke="black" cx="236" cy="-196" rx="22" ry="22"/>
<text text-anchor="middle" x="236" y="-192.3" font-family="Times,serif" font-size="14.00">1</text>
</g>
<!-- 0&#45;&gt;1 -->
<g id="edge13" class="edge">
<title>0&#45;&gt;1</title>
<path fill="none" stroke="black" d="M196.41,-359.35C189.6,-353.25 181.93,-345.71 176,-338 156.66,-312.89 150.17,-299.71 158,-269 162.13,-252.81 164.65,-248.26 176,-236 184.97,-226.31 196.83,-217.95 207.63,-211.48"/>
<polygon fill="black" stroke="black" points="209.42,-214.49 216.38,-206.5 205.95,-208.41 209.42,-214.49"/>
<text text-anchor="middle" x="163" y="-283.3" font-family="Times,serif" font-size="14.00">3</text>
</g>
<!-- 0&#45;&gt;1 -->
<g id="edge19" class="edge">
<title>0&#45;&gt;1</title>
<path fill="none" stroke="black" d="M209.77,-355.9C206.4,-335.15 202.33,-299.2 208,-269 210.8,-254.08 216.59,-238.29 222.19,-225.3"/>
<polygon fill="black" stroke="black" points="225.47,-226.54 226.38,-215.98 219.09,-223.67 225.47,-226.54"/>
<text text-anchor="middle" x="213" y="-283.3" font-family="Times,serif" font-size="14.00">2</text>
</g>
<!-- 2 -->
<g id="node4" class="node">
<title>2</title>
<ellipse fill="none" stroke="black" cx="149" cy="-18" rx="27" ry="18"/>
<text text-anchor="middle" x="149" y="-14.3" font-family="Times,serif" font-size="14.00">2</text>
</g>
<!-- 0&#45;&gt;2 -->
<g id="edge7" class="edge">
<title>0&#45;&gt;2</title>
<path fill="none" stroke="black" d="M186.25,-371.04C154.05,-367.8 99.06,-359.39 57,-338 26.96,-322.73 0,-321.7 0,-288 0,-288 0,-288 0,-104 0,-52.44 68.14,-31.74 112.26,-23.75"/>
<polygon fill="black" stroke="black" points="113.08,-27.16 122.36,-22.06 111.92,-20.26 113.08,-27.16"/>
<text text-anchor="middle" x="5" y="-192.3" font-family="Times,serif" font-size="14.00">1</text>
</g>
<!-- 3 -->
<g id="node5" class="node">
<title>3</title>
<ellipse fill="none" stroke="black" cx="302" cy="-287" rx="27" ry="18"/>
<text text-anchor="middle" x="302" y="-283.3" font-family="Times,serif" font-size="14.00">3</text>
</g>
<!-- 0&#45;&gt;3 -->
<g id="edge4" class="edge">
<title>0&#45;&gt;3</title>
<path fill="none" stroke="black" d="M228.1,-358.58C242.25,-345.07 263.58,-324.7 279.69,-309.31"/>
<polygon fill="black" stroke="black" points="282.31,-311.64 287.13,-302.21 277.48,-306.58 282.31,-311.64"/>
<text text-anchor="middle" x="267" y="-326.8" font-family="Times,serif" font-size="14.00">4</text>
</g>
<!-- 0&#45;&gt;3 -->
<g id="edge5" class="edge">
<title>0&#45;&gt;3</title>
<path fill="none" stroke="black" d="M235.82,-364.25C248.84,-358.37 264.75,-349.57 276,-338 282.57,-331.25 287.88,-322.5 291.94,-314.21"/>
<polygon fill="black" stroke="black" points="295.24,-315.4 296.14,-304.84 288.86,-312.53 295.24,-315.4"/>
<text text-anchor="middle" x="292" y="-326.8" font-family="Times,serif" font-size="14.00">0</text>
</g>
<!-- 1&#45;&gt;0 -->
<g id="edge11" class="edge">
<title>1&#45;&gt;0</title>
<path fill="none" stroke="black" d="M233.25,-218.06C229.08,-249.96 221.16,-310.53 216.56,-345.75"/>
<polygon fill="black" stroke="black" points="213.07,-345.43 215.25,-355.8 220.01,-346.34 213.07,-345.43"/>
<text text-anchor="middle" x="231" y="-283.3" font-family="Times,serif" font-size="14.00">4</text>
</g>
<!-- 4 -->
<g id="node6" class="node">
<title>4</title>
<ellipse fill="none" stroke="black" cx="238" cy="-105" rx="27" ry="18"/>
<text text-anchor="middle" x="238" y="-101.3" font-family="Times,serif" font-size="14.00">4</text>
</g>
<!-- 1&#45;&gt;4 -->
<g id="edge14" class="edge">
<title>1&#45;&gt;4</title>
<path fill="none" stroke="black" d="M214.22,-191.43C180.92,-185 123.19,-169.41 143,-141 156.07,-122.25 180.37,-113.52 201.13,-109.47"/>
<polygon fill="black" stroke="black" points="201.98,-112.87 211.27,-107.79 200.83,-105.97 201.98,-112.87"/>
<text text-anchor="middle" x="148" y="-144.8" font-family="Times,serif" font-size="14.00">3</text>
</g>
<!-- 1&#45;&gt;4 -->
<g id="edge18" class="edge">
<title>1&#45;&gt;4</title>
<path fill="none" stroke="black" d="M215.4,-187.45C193.68,-178.23 164.13,-161.33 176,-141 182.33,-130.16 193.4,-122.41 204.44,-117.01"/>
<polygon fill="black" stroke="black" points="205.85,-120.21 213.61,-113 203.05,-113.8 205.85,-120.21"/>
<text text-anchor="middle" x="181" y="-144.8" font-family="Times,serif" font-size="14.00">1</text>
</g>
<!-- 1&#45;&gt;4 -->
<g id="edge21" class="edge">
<title>1&#45;&gt;4</title>
<path fill="none" stroke="black" d="M220.95,-179.83C212.32,-169.24 204.1,-154.61 209,-141 210.68,-136.33 213.29,-131.84 216.27,-127.72"/>
<polygon fill="black" stroke="black" points="219.08,-129.81 222.72,-119.86 213.67,-125.37 219.08,-129.81"/>
<text text-anchor="middle" x="214" y="-144.8" font-family="Times,serif" font-size="14.00">0</text>
</g>
<!-- 1&#45;&gt;4 -->
<g id="edge26" class="edge">
<title>1&#45;&gt;4</title>
<path fill="none" stroke="black" d="M236.47,-173.91C236.75,-161.78 237.09,-146.41 237.39,-133.36"/>
<polygon fill="black" stroke="black" points="240.89,-133.14 237.62,-123.07 233.89,-132.99 240.89,-133.14"/>
<text text-anchor="middle" x="242" y="-144.8" font-family="Times,serif" font-size="14.00">2</text>
</g>
<!-- 2&#45;&gt;0 -->
<g id="edge2" class="edge">
<title>2&#45;&gt;0</title>
<path fill="none" stroke="black" d="M123.96,-25.15C106.97,-30.41 84.97,-39.48 70,-54 52.31,-71.16 46,-79.35 46,-104 46,-288 46,-288 46,-288 46,-346.01 127.03,-364.45 176.2,-370.29"/>
<polygon fill="black" stroke="black" points="175.85,-373.78 186.17,-371.36 176.6,-366.82 175.85,-373.78"/>
<text text-anchor="middle" x="51" y="-192.3" font-family="Times,serif" font-size="14.00">4</text>
</g>
<!-- 2&#45;&gt;0 -->
<g id="edge20" class="edge">
<title>2&#45;&gt;0</title>
<path fill="none" stroke="black" d="M136.07,-34.19C131.66,-40.06 127.07,-47.03 124,-54 111.58,-82.21 114.68,-92.26 117,-123 124.33,-220.26 101.97,-260.36 161,-338 166.85,-345.7 174.91,-352.27 182.93,-357.57"/>
<polygon fill="black" stroke="black" points="181.16,-360.59 191.52,-362.81 184.81,-354.61 181.16,-360.59"/>
<text text-anchor="middle" x="123" y="-192.3" font-family="Times,serif" font-size="14.00">1</text>
</g>
<!-- 2&#45;&gt;1 -->
<g id="edge25" class="edge">
<title>2&#45;&gt;1</title>
<path fill="none" stroke="black" d="M140.79,-35.46C128.33,-63.03 108.63,-119.14 134,-156 149.64,-178.72 180.44,-188.21 204.12,-192.17"/>
<polygon fill="black" stroke="black" points="203.7,-195.65 214.1,-193.59 204.69,-188.72 203.7,-195.65"/>
<text text-anchor="middle" x="128" y="-101.3" font-family="Times,serif" font-size="14.00">0</text>
</g>
<!-- 2&#45;&gt;4 -->
<g id="edge16" class="edge">
<title>2&#45;&gt;4</title>
<path fill="none" stroke="black" d="M163.61,-33.56C173.75,-43.6 187.6,-57.21 200,-69 204.86,-73.62 210.13,-78.53 215.15,-83.17"/>
<polygon fill="black" stroke="black" points="213.01,-85.95 222.74,-90.14 217.74,-80.8 213.01,-85.95"/>
<text text-anchor="middle" x="205" y="-57.8" font-family="Times,serif" font-size="14.00">3</text>
</g>
<!-- 2&#45;&gt;4 -->
<g id="edge22" class="edge">
<title>2&#45;&gt;4</title>
<path fill="none" stroke="black" d="M171.55,-28.31C183.99,-34.28 199.09,-42.98 210,-54 216.81,-60.88 222.49,-69.76 226.92,-78.13"/>
<polygon fill="black" stroke="black" points="223.83,-79.77 231.37,-87.21 230.11,-76.69 223.83,-79.77"/>
<text text-anchor="middle" x="226" y="-57.8" font-family="Times,serif" font-size="14.00">2</text>
</g>
<!-- 3&#45;&gt;0 -->
<g id="edge23" class="edge">
<title>3&#45;&gt;0</title>
<path fill="none" stroke="black" d="M306.12,-305.2C307.59,-315.58 307.53,-328.58 301,-338 289.38,-354.76 268.37,-363.5 249.78,-368.05"/>
<polygon fill="black" stroke="black" points="248.84,-364.67 239.79,-370.17 250.3,-371.52 248.84,-364.67"/>
<text text-anchor="middle" x="311" y="-326.8" font-family="Times,serif" font-size="14.00">4</text>
</g>
<!-- 3&#45;&gt;1 -->
<g id="edge8" class="edge">
<title>3&#45;&gt;1</title>
<path fill="none" stroke="black" d="M287.69,-271.52C281.93,-265.41 275.39,-258.07 270,-251 263.62,-242.63 257.29,-233.04 251.86,-224.28"/>
<polygon fill="black" stroke="black" points="254.73,-222.27 246.55,-215.54 248.75,-225.91 254.73,-222.27"/>
<text text-anchor="middle" x="275" y="-239.8" font-family="Times,serif" font-size="14.00">1</text>
</g>
<!-- 3&#45;&gt;1 -->
<g id="edge15" class="edge">
<title>3&#45;&gt;1</title>
<path fill="none" stroke="black" d="M296.71,-269.29C292.99,-259.09 287.38,-246.11 280,-236 274.73,-228.77 267.9,-221.91 261.21,-216.03"/>
<polygon fill="black" stroke="black" points="263.43,-213.32 253.51,-209.6 258.95,-218.7 263.43,-213.32"/>
<text text-anchor="middle" x="293" y="-239.8" font-family="Times,serif" font-size="14.00">2</text>
</g>
<!-- 3&#45;&gt;2 -->
<g id="edge10" class="edge">
<title>3&#45;&gt;2</title>
<path fill="none" stroke="black" d="M326.45,-279.22C340.39,-273.96 356.69,-265.13 365,-251 381.98,-222.13 401.72,-246.51 333,-141 301.22,-92.2 284.82,-84.16 235,-54 218.67,-44.11 199.05,-35.88 182.67,-29.89"/>
<polygon fill="black" stroke="black" points="183.54,-26.49 172.95,-26.46 181.21,-33.09 183.54,-26.49"/>
<text text-anchor="middle" x="346" y="-144.8" font-family="Times,serif" font-size="14.00">0</text>
</g>
<!-- 3&#45;&gt;4 -->
<g id="edge3" class="edge">
<title>3&#45;&gt;4</title>
<path fill="none" stroke="black" d="M306.25,-268.86C312.38,-240.08 320.44,-181.28 296,-141 290.07,-131.22 280.27,-123.82 270.41,-118.41"/>
<polygon fill="black" stroke="black" points="271.95,-115.27 261.44,-113.98 268.85,-121.54 271.95,-115.27"/>
<text text-anchor="middle" x="317" y="-192.3" font-family="Times,serif" font-size="14.00">3</text>
</g>
<!-- 4&#45;&gt;0 -->
<g id="edge24" class="edge">
<title>4&#45;&gt;0</title>
<path fill="none" stroke="black" d="M262.81,-112.36C278.98,-117.64 299.51,-126.66 313,-141 363.51,-194.71 356.22,-233.56 338,-305 333.87,-321.19 332.84,-327.32 320,-338 299.93,-354.69 271.68,-363.49 249.25,-368.09"/>
<polygon fill="black" stroke="black" points="248.59,-364.66 239.4,-369.93 249.87,-371.54 248.59,-364.66"/>
<text text-anchor="middle" x="356" y="-239.8" font-family="Times,serif" font-size="14.00">0</text>
</g>
<!-- 4&#45;&gt;1 -->
<g id="edge6" class="edge">
<title>4&#45;&gt;1</title>
<path fill="none" stroke="black" d="M246.67,-122.51C250.73,-132.18 254.23,-144.68 252,-156 251.31,-159.48 250.31,-163.04 249.14,-166.53"/>
<polygon fill="black" stroke="black" points="245.82,-165.43 245.51,-176.02 252.35,-167.93 245.82,-165.43"/>
<text text-anchor="middle" x="257" y="-144.8" font-family="Times,serif" font-size="14.00">3</text>
</g>
<!-- 4&#45;&gt;1 -->
<g id="edge12" class="edge">
<title>4&#45;&gt;1</title>
<path fill="none" stroke="black" d="M253.56,-120.22C262.18,-129.88 270.36,-143.19 266,-156 264.14,-161.46 261.18,-166.75 257.82,-171.58"/>
<polygon fill="black" stroke="black" points="254.87,-169.68 251.51,-179.72 260.4,-173.97 254.87,-169.68"/>
<text text-anchor="middle" x="272" y="-144.8" font-family="Times,serif" font-size="14.00">1</text>
</g>
<!-- 4&#45;&gt;1 -->
<g id="edge17" class="edge">
<title>4&#45;&gt;1</title>
<path fill="none" stroke="black" d="M258.26,-116.96C272.57,-126.28 288.04,-140.59 281,-156 277.11,-164.52 270.34,-171.89 263.22,-177.86"/>
<polygon fill="black" stroke="black" points="260.7,-175.38 254.84,-184.21 264.92,-180.96 260.7,-175.38"/>
<text text-anchor="middle" x="287" y="-144.8" font-family="Times,serif" font-size="14.00">2</text>
</g>
<!-- 4&#45;&gt;2 -->
<g id="edge9" class="edge">
<title>4&#45;&gt;2</title>
<path fill="none" stroke="black" d="M213.27,-97.36C197.76,-92.03 178.41,-83.07 166,-69 160.28,-62.52 156.47,-54.04 153.94,-45.91"/>
<polygon fill="black" stroke="black" points="157.26,-44.77 151.36,-35.97 150.48,-46.53 157.26,-44.77"/>
<text text-anchor="middle" x="171" y="-57.8" font-family="Times,serif" font-size="14.00">4</text>
</g>
</g>
</svg>
