<?xml version="1.0" encoding="UTF-8" standalone="no"?>
<!DOCTYPE svg PUBLIC "-//W3C//DTD SVG 1.1//EN"
 "http://www.w3.org/Graphics/SVG/1.1/DTD/svg11.dtd">
<!-- Generated by graphviz version 13.0.1 (20250616.1512)
 -->
<!-- Pages: 1 -->
<svg width="2840pt" height="2284pt"
 viewBox="0.00 0.00 2840.00 2284.00" xmlns="http://www.w3.org/2000/svg" xmlns:xlink="http://www.w3.org/1999/xlink">
<g id="graph0" class="graph" transform="scale(1 1) rotate(0) translate(4 2280.25)">
<polygon fill="white" stroke="none" points="-4,4 -4,-2280.25 2835.75,-2280.25 2835.75,4 -4,4"/>
<!-- fake -->
<g id="node1" class="node">
<title>fake</title>
</g>
<!-- 29 -->
<g id="node31" class="node">
<title>29</title>
<ellipse fill="none" stroke="black" cx="2592" cy="-2175.4" rx="23.85" ry="23.85"/>
<ellipse fill="none" stroke="black" cx="2592" cy="-2175.4" rx="27.85" ry="27.85"/>
<text xml:space="preserve" text-anchor="middle" x="2592" y="-2170.73" font-family="Times,serif" font-size="14.00">29</text>
</g>
<!-- fake&#45;&gt;29 -->
<g id="edge1" class="edge">
<title>fake&#45;&gt;29</title>
<path fill="none" stroke="black" stroke-width="2" d="M2592,-2240.11C2592,-2232.76 2592,-2223.85 2592,-2215.06"/>
<polygon fill="black" stroke="black" stroke-width="2" points="2595.5,-2216.73 2592,-2206.73 2588.5,-2216.73 2595.5,-2216.73"/>
</g>
<!-- 0 -->
<g id="node2" class="node">
<title>0</title>
<ellipse fill="none" stroke="black" cx="983" cy="-1354.3" rx="27" ry="18"/>
<text xml:space="preserve" text-anchor="middle" x="983" y="-1349.63" font-family="Times,serif" font-size="14.00">0</text>
</g>
<!-- 0&#45;&gt;0 -->
<g id="edge78" class="edge">
<title>0&#45;&gt;0</title>
<path fill="none" stroke="black" d="M1007.53,-1362.54C1018.51,-1363.32 1028,-1360.58 1028,-1354.3 1028,-1350.38 1024.29,-1347.84 1018.83,-1346.67"/>
<polygon fill="black" stroke="black" points="1019.22,-1343.19 1009.04,-1346.15 1018.84,-1350.18 1019.22,-1343.19"/>
<text xml:space="preserve" text-anchor="middle" x="1032.5" y="-1349.63" font-family="Times,serif" font-size="14.00">0</text>
</g>
<!-- 2 -->
<g id="node4" class="node">
<title>2</title>
<ellipse fill="none" stroke="black" cx="864" cy="-1622.05" rx="27" ry="18"/>
<text xml:space="preserve" text-anchor="middle" x="864" y="-1617.38" font-family="Times,serif" font-size="14.00">2</text>
</g>
<!-- 0&#45;&gt;2 -->
<g id="edge147" class="edge">
<title>0&#45;&gt;2</title>
<path fill="none" stroke="black" d="M956.11,-1357.03C933.1,-1360.05 901.07,-1368.25 884,-1390.3 838.04,-1449.68 848.49,-1545.22 857.51,-1592.56"/>
<polygon fill="black" stroke="black" points="854.06,-1593.19 859.49,-1602.29 860.92,-1591.8 854.06,-1593.19"/>
<text xml:space="preserve" text-anchor="middle" x="855.84" y="-1483.5" font-family="Times,serif" font-size="14.00">4</text>
</g>
<!-- 17 -->
<g id="node19" class="node">
<title>17</title>
<ellipse fill="none" stroke="black" cx="1085" cy="-1156.1" rx="27" ry="18"/>
<text xml:space="preserve" text-anchor="middle" x="1085" y="-1151.43" font-family="Times,serif" font-size="14.00">17</text>
</g>
<!-- 0&#45;&gt;17 -->
<g id="edge86" class="edge">
<title>0&#45;&gt;17</title>
<path fill="none" stroke="black" d="M998.38,-1339.3C1004.41,-1333.25 1011.06,-1325.85 1016,-1318.3 1044.36,-1275.03 1065.48,-1218.16 1076.47,-1184.82"/>
<polygon fill="black" stroke="black" points="1079.73,-1186.11 1079.47,-1175.52 1073.07,-1183.96 1079.73,-1186.11"/>
<text xml:space="preserve" text-anchor="middle" x="1065.08" y="-1250.53" font-family="Times,serif" font-size="14.00">3</text>
</g>
<!-- 20 -->
<g id="node22" class="node">
<title>20</title>
<ellipse fill="none" stroke="black" cx="769" cy="-126.95" rx="27" ry="18"/>
<text xml:space="preserve" text-anchor="middle" x="769" y="-122.28" font-family="Times,serif" font-size="14.00">20</text>
</g>
<!-- 0&#45;&gt;20 -->
<g id="edge101" class="edge">
<title>0&#45;&gt;20</title>
<path fill="none" stroke="black" d="M979.15,-1336.02C973.25,-1311.2 960.78,-1264.37 943,-1227.35 938.84,-1218.68 933.82,-1218.54 931,-1209.35 810.77,-817.64 985.51,-692.55 924,-287.45 915.17,-229.28 923.87,-201.01 879,-162.95 858.73,-145.76 829.95,-136.99 806.91,-132.53"/>
<polygon fill="black" stroke="black" points="807.73,-129.12 797.28,-130.87 806.55,-136.02 807.73,-129.12"/>
<text xml:space="preserve" text-anchor="middle" x="911.17" y="-749.8" font-family="Times,serif" font-size="14.00">1</text>
</g>
<!-- 28 -->
<g id="node30" class="node">
<title>28</title>
<ellipse fill="none" stroke="black" cx="906" cy="-1255.2" rx="23.85" ry="23.85"/>
<ellipse fill="none" stroke="black" cx="906" cy="-1255.2" rx="27.85" ry="27.85"/>
<text xml:space="preserve" text-anchor="middle" x="906" y="-1250.53" font-family="Times,serif" font-size="14.00">28</text>
</g>
<!-- 0&#45;&gt;28 -->
<g id="edge141" class="edge">
<title>0&#45;&gt;28</title>
<path fill="none" stroke="black" d="M964.47,-1340.73C956.32,-1334.6 947.02,-1326.74 940,-1318.3 933.26,-1310.2 927.22,-1300.56 922.17,-1291.33"/>
<polygon fill="black" stroke="black" points="925.31,-1289.78 917.6,-1282.51 919.09,-1293 925.31,-1289.78"/>
<text xml:space="preserve" text-anchor="middle" x="944.5" y="-1305" font-family="Times,serif" font-size="14.00">2</text>
</g>
<!-- 1 -->
<g id="node3" class="node">
<title>1</title>
<ellipse fill="none" stroke="black" cx="864" cy="-1711.3" rx="27" ry="18"/>
<text xml:space="preserve" text-anchor="middle" x="864" y="-1706.63" font-family="Times,serif" font-size="14.00">1</text>
</g>
<!-- 1&#45;&gt;2 -->
<g id="edge146" class="edge">
<title>1&#45;&gt;2</title>
<path fill="none" stroke="black" d="M864,-1693.06C864,-1681.23 864,-1665.26 864,-1651.55"/>
<polygon fill="black" stroke="black" points="867.5,-1651.77 864,-1641.77 860.5,-1651.77 867.5,-1651.77"/>
<text xml:space="preserve" text-anchor="middle" x="868.5" y="-1662" font-family="Times,serif" font-size="14.00">1</text>
</g>
<!-- 14 -->
<g id="node16" class="node">
<title>14</title>
<ellipse fill="none" stroke="black" cx="667" cy="-888.35" rx="27" ry="18"/>
<text xml:space="preserve" text-anchor="middle" x="667" y="-883.68" font-family="Times,serif" font-size="14.00">14</text>
</g>
<!-- 1&#45;&gt;14 -->
<g id="edge71" class="edge">
<title>1&#45;&gt;14</title>
<path fill="none" stroke="black" d="M842.43,-1700.03C805.14,-1681.45 727.72,-1639.21 677,-1586.05 600.56,-1505.94 587.21,-1476.23 549,-1372.3 523.52,-1303 538.96,-1142.42 540,-1138.1 561.26,-1049.72 619.49,-957.39 649.14,-914.28"/>
<polygon fill="black" stroke="black" points="651.97,-916.34 654.82,-906.14 646.23,-912.34 651.97,-916.34"/>
<text xml:space="preserve" text-anchor="middle" x="542.24" y="-1305" font-family="Times,serif" font-size="14.00">4</text>
</g>
<!-- 21 -->
<g id="node23" class="node">
<title>21</title>
<ellipse fill="none" stroke="black" cx="1672" cy="-977.6" rx="27" ry="18"/>
<text xml:space="preserve" text-anchor="middle" x="1672" y="-972.93" font-family="Times,serif" font-size="14.00">21</text>
</g>
<!-- 1&#45;&gt;21 -->
<g id="edge17" class="edge">
<title>1&#45;&gt;21</title>
<path fill="none" stroke="black" d="M890.31,-1706.51C915.59,-1702.92 954.87,-1697.46 989,-1693.3 1061.22,-1684.5 1640,-1695.81 1640,-1623.05 1640,-1623.05 1640,-1623.05 1640,-1487.18 1640,-1408.65 1648,-1389.2 1648,-1310.68 1648,-1310.68 1648,-1310.68 1648,-1065.85 1648,-1045.1 1654.39,-1022.54 1660.57,-1005.56"/>
<polygon fill="black" stroke="black" points="1663.66,-1007.28 1663.99,-996.69 1657.13,-1004.76 1663.66,-1007.28"/>
<text xml:space="preserve" text-anchor="middle" x="1652.17" y="-1349.63" font-family="Times,serif" font-size="14.00">0</text>
</g>
<!-- 1&#45;&gt;21 -->
<g id="edge75" class="edge">
<title>1&#45;&gt;21</title>
<path fill="none" stroke="black" d="M890.25,-1705.94C915.49,-1701.94 954.74,-1696.2 989,-1693.3 1225.18,-1673.31 1287.72,-1711.25 1522,-1675.3 1579.9,-1666.42 1611.17,-1684.78 1649,-1640.05 1689.06,-1592.7 1703.77,-1146.79 1707,-1084.85 1707.83,-1068.87 1710.66,-1064.43 1707,-1048.85 1703.31,-1033.15 1695.55,-1016.95 1688.27,-1004.07"/>
<polygon fill="black" stroke="black" points="1691.5,-1002.66 1683.4,-995.83 1685.47,-1006.22 1691.5,-1002.66"/>
<text xml:space="preserve" text-anchor="middle" x="1698.37" y="-1349.63" font-family="Times,serif" font-size="14.00">2</text>
</g>
<!-- 24 -->
<g id="node26" class="node">
<title>24</title>
<ellipse fill="none" stroke="black" cx="590" cy="-620.6" rx="27" ry="18"/>
<text xml:space="preserve" text-anchor="middle" x="590" y="-615.93" font-family="Times,serif" font-size="14.00">24</text>
</g>
<!-- 1&#45;&gt;24 -->
<g id="edge116" class="edge">
<title>1&#45;&gt;24</title>
<path fill="none" stroke="black" d="M837.21,-1708.27C773.57,-1702.01 612.01,-1677.47 523,-1586.05 450.85,-1511.95 455.43,-1472.8 431,-1372.3 395.28,-1225.36 344.79,-810.14 439,-691.85 467.4,-656.19 518.1,-637.81 552.85,-628.95"/>
<polygon fill="black" stroke="black" points="553.59,-632.37 562.5,-626.65 551.96,-625.56 553.59,-632.37"/>
<text xml:space="preserve" text-anchor="middle" x="402.57" y="-1151.43" font-family="Times,serif" font-size="14.00">3</text>
</g>
<!-- 2&#45;&gt;2 -->
<g id="edge70" class="edge">
<title>2&#45;&gt;2</title>
<path fill="none" stroke="black" d="M888.53,-1630.29C899.51,-1631.07 909,-1628.33 909,-1622.05 909,-1618.13 905.29,-1615.59 899.83,-1614.42"/>
<polygon fill="black" stroke="black" points="900.22,-1610.94 890.04,-1613.9 899.84,-1617.93 900.22,-1610.94"/>
<text xml:space="preserve" text-anchor="middle" x="913.5" y="-1617.38" font-family="Times,serif" font-size="14.00">4</text>
</g>
<!-- 16 -->
<g id="node18" class="node">
<title>16</title>
<ellipse fill="none" stroke="black" cx="1364" cy="-1532.8" rx="27" ry="18"/>
<text xml:space="preserve" text-anchor="middle" x="1364" y="-1528.13" font-family="Times,serif" font-size="14.00">16</text>
</g>
<!-- 2&#45;&gt;16 -->
<g id="edge115" class="edge">
<title>2&#45;&gt;16</title>
<path fill="none" stroke="black" d="M890.18,-1616.48C973.02,-1602.03 1229.7,-1557.24 1326.52,-1540.34"/>
<polygon fill="black" stroke="black" points="1327.04,-1543.81 1336.29,-1538.64 1325.84,-1536.91 1327.04,-1543.81"/>
<text xml:space="preserve" text-anchor="middle" x="1163.28" y="-1572.75" font-family="Times,serif" font-size="14.00">1</text>
</g>
<!-- 2&#45;&gt;20 -->
<g id="edge129" class="edge">
<title>2&#45;&gt;20</title>
<path fill="none" stroke="black" d="M839.7,-1613.57C784.58,-1595.55 648.42,-1544.95 565,-1461.55 534.13,-1430.69 535.98,-1414.28 524,-1372.3 477.01,-1207.63 350,-792.85 350,-621.6 350,-621.6 350,-621.6 350,-308.45 350,-143.72 626.56,-127.51 730.31,-127.23"/>
<polygon fill="black" stroke="black" points="729.99,-130.73 739.99,-127.26 730,-123.73 729.99,-130.73"/>
<text xml:space="preserve" text-anchor="middle" x="400.4" y="-883.68" font-family="Times,serif" font-size="14.00">2</text>
</g>
<!-- 25 -->
<g id="node27" class="node">
<title>25</title>
<ellipse fill="none" stroke="black" cx="2085" cy="-216.2" rx="27" ry="18"/>
<text xml:space="preserve" text-anchor="middle" x="2085" y="-211.53" font-family="Times,serif" font-size="14.00">25</text>
</g>
<!-- 2&#45;&gt;25 -->
<g id="edge68" class="edge">
<title>2&#45;&gt;25</title>
<path fill="none" stroke="black" d="M891.14,-1620.06C1083.87,-1612.94 2238,-1568.85 2238,-1533.8 2238,-1533.8 2238,-1533.8 2238,-1199.73 2238,-1123.85 2252.89,-1106.05 2263,-1030.85 2283.23,-880.44 2283.78,-842.26 2304,-691.85 2310.88,-640.7 2321,-628.59 2321,-576.98 2321,-576.98 2321,-576.98 2321,-308.45 2321,-211.97 2208.59,-264.54 2117,-234.2 2116.35,-233.98 2115.69,-233.76 2115.03,-233.52"/>
<polygon fill="black" stroke="black" points="2116.46,-230.32 2105.9,-229.5 2113.64,-236.73 2116.46,-230.32"/>
<text xml:space="preserve" text-anchor="middle" x="2280.83" y="-928.3" font-family="Times,serif" font-size="14.00">3</text>
</g>
<!-- 26 -->
<g id="node28" class="node">
<title>26</title>
<ellipse fill="none" stroke="black" cx="709" cy="-709.85" rx="27" ry="18"/>
<text xml:space="preserve" text-anchor="middle" x="709" y="-705.18" font-family="Times,serif" font-size="14.00">26</text>
</g>
<!-- 2&#45;&gt;26 -->
<g id="edge96" class="edge">
<title>2&#45;&gt;26</title>
<path fill="none" stroke="black" d="M846.44,-1608.31C837.92,-1601.91 827.69,-1593.86 819,-1586.05 802.81,-1571.5 798.98,-1567.49 785,-1550.8 690.65,-1438.14 649.24,-1417.97 591,-1283.05 561.78,-1215.37 566.92,-1193.5 560,-1120.1 549.52,-1008.9 541.95,-972.11 588,-870.35 612.68,-815.83 658.9,-762.49 686.52,-733.41"/>
<polygon fill="black" stroke="black" points="688.97,-735.91 693.4,-726.28 683.94,-731.05 688.97,-735.91"/>
<text xml:space="preserve" text-anchor="middle" x="568.64" y="-1151.43" font-family="Times,serif" font-size="14.00">0</text>
</g>
<!-- 3 -->
<g id="node5" class="node">
<title>3</title>
<ellipse fill="none" stroke="black" cx="1901" cy="-1800.55" rx="27" ry="18"/>
<text xml:space="preserve" text-anchor="middle" x="1901" y="-1795.88" font-family="Times,serif" font-size="14.00">3</text>
</g>
<!-- 3&#45;&gt;1 -->
<g id="edge88" class="edge">
<title>3&#45;&gt;1</title>
<path fill="none" stroke="black" d="M1873.88,-1798.34C1762.1,-1793.16 1326.17,-1771.23 970,-1729.3 947.1,-1726.61 921.58,-1722.55 901.31,-1719.07"/>
<polygon fill="black" stroke="black" points="902,-1715.64 891.54,-1717.36 900.79,-1722.53 902,-1715.64"/>
<text xml:space="preserve" text-anchor="middle" x="1332.05" y="-1751.25" font-family="Times,serif" font-size="14.00">2</text>
</g>
<!-- 9 -->
<g id="node11" class="node">
<title>9</title>
<ellipse fill="none" stroke="black" cx="1415" cy="-309.45" rx="18" ry="18"/>
<ellipse fill="none" stroke="black" cx="1415" cy="-309.45" rx="22" ry="22"/>
<text xml:space="preserve" text-anchor="middle" x="1415" y="-304.78" font-family="Times,serif" font-size="14.00">9</text>
</g>
<!-- 3&#45;&gt;9 -->
<g id="edge110" class="edge">
<title>3&#45;&gt;9</title>
<path fill="none" stroke="black" d="M1927.33,-1795.37C1967.89,-1787.26 2041,-1765.29 2041,-1712.3 2041,-1712.3 2041,-1712.3 2041,-1199.73 2041,-998.16 1755.49,-1157.93 1636,-995.6 1621.58,-976.01 1630.21,-965.72 1627,-941.6 1612.27,-831.02 1624.32,-801.15 1602,-691.85 1580.25,-585.34 1579.18,-554.84 1529,-458.4 1504.01,-410.38 1463.14,-362.08 1437.72,-334.28"/>
<polygon fill="black" stroke="black" points="1440.44,-332.07 1431.08,-327.11 1435.31,-336.82 1440.44,-332.07"/>
<text xml:space="preserve" text-anchor="middle" x="1912.56" y="-1062.18" font-family="Times,serif" font-size="14.00">1</text>
</g>
<!-- 12 -->
<g id="node14" class="node">
<title>12</title>
<ellipse fill="none" stroke="black" cx="1243" cy="-1443.55" rx="27" ry="18"/>
<text xml:space="preserve" text-anchor="middle" x="1243" y="-1438.88" font-family="Times,serif" font-size="14.00">12</text>
</g>
<!-- 3&#45;&gt;12 -->
<g id="edge6" class="edge">
<title>3&#45;&gt;12</title>
<path fill="none" stroke="black" d="M1874.16,-1797C1836.66,-1792.9 1766.81,-1783.34 1710,-1764.55 1505.86,-1697.03 1426.2,-1704.66 1276,-1550.8 1255.66,-1529.97 1247.83,-1496.84 1244.83,-1473.11"/>
<polygon fill="black" stroke="black" points="1248.32,-1472.77 1243.82,-1463.18 1241.35,-1473.48 1248.32,-1472.77"/>
<text xml:space="preserve" text-anchor="middle" x="1381.85" y="-1617.38" font-family="Times,serif" font-size="14.00">0</text>
</g>
<!-- 19 -->
<g id="node21" class="node">
<title>19</title>
<ellipse fill="none" stroke="black" cx="2211" cy="-521.5" rx="23.85" ry="23.85"/>
<ellipse fill="none" stroke="black" cx="2211" cy="-521.5" rx="27.85" ry="27.85"/>
<text xml:space="preserve" text-anchor="middle" x="2211" y="-516.83" font-family="Times,serif" font-size="14.00">19</text>
</g>
<!-- 3&#45;&gt;19 -->
<g id="edge2" class="edge">
<title>3&#45;&gt;19</title>
<path fill="none" stroke="black" d="M1928.18,-1798.59C1981.96,-1796.19 2099.46,-1788.31 2131,-1764.55 2151.41,-1749.18 2155,-1737.86 2155,-1712.3 2155,-1712.3 2155,-1712.3 2155,-1442.55 2155,-1275.95 2166,-1234.46 2166,-1067.85 2166,-1067.85 2166,-1067.85 2166,-753.48 2166,-683.95 2185.89,-604.79 2199.22,-559.53"/>
<polygon fill="black" stroke="black" points="2202.57,-560.54 2202.1,-549.95 2195.87,-558.52 2202.57,-560.54"/>
<text xml:space="preserve" text-anchor="middle" x="2169.76" y="-1151.43" font-family="Times,serif" font-size="14.00">4</text>
</g>
<!-- 23 -->
<g id="node25" class="node">
<title>23</title>
<ellipse fill="none" stroke="black" cx="769" cy="-27.85" rx="23.85" ry="23.85"/>
<ellipse fill="none" stroke="black" cx="769" cy="-27.85" rx="27.85" ry="27.85"/>
<text xml:space="preserve" text-anchor="middle" x="769" y="-23.18" font-family="Times,serif" font-size="14.00">23</text>
</g>
<!-- 3&#45;&gt;23 -->
<g id="edge120" class="edge">
<title>3&#45;&gt;23</title>
<path fill="none" stroke="black" d="M1928.03,-1798.37C1977.83,-1794.59 2079,-1778.72 2079,-1712.3 2079,-1712.3 2079,-1712.3 2079,-1199.73 2079,-1101.4 2086,-1076.93 2086,-978.6 2086,-978.6 2086,-978.6 2086,-664.23 2086,-584.01 2076.87,-556.48 2027,-493.65 1910.75,-347.19 1825.73,-374.43 1671,-269.45 1604.54,-224.36 1597.25,-198.04 1525,-162.95 1445.27,-124.22 1418.9,-130.85 1333,-108.95 1264.96,-91.61 1248.24,-85.37 1179,-73.7 1043.89,-50.93 881.7,-37.14 808.39,-31.63"/>
<polygon fill="black" stroke="black" points="808.73,-28.15 798.5,-30.9 808.22,-35.13 808.73,-28.15"/>
<text xml:space="preserve" text-anchor="middle" x="2090.5" y="-928.3" font-family="Times,serif" font-size="14.00">3</text>
</g>
<!-- 4 -->
<g id="node6" class="node">
<title>4</title>
<ellipse fill="none" stroke="black" cx="1303" cy="-1066.85" rx="27" ry="18"/>
<text xml:space="preserve" text-anchor="middle" x="1303" y="-1062.18" font-family="Times,serif" font-size="14.00">4</text>
</g>
<!-- 4&#45;&gt;3 -->
<g id="edge148" class="edge">
<title>4&#45;&gt;3</title>
<path fill="none" stroke="black" d="M1316.61,-1082.5C1367.74,-1137.7 1552.53,-1339.01 1693,-1514.8 1767.37,-1607.87 1848.86,-1723.98 1883.67,-1774.33"/>
<polygon fill="black" stroke="black" points="1880.77,-1776.28 1889.33,-1782.52 1886.53,-1772.3 1880.77,-1776.28"/>
<text xml:space="preserve" text-anchor="middle" x="1652.9" y="-1438.88" font-family="Times,serif" font-size="14.00">3</text>
</g>
<!-- 13 -->
<g id="node15" class="node">
<title>13</title>
<ellipse fill="none" stroke="black" cx="1456" cy="-216.2" rx="27" ry="18"/>
<text xml:space="preserve" text-anchor="middle" x="1456" y="-211.53" font-family="Times,serif" font-size="14.00">13</text>
</g>
<!-- 4&#45;&gt;13 -->
<g id="edge128" class="edge">
<title>4&#45;&gt;13</title>
<path fill="none" stroke="black" d="M1318.65,-1051.7C1324.47,-1045.75 1330.69,-1038.44 1335,-1030.85 1347.99,-1007.95 1471,-603.3 1471,-576.98 1471,-576.98 1471,-576.98 1471,-308.45 1471,-287.09 1466.95,-263.28 1463.05,-245.34"/>
<polygon fill="black" stroke="black" points="1466.49,-244.66 1460.84,-235.69 1459.67,-246.22 1466.49,-244.66"/>
<text xml:space="preserve" text-anchor="middle" x="1455.77" y="-660.55" font-family="Times,serif" font-size="14.00">2</text>
</g>
<!-- 4&#45;&gt;16 -->
<g id="edge104" class="edge">
<title>4&#45;&gt;16</title>
<path fill="none" stroke="black" d="M1306.67,-1084.9C1307.82,-1090.59 1309.04,-1096.98 1310,-1102.85 1334.45,-1253.11 1354.05,-1434.53 1361.14,-1503.42"/>
<polygon fill="black" stroke="black" points="1357.63,-1503.48 1362.13,-1513.07 1364.59,-1502.77 1357.63,-1503.48"/>
<text xml:space="preserve" text-anchor="middle" x="1344.57" y="-1305" font-family="Times,serif" font-size="14.00">1</text>
</g>
<!-- 4&#45;&gt;17 -->
<g id="edge52" class="edge">
<title>4&#45;&gt;17</title>
<path fill="none" stroke="black" d="M1279.38,-1076.05C1262.36,-1082.37 1239.12,-1091.87 1220,-1102.85 1208.92,-1109.22 1208.37,-1114.28 1197,-1120.1 1173.07,-1132.36 1144.04,-1141.28 1121.53,-1147.05"/>
<polygon fill="black" stroke="black" points="1120.77,-1143.63 1111.89,-1149.42 1122.44,-1150.43 1120.77,-1143.63"/>
<text xml:space="preserve" text-anchor="middle" x="1224.5" y="-1106.8" font-family="Times,serif" font-size="14.00">0</text>
</g>
<!-- 4&#45;&gt;21 -->
<g id="edge19" class="edge">
<title>4&#45;&gt;21</title>
<path fill="none" stroke="black" d="M1327.07,-1058.33C1362.2,-1047.51 1429.69,-1027.35 1488,-1013.6 1538.26,-1001.75 1596.98,-991.13 1634.31,-984.78"/>
<polygon fill="black" stroke="black" points="1634.87,-988.23 1644.15,-983.12 1633.71,-981.33 1634.87,-988.23"/>
<text xml:space="preserve" text-anchor="middle" x="1492.5" y="-1017.55" font-family="Times,serif" font-size="14.00">4</text>
</g>
<!-- 5 -->
<g id="node7" class="node">
<title>5</title>
<ellipse fill="none" stroke="black" cx="2431" cy="-2072.3" rx="18" ry="18"/>
<ellipse fill="none" stroke="black" cx="2431" cy="-2072.3" rx="22" ry="22"/>
<text xml:space="preserve" text-anchor="middle" x="2431" y="-2067.63" font-family="Times,serif" font-size="14.00">5</text>
</g>
<!-- 8 -->
<g id="node10" class="node">
<title>8</title>
<ellipse fill="none" stroke="black" cx="367" cy="-1979.05" rx="27" ry="18"/>
<text xml:space="preserve" text-anchor="middle" x="367" y="-1974.38" font-family="Times,serif" font-size="14.00">8</text>
</g>
<!-- 5&#45;&gt;8 -->
<g id="edge93" class="edge">
<title>5&#45;&gt;8</title>
<path fill="none" stroke="black" d="M2408.84,-2071.29C2272.01,-2071.13 1528.2,-2068.52 923,-2032.3 727.57,-2020.61 494.5,-1994.85 404.77,-1984.49"/>
<polygon fill="black" stroke="black" points="405.41,-1981.05 395.07,-1983.37 404.6,-1988 405.41,-1981.05"/>
<text xml:space="preserve" text-anchor="middle" x="927.5" y="-2019" font-family="Times,serif" font-size="14.00">1</text>
</g>
<!-- 5&#45;&gt;12 -->
<g id="edge99" class="edge">
<title>5&#45;&gt;12</title>
<path fill="none" stroke="black" d="M2408.56,-2071.14C2222.78,-2069.66 946,-2056.69 946,-1980.05 946,-1980.05 946,-1980.05 946,-1531.8 946,-1478.4 1124.97,-1455.33 1205.05,-1447.68"/>
<polygon fill="black" stroke="black" points="1204.98,-1451.2 1214.61,-1446.8 1204.33,-1444.23 1204.98,-1451.2"/>
<text xml:space="preserve" text-anchor="middle" x="950.5" y="-1751.25" font-family="Times,serif" font-size="14.00">2</text>
</g>
<!-- 18 -->
<g id="node20" class="node">
<title>18</title>
<ellipse fill="none" stroke="black" cx="2117" cy="-309.45" rx="27" ry="18"/>
<text xml:space="preserve" text-anchor="middle" x="2117" y="-304.78" font-family="Times,serif" font-size="14.00">18</text>
</g>
<!-- 5&#45;&gt;18 -->
<g id="edge77" class="edge">
<title>5&#45;&gt;18</title>
<path fill="none" stroke="black" d="M2444.29,-2054.2C2456.59,-2036.62 2473,-2007.96 2473,-1980.05 2473,-1980.05 2473,-1980.05 2473,-664.23 2473,-620.89 2480.86,-606.37 2462,-567.35 2428.64,-498.33 2227.63,-368.24 2197,-349.45 2181.95,-340.22 2164.4,-331.46 2149.57,-324.59"/>
<polygon fill="black" stroke="black" points="2151.27,-321.51 2140.71,-320.57 2148.37,-327.89 2151.27,-321.51"/>
<text xml:space="preserve" text-anchor="middle" x="2477.5" y="-1196.05" font-family="Times,serif" font-size="14.00">0</text>
</g>
<!-- 5&#45;&gt;20 -->
<g id="edge16" class="edge">
<title>5&#45;&gt;20</title>
<path fill="none" stroke="black" d="M2408.71,-2071.31C2195.82,-2071.3 524.69,-2070.06 307,-2032.3 235.37,-2019.88 152,-2052.75 152,-1980.05 152,-1980.05 152,-1980.05 152,-1844.18 152,-1759.13 95.56,-1753.45 62,-1675.3 27.6,-1595.19 0,-1576.37 0,-1489.18 0,-1489.18 0,-1489.18 0,-842.73 0,-728.53 77.8,-442.5 144,-349.45 168.29,-315.32 180.91,-311.8 215,-287.45 307.06,-221.71 328.75,-195.81 437,-162.95 539.64,-131.8 667.39,-127.4 730.3,-127.35"/>
<polygon fill="black" stroke="black" points="730.11,-130.85 740.12,-127.38 730.13,-123.85 730.11,-130.85"/>
<text xml:space="preserve" text-anchor="middle" x="4.5" y="-1106.8" font-family="Times,serif" font-size="14.00">3</text>
</g>
<!-- 5&#45;&gt;25 -->
<g id="edge13" class="edge">
<title>5&#45;&gt;25</title>
<path fill="none" stroke="black" d="M2452.49,-2066.18C2488.23,-2056.23 2556,-2030.7 2556,-1980.05 2556,-1980.05 2556,-1980.05 2556,-1254.2 2556,-1151.5 2549,-1125.93 2549,-1023.23 2549,-1023.23 2549,-1023.23 2549,-753.48 2549,-537.21 2556.22,-445.87 2409,-287.45 2319.2,-190.82 2243.74,-270.78 2117,-234.2 2116.34,-234.01 2115.68,-233.8 2115.01,-233.59"/>
<polygon fill="black" stroke="black" points="2116.4,-230.37 2105.83,-229.73 2113.69,-236.83 2116.4,-230.37"/>
<text xml:space="preserve" text-anchor="middle" x="2558.74" y="-1151.43" font-family="Times,serif" font-size="14.00">4</text>
</g>
<!-- 6 -->
<g id="node8" class="node">
<title>6</title>
<ellipse fill="none" stroke="black" cx="737" cy="-216.2" rx="27" ry="18"/>
<text xml:space="preserve" text-anchor="middle" x="737" y="-211.53" font-family="Times,serif" font-size="14.00">6</text>
</g>
<!-- 6&#45;&gt;0 -->
<g id="edge145" class="edge">
<title>6&#45;&gt;0</title>
<path fill="none" stroke="black" d="M740.3,-234.28C743.54,-252.56 748,-282.44 748,-308.45 748,-468.03 748,-468.03 748,-468.03 748,-565.96 670.9,-565.88 634,-656.6 600.51,-738.94 575.87,-765.13 593,-852.35 596.73,-871.36 682.26,-1101.55 732,-1174.1 750.18,-1200.63 761.19,-1202.01 781,-1227.35 810.82,-1265.5 801.44,-1290.38 841,-1318.3 871.49,-1339.82 913.78,-1348.17 944.27,-1351.38"/>
<polygon fill="black" stroke="black" points="943.95,-1354.86 954.22,-1352.26 944.57,-1347.89 943.95,-1354.86"/>
<text xml:space="preserve" text-anchor="middle" x="593.07" y="-794.43" font-family="Times,serif" font-size="14.00">0</text>
</g>
<!-- 6&#45;&gt;6 -->
<g id="edge40" class="edge">
<title>6&#45;&gt;6</title>
<path fill="none" stroke="black" d="M763.35,-220.37C773.53,-220.55 782,-219.16 782,-216.2 782,-214.49 779.17,-213.3 774.81,-212.64"/>
<polygon fill="black" stroke="black" points="775.03,-209.15 764.86,-212.11 774.66,-216.14 775.03,-209.15"/>
<text xml:space="preserve" text-anchor="middle" x="786.5" y="-211.53" font-family="Times,serif" font-size="14.00">4</text>
</g>
<!-- 6&#45;&gt;6 -->
<g id="edge132" class="edge">
<title>6&#45;&gt;6</title>
<path fill="none" stroke="black" d="M761.9,-223.53C780.82,-226.18 800,-223.74 800,-216.2 800,-210.19 787.82,-207.42 773.3,-207.88"/>
<polygon fill="black" stroke="black" points="773.07,-204.39 763.41,-208.74 773.67,-211.36 773.07,-204.39"/>
<text xml:space="preserve" text-anchor="middle" x="804.5" y="-211.53" font-family="Times,serif" font-size="14.00">2</text>
</g>
<!-- 6&#45;&gt;20 -->
<g id="edge46" class="edge">
<title>6&#45;&gt;20</title>
<path fill="none" stroke="black" d="M734.41,-198.15C733.52,-187.65 733.65,-174.11 738,-162.95 739.76,-158.44 742.38,-154.13 745.37,-150.18"/>
<polygon fill="black" stroke="black" points="747.86,-152.65 751.77,-142.8 742.57,-148.06 747.86,-152.65"/>
<text xml:space="preserve" text-anchor="middle" x="742.5" y="-166.9" font-family="Times,serif" font-size="14.00">3</text>
</g>
<!-- 6&#45;&gt;24 -->
<g id="edge105" class="edge">
<title>6&#45;&gt;24</title>
<path fill="none" stroke="black" d="M730.84,-234.05C708.06,-296.42 628.37,-514.57 600.07,-592.04"/>
<polygon fill="black" stroke="black" points="596.79,-590.81 596.65,-601.4 603.37,-593.21 596.79,-590.81"/>
<text xml:space="preserve" text-anchor="middle" x="679.63" y="-407.88" font-family="Times,serif" font-size="14.00">1</text>
</g>
<!-- 7 -->
<g id="node9" class="node">
<title>7</title>
<ellipse fill="none" stroke="black" cx="709" cy="-799.1" rx="27" ry="18"/>
<text xml:space="preserve" text-anchor="middle" x="709" y="-794.43" font-family="Times,serif" font-size="14.00">7</text>
</g>
<!-- 7&#45;&gt;1 -->
<g id="edge28" class="edge">
<title>7&#45;&gt;1</title>
<path fill="none" stroke="black" d="M684.53,-807.38C669.66,-812.89 651.25,-821.82 639,-835.1 569.59,-910.39 583.41,-951.07 553,-1048.85 510.25,-1186.31 501.73,-1232.49 536,-1372.3 568.78,-1506.07 581.94,-1557.26 692,-1640.05 733.58,-1671.33 791.05,-1691.08 827.88,-1701.42"/>
<polygon fill="black" stroke="black" points="826.58,-1704.69 837.15,-1703.93 828.41,-1697.93 826.58,-1704.69"/>
<text xml:space="preserve" text-anchor="middle" x="522.74" y="-1250.53" font-family="Times,serif" font-size="14.00">4</text>
</g>
<!-- 7&#45;&gt;12 -->
<g id="edge90" class="edge">
<title>7&#45;&gt;12</title>
<path fill="none" stroke="black" d="M709.92,-817.49C714.65,-905.52 736.63,-1298.55 753,-1318.3 811.44,-1388.82 1100.27,-1426.94 1204.99,-1438.62"/>
<polygon fill="black" stroke="black" points="1204.43,-1442.08 1214.75,-1439.69 1205.19,-1435.12 1204.43,-1442.08"/>
<text xml:space="preserve" text-anchor="middle" x="733.46" y="-1106.8" font-family="Times,serif" font-size="14.00">2</text>
</g>
<!-- 7&#45;&gt;14 -->
<g id="edge18" class="edge">
<title>7&#45;&gt;14</title>
<path fill="none" stroke="black" d="M702.57,-816.8C698.42,-827.18 692.75,-840.7 687,-852.35 685.55,-855.29 683.96,-858.33 682.33,-861.33"/>
<polygon fill="black" stroke="black" points="679.37,-859.44 677.52,-869.87 685.47,-862.87 679.37,-859.44"/>
<text xml:space="preserve" text-anchor="middle" x="699.33" y="-839.05" font-family="Times,serif" font-size="14.00">1</text>
</g>
<!-- 7&#45;&gt;17 -->
<g id="edge11" class="edge">
<title>7&#45;&gt;17</title>
<path fill="none" stroke="black" d="M732.28,-808.53C745.78,-814.34 762.36,-823.18 774,-835.1 873.32,-936.76 806.21,-1033.64 919,-1120.1 938.71,-1135.21 1004.49,-1145.6 1047.09,-1150.93"/>
<polygon fill="black" stroke="black" points="1046.58,-1154.4 1056.93,-1152.12 1047.42,-1147.45 1046.58,-1154.4"/>
<text xml:space="preserve" text-anchor="middle" x="848.41" y="-972.93" font-family="Times,serif" font-size="14.00">0</text>
</g>
<!-- 7&#45;&gt;26 -->
<g id="edge73" class="edge">
<title>7&#45;&gt;26</title>
<path fill="none" stroke="black" d="M709,-780.86C709,-769.03 709,-753.06 709,-739.35"/>
<polygon fill="black" stroke="black" points="712.5,-739.57 709,-729.57 705.5,-739.57 712.5,-739.57"/>
<text xml:space="preserve" text-anchor="middle" x="713.5" y="-749.8" font-family="Times,serif" font-size="14.00">3</text>
</g>
<!-- 8&#45;&gt;8 -->
<g id="edge41" class="edge">
<title>8&#45;&gt;8</title>
<path fill="none" stroke="black" d="M391.53,-1987.29C402.51,-1988.07 412,-1985.33 412,-1979.05 412,-1975.13 408.29,-1972.59 402.83,-1971.42"/>
<polygon fill="black" stroke="black" points="403.22,-1967.94 393.04,-1970.9 402.84,-1974.93 403.22,-1967.94"/>
<text xml:space="preserve" text-anchor="middle" x="416.5" y="-1974.38" font-family="Times,serif" font-size="14.00">4</text>
</g>
<!-- 10 -->
<g id="node12" class="node">
<title>10</title>
<ellipse fill="none" stroke="black" cx="1602" cy="-1889.8" rx="27" ry="18"/>
<text xml:space="preserve" text-anchor="middle" x="1602" y="-1885.13" font-family="Times,serif" font-size="14.00">10</text>
</g>
<!-- 8&#45;&gt;10 -->
<g id="edge44" class="edge">
<title>8&#45;&gt;10</title>
<path fill="none" stroke="black" d="M394.12,-1976.85C481.72,-1972.91 764.97,-1959.67 999,-1943.05 1212.85,-1927.87 1468.84,-1903.7 1563.97,-1894.51"/>
<polygon fill="black" stroke="black" points="1564.15,-1898.01 1573.77,-1893.56 1563.48,-1891.04 1564.15,-1898.01"/>
<text xml:space="preserve" text-anchor="middle" x="1219.2" y="-1929.75" font-family="Times,serif" font-size="14.00">0</text>
</g>
<!-- 8&#45;&gt;12 -->
<g id="edge30" class="edge">
<title>8&#45;&gt;12</title>
<path fill="none" stroke="black" d="M394.12,-1976.31C499.46,-1968.99 879.68,-1937.09 960,-1853.8 1018.27,-1793.38 992,-1751.61 992,-1667.68 992,-1667.68 992,-1667.68 992,-1531.8 992,-1487.21 1135.13,-1460.21 1205.22,-1449.66"/>
<polygon fill="black" stroke="black" points="1205.73,-1453.13 1215.12,-1448.22 1204.71,-1446.2 1205.73,-1453.13"/>
<text xml:space="preserve" text-anchor="middle" x="1000.12" y="-1706.63" font-family="Times,serif" font-size="14.00">1</text>
</g>
<!-- 8&#45;&gt;17 -->
<g id="edge137" class="edge">
<title>8&#45;&gt;17</title>
<path fill="none" stroke="black" d="M373.67,-1961.16C387.49,-1924.55 418,-1834.93 418,-1756.93 418,-1756.93 418,-1756.93 418,-1576.43 418,-1519.38 494.52,-1335.22 668,-1227.35 731.17,-1188.07 955.64,-1166.96 1046.45,-1159.87"/>
<polygon fill="black" stroke="black" points="1046.63,-1163.36 1056.34,-1159.11 1046.1,-1156.38 1046.63,-1163.36"/>
<text xml:space="preserve" text-anchor="middle" x="422.5" y="-1572.75" font-family="Times,serif" font-size="14.00">2</text>
</g>
<!-- 8&#45;&gt;24 -->
<g id="edge87" class="edge">
<title>8&#45;&gt;24</title>
<path fill="none" stroke="black" d="M363.37,-1960.93C346.1,-1877.86 273,-1508.21 273,-1201.73 273,-1201.73 273,-1201.73 273,-1021.23 273,-861.99 311.92,-814.06 414,-691.85 428.98,-673.92 432.41,-667.65 453,-656.6 484.18,-639.87 523.68,-630.88 552.25,-626.23"/>
<polygon fill="black" stroke="black" points="552.52,-629.72 561.88,-624.76 551.47,-622.8 552.52,-629.72"/>
<text xml:space="preserve" text-anchor="middle" x="280.58" y="-1305" font-family="Times,serif" font-size="14.00">3</text>
</g>
<!-- 9&#45;&gt;13 -->
<g id="edge113" class="edge">
<title>9&#45;&gt;13</title>
<path fill="none" stroke="black" d="M1411.43,-287.5C1410.51,-276.51 1410.94,-263.1 1416,-252.2 1418.72,-246.34 1422.95,-241.07 1427.65,-236.5"/>
<polygon fill="black" stroke="black" points="1429.89,-239.19 1435.25,-230.05 1425.36,-233.85 1429.89,-239.19"/>
<text xml:space="preserve" text-anchor="middle" x="1420.5" y="-256.15" font-family="Times,serif" font-size="14.00">0</text>
</g>
<!-- 9&#45;&gt;13 -->
<g id="edge126" class="edge">
<title>9&#45;&gt;13</title>
<path fill="none" stroke="black" d="M1423.7,-289.1C1429.58,-276.01 1437.43,-258.54 1443.91,-244.1"/>
<polygon fill="black" stroke="black" points="1447.03,-245.71 1447.93,-235.15 1440.64,-242.84 1447.03,-245.71"/>
<text xml:space="preserve" text-anchor="middle" x="1443.67" y="-256.15" font-family="Times,serif" font-size="14.00">4</text>
</g>
<!-- 9&#45;&gt;16 -->
<g id="edge12" class="edge">
<title>9&#45;&gt;16</title>
<path fill="none" stroke="black" d="M1408.56,-330.74C1402.72,-350.99 1395,-383.1 1395,-411.55 1395,-576.98 1395,-576.98 1395,-576.98 1395,-776.67 1456.65,-818.9 1501,-1013.6 1516.95,-1083.64 1528.08,-1102.73 1520,-1174.1 1514.41,-1223.47 1509.77,-1235.62 1495,-1283.05 1467.8,-1370.42 1410.19,-1463.22 1381.29,-1506.65"/>
<polygon fill="black" stroke="black" points="1378.45,-1504.61 1375.77,-1514.86 1384.25,-1508.52 1378.45,-1504.61"/>
<text xml:space="preserve" text-anchor="middle" x="1486.47" y="-928.3" font-family="Times,serif" font-size="14.00">3</text>
</g>
<!-- 9&#45;&gt;17 -->
<g id="edge74" class="edge">
<title>9&#45;&gt;17</title>
<path fill="none" stroke="black" d="M1392.95,-313.79C1348.86,-321.84 1254,-346.7 1254,-411.55 1254,-666.23 1254,-666.23 1254,-666.23 1254,-768.72 1236.73,-1040.63 1172,-1120.1 1159.77,-1135.12 1140.12,-1143.73 1122.59,-1148.66"/>
<polygon fill="black" stroke="black" points="1121.82,-1145.24 1112.95,-1151.03 1123.49,-1152.04 1121.82,-1145.24"/>
<text xml:space="preserve" text-anchor="middle" x="1256.08" y="-749.8" font-family="Times,serif" font-size="14.00">1</text>
</g>
<!-- 9&#45;&gt;25 -->
<g id="edge43" class="edge">
<title>9&#45;&gt;25</title>
<path fill="none" stroke="black" d="M1436.91,-305.47C1533.81,-292.27 1924.44,-239.07 2047.61,-222.29"/>
<polygon fill="black" stroke="black" points="2047.74,-225.81 2057.17,-220.99 2046.79,-218.87 2047.74,-225.81"/>
<text xml:space="preserve" text-anchor="middle" x="1814.51" y="-256.15" font-family="Times,serif" font-size="14.00">2</text>
</g>
<!-- 10&#45;&gt;3 -->
<g id="edge55" class="edge">
<title>10&#45;&gt;3</title>
<path fill="none" stroke="black" d="M1626.47,-1881.66C1679.38,-1866.22 1804.61,-1829.68 1865.94,-1811.78"/>
<polygon fill="black" stroke="black" points="1866.54,-1815.25 1875.16,-1809.09 1864.58,-1808.53 1866.54,-1815.25"/>
<text xml:space="preserve" text-anchor="middle" x="1782.78" y="-1840.5" font-family="Times,serif" font-size="14.00">3</text>
</g>
<!-- 10&#45;&gt;6 -->
<g id="edge100" class="edge">
<title>10&#45;&gt;6</title>
<path fill="none" stroke="black" d="M1574.99,-1887.31C1501.61,-1883.16 1292.43,-1870.65 1119,-1853.8 777.95,-1820.67 510.05,-1909.18 396,-1586.05 375.77,-1528.74 307.74,-547.46 336,-493.65 415.61,-342.07 620.14,-257.33 702.18,-228.52"/>
<polygon fill="black" stroke="black" points="703.17,-231.88 711.49,-225.32 700.9,-225.26 703.17,-231.88"/>
<text xml:space="preserve" text-anchor="middle" x="355.13" y="-1062.18" font-family="Times,serif" font-size="14.00">4</text>
</g>
<!-- 10&#45;&gt;17 -->
<g id="edge66" class="edge">
<title>10&#45;&gt;17</title>
<path fill="none" stroke="black" d="M1575.06,-1886.84C1427.86,-1875.61 721.69,-1814.98 564,-1675.3 526.81,-1642.36 518.65,-1617.18 530,-1568.8 537.59,-1536.46 638.6,-1323.6 663,-1301.05 674.92,-1290.04 918.52,-1196.97 934,-1192.1 972.24,-1180.06 1017.1,-1170.18 1047.94,-1164.03"/>
<polygon fill="black" stroke="black" points="1048.4,-1167.5 1057.54,-1162.14 1047.05,-1160.63 1048.4,-1167.5"/>
<text xml:space="preserve" text-anchor="middle" x="555.65" y="-1528.13" font-family="Times,serif" font-size="14.00">2</text>
</g>
<!-- 10&#45;&gt;21 -->
<g id="edge139" class="edge">
<title>10&#45;&gt;21</title>
<path fill="none" stroke="black" d="M1629.25,-1887.74C1746.24,-1882.84 2200,-1860.04 2200,-1801.55 2200,-1801.55 2200,-1801.55 2200,-1576.43 2200,-1478.15 2200,-1453.58 2200,-1355.3 2200,-1355.3 2200,-1355.3 2200,-1199.73 2200,-1145.82 2175.66,-1126.06 2127,-1102.85 1980.83,-1033.13 1788.95,-996.98 1709.22,-984.14"/>
<polygon fill="black" stroke="black" points="1710.21,-980.75 1699.79,-982.65 1709.12,-987.67 1710.21,-980.75"/>
<text xml:space="preserve" text-anchor="middle" x="2204.5" y="-1438.88" font-family="Times,serif" font-size="14.00">0</text>
</g>
<!-- 10&#45;&gt;23 -->
<g id="edge79" class="edge">
<title>10&#45;&gt;23</title>
<path fill="none" stroke="black" d="M1574.64,-1889.15C1466.53,-1890.24 1058.73,-1891.44 726,-1853.8 641.53,-1844.25 616.74,-1850.59 538,-1818.55 471.72,-1791.58 451.25,-1783.04 404,-1729.3 369.74,-1690.33 197,-1362.57 197,-1310.68 197,-1310.68 197,-1310.68 197,-1110.48 197,-873.35 190,-814.11 190,-576.98 190,-576.98 190,-576.98 190,-125.95 190,-71.1 599.45,-39.83 729.71,-31.28"/>
<polygon fill="black" stroke="black" points="729.81,-34.78 739.56,-30.64 729.36,-27.79 729.81,-34.78"/>
<text xml:space="preserve" text-anchor="middle" x="200.88" y="-972.93" font-family="Times,serif" font-size="14.00">1</text>
</g>
<!-- 11 -->
<g id="node13" class="node">
<title>11</title>
<ellipse fill="none" stroke="black" cx="1719" cy="-27.85" rx="27" ry="18"/>
<text xml:space="preserve" text-anchor="middle" x="1719" y="-23.18" font-family="Times,serif" font-size="14.00">11</text>
</g>
<!-- 11&#45;&gt;0 -->
<g id="edge64" class="edge">
<title>11&#45;&gt;0</title>
<path fill="none" stroke="black" d="M1710.51,-45.13C1684.23,-97.05 1606,-263.99 1606,-411.55 1606,-576.98 1606,-576.98 1606,-576.98 1606,-729.09 1563.19,-762.76 1513,-906.35 1495.95,-955.15 1482.14,-963.88 1468,-1013.6 1443.9,-1098.32 1471.86,-1128.46 1437,-1209.35 1412.8,-1265.5 1406.54,-1288.77 1353,-1318.3 1338.62,-1326.23 1113.13,-1343.68 1021.38,-1350.5"/>
<polygon fill="black" stroke="black" points="1021.34,-1346.99 1011.63,-1351.22 1021.86,-1353.97 1021.34,-1346.99"/>
<text xml:space="preserve" text-anchor="middle" x="1598.91" y="-705.18" font-family="Times,serif" font-size="14.00">1</text>
</g>
<!-- 11&#45;&gt;3 -->
<g id="edge123" class="edge">
<title>11&#45;&gt;3</title>
<path fill="none" stroke="black" d="M1746.23,-28.72C1901.01,-28.33 2663,-31.22 2663,-125.95 2663,-261.83 2663,-261.83 2663,-261.83 2663,-467.38 2435,-458.67 2435,-664.23 2435,-1712.3 2435,-1712.3 2435,-1712.3 2435,-1762.53 2062.27,-1789.73 1939.61,-1797.32"/>
<polygon fill="black" stroke="black" points="1939.5,-1793.82 1929.73,-1797.92 1939.92,-1800.81 1939.5,-1793.82"/>
<text xml:space="preserve" text-anchor="middle" x="2439.5" y="-928.3" font-family="Times,serif" font-size="14.00">3</text>
</g>
<!-- 11&#45;&gt;5 -->
<g id="edge27" class="edge">
<title>11&#45;&gt;5</title>
<path fill="none" stroke="black" d="M1746.38,-29.35C1876.41,-31.87 2432.27,-44.18 2603,-73.7 2682.56,-87.46 2777,-45.21 2777,-125.95 2777,-359.08 2777,-359.08 2777,-359.08 2777,-483.48 2675.58,-483.7 2639,-602.6 2566.57,-838.08 2594,-908.73 2594,-1155.1 2594,-1980.05 2594,-1980.05 2594,-1980.05 2594,-2038.95 2511.97,-2060.21 2464.29,-2067.59"/>
<polygon fill="black" stroke="black" points="2463.9,-2064.11 2454.48,-2068.97 2464.87,-2071.04 2463.9,-2064.11"/>
<text xml:space="preserve" text-anchor="middle" x="2597.77" y="-1062.18" font-family="Times,serif" font-size="14.00">2</text>
</g>
<!-- 11&#45;&gt;17 -->
<g id="edge38" class="edge">
<title>11&#45;&gt;17</title>
<path fill="none" stroke="black" d="M1691.81,-29.39C1635.43,-32.11 1511,-47.04 1511,-125.95 1511,-413.55 1511,-413.55 1511,-413.55 1511,-438.78 1565.1,-773.36 1478,-941.6 1421.21,-1051.29 1382.47,-1081.95 1265,-1120.1 1223.3,-1133.65 1211.04,-1129.7 1168,-1138.1 1152.85,-1141.06 1136.17,-1144.45 1121.77,-1147.42"/>
<polygon fill="black" stroke="black" points="1121.34,-1143.93 1112.25,-1149.39 1122.76,-1150.79 1121.34,-1143.93"/>
<text xml:space="preserve" text-anchor="middle" x="1531.94" y="-615.93" font-family="Times,serif" font-size="14.00">0</text>
</g>
<!-- 11&#45;&gt;21 -->
<g id="edge4" class="edge">
<title>11&#45;&gt;21</title>
<path fill="none" stroke="black" d="M1719.1,-46.3C1719.65,-156.84 1720.94,-761 1685,-941.6 1684.51,-944.08 1683.86,-946.62 1683.12,-949.14"/>
<polygon fill="black" stroke="black" points="1679.88,-947.8 1679.95,-958.4 1686.5,-950.07 1679.88,-947.8"/>
<text xml:space="preserve" text-anchor="middle" x="1719.61" y="-516.83" font-family="Times,serif" font-size="14.00">4</text>
</g>
<!-- 12&#45;&gt;0 -->
<g id="edge22" class="edge">
<title>12&#45;&gt;0</title>
<path fill="none" stroke="black" d="M1219.47,-1434.66C1173.37,-1419.19 1071.01,-1384.84 1017.34,-1366.83"/>
<polygon fill="black" stroke="black" points="1018.69,-1363.59 1008.1,-1363.73 1016.47,-1370.23 1018.69,-1363.59"/>
<text xml:space="preserve" text-anchor="middle" x="1140.79" y="-1394.25" font-family="Times,serif" font-size="14.00">4</text>
</g>
<!-- 12&#45;&gt;3 -->
<g id="edge42" class="edge">
<title>12&#45;&gt;3</title>
<path fill="none" stroke="black" d="M1251.69,-1460.82C1265.02,-1484.2 1292.7,-1527.1 1328,-1550.8 1468.02,-1644.82 1561.56,-1551.14 1692,-1658.05 1733.36,-1691.95 1705.62,-1731.94 1748,-1764.55 1780.94,-1789.89 1828.94,-1797.46 1862.36,-1799.44"/>
<polygon fill="black" stroke="black" points="1861.87,-1802.92 1872.01,-1799.86 1862.17,-1795.93 1861.87,-1802.92"/>
<text xml:space="preserve" text-anchor="middle" x="1671.62" y="-1617.38" font-family="Times,serif" font-size="14.00">2</text>
</g>
<!-- 12&#45;&gt;4 -->
<g id="edge98" class="edge">
<title>12&#45;&gt;4</title>
<path fill="none" stroke="black" d="M1245.73,-1425.48C1255.2,-1366.35 1286.66,-1169.91 1298.47,-1096.16"/>
<polygon fill="black" stroke="black" points="1301.89,-1096.95 1300.01,-1086.52 1294.97,-1095.84 1301.89,-1096.95"/>
<text xml:space="preserve" text-anchor="middle" x="1281.72" y="-1250.53" font-family="Times,serif" font-size="14.00">3</text>
</g>
<!-- 12&#45;&gt;12 -->
<g id="edge117" class="edge">
<title>12&#45;&gt;12</title>
<path fill="none" stroke="black" d="M1267.53,-1451.79C1278.51,-1452.57 1288,-1449.83 1288,-1443.55 1288,-1439.63 1284.29,-1437.09 1278.83,-1435.92"/>
<polygon fill="black" stroke="black" points="1279.22,-1432.44 1269.04,-1435.4 1278.84,-1439.43 1279.22,-1432.44"/>
<text xml:space="preserve" text-anchor="middle" x="1292.5" y="-1438.88" font-family="Times,serif" font-size="14.00">0</text>
</g>
<!-- 12&#45;&gt;21 -->
<g id="edge56" class="edge">
<title>12&#45;&gt;21</title>
<path fill="none" stroke="black" d="M1269.8,-1439.59C1328.84,-1431.59 1470.7,-1404.02 1544,-1318.3 1578.63,-1277.81 1572,-1255.01 1572,-1201.73 1572,-1201.73 1572,-1201.73 1572,-1065.85 1572,-1029.84 1609.28,-1005.28 1638.31,-991.61"/>
<polygon fill="black" stroke="black" points="1639.45,-994.93 1647.17,-987.68 1636.61,-988.53 1639.45,-994.93"/>
<text xml:space="preserve" text-anchor="middle" x="1576.54" y="-1196.05" font-family="Times,serif" font-size="14.00">1</text>
</g>
<!-- 13&#45;&gt;5 -->
<g id="edge57" class="edge">
<title>13&#45;&gt;5</title>
<path fill="none" stroke="black" d="M1482.85,-219.28C1564.87,-225.69 1807.52,-245.17 1823,-252.2 2050.36,-355.55 2048.38,-468.23 2231,-638.6 2286.17,-690.07 2356,-678.02 2356,-753.48 2356,-933.98 2356,-933.98 2356,-933.98 2356,-1101.19 2390,-1141.46 2390,-1308.68 2390,-1980.05 2390,-1980.05 2390,-1980.05 2390,-2003.28 2401.19,-2027.15 2411.88,-2044.64"/>
<polygon fill="black" stroke="black" points="2408.84,-2046.38 2417.21,-2052.88 2414.72,-2042.58 2408.84,-2046.38"/>
<text xml:space="preserve" text-anchor="middle" x="2385.6" y="-1151.43" font-family="Times,serif" font-size="14.00">4</text>
</g>
<!-- 13&#45;&gt;23 -->
<g id="edge76" class="edge">
<title>13&#45;&gt;23</title>
<path fill="none" stroke="black" d="M1436.09,-203.71C1387.39,-176.18 1257.58,-106.33 1140,-73.7 1022.1,-40.99 876.57,-32.13 808.1,-29.74"/>
<polygon fill="black" stroke="black" points="808.63,-26.25 798.52,-29.43 808.41,-33.25 808.63,-26.25"/>
<text xml:space="preserve" text-anchor="middle" x="1324.23" y="-122.28" font-family="Times,serif" font-size="14.00">2</text>
</g>
<!-- 13&#45;&gt;24 -->
<g id="edge149" class="edge">
<title>13&#45;&gt;24</title>
<path fill="none" stroke="black" d="M1432.53,-225.59C1377.46,-245.48 1235.87,-297.69 1121,-349.45 926.51,-437.08 700.76,-558.85 620.34,-602.88"/>
<polygon fill="black" stroke="black" points="618.82,-599.73 611.73,-607.6 622.18,-605.86 618.82,-599.73"/>
<text xml:space="preserve" text-anchor="middle" x="1047.6" y="-407.88" font-family="Times,serif" font-size="14.00">3</text>
</g>
<!-- 13&#45;&gt;29 -->
<g id="edge26" class="edge">
<title>13&#45;&gt;29</title>
<path fill="none" stroke="black" d="M1482.95,-219.61C1524.26,-223.24 1605.72,-230.1 1675,-234.2 2033.98,-255.45 2178.65,-173.91 2470,-384.7 2569.3,-456.54 2602.41,-485.63 2639,-602.6 2682.71,-742.35 2632,-785.55 2632,-931.98 2632,-2073.3 2632,-2073.3 2632,-2073.3 2632,-2097.19 2622.22,-2122.17 2612.34,-2141.32"/>
<polygon fill="black" stroke="black" points="2609.33,-2139.53 2607.62,-2149.99 2615.47,-2142.88 2609.33,-2139.53"/>
<text xml:space="preserve" text-anchor="middle" x="2636.5" y="-1196.05" font-family="Times,serif" font-size="14.00">1</text>
</g>
<!-- 13&#45;&gt;29 -->
<g id="edge53" class="edge">
<title>13&#45;&gt;29</title>
<path fill="none" stroke="black" d="M1482.95,-219.69C1524.24,-223.42 1605.7,-230.41 1675,-234.2 1800.43,-241.06 2115.94,-232.48 2240,-252.2 2295.32,-261 2309.77,-264.8 2361,-287.45 2495.26,-346.8 2543.45,-367.8 2619,-493.65 2719.95,-661.8 2670,-735.85 2670,-931.98 2670,-2073.3 2670,-2073.3 2670,-2073.3 2670,-2105.45 2644.97,-2133.62 2623.27,-2152"/>
<polygon fill="black" stroke="black" points="2621.32,-2149.07 2615.74,-2158.08 2625.72,-2154.52 2621.32,-2149.07"/>
<text xml:space="preserve" text-anchor="middle" x="2674.5" y="-1196.05" font-family="Times,serif" font-size="14.00">0</text>
</g>
<!-- 14&#45;&gt;2 -->
<g id="edge97" class="edge">
<title>14&#45;&gt;2</title>
<path fill="none" stroke="black" d="M664.06,-906.59C656.99,-951.31 641.04,-1074.47 661,-1174.1 699.98,-1368.64 727.58,-1417.97 833,-1586.05 835.57,-1590.15 838.63,-1594.24 841.8,-1598.1"/>
<polygon fill="black" stroke="black" points="839.03,-1600.25 848.25,-1605.46 844.29,-1595.63 839.03,-1600.25"/>
<text xml:space="preserve" text-anchor="middle" x="689.97" y="-1250.53" font-family="Times,serif" font-size="14.00">0</text>
</g>
<!-- 14&#45;&gt;7 -->
<g id="edge82" class="edge">
<title>14&#45;&gt;7</title>
<path fill="none" stroke="black" d="M654.03,-872.61C646.19,-861.83 638.96,-847.07 646,-835.1 652.25,-824.48 663.02,-816.85 673.91,-811.48"/>
<polygon fill="black" stroke="black" points="675.06,-814.79 682.84,-807.61 672.28,-808.37 675.06,-814.79"/>
<text xml:space="preserve" text-anchor="middle" x="650.5" y="-839.05" font-family="Times,serif" font-size="14.00">4</text>
</g>
<!-- 14&#45;&gt;7 -->
<g id="edge112" class="edge">
<title>14&#45;&gt;7</title>
<path fill="none" stroke="black" d="M668.37,-870.14C669.75,-859.58 672.5,-846.03 678,-835.1 680.18,-830.78 683.02,-826.57 686.1,-822.66"/>
<polygon fill="black" stroke="black" points="688.59,-825.13 692.53,-815.29 683.32,-820.52 688.59,-825.13"/>
<text xml:space="preserve" text-anchor="middle" x="682.5" y="-839.05" font-family="Times,serif" font-size="14.00">1</text>
</g>
<!-- 14&#45;&gt;25 -->
<g id="edge8" class="edge">
<title>14&#45;&gt;25</title>
<path fill="none" stroke="black" d="M694.09,-885.96C754.06,-882.9 902.59,-875.47 1027,-870.35 1254.95,-860.97 1313.69,-881.23 1540,-852.35 1646.13,-838.81 1775,-907.1 1775,-800.1 1775,-800.1 1775,-800.1 1775,-664.23 1775,-557.01 1831.17,-542.14 1865,-440.4 1892.31,-358.28 1852.09,-311.64 1915,-252.2 1933.65,-234.58 2002.7,-224.92 2046.86,-220.42"/>
<polygon fill="black" stroke="black" points="2046.92,-223.93 2056.54,-219.48 2046.25,-216.96 2046.92,-223.93"/>
<text xml:space="preserve" text-anchor="middle" x="1801.95" y="-571.3" font-family="Times,serif" font-size="14.00">3</text>
</g>
<!-- 14&#45;&gt;28 -->
<g id="edge103" class="edge">
<title>14&#45;&gt;28</title>
<path fill="none" stroke="black" d="M667.61,-906.66C669.75,-947.03 679.43,-1049.38 723,-1120.1 758.24,-1177.29 827.74,-1217.8 870.22,-1238.47"/>
<polygon fill="black" stroke="black" points="868.5,-1241.53 879.03,-1242.65 871.5,-1235.2 868.5,-1241.53"/>
<text xml:space="preserve" text-anchor="middle" x="709.39" y="-1062.18" font-family="Times,serif" font-size="14.00">2</text>
</g>
<!-- 15 -->
<g id="node17" class="node">
<title>15</title>
<ellipse fill="none" stroke="black" cx="2085" cy="-126.95" rx="27" ry="18"/>
<text xml:space="preserve" text-anchor="middle" x="2085" y="-122.28" font-family="Times,serif" font-size="14.00">15</text>
</g>
<!-- 15&#45;&gt;0 -->
<g id="edge49" class="edge">
<title>15&#45;&gt;0</title>
<path fill="none" stroke="black" d="M2057.66,-128.26C2000.29,-129.47 1869.97,-135.27 1837,-162.95 1715.02,-265.36 1813,-361.23 1813,-520.5 1813,-1256.2 1813,-1256.2 1813,-1256.2 1813,-1331.26 1555.45,-1308.76 1481,-1318.3 1458.32,-1321.21 1134.54,-1343.11 1021.56,-1350.71"/>
<polygon fill="black" stroke="black" points="1021.32,-1347.22 1011.58,-1351.38 1021.79,-1354.21 1021.32,-1347.22"/>
<text xml:space="preserve" text-anchor="middle" x="1817.5" y="-749.8" font-family="Times,serif" font-size="14.00">1</text>
</g>
<!-- 15&#45;&gt;11 -->
<g id="edge124" class="edge">
<title>15&#45;&gt;11</title>
<path fill="none" stroke="black" d="M2060.13,-119.35C1996.75,-102.54 1828.96,-58.02 1754.95,-38.39"/>
<polygon fill="black" stroke="black" points="1755.93,-35.03 1745.37,-35.85 1754.13,-41.79 1755.93,-35.03"/>
<text xml:space="preserve" text-anchor="middle" x="1950.05" y="-77.65" font-family="Times,serif" font-size="14.00">0</text>
</g>
<!-- 15&#45;&gt;17 -->
<g id="edge81" class="edge">
<title>15&#45;&gt;17</title>
<path fill="none" stroke="black" d="M2057.81,-127.75C1991.56,-127.76 1824.02,-131.04 1780,-162.95 1759.31,-177.95 1756,-189.65 1756,-215.2 1756,-359.08 1756,-359.08 1756,-359.08 1756,-498.99 1747.4,-534.02 1752,-673.85 1755.78,-788.76 1769,-817.01 1769,-931.98 1769,-1067.85 1769,-1067.85 1769,-1067.85 1769,-1135.08 1234.63,-1129.11 1168,-1138.1 1152.59,-1140.18 1135.75,-1143.44 1121.29,-1146.56"/>
<polygon fill="black" stroke="black" points="1120.76,-1143.09 1111.75,-1148.67 1122.27,-1149.92 1120.76,-1143.09"/>
<text xml:space="preserve" text-anchor="middle" x="1756.5" y="-660.55" font-family="Times,serif" font-size="14.00">3</text>
</g>
<!-- 15&#45;&gt;18 -->
<g id="edge34" class="edge">
<title>15&#45;&gt;18</title>
<path fill="none" stroke="black" d="M2095.92,-143.83C2104.65,-157.53 2116.18,-178.22 2121,-198.2 2127.59,-225.5 2125.32,-257.7 2122.17,-280.23"/>
<polygon fill="black" stroke="black" points="2118.75,-279.44 2120.67,-289.86 2125.67,-280.52 2118.75,-279.44"/>
<text xml:space="preserve" text-anchor="middle" x="2129.68" y="-211.53" font-family="Times,serif" font-size="14.00">2</text>
</g>
<!-- 15&#45;&gt;29 -->
<g id="edge140" class="edge">
<title>15&#45;&gt;29</title>
<path fill="none" stroke="black" d="M2112.21,-129.15C2213.36,-135.26 2569.27,-171.72 2715,-384.7 2920.46,-684.98 2792,-835.88 2792,-1199.73 2792,-2073.3 2792,-2073.3 2792,-2073.3 2792,-2144.46 2689.91,-2165.55 2631.61,-2171.79"/>
<polygon fill="black" stroke="black" points="2631.36,-2168.29 2621.74,-2172.73 2632.03,-2175.26 2631.36,-2168.29"/>
<text xml:space="preserve" text-anchor="middle" x="2797.68" y="-1151.43" font-family="Times,serif" font-size="14.00">4</text>
</g>
<!-- 16&#45;&gt;12 -->
<g id="edge102" class="edge">
<title>16&#45;&gt;12</title>
<path fill="none" stroke="black" d="M1347.44,-1518.37C1331.22,-1505.28 1307.59,-1486.37 1298,-1479.55 1289.78,-1473.71 1280.62,-1467.69 1272.16,-1462.33"/>
<polygon fill="black" stroke="black" points="1274.28,-1459.52 1263.95,-1457.19 1270.57,-1465.46 1274.28,-1459.52"/>
<text xml:space="preserve" text-anchor="middle" x="1323.48" y="-1483.5" font-family="Times,serif" font-size="14.00">2</text>
</g>
<!-- 16&#45;&gt;15 -->
<g id="edge119" class="edge">
<title>16&#45;&gt;15</title>
<path fill="none" stroke="black" d="M1390.88,-1529.86C1492.97,-1522.14 1851,-1491.69 1851,-1444.55 1851,-1444.55 1851,-1444.55 1851,-215.2 1851,-173.79 1981.3,-145.6 2047.44,-133.96"/>
<polygon fill="black" stroke="black" points="2047.86,-137.43 2057.12,-132.29 2046.67,-130.53 2047.86,-137.43"/>
<text xml:space="preserve" text-anchor="middle" x="1855.5" y="-839.05" font-family="Times,serif" font-size="14.00">4</text>
</g>
<!-- 16&#45;&gt;17 -->
<g id="edge58" class="edge">
<title>16&#45;&gt;17</title>
<path fill="none" stroke="black" d="M1356.26,-1515.41C1345.91,-1494.05 1326.47,-1455.85 1306,-1425.55 1240.57,-1328.72 1147.72,-1224.82 1106.33,-1179.92"/>
<polygon fill="black" stroke="black" points="1109.15,-1177.82 1099.79,-1172.86 1104.02,-1182.57 1109.15,-1177.82"/>
<text xml:space="preserve" text-anchor="middle" x="1271.5" y="-1349.63" font-family="Times,serif" font-size="14.00">1</text>
</g>
<!-- 16&#45;&gt;18 -->
<g id="edge7" class="edge">
<title>16&#45;&gt;18</title>
<path fill="none" stroke="black" d="M1391.18,-1531.37C1482.06,-1529.68 1774.7,-1522.34 1865,-1496.8 1913.25,-1483.16 1965,-1494.7 1965,-1444.55 1965,-1444.55 1965,-1444.55 1965,-1199.73 1965,-1042.22 1984.67,-645.37 2027,-493.65 2043.66,-433.95 2079.57,-370.31 2100.64,-335.98"/>
<polygon fill="black" stroke="black" points="2103.55,-337.93 2105.87,-327.59 2097.61,-334.23 2103.55,-337.93"/>
<text xml:space="preserve" text-anchor="middle" x="1979.26" y="-928.3" font-family="Times,serif" font-size="14.00">3</text>
</g>
<!-- 16&#45;&gt;28 -->
<g id="edge37" class="edge">
<title>16&#45;&gt;28</title>
<path fill="none" stroke="black" d="M1337.15,-1528.91C1264.52,-1519.72 1061.95,-1484.8 947,-1372.3 925.94,-1351.69 915.67,-1319.6 910.68,-1294.38"/>
<polygon fill="black" stroke="black" points="914.18,-1294.07 909,-1284.83 907.28,-1295.28 914.18,-1294.07"/>
<text xml:space="preserve" text-anchor="middle" x="990.12" y="-1394.25" font-family="Times,serif" font-size="14.00">0</text>
</g>
<!-- 17&#45;&gt;4 -->
<g id="edge59" class="edge">
<title>17&#45;&gt;4</title>
<path fill="none" stroke="black" d="M1111.56,-1151.92C1141.3,-1147.64 1190.38,-1138.33 1229,-1120.1 1240.56,-1114.65 1241.62,-1110.3 1252,-1102.85 1259.4,-1097.54 1267.5,-1091.91 1275.01,-1086.75"/>
<polygon fill="black" stroke="black" points="1276.92,-1089.68 1283.21,-1081.16 1272.97,-1083.9 1276.92,-1089.68"/>
<text xml:space="preserve" text-anchor="middle" x="1256.5" y="-1106.8" font-family="Times,serif" font-size="14.00">1</text>
</g>
<!-- 17&#45;&gt;6 -->
<g id="edge143" class="edge">
<title>17&#45;&gt;6</title>
<path fill="none" stroke="black" d="M1063.64,-1144.46C1053.31,-1138.45 1041.36,-1130.13 1033,-1120.1 1004.7,-1086.15 874,-799.68 874,-755.48 874,-755.48 874,-755.48 874,-466.03 874,-429.35 874.35,-418.45 860,-384.7 835.46,-326.98 787.53,-270.41 759.29,-240.05"/>
<polygon fill="black" stroke="black" points="762,-237.81 752.59,-232.95 756.91,-242.62 762,-237.81"/>
<text xml:space="preserve" text-anchor="middle" x="878.5" y="-705.18" font-family="Times,serif" font-size="14.00">0</text>
</g>
<!-- 17&#45;&gt;9 -->
<g id="edge69" class="edge">
<title>17&#45;&gt;9</title>
<path fill="none" stroke="black" d="M1092.64,-1138.67C1095.04,-1132.91 1097.45,-1126.33 1099,-1120.1 1125.98,-1011.76 1112.87,-981.22 1126,-870.35 1153.51,-638.01 1037.63,-515.95 1202,-349.45 1226.55,-324.58 1327.81,-315.26 1381.39,-312.03"/>
<polygon fill="black" stroke="black" points="1381.37,-315.53 1391.16,-311.48 1380.98,-308.54 1381.37,-315.53"/>
<text xml:space="preserve" text-anchor="middle" x="1134.24" y="-749.8" font-family="Times,serif" font-size="14.00">4</text>
</g>
<!-- 17&#45;&gt;9 -->
<g id="edge133" class="edge">
<title>17&#45;&gt;9</title>
<path fill="none" stroke="black" d="M1099.8,-1140.89C1105.27,-1134.92 1111.09,-1127.63 1115,-1120.1 1122.46,-1105.75 1120.93,-1100.73 1124,-1084.85 1183.96,-775.18 1094.77,-664.7 1240,-384.7 1249.47,-366.44 1252.62,-360.45 1270,-349.45 1304.38,-327.7 1350.73,-317.97 1381.68,-313.69"/>
<polygon fill="black" stroke="black" points="1381.74,-317.21 1391.23,-312.5 1380.87,-310.27 1381.74,-317.21"/>
<text xml:space="preserve" text-anchor="middle" x="1153.93" y="-749.8" font-family="Times,serif" font-size="14.00">3</text>
</g>
<!-- 17&#45;&gt;20 -->
<g id="edge35" class="edge">
<title>17&#45;&gt;20</title>
<path fill="none" stroke="black" d="M1077.61,-1138.61C1075.24,-1132.84 1072.77,-1126.27 1071,-1120.1 1002.07,-880.15 1026.32,-810.8 971,-567.35 960.68,-521.91 891.27,-197.49 860,-162.95 846.17,-147.68 824.92,-139.01 806.43,-134.13"/>
<polygon fill="black" stroke="black" points="807.37,-130.75 796.84,-131.89 805.78,-137.57 807.37,-130.75"/>
<text xml:space="preserve" text-anchor="middle" x="996.88" y="-660.55" font-family="Times,serif" font-size="14.00">2</text>
</g>
<!-- 18&#45;&gt;2 -->
<g id="edge63" class="edge">
<title>18&#45;&gt;2</title>
<path fill="none" stroke="black" d="M2113.14,-327.6C2093.23,-417.65 2003,-845.23 2003,-1199.73 2003,-1533.8 2003,-1533.8 2003,-1533.8 2003,-1562.04 1100.75,-1609.13 902.3,-1619.14"/>
<polygon fill="black" stroke="black" points="902.35,-1615.64 892.54,-1619.63 902.71,-1622.63 902.35,-1615.64"/>
<text xml:space="preserve" text-anchor="middle" x="2018.8" y="-972.93" font-family="Times,serif" font-size="14.00">1</text>
</g>
<!-- 18&#45;&gt;5 -->
<g id="edge21" class="edge">
<title>18&#45;&gt;5</title>
<path fill="none" stroke="black" d="M2144.3,-310.32C2219.4,-311.67 2427.83,-327.46 2493,-458.4 2551.54,-576.03 2511,-622.09 2511,-753.48 2511,-1980.05 2511,-1980.05 2511,-1980.05 2511,-2005.61 2503.39,-2012.7 2487,-2032.3 2479.5,-2041.27 2469.45,-2049.12 2459.95,-2055.39"/>
<polygon fill="black" stroke="black" points="2458.31,-2052.28 2451.65,-2060.52 2461.99,-2058.24 2458.31,-2052.28"/>
<text xml:space="preserve" text-anchor="middle" x="2515.5" y="-1196.05" font-family="Times,serif" font-size="14.00">3</text>
</g>
<!-- 18&#45;&gt;6 -->
<g id="edge47" class="edge">
<title>18&#45;&gt;6</title>
<path fill="none" stroke="black" d="M2089.93,-307.22C1994.99,-302.85 1668.36,-287.39 1399,-269.45 1161.62,-253.64 876.78,-229.37 775.24,-220.55"/>
<polygon fill="black" stroke="black" points="775.56,-217.06 765.29,-219.68 774.95,-224.04 775.56,-217.06"/>
<text xml:space="preserve" text-anchor="middle" x="1403.5" y="-256.15" font-family="Times,serif" font-size="14.00">0</text>
</g>
<!-- 18&#45;&gt;13 -->
<g id="edge95" class="edge">
<title>18&#45;&gt;13</title>
<path fill="none" stroke="black" d="M2092.75,-301.04C2051.53,-288.75 1964.95,-264.32 1890,-252.2 1788.34,-235.76 1761.64,-242.5 1659,-234.2 1601.57,-229.56 1535.02,-223.94 1494.22,-220.47"/>
<polygon fill="black" stroke="black" points="1494.69,-217 1484.43,-219.63 1494.1,-223.97 1494.69,-217"/>
<text xml:space="preserve" text-anchor="middle" x="1976.38" y="-256.15" font-family="Times,serif" font-size="14.00">2</text>
</g>
<!-- 18&#45;&gt;25 -->
<g id="edge14" class="edge">
<title>18&#45;&gt;25</title>
<path fill="none" stroke="black" d="M2111.13,-291.71C2106.51,-278.55 2099.98,-259.93 2094.61,-244.6"/>
<polygon fill="black" stroke="black" points="2098.05,-243.85 2091.44,-235.57 2091.45,-246.16 2098.05,-243.85"/>
<text xml:space="preserve" text-anchor="middle" x="2107.42" y="-256.15" font-family="Times,serif" font-size="14.00">4</text>
</g>
<!-- 19&#45;&gt;6 -->
<g id="edge136" class="edge">
<title>19&#45;&gt;6</title>
<path fill="none" stroke="black" d="M2183.24,-518.13C2053.63,-506.59 1495.87,-451.99 1055,-331.45 948.64,-302.37 827.03,-254.4 769.9,-230.96"/>
<polygon fill="black" stroke="black" points="771.34,-227.76 760.76,-227.19 768.67,-234.23 771.34,-227.76"/>
<text xml:space="preserve" text-anchor="middle" x="1189.74" y="-353.4" font-family="Times,serif" font-size="14.00">2</text>
</g>
<!-- 19&#45;&gt;10 -->
<g id="edge31" class="edge">
<title>19&#45;&gt;10</title>
<path fill="none" stroke="black" d="M2229.72,-542.78C2242.41,-557.98 2258.09,-579.99 2265,-602.6 2269.68,-617.9 2265.22,-622.6 2265,-638.6 2262.56,-812.92 2231.75,-859.34 2263,-1030.85 2277.05,-1107.99 2314,-1121.32 2314,-1199.73 2314,-1801.55 2314,-1801.55 2314,-1801.55 2314,-1870.06 1787.97,-1885.26 1640.2,-1888.18"/>
<polygon fill="black" stroke="black" points="1640.49,-1884.67 1630.56,-1888.36 1640.62,-1891.67 1640.49,-1884.67"/>
<text xml:space="preserve" text-anchor="middle" x="2318.5" y="-1196.05" font-family="Times,serif" font-size="14.00">1</text>
</g>
<!-- 19&#45;&gt;18 -->
<g id="edge65" class="edge">
<title>19&#45;&gt;18</title>
<path fill="none" stroke="black" d="M2212.1,-493.43C2212.25,-457.46 2207.81,-393.37 2178,-349.45 2170.99,-339.13 2160.25,-330.94 2149.72,-324.8"/>
<polygon fill="black" stroke="black" points="2151.62,-321.84 2141.15,-320.23 2148.33,-328.02 2151.62,-321.84"/>
<text xml:space="preserve" text-anchor="middle" x="2213.24" y="-407.88" font-family="Times,serif" font-size="14.00">3</text>
</g>
<!-- 19&#45;&gt;18 -->
<g id="edge151" class="edge">
<title>19&#45;&gt;18</title>
<path fill="none" stroke="black" d="M2199.85,-495.58C2182.07,-455.86 2147.46,-378.51 2129.1,-337.5"/>
<polygon fill="black" stroke="black" points="2132.39,-336.27 2125.11,-328.57 2126,-339.13 2132.39,-336.27"/>
<text xml:space="preserve" text-anchor="middle" x="2179.38" y="-407.88" font-family="Times,serif" font-size="14.00">0</text>
</g>
<!-- 19&#45;&gt;26 -->
<g id="edge91" class="edge">
<title>19&#45;&gt;26</title>
<path fill="none" stroke="black" d="M2185.69,-533.8C2117.22,-563.69 1921.9,-644.59 1750,-673.85 1553.24,-707.35 1051.12,-678.05 852,-691.85 816.05,-694.34 775.25,-699.42 746.46,-703.38"/>
<polygon fill="black" stroke="black" points="746.2,-699.88 736.78,-704.73 747.17,-706.81 746.2,-699.88"/>
<text xml:space="preserve" text-anchor="middle" x="2015.11" y="-615.93" font-family="Times,serif" font-size="14.00">4</text>
</g>
<!-- 20&#45;&gt;0 -->
<g id="edge80" class="edge">
<title>20&#45;&gt;0</title>
<path fill="none" stroke="black" d="M785.32,-141.62C799.38,-154.54 818.67,-175.31 827,-198.2 887.57,-364.73 823.92,-818.63 833,-995.6 837.08,-1075.19 839.37,-1095.12 850,-1174.1 856.56,-1222.82 841.62,-1242.23 869,-1283.05 887.92,-1311.26 922.39,-1330.16 948.48,-1341.18"/>
<polygon fill="black" stroke="black" points="947.1,-1344.39 957.68,-1344.86 949.7,-1337.9 947.1,-1344.39"/>
<text xml:space="preserve" text-anchor="middle" x="845.4" y="-749.8" font-family="Times,serif" font-size="14.00">2</text>
</g>
<!-- 20&#45;&gt;6 -->
<g id="edge54" class="edge">
<title>20&#45;&gt;6</title>
<path fill="none" stroke="black" d="M762.85,-144.72C758.38,-156.9 752.24,-173.65 747.06,-187.76"/>
<polygon fill="black" stroke="black" points="743.85,-186.36 743.69,-196.96 750.42,-188.77 743.85,-186.36"/>
<text xml:space="preserve" text-anchor="middle" x="760.37" y="-166.9" font-family="Times,serif" font-size="14.00">0</text>
</g>
<!-- 20&#45;&gt;17 -->
<g id="edge142" class="edge">
<title>20&#45;&gt;17</title>
<path fill="none" stroke="black" d="M795.97,-129.89C840.98,-133.63 928.8,-143.3 952,-162.95 1061.57,-255.78 1064,-322.42 1064,-466.03 1064,-844.73 1064,-844.73 1064,-844.73 1064,-948.91 1075.92,-1072.32 1081.8,-1126.82"/>
<polygon fill="black" stroke="black" points="1078.29,-1126.91 1082.86,-1136.47 1085.25,-1126.14 1078.29,-1126.91"/>
<text xml:space="preserve" text-anchor="middle" x="1068.5" y="-660.55" font-family="Times,serif" font-size="14.00">3</text>
</g>
<!-- 20&#45;&gt;23 -->
<g id="edge48" class="edge">
<title>20&#45;&gt;23</title>
<path fill="none" stroke="black" d="M769,-108.59C769,-97.06 769,-81.45 769,-67.1"/>
<polygon fill="black" stroke="black" points="772.5,-67.47 769,-57.47 765.5,-67.47 772.5,-67.47"/>
<text xml:space="preserve" text-anchor="middle" x="773.5" y="-77.65" font-family="Times,serif" font-size="14.00">4</text>
</g>
<!-- 20&#45;&gt;26 -->
<g id="edge45" class="edge">
<title>20&#45;&gt;26</title>
<path fill="none" stroke="black" d="M742.97,-132.59C703.74,-141.24 634,-163.85 634,-215.2 634,-468.03 634,-468.03 634,-468.03 634,-549.17 673.29,-639.02 695,-682.46"/>
<polygon fill="black" stroke="black" points="691.75,-683.8 699.41,-691.12 697.99,-680.62 691.75,-683.8"/>
<text xml:space="preserve" text-anchor="middle" x="638.5" y="-407.88" font-family="Times,serif" font-size="14.00">1</text>
</g>
<!-- 21&#45;&gt;0 -->
<g id="edge50" class="edge">
<title>21&#45;&gt;0</title>
<path fill="none" stroke="black" d="M1644.88,-980.5C1619.56,-983.62 1582.15,-991.85 1558,-1013.6 1525.96,-1042.45 1533.82,-1062.01 1520,-1102.85 1520,-1102.85 1465,-1318.3 1465,-1318.3 1462.87,-1320.08 1135.22,-1342.81 1021.41,-1350.66"/>
<polygon fill="black" stroke="black" points="1021.4,-1347.15 1011.67,-1351.33 1021.88,-1354.14 1021.4,-1347.15"/>
<text xml:space="preserve" text-anchor="middle" x="1515.35" y="-1151.43" font-family="Times,serif" font-size="14.00">2</text>
</g>
<!-- 21&#45;&gt;14 -->
<g id="edge32" class="edge">
<title>21&#45;&gt;14</title>
<path fill="none" stroke="black" d="M1648.47,-968.46C1612.33,-956.36 1540.74,-934.03 1478,-924.35 1401.3,-912.52 856.1,-895.13 705.47,-890.51"/>
<polygon fill="black" stroke="black" points="705.74,-887.02 695.63,-890.21 705.52,-894.02 705.74,-887.02"/>
<text xml:space="preserve" text-anchor="middle" x="1558.04" y="-928.3" font-family="Times,serif" font-size="14.00">3</text>
</g>
<!-- 21&#45;&gt;21 -->
<g id="edge92" class="edge">
<title>21&#45;&gt;21</title>
<path fill="none" stroke="black" d="M1696.53,-985.84C1707.51,-986.62 1717,-983.88 1717,-977.6 1717,-973.68 1713.29,-971.14 1707.83,-969.97"/>
<polygon fill="black" stroke="black" points="1708.22,-966.49 1698.04,-969.45 1707.84,-973.48 1708.22,-966.49"/>
<text xml:space="preserve" text-anchor="middle" x="1721.5" y="-972.93" font-family="Times,serif" font-size="14.00">0</text>
</g>
<!-- 21&#45;&gt;25 -->
<g id="edge131" class="edge">
<title>21&#45;&gt;25</title>
<path fill="none" stroke="black" d="M1699.35,-975.71C1781.2,-972.83 2023.23,-962.72 2099,-941.6 2149.21,-927.61 2204,-941.48 2204,-889.35 2204,-889.35 2204,-889.35 2204,-753.48 2204,-647.07 2267,-628.91 2267,-522.5 2267,-522.5 2267,-522.5 2267,-308.45 2267,-234.06 2183.19,-268.15 2117,-234.2 2116.54,-233.96 2116.07,-233.72 2115.6,-233.48"/>
<polygon fill="black" stroke="black" points="2117.44,-230.49 2106.95,-228.96 2114.19,-236.7 2117.44,-230.49"/>
<text xml:space="preserve" text-anchor="middle" x="2256.42" y="-615.93" font-family="Times,serif" font-size="14.00">4</text>
</g>
<!-- 21&#45;&gt;26 -->
<g id="edge51" class="edge">
<title>21&#45;&gt;26</title>
<path fill="none" stroke="black" d="M1658.51,-961.5C1637.96,-939.2 1596.77,-897.21 1555,-870.35 1437.02,-794.5 1401.74,-777.08 1265,-745.85 1175.44,-725.4 943.56,-735.28 852,-727.85 816.19,-724.95 775.52,-719.95 746.74,-716.12"/>
<polygon fill="black" stroke="black" points="747.44,-712.68 737.06,-714.81 746.5,-719.62 747.44,-712.68"/>
<text xml:space="preserve" text-anchor="middle" x="1531.22" y="-839.05" font-family="Times,serif" font-size="14.00">1</text>
</g>
<!-- 22 -->
<g id="node24" class="node">
<title>22</title>
<ellipse fill="none" stroke="black" cx="1330" cy="-521.5" rx="27" ry="18"/>
<text xml:space="preserve" text-anchor="middle" x="1330" y="-516.83" font-family="Times,serif" font-size="14.00">22</text>
</g>
<!-- 22&#45;&gt;4 -->
<g id="edge134" class="edge">
<title>22&#45;&gt;4</title>
<path fill="none" stroke="black" d="M1330.1,-539.81C1330.53,-623.3 1331.66,-982.36 1320,-1030.85 1319.32,-1033.67 1318.4,-1036.52 1317.32,-1039.32"/>
<polygon fill="black" stroke="black" points="1314.2,-1037.73 1313.29,-1048.29 1320.58,-1040.61 1314.2,-1037.73"/>
<text xml:space="preserve" text-anchor="middle" x="1334.24" y="-794.43" font-family="Times,serif" font-size="14.00">4</text>
</g>
<!-- 22&#45;&gt;10 -->
<g id="edge72" class="edge">
<title>22&#45;&gt;10</title>
<path fill="none" stroke="black" d="M1346.83,-535.85C1373.63,-558.02 1425.85,-605.14 1454,-656.6 1497.15,-735.48 1479.83,-766.04 1505,-852.35 1537.76,-964.68 1564.65,-987.81 1586,-1102.85 1609.96,-1231.99 1602,-1266.59 1602,-1397.93 1602,-1801.55 1602,-1801.55 1602,-1801.55 1602,-1821.06 1602,-1843.01 1602,-1860.02"/>
<polygon fill="black" stroke="black" points="1598.5,-1859.91 1602,-1869.91 1605.5,-1859.91 1598.5,-1859.91"/>
<text xml:space="preserve" text-anchor="middle" x="1605.4" y="-1196.05" font-family="Times,serif" font-size="14.00">2</text>
</g>
<!-- 22&#45;&gt;20 -->
<g id="edge107" class="edge">
<title>22&#45;&gt;20</title>
<path fill="none" stroke="black" d="M1313.97,-506.68C1279.06,-476.29 1194.02,-400.84 1129,-331.45 1062.62,-260.61 1074.29,-211.11 990,-162.95 959.52,-145.54 861.92,-135.27 807.17,-130.73"/>
<polygon fill="black" stroke="black" points="807.61,-127.26 797.36,-129.95 807.05,-134.23 807.61,-127.26"/>
<text xml:space="preserve" text-anchor="middle" x="1133.5" y="-304.78" font-family="Times,serif" font-size="14.00">0</text>
</g>
<!-- 27 -->
<g id="node29" class="node">
<title>27</title>
<ellipse fill="none" stroke="black" cx="1662" cy="-412.55" rx="23.85" ry="23.85"/>
<ellipse fill="none" stroke="black" cx="1662" cy="-412.55" rx="27.85" ry="27.85"/>
<text xml:space="preserve" text-anchor="middle" x="1662" y="-407.88" font-family="Times,serif" font-size="14.00">27</text>
</g>
<!-- 22&#45;&gt;27 -->
<g id="edge144" class="edge">
<title>22&#45;&gt;27</title>
<path fill="none" stroke="black" d="M1354.14,-512.72C1411.53,-494.24 1556.41,-447.57 1624.96,-425.48"/>
<polygon fill="black" stroke="black" points="1625.78,-428.9 1634.23,-422.5 1623.64,-422.23 1625.78,-428.9"/>
<text xml:space="preserve" text-anchor="middle" x="1520.38" y="-462.35" font-family="Times,serif" font-size="14.00">3</text>
</g>
<!-- 22&#45;&gt;28 -->
<g id="edge138" class="edge">
<title>22&#45;&gt;28</title>
<path fill="none" stroke="black" d="M1335.38,-539.42C1337.91,-547.78 1340.84,-558.03 1343,-567.35 1389.73,-769.07 1470.45,-840.06 1390,-1030.85 1333.68,-1164.43 1257.88,-1175.16 1117,-1209.35 1108.62,-1211.39 1003.04,-1233.72 944.49,-1246.08"/>
<polygon fill="black" stroke="black" points="943.99,-1242.61 934.93,-1248.1 945.44,-1249.46 943.99,-1242.61"/>
<text xml:space="preserve" text-anchor="middle" x="1428.67" y="-883.68" font-family="Times,serif" font-size="14.00">1</text>
</g>
<!-- 23&#45;&gt;0 -->
<g id="edge25" class="edge">
<title>23&#45;&gt;0</title>
<path fill="none" stroke="black" d="M794.96,-38.34C846.88,-58.77 963.3,-112.17 1019,-198.2 1083.71,-298.16 1026,-346.95 1026,-466.03 1026,-621.6 1026,-621.6 1026,-621.6 1026,-812.16 999.42,-858.52 990,-1048.85 984.08,-1168.47 992.01,-1198.68 986,-1318.3 985.9,-1320.36 985.77,-1322.48 985.62,-1324.62"/>
<polygon fill="black" stroke="black" points="982.15,-1324.12 984.86,-1334.36 989.13,-1324.67 982.15,-1324.12"/>
<text xml:space="preserve" text-anchor="middle" x="1029.13" y="-705.18" font-family="Times,serif" font-size="14.00">0</text>
</g>
<!-- 23&#45;&gt;0 -->
<g id="edge33" class="edge">
<title>23&#45;&gt;0</title>
<path fill="none" stroke="black" d="M740.83,-30.84C657.33,-37.25 413.23,-59.88 353,-108.95 308.62,-145.11 315.27,-177.48 323,-234.2 383.92,-681.32 483.47,-782.1 707,-1174.1 747.06,-1244.36 746.45,-1280.59 818,-1318.3 858.03,-1339.4 909.86,-1347.78 944.65,-1351.11"/>
<polygon fill="black" stroke="black" points="943.99,-1354.57 954.25,-1351.93 944.58,-1347.59 943.99,-1354.57"/>
<text xml:space="preserve" text-anchor="middle" x="459.8" y="-705.18" font-family="Times,serif" font-size="14.00">4</text>
</g>
<!-- 23&#45;&gt;4 -->
<g id="edge60" class="edge">
<title>23&#45;&gt;4</title>
<path fill="none" stroke="black" d="M797.19,-29.46C863.26,-31.46 1025.55,-39.77 1066,-73.7 1142.81,-138.12 1111.56,-190.76 1138,-287.45 1178.59,-435.92 1273.55,-915.75 1297.46,-1037.54"/>
<polygon fill="black" stroke="black" points="1294.01,-1038.17 1299.37,-1047.31 1300.88,-1036.82 1294.01,-1038.17"/>
<text xml:space="preserve" text-anchor="middle" x="1209.92" y="-571.3" font-family="Times,serif" font-size="14.00">1</text>
</g>
<!-- 23&#45;&gt;8 -->
<g id="edge29" class="edge">
<title>23&#45;&gt;8</title>
<path fill="none" stroke="black" d="M740.77,-28.41C661.56,-27.79 430.95,-30.16 246,-73.7 184.58,-88.16 114,-62.86 114,-125.95 114,-1489.18 114,-1489.18 114,-1489.18 114,-1574.23 164.7,-1582.63 204,-1658.05 260.47,-1766.42 326.02,-1896.43 353.64,-1951.41"/>
<polygon fill="black" stroke="black" points="350.5,-1952.96 358.12,-1960.33 356.76,-1949.82 350.5,-1952.96"/>
<text xml:space="preserve" text-anchor="middle" x="118.5" y="-1017.55" font-family="Times,serif" font-size="14.00">2</text>
</g>
<!-- 23&#45;&gt;8 -->
<g id="edge36" class="edge">
<title>23&#45;&gt;8</title>
<path fill="none" stroke="black" d="M740.72,-29.39C601.98,-32.38 0,-49.75 0,-125.95 0,-666.23 0,-666.23 0,-666.23 0,-746.47 38,-762.48 38,-842.73 38,-1489.18 38,-1489.18 38,-1489.18 38,-1600 273.63,-1873.38 346.07,-1954.81"/>
<polygon fill="black" stroke="black" points="343.42,-1957.09 352.69,-1962.22 348.64,-1952.43 343.42,-1957.09"/>
<text xml:space="preserve" text-anchor="middle" x="42.5" y="-1017.55" font-family="Times,serif" font-size="14.00">3</text>
</g>
<!-- 24&#45;&gt;5 -->
<g id="edge85" class="edge">
<title>24&#45;&gt;5</title>
<path fill="none" stroke="black" d="M563.07,-623.47C529.36,-626.66 470.52,-635.05 425,-656.6 267.46,-731.2 221.19,-791.26 176,-959.6 118.17,-1175.07 162.84,-1239.12 180,-1461.55 183.94,-1512.65 190,-1525.18 190,-1576.43 190,-1846.18 190,-1846.18 190,-1846.18 190,-2089.56 462.03,-2018.13 705,-2032.3 1386.18,-2072.05 2220.78,-2071.95 2397.25,-2071.44"/>
<polygon fill="black" stroke="black" points="2397.09,-2074.94 2407.08,-2071.4 2397.07,-2067.94 2397.09,-2074.94"/>
<text xml:space="preserve" text-anchor="middle" x="175.44" y="-1349.63" font-family="Times,serif" font-size="14.00">2</text>
</g>
<!-- 24&#45;&gt;19 -->
<g id="edge5" class="edge">
<title>24&#45;&gt;19</title>
<path fill="none" stroke="black" d="M617.35,-619.25C773.64,-617.18 1555.26,-605.9 1795,-584.6 1934.81,-572.18 2099.2,-543.4 2172.43,-529.83"/>
<polygon fill="black" stroke="black" points="2172.71,-533.34 2181.9,-528.07 2171.43,-526.46 2172.71,-533.34"/>
<text xml:space="preserve" text-anchor="middle" x="1937.32" y="-571.3" font-family="Times,serif" font-size="14.00">0</text>
</g>
<!-- 24&#45;&gt;20 -->
<g id="edge106" class="edge">
<title>24&#45;&gt;20</title>
<path fill="none" stroke="black" d="M589.43,-602.41C588.84,-583.01 588,-550.49 588,-522.5 588,-522.5 588,-522.5 588,-215.2 588,-152.45 677.38,-134.8 730.52,-129.86"/>
<polygon fill="black" stroke="black" points="730.71,-133.36 740.39,-129.06 730.14,-126.38 730.71,-133.36"/>
<text xml:space="preserve" text-anchor="middle" x="592.5" y="-353.4" font-family="Times,serif" font-size="14.00">4</text>
</g>
<!-- 24&#45;&gt;22 -->
<g id="edge150" class="edge">
<title>24&#45;&gt;22</title>
<path fill="none" stroke="black" d="M616.34,-616.15C727.82,-601.52 1161.13,-544.66 1292.22,-527.46"/>
<polygon fill="black" stroke="black" points="1292.63,-530.93 1302.09,-526.16 1291.72,-523.99 1292.63,-530.93"/>
<text xml:space="preserve" text-anchor="middle" x="986.69" y="-571.3" font-family="Times,serif" font-size="14.00">3</text>
</g>
<!-- 24&#45;&gt;23 -->
<g id="edge3" class="edge">
<title>24&#45;&gt;23</title>
<path fill="none" stroke="black" d="M577.11,-604.75C517.79,-535.58 276.53,-245.04 337,-162.95 384.73,-98.16 632.92,-51.16 730.01,-34.99"/>
<polygon fill="black" stroke="black" points="730.55,-38.45 739.85,-33.38 729.42,-31.54 730.55,-38.45"/>
<text xml:space="preserve" text-anchor="middle" x="380.16" y="-304.78" font-family="Times,serif" font-size="14.00">1</text>
</g>
<!-- 25&#45;&gt;2 -->
<g id="edge125" class="edge">
<title>25&#45;&gt;2</title>
<path fill="none" stroke="black" d="M2104.45,-229.09C2108.48,-231.1 2112.78,-232.94 2117,-234.2 2212.57,-262.74 2306.57,-191.85 2335,-287.45 2450.82,-676.9 2276,-793.42 2276,-1199.73 2276,-1533.8 2276,-1533.8 2276,-1533.8 2276,-1635.36 1923.35,-1579.66 1822,-1586.05 1820.54,-1586.14 1081.9,-1613.1 902.78,-1619.64"/>
<polygon fill="black" stroke="black" points="902.71,-1616.14 892.85,-1620 902.97,-1623.13 902.71,-1616.14"/>
<text xml:space="preserve" text-anchor="middle" x="2309.11" y="-928.3" font-family="Times,serif" font-size="14.00">2</text>
</g>
<!-- 25&#45;&gt;10 -->
<g id="edge83" class="edge">
<title>25&#45;&gt;10</title>
<path fill="none" stroke="black" d="M2104.44,-229.12C2108.47,-231.13 2112.77,-232.96 2117,-234.2 2163.86,-247.94 2295.13,-225.47 2336,-252.2 2490.92,-353.53 2397,-479.11 2397,-664.23 2397,-933.98 2397,-933.98 2397,-933.98 2397,-1041.23 2386.61,-1067.71 2373,-1174.1 2365.32,-1234.15 2352,-1248.14 2352,-1308.68 2352,-1801.55 2352,-1801.55 2352,-1801.55 2352,-1860.95 2287.14,-1841.68 2229,-1853.8 2115.63,-1877.44 1758.6,-1885.95 1640.41,-1888.16"/>
<polygon fill="black" stroke="black" points="1640.55,-1884.66 1630.61,-1888.34 1640.68,-1891.66 1640.55,-1884.66"/>
<text xml:space="preserve" text-anchor="middle" x="2395.2" y="-1062.18" font-family="Times,serif" font-size="14.00">1</text>
</g>
<!-- 25&#45;&gt;12 -->
<g id="edge135" class="edge">
<title>25&#45;&gt;12</title>
<path fill="none" stroke="black" d="M2073.89,-232.8C2037.93,-284.9 1927,-458.61 1927,-619.6 1927,-1355.3 1927,-1355.3 1927,-1355.3 1927,-1420.87 1426.02,-1438.11 1281.55,-1441.72"/>
<polygon fill="black" stroke="black" points="1281.66,-1438.22 1271.75,-1441.96 1281.83,-1445.22 1281.66,-1438.22"/>
<text xml:space="preserve" text-anchor="middle" x="1931.5" y="-839.05" font-family="Times,serif" font-size="14.00">4</text>
</g>
<!-- 25&#45;&gt;15 -->
<g id="edge15" class="edge">
<title>25&#45;&gt;15</title>
<path fill="none" stroke="black" d="M2085,-197.96C2085,-186.13 2085,-170.15 2085,-156.45"/>
<polygon fill="black" stroke="black" points="2088.5,-156.67 2085,-146.67 2081.5,-156.67 2088.5,-156.67"/>
<text xml:space="preserve" text-anchor="middle" x="2089.5" y="-166.9" font-family="Times,serif" font-size="14.00">3</text>
</g>
<!-- 25&#45;&gt;28 -->
<g id="edge109" class="edge">
<title>25&#45;&gt;28</title>
<path fill="none" stroke="black" d="M2058.35,-220.48C2036.9,-224.47 2007.39,-233.22 1989,-252.2 1857.88,-387.54 1889,-475.79 1889,-664.23 1889,-1157.1 1889,-1157.1 1889,-1157.1 1889,-1277.58 1742.72,-1195.86 1623,-1209.35 1362.31,-1238.73 1293.48,-1196.1 1033,-1227.35 1002.73,-1230.98 968.99,-1238.28 943.89,-1244.34"/>
<polygon fill="black" stroke="black" points="943.36,-1240.87 934.49,-1246.67 945.03,-1247.67 943.36,-1240.87"/>
<text xml:space="preserve" text-anchor="middle" x="1893.5" y="-749.8" font-family="Times,serif" font-size="14.00">0</text>
</g>
<!-- 26&#45;&gt;4 -->
<g id="edge10" class="edge">
<title>26&#45;&gt;4</title>
<path fill="none" stroke="black" d="M731.81,-719.83C748.03,-726.46 770.2,-736.01 789,-745.85 801.95,-752.63 804.31,-755.85 817,-763.1 950.12,-839.19 992.92,-841.6 1122,-924.35 1143.68,-938.25 1147.86,-943.55 1168,-959.6 1206.82,-990.54 1214.67,-1000.57 1254,-1030.85 1260.83,-1036.11 1268.35,-1041.62 1275.4,-1046.66"/>
<polygon fill="black" stroke="black" points="1273.2,-1049.39 1283.39,-1052.32 1277.25,-1043.68 1273.2,-1049.39"/>
<text xml:space="preserve" text-anchor="middle" x="1096.27" y="-883.68" font-family="Times,serif" font-size="14.00">0</text>
</g>
<!-- 26&#45;&gt;4 -->
<g id="edge121" class="edge">
<title>26&#45;&gt;4</title>
<path fill="none" stroke="black" d="M735.03,-715.67C763.51,-721.33 810.27,-731.77 849,-745.85 967.9,-789.09 1000.27,-799.37 1105,-870.35 1153.76,-903.41 1160.97,-918.32 1203,-959.6 1231.28,-987.37 1262.34,-1020.88 1282.22,-1042.74"/>
<polygon fill="black" stroke="black" points="1279.44,-1044.89 1288.75,-1049.95 1284.63,-1040.19 1279.44,-1044.89"/>
<text xml:space="preserve" text-anchor="middle" x="1154.9" y="-883.68" font-family="Times,serif" font-size="14.00">1</text>
</g>
<!-- 26&#45;&gt;17 -->
<g id="edge94" class="edge">
<title>26&#45;&gt;17</title>
<path fill="none" stroke="black" d="M720.49,-726.11C741.68,-754.34 788.21,-816.73 826,-870.35 903.21,-979.91 890.23,-1036.52 995,-1120.1 1010.59,-1132.54 1031.12,-1140.97 1048.64,-1146.44"/>
<polygon fill="black" stroke="black" points="1047.6,-1149.78 1058.18,-1149.2 1049.54,-1143.06 1047.6,-1149.78"/>
<text xml:space="preserve" text-anchor="middle" x="873.12" y="-928.3" font-family="Times,serif" font-size="14.00">3</text>
</g>
<!-- 26&#45;&gt;24 -->
<g id="edge114" class="edge">
<title>26&#45;&gt;24</title>
<path fill="none" stroke="black" d="M691.21,-695.91C682.15,-689.31 670.98,-681.17 661,-673.85 646.3,-663.08 629.91,-651.02 616.58,-641.21"/>
<polygon fill="black" stroke="black" points="618.84,-638.52 608.71,-635.4 614.68,-644.16 618.84,-638.52"/>
<text xml:space="preserve" text-anchor="middle" x="665.5" y="-660.55" font-family="Times,serif" font-size="14.00">2</text>
</g>
<!-- 26&#45;&gt;29 -->
<g id="edge9" class="edge">
<title>26&#45;&gt;29</title>
<path fill="none" stroke="black" d="M686.91,-720.64C619.66,-751.81 417.32,-856.03 339,-1013.6 260.59,-1171.37 319.68,-1233.11 295,-1407.55 284.33,-1482.96 266,-1500.27 266,-1576.43 266,-1756.93 266,-1756.93 266,-1756.93 266,-1837.17 228,-1853.19 228,-1933.43 228,-2073.3 228,-2073.3 228,-2073.3 228,-2222.52 410.46,-2115.37 559,-2129.55 966.8,-2168.49 2305.98,-2173.69 2552.73,-2174.32"/>
<polygon fill="black" stroke="black" points="2552.45,-2177.82 2562.45,-2174.34 2552.46,-2170.82 2552.45,-2177.82"/>
<text xml:space="preserve" text-anchor="middle" x="296.55" y="-1438.88" font-family="Times,serif" font-size="14.00">4</text>
</g>
<!-- 27&#45;&gt;3 -->
<g id="edge108" class="edge">
<title>27&#45;&gt;3</title>
<path fill="none" stroke="black" d="M1690.06,-415.61C1770.82,-423.23 2004.16,-457.47 2100,-602.6 2167.69,-705.1 2117,-1032.27 2117,-1155.1 2117,-1712.3 2117,-1712.3 2117,-1712.3 2117,-1737.86 2113.18,-1748.88 2093,-1764.55 2069.57,-1782.74 1988.4,-1792.42 1939.41,-1796.72"/>
<polygon fill="black" stroke="black" points="1939.18,-1793.23 1929.51,-1797.55 1939.77,-1800.21 1939.18,-1793.23"/>
<text xml:space="preserve" text-anchor="middle" x="2123.34" y="-1106.8" font-family="Times,serif" font-size="14.00">3</text>
</g>
<!-- 27&#45;&gt;9 -->
<g id="edge67" class="edge">
<title>27&#45;&gt;9</title>
<path fill="none" stroke="black" d="M1639.91,-395.55C1619.9,-381.69 1589.16,-361.94 1560,-349.45 1522.98,-333.59 1477.84,-322.67 1447.85,-316.5"/>
<polygon fill="black" stroke="black" points="1448.74,-313.11 1438.25,-314.59 1447.38,-319.98 1448.74,-313.11"/>
<text xml:space="preserve" text-anchor="middle" x="1596.73" y="-353.4" font-family="Times,serif" font-size="14.00">2</text>
</g>
<!-- 27&#45;&gt;11 -->
<g id="edge122" class="edge">
<title>27&#45;&gt;11</title>
<path fill="none" stroke="black" d="M1663.81,-384.56C1668.04,-326.93 1680.13,-187.8 1705,-73.7 1706.22,-68.12 1707.82,-62.23 1709.5,-56.62"/>
<polygon fill="black" stroke="black" points="1712.82,-57.73 1712.51,-47.14 1706.15,-55.61 1712.82,-57.73"/>
<text xml:space="preserve" text-anchor="middle" x="1687.84" y="-211.53" font-family="Times,serif" font-size="14.00">0</text>
</g>
<!-- 27&#45;&gt;18 -->
<g id="edge84" class="edge">
<title>27&#45;&gt;18</title>
<path fill="none" stroke="black" d="M1689.44,-405.45C1767.68,-388.07 1991.93,-338.24 2080.44,-318.57"/>
<polygon fill="black" stroke="black" points="2081.03,-322.03 2090.04,-316.44 2079.51,-315.19 2081.03,-322.03"/>
<text xml:space="preserve" text-anchor="middle" x="1934.75" y="-353.4" font-family="Times,serif" font-size="14.00">1</text>
</g>
<!-- 27&#45;&gt;21 -->
<g id="edge127" class="edge">
<title>27&#45;&gt;21</title>
<path fill="none" stroke="black" d="M1662.48,-440.7C1664.16,-535.42 1669.77,-850.82 1671.49,-947.91"/>
<polygon fill="black" stroke="black" points="1667.99,-947.68 1671.66,-957.62 1674.98,-947.56 1667.99,-947.68"/>
<text xml:space="preserve" text-anchor="middle" x="1672.04" y="-705.18" font-family="Times,serif" font-size="14.00">4</text>
</g>
<!-- 28&#45;&gt;2 -->
<g id="edge62" class="edge">
<title>28&#45;&gt;2</title>
<path fill="none" stroke="black" d="M883.2,-1271.52C860.81,-1288.58 830,-1318.41 830,-1353.3 830,-1533.8 830,-1533.8 830,-1533.8 830,-1555.61 839.34,-1578.52 848.23,-1595.39"/>
<polygon fill="black" stroke="black" points="844.95,-1596.7 852.88,-1603.73 851.06,-1593.29 844.95,-1596.7"/>
<text xml:space="preserve" text-anchor="middle" x="834.5" y="-1438.88" font-family="Times,serif" font-size="14.00">1</text>
</g>
<!-- 28&#45;&gt;4 -->
<g id="edge61" class="edge">
<title>28&#45;&gt;4</title>
<path fill="none" stroke="black" d="M933.31,-1249.11C996.21,-1236.34 1154.07,-1198.22 1261,-1120.1 1270.9,-1112.87 1279.77,-1102.73 1286.78,-1093.31"/>
<polygon fill="black" stroke="black" points="1289.63,-1095.35 1292.5,-1085.15 1283.9,-1091.33 1289.63,-1095.35"/>
<text xml:space="preserve" text-anchor="middle" x="1237.25" y="-1151.43" font-family="Times,serif" font-size="14.00">3</text>
</g>
<!-- 28&#45;&gt;7 -->
<g id="edge24" class="edge">
<title>28&#45;&gt;7</title>
<path fill="none" stroke="black" d="M892.03,-1230.83C888.22,-1224.02 884.25,-1216.49 881,-1209.35 807.71,-1048.43 842.86,-983.04 746,-835.1 742.75,-830.14 738.67,-825.38 734.41,-821.05"/>
<polygon fill="black" stroke="black" points="736.97,-818.65 727.28,-814.36 732.18,-823.76 736.97,-818.65"/>
<text xml:space="preserve" text-anchor="middle" x="829.65" y="-1017.55" font-family="Times,serif" font-size="14.00">2</text>
</g>
<!-- 28&#45;&gt;17 -->
<g id="edge23" class="edge">
<title>28&#45;&gt;17</title>
<path fill="none" stroke="black" d="M919.11,-1230.4C927.48,-1217.29 939.48,-1201.76 954,-1192.1 981.87,-1173.56 1019.19,-1164.82 1046.87,-1160.71"/>
<polygon fill="black" stroke="black" points="1047.14,-1164.21 1056.59,-1159.42 1046.21,-1157.27 1047.14,-1164.21"/>
<text xml:space="preserve" text-anchor="middle" x="958.5" y="-1196.05" font-family="Times,serif" font-size="14.00">0</text>
</g>
<!-- 28&#45;&gt;29 -->
<g id="edge39" class="edge">
<title>28&#45;&gt;29</title>
<path fill="none" stroke="black" d="M881.31,-1268.83C842.55,-1289.66 766.9,-1334.55 719,-1390.3 554.8,-1581.41 449,-1636.84 449,-1888.8 449,-2073.3 449,-2073.3 449,-2073.3 449,-2182.88 2260.41,-2176.43 2552.46,-2174.67"/>
<polygon fill="black" stroke="black" points="2552.23,-2178.18 2562.21,-2174.61 2552.19,-2171.18 2552.23,-2178.18"/>
<text xml:space="preserve" text-anchor="middle" x="485.23" y="-1706.63" font-family="Times,serif" font-size="14.00">4</text>
</g>
<!-- 29&#45;&gt;5 -->
<g id="edge111" class="edge">
<title>29&#45;&gt;5</title>
<path fill="none" stroke="black" d="M2568.59,-2159.7C2539.47,-2141.42 2489.82,-2110.24 2458.8,-2090.76"/>
<polygon fill="black" stroke="black" points="2461.05,-2088.04 2450.71,-2085.68 2457.32,-2093.96 2461.05,-2088.04"/>
<text xml:space="preserve" text-anchor="middle" x="2520.83" y="-2116.25" font-family="Times,serif" font-size="14.00">0</text>
</g>
<!-- 29&#45;&gt;6 -->
<g id="edge89" class="edge">
<title>29&#45;&gt;6</title>
<path fill="none" stroke="black" d="M2563.73,-2174.49C2298.28,-2175.21 250.75,-2179.13 133,-2129.55 100.2,-2115.74 76,-2108.89 76,-2073.3 76,-2073.3 76,-2073.3 76,-753.48 76,-736.17 166.8,-473.06 176,-458.4 233.63,-366.58 253.74,-337.33 350,-287.45 466.59,-227.04 626.38,-217.75 698.69,-216.86"/>
<polygon fill="black" stroke="black" points="698.44,-220.37 708.42,-216.8 698.39,-213.37 698.44,-220.37"/>
<text xml:space="preserve" text-anchor="middle" x="80.5" y="-1196.05" font-family="Times,serif" font-size="14.00">2</text>
</g>
<!-- 29&#45;&gt;19 -->
<g id="edge118" class="edge">
<title>29&#45;&gt;19</title>
<path fill="none" stroke="black" d="M2619.48,-2170.13C2665.7,-2161.21 2754,-2135.96 2754,-2073.3 2754,-2073.3 2754,-2073.3 2754,-1397.93 2754,-1271.01 2746,-1239.39 2746,-1112.48 2746,-1112.48 2746,-1112.48 2746,-931.98 2746,-681.56 2371.82,-563.6 2249.31,-531.7"/>
<polygon fill="black" stroke="black" points="2250.29,-528.33 2239.73,-529.25 2248.56,-535.11 2250.29,-528.33"/>
<text xml:space="preserve" text-anchor="middle" x="2758.37" y="-1349.63" font-family="Times,serif" font-size="14.00">3</text>
</g>
<!-- 29&#45;&gt;23 -->
<g id="edge130" class="edge">
<title>29&#45;&gt;23</title>
<path fill="none" stroke="black" d="M2618.32,-2164.97C2652.55,-2150.82 2708,-2120.59 2708,-2073.3 2708,-2073.3 2708,-2073.3 2708,-931.98 2708,-809.45 2706.88,-778.55 2695,-656.6 2692.65,-632.45 2692.21,-626.3 2687,-602.6 2653.13,-448.44 2587,-419.67 2587,-261.83 2587,-261.83 2587,-261.83 2587,-125.95 2587,-79.82 1074.06,-37.05 808.54,-29.9"/>
<polygon fill="black" stroke="black" points="808.79,-26.4 798.7,-29.63 808.61,-33.4 808.79,-26.4"/>
<text xml:space="preserve" text-anchor="middle" x="2712.5" y="-1106.8" font-family="Times,serif" font-size="14.00">4</text>
</g>
<!-- 29&#45;&gt;26 -->
<g id="edge20" class="edge">
<title>29&#45;&gt;26</title>
<path fill="none" stroke="black" d="M2563.74,-2174.21C2304.79,-2172.38 351.15,-2157.69 232,-2129.55 175.46,-2116.2 114,-2131.4 114,-2073.3 114,-2073.3 114,-2073.3 114,-1754.93 114,-1550.29 235,-1515.31 235,-1310.68 235,-1310.68 235,-1310.68 235,-1021.23 235,-812.7 560.06,-736.69 671.8,-716.73"/>
<polygon fill="black" stroke="black" points="672.09,-720.23 681.35,-715.07 670.9,-713.33 672.09,-720.23"/>
<text xml:space="preserve" text-anchor="middle" x="224.03" y="-1438.88" font-family="Times,serif" font-size="14.00">1</text>
</g>
</g>
</svg>
