<?xml version="1.0" encoding="UTF-8" standalone="no"?>
<!DOCTYPE svg PUBLIC "-//W3C//DTD SVG 1.1//EN"
 "http://www.w3.org/Graphics/SVG/1.1/DTD/svg11.dtd">
<!-- Generated by graphviz version 13.0.1 (20250616.1512)
 -->
<!-- Pages: 1 -->
<svg width="2423pt" height="2354pt"
 viewBox="0.00 0.00 2423.00 2354.00" xmlns="http://www.w3.org/2000/svg" xmlns:xlink="http://www.w3.org/1999/xlink">
<g id="graph0" class="graph" transform="scale(1 1) rotate(0) translate(4 2349.8)">
<polygon fill="white" stroke="none" points="-4,4 -4,-2349.8 2419,-2349.8 2419,4 -4,4"/>
<!-- fake -->
<g id="node1" class="node">
<title>fake</title>
</g>
<!-- 0 -->
<g id="node2" class="node">
<title>0</title>
<ellipse fill="none" stroke="black" cx="2002" cy="-2254.8" rx="27" ry="18"/>
<text xml:space="preserve" text-anchor="middle" x="2002" y="-2250.13" font-family="Times,serif" font-size="14.00">0</text>
</g>
<!-- fake&#45;&gt;0 -->
<g id="edge1" class="edge">
<title>fake&#45;&gt;0</title>
<path fill="none" stroke="black" stroke-width="2" d="M2002,-2309.62C2002,-2302.03 2002,-2292.9 2002,-2284.34"/>
<polygon fill="black" stroke="black" stroke-width="2" points="2005.5,-2285.86 2002,-2275.86 1998.5,-2285.86 2005.5,-2285.86"/>
</g>
<!-- 3 -->
<g id="node5" class="node">
<title>3</title>
<ellipse fill="none" stroke="black" cx="831" cy="-2165.55" rx="27" ry="18"/>
<text xml:space="preserve" text-anchor="middle" x="831" y="-2160.88" font-family="Times,serif" font-size="14.00">3</text>
</g>
<!-- 0&#45;&gt;3 -->
<g id="edge21" class="edge">
<title>0&#45;&gt;3</title>
<path fill="none" stroke="black" d="M1975.06,-2251.8C1820.9,-2240.31 1051.07,-2182.95 869.44,-2169.42"/>
<polygon fill="black" stroke="black" points="869.84,-2165.94 859.61,-2168.68 869.32,-2172.92 869.84,-2165.94"/>
<text xml:space="preserve" text-anchor="middle" x="1525.88" y="-2205.5" font-family="Times,serif" font-size="14.00">1</text>
</g>
<!-- 5 -->
<g id="node7" class="node">
<title>5</title>
<ellipse fill="none" stroke="black" cx="289" cy="-18" rx="27" ry="18"/>
<text xml:space="preserve" text-anchor="middle" x="289" y="-13.32" font-family="Times,serif" font-size="14.00">5</text>
</g>
<!-- 0&#45;&gt;5 -->
<g id="edge126" class="edge">
<title>0&#45;&gt;5</title>
<path fill="none" stroke="black" d="M1974.77,-2253.53C1790.23,-2251.67 720.28,-2240.05 395,-2218.8 306.65,-2213.03 0,-2255.09 0,-2166.55 0,-2166.55 0,-2166.55 0,-116.1 0,-84.7 78.52,-57.33 88,-54 142.6,-34.82 209.37,-25.86 250.54,-21.9"/>
<polygon fill="black" stroke="black" points="250.8,-25.39 260.44,-21 250.17,-18.42 250.8,-25.39"/>
<text xml:space="preserve" text-anchor="middle" x="4.5" y="-1159.43" font-family="Times,serif" font-size="14.00">3</text>
</g>
<!-- 16 -->
<g id="node18" class="node">
<title>16</title>
<ellipse fill="none" stroke="black" cx="1214" cy="-985.6" rx="27" ry="18"/>
<text xml:space="preserve" text-anchor="middle" x="1214" y="-980.93" font-family="Times,serif" font-size="14.00">16</text>
</g>
<!-- 0&#45;&gt;16 -->
<g id="edge30" class="edge">
<title>0&#45;&gt;16</title>
<path fill="none" stroke="black" d="M2026.74,-2246.98C2060.26,-2236.05 2116,-2211.16 2116,-2166.55 2116,-2166.55 2116,-2166.55 2116,-1941.43 2116,-1759.41 2031.07,-1730.27 1970,-1558.8 1947.23,-1494.87 1957.58,-1471.64 1922,-1413.85 1821.49,-1250.61 1779.67,-1209.02 1615,-1110.85 1493.18,-1038.23 1324.87,-1004.22 1251.13,-992.08"/>
<polygon fill="black" stroke="black" points="1252.05,-988.69 1241.62,-990.56 1250.94,-995.6 1252.05,-988.69"/>
<text xml:space="preserve" text-anchor="middle" x="2013.6" y="-1625.38" font-family="Times,serif" font-size="14.00">2</text>
</g>
<!-- 19 -->
<g id="node21" class="node">
<title>19</title>
<ellipse fill="none" stroke="black" cx="1661" cy="-117.1" rx="23.85" ry="23.85"/>
<ellipse fill="none" stroke="black" cx="1661" cy="-117.1" rx="27.85" ry="27.85"/>
<text xml:space="preserve" text-anchor="middle" x="1661" y="-112.43" font-family="Times,serif" font-size="14.00">19</text>
</g>
<!-- 0&#45;&gt;19 -->
<g id="edge42" class="edge">
<title>0&#45;&gt;19</title>
<path fill="none" stroke="black" d="M2029.09,-2252.62C2109.29,-2248.39 2340,-2230.64 2340,-2166.55 2340,-2166.55 2340,-2166.55 2340,-1386.23 2340,-1307.38 2322,-1288.58 2322,-1209.73 2322,-1209.73 2322,-1209.73 2322,-215.2 2322,-151.95 1842.15,-125.99 1700.14,-119.69"/>
<polygon fill="black" stroke="black" points="1700.63,-116.21 1690.49,-119.28 1700.33,-123.21 1700.63,-116.21"/>
<text xml:space="preserve" text-anchor="middle" x="2326.53" y="-1204.05" font-family="Times,serif" font-size="14.00">0</text>
</g>
<!-- 21 -->
<g id="node23" class="node">
<title>21</title>
<ellipse fill="none" stroke="black" cx="571" cy="-1431.85" rx="27" ry="18"/>
<text xml:space="preserve" text-anchor="middle" x="571" y="-1427.18" font-family="Times,serif" font-size="14.00">21</text>
</g>
<!-- 0&#45;&gt;21 -->
<g id="edge101" class="edge">
<title>0&#45;&gt;21</title>
<path fill="none" stroke="black" d="M1974.77,-2253.31C1740.68,-2248.97 76,-2216.34 76,-2166.55 76,-2166.55 76,-2166.55 76,-1762.93 76,-1738 391.76,-1479.11 414,-1467.85 451.73,-1448.76 499.74,-1440.01 532.68,-1436.04"/>
<polygon fill="black" stroke="black" points="533.03,-1439.53 542.59,-1434.96 532.26,-1432.57 533.03,-1439.53"/>
<text xml:space="preserve" text-anchor="middle" x="80.5" y="-1848.5" font-family="Times,serif" font-size="14.00">4</text>
</g>
<!-- 1 -->
<g id="node3" class="node">
<title>1</title>
<ellipse fill="none" stroke="black" cx="1414" cy="-1630.05" rx="27" ry="18"/>
<text xml:space="preserve" text-anchor="middle" x="1414" y="-1625.38" font-family="Times,serif" font-size="14.00">1</text>
</g>
<!-- 1&#45;&gt;0 -->
<g id="edge113" class="edge">
<title>1&#45;&gt;0</title>
<path fill="none" stroke="black" d="M1439.64,-1636.68C1552.82,-1662.21 2002,-1771.47 2002,-1896.8 2002,-2166.55 2002,-2166.55 2002,-2166.55 2002,-2186.06 2002,-2208.01 2002,-2225.02"/>
<polygon fill="black" stroke="black" points="1998.5,-2224.91 2002,-2234.91 2005.5,-2224.91 1998.5,-2224.91"/>
<text xml:space="preserve" text-anchor="middle" x="2006.5" y="-1937.75" font-family="Times,serif" font-size="14.00">2</text>
</g>
<!-- 8 -->
<g id="node10" class="node">
<title>8</title>
<ellipse fill="none" stroke="black" cx="2066" cy="-807.1" rx="27" ry="18"/>
<text xml:space="preserve" text-anchor="middle" x="2066" y="-802.43" font-family="Times,serif" font-size="14.00">8</text>
</g>
<!-- 1&#45;&gt;8 -->
<g id="edge2" class="edge">
<title>1&#45;&gt;8</title>
<path fill="none" stroke="black" d="M1440.1,-1624.25C1503.14,-1611.54 1666.13,-1571.86 1770,-1485.1 1889.36,-1385.41 1894.67,-1329.25 1945,-1182.1 1976.75,-1089.29 1966.13,-1060.71 1997,-967.6 2012.97,-919.44 2037.73,-865.72 2052.85,-834.54"/>
<polygon fill="black" stroke="black" points="2055.85,-836.37 2057.09,-825.85 2049.56,-833.29 2055.85,-836.37"/>
<text xml:space="preserve" text-anchor="middle" x="1943.21" y="-1204.05" font-family="Times,serif" font-size="14.00">4</text>
</g>
<!-- 13 -->
<g id="node15" class="node">
<title>13</title>
<ellipse fill="none" stroke="black" cx="1393" cy="-1164.1" rx="27" ry="18"/>
<text xml:space="preserve" text-anchor="middle" x="1393" y="-1159.43" font-family="Times,serif" font-size="14.00">13</text>
</g>
<!-- 1&#45;&gt;13 -->
<g id="edge74" class="edge">
<title>1&#45;&gt;13</title>
<path fill="none" stroke="black" d="M1414,-1611.86C1414,-1592.46 1414,-1559.94 1414,-1531.95 1414,-1531.95 1414,-1531.95 1414,-1252.35 1414,-1231.97 1408.52,-1209.64 1403.15,-1192.67"/>
<polygon fill="black" stroke="black" points="1406.51,-1191.67 1400.01,-1183.3 1399.87,-1193.9 1406.51,-1191.67"/>
<text xml:space="preserve" text-anchor="middle" x="1418.5" y="-1382.55" font-family="Times,serif" font-size="14.00">0</text>
</g>
<!-- 17 -->
<g id="node19" class="node">
<title>17</title>
<ellipse fill="none" stroke="black" cx="700" cy="-1987.05" rx="27" ry="18"/>
<text xml:space="preserve" text-anchor="middle" x="700" y="-1982.38" font-family="Times,serif" font-size="14.00">17</text>
</g>
<!-- 1&#45;&gt;17 -->
<g id="edge137" class="edge">
<title>1&#45;&gt;17</title>
<path fill="none" stroke="black" d="M1386.96,-1632.93C1293.68,-1640.78 981.39,-1678.87 805,-1844.55 767.55,-1879.73 793.93,-1912.46 760,-1951.05 752.63,-1959.43 742.75,-1966.33 733.14,-1971.72"/>
<polygon fill="black" stroke="black" points="731.57,-1968.58 724.29,-1976.28 734.78,-1974.81 731.57,-1968.58"/>
<text xml:space="preserve" text-anchor="middle" x="877.35" y="-1803.88" font-family="Times,serif" font-size="14.00">3</text>
</g>
<!-- 28 -->
<g id="node30" class="node">
<title>28</title>
<ellipse fill="none" stroke="black" cx="908" cy="-1530.95" rx="23.85" ry="23.85"/>
<ellipse fill="none" stroke="black" cx="908" cy="-1530.95" rx="27.85" ry="27.85"/>
<text xml:space="preserve" text-anchor="middle" x="908" y="-1526.28" font-family="Times,serif" font-size="14.00">28</text>
</g>
<!-- 1&#45;&gt;28 -->
<g id="edge85" class="edge">
<title>1&#45;&gt;28</title>
<path fill="none" stroke="black" d="M1386.6,-1628.83C1313.31,-1627.43 1107.68,-1618.07 950,-1558.8 946.6,-1557.52 943.18,-1555.94 939.85,-1554.19"/>
<polygon fill="black" stroke="black" points="941.9,-1551.33 931.49,-1549.33 938.37,-1557.38 941.9,-1551.33"/>
<text xml:space="preserve" text-anchor="middle" x="1065.08" y="-1580.75" font-family="Times,serif" font-size="14.00">1</text>
</g>
<!-- 2 -->
<g id="node4" class="node">
<title>2</title>
<ellipse fill="none" stroke="black" cx="1718" cy="-1808.55" rx="27" ry="18"/>
<text xml:space="preserve" text-anchor="middle" x="1718" y="-1803.88" font-family="Times,serif" font-size="14.00">2</text>
</g>
<!-- 7 -->
<g id="node9" class="node">
<title>7</title>
<ellipse fill="none" stroke="black" cx="1484" cy="-1719.3" rx="27" ry="18"/>
<text xml:space="preserve" text-anchor="middle" x="1484" y="-1714.63" font-family="Times,serif" font-size="14.00">7</text>
</g>
<!-- 2&#45;&gt;7 -->
<g id="edge125" class="edge">
<title>2&#45;&gt;7</title>
<path fill="none" stroke="black" d="M1694.33,-1799.4C1674.23,-1792.43 1644.64,-1782.05 1619,-1772.55 1584.2,-1759.67 1544.63,-1744.27 1517.37,-1733.53"/>
<polygon fill="black" stroke="black" points="1518.85,-1730.35 1508.26,-1729.94 1516.28,-1736.87 1518.85,-1730.35"/>
<text xml:space="preserve" text-anchor="middle" x="1623.5" y="-1759.25" font-family="Times,serif" font-size="14.00">1</text>
</g>
<!-- 2&#45;&gt;13 -->
<g id="edge47" class="edge">
<title>2&#45;&gt;13</title>
<path fill="none" stroke="black" d="M1711.14,-1790.88C1708.82,-1785.1 1706.24,-1778.56 1704,-1772.55 1645.1,-1614.49 1658.59,-1563.1 1580,-1413.85 1532.27,-1323.22 1452.68,-1230.4 1414.59,-1188.34"/>
<polygon fill="black" stroke="black" points="1417.25,-1186.07 1407.93,-1181.04 1412.08,-1190.78 1417.25,-1186.07"/>
<text xml:space="preserve" text-anchor="middle" x="1618.32" y="-1471.8" font-family="Times,serif" font-size="14.00">0</text>
</g>
<!-- 18 -->
<g id="node20" class="node">
<title>18</title>
<ellipse fill="none" stroke="black" cx="1207" cy="-216.2" rx="27" ry="18"/>
<text xml:space="preserve" text-anchor="middle" x="1207" y="-211.53" font-family="Times,serif" font-size="14.00">18</text>
</g>
<!-- 2&#45;&gt;18 -->
<g id="edge66" class="edge">
<title>2&#45;&gt;18</title>
<path fill="none" stroke="black" d="M1718,-1790.17C1718,-1772.56 1718,-1744.54 1718,-1720.3 1718,-1720.3 1718,-1720.3 1718,-1475.48 1718,-1416.62 1730,-1402.46 1730,-1343.6 1730,-1343.6 1730,-1343.6 1730,-1207.73 1730,-1113.52 1824.59,-879.18 1797,-789.1 1743.78,-615.36 1688.63,-586.3 1568,-450.4 1478.64,-349.73 1458,-315.11 1339,-252.2 1309.29,-236.49 1272.01,-227.45 1244.65,-222.51"/>
<polygon fill="black" stroke="black" points="1245.52,-219.1 1235.08,-220.88 1244.35,-226.01 1245.52,-219.1"/>
<text xml:space="preserve" text-anchor="middle" x="1772.07" y="-1025.55" font-family="Times,serif" font-size="14.00">4</text>
</g>
<!-- 22 -->
<g id="node24" class="node">
<title>22</title>
<ellipse fill="none" stroke="black" cx="1854" cy="-513.5" rx="27" ry="18"/>
<text xml:space="preserve" text-anchor="middle" x="1854" y="-508.83" font-family="Times,serif" font-size="14.00">22</text>
</g>
<!-- 2&#45;&gt;22 -->
<g id="edge110" class="edge">
<title>2&#45;&gt;22</title>
<path fill="none" stroke="black" d="M1729.4,-1792.04C1740.59,-1775.24 1756,-1747.23 1756,-1720.3 1756,-1720.3 1756,-1720.3 1756,-1475.48 1756,-1298.53 1835.73,-1267.19 1866,-1092.85 1891.15,-947.98 1897,-910.51 1897,-763.48 1897,-763.48 1897,-763.48 1897,-615.6 1897,-587.99 1883.25,-559.28 1871.3,-539.54"/>
<polygon fill="black" stroke="black" points="1874.42,-537.93 1866.11,-531.36 1868.52,-541.68 1874.42,-537.93"/>
<text xml:space="preserve" text-anchor="middle" x="1858.64" y="-1159.43" font-family="Times,serif" font-size="14.00">3</text>
</g>
<!-- 29 -->
<g id="node31" class="node">
<title>29</title>
<ellipse fill="none" stroke="black" cx="1661" cy="-18" rx="27" ry="18"/>
<text xml:space="preserve" text-anchor="middle" x="1661" y="-13.32" font-family="Times,serif" font-size="14.00">29</text>
</g>
<!-- 2&#45;&gt;29 -->
<g id="edge132" class="edge">
<title>2&#45;&gt;29</title>
<path fill="none" stroke="black" d="M1743.23,-1801.79C1764.79,-1796.22 1796.16,-1786.56 1821,-1772.55 1895.87,-1730.33 1921,-1719.36 1969,-1648.05 2006.82,-1591.87 1988.09,-1564.81 2016,-1503.1 2035.01,-1461.07 2045.31,-1453.44 2069,-1413.85 2108.11,-1348.52 2246,-1196.62 2246,-1120.48 2246,-1120.48 2246,-1120.48 2246,-116.1 2246,-60.5 1829.5,-29.6 1699.37,-21.3"/>
<polygon fill="black" stroke="black" points="1699.75,-17.82 1689.55,-20.68 1699.31,-24.8 1699.75,-17.82"/>
<text xml:space="preserve" text-anchor="middle" x="2250.5" y="-936.3" font-family="Times,serif" font-size="14.00">2</text>
</g>
<!-- 3&#45;&gt;0 -->
<g id="edge109" class="edge">
<title>3&#45;&gt;0</title>
<path fill="none" stroke="black" d="M858.18,-2167.3C952.05,-2170.03 1271.21,-2180.36 1534,-2201.55 1694.25,-2214.48 1884.47,-2238.38 1964.05,-2248.76"/>
<polygon fill="black" stroke="black" points="1963.54,-2252.23 1973.91,-2250.06 1964.45,-2245.29 1963.54,-2252.23"/>
<text xml:space="preserve" text-anchor="middle" x="1706.06" y="-2205.5" font-family="Times,serif" font-size="14.00">3</text>
</g>
<!-- 9 -->
<g id="node11" class="node">
<title>9</title>
<ellipse fill="none" stroke="black" cx="652" cy="-616.6" rx="18" ry="18"/>
<ellipse fill="none" stroke="black" cx="652" cy="-616.6" rx="22" ry="22"/>
<text xml:space="preserve" text-anchor="middle" x="652" y="-611.93" font-family="Times,serif" font-size="14.00">9</text>
</g>
<!-- 3&#45;&gt;9 -->
<g id="edge146" class="edge">
<title>3&#45;&gt;9</title>
<path fill="none" stroke="black" d="M803.84,-2164.64C691.06,-2164.78 263.2,-2163.1 214,-2129.55 192.89,-2115.16 190,-2102.86 190,-2077.3 190,-2077.3 190,-2077.3 190,-1584.43 190,-1490.91 266,-1481.74 266,-1388.23 266,-1388.23 266,-1388.23 266,-1029.23 266,-928.25 352.13,-936.89 418,-860.35 431.23,-844.98 434.54,-841.11 447,-825.1 492.15,-767.08 492.31,-743.11 545,-691.85 568.75,-668.74 600.38,-647.76 623.07,-634.04"/>
<polygon fill="black" stroke="black" points="624.7,-637.15 631.51,-629.04 621.13,-631.13 624.7,-637.15"/>
<text xml:space="preserve" text-anchor="middle" x="270.5" y="-1382.55" font-family="Times,serif" font-size="14.00">2</text>
</g>
<!-- 3&#45;&gt;18 -->
<g id="edge88" class="edge">
<title>3&#45;&gt;18</title>
<path fill="none" stroke="black" d="M803.57,-2164.95C696.76,-2166.18 308.85,-2167.89 193,-2129.55 153.04,-2116.33 114,-2119.4 114,-2077.3 114,-2077.3 114,-2077.3 114,-1673.68 114,-1427.81 114,-1366.34 114,-1120.48 114,-1120.48 114,-1120.48 114,-566.98 114,-375.44 259.37,-345.17 442,-287.45 579.95,-243.85 1033.51,-223.7 1168.66,-218.56"/>
<polygon fill="black" stroke="black" points="1168.64,-222.07 1178.5,-218.19 1168.38,-215.07 1168.64,-222.07"/>
<text xml:space="preserve" text-anchor="middle" x="118.5" y="-1204.05" font-family="Times,serif" font-size="14.00">4</text>
</g>
<!-- 3&#45;&gt;21 -->
<g id="edge55" class="edge">
<title>3&#45;&gt;21</title>
<path fill="none" stroke="black" d="M803.74,-2165.12C706.02,-2166.43 379,-2164.32 379,-2077.3 379,-2077.3 379,-2077.3 379,-1941.43 379,-1876.66 441,-1874.32 441,-1809.55 441,-1809.55 441,-1809.55 441,-1529.95 441,-1482.78 496.63,-1455.77 535.11,-1442.73"/>
<polygon fill="black" stroke="black" points="536.03,-1446.11 544.49,-1439.73 533.9,-1439.44 536.03,-1446.11"/>
<text xml:space="preserve" text-anchor="middle" x="445.5" y="-1803.88" font-family="Times,serif" font-size="14.00">0</text>
</g>
<!-- 27 -->
<g id="node29" class="node">
<title>27</title>
<ellipse fill="none" stroke="black" cx="1938" cy="-2076.3" rx="27" ry="18"/>
<text xml:space="preserve" text-anchor="middle" x="1938" y="-2071.63" font-family="Times,serif" font-size="14.00">27</text>
</g>
<!-- 3&#45;&gt;27 -->
<g id="edge17" class="edge">
<title>3&#45;&gt;27</title>
<path fill="none" stroke="black" d="M858.38,-2164.59C960.56,-2164.47 1329.29,-2161.7 1631,-2129.55 1729.33,-2119.08 1843.86,-2096.9 1901.25,-2085.09"/>
<polygon fill="black" stroke="black" points="1901.71,-2088.57 1910.79,-2083.11 1900.29,-2081.71 1901.71,-2088.57"/>
<text xml:space="preserve" text-anchor="middle" x="1754.16" y="-2116.25" font-family="Times,serif" font-size="14.00">1</text>
</g>
<!-- 4 -->
<g id="node6" class="node">
<title>4</title>
<ellipse fill="none" stroke="black" cx="1852" cy="-1630.05" rx="27" ry="18"/>
<text xml:space="preserve" text-anchor="middle" x="1852" y="-1625.38" font-family="Times,serif" font-size="14.00">4</text>
</g>
<!-- 4&#45;&gt;2 -->
<g id="edge16" class="edge">
<title>4&#45;&gt;2</title>
<path fill="none" stroke="black" d="M1845.24,-1647.9C1833.3,-1676.14 1806.26,-1733.77 1770,-1772.55 1763.68,-1779.32 1755.81,-1785.45 1748.13,-1790.62"/>
<polygon fill="black" stroke="black" points="1746.48,-1787.53 1739.91,-1795.83 1750.23,-1793.44 1746.48,-1787.53"/>
<text xml:space="preserve" text-anchor="middle" x="1823.69" y="-1714.63" font-family="Times,serif" font-size="14.00">0</text>
</g>
<!-- 4&#45;&gt;2 -->
<g id="edge134" class="edge">
<title>4&#45;&gt;2</title>
<path fill="none" stroke="black" d="M1851.67,-1648.4C1850.55,-1670.44 1846.19,-1709.02 1830,-1737.3 1813.33,-1766.41 1779.2,-1785.18 1752.97,-1795.92"/>
<polygon fill="black" stroke="black" points="1751.77,-1792.64 1743.7,-1799.5 1754.29,-1799.17 1751.77,-1792.64"/>
<text xml:space="preserve" text-anchor="middle" x="1848.26" y="-1714.63" font-family="Times,serif" font-size="14.00">1</text>
</g>
<!-- 4&#45;&gt;19 -->
<g id="edge5" class="edge">
<title>4&#45;&gt;19</title>
<path fill="none" stroke="black" d="M1862.23,-1613.1C1865.67,-1607.27 1869.31,-1600.51 1872,-1594.05 1903.98,-1517.33 1881.81,-1486.6 1922,-1413.85 1979.13,-1310.45 2043.48,-1320.54 2101,-1217.35 2144.78,-1138.83 2157.55,-1111.33 2152,-1021.6 2128.02,-633.74 2277.44,-421.13 1987,-162.95 1945.32,-125.9 1777.62,-119.28 1700.35,-118.22"/>
<polygon fill="black" stroke="black" points="1700.74,-114.72 1690.7,-118.11 1700.66,-121.72 1700.74,-114.72"/>
<text xml:space="preserve" text-anchor="middle" x="2154.57" y="-891.68" font-family="Times,serif" font-size="14.00">4</text>
</g>
<!-- 4&#45;&gt;22 -->
<g id="edge102" class="edge">
<title>4&#45;&gt;22</title>
<path fill="none" stroke="black" d="M1854.35,-1611.84C1867.86,-1512.82 1935,-1018.97 1935,-986.6 1935,-986.6 1935,-986.6 1935,-615.6 1935,-588.42 1927.53,-580.93 1911,-559.35 1903.22,-549.2 1892.65,-540.05 1882.72,-532.69"/>
<polygon fill="black" stroke="black" points="1884.94,-529.98 1874.74,-527.09 1880.92,-535.71 1884.94,-529.98"/>
<text xml:space="preserve" text-anchor="middle" x="1931.94" y="-1070.18" font-family="Times,serif" font-size="14.00">3</text>
</g>
<!-- 26 -->
<g id="node28" class="node">
<title>26</title>
<ellipse fill="none" stroke="black" cx="1409" cy="-1074.85" rx="27" ry="18"/>
<text xml:space="preserve" text-anchor="middle" x="1409" y="-1070.18" font-family="Times,serif" font-size="14.00">26</text>
</g>
<!-- 4&#45;&gt;26 -->
<g id="edge9" class="edge">
<title>4&#45;&gt;26</title>
<path fill="none" stroke="black" d="M1842.49,-1613.13C1827.78,-1588.82 1798.26,-1541.27 1770,-1503.1 1650.48,-1341.69 1488.45,-1162.21 1430.61,-1099.22"/>
<polygon fill="black" stroke="black" points="1433.22,-1096.89 1423.88,-1091.9 1428.07,-1101.63 1433.22,-1096.89"/>
<text xml:space="preserve" text-anchor="middle" x="1662.53" y="-1337.93" font-family="Times,serif" font-size="14.00">2</text>
</g>
<!-- 10 -->
<g id="node12" class="node">
<title>10</title>
<ellipse fill="none" stroke="black" cx="1272" cy="-896.35" rx="27" ry="18"/>
<text xml:space="preserve" text-anchor="middle" x="1272" y="-891.68" font-family="Times,serif" font-size="14.00">10</text>
</g>
<!-- 5&#45;&gt;10 -->
<g id="edge97" class="edge">
<title>5&#45;&gt;10</title>
<path fill="none" stroke="black" d="M315.26,-22.81C357.14,-28.96 441.64,-41.63 513,-54 932.14,-126.64 1240.25,3.94 1375,-287.45 1392.26,-324.78 1350.52,-615.55 1348,-656.6 1343.42,-731.42 1370.81,-756.33 1341,-825.1 1332.13,-845.56 1314.4,-863.4 1299.13,-875.99"/>
<polygon fill="black" stroke="black" points="1297.39,-872.9 1291.7,-881.83 1301.72,-878.4 1297.39,-872.9"/>
<text xml:space="preserve" text-anchor="middle" x="1375.45" y="-454.35" font-family="Times,serif" font-size="14.00">2</text>
</g>
<!-- 11 -->
<g id="node13" class="node">
<title>11</title>
<ellipse fill="none" stroke="black" cx="342" cy="-1253.35" rx="27" ry="18"/>
<text xml:space="preserve" text-anchor="middle" x="342" y="-1248.68" font-family="Times,serif" font-size="14.00">11</text>
</g>
<!-- 5&#45;&gt;11 -->
<g id="edge13" class="edge">
<title>5&#45;&gt;11</title>
<path fill="none" stroke="black" d="M273.29,-32.75C255.22,-50.17 228,-82.06 228,-116.1 228,-351.08 228,-351.08 228,-351.08 228,-573.14 228,-628.66 228,-850.73 228,-1120.48 228,-1120.48 228,-1120.48 228,-1171.99 278.39,-1213.29 312.17,-1235.2"/>
<polygon fill="black" stroke="black" points="310,-1237.97 320.34,-1240.31 313.71,-1232.04 310,-1237.97"/>
<text xml:space="preserve" text-anchor="middle" x="232.5" y="-660.55" font-family="Times,serif" font-size="14.00">3</text>
</g>
<!-- 5&#45;&gt;11 -->
<g id="edge142" class="edge">
<title>5&#45;&gt;11</title>
<path fill="none" stroke="black" d="M263.55,-24.73C223.93,-35.33 152,-62.02 152,-116.1 152,-1120.48 152,-1120.48 152,-1120.48 152,-1194.33 250.07,-1230.13 305.29,-1244.44"/>
<polygon fill="black" stroke="black" points="304.36,-1247.81 314.91,-1246.81 306.03,-1241.02 304.36,-1247.81"/>
<text xml:space="preserve" text-anchor="middle" x="156.5" y="-660.55" font-family="Times,serif" font-size="14.00">4</text>
</g>
<!-- 15 -->
<g id="node17" class="node">
<title>15</title>
<ellipse fill="none" stroke="black" cx="1092" cy="-1897.8" rx="27" ry="18"/>
<text xml:space="preserve" text-anchor="middle" x="1092" y="-1893.13" font-family="Times,serif" font-size="14.00">15</text>
</g>
<!-- 5&#45;&gt;15 -->
<g id="edge6" class="edge">
<title>5&#45;&gt;15</title>
<path fill="none" stroke="black" d="M296.05,-35.6C298.39,-41.38 300.93,-47.93 303,-54 395.42,-325.06 400.75,-398.37 479,-673.85 502.55,-756.74 503.46,-779.05 532,-860.35 586.27,-1014.93 614,-1048.05 675,-1200.1 754.35,-1397.88 748.66,-1458.48 846,-1648.05 886.39,-1726.71 935.29,-1820.87 997,-1861.8 1014.83,-1873.63 1037.19,-1882.12 1055.73,-1887.78"/>
<polygon fill="black" stroke="black" points="1054.68,-1891.12 1065.25,-1890.52 1056.61,-1884.39 1054.68,-1891.12"/>
<text xml:space="preserve" text-anchor="middle" x="592.87" y="-980.93" font-family="Times,serif" font-size="14.00">0</text>
</g>
<!-- 5&#45;&gt;17 -->
<g id="edge141" class="edge">
<title>5&#45;&gt;17</title>
<path fill="none" stroke="black" d="M263.08,-23.32C198.95,-34.75 38,-68.21 38,-116.1 38,-1120.48 38,-1120.48 38,-1120.48 38,-1162.28 274.27,-1792.14 298,-1826.55 345.83,-1895.93 364.24,-1916.28 441,-1951.05 479.54,-1968.51 599.36,-1979.11 661.6,-1983.57"/>
<polygon fill="black" stroke="black" points="661.15,-1987.05 671.37,-1984.26 661.64,-1980.07 661.15,-1987.05"/>
<text xml:space="preserve" text-anchor="middle" x="42.5" y="-1025.55" font-family="Times,serif" font-size="14.00">1</text>
</g>
<!-- 6 -->
<g id="node8" class="node">
<title>6</title>
<ellipse fill="none" stroke="black" cx="634" cy="-713.85" rx="18" ry="18"/>
<ellipse fill="none" stroke="black" cx="634" cy="-713.85" rx="22" ry="22"/>
<text xml:space="preserve" text-anchor="middle" x="634" y="-709.18" font-family="Times,serif" font-size="14.00">6</text>
</g>
<!-- 6&#45;&gt;6 -->
<g id="edge135" class="edge">
<title>6&#45;&gt;6</title>
<path fill="none" stroke="black" d="M654.58,-722.7C664.84,-723.92 674,-720.97 674,-713.85 674,-709.62 670.77,-706.86 666,-705.58"/>
<polygon fill="black" stroke="black" points="666.26,-702.09 656.09,-705.08 665.9,-709.08 666.26,-702.09"/>
<text xml:space="preserve" text-anchor="middle" x="678.5" y="-709.18" font-family="Times,serif" font-size="14.00">2</text>
</g>
<!-- 6&#45;&gt;9 -->
<g id="edge41" class="edge">
<title>6&#45;&gt;9</title>
<path fill="none" stroke="black" d="M637.99,-691.71C640.33,-679.38 643.31,-663.58 645.93,-649.73"/>
<polygon fill="black" stroke="black" points="649.32,-650.65 647.74,-640.17 642.44,-649.35 649.32,-650.65"/>
<text xml:space="preserve" text-anchor="middle" x="649.11" y="-660.55" font-family="Times,serif" font-size="14.00">3</text>
</g>
<!-- 24 -->
<g id="node26" class="node">
<title>24</title>
<ellipse fill="none" stroke="black" cx="481" cy="-1342.6" rx="27" ry="18"/>
<text xml:space="preserve" text-anchor="middle" x="481" y="-1337.93" font-family="Times,serif" font-size="14.00">24</text>
</g>
<!-- 6&#45;&gt;24 -->
<g id="edge51" class="edge">
<title>6&#45;&gt;24</title>
<path fill="none" stroke="black" d="M621.3,-732.24C616.79,-738.83 611.87,-746.51 608,-753.85 546.41,-870.56 497,-897.27 497,-1029.23 497,-1254.35 497,-1254.35 497,-1254.35 497,-1274.5 492.82,-1296.84 488.74,-1313.87"/>
<polygon fill="black" stroke="black" points="485.42,-1312.7 486.35,-1323.25 492.21,-1314.42 485.42,-1312.7"/>
<text xml:space="preserve" text-anchor="middle" x="501.5" y="-1025.55" font-family="Times,serif" font-size="14.00">4</text>
</g>
<!-- 6&#45;&gt;24 -->
<g id="edge73" class="edge">
<title>6&#45;&gt;24</title>
<path fill="none" stroke="black" d="M634.61,-736.14C635.39,-784.85 633.73,-907.58 602,-1003.6 583.45,-1059.72 535,-1059.37 535,-1118.48 535,-1254.35 535,-1254.35 535,-1254.35 535,-1279.15 519.03,-1302.78 504.46,-1319.18"/>
<polygon fill="black" stroke="black" points="501.96,-1316.73 497.66,-1326.41 507.06,-1321.52 501.96,-1316.73"/>
<text xml:space="preserve" text-anchor="middle" x="598.59" y="-1025.55" font-family="Times,serif" font-size="14.00">0</text>
</g>
<!-- 6&#45;&gt;29 -->
<g id="edge89" class="edge">
<title>6&#45;&gt;29</title>
<path fill="none" stroke="black" d="M621.31,-695.36C583.76,-641.36 479.09,-472.96 532,-341.45 598.11,-177.14 646.52,-126.76 808,-54 882.74,-20.32 1465.36,-18.71 1622.22,-18.9"/>
<polygon fill="black" stroke="black" points="1622.07,-22.4 1632.08,-18.91 1622.09,-15.4 1622.07,-22.4"/>
<text xml:space="preserve" text-anchor="middle" x="536.5" y="-345.4" font-family="Times,serif" font-size="14.00">1</text>
</g>
<!-- 7&#45;&gt;1 -->
<g id="edge103" class="edge">
<title>7&#45;&gt;1</title>
<path fill="none" stroke="black" d="M1463.78,-1707.07C1454.34,-1701.03 1443.55,-1692.84 1436,-1683.3 1430.22,-1676.01 1425.71,-1666.97 1422.32,-1658.48"/>
<polygon fill="black" stroke="black" points="1425.68,-1657.47 1419,-1649.24 1419.09,-1659.83 1425.68,-1657.47"/>
<text xml:space="preserve" text-anchor="middle" x="1440.5" y="-1670" font-family="Times,serif" font-size="14.00">1</text>
</g>
<!-- 7&#45;&gt;3 -->
<g id="edge35" class="edge">
<title>7&#45;&gt;3</title>
<path fill="none" stroke="black" d="M1485.9,-1737.66C1487.66,-1755.25 1490,-1783.26 1490,-1807.55 1490,-2077.3 1490,-2077.3 1490,-2077.3 1490,-2140.31 1010.43,-2159.31 869.5,-2163.54"/>
<polygon fill="black" stroke="black" points="869.47,-2160.04 859.58,-2163.82 869.67,-2167.03 869.47,-2160.04"/>
<text xml:space="preserve" text-anchor="middle" x="1494.5" y="-1937.75" font-family="Times,serif" font-size="14.00">0</text>
</g>
<!-- 7&#45;&gt;4 -->
<g id="edge140" class="edge">
<title>7&#45;&gt;4</title>
<path fill="none" stroke="black" d="M1509.29,-1712.31C1573.26,-1697.14 1741.66,-1657.21 1815.93,-1639.6"/>
<polygon fill="black" stroke="black" points="1816.62,-1643.04 1825.54,-1637.33 1815.01,-1636.23 1816.62,-1643.04"/>
<text xml:space="preserve" text-anchor="middle" x="1705.46" y="-1670" font-family="Times,serif" font-size="14.00">4</text>
</g>
<!-- 7&#45;&gt;15 -->
<g id="edge28" class="edge">
<title>7&#45;&gt;15</title>
<path fill="none" stroke="black" d="M1462,-1730.21C1396.28,-1759.8 1201.24,-1847.62 1124.01,-1882.39"/>
<polygon fill="black" stroke="black" points="1122.98,-1879.02 1115.3,-1886.31 1125.85,-1885.4 1122.98,-1879.02"/>
<text xml:space="preserve" text-anchor="middle" x="1331.47" y="-1803.88" font-family="Times,serif" font-size="14.00">3</text>
</g>
<!-- 25 -->
<g id="node27" class="node">
<title>25</title>
<ellipse fill="none" stroke="black" cx="1800" cy="-404.55" rx="27" ry="18"/>
<text xml:space="preserve" text-anchor="middle" x="1800" y="-399.88" font-family="Times,serif" font-size="14.00">25</text>
</g>
<!-- 7&#45;&gt;25 -->
<g id="edge14" class="edge">
<title>7&#45;&gt;25</title>
<path fill="none" stroke="black" d="M1484.72,-1701.06C1486.72,-1660.1 1493.61,-1553.93 1514,-1467.85 1545.12,-1336.49 1573.13,-1309.77 1617,-1182.1 1652.33,-1079.29 1665.57,-1054.8 1693,-949.6 1743.82,-754.68 1783.05,-514.91 1795.68,-433.85"/>
<polygon fill="black" stroke="black" points="1799.12,-434.56 1797.19,-424.14 1792.2,-433.49 1799.12,-434.56"/>
<text xml:space="preserve" text-anchor="middle" x="1665.84" y="-1070.18" font-family="Times,serif" font-size="14.00">2</text>
</g>
<!-- 8&#45;&gt;0 -->
<g id="edge104" class="edge">
<title>8&#45;&gt;0</title>
<path fill="none" stroke="black" d="M2080.72,-822.67C2085.94,-828.57 2091.4,-835.73 2095,-843.1 2099.63,-852.58 2258,-1573.89 2258,-1584.43 2258,-2166.55 2258,-2166.55 2258,-2166.55 2258,-2212.14 2110.7,-2238.77 2039.57,-2248.97"/>
<polygon fill="black" stroke="black" points="2039.35,-2245.47 2029.93,-2250.32 2040.32,-2252.4 2039.35,-2245.47"/>
<text xml:space="preserve" text-anchor="middle" x="2257.3" y="-1526.28" font-family="Times,serif" font-size="14.00">4</text>
</g>
<!-- 8&#45;&gt;6 -->
<g id="edge23" class="edge">
<title>8&#45;&gt;6</title>
<path fill="none" stroke="black" d="M2038.99,-804.38C1861.57,-793.08 864.21,-729.52 667.64,-717"/>
<polygon fill="black" stroke="black" points="668.08,-713.52 657.87,-716.37 667.63,-720.5 668.08,-713.52"/>
<text xml:space="preserve" text-anchor="middle" x="1482.76" y="-757.8" font-family="Times,serif" font-size="14.00">0</text>
</g>
<!-- 8&#45;&gt;25 -->
<g id="edge54" class="edge">
<title>8&#45;&gt;25</title>
<path fill="none" stroke="black" d="M2070.29,-789.2C2082.37,-737.4 2111.21,-578.7 2038,-485.65 1989.75,-424.33 1892.65,-409.6 1838.58,-406.29"/>
<polygon fill="black" stroke="black" points="1838.76,-402.79 1828.6,-405.79 1838.41,-409.78 1838.76,-402.79"/>
<text xml:space="preserve" text-anchor="middle" x="2090.24" y="-611.93" font-family="Times,serif" font-size="14.00">3</text>
</g>
<!-- 8&#45;&gt;26 -->
<g id="edge10" class="edge">
<title>8&#45;&gt;26</title>
<path fill="none" stroke="black" d="M2043.74,-817.69C1968.54,-850.01 1716.9,-957.4 1506,-1038.85 1485.3,-1046.85 1461.9,-1055.31 1443.27,-1061.91"/>
<polygon fill="black" stroke="black" points="1442.32,-1058.53 1434.06,-1065.15 1444.65,-1065.13 1442.32,-1058.53"/>
<text xml:space="preserve" text-anchor="middle" x="1771.11" y="-936.3" font-family="Times,serif" font-size="14.00">1</text>
</g>
<!-- 8&#45;&gt;27 -->
<g id="edge90" class="edge">
<title>8&#45;&gt;27</title>
<path fill="none" stroke="black" d="M2062.39,-825.08C2057.4,-850.11 2049,-898.42 2049,-939.98 2049,-1209.73 2049,-1209.73 2049,-1209.73 2049,-1317.45 2054.4,-1345.72 2082,-1449.85 2098.51,-1512.15 2136,-1519.98 2136,-1584.43 2136,-1764.93 2136,-1764.93 2136,-1764.93 2136,-1903.25 2083.85,-1937.78 1991,-2040.3 1984.7,-2047.26 1976.74,-2053.45 1968.91,-2058.63"/>
<polygon fill="black" stroke="black" points="1967.16,-2055.59 1960.49,-2063.82 1970.84,-2061.55 1967.16,-2055.59"/>
<text xml:space="preserve" text-anchor="middle" x="2086.5" y="-1427.18" font-family="Times,serif" font-size="14.00">2</text>
</g>
<!-- 9&#45;&gt;5 -->
<g id="edge138" class="edge">
<title>9&#45;&gt;5</title>
<path fill="none" stroke="black" d="M629.81,-615.51C579.52,-614.17 455.34,-604.25 380,-541.35 308.04,-481.28 289,-444.82 289,-351.08 289,-351.08 289,-351.08 289,-116.1 289,-93.04 289,-66.89 289,-47.54"/>
<polygon fill="black" stroke="black" points="292.5,-47.7 289,-37.7 285.5,-47.7 292.5,-47.7"/>
<text xml:space="preserve" text-anchor="middle" x="293.5" y="-300.78" font-family="Times,serif" font-size="14.00">2</text>
</g>
<!-- 12 -->
<g id="node14" class="node">
<title>12</title>
<ellipse fill="none" stroke="black" cx="716" cy="-513.5" rx="23.85" ry="23.85"/>
<ellipse fill="none" stroke="black" cx="716" cy="-513.5" rx="27.85" ry="27.85"/>
<text xml:space="preserve" text-anchor="middle" x="716" y="-508.83" font-family="Times,serif" font-size="14.00">12</text>
</g>
<!-- 9&#45;&gt;12 -->
<g id="edge106" class="edge">
<title>9&#45;&gt;12</title>
<path fill="none" stroke="black" d="M649.92,-594.38C649.79,-583.3 651.17,-569.91 657,-559.35 660.39,-553.22 671.57,-544.19 683.3,-535.84"/>
<polygon fill="black" stroke="black" points="685.2,-538.78 691.44,-530.21 681.22,-533.02 685.2,-538.78"/>
<text xml:space="preserve" text-anchor="middle" x="661.5" y="-563.3" font-family="Times,serif" font-size="14.00">1</text>
</g>
<!-- 20 -->
<g id="node22" class="node">
<title>20</title>
<ellipse fill="none" stroke="black" cx="1093" cy="-305.45" rx="27" ry="18"/>
<text xml:space="preserve" text-anchor="middle" x="1093" y="-300.78" font-family="Times,serif" font-size="14.00">20</text>
</g>
<!-- 9&#45;&gt;20 -->
<g id="edge39" class="edge">
<title>9&#45;&gt;20</title>
<path fill="none" stroke="black" d="M649.03,-594.35C642.83,-540.22 635.35,-397.5 719,-341.45 759.57,-314.27 889.39,-328.11 938,-323.45 978.02,-319.61 1023.78,-314.5 1055.14,-310.89"/>
<polygon fill="black" stroke="black" points="1055.38,-314.39 1064.91,-309.76 1054.58,-307.44 1055.38,-314.39"/>
<text xml:space="preserve" text-anchor="middle" x="658.09" y="-454.35" font-family="Times,serif" font-size="14.00">3</text>
</g>
<!-- 9&#45;&gt;20 -->
<g id="edge111" class="edge">
<title>9&#45;&gt;20</title>
<path fill="none" stroke="black" d="M672.38,-607.82C697.03,-597.13 737.18,-575.28 753,-541.35 763.46,-518.91 755.7,-510.26 753,-485.65 752.11,-477.51 749.89,-475.8 749,-467.65 748.16,-460.03 746.34,-457.59 749,-450.4 763.92,-409.98 775.36,-399.38 812,-376.7 889.24,-328.89 997.4,-313.57 1054.37,-308.7"/>
<polygon fill="black" stroke="black" points="1054.52,-312.2 1064.22,-307.93 1053.97,-305.22 1054.52,-312.2"/>
<text xml:space="preserve" text-anchor="middle" x="753.5" y="-454.35" font-family="Times,serif" font-size="14.00">0</text>
</g>
<!-- 9&#45;&gt;22 -->
<g id="edge131" class="edge">
<title>9&#45;&gt;22</title>
<path fill="none" stroke="black" d="M674.33,-614.61C743.4,-611.53 959.74,-601.95 1139,-594.6 1344.76,-586.17 1398.09,-605.39 1602,-576.6 1680.89,-565.47 1771.03,-540.09 1819.23,-525.45"/>
<polygon fill="black" stroke="black" points="1820.01,-528.87 1828.55,-522.6 1817.96,-522.18 1820.01,-528.87"/>
<text xml:space="preserve" text-anchor="middle" x="1690.58" y="-563.3" font-family="Times,serif" font-size="14.00">4</text>
</g>
<!-- 10&#45;&gt;6 -->
<g id="edge105" class="edge">
<title>10&#45;&gt;6</title>
<path fill="none" stroke="black" d="M1247.3,-888.39C1224.45,-881.77 1189.64,-871.24 1160,-860.35 1083.87,-832.39 1069.41,-813.29 992,-789.1 875.03,-752.56 730.88,-728.91 667.07,-719.48"/>
<polygon fill="black" stroke="black" points="667.66,-716.03 657.26,-718.06 666.65,-722.96 667.66,-716.03"/>
<text xml:space="preserve" text-anchor="middle" x="1084.02" y="-802.43" font-family="Times,serif" font-size="14.00">0</text>
</g>
<!-- 10&#45;&gt;8 -->
<g id="edge33" class="edge">
<title>10&#45;&gt;8</title>
<path fill="none" stroke="black" d="M1298.42,-892.45C1415.82,-879.55 1890.48,-827.39 2028.31,-812.24"/>
<polygon fill="black" stroke="black" points="2028.42,-815.75 2037.98,-811.18 2027.66,-808.79 2028.42,-815.75"/>
<text xml:space="preserve" text-anchor="middle" x="1744.62" y="-847.05" font-family="Times,serif" font-size="14.00">2</text>
</g>
<!-- 10&#45;&gt;12 -->
<g id="edge69" class="edge">
<title>10&#45;&gt;12</title>
<path fill="none" stroke="black" d="M1253.5,-882.68C1172.82,-827.41 851.16,-607.08 748.01,-536.43"/>
<polygon fill="black" stroke="black" points="750.2,-533.69 739.97,-530.92 746.24,-539.46 750.2,-533.69"/>
<text xml:space="preserve" text-anchor="middle" x="1042.49" y="-709.18" font-family="Times,serif" font-size="14.00">1</text>
</g>
<!-- 10&#45;&gt;16 -->
<g id="edge25" class="edge">
<title>10&#45;&gt;16</title>
<path fill="none" stroke="black" d="M1270.61,-914.49C1269.07,-925.28 1265.83,-939.1 1259,-949.6 1254.79,-956.07 1248.98,-961.84 1242.92,-966.74"/>
<polygon fill="black" stroke="black" points="1241.23,-963.64 1235.26,-972.39 1245.38,-969.28 1241.23,-963.64"/>
<text xml:space="preserve" text-anchor="middle" x="1270.81" y="-936.3" font-family="Times,serif" font-size="14.00">4</text>
</g>
<!-- 10&#45;&gt;18 -->
<g id="edge136" class="edge">
<title>10&#45;&gt;18</title>
<path fill="none" stroke="black" d="M1270.78,-878.09C1263.73,-778.79 1228.34,-283.59 1221,-252.2 1220.38,-249.57 1219.6,-246.87 1218.72,-244.2"/>
<polygon fill="black" stroke="black" points="1222.07,-243.15 1215.28,-235.02 1215.51,-245.61 1222.07,-243.15"/>
<text xml:space="preserve" text-anchor="middle" x="1253.09" y="-563.3" font-family="Times,serif" font-size="14.00">3</text>
</g>
<!-- 11&#45;&gt;13 -->
<g id="edge77" class="edge">
<title>11&#45;&gt;13</title>
<path fill="none" stroke="black" d="M369.04,-1250.11C512.67,-1238.18 1186.11,-1182.28 1354.67,-1168.28"/>
<polygon fill="black" stroke="black" points="1354.96,-1171.77 1364.63,-1167.46 1354.38,-1164.8 1354.96,-1171.77"/>
<text xml:space="preserve" text-anchor="middle" x="966.14" y="-1204.05" font-family="Times,serif" font-size="14.00">2</text>
</g>
<!-- 11&#45;&gt;17 -->
<g id="edge45" class="edge">
<title>11&#45;&gt;17</title>
<path fill="none" stroke="black" d="M332.83,-1270.58C330.06,-1276.33 327.39,-1282.95 326,-1289.35 324.37,-1296.84 325.69,-1298.94 326,-1306.6 330.67,-1422.43 304.17,-1729.79 368,-1826.55 368.22,-1826.88 468.66,-1879.6 469,-1879.8 518.49,-1909.08 524.74,-1927.07 577,-1951.05 604.7,-1963.76 638.05,-1972.9 663.04,-1978.65"/>
<polygon fill="black" stroke="black" points="662.23,-1982.06 672.75,-1980.8 663.74,-1975.22 662.23,-1982.06"/>
<text xml:space="preserve" text-anchor="middle" x="332.25" y="-1625.38" font-family="Times,serif" font-size="14.00">0</text>
</g>
<!-- 23 -->
<g id="node25" class="node">
<title>23</title>
<ellipse fill="none" stroke="black" cx="849" cy="-404.55" rx="23.85" ry="23.85"/>
<ellipse fill="none" stroke="black" cx="849" cy="-404.55" rx="27.85" ry="27.85"/>
<text xml:space="preserve" text-anchor="middle" x="849" y="-399.88" font-family="Times,serif" font-size="14.00">23</text>
</g>
<!-- 11&#45;&gt;23 -->
<g id="edge86" class="edge">
<title>11&#45;&gt;23</title>
<path fill="none" stroke="black" d="M342,-1234.97C342,-1217.36 342,-1189.34 342,-1165.1 342,-1165.1 342,-1165.1 342,-939.98 342,-872.63 311.63,-854.43 328,-789.1 354.93,-681.61 397.28,-663.59 484,-594.6 551.91,-540.59 569.2,-526.02 646,-485.65 701.6,-456.42 770.33,-431.46 811.86,-417.49"/>
<polygon fill="black" stroke="black" points="812.75,-420.89 821.13,-414.41 810.54,-414.24 812.75,-420.89"/>
<text xml:space="preserve" text-anchor="middle" x="332.37" y="-847.05" font-family="Times,serif" font-size="14.00">1</text>
</g>
<!-- 11&#45;&gt;24 -->
<g id="edge76" class="edge">
<title>11&#45;&gt;24</title>
<path fill="none" stroke="black" d="M334.1,-1270.62C329.9,-1281.86 327.07,-1296.54 335,-1306.6 348.2,-1323.34 404.14,-1332.98 442.81,-1337.76"/>
<polygon fill="black" stroke="black" points="442.35,-1341.23 452.69,-1338.91 443.16,-1334.27 442.35,-1341.23"/>
<text xml:space="preserve" text-anchor="middle" x="339.5" y="-1293.3" font-family="Times,serif" font-size="14.00">4</text>
</g>
<!-- 11&#45;&gt;24 -->
<g id="edge98" class="edge">
<title>11&#45;&gt;24</title>
<path fill="none" stroke="black" d="M346.18,-1271.15C349.86,-1282.65 356.33,-1297.41 367,-1306.6 388.16,-1324.84 418.68,-1333.57 442.82,-1337.76"/>
<polygon fill="black" stroke="black" points="442.18,-1341.2 452.59,-1339.24 443.23,-1334.28 442.18,-1341.2"/>
<text xml:space="preserve" text-anchor="middle" x="371.5" y="-1293.3" font-family="Times,serif" font-size="14.00">3</text>
</g>
<!-- 12&#45;&gt;9 -->
<g id="edge24" class="edge">
<title>12&#45;&gt;9</title>
<path fill="none" stroke="black" d="M697.81,-535.25C691.78,-542.6 685.27,-551.11 680,-559.35 674.69,-567.65 669.65,-577.09 665.34,-585.84"/>
<polygon fill="black" stroke="black" points="662.27,-584.14 661.13,-594.67 668.59,-587.15 662.27,-584.14"/>
<text xml:space="preserve" text-anchor="middle" x="684.5" y="-563.3" font-family="Times,serif" font-size="14.00">4</text>
</g>
<!-- 12&#45;&gt;9 -->
<g id="edge118" class="edge">
<title>12&#45;&gt;9</title>
<path fill="none" stroke="black" d="M707.12,-540.31C702.56,-551.89 696.4,-565.43 689,-576.6 685.24,-582.29 680.61,-587.9 675.92,-593.02"/>
<polygon fill="black" stroke="black" points="673.59,-590.4 669.16,-600.02 678.62,-595.26 673.59,-590.4"/>
<text xml:space="preserve" text-anchor="middle" x="702.69" y="-563.3" font-family="Times,serif" font-size="14.00">2</text>
</g>
<!-- 12&#45;&gt;13 -->
<g id="edge78" class="edge">
<title>12&#45;&gt;13</title>
<path fill="none" stroke="black" d="M732.05,-536.22C736.91,-543.37 742.01,-551.5 746,-559.35 802.92,-671.47 784.67,-713.72 843,-825.1 881.25,-898.13 985.87,-1086.44 1057,-1128.1 1106.64,-1157.18 1277.52,-1162.24 1354.67,-1163.02"/>
<polygon fill="black" stroke="black" points="1354.24,-1166.52 1364.26,-1163.1 1354.29,-1159.52 1354.24,-1166.52"/>
<text xml:space="preserve" text-anchor="middle" x="866.29" y="-847.05" font-family="Times,serif" font-size="14.00">0</text>
</g>
<!-- 12&#45;&gt;20 -->
<g id="edge99" class="edge">
<title>12&#45;&gt;20</title>
<path fill="none" stroke="black" d="M709.93,-486.11C702.82,-447.54 696.74,-376.58 738,-341.45 754.99,-326.99 915.8,-325.67 938,-323.45 978.01,-319.46 1023.77,-314.37 1055.14,-310.81"/>
<polygon fill="black" stroke="black" points="1055.37,-314.31 1064.91,-309.7 1054.58,-307.35 1055.37,-314.31"/>
<text xml:space="preserve" text-anchor="middle" x="717.8" y="-399.88" font-family="Times,serif" font-size="14.00">3</text>
</g>
<!-- 12&#45;&gt;23 -->
<g id="edge70" class="edge">
<title>12&#45;&gt;23</title>
<path fill="none" stroke="black" d="M734.79,-492.8C747.35,-480.08 764.52,-463.53 781,-450.4 791.86,-441.74 804.4,-433.13 815.73,-425.79"/>
<polygon fill="black" stroke="black" points="817.46,-428.84 824.02,-420.52 813.71,-422.93 817.46,-428.84"/>
<text xml:space="preserve" text-anchor="middle" x="785.5" y="-454.35" font-family="Times,serif" font-size="14.00">1</text>
</g>
<!-- 13&#45;&gt;1 -->
<g id="edge149" class="edge">
<title>13&#45;&gt;1</title>
<path fill="none" stroke="black" d="M1387.71,-1181.97C1382.72,-1199.4 1376,-1227.51 1376,-1252.35 1376,-1531.95 1376,-1531.95 1376,-1531.95 1376,-1557.49 1387.54,-1584.38 1397.91,-1603.36"/>
<polygon fill="black" stroke="black" points="1394.84,-1605.06 1402.86,-1611.99 1400.91,-1601.57 1394.84,-1605.06"/>
<text xml:space="preserve" text-anchor="middle" x="1380.5" y="-1382.55" font-family="Times,serif" font-size="14.00">4</text>
</g>
<!-- 13&#45;&gt;9 -->
<g id="edge46" class="edge">
<title>13&#45;&gt;9</title>
<path fill="none" stroke="black" d="M1365.7,-1162.85C1291.67,-1161.81 1088.66,-1156.38 1029,-1128.1 954.06,-1092.57 814.29,-929.83 769,-860.35 724.04,-791.37 728.66,-765.58 692,-691.85 684.42,-676.6 675.46,-659.87 667.95,-646.17"/>
<polygon fill="black" stroke="black" points="671.16,-644.74 663.27,-637.67 665.03,-648.12 671.16,-644.74"/>
<text xml:space="preserve" text-anchor="middle" x="812.59" y="-891.68" font-family="Times,serif" font-size="14.00">0</text>
</g>
<!-- 13&#45;&gt;20 -->
<g id="edge26" class="edge">
<title>13&#45;&gt;20</title>
<path fill="none" stroke="black" d="M1406.11,-1148C1448.14,-1097.71 1574.27,-931.11 1531,-789.1 1490.14,-655 1197.29,-393.69 1180,-376.7 1163.34,-360.32 1159.13,-356.19 1141,-341.45 1134.4,-336.08 1127.07,-330.54 1120.16,-325.49"/>
<polygon fill="black" stroke="black" points="1122.5,-322.87 1112.34,-319.86 1118.41,-328.55 1122.5,-322.87"/>
<text xml:space="preserve" text-anchor="middle" x="1528.83" y="-757.8" font-family="Times,serif" font-size="14.00">1</text>
</g>
<!-- 13&#45;&gt;26 -->
<g id="edge11" class="edge">
<title>13&#45;&gt;26</title>
<path fill="none" stroke="black" d="M1396.16,-1145.86C1398.33,-1134.03 1401.26,-1118.06 1403.77,-1104.35"/>
<polygon fill="black" stroke="black" points="1407.21,-1105.01 1405.57,-1094.54 1400.33,-1103.75 1407.21,-1105.01"/>
<text xml:space="preserve" text-anchor="middle" x="1406.93" y="-1114.8" font-family="Times,serif" font-size="14.00">3</text>
</g>
<!-- 13&#45;&gt;26 -->
<g id="edge53" class="edge">
<title>13&#45;&gt;26</title>
<path fill="none" stroke="black" d="M1388.84,-1145.9C1387.04,-1135.58 1385.96,-1122.28 1389,-1110.85 1389.84,-1107.68 1391.05,-1104.5 1392.45,-1101.41"/>
<polygon fill="black" stroke="black" points="1395.43,-1103.27 1397.06,-1092.8 1389.26,-1099.97 1395.43,-1103.27"/>
<text xml:space="preserve" text-anchor="middle" x="1393.5" y="-1114.8" font-family="Times,serif" font-size="14.00">2</text>
</g>
<!-- 14 -->
<g id="node16" class="node">
<title>14</title>
<ellipse fill="none" stroke="black" cx="1414" cy="-404.55" rx="27" ry="18"/>
<text xml:space="preserve" text-anchor="middle" x="1414" y="-399.88" font-family="Times,serif" font-size="14.00">14</text>
</g>
<!-- 14&#45;&gt;10 -->
<g id="edge84" class="edge">
<title>14&#45;&gt;10</title>
<path fill="none" stroke="black" d="M1418.61,-422.75C1435.03,-488.06 1484.07,-723.84 1377,-860.35 1368.34,-871.4 1335.35,-881.24 1308.64,-887.65"/>
<polygon fill="black" stroke="black" points="1308.09,-884.18 1299.13,-889.84 1309.66,-891 1308.09,-884.18"/>
<text xml:space="preserve" text-anchor="middle" x="1447.71" y="-660.55" font-family="Times,serif" font-size="14.00">1</text>
</g>
<!-- 14&#45;&gt;11 -->
<g id="edge62" class="edge">
<title>14&#45;&gt;11</title>
<path fill="none" stroke="black" d="M1387.3,-408.35C1256.27,-422.08 687.27,-481.89 679,-485.65 666.26,-491.45 501.89,-645.05 494,-656.6 455.86,-712.45 383,-872.35 383,-939.98 383,-1165.1 383,-1165.1 383,-1165.1 383,-1187.91 371.38,-1211.15 360.52,-1227.91"/>
<polygon fill="black" stroke="black" points="357.93,-1225.5 355.16,-1235.73 363.7,-1229.46 357.93,-1225.5"/>
<text xml:space="preserve" text-anchor="middle" x="409.42" y="-847.05" font-family="Times,serif" font-size="14.00">2</text>
</g>
<!-- 14&#45;&gt;18 -->
<g id="edge108" class="edge">
<title>14&#45;&gt;18</title>
<path fill="none" stroke="black" d="M1403.63,-387.6C1393.12,-371.44 1376.42,-345.72 1362,-323.45 1341.52,-291.81 1345.91,-275.13 1316,-252.2 1295.32,-236.34 1267.22,-227.55 1244.73,-222.74"/>
<polygon fill="black" stroke="black" points="1245.52,-219.33 1235.04,-220.86 1244.19,-226.2 1245.52,-219.33"/>
<text xml:space="preserve" text-anchor="middle" x="1366.5" y="-300.78" font-family="Times,serif" font-size="14.00">4</text>
</g>
<!-- 14&#45;&gt;20 -->
<g id="edge34" class="edge">
<title>14&#45;&gt;20</title>
<path fill="none" stroke="black" d="M1389.61,-396.17C1333.3,-379.14 1194.03,-337.01 1128.35,-317.14"/>
<polygon fill="black" stroke="black" points="1129.39,-313.8 1118.8,-314.26 1127.36,-320.5 1129.39,-313.8"/>
<text xml:space="preserve" text-anchor="middle" x="1267.62" y="-345.4" font-family="Times,serif" font-size="14.00">3</text>
</g>
<!-- 14&#45;&gt;29 -->
<g id="edge151" class="edge">
<title>14&#45;&gt;29</title>
<path fill="none" stroke="black" d="M1440.83,-402.24C1506.63,-397.41 1675.84,-374.82 1747,-269.45 1797.17,-195.16 1721.01,-88.73 1681.87,-42.23"/>
<polygon fill="black" stroke="black" points="1684.74,-40.2 1675.57,-34.9 1679.43,-44.77 1684.74,-40.2"/>
<text xml:space="preserve" text-anchor="middle" x="1768.06" y="-211.53" font-family="Times,serif" font-size="14.00">0</text>
</g>
<!-- 15&#45;&gt;2 -->
<g id="edge12" class="edge">
<title>15&#45;&gt;2</title>
<path fill="none" stroke="black" d="M1119.22,-1896.47C1213.08,-1895.09 1522.73,-1888.58 1618,-1861.8 1643.9,-1854.53 1670.78,-1840.02 1690.15,-1828.14"/>
<polygon fill="black" stroke="black" points="1691.94,-1831.14 1698.53,-1822.85 1688.2,-1825.22 1691.94,-1831.14"/>
<text xml:space="preserve" text-anchor="middle" x="1662.65" y="-1848.5" font-family="Times,serif" font-size="14.00">3</text>
</g>
<!-- 15&#45;&gt;16 -->
<g id="edge50" class="edge">
<title>15&#45;&gt;16</title>
<path fill="none" stroke="black" d="M1074.45,-1883.81C1055.81,-1868.38 1029,-1840.75 1029,-1809.55 1029,-1809.55 1029,-1809.55 1029,-1673.68 1029,-1638.24 1026.49,-1629.45 1025,-1594.05 1021.15,-1502.6 1018,-1479.76 1018,-1388.23 1018,-1388.23 1018,-1388.23 1018,-1163.1 1018,-1074.95 1088.04,-1076.52 1157,-1021.6 1165.25,-1015.03 1174.82,-1008.72 1183.74,-1003.31"/>
<polygon fill="black" stroke="black" points="1185.27,-1006.47 1192.11,-998.38 1181.72,-1000.43 1185.27,-1006.47"/>
<text xml:space="preserve" text-anchor="middle" x="1023.1" y="-1427.18" font-family="Times,serif" font-size="14.00">1</text>
</g>
<!-- 15&#45;&gt;17 -->
<g id="edge124" class="edge">
<title>15&#45;&gt;17</title>
<path fill="none" stroke="black" d="M1064.95,-1900.93C1019.58,-1904.89 925.51,-1914.76 848,-1933.8 807.41,-1943.78 762.32,-1960.56 732.7,-1972.41"/>
<polygon fill="black" stroke="black" points="731.5,-1969.12 723.55,-1976.12 734.13,-1975.6 731.5,-1969.12"/>
<text xml:space="preserve" text-anchor="middle" x="852.5" y="-1937.75" font-family="Times,serif" font-size="14.00">2</text>
</g>
<!-- 15&#45;&gt;19 -->
<g id="edge48" class="edge">
<title>15&#45;&gt;19</title>
<path fill="none" stroke="black" d="M1119.12,-1896.61C1259.48,-1895.5 1900.05,-1888.98 1984,-1861.8 2010.91,-1853.09 2019.2,-1848.54 2037,-1826.55 2101.53,-1746.85 2080.86,-1705.98 2122,-1612.05 2164.78,-1514.38 2186.92,-1495.06 2226,-1395.85 2257.75,-1315.23 2284,-1296.37 2284,-1209.73 2284,-1209.73 2284,-1209.73 2284,-850.73 2284,-768.79 2252.7,-753.13 2232,-673.85 2197.77,-542.77 2208.21,-504.77 2164,-376.7 2149.69,-335.26 2144.61,-325.01 2122,-287.45 2096.42,-244.96 2089.71,-233.63 2055,-198.2 2037.22,-180.05 2033.44,-172.75 2010,-162.95 1954.79,-139.86 1779.64,-125.84 1700.5,-120.53"/>
<polygon fill="black" stroke="black" points="1700.81,-117.05 1690.61,-119.89 1700.36,-124.03 1700.81,-117.05"/>
<text xml:space="preserve" text-anchor="middle" x="2288.5" y="-1025.55" font-family="Times,serif" font-size="14.00">4</text>
</g>
<!-- 15&#45;&gt;22 -->
<g id="edge144" class="edge">
<title>15&#45;&gt;22</title>
<path fill="none" stroke="black" d="M1119.07,-1896.51C1261.89,-1894.88 1922.56,-1886.03 1958,-1861.8 2106.78,-1760.1 2011,-1841.38 2011,-1209.73 2011,-1209.73 2011,-1209.73 2011,-615.6 2011,-558.82 1937.5,-532.41 1891.08,-521.39"/>
<polygon fill="black" stroke="black" points="1891.92,-517.99 1881.4,-519.24 1890.41,-524.83 1891.92,-517.99"/>
<text xml:space="preserve" text-anchor="middle" x="2015.5" y="-1204.05" font-family="Times,serif" font-size="14.00">0</text>
</g>
<!-- 16&#45;&gt;10 -->
<g id="edge100" class="edge">
<title>16&#45;&gt;10</title>
<path fill="none" stroke="black" d="M1223.88,-968.44C1230.31,-958.04 1238.98,-944.28 1247,-932.35 1249.23,-929.03 1251.63,-925.56 1254.02,-922.16"/>
<polygon fill="black" stroke="black" points="1256.78,-924.31 1259.73,-914.13 1251.08,-920.25 1256.78,-924.31"/>
<text xml:space="preserve" text-anchor="middle" x="1251.5" y="-936.3" font-family="Times,serif" font-size="14.00">2</text>
</g>
<!-- 16&#45;&gt;15 -->
<g id="edge60" class="edge">
<title>16&#45;&gt;15</title>
<path fill="none" stroke="black" d="M1208.86,-1003.62C1207.21,-1009.32 1205.45,-1015.71 1204,-1021.6 1163.53,-1186.53 1162.04,-1229.69 1127,-1395.85 1100.94,-1519.46 1067,-1547.35 1067,-1673.68 1067,-1809.55 1067,-1809.55 1067,-1809.55 1067,-1830.36 1073.65,-1852.92 1080.1,-1869.89"/>
<polygon fill="black" stroke="black" points="1076.68,-1870.78 1083.66,-1878.75 1083.18,-1868.17 1076.68,-1870.78"/>
<text xml:space="preserve" text-anchor="middle" x="1127.41" y="-1427.18" font-family="Times,serif" font-size="14.00">1</text>
</g>
<!-- 16&#45;&gt;18 -->
<g id="edge91" class="edge">
<title>16&#45;&gt;18</title>
<path fill="none" stroke="black" d="M1187.03,-983.5C1163.19,-980.92 1129.68,-973.04 1113,-949.6 1108.55,-943.36 1112.74,-940.01 1113,-932.35 1115.67,-852.88 1116.32,-832.89 1125,-753.85 1146.48,-558.25 1187.46,-324.75 1201.85,-245.27"/>
<polygon fill="black" stroke="black" points="1205.24,-246.23 1203.58,-235.77 1198.35,-244.98 1205.24,-246.23"/>
<text xml:space="preserve" text-anchor="middle" x="1149.73" y="-611.93" font-family="Times,serif" font-size="14.00">4</text>
</g>
<!-- 16&#45;&gt;19 -->
<g id="edge65" class="edge">
<title>16&#45;&gt;19</title>
<path fill="none" stroke="black" d="M1187.39,-982.35C1163.48,-978.98 1128.86,-970.57 1107,-949.6 1052.04,-896.88 1079.61,-857.92 1047,-789.1 1035.27,-764.35 1025.03,-761.71 1016,-735.85 1011.53,-723.04 939.61,-262.86 948,-252.2 990.52,-198.16 1479.26,-138.74 1622.05,-122.44"/>
<polygon fill="black" stroke="black" points="1622.21,-125.94 1631.75,-121.34 1621.42,-118.99 1622.21,-125.94"/>
<text xml:space="preserve" text-anchor="middle" x="994.18" y="-563.3" font-family="Times,serif" font-size="14.00">3</text>
</g>
<!-- 16&#45;&gt;24 -->
<g id="edge121" class="edge">
<title>16&#45;&gt;24</title>
<path fill="none" stroke="black" d="M1190.27,-994.48C1170.87,-1001.12 1142.84,-1011.2 1119,-1021.6 1007.06,-1070.46 977.02,-1080.49 874,-1146.1 852.1,-1160.05 850.14,-1168.55 828,-1182.1 796.24,-1201.54 785.81,-1201.76 752,-1217.35 665.74,-1257.13 563.87,-1303.74 513.12,-1326.93"/>
<polygon fill="black" stroke="black" points="511.81,-1323.68 504.17,-1331.02 514.72,-1330.05 511.81,-1323.68"/>
<text xml:space="preserve" text-anchor="middle" x="878.5" y="-1159.43" font-family="Times,serif" font-size="14.00">0</text>
</g>
<!-- 17&#45;&gt;15 -->
<g id="edge117" class="edge">
<title>17&#45;&gt;15</title>
<path fill="none" stroke="black" d="M725.42,-1980.4C792.93,-1965.37 976.93,-1924.41 1055.57,-1906.91"/>
<polygon fill="black" stroke="black" points="1055.91,-1910.42 1064.91,-1904.83 1054.39,-1903.59 1055.91,-1910.42"/>
<text xml:space="preserve" text-anchor="middle" x="935.61" y="-1937.75" font-family="Times,serif" font-size="14.00">1</text>
</g>
<!-- 17&#45;&gt;21 -->
<g id="edge38" class="edge">
<title>17&#45;&gt;21</title>
<path fill="none" stroke="black" d="M678.25,-1976.22C652.19,-1962.78 612,-1936.02 612,-1898.8 612,-1898.8 612,-1898.8 612,-1529.95 612,-1504.01 599.43,-1477.03 588.21,-1458.11"/>
<polygon fill="black" stroke="black" points="591.27,-1456.4 583,-1449.77 585.33,-1460.11 591.27,-1456.4"/>
<text xml:space="preserve" text-anchor="middle" x="616.5" y="-1714.63" font-family="Times,serif" font-size="14.00">0</text>
</g>
<!-- 17&#45;&gt;21 -->
<g id="edge49" class="edge">
<title>17&#45;&gt;21</title>
<path fill="none" stroke="black" d="M674.04,-1981.22C635.34,-1972.33 567,-1949.48 567,-1898.8 567,-1898.8 567,-1898.8 567,-1529.95 567,-1506.87 568.14,-1480.72 569.21,-1461.38"/>
<polygon fill="black" stroke="black" points="572.69,-1461.73 569.78,-1451.54 565.7,-1461.32 572.69,-1461.73"/>
<text xml:space="preserve" text-anchor="middle" x="571.5" y="-1714.63" font-family="Times,serif" font-size="14.00">4</text>
</g>
<!-- 17&#45;&gt;26 -->
<g id="edge112" class="edge">
<title>17&#45;&gt;26</title>
<path fill="none" stroke="black" d="M709.71,-1969.79C725.56,-1943.34 758.15,-1889.43 787,-1844.55 843.9,-1756.06 869.63,-1740.96 919,-1648.05 971.71,-1548.86 946.09,-1503.33 1014,-1413.85 1115.86,-1279.64 1190.66,-1296.88 1314,-1182.1 1342.21,-1155.85 1371.26,-1122.21 1389.68,-1099.89"/>
<polygon fill="black" stroke="black" points="1392.32,-1102.2 1395.94,-1092.25 1386.9,-1097.77 1392.32,-1102.2"/>
<text xml:space="preserve" text-anchor="middle" x="971.82" y="-1526.28" font-family="Times,serif" font-size="14.00">2</text>
</g>
<!-- 17&#45;&gt;27 -->
<g id="edge36" class="edge">
<title>17&#45;&gt;27</title>
<path fill="none" stroke="black" d="M727.19,-1988.25C868.4,-1989.4 1519.24,-1996.07 1719,-2023.05 1784.82,-2031.94 1859.75,-2052.05 1902.7,-2064.57"/>
<polygon fill="black" stroke="black" points="1901.64,-2067.91 1912.22,-2067.38 1903.62,-2061.19 1901.64,-2067.91"/>
<text xml:space="preserve" text-anchor="middle" x="1814.54" y="-2027" font-family="Times,serif" font-size="14.00">3</text>
</g>
<!-- 18&#45;&gt;1 -->
<g id="edge143" class="edge">
<title>18&#45;&gt;1</title>
<path fill="none" stroke="black" d="M1221.46,-231.9C1226.64,-237.82 1232.15,-244.95 1236,-252.2 1240.92,-261.45 1378.4,-665.37 1397,-843.1 1414.45,-1009.88 1300,-1040.04 1300,-1207.73 1300,-1531.95 1300,-1531.95 1300,-1531.95 1300,-1574.3 1346.14,-1602.06 1379.72,-1616.66"/>
<polygon fill="black" stroke="black" points="1378.12,-1619.79 1388.7,-1620.37 1380.79,-1613.32 1378.12,-1619.79"/>
<text xml:space="preserve" text-anchor="middle" x="1397.38" y="-936.3" font-family="Times,serif" font-size="14.00">3</text>
</g>
<!-- 18&#45;&gt;7 -->
<g id="edge67" class="edge">
<title>18&#45;&gt;7</title>
<path fill="none" stroke="black" d="M1180.78,-220.84C1117.58,-230.34 962,-258.4 962,-304.45 962,-460.03 962,-460.03 962,-460.03 962,-555.1 955.23,-578.78 956,-673.85 958.85,-1027.2 925.5,-1160.98 1129,-1449.85 1217.5,-1575.47 1382.72,-1667.92 1452.06,-1702.93"/>
<polygon fill="black" stroke="black" points="1450.48,-1706.05 1460.99,-1707.37 1453.6,-1699.78 1450.48,-1706.05"/>
<text xml:space="preserve" text-anchor="middle" x="963.13" y="-980.93" font-family="Times,serif" font-size="14.00">2</text>
</g>
<!-- 18&#45;&gt;11 -->
<g id="edge68" class="edge">
<title>18&#45;&gt;11</title>
<path fill="none" stroke="black" d="M1180.19,-219.29C1038.44,-230.98 378.65,-293.39 269,-450.4 195.22,-556.05 304,-900.36 304,-1029.23 304,-1165.1 304,-1165.1 304,-1165.1 304,-1187.4 314.57,-1210.44 324.55,-1227.24"/>
<polygon fill="black" stroke="black" points="321.5,-1228.96 329.79,-1235.56 327.42,-1225.23 321.5,-1228.96"/>
<text xml:space="preserve" text-anchor="middle" x="269.8" y="-757.8" font-family="Times,serif" font-size="14.00">1</text>
</g>
<!-- 18&#45;&gt;18 -->
<g id="edge18" class="edge">
<title>18&#45;&gt;18</title>
<path fill="none" stroke="black" d="M1231.53,-224.44C1242.51,-225.22 1252,-222.48 1252,-216.2 1252,-212.28 1248.29,-209.74 1242.83,-208.57"/>
<polygon fill="black" stroke="black" points="1243.22,-205.09 1233.04,-208.05 1242.84,-212.08 1243.22,-205.09"/>
<text xml:space="preserve" text-anchor="middle" x="1256.5" y="-211.53" font-family="Times,serif" font-size="14.00">0</text>
</g>
<!-- 18&#45;&gt;19 -->
<g id="edge83" class="edge">
<title>18&#45;&gt;19</title>
<path fill="none" stroke="black" d="M1234.32,-214.97C1276.77,-213.71 1360.43,-207.6 1425,-180.2 1436.76,-175.21 1436.36,-168.23 1448,-162.95 1505.07,-137.09 1577.56,-125.91 1621.56,-121.25"/>
<polygon fill="black" stroke="black" points="1621.8,-124.74 1631.4,-120.27 1621.11,-117.78 1621.8,-124.74"/>
<text xml:space="preserve" text-anchor="middle" x="1452.5" y="-166.9" font-family="Times,serif" font-size="14.00">4</text>
</g>
<!-- 19&#45;&gt;5 -->
<g id="edge122" class="edge">
<title>19&#45;&gt;5</title>
<path fill="none" stroke="black" d="M1632.97,-114.12C1459.15,-101.81 529.15,-36 327.56,-21.73"/>
<polygon fill="black" stroke="black" points="327.86,-18.24 317.64,-21.03 327.37,-25.22 327.86,-18.24"/>
<text xml:space="preserve" text-anchor="middle" x="1020.64" y="-57.95" font-family="Times,serif" font-size="14.00">0</text>
</g>
<!-- 19&#45;&gt;12 -->
<g id="edge29" class="edge">
<title>19&#45;&gt;12</title>
<path fill="none" stroke="black" d="M1632.74,-118.93C1540.91,-122.17 1243.12,-137.05 1006,-198.2 943.82,-214.23 929.66,-223.95 872,-252.2 787.58,-293.56 722.99,-285.3 701,-376.7 691.55,-416 694.51,-427.75 701,-467.65 701.46,-470.49 702.08,-473.39 702.8,-476.28"/>
<polygon fill="black" stroke="black" points="699.41,-477.16 705.55,-485.79 706.13,-475.21 699.41,-477.16"/>
<text xml:space="preserve" text-anchor="middle" x="786.17" y="-300.78" font-family="Times,serif" font-size="14.00">2</text>
</g>
<!-- 19&#45;&gt;13 -->
<g id="edge93" class="edge">
<title>19&#45;&gt;13</title>
<path fill="none" stroke="black" d="M1661,-145.31C1661,-164.77 1661,-191.6 1661,-215.2 1661,-460.03 1661,-460.03 1661,-460.03 1661,-702.8 1725.57,-791.75 1607,-1003.6 1565.87,-1077.09 1475.27,-1126.63 1426.18,-1149.18"/>
<polygon fill="black" stroke="black" points="1424.87,-1145.93 1417.18,-1153.21 1427.73,-1152.32 1424.87,-1145.93"/>
<text xml:space="preserve" text-anchor="middle" x="1678.82" y="-660.55" font-family="Times,serif" font-size="14.00">3</text>
</g>
<!-- 19&#45;&gt;15 -->
<g id="edge52" class="edge">
<title>19&#45;&gt;15</title>
<path fill="none" stroke="black" d="M1688.96,-120.75C1765.54,-128.78 1973,-155.99 1973,-215.2 1973,-763.48 1973,-763.48 1973,-763.48 1973,-868.27 1906.44,-876.31 1855,-967.6 1810.57,-1046.45 1688.26,-1238.96 1659,-1324.6 1646.31,-1361.76 1604,-1634.41 1604,-1673.68 1604,-1809.55 1604,-1809.55 1604,-1809.55 1604,-1857.55 1249.76,-1886.07 1130.59,-1894.3"/>
<polygon fill="black" stroke="black" points="1130.42,-1890.8 1120.68,-1894.98 1130.89,-1897.79 1130.42,-1890.8"/>
<text xml:space="preserve" text-anchor="middle" x="1827.85" y="-1025.55" font-family="Times,serif" font-size="14.00">4</text>
</g>
<!-- 19&#45;&gt;29 -->
<g id="edge133" class="edge">
<title>19&#45;&gt;29</title>
<path fill="none" stroke="black" d="M1661,-88.79C1661,-75.91 1661,-60.54 1661,-47.51"/>
<polygon fill="black" stroke="black" points="1664.5,-47.85 1661,-37.85 1657.5,-47.85 1664.5,-47.85"/>
<text xml:space="preserve" text-anchor="middle" x="1665.5" y="-57.95" font-family="Times,serif" font-size="14.00">1</text>
</g>
<!-- 20&#45;&gt;3 -->
<g id="edge145" class="edge">
<title>20&#45;&gt;3</title>
<path fill="none" stroke="black" d="M1066.06,-308.36C979.34,-314.55 712.08,-334.13 695,-341.45 612.58,-376.76 190,-754.37 190,-850.73 190,-1165.1 190,-1165.1 190,-1165.1 190,-1304.08 152,-1336.5 152,-1475.48 152,-1675.68 152,-1675.68 152,-1675.68 152,-1761.09 228,-1766.77 228,-1852.18 228,-2077.3 228,-2077.3 228,-2077.3 228,-2139.16 296.76,-2115.49 357,-2129.55 439.54,-2148.82 694.84,-2159.7 792.48,-2163.25"/>
<polygon fill="black" stroke="black" points="792.22,-2166.74 802.34,-2163.6 792.47,-2159.75 792.22,-2166.74"/>
<text xml:space="preserve" text-anchor="middle" x="190.55" y="-1248.68" font-family="Times,serif" font-size="14.00">4</text>
</g>
<!-- 20&#45;&gt;15 -->
<g id="edge130" class="edge">
<title>20&#45;&gt;15</title>
<path fill="none" stroke="black" d="M1114.68,-316.39C1171.89,-342.82 1325.5,-415.23 1369,-450.4 1501.49,-557.52 1593,-591.11 1593,-761.48 1593,-941.98 1593,-941.98 1593,-941.98 1593,-1136.77 1568.88,-1184.31 1555,-1378.6 1542.51,-1553.52 1642.72,-1635.75 1533,-1772.55 1481.7,-1836.51 1227.04,-1878.03 1129.82,-1891.78"/>
<polygon fill="black" stroke="black" points="1129.42,-1888.3 1120,-1893.15 1130.38,-1895.23 1129.42,-1888.3"/>
<text xml:space="preserve" text-anchor="middle" x="1589.43" y="-1114.8" font-family="Times,serif" font-size="14.00">3</text>
</g>
<!-- 20&#45;&gt;16 -->
<g id="edge95" class="edge">
<title>20&#45;&gt;16</title>
<path fill="none" stroke="black" d="M1095.46,-323.75C1099.12,-348.2 1106.69,-394.14 1117,-432.4 1136.87,-506.18 1157.32,-520.03 1174,-594.6 1203.73,-727.51 1211.42,-890.93 1213.36,-955.95"/>
<polygon fill="black" stroke="black" points="1209.86,-955.85 1213.63,-965.75 1216.86,-955.66 1209.86,-955.85"/>
<text xml:space="preserve" text-anchor="middle" x="1193.15" y="-660.55" font-family="Times,serif" font-size="14.00">1</text>
</g>
<!-- 20&#45;&gt;17 -->
<g id="edge71" class="edge">
<title>20&#45;&gt;17</title>
<path fill="none" stroke="black" d="M1093.3,-323.9C1094.21,-395.38 1094.67,-665.32 1051,-735.85 1027.54,-773.76 991.55,-752.57 966,-789.1 896.26,-888.79 927.36,-936.58 909,-1056.85 898.19,-1127.68 911.25,-1147.81 894,-1217.35 883.66,-1259.03 877.23,-1268.72 857,-1306.6 843.41,-1332.05 838.6,-1337.75 821,-1360.6 782.14,-1411.04 754.96,-1411.14 726,-1467.85 701.86,-1515.13 700,-1531.34 700,-1584.43 700,-1898.8 700,-1898.8 700,-1898.8 700,-1918.31 700,-1940.26 700,-1957.27"/>
<polygon fill="black" stroke="black" points="696.5,-1957.16 700,-1967.16 703.5,-1957.16 696.5,-1957.16"/>
<text xml:space="preserve" text-anchor="middle" x="908.27" y="-1159.43" font-family="Times,serif" font-size="14.00">0</text>
</g>
<!-- 20&#45;&gt;18 -->
<g id="edge87" class="edge">
<title>20&#45;&gt;18</title>
<path fill="none" stroke="black" d="M1110.31,-291.2C1129.09,-276.83 1159.26,-253.74 1180.91,-237.17"/>
<polygon fill="black" stroke="black" points="1182.88,-240.07 1188.69,-231.21 1178.63,-234.51 1182.88,-240.07"/>
<text xml:space="preserve" text-anchor="middle" x="1164.71" y="-256.15" font-family="Times,serif" font-size="14.00">2</text>
</g>
<!-- 21&#45;&gt;2 -->
<g id="edge4" class="edge">
<title>21&#45;&gt;2</title>
<path fill="none" stroke="black" d="M589.62,-1445.42C674.84,-1502.64 1028.96,-1737.34 1156,-1772.55 1206.09,-1786.44 1560.89,-1801.41 1679.5,-1806.08"/>
<polygon fill="black" stroke="black" points="1679.22,-1809.57 1689.35,-1806.46 1679.49,-1802.58 1679.22,-1809.57"/>
<text xml:space="preserve" text-anchor="middle" x="910.58" y="-1625.38" font-family="Times,serif" font-size="14.00">4</text>
</g>
<!-- 21&#45;&gt;2 -->
<g id="edge63" class="edge">
<title>21&#45;&gt;2</title>
<path fill="none" stroke="black" d="M593.72,-1442.22C625.23,-1455.32 683.86,-1480.1 733,-1503.1 894.33,-1578.61 922.54,-1625.42 1091,-1683.3 1307.07,-1757.55 1581.13,-1792.74 1680.16,-1803.67"/>
<polygon fill="black" stroke="black" points="1679.53,-1807.12 1689.85,-1804.72 1680.28,-1800.16 1679.53,-1807.12"/>
<text xml:space="preserve" text-anchor="middle" x="1004.75" y="-1625.38" font-family="Times,serif" font-size="14.00">2</text>
</g>
<!-- 21&#45;&gt;3 -->
<g id="edge128" class="edge">
<title>21&#45;&gt;3</title>
<path fill="none" stroke="black" d="M544.04,-1435.47C494.95,-1441.87 396,-1463.07 396,-1529.95 396,-1764.93 396,-1764.93 396,-1764.93 396,-1828.43 341,-1833.3 341,-1896.8 341,-2077.3 341,-2077.3 341,-2077.3 341,-2112 367.14,-2115.82 399,-2129.55 469.17,-2159.81 699.9,-2164.09 792.27,-2164.56"/>
<polygon fill="black" stroke="black" points="792.07,-2168.06 802.08,-2164.6 792.09,-2161.06 792.07,-2168.06"/>
<text xml:space="preserve" text-anchor="middle" x="396.85" y="-1803.88" font-family="Times,serif" font-size="14.00">3</text>
</g>
<!-- 21&#45;&gt;12 -->
<g id="edge40" class="edge">
<title>21&#45;&gt;12</title>
<path fill="none" stroke="black" d="M571.63,-1413.47C572.22,-1395.87 573,-1367.84 573,-1343.6 573,-1343.6 573,-1343.6 573,-1118.48 573,-1066.99 564.22,-1054.71 558,-1003.6 552.26,-956.43 546,-944.87 546,-897.35 546,-897.35 546,-897.35 546,-761.48 546,-699.77 585.66,-690.84 637,-656.6 655.26,-644.42 667.08,-653.72 683,-638.6 706.05,-616.7 713.66,-580.68 715.88,-553.08"/>
<polygon fill="black" stroke="black" points="719.36,-553.52 716.44,-543.34 712.37,-553.12 719.36,-553.52"/>
<text xml:space="preserve" text-anchor="middle" x="562.5" y="-980.93" font-family="Times,serif" font-size="14.00">1</text>
</g>
<!-- 21&#45;&gt;24 -->
<g id="edge27" class="edge">
<title>21&#45;&gt;24</title>
<path fill="none" stroke="black" d="M556.97,-1415.96C546.86,-1405.36 532.81,-1390.88 520,-1378.6 515.32,-1374.12 510.23,-1369.42 505.31,-1364.97"/>
<polygon fill="black" stroke="black" points="507.69,-1362.4 497.91,-1358.34 503.02,-1367.62 507.69,-1362.4"/>
<text xml:space="preserve" text-anchor="middle" x="541.64" y="-1382.55" font-family="Times,serif" font-size="14.00">0</text>
</g>
<!-- 22&#45;&gt;1 -->
<g id="edge59" class="edge">
<title>22&#45;&gt;1</title>
<path fill="none" stroke="black" d="M1849.88,-531.77C1828.33,-622.07 1728.6,-1037.89 1707,-1092.85 1625.46,-1300.3 1480.39,-1528.43 1431,-1603.54"/>
<polygon fill="black" stroke="black" points="1428.11,-1601.57 1425.52,-1611.85 1433.95,-1605.43 1428.11,-1601.57"/>
<text xml:space="preserve" text-anchor="middle" x="1722.81" y="-1070.18" font-family="Times,serif" font-size="14.00">3</text>
</g>
<!-- 22&#45;&gt;7 -->
<g id="edge58" class="edge">
<title>22&#45;&gt;7</title>
<path fill="none" stroke="black" d="M1854.94,-531.56C1856.39,-559.35 1859,-616.11 1859,-664.23 1859,-941.98 1859,-941.98 1859,-941.98 1859,-1050.1 1858.13,-1080.93 1820,-1182.1 1738.25,-1399.04 1562.96,-1622.67 1503.9,-1694.56"/>
<polygon fill="black" stroke="black" points="1501.3,-1692.2 1497.63,-1702.14 1506.7,-1696.66 1501.3,-1692.2"/>
<text xml:space="preserve" text-anchor="middle" x="1848.39" y="-1114.8" font-family="Times,serif" font-size="14.00">0</text>
</g>
<!-- 22&#45;&gt;14 -->
<g id="edge15" class="edge">
<title>22&#45;&gt;14</title>
<path fill="none" stroke="black" d="M1828.76,-506.37C1754.57,-488.33 1536.92,-435.43 1450.23,-414.36"/>
<polygon fill="black" stroke="black" points="1451.15,-410.98 1440.61,-412.02 1449.5,-417.78 1451.15,-410.98"/>
<text xml:space="preserve" text-anchor="middle" x="1664.84" y="-454.35" font-family="Times,serif" font-size="14.00">1</text>
</g>
<!-- 22&#45;&gt;18 -->
<g id="edge3" class="edge">
<title>22&#45;&gt;18</title>
<path fill="none" stroke="black" d="M1857.18,-495.51C1861.43,-467.17 1865.35,-410.12 1836,-376.7 1756.24,-285.89 1368.27,-235.25 1244.81,-221.24"/>
<polygon fill="black" stroke="black" points="1245.54,-217.8 1235.21,-220.17 1244.76,-224.76 1245.54,-217.8"/>
<text xml:space="preserve" text-anchor="middle" x="1818.17" y="-345.4" font-family="Times,serif" font-size="14.00">4</text>
</g>
<!-- 22&#45;&gt;25 -->
<g id="edge8" class="edge">
<title>22&#45;&gt;25</title>
<path fill="none" stroke="black" d="M1839.6,-498.29C1831.91,-489.98 1822.86,-478.94 1817,-467.65 1811.6,-457.23 1807.76,-444.91 1805.12,-434"/>
<polygon fill="black" stroke="black" points="1808.57,-433.38 1803.03,-424.35 1801.73,-434.87 1808.57,-433.38"/>
<text xml:space="preserve" text-anchor="middle" x="1821.5" y="-454.35" font-family="Times,serif" font-size="14.00">2</text>
</g>
<!-- 23&#45;&gt;7 -->
<g id="edge119" class="edge">
<title>23&#45;&gt;7</title>
<path fill="none" stroke="black" d="M856.91,-431.44C858.52,-437.6 860.01,-444.19 861,-450.4 887.14,-615.11 864.52,-659.15 881,-825.1 892.88,-944.77 896.43,-974.93 920,-1092.85 949.62,-1241.02 980.79,-1271.69 1032,-1413.85 1053.57,-1473.73 1078.79,-1644.2 1129,-1683.3 1141.38,-1692.94 1356.62,-1709.25 1445.79,-1715.63"/>
<polygon fill="black" stroke="black" points="1445.27,-1719.1 1455.5,-1716.32 1445.77,-1712.12 1445.27,-1719.1"/>
<text xml:space="preserve" text-anchor="middle" x="924.5" y="-1070.18" font-family="Times,serif" font-size="14.00">2</text>
</g>
<!-- 23&#45;&gt;12 -->
<g id="edge150" class="edge">
<title>23&#45;&gt;12</title>
<path fill="none" stroke="black" d="M831.64,-426.48C820.5,-439.21 805.29,-455.34 790,-467.65 777.91,-477.39 763.51,-486.58 750.65,-494.07"/>
<polygon fill="black" stroke="black" points="749.02,-490.97 742.05,-498.95 752.48,-497.06 749.02,-490.97"/>
<text xml:space="preserve" text-anchor="middle" x="812.02" y="-454.35" font-family="Times,serif" font-size="14.00">4</text>
</g>
<!-- 23&#45;&gt;13 -->
<g id="edge64" class="edge">
<title>23&#45;&gt;13</title>
<path fill="none" stroke="black" d="M872.13,-420.73C882.16,-428.46 893.15,-438.7 900,-450.4 1016.9,-649.97 899.52,-771.43 1047,-949.6 1135.04,-1055.96 1290.55,-1124.44 1359.02,-1150.82"/>
<polygon fill="black" stroke="black" points="1357.61,-1154.03 1368.2,-1154.3 1360.09,-1147.48 1357.61,-1154.03"/>
<text xml:space="preserve" text-anchor="middle" x="982.54" y="-802.43" font-family="Times,serif" font-size="14.00">1</text>
</g>
<!-- 23&#45;&gt;17 -->
<g id="edge116" class="edge">
<title>23&#45;&gt;17</title>
<path fill="none" stroke="black" d="M841.2,-431.71C805.81,-551.31 662,-1047.21 662,-1207.73 662,-1898.8 662,-1898.8 662,-1898.8 662,-1921.1 672.57,-1944.15 682.55,-1960.95"/>
<polygon fill="black" stroke="black" points="679.5,-1962.66 687.79,-1969.26 685.42,-1958.93 679.5,-1962.66"/>
<text xml:space="preserve" text-anchor="middle" x="666.5" y="-1204.05" font-family="Times,serif" font-size="14.00">0</text>
</g>
<!-- 23&#45;&gt;28 -->
<g id="edge61" class="edge">
<title>23&#45;&gt;28</title>
<path fill="none" stroke="black" d="M848.29,-432.76C847.96,-443.62 847.53,-456.23 847,-467.65 831.65,-800.6 777.87,-887.84 828,-1217.35 843.44,-1318.86 877.78,-1435.25 896.04,-1493.18"/>
<polygon fill="black" stroke="black" points="892.64,-1494.06 899.01,-1502.53 899.32,-1491.94 892.64,-1494.06"/>
<text xml:space="preserve" text-anchor="middle" x="812.02" y="-980.93" font-family="Times,serif" font-size="14.00">3</text>
</g>
<!-- 24&#45;&gt;11 -->
<g id="edge114" class="edge">
<title>24&#45;&gt;11</title>
<path fill="none" stroke="black" d="M456.97,-1333.79C440.03,-1327.71 417.21,-1318.34 399,-1306.6 386.13,-1298.3 373.41,-1287.03 363.27,-1277.07"/>
<polygon fill="black" stroke="black" points="365.99,-1274.85 356.47,-1270.2 361.01,-1279.77 365.99,-1274.85"/>
<text xml:space="preserve" text-anchor="middle" x="403.5" y="-1293.3" font-family="Times,serif" font-size="14.00">4</text>
</g>
<!-- 24&#45;&gt;18 -->
<g id="edge7" class="edge">
<title>24&#45;&gt;18</title>
<path fill="none" stroke="black" d="M468.86,-1326.39C451.33,-1302.85 421,-1255.51 421,-1209.73 421,-1209.73 421,-1209.73 421,-939.98 421,-896.26 430.83,-877.61 404,-843.1 392.03,-827.71 375.21,-841.05 364,-825.1 277.06,-701.42 279.95,-623.51 342,-485.65 371.97,-419.06 406.93,-420.99 465,-376.7 470.7,-372.36 512.22,-343.78 519,-341.45 610.54,-310.04 641.59,-344.72 736,-323.45 823.57,-303.72 837.85,-273.71 925,-252.2 1010.45,-231.11 1113.76,-222.42 1168.54,-219.08"/>
<polygon fill="black" stroke="black" points="1168.49,-222.59 1178.27,-218.52 1168.09,-215.6 1168.49,-222.59"/>
<text xml:space="preserve" text-anchor="middle" x="368.5" y="-802.43" font-family="Times,serif" font-size="14.00">2</text>
</g>
<!-- 24&#45;&gt;18 -->
<g id="edge123" class="edge">
<title>24&#45;&gt;18</title>
<path fill="none" stroke="black" d="M476.33,-1324.68C469.88,-1299.73 459,-1251.51 459,-1209.73 459,-1209.73 459,-1209.73 459,-939.98 459,-863.04 432.73,-847.13 421,-771.1 409.71,-697.95 414.82,-567.77 418,-559.35 456.25,-458.12 499.52,-450.14 579,-376.7 598.18,-358.98 601.69,-350.99 626,-341.45 697.55,-313.38 723.95,-344.05 798,-323.45 806.99,-320.95 941.05,-254.84 950,-252.2 970.58,-246.13 1102.92,-229.7 1169.24,-221.7"/>
<polygon fill="black" stroke="black" points="1169.42,-225.21 1178.93,-220.54 1168.58,-218.26 1169.42,-225.21"/>
<text xml:space="preserve" text-anchor="middle" x="438.4" y="-802.43" font-family="Times,serif" font-size="14.00">3</text>
</g>
<!-- 24&#45;&gt;21 -->
<g id="edge19" class="edge">
<title>24&#45;&gt;21</title>
<path fill="none" stroke="black" d="M487.76,-1360.14C492.91,-1371.23 500.83,-1385.61 511,-1395.85 518.86,-1403.77 528.88,-1410.54 538.47,-1415.95"/>
<polygon fill="black" stroke="black" points="536.76,-1419.01 547.24,-1420.58 540.03,-1412.82 536.76,-1419.01"/>
<text xml:space="preserve" text-anchor="middle" x="515.5" y="-1382.55" font-family="Times,serif" font-size="14.00">0</text>
</g>
<!-- 24&#45;&gt;24 -->
<g id="edge107" class="edge">
<title>24&#45;&gt;24</title>
<path fill="none" stroke="black" d="M505.53,-1350.84C516.51,-1351.62 526,-1348.88 526,-1342.6 526,-1338.68 522.29,-1336.14 516.83,-1334.97"/>
<polygon fill="black" stroke="black" points="517.22,-1331.49 507.04,-1334.45 516.84,-1338.48 517.22,-1331.49"/>
<text xml:space="preserve" text-anchor="middle" x="530.5" y="-1337.93" font-family="Times,serif" font-size="14.00">1</text>
</g>
<!-- 25&#45;&gt;16 -->
<g id="edge75" class="edge">
<title>25&#45;&gt;16</title>
<path fill="none" stroke="black" d="M1778.98,-416.28C1764.6,-424.33 1745.74,-436.34 1732,-450.4 1698.66,-484.52 1703.43,-503.04 1675,-541.35 1562.94,-692.38 1534.5,-732.06 1397,-860.35 1348.92,-905.21 1334.33,-914.08 1279,-949.6 1268.29,-956.48 1256.12,-963.28 1245.22,-969.04"/>
<polygon fill="black" stroke="black" points="1243.86,-965.8 1236.6,-973.51 1247.08,-972.01 1243.86,-965.8"/>
<text xml:space="preserve" text-anchor="middle" x="1564.65" y="-709.18" font-family="Times,serif" font-size="14.00">3</text>
</g>
<!-- 25&#45;&gt;19 -->
<g id="edge72" class="edge">
<title>25&#45;&gt;19</title>
<path fill="none" stroke="black" d="M1791.93,-386.97C1769.8,-341.53 1707.84,-214.28 1677.78,-152.55"/>
<polygon fill="black" stroke="black" points="1681.08,-151.35 1673.56,-143.89 1674.79,-154.41 1681.08,-151.35"/>
<text xml:space="preserve" text-anchor="middle" x="1738.21" y="-256.15" font-family="Times,serif" font-size="14.00">2</text>
</g>
<!-- 25&#45;&gt;21 -->
<g id="edge139" class="edge">
<title>25&#45;&gt;21</title>
<path fill="none" stroke="black" d="M1772.79,-406.71C1733.15,-409.47 1658.31,-418.81 1604,-450.4 1436.86,-547.63 1460.16,-649.27 1310,-771.1 1176.85,-879.13 1114.82,-864.25 978,-967.6 932.03,-1002.33 924.65,-1016.03 884,-1056.85 845.57,-1095.45 834,-1103.54 800,-1146.1 776.17,-1175.94 775.05,-1186.91 752,-1217.35 697.55,-1289.27 626.91,-1369.14 592.17,-1407.62"/>
<polygon fill="black" stroke="black" points="589.67,-1405.17 585.56,-1414.93 594.86,-1409.87 589.67,-1405.17"/>
<text xml:space="preserve" text-anchor="middle" x="1032.79" y="-936.3" font-family="Times,serif" font-size="14.00">4</text>
</g>
<!-- 25&#45;&gt;22 -->
<g id="edge81" class="edge">
<title>25&#45;&gt;22</title>
<path fill="none" stroke="black" d="M1809.79,-421.52C1814.84,-429.99 1820.98,-440.63 1826,-450.4 1831.79,-461.68 1837.65,-474.41 1842.5,-485.4"/>
<polygon fill="black" stroke="black" points="1839.17,-486.51 1846.36,-494.29 1845.58,-483.72 1839.17,-486.51"/>
<text xml:space="preserve" text-anchor="middle" x="1838.72" y="-454.35" font-family="Times,serif" font-size="14.00">0</text>
</g>
<!-- 25&#45;&gt;26 -->
<g id="edge80" class="edge">
<title>25&#45;&gt;26</title>
<path fill="none" stroke="black" d="M1787.64,-421.06C1781.43,-429.39 1774.15,-440.07 1769,-450.4 1690.78,-607.41 1727.77,-670.44 1645,-825.1 1588.11,-931.39 1571.09,-962.25 1478,-1038.85 1467.52,-1047.48 1454.56,-1054.75 1442.71,-1060.39"/>
<polygon fill="black" stroke="black" points="1441.31,-1057.18 1433.63,-1064.48 1444.18,-1063.56 1441.31,-1057.18"/>
<text xml:space="preserve" text-anchor="middle" x="1681.82" y="-757.8" font-family="Times,serif" font-size="14.00">1</text>
</g>
<!-- 26&#45;&gt;16 -->
<g id="edge43" class="edge">
<title>26&#45;&gt;16</title>
<path fill="none" stroke="black" d="M1381.93,-1073.04C1333.76,-1070.97 1236.2,-1063.73 1215,-1038.85 1209.42,-1032.3 1207.83,-1023.43 1208.05,-1014.86"/>
<polygon fill="black" stroke="black" points="1211.51,-1015.42 1209.1,-1005.1 1204.55,-1014.67 1211.51,-1015.42"/>
<text xml:space="preserve" text-anchor="middle" x="1219.5" y="-1025.55" font-family="Times,serif" font-size="14.00">2</text>
</g>
<!-- 26&#45;&gt;16 -->
<g id="edge127" class="edge">
<title>26&#45;&gt;16</title>
<path fill="none" stroke="black" d="M1381.52,-1074.19C1347.09,-1073.3 1287.68,-1067.29 1247,-1038.85 1237.93,-1032.51 1230.81,-1022.79 1225.54,-1013.45"/>
<polygon fill="black" stroke="black" points="1228.7,-1011.95 1221.06,-1004.61 1222.46,-1015.12 1228.7,-1011.95"/>
<text xml:space="preserve" text-anchor="middle" x="1251.5" y="-1025.55" font-family="Times,serif" font-size="14.00">4</text>
</g>
<!-- 26&#45;&gt;19 -->
<g id="edge115" class="edge">
<title>26&#45;&gt;19</title>
<path fill="none" stroke="black" d="M1414.75,-1056.87C1416.57,-1051.18 1418.49,-1044.78 1420,-1038.85 1439.93,-960.5 1445.58,-940.65 1455,-860.35 1475.75,-683.5 1471,-638.09 1471,-460.03 1471,-460.03 1471,-460.03 1471,-215.2 1471,-148.11 1566.1,-127.35 1621.74,-120.94"/>
<polygon fill="black" stroke="black" points="1621.87,-124.45 1631.46,-119.94 1621.15,-117.48 1621.87,-124.45"/>
<text xml:space="preserve" text-anchor="middle" x="1475.97" y="-611.93" font-family="Times,serif" font-size="14.00">3</text>
</g>
<!-- 26&#45;&gt;20 -->
<g id="edge147" class="edge">
<title>26&#45;&gt;20</title>
<path fill="none" stroke="black" d="M1408.21,-1056.51C1406.6,-1029.48 1401.95,-975.87 1389,-932.35 1361.5,-839.92 1328.77,-826.9 1297,-735.85 1270.43,-659.72 1286.52,-633.57 1255,-559.35 1216.43,-468.55 1146.39,-373.84 1112.46,-330.58"/>
<polygon fill="black" stroke="black" points="1115.3,-328.53 1106.35,-322.86 1109.81,-332.87 1115.3,-328.53"/>
<text xml:space="preserve" text-anchor="middle" x="1301.5" y="-709.18" font-family="Times,serif" font-size="14.00">0</text>
</g>
<!-- 26&#45;&gt;23 -->
<g id="edge82" class="edge">
<title>26&#45;&gt;23</title>
<path fill="none" stroke="black" d="M1393.86,-1059.72C1366.46,-1034.19 1306.78,-978.68 1256,-932.35 1247.17,-924.29 1243.78,-923.43 1236,-914.35 1119.24,-778.16 1110.84,-728.24 1015,-576.6 979.9,-521.06 986.3,-494.94 938,-450.4 923.04,-436.61 903.05,-426.02 885.8,-418.61"/>
<polygon fill="black" stroke="black" points="887.47,-415.51 876.88,-414.97 884.82,-421.99 887.47,-415.51"/>
<text xml:space="preserve" text-anchor="middle" x="1133.62" y="-757.8" font-family="Times,serif" font-size="14.00">1</text>
</g>
<!-- 27&#45;&gt;3 -->
<g id="edge129" class="edge">
<title>27&#45;&gt;3</title>
<path fill="none" stroke="black" d="M1911.07,-2079.89C1856.09,-2085.26 1727.02,-2098.28 1619,-2112.3 1567.75,-2118.96 1555.42,-2124.37 1504,-2129.55 1263.53,-2153.78 972.94,-2161.7 869.69,-2163.85"/>
<polygon fill="black" stroke="black" points="869.76,-2160.35 859.83,-2164.05 869.9,-2167.35 869.76,-2160.35"/>
<text xml:space="preserve" text-anchor="middle" x="1623.5" y="-2116.25" font-family="Times,serif" font-size="14.00">4</text>
</g>
<!-- 27&#45;&gt;4 -->
<g id="edge31" class="edge">
<title>27&#45;&gt;4</title>
<path fill="none" stroke="black" d="M1940.21,-2057.95C1942.27,-2040.37 1945,-2012.37 1945,-1988.05 1945,-1988.05 1945,-1988.05 1945,-1718.3 1945,-1684.29 1911.52,-1659.69 1884.73,-1645.44"/>
<polygon fill="black" stroke="black" points="1886.37,-1642.35 1875.87,-1640.99 1883.24,-1648.61 1886.37,-1642.35"/>
<text xml:space="preserve" text-anchor="middle" x="1949.5" y="-1848.5" font-family="Times,serif" font-size="14.00">3</text>
</g>
<!-- 27&#45;&gt;8 -->
<g id="edge120" class="edge">
<title>27&#45;&gt;8</title>
<path fill="none" stroke="black" d="M1964.16,-2071.33C2025.6,-2061.27 2174,-2032.39 2174,-1988.05 2174,-1988.05 2174,-1988.05 2174,-1584.43 2174,-1413.46 2087,-1380.69 2087,-1209.73 2087,-1209.73 2087,-1209.73 2087,-895.35 2087,-874.97 2081.52,-852.64 2076.15,-835.67"/>
<polygon fill="black" stroke="black" points="2079.51,-834.67 2073.01,-826.3 2072.87,-836.9 2079.51,-834.67"/>
<text xml:space="preserve" text-anchor="middle" x="2155.72" y="-1427.18" font-family="Times,serif" font-size="14.00">2</text>
</g>
<!-- 27&#45;&gt;14 -->
<g id="edge92" class="edge">
<title>27&#45;&gt;14</title>
<path fill="none" stroke="black" d="M1951.93,-2060.61C1962.36,-2049.85 1977.15,-2035.09 1991,-2023.05 2084.31,-1941.97 2212,-1977.79 2212,-1854.18 2212,-1854.18 2212,-1854.18 2212,-1584.43 2212,-1468.95 2213.13,-1440.07 2212,-1324.6 2211.11,-1233.87 2208,-1211.22 2208,-1120.48 2208,-1120.48 2208,-1120.48 2208,-850.73 2208,-771.43 2058.15,-615.35 2002,-559.35 1942.38,-499.89 1925.87,-479.9 1847,-450.4 1810.44,-436.73 1550.87,-415.91 1452.06,-408.39"/>
<polygon fill="black" stroke="black" points="1452.58,-404.92 1442.34,-407.65 1452.05,-411.9 1452.58,-404.92"/>
<text xml:space="preserve" text-anchor="middle" x="2215.58" y="-1248.68" font-family="Times,serif" font-size="14.00">0</text>
</g>
<!-- 27&#45;&gt;17 -->
<g id="edge37" class="edge">
<title>27&#45;&gt;17</title>
<path fill="none" stroke="black" d="M1910.99,-2073.4C1750.88,-2062.11 926.8,-2004.04 738.39,-1990.76"/>
<polygon fill="black" stroke="black" points="738.65,-1987.27 728.43,-1990.06 738.16,-1994.25 738.65,-1987.27"/>
<text xml:space="preserve" text-anchor="middle" x="1434.39" y="-2027" font-family="Times,serif" font-size="14.00">1</text>
</g>
<!-- 28&#45;&gt;3 -->
<g id="edge94" class="edge">
<title>28&#45;&gt;3</title>
<path fill="none" stroke="black" d="M881.45,-1540.04C845.83,-1552.73 787,-1580.97 787,-1629.05 787,-1764.93 787,-1764.93 787,-1764.93 787,-1841.16 808.01,-1858.1 817,-1933.8 825.59,-2006.14 829.04,-2091.9 830.32,-2135.69"/>
<polygon fill="black" stroke="black" points="826.82,-2135.71 830.59,-2145.61 833.81,-2135.52 826.82,-2135.71"/>
<text xml:space="preserve" text-anchor="middle" x="806.43" y="-1848.5" font-family="Times,serif" font-size="14.00">4</text>
</g>
<!-- 28&#45;&gt;5 -->
<g id="edge32" class="edge">
<title>28&#45;&gt;5</title>
<path fill="none" stroke="black" d="M894.26,-1506.34C864.91,-1455.12 795.23,-1329.39 752,-1217.35 689.72,-1055.95 700.38,-1007 645,-843.1 628.61,-794.6 616.39,-785.26 603,-735.85 556.6,-564.58 607.71,-505.88 541,-341.45 482.2,-196.52 448.3,-164.89 338,-54 331.92,-47.89 324.67,-42.08 317.63,-37.01"/>
<polygon fill="black" stroke="black" points="319.78,-34.24 309.55,-31.46 315.81,-40.01 319.78,-34.24"/>
<text xml:space="preserve" text-anchor="middle" x="642.92" y="-802.43" font-family="Times,serif" font-size="14.00">1</text>
</g>
<!-- 28&#45;&gt;11 -->
<g id="edge57" class="edge">
<title>28&#45;&gt;11</title>
<path fill="none" stroke="black" d="M885.45,-1514.2C879.3,-1510.28 872.53,-1506.29 866,-1503.1 844.4,-1492.56 836.69,-1495.46 815,-1485.1 801.81,-1478.8 799.52,-1475.4 787,-1467.85 679.63,-1403.14 657.76,-1377.28 544,-1324.6 487.61,-1298.49 418.61,-1276.49 377.59,-1264.39"/>
<polygon fill="black" stroke="black" points="378.58,-1261.04 368,-1261.6 376.63,-1267.76 378.58,-1261.04"/>
<text xml:space="preserve" text-anchor="middle" x="678.5" y="-1382.55" font-family="Times,serif" font-size="14.00">2</text>
</g>
<!-- 28&#45;&gt;15 -->
<g id="edge79" class="edge">
<title>28&#45;&gt;15</title>
<path fill="none" stroke="black" d="M909.57,-1559.04C914.5,-1620.43 934.6,-1771.77 1015,-1861.8 1025.76,-1873.85 1041.48,-1882 1055.92,-1887.39"/>
<polygon fill="black" stroke="black" points="1054.58,-1890.63 1065.17,-1890.5 1056.81,-1883.99 1054.58,-1890.63"/>
<text xml:space="preserve" text-anchor="middle" x="950.2" y="-1714.63" font-family="Times,serif" font-size="14.00">3</text>
</g>
<!-- 28&#45;&gt;21 -->
<g id="edge56" class="edge">
<title>28&#45;&gt;21</title>
<path fill="none" stroke="black" d="M885.72,-1513.58C879.57,-1509.66 872.74,-1505.83 866,-1503.1 829.01,-1488.1 816.44,-1495.88 778,-1485.1 756.17,-1478.98 751.78,-1474.13 730,-1467.85 688.88,-1455.99 640.78,-1445.92 608.35,-1439.67"/>
<polygon fill="black" stroke="black" points="609.11,-1436.25 598.63,-1437.82 607.8,-1443.13 609.11,-1436.25"/>
<text xml:space="preserve" text-anchor="middle" x="782.5" y="-1471.8" font-family="Times,serif" font-size="14.00">0</text>
</g>
<!-- 29&#45;&gt;0 -->
<g id="edge20" class="edge">
<title>29&#45;&gt;0</title>
<path fill="none" stroke="black" d="M1688.3,-18.93C1795.53,-18.9 2187.77,-21.1 2307,-54 2325.28,-59.04 2406,-92.16 2406,-116.1 2406,-2166.55 2406,-2166.55 2406,-2166.55 2406,-2240.84 2141.72,-2252.03 2040.66,-2253.6"/>
<polygon fill="black" stroke="black" points="2040.92,-2250.1 2030.96,-2253.73 2041.01,-2257.1 2040.92,-2250.1"/>
<text xml:space="preserve" text-anchor="middle" x="2410.5" y="-1159.43" font-family="Times,serif" font-size="14.00">2</text>
</g>
<!-- 29&#45;&gt;2 -->
<g id="edge44" class="edge">
<title>29&#45;&gt;2</title>
<path fill="none" stroke="black" d="M1688.46,-18.82C1791.03,-18.42 2151.39,-19.56 2260,-54 2309.87,-69.81 2360,-63.78 2360,-116.1 2360,-1209.73 2360,-1209.73 2360,-1209.73 2360,-1299.24 2138.67,-1432.23 2084,-1503.1 2038.11,-1562.59 2035.91,-1583.78 1997,-1648.05 1963.43,-1703.51 1974.62,-1736.12 1921,-1772.55 1894.79,-1790.36 1807.61,-1800.28 1756.41,-1804.71"/>
<polygon fill="black" stroke="black" points="1756.34,-1801.2 1746.66,-1805.52 1756.92,-1808.18 1756.34,-1801.2"/>
<text xml:space="preserve" text-anchor="middle" x="2364.5" y="-936.3" font-family="Times,serif" font-size="14.00">3</text>
</g>
<!-- 29&#45;&gt;9 -->
<g id="edge148" class="edge">
<title>29&#45;&gt;9</title>
<path fill="none" stroke="black" d="M1633.66,-19.2C1471.9,-20.45 645.51,-28.1 599,-54 468.79,-126.51 417.34,-215.61 459,-358.7 488.82,-461.14 581.8,-553.9 626.93,-594.27"/>
<polygon fill="black" stroke="black" points="624.33,-596.65 634.15,-600.63 628.96,-591.4 624.33,-596.65"/>
<text xml:space="preserve" text-anchor="middle" x="454.66" y="-300.78" font-family="Times,serif" font-size="14.00">0</text>
</g>
<!-- 29&#45;&gt;17 -->
<g id="edge96" class="edge">
<title>29&#45;&gt;17</title>
<path fill="none" stroke="black" d="M1633.79,-19.29C1475.25,-21.08 674.1,-31.18 567,-54 401.25,-89.31 332.04,-76.6 214,-198.2 153.05,-260.99 76,-479.48 76,-566.98 76,-1120.48 76,-1120.48 76,-1120.48 76,-1162.5 108.58,-1162.33 127,-1200.1 191.67,-1332.72 259.07,-1708.07 347,-1826.55 424.99,-1931.64 588.37,-1969.12 662.27,-1981.06"/>
<polygon fill="black" stroke="black" points="661.42,-1984.47 671.84,-1982.53 662.49,-1977.55 661.42,-1984.47"/>
<text xml:space="preserve" text-anchor="middle" x="80.5" y="-1025.55" font-family="Times,serif" font-size="14.00">4</text>
</g>
<!-- 29&#45;&gt;26 -->
<g id="edge22" class="edge">
<title>29&#45;&gt;26</title>
<path fill="none" stroke="black" d="M1635.76,-25.25C1584.27,-39.52 1468.05,-79.87 1421,-162.95 1390.34,-217.09 1457.82,-231.48 1485,-287.45 1530.11,-380.34 1628.32,-634.81 1607,-735.85 1579.11,-867.99 1475.35,-998.5 1430.21,-1050.41"/>
<polygon fill="black" stroke="black" points="1427.72,-1047.94 1423.74,-1057.75 1432.97,-1052.56 1427.72,-1047.94"/>
<text xml:space="preserve" text-anchor="middle" x="1594.68" y="-563.3" font-family="Times,serif" font-size="14.00">1</text>
</g>
</g>
</svg>
