<?xml version="1.0" encoding="UTF-8" standalone="no"?>
<!DOCTYPE svg PUBLIC "-//W3C//DTD SVG 1.1//EN"
 "http://www.w3.org/Graphics/SVG/1.1/DTD/svg11.dtd">
<!-- Generated by graphviz version 13.0.1 (20250616.1512)
 -->
<!-- Pages: 1 -->
<svg width="2454pt" height="2538pt"
 viewBox="0.00 0.00 2454.00 2538.00" xmlns="http://www.w3.org/2000/svg" xmlns:xlink="http://www.w3.org/1999/xlink">
<g id="graph0" class="graph" transform="scale(1 1) rotate(0) translate(4 2533.86)">
<polygon fill="white" stroke="none" points="-4,4 -4,-2533.86 2450,-2533.86 2450,4 -4,4"/>
<!-- fake -->
<g id="node1" class="node">
<title>fake</title>
</g>
<!-- 29 -->
<g id="node31" class="node">
<title>29</title>
<ellipse fill="none" stroke="black" cx="1159" cy="-2429" rx="23.85" ry="23.85"/>
<ellipse fill="none" stroke="black" cx="1159" cy="-2429" rx="27.85" ry="27.85"/>
<text xml:space="preserve" text-anchor="middle" x="1159" y="-2424.33" font-family="Times,serif" font-size="14.00">29</text>
</g>
<!-- fake&#45;&gt;29 -->
<g id="edge1" class="edge">
<title>fake&#45;&gt;29</title>
<path fill="none" stroke="black" stroke-width="2" d="M1159,-2493.71C1159,-2486.36 1159,-2477.46 1159,-2468.66"/>
<polygon fill="black" stroke="black" stroke-width="2" points="1162.5,-2470.33 1159,-2460.33 1155.5,-2470.33 1162.5,-2470.33"/>
</g>
<!-- 0 -->
<g id="node2" class="node">
<title>0</title>
<ellipse fill="none" stroke="black" cx="680" cy="-2240.65" rx="27" ry="18"/>
<text xml:space="preserve" text-anchor="middle" x="680" y="-2235.98" font-family="Times,serif" font-size="14.00">0</text>
</g>
<!-- 4 -->
<g id="node6" class="node">
<title>4</title>
<ellipse fill="none" stroke="black" cx="1383" cy="-2147.4" rx="18" ry="18"/>
<ellipse fill="none" stroke="black" cx="1383" cy="-2147.4" rx="22" ry="22"/>
<text xml:space="preserve" text-anchor="middle" x="1383" y="-2142.73" font-family="Times,serif" font-size="14.00">4</text>
</g>
<!-- 0&#45;&gt;4 -->
<g id="edge56" class="edge">
<title>0&#45;&gt;4</title>
<path fill="none" stroke="black" d="M707.18,-2238.68C775.94,-2235.95 962.31,-2226.92 1116,-2204.65 1201.5,-2192.27 1300.69,-2168.98 1350.67,-2156.61"/>
<polygon fill="black" stroke="black" points="1351.38,-2160.04 1360.24,-2154.22 1349.69,-2153.25 1351.38,-2160.04"/>
<text xml:space="preserve" text-anchor="middle" x="1216.53" y="-2191.35" font-family="Times,serif" font-size="14.00">2</text>
</g>
<!-- 5 -->
<g id="node7" class="node">
<title>5</title>
<ellipse fill="none" stroke="black" cx="502" cy="-1778.4" rx="27" ry="18"/>
<text xml:space="preserve" text-anchor="middle" x="502" y="-1773.73" font-family="Times,serif" font-size="14.00">5</text>
</g>
<!-- 0&#45;&gt;5 -->
<g id="edge106" class="edge">
<title>0&#45;&gt;5</title>
<path fill="none" stroke="black" d="M658.61,-2229.04C648.27,-2223.04 636.32,-2214.72 628,-2204.65 610.68,-2183.71 604,-2175.58 604,-2148.4 604,-2148.4 604,-2148.4 604,-1870.65 604,-1833.2 565.32,-1807.27 535.6,-1792.88"/>
<polygon fill="black" stroke="black" points="537.07,-1789.7 526.52,-1788.72 534.16,-1796.07 537.07,-1789.7"/>
<text xml:space="preserve" text-anchor="middle" x="608.5" y="-2004.85" font-family="Times,serif" font-size="14.00">4</text>
</g>
<!-- 17 -->
<g id="node19" class="node">
<title>17</title>
<ellipse fill="none" stroke="black" cx="1266" cy="-1124.1" rx="23.85" ry="23.85"/>
<ellipse fill="none" stroke="black" cx="1266" cy="-1124.1" rx="27.85" ry="27.85"/>
<text xml:space="preserve" text-anchor="middle" x="1266" y="-1119.43" font-family="Times,serif" font-size="14.00">17</text>
</g>
<!-- 0&#45;&gt;17 -->
<g id="edge25" class="edge">
<title>0&#45;&gt;17</title>
<path fill="none" stroke="black" d="M707.17,-2238.41C789.41,-2233.91 1030,-2215.05 1030,-2148.4 1030,-2148.4 1030,-2148.4 1030,-1822.03 1030,-1669.98 1154.72,-1671.8 1206,-1528.65 1251.93,-1400.43 1262.71,-1237.14 1265.24,-1163.81"/>
<polygon fill="black" stroke="black" points="1268.73,-1164.04 1265.54,-1153.94 1261.73,-1163.83 1268.73,-1164.04"/>
<text xml:space="preserve" text-anchor="middle" x="1104" y="-1684.48" font-family="Times,serif" font-size="14.00">0</text>
</g>
<!-- 24 -->
<g id="node26" class="node">
<title>24</title>
<ellipse fill="none" stroke="black" cx="1542" cy="-1500.8" rx="23.85" ry="23.85"/>
<ellipse fill="none" stroke="black" cx="1542" cy="-1500.8" rx="27.85" ry="27.85"/>
<text xml:space="preserve" text-anchor="middle" x="1542" y="-1496.13" font-family="Times,serif" font-size="14.00">24</text>
</g>
<!-- 0&#45;&gt;24 -->
<g id="edge77" class="edge">
<title>0&#45;&gt;24</title>
<path fill="none" stroke="black" d="M707.26,-2240.28C782.12,-2241.5 988.94,-2241.39 1044,-2204.65 1067.57,-2188.93 1074,-2176.74 1074,-2148.4 1074,-2148.4 1074,-2148.4 1074,-2008.53 1074,-1927.16 1113.7,-1912.82 1165,-1849.65 1247.86,-1747.63 1289.7,-1742.6 1386,-1653.15 1431.74,-1610.67 1483.52,-1559.88 1514.42,-1529.27"/>
<polygon fill="black" stroke="black" points="1516.85,-1531.79 1521.49,-1522.26 1511.92,-1526.82 1516.85,-1531.79"/>
<text xml:space="preserve" text-anchor="middle" x="1169.5" y="-1866.98" font-family="Times,serif" font-size="14.00">3</text>
</g>
<!-- 26 -->
<g id="node28" class="node">
<title>26</title>
<ellipse fill="none" stroke="black" cx="2112" cy="-245.75" rx="23.85" ry="23.85"/>
<ellipse fill="none" stroke="black" cx="2112" cy="-245.75" rx="27.85" ry="27.85"/>
<text xml:space="preserve" text-anchor="middle" x="2112" y="-241.08" font-family="Times,serif" font-size="14.00">26</text>
</g>
<!-- 0&#45;&gt;26 -->
<g id="edge147" class="edge">
<title>0&#45;&gt;26</title>
<path fill="none" stroke="black" d="M707.38,-2239.57C918.35,-2238.76 2277,-2230.37 2277,-2148.4 2277,-2148.4 2277,-2148.4 2277,-1266.83 2277,-1181.33 2306.51,-1163.33 2315,-1078.25 2337.23,-855.42 2264,-800.92 2264,-576.98 2264,-576.98 2264,-576.98 2264,-347.85 2264,-293.48 2195.73,-266.58 2150.7,-254.75"/>
<polygon fill="black" stroke="black" points="2151.54,-251.35 2141,-252.35 2149.87,-258.15 2151.54,-251.35"/>
<text xml:space="preserve" text-anchor="middle" x="2281.5" y="-1263.15" font-family="Times,serif" font-size="14.00">1</text>
</g>
<!-- 1 -->
<g id="node3" class="node">
<title>1</title>
<ellipse fill="none" stroke="black" cx="1681" cy="-1871.65" rx="18" ry="18"/>
<ellipse fill="none" stroke="black" cx="1681" cy="-1871.65" rx="22" ry="22"/>
<text xml:space="preserve" text-anchor="middle" x="1681" y="-1866.98" font-family="Times,serif" font-size="14.00">1</text>
</g>
<!-- 1&#45;&gt;5 -->
<g id="edge104" class="edge">
<title>1&#45;&gt;5</title>
<path fill="none" stroke="black" d="M1658.83,-1868.37C1579.24,-1860.22 1300.48,-1832.11 1070,-1814.4 871.08,-1799.12 632.56,-1786.17 540.69,-1781.38"/>
<polygon fill="black" stroke="black" points="540.89,-1777.89 530.73,-1780.87 540.53,-1784.88 540.89,-1777.89"/>
<text xml:space="preserve" text-anchor="middle" x="1276.26" y="-1818.35" font-family="Times,serif" font-size="14.00">1</text>
</g>
<!-- 15 -->
<g id="node17" class="node">
<title>15</title>
<ellipse fill="none" stroke="black" cx="1344" cy="-916.05" rx="27" ry="18"/>
<text xml:space="preserve" text-anchor="middle" x="1344" y="-911.38" font-family="Times,serif" font-size="14.00">15</text>
</g>
<!-- 1&#45;&gt;15 -->
<g id="edge126" class="edge">
<title>1&#45;&gt;15</title>
<path fill="none" stroke="black" d="M1681,-1849.27C1681,-1830.77 1681,-1803.33 1681,-1779.4 1681,-1779.4 1681,-1779.4 1681,-1643.53 1681,-1512.19 1726.75,-1476.38 1697,-1348.45 1668.71,-1226.8 1637.31,-1203.33 1573,-1096.25 1532.31,-1028.51 1533.79,-997.29 1469,-952.05 1443.09,-933.96 1408.05,-925.19 1381.66,-920.95"/>
<polygon fill="black" stroke="black" points="1382.47,-917.53 1372.07,-919.57 1381.47,-924.46 1382.47,-917.53"/>
<text xml:space="preserve" text-anchor="middle" x="1711.4" y="-1397.03" font-family="Times,serif" font-size="14.00">3</text>
</g>
<!-- 18 -->
<g id="node20" class="node">
<title>18</title>
<ellipse fill="none" stroke="black" cx="1540" cy="-1401.7" rx="27" ry="18"/>
<text xml:space="preserve" text-anchor="middle" x="1540" y="-1397.03" font-family="Times,serif" font-size="14.00">18</text>
</g>
<!-- 1&#45;&gt;18 -->
<g id="edge97" class="edge">
<title>1&#45;&gt;18</title>
<path fill="none" stroke="black" d="M1668.77,-1853.03C1657.66,-1835.28 1643,-1806.69 1643,-1779.4 1643,-1779.4 1643,-1779.4 1643,-1554.28 1643,-1516.59 1639.19,-1504.77 1619,-1472.95 1605.89,-1452.29 1585.01,-1434.1 1568.01,-1421.41"/>
<polygon fill="black" stroke="black" points="1570.42,-1418.83 1560.26,-1415.83 1566.33,-1424.51 1570.42,-1418.83"/>
<text xml:space="preserve" text-anchor="middle" x="1647.5" y="-1639.85" font-family="Times,serif" font-size="14.00">4</text>
</g>
<!-- 21 -->
<g id="node23" class="node">
<title>21</title>
<ellipse fill="none" stroke="black" cx="1802" cy="-1599.9" rx="27" ry="18"/>
<text xml:space="preserve" text-anchor="middle" x="1802" y="-1595.23" font-family="Times,serif" font-size="14.00">21</text>
</g>
<!-- 1&#45;&gt;21 -->
<g id="edge13" class="edge">
<title>1&#45;&gt;21</title>
<path fill="none" stroke="black" d="M1700.34,-1860.39C1711.4,-1853.61 1724.68,-1843.74 1733,-1831.65 1784.32,-1757.12 1760.78,-1721.88 1789,-1635.9 1789.84,-1633.36 1790.74,-1630.72 1791.67,-1628.09"/>
<polygon fill="black" stroke="black" points="1794.86,-1629.56 1795,-1618.97 1788.28,-1627.16 1794.86,-1629.56"/>
<text xml:space="preserve" text-anchor="middle" x="1775.72" y="-1729.1" font-family="Times,serif" font-size="14.00">0</text>
</g>
<!-- 25 -->
<g id="node27" class="node">
<title>25</title>
<ellipse fill="none" stroke="black" cx="673" cy="-27.85" rx="27" ry="18"/>
<text xml:space="preserve" text-anchor="middle" x="673" y="-23.18" font-family="Times,serif" font-size="14.00">25</text>
</g>
<!-- 1&#45;&gt;25 -->
<g id="edge102" class="edge">
<title>1&#45;&gt;25</title>
<path fill="none" stroke="black" d="M1701.79,-1863.52C1730.73,-1852.76 1783.47,-1829.97 1818,-1796.4 2009.14,-1610.56 1998,-1490.8 1998,-1224.2 1998,-1224.2 1998,-1224.2 1998,-1068.63 1998,-1000.5 1769.45,-573.78 1738,-513.35 1703.18,-446.45 1629.2,-265.86 1571,-217.9 1414.79,-89.17 1337.01,-115.71 1139,-73.7 982.7,-40.54 791.66,-31.86 711.4,-29.62"/>
<polygon fill="black" stroke="black" points="711.98,-26.13 701.89,-29.37 711.8,-33.13 711.98,-26.13"/>
<text xml:space="preserve" text-anchor="middle" x="1969.6" y="-956" font-family="Times,serif" font-size="14.00">2</text>
</g>
<!-- 2 -->
<g id="node4" class="node">
<title>2</title>
<ellipse fill="none" stroke="black" cx="349" cy="-2329.9" rx="27" ry="18"/>
<text xml:space="preserve" text-anchor="middle" x="349" y="-2325.23" font-family="Times,serif" font-size="14.00">2</text>
</g>
<!-- 2&#45;&gt;0 -->
<g id="edge10" class="edge">
<title>2&#45;&gt;0</title>
<path fill="none" stroke="black" d="M373.88,-2322.35C432.01,-2307.02 576.91,-2268.83 644.38,-2251.04"/>
<polygon fill="black" stroke="black" points="645.04,-2254.49 653.82,-2248.56 643.26,-2247.72 645.04,-2254.49"/>
<text xml:space="preserve" text-anchor="middle" x="548.65" y="-2280.6" font-family="Times,serif" font-size="14.00">0</text>
</g>
<!-- 2&#45;&gt;2 -->
<g id="edge87" class="edge">
<title>2&#45;&gt;2</title>
<path fill="none" stroke="black" d="M373.53,-2338.14C384.51,-2338.93 394,-2336.18 394,-2329.9 394,-2325.98 390.29,-2323.44 384.83,-2322.27"/>
<polygon fill="black" stroke="black" points="385.22,-2318.79 375.04,-2321.75 384.84,-2325.78 385.22,-2318.79"/>
<text xml:space="preserve" text-anchor="middle" x="398.5" y="-2325.23" font-family="Times,serif" font-size="14.00">2</text>
</g>
<!-- 9 -->
<g id="node11" class="node">
<title>9</title>
<ellipse fill="none" stroke="black" cx="739" cy="-531.35" rx="27" ry="18"/>
<text xml:space="preserve" text-anchor="middle" x="739" y="-526.68" font-family="Times,serif" font-size="14.00">9</text>
</g>
<!-- 2&#45;&gt;9 -->
<g id="edge60" class="edge">
<title>2&#45;&gt;9</title>
<path fill="none" stroke="black" d="M341.23,-2312.26C333.89,-2294.99 324,-2267.02 324,-2241.65 324,-2241.65 324,-2241.65 324,-1822.03 324,-1741.79 286,-1725.77 286,-1645.53 286,-1645.53 286,-1645.53 286,-1356.08 286,-1321.74 361.4,-1091.07 378,-1061 408.77,-1005.27 427.29,-998.34 471,-952.05 518.32,-901.95 542.11,-900.29 583,-844.8 619.72,-794.97 697.11,-625.86 726.93,-559.44"/>
<polygon fill="black" stroke="black" points="730.1,-560.93 730.99,-550.37 723.71,-558.07 730.1,-560.93"/>
<text xml:space="preserve" text-anchor="middle" x="290.5" y="-1441.65" font-family="Times,serif" font-size="14.00">4</text>
</g>
<!-- 10 -->
<g id="node12" class="node">
<title>10</title>
<ellipse fill="none" stroke="black" cx="1088" cy="-1223.2" rx="27" ry="18"/>
<text xml:space="preserve" text-anchor="middle" x="1088" y="-1218.53" font-family="Times,serif" font-size="14.00">10</text>
</g>
<!-- 2&#45;&gt;10 -->
<g id="edge48" class="edge">
<title>2&#45;&gt;10</title>
<path fill="none" stroke="black" d="M363.18,-2314.32C368.91,-2308.19 375.47,-2300.87 381,-2293.9 479.18,-2170.22 477.86,-2119.62 582,-2000.9 710.83,-1854.04 803.22,-1871.4 909,-1707.15 990.62,-1580.43 955.45,-1523.83 1011,-1383.7 1017.41,-1367.53 1020.44,-1364.12 1028,-1348.45 1044.23,-1314.81 1062.95,-1276.06 1075.1,-1250.9"/>
<polygon fill="black" stroke="black" points="1078.18,-1252.57 1079.38,-1242.05 1071.88,-1249.53 1078.18,-1252.57"/>
<text xml:space="preserve" text-anchor="middle" x="874.52" y="-1773.73" font-family="Times,serif" font-size="14.00">1</text>
</g>
<!-- 23 -->
<g id="node25" class="node">
<title>23</title>
<ellipse fill="none" stroke="black" cx="242" cy="-624.6" rx="27" ry="18"/>
<text xml:space="preserve" text-anchor="middle" x="242" y="-619.93" font-family="Times,serif" font-size="14.00">23</text>
</g>
<!-- 2&#45;&gt;23 -->
<g id="edge57" class="edge">
<title>2&#45;&gt;23</title>
<path fill="none" stroke="black" d="M322.9,-2324.26C303.24,-2319.57 276.71,-2310.55 259,-2293.9 157.89,-2198.89 128,-2149.28 128,-2010.53 128,-2010.53 128,-2010.53 128,-1822.03 128,-1556.33 126,-1489.91 126,-1224.2 126,-1224.2 126,-1224.2 126,-716.85 126,-675.23 172.69,-649.69 206.83,-636.58"/>
<polygon fill="black" stroke="black" points="207.76,-639.97 215.98,-633.27 205.38,-633.39 207.76,-639.97"/>
<text xml:space="preserve" text-anchor="middle" x="131.53" y="-1496.13" font-family="Times,serif" font-size="14.00">3</text>
</g>
<!-- 3 -->
<g id="node5" class="node">
<title>3</title>
<ellipse fill="none" stroke="black" cx="1329" cy="-348.85" rx="18" ry="18"/>
<ellipse fill="none" stroke="black" cx="1329" cy="-348.85" rx="22" ry="22"/>
<text xml:space="preserve" text-anchor="middle" x="1329" y="-344.18" font-family="Times,serif" font-size="14.00">3</text>
</g>
<!-- 3&#45;&gt;3 -->
<g id="edge79" class="edge">
<title>3&#45;&gt;3</title>
<path fill="none" stroke="black" d="M1349.58,-357.7C1359.84,-358.92 1369,-355.97 1369,-348.85 1369,-344.62 1365.77,-341.86 1361,-340.58"/>
<polygon fill="black" stroke="black" points="1361.26,-337.09 1351.09,-340.08 1360.9,-344.08 1361.26,-337.09"/>
<text xml:space="preserve" text-anchor="middle" x="1373.5" y="-344.18" font-family="Times,serif" font-size="14.00">1</text>
</g>
<!-- 8 -->
<g id="node10" class="node">
<title>8</title>
<ellipse fill="none" stroke="black" cx="1037" cy="-624.6" rx="18" ry="18"/>
<ellipse fill="none" stroke="black" cx="1037" cy="-624.6" rx="22" ry="22"/>
<text xml:space="preserve" text-anchor="middle" x="1037" y="-619.93" font-family="Times,serif" font-size="14.00">8</text>
</g>
<!-- 3&#45;&gt;8 -->
<g id="edge81" class="edge">
<title>3&#45;&gt;8</title>
<path fill="none" stroke="black" d="M1309.95,-360.25C1276,-379.58 1204.43,-424.04 1160,-478.1 1126.56,-518.8 1144.34,-546.47 1108,-584.6 1096.9,-596.25 1081.54,-605.28 1067.94,-611.7"/>
<polygon fill="black" stroke="black" points="1066.66,-608.44 1058.92,-615.68 1069.48,-614.85 1066.66,-608.44"/>
<text xml:space="preserve" text-anchor="middle" x="1164.5" y="-482.05" font-family="Times,serif" font-size="14.00">2</text>
</g>
<!-- 20 -->
<g id="node22" class="node">
<title>20</title>
<ellipse fill="none" stroke="black" cx="1361" cy="-442.1" rx="27" ry="18"/>
<text xml:space="preserve" text-anchor="middle" x="1361" y="-437.43" font-family="Times,serif" font-size="14.00">20</text>
</g>
<!-- 3&#45;&gt;20 -->
<g id="edge14" class="edge">
<title>3&#45;&gt;20</title>
<path fill="none" stroke="black" d="M1342.53,-366.37C1347.25,-372.98 1352.09,-380.91 1355,-388.85 1357.71,-396.25 1359.28,-404.6 1360.16,-412.42"/>
<polygon fill="black" stroke="black" points="1356.65,-412.48 1360.92,-422.18 1363.63,-411.94 1356.65,-412.48"/>
<text xml:space="preserve" text-anchor="middle" x="1363.71" y="-392.8" font-family="Times,serif" font-size="14.00">3</text>
</g>
<!-- 3&#45;&gt;25 -->
<g id="edge73" class="edge">
<title>3&#45;&gt;25</title>
<path fill="none" stroke="black" d="M1320.23,-328.2C1295.81,-276.07 1221.43,-134.11 1111,-73.7 1042.66,-36.32 805.5,-30.03 711.66,-29.02"/>
<polygon fill="black" stroke="black" points="711.72,-25.52 701.69,-28.93 711.65,-32.52 711.72,-25.52"/>
<text xml:space="preserve" text-anchor="middle" x="1249.19" y="-186.6" font-family="Times,serif" font-size="14.00">4</text>
</g>
<!-- 3&#45;&gt;26 -->
<g id="edge23" class="edge">
<title>3&#45;&gt;26</title>
<path fill="none" stroke="black" d="M1350.76,-345.04C1458.16,-331.18 1932.19,-269.97 2072.65,-251.83"/>
<polygon fill="black" stroke="black" points="2073.09,-255.3 2082.56,-250.55 2072.2,-248.36 2073.09,-255.3"/>
<text xml:space="preserve" text-anchor="middle" x="1748.48" y="-295.55" font-family="Times,serif" font-size="14.00">0</text>
</g>
<!-- 4&#45;&gt;4 -->
<g id="edge94" class="edge">
<title>4&#45;&gt;4</title>
<path fill="none" stroke="black" d="M1403.58,-2156.25C1413.84,-2157.48 1423,-2154.53 1423,-2147.4 1423,-2143.18 1419.77,-2140.42 1415,-2139.13"/>
<polygon fill="black" stroke="black" points="1415.26,-2135.64 1405.09,-2138.63 1414.9,-2142.63 1415.26,-2135.64"/>
<text xml:space="preserve" text-anchor="middle" x="1427.5" y="-2142.73" font-family="Times,serif" font-size="14.00">3</text>
</g>
<!-- 6 -->
<g id="node8" class="node">
<title>6</title>
<ellipse fill="none" stroke="black" cx="1551" cy="-2054.15" rx="27" ry="18"/>
<text xml:space="preserve" text-anchor="middle" x="1551" y="-2049.48" font-family="Times,serif" font-size="14.00">6</text>
</g>
<!-- 4&#45;&gt;6 -->
<g id="edge39" class="edge">
<title>4&#45;&gt;6</title>
<path fill="none" stroke="black" d="M1398.3,-2131.3C1411.57,-2118.87 1431.79,-2101.51 1452,-2090.15 1471.8,-2079.03 1495.76,-2070.45 1515.16,-2064.56"/>
<polygon fill="black" stroke="black" points="1515.91,-2067.99 1524.53,-2061.84 1513.95,-2061.27 1515.91,-2067.99"/>
<text xml:space="preserve" text-anchor="middle" x="1456.5" y="-2094.1" font-family="Times,serif" font-size="14.00">0</text>
</g>
<!-- 4&#45;&gt;6 -->
<g id="edge86" class="edge">
<title>4&#45;&gt;6</title>
<path fill="none" stroke="black" d="M1402.73,-2136.96C1418.6,-2129.26 1441.41,-2117.97 1461,-2107.4 1481.6,-2096.29 1504.4,-2083.04 1521.9,-2072.66"/>
<polygon fill="black" stroke="black" points="1523.44,-2075.83 1530.24,-2067.7 1519.85,-2069.81 1523.44,-2075.83"/>
<text xml:space="preserve" text-anchor="middle" x="1495.49" y="-2094.1" font-family="Times,serif" font-size="14.00">4</text>
</g>
<!-- 4&#45;&gt;18 -->
<g id="edge65" class="edge">
<title>4&#45;&gt;18</title>
<path fill="none" stroke="black" d="M1385.98,-2125.42C1400.27,-2025.79 1462.77,-1600.09 1505,-1472.95 1510.03,-1457.8 1517.79,-1441.8 1524.73,-1428.9"/>
<polygon fill="black" stroke="black" points="1527.76,-1430.65 1529.55,-1420.21 1521.64,-1427.26 1527.76,-1430.65"/>
<text xml:space="preserve" text-anchor="middle" x="1447.77" y="-1773.73" font-family="Times,serif" font-size="14.00">2</text>
</g>
<!-- 19 -->
<g id="node21" class="node">
<title>19</title>
<ellipse fill="none" stroke="black" cx="1101" cy="-1312.45" rx="27" ry="18"/>
<text xml:space="preserve" text-anchor="middle" x="1101" y="-1307.78" font-family="Times,serif" font-size="14.00">19</text>
</g>
<!-- 4&#45;&gt;19 -->
<g id="edge38" class="edge">
<title>4&#45;&gt;19</title>
<path fill="none" stroke="black" d="M1371.23,-2128.89C1351.94,-2099.63 1313.22,-2038.52 1288,-1982.9 1244.9,-1887.86 1247.03,-1859.05 1213,-1760.4 1185.56,-1680.87 1178.44,-1661.08 1150,-1581.9 1115.42,-1485.62 1088.83,-1466.44 1071,-1365.7 1069.66,-1358.15 1068.34,-1355.64 1071,-1348.45 1072.66,-1343.98 1075.17,-1339.69 1078.05,-1335.74"/>
<polygon fill="black" stroke="black" points="1080.47,-1338.29 1084.23,-1328.39 1075.12,-1333.79 1080.47,-1338.29"/>
<text xml:space="preserve" text-anchor="middle" x="1211.2" y="-1729.1" font-family="Times,serif" font-size="14.00">1</text>
</g>
<!-- 5&#45;&gt;0 -->
<g id="edge148" class="edge">
<title>5&#45;&gt;0</title>
<path fill="none" stroke="black" d="M509.66,-1795.82C517.33,-1813.79 528,-1843.64 528,-1870.65 528,-2010.53 528,-2010.53 528,-2010.53 528,-2104.36 546.85,-2136.17 611,-2204.65 620.37,-2214.66 633.25,-2222.26 645.33,-2227.77"/>
<polygon fill="black" stroke="black" points="643.68,-2230.87 654.25,-2231.5 646.38,-2224.41 643.68,-2230.87"/>
<text xml:space="preserve" text-anchor="middle" x="532.54" y="-2004.85" font-family="Times,serif" font-size="14.00">3</text>
</g>
<!-- 5&#45;&gt;2 -->
<g id="edge45" class="edge">
<title>5&#45;&gt;2</title>
<path fill="none" stroke="black" d="M476.71,-1785.25C439.41,-1795.54 374,-1820.71 374,-1870.65 374,-2241.65 374,-2241.65 374,-2241.65 374,-2262.46 367.35,-2285.02 360.9,-2301.99"/>
<polygon fill="black" stroke="black" points="357.82,-2300.27 357.34,-2310.85 364.32,-2302.88 357.82,-2300.27"/>
<text xml:space="preserve" text-anchor="middle" x="378.5" y="-2049.48" font-family="Times,serif" font-size="14.00">2</text>
</g>
<!-- 11 -->
<g id="node13" class="node">
<title>11</title>
<ellipse fill="none" stroke="black" cx="917" cy="-1015.15" rx="23.85" ry="23.85"/>
<ellipse fill="none" stroke="black" cx="917" cy="-1015.15" rx="27.85" ry="27.85"/>
<text xml:space="preserve" text-anchor="middle" x="917" y="-1010.48" font-family="Times,serif" font-size="14.00">11</text>
</g>
<!-- 5&#45;&gt;11 -->
<g id="edge143" class="edge">
<title>5&#45;&gt;11</title>
<path fill="none" stroke="black" d="M506.2,-1760.28C531.97,-1655.94 669.38,-1108.55 728,-1061 754.42,-1039.58 848.32,-1055.39 880,-1043 882.19,-1042.14 884.38,-1041.12 886.52,-1039.99"/>
<polygon fill="black" stroke="black" points="888.21,-1043.06 894.89,-1034.84 884.54,-1037.1 888.21,-1043.06"/>
<text xml:space="preserve" text-anchor="middle" x="610.37" y="-1397.03" font-family="Times,serif" font-size="14.00">4</text>
</g>
<!-- 28 -->
<g id="node30" class="node">
<title>28</title>
<ellipse fill="none" stroke="black" cx="873" cy="-1689.15" rx="27" ry="18"/>
<text xml:space="preserve" text-anchor="middle" x="873" y="-1684.48" font-family="Times,serif" font-size="14.00">28</text>
</g>
<!-- 5&#45;&gt;28 -->
<g id="edge6" class="edge">
<title>5&#45;&gt;28</title>
<path fill="none" stroke="black" d="M527.21,-1771.48C591.45,-1756.37 761.53,-1716.37 836.56,-1698.72"/>
<polygon fill="black" stroke="black" points="837.35,-1702.13 846.28,-1696.44 835.75,-1695.32 837.35,-1702.13"/>
<text xml:space="preserve" text-anchor="middle" x="725.23" y="-1729.1" font-family="Times,serif" font-size="14.00">1</text>
</g>
<!-- 5&#45;&gt;29 -->
<g id="edge133" class="edge">
<title>5&#45;&gt;29</title>
<path fill="none" stroke="black" d="M487.52,-1793.78C472.13,-1810.65 450,-1840.2 450,-1870.65 450,-2099.78 450,-2099.78 450,-2099.78 450,-2147.6 441.75,-2169.35 474,-2204.65 652.02,-2399.51 1001.94,-2424.89 1119.45,-2427.79"/>
<polygon fill="black" stroke="black" points="1119.14,-2431.28 1129.21,-2427.98 1119.28,-2424.29 1119.14,-2431.28"/>
<text xml:space="preserve" text-anchor="middle" x="454.5" y="-2094.1" font-family="Times,serif" font-size="14.00">0</text>
</g>
<!-- 7 -->
<g id="node9" class="node">
<title>7</title>
<ellipse fill="none" stroke="black" cx="1681" cy="-1964.9" rx="27" ry="18"/>
<text xml:space="preserve" text-anchor="middle" x="1681" y="-1960.23" font-family="Times,serif" font-size="14.00">7</text>
</g>
<!-- 6&#45;&gt;7 -->
<g id="edge27" class="edge">
<title>6&#45;&gt;7</title>
<path fill="none" stroke="black" d="M1569.63,-2040.65C1591.44,-2026.01 1627.8,-2001.61 1653.02,-1984.69"/>
<polygon fill="black" stroke="black" points="1654.8,-1987.7 1661.15,-1979.23 1650.9,-1981.89 1654.8,-1987.7"/>
<text xml:space="preserve" text-anchor="middle" x="1632.14" y="-2004.85" font-family="Times,serif" font-size="14.00">1</text>
</g>
<!-- 6&#45;&gt;15 -->
<g id="edge138" class="edge">
<title>6&#45;&gt;15</title>
<path fill="none" stroke="black" d="M1551.89,-2035.96C1555,-1978.79 1566.66,-1789.97 1592,-1635.9 1606.61,-1547.05 1649.14,-1526.47 1634,-1437.7 1614.24,-1321.89 1513.88,-1028.89 1425,-952.05 1411.94,-940.77 1394.69,-932.64 1379.47,-927.07"/>
<polygon fill="black" stroke="black" points="1380.86,-923.84 1370.26,-923.95 1378.61,-930.47 1380.86,-923.84"/>
<text xml:space="preserve" text-anchor="middle" x="1641.71" y="-1496.13" font-family="Times,serif" font-size="14.00">2</text>
</g>
<!-- 6&#45;&gt;19 -->
<g id="edge135" class="edge">
<title>6&#45;&gt;19</title>
<path fill="none" stroke="black" d="M1541.56,-2037.17C1511.25,-1986.05 1417.06,-1829.07 1395,-1814.4 1358.12,-1789.88 1330.51,-1825.35 1297,-1796.4 1201.88,-1714.25 1244.1,-1648.42 1206,-1528.65 1185.63,-1464.62 1195.55,-1442.49 1163,-1383.7 1152.98,-1365.61 1137.62,-1348.16 1124.69,-1335.18"/>
<polygon fill="black" stroke="black" points="1127.32,-1332.85 1117.72,-1328.39 1122.44,-1337.87 1127.32,-1332.85"/>
<text xml:space="preserve" text-anchor="middle" x="1240.9" y="-1684.48" font-family="Times,serif" font-size="14.00">3</text>
</g>
<!-- 6&#45;&gt;26 -->
<g id="edge84" class="edge">
<title>6&#45;&gt;26</title>
<path fill="none" stroke="black" d="M1578.09,-2052.19C1696.53,-2047.63 2163,-2025.87 2163,-1965.9 2163,-1965.9 2163,-1965.9 2163,-1266.83 2163,-1110.51 2200,-1073.38 2200,-917.05 2200,-917.05 2200,-917.05 2200,-716.85 2200,-654.46 2188,-639.37 2188,-576.98 2188,-576.98 2188,-576.98 2188,-347.85 2188,-316.34 2164.12,-288.39 2143.13,-269.91"/>
<polygon fill="black" stroke="black" points="2145.46,-267.3 2135.55,-263.56 2140.97,-272.66 2145.46,-267.3"/>
<text xml:space="preserve" text-anchor="middle" x="2172.87" y="-1173.9" font-family="Times,serif" font-size="14.00">0</text>
</g>
<!-- 6&#45;&gt;26 -->
<g id="edge92" class="edge">
<title>6&#45;&gt;26</title>
<path fill="none" stroke="black" d="M1578.11,-2052.3C1670.89,-2049.23 1975.29,-2037.86 2071,-2018.15 2131.99,-2005.6 2201,-2028.17 2201,-1965.9 2201,-1965.9 2201,-1965.9 2201,-1266.83 2201,-1134.49 2208.14,-1101.55 2213,-969.3 2219.4,-794.96 2226,-751.44 2226,-576.98 2226,-576.98 2226,-576.98 2226,-347.85 2226,-305.72 2181.88,-276.88 2148.53,-261.1"/>
<polygon fill="black" stroke="black" points="2150.09,-257.97 2139.53,-257.06 2147.22,-264.35 2150.09,-257.97"/>
<text xml:space="preserve" text-anchor="middle" x="2207.14" y="-1173.9" font-family="Times,serif" font-size="14.00">4</text>
</g>
<!-- 7&#45;&gt;1 -->
<g id="edge96" class="edge">
<title>7&#45;&gt;1</title>
<path fill="none" stroke="black" d="M1681,-1946.74C1681,-1935.04 1681,-1919.19 1681,-1905.15"/>
<polygon fill="black" stroke="black" points="1684.5,-1905.43 1681,-1895.43 1677.5,-1905.43 1684.5,-1905.43"/>
<text xml:space="preserve" text-anchor="middle" x="1685.5" y="-1915.6" font-family="Times,serif" font-size="14.00">1</text>
</g>
<!-- 7&#45;&gt;19 -->
<g id="edge18" class="edge">
<title>7&#45;&gt;19</title>
<path fill="none" stroke="black" d="M1660.32,-1952.82C1617.67,-1929.09 1518.86,-1869.54 1458,-1796.4 1399.84,-1726.5 1394.68,-1701.11 1358,-1617.9 1330.62,-1555.81 1343.47,-1531.99 1310,-1472.95 1284.16,-1427.38 1269.85,-1420.94 1233,-1383.7 1216.33,-1366.86 1213.29,-1360.7 1193,-1348.45 1175.51,-1337.9 1154.3,-1329.57 1136.66,-1323.69"/>
<polygon fill="black" stroke="black" points="1137.96,-1320.43 1127.37,-1320.73 1135.83,-1327.1 1137.96,-1320.43"/>
<text xml:space="preserve" text-anchor="middle" x="1377.61" y="-1639.85" font-family="Times,serif" font-size="14.00">0</text>
</g>
<!-- 7&#45;&gt;19 -->
<g id="edge67" class="edge">
<title>7&#45;&gt;19</title>
<path fill="none" stroke="black" d="M1657.82,-1955.43C1639.14,-1948.52 1612.26,-1938.39 1589,-1928.9 1552.64,-1914.09 1540.96,-1914.99 1508,-1893.65 1464.1,-1865.23 1467.65,-1838.05 1421,-1814.4 1385,-1796.16 1362.03,-1823.37 1332,-1796.4 1257.59,-1729.59 1295.55,-1676.81 1264,-1581.9 1234.57,-1493.39 1250.1,-1458.96 1195,-1383.7 1178.32,-1360.92 1152.15,-1342.22 1131.66,-1329.85"/>
<polygon fill="black" stroke="black" points="1133.54,-1326.9 1123.14,-1324.9 1130.02,-1332.95 1133.54,-1326.9"/>
<text xml:space="preserve" text-anchor="middle" x="1282.63" y="-1639.85" font-family="Times,serif" font-size="14.00">4</text>
</g>
<!-- 7&#45;&gt;21 -->
<g id="edge99" class="edge">
<title>7&#45;&gt;21</title>
<path fill="none" stroke="black" d="M1698.41,-1951.02C1706.51,-1944.7 1716.08,-1936.78 1724,-1928.9 1771.67,-1881.49 1779.64,-1861.36 1797,-1796.4 1813.52,-1734.6 1807.89,-1717.05 1811,-1653.15 1811.37,-1645.5 1811.96,-1643.51 1811,-1635.9 1810.7,-1633.57 1810.3,-1631.17 1809.83,-1628.77"/>
<polygon fill="black" stroke="black" points="1813.3,-1628.24 1807.61,-1619.3 1806.49,-1629.84 1813.3,-1628.24"/>
<text xml:space="preserve" text-anchor="middle" x="1809.6" y="-1773.73" font-family="Times,serif" font-size="14.00">3</text>
</g>
<!-- 22 -->
<g id="node24" class="node">
<title>22</title>
<ellipse fill="none" stroke="black" cx="1626" cy="-816.95" rx="23.85" ry="23.85"/>
<ellipse fill="none" stroke="black" cx="1626" cy="-816.95" rx="27.85" ry="27.85"/>
<text xml:space="preserve" text-anchor="middle" x="1626" y="-812.28" font-family="Times,serif" font-size="14.00">22</text>
</g>
<!-- 7&#45;&gt;22 -->
<g id="edge49" class="edge">
<title>7&#45;&gt;22</title>
<path fill="none" stroke="black" d="M1707.36,-1959.73C1770.08,-1949.05 1923,-1918.34 1923,-1872.65 1923,-1872.65 1923,-1872.65 1923,-1554.28 1923,-1490.89 1891.9,-1042.07 1860,-987.3 1814.19,-908.66 1715.72,-856.4 1662.28,-832.65"/>
<polygon fill="black" stroke="black" points="1663.87,-829.52 1653.3,-828.75 1661.08,-835.94 1663.87,-829.52"/>
<text xml:space="preserve" text-anchor="middle" x="1920.23" y="-1397.03" font-family="Times,serif" font-size="14.00">2</text>
</g>
<!-- 8&#45;&gt;7 -->
<g id="edge121" class="edge">
<title>8&#45;&gt;7</title>
<path fill="none" stroke="black" d="M1017.93,-636.11C1005.63,-643.33 989.64,-653.57 977,-664.6 889.35,-741.11 708.4,-970.74 635,-1061 622.55,-1076.31 616.81,-1078.59 608,-1096.25 579.98,-1152.45 517.93,-1360.23 528,-1419.7 546.63,-1529.66 548.67,-1567.43 620,-1653.15 692.97,-1740.85 725.24,-1758.96 833,-1796.4 931.53,-1830.64 967.81,-1782.14 1067,-1814.4 1080.9,-1818.93 1081.15,-1826.99 1095,-1831.65 1172.44,-1857.76 1199.28,-1827.69 1278,-1849.65 1321.66,-1861.83 1327.62,-1877.58 1370,-1893.65 1465.1,-1929.73 1583.91,-1950.21 1643.39,-1958.9"/>
<polygon fill="black" stroke="black" points="1642.58,-1962.32 1652.97,-1960.26 1643.57,-1955.39 1642.58,-1962.32"/>
<text xml:space="preserve" text-anchor="middle" x="548.56" y="-1307.78" font-family="Times,serif" font-size="14.00">0</text>
</g>
<!-- 8&#45;&gt;9 -->
<g id="edge50" class="edge">
<title>8&#45;&gt;9</title>
<path fill="none" stroke="black" d="M1016.19,-616.59C983.63,-605.69 918.61,-584.18 863,-567.35 833.43,-558.4 799.67,-548.92 774.85,-542.09"/>
<polygon fill="black" stroke="black" points="775.81,-538.72 765.24,-539.45 773.96,-545.47 775.81,-538.72"/>
<text xml:space="preserve" text-anchor="middle" x="920.3" y="-571.3" font-family="Times,serif" font-size="14.00">2</text>
</g>
<!-- 14 -->
<g id="node16" class="node">
<title>14</title>
<ellipse fill="none" stroke="black" cx="980" cy="-136.8" rx="27" ry="18"/>
<text xml:space="preserve" text-anchor="middle" x="980" y="-132.13" font-family="Times,serif" font-size="14.00">14</text>
</g>
<!-- 8&#45;&gt;14 -->
<g id="edge72" class="edge">
<title>8&#45;&gt;14</title>
<path fill="none" stroke="black" d="M1043.75,-603.2C1049.21,-584.87 1056,-557.11 1056,-532.35 1056,-532.35 1056,-532.35 1056,-244.75 1056,-215.16 1049.05,-206.84 1032,-182.65 1025.32,-173.18 1016.22,-164.43 1007.49,-157.22"/>
<polygon fill="black" stroke="black" points="1009.88,-154.65 999.84,-151.24 1005.56,-160.16 1009.88,-154.65"/>
<text xml:space="preserve" text-anchor="middle" x="1060.5" y="-392.8" font-family="Times,serif" font-size="14.00">4</text>
</g>
<!-- 8&#45;&gt;14 -->
<g id="edge141" class="edge">
<title>8&#45;&gt;14</title>
<path fill="none" stroke="black" d="M1020.82,-609.19C1003.97,-592.52 980,-563.36 980,-532.35 980,-532.35 980,-532.35 980,-244.75 980,-218.24 980,-188.04 980,-166.5"/>
<polygon fill="black" stroke="black" points="983.5,-166.73 980,-156.73 976.5,-166.73 983.5,-166.73"/>
<text xml:space="preserve" text-anchor="middle" x="984.5" y="-392.8" font-family="Times,serif" font-size="14.00">3</text>
</g>
<!-- 8&#45;&gt;18 -->
<g id="edge105" class="edge">
<title>8&#45;&gt;18</title>
<path fill="none" stroke="black" d="M1052.62,-640.48C1068.57,-657.35 1091,-686.48 1091,-716.85 1091,-917.05 1091,-917.05 1091,-917.05 1091,-981.87 1161.85,-1135.54 1201,-1187.2 1247.91,-1249.12 1279.77,-1244.2 1339,-1294.45 1374.55,-1324.62 1375.33,-1342.91 1416,-1365.7 1419.97,-1367.93 1469.08,-1381.49 1504.29,-1391.06"/>
<polygon fill="black" stroke="black" points="1503.13,-1394.37 1513.69,-1393.61 1504.96,-1387.62 1503.13,-1394.37"/>
<text xml:space="preserve" text-anchor="middle" x="1129.51" y="-1010.48" font-family="Times,serif" font-size="14.00">1</text>
</g>
<!-- 9&#45;&gt;5 -->
<g id="edge111" class="edge">
<title>9&#45;&gt;5</title>
<path fill="none" stroke="black" d="M735.75,-549.69C728.1,-589.4 707.58,-689.81 681,-771.1 637.25,-904.9 438,-1215.31 438,-1356.08 438,-1690.15 438,-1690.15 438,-1690.15 438,-1717.11 458.11,-1741.27 475.79,-1757.29"/>
<polygon fill="black" stroke="black" points="473.15,-1759.64 483.02,-1763.49 477.71,-1754.32 473.15,-1759.64"/>
<text xml:space="preserve" text-anchor="middle" x="496.05" y="-1173.9" font-family="Times,serif" font-size="14.00">1</text>
</g>
<!-- 9&#45;&gt;10 -->
<g id="edge119" class="edge">
<title>9&#45;&gt;10</title>
<path fill="none" stroke="black" d="M747.25,-548.71C755.51,-566.62 767,-596.43 767,-623.6 767,-1016.15 767,-1016.15 767,-1016.15 767,-1149.61 965.92,-1200.64 1050.58,-1216.31"/>
<polygon fill="black" stroke="black" points="1049.78,-1219.73 1060.24,-1218.03 1051.01,-1212.83 1049.78,-1219.73"/>
<text xml:space="preserve" text-anchor="middle" x="771.5" y="-866.75" font-family="Times,serif" font-size="14.00">3</text>
</g>
<!-- 9&#45;&gt;20 -->
<g id="edge120" class="edge">
<title>9&#45;&gt;20</title>
<path fill="none" stroke="black" d="M765.33,-526.66C863.48,-512.89 1208.31,-464.52 1323.34,-448.39"/>
<polygon fill="black" stroke="black" points="1323.75,-451.86 1333.17,-447.01 1322.78,-444.93 1323.75,-451.86"/>
<text xml:space="preserve" text-anchor="middle" x="1110.21" y="-482.05" font-family="Times,serif" font-size="14.00">4</text>
</g>
<!-- 9&#45;&gt;25 -->
<g id="edge85" class="edge">
<title>9&#45;&gt;25</title>
<path fill="none" stroke="black" d="M720.97,-517.82C701.42,-502.61 673,-475.01 673,-443.1 673,-443.1 673,-443.1 673,-135.8 673,-109.29 673,-79.08 673,-57.55"/>
<polygon fill="black" stroke="black" points="676.5,-57.78 673,-47.78 669.5,-57.78 676.5,-57.78"/>
<text xml:space="preserve" text-anchor="middle" x="677.5" y="-295.55" font-family="Times,serif" font-size="14.00">0</text>
</g>
<!-- 9&#45;&gt;29 -->
<g id="edge64" class="edge">
<title>9&#45;&gt;29</title>
<path fill="none" stroke="black" d="M722.16,-545.62C627.51,-621.81 166,-1015.39 166,-1445.33 166,-2330.9 166,-2330.9 166,-2330.9 166,-2428.47 935.14,-2429.51 1119.59,-2428.36"/>
<polygon fill="black" stroke="black" points="1119.39,-2431.86 1129.37,-2428.29 1119.34,-2424.86 1119.39,-2431.86"/>
<text xml:space="preserve" text-anchor="middle" x="170.5" y="-1496.13" font-family="Times,serif" font-size="14.00">2</text>
</g>
<!-- 10&#45;&gt;17 -->
<g id="edge34" class="edge">
<title>10&#45;&gt;17</title>
<path fill="none" stroke="black" d="M1108.42,-1211.07C1138.55,-1194.63 1195.3,-1163.67 1231.84,-1143.74"/>
<polygon fill="black" stroke="black" points="1233.14,-1147.02 1240.24,-1139.16 1229.78,-1140.87 1233.14,-1147.02"/>
<text xml:space="preserve" text-anchor="middle" x="1186.84" y="-1173.9" font-family="Times,serif" font-size="14.00">3</text>
</g>
<!-- 10&#45;&gt;19 -->
<g id="edge134" class="edge">
<title>10&#45;&gt;19</title>
<path fill="none" stroke="black" d="M1090.56,-1241.41C1092.32,-1253.23 1094.7,-1269.2 1096.75,-1282.91"/>
<polygon fill="black" stroke="black" points="1093.27,-1283.34 1098.21,-1292.72 1100.2,-1282.31 1093.27,-1283.34"/>
<text xml:space="preserve" text-anchor="middle" x="1100.16" y="-1263.15" font-family="Times,serif" font-size="14.00">4</text>
</g>
<!-- 10&#45;&gt;20 -->
<g id="edge74" class="edge">
<title>10&#45;&gt;20</title>
<path fill="none" stroke="black" d="M1093.34,-1205.34C1105.63,-1166.67 1137.02,-1068.67 1165,-987.3 1233.48,-788.18 1321.28,-550.15 1350.8,-470.54"/>
<polygon fill="black" stroke="black" points="1354,-471.98 1354.2,-461.39 1347.44,-469.54 1354,-471.98"/>
<text xml:space="preserve" text-anchor="middle" x="1239.04" y="-812.28" font-family="Times,serif" font-size="14.00">0</text>
</g>
<!-- 10&#45;&gt;24 -->
<g id="edge30" class="edge">
<title>10&#45;&gt;24</title>
<path fill="none" stroke="black" d="M1105.13,-1237.6C1134.45,-1259.91 1196.8,-1304.76 1256,-1330.45 1285.07,-1343.07 1294.72,-1339.08 1325,-1348.45 1325.35,-1348.56 1422.67,-1383.55 1423,-1383.7 1467.52,-1404.06 1487.22,-1400.47 1519,-1437.7 1525.04,-1444.77 1529.55,-1453.57 1532.91,-1462.31"/>
<polygon fill="black" stroke="black" points="1529.58,-1463.39 1536.08,-1471.76 1536.22,-1461.16 1529.58,-1463.39"/>
<text xml:space="preserve" text-anchor="middle" x="1377.38" y="-1352.4" font-family="Times,serif" font-size="14.00">1</text>
</g>
<!-- 10&#45;&gt;28 -->
<g id="edge80" class="edge">
<title>10&#45;&gt;28</title>
<path fill="none" stroke="black" d="M1063.37,-1231.23C1034.47,-1239.67 989.76,-1253.41 984,-1259.2 948.89,-1294.56 968.24,-1319.75 949,-1365.7 933.63,-1402.42 908,-1405.52 908,-1445.33 908,-1600.9 908,-1600.9 908,-1600.9 908,-1622.8 898.39,-1645.71 889.24,-1662.55"/>
<polygon fill="black" stroke="black" points="886.4,-1660.47 884.45,-1670.88 892.47,-1663.96 886.4,-1660.47"/>
<text xml:space="preserve" text-anchor="middle" x="912.5" y="-1441.65" font-family="Times,serif" font-size="14.00">2</text>
</g>
<!-- 11&#45;&gt;0 -->
<g id="edge93" class="edge">
<title>11&#45;&gt;0</title>
<path fill="none" stroke="black" d="M895.33,-1033.35C890.45,-1036.81 885.17,-1040.22 880,-1043 834.96,-1067.22 807.25,-1054.31 778,-1096.25 636.64,-1298.93 680,-1396.43 680,-1643.53 680,-2148.4 680,-2148.4 680,-2148.4 680,-2169.26 680,-2192.79 680,-2210.73"/>
<polygon fill="black" stroke="black" points="676.5,-2210.65 680,-2220.65 683.5,-2210.65 676.5,-2210.65"/>
<text xml:space="preserve" text-anchor="middle" x="684.5" y="-1639.85" font-family="Times,serif" font-size="14.00">0</text>
</g>
<!-- 11&#45;&gt;7 -->
<g id="edge40" class="edge">
<title>11&#45;&gt;7</title>
<path fill="none" stroke="black" d="M894.92,-1032.05C869.5,-1050.71 829.85,-1081.05 819,-1096.25 772.06,-1162.04 756,-1186.01 756,-1266.83 756,-1402.7 756,-1402.7 756,-1402.7 756,-1542.72 725.53,-1622.42 837,-1707.15 957.95,-1799.1 1018.33,-1765.07 1167,-1796.4 1218.91,-1807.35 1234.14,-1799.32 1285,-1814.4 1366.86,-1838.68 1382.21,-1858.46 1460,-1893.65 1494.66,-1909.33 1502.04,-1916.5 1538,-1928.9 1573.3,-1941.08 1614.89,-1950.76 1644.08,-1956.83"/>
<polygon fill="black" stroke="black" points="1643.03,-1960.18 1653.53,-1958.75 1644.43,-1953.32 1643.03,-1960.18"/>
<text xml:space="preserve" text-anchor="middle" x="758.48" y="-1496.13" font-family="Times,serif" font-size="14.00">2</text>
</g>
<!-- 11&#45;&gt;8 -->
<g id="edge83" class="edge">
<title>11&#45;&gt;8</title>
<path fill="none" stroke="black" d="M935.54,-994.28C950.82,-975.76 970,-946.63 970,-917.05 970,-917.05 970,-917.05 970,-716.85 970,-688.01 992.02,-662.25 1010.81,-645.51"/>
<polygon fill="black" stroke="black" points="1012.86,-648.37 1018.24,-639.24 1008.34,-643.02 1012.86,-648.37"/>
<text xml:space="preserve" text-anchor="middle" x="974.5" y="-812.28" font-family="Times,serif" font-size="14.00">4</text>
</g>
<!-- 11&#45;&gt;15 -->
<g id="edge146" class="edge">
<title>11&#45;&gt;15</title>
<path fill="none" stroke="black" d="M943.32,-1004.67C981.41,-991.25 1054.3,-966.74 1118,-952.05 1183.35,-936.98 1260.85,-926.56 1306.02,-921.22"/>
<polygon fill="black" stroke="black" points="1306.28,-924.71 1315.81,-920.08 1305.48,-917.76 1306.28,-924.71"/>
<text xml:space="preserve" text-anchor="middle" x="1122.5" y="-956" font-family="Times,serif" font-size="14.00">1</text>
</g>
<!-- 11&#45;&gt;28 -->
<g id="edge122" class="edge">
<title>11&#45;&gt;28</title>
<path fill="none" stroke="black" d="M908.22,-1041.93C886.51,-1108.08 832,-1289.62 832,-1445.33 832,-1600.9 832,-1600.9 832,-1600.9 832,-1623.71 843.62,-1646.96 854.48,-1663.71"/>
<polygon fill="black" stroke="black" points="851.3,-1665.26 859.84,-1671.53 857.07,-1661.3 851.3,-1665.26"/>
<text xml:space="preserve" text-anchor="middle" x="842.19" y="-1352.4" font-family="Times,serif" font-size="14.00">3</text>
</g>
<!-- 12 -->
<g id="node14" class="node">
<title>12</title>
<ellipse fill="none" stroke="black" cx="1344" cy="-717.85" rx="27" ry="18"/>
<text xml:space="preserve" text-anchor="middle" x="1344" y="-713.18" font-family="Times,serif" font-size="14.00">12</text>
</g>
<!-- 12&#45;&gt;8 -->
<g id="edge16" class="edge">
<title>12&#45;&gt;8</title>
<path fill="none" stroke="black" d="M1319.65,-709.62C1264.63,-693.26 1130.68,-653.45 1069.03,-635.12"/>
<polygon fill="black" stroke="black" points="1070.08,-631.78 1059.5,-632.29 1068.09,-638.49 1070.08,-631.78"/>
<text xml:space="preserve" text-anchor="middle" x="1222.5" y="-668.55" font-family="Times,serif" font-size="14.00">2</text>
</g>
<!-- 12&#45;&gt;15 -->
<g id="edge131" class="edge">
<title>12&#45;&gt;15</title>
<path fill="none" stroke="black" d="M1344,-736.22C1344,-770.01 1344,-844.86 1344,-886.21"/>
<polygon fill="black" stroke="black" points="1340.5,-886.13 1344,-896.13 1347.5,-886.13 1340.5,-886.13"/>
<text xml:space="preserve" text-anchor="middle" x="1348.5" y="-812.28" font-family="Times,serif" font-size="14.00">1</text>
</g>
<!-- 12&#45;&gt;20 -->
<g id="edge62" class="edge">
<title>12&#45;&gt;20</title>
<path fill="none" stroke="black" d="M1344.22,-699.8C1344.66,-672.02 1345.89,-615.29 1349,-567.35 1351.14,-534.46 1354.97,-496.79 1357.73,-471.63"/>
<polygon fill="black" stroke="black" points="1361.19,-472.19 1358.82,-461.86 1354.23,-471.42 1361.19,-472.19"/>
<text xml:space="preserve" text-anchor="middle" x="1353.5" y="-571.3" font-family="Times,serif" font-size="14.00">0</text>
</g>
<!-- 12&#45;&gt;20 -->
<g id="edge95" class="edge">
<title>12&#45;&gt;20</title>
<path fill="none" stroke="black" d="M1352.41,-700.52C1354.99,-694.77 1357.53,-688.16 1359,-681.85 1379.55,-593.61 1372.42,-568.48 1366,-478.1 1365.84,-475.9 1365.63,-473.62 1365.38,-471.34"/>
<polygon fill="black" stroke="black" points="1368.88,-471.11 1364.12,-461.64 1361.94,-472.01 1368.88,-471.11"/>
<text xml:space="preserve" text-anchor="middle" x="1377.12" y="-571.3" font-family="Times,serif" font-size="14.00">3</text>
</g>
<!-- 12&#45;&gt;23 -->
<g id="edge150" class="edge">
<title>12&#45;&gt;23</title>
<path fill="none" stroke="black" d="M1317.03,-714.62C1168.85,-702.35 453.95,-643.15 280.15,-628.76"/>
<polygon fill="black" stroke="black" points="280.57,-625.28 270.32,-627.95 279.99,-632.26 280.57,-625.28"/>
<text xml:space="preserve" text-anchor="middle" x="896.2" y="-668.55" font-family="Times,serif" font-size="14.00">4</text>
</g>
<!-- 13 -->
<g id="node15" class="node">
<title>13</title>
<ellipse fill="none" stroke="black" cx="1828" cy="-136.8" rx="23.85" ry="23.85"/>
<ellipse fill="none" stroke="black" cx="1828" cy="-136.8" rx="27.85" ry="27.85"/>
<text xml:space="preserve" text-anchor="middle" x="1828" y="-132.13" font-family="Times,serif" font-size="14.00">13</text>
</g>
<!-- 13&#45;&gt;8 -->
<g id="edge137" class="edge">
<title>13&#45;&gt;8</title>
<path fill="none" stroke="black" d="M1800.19,-141.72C1774.37,-146.78 1736.62,-158.09 1714,-182.65 1674.32,-225.74 1712.98,-263.42 1676,-308.85 1509.11,-513.86 1175.4,-595.96 1069.82,-617.47"/>
<polygon fill="black" stroke="black" points="1069.26,-614.01 1060.13,-619.39 1070.62,-620.87 1069.26,-614.01"/>
<text xml:space="preserve" text-anchor="middle" x="1600.09" y="-392.8" font-family="Times,serif" font-size="14.00">4</text>
</g>
<!-- 13&#45;&gt;13 -->
<g id="edge33" class="edge">
<title>13&#45;&gt;13</title>
<path fill="none" stroke="black" d="M1854.39,-146.95C1864.97,-147.53 1873.85,-144.14 1873.85,-136.8 1873.85,-132.33 1870.55,-129.32 1865.58,-127.79"/>
<polygon fill="black" stroke="black" points="1866.19,-124.33 1855.89,-126.8 1865.49,-131.3 1866.19,-124.33"/>
<text xml:space="preserve" text-anchor="middle" x="1878.35" y="-132.13" font-family="Times,serif" font-size="14.00">1</text>
</g>
<!-- 13&#45;&gt;15 -->
<g id="edge69" class="edge">
<title>13&#45;&gt;15</title>
<path fill="none" stroke="black" d="M1803.28,-150.37C1773.67,-167.39 1728,-200.78 1728,-244.75 1728,-487.73 1728,-487.73 1728,-487.73 1728,-590.4 1571.56,-826.45 1484,-880.05 1452.88,-899.11 1411.84,-907.81 1382.26,-911.77"/>
<polygon fill="black" stroke="black" points="1382.14,-908.26 1372.63,-912.93 1382.98,-915.21 1382.14,-908.26"/>
<text xml:space="preserve" text-anchor="middle" x="1729.69" y="-526.68" font-family="Times,serif" font-size="14.00">0</text>
</g>
<!-- 16 -->
<g id="node18" class="node">
<title>16</title>
<ellipse fill="none" stroke="black" cx="1911" cy="-27.85" rx="23.85" ry="23.85"/>
<ellipse fill="none" stroke="black" cx="1911" cy="-27.85" rx="27.85" ry="27.85"/>
<text xml:space="preserve" text-anchor="middle" x="1911" y="-23.18" font-family="Times,serif" font-size="14.00">16</text>
</g>
<!-- 13&#45;&gt;16 -->
<g id="edge88" class="edge">
<title>13&#45;&gt;16</title>
<path fill="none" stroke="black" d="M1844.8,-114.16C1857.06,-98.36 1873.85,-76.73 1887.45,-59.2"/>
<polygon fill="black" stroke="black" points="1889.93,-61.7 1893.3,-51.66 1884.4,-57.41 1889.93,-61.7"/>
<text xml:space="preserve" text-anchor="middle" x="1878.97" y="-77.65" font-family="Times,serif" font-size="14.00">2</text>
</g>
<!-- 13&#45;&gt;20 -->
<g id="edge123" class="edge">
<title>13&#45;&gt;20</title>
<path fill="none" stroke="black" d="M1799.9,-138.29C1756.38,-140.17 1671.19,-148.35 1609,-182.65 1501.8,-241.78 1412.81,-362.82 1377.42,-415.57"/>
<polygon fill="black" stroke="black" points="1374.5,-413.64 1371.9,-423.91 1380.34,-417.5 1374.5,-413.64"/>
<text xml:space="preserve" text-anchor="middle" x="1478.06" y="-295.55" font-family="Times,serif" font-size="14.00">3</text>
</g>
<!-- 14&#45;&gt;5 -->
<g id="edge107" class="edge">
<title>14&#45;&gt;5</title>
<path fill="none" stroke="black" d="M953.88,-142.53C891.9,-155.12 734.84,-195.31 651,-291.6 621.3,-325.72 633.17,-345.29 621,-388.85 522.61,-741.16 512.09,-832.94 421,-1187.2 411.89,-1222.65 400,-1230.23 400,-1266.83 400,-1690.15 400,-1690.15 400,-1690.15 400,-1726.68 438.24,-1751.19 467.89,-1764.7"/>
<polygon fill="black" stroke="black" points="466.38,-1767.86 476.95,-1768.59 469.14,-1761.43 466.38,-1767.86"/>
<text xml:space="preserve" text-anchor="middle" x="483.48" y="-956" font-family="Times,serif" font-size="14.00">1</text>
</g>
<!-- 14&#45;&gt;8 -->
<g id="edge144" class="edge">
<title>14&#45;&gt;8</title>
<path fill="none" stroke="black" d="M989.59,-153.84C1000.85,-174.23 1018,-210.86 1018,-244.75 1018,-532.35 1018,-532.35 1018,-532.35 1018,-552.66 1022.57,-574.99 1027.22,-592.48"/>
<polygon fill="black" stroke="black" points="1023.75,-593.07 1029.84,-601.74 1030.49,-591.17 1023.75,-593.07"/>
<text xml:space="preserve" text-anchor="middle" x="1022.5" y="-392.8" font-family="Times,serif" font-size="14.00">0</text>
</g>
<!-- 14&#45;&gt;15 -->
<g id="edge140" class="edge">
<title>14&#45;&gt;15</title>
<path fill="none" stroke="black" d="M970.69,-154.15C948.82,-194.13 896,-300.63 896,-396.48 896,-625.6 896,-625.6 896,-625.6 896,-651.36 890.98,-664.47 910,-681.85 948.51,-717.05 978.14,-679.09 1026,-699.85 1121.83,-741.42 1123.36,-787.97 1211,-844.8 1244.08,-866.25 1284.39,-886.83 1311.91,-900.11"/>
<polygon fill="black" stroke="black" points="1310.24,-903.19 1320.77,-904.34 1313.26,-896.88 1310.24,-903.19"/>
<text xml:space="preserve" text-anchor="middle" x="900.5" y="-526.68" font-family="Times,serif" font-size="14.00">4</text>
</g>
<!-- 14&#45;&gt;16 -->
<g id="edge3" class="edge">
<title>14&#45;&gt;16</title>
<path fill="none" stroke="black" d="M1006.37,-132.19C1079.45,-122.24 1290.86,-93.82 1467,-73.7 1616.36,-56.64 1794.38,-39.67 1871.81,-32.46"/>
<polygon fill="black" stroke="black" points="1871.78,-35.98 1881.41,-31.57 1871.13,-29.01 1871.78,-35.98"/>
<text xml:space="preserve" text-anchor="middle" x="1471.5" y="-77.65" font-family="Times,serif" font-size="14.00">3</text>
</g>
<!-- 14&#45;&gt;25 -->
<g id="edge41" class="edge">
<title>14&#45;&gt;25</title>
<path fill="none" stroke="black" d="M958.26,-125.69C929.69,-112.63 877.77,-89.69 832,-73.7 790.46,-59.19 741.61,-45.96 709.12,-37.69"/>
<polygon fill="black" stroke="black" points="710.38,-34.4 699.82,-35.35 708.67,-41.19 710.38,-34.4"/>
<text xml:space="preserve" text-anchor="middle" x="881.88" y="-77.65" font-family="Times,serif" font-size="14.00">2</text>
</g>
<!-- 15&#45;&gt;5 -->
<g id="edge9" class="edge">
<title>15&#45;&gt;5</title>
<path fill="none" stroke="black" d="M1317.99,-921.15C1257.87,-932.07 1108.7,-967.64 1034,-1061 975.9,-1133.61 983.25,-1167.65 967,-1259.2 936.39,-1431.65 1021.32,-1490.25 957,-1653.15 945.21,-1683.02 936.84,-1691.16 909,-1707.15 846.21,-1743.23 629.17,-1766.11 540.35,-1774.16"/>
<polygon fill="black" stroke="black" points="540.1,-1770.67 530.45,-1775.04 540.72,-1777.64 540.1,-1770.67"/>
<text xml:space="preserve" text-anchor="middle" x="965.63" y="-1352.4" font-family="Times,serif" font-size="14.00">2</text>
</g>
<!-- 15&#45;&gt;9 -->
<g id="edge149" class="edge">
<title>15&#45;&gt;9</title>
<path fill="none" stroke="black" d="M1316.88,-913.24C1237.57,-907.49 1007.95,-887.46 948,-844.8 830.74,-761.35 874.7,-676.6 781,-567.35 776.49,-562.09 771.13,-556.98 765.78,-552.37"/>
<polygon fill="black" stroke="black" points="768.06,-549.71 758.1,-546.09 763.63,-555.13 768.06,-549.71"/>
<text xml:space="preserve" text-anchor="middle" x="866.96" y="-713.18" font-family="Times,serif" font-size="14.00">3</text>
</g>
<!-- 15&#45;&gt;17 -->
<g id="edge17" class="edge">
<title>15&#45;&gt;17</title>
<path fill="none" stroke="black" d="M1323.22,-927.91C1313.12,-933.97 1301.39,-942.27 1293,-952.05 1281.67,-965.25 1280.5,-970.5 1276,-987.3 1267.46,-1019.23 1265.26,-1056.79 1265.03,-1084.31"/>
<polygon fill="black" stroke="black" points="1261.53,-1084.3 1265.04,-1094.3 1268.53,-1084.29 1261.53,-1084.3"/>
<text xml:space="preserve" text-anchor="middle" x="1280.5" y="-1010.48" font-family="Times,serif" font-size="14.00">0</text>
</g>
<!-- 15&#45;&gt;17 -->
<g id="edge29" class="edge">
<title>15&#45;&gt;17</title>
<path fill="none" stroke="black" d="M1337.23,-933.76C1334.91,-939.54 1332.31,-946.07 1330,-952.05 1312.03,-998.48 1292.03,-1052.3 1279.25,-1086.98"/>
<polygon fill="black" stroke="black" points="1276.06,-1085.52 1275.89,-1096.11 1282.63,-1087.94 1276.06,-1085.52"/>
<text xml:space="preserve" text-anchor="middle" x="1320.59" y="-1010.48" font-family="Times,serif" font-size="14.00">4</text>
</g>
<!-- 15&#45;&gt;22 -->
<g id="edge116" class="edge">
<title>15&#45;&gt;22</title>
<path fill="none" stroke="black" d="M1367.56,-906.94C1416.68,-890.03 1530.36,-850.89 1589.21,-830.62"/>
<polygon fill="black" stroke="black" points="1590.13,-834.01 1598.44,-827.44 1587.85,-827.39 1590.13,-834.01"/>
<text xml:space="preserve" text-anchor="middle" x="1497.96" y="-866.75" font-family="Times,serif" font-size="14.00">1</text>
</g>
<!-- 16&#45;&gt;4 -->
<g id="edge22" class="edge">
<title>16&#45;&gt;4</title>
<path fill="none" stroke="black" d="M1939.16,-29.23C2040.13,-31.36 2378,-45.24 2378,-135.8 2378,-674.23 2378,-674.23 2378,-674.23 2378,-944.75 2239,-996.3 2239,-1266.83 2239,-2055.15 2239,-2055.15 2239,-2055.15 2239,-2139.36 1575.53,-2146.03 1416.81,-2146.41"/>
<polygon fill="black" stroke="black" points="1416.96,-2142.91 1406.97,-2146.43 1416.98,-2149.91 1416.96,-2142.91"/>
<text xml:space="preserve" text-anchor="middle" x="2265.53" y="-1119.43" font-family="Times,serif" font-size="14.00">2</text>
</g>
<!-- 16&#45;&gt;8 -->
<g id="edge130" class="edge">
<title>16&#45;&gt;8</title>
<path fill="none" stroke="black" d="M1882.9,-30.04C1807.71,-33.57 1603.55,-45.55 1543,-73.7 1303.62,-184.97 1257.66,-260.65 1108,-478.1 1079.06,-520.15 1089.62,-539.88 1065,-584.6 1062.65,-588.87 1059.91,-593.23 1057.08,-597.41"/>
<polygon fill="black" stroke="black" points="1054.29,-595.3 1051.35,-605.48 1059.99,-599.36 1054.29,-595.3"/>
<text xml:space="preserve" text-anchor="middle" x="1217.58" y="-344.18" font-family="Times,serif" font-size="14.00">0</text>
</g>
<!-- 16&#45;&gt;16 -->
<g id="edge110" class="edge">
<title>16&#45;&gt;16</title>
<path fill="none" stroke="black" d="M1937.39,-38C1947.97,-38.58 1956.85,-35.19 1956.85,-27.85 1956.85,-23.38 1953.55,-20.37 1948.58,-18.84"/>
<polygon fill="black" stroke="black" points="1949.19,-15.38 1938.89,-17.85 1948.49,-22.35 1949.19,-15.38"/>
<text xml:space="preserve" text-anchor="middle" x="1961.35" y="-23.18" font-family="Times,serif" font-size="14.00">1</text>
</g>
<!-- 16&#45;&gt;18 -->
<g id="edge4" class="edge">
<title>16&#45;&gt;18</title>
<path fill="none" stroke="black" d="M1911,-56.1C1911,-77.72 1911,-108.69 1911,-135.8 1911,-576.98 1911,-576.98 1911,-576.98 1911,-585.31 1741.83,-1144.11 1739,-1151.95 1724.35,-1192.5 1720.11,-1202.56 1701,-1241.2 1693.01,-1257.35 1692.36,-1262.47 1681,-1276.45 1646.66,-1318.73 1597.15,-1358.7 1566.85,-1381.4"/>
<polygon fill="black" stroke="black" points="1564.91,-1378.48 1558.95,-1387.24 1569.08,-1384.11 1564.91,-1378.48"/>
<text xml:space="preserve" text-anchor="middle" x="1879.49" y="-713.18" font-family="Times,serif" font-size="14.00">3</text>
</g>
<!-- 16&#45;&gt;21 -->
<g id="edge53" class="edge">
<title>16&#45;&gt;21</title>
<path fill="none" stroke="black" d="M1939.15,-29.8C2034.59,-33.76 2340,-52.9 2340,-135.8 2340,-487.73 2340,-487.73 2340,-487.73 2340,-661.19 2184.86,-642.58 2092,-789.1 2018.46,-905.15 1960,-931.24 1960,-1068.63 1960,-1224.2 1960,-1224.2 1960,-1224.2 1960,-1282.82 1961,-1297.47 1961,-1356.08 1961,-1501.8 1961,-1501.8 1961,-1501.8 1961,-1558.46 1886.57,-1583.04 1839.55,-1592.92"/>
<polygon fill="black" stroke="black" points="1838.89,-1589.48 1829.74,-1594.83 1840.23,-1596.35 1838.89,-1589.48"/>
<text xml:space="preserve" text-anchor="middle" x="2096.5" y="-812.28" font-family="Times,serif" font-size="14.00">4</text>
</g>
<!-- 17&#45;&gt;11 -->
<g id="edge151" class="edge">
<title>17&#45;&gt;11</title>
<path fill="none" stroke="black" d="M1239.19,-1114.89C1177.38,-1095.95 1024.73,-1049.17 954.04,-1027.5"/>
<polygon fill="black" stroke="black" points="955.45,-1024.28 944.87,-1024.69 953.4,-1030.97 955.45,-1024.28"/>
<text xml:space="preserve" text-anchor="middle" x="1116.9" y="-1064.95" font-family="Times,serif" font-size="14.00">3</text>
</g>
<!-- 17&#45;&gt;18 -->
<g id="edge26" class="edge">
<title>17&#45;&gt;18</title>
<path fill="none" stroke="black" d="M1291.71,-1135.25C1308.63,-1142.89 1330.45,-1154.66 1346,-1169.95 1417.77,-1240.56 1384.84,-1298.72 1460,-1365.7 1462,-1367.48 1486.11,-1377.94 1507.35,-1386.97"/>
<polygon fill="black" stroke="black" points="1505.78,-1390.1 1516.35,-1390.78 1508.51,-1383.66 1505.78,-1390.1"/>
<text xml:space="preserve" text-anchor="middle" x="1408.11" y="-1263.15" font-family="Times,serif" font-size="14.00">2</text>
</g>
<!-- 27 -->
<g id="node29" class="node">
<title>27</title>
<ellipse fill="none" stroke="black" cx="844" cy="-1015.15" rx="27" ry="18"/>
<text xml:space="preserve" text-anchor="middle" x="844" y="-1010.48" font-family="Times,serif" font-size="14.00">27</text>
</g>
<!-- 17&#45;&gt;27 -->
<g id="edge78" class="edge">
<title>17&#45;&gt;27</title>
<path fill="none" stroke="black" d="M1238.23,-1119.51C1192.6,-1113.26 1099.14,-1099.05 1022,-1078.25 1000.11,-1072.35 995.87,-1066.99 974,-1061 932.97,-1049.78 918.93,-1060.15 880,-1043 876.13,-1041.3 872.29,-1039.11 868.64,-1036.73"/>
<polygon fill="black" stroke="black" points="870.89,-1034.04 860.73,-1031.02 866.79,-1039.71 870.89,-1034.04"/>
<text xml:space="preserve" text-anchor="middle" x="1026.5" y="-1064.95" font-family="Times,serif" font-size="14.00">1</text>
</g>
<!-- 17&#45;&gt;28 -->
<g id="edge19" class="edge">
<title>17&#45;&gt;28</title>
<path fill="none" stroke="black" d="M1256.29,-1150.57C1234.13,-1207.39 1176.48,-1347.93 1109,-1454.95 1059.29,-1533.79 1038.22,-1547.63 977,-1617.9 962.9,-1634.09 961.24,-1640.37 944,-1653.15 932.56,-1661.64 918.75,-1668.99 906.36,-1674.74"/>
<polygon fill="black" stroke="black" points="905.04,-1671.49 897.31,-1678.75 907.87,-1677.89 905.04,-1671.49"/>
<text xml:space="preserve" text-anchor="middle" x="1154.56" y="-1397.03" font-family="Times,serif" font-size="14.00">0</text>
</g>
<!-- 17&#45;&gt;29 -->
<g id="edge128" class="edge">
<title>17&#45;&gt;29</title>
<path fill="none" stroke="black" d="M1279.2,-1148.84C1313.38,-1210.85 1403.12,-1377.04 1417,-1437.7 1418.71,-1445.18 1418.11,-1447.37 1417,-1454.95 1403.75,-1545.9 1396.22,-1569.57 1358,-1653.15 1328.82,-1716.97 1188,-1849.1 1188,-1919.28 1188,-2330.9 1188,-2330.9 1188,-2330.9 1188,-2352.03 1181.62,-2374.7 1174.84,-2392.82"/>
<polygon fill="black" stroke="black" points="1171.62,-2391.46 1171.19,-2402.05 1178.12,-2394.04 1171.62,-2391.46"/>
<text xml:space="preserve" text-anchor="middle" x="1284.68" y="-1773.73" font-family="Times,serif" font-size="14.00">4</text>
</g>
<!-- 18&#45;&gt;0 -->
<g id="edge43" class="edge">
<title>18&#45;&gt;0</title>
<path fill="none" stroke="black" d="M1525.67,-1417.17C1519.91,-1423.29 1513.38,-1430.62 1508,-1437.7 1496.83,-1452.41 1494.12,-1456.37 1486,-1472.95 1418.65,-1610.53 1442.47,-1663.11 1367,-1796.4 1299.61,-1915.44 1253.44,-1924.8 1174,-2036.15 1122.62,-2108.18 1143.44,-2158.44 1068,-2204.65 1010.23,-2240.04 805.28,-2241.48 718.87,-2240.43"/>
<polygon fill="black" stroke="black" points="719.06,-2236.93 709.01,-2240.29 718.96,-2243.93 719.06,-2236.93"/>
<text xml:space="preserve" text-anchor="middle" x="1360.75" y="-1818.35" font-family="Times,serif" font-size="14.00">3</text>
</g>
<!-- 18&#45;&gt;13 -->
<g id="edge100" class="edge">
<title>18&#45;&gt;13</title>
<path fill="none" stroke="black" d="M1545.09,-1383.62C1568.79,-1304.59 1671.88,-967.04 1782,-699.85 1788.63,-683.77 1789.54,-679.2 1799,-664.6 1826.74,-621.83 1873,-627.95 1873,-576.98 1873,-576.98 1873,-576.98 1873,-244.75 1873,-218.04 1860.93,-190.31 1849.29,-169.78"/>
<polygon fill="black" stroke="black" points="1852.38,-168.13 1844.26,-161.33 1846.37,-171.71 1852.38,-168.13"/>
<text xml:space="preserve" text-anchor="middle" x="1764.02" y="-757.8" font-family="Times,serif" font-size="14.00">2</text>
</g>
<!-- 18&#45;&gt;15 -->
<g id="edge55" class="edge">
<title>18&#45;&gt;15</title>
<path fill="none" stroke="black" d="M1518.5,-1390.17C1508.66,-1384.29 1497.73,-1376.05 1491,-1365.7 1439.84,-1287.03 1461.27,-1027.89 1406,-952.05 1399.01,-942.46 1388.55,-935.14 1378.19,-929.74"/>
<polygon fill="black" stroke="black" points="1379.92,-926.69 1369.38,-925.61 1376.95,-933.02 1379.92,-926.69"/>
<text xml:space="preserve" text-anchor="middle" x="1457.27" y="-1173.9" font-family="Times,serif" font-size="14.00">4</text>
</g>
<!-- 18&#45;&gt;17 -->
<g id="edge58" class="edge">
<title>18&#45;&gt;17</title>
<path fill="none" stroke="black" d="M1518.03,-1391.11C1511.92,-1388.58 1505.24,-1385.93 1499,-1383.7 1472.77,-1374.36 1462.55,-1380.55 1439,-1365.7 1386.13,-1332.36 1361.07,-1222.92 1318,-1169.95 1311.84,-1162.37 1304.29,-1155.05 1296.88,-1148.6"/>
<polygon fill="black" stroke="black" points="1299.41,-1146.15 1289.5,-1142.43 1294.93,-1151.53 1299.41,-1146.15"/>
<text xml:space="preserve" text-anchor="middle" x="1379.32" y="-1263.15" font-family="Times,serif" font-size="14.00">0</text>
</g>
<!-- 18&#45;&gt;19 -->
<g id="edge7" class="edge">
<title>18&#45;&gt;19</title>
<path fill="none" stroke="black" d="M1513.53,-1396.86C1462.77,-1389.45 1353.43,-1373.23 1316,-1365.7 1284.59,-1359.39 1277.13,-1356.05 1246,-1348.45 1208.91,-1339.41 1166.45,-1329.17 1137.1,-1322.12"/>
<polygon fill="black" stroke="black" points="1138.17,-1318.77 1127.63,-1319.84 1136.53,-1325.58 1138.17,-1318.77"/>
<text xml:space="preserve" text-anchor="middle" x="1320.5" y="-1352.4" font-family="Times,serif" font-size="14.00">1</text>
</g>
<!-- 19&#45;&gt;10 -->
<g id="edge12" class="edge">
<title>19&#45;&gt;10</title>
<path fill="none" stroke="black" d="M1088.66,-1295.99C1084.78,-1290.2 1080.99,-1283.35 1079,-1276.45 1076.74,-1268.61 1077.13,-1259.93 1078.6,-1251.93"/>
<polygon fill="black" stroke="black" points="1081.96,-1252.9 1080.98,-1242.36 1075.17,-1251.22 1081.96,-1252.9"/>
<text xml:space="preserve" text-anchor="middle" x="1083.5" y="-1263.15" font-family="Times,serif" font-size="14.00">2</text>
</g>
<!-- 19&#45;&gt;15 -->
<g id="edge32" class="edge">
<title>19&#45;&gt;15</title>
<path fill="none" stroke="black" d="M1122.27,-1300.94C1163.92,-1279.22 1256.22,-1225.2 1303,-1151.95 1344.42,-1087.1 1347.31,-992.57 1345.78,-945.66"/>
<polygon fill="black" stroke="black" points="1349.28,-945.64 1345.35,-935.8 1342.29,-945.94 1349.28,-945.64"/>
<text xml:space="preserve" text-anchor="middle" x="1332.54" y="-1119.43" font-family="Times,serif" font-size="14.00">0</text>
</g>
<!-- 19&#45;&gt;25 -->
<g id="edge109" class="edge">
<title>19&#45;&gt;25</title>
<path fill="none" stroke="black" d="M1074.96,-1306.77C994.89,-1290.92 750.75,-1231.46 635,-1078.25 585.97,-1013.35 589.8,-978.32 603,-898.05 607.05,-873.4 614.86,-869.02 621,-844.8 630.01,-809.25 635,-800.15 635,-763.48 635,-763.48 635,-763.48 635,-135.8 635,-106.94 647.44,-76.09 658.08,-54.98"/>
<polygon fill="black" stroke="black" points="661.13,-56.71 662.7,-46.23 654.94,-53.44 661.13,-56.71"/>
<text xml:space="preserve" text-anchor="middle" x="639.5" y="-668.55" font-family="Times,serif" font-size="14.00">1</text>
</g>
<!-- 19&#45;&gt;28 -->
<g id="edge24" class="edge">
<title>19&#45;&gt;28</title>
<path fill="none" stroke="black" d="M1077.84,-1322.28C1065.77,-1328.01 1051.74,-1336.63 1043,-1348.45 993.95,-1414.85 1029.87,-1452.51 998,-1528.65 972.97,-1588.46 966.16,-1605.69 922,-1653.15 916.13,-1659.47 908.95,-1665.35 901.92,-1670.42"/>
<polygon fill="black" stroke="black" points="900.1,-1667.42 893.81,-1675.94 904.05,-1673.2 900.1,-1667.42"/>
<text xml:space="preserve" text-anchor="middle" x="1016.51" y="-1496.13" font-family="Times,serif" font-size="14.00">3</text>
</g>
<!-- 19&#45;&gt;29 -->
<g id="edge21" class="edge">
<title>19&#45;&gt;29</title>
<path fill="none" stroke="black" d="M1101.73,-1330.94C1103.85,-1382.82 1109.99,-1540.39 1112,-1671.15 1113.52,-1770.03 1107.66,-1794.86 1112,-1893.65 1120.19,-2080.23 1144.39,-2302.38 1154.49,-2389.89"/>
<polygon fill="black" stroke="black" points="1150.99,-2390.06 1155.62,-2399.59 1157.94,-2389.25 1150.99,-2390.06"/>
<text xml:space="preserve" text-anchor="middle" x="1116.5" y="-1866.98" font-family="Times,serif" font-size="14.00">4</text>
</g>
<!-- 20&#45;&gt;3 -->
<g id="edge63" class="edge">
<title>20&#45;&gt;3</title>
<path fill="none" stroke="black" d="M1353.44,-424.52C1350.93,-418.75 1348.22,-412.19 1346,-406.1 1343.13,-398.22 1340.35,-389.59 1337.9,-381.52"/>
<polygon fill="black" stroke="black" points="1341.29,-380.66 1335.1,-372.06 1334.58,-382.64 1341.29,-380.66"/>
<text xml:space="preserve" text-anchor="middle" x="1350.5" y="-392.8" font-family="Times,serif" font-size="14.00">1</text>
</g>
<!-- 20&#45;&gt;3 -->
<g id="edge90" class="edge">
<title>20&#45;&gt;3</title>
<path fill="none" stroke="black" d="M1343.5,-428.03C1337.03,-422.13 1330.44,-414.58 1327,-406.1 1323.96,-398.62 1323.1,-390.11 1323.31,-382.01"/>
<polygon fill="black" stroke="black" points="1326.79,-382.37 1324.15,-372.11 1319.82,-381.78 1326.79,-382.37"/>
<text xml:space="preserve" text-anchor="middle" x="1331.5" y="-392.8" font-family="Times,serif" font-size="14.00">0</text>
</g>
<!-- 20&#45;&gt;7 -->
<g id="edge42" class="edge">
<title>20&#45;&gt;7</title>
<path fill="none" stroke="black" d="M1384.89,-451.07C1460.46,-477.15 1698.55,-566.03 1855,-699.85 1885.61,-726.03 1880.79,-744.47 1911,-771.1 1922.66,-781.38 1931.14,-777.08 1941,-789.1 1955.84,-807.19 2006.69,-964.52 2012,-987.3 2040.38,-1109.08 2044,-1141.78 2044,-1266.83 2044,-1872.65 2044,-1872.65 2044,-1872.65 2044,-1938.95 1813.37,-1957.54 1719.77,-1962.35"/>
<polygon fill="black" stroke="black" points="1719.61,-1958.85 1709.8,-1962.83 1719.95,-1965.84 1719.61,-1958.85"/>
<text xml:space="preserve" text-anchor="middle" x="2048.43" y="-1218.53" font-family="Times,serif" font-size="14.00">3</text>
</g>
<!-- 20&#45;&gt;21 -->
<g id="edge36" class="edge">
<title>20&#45;&gt;21</title>
<path fill="none" stroke="black" d="M1381.87,-454C1458.18,-495.12 1722.92,-649.49 1827,-862.8 1884.7,-981.07 1827.05,-1323.4 1824,-1454.95 1823.7,-1467.96 1824.15,-1545.19 1819,-1563.9 1818.23,-1566.7 1817.24,-1569.54 1816.13,-1572.33"/>
<polygon fill="black" stroke="black" points="1813.01,-1570.73 1812.05,-1581.28 1819.38,-1573.63 1813.01,-1570.73"/>
<text xml:space="preserve" text-anchor="middle" x="1857.05" y="-1010.48" font-family="Times,serif" font-size="14.00">4</text>
</g>
<!-- 20&#45;&gt;29 -->
<g id="edge142" class="edge">
<title>20&#45;&gt;29</title>
<path fill="none" stroke="black" d="M1388.45,-442.64C1453.34,-442.67 1619.64,-449.5 1738,-513.35 1887.59,-594.06 1889.24,-662.8 2003,-789.1 2024.68,-813.17 2028.14,-820.9 2050,-844.8 2156.13,-960.87 2217.66,-961.64 2299,-1096.25 2340.13,-1164.31 2353,-1187.31 2353,-1266.83 2353,-2330.9 2353,-2330.9 2353,-2330.9 2353,-2437.9 2224.34,-2371.35 2118,-2383.15 1762.58,-2422.62 1329.31,-2427.44 1198.33,-2427.96"/>
<polygon fill="black" stroke="black" points="1198.46,-2424.46 1188.47,-2427.99 1198.48,-2431.46 1198.46,-2424.46"/>
<text xml:space="preserve" text-anchor="middle" x="2357.5" y="-1441.65" font-family="Times,serif" font-size="14.00">2</text>
</g>
<!-- 21&#45;&gt;7 -->
<g id="edge44" class="edge">
<title>21&#45;&gt;7</title>
<path fill="none" stroke="black" d="M1799.99,-1618.22C1797.51,-1639.26 1793.14,-1675.83 1789,-1707.15 1783.73,-1747.03 1787.6,-1758.55 1774,-1796.4 1754.72,-1850.07 1719.55,-1906.98 1698.42,-1938.72"/>
<polygon fill="black" stroke="black" points="1695.63,-1936.6 1692.94,-1946.85 1701.43,-1940.51 1695.63,-1936.6"/>
<text xml:space="preserve" text-anchor="middle" x="1788.07" y="-1773.73" font-family="Times,serif" font-size="14.00">3</text>
</g>
<!-- 21&#45;&gt;16 -->
<g id="edge125" class="edge">
<title>21&#45;&gt;16</title>
<path fill="none" stroke="black" d="M1816.61,-1584.64C1822.41,-1578.56 1828.91,-1571.19 1834,-1563.9 1875.39,-1504.7 1889.52,-1489.27 1909,-1419.7 1932.48,-1335.85 1922,-1311.28 1922,-1224.2 1922,-1224.2 1922,-1224.2 1922,-1068.63 1922,-1016.79 1919,-1003.42 1926,-952.05 1943.15,-826.2 1993,-801.24 1993,-674.23 1993,-674.23 1993,-674.23 1993,-135.8 1993,-101.31 1965.8,-71.07 1942.74,-51.63"/>
<polygon fill="black" stroke="black" points="1945.01,-48.96 1935.02,-45.42 1940.62,-54.42 1945.01,-48.96"/>
<text xml:space="preserve" text-anchor="middle" x="1979.33" y="-812.28" font-family="Times,serif" font-size="14.00">0</text>
</g>
<!-- 21&#45;&gt;18 -->
<g id="edge108" class="edge">
<title>21&#45;&gt;18</title>
<path fill="none" stroke="black" d="M1792.22,-1582.63C1771.74,-1549.99 1721.08,-1476.38 1659,-1437.7 1634.07,-1422.17 1601.92,-1413.26 1577.33,-1408.31"/>
<polygon fill="black" stroke="black" points="1578.23,-1404.92 1567.76,-1406.53 1576.95,-1411.8 1578.23,-1404.92"/>
<text xml:space="preserve" text-anchor="middle" x="1758.42" y="-1496.13" font-family="Times,serif" font-size="14.00">1</text>
</g>
<!-- 21&#45;&gt;19 -->
<g id="edge54" class="edge">
<title>21&#45;&gt;19</title>
<path fill="none" stroke="black" d="M1775.41,-1596.25C1721.99,-1590.14 1598.72,-1572.15 1505,-1528.65 1406.72,-1483.04 1406.2,-1431.56 1309,-1383.7 1282.87,-1370.84 1272.65,-1377.45 1246,-1365.7 1232.63,-1359.81 1231.34,-1354.43 1218,-1348.45 1191.9,-1336.75 1160.81,-1327.66 1137.24,-1321.68"/>
<polygon fill="black" stroke="black" points="1138.35,-1318.35 1127.8,-1319.36 1136.68,-1325.15 1138.35,-1318.35"/>
<text xml:space="preserve" text-anchor="middle" x="1408.83" y="-1441.65" font-family="Times,serif" font-size="14.00">4</text>
</g>
<!-- 21&#45;&gt;24 -->
<g id="edge129" class="edge">
<title>21&#45;&gt;24</title>
<path fill="none" stroke="black" d="M1783.85,-1586.18C1765.58,-1574.01 1736.13,-1556.15 1708,-1546.65 1655.24,-1528.83 1636.19,-1548.09 1584,-1528.65 1580.59,-1527.39 1577.17,-1525.81 1573.84,-1524.06"/>
<polygon fill="black" stroke="black" points="1575.89,-1521.21 1565.48,-1519.2 1572.37,-1527.26 1575.89,-1521.21"/>
<text xml:space="preserve" text-anchor="middle" x="1750.2" y="-1550.6" font-family="Times,serif" font-size="14.00">2</text>
</g>
<!-- 22&#45;&gt;1 -->
<g id="edge71" class="edge">
<title>22&#45;&gt;1</title>
<path fill="none" stroke="black" d="M1632.03,-844.55C1649.94,-925.17 1702.7,-1174.08 1720,-1383.7 1726.23,-1459.26 1719,-1478.47 1719,-1554.28 1719,-1779.4 1719,-1779.4 1719,-1779.4 1719,-1802.21 1708.76,-1825.94 1698.91,-1843.47"/>
<polygon fill="black" stroke="black" points="1696.1,-1841.35 1694.01,-1851.73 1702.12,-1844.92 1696.1,-1841.35"/>
<text xml:space="preserve" text-anchor="middle" x="1722.78" y="-1352.4" font-family="Times,serif" font-size="14.00">2</text>
</g>
<!-- 22&#45;&gt;12 -->
<g id="edge28" class="edge">
<title>22&#45;&gt;12</title>
<path fill="none" stroke="black" d="M1608.59,-794.97C1595.8,-781.03 1577.19,-763.55 1557,-753.85 1500.53,-726.72 1426.98,-720.1 1382.74,-718.77"/>
<polygon fill="black" stroke="black" points="1382.93,-715.27 1372.86,-718.56 1382.78,-722.27 1382.93,-715.27"/>
<text xml:space="preserve" text-anchor="middle" x="1586.98" y="-757.8" font-family="Times,serif" font-size="14.00">0</text>
</g>
<!-- 22&#45;&gt;17 -->
<g id="edge52" class="edge">
<title>22&#45;&gt;17</title>
<path fill="none" stroke="black" d="M1605.03,-835.73C1543.94,-887.51 1365.98,-1038.36 1295.36,-1098.21"/>
<polygon fill="black" stroke="black" points="1293.43,-1095.26 1288.07,-1104.4 1297.96,-1100.6 1293.43,-1095.26"/>
<text xml:space="preserve" text-anchor="middle" x="1471.23" y="-956" font-family="Times,serif" font-size="14.00">4</text>
</g>
<!-- 22&#45;&gt;18 -->
<g id="edge98" class="edge">
<title>22&#45;&gt;18</title>
<path fill="none" stroke="black" d="M1614.54,-842.72C1585.92,-907.15 1514.05,-1085.78 1521,-1241.2 1522.78,-1280.99 1524.14,-1290.93 1529,-1330.45 1530.69,-1344.2 1533.01,-1359.38 1535.08,-1372.11"/>
<polygon fill="black" stroke="black" points="1531.63,-1372.64 1536.72,-1381.93 1538.53,-1371.49 1531.63,-1372.64"/>
<text xml:space="preserve" text-anchor="middle" x="1537.58" y="-1119.43" font-family="Times,serif" font-size="14.00">3</text>
</g>
<!-- 22&#45;&gt;21 -->
<g id="edge2" class="edge">
<title>22&#45;&gt;21</title>
<path fill="none" stroke="black" d="M1644.95,-837.91C1680.38,-876.92 1755.08,-967.67 1777,-1061 1821.73,-1251.45 1810.04,-1489.95 1804.28,-1570.7"/>
<polygon fill="black" stroke="black" points="1800.81,-1570.12 1803.56,-1580.35 1807.79,-1570.64 1800.81,-1570.12"/>
<text xml:space="preserve" text-anchor="middle" x="1808.22" y="-1218.53" font-family="Times,serif" font-size="14.00">1</text>
</g>
<!-- 23&#45;&gt;2 -->
<g id="edge46" class="edge">
<title>23&#45;&gt;2</title>
<path fill="none" stroke="black" d="M232.57,-641.82C223.13,-659.61 210,-689.32 210,-716.85 210,-1070.63 210,-1070.63 210,-1070.63 210,-1306.02 248,-1363.51 248,-1598.9 248,-2241.65 248,-2241.65 248,-2241.65 248,-2277.87 285.65,-2302.39 314.98,-2315.99"/>
<polygon fill="black" stroke="black" points="313.37,-2319.11 323.93,-2319.91 316.17,-2312.69 313.37,-2319.11"/>
<text xml:space="preserve" text-anchor="middle" x="251.25" y="-1496.13" font-family="Times,serif" font-size="14.00">4</text>
</g>
<!-- 23&#45;&gt;2 -->
<g id="edge145" class="edge">
<title>23&#45;&gt;2</title>
<path fill="none" stroke="black" d="M215.33,-628.11C168.4,-634.16 76,-654.04 76,-716.85 76,-2241.65 76,-2241.65 76,-2241.65 76,-2290.42 236.05,-2315.66 311.06,-2324.81"/>
<polygon fill="black" stroke="black" points="310.48,-2328.27 320.82,-2325.96 311.3,-2321.32 310.48,-2328.27"/>
<text xml:space="preserve" text-anchor="middle" x="80.5" y="-1496.13" font-family="Times,serif" font-size="14.00">2</text>
</g>
<!-- 23&#45;&gt;5 -->
<g id="edge68" class="edge">
<title>23&#45;&gt;5</title>
<path fill="none" stroke="black" d="M251.43,-641.82C260.87,-659.61 274,-689.32 274,-716.85 274,-917.05 274,-917.05 274,-917.05 274,-1155.08 362,-1207.3 362,-1445.33 362,-1690.15 362,-1690.15 362,-1690.15 362,-1715.71 366.73,-1725.62 386,-1742.4 397.94,-1752.8 435.94,-1763.07 465.23,-1769.77"/>
<polygon fill="black" stroke="black" points="464.35,-1773.16 474.87,-1771.91 465.87,-1766.33 464.35,-1773.16"/>
<text xml:space="preserve" text-anchor="middle" x="339.86" y="-1218.53" font-family="Times,serif" font-size="14.00">3</text>
</g>
<!-- 23&#45;&gt;11 -->
<g id="edge51" class="edge">
<title>23&#45;&gt;11</title>
<path fill="none" stroke="black" d="M266.7,-632.37C346.66,-655.1 603.48,-734.55 780,-862.8 827.05,-896.98 870.06,-949.52 894.89,-982.84"/>
<polygon fill="black" stroke="black" points="891.76,-984.5 900.5,-990.48 897.4,-980.35 891.76,-984.5"/>
<text xml:space="preserve" text-anchor="middle" x="757.83" y="-812.28" font-family="Times,serif" font-size="14.00">1</text>
</g>
<!-- 23&#45;&gt;28 -->
<g id="edge20" class="edge">
<title>23&#45;&gt;28</title>
<path fill="none" stroke="black" d="M262.27,-636.54C286.55,-651.29 324,-680.01 324,-716.85 324,-961.68 324,-961.68 324,-961.68 324,-1018.78 352.91,-1026.96 378,-1078.25 413.8,-1151.45 416.62,-1173.53 462,-1241.2 491.02,-1284.48 498.95,-1295.96 538,-1330.45 570.29,-1358.97 588.19,-1353.59 619,-1383.7 723.05,-1485.43 695.69,-1557.1 805,-1653.15 815.08,-1662.01 827.8,-1669.33 839.5,-1674.95"/>
<polygon fill="black" stroke="black" points="837.93,-1678.07 848.48,-1679 840.8,-1671.69 837.93,-1678.07"/>
<text xml:space="preserve" text-anchor="middle" x="433.59" y="-1173.9" font-family="Times,serif" font-size="14.00">0</text>
</g>
<!-- 24&#45;&gt;7 -->
<g id="edge37" class="edge">
<title>24&#45;&gt;7</title>
<path fill="none" stroke="black" d="M1541.14,-1529.01C1540.6,-1548.47 1540,-1575.3 1540,-1598.9 1540,-1734.78 1540,-1734.78 1540,-1734.78 1540,-1822.68 1616.2,-1905.16 1656.56,-1942.7"/>
<polygon fill="black" stroke="black" points="1653.95,-1945.05 1663.71,-1949.2 1658.67,-1939.88 1653.95,-1945.05"/>
<text xml:space="preserve" text-anchor="middle" x="1544.64" y="-1729.1" font-family="Times,serif" font-size="14.00">0</text>
</g>
<!-- 24&#45;&gt;11 -->
<g id="edge112" class="edge">
<title>24&#45;&gt;11</title>
<path fill="none" stroke="black" d="M1518.11,-1486.45C1493.35,-1472.96 1453.25,-1452.12 1417,-1437.7 1341.01,-1407.49 1126.95,-1383.83 1065,-1330.45 978.58,-1255.99 939.07,-1119.99 924.33,-1054.03"/>
<polygon fill="black" stroke="black" points="927.78,-1053.45 922.25,-1044.41 920.94,-1054.93 927.78,-1053.45"/>
<text xml:space="preserve" text-anchor="middle" x="1020.51" y="-1263.15" font-family="Times,serif" font-size="14.00">4</text>
</g>
<!-- 24&#45;&gt;12 -->
<g id="edge75" class="edge">
<title>24&#45;&gt;12</title>
<path fill="none" stroke="black" d="M1555.23,-1475.74C1562.97,-1460.24 1571.99,-1439.39 1576,-1419.7 1579.19,-1404.02 1577.04,-1399.67 1576,-1383.7 1572.88,-1335.73 1567.24,-1324.24 1562,-1276.45 1541.78,-1092.04 1596.08,-1024.99 1506,-862.8 1474.22,-805.59 1410.83,-759.66 1373.46,-736.1"/>
<polygon fill="black" stroke="black" points="1375.74,-733.4 1365.39,-731.12 1372.07,-739.35 1375.74,-733.4"/>
<text xml:space="preserve" text-anchor="middle" x="1564.04" y="-1119.43" font-family="Times,serif" font-size="14.00">2</text>
</g>
<!-- 24&#45;&gt;16 -->
<g id="edge11" class="edge">
<title>24&#45;&gt;16</title>
<path fill="none" stroke="black" d="M1562.17,-1481.28C1569.34,-1473.73 1576.9,-1464.53 1582,-1454.95 1589.6,-1440.68 1587.18,-1435.42 1591,-1419.7 1631.59,-1252.74 1657.32,-1213.58 1678,-1043 1692.95,-919.66 1682,-887.72 1682,-763.48 1682,-763.48 1682,-763.48 1682,-530.35 1682,-471.47 1655.08,-461.81 1636,-406.1 1602.49,-308.25 1514.93,-269.56 1571,-182.65 1638.85,-77.49 1797.89,-43.46 1871.87,-33.09"/>
<polygon fill="black" stroke="black" points="1872.03,-36.6 1881.48,-31.82 1871.11,-29.66 1872.03,-36.6"/>
<text xml:space="preserve" text-anchor="middle" x="1686.51" y="-757.8" font-family="Times,serif" font-size="14.00">1</text>
</g>
<!-- 24&#45;&gt;18 -->
<g id="edge124" class="edge">
<title>24&#45;&gt;18</title>
<path fill="none" stroke="black" d="M1543.92,-1472.59C1544.42,-1461.73 1544.65,-1449.12 1544,-1437.7 1543.88,-1435.64 1543.73,-1433.51 1543.54,-1431.37"/>
<polygon fill="black" stroke="black" points="1547.05,-1431.21 1542.54,-1421.62 1540.08,-1431.93 1547.05,-1431.21"/>
<text xml:space="preserve" text-anchor="middle" x="1548.9" y="-1441.65" font-family="Times,serif" font-size="14.00">3</text>
</g>
<!-- 25&#45;&gt;0 -->
<g id="edge117" class="edge">
<title>25&#45;&gt;0</title>
<path fill="none" stroke="black" d="M645.78,-30.25C519.88,-37.07 0,-69.25 0,-135.8 0,-1179.58 0,-1179.58 0,-1179.58 0,-1319.44 122.04,-1310.42 180,-1437.7 220.91,-1527.55 196.05,-1562.02 234,-1653.15 285.53,-1776.9 456.58,-2069.54 546,-2169.4 572.57,-2199.08 614.67,-2218.24 644.59,-2228.94"/>
<polygon fill="black" stroke="black" points="643.37,-2232.22 653.97,-2232.14 645.64,-2225.6 643.37,-2232.22"/>
<text xml:space="preserve" text-anchor="middle" x="4.61" y="-1173.9" font-family="Times,serif" font-size="14.00">2</text>
</g>
<!-- 25&#45;&gt;6 -->
<g id="edge59" class="edge">
<title>25&#45;&gt;6</title>
<path fill="none" stroke="black" d="M645.96,-30.12C604.87,-33.02 525.23,-42.55 466,-73.7 430.35,-92.45 400,-95.52 400,-135.8 400,-1070.63 400,-1070.63 400,-1070.63 400,-1240.55 324,-1275.4 324,-1445.33 324,-1645.53 324,-1645.53 324,-1645.53 324,-1737.61 377.63,-1770.52 466,-1796.4 618.27,-1841 1025.83,-1804.73 1178,-1849.65 1250.81,-1871.15 1447.65,-1989.62 1522.02,-2035.24"/>
<polygon fill="black" stroke="black" points="1520.03,-2038.13 1530.38,-2040.38 1523.7,-2032.16 1520.03,-2038.13"/>
<text xml:space="preserve" text-anchor="middle" x="404.5" y="-1064.95" font-family="Times,serif" font-size="14.00">1</text>
</g>
<!-- 25&#45;&gt;8 -->
<g id="edge101" class="edge">
<title>25&#45;&gt;8</title>
<path fill="none" stroke="black" d="M683.28,-44.71C717.37,-97.55 829.05,-272.77 910,-424.1 947.23,-493.7 936.37,-523.24 986,-584.6 992.45,-592.57 1000.85,-599.85 1008.97,-605.91"/>
<polygon fill="black" stroke="black" points="1006.8,-608.66 1016.99,-611.55 1010.82,-602.94 1006.8,-608.66"/>
<text xml:space="preserve" text-anchor="middle" x="884.39" y="-344.18" font-family="Times,serif" font-size="14.00">0</text>
</g>
<!-- 25&#45;&gt;25 -->
<g id="edge70" class="edge">
<title>25&#45;&gt;25</title>
<path fill="none" stroke="black" d="M696.15,-37.76C707.7,-39.13 718,-35.83 718,-27.85 718,-22.61 713.56,-19.39 707.25,-18.18"/>
<polygon fill="black" stroke="black" points="707.74,-14.69 697.67,-17.97 707.59,-21.69 707.74,-14.69"/>
<text xml:space="preserve" text-anchor="middle" x="722.5" y="-23.18" font-family="Times,serif" font-size="14.00">3</text>
</g>
<!-- 25&#45;&gt;28 -->
<g id="edge127" class="edge">
<title>25&#45;&gt;28</title>
<path fill="none" stroke="black" d="M645.78,-29.68C586.5,-33.09 451,-50.24 451,-135.8 451,-674.23 451,-674.23 451,-674.23 451,-801.58 476,-832.32 476,-959.68 476,-1179.58 476,-1179.58 476,-1179.58 476,-1215.86 486.77,-1223.65 494,-1259.2 508.44,-1330.24 488.67,-1355.86 523,-1419.7 596.55,-1556.48 648.47,-1575.56 783,-1653.15 800.27,-1663.12 820.93,-1671.38 838.09,-1677.37"/>
<polygon fill="black" stroke="black" points="836.76,-1680.61 847.35,-1680.49 838.99,-1673.98 836.76,-1680.61"/>
<text xml:space="preserve" text-anchor="middle" x="476.49" y="-866.75" font-family="Times,serif" font-size="14.00">4</text>
</g>
<!-- 26&#45;&gt;7 -->
<g id="edge31" class="edge">
<title>26&#45;&gt;7</title>
<path fill="none" stroke="black" d="M2112,-273.79C2112,-294.15 2112,-322.75 2112,-347.85 2112,-576.98 2112,-576.98 2112,-576.98 2112,-696.11 2106.84,-725.81 2101,-844.8 2093.74,-992.77 2082,-1029.44 2082,-1177.58 2082,-1872.65 2082,-1872.65 2082,-1872.65 2082,-1946.49 1820.22,-1960.58 1719.68,-1963.27"/>
<polygon fill="black" stroke="black" points="1719.67,-1959.77 1709.76,-1963.51 1719.84,-1966.77 1719.67,-1959.77"/>
<text xml:space="preserve" text-anchor="middle" x="2087.93" y="-1119.43" font-family="Times,serif" font-size="14.00">2</text>
</g>
<!-- 26&#45;&gt;7 -->
<g id="edge118" class="edge">
<title>26&#45;&gt;7</title>
<path fill="none" stroke="black" d="M2126.15,-269.93C2136.95,-289.85 2150,-319.73 2150,-347.85 2150,-625.6 2150,-625.6 2150,-625.6 2150,-910.81 2125,-981.62 2125,-1266.83 2125,-1872.65 2125,-1872.65 2125,-1872.65 2125,-1955.05 1827.93,-1963.7 1719.78,-1964.12"/>
<polygon fill="black" stroke="black" points="1719.95,-1960.62 1709.95,-1964.14 1719.96,-1967.62 1719.95,-1960.62"/>
<text xml:space="preserve" text-anchor="middle" x="2132.95" y="-1119.43" font-family="Times,serif" font-size="14.00">0</text>
</g>
<!-- 26&#45;&gt;11 -->
<g id="edge115" class="edge">
<title>26&#45;&gt;11</title>
<path fill="none" stroke="black" d="M2085.76,-256.1C1977.1,-295.62 1568,-452.54 1568,-574.98 1568,-718.85 1568,-718.85 1568,-718.85 1568,-845.85 1497.68,-886.3 1380,-934.05 1340.74,-949.98 1060.3,-992.81 955.97,-1008.39"/>
<polygon fill="black" stroke="black" points="955.59,-1004.9 946.21,-1009.84 956.62,-1011.83 955.59,-1004.9"/>
<text xml:space="preserve" text-anchor="middle" x="1572.5" y="-619.93" font-family="Times,serif" font-size="14.00">1</text>
</g>
<!-- 26&#45;&gt;13 -->
<g id="edge15" class="edge">
<title>26&#45;&gt;13</title>
<path fill="none" stroke="black" d="M2084.5,-239.36C2050.89,-232.32 1992.62,-218.66 1945,-199.9 1915.68,-188.36 1884.23,-171.38 1861.33,-158.09"/>
<polygon fill="black" stroke="black" points="1863.15,-155.1 1852.75,-153.05 1859.6,-161.14 1863.15,-155.1"/>
<text xml:space="preserve" text-anchor="middle" x="1949.5" y="-186.6" font-family="Times,serif" font-size="14.00">4</text>
</g>
<!-- 26&#45;&gt;14 -->
<g id="edge139" class="edge">
<title>26&#45;&gt;14</title>
<path fill="none" stroke="black" d="M2084.02,-242.11C1930.75,-227.63 1193.57,-157.98 1017.72,-141.36"/>
<polygon fill="black" stroke="black" points="1018.3,-137.9 1008.01,-140.45 1017.64,-144.87 1018.3,-137.9"/>
<text xml:space="preserve" text-anchor="middle" x="1618.28" y="-186.6" font-family="Times,serif" font-size="14.00">3</text>
</g>
<!-- 27&#45;&gt;0 -->
<g id="edge113" class="edge">
<title>27&#45;&gt;0</title>
<path fill="none" stroke="black" d="M816.8,-1017.14C786.01,-1019.83 736.8,-1029.22 711,-1061 628.86,-1162.22 642,-1513.17 642,-1643.53 642,-2148.4 642,-2148.4 642,-2148.4 642,-2172.07 653.03,-2196.73 663.21,-2214.43"/>
<polygon fill="black" stroke="black" points="660.04,-2215.97 668.22,-2222.7 666.03,-2212.34 660.04,-2215.97"/>
<text xml:space="preserve" text-anchor="middle" x="646.5" y="-1639.85" font-family="Times,serif" font-size="14.00">0</text>
</g>
<!-- 27&#45;&gt;5 -->
<g id="edge5" class="edge">
<title>27&#45;&gt;5</title>
<path fill="none" stroke="black" d="M818.18,-1020.69C768.64,-1029.62 664.09,-1049.57 652,-1061 606.67,-1103.88 594.22,-1271.78 573,-1330.45 536.12,-1432.41 476,-1445.86 476,-1554.28 476,-1690.15 476,-1690.15 476,-1690.15 476,-1711.03 482.92,-1733.59 489.62,-1750.54"/>
<polygon fill="black" stroke="black" points="486.24,-1751.52 493.33,-1759.39 492.69,-1748.82 486.24,-1751.52"/>
<text xml:space="preserve" text-anchor="middle" x="552.13" y="-1397.03" font-family="Times,serif" font-size="14.00">2</text>
</g>
<!-- 27&#45;&gt;14 -->
<g id="edge61" class="edge">
<title>27&#45;&gt;14</title>
<path fill="none" stroke="black" d="M844.52,-996.82C845.98,-946.8 850,-797.88 850,-674.23 850,-674.23 850,-674.23 850,-347.85 850,-268.64 917.67,-194.39 955.36,-159.18"/>
<polygon fill="black" stroke="black" points="957.65,-161.82 962.68,-152.5 952.93,-156.65 957.65,-161.82"/>
<text xml:space="preserve" text-anchor="middle" x="854.5" y="-571.3" font-family="Times,serif" font-size="14.00">1</text>
</g>
<!-- 27&#45;&gt;17 -->
<g id="edge91" class="edge">
<title>27&#45;&gt;17</title>
<path fill="none" stroke="black" d="M859.39,-1030.41C865.4,-1035.19 872.61,-1040.06 880,-1043 942.77,-1068.06 967.36,-1038.24 1031,-1061 1044.41,-1065.8 1044.83,-1072.83 1058,-1078.25 1114.21,-1101.39 1184.08,-1113.31 1226.84,-1118.88"/>
<polygon fill="black" stroke="black" points="1226.29,-1122.34 1236.64,-1120.1 1227.15,-1115.39 1226.29,-1122.34"/>
<text xml:space="preserve" text-anchor="middle" x="1062.5" y="-1064.95" font-family="Times,serif" font-size="14.00">3</text>
</g>
<!-- 27&#45;&gt;20 -->
<g id="edge66" class="edge">
<title>27&#45;&gt;20</title>
<path fill="none" stroke="black" d="M859.38,-999.83C887.9,-972.42 949.18,-909.53 983,-844.8 1021.55,-771.03 981.67,-729.33 1034,-664.6 1044.75,-651.31 1054.29,-656.82 1068,-646.6 1099,-623.51 1104.91,-614.84 1129,-584.6 1164,-540.68 1150.85,-510.11 1197,-478.1 1234.29,-452.24 1286.97,-444.89 1322.48,-443.11"/>
<polygon fill="black" stroke="black" points="1322.43,-446.61 1332.3,-442.75 1322.18,-439.62 1322.43,-446.61"/>
<text xml:space="preserve" text-anchor="middle" x="1017.07" y="-713.18" font-family="Times,serif" font-size="14.00">4</text>
</g>
<!-- 28&#45;&gt;1 -->
<g id="edge76" class="edge">
<title>28&#45;&gt;1</title>
<path fill="none" stroke="black" d="M897.82,-1696.27C965.74,-1712.94 1160.38,-1760.35 1323,-1796.4 1442.35,-1822.87 1584.74,-1851.54 1647.95,-1864.11"/>
<polygon fill="black" stroke="black" points="1647.19,-1867.53 1657.68,-1866.05 1648.55,-1860.67 1647.19,-1867.53"/>
<text xml:space="preserve" text-anchor="middle" x="1327.5" y="-1773.73" font-family="Times,serif" font-size="14.00">4</text>
</g>
<!-- 28&#45;&gt;11 -->
<g id="edge47" class="edge">
<title>28&#45;&gt;11</title>
<path fill="none" stroke="black" d="M850.84,-1678.25C840.07,-1672.39 827.8,-1663.98 820,-1653.15 793.93,-1616.99 794,-1600.86 794,-1556.28 794,-1556.28 794,-1556.28 794,-1266.83 794,-1179.03 855.57,-1089.99 891.58,-1045.41"/>
<polygon fill="black" stroke="black" points="894.23,-1047.7 897.89,-1037.76 888.83,-1043.25 894.23,-1047.7"/>
<text xml:space="preserve" text-anchor="middle" x="798.5" y="-1352.4" font-family="Times,serif" font-size="14.00">2</text>
</g>
<!-- 28&#45;&gt;15 -->
<g id="edge8" class="edge">
<title>28&#45;&gt;15</title>
<path fill="none" stroke="black" d="M897.43,-1681.27C916.93,-1675.25 944.6,-1665.55 967,-1653.15 1116.03,-1570.64 1160.69,-1549.52 1271,-1419.7 1382.21,-1288.84 1341.01,-1213.99 1357,-1043 1360.77,-1002.73 1368.6,-991.57 1360,-952.05 1359.39,-949.25 1358.54,-946.41 1357.54,-943.62"/>
<polygon fill="black" stroke="black" points="1360.87,-942.52 1353.76,-934.68 1354.43,-945.25 1360.87,-942.52"/>
<text xml:space="preserve" text-anchor="middle" x="1345.65" y="-1307.78" font-family="Times,serif" font-size="14.00">0</text>
</g>
<!-- 28&#45;&gt;20 -->
<g id="edge103" class="edge">
<title>28&#45;&gt;20</title>
<path fill="none" stroke="black" d="M872.05,-1670.78C871.17,-1653.17 870,-1625.15 870,-1600.9 870,-1600.9 870,-1600.9 870,-1445.33 870,-1269.38 895.11,-1222.48 965,-1061 1010.47,-955.95 1043.19,-941.16 1105,-844.8 1209.26,-682.27 1233.2,-640.28 1338,-478.1 1340.01,-474.99 1342.14,-471.72 1344.25,-468.5"/>
<polygon fill="black" stroke="black" points="1347.02,-470.64 1349.58,-460.36 1341.17,-466.8 1347.02,-470.64"/>
<text xml:space="preserve" text-anchor="middle" x="969.5" y="-1064.95" font-family="Times,serif" font-size="14.00">1</text>
</g>
<!-- 28&#45;&gt;21 -->
<g id="edge114" class="edge">
<title>28&#45;&gt;21</title>
<path fill="none" stroke="black" d="M899.72,-1685.79C938.69,-1682.36 1013.39,-1675.93 1077,-1671.15 1196.93,-1662.16 1227.23,-1664.02 1347,-1653.15 1502.16,-1639.08 1686.36,-1615.94 1764.24,-1605.86"/>
<polygon fill="black" stroke="black" points="1764.41,-1609.37 1773.88,-1604.61 1763.51,-1602.42 1764.41,-1609.37"/>
<text xml:space="preserve" text-anchor="middle" x="1514.37" y="-1639.85" font-family="Times,serif" font-size="14.00">3</text>
</g>
<!-- 29&#45;&gt;2 -->
<g id="edge35" class="edge">
<title>29&#45;&gt;2</title>
<path fill="none" stroke="black" d="M1130.75,-2427.87C1014.92,-2427.09 576.28,-2421.58 444,-2383.15 419.6,-2376.06 394.51,-2361.92 376.25,-2350.14"/>
<polygon fill="black" stroke="black" points="378.38,-2347.35 368.12,-2344.73 374.51,-2353.18 378.38,-2347.35"/>
<text xml:space="preserve" text-anchor="middle" x="448.5" y="-2369.85" font-family="Times,serif" font-size="14.00">3</text>
</g>
<!-- 29&#45;&gt;13 -->
<g id="edge82" class="edge">
<title>29&#45;&gt;13</title>
<path fill="none" stroke="black" d="M1187.05,-2427.77C1335.77,-2426.36 2033.28,-2418 2246,-2383.15 2316.91,-2371.54 2399,-2402.76 2399,-2330.9 2399,-2330.9 2399,-2330.9 2399,-1014.15 2399,-859.07 2333.52,-471.66 2278,-326.85 2271.39,-309.61 2268.76,-304.95 2256,-291.6 2147.99,-178.6 1951.07,-148.39 1867.35,-140.51"/>
<polygon fill="black" stroke="black" points="1867.85,-137.04 1857.58,-139.65 1867.24,-144.01 1867.85,-137.04"/>
<text xml:space="preserve" text-anchor="middle" x="2403.5" y="-1307.78" font-family="Times,serif" font-size="14.00">2</text>
</g>
<!-- 29&#45;&gt;16 -->
<g id="edge136" class="edge">
<title>29&#45;&gt;16</title>
<path fill="none" stroke="black" d="M1187.04,-2427.55C1354.16,-2424.73 2215.4,-2409.04 2330,-2383.15 2381.62,-2371.49 2437,-2383.83 2437,-2330.9 2437,-2330.9 2437,-2330.9 2437,-135.8 2437,-36.6 2073.17,-28.43 1950.69,-28.49"/>
<polygon fill="black" stroke="black" points="1950.78,-24.99 1940.79,-28.52 1950.8,-31.99 1950.78,-24.99"/>
<text xml:space="preserve" text-anchor="middle" x="2441.5" y="-1263.15" font-family="Times,serif" font-size="14.00">0</text>
</g>
<!-- 29&#45;&gt;20 -->
<g id="edge89" class="edge">
<title>29&#45;&gt;20</title>
<path fill="none" stroke="black" d="M1187.29,-2427.15C1364.57,-2421.64 2315,-2389.34 2315,-2330.9 2315,-2330.9 2315,-2330.9 2315,-1266.83 2315,-1233.99 1989.56,-812.96 1967,-789.1 1958.32,-779.92 1954.07,-779.9 1945,-771.1 1914.87,-741.87 1913.02,-729.2 1883,-699.85 1834.65,-652.58 1822.29,-640.07 1766,-602.6 1654.99,-528.71 1620.56,-517 1493,-478.1 1460.8,-468.28 1423.71,-458.59 1397.06,-451.9"/>
<polygon fill="black" stroke="black" points="1397.99,-448.53 1387.44,-449.51 1396.3,-455.32 1397.99,-448.53"/>
<text xml:space="preserve" text-anchor="middle" x="2319.5" y="-1441.65" font-family="Times,serif" font-size="14.00">1</text>
</g>
<!-- 29&#45;&gt;23 -->
<g id="edge132" class="edge">
<title>29&#45;&gt;23</title>
<path fill="none" stroke="black" d="M1131.09,-2428.11C989.06,-2428.44 345.85,-2427.44 152,-2383.15 94.5,-2370.02 30,-2389.89 30,-2330.9 30,-2330.9 30,-2330.9 30,-1554.28 30,-1447.19 38,-1420.55 38,-1313.45 38,-1313.45 38,-1313.45 38,-716.85 38,-645.16 144.27,-629.42 203.41,-626.21"/>
<polygon fill="black" stroke="black" points="203.56,-629.71 213.4,-625.78 203.26,-622.72 203.56,-629.71"/>
<text xml:space="preserve" text-anchor="middle" x="34.5" y="-1550.6" font-family="Times,serif" font-size="14.00">4</text>
</g>
</g>
</svg>
