<?xml version="1.0" encoding="UTF-8" standalone="no"?>
<!DOCTYPE svg PUBLIC "-//W3C//DTD SVG 1.1//EN"
 "http://www.w3.org/Graphics/SVG/1.1/DTD/svg11.dtd">
<!-- Generated by graphviz version 13.0.1 (20250616.1512)
 -->
<!-- Pages: 1 -->
<svg width="2740pt" height="2513pt"
 viewBox="0.00 0.00 2740.00 2513.00" xmlns="http://www.w3.org/2000/svg" xmlns:xlink="http://www.w3.org/1999/xlink">
<g id="graph0" class="graph" transform="scale(1 1) rotate(0) translate(4 2508.6)">
<polygon fill="white" stroke="none" points="-4,4 -4,-2508.6 2736.09,-2508.6 2736.09,4 -4,4"/>
<!-- fake -->
<g id="node1" class="node">
<title>fake</title>
</g>
<!-- 29 -->
<g id="node31" class="node">
<title>29</title>
<ellipse fill="none" stroke="black" cx="914.28" cy="-2413.6" rx="27" ry="18"/>
<text xml:space="preserve" text-anchor="middle" x="914.28" y="-2408.93" font-family="Times,serif" font-size="14.00">29</text>
</g>
<!-- fake&#45;&gt;29 -->
<g id="edge1" class="edge">
<title>fake&#45;&gt;29</title>
<path fill="none" stroke="black" stroke-width="2" d="M914.28,-2468.41C914.28,-2460.83 914.28,-2451.7 914.28,-2443.14"/>
<polygon fill="black" stroke="black" stroke-width="2" points="917.78,-2444.66 914.28,-2434.66 910.78,-2444.66 917.78,-2444.66"/>
</g>
<!-- 0 -->
<g id="node2" class="node">
<title>0</title>
<ellipse fill="none" stroke="black" cx="1350.28" cy="-1963.35" rx="18" ry="18"/>
<ellipse fill="none" stroke="black" cx="1350.28" cy="-1963.35" rx="22" ry="22"/>
<text xml:space="preserve" text-anchor="middle" x="1350.28" y="-1958.68" font-family="Times,serif" font-size="14.00">0</text>
</g>
<!-- 13 -->
<g id="node15" class="node">
<title>13</title>
<ellipse fill="none" stroke="black" cx="1972.28" cy="-1870.1" rx="27" ry="18"/>
<text xml:space="preserve" text-anchor="middle" x="1972.28" y="-1865.43" font-family="Times,serif" font-size="14.00">13</text>
</g>
<!-- 0&#45;&gt;13 -->
<g id="edge70" class="edge">
<title>0&#45;&gt;13</title>
<path fill="none" stroke="black" d="M1369.83,-1952.4C1378.62,-1948.34 1389.26,-1943.99 1399.28,-1941.35 1469.76,-1922.8 1492.56,-1944.6 1562.28,-1923.35 1578.11,-1918.53 1579.41,-1910.79 1595.28,-1906.1 1658,-1887.58 1850.95,-1876.71 1933.82,-1872.78"/>
<polygon fill="black" stroke="black" points="1933.88,-1876.28 1943.7,-1872.32 1933.55,-1869.29 1933.88,-1876.28"/>
<text xml:space="preserve" text-anchor="middle" x="1599.78" y="-1910.05" font-family="Times,serif" font-size="14.00">2</text>
</g>
<!-- 17 -->
<g id="node19" class="node">
<title>17</title>
<ellipse fill="none" stroke="black" cx="1537.28" cy="-375" rx="27" ry="18"/>
<text xml:space="preserve" text-anchor="middle" x="1537.28" y="-370.32" font-family="Times,serif" font-size="14.00">17</text>
</g>
<!-- 0&#45;&gt;17 -->
<g id="edge149" class="edge">
<title>0&#45;&gt;17</title>
<path fill="none" stroke="black" d="M1363.83,-1945.44C1412.03,-1884.62 1572.28,-1676.33 1572.28,-1595.35 1572.28,-1595.35 1572.28,-1595.35 1572.28,-1459.48 1572.28,-1125.16 1537.28,-1042.39 1537.28,-708.08 1537.28,-708.08 1537.28,-708.08 1537.28,-473.1 1537.28,-450.04 1537.28,-423.89 1537.28,-404.54"/>
<polygon fill="black" stroke="black" points="1540.78,-404.7 1537.28,-394.7 1533.78,-404.7 1540.78,-404.7"/>
<text xml:space="preserve" text-anchor="middle" x="1566.99" y="-1168.35" font-family="Times,serif" font-size="14.00">1</text>
</g>
<!-- 18 -->
<g id="node20" class="node">
<title>18</title>
<ellipse fill="none" stroke="black" cx="924.28" cy="-285.75" rx="27" ry="18"/>
<text xml:space="preserve" text-anchor="middle" x="924.28" y="-281.07" font-family="Times,serif" font-size="14.00">18</text>
</g>
<!-- 0&#45;&gt;18 -->
<g id="edge10" class="edge">
<title>0&#45;&gt;18</title>
<path fill="none" stroke="black" d="M1334.16,-1947.7C1286.34,-1904.28 1140.89,-1772.6 1018.28,-1665.6 958.45,-1613.39 784.07,-1503.69 746.28,-1433.85 707.85,-1362.84 741.28,-1332.36 723.28,-1253.65 682.04,-1073.33 621,-1041.52 591.28,-858.95 559.16,-661.62 657.79,-611.54 770.28,-446.25 811.01,-386.41 819.8,-368.25 875.28,-321.75 881.89,-316.21 889.33,-310.61 896.38,-305.55"/>
<polygon fill="black" stroke="black" points="898.21,-308.54 904.39,-299.93 894.19,-302.81 898.21,-308.54"/>
<text xml:space="preserve" text-anchor="middle" x="695.61" y="-1113.88" font-family="Times,serif" font-size="14.00">3</text>
</g>
<!-- 24 -->
<g id="node26" class="node">
<title>24</title>
<ellipse fill="none" stroke="black" cx="1181.28" cy="-1217.65" rx="27" ry="18"/>
<text xml:space="preserve" text-anchor="middle" x="1181.28" y="-1212.98" font-family="Times,serif" font-size="14.00">24</text>
</g>
<!-- 0&#45;&gt;24 -->
<g id="edge69" class="edge">
<title>0&#45;&gt;24</title>
<path fill="none" stroke="black" d="M1351.43,-1941.19C1356.19,-1849.66 1372.82,-1487.59 1344.28,-1378.15 1328.37,-1317.14 1324.01,-1294.84 1276.28,-1253.65 1259.89,-1239.51 1237.29,-1230.88 1218.24,-1225.72"/>
<polygon fill="black" stroke="black" points="1219.24,-1222.36 1208.69,-1223.37 1217.57,-1229.16 1219.24,-1222.36"/>
<text xml:space="preserve" text-anchor="middle" x="1365.06" y="-1589.68" font-family="Times,serif" font-size="14.00">4</text>
</g>
<!-- 28 -->
<g id="node30" class="node">
<title>28</title>
<ellipse fill="none" stroke="black" cx="1076.28" cy="-1505.1" rx="27" ry="18"/>
<text xml:space="preserve" text-anchor="middle" x="1076.28" y="-1500.43" font-family="Times,serif" font-size="14.00">28</text>
</g>
<!-- 0&#45;&gt;28 -->
<g id="edge41" class="edge">
<title>0&#45;&gt;28</title>
<path fill="none" stroke="black" d="M1339.74,-1943.53C1327.36,-1921.51 1306.11,-1883.99 1287.28,-1852.1 1216.05,-1731.47 1127.98,-1589.18 1092.36,-1531.9"/>
<polygon fill="black" stroke="black" points="1095.39,-1530.14 1087.13,-1523.5 1089.44,-1533.84 1095.39,-1530.14"/>
<text xml:space="preserve" text-anchor="middle" x="1222.24" y="-1723.55" font-family="Times,serif" font-size="14.00">0</text>
</g>
<!-- 1 -->
<g id="node3" class="node">
<title>1</title>
<ellipse fill="none" stroke="black" cx="322.28" cy="-1594.35" rx="27" ry="18"/>
<text xml:space="preserve" text-anchor="middle" x="322.28" y="-1589.68" font-family="Times,serif" font-size="14.00">1</text>
</g>
<!-- 11 -->
<g id="node13" class="node">
<title>11</title>
<ellipse fill="none" stroke="black" cx="1934.28" cy="-2324.35" rx="27" ry="18"/>
<text xml:space="preserve" text-anchor="middle" x="1934.28" y="-2319.68" font-family="Times,serif" font-size="14.00">11</text>
</g>
<!-- 1&#45;&gt;11 -->
<g id="edge110" class="edge">
<title>1&#45;&gt;11</title>
<path fill="none" stroke="black" d="M325.73,-1612.47C338.18,-1670.73 385.68,-1864.44 488.28,-1985.35 555.05,-2064.04 587.97,-2072.77 684.28,-2109.85 1138.32,-2284.67 1739.96,-2316.77 1896.02,-2322.27"/>
<polygon fill="black" stroke="black" points="1895.67,-2325.76 1905.79,-2322.6 1895.91,-2318.77 1895.67,-2325.76"/>
<text xml:space="preserve" text-anchor="middle" x="492.78" y="-1958.68" font-family="Times,serif" font-size="14.00">3</text>
</g>
<!-- 12 -->
<g id="node14" class="node">
<title>12</title>
<ellipse fill="none" stroke="black" cx="284.28" cy="-1019.45" rx="27" ry="18"/>
<text xml:space="preserve" text-anchor="middle" x="284.28" y="-1014.78" font-family="Times,serif" font-size="14.00">12</text>
</g>
<!-- 1&#45;&gt;12 -->
<g id="edge129" class="edge">
<title>1&#45;&gt;12</title>
<path fill="none" stroke="black" d="M314.01,-1576.99C311.44,-1571.23 308.87,-1564.63 307.28,-1558.35 279.82,-1450 284.28,-1419.68 284.28,-1307.9 284.28,-1307.9 284.28,-1307.9 284.28,-1117.55 284.28,-1094.49 284.28,-1068.34 284.28,-1048.99"/>
<polygon fill="black" stroke="black" points="287.78,-1049.15 284.28,-1039.15 280.78,-1049.15 287.78,-1049.15"/>
<text xml:space="preserve" text-anchor="middle" x="288.78" y="-1302.23" font-family="Times,serif" font-size="14.00">0</text>
</g>
<!-- 16 -->
<g id="node18" class="node">
<title>16</title>
<ellipse fill="none" stroke="black" cx="893.28" cy="-18" rx="27" ry="18"/>
<text xml:space="preserve" text-anchor="middle" x="893.28" y="-13.32" font-family="Times,serif" font-size="14.00">16</text>
</g>
<!-- 1&#45;&gt;16 -->
<g id="edge21" class="edge">
<title>1&#45;&gt;16</title>
<path fill="none" stroke="black" d="M299.1,-1584.53C285.55,-1578.57 268.73,-1569.72 256.28,-1558.35 242.47,-1545.74 240.07,-1540.53 233.28,-1523.1 195.85,-1426.96 157.28,-1168.25 157.28,-1065.08 157.28,-1065.08 157.28,-1065.08 157.28,-106.25 157.28,-91.35 196.56,-68.05 246.28,-54 361.65,-21.39 733.44,-18.82 854.67,-18.87"/>
<polygon fill="black" stroke="black" points="854.41,-22.37 864.41,-18.88 854.42,-15.37 854.41,-22.37"/>
<text xml:space="preserve" text-anchor="middle" x="161.78" y="-791.65" font-family="Times,serif" font-size="14.00">1</text>
</g>
<!-- 27 -->
<g id="node29" class="node">
<title>27</title>
<ellipse fill="none" stroke="black" cx="984.28" cy="-474.1" rx="23.85" ry="23.85"/>
<ellipse fill="none" stroke="black" cx="984.28" cy="-474.1" rx="27.85" ry="27.85"/>
<text xml:space="preserve" text-anchor="middle" x="984.28" y="-469.43" font-family="Times,serif" font-size="14.00">27</text>
</g>
<!-- 1&#45;&gt;27 -->
<g id="edge16" class="edge">
<title>1&#45;&gt;27</title>
<path fill="none" stroke="black" d="M321.96,-1575.97C321.67,-1558.36 321.28,-1530.34 321.28,-1506.1 321.28,-1506.1 321.28,-1506.1 321.28,-1350.53 321.28,-1254.62 363.84,-1238.3 391.28,-1146.4 410.3,-1082.69 407.27,-1064.53 428.28,-1001.45 441.85,-960.71 439.92,-946.85 465.28,-912.2 502.98,-860.7 848.77,-583.17 954.02,-499.19"/>
<polygon fill="black" stroke="black" points="956.06,-502.04 961.69,-493.07 951.69,-496.57 956.06,-502.04"/>
<text xml:space="preserve" text-anchor="middle" x="432.78" y="-1014.78" font-family="Times,serif" font-size="14.00">2</text>
</g>
<!-- 1&#45;&gt;28 -->
<g id="edge61" class="edge">
<title>1&#45;&gt;28</title>
<path fill="none" stroke="black" d="M348.81,-1590.13C417.25,-1581.85 605.43,-1559.16 762.28,-1541.1 861.95,-1529.63 979.48,-1516.68 1038.47,-1510.23"/>
<polygon fill="black" stroke="black" points="1038.74,-1513.72 1048.3,-1509.15 1037.98,-1506.76 1038.74,-1513.72"/>
<text xml:space="preserve" text-anchor="middle" x="766.78" y="-1545.05" font-family="Times,serif" font-size="14.00">4</text>
</g>
<!-- 2 -->
<g id="node4" class="node">
<title>2</title>
<ellipse fill="none" stroke="black" cx="1820.28" cy="-2235.1" rx="27" ry="18"/>
<text xml:space="preserve" text-anchor="middle" x="1820.28" y="-2230.43" font-family="Times,serif" font-size="14.00">2</text>
</g>
<!-- 3 -->
<g id="node5" class="node">
<title>3</title>
<ellipse fill="none" stroke="black" cx="1464.28" cy="-2145.85" rx="27" ry="18"/>
<text xml:space="preserve" text-anchor="middle" x="1464.28" y="-2141.18" font-family="Times,serif" font-size="14.00">3</text>
</g>
<!-- 2&#45;&gt;3 -->
<g id="edge15" class="edge">
<title>2&#45;&gt;3</title>
<path fill="none" stroke="black" d="M1794.96,-2227.9C1732.69,-2212.63 1571.91,-2173.23 1499.98,-2155.6"/>
<polygon fill="black" stroke="black" points="1501.25,-2152.31 1490.7,-2153.33 1499.58,-2159.11 1501.25,-2152.31"/>
<text xml:space="preserve" text-anchor="middle" x="1678.67" y="-2185.8" font-family="Times,serif" font-size="14.00">3</text>
</g>
<!-- 9 -->
<g id="node11" class="node">
<title>9</title>
<ellipse fill="none" stroke="black" cx="1054.28" cy="-573.2" rx="27" ry="18"/>
<text xml:space="preserve" text-anchor="middle" x="1054.28" y="-568.53" font-family="Times,serif" font-size="14.00">9</text>
</g>
<!-- 2&#45;&gt;9 -->
<g id="edge86" class="edge">
<title>2&#45;&gt;9</title>
<path fill="none" stroke="black" d="M1794.7,-2228.5C1777.87,-2224.93 1755.33,-2220.38 1735.28,-2217.1 1674.48,-2207.15 1185.28,-2208.46 1185.28,-2146.85 1185.28,-2146.85 1185.28,-2146.85 1185.28,-1727.23 1185.28,-1616.97 1393.98,-1345.7 1333.28,-1253.65 1322.1,-1236.7 1303.16,-1252.13 1291.28,-1235.65 1206.92,-1118.63 1276.4,-1055.95 1264.28,-912.2 1262.96,-896.53 1263.09,-892.57 1261.28,-876.95 1249.29,-773.21 1263.25,-742.49 1227.28,-644.45 1220.92,-627.11 1220.31,-619.94 1205.28,-609.2 1172.22,-585.59 1125.65,-577.65 1092.99,-575.12"/>
<polygon fill="black" stroke="black" points="1093.35,-571.63 1083.15,-574.5 1092.91,-578.62 1093.35,-571.63"/>
<text xml:space="preserve" text-anchor="middle" x="1331.54" y="-1401.33" font-family="Times,serif" font-size="14.00">2</text>
</g>
<!-- 2&#45;&gt;11 -->
<g id="edge84" class="edge">
<title>2&#45;&gt;11</title>
<path fill="none" stroke="black" d="M1833.33,-2250.89C1843.55,-2261.97 1858.46,-2277.1 1873.28,-2288.35 1882.44,-2295.31 1893.13,-2301.89 1902.97,-2307.43"/>
<polygon fill="black" stroke="black" points="1901.04,-2310.36 1911.5,-2312.07 1904.39,-2304.21 1901.04,-2310.36"/>
<text xml:space="preserve" text-anchor="middle" x="1877.78" y="-2275.05" font-family="Times,serif" font-size="14.00">4</text>
</g>
<!-- 19 -->
<g id="node21" class="node">
<title>19</title>
<ellipse fill="none" stroke="black" cx="1715.28" cy="-1406" rx="23.85" ry="23.85"/>
<ellipse fill="none" stroke="black" cx="1715.28" cy="-1406" rx="27.85" ry="27.85"/>
<text xml:space="preserve" text-anchor="middle" x="1715.28" y="-1401.33" font-family="Times,serif" font-size="14.00">19</text>
</g>
<!-- 2&#45;&gt;19 -->
<g id="edge97" class="edge">
<title>2&#45;&gt;19</title>
<path fill="none" stroke="black" d="M1815.31,-2217.07C1805.01,-2180.2 1782.28,-2090.1 1782.28,-2012.98 1782.28,-2012.98 1782.28,-2012.98 1782.28,-1504.1 1782.28,-1475.86 1762.84,-1449.87 1744.91,-1431.9"/>
<polygon fill="black" stroke="black" points="1747.6,-1429.64 1737.94,-1425.28 1742.77,-1434.71 1747.6,-1429.64"/>
<text xml:space="preserve" text-anchor="middle" x="1786.78" y="-1820.8" font-family="Times,serif" font-size="14.00">1</text>
</g>
<!-- 26 -->
<g id="node28" class="node">
<title>26</title>
<ellipse fill="none" stroke="black" cx="1935.28" cy="-474.1" rx="23.85" ry="23.85"/>
<ellipse fill="none" stroke="black" cx="1935.28" cy="-474.1" rx="27.85" ry="27.85"/>
<text xml:space="preserve" text-anchor="middle" x="1935.28" y="-469.43" font-family="Times,serif" font-size="14.00">26</text>
</g>
<!-- 2&#45;&gt;26 -->
<g id="edge117" class="edge">
<title>2&#45;&gt;26</title>
<path fill="none" stroke="black" d="M1847.37,-2233.58C1975.12,-2230.79 2511.28,-2215.02 2511.28,-2146.85 2511.28,-2146.85 2511.28,-2146.85 2511.28,-1305.9 2511.28,-1247.29 2512.28,-1232.64 2512.28,-1174.03 2512.28,-1174.03 2512.28,-1174.03 2512.28,-973.83 2512.28,-929.9 2485.1,-816.53 2412.28,-733.7 2286.55,-590.7 2061.98,-512.29 1973.04,-485.63"/>
<polygon fill="black" stroke="black" points="1974.18,-482.32 1963.6,-482.85 1972.2,-489.04 1974.18,-482.32"/>
<text xml:space="preserve" text-anchor="middle" x="2515.78" y="-1346.85" font-family="Times,serif" font-size="14.00">0</text>
</g>
<!-- 3&#45;&gt;3 -->
<g id="edge6" class="edge">
<title>3&#45;&gt;3</title>
<path fill="none" stroke="black" d="M1488.81,-2154.09C1499.79,-2154.87 1509.28,-2152.13 1509.28,-2145.85 1509.28,-2141.93 1505.57,-2139.39 1500.11,-2138.22"/>
<polygon fill="black" stroke="black" points="1500.5,-2134.74 1490.32,-2137.7 1500.12,-2141.73 1500.5,-2134.74"/>
<text xml:space="preserve" text-anchor="middle" x="1513.78" y="-2141.18" font-family="Times,serif" font-size="14.00">0</text>
</g>
<!-- 4 -->
<g id="node6" class="node">
<title>4</title>
<ellipse fill="none" stroke="black" cx="768.28" cy="-2056.6" rx="27" ry="18"/>
<text xml:space="preserve" text-anchor="middle" x="768.28" y="-2051.93" font-family="Times,serif" font-size="14.00">4</text>
</g>
<!-- 3&#45;&gt;4 -->
<g id="edge34" class="edge">
<title>3&#45;&gt;4</title>
<path fill="none" stroke="black" d="M1437.52,-2141.62C1388.07,-2135.63 1279.03,-2122.24 1187.28,-2109.85 1133.88,-2102.64 1120.71,-2099.57 1067.28,-2092.6 973.66,-2080.4 863.28,-2067.99 806.41,-2061.74"/>
<polygon fill="black" stroke="black" points="806.94,-2058.28 796.62,-2060.67 806.18,-2065.24 806.94,-2058.28"/>
<text xml:space="preserve" text-anchor="middle" x="1191.78" y="-2096.55" font-family="Times,serif" font-size="14.00">3</text>
</g>
<!-- 3&#45;&gt;13 -->
<g id="edge40" class="edge">
<title>3&#45;&gt;13</title>
<path fill="none" stroke="black" d="M1491.48,-2144.87C1533.72,-2143.94 1616.83,-2138.26 1680.28,-2109.85 1711.25,-2095.99 1883.45,-1948.09 1947.92,-1892.27"/>
<polygon fill="black" stroke="black" points="1949.86,-1895.21 1955.13,-1886.02 1945.28,-1889.92 1949.86,-1895.21"/>
<text xml:space="preserve" text-anchor="middle" x="1819.83" y="-2007.3" font-family="Times,serif" font-size="14.00">1</text>
</g>
<!-- 23 -->
<g id="node25" class="node">
<title>23</title>
<ellipse fill="none" stroke="black" cx="481.28" cy="-1683.6" rx="27" ry="18"/>
<text xml:space="preserve" text-anchor="middle" x="481.28" y="-1678.93" font-family="Times,serif" font-size="14.00">23</text>
</g>
<!-- 3&#45;&gt;23 -->
<g id="edge130" class="edge">
<title>3&#45;&gt;23</title>
<path fill="none" stroke="black" d="M1436.98,-2144.6C1320.06,-2143.17 861.55,-2133.81 732.28,-2074.6 719.11,-2068.57 646.44,-1996.57 637.28,-1985.35 575.7,-1909.91 564.98,-1886.37 522.28,-1798.85 508.45,-1770.5 496.77,-1736.23 489.46,-1712.67"/>
<polygon fill="black" stroke="black" points="492.83,-1711.72 486.58,-1703.17 486.13,-1713.76 492.83,-1711.72"/>
<text xml:space="preserve" text-anchor="middle" x="594.09" y="-1910.05" font-family="Times,serif" font-size="14.00">2</text>
</g>
<!-- 3&#45;&gt;27 -->
<g id="edge100" class="edge">
<title>3&#45;&gt;27</title>
<path fill="none" stroke="black" d="M1464.28,-2127.47C1464.28,-2109.86 1464.28,-2081.84 1464.28,-2057.6 1464.28,-2057.6 1464.28,-2057.6 1464.28,-1824.48 1464.28,-1768.04 1443.82,-1756.84 1432.28,-1701.6 1411.67,-1602.95 1428.1,-1329.1 1361.28,-1253.65 1341.97,-1231.85 1315.82,-1258.9 1298.28,-1235.65 1279.81,-1211.16 1360.28,-889.95 1360.28,-886.58 1360.28,-886.58 1360.28,-886.58 1360.28,-616.83 1360.28,-588.74 1366.2,-575.01 1346.28,-555.2 1300.94,-510.11 1107.91,-486.76 1023.76,-478.57"/>
<polygon fill="black" stroke="black" points="1024.2,-475.09 1013.91,-477.63 1023.54,-482.06 1024.2,-475.09"/>
<text xml:space="preserve" text-anchor="middle" x="1397.95" y="-1302.23" font-family="Times,serif" font-size="14.00">4</text>
</g>
<!-- 4&#45;&gt;0 -->
<g id="edge91" class="edge">
<title>4&#45;&gt;0</title>
<path fill="none" stroke="black" d="M794.42,-2051.5C888.87,-2036.69 1212.46,-1985.96 1317.25,-1969.53"/>
<polygon fill="black" stroke="black" points="1317.53,-1973.03 1326.87,-1968.02 1316.44,-1966.11 1317.53,-1973.03"/>
<text xml:space="preserve" text-anchor="middle" x="1098.63" y="-2007.3" font-family="Times,serif" font-size="14.00">1</text>
</g>
<!-- 4&#45;&gt;9 -->
<g id="edge59" class="edge">
<title>4&#45;&gt;9</title>
<path fill="none" stroke="black" d="M761.98,-2038.71C755.79,-2020.6 747.28,-1990.85 747.28,-1964.35 747.28,-1964.35 747.28,-1964.35 747.28,-1504.1 747.28,-1362.49 779.53,-1327.09 841.28,-1199.65 866.91,-1146.75 874.05,-1131.59 916.28,-1090.7 1000.51,-1009.14 1060.03,-1035.51 1138.28,-948.2 1188.26,-892.44 1213.28,-872.21 1213.28,-797.33 1213.28,-797.33 1213.28,-797.33 1213.28,-661.45 1213.28,-606.59 1139.63,-585.99 1092.58,-578.43"/>
<polygon fill="black" stroke="black" points="1093.15,-574.97 1082.75,-576.99 1092.14,-581.9 1093.15,-574.97"/>
<text xml:space="preserve" text-anchor="middle" x="800.82" y="-1302.23" font-family="Times,serif" font-size="14.00">4</text>
</g>
<!-- 10 -->
<g id="node12" class="node">
<title>10</title>
<ellipse fill="none" stroke="black" cx="1651.28" cy="-107.25" rx="27" ry="18"/>
<text xml:space="preserve" text-anchor="middle" x="1651.28" y="-102.58" font-family="Times,serif" font-size="14.00">10</text>
</g>
<!-- 4&#45;&gt;10 -->
<g id="edge72" class="edge">
<title>4&#45;&gt;10</title>
<path fill="none" stroke="black" d="M795.11,-2053.06C852.46,-2047.58 991.2,-2034.06 1107.28,-2020.6 1509.34,-1973.99 1610.19,-1961.23 2008.28,-1888.1 2159,-1860.41 2314.28,-1882.47 2314.28,-1729.23 2314.28,-1729.23 2314.28,-1729.23 2314.28,-1261.28 2314.28,-1174 2322.28,-1152.35 2322.28,-1065.08 2322.28,-1065.08 2322.28,-1065.08 2322.28,-884.58 2322.28,-795.05 2357.07,-777.4 2399.28,-698.45 2441.86,-618.81 2512.28,-619.88 2512.28,-529.58 2512.28,-529.58 2512.28,-529.58 2512.28,-195.5 2512.28,-111.63 1857.33,-107.69 1689.89,-108.05"/>
<polygon fill="black" stroke="black" points="1689.97,-104.55 1679.98,-108.08 1689.99,-111.55 1689.97,-104.55"/>
<text xml:space="preserve" text-anchor="middle" x="2326.78" y="-1059.4" font-family="Times,serif" font-size="14.00">0</text>
</g>
<!-- 14 -->
<g id="node16" class="node">
<title>14</title>
<ellipse fill="none" stroke="black" cx="974.28" cy="-751.7" rx="27" ry="18"/>
<text xml:space="preserve" text-anchor="middle" x="974.28" y="-747.03" font-family="Times,serif" font-size="14.00">14</text>
</g>
<!-- 4&#45;&gt;14 -->
<g id="edge56" class="edge">
<title>4&#45;&gt;14</title>
<path fill="none" stroke="black" d="M752.16,-2041.9C734.69,-2025.44 709.28,-1996.05 709.28,-1964.35 709.28,-1964.35 709.28,-1964.35 709.28,-1682.6 709.28,-1571.53 690.62,-1544.79 685.28,-1433.85 684.09,-1409.12 681.49,-1402.61 685.28,-1378.15 701.92,-1270.79 769.52,-1000.17 833.28,-912.2 841.31,-901.11 848.3,-903.57 858.28,-894.2 897.6,-857.27 935.79,-807.08 957.06,-777.46"/>
<polygon fill="black" stroke="black" points="959.78,-779.67 962.72,-769.49 954.07,-775.62 959.78,-779.67"/>
<text xml:space="preserve" text-anchor="middle" x="689.78" y="-1401.33" font-family="Times,serif" font-size="14.00">3</text>
</g>
<!-- 4&#45;&gt;29 -->
<g id="edge127" class="edge">
<title>4&#45;&gt;29</title>
<path fill="none" stroke="black" d="M742.79,-2063.48C706.77,-2073.47 645.28,-2097.46 645.28,-2144.85 645.28,-2325.35 645.28,-2325.35 645.28,-2325.35 645.28,-2373.35 802.22,-2398.93 876.35,-2408.33"/>
<polygon fill="black" stroke="black" points="875.65,-2411.77 886,-2409.52 876.5,-2404.82 875.65,-2411.77"/>
<text xml:space="preserve" text-anchor="middle" x="649.78" y="-2230.43" font-family="Times,serif" font-size="14.00">2</text>
</g>
<!-- 5 -->
<g id="node7" class="node">
<title>5</title>
<ellipse fill="none" stroke="black" cx="1702.28" cy="-1776.85" rx="18" ry="18"/>
<ellipse fill="none" stroke="black" cx="1702.28" cy="-1776.85" rx="22" ry="22"/>
<text xml:space="preserve" text-anchor="middle" x="1702.28" y="-1772.18" font-family="Times,serif" font-size="14.00">5</text>
</g>
<!-- 5&#45;&gt;0 -->
<g id="edge150" class="edge">
<title>5&#45;&gt;0</title>
<path fill="none" stroke="black" d="M1682.91,-1788C1624.46,-1818.64 1449.52,-1910.34 1379.61,-1946.98"/>
<polygon fill="black" stroke="black" points="1378.28,-1943.72 1371.05,-1951.47 1381.53,-1949.92 1378.28,-1943.72"/>
<text xml:space="preserve" text-anchor="middle" x="1559.99" y="-1865.43" font-family="Times,serif" font-size="14.00">3</text>
</g>
<!-- 5&#45;&gt;10 -->
<g id="edge7" class="edge">
<title>5&#45;&gt;10</title>
<path fill="none" stroke="black" d="M1720.48,-1763.93C1775.18,-1726.5 1934.28,-1605.28 1934.28,-1461.48 1934.28,-1461.48 1934.28,-1461.48 1934.28,-1261.28 1934.28,-1106.12 1926.37,-1067.31 1930.28,-912.2 1932.28,-832.79 1933.91,-812.95 1939.28,-733.7 1940.34,-718.01 1939.5,-713.93 1942.28,-698.45 1946.69,-673.94 1950.43,-668.4 1957.28,-644.45 1975.45,-580.97 1988.04,-567.01 1999.28,-501.95 2008.82,-446.7 2006.28,-432.06 2006.28,-376 2006.28,-376 2006.28,-376 2006.28,-195.5 2006.28,-130.9 1781.79,-113.87 1689.84,-109.6"/>
<polygon fill="black" stroke="black" points="1690.2,-106.11 1680.06,-109.18 1689.9,-113.11 1690.2,-106.11"/>
<text xml:space="preserve" text-anchor="middle" x="1934.78" y="-925.53" font-family="Times,serif" font-size="14.00">1</text>
</g>
<!-- 5&#45;&gt;14 -->
<g id="edge63" class="edge">
<title>5&#45;&gt;14</title>
<path fill="none" stroke="black" d="M1684.12,-1763.7C1606.59,-1710.87 1300.23,-1492.22 1145.28,-1235.65 1036.67,-1055.81 1076.34,-981.11 994.28,-787.7 993,-784.68 991.52,-781.59 989.95,-778.56"/>
<polygon fill="black" stroke="black" points="993.11,-777.05 985.2,-770 986.99,-780.44 993.11,-777.05"/>
<text xml:space="preserve" text-anchor="middle" x="1172.1" y="-1257.6" font-family="Times,serif" font-size="14.00">0</text>
</g>
<!-- 5&#45;&gt;19 -->
<g id="edge90" class="edge">
<title>5&#45;&gt;19</title>
<path fill="none" stroke="black" d="M1715.57,-1758.75C1727.87,-1741.17 1744.28,-1712.51 1744.28,-1684.6 1744.28,-1684.6 1744.28,-1684.6 1744.28,-1504.1 1744.28,-1482.98 1737.9,-1460.31 1731.12,-1442.19"/>
<polygon fill="black" stroke="black" points="1734.4,-1440.96 1727.47,-1432.96 1727.9,-1443.54 1734.4,-1440.96"/>
<text xml:space="preserve" text-anchor="middle" x="1748.78" y="-1589.68" font-family="Times,serif" font-size="14.00">4</text>
</g>
<!-- 5&#45;&gt;23 -->
<g id="edge22" class="edge">
<title>5&#45;&gt;23</title>
<path fill="none" stroke="black" d="M1680.56,-1772.56C1615.21,-1762.79 1414.63,-1733.75 1247.28,-1719.6 968.91,-1696.07 632.19,-1687.6 519.84,-1685.31"/>
<polygon fill="black" stroke="black" points="520.05,-1681.81 509.98,-1685.11 519.91,-1688.81 520.05,-1681.81"/>
<text xml:space="preserve" text-anchor="middle" x="1414.78" y="-1723.55" font-family="Times,serif" font-size="14.00">2</text>
</g>
<!-- 6 -->
<g id="node8" class="node">
<title>6</title>
<ellipse fill="none" stroke="black" cx="869.28" cy="-930.2" rx="27" ry="18"/>
<text xml:space="preserve" text-anchor="middle" x="869.28" y="-925.53" font-family="Times,serif" font-size="14.00">6</text>
</g>
<!-- 6&#45;&gt;2 -->
<g id="edge53" class="edge">
<title>6&#45;&gt;2</title>
<path fill="none" stroke="black" d="M863.43,-948.22C855.64,-971.91 842.24,-1016.34 837.28,-1055.45 827.21,-1134.92 835.02,-1155.79 841.28,-1235.65 874.04,-1653.49 856.22,-1526.58 900.28,-1647.6 945.18,-1770.93 1028.28,-1782.48 1028.28,-1913.73 1028.28,-2057.6 1028.28,-2057.6 1028.28,-2057.6 1028.28,-2147.01 1087.64,-2167.5 1171.28,-2199.1 1229.93,-2221.26 1672.99,-2209.93 1735.28,-2217.1 1751.48,-2218.97 1769.2,-2222.3 1784.25,-2225.52"/>
<polygon fill="black" stroke="black" points="1783.16,-2228.87 1793.68,-2227.61 1784.68,-2222.03 1783.16,-2228.87"/>
<text xml:space="preserve" text-anchor="middle" x="890.89" y="-1589.68" font-family="Times,serif" font-size="14.00">1</text>
</g>
<!-- 6&#45;&gt;3 -->
<g id="edge83" class="edge">
<title>6&#45;&gt;3</title>
<path fill="none" stroke="black" d="M870.64,-948.58C876.75,-1025.85 902.53,-1338.51 926.28,-1433.85 978.73,-1644.41 1004.16,-1696.11 1105.28,-1888.1 1184.16,-2037.87 1207.46,-2079.12 1264.28,-2109.85 1315.33,-2137.46 1383.43,-2144.03 1425.55,-2145.21"/>
<polygon fill="black" stroke="black" points="1425.38,-2148.71 1435.44,-2145.39 1425.51,-2141.71 1425.38,-2148.71"/>
<text xml:space="preserve" text-anchor="middle" x="963.96" y="-1545.05" font-family="Times,serif" font-size="14.00">4</text>
</g>
<!-- 6&#45;&gt;13 -->
<g id="edge131" class="edge">
<title>6&#45;&gt;13</title>
<path fill="none" stroke="black" d="M876.29,-947.82C878.63,-953.59 881.17,-960.14 883.28,-966.2 902.24,-1020.72 908.46,-1034.2 920.28,-1090.7 954.98,-1256.58 881.79,-1322.77 967.28,-1469.1 987.64,-1503.95 1006.72,-1500.69 1040.28,-1523.1 1161.09,-1603.78 1474.81,-1797.06 1615.28,-1834.1 1728.33,-1863.91 1867.55,-1868.82 1933.77,-1869.32"/>
<polygon fill="black" stroke="black" points="1933.36,-1872.82 1943.37,-1869.36 1933.39,-1865.82 1933.36,-1872.82"/>
<text xml:space="preserve" text-anchor="middle" x="953.19" y="-1401.33" font-family="Times,serif" font-size="14.00">2</text>
</g>
<!-- 22 -->
<g id="node24" class="node">
<title>22</title>
<ellipse fill="none" stroke="black" cx="1765.28" cy="-1306.9" rx="27" ry="18"/>
<text xml:space="preserve" text-anchor="middle" x="1765.28" y="-1302.23" font-family="Times,serif" font-size="14.00">22</text>
</g>
<!-- 6&#45;&gt;22 -->
<g id="edge109" class="edge">
<title>6&#45;&gt;22</title>
<path fill="none" stroke="black" d="M894.99,-935.89C959.78,-948.4 1133.85,-986.46 1263.28,-1055.45 1342.59,-1097.73 1345.83,-1132.81 1421.28,-1181.65 1465.33,-1210.17 1478.23,-1214.56 1526.28,-1235.65 1547.53,-1244.97 1553.86,-1244.74 1575.28,-1253.65 1592.03,-1260.62 1595.12,-1265.01 1612.28,-1270.9 1650.79,-1284.12 1696.46,-1293.83 1727.82,-1299.62"/>
<polygon fill="black" stroke="black" points="1727.15,-1303.06 1737.61,-1301.38 1728.39,-1296.17 1727.15,-1303.06"/>
<text xml:space="preserve" text-anchor="middle" x="1379.14" y="-1113.88" font-family="Times,serif" font-size="14.00">3</text>
</g>
<!-- 25 -->
<g id="node27" class="node">
<title>25</title>
<ellipse fill="none" stroke="black" cx="767.28" cy="-840.95" rx="27" ry="18"/>
<text xml:space="preserve" text-anchor="middle" x="767.28" y="-836.28" font-family="Times,serif" font-size="14.00">25</text>
</g>
<!-- 6&#45;&gt;25 -->
<g id="edge139" class="edge">
<title>6&#45;&gt;25</title>
<path fill="none" stroke="black" d="M853.34,-915.57C836.9,-901.5 811.02,-879.37 791.94,-863.04"/>
<polygon fill="black" stroke="black" points="794.47,-860.6 784.59,-856.76 789.92,-865.92 794.47,-860.6"/>
<text xml:space="preserve" text-anchor="middle" x="831.92" y="-880.9" font-family="Times,serif" font-size="14.00">0</text>
</g>
<!-- 7 -->
<g id="node9" class="node">
<title>7</title>
<ellipse fill="none" stroke="black" cx="1054.28" cy="-662.45" rx="27" ry="18"/>
<text xml:space="preserve" text-anchor="middle" x="1054.28" y="-657.78" font-family="Times,serif" font-size="14.00">7</text>
</g>
<!-- 7&#45;&gt;6 -->
<g id="edge115" class="edge">
<title>7&#45;&gt;6</title>
<path fill="none" stroke="black" d="M1052.6,-680.85C1051.19,-691.23 1048.68,-704.53 1044.28,-715.7 1011.75,-798.22 934.78,-873.02 894.64,-908.12"/>
<polygon fill="black" stroke="black" points="892.41,-905.43 887.11,-914.6 896.97,-910.73 892.41,-905.43"/>
<text xml:space="preserve" text-anchor="middle" x="1008.36" y="-791.65" font-family="Times,serif" font-size="14.00">0</text>
</g>
<!-- 7&#45;&gt;9 -->
<g id="edge136" class="edge">
<title>7&#45;&gt;9</title>
<path fill="none" stroke="black" d="M1054.28,-644.21C1054.28,-632.38 1054.28,-616.4 1054.28,-602.7"/>
<polygon fill="black" stroke="black" points="1057.78,-602.92 1054.28,-592.92 1050.78,-602.92 1057.78,-602.92"/>
<text xml:space="preserve" text-anchor="middle" x="1058.78" y="-613.15" font-family="Times,serif" font-size="14.00">2</text>
</g>
<!-- 7&#45;&gt;14 -->
<g id="edge28" class="edge">
<title>7&#45;&gt;14</title>
<path fill="none" stroke="black" d="M1035.65,-675.87C1027.08,-682.08 1017.11,-690.05 1009.28,-698.45 1001.82,-706.46 994.83,-716.21 989.09,-725.11"/>
<polygon fill="black" stroke="black" points="986.27,-723.03 983.98,-733.37 992.22,-726.71 986.27,-723.03"/>
<text xml:space="preserve" text-anchor="middle" x="1013.78" y="-702.4" font-family="Times,serif" font-size="14.00">1</text>
</g>
<!-- 20 -->
<g id="node22" class="node">
<title>20</title>
<ellipse fill="none" stroke="black" cx="504.28" cy="-573.2" rx="27" ry="18"/>
<text xml:space="preserve" text-anchor="middle" x="504.28" y="-568.53" font-family="Times,serif" font-size="14.00">20</text>
</g>
<!-- 7&#45;&gt;20 -->
<g id="edge4" class="edge">
<title>7&#45;&gt;20</title>
<path fill="none" stroke="black" d="M1028.12,-657.3C938.91,-643.15 646.35,-596.74 541.82,-580.16"/>
<polygon fill="black" stroke="black" points="542.52,-576.72 532.09,-578.61 541.42,-583.64 542.52,-576.72"/>
<text xml:space="preserve" text-anchor="middle" x="833.04" y="-613.15" font-family="Times,serif" font-size="14.00">3</text>
</g>
<!-- 7&#45;&gt;24 -->
<g id="edge51" class="edge">
<title>7&#45;&gt;24</title>
<path fill="none" stroke="black" d="M1077.04,-672.44C1090.92,-678.57 1108.57,-687.53 1122.28,-698.45 1178.89,-743.56 1201.02,-755.5 1227.28,-822.95 1273.83,-942.53 1239.88,-935.02 1233.28,-983.45 1228.79,-1016.36 1220.96,-1023.14 1213.28,-1055.45 1202.28,-1101.72 1192.03,-1156.09 1186.23,-1188.38"/>
<polygon fill="black" stroke="black" points="1182.8,-1187.67 1184.49,-1198.13 1189.69,-1188.9 1182.8,-1187.67"/>
<text xml:space="preserve" text-anchor="middle" x="1255.91" y="-925.53" font-family="Times,serif" font-size="14.00">4</text>
</g>
<!-- 8 -->
<g id="node10" class="node">
<title>8</title>
<ellipse fill="none" stroke="black" cx="2113.28" cy="-375" rx="27" ry="18"/>
<text xml:space="preserve" text-anchor="middle" x="2113.28" y="-370.32" font-family="Times,serif" font-size="14.00">8</text>
</g>
<!-- 8&#45;&gt;3 -->
<g id="edge20" class="edge">
<title>8&#45;&gt;3</title>
<path fill="none" stroke="black" d="M2133.12,-387.77C2142.98,-394.06 2154.78,-402.29 2164.28,-411 2179.24,-424.71 2180.55,-430.45 2193.28,-446.25 2531.97,-866.6 2392.76,-659.75 2412.28,-733.7 2429.47,-798.81 2398.28,-817.23 2398.28,-884.58 2398.28,-1065.08 2398.28,-1065.08 2398.28,-1065.08 2398.28,-1191.99 2390.28,-1223.61 2390.28,-1350.53 2390.28,-1826.48 2390.28,-1826.48 2390.28,-1826.48 2390.28,-1944.93 2287.82,-1945.47 2176.28,-1985.35 2066.85,-2024.48 2031.28,-2004.17 1920.28,-2038.6 1880.7,-2050.88 1872.97,-2059.77 1834.28,-2074.6 1789.89,-2091.62 1779.54,-2098.89 1733.28,-2109.85 1652.5,-2128.99 1555.43,-2138.36 1502.8,-2142.35"/>
<polygon fill="black" stroke="black" points="1502.57,-2138.86 1492.85,-2143.08 1503.08,-2145.84 1502.57,-2138.86"/>
<text xml:space="preserve" text-anchor="middle" x="2396.59" y="-1257.6" font-family="Times,serif" font-size="14.00">2</text>
</g>
<!-- 8&#45;&gt;3 -->
<g id="edge132" class="edge">
<title>8&#45;&gt;3</title>
<path fill="none" stroke="black" d="M2136.1,-385.18C2150.9,-391.55 2170.33,-400.72 2186.28,-411 2206.76,-424.21 2211.29,-428.78 2228.28,-446.25 2324.53,-545.26 2391.2,-638.92 2425.28,-698.45 2433.74,-713.23 2436.88,-717.02 2440.28,-733.7 2443.48,-749.38 2440.45,-753.7 2440.28,-769.7 2437.61,-1027.89 2428.28,-1092.33 2428.28,-1350.53 2428.28,-1871.1 2428.28,-1871.1 2428.28,-1871.1 2428.28,-2025.61 1927.23,-2081.86 1775.28,-2109.85 1677.8,-2127.81 1561.32,-2137.95 1502.42,-2142.29"/>
<polygon fill="black" stroke="black" points="1502.32,-2138.79 1492.6,-2143 1502.83,-2145.77 1502.32,-2138.79"/>
<text xml:space="preserve" text-anchor="middle" x="2433.27" y="-1257.6" font-family="Times,serif" font-size="14.00">3</text>
</g>
<!-- 8&#45;&gt;8 -->
<g id="edge11" class="edge">
<title>8&#45;&gt;8</title>
<path fill="none" stroke="black" d="M2137.81,-383.24C2148.79,-384.02 2158.28,-381.28 2158.28,-375 2158.28,-371.08 2154.57,-368.53 2149.11,-367.37"/>
<polygon fill="black" stroke="black" points="2149.5,-363.89 2139.32,-366.84 2149.12,-370.88 2149.5,-363.89"/>
<text xml:space="preserve" text-anchor="middle" x="2162.78" y="-370.32" font-family="Times,serif" font-size="14.00">1</text>
</g>
<!-- 8&#45;&gt;13 -->
<g id="edge29" class="edge">
<title>8&#45;&gt;13</title>
<path fill="none" stroke="black" d="M2128.36,-390.21C2134.34,-396.29 2141.04,-403.66 2146.28,-411 2146.61,-411.46 2222.09,-554.67 2222.28,-555.2 2258.25,-656.24 2246.28,-688.07 2246.28,-795.33 2246.28,-1020.45 2246.28,-1020.45 2246.28,-1020.45 2246.28,-1127.54 2238.28,-1154.18 2238.28,-1261.28 2238.28,-1777.85 2238.28,-1777.85 2238.28,-1777.85 2238.28,-1805.03 2235.83,-1817.53 2214.28,-1834.1 2198.4,-1846.31 2074.38,-1859.54 2010.32,-1865.65"/>
<polygon fill="black" stroke="black" points="2010.23,-1862.15 2000.6,-1866.57 2010.88,-1869.12 2010.23,-1862.15"/>
<text xml:space="preserve" text-anchor="middle" x="2249.41" y="-1113.88" font-family="Times,serif" font-size="14.00">4</text>
</g>
<!-- 8&#45;&gt;28 -->
<g id="edge95" class="edge">
<title>8&#45;&gt;28</title>
<path fill="none" stroke="black" d="M2097.94,-390.03C2091.92,-396.08 2085.27,-403.48 2080.28,-411 2048.93,-458.25 1999.83,-592.43 1977.28,-644.45 1960.13,-684.01 1953.99,-693.17 1939.28,-733.7 1911,-811.61 1900.87,-830.8 1885.28,-912.2 1850.66,-1093 1883.33,-1143.81 1850.28,-1324.9 1840.28,-1379.71 1834.78,-1403.16 1788.28,-1433.85 1725.7,-1475.16 1697.56,-1458.85 1623.28,-1469.1 1433.8,-1495.26 1204.63,-1501.92 1114.93,-1503.57"/>
<polygon fill="black" stroke="black" points="1114.91,-1500.07 1104.97,-1503.74 1115.03,-1507.07 1114.91,-1500.07"/>
<text xml:space="preserve" text-anchor="middle" x="1889.78" y="-925.53" font-family="Times,serif" font-size="14.00">0</text>
</g>
<!-- 9&#45;&gt;1 -->
<g id="edge85" class="edge">
<title>9&#45;&gt;1</title>
<path fill="none" stroke="black" d="M1029.85,-581.51C1013.7,-587.21 992.74,-596.33 977.28,-609.2 964.29,-620.02 813.52,-845.49 803.28,-858.95 740.88,-940.97 723.61,-960.3 655.28,-1037.45 623.54,-1073.29 359.28,-1302.65 359.28,-1350.53 359.28,-1506.1 359.28,-1506.1 359.28,-1506.1 359.28,-1528.31 348.99,-1551.36 339.27,-1568.18"/>
<polygon fill="black" stroke="black" points="336.41,-1566.15 334.17,-1576.5 342.38,-1569.8 336.41,-1566.15"/>
<text xml:space="preserve" text-anchor="middle" x="641.86" y="-1059.4" font-family="Times,serif" font-size="14.00">3</text>
</g>
<!-- 9&#45;&gt;7 -->
<g id="edge3" class="edge">
<title>9&#45;&gt;7</title>
<path fill="none" stroke="black" d="M1045.68,-590.49C1043.09,-596.24 1040.58,-602.85 1039.28,-609.2 1037.74,-616.71 1037.74,-618.94 1039.28,-626.45 1039.83,-629.13 1040.59,-631.85 1041.49,-634.54"/>
<polygon fill="black" stroke="black" points="1038.2,-635.74 1045.12,-643.76 1044.71,-633.17 1038.2,-635.74"/>
<text xml:space="preserve" text-anchor="middle" x="1043.78" y="-613.15" font-family="Times,serif" font-size="14.00">2</text>
</g>
<!-- 9&#45;&gt;16 -->
<g id="edge30" class="edge">
<title>9&#45;&gt;16</title>
<path fill="none" stroke="black" d="M1030.38,-564.42C948.05,-535.97 681.28,-429.34 681.28,-242.12 681.28,-242.12 681.28,-242.12 681.28,-106.25 681.28,-32.18 793.31,-19.69 854.49,-18.4"/>
<polygon fill="black" stroke="black" points="854.52,-21.9 864.49,-18.29 854.45,-14.9 854.52,-21.9"/>
<text xml:space="preserve" text-anchor="middle" x="694.92" y="-281.07" font-family="Times,serif" font-size="14.00">1</text>
</g>
<!-- 9&#45;&gt;26 -->
<g id="edge46" class="edge">
<title>9&#45;&gt;26</title>
<path fill="none" stroke="black" d="M1081.13,-569.24C1207.76,-555.29 1745.44,-496.02 1895.97,-479.43"/>
<polygon fill="black" stroke="black" points="1896.27,-482.92 1905.83,-478.35 1895.51,-475.96 1896.27,-482.92"/>
<text xml:space="preserve" text-anchor="middle" x="1525.7" y="-523.9" font-family="Times,serif" font-size="14.00">0</text>
</g>
<!-- 9&#45;&gt;29 -->
<g id="edge126" class="edge">
<title>9&#45;&gt;29</title>
<path fill="none" stroke="black" d="M1042.56,-589.91C1021.41,-618.36 975.58,-680.4 938.28,-733.7 888.99,-804.15 888.17,-830.63 830.28,-894.2 821.77,-903.54 816.84,-902.91 808.28,-912.2 743.02,-983.07 719.06,-1000.47 685.28,-1090.7 613.45,-1282.57 633.28,-1343.85 633.28,-1548.73 633.28,-1729.23 633.28,-1729.23 633.28,-1729.23 633.28,-1875.07 599.28,-1909.76 599.28,-2055.6 599.28,-2325.35 599.28,-2325.35 599.28,-2325.35 599.28,-2382.13 791.78,-2403.46 875.81,-2410.06"/>
<polygon fill="black" stroke="black" points="875.41,-2413.54 885.64,-2410.8 875.93,-2406.56 875.41,-2413.54"/>
<text xml:space="preserve" text-anchor="middle" x="637.67" y="-1500.43" font-family="Times,serif" font-size="14.00">4</text>
</g>
<!-- 10&#45;&gt;4 -->
<g id="edge66" class="edge">
<title>10&#45;&gt;4</title>
<path fill="none" stroke="black" d="M1624.12,-108.88C1473.87,-112.54 743.42,-132.43 523.28,-178.5 452.7,-193.27 434.19,-199.11 370.28,-232.5 346.5,-244.92 338.3,-247.01 321.28,-267.75 282.49,-315.03 295.41,-340.35 264.28,-393 218.5,-470.42 174.77,-470.96 143.28,-555.2 -12.89,-972.95 -88.84,-1193.95 168.28,-1558.35 321.57,-1775.6 376.92,-1822.74 587.28,-1985.35 612.05,-2004.5 619.49,-2008.3 648.28,-2020.6 675.38,-2032.18 707.49,-2041.32 731.67,-2047.36"/>
<polygon fill="black" stroke="black" points="730.83,-2050.76 741.38,-2049.71 732.48,-2043.95 730.83,-2050.76"/>
<text xml:space="preserve" text-anchor="middle" x="6.46" y="-1059.4" font-family="Times,serif" font-size="14.00">4</text>
</g>
<!-- 15 -->
<g id="node17" class="node">
<title>15</title>
<ellipse fill="none" stroke="black" cx="1616.28" cy="-1118.55" rx="23.85" ry="23.85"/>
<ellipse fill="none" stroke="black" cx="1616.28" cy="-1118.55" rx="27.85" ry="27.85"/>
<text xml:space="preserve" text-anchor="middle" x="1616.28" y="-1113.88" font-family="Times,serif" font-size="14.00">15</text>
</g>
<!-- 10&#45;&gt;15 -->
<g id="edge113" class="edge">
<title>10&#45;&gt;15</title>
<path fill="none" stroke="black" d="M1651.28,-125.63C1651.28,-143.24 1651.28,-171.26 1651.28,-195.5 1651.28,-331.38 1651.28,-331.38 1651.28,-331.38 1651.28,-557.55 1633.28,-613.78 1633.28,-839.95 1633.28,-1020.45 1633.28,-1020.45 1633.28,-1020.45 1633.28,-1040.39 1629.76,-1062.28 1625.92,-1080.23"/>
<polygon fill="black" stroke="black" points="1622.53,-1079.39 1623.73,-1089.92 1629.35,-1080.94 1622.53,-1079.39"/>
<text xml:space="preserve" text-anchor="middle" x="1645.26" y="-613.15" font-family="Times,serif" font-size="14.00">0</text>
</g>
<!-- 10&#45;&gt;16 -->
<g id="edge92" class="edge">
<title>10&#45;&gt;16</title>
<path fill="none" stroke="black" d="M1624.16,-104.84C1555.53,-101.09 1369.45,-89.92 1215.28,-71.25 1111.44,-58.68 989.84,-37.05 930.15,-25.98"/>
<polygon fill="black" stroke="black" points="931.02,-22.58 920.54,-24.19 929.73,-29.46 931.02,-22.58"/>
<text xml:space="preserve" text-anchor="middle" x="1219.78" y="-57.95" font-family="Times,serif" font-size="14.00">3</text>
</g>
<!-- 10&#45;&gt;16 -->
<g id="edge125" class="edge">
<title>10&#45;&gt;16</title>
<path fill="none" stroke="black" d="M1624.81,-102.86C1557.81,-94.31 1376.03,-71.31 1224.28,-54 1118.24,-41.91 992.93,-29.05 931.34,-22.82"/>
<polygon fill="black" stroke="black" points="931.7,-19.34 921.4,-21.82 931,-26.3 931.7,-19.34"/>
<text xml:space="preserve" text-anchor="middle" x="1369.76" y="-57.95" font-family="Times,serif" font-size="14.00">2</text>
</g>
<!-- 10&#45;&gt;22 -->
<g id="edge32" class="edge">
<title>10&#45;&gt;22</title>
<path fill="none" stroke="black" d="M1678.26,-108.94C1801.89,-112.47 2308.28,-130.85 2308.28,-195.5 2308.28,-376 2308.28,-376 2308.28,-376 2308.28,-579.4 1991.28,-502.68 1991.28,-706.08 1991.28,-1020.45 1991.28,-1020.45 1991.28,-1020.45 1991.28,-1092.4 2014.85,-1120.91 1976.28,-1181.65 1935.78,-1245.44 1849.8,-1280.55 1801.02,-1296.05"/>
<polygon fill="black" stroke="black" points="1800.03,-1292.69 1791.49,-1298.96 1802.08,-1299.39 1800.03,-1292.69"/>
<text xml:space="preserve" text-anchor="middle" x="1995.78" y="-702.4" font-family="Times,serif" font-size="14.00">1</text>
</g>
<!-- 11&#45;&gt;2 -->
<g id="edge71" class="edge">
<title>11&#45;&gt;2</title>
<path fill="none" stroke="black" d="M1907.5,-2320.63C1885.2,-2316.97 1854.15,-2308.39 1835.28,-2288.35 1829.14,-2281.83 1825.49,-2272.97 1823.33,-2264.39"/>
<polygon fill="black" stroke="black" points="1826.78,-2263.8 1821.49,-2254.61 1819.9,-2265.09 1826.78,-2263.8"/>
<text xml:space="preserve" text-anchor="middle" x="1839.78" y="-2275.05" font-family="Times,serif" font-size="14.00">2</text>
</g>
<!-- 11&#45;&gt;3 -->
<g id="edge122" class="edge">
<title>11&#45;&gt;3</title>
<path fill="none" stroke="black" d="M1909.86,-2316.38C1886.85,-2309.67 1851.5,-2299 1821.28,-2288.35 1700.27,-2245.7 1559.45,-2187.21 1496.99,-2160.8"/>
<polygon fill="black" stroke="black" points="1498.57,-2157.67 1488,-2156.99 1495.84,-2164.11 1498.57,-2157.67"/>
<text xml:space="preserve" text-anchor="middle" x="1726.84" y="-2230.43" font-family="Times,serif" font-size="14.00">4</text>
</g>
<!-- 11&#45;&gt;8 -->
<g id="edge39" class="edge">
<title>11&#45;&gt;8</title>
<path fill="none" stroke="black" d="M1961.41,-2323.6C2081.46,-2324.46 2561.39,-2325.56 2616.28,-2288.35 2637.43,-2274.01 2640.28,-2261.66 2640.28,-2236.1 2640.28,-2236.1 2640.28,-2236.1 2640.28,-1063.08 2640.28,-903 2387.02,-553.6 2268.28,-446.25 2233.82,-415.1 2183.22,-395.71 2149.31,-385.39"/>
<polygon fill="black" stroke="black" points="2150.53,-382.1 2139.95,-382.66 2148.57,-388.82 2150.53,-382.1"/>
<text xml:space="preserve" text-anchor="middle" x="2644.78" y="-1346.85" font-family="Times,serif" font-size="14.00">0</text>
</g>
<!-- 11&#45;&gt;18 -->
<g id="edge123" class="edge">
<title>11&#45;&gt;18</title>
<path fill="none" stroke="black" d="M1961.45,-2322.46C2081.36,-2318.15 2557.28,-2297.19 2557.28,-2236.1 2557.28,-2236.1 2557.28,-2236.1 2557.28,-1117.55 2557.28,-970.92 2585.48,-930.05 2550.28,-787.7 2489.42,-541.59 2417.21,-435.89 2176.28,-357 2117.2,-337.66 1166.54,-296.89 962.61,-288.34"/>
<polygon fill="black" stroke="black" points="962.97,-284.86 952.84,-287.93 962.68,-291.85 962.97,-284.86"/>
<text xml:space="preserve" text-anchor="middle" x="2561.78" y="-1302.23" font-family="Times,serif" font-size="14.00">1</text>
</g>
<!-- 11&#45;&gt;27 -->
<g id="edge68" class="edge">
<title>11&#45;&gt;27</title>
<path fill="none" stroke="black" d="M1922.88,-2307.84C1911.69,-2291.04 1896.28,-2263.03 1896.28,-2236.1 1896.28,-2236.1 1896.28,-2236.1 1896.28,-2100.23 1896.28,-2010.16 1674,-1874.6 1625.28,-1798.85 1529.56,-1650.03 1535.45,-1596.72 1466.28,-1433.85 1439.02,-1369.68 1439.99,-1349.93 1406.28,-1288.9 1396.99,-1272.09 1396.37,-1265.54 1381.28,-1253.65 1364.36,-1240.32 1348.36,-1253.49 1336.28,-1235.65 1318.51,-1209.41 1321.96,-1190.94 1339.28,-1164.4 1348.41,-1150.41 1362.9,-1160.23 1372.28,-1146.4 1399.31,-1106.53 1398.28,-979.37 1398.28,-931.2 1398.28,-931.2 1398.28,-931.2 1398.28,-572.2 1398.28,-495.77 1127.46,-479.46 1023.9,-476.01"/>
<polygon fill="black" stroke="black" points="1024.03,-472.51 1013.92,-475.7 1023.81,-479.51 1024.03,-472.51"/>
<text xml:space="preserve" text-anchor="middle" x="1470.78" y="-1401.33" font-family="Times,serif" font-size="14.00">3</text>
</g>
<!-- 12&#45;&gt;1 -->
<g id="edge36" class="edge">
<title>12&#45;&gt;1</title>
<path fill="none" stroke="black" d="M271.98,-1035.92C258.66,-1054.27 239.28,-1086.34 239.28,-1117.55 239.28,-1263.28 239.28,-1263.28 239.28,-1263.28 239.28,-1395.1 201.03,-1445.58 269.28,-1558.35 274.23,-1566.53 281.91,-1573.19 289.9,-1578.41"/>
<polygon fill="black" stroke="black" points="287.93,-1581.32 298.34,-1583.32 291.45,-1575.27 287.93,-1581.32"/>
<text xml:space="preserve" text-anchor="middle" x="243.22" y="-1302.23" font-family="Times,serif" font-size="14.00">2</text>
</g>
<!-- 12&#45;&gt;3 -->
<g id="edge137" class="edge">
<title>12&#45;&gt;3</title>
<path fill="none" stroke="black" d="M267.91,-1034.27C261.14,-1040.4 253.44,-1047.92 247.28,-1055.45 235.59,-1069.75 232.75,-1073.81 225.28,-1090.7 151.4,-1257.69 140.91,-1306.04 117.28,-1487.1 97.3,-1640.15 169.35,-1682.09 270.28,-1798.85 355.67,-1897.63 386.75,-1915.83 497.28,-1985.35 576.94,-2035.45 602.37,-2038.52 689.28,-2074.6 731.26,-2092.03 740.75,-2100.75 785.28,-2109.85 909.21,-2135.19 1301.59,-2142.64 1426.03,-2144.39"/>
<polygon fill="black" stroke="black" points="1425.65,-2147.88 1435.7,-2144.52 1425.75,-2140.88 1425.65,-2147.88"/>
<text xml:space="preserve" text-anchor="middle" x="130.92" y="-1589.68" font-family="Times,serif" font-size="14.00">4</text>
</g>
<!-- 12&#45;&gt;4 -->
<g id="edge119" class="edge">
<title>12&#45;&gt;4</title>
<path fill="none" stroke="black" d="M257.82,-1023.61C210.73,-1030.85 117.28,-1053.33 117.28,-1117.55 117.28,-1263.28 117.28,-1263.28 117.28,-1263.28 117.28,-1315.83 133.5,-1326.94 145.28,-1378.15 163.65,-1458.01 134.4,-1493.34 184.28,-1558.35 194.93,-1572.23 205,-1566.25 219.28,-1576.35 399.44,-1703.72 417.79,-1767.82 574.28,-1923.35 619.16,-1967.96 623.94,-1988.18 678.28,-2020.6 697.49,-2032.06 704.43,-2030.49 725.28,-2038.6 728.47,-2039.84 731.79,-2041.14 735.11,-2042.45"/>
<polygon fill="black" stroke="black" points="733.54,-2045.59 744.13,-2046 736.11,-2039.08 733.54,-2045.59"/>
<text xml:space="preserve" text-anchor="middle" x="188.78" y="-1545.05" font-family="Times,serif" font-size="14.00">3</text>
</g>
<!-- 12&#45;&gt;6 -->
<g id="edge134" class="edge">
<title>12&#45;&gt;6</title>
<path fill="none" stroke="black" d="M308.55,-1011.02C346.95,-999.56 424.24,-977.69 491.28,-966.2 614.4,-945.09 762.41,-936.06 830.97,-932.78"/>
<polygon fill="black" stroke="black" points="830.71,-936.3 840.54,-932.34 830.39,-929.31 830.71,-936.3"/>
<text xml:space="preserve" text-anchor="middle" x="495.78" y="-970.15" font-family="Times,serif" font-size="14.00">1</text>
</g>
<!-- 12&#45;&gt;23 -->
<g id="edge147" class="edge">
<title>12&#45;&gt;23</title>
<path fill="none" stroke="black" d="M291.52,-1036.92C316.46,-1094.22 397.28,-1284.96 397.28,-1350.53 397.28,-1550.73 397.28,-1550.73 397.28,-1550.73 397.28,-1595.08 394.69,-1612.1 421.28,-1647.6 428.09,-1656.7 438.02,-1663.84 447.85,-1669.24"/>
<polygon fill="black" stroke="black" points="446.05,-1672.25 456.57,-1673.56 449.16,-1665.98 446.05,-1672.25"/>
<text xml:space="preserve" text-anchor="middle" x="401.78" y="-1346.85" font-family="Times,serif" font-size="14.00">0</text>
</g>
<!-- 13&#45;&gt;5 -->
<g id="edge104" class="edge">
<title>13&#45;&gt;5</title>
<path fill="none" stroke="black" d="M1945.47,-1867.15C1894.16,-1863.04 1784.25,-1852.35 1751.28,-1834.1 1738.92,-1827.26 1728.2,-1816.04 1719.97,-1805.41"/>
<polygon fill="black" stroke="black" points="1722.98,-1803.61 1714.28,-1797.58 1717.32,-1807.73 1722.98,-1803.61"/>
<text xml:space="preserve" text-anchor="middle" x="1755.78" y="-1820.8" font-family="Times,serif" font-size="14.00">1</text>
</g>
<!-- 13&#45;&gt;8 -->
<g id="edge13" class="edge">
<title>13&#45;&gt;8</title>
<path fill="none" stroke="black" d="M1999.5,-1868.18C2052.04,-1864.8 2162.28,-1849.21 2162.28,-1777.85 2162.28,-1777.85 2162.28,-1777.85 2162.28,-1261.28 2162.28,-986.89 2159.27,-917.87 2136.28,-644.45 2130.93,-580.84 2123.55,-565.57 2118.28,-501.95 2115.52,-468.59 2114.27,-430.13 2113.71,-404.57"/>
<polygon fill="black" stroke="black" points="2117.22,-404.58 2113.52,-394.65 2110.22,-404.72 2117.22,-404.58"/>
<text xml:space="preserve" text-anchor="middle" x="2166.49" y="-1113.88" font-family="Times,serif" font-size="14.00">3</text>
</g>
<!-- 13&#45;&gt;8 -->
<g id="edge142" class="edge">
<title>13&#45;&gt;8</title>
<path fill="none" stroke="black" d="M1999.53,-1869.27C2036.58,-1868.33 2103.75,-1862.42 2152.28,-1834.1 2180.67,-1817.54 2200.28,-1810.72 2200.28,-1777.85 2200.28,-1777.85 2200.28,-1777.85 2200.28,-1261.28 2200.28,-922.26 2136.31,-513.71 2118.08,-404.15"/>
<polygon fill="black" stroke="black" points="2121.58,-403.89 2116.47,-394.61 2114.68,-405.05 2121.58,-403.89"/>
<text xml:space="preserve" text-anchor="middle" x="2202.46" y="-1113.88" font-family="Times,serif" font-size="14.00">4</text>
</g>
<!-- 13&#45;&gt;10 -->
<g id="edge60" class="edge">
<title>13&#45;&gt;10</title>
<path fill="none" stroke="black" d="M1998.96,-1866.78C2061.96,-1861.12 2216.18,-1846.21 2236.28,-1834.1 2262.56,-1818.27 2276.28,-1808.53 2276.28,-1777.85 2276.28,-1777.85 2276.28,-1777.85 2276.28,-1261.28 2276.28,-1174 2284.28,-1152.35 2284.28,-1065.08 2284.28,-1065.08 2284.28,-1065.08 2284.28,-795.33 2284.28,-639.09 2588.28,-775.06 2588.28,-618.83 2588.28,-618.83 2588.28,-618.83 2588.28,-240.12 2588.28,-188.28 2568.53,-168.56 2523.28,-143.25 2486.47,-122.66 1853.93,-111.41 1689.89,-108.83"/>
<polygon fill="black" stroke="black" points="1690.03,-105.33 1679.98,-108.67 1689.93,-112.33 1690.03,-105.33"/>
<text xml:space="preserve" text-anchor="middle" x="2288.78" y="-970.15" font-family="Times,serif" font-size="14.00">2</text>
</g>
<!-- 13&#45;&gt;14 -->
<g id="edge25" class="edge">
<title>13&#45;&gt;14</title>
<path fill="none" stroke="black" d="M1945.08,-1867.71C1863.95,-1862.84 1629.28,-1843.09 1629.28,-1777.85 1629.28,-1777.85 1629.28,-1777.85 1629.28,-1504.1 1629.28,-1390 1569.29,-1370.25 1489.28,-1288.9 1474.34,-1273.71 1346.38,-1195.62 1330.28,-1181.65 1224.64,-1090 1203.98,-1059.49 1119.28,-948.2 1068.09,-880.94 1073.45,-850.86 1017.28,-787.7 1012.49,-782.32 1006.83,-777.09 1001.22,-772.39"/>
<polygon fill="black" stroke="black" points="1003.75,-769.93 993.75,-766.44 999.38,-775.41 1003.75,-769.93"/>
<text xml:space="preserve" text-anchor="middle" x="1531.27" y="-1302.23" font-family="Times,serif" font-size="14.00">0</text>
</g>
<!-- 14&#45;&gt;7 -->
<g id="edge5" class="edge">
<title>14&#45;&gt;7</title>
<path fill="none" stroke="black" d="M992.43,-738.17C1000.79,-731.94 1010.55,-723.98 1018.28,-715.7 1025.82,-707.63 1032.97,-697.86 1038.89,-688.97"/>
<polygon fill="black" stroke="black" points="1041.73,-691.02 1044.18,-680.71 1035.84,-687.24 1041.73,-691.02"/>
<text xml:space="preserve" text-anchor="middle" x="1036.01" y="-702.4" font-family="Times,serif" font-size="14.00">3</text>
</g>
<!-- 14&#45;&gt;16 -->
<g id="edge42" class="edge">
<title>14&#45;&gt;16</title>
<path fill="none" stroke="black" d="M947.7,-747.43C868.75,-736.7 631.03,-697 468.28,-591.2 312.92,-490.2 240.28,-427.43 240.28,-242.12 240.28,-242.12 240.28,-242.12 240.28,-106.25 240.28,-43.87 714.43,-24.45 854.66,-20.07"/>
<polygon fill="black" stroke="black" points="854.65,-23.57 864.54,-19.77 854.44,-16.57 854.65,-23.57"/>
<text xml:space="preserve" text-anchor="middle" x="268.94" y="-370.32" font-family="Times,serif" font-size="14.00">2</text>
</g>
<!-- 14&#45;&gt;18 -->
<g id="edge35" class="edge">
<title>14&#45;&gt;18</title>
<path fill="none" stroke="black" d="M972.4,-733.51C968,-693.12 956.65,-588.98 947.28,-501.95 940.08,-435.11 931.71,-356.58 927.32,-315.35"/>
<polygon fill="black" stroke="black" points="930.82,-315.12 926.28,-305.55 923.86,-315.86 930.82,-315.12"/>
<text xml:space="preserve" text-anchor="middle" x="955.43" y="-523.9" font-family="Times,serif" font-size="14.00">1</text>
</g>
<!-- 14&#45;&gt;28 -->
<g id="edge54" class="edge">
<title>14&#45;&gt;28</title>
<path fill="none" stroke="black" d="M976.67,-770.11C981.61,-806.49 993.2,-893.23 1001.28,-966.2 1016.26,-1101.41 1010.65,-1136.29 1030.28,-1270.9 1041.14,-1345.36 1059.87,-1432.07 1069.75,-1475.8"/>
<polygon fill="black" stroke="black" points="1066.32,-1476.49 1071.95,-1485.47 1073.14,-1474.94 1066.32,-1476.49"/>
<text xml:space="preserve" text-anchor="middle" x="1020.53" y="-1113.88" font-family="Times,serif" font-size="14.00">0</text>
</g>
<!-- 14&#45;&gt;28 -->
<g id="edge65" class="edge">
<title>14&#45;&gt;28</title>
<path fill="none" stroke="black" d="M973.87,-769.97C972.49,-848.37 971.55,-1177.93 1045.28,-1433.85 1049.6,-1448.86 1056.47,-1464.85 1062.64,-1477.78"/>
<polygon fill="black" stroke="black" points="1059.36,-1479.04 1066.92,-1486.47 1065.64,-1475.95 1059.36,-1479.04"/>
<text xml:space="preserve" text-anchor="middle" x="995.7" y="-1113.88" font-family="Times,serif" font-size="14.00">4</text>
</g>
<!-- 15&#45;&gt;12 -->
<g id="edge57" class="edge">
<title>15&#45;&gt;12</title>
<path fill="none" stroke="black" d="M1588.51,-1114.15C1541.85,-1108.54 1444.71,-1097.32 1362.28,-1090.7 1254.69,-1082.07 499.62,-1048.82 392.28,-1037.45 368.5,-1034.93 341.97,-1030.78 321.16,-1027.2"/>
<polygon fill="black" stroke="black" points="321.88,-1023.78 311.42,-1025.5 320.67,-1030.67 321.88,-1023.78"/>
<text xml:space="preserve" text-anchor="middle" x="1009.77" y="-1059.4" font-family="Times,serif" font-size="14.00">4</text>
</g>
<!-- 15&#45;&gt;17 -->
<g id="edge128" class="edge">
<title>15&#45;&gt;17</title>
<path fill="none" stroke="black" d="M1603.24,-1093.57C1594.01,-1074.37 1583.28,-1046.45 1583.28,-1020.45 1583.28,-1020.45 1583.28,-1020.45 1583.28,-795.33 1583.28,-623.89 1587.8,-578.28 1550.28,-411 1549.73,-408.53 1549.04,-406.01 1548.27,-403.49"/>
<polygon fill="black" stroke="black" points="1551.65,-402.54 1545.07,-394.24 1545.04,-404.84 1551.65,-402.54"/>
<text xml:space="preserve" text-anchor="middle" x="1587.9" y="-747.03" font-family="Times,serif" font-size="14.00">2</text>
</g>
<!-- 15&#45;&gt;19 -->
<g id="edge8" class="edge">
<title>15&#45;&gt;19</title>
<path fill="none" stroke="black" d="M1610.86,-1146.29C1605.86,-1178.06 1602.04,-1231.7 1623.28,-1270.9 1629.8,-1282.94 1639.1,-1278.75 1648.28,-1288.9 1670.03,-1312.96 1687.96,-1345.24 1699.78,-1369.65"/>
<polygon fill="black" stroke="black" points="1696.54,-1370.99 1703.97,-1378.55 1702.88,-1368.01 1696.54,-1370.99"/>
<text xml:space="preserve" text-anchor="middle" x="1627.78" y="-1257.6" font-family="Times,serif" font-size="14.00">1</text>
</g>
<!-- 15&#45;&gt;22 -->
<g id="edge75" class="edge">
<title>15&#45;&gt;22</title>
<path fill="none" stroke="black" d="M1643.44,-1125.75C1665.3,-1132.06 1695.4,-1143.88 1714.28,-1164.4 1743.62,-1196.3 1756.36,-1246.31 1761.68,-1277.54"/>
<polygon fill="black" stroke="black" points="1758.22,-1278.06 1763.2,-1287.41 1765.14,-1276.99 1758.22,-1278.06"/>
<text xml:space="preserve" text-anchor="middle" x="1756.28" y="-1212.98" font-family="Times,serif" font-size="14.00">3</text>
</g>
<!-- 15&#45;&gt;22 -->
<g id="edge148" class="edge">
<title>15&#45;&gt;22</title>
<path fill="none" stroke="black" d="M1638.16,-1136.29C1647.91,-1144.27 1659.22,-1154.27 1668.28,-1164.4 1701.51,-1201.53 1732.73,-1250.55 1750.38,-1280.07"/>
<polygon fill="black" stroke="black" points="1747.16,-1281.52 1755.26,-1288.35 1753.19,-1277.96 1747.16,-1281.52"/>
<text xml:space="preserve" text-anchor="middle" x="1726.16" y="-1212.98" font-family="Times,serif" font-size="14.00">0</text>
</g>
<!-- 16&#45;&gt;5 -->
<g id="edge107" class="edge">
<title>16&#45;&gt;5</title>
<path fill="none" stroke="black" d="M920.43,-19.12C1122.51,-20.19 2384.28,-29.92 2384.28,-106.25 2384.28,-331.38 2384.28,-331.38 2384.28,-331.38 2384.28,-549.23 2161.57,-523.51 2104.28,-733.7 2042.59,-960.06 2086.28,-1026.66 2086.28,-1261.28 2086.28,-1684.6 2086.28,-1684.6 2086.28,-1684.6 2086.28,-1756.32 1829.54,-1771.76 1735.92,-1775.01"/>
<polygon fill="black" stroke="black" points="1735.98,-1771.51 1726.1,-1775.32 1736.2,-1778.5 1735.98,-1771.51"/>
<text xml:space="preserve" text-anchor="middle" x="2080.01" y="-880.9" font-family="Times,serif" font-size="14.00">1</text>
</g>
<!-- 16&#45;&gt;11 -->
<g id="edge19" class="edge">
<title>16&#45;&gt;11</title>
<path fill="none" stroke="black" d="M920.6,-18.85C1145.18,-17.83 2678.28,-14.24 2678.28,-106.25 2678.28,-2236.1 2678.28,-2236.1 2678.28,-2236.1 2678.28,-2265.08 2664.85,-2274.72 2639.28,-2288.35 2580.43,-2319.71 2112.03,-2323.05 1973.03,-2323.34"/>
<polygon fill="black" stroke="black" points="1973.24,-2319.84 1963.25,-2323.36 1973.25,-2326.84 1973.24,-2319.84"/>
<text xml:space="preserve" text-anchor="middle" x="2682.78" y="-1168.35" font-family="Times,serif" font-size="14.00">2</text>
</g>
<!-- 16&#45;&gt;11 -->
<g id="edge114" class="edge">
<title>16&#45;&gt;11</title>
<path fill="none" stroke="black" d="M920.52,-18.84C1107.49,-17.87 2203.47,-13.97 2534.28,-54 2810.15,-87.38 2716.28,-57.12 2716.28,-106.25 2716.28,-2236.1 2716.28,-2236.1 2716.28,-2236.1 2716.28,-2268.24 2695.53,-2275.02 2666.28,-2288.35 2603.01,-2317.19 2114.03,-2322.3 1972.53,-2323.18"/>
<polygon fill="black" stroke="black" points="1972.92,-2319.67 1962.95,-2323.23 1972.97,-2326.67 1972.92,-2319.67"/>
<text xml:space="preserve" text-anchor="middle" x="2720.78" y="-1168.35" font-family="Times,serif" font-size="14.00">4</text>
</g>
<!-- 16&#45;&gt;22 -->
<g id="edge120" class="edge">
<title>16&#45;&gt;22</title>
<path fill="none" stroke="black" d="M920.49,-19.11C1121.69,-19.98 2371.41,-26.5 2398.28,-54 2462.33,-119.56 2447.28,-429.24 2380.28,-537.2 2312.13,-647.02 2204.5,-587.46 2138.28,-698.45 2027.77,-883.67 2218.62,-1006.12 2093.28,-1181.65 2025.24,-1276.95 1874.35,-1299.18 1803.46,-1304.35"/>
<polygon fill="black" stroke="black" points="1803.66,-1300.83 1793.91,-1304.97 1804.11,-1307.82 1803.66,-1300.83"/>
<text xml:space="preserve" text-anchor="middle" x="2194.44" y="-657.78" font-family="Times,serif" font-size="14.00">0</text>
</g>
<!-- 16&#45;&gt;27 -->
<g id="edge12" class="edge">
<title>16&#45;&gt;27</title>
<path fill="none" stroke="black" d="M868.26,-25.38C833.62,-35.89 775.28,-60.39 775.28,-106.25 775.28,-286.75 775.28,-286.75 775.28,-286.75 775.28,-378.05 887.77,-435.69 947.69,-459.91"/>
<polygon fill="black" stroke="black" points="946.24,-463.1 956.82,-463.5 948.79,-456.58 946.24,-463.1"/>
<text xml:space="preserve" text-anchor="middle" x="779.78" y="-236.45" font-family="Times,serif" font-size="14.00">3</text>
</g>
<!-- 17&#45;&gt;2 -->
<g id="edge38" class="edge">
<title>17&#45;&gt;2</title>
<path fill="none" stroke="black" d="M1561.68,-383.43C1600.54,-395.46 1678.71,-420.47 1743.28,-446.25 2046.62,-567.35 2160.46,-576.05 2374.28,-822.95 2426.95,-883.76 2474.28,-893.38 2474.28,-973.83 2474.28,-1263.28 2474.28,-1263.28 2474.28,-1263.28 2474.28,-1326.27 2473.28,-1342.01 2473.28,-1405 2473.28,-1550.73 2473.28,-1550.73 2473.28,-1550.73 2473.28,-1749.35 2531.19,-1870.3 2369.28,-1985.35 2278.44,-2049.9 1958.74,-2179.23 1853.87,-2220.86"/>
<polygon fill="black" stroke="black" points="1852.7,-2217.56 1844.69,-2224.5 1855.28,-2224.07 1852.7,-2217.56"/>
<text xml:space="preserve" text-anchor="middle" x="2478.71" y="-1302.23" font-family="Times,serif" font-size="14.00">2</text>
</g>
<!-- 17&#45;&gt;13 -->
<g id="edge24" class="edge">
<title>17&#45;&gt;13</title>
<path fill="none" stroke="black" d="M1554.1,-389.31C1631.93,-450.9 1953.28,-705.27 1953.28,-706.08 1953.28,-1065.08 1953.28,-1065.08 1953.28,-1065.08 1953.28,-1152.68 1972.28,-1173.67 1972.28,-1261.28 1972.28,-1777.85 1972.28,-1777.85 1972.28,-1777.85 1972.28,-1798.7 1972.28,-1822.24 1972.28,-1840.18"/>
<polygon fill="black" stroke="black" points="1968.78,-1840.1 1972.28,-1850.1 1975.78,-1840.1 1968.78,-1840.1"/>
<text xml:space="preserve" text-anchor="middle" x="1964.17" y="-1113.88" font-family="Times,serif" font-size="14.00">3</text>
</g>
<!-- 17&#45;&gt;13 -->
<g id="edge111" class="edge">
<title>17&#45;&gt;13</title>
<path fill="none" stroke="black" d="M1557.84,-387.12C1570.22,-393.89 1586.24,-402.78 1600.28,-411 1612.89,-418.38 1615.18,-421.77 1628.28,-428.25 1648.33,-438.16 1655.76,-435.33 1675.28,-446.25 1836.09,-536.17 1916.37,-536.53 2004.28,-698.45 2064.14,-808.7 2048.28,-1135.82 2048.28,-1261.28 2048.28,-1777.85 2048.28,-1777.85 2048.28,-1777.85 2048.28,-1808.56 2022.55,-1834.43 2001.03,-1850.69"/>
<polygon fill="black" stroke="black" points="1999.18,-1847.71 1993.08,-1856.38 2003.25,-1853.41 1999.18,-1847.71"/>
<text xml:space="preserve" text-anchor="middle" x="2054.65" y="-1113.88" font-family="Times,serif" font-size="14.00">4</text>
</g>
<!-- 17&#45;&gt;14 -->
<g id="edge27" class="edge">
<title>17&#45;&gt;14</title>
<path fill="none" stroke="black" d="M1514.92,-385.58C1501.99,-391.74 1485.83,-400.54 1473.28,-411 1378.49,-489.96 1398.15,-554.03 1298.28,-626.45 1206.45,-693.04 1074.44,-728.89 1011.02,-743.2"/>
<polygon fill="black" stroke="black" points="1010.5,-739.73 1001.48,-745.29 1012,-746.56 1010.5,-739.73"/>
<text xml:space="preserve" text-anchor="middle" x="1371.74" y="-568.53" font-family="Times,serif" font-size="14.00">1</text>
</g>
<!-- 17&#45;&gt;18 -->
<g id="edge78" class="edge">
<title>17&#45;&gt;18</title>
<path fill="none" stroke="black" d="M1510.94,-370.25C1413.78,-356.42 1075.22,-308.23 961.71,-292.08"/>
<polygon fill="black" stroke="black" points="962.41,-288.64 952.02,-290.7 961.43,-295.57 962.41,-288.64"/>
<text xml:space="preserve" text-anchor="middle" x="1290.19" y="-325.7" font-family="Times,serif" font-size="14.00">0</text>
</g>
<!-- 18&#45;&gt;11 -->
<g id="edge77" class="edge">
<title>18&#45;&gt;11</title>
<path fill="none" stroke="black" d="M951.25,-287.99C1019.54,-291.09 1204.79,-299.25 1359.28,-303.75 1411.38,-305.27 2246.97,-308.12 2297.28,-321.75 2486.86,-373.13 2626.28,-420.41 2626.28,-616.83 2626.28,-752.7 2626.28,-752.7 2626.28,-752.7 2626.28,-891.06 2602.28,-924.72 2602.28,-1063.08 2602.28,-2236.1 2602.28,-2236.1 2602.28,-2236.1 2602.28,-2263.1 2594.37,-2274.35 2571.28,-2288.35 2520.19,-2319.33 2102.72,-2322.95 1972.75,-2323.33"/>
<polygon fill="black" stroke="black" points="1972.95,-2319.83 1962.96,-2323.35 1972.96,-2326.82 1972.95,-2319.83"/>
<text xml:space="preserve" text-anchor="middle" x="2606.78" y="-1302.23" font-family="Times,serif" font-size="14.00">1</text>
</g>
<!-- 18&#45;&gt;12 -->
<g id="edge94" class="edge">
<title>18&#45;&gt;12</title>
<path fill="none" stroke="black" d="M897.44,-288.72C856.05,-293.26 777.05,-308.2 735.28,-357 677.45,-424.57 699.91,-464.78 648.28,-537.2 609.01,-592.28 584.7,-593.43 540.28,-644.45 507.71,-681.86 501.9,-693.19 473.28,-733.7 406.83,-827.78 332.48,-942.92 300.42,-993.08"/>
<polygon fill="black" stroke="black" points="297.66,-990.9 295.23,-1001.21 303.56,-994.67 297.66,-990.9"/>
<text xml:space="preserve" text-anchor="middle" x="544.78" y="-657.78" font-family="Times,serif" font-size="14.00">0</text>
</g>
<!-- 18&#45;&gt;14 -->
<g id="edge62" class="edge">
<title>18&#45;&gt;14</title>
<path fill="none" stroke="black" d="M914.57,-303.03C882.3,-359.41 784.79,-550.03 858.28,-680.45 875.45,-710.92 911.74,-729.68 939.19,-740.06"/>
<polygon fill="black" stroke="black" points="937.94,-743.33 948.54,-743.38 940.28,-736.74 937.94,-743.33"/>
<text xml:space="preserve" text-anchor="middle" x="839.28" y="-523.9" font-family="Times,serif" font-size="14.00">2</text>
</g>
<!-- 21 -->
<g id="node23" class="node">
<title>21</title>
<ellipse fill="none" stroke="black" cx="559.28" cy="-196.5" rx="27" ry="18"/>
<text xml:space="preserve" text-anchor="middle" x="559.28" y="-191.82" font-family="Times,serif" font-size="14.00">21</text>
</g>
<!-- 18&#45;&gt;21 -->
<g id="edge18" class="edge">
<title>18&#45;&gt;21</title>
<path fill="none" stroke="black" d="M898.2,-280.38C863.06,-274.33 798.63,-262.69 744.28,-249.75 691.46,-237.18 631.07,-219.49 594.06,-208.26"/>
<polygon fill="black" stroke="black" points="595.39,-205 584.8,-205.43 593.35,-211.7 595.39,-205"/>
<text xml:space="preserve" text-anchor="middle" x="748.78" y="-236.45" font-family="Times,serif" font-size="14.00">3</text>
</g>
<!-- 18&#45;&gt;27 -->
<g id="edge33" class="edge">
<title>18&#45;&gt;27</title>
<path fill="none" stroke="black" d="M929.79,-303.85C939.41,-333.75 959.51,-396.16 972.42,-436.26"/>
<polygon fill="black" stroke="black" points="969.08,-437.3 975.47,-445.75 975.74,-435.16 969.08,-437.3"/>
<text xml:space="preserve" text-anchor="middle" x="962.77" y="-370.32" font-family="Times,serif" font-size="14.00">4</text>
</g>
<!-- 19&#45;&gt;5 -->
<g id="edge105" class="edge">
<title>19&#45;&gt;5</title>
<path fill="none" stroke="black" d="M1714.32,-1434.33C1711.97,-1500.87 1705.97,-1671.04 1703.44,-1742.97"/>
<polygon fill="black" stroke="black" points="1699.94,-1742.8 1703.09,-1752.91 1706.94,-1743.04 1699.94,-1742.8"/>
<text xml:space="preserve" text-anchor="middle" x="1713.74" y="-1589.68" font-family="Times,serif" font-size="14.00">1</text>
</g>
<!-- 19&#45;&gt;10 -->
<g id="edge108" class="edge">
<title>19&#45;&gt;10</title>
<path fill="none" stroke="black" d="M1736.28,-1387.02C1760.6,-1365.95 1797.8,-1332.9 1801.28,-1324.9 1807.66,-1310.23 1801.96,-1304.89 1801.28,-1288.9 1784.82,-901.95 1727.28,-807.92 1727.28,-420.62 1727.28,-420.62 1727.28,-420.62 1727.28,-195.5 1727.28,-165.89 1702.08,-141.44 1680.7,-126.04"/>
<polygon fill="black" stroke="black" points="1682.74,-123.19 1672.5,-120.46 1678.8,-128.98 1682.74,-123.19"/>
<text xml:space="preserve" text-anchor="middle" x="1751.42" y="-747.03" font-family="Times,serif" font-size="14.00">0</text>
</g>
<!-- 19&#45;&gt;15 -->
<g id="edge49" class="edge">
<title>19&#45;&gt;15</title>
<path fill="none" stroke="black" d="M1693.7,-1387.81C1666.53,-1364.64 1621.25,-1320.53 1603.28,-1270.9 1589.73,-1233.47 1596.68,-1187.55 1604.67,-1156.18"/>
<polygon fill="black" stroke="black" points="1607.97,-1157.34 1607.22,-1146.78 1601.22,-1155.51 1607.97,-1157.34"/>
<text xml:space="preserve" text-anchor="middle" x="1607.78" y="-1257.6" font-family="Times,serif" font-size="14.00">4</text>
</g>
<!-- 19&#45;&gt;15 -->
<g id="edge146" class="edge">
<title>19&#45;&gt;15</title>
<path fill="none" stroke="black" d="M1707.6,-1378.93C1704.24,-1367.79 1700.19,-1354.67 1696.28,-1342.9 1674.26,-1276.55 1646.27,-1200.01 1629.91,-1155.95"/>
<polygon fill="black" stroke="black" points="1633.21,-1154.78 1626.44,-1146.63 1626.65,-1157.22 1633.21,-1154.78"/>
<text xml:space="preserve" text-anchor="middle" x="1675.52" y="-1257.6" font-family="Times,serif" font-size="14.00">2</text>
</g>
<!-- 19&#45;&gt;22 -->
<g id="edge102" class="edge">
<title>19&#45;&gt;22</title>
<path fill="none" stroke="black" d="M1727.64,-1381C1734.95,-1366.81 1744.21,-1348.82 1751.72,-1334.24"/>
<polygon fill="black" stroke="black" points="1754.66,-1336.17 1756.13,-1325.68 1748.44,-1332.96 1754.66,-1336.17"/>
<text xml:space="preserve" text-anchor="middle" x="1750.73" y="-1346.85" font-family="Times,serif" font-size="14.00">3</text>
</g>
<!-- 20&#45;&gt;12 -->
<g id="edge26" class="edge">
<title>20&#45;&gt;12</title>
<path fill="none" stroke="black" d="M478.48,-579.17C444.57,-587.05 385.44,-605.68 352.28,-644.45 265.28,-746.18 273.45,-921.47 280.6,-989.91"/>
<polygon fill="black" stroke="black" points="277.09,-989.99 281.69,-999.54 284.05,-989.21 277.09,-989.99"/>
<text xml:space="preserve" text-anchor="middle" x="292.17" y="-791.65" font-family="Times,serif" font-size="14.00">3</text>
</g>
<!-- 20&#45;&gt;16 -->
<g id="edge82" class="edge">
<title>20&#45;&gt;16</title>
<path fill="none" stroke="black" d="M489.55,-557.96C446.56,-514.78 324.28,-379.85 324.28,-242.12 324.28,-242.12 324.28,-242.12 324.28,-106.25 324.28,-52.4 727.57,-27.38 855.1,-20.82"/>
<polygon fill="black" stroke="black" points="854.9,-24.33 864.71,-20.33 854.54,-17.34 854.9,-24.33"/>
<text xml:space="preserve" text-anchor="middle" x="335.93" y="-281.07" font-family="Times,serif" font-size="14.00">2</text>
</g>
<!-- 20&#45;&gt;21 -->
<g id="edge79" class="edge">
<title>20&#45;&gt;21</title>
<path fill="none" stroke="black" d="M496.48,-555.78C488.2,-536.79 476.28,-504.4 476.28,-475.1 476.28,-475.1 476.28,-475.1 476.28,-284.75 476.28,-253.29 504.97,-228.66 528.61,-213.71"/>
<polygon fill="black" stroke="black" points="530.24,-216.81 537.04,-208.68 526.66,-210.8 530.24,-216.81"/>
<text xml:space="preserve" text-anchor="middle" x="480.78" y="-370.32" font-family="Times,serif" font-size="14.00">1</text>
</g>
<!-- 20&#45;&gt;21 -->
<g id="edge106" class="edge">
<title>20&#45;&gt;21</title>
<path fill="none" stroke="black" d="M509.11,-555.17C514.13,-535.9 521.28,-503.51 521.28,-475.1 521.28,-475.1 521.28,-475.1 521.28,-284.75 521.28,-262.45 531.85,-239.41 541.83,-222.61"/>
<polygon fill="black" stroke="black" points="544.7,-224.62 547.07,-214.3 538.78,-220.89 544.7,-224.62"/>
<text xml:space="preserve" text-anchor="middle" x="525.78" y="-370.32" font-family="Times,serif" font-size="14.00">0</text>
</g>
<!-- 20&#45;&gt;27 -->
<g id="edge81" class="edge">
<title>20&#45;&gt;27</title>
<path fill="none" stroke="black" d="M530.09,-566.98C609.63,-550.89 851.33,-502 945.83,-482.88"/>
<polygon fill="black" stroke="black" points="946.27,-486.36 955.38,-480.95 944.88,-479.5 946.27,-486.36"/>
<text xml:space="preserve" text-anchor="middle" x="763.17" y="-523.9" font-family="Times,serif" font-size="14.00">4</text>
</g>
<!-- 21&#45;&gt;3 -->
<g id="edge76" class="edge">
<title>21&#45;&gt;3</title>
<path fill="none" stroke="black" d="M586.56,-198.41C788.49,-205.4 2046.93,-252.97 2176.28,-357 2369.79,-512.63 2360.28,-636.25 2360.28,-884.58 2360.28,-1065.08 2360.28,-1065.08 2360.28,-1065.08 2360.28,-1191.99 2352.28,-1223.61 2352.28,-1350.53 2352.28,-1729.23 2352.28,-1729.23 2352.28,-1729.23 2352.28,-1783.37 2333.59,-1801.61 2290.28,-1834.1 2112.61,-1967.39 2033.67,-1940.74 1834.28,-2038.6 1822.86,-2044.21 1744.31,-2086.26 1733.28,-2092.6 1720.61,-2099.88 1719.02,-2104.86 1705.28,-2109.85 1636.81,-2134.71 1551.34,-2141.96 1502.77,-2144.04"/>
<polygon fill="black" stroke="black" points="1502.91,-2140.54 1493.05,-2144.41 1503.17,-2147.53 1502.91,-2140.54"/>
<text xml:space="preserve" text-anchor="middle" x="2362.81" y="-1168.35" font-family="Times,serif" font-size="14.00">4</text>
</g>
<!-- 21&#45;&gt;10 -->
<g id="edge52" class="edge">
<title>21&#45;&gt;10</title>
<path fill="none" stroke="black" d="M586.27,-193.34C733.57,-181.57 1439.92,-125.14 1612.96,-111.31"/>
<polygon fill="black" stroke="black" points="1613.05,-114.82 1622.74,-110.53 1612.5,-107.84 1613.05,-114.82"/>
<text xml:space="preserve" text-anchor="middle" x="1207.59" y="-147.2" font-family="Times,serif" font-size="14.00">0</text>
</g>
<!-- 21&#45;&gt;12 -->
<g id="edge135" class="edge">
<title>21&#45;&gt;12</title>
<path fill="none" stroke="black" d="M532.24,-199.72C489.01,-203.79 406.99,-213.79 385.28,-232.5 356.61,-257.2 285.23,-518.43 276.28,-555.2 234.97,-724.92 265.97,-773.64 272.28,-948.2 272.85,-963.88 271.66,-967.98 274.28,-983.45 274.68,-985.79 275.17,-988.19 275.72,-990.59"/>
<polygon fill="black" stroke="black" points="272.29,-991.3 278.24,-1000.07 279.06,-989.51 272.29,-991.3"/>
<text xml:space="preserve" text-anchor="middle" x="269.16" y="-613.15" font-family="Times,serif" font-size="14.00">3</text>
</g>
<!-- 21&#45;&gt;23 -->
<g id="edge93" class="edge">
<title>21&#45;&gt;23</title>
<path fill="none" stroke="black" d="M559.28,-214.88C559.28,-232.49 559.28,-260.51 559.28,-284.75 559.28,-529.58 559.28,-529.58 559.28,-529.58 559.28,-572.4 518.22,-869.67 513.28,-912.2 508.68,-951.85 507.21,-961.73 503.28,-1001.45 487.94,-1156.41 473.28,-1194.81 473.28,-1350.53 473.28,-1595.35 473.28,-1595.35 473.28,-1595.35 473.28,-1614.94 475.3,-1636.89 477.32,-1653.88"/>
<polygon fill="black" stroke="black" points="473.84,-1654.28 478.56,-1663.76 480.78,-1653.4 473.84,-1654.28"/>
<text xml:space="preserve" text-anchor="middle" x="517.78" y="-925.53" font-family="Times,serif" font-size="14.00">1</text>
</g>
<!-- 21&#45;&gt;25 -->
<g id="edge89" class="edge">
<title>21&#45;&gt;25</title>
<path fill="none" stroke="black" d="M579.25,-208.86C601.77,-223.33 635.28,-250.6 635.28,-284.75 635.28,-529.58 635.28,-529.58 635.28,-529.58 635.28,-644.03 712.24,-764.65 748.63,-815.3"/>
<polygon fill="black" stroke="black" points="745.71,-817.24 754.44,-823.25 751.37,-813.11 745.71,-817.24"/>
<text xml:space="preserve" text-anchor="middle" x="639.85" y="-523.9" font-family="Times,serif" font-size="14.00">2</text>
</g>
<!-- 22&#45;&gt;3 -->
<g id="edge98" class="edge">
<title>22&#45;&gt;3</title>
<path fill="none" stroke="black" d="M1773.8,-1324.17C1803.1,-1382.42 1894.58,-1585.15 1833.28,-1736.85 1815.25,-1781.48 1792.63,-1781.21 1760.28,-1816.85 1656.98,-1930.69 1534.01,-2067.3 1485.48,-2121.27"/>
<polygon fill="black" stroke="black" points="1482.92,-2118.88 1478.83,-2128.66 1488.12,-2123.57 1482.92,-2118.88"/>
<text xml:space="preserve" text-anchor="middle" x="1843.68" y="-1723.55" font-family="Times,serif" font-size="14.00">2</text>
</g>
<!-- 22&#45;&gt;11 -->
<g id="edge55" class="edge">
<title>22&#45;&gt;11</title>
<path fill="none" stroke="black" d="M1785.75,-1319.06C1822.59,-1340.83 1896.28,-1392.7 1896.28,-1459.48 1896.28,-1915.73 1896.28,-1915.73 1896.28,-1915.73 1896.28,-1962.81 1893.04,-1977.19 1911.28,-2020.6 1928.55,-2061.7 1972.28,-2055.65 1972.28,-2100.23 1972.28,-2236.1 1972.28,-2236.1 1972.28,-2236.1 1972.28,-2258.4 1961.72,-2281.44 1951.73,-2298.24"/>
<polygon fill="black" stroke="black" points="1948.86,-2296.23 1946.49,-2306.56 1954.78,-2299.96 1948.86,-2296.23"/>
<text xml:space="preserve" text-anchor="middle" x="1900.78" y="-1820.8" font-family="Times,serif" font-size="14.00">1</text>
</g>
<!-- 22&#45;&gt;14 -->
<g id="edge43" class="edge">
<title>22&#45;&gt;14</title>
<path fill="none" stroke="black" d="M1749.43,-1292.06C1663.5,-1217.28 1251.92,-862.04 1102.28,-787.7 1073.34,-773.33 1037.7,-764.2 1011.38,-758.88"/>
<polygon fill="black" stroke="black" points="1012.32,-755.5 1001.84,-757.05 1011,-762.37 1012.32,-755.5"/>
<text xml:space="preserve" text-anchor="middle" x="1448.22" y="-1014.78" font-family="Times,serif" font-size="14.00">0</text>
</g>
<!-- 22&#45;&gt;18 -->
<g id="edge112" class="edge">
<title>22&#45;&gt;18</title>
<path fill="none" stroke="black" d="M1767.07,-1288.47C1767.57,-1282.87 1768.04,-1276.63 1768.28,-1270.9 1769.63,-1239.24 1768.66,-1231.17 1765.28,-1199.65 1746.33,-1023.02 1725.32,-981.09 1702.28,-804.95 1690.94,-718.24 1692.05,-696.11 1682.28,-609.2 1674.13,-536.69 1694.22,-511.85 1662.28,-446.25 1637.76,-395.88 1623.55,-381.73 1573.28,-357 1464.65,-303.57 1085.35,-290.39 962.79,-287.49"/>
<polygon fill="black" stroke="black" points="963.01,-284 952.94,-287.27 962.85,-291 963.01,-284"/>
<text xml:space="preserve" text-anchor="middle" x="1706.78" y="-791.65" font-family="Times,serif" font-size="14.00">3</text>
</g>
<!-- 22&#45;&gt;24 -->
<g id="edge48" class="edge">
<title>22&#45;&gt;24</title>
<path fill="none" stroke="black" d="M1739.05,-1301.98C1645.58,-1288.02 1328.48,-1240.64 1218.9,-1224.27"/>
<polygon fill="black" stroke="black" points="1219.67,-1220.85 1209.27,-1222.83 1218.64,-1227.77 1219.67,-1220.85"/>
<text xml:space="preserve" text-anchor="middle" x="1530.09" y="-1257.6" font-family="Times,serif" font-size="14.00">4</text>
</g>
<!-- 23&#45;&gt;1 -->
<g id="edge47" class="edge">
<title>23&#45;&gt;1</title>
<path fill="none" stroke="black" d="M455.86,-1676.64C434.91,-1671.05 404.92,-1661.47 381.28,-1647.6 373.58,-1643.09 358.42,-1629.61 345.39,-1617.47"/>
<polygon fill="black" stroke="black" points="348.02,-1615.14 338.33,-1610.84 343.22,-1620.24 348.02,-1615.14"/>
<text xml:space="preserve" text-anchor="middle" x="385.78" y="-1634.3" font-family="Times,serif" font-size="14.00">2</text>
</g>
<!-- 23&#45;&gt;4 -->
<g id="edge73" class="edge">
<title>23&#45;&gt;4</title>
<path fill="none" stroke="black" d="M491.11,-1700.57C531.21,-1765.64 680.95,-2007.9 695.28,-2020.6 701.79,-2026.38 719.09,-2034.76 735.22,-2041.87"/>
<polygon fill="black" stroke="black" points="733.56,-2044.97 744.13,-2045.72 736.34,-2038.54 733.56,-2044.97"/>
<text xml:space="preserve" text-anchor="middle" x="611.94" y="-1865.43" font-family="Times,serif" font-size="14.00">1</text>
</g>
<!-- 23&#45;&gt;18 -->
<g id="edge145" class="edge">
<title>23&#45;&gt;18</title>
<path fill="none" stroke="black" d="M490.44,-1666.45C499.27,-1649.35 511.28,-1621.3 511.28,-1595.35 511.28,-1595.35 511.28,-1595.35 511.28,-1350.53 511.28,-1299.4 506.61,-1286.76 505.28,-1235.65 503.6,-1171.25 502.4,-1155.06 505.28,-1090.7 507.06,-1050.91 505.51,-1040.51 513.28,-1001.45 524.6,-944.58 531.28,-931 552.28,-876.95 577.73,-811.43 583.23,-794.04 619.28,-733.7 659.76,-665.94 683.03,-657.88 725.28,-591.2 744.49,-560.88 745.17,-550.93 763.28,-519.95 806.64,-445.78 819.3,-428.27 867.28,-357 878.01,-341.07 880.22,-336.7 892.28,-321.75 895.51,-317.75 899.06,-313.62 902.6,-309.66"/>
<polygon fill="black" stroke="black" points="904.98,-312.24 909.14,-302.5 899.81,-307.52 904.98,-312.24"/>
<text xml:space="preserve" text-anchor="middle" x="525.53" y="-970.15" font-family="Times,serif" font-size="14.00">3</text>
</g>
<!-- 23&#45;&gt;20 -->
<g id="edge96" class="edge">
<title>23&#45;&gt;20</title>
<path fill="none" stroke="black" d="M467.73,-1667.78C454.16,-1651.34 435.28,-1623.44 435.28,-1595.35 435.28,-1595.35 435.28,-1595.35 435.28,-1350.53 435.28,-1194.21 372.3,-1156.49 392.28,-1001.45 412.2,-846.88 471.09,-668.45 494.51,-601.46"/>
<polygon fill="black" stroke="black" points="497.68,-603.01 497.7,-592.41 491.07,-600.68 497.68,-603.01"/>
<text xml:space="preserve" text-anchor="middle" x="403.28" y="-1113.88" font-family="Times,serif" font-size="14.00">4</text>
</g>
<!-- 23&#45;&gt;24 -->
<g id="edge118" class="edge">
<title>23&#45;&gt;24</title>
<path fill="none" stroke="black" d="M504.31,-1673.94C571.76,-1648.96 775.17,-1576.27 950.28,-1541.1 985.79,-1533.97 1084.74,-1546.64 1112.28,-1523.1 1194.16,-1453.12 1190.49,-1308.29 1184.76,-1247.02"/>
<polygon fill="black" stroke="black" points="1188.28,-1247.02 1183.76,-1237.43 1181.31,-1247.74 1188.28,-1247.02"/>
<text xml:space="preserve" text-anchor="middle" x="1166.02" y="-1455.8" font-family="Times,serif" font-size="14.00">0</text>
</g>
<!-- 24&#45;&gt;3 -->
<g id="edge74" class="edge">
<title>24&#45;&gt;3</title>
<path fill="none" stroke="black" d="M1203.25,-1228.33C1222.64,-1237.07 1248.29,-1249.24 1251.28,-1253.65 1282.44,-1299.59 1259.11,-1322.68 1261.28,-1378.15 1270.6,-1616.28 1235.28,-1675.41 1235.28,-1913.73 1235.28,-2057.6 1235.28,-2057.6 1235.28,-2057.6 1235.28,-2098.14 1362.17,-2126.67 1427.04,-2138.61"/>
<polygon fill="black" stroke="black" points="1426.06,-2141.99 1436.52,-2140.31 1427.3,-2135.1 1426.06,-2141.99"/>
<text xml:space="preserve" text-anchor="middle" x="1254.18" y="-1678.93" font-family="Times,serif" font-size="14.00">4</text>
</g>
<!-- 24&#45;&gt;7 -->
<g id="edge23" class="edge">
<title>24&#45;&gt;7</title>
<path fill="none" stroke="black" d="M1162.92,-1204.08C1155.81,-1198.16 1148.4,-1190.46 1144.28,-1181.65 1088.67,-1062.61 1126.28,-1017.96 1126.28,-886.58 1126.28,-886.58 1126.28,-886.58 1126.28,-750.7 1126.28,-722.05 1102.9,-697.72 1082.78,-682.09"/>
<polygon fill="black" stroke="black" points="1084.93,-679.32 1074.8,-676.23 1080.79,-684.97 1084.93,-679.32"/>
<text xml:space="preserve" text-anchor="middle" x="1130.22" y="-925.53" font-family="Times,serif" font-size="14.00">1</text>
</g>
<!-- 24&#45;&gt;15 -->
<g id="edge50" class="edge">
<title>24&#45;&gt;15</title>
<path fill="none" stroke="black" d="M1206.56,-1210.75C1248.6,-1200.97 1335.56,-1180.84 1409.28,-1164.4 1468,-1151.31 1536.22,-1136.63 1577.81,-1127.74"/>
<polygon fill="black" stroke="black" points="1578.27,-1131.22 1587.32,-1125.71 1576.81,-1124.38 1578.27,-1131.22"/>
<text xml:space="preserve" text-anchor="middle" x="1413.78" y="-1168.35" font-family="Times,serif" font-size="14.00">2</text>
</g>
<!-- 24&#45;&gt;28 -->
<g id="edge9" class="edge">
<title>24&#45;&gt;28</title>
<path fill="none" stroke="black" d="M1156.66,-1225.76C1142.41,-1231.14 1125.37,-1239.98 1115.28,-1253.65 1089.61,-1288.44 1080.37,-1417.41 1077.46,-1475.46"/>
<polygon fill="black" stroke="black" points="1073.98,-1475.05 1077,-1485.2 1080.97,-1475.37 1073.98,-1475.05"/>
<text xml:space="preserve" text-anchor="middle" x="1094.15" y="-1346.85" font-family="Times,serif" font-size="14.00">0</text>
</g>
<!-- 24&#45;&gt;29 -->
<g id="edge143" class="edge">
<title>24&#45;&gt;29</title>
<path fill="none" stroke="black" d="M1191.85,-1234.36C1195.19,-1240.17 1198.48,-1246.97 1200.28,-1253.65 1221.13,-1331.13 1202.73,-1354.75 1189.28,-1433.85 1154.74,-1637.01 1071.43,-2147.87 1003.28,-2342.35 997.46,-2358.95 997.81,-2365.25 985.28,-2377.6 975.04,-2387.7 961.3,-2395.4 948.63,-2400.96"/>
<polygon fill="black" stroke="black" points="947.7,-2397.56 939.75,-2404.57 950.34,-2404.05 947.7,-2397.56"/>
<text xml:space="preserve" text-anchor="middle" x="1127.22" y="-1820.8" font-family="Times,serif" font-size="14.00">3</text>
</g>
<!-- 25&#45;&gt;14 -->
<g id="edge151" class="edge">
<title>25&#45;&gt;14</title>
<path fill="none" stroke="black" d="M788.51,-829.68C811.26,-818.8 848.52,-801.35 881.28,-787.7 900.57,-779.66 922.44,-771.39 940.11,-764.91"/>
<polygon fill="black" stroke="black" points="941.17,-768.25 949.37,-761.54 938.77,-761.67 941.17,-768.25"/>
<text xml:space="preserve" text-anchor="middle" x="885.78" y="-791.65" font-family="Times,serif" font-size="14.00">4</text>
</g>
<!-- 25&#45;&gt;15 -->
<g id="edge101" class="edge">
<title>25&#45;&gt;15</title>
<path fill="none" stroke="black" d="M793.99,-844.71C855.89,-851.59 1013.46,-871.93 1139.28,-912.2 1202.47,-932.43 1349.22,-1011.5 1410.28,-1037.45 1468.83,-1062.34 1537.95,-1088.59 1579.39,-1103.99"/>
<polygon fill="black" stroke="black" points="1578.04,-1107.23 1588.64,-1107.42 1580.48,-1100.67 1578.04,-1107.23"/>
<text xml:space="preserve" text-anchor="middle" x="1301.7" y="-970.15" font-family="Times,serif" font-size="14.00">0</text>
</g>
<!-- 25&#45;&gt;16 -->
<g id="edge133" class="edge">
<title>25&#45;&gt;16</title>
<path fill="none" stroke="black" d="M743.73,-831.61C682.42,-809.63 519.42,-749.53 473.28,-715.7 303.26,-591.05 195.28,-542.19 195.28,-331.38 195.28,-331.38 195.28,-331.38 195.28,-106.25 195.28,-93.75 241.78,-69.42 304.28,-54 409.22,-28.11 741.4,-21.12 854.86,-19.46"/>
<polygon fill="black" stroke="black" points="854.6,-22.97 864.55,-19.33 854.5,-15.97 854.6,-22.97"/>
<text xml:space="preserve" text-anchor="middle" x="209.34" y="-414.95" font-family="Times,serif" font-size="14.00">1</text>
</g>
<!-- 25&#45;&gt;21 -->
<g id="edge58" class="edge">
<title>25&#45;&gt;21</title>
<path fill="none" stroke="black" d="M750.48,-826.83C742.99,-820.59 734.29,-812.79 727.28,-804.95 637.07,-704.06 597.28,-664.92 597.28,-529.58 597.28,-529.58 597.28,-529.58 597.28,-284.75 597.28,-262.45 586.72,-239.41 576.73,-222.61"/>
<polygon fill="black" stroke="black" points="579.78,-220.89 571.49,-214.3 573.86,-224.62 579.78,-220.89"/>
<text xml:space="preserve" text-anchor="middle" x="601.8" y="-523.9" font-family="Times,serif" font-size="14.00">3</text>
</g>
<!-- 25&#45;&gt;29 -->
<g id="edge140" class="edge">
<title>25&#45;&gt;29</title>
<path fill="none" stroke="black" d="M748.93,-854.33C702.84,-886.68 582.63,-978.98 537.28,-1090.7 531.83,-1104.13 525.03,-1597.88 524.28,-1612.35 522.23,-1652.09 528.43,-1663.41 517.28,-1701.6 473.6,-1851.19 352.28,-1855.14 352.28,-2010.98 352.28,-2325.35 352.28,-2325.35 352.28,-2325.35 352.28,-2378.27 408.21,-2363.71 459.28,-2377.6 537.36,-2398.83 780.52,-2408.47 875.61,-2411.49"/>
<polygon fill="black" stroke="black" points="875.36,-2414.99 885.46,-2411.8 875.57,-2407.99 875.36,-2414.99"/>
<text xml:space="preserve" text-anchor="middle" x="528.59" y="-1634.3" font-family="Times,serif" font-size="14.00">2</text>
</g>
<!-- 26&#45;&gt;8 -->
<g id="edge37" class="edge">
<title>26&#45;&gt;8</title>
<path fill="none" stroke="black" d="M1954.16,-453.45C1968.06,-439.94 1987.99,-422.44 2008.28,-411 2029.75,-398.9 2056.06,-390.14 2076.97,-384.41"/>
<polygon fill="black" stroke="black" points="2077.71,-387.83 2086.51,-381.92 2075.95,-381.06 2077.71,-387.83"/>
<text xml:space="preserve" text-anchor="middle" x="2012.78" y="-414.95" font-family="Times,serif" font-size="14.00">0</text>
</g>
<!-- 26&#45;&gt;8 -->
<g id="edge44" class="edge">
<title>26&#45;&gt;8</title>
<path fill="none" stroke="black" d="M1960.21,-460.65C1976.74,-452.11 1998.72,-440.2 2017.28,-428.25 2028.02,-421.33 2029.36,-417.63 2040.28,-411 2052.95,-403.31 2067.58,-396.02 2080.39,-390.1"/>
<polygon fill="black" stroke="black" points="2081.59,-393.4 2089.26,-386.09 2078.71,-387.02 2081.59,-393.4"/>
<text xml:space="preserve" text-anchor="middle" x="2044.78" y="-414.95" font-family="Times,serif" font-size="14.00">4</text>
</g>
<!-- 26&#45;&gt;15 -->
<g id="edge99" class="edge">
<title>26&#45;&gt;15</title>
<path fill="none" stroke="black" d="M1915.18,-493.8C1858.98,-548.23 1704.28,-713.58 1704.28,-884.58 1704.28,-1020.45 1704.28,-1020.45 1704.28,-1020.45 1704.28,-1054.19 1674.74,-1081.43 1649.89,-1098.37"/>
<polygon fill="black" stroke="black" points="1648.09,-1095.37 1641.6,-1103.74 1651.89,-1101.25 1648.09,-1095.37"/>
<text xml:space="preserve" text-anchor="middle" x="1723.28" y="-791.65" font-family="Times,serif" font-size="14.00">3</text>
</g>
<!-- 26&#45;&gt;25 -->
<g id="edge103" class="edge">
<title>26&#45;&gt;25</title>
<path fill="none" stroke="black" d="M1908.6,-483.08C1858.39,-499.3 1748.91,-540.51 1682.28,-609.2 1625.94,-667.29 1663.9,-725.23 1596.28,-769.7 1529.61,-813.55 960.27,-834.04 805.81,-838.83"/>
<polygon fill="black" stroke="black" points="806,-835.32 796.11,-839.12 806.21,-842.32 806,-835.32"/>
<text xml:space="preserve" text-anchor="middle" x="1662.23" y="-657.78" font-family="Times,serif" font-size="14.00">1</text>
</g>
<!-- 26&#45;&gt;26 -->
<g id="edge144" class="edge">
<title>26&#45;&gt;26</title>
<path fill="none" stroke="black" d="M1961.67,-484.25C1972.25,-484.83 1981.13,-481.44 1981.13,-474.1 1981.13,-469.63 1977.83,-466.62 1972.86,-465.09"/>
<polygon fill="black" stroke="black" points="1973.47,-461.63 1963.17,-464.1 1972.77,-468.6 1973.47,-461.63"/>
<text xml:space="preserve" text-anchor="middle" x="1985.63" y="-469.43" font-family="Times,serif" font-size="14.00">2</text>
</g>
<!-- 27&#45;&gt;10 -->
<g id="edge116" class="edge">
<title>27&#45;&gt;10</title>
<path fill="none" stroke="black" d="M1010.22,-463.79C1064.88,-443.8 1195.32,-394.09 1298.28,-339 1426.13,-270.59 1567.43,-169.93 1624.85,-127.86"/>
<polygon fill="black" stroke="black" points="1626.76,-130.8 1632.74,-122.06 1622.61,-125.16 1626.76,-130.8"/>
<text xml:space="preserve" text-anchor="middle" x="1423.33" y="-281.07" font-family="Times,serif" font-size="14.00">3</text>
</g>
<!-- 27&#45;&gt;17 -->
<g id="edge64" class="edge">
<title>27&#45;&gt;17</title>
<path fill="none" stroke="black" d="M1012.41,-471.91C1092.47,-468.22 1320.3,-455.56 1389.28,-428.25 1401.16,-423.55 1400.82,-416.65 1412.28,-411 1414.36,-409.97 1465.65,-395.74 1501.87,-385.75"/>
<polygon fill="black" stroke="black" points="1502.39,-389.23 1511.1,-383.2 1500.53,-382.48 1502.39,-389.23"/>
<text xml:space="preserve" text-anchor="middle" x="1416.78" y="-414.95" font-family="Times,serif" font-size="14.00">0</text>
</g>
<!-- 27&#45;&gt;18 -->
<g id="edge67" class="edge">
<title>27&#45;&gt;18</title>
<path fill="none" stroke="black" d="M981.95,-445.86C980.94,-435 979.67,-422.4 978.28,-411 975.33,-386.92 977.67,-380.11 970.28,-357 964.92,-340.25 961.82,-336.53 952.28,-321.75 949.95,-318.14 947.32,-314.46 944.63,-310.9"/>
<polygon fill="black" stroke="black" points="947.42,-308.78 938.47,-303.11 941.93,-313.13 947.42,-308.78"/>
<text xml:space="preserve" text-anchor="middle" x="981.11" y="-370.32" font-family="Times,serif" font-size="14.00">4</text>
</g>
<!-- 27&#45;&gt;19 -->
<g id="edge138" class="edge">
<title>27&#45;&gt;19</title>
<path fill="none" stroke="black" d="M1012.26,-476.25C1102.47,-480.18 1381.53,-494.35 1412.28,-519.95 1488.39,-583.32 1452.27,-637.37 1475.28,-733.7 1507.17,-867.22 1500.93,-903.57 1531.28,-1037.45 1555.04,-1142.26 1565.01,-1167.5 1594.28,-1270.9 1601.1,-1294.99 1597.68,-1303.28 1610.28,-1324.9 1621.24,-1343.71 1627.4,-1346.41 1644.28,-1360.15 1655.67,-1369.43 1669.1,-1378.35 1681.19,-1385.76"/>
<polygon fill="black" stroke="black" points="1679.29,-1388.7 1689.66,-1390.83 1682.88,-1382.69 1679.29,-1388.7"/>
<text xml:space="preserve" text-anchor="middle" x="1517.93" y="-925.53" font-family="Times,serif" font-size="14.00">2</text>
</g>
<!-- 27&#45;&gt;25 -->
<g id="edge87" class="edge">
<title>27&#45;&gt;25</title>
<path fill="none" stroke="black" d="M970.52,-498.24C931.93,-563.13 822.88,-746.47 782.54,-814.3"/>
<polygon fill="black" stroke="black" points="779.76,-812.12 777.66,-822.5 785.78,-815.7 779.76,-812.12"/>
<text xml:space="preserve" text-anchor="middle" x="887.93" y="-657.78" font-family="Times,serif" font-size="14.00">1</text>
</g>
<!-- 28&#45;&gt;8 -->
<g id="edge31" class="edge">
<title>28&#45;&gt;8</title>
<path fill="none" stroke="black" d="M1103.41,-1502.54C1222.38,-1495.5 1694.59,-1465.77 1752.28,-1433.85 1779.89,-1418.58 1773.28,-1399.75 1796.28,-1378.15 1806.53,-1368.53 1813.81,-1371.37 1822.28,-1360.15 1832.25,-1346.94 1831.58,-1341.23 1834.28,-1324.9 1862.22,-1156.14 1775.52,-718.86 1825.28,-555.2 1842.24,-499.43 1853.45,-483.5 1898.28,-446.25 1928.79,-420.9 1942.77,-423.92 1980.28,-411 2012.48,-399.91 2050.08,-390.31 2077.07,-383.99"/>
<polygon fill="black" stroke="black" points="2077.51,-387.48 2086.47,-381.82 2075.94,-380.66 2077.51,-387.48"/>
<text xml:space="preserve" text-anchor="middle" x="1826.83" y="-925.53" font-family="Times,serif" font-size="14.00">0</text>
</g>
<!-- 28&#45;&gt;19 -->
<g id="edge14" class="edge">
<title>28&#45;&gt;19</title>
<path fill="none" stroke="black" d="M1102.52,-1500.11C1202.2,-1484.97 1557.68,-1430.95 1676.38,-1412.91"/>
<polygon fill="black" stroke="black" points="1676.89,-1416.37 1686.25,-1411.41 1675.84,-1409.45 1676.89,-1416.37"/>
<text xml:space="preserve" text-anchor="middle" x="1419.44" y="-1455.8" font-family="Times,serif" font-size="14.00">1</text>
</g>
<!-- 28&#45;&gt;21 -->
<g id="edge2" class="edge">
<title>28&#45;&gt;21</title>
<path fill="none" stroke="black" d="M1063.25,-1489.02C1058.14,-1482.94 1052.31,-1475.79 1047.28,-1469.1 792.69,-1130.3 722.94,-1047.61 511.28,-680.45 489.29,-642.3 479.59,-633.75 468.28,-591.2 431.35,-452.24 413.85,-403.13 462.28,-267.75 468.66,-249.9 471.91,-244.86 486.28,-232.5 497.52,-222.84 511.89,-215.2 524.9,-209.55"/>
<polygon fill="black" stroke="black" points="526.07,-212.85 534.01,-205.85 523.43,-206.37 526.07,-212.85"/>
<text xml:space="preserve" text-anchor="middle" x="620.35" y="-836.28" font-family="Times,serif" font-size="14.00">2</text>
</g>
<!-- 28&#45;&gt;21 -->
<g id="edge141" class="edge">
<title>28&#45;&gt;21</title>
<path fill="none" stroke="black" d="M1053.19,-1495.16C998.07,-1472.97 856.46,-1410.9 763.28,-1324.9 724.06,-1288.7 496.58,-991.43 465.28,-948.2 437.39,-909.69 420.73,-904.25 406.28,-858.95 326.23,-608.06 343.78,-510.34 446.28,-267.75 453.29,-251.16 452.59,-244.2 466.28,-232.5 482.24,-218.85 504.05,-210.27 522.54,-205.02"/>
<polygon fill="black" stroke="black" points="523.27,-208.45 532.08,-202.55 521.52,-201.67 523.27,-208.45"/>
<text xml:space="preserve" text-anchor="middle" x="410.78" y="-836.28" font-family="Times,serif" font-size="14.00">4</text>
</g>
<!-- 28&#45;&gt;24 -->
<g id="edge88" class="edge">
<title>28&#45;&gt;24</title>
<path fill="none" stroke="black" d="M1084.23,-1487.5C1086.9,-1481.72 1089.82,-1475.17 1092.28,-1469.1 1124.64,-1389.27 1157.13,-1292.69 1172.36,-1246.24"/>
<polygon fill="black" stroke="black" points="1175.6,-1247.58 1175.37,-1236.99 1168.94,-1245.41 1175.6,-1247.58"/>
<text xml:space="preserve" text-anchor="middle" x="1143.78" y="-1346.85" font-family="Times,serif" font-size="14.00">3</text>
</g>
<!-- 29&#45;&gt;11 -->
<g id="edge80" class="edge">
<title>29&#45;&gt;11</title>
<path fill="none" stroke="black" d="M941.3,-2410.29C1082.14,-2398.24 1731.9,-2342.66 1896.37,-2328.59"/>
<polygon fill="black" stroke="black" points="1896.19,-2332.12 1905.85,-2327.78 1895.59,-2325.15 1896.19,-2332.12"/>
<text xml:space="preserve" text-anchor="middle" x="1520.14" y="-2364.3" font-family="Times,serif" font-size="14.00">2</text>
</g>
<!-- 29&#45;&gt;17 -->
<g id="edge124" class="edge">
<title>29&#45;&gt;17</title>
<path fill="none" stroke="black" d="M941.08,-2409.66C1035.61,-2397.84 1356.95,-2345.4 1527.28,-2163.85 1609.44,-2076.28 1684.6,-1998.8 1608.28,-1906.1 1581.8,-1873.94 1544.03,-1919.18 1516.28,-1888.1 1440.56,-1803.3 1506.49,-1487.47 1475.28,-1378.15 1463.03,-1335.24 1451.08,-1327.84 1429.28,-1288.9 1402.05,-1240.27 1379.28,-1235.33 1364.28,-1181.65 1362.22,-1174.27 1360.45,-1171.05 1364.28,-1164.4 1372.23,-1150.59 1384.14,-1157.79 1395.28,-1146.4 1433.92,-1106.87 1440.45,-1090.7 1455.28,-1037.45 1473.28,-972.8 1461.28,-953.68 1461.28,-886.58 1461.28,-886.58 1461.28,-886.58 1461.28,-706.08 1461.28,-591.1 1505.62,-459.2 1526.56,-403.3"/>
<polygon fill="black" stroke="black" points="1529.71,-404.87 1530,-394.28 1523.17,-402.38 1529.71,-404.87"/>
<text xml:space="preserve" text-anchor="middle" x="1487.76" y="-1401.33" font-family="Times,serif" font-size="14.00">3</text>
</g>
<!-- 29&#45;&gt;24 -->
<g id="edge17" class="edge">
<title>29&#45;&gt;24</title>
<path fill="none" stroke="black" d="M914.28,-2395.22C914.28,-2377.61 914.28,-2349.59 914.28,-2325.35 914.28,-2325.35 914.28,-2325.35 914.28,-1593.35 914.28,-1437.28 986.35,-1406.22 1089.28,-1288.9 1107.45,-1268.19 1132.55,-1249.51 1151.94,-1236.63"/>
<polygon fill="black" stroke="black" points="1153.73,-1239.64 1160.22,-1231.27 1149.92,-1233.77 1153.73,-1239.64"/>
<text xml:space="preserve" text-anchor="middle" x="918.78" y="-1820.8" font-family="Times,serif" font-size="14.00">1</text>
</g>
<!-- 29&#45;&gt;27 -->
<g id="edge45" class="edge">
<title>29&#45;&gt;27</title>
<path fill="none" stroke="black" d="M887.03,-2413.04C790.88,-2413.85 473.28,-2410.13 473.28,-2325.35 473.28,-2325.35 473.28,-2325.35 473.28,-2010.98 473.28,-1803.64 560.98,-1764.14 586.28,-1558.35 611.65,-1351.95 538.34,-1296.03 571.28,-1090.7 591.28,-966.03 600.22,-930.56 666.28,-822.95 750.53,-685.7 893.2,-553.88 954.66,-500.27"/>
<polygon fill="black" stroke="black" points="956.72,-503.12 961.98,-493.93 952.13,-497.83 956.72,-503.12"/>
<text xml:space="preserve" text-anchor="middle" x="596.22" y="-1455.8" font-family="Times,serif" font-size="14.00">0</text>
</g>
<!-- 29&#45;&gt;28 -->
<g id="edge121" class="edge">
<title>29&#45;&gt;28</title>
<path fill="none" stroke="black" d="M934.25,-2401.24C956.77,-2386.77 990.28,-2359.5 990.28,-2325.35 990.28,-2325.35 990.28,-2325.35 990.28,-1913.73 990.28,-1767.72 1043.76,-1598.5 1066.37,-1533.48"/>
<polygon fill="black" stroke="black" points="1069.57,-1534.94 1069.59,-1524.35 1062.97,-1532.61 1069.57,-1534.94"/>
<text xml:space="preserve" text-anchor="middle" x="994.78" y="-1958.68" font-family="Times,serif" font-size="14.00">4</text>
</g>
</g>
</svg>
