<?xml version="1.0" encoding="UTF-8" standalone="no"?>
<!DOCTYPE svg PUBLIC "-//W3C//DTD SVG 1.1//EN"
 "http://www.w3.org/Graphics/SVG/1.1/DTD/svg11.dtd">
<!-- Generated by graphviz version 2.49.0 (20210829.0051)
 -->
<!-- Pages: 1 -->
<svg width="294pt" height="489pt"
 viewBox="0.00 0.00 294.29 489.00" xmlns="http://www.w3.org/2000/svg" xmlns:xlink="http://www.w3.org/1999/xlink">
<g id="graph0" class="graph" transform="scale(1 1) rotate(0) translate(4 485)">
<polygon fill="white" stroke="transparent" points="-4,4 -4,-485 290.29,-485 290.29,4 -4,4"/>
<!-- fake -->
<g id="node1" class="node">
<title>fake</title>
</g>
<!-- 0 -->
<g id="node2" class="node">
<title>0</title>
<ellipse fill="none" stroke="black" cx="148.29" cy="-386" rx="18" ry="18"/>
<ellipse fill="none" stroke="black" cx="148.29" cy="-386" rx="22" ry="22"/>
<text text-anchor="middle" x="148.29" y="-382.3" font-family="Times,serif" font-size="14.00">0</text>
</g>
<!-- fake&#45;&gt;0 -->
<g id="edge1" class="edge">
<title>fake&#45;&gt;0</title>
<path fill="none" stroke="black" stroke-width="2" d="M148.29,-444.98C148.29,-437.15 148.29,-427.61 148.29,-418.54"/>
<polygon fill="black" stroke="black" stroke-width="2" points="151.79,-418.24 148.29,-408.24 144.79,-418.24 151.79,-418.24"/>
</g>
<!-- 1 -->
<g id="node3" class="node">
<title>1</title>
<ellipse fill="none" stroke="black" cx="97.29" cy="-291" rx="18" ry="18"/>
<ellipse fill="none" stroke="black" cx="97.29" cy="-291" rx="22" ry="22"/>
<text text-anchor="middle" x="97.29" y="-287.3" font-family="Times,serif" font-size="14.00">1</text>
</g>
<!-- 0&#45;&gt;1 -->
<g id="edge13" class="edge">
<title>0&#45;&gt;1</title>
<path fill="none" stroke="black" d="M126.79,-381.23C107.48,-376.59 80.24,-366.62 67.29,-346 60.71,-335.54 66.13,-323.56 74.08,-313.54"/>
<polygon fill="black" stroke="black" points="76.76,-315.79 80.81,-306 71.54,-311.13 76.76,-315.79"/>
<text text-anchor="middle" x="72.29" y="-334.8" font-family="Times,serif" font-size="14.00">1</text>
</g>
<!-- 0&#45;&gt;1 -->
<g id="edge20" class="edge">
<title>0&#45;&gt;1</title>
<path fill="none" stroke="black" d="M128.97,-374.68C118.53,-367.99 106.53,-358.24 100.29,-346 96.76,-339.1 95.2,-331.04 94.7,-323.28"/>
<polygon fill="black" stroke="black" points="98.2,-322.99 94.59,-313.03 91.2,-323.07 98.2,-322.99"/>
<text text-anchor="middle" x="105.29" y="-334.8" font-family="Times,serif" font-size="14.00">2</text>
</g>
<!-- 0&#45;&gt;1 -->
<g id="edge21" class="edge">
<title>0&#45;&gt;1</title>
<path fill="none" stroke="black" d="M137.97,-366.18C130.64,-352.82 120.68,-334.66 112.45,-319.66"/>
<polygon fill="black" stroke="black" points="115.47,-317.88 107.59,-310.79 109.33,-321.24 115.47,-317.88"/>
<text text-anchor="middle" x="130.29" y="-334.8" font-family="Times,serif" font-size="14.00">0</text>
</g>
<!-- 0&#45;&gt;1 -->
<g id="edge22" class="edge">
<title>0&#45;&gt;1</title>
<path fill="none" stroke="black" d="M147.94,-363.98C147.01,-353.54 144.69,-341.04 139.29,-331 135.24,-323.48 129.19,-316.63 122.93,-310.83"/>
<polygon fill="black" stroke="black" points="124.91,-307.91 115.03,-304.08 120.36,-313.24 124.91,-307.91"/>
<text text-anchor="middle" x="149.29" y="-334.8" font-family="Times,serif" font-size="14.00">4</text>
</g>
<!-- 4 -->
<g id="node6" class="node">
<title>4</title>
<ellipse fill="none" stroke="black" cx="164.29" cy="-113" rx="27" ry="18"/>
<text text-anchor="middle" x="164.29" y="-109.3" font-family="Times,serif" font-size="14.00">4</text>
</g>
<!-- 0&#45;&gt;4 -->
<g id="edge8" class="edge">
<title>0&#45;&gt;4</title>
<path fill="none" stroke="black" d="M168.59,-377.34C181.94,-371.1 198.36,-360.89 206.29,-346 247.45,-268.72 243.42,-228.29 206.29,-149 203.2,-142.42 198.2,-136.64 192.71,-131.78"/>
<polygon fill="black" stroke="black" points="194.51,-128.74 184.48,-125.31 190.19,-134.24 194.51,-128.74"/>
<text text-anchor="middle" x="240.29" y="-239.8" font-family="Times,serif" font-size="14.00">3</text>
</g>
<!-- 1&#45;&gt;1 -->
<g id="edge17" class="edge">
<title>1&#45;&gt;1</title>
<path fill="none" stroke="black" d="M117.87,-299.37C128.13,-300.53 137.29,-297.74 137.29,-291 137.29,-286.68 133.53,-283.99 128.13,-282.91"/>
<polygon fill="black" stroke="black" points="127.96,-279.41 117.87,-282.63 127.77,-286.4 127.96,-279.41"/>
<text text-anchor="middle" x="142.29" y="-287.3" font-family="Times,serif" font-size="14.00">1</text>
</g>
<!-- 2 -->
<g id="node4" class="node">
<title>2</title>
<ellipse fill="none" stroke="black" cx="69.29" cy="-200" rx="27" ry="18"/>
<text text-anchor="middle" x="69.29" y="-196.3" font-family="Times,serif" font-size="14.00">2</text>
</g>
<!-- 1&#45;&gt;2 -->
<g id="edge2" class="edge">
<title>1&#45;&gt;2</title>
<path fill="none" stroke="black" d="M76.22,-283.82C60.75,-278.05 40.85,-267.76 31.29,-251 24.96,-239.91 32.38,-228.5 42.29,-219.38"/>
<polygon fill="black" stroke="black" points="44.66,-221.96 50.16,-212.9 40.22,-216.55 44.66,-221.96"/>
<text text-anchor="middle" x="36.29" y="-239.8" font-family="Times,serif" font-size="14.00">3</text>
</g>
<!-- 1&#45;&gt;2 -->
<g id="edge15" class="edge">
<title>1&#45;&gt;2</title>
<path fill="none" stroke="black" d="M81.6,-275.18C75.59,-268.45 69.42,-259.98 66.29,-251 63.79,-243.86 63.34,-235.79 63.83,-228.26"/>
<polygon fill="black" stroke="black" points="67.33,-228.46 65.03,-218.12 60.38,-227.64 67.33,-228.46"/>
<text text-anchor="middle" x="71.29" y="-239.8" font-family="Times,serif" font-size="14.00">0</text>
</g>
<!-- 3 -->
<g id="node5" class="node">
<title>3</title>
<ellipse fill="none" stroke="black" cx="113.29" cy="-22" rx="18" ry="18"/>
<ellipse fill="none" stroke="black" cx="113.29" cy="-22" rx="22" ry="22"/>
<text text-anchor="middle" x="113.29" y="-18.3" font-family="Times,serif" font-size="14.00">3</text>
</g>
<!-- 1&#45;&gt;3 -->
<g id="edge9" class="edge">
<title>1&#45;&gt;3</title>
<path fill="none" stroke="black" d="M77.24,-281.6C58.27,-273.25 31.76,-260.35 25.29,-251 -14.33,-193.8 2.09,-163.82 12.29,-95 14.53,-79.84 12.06,-73.42 22.29,-62 37.71,-44.77 62.06,-34.88 81.69,-29.37"/>
<polygon fill="black" stroke="black" points="82.63,-32.74 91.45,-26.87 80.9,-25.96 82.63,-32.74"/>
<text text-anchor="middle" x="8.29" y="-152.8" font-family="Times,serif" font-size="14.00">4</text>
</g>
<!-- 1&#45;&gt;4 -->
<g id="edge24" class="edge">
<title>1&#45;&gt;4</title>
<path fill="none" stroke="black" d="M106.53,-270.68C109.42,-264.44 112.57,-257.46 115.29,-251 131.29,-212.87 134.65,-203.04 148.29,-164 150.96,-156.34 153.71,-147.97 156.16,-140.3"/>
<polygon fill="black" stroke="black" points="159.5,-141.33 159.17,-130.74 152.83,-139.22 159.5,-141.33"/>
<text text-anchor="middle" x="146.29" y="-196.3" font-family="Times,serif" font-size="14.00">2</text>
</g>
<!-- 2&#45;&gt;0 -->
<g id="edge4" class="edge">
<title>2&#45;&gt;0</title>
<path fill="none" stroke="black" d="M48.61,-211.8C39.7,-217.66 30.2,-225.8 25.29,-236 3,-282.21 25.19,-308.58 60.29,-346 75.33,-362.04 98.17,-371.9 116.81,-377.69"/>
<polygon fill="black" stroke="black" points="116.08,-381.12 126.66,-380.5 118,-374.39 116.08,-381.12"/>
<text text-anchor="middle" x="37.29" y="-287.3" font-family="Times,serif" font-size="14.00">2</text>
</g>
<!-- 2&#45;&gt;1 -->
<g id="edge11" class="edge">
<title>2&#45;&gt;1</title>
<path fill="none" stroke="black" d="M74.58,-217.83C78.32,-229.71 83.43,-245.97 87.86,-260.04"/>
<polygon fill="black" stroke="black" points="84.59,-261.32 90.93,-269.8 91.27,-259.22 84.59,-261.32"/>
<text text-anchor="middle" x="89.29" y="-239.8" font-family="Times,serif" font-size="14.00">3</text>
</g>
<!-- 2&#45;&gt;1 -->
<g id="edge23" class="edge">
<title>2&#45;&gt;1</title>
<path fill="none" stroke="black" d="M84.57,-214.86C89.99,-220.78 95.45,-228.13 98.29,-236 100.89,-243.22 101.72,-251.34 101.66,-259.04"/>
<polygon fill="black" stroke="black" points="98.15,-259 101.09,-269.18 105.14,-259.39 98.15,-259"/>
<text text-anchor="middle" x="106.29" y="-239.8" font-family="Times,serif" font-size="14.00">0</text>
</g>
<!-- 2&#45;&gt;3 -->
<g id="edge3" class="edge">
<title>2&#45;&gt;3</title>
<path fill="none" stroke="black" d="M54.75,-184.69C48.95,-178.6 42.45,-171.24 37.29,-164 18.87,-138.21 11.45,-125.71 19.29,-95 23.41,-78.81 25.32,-73.66 37.29,-62 50.18,-49.43 67.93,-40.01 83.04,-33.58"/>
<polygon fill="black" stroke="black" points="84.53,-36.76 92.51,-29.79 81.93,-30.26 84.53,-36.76"/>
<text text-anchor="middle" x="24.29" y="-109.3" font-family="Times,serif" font-size="14.00">4</text>
</g>
<!-- 2&#45;&gt;4 -->
<g id="edge12" class="edge">
<title>2&#45;&gt;4</title>
<path fill="none" stroke="black" d="M80.36,-183.05C88.04,-172.65 98.9,-159.18 110.29,-149 117.89,-142.2 126.94,-135.8 135.43,-130.38"/>
<polygon fill="black" stroke="black" points="137.32,-133.33 144,-125.11 133.65,-127.37 137.32,-133.33"/>
<text text-anchor="middle" x="115.29" y="-152.8" font-family="Times,serif" font-size="14.00">1</text>
</g>
<!-- 3&#45;&gt;0 -->
<g id="edge10" class="edge">
<title>3&#45;&gt;0</title>
<path fill="none" stroke="black" d="M135.27,-24.88C179.76,-30.02 276.29,-48.48 276.29,-112 276.29,-292 276.29,-292 276.29,-292 276.29,-339.58 217.69,-365.35 179.78,-377.04"/>
<polygon fill="black" stroke="black" points="178.33,-373.82 169.71,-379.97 180.29,-380.54 178.33,-373.82"/>
<text text-anchor="middle" x="281.29" y="-196.3" font-family="Times,serif" font-size="14.00">3</text>
</g>
<!-- 3&#45;&gt;2 -->
<g id="edge5" class="edge">
<title>3&#45;&gt;2</title>
<path fill="none" stroke="black" d="M98.51,-38.31C86.58,-51.92 70.89,-73.02 65.29,-95 58.75,-120.61 60.99,-150.91 64.11,-172.18"/>
<polygon fill="black" stroke="black" points="60.67,-172.81 65.73,-182.12 67.58,-171.69 60.67,-172.81"/>
<text text-anchor="middle" x="70.29" y="-109.3" font-family="Times,serif" font-size="14.00">4</text>
</g>
<!-- 3&#45;&gt;2 -->
<g id="edge7" class="edge">
<title>3&#45;&gt;2</title>
<path fill="none" stroke="black" d="M108.14,-43.59C100.17,-75.45 84.86,-136.7 76.02,-172.05"/>
<polygon fill="black" stroke="black" points="72.53,-171.57 73.5,-182.12 79.33,-173.27 72.53,-171.57"/>
<text text-anchor="middle" x="99.29" y="-109.3" font-family="Times,serif" font-size="14.00">0</text>
</g>
<!-- 3&#45;&gt;4 -->
<g id="edge6" class="edge">
<title>3&#45;&gt;4</title>
<path fill="none" stroke="black" d="M134,-30.13C148.13,-36.2 165.77,-46.45 174.29,-62 178.29,-69.32 177.99,-78.02 176.02,-86.1"/>
<polygon fill="black" stroke="black" points="172.61,-85.25 172.82,-95.85 179.26,-87.44 172.61,-85.25"/>
<text text-anchor="middle" x="182.29" y="-65.8" font-family="Times,serif" font-size="14.00">1</text>
</g>
<!-- 3&#45;&gt;4 -->
<g id="edge14" class="edge">
<title>3&#45;&gt;4</title>
<path fill="none" stroke="black" d="M117.9,-43.65C120.79,-54.11 125.15,-66.74 131.29,-77 134.18,-81.84 137.84,-86.56 141.66,-90.89"/>
<polygon fill="black" stroke="black" points="139.17,-93.34 148.59,-98.19 144.25,-88.53 139.17,-93.34"/>
<text text-anchor="middle" x="136.29" y="-65.8" font-family="Times,serif" font-size="14.00">2</text>
</g>
<!-- 4&#45;&gt;0 -->
<g id="edge25" class="edge">
<title>4&#45;&gt;0</title>
<path fill="none" stroke="black" d="M164.43,-131.13C164.47,-140.78 164.47,-153.06 164.29,-164 162.95,-244.92 169.74,-265.88 158.29,-346 157.88,-348.85 157.34,-351.8 156.73,-354.74"/>
<polygon fill="black" stroke="black" points="153.31,-353.99 154.43,-364.52 160.12,-355.59 153.31,-353.99"/>
<text text-anchor="middle" x="169.29" y="-239.8" font-family="Times,serif" font-size="14.00">4</text>
</g>
<!-- 4&#45;&gt;2 -->
<g id="edge26" class="edge">
<title>4&#45;&gt;2</title>
<path fill="none" stroke="black" d="M152.47,-129.33C144.08,-139.71 132.23,-153.41 120.29,-164 113.35,-170.14 105.31,-176.12 97.68,-181.35"/>
<polygon fill="black" stroke="black" points="95.41,-178.65 89.01,-187.1 99.28,-184.49 95.41,-178.65"/>
<text text-anchor="middle" x="139.29" y="-152.8" font-family="Times,serif" font-size="14.00">1</text>
</g>
<!-- 4&#45;&gt;3 -->
<g id="edge16" class="edge">
<title>4&#45;&gt;3</title>
<path fill="none" stroke="black" d="M157.59,-95.39C153.37,-85.46 147.53,-72.74 141.29,-62 138.63,-57.43 135.57,-52.74 132.48,-48.26"/>
<polygon fill="black" stroke="black" points="135.23,-46.09 126.57,-40 129.54,-50.17 135.23,-46.09"/>
<text text-anchor="middle" x="153.29" y="-65.8" font-family="Times,serif" font-size="14.00">3</text>
</g>
<!-- 4&#45;&gt;4 -->
<g id="edge18" class="edge">
<title>4&#45;&gt;4</title>
<path fill="none" stroke="black" d="M191.08,-116.93C201.07,-117.06 209.29,-115.75 209.29,-113 209.29,-111.28 206.07,-110.13 201.23,-109.53"/>
<polygon fill="black" stroke="black" points="201.23,-106.03 191.08,-109.07 200.91,-113.02 201.23,-106.03"/>
<text text-anchor="middle" x="214.29" y="-109.3" font-family="Times,serif" font-size="14.00">2</text>
</g>
<!-- 4&#45;&gt;4 -->
<g id="edge19" class="edge">
<title>4&#45;&gt;4</title>
<path fill="none" stroke="black" d="M189.51,-119.94C208.33,-122.37 227.29,-120.05 227.29,-113 227.29,-107.21 214.53,-104.62 199.56,-105.21"/>
<polygon fill="black" stroke="black" points="199.18,-101.73 189.51,-106.06 199.77,-108.7 199.18,-101.73"/>
<text text-anchor="middle" x="232.29" y="-109.3" font-family="Times,serif" font-size="14.00">0</text>
</g>
</g>
</svg>
