<?xml version="1.0" encoding="UTF-8" standalone="no"?>
<!DOCTYPE svg PUBLIC "-//W3C//DTD SVG 1.1//EN"
 "http://www.w3.org/Graphics/SVG/1.1/DTD/svg11.dtd">
<!-- Generated by graphviz version 2.49.0 (20210829.0051)
 -->
<!-- Pages: 1 -->
<svg width="295pt" height="481pt"
 viewBox="0.00 0.00 295.47 481.00" xmlns="http://www.w3.org/2000/svg" xmlns:xlink="http://www.w3.org/1999/xlink">
<g id="graph0" class="graph" transform="scale(1 1) rotate(0) translate(4 477)">
<polygon fill="white" stroke="transparent" points="-4,4 -4,-477 291.47,-477 291.47,4 -4,4"/>
<!-- fake -->
<g id="node1" class="node">
<title>fake</title>
</g>
<!-- 0 -->
<g id="node2" class="node">
<title>0</title>
<ellipse fill="none" stroke="black" cx="149.47" cy="-378" rx="18" ry="18"/>
<ellipse fill="none" stroke="black" cx="149.47" cy="-378" rx="22" ry="22"/>
<text text-anchor="middle" x="149.47" y="-374.3" font-family="Times,serif" font-size="14.00">0</text>
</g>
<!-- fake&#45;&gt;0 -->
<g id="edge1" class="edge">
<title>fake&#45;&gt;0</title>
<path fill="none" stroke="black" stroke-width="2" d="M149.47,-436.98C149.47,-429.15 149.47,-419.61 149.47,-410.54"/>
<polygon fill="black" stroke="black" stroke-width="2" points="152.97,-410.24 149.47,-400.24 145.97,-410.24 152.97,-410.24"/>
</g>
<!-- 1 -->
<g id="node3" class="node">
<title>1</title>
<ellipse fill="none" stroke="black" cx="98.47" cy="-287" rx="27" ry="18"/>
<text text-anchor="middle" x="98.47" y="-283.3" font-family="Times,serif" font-size="14.00">1</text>
</g>
<!-- 0&#45;&gt;1 -->
<g id="edge13" class="edge">
<title>0&#45;&gt;1</title>
<path fill="none" stroke="black" d="M127.98,-373.23C108.67,-368.59 81.42,-358.62 68.47,-338 62.47,-328.45 67.37,-317.75 74.82,-308.7"/>
<polygon fill="black" stroke="black" points="77.52,-310.94 81.81,-301.25 72.42,-306.15 77.52,-310.94"/>
<text text-anchor="middle" x="73.47" y="-326.8" font-family="Times,serif" font-size="14.00">1</text>
</g>
<!-- 0&#45;&gt;1 -->
<g id="edge20" class="edge">
<title>0&#45;&gt;1</title>
<path fill="none" stroke="black" d="M130.18,-366.67C119.74,-359.98 107.74,-350.23 101.47,-338 97.92,-331.09 96.48,-322.9 96.12,-315.18"/>
<polygon fill="black" stroke="black" points="99.62,-315.13 96.18,-305.1 92.62,-315.08 99.62,-315.13"/>
<text text-anchor="middle" x="106.47" y="-326.8" font-family="Times,serif" font-size="14.00">2</text>
</g>
<!-- 0&#45;&gt;1 -->
<g id="edge21" class="edge">
<title>0&#45;&gt;1</title>
<path fill="none" stroke="black" d="M138.9,-358.56C131.34,-345.36 121.07,-327.44 112.77,-312.96"/>
<polygon fill="black" stroke="black" points="115.66,-310.97 107.65,-304.03 109.59,-314.45 115.66,-310.97"/>
<text text-anchor="middle" x="131.47" y="-326.8" font-family="Times,serif" font-size="14.00">0</text>
</g>
<!-- 0&#45;&gt;1 -->
<g id="edge22" class="edge">
<title>0&#45;&gt;1</title>
<path fill="none" stroke="black" d="M149.35,-355.85C148.47,-345.38 146.14,-332.89 140.47,-323 136.85,-316.69 131.64,-311.03 126.11,-306.18"/>
<polygon fill="black" stroke="black" points="127.94,-303.17 117.93,-299.7 123.59,-308.65 127.94,-303.17"/>
<text text-anchor="middle" x="150.47" y="-326.8" font-family="Times,serif" font-size="14.00">4</text>
</g>
<!-- 4 -->
<g id="node6" class="node">
<title>4</title>
<ellipse fill="none" stroke="black" cx="166.47" cy="-109" rx="18" ry="18"/>
<ellipse fill="none" stroke="black" cx="166.47" cy="-109" rx="22" ry="22"/>
<text text-anchor="middle" x="166.47" y="-105.3" font-family="Times,serif" font-size="14.00">4</text>
</g>
<!-- 0&#45;&gt;4 -->
<g id="edge8" class="edge">
<title>0&#45;&gt;4</title>
<path fill="none" stroke="black" d="M169.77,-369.34C183.12,-363.1 199.54,-352.89 207.47,-338 246.96,-263.86 240.58,-226.2 207.47,-149 204.15,-141.26 198.45,-134.32 192.34,-128.53"/>
<polygon fill="black" stroke="black" points="194.39,-125.68 184.53,-121.82 189.83,-130.99 194.39,-125.68"/>
<text text-anchor="middle" x="239.47" y="-239.8" font-family="Times,serif" font-size="14.00">3</text>
</g>
<!-- 1&#45;&gt;1 -->
<g id="edge17" class="edge">
<title>1&#45;&gt;1</title>
<path fill="none" stroke="black" d="M123,-294.75C133.98,-295.49 143.47,-292.91 143.47,-287 143.47,-283.03 139.18,-280.56 133.04,-279.59"/>
<polygon fill="black" stroke="black" points="133.12,-276.09 123,-279.25 132.87,-283.09 133.12,-276.09"/>
<text text-anchor="middle" x="148.47" y="-283.3" font-family="Times,serif" font-size="14.00">1</text>
</g>
<!-- 2 -->
<g id="node4" class="node">
<title>2</title>
<ellipse fill="none" stroke="black" cx="70.47" cy="-200" rx="27" ry="18"/>
<text text-anchor="middle" x="70.47" y="-196.3" font-family="Times,serif" font-size="14.00">2</text>
</g>
<!-- 1&#45;&gt;2 -->
<g id="edge2" class="edge">
<title>1&#45;&gt;2</title>
<path fill="none" stroke="black" d="M73.56,-279.76C58.83,-274.65 41.36,-265.78 32.47,-251 25.84,-239.98 33.38,-228.5 43.45,-219.33"/>
<polygon fill="black" stroke="black" points="45.91,-221.84 51.44,-212.81 41.48,-216.41 45.91,-221.84"/>
<text text-anchor="middle" x="37.47" y="-239.8" font-family="Times,serif" font-size="14.00">3</text>
</g>
<!-- 1&#45;&gt;2 -->
<g id="edge15" class="edge">
<title>1&#45;&gt;2</title>
<path fill="none" stroke="black" d="M82.67,-272.23C77.06,-266.32 71.41,-258.96 68.47,-251 65.85,-243.91 65.24,-235.87 65.58,-228.33"/>
<polygon fill="black" stroke="black" points="69.08,-228.47 66.57,-218.18 62.11,-227.79 69.08,-228.47"/>
<text text-anchor="middle" x="73.47" y="-239.8" font-family="Times,serif" font-size="14.00">0</text>
</g>
<!-- 3 -->
<g id="node5" class="node">
<title>3</title>
<ellipse fill="none" stroke="black" cx="114.47" cy="-18" rx="27" ry="18"/>
<text text-anchor="middle" x="114.47" y="-14.3" font-family="Times,serif" font-size="14.00">3</text>
</g>
<!-- 1&#45;&gt;3 -->
<g id="edge9" class="edge">
<title>1&#45;&gt;3</title>
<path fill="none" stroke="black" d="M73.16,-280.22C57.2,-275.22 37.57,-266.3 26.47,-251 -16.47,-191.82 3.76,-159.47 13.47,-87 15.49,-71.93 12.25,-65.26 22.47,-54 36.87,-38.12 59.25,-29.4 78.33,-24.63"/>
<polygon fill="black" stroke="black" points="79.23,-28.02 88.24,-22.43 77.71,-21.19 79.23,-28.02"/>
<text text-anchor="middle" x="8.47" y="-152.8" font-family="Times,serif" font-size="14.00">4</text>
</g>
<!-- 1&#45;&gt;4 -->
<g id="edge24" class="edge">
<title>1&#45;&gt;4</title>
<path fill="none" stroke="black" d="M106.73,-269.76C109.61,-263.9 112.79,-257.2 115.47,-251 131.63,-213.53 147.12,-169.09 156.7,-140.25"/>
<polygon fill="black" stroke="black" points="160.15,-140.97 159.96,-130.38 153.5,-138.78 160.15,-140.97"/>
<text text-anchor="middle" x="146.47" y="-196.3" font-family="Times,serif" font-size="14.00">2</text>
</g>
<!-- 2&#45;&gt;0 -->
<g id="edge4" class="edge">
<title>2&#45;&gt;0</title>
<path fill="none" stroke="black" d="M49.8,-211.8C40.88,-217.66 31.39,-225.8 26.47,-236 5.65,-279.17 28.17,-303.53 61.47,-338 76.75,-353.82 99.58,-363.68 118.16,-369.53"/>
<polygon fill="black" stroke="black" points="117.39,-372.95 127.97,-372.38 119.34,-366.23 117.39,-372.95"/>
<text text-anchor="middle" x="37.47" y="-283.3" font-family="Times,serif" font-size="14.00">2</text>
</g>
<!-- 2&#45;&gt;1 -->
<g id="edge11" class="edge">
<title>2&#45;&gt;1</title>
<path fill="none" stroke="black" d="M75.99,-217.76C79.9,-229.62 85.22,-245.79 89.71,-259.4"/>
<polygon fill="black" stroke="black" points="86.48,-260.8 92.94,-269.21 93.13,-258.61 86.48,-260.8"/>
<text text-anchor="middle" x="90.47" y="-239.8" font-family="Times,serif" font-size="14.00">3</text>
</g>
<!-- 2&#45;&gt;1 -->
<g id="edge23" class="edge">
<title>2&#45;&gt;1</title>
<path fill="none" stroke="black" d="M85.75,-214.86C91.17,-220.78 96.63,-228.13 99.47,-236 102.03,-243.11 102.73,-251.16 102.55,-258.69"/>
<polygon fill="black" stroke="black" points="99.05,-258.61 101.79,-268.84 106.03,-259.13 99.05,-258.61"/>
<text text-anchor="middle" x="106.47" y="-239.8" font-family="Times,serif" font-size="14.00">0</text>
</g>
<!-- 2&#45;&gt;3 -->
<g id="edge3" class="edge">
<title>2&#45;&gt;3</title>
<path fill="none" stroke="black" d="M55.93,-184.69C50.14,-178.6 43.63,-171.24 38.47,-164 18.05,-135.4 11.78,-121.06 20.47,-87 24.6,-70.81 26.26,-65.41 38.47,-54 50.28,-42.96 66.19,-34.9 80.4,-29.32"/>
<polygon fill="black" stroke="black" points="81.71,-32.57 89.9,-25.85 79.3,-26 81.71,-32.57"/>
<text text-anchor="middle" x="25.47" y="-105.3" font-family="Times,serif" font-size="14.00">4</text>
</g>
<!-- 2&#45;&gt;4 -->
<g id="edge12" class="edge">
<title>2&#45;&gt;4</title>
<path fill="none" stroke="black" d="M81.69,-183.2C89.43,-172.87 100.3,-159.41 111.47,-149 119.97,-141.08 130.15,-133.43 139.42,-127.04"/>
<polygon fill="black" stroke="black" points="141.59,-129.8 147.96,-121.34 137.7,-123.99 141.59,-129.8"/>
<text text-anchor="middle" x="116.47" y="-152.8" font-family="Times,serif" font-size="14.00">1</text>
</g>
<!-- 3&#45;&gt;0 -->
<g id="edge10" class="edge">
<title>3&#45;&gt;0</title>
<path fill="none" stroke="black" d="M141.02,-21.43C187.21,-27.29 277.47,-46.58 277.47,-108 277.47,-288 277.47,-288 277.47,-288 277.47,-334.88 218.87,-359.07 180.97,-369.81"/>
<polygon fill="black" stroke="black" points="179.66,-366.53 170.89,-372.49 181.46,-373.3 179.66,-366.53"/>
<text text-anchor="middle" x="282.47" y="-196.3" font-family="Times,serif" font-size="14.00">3</text>
</g>
<!-- 3&#45;&gt;2 -->
<g id="edge5" class="edge">
<title>3&#45;&gt;2</title>
<path fill="none" stroke="black" d="M99.59,-33.26C87.59,-46 71.86,-65.86 66.47,-87 59.25,-115.32 61.88,-148.97 65.28,-171.94"/>
<polygon fill="black" stroke="black" points="61.86,-172.68 66.93,-181.99 68.77,-171.55 61.86,-172.68"/>
<text text-anchor="middle" x="71.47" y="-105.3" font-family="Times,serif" font-size="14.00">4</text>
</g>
<!-- 3&#45;&gt;2 -->
<g id="edge7" class="edge">
<title>3&#45;&gt;2</title>
<path fill="none" stroke="black" d="M110.31,-36.02C102.63,-67.44 86.17,-134.78 76.99,-172.32"/>
<polygon fill="black" stroke="black" points="73.58,-171.52 74.61,-182.07 80.38,-173.18 73.58,-171.52"/>
<text text-anchor="middle" x="102.47" y="-105.3" font-family="Times,serif" font-size="14.00">0</text>
</g>
<!-- 3&#45;&gt;4 -->
<g id="edge6" class="edge">
<title>3&#45;&gt;4</title>
<path fill="none" stroke="black" d="M138.78,-26.23C152.15,-31.59 167.57,-40.37 175.47,-54 179.85,-61.57 179.92,-70.67 178.21,-79.23"/>
<polygon fill="black" stroke="black" points="174.83,-78.32 175.54,-88.9 181.58,-80.19 174.83,-78.32"/>
<text text-anchor="middle" x="183.47" y="-57.8" font-family="Times,serif" font-size="14.00">1</text>
</g>
<!-- 3&#45;&gt;4 -->
<g id="edge14" class="edge">
<title>3&#45;&gt;4</title>
<path fill="none" stroke="black" d="M118.84,-35.9C121.84,-45.93 126.39,-58.66 132.47,-69 135.81,-74.69 140.04,-80.33 144.37,-85.48"/>
<polygon fill="black" stroke="black" points="141.88,-87.94 151.14,-93.1 147.11,-83.3 141.88,-87.94"/>
<text text-anchor="middle" x="137.47" y="-57.8" font-family="Times,serif" font-size="14.00">2</text>
</g>
<!-- 4&#45;&gt;0 -->
<g id="edge25" class="edge">
<title>4&#45;&gt;0</title>
<path fill="none" stroke="black" d="M166.52,-131.08C166.5,-166.87 165.99,-241.78 162.47,-305 161.65,-319.7 161.97,-323.49 159.47,-338 158.98,-340.84 158.39,-343.78 157.74,-346.71"/>
<polygon fill="black" stroke="black" points="154.32,-345.95 155.38,-356.49 161.13,-347.59 154.32,-345.95"/>
<text text-anchor="middle" x="169.47" y="-239.8" font-family="Times,serif" font-size="14.00">4</text>
</g>
<!-- 4&#45;&gt;2 -->
<g id="edge26" class="edge">
<title>4&#45;&gt;2</title>
<path fill="none" stroke="black" d="M153.79,-127.6C145.32,-138.71 133.56,-152.99 121.47,-164 114.62,-170.24 106.6,-176.24 98.97,-181.47"/>
<polygon fill="black" stroke="black" points="96.7,-178.77 90.29,-187.21 100.56,-184.61 96.7,-178.77"/>
<text text-anchor="middle" x="139.47" y="-152.8" font-family="Times,serif" font-size="14.00">1</text>
</g>
<!-- 4&#45;&gt;3 -->
<g id="edge16" class="edge">
<title>4&#45;&gt;3</title>
<path fill="none" stroke="black" d="M159.08,-88.15C154.82,-77.67 149.03,-64.78 142.47,-54 140.04,-50 137.2,-45.95 134.29,-42.09"/>
<polygon fill="black" stroke="black" points="136.87,-39.71 127.91,-34.05 131.38,-44.06 136.87,-39.71"/>
<text text-anchor="middle" x="154.47" y="-57.8" font-family="Times,serif" font-size="14.00">3</text>
</g>
<!-- 4&#45;&gt;4 -->
<g id="edge18" class="edge">
<title>4&#45;&gt;4</title>
<path fill="none" stroke="black" d="M188.27,-113.25C198.03,-113.65 206.47,-112.23 206.47,-109 206.47,-106.98 203.17,-105.67 198.32,-105.07"/>
<polygon fill="black" stroke="black" points="198.38,-101.57 188.27,-104.75 198.16,-108.56 198.38,-101.57"/>
<text text-anchor="middle" x="211.47" y="-105.3" font-family="Times,serif" font-size="14.00">2</text>
</g>
<!-- 4&#45;&gt;4 -->
<g id="edge19" class="edge">
<title>4&#45;&gt;4</title>
<path fill="none" stroke="black" d="M187.28,-116.2C205.35,-119.49 224.47,-117.09 224.47,-109 224.47,-102.43 211.85,-99.61 197.42,-100.55"/>
<polygon fill="black" stroke="black" points="196.78,-97.1 187.28,-101.8 197.63,-104.05 196.78,-97.1"/>
<text text-anchor="middle" x="229.47" y="-105.3" font-family="Times,serif" font-size="14.00">0</text>
</g>
</g>
</svg>
