<?xml version="1.0" encoding="UTF-8" standalone="no"?>
<!DOCTYPE svg PUBLIC "-//W3C//DTD SVG 1.1//EN"
 "http://www.w3.org/Graphics/SVG/1.1/DTD/svg11.dtd">
<!-- Generated by graphviz version 2.49.0 (20210829.0051)
 -->
<!-- Pages: 1 -->
<svg width="430pt" height="386pt"
 viewBox="0.00 0.00 430.00 386.00" xmlns="http://www.w3.org/2000/svg" xmlns:xlink="http://www.w3.org/1999/xlink">
<g id="graph0" class="graph" transform="scale(1 1) rotate(0) translate(4 382)">
<polygon fill="white" stroke="transparent" points="-4,4 -4,-382 426,-382 426,4 -4,4"/>
<!-- fake -->
<g id="node1" class="node">
<title>fake</title>
</g>
<!-- 4 -->
<g id="node6" class="node">
<title>4</title>
<ellipse fill="none" stroke="black" cx="305" cy="-283" rx="18" ry="18"/>
<ellipse fill="none" stroke="black" cx="305" cy="-283" rx="22" ry="22"/>
<text text-anchor="middle" x="305" y="-279.3" font-family="Times,serif" font-size="14.00">4</text>
</g>
<!-- fake&#45;&gt;4 -->
<g id="edge1" class="edge">
<title>fake&#45;&gt;4</title>
<path fill="none" stroke="black" stroke-width="2" d="M305,-341.98C305,-334.15 305,-324.61 305,-315.54"/>
<polygon fill="black" stroke="black" stroke-width="2" points="308.5,-315.24 305,-305.24 301.5,-315.24 308.5,-315.24"/>
</g>
<!-- 0 -->
<g id="node2" class="node">
<title>0</title>
<ellipse fill="none" stroke="black" cx="211" cy="-192" rx="27" ry="18"/>
<text text-anchor="middle" x="211" y="-188.3" font-family="Times,serif" font-size="14.00">0</text>
</g>
<!-- 0&#45;&gt;0 -->
<g id="edge3" class="edge">
<title>0&#45;&gt;0</title>
<path fill="none" stroke="black" d="M237.79,-195.93C247.78,-196.06 256,-194.75 256,-192 256,-190.28 252.79,-189.13 247.94,-188.53"/>
<polygon fill="black" stroke="black" points="247.94,-185.03 237.79,-188.07 247.63,-192.02 247.94,-185.03"/>
<text text-anchor="middle" x="261" y="-188.3" font-family="Times,serif" font-size="14.00">2</text>
</g>
<!-- 0&#45;&gt;0 -->
<g id="edge4" class="edge">
<title>0&#45;&gt;0</title>
<path fill="none" stroke="black" d="M236.23,-198.94C255.04,-201.37 274,-199.05 274,-192 274,-186.21 261.24,-183.62 246.27,-184.21"/>
<polygon fill="black" stroke="black" points="245.9,-180.73 236.23,-185.06 246.49,-187.7 245.9,-180.73"/>
<text text-anchor="middle" x="279" y="-188.3" font-family="Times,serif" font-size="14.00">0</text>
</g>
<!-- 2 -->
<g id="node4" class="node">
<title>2</title>
<ellipse fill="none" stroke="black" cx="330" cy="-105" rx="27" ry="18"/>
<text text-anchor="middle" x="330" y="-101.3" font-family="Times,serif" font-size="14.00">2</text>
</g>
<!-- 0&#45;&gt;2 -->
<g id="edge26" class="edge">
<title>0&#45;&gt;2</title>
<path fill="none" stroke="black" d="M233.92,-182.39C248.69,-176.25 267.89,-167.12 283,-156 293.39,-148.35 303.4,-138.23 311.49,-129.09"/>
<polygon fill="black" stroke="black" points="314.23,-131.28 318.07,-121.41 308.91,-126.73 314.23,-131.28"/>
<text text-anchor="middle" x="305" y="-144.8" font-family="Times,serif" font-size="14.00">3</text>
</g>
<!-- 3 -->
<g id="node5" class="node">
<title>3</title>
<ellipse fill="none" stroke="black" cx="27" cy="-105" rx="27" ry="18"/>
<text text-anchor="middle" x="27" y="-101.3" font-family="Times,serif" font-size="14.00">3</text>
</g>
<!-- 0&#45;&gt;3 -->
<g id="edge5" class="edge">
<title>0&#45;&gt;3</title>
<path fill="none" stroke="black" d="M189.17,-180.92C156.58,-165.86 95.05,-137.44 57.86,-120.26"/>
<polygon fill="black" stroke="black" points="59.06,-116.96 48.52,-115.94 56.13,-123.31 59.06,-116.96"/>
<text text-anchor="middle" x="136" y="-144.8" font-family="Times,serif" font-size="14.00">4</text>
</g>
<!-- 0&#45;&gt;4 -->
<g id="edge13" class="edge">
<title>0&#45;&gt;4</title>
<path fill="none" stroke="black" d="M204.68,-209.66C201.85,-220.1 200.45,-233.34 207,-243 221.71,-264.68 250.59,-274.31 273.21,-278.59"/>
<polygon fill="black" stroke="black" points="272.65,-282.04 283.08,-280.2 273.78,-275.13 272.65,-282.04"/>
<text text-anchor="middle" x="212" y="-231.8" font-family="Times,serif" font-size="14.00">1</text>
</g>
<!-- 1 -->
<g id="node3" class="node">
<title>1</title>
<ellipse fill="none" stroke="black" cx="202" cy="-18" rx="27" ry="18"/>
<text text-anchor="middle" x="202" y="-14.3" font-family="Times,serif" font-size="14.00">1</text>
</g>
<!-- 1&#45;&gt;0 -->
<g id="edge10" class="edge">
<title>1&#45;&gt;0</title>
<path fill="none" stroke="black" d="M202.89,-36.05C204.45,-65.88 207.69,-127.76 209.57,-163.64"/>
<polygon fill="black" stroke="black" points="206.09,-164.08 210.1,-173.88 213.08,-163.71 206.09,-164.08"/>
<text text-anchor="middle" x="212" y="-101.3" font-family="Times,serif" font-size="14.00">2</text>
</g>
<!-- 1&#45;&gt;0 -->
<g id="edge18" class="edge">
<title>1&#45;&gt;0</title>
<path fill="none" stroke="black" d="M210.84,-35.31C213.58,-41.06 216.32,-47.67 218,-54 229.65,-97.85 228.88,-111.16 222,-156 221.58,-158.74 220.98,-161.56 220.29,-164.35"/>
<polygon fill="black" stroke="black" points="216.87,-163.58 217.43,-174.16 223.59,-165.53 216.87,-163.58"/>
<text text-anchor="middle" x="232" y="-101.3" font-family="Times,serif" font-size="14.00">3</text>
</g>
<!-- 1&#45;&gt;1 -->
<g id="edge2" class="edge">
<title>1&#45;&gt;1</title>
<path fill="none" stroke="black" d="M226.53,-25.75C237.51,-26.49 247,-23.91 247,-18 247,-14.03 242.72,-11.56 236.57,-10.59"/>
<polygon fill="black" stroke="black" points="236.65,-7.09 226.53,-10.25 236.41,-14.09 236.65,-7.09"/>
<text text-anchor="middle" x="252" y="-14.3" font-family="Times,serif" font-size="14.00">4</text>
</g>
<!-- 1&#45;&gt;3 -->
<g id="edge8" class="edge">
<title>1&#45;&gt;3</title>
<path fill="none" stroke="black" d="M178.66,-27.59C161.17,-34.24 136.76,-43.99 116,-54 95.26,-64 72.64,-76.73 55.4,-86.84"/>
<polygon fill="black" stroke="black" points="53.24,-84.05 46.42,-92.16 56.81,-90.08 53.24,-84.05"/>
<text text-anchor="middle" x="121" y="-57.8" font-family="Times,serif" font-size="14.00">0</text>
</g>
<!-- 1&#45;&gt;4 -->
<g id="edge15" class="edge">
<title>1&#45;&gt;4</title>
<path fill="none" stroke="black" d="M229.05,-19.44C272.34,-21.79 356.14,-33.43 394,-87 435.01,-145.03 402.58,-186.88 359,-243 351.9,-252.14 342.11,-260.09 332.81,-266.38"/>
<polygon fill="black" stroke="black" points="330.7,-263.58 324.14,-271.9 334.46,-269.48 330.7,-263.58"/>
<text text-anchor="middle" x="417" y="-144.8" font-family="Times,serif" font-size="14.00">1</text>
</g>
<!-- 2&#45;&gt;0 -->
<g id="edge9" class="edge">
<title>2&#45;&gt;0</title>
<path fill="none" stroke="black" d="M310.08,-117.38C298.95,-123.95 284.95,-132.56 273,-141 259.91,-150.24 245.97,-161.36 234.63,-170.76"/>
<polygon fill="black" stroke="black" points="232.29,-168.15 226.88,-177.26 236.79,-173.52 232.29,-168.15"/>
<text text-anchor="middle" x="278" y="-144.8" font-family="Times,serif" font-size="14.00">2</text>
</g>
<!-- 2&#45;&gt;2 -->
<g id="edge6" class="edge">
<title>2&#45;&gt;2</title>
<path fill="none" stroke="black" d="M354.53,-112.75C365.51,-113.49 375,-110.91 375,-105 375,-101.03 370.72,-98.56 364.57,-97.59"/>
<polygon fill="black" stroke="black" points="364.65,-94.09 354.53,-97.25 364.41,-101.09 364.65,-94.09"/>
<text text-anchor="middle" x="380" y="-101.3" font-family="Times,serif" font-size="14.00">1</text>
</g>
<!-- 2&#45;&gt;4 -->
<g id="edge12" class="edge">
<title>2&#45;&gt;4</title>
<path fill="none" stroke="black" d="M327.56,-123.17C323.36,-152.74 314.71,-213.64 309.43,-250.85"/>
<polygon fill="black" stroke="black" points="305.91,-250.73 307.97,-261.12 312.84,-251.71 305.91,-250.73"/>
<text text-anchor="middle" x="324" y="-188.3" font-family="Times,serif" font-size="14.00">3</text>
</g>
<!-- 2&#45;&gt;4 -->
<g id="edge19" class="edge">
<title>2&#45;&gt;4</title>
<path fill="none" stroke="black" d="M334.68,-122.96C336.04,-128.65 337.33,-135.05 338,-141 343.12,-186.41 340.92,-200.16 325,-243 323.61,-246.74 321.95,-250.59 320.18,-254.35"/>
<polygon fill="black" stroke="black" points="317.02,-252.85 315.69,-263.36 323.28,-255.97 317.02,-252.85"/>
<text text-anchor="middle" x="345" y="-188.3" font-family="Times,serif" font-size="14.00">4</text>
</g>
<!-- 2&#45;&gt;4 -->
<g id="edge24" class="edge">
<title>2&#45;&gt;4</title>
<path fill="none" stroke="black" d="M341.87,-121.19C345.81,-127.06 349.76,-134.03 352,-141 361.38,-170.21 359.72,-179.86 354,-210 351.06,-225.49 349.38,-229.65 341,-243 337.25,-248.98 332.52,-254.87 327.73,-260.19"/>
<polygon fill="black" stroke="black" points="325.12,-257.86 320.79,-267.53 330.21,-262.67 325.12,-257.86"/>
<text text-anchor="middle" x="363" y="-188.3" font-family="Times,serif" font-size="14.00">0</text>
</g>
<!-- 3&#45;&gt;1 -->
<g id="edge17" class="edge">
<title>3&#45;&gt;1</title>
<path fill="none" stroke="black" d="M51.68,-97.1C72.13,-90.95 101.67,-81.08 126,-69 143.69,-60.22 162.23,-48.08 176.57,-37.97"/>
<polygon fill="black" stroke="black" points="178.83,-40.66 184.91,-31.98 174.75,-34.97 178.83,-40.66"/>
<text text-anchor="middle" x="158" y="-57.8" font-family="Times,serif" font-size="14.00">0</text>
</g>
<!-- 3&#45;&gt;3 -->
<g id="edge11" class="edge">
<title>3&#45;&gt;3</title>
<path fill="none" stroke="black" d="M54.24,-106.97C64.02,-107.01 72,-106.35 72,-105 72,-104.18 69.04,-103.61 64.51,-103.3"/>
<polygon fill="black" stroke="black" points="64.33,-99.8 54.24,-103.03 64.15,-106.79 64.33,-99.8"/>
<text text-anchor="middle" x="77" y="-101.3" font-family="Times,serif" font-size="14.00">3</text>
</g>
<!-- 3&#45;&gt;3 -->
<g id="edge14" class="edge">
<title>3&#45;&gt;3</title>
<path fill="none" stroke="black" d="M53.54,-108.55C71.91,-109.63 90,-108.45 90,-105 90,-102.2 78.06,-100.89 63.73,-101.08"/>
<polygon fill="black" stroke="black" points="63.41,-97.59 53.54,-101.45 63.66,-104.58 63.41,-97.59"/>
<text text-anchor="middle" x="95" y="-101.3" font-family="Times,serif" font-size="14.00">1</text>
</g>
<!-- 3&#45;&gt;3 -->
<g id="edge20" class="edge">
<title>3&#45;&gt;3</title>
<path fill="none" stroke="black" d="M53.13,-109.65C79.19,-112.3 108,-110.75 108,-105 108,-99.99 86.14,-98.17 63.28,-99.53"/>
<polygon fill="black" stroke="black" points="62.82,-96.06 53.13,-100.35 63.38,-103.04 62.82,-96.06"/>
<text text-anchor="middle" x="113" y="-101.3" font-family="Times,serif" font-size="14.00">2</text>
</g>
<!-- 3&#45;&gt;3 -->
<g id="edge23" class="edge">
<title>3&#45;&gt;3</title>
<path fill="none" stroke="black" d="M52.86,-110.45C86.12,-114.98 126,-113.16 126,-105 126,-97.67 93.81,-95.46 63.15,-98.36"/>
<polygon fill="black" stroke="black" points="62.39,-94.93 52.86,-99.55 63.19,-101.88 62.39,-94.93"/>
<text text-anchor="middle" x="131" y="-101.3" font-family="Times,serif" font-size="14.00">4</text>
</g>
<!-- 4&#45;&gt;0 -->
<g id="edge16" class="edge">
<title>4&#45;&gt;0</title>
<path fill="none" stroke="black" d="M285.02,-273.32C271.16,-266.56 252.93,-256.12 240,-243 233.14,-236.04 227.31,-227.14 222.71,-218.79"/>
<polygon fill="black" stroke="black" points="225.73,-217.01 218.05,-209.72 219.5,-220.21 225.73,-217.01"/>
<text text-anchor="middle" x="245" y="-231.8" font-family="Times,serif" font-size="14.00">1</text>
</g>
<!-- 4&#45;&gt;0 -->
<g id="edge22" class="edge">
<title>4&#45;&gt;0</title>
<path fill="none" stroke="black" d="M289.77,-266.68C278.83,-255.77 263.66,-240.82 250,-228 245.04,-223.34 239.65,-218.42 234.5,-213.78"/>
<polygon fill="black" stroke="black" points="236.49,-210.87 226.71,-206.81 231.82,-216.08 236.49,-210.87"/>
<text text-anchor="middle" x="270" y="-231.8" font-family="Times,serif" font-size="14.00">0</text>
</g>
<!-- 4&#45;&gt;0 -->
<g id="edge25" class="edge">
<title>4&#45;&gt;0</title>
<path fill="none" stroke="black" d="M298.77,-261.63C294.59,-250.62 288.15,-237.39 279,-228 269.35,-218.09 256.3,-210.45 244.21,-204.88"/>
<polygon fill="black" stroke="black" points="245.37,-201.57 234.8,-200.84 242.61,-208 245.37,-201.57"/>
<text text-anchor="middle" x="294" y="-231.8" font-family="Times,serif" font-size="14.00">4</text>
</g>
<!-- 4&#45;&gt;3 -->
<g id="edge21" class="edge">
<title>4&#45;&gt;3</title>
<path fill="none" stroke="black" d="M283.61,-276.44C261.35,-270.15 225.92,-258.71 198,-243 139.01,-209.81 79.42,-156.58 48.56,-127.2"/>
<polygon fill="black" stroke="black" points="50.98,-124.67 41.35,-120.27 46.13,-129.72 50.98,-124.67"/>
<text text-anchor="middle" x="150" y="-188.3" font-family="Times,serif" font-size="14.00">2</text>
</g>
<!-- 4&#45;&gt;4 -->
<g id="edge7" class="edge">
<title>4&#45;&gt;4</title>
<path fill="none" stroke="black" d="M325.99,-290.32C336.09,-291.22 345,-288.78 345,-283 345,-279.3 341.34,-276.96 336.06,-276"/>
<polygon fill="black" stroke="black" points="336.1,-272.5 325.99,-275.68 335.87,-279.5 336.1,-272.5"/>
<text text-anchor="middle" x="350" y="-279.3" font-family="Times,serif" font-size="14.00">3</text>
</g>
</g>
</svg>
