<?xml version="1.0" encoding="UTF-8" standalone="no"?>
<!DOCTYPE svg PUBLIC "-//W3C//DTD SVG 1.1//EN"
 "http://www.w3.org/Graphics/SVG/1.1/DTD/svg11.dtd">
<!-- Generated by graphviz version 13.0.1 (20250616.1512)
 -->
<!-- Pages: 1 -->
<svg width="453pt" height="474pt"
 viewBox="0.00 0.00 453.00 474.00" xmlns="http://www.w3.org/2000/svg" xmlns:xlink="http://www.w3.org/1999/xlink">
<g id="graph0" class="graph" transform="scale(1 1) rotate(0) translate(4 470)">
<polygon fill="white" stroke="none" points="-4,4 -4,-470 448.64,-470 448.64,4 -4,4"/>
<!-- fake -->
<g id="node1" class="node">
<title>fake</title>
</g>
<!-- 0 -->
<g id="node2" class="node">
<title>0</title>
<ellipse fill="none" stroke="black" cx="179" cy="-375" rx="27" ry="18"/>
<text xml:space="preserve" text-anchor="middle" x="179" y="-370.32" font-family="Times,serif" font-size="14.00">0</text>
</g>
<!-- fake&#45;&gt;0 -->
<g id="edge1" class="edge">
<title>fake&#45;&gt;0</title>
<path fill="none" stroke="black" stroke-width="2" d="M179,-429.81C179,-422.23 179,-413.1 179,-404.54"/>
<polygon fill="black" stroke="black" stroke-width="2" points="182.5,-406.06 179,-396.06 175.5,-406.06 182.5,-406.06"/>
</g>
<!-- 2 -->
<g id="node4" class="node">
<title>2</title>
<ellipse fill="none" stroke="black" cx="224" cy="-285.75" rx="27" ry="18"/>
<text xml:space="preserve" text-anchor="middle" x="224" y="-281.07" font-family="Times,serif" font-size="14.00">2</text>
</g>
<!-- 0&#45;&gt;2 -->
<g id="edge16" class="edge">
<title>0&#45;&gt;2</title>
<path fill="none" stroke="black" d="M187.46,-357.59C193.94,-345.04 202.99,-327.48 210.47,-312.99"/>
<polygon fill="black" stroke="black" points="213.41,-314.92 214.88,-304.43 207.19,-311.72 213.41,-314.92"/>
<text xml:space="preserve" text-anchor="middle" x="210.03" y="-325.7" font-family="Times,serif" font-size="14.00">2</text>
</g>
<!-- 3 -->
<g id="node5" class="node">
<title>3</title>
<ellipse fill="none" stroke="black" cx="205" cy="-18" rx="27" ry="18"/>
<text xml:space="preserve" text-anchor="middle" x="205" y="-13.32" font-family="Times,serif" font-size="14.00">3</text>
</g>
<!-- 0&#45;&gt;3 -->
<g id="edge8" class="edge">
<title>0&#45;&gt;3</title>
<path fill="none" stroke="black" d="M151.81,-372.87C101.74,-369.18 0,-353.47 0,-286.75 0,-286.75 0,-286.75 0,-106.25 0,-34.63 107.24,-20.97 166.59,-18.89"/>
<polygon fill="black" stroke="black" points="166.35,-22.4 176.26,-18.66 166.18,-15.4 166.35,-22.4"/>
<text xml:space="preserve" text-anchor="middle" x="4.5" y="-191.82" font-family="Times,serif" font-size="14.00">1</text>
</g>
<!-- 0&#45;&gt;3 -->
<g id="edge21" class="edge">
<title>0&#45;&gt;3</title>
<path fill="none" stroke="black" d="M153.16,-369.3C114.22,-360.56 45,-337.83 45,-286.75 45,-286.75 45,-286.75 45,-106.25 45,-50.98 119.51,-30.51 166.83,-23.09"/>
<polygon fill="black" stroke="black" points="167.31,-26.55 176.72,-21.68 166.33,-19.62 167.31,-26.55"/>
<text xml:space="preserve" text-anchor="middle" x="49.5" y="-191.82" font-family="Times,serif" font-size="14.00">3</text>
</g>
<!-- 4 -->
<g id="node6" class="node">
<title>4</title>
<ellipse fill="none" stroke="black" cx="327" cy="-107.25" rx="27" ry="18"/>
<text xml:space="preserve" text-anchor="middle" x="327" y="-102.58" font-family="Times,serif" font-size="14.00">4</text>
</g>
<!-- 0&#45;&gt;4 -->
<g id="edge15" class="edge">
<title>0&#45;&gt;4</title>
<path fill="none" stroke="black" d="M200.59,-363.81C224.04,-351.94 261.55,-330.48 287,-303.75 318.65,-270.5 325.81,-258.47 339,-214.5 348.11,-184.14 348.37,-174.3 342,-143.25 341.45,-140.57 340.69,-137.85 339.79,-135.16"/>
<polygon fill="black" stroke="black" points="343.08,-133.96 336.16,-125.95 336.57,-136.53 343.08,-133.96"/>
<text xml:space="preserve" text-anchor="middle" x="337.73" y="-236.45" font-family="Times,serif" font-size="14.00">4</text>
</g>
<!-- 0&#45;&gt;4 -->
<g id="edge23" class="edge">
<title>0&#45;&gt;4</title>
<path fill="none" stroke="black" d="M204.63,-368.32C253.6,-356.03 360.1,-322.04 411,-249.75 438.73,-210.37 459.1,-182.36 431,-143.25 416.16,-122.6 388.53,-113.97 365.48,-110.44"/>
<polygon fill="black" stroke="black" points="366.13,-106.99 355.77,-109.24 365.27,-113.94 366.13,-106.99"/>
<text xml:space="preserve" text-anchor="middle" x="427.06" y="-236.45" font-family="Times,serif" font-size="14.00">0</text>
</g>
<!-- 1 -->
<g id="node3" class="node">
<title>1</title>
<ellipse fill="none" stroke="black" cx="228" cy="-196.5" rx="27" ry="18"/>
<text xml:space="preserve" text-anchor="middle" x="228" y="-191.82" font-family="Times,serif" font-size="14.00">1</text>
</g>
<!-- 1&#45;&gt;0 -->
<g id="edge14" class="edge">
<title>1&#45;&gt;0</title>
<path fill="none" stroke="black" d="M208.82,-209.75C200.95,-215.71 192.42,-223.53 187,-232.5 166.1,-267.08 168.72,-315.51 173.29,-345.8"/>
<polygon fill="black" stroke="black" points="169.78,-346.07 174.9,-355.34 176.68,-344.9 169.78,-346.07"/>
<text xml:space="preserve" text-anchor="middle" x="178.16" y="-281.07" font-family="Times,serif" font-size="14.00">2</text>
</g>
<!-- 1&#45;&gt;2 -->
<g id="edge5" class="edge">
<title>1&#45;&gt;2</title>
<path fill="none" stroke="black" d="M232.13,-214.47C234.07,-224.7 235.65,-237.99 234,-249.75 233.67,-252.1 233.22,-254.51 232.7,-256.91"/>
<polygon fill="black" stroke="black" points="229.36,-255.84 230.23,-266.4 236.14,-257.6 229.36,-255.84"/>
<text xml:space="preserve" text-anchor="middle" x="239.19" y="-236.45" font-family="Times,serif" font-size="14.00">3</text>
</g>
<!-- 1&#45;&gt;2 -->
<g id="edge20" class="edge">
<title>1&#45;&gt;2</title>
<path fill="none" stroke="black" d="M239.64,-212.86C246.02,-223.17 251.91,-237.13 248,-249.75 246.89,-253.34 245.27,-256.89 243.38,-260.27"/>
<polygon fill="black" stroke="black" points="240.54,-258.22 238.02,-268.52 246.4,-262.04 240.54,-258.22"/>
<text xml:space="preserve" text-anchor="middle" x="253.76" y="-236.45" font-family="Times,serif" font-size="14.00">1</text>
</g>
<!-- 1&#45;&gt;3 -->
<g id="edge12" class="edge">
<title>1&#45;&gt;3</title>
<path fill="none" stroke="black" d="M223.29,-178.32C219.6,-164.19 214.67,-143.57 212,-125.25 208.19,-99.13 206.45,-69.1 205.66,-47.64"/>
<polygon fill="black" stroke="black" points="209.17,-47.78 205.35,-37.9 202.17,-48.01 209.17,-47.78"/>
<text xml:space="preserve" text-anchor="middle" x="216.5" y="-102.58" font-family="Times,serif" font-size="14.00">0</text>
</g>
<!-- 1&#45;&gt;4 -->
<g id="edge18" class="edge">
<title>1&#45;&gt;4</title>
<path fill="none" stroke="black" d="M240.56,-180.52C250.04,-169.63 263.66,-154.82 277,-143.25 283.61,-137.52 291.15,-131.85 298.33,-126.8"/>
<polygon fill="black" stroke="black" points="300.26,-129.72 306.54,-121.19 296.31,-123.94 300.26,-129.72"/>
<text xml:space="preserve" text-anchor="middle" x="281.5" y="-147.2" font-family="Times,serif" font-size="14.00">4</text>
</g>
<!-- 2&#45;&gt;1 -->
<g id="edge4" class="edge">
<title>2&#45;&gt;1</title>
<path fill="none" stroke="black" d="M207.62,-271.13C197.43,-260.9 187.27,-246.34 193,-232.5 195.11,-227.41 198.36,-222.67 202.04,-218.43"/>
<polygon fill="black" stroke="black" points="204.33,-221.09 208.92,-211.54 199.38,-216.14 204.33,-221.09"/>
<text xml:space="preserve" text-anchor="middle" x="197.5" y="-236.45" font-family="Times,serif" font-size="14.00">1</text>
</g>
<!-- 2&#45;&gt;1 -->
<g id="edge19" class="edge">
<title>2&#45;&gt;1</title>
<path fill="none" stroke="black" d="M224.04,-267.32C224.14,-257.16 224.39,-244.1 225,-232.5 225.11,-230.44 225.24,-228.32 225.39,-226.18"/>
<polygon fill="black" stroke="black" points="228.86,-226.68 226.16,-216.44 221.88,-226.13 228.86,-226.68"/>
<text xml:space="preserve" text-anchor="middle" x="229.5" y="-236.45" font-family="Times,serif" font-size="14.00">4</text>
</g>
<!-- 2&#45;&gt;2 -->
<g id="edge22" class="edge">
<title>2&#45;&gt;2</title>
<path fill="none" stroke="black" d="M248.53,-293.99C259.51,-294.77 269,-292.03 269,-285.75 269,-281.83 265.29,-279.28 259.83,-278.12"/>
<polygon fill="black" stroke="black" points="260.22,-274.64 250.04,-277.59 259.84,-281.63 260.22,-274.64"/>
<text xml:space="preserve" text-anchor="middle" x="273.5" y="-281.07" font-family="Times,serif" font-size="14.00">2</text>
</g>
<!-- 2&#45;&gt;3 -->
<g id="edge11" class="edge">
<title>2&#45;&gt;3</title>
<path fill="none" stroke="black" d="M251.05,-283.08C293.71,-279.82 373.56,-270.98 391,-249.75 436.28,-194.63 422.75,-152.62 390,-89.25 363.01,-37.03 289.45,-23.23 243.64,-19.82"/>
<polygon fill="black" stroke="black" points="244.05,-16.34 233.86,-19.24 243.64,-23.33 244.05,-16.34"/>
<text xml:space="preserve" text-anchor="middle" x="422.53" y="-147.2" font-family="Times,serif" font-size="14.00">0</text>
</g>
<!-- 2&#45;&gt;3 -->
<g id="edge25" class="edge">
<title>2&#45;&gt;3</title>
<path fill="none" stroke="black" d="M202.67,-274.4C197.59,-272.09 192.14,-269.74 187,-267.75 162.21,-258.19 147.65,-269.61 130,-249.75 103.18,-219.57 116.79,-200.7 113,-160.5 108.49,-112.71 99.5,-90.22 131,-54 141.01,-42.49 155.63,-34.48 169.24,-29.06"/>
<polygon fill="black" stroke="black" points="170.18,-32.44 178.4,-25.76 167.81,-25.85 170.18,-32.44"/>
<text xml:space="preserve" text-anchor="middle" x="117.5" y="-147.2" font-family="Times,serif" font-size="14.00">3</text>
</g>
<!-- 3&#45;&gt;1 -->
<g id="edge9" class="edge">
<title>3&#45;&gt;1</title>
<path fill="none" stroke="black" d="M212.8,-35.39C215.21,-41.15 217.59,-47.74 219,-54 227.68,-92.45 229.02,-138.16 228.81,-167"/>
<polygon fill="black" stroke="black" points="225.31,-166.7 228.66,-176.75 232.31,-166.8 225.31,-166.7"/>
<text xml:space="preserve" text-anchor="middle" x="232.36" y="-102.58" font-family="Times,serif" font-size="14.00">4</text>
</g>
<!-- 3&#45;&gt;2 -->
<g id="edge13" class="edge">
<title>3&#45;&gt;2</title>
<path fill="none" stroke="black" d="M181.38,-27.18C168.68,-32.78 153.84,-41.49 145,-54 117.33,-93.14 123.5,-112.78 128,-160.5 131.79,-200.7 119.7,-218.28 145,-249.75 157.72,-265.58 168.44,-259.51 187,-267.75 188.53,-268.43 190.1,-269.13 191.69,-269.84"/>
<polygon fill="black" stroke="black" points="190.2,-273.01 200.75,-273.96 193.09,-266.64 190.2,-273.01"/>
<text xml:space="preserve" text-anchor="middle" x="132.5" y="-147.2" font-family="Times,serif" font-size="14.00">2</text>
</g>
<!-- 3&#45;&gt;2 -->
<g id="edge26" class="edge">
<title>3&#45;&gt;2</title>
<path fill="none" stroke="black" d="M198.55,-35.81C184.52,-75.13 154.98,-175.38 187,-249.75 189.34,-255.19 193,-260.19 197.11,-264.59"/>
<polygon fill="black" stroke="black" points="194.57,-267.01 204.27,-271.27 199.35,-261.89 194.57,-267.01"/>
<text xml:space="preserve" text-anchor="middle" x="178.42" y="-147.2" font-family="Times,serif" font-size="14.00">3</text>
</g>
<!-- 3&#45;&gt;3 -->
<g id="edge2" class="edge">
<title>3&#45;&gt;3</title>
<path fill="none" stroke="black" d="M229.53,-26.24C240.51,-27.02 250,-24.28 250,-18 250,-14.08 246.29,-11.53 240.83,-10.37"/>
<polygon fill="black" stroke="black" points="241.22,-6.89 231.04,-9.84 240.84,-13.88 241.22,-6.89"/>
<text xml:space="preserve" text-anchor="middle" x="254.5" y="-13.32" font-family="Times,serif" font-size="14.00">1</text>
</g>
<!-- 3&#45;&gt;4 -->
<g id="edge17" class="edge">
<title>3&#45;&gt;4</title>
<path fill="none" stroke="black" d="M230.28,-24.62C249.13,-29.8 274.68,-39 293,-54 301.52,-60.98 308.63,-70.66 314.12,-79.79"/>
<polygon fill="black" stroke="black" points="310.97,-81.32 318.87,-88.38 317.09,-77.93 310.97,-81.32"/>
<text xml:space="preserve" text-anchor="middle" x="312.36" y="-57.95" font-family="Times,serif" font-size="14.00">0</text>
</g>
<!-- 4&#45;&gt;2 -->
<g id="edge10" class="edge">
<title>4&#45;&gt;2</title>
<path fill="none" stroke="black" d="M321.71,-125.08C312.48,-152.81 291.56,-209.08 262,-249.75 258.31,-254.83 253.79,-259.75 249.18,-264.21"/>
<polygon fill="black" stroke="black" points="247.11,-261.37 242.06,-270.68 251.81,-266.55 247.11,-261.37"/>
<text xml:space="preserve" text-anchor="middle" x="305.18" y="-191.82" font-family="Times,serif" font-size="14.00">0</text>
</g>
<!-- 4&#45;&gt;2 -->
<g id="edge24" class="edge">
<title>4&#45;&gt;2</title>
<path fill="none" stroke="black" d="M328.52,-125.55C329.67,-147.54 329,-186.07 314,-214.5 301.26,-238.64 276.18,-257.14 255.72,-269.08"/>
<polygon fill="black" stroke="black" points="254.2,-265.92 247.15,-273.83 257.6,-272.04 254.2,-265.92"/>
<text xml:space="preserve" text-anchor="middle" x="330.05" y="-191.82" font-family="Times,serif" font-size="14.00">4</text>
</g>
<!-- 4&#45;&gt;3 -->
<g id="edge3" class="edge">
<title>4&#45;&gt;3</title>
<path fill="none" stroke="black" d="M331.1,-88.99C332.68,-77.87 332.6,-63.73 325,-54 305.96,-29.6 270.89,-21.52 243.56,-19.16"/>
<polygon fill="black" stroke="black" points="244.1,-15.68 233.9,-18.55 243.66,-22.67 244.1,-15.68"/>
<text xml:space="preserve" text-anchor="middle" x="335.94" y="-57.95" font-family="Times,serif" font-size="14.00">2</text>
</g>
<!-- 4&#45;&gt;3 -->
<g id="edge6" class="edge">
<title>4&#45;&gt;3</title>
<path fill="none" stroke="black" d="M310.45,-92.8C294.24,-79.7 270.61,-60.78 261,-54 252.58,-48.06 243.17,-41.98 234.51,-36.59"/>
<polygon fill="black" stroke="black" points="236.43,-33.66 226.07,-31.42 232.77,-39.63 236.43,-33.66"/>
<text xml:space="preserve" text-anchor="middle" x="286.5" y="-57.95" font-family="Times,serif" font-size="14.00">1</text>
</g>
<!-- 4&#45;&gt;4 -->
<g id="edge7" class="edge">
<title>4&#45;&gt;4</title>
<path fill="none" stroke="black" d="M351.53,-115.49C362.51,-116.27 372,-113.53 372,-107.25 372,-103.33 368.29,-100.78 362.83,-99.62"/>
<polygon fill="black" stroke="black" points="363.22,-96.14 353.04,-99.09 362.84,-103.13 363.22,-96.14"/>
<text xml:space="preserve" text-anchor="middle" x="376.5" y="-102.58" font-family="Times,serif" font-size="14.00">3</text>
</g>
</g>
</svg>
