<?xml version="1.0" encoding="UTF-8" standalone="no"?>
<!DOCTYPE svg PUBLIC "-//W3C//DTD SVG 1.1//EN"
 "http://www.w3.org/Graphics/SVG/1.1/DTD/svg11.dtd">
<!-- Generated by graphviz version 13.0.1 (20250616.1512)
 -->
<!-- Pages: 1 -->
<svg width="375pt" height="474pt"
 viewBox="0.00 0.00 375.00 474.00" xmlns="http://www.w3.org/2000/svg" xmlns:xlink="http://www.w3.org/1999/xlink">
<g id="graph0" class="graph" transform="scale(1 1) rotate(0) translate(4 470)">
<polygon fill="white" stroke="none" points="-4,4 -4,-470 370.6,-470 370.6,4 -4,4"/>
<!-- fake -->
<g id="node1" class="node">
<title>fake</title>
</g>
<!-- 0 -->
<g id="node2" class="node">
<title>0</title>
<ellipse fill="none" stroke="black" cx="209" cy="-375" rx="27" ry="18"/>
<text xml:space="preserve" text-anchor="middle" x="209" y="-370.32" font-family="Times,serif" font-size="14.00">0</text>
</g>
<!-- fake&#45;&gt;0 -->
<g id="edge1" class="edge">
<title>fake&#45;&gt;0</title>
<path fill="none" stroke="black" stroke-width="2" d="M209,-429.81C209,-422.23 209,-413.1 209,-404.54"/>
<polygon fill="black" stroke="black" stroke-width="2" points="212.5,-406.06 209,-396.06 205.5,-406.06 212.5,-406.06"/>
</g>
<!-- 1 -->
<g id="node3" class="node">
<title>1</title>
<ellipse fill="none" stroke="black" cx="232" cy="-196.5" rx="27" ry="18"/>
<text xml:space="preserve" text-anchor="middle" x="232" y="-191.82" font-family="Times,serif" font-size="14.00">1</text>
</g>
<!-- 0&#45;&gt;1 -->
<g id="edge12" class="edge">
<title>0&#45;&gt;1</title>
<path fill="none" stroke="black" d="M192.7,-360.42C186.04,-354.34 178.61,-346.78 173,-339 153.97,-312.59 148.75,-299.49 156,-267.75 159.88,-250.79 161.24,-245.32 173,-232.5 180.39,-224.44 190.07,-217.67 199.44,-212.28"/>
<polygon fill="black" stroke="black" points="200.85,-215.5 208.03,-207.71 197.56,-209.32 200.85,-215.5"/>
<text xml:space="preserve" text-anchor="middle" x="160.5" y="-281.07" font-family="Times,serif" font-size="14.00">3</text>
</g>
<!-- 0&#45;&gt;1 -->
<g id="edge25" class="edge">
<title>0&#45;&gt;1</title>
<path fill="none" stroke="black" d="M206.07,-356.9C202.96,-335.77 199.24,-298.79 205,-267.75 207.75,-252.95 213.49,-237.23 218.98,-224.43"/>
<polygon fill="black" stroke="black" points="222.13,-225.96 223.03,-215.41 215.74,-223.09 222.13,-225.96"/>
<text xml:space="preserve" text-anchor="middle" x="209.5" y="-281.07" font-family="Times,serif" font-size="14.00">2</text>
</g>
<!-- 2 -->
<g id="node4" class="node">
<title>2</title>
<ellipse fill="none" stroke="black" cx="148" cy="-18" rx="27" ry="18"/>
<text xml:space="preserve" text-anchor="middle" x="148" y="-13.32" font-family="Times,serif" font-size="14.00">2</text>
</g>
<!-- 0&#45;&gt;2 -->
<g id="edge17" class="edge">
<title>0&#45;&gt;2</title>
<path fill="none" stroke="black" d="M181.68,-374.58C125.02,-374.22 0,-364.6 0,-286.75 0,-286.75 0,-286.75 0,-106.25 0,-55.05 66.55,-33.28 110.39,-24.5"/>
<polygon fill="black" stroke="black" points="110.85,-27.97 120.05,-22.72 109.58,-21.09 110.85,-27.97"/>
<text xml:space="preserve" text-anchor="middle" x="4.5" y="-191.82" font-family="Times,serif" font-size="14.00">1</text>
</g>
<!-- 3 -->
<g id="node5" class="node">
<title>3</title>
<ellipse fill="none" stroke="black" cx="297" cy="-285.75" rx="27" ry="18"/>
<text xml:space="preserve" text-anchor="middle" x="297" y="-281.07" font-family="Times,serif" font-size="14.00">3</text>
</g>
<!-- 0&#45;&gt;3 -->
<g id="edge8" class="edge">
<title>0&#45;&gt;3</title>
<path fill="none" stroke="black" d="M223.53,-359.59C237.42,-345.83 258.55,-324.88 274.59,-308.97"/>
<polygon fill="black" stroke="black" points="276.74,-311.77 281.37,-302.24 271.81,-306.8 276.74,-311.77"/>
<text xml:space="preserve" text-anchor="middle" x="265.38" y="-325.7" font-family="Times,serif" font-size="14.00">0</text>
</g>
<!-- 0&#45;&gt;3 -->
<g id="edge23" class="edge">
<title>0&#45;&gt;3</title>
<path fill="none" stroke="black" d="M232.52,-365.8C246.11,-360.07 262.69,-351.24 274,-339 280.36,-332.12 285.16,-323.19 288.68,-314.67"/>
<polygon fill="black" stroke="black" points="291.95,-315.92 292.09,-305.32 285.37,-313.52 291.95,-315.92"/>
<text xml:space="preserve" text-anchor="middle" x="289.71" y="-325.7" font-family="Times,serif" font-size="14.00">4</text>
</g>
<!-- 1&#45;&gt;0 -->
<g id="edge24" class="edge">
<title>1&#45;&gt;0</title>
<path fill="none" stroke="black" d="M229.74,-214.81C225.77,-245.31 217.49,-308.87 212.68,-345.78"/>
<polygon fill="black" stroke="black" points="209.26,-344.89 211.44,-355.25 216.21,-345.79 209.26,-344.89"/>
<text xml:space="preserve" text-anchor="middle" x="227.29" y="-281.07" font-family="Times,serif" font-size="14.00">4</text>
</g>
<!-- 4 -->
<g id="node6" class="node">
<title>4</title>
<ellipse fill="none" stroke="black" cx="234" cy="-107.25" rx="27" ry="18"/>
<text xml:space="preserve" text-anchor="middle" x="234" y="-102.58" font-family="Times,serif" font-size="14.00">4</text>
</g>
<!-- 1&#45;&gt;4 -->
<g id="edge3" class="edge">
<title>1&#45;&gt;4</title>
<path fill="none" stroke="black" d="M205.84,-191.05C173.26,-184.31 123.95,-169.43 142,-143.25 154.16,-125.61 176.48,-116.85 196.09,-112.51"/>
<polygon fill="black" stroke="black" points="196.55,-115.98 205.74,-110.71 195.27,-109.1 196.55,-115.98"/>
<text xml:space="preserve" text-anchor="middle" x="146.5" y="-147.2" font-family="Times,serif" font-size="14.00">1</text>
</g>
<!-- 1&#45;&gt;4 -->
<g id="edge5" class="edge">
<title>1&#45;&gt;4</title>
<path fill="none" stroke="black" d="M208.71,-186.73C188.24,-177.57 163.27,-161.94 174,-143.25 179.71,-133.32 189.44,-125.93 199.43,-120.58"/>
<polygon fill="black" stroke="black" points="200.84,-123.78 208.4,-116.36 197.86,-117.45 200.84,-123.78"/>
<text xml:space="preserve" text-anchor="middle" x="178.5" y="-147.2" font-family="Times,serif" font-size="14.00">0</text>
</g>
<!-- 1&#45;&gt;4 -->
<g id="edge7" class="edge">
<title>1&#45;&gt;4</title>
<path fill="none" stroke="black" d="M217.73,-180.7C213.04,-174.88 208.42,-167.83 206,-160.5 203.59,-153.22 203.46,-150.48 206,-143.25 207.42,-139.19 209.54,-135.26 211.98,-131.58"/>
<polygon fill="black" stroke="black" points="214.69,-133.79 218.02,-123.74 209.14,-129.52 214.69,-133.79"/>
<text xml:space="preserve" text-anchor="middle" x="210.5" y="-147.2" font-family="Times,serif" font-size="14.00">2</text>
</g>
<!-- 1&#45;&gt;4 -->
<g id="edge14" class="edge">
<title>1&#45;&gt;4</title>
<path fill="none" stroke="black" d="M232.4,-178.26C232.67,-166.43 233.03,-150.45 233.35,-136.75"/>
<polygon fill="black" stroke="black" points="236.84,-137.04 233.57,-126.97 229.84,-136.88 236.84,-137.04"/>
<text xml:space="preserve" text-anchor="middle" x="237.68" y="-147.2" font-family="Times,serif" font-size="14.00">3</text>
</g>
<!-- 2&#45;&gt;0 -->
<g id="edge4" class="edge">
<title>2&#45;&gt;0</title>
<path fill="none" stroke="black" d="M122.88,-25.07C105.86,-30.3 83.84,-39.36 69,-54 50.81,-71.95 45,-80.7 45,-106.25 45,-286.75 45,-286.75 45,-286.75 45,-343.36 122.1,-363.36 170.57,-370.34"/>
<polygon fill="black" stroke="black" points="170.05,-373.8 180.42,-371.62 170.95,-366.86 170.05,-373.8"/>
<text xml:space="preserve" text-anchor="middle" x="49.5" y="-191.82" font-family="Times,serif" font-size="14.00">4</text>
</g>
<!-- 2&#45;&gt;0 -->
<g id="edge13" class="edge">
<title>2&#45;&gt;0</title>
<path fill="none" stroke="black" d="M134.92,-34.12C130.49,-39.98 125.93,-46.97 123,-54 110.79,-83.34 114.76,-93.55 117,-125.25 123.81,-221.74 102.61,-259.7 158,-339 163.19,-346.43 170.5,-352.76 177.96,-357.92"/>
<polygon fill="black" stroke="black" points="175.75,-360.66 186.08,-363 179.46,-354.73 175.75,-360.66"/>
<text xml:space="preserve" text-anchor="middle" x="123.05" y="-191.82" font-family="Times,serif" font-size="14.00">1</text>
</g>
<!-- 2&#45;&gt;1 -->
<g id="edge26" class="edge">
<title>2&#45;&gt;1</title>
<path fill="none" stroke="black" d="M139.9,-35.62C127.35,-64.03 107.27,-122.56 134,-160.5 147.43,-179.56 172.24,-188.3 193.53,-192.28"/>
<polygon fill="black" stroke="black" points="192.99,-195.74 203.41,-193.8 194.06,-188.82 192.99,-195.74"/>
<text xml:space="preserve" text-anchor="middle" x="127.34" y="-102.58" font-family="Times,serif" font-size="14.00">0</text>
</g>
<!-- 2&#45;&gt;4 -->
<g id="edge6" class="edge">
<title>2&#45;&gt;4</title>
<path fill="none" stroke="black" d="M161.87,-33.78C171.83,-44.31 185.62,-58.77 198,-71.25 202.19,-75.47 206.7,-79.93 211.07,-84.2"/>
<polygon fill="black" stroke="black" points="208.47,-86.55 218.08,-91.01 213.35,-81.53 208.47,-86.55"/>
<text xml:space="preserve" text-anchor="middle" x="202.5" y="-57.95" font-family="Times,serif" font-size="14.00">2</text>
</g>
<!-- 2&#45;&gt;4 -->
<g id="edge15" class="edge">
<title>2&#45;&gt;4</title>
<path fill="none" stroke="black" d="M170.51,-28.61C182.48,-34.57 196.79,-43.17 207,-54 213.7,-61.1 219.16,-70.19 223.38,-78.79"/>
<polygon fill="black" stroke="black" points="220.15,-80.15 227.43,-87.85 226.54,-77.29 220.15,-80.15"/>
<text xml:space="preserve" text-anchor="middle" x="223.69" y="-57.95" font-family="Times,serif" font-size="14.00">3</text>
</g>
<!-- 3&#45;&gt;0 -->
<g id="edge16" class="edge">
<title>3&#45;&gt;0</title>
<path fill="none" stroke="black" d="M306.09,-303.18C310.86,-314.21 314.34,-328.58 307,-339 293.57,-358.06 268.76,-366.8 247.47,-370.78"/>
<polygon fill="black" stroke="black" points="246.94,-367.32 237.59,-372.3 248.01,-374.24 246.94,-367.32"/>
<text xml:space="preserve" text-anchor="middle" x="315.73" y="-325.7" font-family="Times,serif" font-size="14.00">4</text>
</g>
<!-- 3&#45;&gt;1 -->
<g id="edge18" class="edge">
<title>3&#45;&gt;1</title>
<path fill="none" stroke="black" d="M283.22,-270.17C277.66,-264.04 271.31,-256.72 266,-249.75 259.59,-241.33 253.12,-231.73 247.57,-223.07"/>
<polygon fill="black" stroke="black" points="250.62,-221.35 242.34,-214.74 244.69,-225.07 250.62,-221.35"/>
<text xml:space="preserve" text-anchor="middle" x="270.5" y="-236.45" font-family="Times,serif" font-size="14.00">1</text>
</g>
<!-- 3&#45;&gt;1 -->
<g id="edge19" class="edge">
<title>3&#45;&gt;1</title>
<path fill="none" stroke="black" d="M292.16,-267.65C288.57,-256.88 282.91,-243.05 275,-232.5 270.68,-226.74 265.22,-221.35 259.64,-216.62"/>
<polygon fill="black" stroke="black" points="262.15,-214.14 252.13,-210.69 257.81,-219.63 262.15,-214.14"/>
<text xml:space="preserve" text-anchor="middle" x="288.98" y="-236.45" font-family="Times,serif" font-size="14.00">2</text>
</g>
<!-- 3&#45;&gt;2 -->
<g id="edge10" class="edge">
<title>3&#45;&gt;2</title>
<path fill="none" stroke="black" d="M321.04,-276.82C333.55,-271.33 347.72,-262.65 355,-249.75 370.14,-222.94 375.93,-217.72 330,-143.25 299.08,-93.11 281.7,-85.63 232,-54 216.88,-44.38 198.66,-36.41 183.06,-30.52"/>
<polygon fill="black" stroke="black" points="184.26,-27.23 173.67,-27.12 181.88,-33.81 184.26,-27.23"/>
<text xml:space="preserve" text-anchor="middle" x="344.2" y="-147.2" font-family="Times,serif" font-size="14.00">0</text>
</g>
<!-- 3&#45;&gt;4 -->
<g id="edge11" class="edge">
<title>3&#45;&gt;4</title>
<path fill="none" stroke="black" d="M301.21,-267.58C307.1,-239.35 314.66,-182.39 291,-143.25 285.54,-134.22 276.79,-127.2 267.75,-121.89"/>
<polygon fill="black" stroke="black" points="269.43,-118.81 258.95,-117.3 266.2,-125.02 269.43,-118.81"/>
<text xml:space="preserve" text-anchor="middle" x="311.71" y="-191.82" font-family="Times,serif" font-size="14.00">3</text>
</g>
<!-- 4&#45;&gt;0 -->
<g id="edge2" class="edge">
<title>4&#45;&gt;0</title>
<path fill="none" stroke="black" d="M259.15,-114.3C275.48,-119.45 296.04,-128.43 309,-143.25 356.47,-197.55 341.99,-232.19 333,-303.75 330.98,-319.79 335.17,-327.31 324,-339 304.21,-359.71 272.58,-368.27 247.5,-371.76"/>
<polygon fill="black" stroke="black" points="247.19,-368.28 237.65,-372.89 247.98,-375.23 247.19,-368.28"/>
<text xml:space="preserve" text-anchor="middle" x="346.54" y="-236.45" font-family="Times,serif" font-size="14.00">0</text>
</g>
<!-- 4&#45;&gt;1 -->
<g id="edge9" class="edge">
<title>4&#45;&gt;1</title>
<path fill="none" stroke="black" d="M241.94,-124.64C245.95,-134.9 249.48,-148.41 247,-160.5 246.45,-163.18 245.69,-165.9 244.79,-168.59"/>
<polygon fill="black" stroke="black" points="241.57,-167.22 241.16,-177.8 248.08,-169.79 241.57,-167.22"/>
<text xml:space="preserve" text-anchor="middle" x="252.32" y="-147.2" font-family="Times,serif" font-size="14.00">3</text>
</g>
<!-- 4&#45;&gt;1 -->
<g id="edge20" class="edge">
<title>4&#45;&gt;1</title>
<path fill="none" stroke="black" d="M248.53,-122.62C253.49,-128.5 258.42,-135.7 261,-143.25 263.47,-150.51 263.6,-153.29 261,-160.5 259.48,-164.72 257.2,-168.8 254.58,-172.58"/>
<polygon fill="black" stroke="black" points="252.06,-170.13 248.53,-180.12 257.52,-174.51 252.06,-170.13"/>
<text xml:space="preserve" text-anchor="middle" x="267.4" y="-147.2" font-family="Times,serif" font-size="14.00">2</text>
</g>
<!-- 4&#45;&gt;1 -->
<g id="edge21" class="edge">
<title>4&#45;&gt;1</title>
<path fill="none" stroke="black" d="M253.83,-119.82C268.07,-129.74 283.53,-144.88 276,-160.5 272.77,-167.19 267.57,-173 261.86,-177.86"/>
<polygon fill="black" stroke="black" points="259.82,-175.01 253.89,-183.79 264,-180.63 259.82,-175.01"/>
<text xml:space="preserve" text-anchor="middle" x="282.47" y="-147.2" font-family="Times,serif" font-size="14.00">1</text>
</g>
<!-- 4&#45;&gt;2 -->
<g id="edge22" class="edge">
<title>4&#45;&gt;2</title>
<path fill="none" stroke="black" d="M210.21,-98.47C196.28,-92.84 179.26,-83.97 168,-71.25 161.91,-64.37 157.59,-55.45 154.57,-46.92"/>
<polygon fill="black" stroke="black" points="157.99,-46.15 151.73,-37.61 151.3,-48.19 157.99,-46.15"/>
<text xml:space="preserve" text-anchor="middle" x="172.5" y="-57.95" font-family="Times,serif" font-size="14.00">4</text>
</g>
</g>
</svg>
