<?xml version="1.0" encoding="UTF-8" standalone="no"?>
<!DOCTYPE svg PUBLIC "-//W3C//DTD SVG 1.1//EN"
 "http://www.w3.org/Graphics/SVG/1.1/DTD/svg11.dtd">
<!-- Generated by graphviz version 13.0.1 (20250616.1512)
 -->
<!-- Pages: 1 -->
<svg width="2507pt" height="2374pt"
 viewBox="0.00 0.00 2507.00 2374.00" xmlns="http://www.w3.org/2000/svg" xmlns:xlink="http://www.w3.org/1999/xlink">
<g id="graph0" class="graph" transform="scale(1 1) rotate(0) translate(4 2369.5)">
<polygon fill="white" stroke="none" points="-4,4 -4,-2369.5 2502.77,-2369.5 2502.77,4 -4,4"/>
<!-- fake -->
<g id="node1" class="node">
<title>fake</title>
</g>
<!-- 0 -->
<g id="node2" class="node">
<title>0</title>
<ellipse fill="none" stroke="black" cx="2055.77" cy="-2270.5" rx="18" ry="18"/>
<ellipse fill="none" stroke="black" cx="2055.77" cy="-2270.5" rx="22" ry="22"/>
<text xml:space="preserve" text-anchor="middle" x="2055.77" y="-2265.83" font-family="Times,serif" font-size="14.00">0</text>
</g>
<!-- fake&#45;&gt;0 -->
<g id="edge1" class="edge">
<title>fake&#45;&gt;0</title>
<path fill="none" stroke="black" stroke-width="2" d="M2055.77,-2329.11C2055.77,-2321.67 2055.77,-2312.74 2055.77,-2304.15"/>
<polygon fill="black" stroke="black" stroke-width="2" points="2059.27,-2305.85 2055.77,-2295.85 2052.27,-2305.85 2059.27,-2305.85"/>
</g>
<!-- 6 -->
<g id="node8" class="node">
<title>6</title>
<ellipse fill="none" stroke="black" cx="1946.77" cy="-2173.25" rx="18" ry="18"/>
<ellipse fill="none" stroke="black" cx="1946.77" cy="-2173.25" rx="22" ry="22"/>
<text xml:space="preserve" text-anchor="middle" x="1946.77" y="-2168.58" font-family="Times,serif" font-size="14.00">6</text>
</g>
<!-- 0&#45;&gt;6 -->
<g id="edge6" class="edge">
<title>0&#45;&gt;6</title>
<path fill="none" stroke="black" d="M2039.68,-2255.45C2021.73,-2239.76 1992.46,-2214.19 1971.57,-2195.93"/>
<polygon fill="black" stroke="black" points="1973.89,-2193.31 1964.05,-2189.36 1969.28,-2198.58 1973.89,-2193.31"/>
<text xml:space="preserve" text-anchor="middle" x="2015.53" y="-2217.2" font-family="Times,serif" font-size="14.00">1</text>
</g>
<!-- 7 -->
<g id="node9" class="node">
<title>7</title>
<ellipse fill="none" stroke="black" cx="1592.77" cy="-196.5" rx="27" ry="18"/>
<text xml:space="preserve" text-anchor="middle" x="1592.77" y="-191.82" font-family="Times,serif" font-size="14.00">7</text>
</g>
<!-- 0&#45;&gt;7 -->
<g id="edge88" class="edge">
<title>0&#45;&gt;7</title>
<path fill="none" stroke="black" d="M2077.89,-2266.88C2144.37,-2258.4 2337.77,-2229.03 2337.77,-2174.25 2337.77,-2174.25 2337.77,-2174.25 2337.77,-1945.13 2337.77,-1816.61 2451.77,-1807.9 2451.77,-1679.38 2451.77,-1679.38 2451.77,-1679.38 2451.77,-418.62 2451.77,-289.87 2350,-278.56 2229.77,-232.5 2174.85,-211.46 1759.31,-220.08 1700.77,-214.5 1676.96,-212.23 1650.43,-208.08 1629.62,-204.44"/>
<polygon fill="black" stroke="black" points="1630.35,-201.02 1619.89,-202.71 1629.12,-207.91 1630.35,-201.02"/>
<text xml:space="preserve" text-anchor="middle" x="2456.27" y="-1232.68" font-family="Times,serif" font-size="14.00">4</text>
</g>
<!-- 12 -->
<g id="node14" class="node">
<title>12</title>
<ellipse fill="none" stroke="black" cx="2034.77" cy="-573.2" rx="27" ry="18"/>
<text xml:space="preserve" text-anchor="middle" x="2034.77" y="-568.53" font-family="Times,serif" font-size="14.00">12</text>
</g>
<!-- 0&#45;&gt;12 -->
<g id="edge71" class="edge">
<title>0&#45;&gt;12</title>
<path fill="none" stroke="black" d="M2078.11,-2269.35C2139.45,-2268.5 2308.72,-2263.17 2351.77,-2230.5 2373.42,-2214.07 2375.77,-2201.43 2375.77,-2174.25 2375.77,-2174.25 2375.77,-2174.25 2375.77,-1568.43 2375.77,-1480.21 2405.77,-1460.44 2405.77,-1372.23 2405.77,-1372.23 2405.77,-1372.23 2405.77,-904.28 2405.77,-725.31 2161.81,-619.55 2069.55,-585.95"/>
<polygon fill="black" stroke="black" points="2070.84,-582.69 2060.25,-582.63 2068.49,-589.29 2070.84,-582.69"/>
<text xml:space="preserve" text-anchor="middle" x="2409.24" y="-1421.03" font-family="Times,serif" font-size="14.00">3</text>
</g>
<!-- 14 -->
<g id="node16" class="node">
<title>14</title>
<ellipse fill="none" stroke="black" cx="1947.77" cy="-1425.7" rx="23.85" ry="23.85"/>
<ellipse fill="none" stroke="black" cx="1947.77" cy="-1425.7" rx="27.85" ry="27.85"/>
<text xml:space="preserve" text-anchor="middle" x="1947.77" y="-1421.03" font-family="Times,serif" font-size="14.00">14</text>
</g>
<!-- 0&#45;&gt;14 -->
<g id="edge37" class="edge">
<title>0&#45;&gt;14</title>
<path fill="none" stroke="black" d="M2070.23,-2253.63C2084.99,-2235.73 2105.77,-2205.07 2105.77,-2174.25 2105.77,-2174.25 2105.77,-2174.25 2105.77,-2034.38 2105.77,-1954.14 2067.77,-1938.12 2067.77,-1857.88 2067.77,-1857.88 2067.77,-1857.88 2067.77,-1523.8 2067.77,-1480.57 2020.12,-1453.27 1984.87,-1438.98"/>
<polygon fill="black" stroke="black" points="1986.4,-1435.82 1975.81,-1435.51 1983.89,-1442.36 1986.4,-1435.82"/>
<text xml:space="preserve" text-anchor="middle" x="2072.32" y="-1852.2" font-family="Times,serif" font-size="14.00">2</text>
</g>
<!-- 23 -->
<g id="node25" class="node">
<title>23</title>
<ellipse fill="none" stroke="black" cx="1671.77" cy="-949.9" rx="27" ry="18"/>
<text xml:space="preserve" text-anchor="middle" x="1671.77" y="-945.23" font-family="Times,serif" font-size="14.00">23</text>
</g>
<!-- 0&#45;&gt;23 -->
<g id="edge144" class="edge">
<title>0&#45;&gt;23</title>
<path fill="none" stroke="black" d="M2077.88,-2266.99C2122.65,-2260.56 2219.77,-2239.12 2219.77,-2174.25 2219.77,-2174.25 2219.77,-2174.25 2219.77,-1568.43 2219.77,-1451.85 2248.78,-1405.37 2183.77,-1308.6 2086.65,-1164.05 1984.69,-1215.78 1844.77,-1112.1 1828.84,-1100.3 1738.43,-1014.51 1695.02,-973.12"/>
<polygon fill="black" stroke="black" points="1697.51,-970.65 1687.85,-966.28 1692.67,-975.72 1697.51,-970.65"/>
<text xml:space="preserve" text-anchor="middle" x="2224.27" y="-1619.23" font-family="Times,serif" font-size="14.00">0</text>
</g>
<!-- 1 -->
<g id="node3" class="node">
<title>1</title>
<ellipse fill="none" stroke="black" cx="1042.77" cy="-1990.75" rx="27" ry="18"/>
<text xml:space="preserve" text-anchor="middle" x="1042.77" y="-1986.08" font-family="Times,serif" font-size="14.00">1</text>
</g>
<!-- 2 -->
<g id="node4" class="node">
<title>2</title>
<ellipse fill="none" stroke="black" cx="664.77" cy="-1901.5" rx="27" ry="18"/>
<text xml:space="preserve" text-anchor="middle" x="664.77" y="-1896.83" font-family="Times,serif" font-size="14.00">2</text>
</g>
<!-- 1&#45;&gt;2 -->
<g id="edge38" class="edge">
<title>1&#45;&gt;2</title>
<path fill="none" stroke="black" d="M1015.55,-1988.88C948.28,-1986.37 775.85,-1977.83 723.77,-1954.75 708.96,-1948.19 695.23,-1936.53 684.75,-1925.89"/>
<polygon fill="black" stroke="black" points="687.5,-1923.7 678.12,-1918.79 682.39,-1928.48 687.5,-1923.7"/>
<text xml:space="preserve" text-anchor="middle" x="728.27" y="-1941.45" font-family="Times,serif" font-size="14.00">4</text>
</g>
<!-- 5 -->
<g id="node7" class="node">
<title>5</title>
<ellipse fill="none" stroke="black" cx="1326.77" cy="-2080" rx="27" ry="18"/>
<text xml:space="preserve" text-anchor="middle" x="1326.77" y="-2075.33" font-family="Times,serif" font-size="14.00">5</text>
</g>
<!-- 1&#45;&gt;5 -->
<g id="edge79" class="edge">
<title>1&#45;&gt;5</title>
<path fill="none" stroke="black" d="M1066.52,-1999.55C1084.22,-2005.81 1108.7,-2015.4 1128.77,-2026.75 1139.89,-2033.05 1140.1,-2038.79 1151.77,-2044 1196.3,-2063.92 1252.26,-2072.57 1288.74,-2076.29"/>
<polygon fill="black" stroke="black" points="1288.07,-2079.74 1298.35,-2077.19 1288.72,-2072.77 1288.07,-2079.74"/>
<text xml:space="preserve" text-anchor="middle" x="1156.27" y="-2030.7" font-family="Times,serif" font-size="14.00">0</text>
</g>
<!-- 11 -->
<g id="node13" class="node">
<title>11</title>
<ellipse fill="none" stroke="black" cx="1148.77" cy="-285.75" rx="27" ry="18"/>
<text xml:space="preserve" text-anchor="middle" x="1148.77" y="-281.07" font-family="Times,serif" font-size="14.00">11</text>
</g>
<!-- 1&#45;&gt;11 -->
<g id="edge52" class="edge">
<title>1&#45;&gt;11</title>
<path fill="none" stroke="black" d="M1028.56,-1975.36C978.48,-1924.41 811.06,-1752.22 770.77,-1687 630.36,-1459.75 622.77,-1371.6 622.77,-1104.48 622.77,-1104.48 622.77,-1104.48 622.77,-616.83 622.77,-534.01 637.07,-502.59 697.77,-446.25 819.28,-333.44 1025.56,-299.58 1110.49,-290.14"/>
<polygon fill="black" stroke="black" points="1110.8,-293.62 1120.38,-289.09 1110.06,-286.66 1110.8,-293.62"/>
<text xml:space="preserve" text-anchor="middle" x="627.47" y="-1143.43" font-family="Times,serif" font-size="14.00">2</text>
</g>
<!-- 18 -->
<g id="node20" class="node">
<title>18</title>
<ellipse fill="none" stroke="black" cx="1227.77" cy="-662.45" rx="27" ry="18"/>
<text xml:space="preserve" text-anchor="middle" x="1227.77" y="-657.78" font-family="Times,serif" font-size="14.00">18</text>
</g>
<!-- 1&#45;&gt;18 -->
<g id="edge75" class="edge">
<title>1&#45;&gt;18</title>
<path fill="none" stroke="black" d="M1035.77,-1973.13C1020.7,-1935.42 987.18,-1840.32 995.77,-1759 999.56,-1723.02 1012.77,-1715.56 1012.77,-1679.38 1012.77,-1679.38 1012.77,-1679.38 1012.77,-1424.7 1012.77,-1113.86 967.99,-1004.41 1120.77,-733.7 1136.56,-705.72 1168.65,-686.93 1193.59,-675.88"/>
<polygon fill="black" stroke="black" points="1194.84,-679.15 1202.72,-672.07 1192.14,-672.69 1194.84,-679.15"/>
<text xml:space="preserve" text-anchor="middle" x="1016.28" y="-1321.93" font-family="Times,serif" font-size="14.00">3</text>
</g>
<!-- 26 -->
<g id="node28" class="node">
<title>26</title>
<ellipse fill="none" stroke="black" cx="878.77" cy="-474.1" rx="27" ry="18"/>
<text xml:space="preserve" text-anchor="middle" x="878.77" y="-469.43" font-family="Times,serif" font-size="14.00">26</text>
</g>
<!-- 1&#45;&gt;26 -->
<g id="edge133" class="edge">
<title>1&#45;&gt;26</title>
<path fill="none" stroke="black" d="M1015.62,-1989.14C987.37,-1987.08 943.45,-1979.72 915.77,-1954.75 782.3,-1834.39 826.02,-1748.41 768.77,-1578.05 686.16,-1332.27 736.77,-1254.82 736.77,-995.53 736.77,-995.53 736.77,-995.53 736.77,-572.2 736.77,-521.18 800,-495.01 842.08,-483.25"/>
<polygon fill="black" stroke="black" points="842.8,-486.68 851.59,-480.75 841.03,-479.91 842.8,-486.68"/>
<text xml:space="preserve" text-anchor="middle" x="730.24" y="-1232.68" font-family="Times,serif" font-size="14.00">1</text>
</g>
<!-- 2&#45;&gt;2 -->
<g id="edge81" class="edge">
<title>2&#45;&gt;2</title>
<path fill="none" stroke="black" d="M689.3,-1909.74C700.27,-1910.52 709.77,-1907.78 709.77,-1901.5 709.77,-1897.58 706.06,-1895.04 700.6,-1893.87"/>
<polygon fill="black" stroke="black" points="700.98,-1890.39 690.81,-1893.35 700.61,-1897.38 700.98,-1890.39"/>
<text xml:space="preserve" text-anchor="middle" x="714.27" y="-1896.83" font-family="Times,serif" font-size="14.00">0</text>
</g>
<!-- 2&#45;&gt;6 -->
<g id="edge86" class="edge">
<title>2&#45;&gt;6</title>
<path fill="none" stroke="black" d="M671.32,-1919.26C676.37,-1930.43 684.27,-1944.84 694.77,-1954.75 823.76,-2076.53 880.04,-2088.75 1051.77,-2133.25 1136.24,-2155.15 1760.43,-2168.63 1913.13,-2171.62"/>
<polygon fill="black" stroke="black" points="1912.9,-2175.11 1922.96,-2171.81 1913.03,-2168.12 1912.9,-2175.11"/>
<text xml:space="preserve" text-anchor="middle" x="807.87" y="-2030.7" font-family="Times,serif" font-size="14.00">1</text>
</g>
<!-- 17 -->
<g id="node19" class="node">
<title>17</title>
<ellipse fill="none" stroke="black" cx="177.77" cy="-107.25" rx="27" ry="18"/>
<text xml:space="preserve" text-anchor="middle" x="177.77" y="-102.58" font-family="Times,serif" font-size="14.00">17</text>
</g>
<!-- 2&#45;&gt;17 -->
<g id="edge90" class="edge">
<title>2&#45;&gt;17</title>
<path fill="none" stroke="black" d="M639.96,-1893.89C589.24,-1879.42 471.88,-1840.98 393.77,-1776.25 302.81,-1700.89 195.77,-1401.09 195.77,-1282.98 195.77,-1282.98 195.77,-1282.98 195.77,-1102.48 195.77,-1015.24 189.77,-993.52 189.77,-906.28 189.77,-906.28 189.77,-906.28 189.77,-195.5 189.77,-175.62 186.67,-153.43 183.63,-136.41"/>
<polygon fill="black" stroke="black" points="187.15,-136.19 181.84,-127.02 180.27,-137.5 187.15,-136.19"/>
<text xml:space="preserve" text-anchor="middle" x="197.17" y="-989.85" font-family="Times,serif" font-size="14.00">3</text>
</g>
<!-- 28 -->
<g id="node30" class="node">
<title>28</title>
<ellipse fill="none" stroke="black" cx="1579.77" cy="-1623.9" rx="23.85" ry="23.85"/>
<ellipse fill="none" stroke="black" cx="1579.77" cy="-1623.9" rx="27.85" ry="27.85"/>
<text xml:space="preserve" text-anchor="middle" x="1579.77" y="-1619.23" font-family="Times,serif" font-size="14.00">28</text>
</g>
<!-- 2&#45;&gt;28 -->
<g id="edge93" class="edge">
<title>2&#45;&gt;28</title>
<path fill="none" stroke="black" d="M691.77,-1898.47C738.51,-1894.58 837.31,-1884.7 918.77,-1865.5 1046.28,-1835.45 1424.34,-1686.77 1543.42,-1639.42"/>
<polygon fill="black" stroke="black" points="1544.4,-1642.8 1552.4,-1635.85 1541.81,-1636.29 1544.4,-1642.8"/>
<text xml:space="preserve" text-anchor="middle" x="1235.47" y="-1762.95" font-family="Times,serif" font-size="14.00">2</text>
</g>
<!-- 29 -->
<g id="node31" class="node">
<title>29</title>
<ellipse fill="none" stroke="black" cx="620.77" cy="-1812.25" rx="27" ry="18"/>
<text xml:space="preserve" text-anchor="middle" x="620.77" y="-1807.58" font-family="Times,serif" font-size="14.00">29</text>
</g>
<!-- 2&#45;&gt;29 -->
<g id="edge48" class="edge">
<title>2&#45;&gt;29</title>
<path fill="none" stroke="black" d="M656.49,-1884.09C650.16,-1871.54 641.31,-1853.98 634,-1839.49"/>
<polygon fill="black" stroke="black" points="637.31,-1838.29 629.69,-1830.94 631.06,-1841.45 637.31,-1838.29"/>
<text xml:space="preserve" text-anchor="middle" x="651.21" y="-1852.2" font-family="Times,serif" font-size="14.00">4</text>
</g>
<!-- 3 -->
<g id="node5" class="node">
<title>3</title>
<ellipse fill="none" stroke="black" cx="1932.77" cy="-1326.6" rx="27" ry="18"/>
<text xml:space="preserve" text-anchor="middle" x="1932.77" y="-1321.93" font-family="Times,serif" font-size="14.00">3</text>
</g>
<!-- 4 -->
<g id="node6" class="node">
<title>4</title>
<ellipse fill="none" stroke="black" cx="1892.77" cy="-1524.8" rx="27" ry="18"/>
<text xml:space="preserve" text-anchor="middle" x="1892.77" y="-1520.13" font-family="Times,serif" font-size="14.00">4</text>
</g>
<!-- 3&#45;&gt;4 -->
<g id="edge41" class="edge">
<title>3&#45;&gt;4</title>
<path fill="none" stroke="black" d="M1923.7,-1343.78C1916.4,-1357.66 1906.59,-1378.45 1901.77,-1397.85 1893.65,-1430.55 1892.03,-1469.37 1892.04,-1495.19"/>
<polygon fill="black" stroke="black" points="1888.53,-1494.92 1892.13,-1504.88 1895.53,-1494.85 1888.53,-1494.92"/>
<text xml:space="preserve" text-anchor="middle" x="1906.27" y="-1421.03" font-family="Times,serif" font-size="14.00">4</text>
</g>
<!-- 3&#45;&gt;7 -->
<g id="edge23" class="edge">
<title>3&#45;&gt;7</title>
<path fill="none" stroke="black" d="M1960.01,-1324.54C1988.47,-1322.12 2033.05,-1314.45 2062.77,-1290.6 2134.28,-1233.21 2151.77,-1196.17 2151.77,-1104.48 2151.77,-1104.48 2151.77,-1104.48 2151.77,-904.28 2151.77,-754.84 2215.77,-723.63 2215.77,-574.2 2215.77,-574.2 2215.77,-574.2 2215.77,-284.75 2215.77,-227 1757.9,-222.89 1700.77,-214.5 1677.27,-211.05 1650.93,-206.91 1630.16,-203.58"/>
<polygon fill="black" stroke="black" points="1630.85,-200.15 1620.43,-202.01 1629.74,-207.06 1630.85,-200.15"/>
<text xml:space="preserve" text-anchor="middle" x="2190.18" y="-756.88" font-family="Times,serif" font-size="14.00">1</text>
</g>
<!-- 3&#45;&gt;12 -->
<g id="edge18" class="edge">
<title>3&#45;&gt;12</title>
<path fill="none" stroke="black" d="M1933.69,-1308.25C1936.78,-1253.02 1947.83,-1076.47 1969.77,-931.9 1979.48,-867.91 1987.9,-853.03 1999.77,-789.4 2012.18,-722.83 2024.34,-644.19 2030.53,-602.88"/>
<polygon fill="black" stroke="black" points="2033.99,-603.45 2032,-593.04 2027.06,-602.41 2033.99,-603.45"/>
<text xml:space="preserve" text-anchor="middle" x="1974.27" y="-945.23" font-family="Times,serif" font-size="14.00">0</text>
</g>
<!-- 20 -->
<g id="node22" class="node">
<title>20</title>
<ellipse fill="none" stroke="black" cx="1800.77" cy="-1237.35" rx="27" ry="18"/>
<text xml:space="preserve" text-anchor="middle" x="1800.77" y="-1232.68" font-family="Times,serif" font-size="14.00">20</text>
</g>
<!-- 3&#45;&gt;20 -->
<g id="edge78" class="edge">
<title>3&#45;&gt;20</title>
<path fill="none" stroke="black" d="M1908.19,-1318.5C1890.64,-1312.71 1867.01,-1303.39 1848.77,-1290.6 1837.76,-1282.89 1827.41,-1272.26 1819.17,-1262.6"/>
<polygon fill="black" stroke="black" points="1821.94,-1260.46 1812.91,-1254.93 1816.52,-1264.89 1821.94,-1260.46"/>
<text xml:space="preserve" text-anchor="middle" x="1853.27" y="-1277.3" font-family="Times,serif" font-size="14.00">3</text>
</g>
<!-- 3&#45;&gt;23 -->
<g id="edge2" class="edge">
<title>3&#45;&gt;23</title>
<path fill="none" stroke="black" d="M1917.65,-1311.4C1911.3,-1305.2 1903.97,-1297.74 1897.77,-1290.6 1819.75,-1200.83 1800.04,-1177.56 1736.77,-1076.85 1725.58,-1059.05 1700.37,-1008.91 1684.84,-977.52"/>
<polygon fill="black" stroke="black" points="1688.03,-976.06 1680.46,-968.65 1681.75,-979.16 1688.03,-976.06"/>
<text xml:space="preserve" text-anchor="middle" x="1799.64" y="-1143.43" font-family="Times,serif" font-size="14.00">2</text>
</g>
<!-- 4&#45;&gt;5 -->
<g id="edge114" class="edge">
<title>4&#45;&gt;5</title>
<path fill="none" stroke="black" d="M1881.56,-1541.44C1869.42,-1559.95 1851.77,-1592.16 1851.77,-1622.9 1851.77,-1991.75 1851.77,-1991.75 1851.77,-1991.75 1851.77,-2018.98 1843.04,-2029.86 1819.77,-2044 1781.34,-2067.36 1475.23,-2075.93 1365.63,-2078.27"/>
<polygon fill="black" stroke="black" points="1365.6,-2074.77 1355.67,-2078.48 1365.74,-2081.77 1365.6,-2074.77"/>
<text xml:space="preserve" text-anchor="middle" x="1856.27" y="-1807.58" font-family="Times,serif" font-size="14.00">3</text>
</g>
<!-- 4&#45;&gt;6 -->
<g id="edge72" class="edge">
<title>4&#45;&gt;6</title>
<path fill="none" stroke="black" d="M1907.24,-1540.53C1923.23,-1558.43 1946.77,-1590.3 1946.77,-1622.9 1946.77,-2081 1946.77,-2081 1946.77,-2081 1946.77,-2100.44 1946.77,-2122.2 1946.77,-2139.6"/>
<polygon fill="black" stroke="black" points="1943.27,-2139.35 1946.77,-2149.35 1950.27,-2139.35 1943.27,-2139.35"/>
<text xml:space="preserve" text-anchor="middle" x="1951.27" y="-1852.2" font-family="Times,serif" font-size="14.00">1</text>
</g>
<!-- 4&#45;&gt;7 -->
<g id="edge119" class="edge">
<title>4&#45;&gt;7</title>
<path fill="none" stroke="black" d="M1915.87,-1515.11C1945.62,-1503.39 1998.29,-1480.82 2038.77,-1453.55 2098.51,-1413.31 2115.68,-1402.33 2158.77,-1344.6 2303.86,-1150.21 2253.77,-762.68 2253.77,-618.83 2253.77,-618.83 2253.77,-618.83 2253.77,-284.75 2253.77,-182.93 1956.96,-240.54 1700.77,-214.5 1676.98,-212.08 1650.45,-207.93 1629.64,-204.33"/>
<polygon fill="black" stroke="black" points="1630.36,-200.9 1619.9,-202.61 1629.14,-207.8 1630.36,-200.9"/>
<text xml:space="preserve" text-anchor="middle" x="2266.6" y="-855.98" font-family="Times,serif" font-size="14.00">4</text>
</g>
<!-- 4&#45;&gt;14 -->
<g id="edge64" class="edge">
<title>4&#45;&gt;14</title>
<path fill="none" stroke="black" d="M1899.61,-1506.96C1904.07,-1496.54 1910.25,-1483 1916.77,-1471.55 1919.31,-1467.08 1922.17,-1462.49 1925.1,-1458.03"/>
<polygon fill="black" stroke="black" points="1927.95,-1460.06 1930.68,-1449.82 1922.16,-1456.12 1927.95,-1460.06"/>
<text xml:space="preserve" text-anchor="middle" x="1921.27" y="-1475.5" font-family="Times,serif" font-size="14.00">0</text>
</g>
<!-- 4&#45;&gt;28 -->
<g id="edge84" class="edge">
<title>4&#45;&gt;28</title>
<path fill="none" stroke="black" d="M1867.97,-1532.47C1842.88,-1539.29 1803,-1550.35 1768.77,-1560.8 1761.29,-1563.09 1669.79,-1593.22 1616.9,-1610.66"/>
<polygon fill="black" stroke="black" points="1616.08,-1607.24 1607.68,-1613.7 1618.27,-1613.89 1616.08,-1607.24"/>
<text xml:space="preserve" text-anchor="middle" x="1773.27" y="-1564.75" font-family="Times,serif" font-size="14.00">2</text>
</g>
<!-- 5&#45;&gt;1 -->
<g id="edge24" class="edge">
<title>5&#45;&gt;1</title>
<path fill="none" stroke="black" d="M1299.48,-2078.45C1258.76,-2076.75 1180.39,-2070.03 1119.77,-2044 1108.02,-2038.96 1107.24,-2034.07 1096.77,-2026.75 1088.69,-2021.12 1079.77,-2015.21 1071.55,-2009.89"/>
<polygon fill="black" stroke="black" points="1073.55,-2007.02 1063.24,-2004.57 1069.77,-2012.91 1073.55,-2007.02"/>
<text xml:space="preserve" text-anchor="middle" x="1124.27" y="-2030.7" font-family="Times,serif" font-size="14.00">1</text>
</g>
<!-- 5&#45;&gt;4 -->
<g id="edge89" class="edge">
<title>5&#45;&gt;4</title>
<path fill="none" stroke="black" d="M1354.19,-2078.71C1457.83,-2077.39 1821.95,-2070.87 1865.77,-2044 1888.78,-2029.89 1896.77,-2018.75 1896.77,-1991.75 1896.77,-1991.75 1896.77,-1991.75 1896.77,-1622.9 1896.77,-1599.82 1895.62,-1573.67 1894.56,-1554.33"/>
<polygon fill="black" stroke="black" points="1898.06,-1554.27 1893.99,-1544.49 1891.07,-1554.68 1898.06,-1554.27"/>
<text xml:space="preserve" text-anchor="middle" x="1901.27" y="-1807.58" font-family="Times,serif" font-size="14.00">2</text>
</g>
<!-- 8 -->
<g id="node10" class="node">
<title>8</title>
<ellipse fill="none" stroke="black" cx="974.77" cy="-573.2" rx="27" ry="18"/>
<text xml:space="preserve" text-anchor="middle" x="974.77" y="-568.53" font-family="Times,serif" font-size="14.00">8</text>
</g>
<!-- 5&#45;&gt;8 -->
<g id="edge3" class="edge">
<title>5&#45;&gt;8</title>
<path fill="none" stroke="black" d="M1306.87,-2067.25C1302.95,-2065.28 1298.8,-2063.42 1294.77,-2062 1253.8,-2047.66 1234.96,-2067.96 1198.77,-2044 1119.47,-1991.51 974.77,-1774.47 974.77,-1679.38 974.77,-1679.38 974.77,-1679.38 974.77,-1523.8 974.77,-1247.28 898.77,-1182.8 898.77,-906.28 898.77,-906.28 898.77,-906.28 898.77,-661.45 898.77,-635.9 906.22,-628.67 922.77,-609.2 928.65,-602.28 936.22,-596.16 943.75,-591.04"/>
<polygon fill="black" stroke="black" points="945.61,-594.01 952.21,-585.72 941.88,-588.08 945.61,-594.01"/>
<text xml:space="preserve" text-anchor="middle" x="966.59" y="-1321.93" font-family="Times,serif" font-size="14.00">3</text>
</g>
<!-- 5&#45;&gt;8 -->
<g id="edge141" class="edge">
<title>5&#45;&gt;8</title>
<path fill="none" stroke="black" d="M1313.41,-2063.89C1270.16,-2013.36 1136.77,-1844.16 1136.77,-1679.38 1136.77,-1679.38 1136.77,-1679.38 1136.77,-1479.18 1136.77,-1361.32 1115.86,-1332.76 1083.77,-1219.35 1031.93,-1036.17 936.77,-1007.4 936.77,-817.03 936.77,-817.03 936.77,-817.03 936.77,-661.45 936.77,-639.15 947.33,-616.11 957.32,-599.31"/>
<polygon fill="black" stroke="black" points="960.19,-601.32 962.56,-591 954.26,-597.59 960.19,-601.32"/>
<text xml:space="preserve" text-anchor="middle" x="1125.83" y="-1321.93" font-family="Times,serif" font-size="14.00">4</text>
</g>
<!-- 5&#45;&gt;14 -->
<g id="edge108" class="edge">
<title>5&#45;&gt;14</title>
<path fill="none" stroke="black" d="M1354.06,-2078.24C1411,-2076.18 1546.32,-2068.87 1656.77,-2044 1725.23,-2028.59 1805.77,-2061.93 1805.77,-1991.75 1805.77,-1991.75 1805.77,-1991.75 1805.77,-1811.25 1805.77,-1674.06 1787.48,-1625.22 1856.77,-1506.8 1860.86,-1499.81 1892.99,-1472.21 1917.93,-1451.35"/>
<polygon fill="black" stroke="black" points="1920.12,-1454.08 1925.56,-1444.99 1915.64,-1448.71 1920.12,-1454.08"/>
<text xml:space="preserve" text-anchor="middle" x="1809.87" y="-1762.95" font-family="Times,serif" font-size="14.00">0</text>
</g>
<!-- 6&#45;&gt;0 -->
<g id="edge80" class="edge">
<title>6&#45;&gt;0</title>
<path fill="none" stroke="black" d="M1954.58,-2194.13C1959.98,-2205.86 1968.11,-2220.35 1978.77,-2230.5 1991.69,-2242.81 2009.25,-2252.11 2024.34,-2258.53"/>
<polygon fill="black" stroke="black" points="2022.8,-2261.69 2033.38,-2262.14 2025.39,-2255.19 2022.8,-2261.69"/>
<text xml:space="preserve" text-anchor="middle" x="1983.27" y="-2217.2" font-family="Times,serif" font-size="14.00">4</text>
</g>
<!-- 6&#45;&gt;1 -->
<g id="edge49" class="edge">
<title>6&#45;&gt;1</title>
<path fill="none" stroke="black" d="M1924.41,-2171.9C1791.37,-2169.73 1108.42,-2157.43 1071.77,-2133.25 1035.9,-2109.6 1035.05,-2054.25 1038.41,-2020.2"/>
<polygon fill="black" stroke="black" points="1041.84,-2020.99 1039.55,-2010.64 1034.89,-2020.16 1041.84,-2020.99"/>
<text xml:space="preserve" text-anchor="middle" x="1049.48" y="-2075.33" font-family="Times,serif" font-size="14.00">1</text>
</g>
<!-- 6&#45;&gt;1 -->
<g id="edge66" class="edge">
<title>6&#45;&gt;1</title>
<path fill="none" stroke="black" d="M1924.43,-2171.26C1839.74,-2167.18 1530.63,-2149.4 1281.77,-2098 1199.14,-2080.94 1173.19,-2085.57 1099.77,-2044 1086.26,-2036.36 1073.32,-2024.96 1063.2,-2014.76"/>
<polygon fill="black" stroke="black" points="1065.89,-2012.5 1056.45,-2007.67 1060.82,-2017.33 1065.89,-2012.5"/>
<text xml:space="preserve" text-anchor="middle" x="1286.27" y="-2075.33" font-family="Times,serif" font-size="14.00">0</text>
</g>
<!-- 6&#45;&gt;3 -->
<g id="edge55" class="edge">
<title>6&#45;&gt;3</title>
<path fill="none" stroke="black" d="M1957.45,-2153.61C1993.09,-2091.08 2105.77,-1890.83 2105.77,-1857.88 2105.77,-1857.88 2105.77,-1857.88 2105.77,-1424.7 2105.77,-1363.19 2021.57,-1340.25 1970.66,-1332"/>
<polygon fill="black" stroke="black" points="1971.32,-1328.56 1960.92,-1330.55 1970.29,-1335.48 1971.32,-1328.56"/>
<text xml:space="preserve" text-anchor="middle" x="2110.27" y="-1762.95" font-family="Times,serif" font-size="14.00">2</text>
</g>
<!-- 6&#45;&gt;5 -->
<g id="edge103" class="edge">
<title>6&#45;&gt;5</title>
<path fill="none" stroke="black" d="M1924.7,-2169.01C1832.94,-2155.5 1480.9,-2103.69 1364.43,-2086.55"/>
<polygon fill="black" stroke="black" points="1365.18,-2083.12 1354.78,-2085.13 1364.16,-2090.05 1365.18,-2083.12"/>
<text xml:space="preserve" text-anchor="middle" x="1678.39" y="-2119.95" font-family="Times,serif" font-size="14.00">3</text>
</g>
<!-- 7&#45;&gt;1 -->
<g id="edge12" class="edge">
<title>7&#45;&gt;1</title>
<path fill="none" stroke="black" d="M1565.59,-199.26C1404.02,-210.1 576.77,-270.61 576.77,-374 576.77,-1104.48 576.77,-1104.48 576.77,-1104.48 576.77,-1261.97 574.01,-1309.54 637.77,-1453.55 748.02,-1702.62 863.68,-1710.21 1013.77,-1937.5 1019.15,-1945.66 1024.5,-1954.89 1029.11,-1963.3"/>
<polygon fill="black" stroke="black" points="1025.98,-1964.87 1033.79,-1972.03 1032.15,-1961.57 1025.98,-1964.87"/>
<text xml:space="preserve" text-anchor="middle" x="581.27" y="-1098.8" font-family="Times,serif" font-size="14.00">1</text>
</g>
<!-- 24 -->
<g id="node26" class="node">
<title>24</title>
<ellipse fill="none" stroke="black" cx="1660.77" cy="-860.65" rx="27" ry="18"/>
<text xml:space="preserve" text-anchor="middle" x="1660.77" y="-855.98" font-family="Times,serif" font-size="14.00">24</text>
</g>
<!-- 7&#45;&gt;24 -->
<g id="edge19" class="edge">
<title>7&#45;&gt;24</title>
<path fill="none" stroke="black" d="M1592.77,-214.88C1592.77,-232.49 1592.77,-260.51 1592.77,-284.75 1592.77,-529.58 1592.77,-529.58 1592.77,-529.58 1592.77,-662.9 1609.82,-696.55 1646.77,-824.65 1647.52,-827.25 1648.39,-829.92 1649.32,-832.58"/>
<polygon fill="black" stroke="black" points="1645.99,-833.66 1652.84,-841.74 1652.53,-831.15 1645.99,-833.66"/>
<text xml:space="preserve" text-anchor="middle" x="1597.27" y="-523.9" font-family="Times,serif" font-size="14.00">2</text>
</g>
<!-- 7&#45;&gt;24 -->
<g id="edge129" class="edge">
<title>7&#45;&gt;24</title>
<path fill="none" stroke="black" d="M1613.71,-207.9C1638.3,-221.77 1675.77,-248.79 1675.77,-284.75 1675.77,-529.58 1675.77,-529.58 1675.77,-529.58 1675.77,-641.27 1667.09,-774.01 1662.93,-831.16"/>
<polygon fill="black" stroke="black" points="1659.45,-830.74 1662.21,-840.97 1666.44,-831.26 1659.45,-830.74"/>
<text xml:space="preserve" text-anchor="middle" x="1680.27" y="-523.9" font-family="Times,serif" font-size="14.00">3</text>
</g>
<!-- 7&#45;&gt;28 -->
<g id="edge39" class="edge">
<title>7&#45;&gt;28</title>
<path fill="none" stroke="black" d="M1569.21,-205.72C1556.85,-211.3 1542.68,-219.97 1534.77,-232.5 1457.8,-354.35 1509.89,-411.25 1502.77,-555.2 1501.2,-586.83 1499.83,-594.92 1502.77,-626.45 1514.82,-755.88 1529.58,-786.79 1556.77,-913.9 1579.06,-1018.14 1612.77,-1040.51 1612.77,-1147.1 1612.77,-1525.8 1612.77,-1525.8 1612.77,-1525.8 1612.77,-1547.43 1605.34,-1570.4 1597.53,-1588.56"/>
<polygon fill="black" stroke="black" points="1594.39,-1587 1593.44,-1597.55 1600.76,-1589.9 1594.39,-1587"/>
<text xml:space="preserve" text-anchor="middle" x="1561.27" y="-900.6" font-family="Times,serif" font-size="14.00">4</text>
</g>
<!-- 7&#45;&gt;28 -->
<g id="edge73" class="edge">
<title>7&#45;&gt;28</title>
<path fill="none" stroke="black" d="M1588.36,-214.68C1584.97,-228.82 1580.57,-249.43 1578.77,-267.75 1568.54,-371.34 1573.9,-397.98 1578.77,-501.95 1589.22,-725.44 1600.61,-780.84 1625.77,-1003.15 1635.27,-1087.16 1650.77,-1107.18 1650.77,-1191.73 1650.77,-1525.8 1650.77,-1525.8 1650.77,-1525.8 1650.77,-1554.96 1629.65,-1581.19 1610.45,-1599.02"/>
<polygon fill="black" stroke="black" points="1608.17,-1596.37 1602.98,-1605.6 1612.79,-1601.62 1608.17,-1596.37"/>
<text xml:space="preserve" text-anchor="middle" x="1619.91" y="-900.6" font-family="Times,serif" font-size="14.00">0</text>
</g>
<!-- 8&#45;&gt;5 -->
<g id="edge61" class="edge">
<title>8&#45;&gt;5</title>
<path fill="none" stroke="black" d="M974.77,-591.58C974.77,-609.19 974.77,-637.21 974.77,-661.45 974.77,-817.03 974.77,-817.03 974.77,-817.03 974.77,-952.43 1051.32,-968.42 1099.77,-1094.85 1129.57,-1172.62 1138.29,-1192.15 1156.77,-1273.35 1206.83,-1493.4 1175.61,-1556.46 1226.77,-1776.25 1250.96,-1880.22 1295.45,-1999.36 1315.93,-2051.8"/>
<polygon fill="black" stroke="black" points="1312.56,-2052.81 1319.48,-2060.83 1319.08,-2050.24 1312.56,-2052.81"/>
<text xml:space="preserve" text-anchor="middle" x="1175.7" y="-1321.93" font-family="Times,serif" font-size="14.00">1</text>
</g>
<!-- 8&#45;&gt;11 -->
<g id="edge9" class="edge">
<title>8&#45;&gt;11</title>
<path fill="none" stroke="black" d="M1002.08,-572.59C1031.12,-571.45 1076.3,-564.89 1101.77,-537.2 1158.89,-475.11 1156.98,-366.53 1152.3,-315.19"/>
<polygon fill="black" stroke="black" points="1155.81,-315.1 1151.3,-305.51 1148.85,-315.82 1155.81,-315.1"/>
<text xml:space="preserve" text-anchor="middle" x="1155.93" y="-414.95" font-family="Times,serif" font-size="14.00">0</text>
</g>
<!-- 8&#45;&gt;11 -->
<g id="edge13" class="edge">
<title>8&#45;&gt;11</title>
<path fill="none" stroke="black" d="M984.62,-556.04C1013.45,-508.74 1097.82,-370.32 1133.04,-312.55"/>
<polygon fill="black" stroke="black" points="1136.02,-314.39 1138.23,-304.03 1130.04,-310.75 1136.02,-314.39"/>
<text xml:space="preserve" text-anchor="middle" x="1076.28" y="-414.95" font-family="Times,serif" font-size="14.00">4</text>
</g>
<!-- 8&#45;&gt;26 -->
<g id="edge59" class="edge">
<title>8&#45;&gt;26</title>
<path fill="none" stroke="black" d="M960.6,-557.87C944.86,-541.95 919.25,-516.04 900.86,-497.45"/>
<polygon fill="black" stroke="black" points="903.57,-495.21 894.05,-490.56 898.59,-500.13 903.57,-495.21"/>
<text xml:space="preserve" text-anchor="middle" x="942.69" y="-523.9" font-family="Times,serif" font-size="14.00">3</text>
</g>
<!-- 8&#45;&gt;29 -->
<g id="edge132" class="edge">
<title>8&#45;&gt;29</title>
<path fill="none" stroke="black" d="M947.95,-577C903.35,-583.3 818.77,-602.96 818.77,-661.45 818.77,-1149.1 818.77,-1149.1 818.77,-1149.1 818.77,-1247.44 810.77,-1271.88 810.77,-1370.23 810.77,-1570.43 810.77,-1570.43 810.77,-1570.43 810.77,-1608.11 807.77,-1620.46 786.77,-1651.75 772.8,-1672.56 764.95,-1675.36 742.77,-1687 718.12,-1699.94 704.64,-1687.78 682.77,-1705 668.92,-1715.91 647.15,-1756.93 633.43,-1784.7"/>
<polygon fill="black" stroke="black" points="630.33,-1783.07 629.09,-1793.59 636.62,-1786.13 630.33,-1783.07"/>
<text xml:space="preserve" text-anchor="middle" x="822.86" y="-1188.05" font-family="Times,serif" font-size="14.00">2</text>
</g>
<!-- 9 -->
<g id="node11" class="node">
<title>9</title>
<ellipse fill="none" stroke="black" cx="1422.77" cy="-1723" rx="27" ry="18"/>
<text xml:space="preserve" text-anchor="middle" x="1422.77" y="-1718.33" font-family="Times,serif" font-size="14.00">9</text>
</g>
<!-- 9&#45;&gt;0 -->
<g id="edge32" class="edge">
<title>9&#45;&gt;0</title>
<path fill="none" stroke="black" d="M1442.96,-1735.54C1529.42,-1785.1 1868.28,-1981.13 1960.77,-2062 1984.28,-2082.57 1990.66,-2088.66 2005.77,-2116 2027.5,-2155.33 2041.62,-2205.6 2049.14,-2237.68"/>
<polygon fill="black" stroke="black" points="2045.66,-2238.17 2051.28,-2247.15 2052.49,-2236.62 2045.66,-2238.17"/>
<text xml:space="preserve" text-anchor="middle" x="1892.36" y="-1986.08" font-family="Times,serif" font-size="14.00">4</text>
</g>
<!-- 9&#45;&gt;5 -->
<g id="edge95" class="edge">
<title>9&#45;&gt;5</title>
<path fill="none" stroke="black" d="M1420.87,-1741.36C1419.11,-1758.95 1416.77,-1786.96 1416.77,-1811.25 1416.77,-1991.75 1416.77,-1991.75 1416.77,-1991.75 1416.77,-2024.99 1384.73,-2049.62 1358.89,-2064.09"/>
<polygon fill="black" stroke="black" points="1357.56,-2060.83 1350.35,-2068.6 1360.83,-2067.02 1357.56,-2060.83"/>
<text xml:space="preserve" text-anchor="middle" x="1421.27" y="-1896.83" font-family="Times,serif" font-size="14.00">3</text>
</g>
<!-- 15 -->
<g id="node17" class="node">
<title>15</title>
<ellipse fill="none" stroke="black" cx="1730.77" cy="-375" rx="27" ry="18"/>
<text xml:space="preserve" text-anchor="middle" x="1730.77" y="-370.32" font-family="Times,serif" font-size="14.00">15</text>
</g>
<!-- 9&#45;&gt;15 -->
<g id="edge4" class="edge">
<title>9&#45;&gt;15</title>
<path fill="none" stroke="black" d="M1449.85,-1721.39C1496.36,-1718.84 1591.46,-1706.74 1643.77,-1651.75 1697.81,-1594.95 1688.77,-1559.58 1688.77,-1481.18 1688.77,-1481.18 1688.77,-1481.18 1688.77,-1191.73 1688.77,-1049.34 1731.21,-1018.73 1756.77,-878.65 1761.12,-854.78 1761.96,-848.75 1764.77,-824.65 1771.26,-768.92 1767.99,-754.56 1767.77,-698.45 1767.32,-586.36 1777.18,-557.76 1765.77,-446.25 1764.14,-430.36 1765.5,-425.48 1758.77,-411 1756.95,-407.1 1754.62,-403.26 1752.07,-399.62"/>
<polygon fill="black" stroke="black" points="1754.88,-397.54 1745.98,-391.8 1749.36,-401.84 1754.88,-397.54"/>
<text xml:space="preserve" text-anchor="middle" x="1721.79" y="-1044.33" font-family="Times,serif" font-size="14.00">2</text>
</g>
<!-- 16 -->
<g id="node18" class="node">
<title>16</title>
<ellipse fill="none" stroke="black" cx="1276.77" cy="-1049" rx="23.85" ry="23.85"/>
<ellipse fill="none" stroke="black" cx="1276.77" cy="-1049" rx="27.85" ry="27.85"/>
<text xml:space="preserve" text-anchor="middle" x="1276.77" y="-1044.33" font-family="Times,serif" font-size="14.00">16</text>
</g>
<!-- 9&#45;&gt;16 -->
<g id="edge128" class="edge">
<title>9&#45;&gt;16</title>
<path fill="none" stroke="black" d="M1414.51,-1705.65C1401.52,-1678.37 1377.77,-1621.49 1377.77,-1570.43 1377.77,-1570.43 1377.77,-1570.43 1377.77,-1280.98 1377.77,-1260.23 1322.36,-1143.5 1293.62,-1084.36"/>
<polygon fill="black" stroke="black" points="1296.94,-1083.18 1289.41,-1075.72 1290.64,-1086.24 1296.94,-1083.18"/>
<text xml:space="preserve" text-anchor="middle" x="1382.27" y="-1366.55" font-family="Times,serif" font-size="14.00">0</text>
</g>
<!-- 9&#45;&gt;28 -->
<g id="edge8" class="edge">
<title>9&#45;&gt;28</title>
<path fill="none" stroke="black" d="M1442.02,-1710.1C1468.02,-1694.01 1514.78,-1665.1 1546.53,-1645.46"/>
<polygon fill="black" stroke="black" points="1548.31,-1648.47 1554.97,-1640.24 1544.63,-1642.52 1548.31,-1648.47"/>
<text xml:space="preserve" text-anchor="middle" x="1510.47" y="-1673.7" font-family="Times,serif" font-size="14.00">1</text>
</g>
<!-- 10 -->
<g id="node12" class="node">
<title>10</title>
<ellipse fill="none" stroke="black" cx="584.77" cy="-18" rx="27" ry="18"/>
<text xml:space="preserve" text-anchor="middle" x="584.77" y="-13.32" font-family="Times,serif" font-size="14.00">10</text>
</g>
<!-- 10&#45;&gt;4 -->
<g id="edge35" class="edge">
<title>10&#45;&gt;4</title>
<path fill="none" stroke="black" d="M612.04,-18.82C839.56,-17.51 2413.77,-11.87 2413.77,-106.25 2413.77,-708.08 2413.77,-708.08 2413.77,-708.08 2413.77,-797.64 2367.77,-814.71 2367.77,-904.28 2367.77,-1193.73 2367.77,-1193.73 2367.77,-1193.73 2367.77,-1282.26 2363.92,-1322.16 2296.77,-1379.85 2185.97,-1475.04 2007.73,-1508.87 1930.49,-1519.49"/>
<polygon fill="black" stroke="black" points="1930.37,-1515.97 1920.91,-1520.75 1931.28,-1522.91 1930.37,-1515.97"/>
<text xml:space="preserve" text-anchor="middle" x="2416.69" y="-756.88" font-family="Times,serif" font-size="14.00">2</text>
</g>
<!-- 10&#45;&gt;6 -->
<g id="edge113" class="edge">
<title>10&#45;&gt;6</title>
<path fill="none" stroke="black" d="M612.06,-18.85C801.78,-17.88 1926.41,-13.93 2265.77,-54 2418.29,-72.01 2489.77,-91.66 2489.77,-106.25 2489.77,-1372.23 2489.77,-1372.23 2489.77,-1372.23 2489.77,-1408.92 2408.32,-1655.34 2389.77,-1687 2329.27,-1790.23 2283.62,-1792.65 2205.77,-1883.5 2113.77,-1990.86 2114.87,-2039.83 2008.77,-2133.25 1998.93,-2141.91 1986.96,-2149.92 1976.18,-2156.4"/>
<polygon fill="black" stroke="black" points="1974.52,-2153.32 1967.62,-2161.35 1978.03,-2159.37 1974.52,-2153.32"/>
<text xml:space="preserve" text-anchor="middle" x="2494.27" y="-1098.8" font-family="Times,serif" font-size="14.00">0</text>
</g>
<!-- 10&#45;&gt;10 -->
<g id="edge99" class="edge">
<title>10&#45;&gt;10</title>
<path fill="none" stroke="black" d="M609.3,-26.24C620.27,-27.02 629.77,-24.28 629.77,-18 629.77,-14.08 626.06,-11.53 620.6,-10.37"/>
<polygon fill="black" stroke="black" points="620.98,-6.89 610.81,-9.84 620.61,-13.88 620.98,-6.89"/>
<text xml:space="preserve" text-anchor="middle" x="634.27" y="-13.32" font-family="Times,serif" font-size="14.00">4</text>
</g>
<!-- 10&#45;&gt;26 -->
<g id="edge107" class="edge">
<title>10&#45;&gt;26</title>
<path fill="none" stroke="black" d="M597.37,-34.33C609.74,-50.97 626.77,-78.85 626.77,-106.25 626.77,-376 626.77,-376 626.77,-376 626.77,-421.52 771.77,-453.85 841.79,-466.81"/>
<polygon fill="black" stroke="black" points="840.79,-470.19 851.26,-468.53 842.04,-463.3 840.79,-470.19"/>
<text xml:space="preserve" text-anchor="middle" x="631.27" y="-236.45" font-family="Times,serif" font-size="14.00">1</text>
</g>
<!-- 10&#45;&gt;29 -->
<g id="edge102" class="edge">
<title>10&#45;&gt;29</title>
<path fill="none" stroke="black" d="M557.76,-19.86C506.86,-23.07 401.77,-37.97 401.77,-106.25 401.77,-242.12 401.77,-242.12 401.77,-242.12 401.77,-321.48 367.47,-335.26 343.77,-411 327.68,-462.39 310.77,-473.73 310.77,-527.58 310.77,-1104.48 310.77,-1104.48 310.77,-1104.48 310.77,-1227.19 303.54,-1260.2 330.77,-1379.85 372.77,-1564.46 345.14,-1650.61 486.77,-1776.25 513.04,-1799.57 552.98,-1807.67 582.41,-1810.33"/>
<polygon fill="black" stroke="black" points="581.79,-1813.79 592.02,-1811.02 582.29,-1806.81 581.79,-1813.79"/>
<text xml:space="preserve" text-anchor="middle" x="315.27" y="-900.6" font-family="Times,serif" font-size="14.00">3</text>
</g>
<!-- 11&#45;&gt;0 -->
<g id="edge43" class="edge">
<title>11&#45;&gt;0</title>
<path fill="none" stroke="black" d="M1121.86,-289.35C993.71,-301.76 451.23,-354.43 447.77,-357 383.13,-405.01 386.77,-447.06 386.77,-527.58 386.77,-1149.1 386.77,-1149.1 386.77,-1149.1 386.77,-1302.34 413.02,-1361.47 327.77,-1488.8 252.49,-1601.23 88.77,-1542.07 88.77,-1677.38 88.77,-2174.25 88.77,-2174.25 88.77,-2174.25 88.77,-2275.17 1762.23,-2270.96 2022.05,-2269.69"/>
<polygon fill="black" stroke="black" points="2021.84,-2273.2 2031.82,-2269.64 2021.81,-2266.2 2021.84,-2273.2"/>
<text xml:space="preserve" text-anchor="middle" x="395.08" y="-1277.3" font-family="Times,serif" font-size="14.00">0</text>
</g>
<!-- 11&#45;&gt;0 -->
<g id="edge127" class="edge">
<title>11&#45;&gt;0</title>
<path fill="none" stroke="black" d="M1121.66,-287.51C994.78,-291.31 463.29,-309.96 407.77,-357 346.56,-408.85 348.77,-447.36 348.77,-527.58 348.77,-1149.1 348.77,-1149.1 348.77,-1149.1 348.77,-1543.19 338.33,-1366.99 330.77,-1379.85 254.72,-1509.19 50.77,-1418.39 50.77,-1568.43 50.77,-2174.25 50.77,-2174.25 50.77,-2174.25 50.77,-2240.9 124.11,-2219.07 189.77,-2230.5 376.85,-2263.08 1786.02,-2268.7 2022.22,-2269.41"/>
<polygon fill="black" stroke="black" points="2021.94,-2272.91 2031.95,-2269.44 2021.96,-2265.91 2021.94,-2272.91"/>
<text xml:space="preserve" text-anchor="middle" x="352.75" y="-1277.3" font-family="Times,serif" font-size="14.00">1</text>
</g>
<!-- 11&#45;&gt;3 -->
<g id="edge85" class="edge">
<title>11&#45;&gt;3</title>
<path fill="none" stroke="black" d="M1175.72,-287.79C1230.07,-290.32 1356.42,-298.41 1459.77,-321.75 1482.7,-326.93 1486.73,-334.31 1509.77,-339 1732.34,-384.37 1819.05,-297.42 2015.77,-411 2034.09,-421.58 2038.13,-427.41 2047.77,-446.25 2120.68,-588.87 2030.33,-1007.12 2010.77,-1166.1 2008.83,-1181.81 2010.98,-1186.41 2005.77,-1201.35 1992.79,-1238.51 1968.19,-1276.92 1951.16,-1301.01"/>
<polygon fill="black" stroke="black" points="1948.49,-1298.73 1945.48,-1308.89 1954.17,-1302.82 1948.49,-1298.73"/>
<text xml:space="preserve" text-anchor="middle" x="2067.58" y="-811.35" font-family="Times,serif" font-size="14.00">3</text>
</g>
<!-- 11&#45;&gt;7 -->
<g id="edge140" class="edge">
<title>11&#45;&gt;7</title>
<path fill="none" stroke="black" d="M1173.83,-278.28C1215.11,-267.78 1300.07,-246.74 1372.77,-232.5 1436.39,-220.04 1511.02,-208.89 1554.96,-202.68"/>
<polygon fill="black" stroke="black" points="1555.33,-206.16 1564.74,-201.31 1554.36,-199.23 1555.33,-206.16"/>
<text xml:space="preserve" text-anchor="middle" x="1377.27" y="-236.45" font-family="Times,serif" font-size="14.00">2</text>
</g>
<!-- 11&#45;&gt;23 -->
<g id="edge91" class="edge">
<title>11&#45;&gt;23</title>
<path fill="none" stroke="black" d="M1158.25,-302.84C1161.5,-308.69 1165,-315.41 1167.77,-321.75 1187.76,-367.54 1166.98,-394.44 1203.77,-428.25 1228.37,-450.86 1248.3,-428.74 1276.77,-446.25 1358.1,-496.27 1362.02,-530.97 1416.77,-609.2 1505.8,-736.43 1471.75,-810.68 1587.77,-913.9 1601.38,-926.02 1619.79,-934.32 1635.9,-939.79"/>
<polygon fill="black" stroke="black" points="1634.57,-943.04 1645.16,-942.68 1636.65,-936.36 1634.57,-943.04"/>
<text xml:space="preserve" text-anchor="middle" x="1432.52" y="-613.15" font-family="Times,serif" font-size="14.00">4</text>
</g>
<!-- 12&#45;&gt;6 -->
<g id="edge65" class="edge">
<title>12&#45;&gt;6</title>
<path fill="none" stroke="black" d="M2056.26,-584.36C2069.05,-590.79 2085.34,-599.67 2098.77,-609.2 2117.81,-622.73 2122.35,-626.89 2137.77,-644.45 2226.31,-745.34 2291.77,-770.04 2291.77,-904.28 2291.77,-1193.73 2291.77,-1193.73 2291.77,-1193.73 2291.77,-1943.91 2285.79,-1646.01 2265.77,-1687 2237.42,-1745.02 2204.21,-1740.95 2167.77,-1794.25 2152.76,-1816.2 2074.05,-1985.18 2061.77,-2008.75 2040.85,-2048.88 2036.78,-2059.65 2012.77,-2098 2002.57,-2114.28 2000.34,-2118.73 1987.77,-2133.25 1982.67,-2139.14 1976.79,-2145.12 1971.12,-2150.58"/>
<polygon fill="black" stroke="black" points="1969.07,-2147.69 1964.15,-2157.08 1973.85,-2152.81 1969.07,-2147.69"/>
<text xml:space="preserve" text-anchor="middle" x="2296.13" y="-1366.55" font-family="Times,serif" font-size="14.00">4</text>
</g>
<!-- 13 -->
<g id="node15" class="node">
<title>13</title>
<ellipse fill="none" stroke="black" cx="1864.77" cy="-474.1" rx="23.85" ry="23.85"/>
<ellipse fill="none" stroke="black" cx="1864.77" cy="-474.1" rx="27.85" ry="27.85"/>
<text xml:space="preserve" text-anchor="middle" x="1864.77" y="-469.43" font-family="Times,serif" font-size="14.00">13</text>
</g>
<!-- 12&#45;&gt;13 -->
<g id="edge33" class="edge">
<title>12&#45;&gt;13</title>
<path fill="none" stroke="black" d="M2014.6,-560.68C1985.94,-544.31 1933.07,-514.12 1898.42,-494.32"/>
<polygon fill="black" stroke="black" points="1900.46,-491.46 1890.05,-489.54 1896.99,-497.54 1900.46,-491.46"/>
<text xml:space="preserve" text-anchor="middle" x="1974.49" y="-523.9" font-family="Times,serif" font-size="14.00">1</text>
</g>
<!-- 12&#45;&gt;14 -->
<g id="edge120" class="edge">
<title>12&#45;&gt;14</title>
<path fill="none" stroke="black" d="M2051.65,-587.67C2091.82,-621.35 2189.77,-713.84 2189.77,-815.03 2189.77,-1104.48 2189.77,-1104.48 2189.77,-1104.48 2189.77,-1233.94 2192.76,-1295.25 2094.77,-1379.85 2064.55,-1405.94 2019.44,-1416.86 1987.16,-1421.42"/>
<polygon fill="black" stroke="black" points="1986.9,-1417.93 1977.41,-1422.64 1987.77,-1424.87 1986.9,-1417.93"/>
<text xml:space="preserve" text-anchor="middle" x="2194.27" y="-989.85" font-family="Times,serif" font-size="14.00">2</text>
</g>
<!-- 12&#45;&gt;15 -->
<g id="edge76" class="edge">
<title>12&#45;&gt;15</title>
<path fill="none" stroke="black" d="M2030.09,-555.11C2019.47,-517.54 1992.58,-429.64 1968.77,-411 1967.78,-410.23 1835.09,-391.03 1768.29,-381.4"/>
<polygon fill="black" stroke="black" points="1768.91,-377.95 1758.51,-379.99 1767.91,-384.88 1768.91,-377.95"/>
<text xml:space="preserve" text-anchor="middle" x="2017.7" y="-469.43" font-family="Times,serif" font-size="14.00">3</text>
</g>
<!-- 12&#45;&gt;15 -->
<g id="edge100" class="edge">
<title>12&#45;&gt;15</title>
<path fill="none" stroke="black" d="M2035.85,-554.77C2036.3,-544.6 2036.55,-531.54 2035.77,-519.95 2032.22,-467.51 2037.06,-433.93 1989.77,-411 1933.31,-383.64 1911.93,-401.44 1849.77,-393 1822.52,-389.3 1791.8,-384.91 1768.4,-381.51"/>
<polygon fill="black" stroke="black" points="1769.12,-378.08 1758.72,-380.11 1768.11,-385.01 1769.12,-378.08"/>
<text xml:space="preserve" text-anchor="middle" x="2039.23" y="-469.43" font-family="Times,serif" font-size="14.00">0</text>
</g>
<!-- 13&#45;&gt;2 -->
<g id="edge101" class="edge">
<title>13&#45;&gt;2</title>
<path fill="none" stroke="black" d="M1838.7,-484.54C1791.59,-501.57 1696.41,-535.8 1688.77,-537.2 1606.78,-552.26 1015.39,-522.38 938.77,-555.2 907.57,-568.56 898.49,-578.16 884.77,-609.2 816.3,-764.04 848.77,-1200.92 848.77,-1370.23 848.77,-1570.43 848.77,-1570.43 848.77,-1570.43 848.77,-1604.74 725.88,-1803.42 680.96,-1874.89"/>
<polygon fill="black" stroke="black" points="678.09,-1872.87 675.73,-1883.2 684.02,-1876.6 678.09,-1872.87"/>
<text xml:space="preserve" text-anchor="middle" x="849.23" y="-1188.05" font-family="Times,serif" font-size="14.00">0</text>
</g>
<!-- 13&#45;&gt;5 -->
<g id="edge104" class="edge">
<title>13&#45;&gt;5</title>
<path fill="none" stroke="black" d="M1891.78,-482.18C1991.02,-508.96 2329.77,-607.6 2329.77,-706.08 2329.77,-1193.73 2329.77,-1193.73 2329.77,-1193.73 2329.77,-1297.77 2291.76,-1566.05 2232.77,-1651.75 2186.5,-1718.96 2143.76,-1703.7 2083.77,-1759 1971.11,-1862.86 2022.29,-1967.08 1889.77,-2044 1844.68,-2070.17 1485.08,-2077.02 1365.37,-2078.59"/>
<polygon fill="black" stroke="black" points="1365.38,-2075.09 1355.42,-2078.71 1365.47,-2082.09 1365.38,-2075.09"/>
<text xml:space="preserve" text-anchor="middle" x="2329.73" y="-1277.3" font-family="Times,serif" font-size="14.00">2</text>
</g>
<!-- 13&#45;&gt;7 -->
<g id="edge22" class="edge">
<title>13&#45;&gt;7</title>
<path fill="none" stroke="black" d="M1853.23,-448.56C1829.38,-400.37 1770.1,-292.83 1689.77,-232.5 1672.14,-219.26 1649.02,-210.66 1629.78,-205.3"/>
<polygon fill="black" stroke="black" points="1630.7,-201.92 1620.14,-202.81 1628.95,-208.7 1630.7,-201.92"/>
<text xml:space="preserve" text-anchor="middle" x="1791.35" y="-325.7" font-family="Times,serif" font-size="14.00">1</text>
</g>
<!-- 13&#45;&gt;14 -->
<g id="edge136" class="edge">
<title>13&#45;&gt;14</title>
<path fill="none" stroke="black" d="M1875.22,-499.95C1877.64,-506.38 1880.02,-513.35 1881.77,-519.95 1916.91,-652.46 1890.25,-693.38 1929.77,-824.65 1944.87,-874.83 1967.62,-880.69 1978.77,-931.9 2017.78,-1111.18 1994.64,-1162.96 1968.77,-1344.6 1966.72,-1358.95 1963.03,-1374.41 1959.31,-1387.89"/>
<polygon fill="black" stroke="black" points="1956.03,-1386.64 1956.63,-1397.22 1962.76,-1388.58 1956.03,-1386.64"/>
<text xml:space="preserve" text-anchor="middle" x="1990.41" y="-945.23" font-family="Times,serif" font-size="14.00">4</text>
</g>
<!-- 13&#45;&gt;18 -->
<g id="edge63" class="edge">
<title>13&#45;&gt;18</title>
<path fill="none" stroke="black" d="M1840.57,-488.59C1815.94,-502 1776.42,-522.61 1740.77,-537.2 1621.45,-586.04 1590.3,-597.1 1464.77,-626.45 1395.51,-642.64 1313.02,-652.82 1265.89,-657.79"/>
<polygon fill="black" stroke="black" points="1265.79,-654.28 1256.2,-658.79 1266.51,-661.25 1265.79,-654.28"/>
<text xml:space="preserve" text-anchor="middle" x="1698.53" y="-568.53" font-family="Times,serif" font-size="14.00">3</text>
</g>
<!-- 14&#45;&gt;3 -->
<g id="edge11" class="edge">
<title>14&#45;&gt;3</title>
<path fill="none" stroke="black" d="M1943.63,-1397.91C1941.62,-1384.93 1939.21,-1369.34 1937.17,-1356.14"/>
<polygon fill="black" stroke="black" points="1940.64,-1355.67 1935.66,-1346.32 1933.73,-1356.74 1940.64,-1355.67"/>
<text xml:space="preserve" text-anchor="middle" x="1945.22" y="-1366.55" font-family="Times,serif" font-size="14.00">1</text>
</g>
<!-- 14&#45;&gt;4 -->
<g id="edge139" class="edge">
<title>14&#45;&gt;4</title>
<path fill="none" stroke="black" d="M1941.05,-1453.17C1937.49,-1464.62 1932.44,-1477.87 1925.77,-1488.8 1923.05,-1493.25 1919.69,-1497.61 1916.17,-1501.67"/>
<polygon fill="black" stroke="black" points="1913.72,-1499.16 1909.42,-1508.85 1918.82,-1503.96 1913.72,-1499.16"/>
<text xml:space="preserve" text-anchor="middle" x="1938.41" y="-1475.5" font-family="Times,serif" font-size="14.00">3</text>
</g>
<!-- 14&#45;&gt;14 -->
<g id="edge7" class="edge">
<title>14&#45;&gt;14</title>
<path fill="none" stroke="black" d="M1975.52,-1430.8C1985.49,-1430.91 1993.62,-1429.21 1993.62,-1425.7 1993.62,-1423.67 1990.9,-1422.25 1986.68,-1421.43"/>
<polygon fill="black" stroke="black" points="1987.26,-1417.96 1977.03,-1420.71 1986.74,-1424.94 1987.26,-1417.96"/>
<text xml:space="preserve" text-anchor="middle" x="1998.12" y="-1421.03" font-family="Times,serif" font-size="14.00">4</text>
</g>
<!-- 14&#45;&gt;14 -->
<g id="edge16" class="edge">
<title>14&#45;&gt;14</title>
<path fill="none" stroke="black" d="M1974.33,-1434.87C1993.07,-1437.75 2011.62,-1434.69 2011.62,-1425.7 2011.62,-1418.54 1999.84,-1415.14 1985.57,-1415.52"/>
<polygon fill="black" stroke="black" points="1985.48,-1412.01 1975.84,-1416.4 1986.12,-1418.98 1985.48,-1412.01"/>
<text xml:space="preserve" text-anchor="middle" x="2016.12" y="-1421.03" font-family="Times,serif" font-size="14.00">2</text>
</g>
<!-- 14&#45;&gt;28 -->
<g id="edge57" class="edge">
<title>14&#45;&gt;28</title>
<path fill="none" stroke="black" d="M1927.17,-1445.06C1923.21,-1448.12 1918.98,-1451.1 1914.77,-1453.55 1895.8,-1464.61 1888.74,-1462.45 1868.77,-1471.55 1855.93,-1477.4 1688.08,-1565.79 1614.24,-1604.72"/>
<polygon fill="black" stroke="black" points="1612.6,-1601.63 1605.39,-1609.39 1615.87,-1607.82 1612.6,-1601.63"/>
<text xml:space="preserve" text-anchor="middle" x="1803.57" y="-1520.13" font-family="Times,serif" font-size="14.00">0</text>
</g>
<!-- 15&#45;&gt;10 -->
<g id="edge131" class="edge">
<title>15&#45;&gt;10</title>
<path fill="none" stroke="black" d="M1728.23,-356.66C1725.89,-339.09 1722.77,-311.09 1722.77,-286.75 1722.77,-286.75 1722.77,-286.75 1722.77,-106.25 1722.77,-49.85 822.28,-24.75 623.35,-19.89"/>
<polygon fill="black" stroke="black" points="623.65,-16.4 613.57,-19.66 623.48,-23.4 623.65,-16.4"/>
<text xml:space="preserve" text-anchor="middle" x="1727.27" y="-191.82" font-family="Times,serif" font-size="14.00">1</text>
</g>
<!-- 15&#45;&gt;11 -->
<g id="edge74" class="edge">
<title>15&#45;&gt;11</title>
<path fill="none" stroke="black" d="M1704.07,-371.09C1654.2,-365.55 1543.56,-352.82 1450.77,-339 1354.95,-324.73 1242.69,-304.33 1185.82,-293.74"/>
<polygon fill="black" stroke="black" points="1186.51,-290.31 1176.04,-291.91 1185.23,-297.19 1186.51,-290.31"/>
<text xml:space="preserve" text-anchor="middle" x="1455.27" y="-325.7" font-family="Times,serif" font-size="14.00">2</text>
</g>
<!-- 15&#45;&gt;14 -->
<g id="edge147" class="edge">
<title>15&#45;&gt;14</title>
<path fill="none" stroke="black" d="M1757.44,-379.47C1798.06,-385.98 1875.95,-403.46 1925.77,-446.25 2044.12,-547.91 1951.07,-641.18 1999.77,-789.4 2032.2,-888.12 2113.77,-889.61 2113.77,-993.53 2113.77,-1149.1 2113.77,-1149.1 2113.77,-1149.1 2113.77,-1254.01 2024.42,-1353.32 1976.82,-1398.79"/>
<polygon fill="black" stroke="black" points="1974.46,-1396.21 1969.56,-1405.6 1979.25,-1401.31 1974.46,-1396.21"/>
<text xml:space="preserve" text-anchor="middle" x="2094.12" y="-900.6" font-family="Times,serif" font-size="14.00">0</text>
</g>
<!-- 15&#45;&gt;23 -->
<g id="edge83" class="edge">
<title>15&#45;&gt;23</title>
<path fill="none" stroke="black" d="M1729.7,-393.16C1726.92,-439.49 1719.75,-570.98 1720.77,-680.45 1721.43,-752.55 1723.1,-770.55 1723.77,-842.65 1723.91,-858.65 1728.78,-863.46 1723.77,-878.65 1717.86,-896.57 1705.43,-913.65 1694.2,-926.48"/>
<polygon fill="black" stroke="black" points="1691.91,-923.79 1687.74,-933.53 1697.07,-928.52 1691.91,-923.79"/>
<text xml:space="preserve" text-anchor="middle" x="1725.27" y="-657.78" font-family="Times,serif" font-size="14.00">3</text>
</g>
<!-- 15&#45;&gt;29 -->
<g id="edge150" class="edge">
<title>15&#45;&gt;29</title>
<path fill="none" stroke="black" d="M1703.43,-375.63C1619.49,-374.93 1358.34,-375.93 1145.77,-411 1117.12,-415.73 1111.37,-423.31 1082.77,-428.25 977.36,-446.46 946.26,-419.2 842.77,-446.25 767.8,-465.84 734,-460.12 684.77,-519.95 656.58,-554.2 660.77,-572.47 660.77,-616.83 660.77,-1050 660.77,-1050 660.77,-1050 660.77,-1132.83 658.77,-1153.52 658.77,-1236.35 658.77,-1372.23 658.77,-1372.23 658.77,-1372.23 658.77,-1474.35 618.4,-1494.59 606.77,-1596.05 603.95,-1620.65 605.68,-1627.02 606.77,-1651.75 608.78,-1697.8 614.06,-1751.11 617.53,-1782.96"/>
<polygon fill="black" stroke="black" points="614.01,-1783 618.59,-1792.55 620.97,-1782.23 614.01,-1783"/>
<text xml:space="preserve" text-anchor="middle" x="665.04" y="-1098.8" font-family="Times,serif" font-size="14.00">4</text>
</g>
<!-- 16&#45;&gt;2 -->
<g id="edge28" class="edge">
<title>16&#45;&gt;2</title>
<path fill="none" stroke="black" d="M1260.34,-1071.91C1216.27,-1132.94 1098.77,-1311.4 1098.77,-1479.18 1098.77,-1679.38 1098.77,-1679.38 1098.77,-1679.38 1098.77,-1723.43 1110.01,-1746.24 1077.77,-1776.25 1057.06,-1795.52 978.81,-1785.99 951.77,-1794.25 882.33,-1815.47 873.01,-1840.73 804.77,-1865.5 770.72,-1877.86 730.47,-1887.42 701.89,-1893.41"/>
<polygon fill="black" stroke="black" points="701.37,-1889.94 692.27,-1895.37 702.77,-1896.8 701.37,-1889.94"/>
<text xml:space="preserve" text-anchor="middle" x="1103.27" y="-1475.5" font-family="Times,serif" font-size="14.00">4</text>
</g>
<!-- 16&#45;&gt;5 -->
<g id="edge67" class="edge">
<title>16&#45;&gt;5</title>
<path fill="none" stroke="black" d="M1284.74,-1076.18C1301.7,-1132.2 1339.77,-1260.3 1339.77,-1280.98 1339.77,-1570.43 1339.77,-1570.43 1339.77,-1570.43 1339.77,-1658.33 1364.77,-1678.72 1364.77,-1766.63 1364.77,-1991.75 1364.77,-1991.75 1364.77,-1991.75 1364.77,-2014.06 1354.2,-2037.1 1344.21,-2053.9"/>
<polygon fill="black" stroke="black" points="1341.35,-2051.88 1338.97,-2062.21 1347.27,-2055.61 1341.35,-2051.88"/>
<text xml:space="preserve" text-anchor="middle" x="1344.3" y="-1564.75" font-family="Times,serif" font-size="14.00">0</text>
</g>
<!-- 16&#45;&gt;18 -->
<g id="edge109" class="edge">
<title>16&#45;&gt;18</title>
<path fill="none" stroke="black" d="M1256.49,-1029.29C1219.89,-993.76 1144.75,-912.22 1124.77,-824.65 1111.64,-767.14 1166.32,-711.83 1201.03,-683.35"/>
<polygon fill="black" stroke="black" points="1202.96,-686.29 1208.6,-677.32 1198.6,-680.81 1202.96,-686.29"/>
<text xml:space="preserve" text-anchor="middle" x="1147.64" y="-855.98" font-family="Times,serif" font-size="14.00">3</text>
</g>
<!-- 16&#45;&gt;23 -->
<g id="edge40" class="edge">
<title>16&#45;&gt;23</title>
<path fill="none" stroke="black" d="M1304.4,-1043.99C1348.88,-1037.26 1438.97,-1022.51 1513.77,-1003.15 1557.3,-991.89 1606.3,-975 1638.03,-963.5"/>
<polygon fill="black" stroke="black" points="1638.89,-966.91 1647.08,-960.19 1636.48,-960.34 1638.89,-966.91"/>
<text xml:space="preserve" text-anchor="middle" x="1575.34" y="-989.85" font-family="Times,serif" font-size="14.00">2</text>
</g>
<!-- 16&#45;&gt;28 -->
<g id="edge134" class="edge">
<title>16&#45;&gt;28</title>
<path fill="none" stroke="black" d="M1295.38,-1069.95C1302.09,-1077.51 1309.55,-1086.36 1315.77,-1094.85 1354.06,-1147.16 1366.47,-1159.66 1391.77,-1219.35 1423.9,-1295.17 1432.24,-1514.63 1484.77,-1578.05 1499.23,-1595.51 1522.04,-1606.59 1541.69,-1613.37"/>
<polygon fill="black" stroke="black" points="1540.47,-1616.65 1551.06,-1616.33 1542.58,-1609.98 1540.47,-1616.65"/>
<text xml:space="preserve" text-anchor="middle" x="1424.89" y="-1321.93" font-family="Times,serif" font-size="14.00">1</text>
</g>
<!-- 17&#45;&gt;10 -->
<g id="edge70" class="edge">
<title>17&#45;&gt;10</title>
<path fill="none" stroke="black" d="M188.58,-90.53C197.95,-78.31 212.65,-62.12 229.77,-54 285.03,-27.78 466.37,-21.18 546.32,-19.54"/>
<polygon fill="black" stroke="black" points="545.91,-23.05 555.84,-19.36 545.78,-16.05 545.91,-23.05"/>
<text xml:space="preserve" text-anchor="middle" x="234.27" y="-57.95" font-family="Times,serif" font-size="14.00">0</text>
</g>
<!-- 21 -->
<g id="node23" class="node">
<title>21</title>
<ellipse fill="none" stroke="black" cx="483.77" cy="-375" rx="27" ry="18"/>
<text xml:space="preserve" text-anchor="middle" x="483.77" y="-370.32" font-family="Times,serif" font-size="14.00">21</text>
</g>
<!-- 17&#45;&gt;21 -->
<g id="edge10" class="edge">
<title>17&#45;&gt;21</title>
<path fill="none" stroke="black" d="M198.61,-119.3C215.76,-128.45 237.85,-140.39 241.77,-143.25 331.88,-209.1 423.13,-306.18 462.99,-350.45"/>
<polygon fill="black" stroke="black" points="460.19,-352.57 469.47,-357.69 465.41,-347.91 460.19,-352.57"/>
<text xml:space="preserve" text-anchor="middle" x="368.91" y="-236.45" font-family="Times,serif" font-size="14.00">2</text>
</g>
<!-- 27 -->
<g id="node29" class="node">
<title>27</title>
<ellipse fill="none" stroke="black" cx="58.77" cy="-285.75" rx="27" ry="18"/>
<text xml:space="preserve" text-anchor="middle" x="58.77" y="-281.07" font-family="Times,serif" font-size="14.00">27</text>
</g>
<!-- 17&#45;&gt;27 -->
<g id="edge62" class="edge">
<title>17&#45;&gt;27</title>
<path fill="none" stroke="black" d="M150.48,-107.49C116.72,-107.97 59.15,-113.56 21.77,-143.25 -3.73,-163.49 -2.49,-182.76 4.77,-214.5 8.64,-231.46 11.5,-235.71 21.77,-249.75 25.26,-254.53 29.47,-259.21 33.77,-263.51"/>
<polygon fill="black" stroke="black" points="31.2,-265.91 40.89,-270.21 36,-260.81 31.2,-265.91"/>
<text xml:space="preserve" text-anchor="middle" x="9.27" y="-191.82" font-family="Times,serif" font-size="14.00">1</text>
</g>
<!-- 17&#45;&gt;27 -->
<g id="edge87" class="edge">
<title>17&#45;&gt;27</title>
<path fill="none" stroke="black" d="M152.55,-114.26C123.28,-122.83 76.85,-141.74 59.77,-178.5 48.42,-202.92 49.69,-234.03 52.87,-256.27"/>
<polygon fill="black" stroke="black" points="49.42,-256.84 54.52,-266.12 56.32,-255.68 49.42,-256.84"/>
<text xml:space="preserve" text-anchor="middle" x="64.27" y="-191.82" font-family="Times,serif" font-size="14.00">4</text>
</g>
<!-- 17&#45;&gt;29 -->
<g id="edge143" class="edge">
<title>17&#45;&gt;29</title>
<path fill="none" stroke="black" d="M191.76,-123.15C196.41,-128.98 201.09,-136.01 203.77,-143.25 236.92,-232.87 233.77,-476.65 233.77,-572.2 233.77,-817.03 233.77,-817.03 233.77,-817.03 233.77,-988.17 207.25,-1037.83 257.77,-1201.35 335.53,-1453.07 536.6,-1709.76 600.77,-1787.53"/>
<polygon fill="black" stroke="black" points="597.85,-1789.49 606.93,-1794.95 603.24,-1785.02 597.85,-1789.49"/>
<text xml:space="preserve" text-anchor="middle" x="234.6" y="-945.23" font-family="Times,serif" font-size="14.00">3</text>
</g>
<!-- 18&#45;&gt;7 -->
<g id="edge92" class="edge">
<title>18&#45;&gt;7</title>
<path fill="none" stroke="black" d="M1243.38,-647.8C1271.65,-622.19 1331.19,-563.89 1361.77,-501.95 1398.08,-428.39 1362.35,-393.7 1401.77,-321.75 1428.68,-272.62 1443.26,-262.19 1490.77,-232.5 1510.77,-220 1535.78,-211.33 1556.03,-205.74"/>
<polygon fill="black" stroke="black" points="1556.77,-209.16 1565.57,-203.26 1555.01,-202.39 1556.77,-209.16"/>
<text xml:space="preserve" text-anchor="middle" x="1385.1" y="-414.95" font-family="Times,serif" font-size="14.00">3</text>
</g>
<!-- 18&#45;&gt;8 -->
<g id="edge17" class="edge">
<title>18&#45;&gt;8</title>
<path fill="none" stroke="black" d="M1200.9,-659.1C1168.18,-655.46 1111.84,-646.64 1067.77,-626.45 1056.15,-621.13 1055.64,-615.92 1044.77,-609.2 1032.79,-601.8 1019.03,-594.65 1006.91,-588.77"/>
<polygon fill="black" stroke="black" points="1008.66,-585.72 998.12,-584.6 1005.65,-592.05 1008.66,-585.72"/>
<text xml:space="preserve" text-anchor="middle" x="1072.27" y="-613.15" font-family="Times,serif" font-size="14.00">1</text>
</g>
<!-- 18&#45;&gt;12 -->
<g id="edge60" class="edge">
<title>18&#45;&gt;12</title>
<path fill="none" stroke="black" d="M1254.55,-658.61C1310.51,-652.68 1443.88,-638.52 1555.77,-626.45 1719.89,-608.74 1915.6,-587.29 1996.69,-578.39"/>
<polygon fill="black" stroke="black" points="1996.96,-581.88 2006.52,-577.31 1996.2,-574.92 1996.96,-581.88"/>
<text xml:space="preserve" text-anchor="middle" x="1718.34" y="-613.15" font-family="Times,serif" font-size="14.00">4</text>
</g>
<!-- 22 -->
<g id="node24" class="node">
<title>22</title>
<ellipse fill="none" stroke="black" cx="1197.77" cy="-761.55" rx="23.85" ry="23.85"/>
<ellipse fill="none" stroke="black" cx="1197.77" cy="-761.55" rx="27.85" ry="27.85"/>
<text xml:space="preserve" text-anchor="middle" x="1197.77" y="-756.88" font-family="Times,serif" font-size="14.00">22</text>
</g>
<!-- 18&#45;&gt;22 -->
<g id="edge53" class="edge">
<title>18&#45;&gt;22</title>
<path fill="none" stroke="black" d="M1212.24,-677.67C1206.93,-683.53 1201.61,-690.75 1198.77,-698.45 1196.03,-705.86 1194.78,-714.11 1194.38,-722.12"/>
<polygon fill="black" stroke="black" points="1190.88,-722.02 1194.35,-732.03 1197.88,-722.04 1190.88,-722.02"/>
<text xml:space="preserve" text-anchor="middle" x="1203.27" y="-702.4" font-family="Times,serif" font-size="14.00">0</text>
</g>
<!-- 25 -->
<g id="node27" class="node">
<title>25</title>
<ellipse fill="none" stroke="black" cx="134.77" cy="-196.5" rx="27" ry="18"/>
<text xml:space="preserve" text-anchor="middle" x="134.77" y="-191.82" font-family="Times,serif" font-size="14.00">25</text>
</g>
<!-- 18&#45;&gt;25 -->
<g id="edge96" class="edge">
<title>18&#45;&gt;25</title>
<path fill="none" stroke="black" d="M1226.82,-644.07C1225.94,-626.47 1224.77,-598.45 1224.77,-574.2 1224.77,-574.2 1224.77,-574.2 1224.77,-418.62 1224.77,-349.25 1239.7,-310.12 1184.77,-267.75 1159.37,-248.16 639.76,-252.01 607.77,-249.75 445.17,-238.25 252.25,-213.44 172.32,-202.67"/>
<polygon fill="black" stroke="black" points="173.25,-199.26 162.87,-201.39 172.31,-206.2 173.25,-199.26"/>
<text xml:space="preserve" text-anchor="middle" x="1229.27" y="-414.95" font-family="Times,serif" font-size="14.00">2</text>
</g>
<!-- 19 -->
<g id="node21" class="node">
<title>19</title>
<ellipse fill="none" stroke="black" cx="1443.77" cy="-1148.1" rx="27" ry="18"/>
<text xml:space="preserve" text-anchor="middle" x="1443.77" y="-1143.43" font-family="Times,serif" font-size="14.00">19</text>
</g>
<!-- 19&#45;&gt;2 -->
<g id="edge26" class="edge">
<title>19&#45;&gt;2</title>
<path fill="none" stroke="black" d="M1424.9,-1161.31C1416.29,-1167.48 1406.34,-1175.47 1398.77,-1184.1 1356.47,-1232.32 1355.49,-1251.76 1325.77,-1308.6 1319.12,-1321.31 1117.91,-1767.23 1106.77,-1776.25 1081.46,-1796.74 1066.54,-1783.63 1035.77,-1794.25 998.78,-1807.02 912.25,-1854.28 874.77,-1865.5 816.18,-1883.04 745.61,-1892.53 703.01,-1897.05"/>
<polygon fill="black" stroke="black" points="702.88,-1893.54 693.28,-1898.04 703.58,-1900.51 702.88,-1893.54"/>
<text xml:space="preserve" text-anchor="middle" x="1238.62" y="-1520.13" font-family="Times,serif" font-size="14.00">4</text>
</g>
<!-- 19&#45;&gt;8 -->
<g id="edge31" class="edge">
<title>19&#45;&gt;8</title>
<path fill="none" stroke="black" d="M1431.22,-1131.78C1366.86,-1053.16 1073.72,-695.08 994.53,-598.35"/>
<polygon fill="black" stroke="black" points="997.35,-596.26 988.31,-590.74 991.93,-600.7 997.35,-596.26"/>
<text xml:space="preserve" text-anchor="middle" x="1227.83" y="-855.98" font-family="Times,serif" font-size="14.00">2</text>
</g>
<!-- 19&#45;&gt;15 -->
<g id="edge29" class="edge">
<title>19&#45;&gt;15</title>
<path fill="none" stroke="black" d="M1445.92,-1130C1451.29,-1083.27 1463.24,-949.8 1439.77,-842.65 1437.89,-834.1 1433.58,-833.22 1431.77,-824.65 1430.17,-817.15 1430.08,-814.88 1431.77,-807.4 1461.16,-676.97 1516.38,-662.79 1595.77,-555.2 1636.99,-499.34 1686.25,-434.39 1712.38,-400.09"/>
<polygon fill="black" stroke="black" points="1714.91,-402.54 1718.19,-392.47 1709.34,-398.3 1714.91,-402.54"/>
<text xml:space="preserve" text-anchor="middle" x="1460.29" y="-756.88" font-family="Times,serif" font-size="14.00">1</text>
</g>
<!-- 19&#45;&gt;16 -->
<g id="edge145" class="edge">
<title>19&#45;&gt;16</title>
<path fill="none" stroke="black" d="M1423.95,-1135.58C1395.88,-1119.26 1344.16,-1089.19 1310.11,-1069.39"/>
<polygon fill="black" stroke="black" points="1312.3,-1066.61 1301.89,-1064.61 1308.78,-1072.66 1312.3,-1066.61"/>
<text xml:space="preserve" text-anchor="middle" x="1384.63" y="-1098.8" font-family="Times,serif" font-size="14.00">0</text>
</g>
<!-- 19&#45;&gt;18 -->
<g id="edge25" class="edge">
<title>19&#45;&gt;18</title>
<path fill="none" stroke="black" d="M1437.15,-1130.63C1433.02,-1120.34 1427.59,-1106.82 1422.77,-1094.85 1403.25,-1046.41 1402,-1032.67 1378.77,-985.9 1362.18,-952.52 1353.43,-946.72 1335.77,-913.9 1294.72,-837.67 1296.49,-813.01 1261.77,-733.7 1255.4,-719.16 1247.73,-703.21 1241.3,-690.19"/>
<polygon fill="black" stroke="black" points="1244.5,-688.77 1236.91,-681.39 1238.24,-691.9 1244.5,-688.77"/>
<text xml:space="preserve" text-anchor="middle" x="1340.27" y="-900.6" font-family="Times,serif" font-size="14.00">3</text>
</g>
<!-- 20&#45;&gt;1 -->
<g id="edge94" class="edge">
<title>20&#45;&gt;1</title>
<path fill="none" stroke="black" d="M1793.26,-1255.01C1774.45,-1298.36 1726.77,-1418.6 1726.77,-1523.8 1726.77,-1679.38 1726.77,-1679.38 1726.77,-1679.38 1726.77,-1965.08 1225.78,-1989.09 1081.32,-1990.07"/>
<polygon fill="black" stroke="black" points="1081.5,-1986.57 1071.52,-1990.1 1081.53,-1993.57 1081.5,-1986.57"/>
<text xml:space="preserve" text-anchor="middle" x="1731.27" y="-1619.23" font-family="Times,serif" font-size="14.00">4</text>
</g>
<!-- 20&#45;&gt;4 -->
<g id="edge97" class="edge">
<title>20&#45;&gt;4</title>
<path fill="none" stroke="black" d="M1806.22,-1255.26C1821.52,-1302.75 1865,-1437.66 1883.86,-1496.17"/>
<polygon fill="black" stroke="black" points="1880.42,-1496.92 1886.82,-1505.36 1887.09,-1494.77 1880.42,-1496.92"/>
<text xml:space="preserve" text-anchor="middle" x="1850.2" y="-1366.55" font-family="Times,serif" font-size="14.00">0</text>
</g>
<!-- 20&#45;&gt;13 -->
<g id="edge137" class="edge">
<title>20&#45;&gt;13</title>
<path fill="none" stroke="black" d="M1792.27,-1219.9C1782.52,-1198.8 1769.06,-1161.21 1778.77,-1130.1 1800.41,-1060.7 1871.77,-1068.23 1871.77,-995.53 1871.77,-995.53 1871.77,-995.53 1871.77,-706.08 1871.77,-638.31 1868.72,-559.42 1866.65,-513.58"/>
<polygon fill="black" stroke="black" points="1870.14,-513.46 1866.19,-503.63 1863.15,-513.78 1870.14,-513.46"/>
<text xml:space="preserve" text-anchor="middle" x="1876.27" y="-855.98" font-family="Times,serif" font-size="14.00">2</text>
</g>
<!-- 20&#45;&gt;19 -->
<g id="edge110" class="edge">
<title>20&#45;&gt;19</title>
<path fill="none" stroke="black" d="M1776.88,-1228.23C1767.82,-1225.26 1757.36,-1221.99 1747.77,-1219.35 1652.25,-1193.05 1538.04,-1168.47 1480.61,-1156.58"/>
<polygon fill="black" stroke="black" points="1481.55,-1153.2 1471.05,-1154.61 1480.14,-1160.06 1481.55,-1153.2"/>
<text xml:space="preserve" text-anchor="middle" x="1677.72" y="-1188.05" font-family="Times,serif" font-size="14.00">3</text>
</g>
<!-- 20&#45;&gt;21 -->
<g id="edge130" class="edge">
<title>20&#45;&gt;21</title>
<path fill="none" stroke="black" d="M1811.67,-1220.7C1827,-1197.92 1854.6,-1153.78 1868.77,-1112.1 1948.76,-876.86 1944.17,-802.26 1917.77,-555.2 1912.56,-506.54 1937.24,-479.97 1901.77,-446.25 1850.34,-397.38 744.21,-379.59 522.32,-376.51"/>
<polygon fill="black" stroke="black" points="522.54,-373.01 512.5,-376.37 522.45,-380.01 522.54,-373.01"/>
<text xml:space="preserve" text-anchor="middle" x="1939.13" y="-811.35" font-family="Times,serif" font-size="14.00">1</text>
</g>
<!-- 21&#45;&gt;0 -->
<g id="edge112" class="edge">
<title>21&#45;&gt;0</title>
<path fill="none" stroke="black" d="M468.26,-390.16C450.78,-407.75 424.77,-439.57 424.77,-473.1 424.77,-1104.48 424.77,-1104.48 424.77,-1104.48 424.77,-1195.43 484.56,-1448.43 368.77,-1542.8 316.52,-1585.38 285.4,-1562.8 226.77,-1596.05 120.97,-1656.05 12.77,-1645 12.77,-1766.63 12.77,-2174.25 12.77,-2174.25 12.77,-2174.25 12.77,-2201.43 14.23,-2215.3 36.77,-2230.5 79.68,-2259.45 1762.88,-2268.18 2022.34,-2269.36"/>
<polygon fill="black" stroke="black" points="2022.07,-2272.86 2032.09,-2269.4 2022.1,-2265.86 2022.07,-2272.86"/>
<text xml:space="preserve" text-anchor="middle" x="444.7" y="-1321.93" font-family="Times,serif" font-size="14.00">4</text>
</g>
<!-- 21&#45;&gt;1 -->
<g id="edge69" class="edge">
<title>21&#45;&gt;1</title>
<path fill="none" stroke="black" d="M494.49,-391.92C498.1,-397.75 501.93,-404.51 504.77,-411 526.38,-460.45 538.77,-473.61 538.77,-527.58 538.77,-1104.48 538.77,-1104.48 538.77,-1104.48 538.77,-1182.97 544.77,-1202.49 544.77,-1280.98 544.77,-1481.18 544.77,-1481.18 544.77,-1481.18 544.77,-1599.84 766.78,-1834.68 849.77,-1919.5 867.29,-1937.42 871.24,-1943.78 893.77,-1954.75 929.25,-1972.03 973.71,-1981.04 1004.79,-1985.56"/>
<polygon fill="black" stroke="black" points="1004.12,-1989 1014.5,-1986.88 1005.07,-1982.07 1004.12,-1989"/>
<text xml:space="preserve" text-anchor="middle" x="546.76" y="-1188.05" font-family="Times,serif" font-size="14.00">3</text>
</g>
<!-- 21&#45;&gt;5 -->
<g id="edge14" class="edge">
<title>21&#45;&gt;5</title>
<path fill="none" stroke="black" d="M477.8,-392.95C471.6,-412.14 462.77,-444.47 462.77,-473.1 462.77,-1104.48 462.77,-1104.48 462.77,-1104.48 462.77,-1202.79 468.77,-1227.29 468.77,-1325.6 468.77,-1481.18 468.77,-1481.18 468.77,-1481.18 468.77,-1640.65 202.77,-1562.53 202.77,-1722 202.77,-1947.13 202.77,-1947.13 202.77,-1947.13 202.77,-1991.59 192.84,-2016.48 227.77,-2044 274.33,-2080.71 1237.36,-2047.19 1294.77,-2062 1295.59,-2062.22 1296.41,-2062.45 1297.24,-2062.71"/>
<polygon fill="black" stroke="black" points="1295.75,-2065.89 1306.33,-2066.46 1298.42,-2059.41 1295.75,-2065.89"/>
<text xml:space="preserve" text-anchor="middle" x="472.04" y="-1232.68" font-family="Times,serif" font-size="14.00">0</text>
</g>
<!-- 21&#45;&gt;10 -->
<g id="edge44" class="edge">
<title>21&#45;&gt;10</title>
<path fill="none" stroke="black" d="M492.93,-357.84C501.75,-340.75 513.77,-312.7 513.77,-286.75 513.77,-286.75 513.77,-286.75 513.77,-106.25 513.77,-77.76 536.83,-53.4 556.66,-37.72"/>
<polygon fill="black" stroke="black" points="558.61,-40.64 564.53,-31.85 554.42,-35.03 558.61,-40.64"/>
<text xml:space="preserve" text-anchor="middle" x="518.27" y="-191.82" font-family="Times,serif" font-size="14.00">1</text>
</g>
<!-- 21&#45;&gt;27 -->
<g id="edge118" class="edge">
<title>21&#45;&gt;27</title>
<path fill="none" stroke="black" d="M458.14,-368.74C385.81,-353.89 179.87,-311.61 95.5,-294.29"/>
<polygon fill="black" stroke="black" points="96.41,-290.91 85.91,-292.32 95,-297.76 96.41,-290.91"/>
<text xml:space="preserve" text-anchor="middle" x="313.83" y="-325.7" font-family="Times,serif" font-size="14.00">2</text>
</g>
<!-- 22&#45;&gt;1 -->
<g id="edge146" class="edge">
<title>22&#45;&gt;1</title>
<path fill="none" stroke="black" d="M1200.72,-789.58C1202.26,-805.09 1203.99,-824.94 1204.77,-842.65 1205.46,-858.64 1206.87,-862.79 1204.77,-878.65 1198.26,-927.6 1187.03,-937.82 1175.77,-985.9 1172.12,-1001.45 1170.33,-1005.26 1168.77,-1021.15 1161.6,-1094.07 1179.72,-1112.19 1193.77,-1184.1 1244.29,-1442.8 1327.99,-1532.88 1226.77,-1776.25 1191.83,-1860.26 1110.57,-1934.86 1068.72,-1969.41"/>
<polygon fill="black" stroke="black" points="1066.66,-1966.57 1061.11,-1975.59 1071.08,-1972 1066.66,-1966.57"/>
<text xml:space="preserve" text-anchor="middle" x="1246.52" y="-1366.55" font-family="Times,serif" font-size="14.00">3</text>
</g>
<!-- 22&#45;&gt;2 -->
<g id="edge111" class="edge">
<title>22&#45;&gt;2</title>
<path fill="none" stroke="black" d="M1187.8,-787.85C1156.28,-870.28 1060.77,-1139.06 1060.77,-1370.23 1060.77,-1679.38 1060.77,-1679.38 1060.77,-1679.38 1060.77,-1722.71 1080.59,-1745.8 1049.77,-1776.25 1021.48,-1804.19 909.89,-1782.98 871.77,-1794.25 803.49,-1814.44 731.11,-1857.19 692.64,-1881.87"/>
<polygon fill="black" stroke="black" points="690.91,-1878.82 684.43,-1887.2 694.73,-1884.69 690.91,-1878.82"/>
<text xml:space="preserve" text-anchor="middle" x="1067.21" y="-1321.93" font-family="Times,serif" font-size="14.00">1</text>
</g>
<!-- 22&#45;&gt;18 -->
<g id="edge50" class="edge">
<title>22&#45;&gt;18</title>
<path fill="none" stroke="black" d="M1205.81,-734.53C1209.95,-721.1 1215.02,-704.72 1219.23,-691.06"/>
<polygon fill="black" stroke="black" points="1222.49,-692.4 1222.09,-681.81 1215.8,-690.33 1222.49,-692.4"/>
<text xml:space="preserve" text-anchor="middle" x="1220.84" y="-702.4" font-family="Times,serif" font-size="14.00">2</text>
</g>
<!-- 22&#45;&gt;22 -->
<g id="edge34" class="edge">
<title>22&#45;&gt;22</title>
<path fill="none" stroke="black" d="M1224.15,-771.7C1234.73,-772.28 1243.62,-768.89 1243.62,-761.55 1243.62,-757.08 1240.32,-754.07 1235.35,-752.54"/>
<polygon fill="black" stroke="black" points="1235.96,-749.08 1225.66,-751.55 1235.25,-756.05 1235.96,-749.08"/>
<text xml:space="preserve" text-anchor="middle" x="1248.12" y="-756.88" font-family="Times,serif" font-size="14.00">0</text>
</g>
<!-- 22&#45;&gt;28 -->
<g id="edge36" class="edge">
<title>22&#45;&gt;28</title>
<path fill="none" stroke="black" d="M1215.61,-783.24C1221.48,-790.59 1227.78,-799.11 1232.77,-807.4 1309.17,-934.51 1305.17,-978.13 1368.77,-1112.1 1423.85,-1228.14 1498.77,-1241.78 1498.77,-1370.23 1498.77,-1525.8 1498.77,-1525.8 1498.77,-1525.8 1498.77,-1557.64 1524.76,-1584.57 1547.3,-1601.93"/>
<polygon fill="black" stroke="black" points="1544.98,-1604.57 1555.12,-1607.65 1549.12,-1598.92 1544.98,-1604.57"/>
<text xml:space="preserve" text-anchor="middle" x="1430.81" y="-1188.05" font-family="Times,serif" font-size="14.00">4</text>
</g>
<!-- 23&#45;&gt;4 -->
<g id="edge77" class="edge">
<title>23&#45;&gt;4</title>
<path fill="none" stroke="black" d="M1675.72,-968.08C1681.38,-992.39 1692.27,-1038.17 1702.77,-1076.85 1749.79,-1250.14 1762.82,-1295.9 1848.77,-1453.55 1857.11,-1468.86 1867.41,-1485.41 1875.94,-1498.59"/>
<polygon fill="black" stroke="black" points="1872.83,-1500.23 1881.24,-1506.68 1878.69,-1496.4 1872.83,-1500.23"/>
<text xml:space="preserve" text-anchor="middle" x="1759.61" y="-1232.68" font-family="Times,serif" font-size="14.00">3</text>
</g>
<!-- 23&#45;&gt;15 -->
<g id="edge117" class="edge">
<title>23&#45;&gt;15</title>
<path fill="none" stroke="black" d="M1693.16,-938.29C1703.5,-932.29 1715.45,-923.97 1723.77,-913.9 1734.61,-900.77 1734.95,-895.24 1738.77,-878.65 1764.69,-765.97 1751.77,-734.45 1751.77,-618.83 1751.77,-618.83 1751.77,-618.83 1751.77,-473.1 1751.77,-449.39 1745.71,-423.15 1740.1,-403.92"/>
<polygon fill="black" stroke="black" points="1743.46,-402.93 1737.17,-394.4 1736.77,-404.98 1743.46,-402.93"/>
<text xml:space="preserve" text-anchor="middle" x="1757.4" y="-657.78" font-family="Times,serif" font-size="14.00">0</text>
</g>
<!-- 23&#45;&gt;22 -->
<g id="edge42" class="edge">
<title>23&#45;&gt;22</title>
<path fill="none" stroke="black" d="M1645.88,-943.96C1617.28,-938.17 1570.07,-927.58 1530.77,-913.9 1418.18,-874.71 1291.64,-811.61 1232.16,-780.74"/>
<polygon fill="black" stroke="black" points="1234.02,-777.76 1223.53,-776.24 1230.78,-783.97 1234.02,-777.76"/>
<text xml:space="preserve" text-anchor="middle" x="1441.68" y="-855.98" font-family="Times,serif" font-size="14.00">2</text>
</g>
<!-- 23&#45;&gt;24 -->
<g id="edge56" class="edge">
<title>23&#45;&gt;24</title>
<path fill="none" stroke="black" d="M1669.59,-931.66C1668.1,-919.83 1666.09,-903.86 1664.36,-890.15"/>
<polygon fill="black" stroke="black" points="1667.85,-889.84 1663.12,-880.35 1660.9,-890.71 1667.85,-889.84"/>
<text xml:space="preserve" text-anchor="middle" x="1671.75" y="-900.6" font-family="Times,serif" font-size="14.00">1</text>
</g>
<!-- 23&#45;&gt;29 -->
<g id="edge98" class="edge">
<title>23&#45;&gt;29</title>
<path fill="none" stroke="black" d="M1644.82,-953.13C1561.89,-960.32 1311.74,-984.57 1239.77,-1021.15 1042.72,-1121.3 924.77,-1200.16 924.77,-1370.23 924.77,-1679.38 924.77,-1679.38 924.77,-1679.38 924.77,-1793.84 741.13,-1810.04 659.31,-1811.58"/>
<polygon fill="black" stroke="black" points="659.48,-1808.07 649.52,-1811.69 659.56,-1815.07 659.48,-1808.07"/>
<text xml:space="preserve" text-anchor="middle" x="929.27" y="-1366.55" font-family="Times,serif" font-size="14.00">4</text>
</g>
<!-- 24&#45;&gt;3 -->
<g id="edge149" class="edge">
<title>24&#45;&gt;3</title>
<path fill="none" stroke="black" d="M1675.34,-876.3C1698.06,-899.27 1743.13,-945.33 1779.77,-985.9 1793.55,-1001.17 1799.11,-1003.55 1809.77,-1021.15 1867.13,-1115.87 1908.26,-1242.13 1924.76,-1297.54"/>
<polygon fill="black" stroke="black" points="1921.39,-1298.49 1927.57,-1307.1 1928.11,-1296.51 1921.39,-1298.49"/>
<text xml:space="preserve" text-anchor="middle" x="1860.57" y="-1098.8" font-family="Times,serif" font-size="14.00">3</text>
</g>
<!-- 24&#45;&gt;5 -->
<g id="edge121" class="edge">
<title>24&#45;&gt;5</title>
<path fill="none" stroke="black" d="M1633.6,-861.96C1555.46,-864.53 1329.91,-883.98 1239.77,-1021.15 1216.87,-1056 1326.77,-1724.93 1326.77,-1766.63 1326.77,-1991.75 1326.77,-1991.75 1326.77,-1991.75 1326.77,-2011.26 1326.77,-2033.21 1326.77,-2050.22"/>
<polygon fill="black" stroke="black" points="1323.27,-2050.11 1326.77,-2060.11 1330.27,-2050.11 1323.27,-2050.11"/>
<text xml:space="preserve" text-anchor="middle" x="1292.91" y="-1475.5" font-family="Times,serif" font-size="14.00">2</text>
</g>
<!-- 24&#45;&gt;13 -->
<g id="edge20" class="edge">
<title>24&#45;&gt;13</title>
<path fill="none" stroke="black" d="M1675.44,-845.22C1703.94,-816.42 1767.09,-748.7 1802.77,-680.45 1806.76,-672.81 1837.41,-568.8 1854.07,-511.82"/>
<polygon fill="black" stroke="black" points="1857.33,-513.13 1856.78,-502.55 1850.61,-511.16 1857.33,-513.13"/>
<text xml:space="preserve" text-anchor="middle" x="1819.07" y="-657.78" font-family="Times,serif" font-size="14.00">0</text>
</g>
<!-- 24&#45;&gt;22 -->
<g id="edge115" class="edge">
<title>24&#45;&gt;22</title>
<path fill="none" stroke="black" d="M1634.52,-855.64C1595.89,-849.61 1521.52,-837.54 1458.77,-824.65 1378.98,-808.26 1286.4,-785.29 1235.75,-772.37"/>
<polygon fill="black" stroke="black" points="1236.72,-769.01 1226.16,-769.92 1234.98,-775.79 1236.72,-769.01"/>
<text xml:space="preserve" text-anchor="middle" x="1463.27" y="-811.35" font-family="Times,serif" font-size="14.00">1</text>
</g>
<!-- 24&#45;&gt;24 -->
<g id="edge105" class="edge">
<title>24&#45;&gt;24</title>
<path fill="none" stroke="black" d="M1685.3,-868.89C1696.27,-869.67 1705.77,-866.93 1705.77,-860.65 1705.77,-856.73 1702.06,-854.19 1696.6,-853.02"/>
<polygon fill="black" stroke="black" points="1696.98,-849.54 1686.81,-852.5 1696.61,-856.53 1696.98,-849.54"/>
<text xml:space="preserve" text-anchor="middle" x="1710.27" y="-855.98" font-family="Times,serif" font-size="14.00">4</text>
</g>
<!-- 25&#45;&gt;2 -->
<g id="edge46" class="edge">
<title>25&#45;&gt;2</title>
<path fill="none" stroke="black" d="M140.05,-214.36C145.04,-231.8 151.77,-259.9 151.77,-284.75 151.77,-906.28 151.77,-906.28 151.77,-906.28 151.77,-1166.02 117.01,-1242.26 198.77,-1488.8 212.13,-1529.09 207.95,-1543.62 232.77,-1578.05 240.15,-1588.3 247.53,-1585.7 254.77,-1596.05 284.16,-1638.08 276.97,-1656.21 292.77,-1705 315.7,-1775.84 283.53,-1817.89 340.77,-1865.5 362.33,-1883.44 544.86,-1894.59 626.07,-1898.7"/>
<polygon fill="black" stroke="black" points="625.84,-1902.2 636.01,-1899.2 626.19,-1895.2 625.84,-1902.2"/>
<text xml:space="preserve" text-anchor="middle" x="154.1" y="-1044.33" font-family="Times,serif" font-size="14.00">2</text>
</g>
<!-- 25&#45;&gt;2 -->
<g id="edge116" class="edge">
<title>25&#45;&gt;2</title>
<path fill="none" stroke="black" d="M130.31,-214.43C124.15,-239.4 113.77,-287.64 113.77,-329.38 113.77,-995.53 113.77,-995.53 113.77,-995.53 113.77,-1151.49 129.04,-1190.02 149.77,-1344.6 156.29,-1393.25 155.61,-1406 167.77,-1453.55 170.51,-1464.29 295.18,-1820.16 299.77,-1830.25 307.22,-1846.65 304.68,-1855.66 319.77,-1865.5 369.41,-1897.88 546.77,-1901.16 626.02,-1900.95"/>
<polygon fill="black" stroke="black" points="625.93,-1904.45 635.91,-1900.9 625.89,-1897.45 625.93,-1904.45"/>
<text xml:space="preserve" text-anchor="middle" x="119.98" y="-1044.33" font-family="Times,serif" font-size="14.00">0</text>
</g>
<!-- 25&#45;&gt;3 -->
<g id="edge5" class="edge">
<title>25&#45;&gt;3</title>
<path fill="none" stroke="black" d="M161.63,-199.03C221.09,-202.37 368.36,-210.32 491.77,-214.5 690.36,-221.23 1189.13,-203.85 1385.77,-232.5 1561.87,-258.16 1596.88,-306.01 1771.77,-339 1847.73,-353.33 1871.1,-333.56 1944.77,-357 1991.42,-371.84 2002.98,-379.88 2040.77,-411 2269.19,-599.15 2086.74,-784.35 2041.77,-1076.85 2029.44,-1157.02 2041.12,-1183.36 2003.77,-1255.35 1994.8,-1272.63 1991.35,-1276.66 1977.77,-1290.6 1972.38,-1296.13 1966.1,-1301.53 1959.98,-1306.38"/>
<polygon fill="black" stroke="black" points="1958.28,-1303.27 1952.44,-1312.11 1962.51,-1308.84 1958.28,-1303.27"/>
<text xml:space="preserve" text-anchor="middle" x="2141.4" y="-756.88" font-family="Times,serif" font-size="14.00">3</text>
</g>
<!-- 25&#45;&gt;10 -->
<g id="edge68" class="edge">
<title>25&#45;&gt;10</title>
<path fill="none" stroke="black" d="M151.36,-181.82C167.74,-168.07 193.24,-146 213.77,-125.25 243.29,-95.41 238.61,-73.52 275.77,-54 321.95,-29.74 474.48,-22.16 546.49,-19.9"/>
<polygon fill="black" stroke="black" points="546.33,-23.41 556.22,-19.62 546.12,-16.41 546.33,-23.41"/>
<text xml:space="preserve" text-anchor="middle" x="244.04" y="-102.58" font-family="Times,serif" font-size="14.00">1</text>
</g>
<!-- 25&#45;&gt;17 -->
<g id="edge122" class="edge">
<title>25&#45;&gt;17</title>
<path fill="none" stroke="black" d="M142.85,-179.09C148.94,-166.74 157.42,-149.54 164.49,-135.18"/>
<polygon fill="black" stroke="black" points="167.62,-136.76 168.9,-126.24 161.34,-133.66 167.62,-136.76"/>
<text xml:space="preserve" text-anchor="middle" x="164.62" y="-147.2" font-family="Times,serif" font-size="14.00">4</text>
</g>
<!-- 26&#45;&gt;5 -->
<g id="edge58" class="edge">
<title>26&#45;&gt;5</title>
<path fill="none" stroke="black" d="M853.81,-481.77C820.31,-491.01 762.91,-507.91 744.77,-519.95 718.99,-537.06 698.77,-541.26 698.77,-572.2 698.77,-995.53 698.77,-995.53 698.77,-995.53 698.77,-1122.4 696.77,-1154.11 696.77,-1280.98 696.77,-1481.18 696.77,-1481.18 696.77,-1481.18 696.77,-1566.89 668.76,-1592.55 606.77,-1651.75 458.31,-1793.53 298.79,-1674.95 188.77,-1848.25 137.13,-1929.59 145.57,-2004.48 202.77,-2044 252.68,-2078.49 1236.01,-2046.85 1294.77,-2062 1295.59,-2062.22 1296.41,-2062.45 1297.24,-2062.71"/>
<polygon fill="black" stroke="black" points="1295.75,-2065.89 1306.33,-2066.46 1298.42,-2059.41 1295.75,-2065.89"/>
<text xml:space="preserve" text-anchor="middle" x="701.27" y="-1277.3" font-family="Times,serif" font-size="14.00">1</text>
</g>
<!-- 26&#45;&gt;9 -->
<g id="edge106" class="edge">
<title>26&#45;&gt;9</title>
<path fill="none" stroke="black" d="M902.88,-482.99C978.61,-508.17 1209.87,-588.26 1263.77,-644.45 1341.29,-725.28 1311.46,-776.23 1356.77,-878.65 1407.09,-992.43 1451.71,-1008.9 1479.77,-1130.1 1515.22,-1283.25 1422.77,-1321.98 1422.77,-1479.18 1422.77,-1624.9 1422.77,-1624.9 1422.77,-1624.9 1422.77,-1647.97 1422.77,-1674.11 1422.77,-1693.46"/>
<polygon fill="black" stroke="black" points="1419.27,-1693.3 1422.77,-1703.3 1426.27,-1693.3 1419.27,-1693.3"/>
<text xml:space="preserve" text-anchor="middle" x="1479.62" y="-1098.8" font-family="Times,serif" font-size="14.00">4</text>
</g>
<!-- 26&#45;&gt;15 -->
<g id="edge47" class="edge">
<title>26&#45;&gt;15</title>
<path fill="none" stroke="black" d="M905.73,-471.46C983.01,-466.63 1211.83,-451.29 1400.77,-428.25 1507.38,-415.25 1632.4,-393.72 1693.43,-382.8"/>
<polygon fill="black" stroke="black" points="1694.05,-386.25 1703.27,-381.03 1692.81,-379.36 1694.05,-386.25"/>
<text xml:space="preserve" text-anchor="middle" x="1523.55" y="-414.95" font-family="Times,serif" font-size="14.00">3</text>
</g>
<!-- 26&#45;&gt;21 -->
<g id="edge151" class="edge">
<title>26&#45;&gt;21</title>
<path fill="none" stroke="black" d="M851.53,-472.23C797.94,-469.84 675.56,-460.93 578.77,-428.25 554.84,-420.17 529.9,-406.21 511.58,-394.75"/>
<polygon fill="black" stroke="black" points="513.72,-391.96 503.41,-389.51 509.94,-397.86 513.72,-391.96"/>
<text xml:space="preserve" text-anchor="middle" x="583.27" y="-414.95" font-family="Times,serif" font-size="14.00">0</text>
</g>
<!-- 26&#45;&gt;22 -->
<g id="edge138" class="edge">
<title>26&#45;&gt;22</title>
<path fill="none" stroke="black" d="M899,-486.2C925.39,-500.94 972.69,-528.27 1010.77,-555.2 1041.71,-577.09 1052.59,-580.02 1076.77,-609.2 1111.15,-650.7 1099.01,-675.37 1134.77,-715.7 1143.14,-725.14 1153.85,-733.69 1164.06,-740.74"/>
<polygon fill="black" stroke="black" points="1162.06,-743.61 1172.33,-746.18 1165.9,-737.76 1162.06,-743.61"/>
<text xml:space="preserve" text-anchor="middle" x="1093.66" y="-613.15" font-family="Times,serif" font-size="14.00">2</text>
</g>
<!-- 27&#45;&gt;5 -->
<g id="edge142" class="edge">
<title>27&#45;&gt;5</title>
<path fill="none" stroke="black" d="M61.61,-304.08C64.25,-321.64 67.77,-349.64 67.77,-374 67.77,-995.53 67.77,-995.53 67.77,-995.53 67.77,-1202.57 105.82,-1251.9 152.77,-1453.55 169.15,-1523.94 240.77,-1694.36 240.77,-1766.63 240.77,-1991.75 240.77,-1991.75 240.77,-1991.75 240.77,-2109.12 1181.88,-2029.86 1294.77,-2062 1295.43,-2062.19 1296.09,-2062.4 1296.76,-2062.61"/>
<polygon fill="black" stroke="black" points="1295.37,-2065.83 1305.95,-2066.45 1298.07,-2059.37 1295.37,-2065.83"/>
<text xml:space="preserve" text-anchor="middle" x="91.33" y="-1188.05" font-family="Times,serif" font-size="14.00">0</text>
</g>
<!-- 27&#45;&gt;6 -->
<g id="edge27" class="edge">
<title>27&#45;&gt;6</title>
<path fill="none" stroke="black" d="M49.91,-302.94C41.38,-320.07 29.77,-348.14 29.77,-374 29.77,-995.53 29.77,-995.53 29.77,-995.53 29.77,-1063.04 39.77,-1079.59 39.77,-1147.1 39.77,-1282.98 39.77,-1282.98 39.77,-1282.98 39.77,-1462.48 126.77,-1497.87 126.77,-1677.38 126.77,-2081 126.77,-2081 126.77,-2081 126.77,-2174.05 1664.05,-2173.14 1912.92,-2172.39"/>
<polygon fill="black" stroke="black" points="1912.91,-2175.89 1922.9,-2172.35 1912.89,-2168.89 1912.91,-2175.89"/>
<text xml:space="preserve" text-anchor="middle" x="44.27" y="-1232.68" font-family="Times,serif" font-size="14.00">3</text>
</g>
<!-- 27&#45;&gt;17 -->
<g id="edge54" class="edge">
<title>27&#45;&gt;17</title>
<path fill="none" stroke="black" d="M60.54,-267.58C63.52,-245.38 71.15,-206.27 89.77,-178.5 104.6,-156.37 128.57,-137.9 147.75,-125.46"/>
<polygon fill="black" stroke="black" points="149.36,-128.58 155.99,-120.32 145.65,-122.64 149.36,-128.58"/>
<text xml:space="preserve" text-anchor="middle" x="94.27" y="-191.82" font-family="Times,serif" font-size="14.00">1</text>
</g>
<!-- 27&#45;&gt;22 -->
<g id="edge21" class="edge">
<title>27&#45;&gt;22</title>
<path fill="none" stroke="black" d="M85.9,-286.72C195.54,-287.63 614.37,-300.91 914.77,-446.25 1014,-494.26 1033.66,-522.51 1101.77,-609.2 1131.77,-647.4 1160.88,-695.29 1179.03,-726.85"/>
<polygon fill="black" stroke="black" points="1175.78,-728.22 1183.77,-735.17 1181.86,-724.75 1175.78,-728.22"/>
<text xml:space="preserve" text-anchor="middle" x="1047.43" y="-523.9" font-family="Times,serif" font-size="14.00">2</text>
</g>
<!-- 27&#45;&gt;25 -->
<g id="edge123" class="edge">
<title>27&#45;&gt;25</title>
<path fill="none" stroke="black" d="M70.14,-269.27C78.12,-258.66 89.21,-244.41 99.77,-232.5 103.49,-228.3 107.59,-223.97 111.64,-219.84"/>
<polygon fill="black" stroke="black" points="114.04,-222.38 118.65,-212.84 109.1,-217.43 114.04,-222.38"/>
<text xml:space="preserve" text-anchor="middle" x="104.27" y="-236.45" font-family="Times,serif" font-size="14.00">4</text>
</g>
<!-- 28&#45;&gt;4 -->
<g id="edge135" class="edge">
<title>28&#45;&gt;4</title>
<path fill="none" stroke="black" d="M1606.91,-1617.08C1657.29,-1606.21 1761.65,-1583.48 1777.77,-1578.05 1807.19,-1568.15 1839.24,-1553.22 1862.02,-1541.85"/>
<polygon fill="black" stroke="black" points="1863.4,-1545.07 1870.74,-1537.44 1860.24,-1538.83 1863.4,-1545.07"/>
<text xml:space="preserve" text-anchor="middle" x="1824.27" y="-1564.75" font-family="Times,serif" font-size="14.00">1</text>
</g>
<!-- 28&#45;&gt;5 -->
<g id="edge82" class="edge">
<title>28&#45;&gt;5</title>
<path fill="none" stroke="black" d="M1605.87,-1634.71C1638.12,-1648.73 1688.77,-1677.78 1688.77,-1722 1688.77,-1991.75 1688.77,-1991.75 1688.77,-1991.75 1688.77,-2057.71 1458.77,-2073.95 1365.43,-2077.83"/>
<polygon fill="black" stroke="black" points="1365.34,-2074.33 1355.49,-2078.21 1365.61,-2081.33 1365.34,-2074.33"/>
<text xml:space="preserve" text-anchor="middle" x="1693.27" y="-1852.2" font-family="Times,serif" font-size="14.00">3</text>
</g>
<!-- 28&#45;&gt;10 -->
<g id="edge51" class="edge">
<title>28&#45;&gt;10</title>
<path fill="none" stroke="black" d="M1577.62,-1595.72C1576.26,-1576.26 1574.77,-1549.43 1574.77,-1525.8 1574.77,-1525.8 1574.77,-1525.8 1574.77,-1191.73 1574.77,-1014.42 1523.09,-975.86 1467.77,-807.4 1397.9,-594.66 1222.04,-274.51 1214.77,-267.75 1034.55,-100.37 728.27,-40.45 622.22,-24.12"/>
<polygon fill="black" stroke="black" points="623.06,-20.71 612.65,-22.69 622.03,-27.63 623.06,-20.71"/>
<text xml:space="preserve" text-anchor="middle" x="1477.78" y="-811.35" font-family="Times,serif" font-size="14.00">4</text>
</g>
<!-- 28&#45;&gt;21 -->
<g id="edge30" class="edge">
<title>28&#45;&gt;21</title>
<path fill="none" stroke="black" d="M1563.75,-1600.97C1551.53,-1582.04 1536.77,-1553.46 1536.77,-1525.8 1536.77,-1525.8 1536.77,-1525.8 1536.77,-1191.73 1536.77,-1037.05 1440.72,-1022.85 1384.77,-878.65 1374.61,-852.47 1370.77,-845.11 1370.77,-817.03 1370.77,-817.03 1370.77,-817.03 1370.77,-661.45 1370.77,-480.17 690.92,-397.52 521.6,-379.74"/>
<polygon fill="black" stroke="black" points="522.12,-376.28 511.82,-378.73 521.4,-383.24 522.12,-376.28"/>
<text xml:space="preserve" text-anchor="middle" x="1463.42" y="-989.85" font-family="Times,serif" font-size="14.00">2</text>
</g>
<!-- 28&#45;&gt;28 -->
<g id="edge125" class="edge">
<title>28&#45;&gt;28</title>
<path fill="none" stroke="black" d="M1606.15,-1634.05C1616.73,-1634.63 1625.62,-1631.24 1625.62,-1623.9 1625.62,-1619.43 1622.32,-1616.43 1617.35,-1614.89"/>
<polygon fill="black" stroke="black" points="1617.96,-1611.44 1607.66,-1613.9 1617.25,-1618.4 1617.96,-1611.44"/>
<text xml:space="preserve" text-anchor="middle" x="1630.12" y="-1619.23" font-family="Times,serif" font-size="14.00">0</text>
</g>
<!-- 29&#45;&gt;9 -->
<g id="edge126" class="edge">
<title>29&#45;&gt;9</title>
<path fill="none" stroke="black" d="M647.45,-1808.35C766.03,-1795.45 1245.48,-1743.29 1384.69,-1728.15"/>
<polygon fill="black" stroke="black" points="1384.91,-1731.64 1394.48,-1727.08 1384.16,-1724.68 1384.91,-1731.64"/>
<text xml:space="preserve" text-anchor="middle" x="1098.1" y="-1762.95" font-family="Times,serif" font-size="14.00">3</text>
</g>
<!-- 29&#45;&gt;10 -->
<g id="edge45" class="edge">
<title>29&#45;&gt;10</title>
<path fill="none" stroke="black" d="M593.67,-1809.66C544.75,-1806.3 444.2,-1797.01 416.77,-1776.25 346,-1722.71 384.73,-1666.5 330.77,-1596.05 323.29,-1586.29 317.17,-1587.87 309.77,-1578.05 283.47,-1543.21 280.49,-1530.85 268.77,-1488.8 233.55,-1362.47 271.77,-1324.88 271.77,-1193.73 271.77,-1193.73 271.77,-1193.73 271.77,-1048 271.77,-985.01 272.77,-969.27 272.77,-906.28 272.77,-906.28 272.77,-906.28 272.77,-527.58 272.77,-419.28 308.84,-128.15 387.77,-54 410.15,-32.97 495.6,-24.29 546.31,-20.94"/>
<polygon fill="black" stroke="black" points="546.51,-24.43 556.28,-20.32 546.08,-17.45 546.51,-24.43"/>
<text xml:space="preserve" text-anchor="middle" x="277.27" y="-900.6" font-family="Times,serif" font-size="14.00">2</text>
</g>
<!-- 29&#45;&gt;13 -->
<g id="edge15" class="edge">
<title>29&#45;&gt;13</title>
<path fill="none" stroke="black" d="M623.41,-1794.08C627.32,-1772.23 636.06,-1733.84 652.77,-1705 692.93,-1635.66 772.77,-1650.56 772.77,-1570.43 772.77,-1570.43 772.77,-1570.43 772.77,-1370.23 772.77,-1203.66 780.77,-1162.1 780.77,-995.53 780.77,-995.53 780.77,-995.53 780.77,-706.08 780.77,-625.63 807.91,-589.32 880.77,-555.2 891.68,-550.09 1643.17,-492.11 1825.32,-478.12"/>
<polygon fill="black" stroke="black" points="1825.51,-481.62 1835.21,-477.37 1824.98,-474.64 1825.51,-481.62"/>
<text xml:space="preserve" text-anchor="middle" x="783.17" y="-1143.43" font-family="Times,serif" font-size="14.00">1</text>
</g>
<!-- 29&#45;&gt;21 -->
<g id="edge124" class="edge">
<title>29&#45;&gt;21</title>
<path fill="none" stroke="black" d="M594.1,-1807.77C560.32,-1802.75 505,-1792.28 492.77,-1776.25 488.11,-1770.16 492.48,-1766.66 492.77,-1759 495.88,-1675.02 506.77,-1654.47 506.77,-1570.43 506.77,-1570.43 506.77,-1570.43 506.77,-1280.98 506.77,-1202.49 500.77,-1182.97 500.77,-1104.48 500.77,-1104.48 500.77,-1104.48 500.77,-527.58 500.77,-484.33 493.85,-434.57 488.84,-404.21"/>
<polygon fill="black" stroke="black" points="492.35,-403.97 487.22,-394.7 485.45,-405.14 492.35,-403.97"/>
<text xml:space="preserve" text-anchor="middle" x="505.27" y="-1098.8" font-family="Times,serif" font-size="14.00">0</text>
</g>
<!-- 29&#45;&gt;22 -->
<g id="edge148" class="edge">
<title>29&#45;&gt;22</title>
<path fill="none" stroke="black" d="M647.74,-1810.25C715.36,-1806.15 886.77,-1785.3 886.77,-1679.38 886.77,-1679.38 886.77,-1679.38 886.77,-1370.23 886.77,-1153.31 866.93,-1064.14 1004.77,-896.65 1048.98,-842.92 1119.94,-801.26 1162.39,-779.44"/>
<polygon fill="black" stroke="black" points="1163.83,-782.64 1171.18,-775.01 1160.68,-776.39 1163.83,-782.64"/>
<text xml:space="preserve" text-anchor="middle" x="890.63" y="-1277.3" font-family="Times,serif" font-size="14.00">4</text>
</g>
</g>
</svg>
