<?xml version="1.0" encoding="UTF-8" standalone="no"?>
<!DOCTYPE svg PUBLIC "-//W3C//DTD SVG 1.1//EN"
 "http://www.w3.org/Graphics/SVG/1.1/DTD/svg11.dtd">
<!-- Generated by graphviz version 13.0.1 (20250616.1512)
 -->
<!-- Pages: 1 -->
<svg width="2419pt" height="2540pt"
 viewBox="0.00 0.00 2419.00 2540.00" xmlns="http://www.w3.org/2000/svg" xmlns:xlink="http://www.w3.org/1999/xlink">
<g id="graph0" class="graph" transform="scale(1 1) rotate(0) translate(4 2536.3)">
<polygon fill="white" stroke="none" points="-4,4 -4,-2536.3 2415.11,-2536.3 2415.11,4 -4,4"/>
<!-- fake -->
<g id="node1" class="node">
<title>fake</title>
</g>
<!-- 29 -->
<g id="node31" class="node">
<title>29</title>
<ellipse fill="none" stroke="black" cx="1978" cy="-2441.3" rx="27" ry="18"/>
<text xml:space="preserve" text-anchor="middle" x="1978" y="-2436.63" font-family="Times,serif" font-size="14.00">29</text>
</g>
<!-- fake&#45;&gt;29 -->
<g id="edge1" class="edge">
<title>fake&#45;&gt;29</title>
<path fill="none" stroke="black" stroke-width="2" d="M1978,-2496.12C1978,-2488.53 1978,-2479.4 1978,-2470.84"/>
<polygon fill="black" stroke="black" stroke-width="2" points="1981.5,-2472.36 1978,-2462.36 1974.5,-2472.36 1981.5,-2472.36"/>
</g>
<!-- 0 -->
<g id="node2" class="node">
<title>0</title>
<ellipse fill="none" stroke="black" cx="1496" cy="-2161.55" rx="18" ry="18"/>
<ellipse fill="none" stroke="black" cx="1496" cy="-2161.55" rx="22" ry="22"/>
<text xml:space="preserve" text-anchor="middle" x="1496" y="-2156.88" font-family="Times,serif" font-size="14.00">0</text>
</g>
<!-- 3 -->
<g id="node5" class="node">
<title>3</title>
<ellipse fill="none" stroke="black" cx="1325" cy="-2064.3" rx="18" ry="18"/>
<ellipse fill="none" stroke="black" cx="1325" cy="-2064.3" rx="22" ry="22"/>
<text xml:space="preserve" text-anchor="middle" x="1325" y="-2059.63" font-family="Times,serif" font-size="14.00">3</text>
</g>
<!-- 0&#45;&gt;3 -->
<g id="edge77" class="edge">
<title>0&#45;&gt;3</title>
<path fill="none" stroke="black" d="M1474.6,-2155.98C1451.14,-2150.34 1412.99,-2139.26 1384,-2121.55 1370.18,-2113.11 1356.93,-2100.98 1346.5,-2090.14"/>
<polygon fill="black" stroke="black" points="1349.18,-2087.88 1339.81,-2082.93 1344.05,-2092.65 1349.18,-2087.88"/>
<text xml:space="preserve" text-anchor="middle" x="1388.5" y="-2108.25" font-family="Times,serif" font-size="14.00">3</text>
</g>
<!-- 4 -->
<g id="node6" class="node">
<title>4</title>
<ellipse fill="none" stroke="black" cx="1430" cy="-2352.05" rx="27" ry="18"/>
<text xml:space="preserve" text-anchor="middle" x="1430" y="-2347.38" font-family="Times,serif" font-size="14.00">4</text>
</g>
<!-- 0&#45;&gt;4 -->
<g id="edge42" class="edge">
<title>0&#45;&gt;4</title>
<path fill="none" stroke="black" d="M1488.98,-2182.61C1477.07,-2216.63 1452.89,-2285.66 1439.49,-2323.95"/>
<polygon fill="black" stroke="black" points="1436.36,-2322.3 1436.36,-2332.9 1442.97,-2324.61 1436.36,-2322.3"/>
<text xml:space="preserve" text-anchor="middle" x="1474.06" y="-2254.13" font-family="Times,serif" font-size="14.00">0</text>
</g>
<!-- 8 -->
<g id="node10" class="node">
<title>8</title>
<ellipse fill="none" stroke="black" cx="786" cy="-840.95" rx="27" ry="18"/>
<text xml:space="preserve" text-anchor="middle" x="786" y="-836.28" font-family="Times,serif" font-size="14.00">8</text>
</g>
<!-- 0&#45;&gt;8 -->
<g id="edge20" class="edge">
<title>0&#45;&gt;8</title>
<path fill="none" stroke="black" d="M1474.09,-2157.48C1385.97,-2144.72 1058.6,-2093.34 984,-2024.3 950.51,-1993.31 950,-1973.06 950,-1927.43 950,-1927.43 950,-1927.43 950,-1781.7 950,-1659.26 884.44,-1641.95 855,-1523.1 793.79,-1276.05 786.7,-965.71 786.02,-870.82"/>
<polygon fill="black" stroke="black" points="789.52,-870.86 785.97,-860.88 782.52,-870.9 789.52,-870.86"/>
<text xml:space="preserve" text-anchor="middle" x="859.5" y="-1500.43" font-family="Times,serif" font-size="14.00">2</text>
</g>
<!-- 22 -->
<g id="node24" class="node">
<title>22</title>
<ellipse fill="none" stroke="black" cx="1038" cy="-751.7" rx="27" ry="18"/>
<text xml:space="preserve" text-anchor="middle" x="1038" y="-747.03" font-family="Times,serif" font-size="14.00">22</text>
</g>
<!-- 0&#45;&gt;22 -->
<g id="edge13" class="edge">
<title>0&#45;&gt;22</title>
<path fill="none" stroke="black" d="M1493.03,-2139.52C1482.21,-2070.19 1438.72,-1846.11 1314,-1719.6 1219.46,-1623.7 1168.34,-1634.77 1047,-1576.35 1028.7,-1567.54 1020.49,-1571.48 1005,-1558.35 966.01,-1525.3 943,-1512.6 943,-1461.48 943,-1461.48 943,-1461.48 943,-1172.03 943,-1020.67 1002.6,-846.01 1027.39,-779.92"/>
<polygon fill="black" stroke="black" points="1030.5,-781.57 1030.78,-770.98 1023.96,-779.08 1030.5,-781.57"/>
<text xml:space="preserve" text-anchor="middle" x="947.68" y="-1455.8" font-family="Times,serif" font-size="14.00">4</text>
</g>
<!-- 26 -->
<g id="node28" class="node">
<title>26</title>
<ellipse fill="none" stroke="black" cx="1290" cy="-1594.35" rx="27" ry="18"/>
<text xml:space="preserve" text-anchor="middle" x="1290" y="-1589.68" font-family="Times,serif" font-size="14.00">26</text>
</g>
<!-- 0&#45;&gt;26 -->
<g id="edge62" class="edge">
<title>0&#45;&gt;26</title>
<path fill="none" stroke="black" d="M1502.43,-2140.35C1507.94,-2121.22 1515,-2091.61 1515,-2065.3 1515,-2065.3 1515,-2065.3 1515,-1925.43 1515,-1880.85 1476.41,-1884.34 1454,-1845.8 1401.75,-1755.94 1434.74,-1705.58 1363,-1630.35 1352.77,-1619.62 1338.58,-1611.8 1325.43,-1606.3"/>
<polygon fill="black" stroke="black" points="1326.74,-1603.05 1316.15,-1602.75 1324.24,-1609.59 1326.74,-1603.05"/>
<text xml:space="preserve" text-anchor="middle" x="1512.96" y="-1877.13" font-family="Times,serif" font-size="14.00">1</text>
</g>
<!-- 1 -->
<g id="node3" class="node">
<title>1</title>
<ellipse fill="none" stroke="black" cx="1710" cy="-1326.6" rx="27" ry="18"/>
<text xml:space="preserve" text-anchor="middle" x="1710" y="-1321.93" font-family="Times,serif" font-size="14.00">1</text>
</g>
<!-- 1&#45;&gt;0 -->
<g id="edge43" class="edge">
<title>1&#45;&gt;0</title>
<path fill="none" stroke="black" d="M1718.47,-1344.02C1759.28,-1425.68 1927.72,-1793.32 1778,-2024.3 1734.38,-2091.6 1698.89,-2088.1 1626,-2121.55 1594.1,-2136.19 1555.31,-2147 1528.45,-2153.48"/>
<polygon fill="black" stroke="black" points="1527.78,-2150.04 1518.84,-2155.72 1529.37,-2156.86 1527.78,-2150.04"/>
<text xml:space="preserve" text-anchor="middle" x="1840.85" y="-1723.55" font-family="Times,serif" font-size="14.00">1</text>
</g>
<!-- 11 -->
<g id="node13" class="node">
<title>11</title>
<ellipse fill="none" stroke="black" cx="1677" cy="-394.7" rx="27" ry="18"/>
<text xml:space="preserve" text-anchor="middle" x="1677" y="-390.03" font-family="Times,serif" font-size="14.00">11</text>
</g>
<!-- 1&#45;&gt;11 -->
<g id="edge48" class="edge">
<title>1&#45;&gt;11</title>
<path fill="none" stroke="black" d="M1723.09,-1310.71C1745.84,-1283.04 1789.21,-1221.32 1778,-1164.4 1766.22,-1104.58 1739.64,-1096.88 1726,-1037.45 1665.55,-774.11 1737.31,-696.36 1688,-430.7 1687.56,-428.35 1687.02,-425.94 1686.41,-423.54"/>
<polygon fill="black" stroke="black" points="1689.8,-422.65 1683.64,-414.03 1683.08,-424.61 1689.8,-422.65"/>
<text xml:space="preserve" text-anchor="middle" x="1705.5" y="-836.28" font-family="Times,serif" font-size="14.00">2</text>
</g>
<!-- 14 -->
<g id="node16" class="node">
<title>14</title>
<ellipse fill="none" stroke="black" cx="577" cy="-18" rx="27" ry="18"/>
<text xml:space="preserve" text-anchor="middle" x="577" y="-13.32" font-family="Times,serif" font-size="14.00">14</text>
</g>
<!-- 1&#45;&gt;14 -->
<g id="edge10" class="edge">
<title>1&#45;&gt;14</title>
<path fill="none" stroke="black" d="M1687.22,-1316.6C1618.99,-1288.17 1416.83,-1192.9 1349,-1037.45 1326.74,-986.43 1348.05,-967.86 1349,-912.2 1351.22,-781.75 1359,-749.29 1359,-618.83 1359,-618.83 1359,-618.83 1359,-393.7 1359,-319.43 1367.11,-285.41 1315,-232.5 1213.03,-128.97 749.97,-47.01 614.4,-24.9"/>
<polygon fill="black" stroke="black" points="615.32,-21.5 604.89,-23.36 614.2,-28.41 615.32,-21.5"/>
<text xml:space="preserve" text-anchor="middle" x="1363.39" y="-657.78" font-family="Times,serif" font-size="14.00">3</text>
</g>
<!-- 20 -->
<g id="node22" class="node">
<title>20</title>
<ellipse fill="none" stroke="black" cx="1685" cy="-1227.5" rx="23.85" ry="23.85"/>
<ellipse fill="none" stroke="black" cx="1685" cy="-1227.5" rx="27.85" ry="27.85"/>
<text xml:space="preserve" text-anchor="middle" x="1685" y="-1222.83" font-family="Times,serif" font-size="14.00">20</text>
</g>
<!-- 1&#45;&gt;20 -->
<g id="edge95" class="edge">
<title>1&#45;&gt;20</title>
<path fill="none" stroke="black" d="M1700.11,-1309.39C1697.03,-1303.64 1693.94,-1297.01 1692,-1290.6 1689.74,-1283.14 1688.2,-1274.97 1687.15,-1267.08"/>
<polygon fill="black" stroke="black" points="1690.65,-1266.9 1686.1,-1257.34 1683.69,-1267.65 1690.65,-1266.9"/>
<text xml:space="preserve" text-anchor="middle" x="1696.5" y="-1277.3" font-family="Times,serif" font-size="14.00">4</text>
</g>
<!-- 1&#45;&gt;20 -->
<g id="edge117" class="edge">
<title>1&#45;&gt;20</title>
<path fill="none" stroke="black" d="M1707.81,-1308.5C1706.31,-1298.22 1704.04,-1284.93 1701,-1273.35 1700.24,-1270.45 1699.37,-1267.48 1698.45,-1264.5"/>
<polygon fill="black" stroke="black" points="1701.87,-1263.7 1695.39,-1255.31 1695.23,-1265.91 1701.87,-1263.7"/>
<text xml:space="preserve" text-anchor="middle" x="1709.29" y="-1277.3" font-family="Times,serif" font-size="14.00">0</text>
</g>
<!-- 2 -->
<g id="node4" class="node">
<title>2</title>
<ellipse fill="none" stroke="black" cx="874" cy="-2258.8" rx="18" ry="18"/>
<ellipse fill="none" stroke="black" cx="874" cy="-2258.8" rx="22" ry="22"/>
<text xml:space="preserve" text-anchor="middle" x="874" y="-2254.13" font-family="Times,serif" font-size="14.00">2</text>
</g>
<!-- 2&#45;&gt;0 -->
<g id="edge8" class="edge">
<title>2&#45;&gt;0</title>
<path fill="none" stroke="black" d="M895.77,-2254.47C988.51,-2240.27 1350.91,-2184.77 1462.87,-2167.63"/>
<polygon fill="black" stroke="black" points="1463.23,-2171.11 1472.59,-2166.14 1462.17,-2164.19 1463.23,-2171.11"/>
<text xml:space="preserve" text-anchor="middle" x="1245.21" y="-2205.5" font-family="Times,serif" font-size="14.00">1</text>
</g>
<!-- 2&#45;&gt;2 -->
<g id="edge49" class="edge">
<title>2&#45;&gt;2</title>
<path fill="none" stroke="black" d="M894.58,-2267.65C904.84,-2268.87 914,-2265.93 914,-2258.8 914,-2254.57 910.77,-2251.82 906,-2250.53"/>
<polygon fill="black" stroke="black" points="906.26,-2247.04 896.09,-2250.03 905.9,-2254.03 906.26,-2247.04"/>
<text xml:space="preserve" text-anchor="middle" x="918.5" y="-2254.13" font-family="Times,serif" font-size="14.00">3</text>
</g>
<!-- 7 -->
<g id="node9" class="node">
<title>7</title>
<ellipse fill="none" stroke="black" cx="1468" cy="-930.2" rx="27" ry="18"/>
<text xml:space="preserve" text-anchor="middle" x="1468" y="-925.53" font-family="Times,serif" font-size="14.00">7</text>
</g>
<!-- 2&#45;&gt;7 -->
<g id="edge56" class="edge">
<title>2&#45;&gt;7</title>
<path fill="none" stroke="black" d="M862.18,-2240.03C851.03,-2221.5 836,-2191.22 836,-2162.55 836,-2162.55 836,-2162.55 836,-2014.68 836,-1868.1 1312.67,-1775.65 1384,-1647.6 1486.49,-1463.61 1401,-1384.64 1401,-1174.03 1401,-1174.03 1401,-1174.03 1401,-1018.45 1401,-990.88 1422.31,-966.65 1440.89,-950.77"/>
<polygon fill="black" stroke="black" points="1442.93,-953.62 1448.51,-944.62 1438.54,-948.18 1442.93,-953.62"/>
<text xml:space="preserve" text-anchor="middle" x="1420.88" y="-1589.68" font-family="Times,serif" font-size="14.00">0</text>
</g>
<!-- 2&#45;&gt;8 -->
<g id="edge94" class="edge">
<title>2&#45;&gt;8</title>
<path fill="none" stroke="black" d="M854.32,-2248.95C826.49,-2234.94 779,-2204.83 779,-2162.55 779,-2162.55 779,-2162.55 779,-1637.98 779,-1591.75 745.26,-1479.65 739,-1433.85 733.61,-1394.43 733.56,-1384.36 732,-1344.6 728.87,-1264.57 725.34,-1244.03 734,-1164.4 745.9,-1054.9 769.68,-925.92 780.46,-870.07"/>
<polygon fill="black" stroke="black" points="783.85,-870.97 782.32,-860.48 776.98,-869.63 783.85,-870.97"/>
<text xml:space="preserve" text-anchor="middle" x="770.93" y="-1545.05" font-family="Times,serif" font-size="14.00">2</text>
</g>
<!-- 2&#45;&gt;11 -->
<g id="edge41" class="edge">
<title>2&#45;&gt;11</title>
<path fill="none" stroke="black" d="M895.87,-2255.76C954.14,-2250.27 1117.96,-2234.56 1254,-2218.8 1496.05,-2190.76 1599.93,-2243.63 1786,-2086.3 1922.18,-1971.16 1969,-1907.55 1969,-1729.23 1969,-1729.23 1969,-1729.23 1969,-1548.73 1969,-1391.94 1950.42,-1353.06 1918,-1199.65 1899.66,-1112.88 1743.71,-510 1704,-430.7 1702.1,-426.91 1699.76,-423.12 1697.27,-419.52"/>
<polygon fill="black" stroke="black" points="1700.2,-417.6 1691.38,-411.73 1694.62,-421.82 1700.2,-417.6"/>
<text xml:space="preserve" text-anchor="middle" x="1954.58" y="-1321.93" font-family="Times,serif" font-size="14.00">4</text>
</g>
<!-- 3&#45;&gt;0 -->
<g id="edge29" class="edge">
<title>3&#45;&gt;0</title>
<path fill="none" stroke="black" d="M1344.43,-2075.62C1358.24,-2083.15 1377.08,-2093.83 1393,-2104.3 1403.67,-2111.33 1405.1,-2114.89 1416,-2121.55 1431.7,-2131.15 1450.11,-2140.26 1465.3,-2147.25"/>
<polygon fill="black" stroke="black" points="1463.78,-2150.41 1474.34,-2151.33 1466.66,-2144.03 1463.78,-2150.41"/>
<text xml:space="preserve" text-anchor="middle" x="1420.5" y="-2108.25" font-family="Times,serif" font-size="14.00">1</text>
</g>
<!-- 3&#45;&gt;1 -->
<g id="edge123" class="edge">
<title>3&#45;&gt;1</title>
<path fill="none" stroke="black" d="M1343.63,-2051.99C1381.57,-2028.13 1468.65,-1969.11 1521,-1899.8 1546.88,-1865.54 1544.12,-1851.19 1558,-1810.55 1561.87,-1799.21 1669.49,-1456.61 1701.25,-1355.46"/>
<polygon fill="black" stroke="black" points="1704.55,-1356.65 1704.2,-1346.06 1697.87,-1354.55 1704.55,-1356.65"/>
<text xml:space="preserve" text-anchor="middle" x="1607.66" y="-1678.93" font-family="Times,serif" font-size="14.00">2</text>
</g>
<!-- 9 -->
<g id="node11" class="node">
<title>9</title>
<ellipse fill="none" stroke="black" cx="550" cy="-1415.85" rx="27" ry="18"/>
<text xml:space="preserve" text-anchor="middle" x="550" y="-1411.18" font-family="Times,serif" font-size="14.00">9</text>
</g>
<!-- 3&#45;&gt;9 -->
<g id="edge21" class="edge">
<title>3&#45;&gt;9</title>
<path fill="none" stroke="black" d="M1303.03,-2061.04C1233.91,-2053.85 1024.67,-2031.59 1012,-2024.3 884.61,-1950.98 631.03,-1548.5 565.66,-1442.47"/>
<polygon fill="black" stroke="black" points="568.78,-1440.86 560.56,-1434.17 562.82,-1444.52 568.78,-1440.86"/>
<text xml:space="preserve" text-anchor="middle" x="763.12" y="-1723.55" font-family="Times,serif" font-size="14.00">3</text>
</g>
<!-- 17 -->
<g id="node19" class="node">
<title>17</title>
<ellipse fill="none" stroke="black" cx="1682" cy="-1971.05" rx="27" ry="18"/>
<text xml:space="preserve" text-anchor="middle" x="1682" y="-1966.38" font-family="Times,serif" font-size="14.00">17</text>
</g>
<!-- 3&#45;&gt;17 -->
<g id="edge141" class="edge">
<title>3&#45;&gt;17</title>
<path fill="none" stroke="black" d="M1346.53,-2057.8C1405.91,-2042.62 1572.5,-2000.04 1646.18,-1981.21"/>
<polygon fill="black" stroke="black" points="1646.89,-1984.64 1655.71,-1978.77 1645.15,-1977.86 1646.89,-1984.64"/>
<text xml:space="preserve" text-anchor="middle" x="1539.98" y="-2011" font-family="Times,serif" font-size="14.00">0</text>
</g>
<!-- 3&#45;&gt;29 -->
<g id="edge74" class="edge">
<title>3&#45;&gt;29</title>
<path fill="none" stroke="black" d="M1333.79,-2084.93C1339.7,-2096.58 1348.35,-2111.06 1359,-2121.55 1397.87,-2159.87 1417.02,-2157.55 1465,-2183.55 1644.33,-2280.74 1865.06,-2386.75 1946.17,-2425.27"/>
<polygon fill="black" stroke="black" points="1944.33,-2428.27 1954.87,-2429.39 1947.33,-2421.94 1944.33,-2428.27"/>
<text xml:space="preserve" text-anchor="middle" x="1654.55" y="-2254.13" font-family="Times,serif" font-size="14.00">4</text>
</g>
<!-- 4&#45;&gt;2 -->
<g id="edge37" class="edge">
<title>4&#45;&gt;2</title>
<path fill="none" stroke="black" d="M1403.93,-2346.77C1312.84,-2331.83 1008.85,-2281.93 907.33,-2265.27"/>
<polygon fill="black" stroke="black" points="907.91,-2261.82 897.48,-2263.66 906.78,-2268.73 907.91,-2261.82"/>
<text xml:space="preserve" text-anchor="middle" x="1206.3" y="-2302.75" font-family="Times,serif" font-size="14.00">3</text>
</g>
<!-- 10 -->
<g id="node12" class="node">
<title>10</title>
<ellipse fill="none" stroke="black" cx="658" cy="-1782.7" rx="23.85" ry="23.85"/>
<ellipse fill="none" stroke="black" cx="658" cy="-1782.7" rx="27.85" ry="27.85"/>
<text xml:space="preserve" text-anchor="middle" x="658" y="-1778.03" font-family="Times,serif" font-size="14.00">10</text>
</g>
<!-- 4&#45;&gt;10 -->
<g id="edge106" class="edge">
<title>4&#45;&gt;10</title>
<path fill="none" stroke="black" d="M1402.98,-2350.76C1266.34,-2348.93 658,-2336.48 658,-2259.8 658,-2259.8 658,-2259.8 658,-1880.8 658,-1861.53 658,-1840.12 658,-1822.31"/>
<polygon fill="black" stroke="black" points="661.5,-1822.42 658,-1812.42 654.5,-1822.42 661.5,-1822.42"/>
<text xml:space="preserve" text-anchor="middle" x="662.5" y="-2059.63" font-family="Times,serif" font-size="14.00">1</text>
</g>
<!-- 19 -->
<g id="node21" class="node">
<title>19</title>
<ellipse fill="none" stroke="black" cx="1003" cy="-394.7" rx="27" ry="18"/>
<text xml:space="preserve" text-anchor="middle" x="1003" y="-390.03" font-family="Times,serif" font-size="14.00">19</text>
</g>
<!-- 4&#45;&gt;19 -->
<g id="edge38" class="edge">
<title>4&#45;&gt;19</title>
<path fill="none" stroke="black" d="M1457.35,-2350.4C1562.46,-2347.72 1937.09,-2336.82 1986,-2316.05 2090.55,-2271.65 2318,-2041.01 2318,-1927.43 2318,-1927.43 2318,-1927.43 2318,-1370.23 2318,-1306.35 2287.97,-1142.79 2251,-1090.7 2245.47,-1082.9 1717.25,-667.22 1565,-609.2 1500.61,-584.66 1476.7,-612 1411,-591.2 1355.33,-573.58 1232.9,-490.68 1180,-465.95 1131.28,-443.17 1073.01,-420.98 1037,-407.82"/>
<polygon fill="black" stroke="black" points="1038.59,-404.68 1027.99,-404.55 1036.2,-411.26 1038.59,-404.68"/>
<text xml:space="preserve" text-anchor="middle" x="2322.5" y="-1366.55" font-family="Times,serif" font-size="14.00">0</text>
</g>
<!-- 24 -->
<g id="node26" class="node">
<title>24</title>
<ellipse fill="none" stroke="black" cx="2025" cy="-1118.55" rx="23.85" ry="23.85"/>
<ellipse fill="none" stroke="black" cx="2025" cy="-1118.55" rx="27.85" ry="27.85"/>
<text xml:space="preserve" text-anchor="middle" x="2025" y="-1113.88" font-family="Times,serif" font-size="14.00">24</text>
</g>
<!-- 4&#45;&gt;24 -->
<g id="edge58" class="edge">
<title>4&#45;&gt;24</title>
<path fill="none" stroke="black" d="M1457.17,-2351.01C1557.3,-2350.61 1901.8,-2346.99 1939,-2316.05 1976.01,-2285.28 1966,-2259.31 1966,-2211.18 1966,-2211.18 1966,-2211.18 1966,-2014.68 1966,-1959.34 1996.16,-1952.18 2014,-1899.8 2031.22,-1849.25 2045,-1837.11 2045,-1783.7 2045,-1783.7 2045,-1783.7 2045,-1548.73 2045,-1470.22 2052,-1450.73 2052,-1372.23 2052,-1372.23 2052,-1372.23 2052,-1226.5 2052,-1202.26 2045.4,-1175.85 2038.73,-1155.34"/>
<polygon fill="black" stroke="black" points="2042.09,-1154.36 2035.54,-1146.03 2035.47,-1156.63 2042.09,-1154.36"/>
<text xml:space="preserve" text-anchor="middle" x="2049.5" y="-1723.55" font-family="Times,serif" font-size="14.00">4</text>
</g>
<!-- 27 -->
<g id="node29" class="node">
<title>27</title>
<ellipse fill="none" stroke="black" cx="2118" cy="-1881.8" rx="27" ry="18"/>
<text xml:space="preserve" text-anchor="middle" x="2118" y="-1877.13" font-family="Times,serif" font-size="14.00">27</text>
</g>
<!-- 4&#45;&gt;27 -->
<g id="edge132" class="edge">
<title>4&#45;&gt;27</title>
<path fill="none" stroke="black" d="M1457.13,-2350.99C1560.5,-2350.53 1925.92,-2346.72 1967,-2316.05 1980.38,-2306.06 1975.12,-2296.77 1980,-2280.8 2016.62,-2161.02 2000.59,-2123.39 2047,-2007.05 2061.42,-1970.91 2084.77,-1932.48 2100.73,-1908.1"/>
<polygon fill="black" stroke="black" points="2103.61,-1910.08 2106.23,-1899.81 2097.78,-1906.21 2103.61,-1910.08"/>
<text xml:space="preserve" text-anchor="middle" x="2021.14" y="-2108.25" font-family="Times,serif" font-size="14.00">2</text>
</g>
<!-- 5 -->
<g id="node7" class="node">
<title>5</title>
<ellipse fill="none" stroke="black" cx="1246" cy="-295.6" rx="27" ry="18"/>
<text xml:space="preserve" text-anchor="middle" x="1246" y="-290.93" font-family="Times,serif" font-size="14.00">5</text>
</g>
<!-- 5&#45;&gt;0 -->
<g id="edge82" class="edge">
<title>5&#45;&gt;0</title>
<path fill="none" stroke="black" d="M1271.33,-302.52C1324.28,-314.7 1450.65,-342.75 1558,-358.7 1598.2,-364.67 1706.03,-354.39 1740,-376.7 1776.64,-400.77 1769.27,-424 1782,-465.95 1783.56,-471.1 1882,-834.57 1882,-839.95 1882,-975.83 1882,-975.83 1882,-975.83 1882,-1231.38 1931,-1293.17 1931,-1548.73 1931,-1729.23 1931,-1729.23 1931,-1729.23 1931,-1730.45 1850.21,-2010.67 1752,-2086.3 1717.64,-2112.77 1702.42,-2108.7 1661,-2121.55 1615.86,-2135.56 1562.43,-2147.34 1528.87,-2154.17"/>
<polygon fill="black" stroke="black" points="1528.48,-2150.68 1519.36,-2156.08 1529.86,-2157.55 1528.48,-2150.68"/>
<text xml:space="preserve" text-anchor="middle" x="1909.82" y="-1222.83" font-family="Times,serif" font-size="14.00">1</text>
</g>
<!-- 5&#45;&gt;4 -->
<g id="edge45" class="edge">
<title>5&#45;&gt;4</title>
<path fill="none" stroke="black" d="M1218.72,-297.64C1131.35,-301.51 851.12,-317.99 628,-376.7 566.3,-392.93 547.52,-394.48 495,-430.7 266.13,-588.52 281,-633.93 281,-661.45 281,-797.33 281,-797.33 281,-797.33 281,-1092.38 194.75,-1157.84 170,-1451.85 167.34,-1483.43 164.77,-1492.49 173,-1523.1 234.56,-1752.03 380,-1777.62 380,-2014.68 380,-2259.8 380,-2259.8 380,-2259.8 380,-2292.96 399.07,-2301.79 429,-2316.05 473.14,-2337.08 1212.65,-2348.18 1391.36,-2350.56"/>
<polygon fill="black" stroke="black" points="1391.21,-2354.06 1401.26,-2350.69 1391.31,-2347.06 1391.21,-2354.06"/>
<text xml:space="preserve" text-anchor="middle" x="193.6" y="-1321.93" font-family="Times,serif" font-size="14.00">0</text>
</g>
<!-- 5&#45;&gt;22 -->
<g id="edge128" class="edge">
<title>5&#45;&gt;22</title>
<path fill="none" stroke="black" d="M1238.5,-312.97C1207.5,-380.66 1089.14,-639.05 1050.37,-723.68"/>
<polygon fill="black" stroke="black" points="1047.26,-722.08 1046.28,-732.62 1053.63,-724.99 1047.26,-722.08"/>
<text xml:space="preserve" text-anchor="middle" x="1147.99" y="-523.9" font-family="Times,serif" font-size="14.00">3</text>
</g>
<!-- 25 -->
<g id="node27" class="node">
<title>25</title>
<ellipse fill="none" stroke="black" cx="1190" cy="-1505.1" rx="27" ry="18"/>
<text xml:space="preserve" text-anchor="middle" x="1190" y="-1500.43" font-family="Times,serif" font-size="14.00">25</text>
</g>
<!-- 5&#45;&gt;25 -->
<g id="edge98" class="edge">
<title>5&#45;&gt;25</title>
<path fill="none" stroke="black" d="M1243.6,-313.64C1233.93,-383.32 1197.76,-653.4 1186,-876.95 1174.66,-1092.5 1185.22,-1146.76 1185,-1362.6 1184.99,-1370.27 1184.85,-1372.19 1185,-1379.85 1185.66,-1412.68 1187.3,-1450.37 1188.52,-1475.54"/>
<polygon fill="black" stroke="black" points="1185.02,-1475.5 1189.01,-1485.31 1192.01,-1475.15 1185.02,-1475.5"/>
<text xml:space="preserve" text-anchor="middle" x="1190.5" y="-880.9" font-family="Times,serif" font-size="14.00">4</text>
</g>
<!-- 5&#45;&gt;29 -->
<g id="edge92" class="edge">
<title>5&#45;&gt;29</title>
<path fill="none" stroke="black" d="M1272.06,-300.78C1335.61,-310.93 1503.61,-337.64 1644,-358.7 1699.51,-367.03 1718.09,-353.06 1769,-376.7 1920.54,-447.08 1915.4,-527.46 2050,-626.45 2161.98,-708.81 2233.57,-677.27 2318,-787.7 2453.03,-964.31 2401,-1058.66 2401,-1280.98 2401,-2353.05 2401,-2353.05 2401,-2353.05 2401,-2431.12 2121.15,-2439.91 2016.7,-2440.48"/>
<polygon fill="black" stroke="black" points="2016.93,-2436.98 2006.94,-2440.5 2016.95,-2443.98 2016.93,-2436.98"/>
<text xml:space="preserve" text-anchor="middle" x="2405.5" y="-1366.55" font-family="Times,serif" font-size="14.00">2</text>
</g>
<!-- 6 -->
<g id="node8" class="node">
<title>6</title>
<ellipse fill="none" stroke="black" cx="976" cy="-662.45" rx="27" ry="18"/>
<text xml:space="preserve" text-anchor="middle" x="976" y="-657.78" font-family="Times,serif" font-size="14.00">6</text>
</g>
<!-- 6&#45;&gt;1 -->
<g id="edge24" class="edge">
<title>6&#45;&gt;1</title>
<path fill="none" stroke="black" d="M1000.4,-670.82C1097.26,-700.16 1450.33,-807.73 1470,-822.95 1529.65,-869.11 1534.04,-895.75 1561,-966.2 1595.78,-1057.09 1560.89,-1092.55 1600,-1181.65 1621.13,-1229.78 1661.54,-1276.41 1687.06,-1303"/>
<polygon fill="black" stroke="black" points="1684.55,-1305.43 1694.04,-1310.13 1689.55,-1300.53 1684.55,-1305.43"/>
<text xml:space="preserve" text-anchor="middle" x="1571.48" y="-970.15" font-family="Times,serif" font-size="14.00">4</text>
</g>
<!-- 12 -->
<g id="node14" class="node">
<title>12</title>
<ellipse fill="none" stroke="black" cx="534" cy="-107.25" rx="27" ry="18"/>
<text xml:space="preserve" text-anchor="middle" x="534" y="-102.58" font-family="Times,serif" font-size="14.00">12</text>
</g>
<!-- 6&#45;&gt;12 -->
<g id="edge64" class="edge">
<title>6&#45;&gt;12</title>
<path fill="none" stroke="black" d="M949.07,-660.01C898.78,-656.83 793.02,-647.76 764,-626.45 703.2,-581.8 640.17,-393.01 611,-323.45 578.31,-245.47 581.17,-221.85 550,-143.25 548.94,-140.59 547.79,-137.83 546.61,-135.1"/>
<polygon fill="black" stroke="black" points="549.91,-133.91 542.62,-126.22 543.52,-136.77 549.91,-133.91"/>
<text xml:space="preserve" text-anchor="middle" x="650.48" y="-390.03" font-family="Times,serif" font-size="14.00">1</text>
</g>
<!-- 16 -->
<g id="node18" class="node">
<title>16</title>
<ellipse fill="none" stroke="black" cx="1622" cy="-295.6" rx="23.85" ry="23.85"/>
<ellipse fill="none" stroke="black" cx="1622" cy="-295.6" rx="27.85" ry="27.85"/>
<text xml:space="preserve" text-anchor="middle" x="1622" y="-290.93" font-family="Times,serif" font-size="14.00">16</text>
</g>
<!-- 6&#45;&gt;16 -->
<g id="edge93" class="edge">
<title>6&#45;&gt;16</title>
<path fill="none" stroke="black" d="M986.24,-645.64C1000.73,-623.92 1028.72,-584.25 1058,-555.2 1090.48,-522.97 1181.83,-452.61 1222,-430.7 1323.74,-375.21 1356.83,-377.41 1467,-341.45 1506.61,-328.52 1552.51,-315.48 1584.03,-306.81"/>
<polygon fill="black" stroke="black" points="1584.77,-310.24 1593.49,-304.23 1582.92,-303.49 1584.77,-310.24"/>
<text xml:space="preserve" text-anchor="middle" x="1171.88" y="-479.28" font-family="Times,serif" font-size="14.00">2</text>
</g>
<!-- 6&#45;&gt;22 -->
<g id="edge31" class="edge">
<title>6&#45;&gt;22</title>
<path fill="none" stroke="black" d="M972.67,-680.63C971.49,-691.44 971.74,-705.27 978,-715.7 983.89,-725.52 993.68,-732.88 1003.65,-738.24"/>
<polygon fill="black" stroke="black" points="1002.05,-741.36 1012.59,-742.48 1005.05,-735.03 1002.05,-741.36"/>
<text xml:space="preserve" text-anchor="middle" x="982.5" y="-702.4" font-family="Times,serif" font-size="14.00">0</text>
</g>
<!-- 23 -->
<g id="node25" class="node">
<title>23</title>
<ellipse fill="none" stroke="black" cx="434" cy="-573.2" rx="27" ry="18"/>
<text xml:space="preserve" text-anchor="middle" x="434" y="-568.53" font-family="Times,serif" font-size="14.00">23</text>
</g>
<!-- 6&#45;&gt;23 -->
<g id="edge149" class="edge">
<title>6&#45;&gt;23</title>
<path fill="none" stroke="black" d="M949.39,-658.93C898.59,-653.96 784.37,-642.01 689,-626.45 610.55,-613.65 519.52,-593.77 470.23,-582.59"/>
<polygon fill="black" stroke="black" points="471.21,-579.22 460.69,-580.41 469.66,-586.05 471.21,-579.22"/>
<text xml:space="preserve" text-anchor="middle" x="693.5" y="-613.15" font-family="Times,serif" font-size="14.00">3</text>
</g>
<!-- 7&#45;&gt;0 -->
<g id="edge99" class="edge">
<title>7&#45;&gt;0</title>
<path fill="none" stroke="black" d="M1471.75,-948.35C1489.43,-1031.53 1561.97,-1401.26 1524,-1701.6 1522,-1717.45 1520.35,-1721.23 1517,-1736.85 1509.95,-1769.72 1508.9,-1778.14 1500,-1810.55 1493.42,-1834.51 1487.84,-1839.43 1483,-1863.8 1462.11,-1969.01 1467.45,-1997.14 1463,-2104.3 1462.68,-2111.96 1460.36,-2114.35 1463,-2121.55 1465.08,-2127.24 1468.4,-2132.66 1472.15,-2137.56"/>
<polygon fill="black" stroke="black" points="1469.49,-2139.84 1478.68,-2145.12 1474.79,-2135.27 1469.49,-2139.84"/>
<text xml:space="preserve" text-anchor="middle" x="1539.11" y="-1545.05" font-family="Times,serif" font-size="14.00">2</text>
</g>
<!-- 7&#45;&gt;3 -->
<g id="edge5" class="edge">
<title>7&#45;&gt;3</title>
<path fill="none" stroke="black" d="M1459.14,-947.39C1450.61,-964.52 1439,-992.59 1439,-1018.45 1439,-1174.03 1439,-1174.03 1439,-1174.03 1439,-1305.09 1513,-1328.42 1513,-1459.48 1513,-1639.98 1513,-1639.98 1513,-1639.98 1513,-1803.66 1394.14,-1974.68 1345.44,-2037.89"/>
<polygon fill="black" stroke="black" points="1342.85,-2035.52 1339.45,-2045.56 1348.36,-2039.83 1342.85,-2035.52"/>
<text xml:space="preserve" text-anchor="middle" x="1517.5" y="-1500.43" font-family="Times,serif" font-size="14.00">4</text>
</g>
<!-- 7&#45;&gt;8 -->
<g id="edge140" class="edge">
<title>7&#45;&gt;8</title>
<path fill="none" stroke="black" d="M1441.08,-926.64C1385.49,-921.26 1254.01,-908.17 1144,-894.2 1026.68,-879.31 888.28,-858.06 823.27,-847.86"/>
<polygon fill="black" stroke="black" points="823.93,-844.42 813.5,-846.32 822.84,-851.33 823.93,-844.42"/>
<text xml:space="preserve" text-anchor="middle" x="1148.5" y="-880.9" font-family="Times,serif" font-size="14.00">3</text>
</g>
<!-- 7&#45;&gt;17 -->
<g id="edge63" class="edge">
<title>7&#45;&gt;17</title>
<path fill="none" stroke="black" d="M1478.69,-946.75C1486.23,-957.39 1496.76,-971.65 1507,-983.45 1581.76,-1069.6 1609.12,-1082.98 1689,-1164.4 1751.13,-1227.72 1793.95,-1226.28 1827,-1308.6 1921.78,-1544.73 1752.66,-1854.37 1698.12,-1944.45"/>
<polygon fill="black" stroke="black" points="1695.23,-1942.46 1692.99,-1952.81 1701.2,-1946.12 1695.23,-1942.46"/>
<text xml:space="preserve" text-anchor="middle" x="1859.8" y="-1455.8" font-family="Times,serif" font-size="14.00">0</text>
</g>
<!-- 18 -->
<g id="node20" class="node">
<title>18</title>
<ellipse fill="none" stroke="black" cx="1434" cy="-840.95" rx="27" ry="18"/>
<text xml:space="preserve" text-anchor="middle" x="1434" y="-836.28" font-family="Times,serif" font-size="14.00">18</text>
</g>
<!-- 7&#45;&gt;18 -->
<g id="edge112" class="edge">
<title>7&#45;&gt;18</title>
<path fill="none" stroke="black" d="M1461.44,-912.38C1456.69,-900.19 1450.17,-883.44 1444.67,-869.33"/>
<polygon fill="black" stroke="black" points="1447.98,-868.18 1441.08,-860.13 1441.45,-870.72 1447.98,-868.18"/>
<text xml:space="preserve" text-anchor="middle" x="1458.55" y="-880.9" font-family="Times,serif" font-size="14.00">1</text>
</g>
<!-- 8&#45;&gt;3 -->
<g id="edge71" class="edge">
<title>8&#45;&gt;3</title>
<path fill="none" stroke="black" d="M793.55,-858.4C795.93,-864.17 798.37,-870.75 800,-876.95 877.78,-1172.48 784.03,-1272.47 892,-1558.35 895.4,-1567.35 899.46,-1567.88 904,-1576.35 936.63,-1637.18 938.2,-1655.58 964,-1719.6 1018.28,-1854.3 969.1,-1932.96 1082,-2024.3 1098.07,-2037.3 1228.71,-2052.94 1291.52,-2059.79"/>
<polygon fill="black" stroke="black" points="1290.95,-2063.25 1301.26,-2060.84 1291.7,-2056.29 1290.95,-2063.25"/>
<text xml:space="preserve" text-anchor="middle" x="867.05" y="-1455.8" font-family="Times,serif" font-size="14.00">0</text>
</g>
<!-- 8&#45;&gt;9 -->
<g id="edge101" class="edge">
<title>8&#45;&gt;9</title>
<path fill="none" stroke="black" d="M764.24,-852.05C753.36,-858.01 740.69,-866.45 732,-876.95 666.62,-955.98 677.28,-993.35 645,-1090.7 603.22,-1216.72 620.04,-1256.88 570,-1379.85 568.76,-1382.89 567.31,-1385.99 565.76,-1389.03"/>
<polygon fill="black" stroke="black" points="562.79,-1387.15 561.02,-1397.6 568.92,-1390.54 562.79,-1387.15"/>
<text xml:space="preserve" text-anchor="middle" x="649.5" y="-1113.88" font-family="Times,serif" font-size="14.00">1</text>
</g>
<!-- 8&#45;&gt;14 -->
<g id="edge54" class="edge">
<title>8&#45;&gt;14</title>
<path fill="none" stroke="black" d="M759.64,-836.4C735.21,-832.11 698.73,-823.08 672,-804.95 523.55,-704.26 499,-619.7 499,-440.33 499,-440.33 499,-440.33 499,-240.12 499,-180.1 551.71,-182.41 570,-125.25 578.09,-99.96 579.31,-69.61 578.82,-47.83"/>
<polygon fill="black" stroke="black" points="582.32,-47.78 578.44,-37.92 575.32,-48.04 582.32,-47.78"/>
<text xml:space="preserve" text-anchor="middle" x="503.51" y="-434.65" font-family="Times,serif" font-size="14.00">2</text>
</g>
<!-- 8&#45;&gt;19 -->
<g id="edge68" class="edge">
<title>8&#45;&gt;19</title>
<path fill="none" stroke="black" d="M786,-822.57C786,-804.96 786,-776.94 786,-752.7 786,-752.7 786,-752.7 786,-482.95 786,-407.04 901.73,-395.47 964.16,-394.75"/>
<polygon fill="black" stroke="black" points="964.01,-398.25 974,-394.74 964,-391.25 964.01,-398.25"/>
<text xml:space="preserve" text-anchor="middle" x="790.5" y="-613.15" font-family="Times,serif" font-size="14.00">4</text>
</g>
<!-- 8&#45;&gt;25 -->
<g id="edge151" class="edge">
<title>8&#45;&gt;25</title>
<path fill="none" stroke="black" d="M812.24,-846.44C831.99,-851.05 858.54,-860.04 876,-876.95 906.96,-906.95 898.75,-925.88 914,-966.2 955.66,-1076.34 997.32,-1386.25 1081,-1469.1 1099.85,-1487.76 1128.67,-1496.48 1151.94,-1500.55"/>
<polygon fill="black" stroke="black" points="1151.28,-1503.99 1161.69,-1502.01 1152.32,-1497.07 1151.28,-1503.99"/>
<text xml:space="preserve" text-anchor="middle" x="974.71" y="-1168.35" font-family="Times,serif" font-size="14.00">3</text>
</g>
<!-- 9&#45;&gt;1 -->
<g id="edge131" class="edge">
<title>9&#45;&gt;1</title>
<path fill="none" stroke="black" d="M576.97,-1412.82C730.26,-1401.29 1491.4,-1344.04 1671.67,-1330.48"/>
<polygon fill="black" stroke="black" points="1671.71,-1333.99 1681.42,-1329.75 1671.18,-1327.01 1671.71,-1333.99"/>
<text xml:space="preserve" text-anchor="middle" x="1238.4" y="-1366.55" font-family="Times,serif" font-size="14.00">4</text>
</g>
<!-- 9&#45;&gt;4 -->
<g id="edge148" class="edge">
<title>9&#45;&gt;4</title>
<path fill="none" stroke="black" d="M531.44,-1429.24C497.16,-1453.21 424.19,-1509.5 389,-1576.35 328.53,-1691.24 348.6,-1734.49 337,-1863.8 332.5,-1913.95 329.75,-2281.11 366,-2316.05 403.6,-2352.29 1204.31,-2351.82 1391.23,-2351.22"/>
<polygon fill="black" stroke="black" points="1391.14,-2354.72 1401.13,-2351.18 1391.11,-2347.72 1391.14,-2354.72"/>
<text xml:space="preserve" text-anchor="middle" x="341.5" y="-1877.13" font-family="Times,serif" font-size="14.00">3</text>
</g>
<!-- 9&#45;&gt;6 -->
<g id="edge23" class="edge">
<title>9&#45;&gt;6</title>
<path fill="none" stroke="black" d="M547.07,-1397.81C546.23,-1392.12 545.42,-1385.73 545,-1379.85 542.76,-1348.26 544.42,-1340.26 545,-1308.6 548.31,-1128.16 534.74,-1063.57 633,-912.2 660.3,-870.15 664.3,-856.01 702,-822.95 779.05,-755.39 888.94,-701.74 943.16,-677.5"/>
<polygon fill="black" stroke="black" points="944.43,-680.76 952.16,-673.52 941.6,-674.36 944.43,-680.76"/>
<text xml:space="preserve" text-anchor="middle" x="587.31" y="-1014.78" font-family="Times,serif" font-size="14.00">0</text>
</g>
<!-- 9&#45;&gt;9 -->
<g id="edge87" class="edge">
<title>9&#45;&gt;9</title>
<path fill="none" stroke="black" d="M574.53,-1424.09C585.51,-1424.87 595,-1422.13 595,-1415.85 595,-1411.93 591.29,-1409.39 585.83,-1408.22"/>
<polygon fill="black" stroke="black" points="586.22,-1404.74 576.04,-1407.7 585.84,-1411.73 586.22,-1404.74"/>
<text xml:space="preserve" text-anchor="middle" x="599.5" y="-1411.18" font-family="Times,serif" font-size="14.00">2</text>
</g>
<!-- 21 -->
<g id="node23" class="node">
<title>21</title>
<ellipse fill="none" stroke="black" cx="941" cy="-196.5" rx="27" ry="18"/>
<text xml:space="preserve" text-anchor="middle" x="941" y="-191.82" font-family="Times,serif" font-size="14.00">21</text>
</g>
<!-- 9&#45;&gt;21 -->
<g id="edge14" class="edge">
<title>9&#45;&gt;21</title>
<path fill="none" stroke="black" d="M544.76,-1397.89C527.27,-1339.71 472,-1142.65 472,-975.83 472,-975.83 472,-975.83 472,-706.08 472,-611.63 552.93,-618.5 601,-537.2 627.33,-492.67 616.4,-471.67 648,-430.7 724.98,-330.91 853.39,-248.53 911.2,-214.41"/>
<polygon fill="black" stroke="black" points="912.64,-217.62 919.51,-209.56 909.11,-211.58 912.64,-217.62"/>
<text xml:space="preserve" text-anchor="middle" x="476.5" y="-791.65" font-family="Times,serif" font-size="14.00">1</text>
</g>
<!-- 10&#45;&gt;2 -->
<g id="edge46" class="edge">
<title>10&#45;&gt;2</title>
<path fill="none" stroke="black" d="M672.58,-1806.66C683.3,-1825.74 696,-1854.01 696,-1880.8 696,-2162.55 696,-2162.55 696,-2162.55 696,-2227.42 789.04,-2248.28 840.59,-2254.86"/>
<polygon fill="black" stroke="black" points="839.98,-2258.31 850.31,-2255.98 840.78,-2251.36 839.98,-2258.31"/>
<text xml:space="preserve" text-anchor="middle" x="700.5" y="-2011" font-family="Times,serif" font-size="14.00">0</text>
</g>
<!-- 10&#45;&gt;8 -->
<g id="edge137" class="edge">
<title>10&#45;&gt;8</title>
<path fill="none" stroke="black" d="M634.22,-1767.46C622.14,-1759.47 607.78,-1748.73 597,-1736.85 557.75,-1693.61 568.22,-1669.23 555,-1612.35 536.57,-1533.07 523.17,-1514.73 514,-1433.85 504.27,-1348.07 520.09,-1273.58 543,-1164.4 569.33,-1038.93 602.83,-1012.24 683,-912.2 696.23,-895.69 698.1,-889.69 715,-876.95 726.37,-868.38 740.18,-861.01 752.58,-855.28"/>
<polygon fill="black" stroke="black" points="753.89,-858.52 761.63,-851.28 751.07,-852.12 753.89,-858.52"/>
<text xml:space="preserve" text-anchor="middle" x="520.6" y="-1321.93" font-family="Times,serif" font-size="14.00">3</text>
</g>
<!-- 10&#45;&gt;9 -->
<g id="edge150" class="edge">
<title>10&#45;&gt;9</title>
<path fill="none" stroke="black" d="M635.13,-1766.02C625.6,-1758.33 615.32,-1748.25 609,-1736.85 555.32,-1639.97 549.26,-1503.8 549.36,-1445.34"/>
<polygon fill="black" stroke="black" points="552.86,-1445.63 549.45,-1435.6 545.86,-1445.57 552.86,-1445.63"/>
<text xml:space="preserve" text-anchor="middle" x="569.85" y="-1589.68" font-family="Times,serif" font-size="14.00">4</text>
</g>
<!-- 13 -->
<g id="node15" class="node">
<title>13</title>
<ellipse fill="none" stroke="black" cx="461" cy="-1683.6" rx="27" ry="18"/>
<text xml:space="preserve" text-anchor="middle" x="461" y="-1678.93" font-family="Times,serif" font-size="14.00">13</text>
</g>
<!-- 10&#45;&gt;13 -->
<g id="edge33" class="edge">
<title>10&#45;&gt;13</title>
<path fill="none" stroke="black" d="M631.29,-1774.05C592.79,-1762.91 525.15,-1742.89 515,-1736.85 502.34,-1729.32 490.34,-1718.27 480.88,-1708.27"/>
<polygon fill="black" stroke="black" points="483.6,-1706.05 474.29,-1700.98 478.41,-1710.75 483.6,-1706.05"/>
<text xml:space="preserve" text-anchor="middle" x="519.5" y="-1723.55" font-family="Times,serif" font-size="14.00">2</text>
</g>
<!-- 10&#45;&gt;29 -->
<g id="edge30" class="edge">
<title>10&#45;&gt;29</title>
<path fill="none" stroke="black" d="M633.67,-1797.05C553.69,-1842.9 304,-2002.58 304,-2209.18 304,-2353.05 304,-2353.05 304,-2353.05 304,-2437.74 1688.48,-2440.55 1939.29,-2440.37"/>
<polygon fill="black" stroke="black" points="1939.18,-2443.87 1949.17,-2440.36 1939.17,-2436.87 1939.18,-2443.87"/>
<text xml:space="preserve" text-anchor="middle" x="329.3" y="-2108.25" font-family="Times,serif" font-size="14.00">1</text>
</g>
<!-- 11&#45;&gt;1 -->
<g id="edge39" class="edge">
<title>11&#45;&gt;1</title>
<path fill="none" stroke="black" d="M1675.42,-413.07C1673.95,-430.66 1672,-458.67 1672,-482.95 1672,-797.33 1672,-797.33 1672,-797.33 1672,-904.67 1684.36,-930.97 1698,-1037.45 1707.26,-1109.73 1716.65,-1126.97 1722,-1199.65 1724.97,-1240 1724.8,-1250.72 1718,-1290.6 1717.62,-1292.81 1717.19,-1295.1 1716.73,-1297.38"/>
<polygon fill="black" stroke="black" points="1713.32,-1296.59 1714.61,-1307.11 1720.16,-1298.09 1713.32,-1296.59"/>
<text xml:space="preserve" text-anchor="middle" x="1678.2" y="-836.28" font-family="Times,serif" font-size="14.00">1</text>
</g>
<!-- 11&#45;&gt;11 -->
<g id="edge124" class="edge">
<title>11&#45;&gt;11</title>
<path fill="none" stroke="black" d="M1701.53,-402.94C1712.51,-403.72 1722,-400.98 1722,-394.7 1722,-390.78 1718.29,-388.24 1712.83,-387.07"/>
<polygon fill="black" stroke="black" points="1713.22,-383.59 1703.04,-386.55 1712.84,-390.58 1713.22,-383.59"/>
<text xml:space="preserve" text-anchor="middle" x="1726.5" y="-390.03" font-family="Times,serif" font-size="14.00">4</text>
</g>
<!-- 11&#45;&gt;16 -->
<g id="edge25" class="edge">
<title>11&#45;&gt;16</title>
<path fill="none" stroke="black" d="M1667.92,-377.67C1660.59,-364.73 1650.03,-346.09 1640.89,-329.95"/>
<polygon fill="black" stroke="black" points="1644.14,-328.59 1636.17,-321.61 1638.05,-332.04 1644.14,-328.59"/>
<text xml:space="preserve" text-anchor="middle" x="1660.54" y="-345.4" font-family="Times,serif" font-size="14.00">0</text>
</g>
<!-- 11&#45;&gt;18 -->
<g id="edge7" class="edge">
<title>11&#45;&gt;18</title>
<path fill="none" stroke="black" d="M1668.24,-411.72C1632.02,-477.94 1493.75,-730.72 1448.46,-813.52"/>
<polygon fill="black" stroke="black" points="1445.39,-811.83 1443.66,-822.28 1451.53,-815.19 1445.39,-811.83"/>
<text xml:space="preserve" text-anchor="middle" x="1563.47" y="-613.15" font-family="Times,serif" font-size="14.00">2</text>
</g>
<!-- 28 -->
<g id="node30" class="node">
<title>28</title>
<ellipse fill="none" stroke="black" cx="1020" cy="-483.95" rx="27" ry="18"/>
<text xml:space="preserve" text-anchor="middle" x="1020" y="-479.28" font-family="Times,serif" font-size="14.00">28</text>
</g>
<!-- 11&#45;&gt;28 -->
<g id="edge89" class="edge">
<title>11&#45;&gt;28</title>
<path fill="none" stroke="black" d="M1649.79,-395.94C1577.79,-396.98 1376.56,-402.38 1212,-430.7 1155.91,-440.35 1092.5,-459.22 1054.42,-471.44"/>
<polygon fill="black" stroke="black" points="1053.79,-467.97 1045.35,-474.39 1055.95,-474.63 1053.79,-467.97"/>
<text xml:space="preserve" text-anchor="middle" x="1216.5" y="-434.65" font-family="Times,serif" font-size="14.00">3</text>
</g>
<!-- 12&#45;&gt;3 -->
<g id="edge142" class="edge">
<title>12&#45;&gt;3</title>
<path fill="none" stroke="black" d="M535.47,-125.5C542.8,-210.34 575.99,-581.05 600,-626.45 661.6,-742.93 736.7,-722.52 822,-822.95 840.36,-844.57 842.85,-851.82 856,-876.95 928.74,-1015.94 905,-1069.63 905,-1226.5 905,-1461.48 905,-1461.48 905,-1461.48 905,-1648.4 1096,-1649.26 1096,-1836.18 1096,-1972.05 1096,-1972.05 1096,-1972.05 1096,-2013.75 1228.69,-2044.84 1292.06,-2057.31"/>
<polygon fill="black" stroke="black" points="1291.08,-2060.69 1301.56,-2059.14 1292.4,-2053.81 1291.08,-2060.69"/>
<text xml:space="preserve" text-anchor="middle" x="913.18" y="-1059.4" font-family="Times,serif" font-size="14.00">4</text>
</g>
<!-- 12&#45;&gt;4 -->
<g id="edge65" class="edge">
<title>12&#45;&gt;4</title>
<path fill="none" stroke="black" d="M506.65,-108.19C414.63,-108.73 122,-116.63 122,-195.5 122,-440.33 122,-440.33 122,-440.33 122,-599 84,-636.65 84,-795.33 84,-1065.08 84,-1065.08 84,-1065.08 84,-1150.49 98.38,-1170.87 111,-1255.35 128.8,-1374.49 133.77,-1404.19 153,-1523.1 156.62,-1545.47 220,-1902.77 220,-1925.43 220,-2259.8 220,-2259.8 220,-2259.8 220,-2296.36 246.22,-2302.1 280,-2316.05 332.41,-2337.71 1196.99,-2348.49 1391.4,-2350.64"/>
<polygon fill="black" stroke="black" points="1391.16,-2354.14 1401.2,-2350.75 1391.24,-2347.14 1391.16,-2354.14"/>
<text xml:space="preserve" text-anchor="middle" x="115.5" y="-1222.83" font-family="Times,serif" font-size="14.00">3</text>
</g>
<!-- 12&#45;&gt;9 -->
<g id="edge138" class="edge">
<title>12&#45;&gt;9</title>
<path fill="none" stroke="black" d="M506.8,-108.77C420.74,-111.15 160,-124.24 160,-195.5 160,-440.33 160,-440.33 160,-440.33 160,-580.96 135.93,-940.9 185,-1072.7 245.93,-1236.35 284.96,-1282.61 430,-1379.85 454.59,-1396.34 487.04,-1405.19 512,-1409.87"/>
<polygon fill="black" stroke="black" points="511.29,-1413.3 521.74,-1411.53 512.47,-1406.4 511.29,-1413.3"/>
<text xml:space="preserve" text-anchor="middle" x="158.66" y="-747.03" font-family="Times,serif" font-size="14.00">2</text>
</g>
<!-- 12&#45;&gt;14 -->
<g id="edge104" class="edge">
<title>12&#45;&gt;14</title>
<path fill="none" stroke="black" d="M542.09,-89.84C548.18,-77.49 556.65,-60.29 563.73,-45.93"/>
<polygon fill="black" stroke="black" points="566.85,-47.51 568.13,-36.99 560.57,-44.41 566.85,-47.51"/>
<text xml:space="preserve" text-anchor="middle" x="563.85" y="-57.95" font-family="Times,serif" font-size="14.00">1</text>
</g>
<!-- 12&#45;&gt;23 -->
<g id="edge2" class="edge">
<title>12&#45;&gt;23</title>
<path fill="none" stroke="black" d="M509.37,-115.46C476.66,-126.73 423,-151.87 423,-195.5 423,-484.95 423,-484.95 423,-484.95 423,-504.8 425.84,-526.99 428.63,-544.02"/>
<polygon fill="black" stroke="black" points="425.1,-544.16 430.26,-553.41 432,-542.96 425.1,-544.16"/>
<text xml:space="preserve" text-anchor="middle" x="427.5" y="-345.4" font-family="Times,serif" font-size="14.00">0</text>
</g>
<!-- 13&#45;&gt;3 -->
<g id="edge52" class="edge">
<title>13&#45;&gt;3</title>
<path fill="none" stroke="black" d="M469.16,-1701.06C475.21,-1712.11 484.25,-1726.48 495,-1736.85 673.73,-1909.19 738.76,-1944.89 974,-2024.3 1032.45,-2044.03 1215.89,-2056.84 1291.71,-2061.42"/>
<polygon fill="black" stroke="black" points="1291.21,-2064.9 1301.4,-2062 1291.63,-2057.91 1291.21,-2064.9"/>
<text xml:space="preserve" text-anchor="middle" x="691.68" y="-1877.13" font-family="Times,serif" font-size="14.00">0</text>
</g>
<!-- 13&#45;&gt;4 -->
<g id="edge100" class="edge">
<title>13&#45;&gt;4</title>
<path fill="none" stroke="black" d="M459.58,-1701.78C458.1,-1721.17 456,-1753.68 456,-1781.7 456,-2259.8 456,-2259.8 456,-2259.8 456,-2379.77 601.04,-2300.55 720,-2316.05 974.53,-2349.22 1284.12,-2351.6 1391.3,-2351.32"/>
<polygon fill="black" stroke="black" points="1391.28,-2354.82 1401.26,-2351.28 1391.25,-2347.82 1391.28,-2354.82"/>
<text xml:space="preserve" text-anchor="middle" x="460.5" y="-2011" font-family="Times,serif" font-size="14.00">3</text>
</g>
<!-- 13&#45;&gt;10 -->
<g id="edge133" class="edge">
<title>13&#45;&gt;10</title>
<path fill="none" stroke="black" d="M482.13,-1695.41C494.57,-1702 510.46,-1710.82 524,-1719.6 534.72,-1726.55 535.87,-1730.57 547,-1736.85 570.54,-1750.13 598.8,-1761.49 620.92,-1769.46"/>
<polygon fill="black" stroke="black" points="619.53,-1772.68 630.12,-1772.7 621.85,-1766.08 619.53,-1772.68"/>
<text xml:space="preserve" text-anchor="middle" x="551.5" y="-1723.55" font-family="Times,serif" font-size="14.00">1</text>
</g>
<!-- 13&#45;&gt;23 -->
<g id="edge28" class="edge">
<title>13&#45;&gt;23</title>
<path fill="none" stroke="black" d="M457.94,-1665.37C449.14,-1615.65 422.99,-1467.62 402,-1344.6 397.91,-1320.62 395.35,-1314.82 393,-1290.6 391.49,-1275 392.22,-1271.02 392,-1255.35 389.68,-1091.46 395,-1050.48 395,-886.58 395,-886.58 395,-886.58 395,-661.45 395,-639.05 405.84,-616.02 416.09,-599.24"/>
<polygon fill="black" stroke="black" points="418.97,-601.24 421.48,-590.94 413.1,-597.43 418.97,-601.24"/>
<text xml:space="preserve" text-anchor="middle" x="396.74" y="-1113.88" font-family="Times,serif" font-size="14.00">4</text>
</g>
<!-- 13&#45;&gt;26 -->
<g id="edge83" class="edge">
<title>13&#45;&gt;26</title>
<path fill="none" stroke="black" d="M487.64,-1679.8C609.08,-1667.02 1110.33,-1614.26 1252.35,-1599.31"/>
<polygon fill="black" stroke="black" points="1252.37,-1602.83 1261.95,-1598.3 1251.64,-1595.87 1252.37,-1602.83"/>
<text xml:space="preserve" text-anchor="middle" x="954.25" y="-1634.3" font-family="Times,serif" font-size="14.00">2</text>
</g>
<!-- 14&#45;&gt;4 -->
<g id="edge111" class="edge">
<title>14&#45;&gt;4</title>
<path fill="none" stroke="black" d="M549.95,-19.63C448.55,-22.17 94.47,-32.49 49,-54 20.22,-67.61 0,-74.41 0,-106.25 0,-797.33 0,-797.33 0,-797.33 0,-1305.19 182,-1417.57 182,-1925.43 182,-2259.8 182,-2259.8 182,-2259.8 182,-2294.77 204.97,-2302.02 237,-2316.05 291.02,-2339.72 1192.94,-2348.98 1391.53,-2350.73"/>
<polygon fill="black" stroke="black" points="1391.26,-2354.23 1401.29,-2350.82 1391.32,-2347.23 1391.26,-2354.23"/>
<text xml:space="preserve" text-anchor="middle" x="46.65" y="-1168.35" font-family="Times,serif" font-size="14.00">2</text>
</g>
<!-- 14&#45;&gt;7 -->
<g id="edge34" class="edge">
<title>14&#45;&gt;7</title>
<path fill="none" stroke="black" d="M604.05,-19.21C754.6,-20.45 1483.79,-27.82 1523,-54 1544.25,-68.19 1547,-80.7 1547,-106.25 1547,-708.08 1547,-708.08 1547,-708.08 1547,-782.55 1506.77,-863.33 1483.73,-903.5"/>
<polygon fill="black" stroke="black" points="1480.81,-901.56 1478.77,-911.95 1486.85,-905.1 1480.81,-901.56"/>
<text xml:space="preserve" text-anchor="middle" x="1551.5" y="-479.28" font-family="Times,serif" font-size="14.00">1</text>
</g>
<!-- 14&#45;&gt;10 -->
<g id="edge27" class="edge">
<title>14&#45;&gt;10</title>
<path fill="none" stroke="black" d="M550.14,-20.88C447.27,-28.44 84,-58.5 84,-106.25 84,-440.33 84,-440.33 84,-440.33 84,-552.35 205,-549.42 205,-661.45 205,-797.33 205,-797.33 205,-797.33 205,-961.3 670,-1206.26 670,-1370.23 670,-1506.1 670,-1506.1 670,-1506.1 670,-1590.92 664.26,-1690.29 660.72,-1743.48"/>
<polygon fill="black" stroke="black" points="657.24,-1743 660.06,-1753.22 664.22,-1743.48 657.24,-1743"/>
<text xml:space="preserve" text-anchor="middle" x="249.27" y="-880.9" font-family="Times,serif" font-size="14.00">3</text>
</g>
<!-- 14&#45;&gt;12 -->
<g id="edge143" class="edge">
<title>14&#45;&gt;12</title>
<path fill="none" stroke="black" d="M558.3,-31.54C551.02,-37.46 543.39,-45.16 539,-54 535.45,-61.15 533.74,-69.53 533.03,-77.46"/>
<polygon fill="black" stroke="black" points="529.54,-77.3 532.67,-87.42 536.53,-77.55 529.54,-77.3"/>
<text xml:space="preserve" text-anchor="middle" x="543.5" y="-57.95" font-family="Times,serif" font-size="14.00">4</text>
</g>
<!-- 14&#45;&gt;13 -->
<g id="edge127" class="edge">
<title>14&#45;&gt;13</title>
<path fill="none" stroke="black" d="M549.76,-19.27C450.18,-20.49 109.61,-26.64 70,-54 48.97,-68.53 46,-80.7 46,-106.25 46,-1065.08 46,-1065.08 46,-1065.08 46,-1210.47 133.19,-1225.65 182,-1362.6 206.75,-1432.06 181.33,-1462.97 224,-1523.1 251.83,-1562.32 373.5,-1633.65 430.87,-1665.94"/>
<polygon fill="black" stroke="black" points="429.04,-1668.92 439.47,-1670.75 432.46,-1662.81 429.04,-1668.92"/>
<text xml:space="preserve" text-anchor="middle" x="50.5" y="-836.28" font-family="Times,serif" font-size="14.00">0</text>
</g>
<!-- 15 -->
<g id="node17" class="node">
<title>15</title>
<ellipse fill="none" stroke="black" cx="2013" cy="-1019.45" rx="27" ry="18"/>
<text xml:space="preserve" text-anchor="middle" x="2013" y="-1014.78" font-family="Times,serif" font-size="14.00">15</text>
</g>
<!-- 15&#45;&gt;7 -->
<g id="edge9" class="edge">
<title>15&#45;&gt;7</title>
<path fill="none" stroke="black" d="M1985.88,-1016.49C1887.82,-1009.4 1557.12,-985.38 1552,-983.45 1540.04,-978.95 1539.67,-973.23 1529,-966.2 1519.31,-959.82 1508.41,-953.36 1498.54,-947.75"/>
<polygon fill="black" stroke="black" points="1500.47,-944.82 1490.03,-942.99 1497.05,-950.93 1500.47,-944.82"/>
<text xml:space="preserve" text-anchor="middle" x="1556.5" y="-970.15" font-family="Times,serif" font-size="14.00">0</text>
</g>
<!-- 15&#45;&gt;16 -->
<g id="edge97" class="edge">
<title>15&#45;&gt;16</title>
<path fill="none" stroke="black" d="M2011.27,-1001.06C2007.12,-962.18 1995.15,-865.5 1972,-787.7 1922.82,-622.41 1900.98,-582.96 1820,-430.7 1806.57,-405.45 1806.38,-395.69 1785,-376.7 1747.88,-343.73 1694.76,-321.02 1659.36,-308.41"/>
<polygon fill="black" stroke="black" points="1660.56,-305.12 1649.96,-305.17 1658.28,-311.74 1660.56,-305.12"/>
<text xml:space="preserve" text-anchor="middle" x="1942.09" y="-657.78" font-family="Times,serif" font-size="14.00">4</text>
</g>
<!-- 15&#45;&gt;21 -->
<g id="edge35" class="edge">
<title>15&#45;&gt;21</title>
<path fill="none" stroke="black" d="M2029.75,-1004.94C2047.19,-989.23 2072,-961.55 2072,-931.2 2072,-931.2 2072,-931.2 2072,-527.58 2072,-374.53 1991.69,-314.64 1846,-267.75 1680.95,-214.63 1131.02,-200.93 979.78,-198.12"/>
<polygon fill="black" stroke="black" points="979.96,-194.63 969.9,-197.95 979.84,-201.63 979.96,-194.63"/>
<text xml:space="preserve" text-anchor="middle" x="2076.5" y="-613.15" font-family="Times,serif" font-size="14.00">1</text>
</g>
<!-- 15&#45;&gt;25 -->
<g id="edge51" class="edge">
<title>15&#45;&gt;25</title>
<path fill="none" stroke="black" d="M1988.09,-1027.15C1899.18,-1052 1592.15,-1145.94 1392,-1308.6 1317.17,-1369.42 1320.03,-1407.3 1246,-1469.1 1238.16,-1475.65 1228.99,-1481.88 1220.36,-1487.22"/>
<polygon fill="black" stroke="black" points="1218.7,-1484.14 1211.91,-1492.27 1222.29,-1490.15 1218.7,-1484.14"/>
<text xml:space="preserve" text-anchor="middle" x="1441.93" y="-1277.3" font-family="Times,serif" font-size="14.00">2</text>
</g>
<!-- 15&#45;&gt;27 -->
<g id="edge147" class="edge">
<title>15&#45;&gt;27</title>
<path fill="none" stroke="black" d="M2025.31,-1035.85C2054.97,-1074.57 2128,-1180.12 2128,-1280.98 2128,-1783.7 2128,-1783.7 2128,-1783.7 2128,-1806.89 2125.14,-1833.03 2122.48,-1852.34"/>
<polygon fill="black" stroke="black" points="2119.03,-1851.77 2121.06,-1862.17 2125.96,-1852.78 2119.03,-1851.77"/>
<text xml:space="preserve" text-anchor="middle" x="2132.5" y="-1455.8" font-family="Times,serif" font-size="14.00">3</text>
</g>
<!-- 16&#45;&gt;4 -->
<g id="edge96" class="edge">
<title>16&#45;&gt;4</title>
<path fill="none" stroke="black" d="M1649.15,-302.94C1677.99,-310.2 1724.49,-323.46 1762,-341.45 1891.71,-403.64 1932.76,-415.81 2032,-519.95 2063.82,-553.35 2064.58,-567.83 2085,-609.2 2136.03,-712.57 2239.81,-981.93 2278,-1090.7 2294.76,-1138.44 2297.72,-1150.83 2311,-1199.65 2336.83,-1294.6 2363,-1316.45 2363,-1414.85 2363,-1838.18 2363,-1838.18 2363,-1838.18 2363,-2100.91 2268.89,-2248.43 2015,-2316.05 1911.38,-2343.65 1581.78,-2349.53 1468.6,-2350.75"/>
<polygon fill="black" stroke="black" points="1468.89,-2347.24 1458.93,-2350.84 1468.96,-2354.24 1468.89,-2347.24"/>
<text xml:space="preserve" text-anchor="middle" x="2361.47" y="-1321.93" font-family="Times,serif" font-size="14.00">2</text>
</g>
<!-- 16&#45;&gt;14 -->
<g id="edge144" class="edge">
<title>16&#45;&gt;14</title>
<path fill="none" stroke="black" d="M1624.49,-267.55C1627.53,-216.46 1625.72,-106.23 1561,-54 1523.61,-23.83 792.9,-19.66 615.54,-19.09"/>
<polygon fill="black" stroke="black" points="615.73,-15.59 605.72,-19.06 615.71,-22.59 615.73,-15.59"/>
<text xml:space="preserve" text-anchor="middle" x="1622.14" y="-147.2" font-family="Times,serif" font-size="14.00">4</text>
</g>
<!-- 16&#45;&gt;16 -->
<g id="edge22" class="edge">
<title>16&#45;&gt;16</title>
<path fill="none" stroke="black" d="M1648.39,-305.75C1658.97,-306.33 1667.85,-302.94 1667.85,-295.6 1667.85,-291.13 1664.55,-288.12 1659.58,-286.59"/>
<polygon fill="black" stroke="black" points="1660.19,-283.13 1649.89,-285.6 1659.49,-290.1 1660.19,-283.13"/>
<text xml:space="preserve" text-anchor="middle" x="1672.35" y="-290.93" font-family="Times,serif" font-size="14.00">1</text>
</g>
<!-- 16&#45;&gt;20 -->
<g id="edge114" class="edge">
<title>16&#45;&gt;20</title>
<path fill="none" stroke="black" d="M1622.39,-323.62C1622.97,-366.75 1624,-453.79 1624,-527.58 1624,-663.45 1624,-663.45 1624,-663.45 1624,-862 1661.95,-1097.65 1677.99,-1188.33"/>
<polygon fill="black" stroke="black" points="1674.54,-1188.94 1679.74,-1198.17 1681.43,-1187.71 1674.54,-1188.94"/>
<text xml:space="preserve" text-anchor="middle" x="1631.58" y="-747.03" font-family="Times,serif" font-size="14.00">0</text>
</g>
<!-- 16&#45;&gt;21 -->
<g id="edge81" class="edge">
<title>16&#45;&gt;21</title>
<path fill="none" stroke="black" d="M1594.46,-290.67C1487.78,-275.46 1101.58,-220.4 978.77,-202.89"/>
<polygon fill="black" stroke="black" points="979.29,-199.42 968.9,-201.48 978.3,-206.35 979.29,-199.42"/>
<text xml:space="preserve" text-anchor="middle" x="1306.42" y="-236.45" font-family="Times,serif" font-size="14.00">3</text>
</g>
<!-- 17&#45;&gt;0 -->
<g id="edge16" class="edge">
<title>17&#45;&gt;0</title>
<path fill="none" stroke="black" d="M1665.75,-1985.87C1649.67,-1999.73 1624.56,-2021.88 1604,-2042.3 1572.69,-2073.4 1538.69,-2111.39 1517.37,-2135.78"/>
<polygon fill="black" stroke="black" points="1514.77,-2133.43 1510.84,-2143.27 1520.05,-2138.03 1514.77,-2133.43"/>
<text xml:space="preserve" text-anchor="middle" x="1608.5" y="-2059.63" font-family="Times,serif" font-size="14.00">1</text>
</g>
<!-- 17&#45;&gt;1 -->
<g id="edge76" class="edge">
<title>17&#45;&gt;1</title>
<path fill="none" stroke="black" d="M1673.97,-1953.71C1671.55,-1947.96 1669.21,-1941.35 1668,-1935.05 1652.85,-1856.41 1664.08,-1834.84 1668,-1754.85 1675.4,-1603.86 1697.44,-1423.94 1706.27,-1355.7"/>
<polygon fill="black" stroke="black" points="1709.7,-1356.52 1707.52,-1346.15 1702.76,-1355.62 1709.7,-1356.52"/>
<text xml:space="preserve" text-anchor="middle" x="1680.97" y="-1634.3" font-family="Times,serif" font-size="14.00">0</text>
</g>
<!-- 17&#45;&gt;4 -->
<g id="edge113" class="edge">
<title>17&#45;&gt;4</title>
<path fill="none" stroke="black" d="M1697.58,-1985.86C1714.45,-2002.43 1739,-2031.92 1739,-2063.3 1739,-2259.8 1739,-2259.8 1739,-2259.8 1739,-2299.37 1706.37,-2300.48 1670,-2316.05 1603.13,-2344.69 1517.22,-2350.62 1468.42,-2351.44"/>
<polygon fill="black" stroke="black" points="1468.61,-2347.94 1458.65,-2351.54 1468.68,-2354.94 1468.61,-2347.94"/>
<text xml:space="preserve" text-anchor="middle" x="1743.5" y="-2156.88" font-family="Times,serif" font-size="14.00">4</text>
</g>
<!-- 17&#45;&gt;14 -->
<g id="edge72" class="edge">
<title>17&#45;&gt;14</title>
<path fill="none" stroke="black" d="M1686.23,-1952.86C1697.67,-1906.44 1730.3,-1774.75 1759,-1665.6 1773.59,-1610.13 1776.78,-1596.12 1793,-1541.1 1801.58,-1512 1958,-1050.79 1958,-1020.45 1958,-1020.45 1958,-1020.45 1958,-795.33 1958,-586.64 2110,-559.76 2110,-351.08 2110,-351.08 2110,-351.08 2110,-106.25 2110,-29.04 853.99,-20.12 615.75,-19.12"/>
<polygon fill="black" stroke="black" points="615.79,-15.62 605.77,-19.08 615.76,-22.62 615.79,-15.62"/>
<text xml:space="preserve" text-anchor="middle" x="1962.5" y="-970.15" font-family="Times,serif" font-size="14.00">3</text>
</g>
<!-- 17&#45;&gt;27 -->
<g id="edge102" class="edge">
<title>17&#45;&gt;27</title>
<path fill="none" stroke="black" d="M1707.65,-1964.92C1781.47,-1950.15 1994.69,-1907.48 2081.03,-1890.2"/>
<polygon fill="black" stroke="black" points="2081.51,-1893.67 2090.63,-1888.28 2080.14,-1886.81 2081.51,-1893.67"/>
<text xml:space="preserve" text-anchor="middle" x="1943.55" y="-1921.75" font-family="Times,serif" font-size="14.00">2</text>
</g>
<!-- 18&#45;&gt;4 -->
<g id="edge130" class="edge">
<title>18&#45;&gt;4</title>
<path fill="none" stroke="black" d="M1407.38,-845.51C1365.02,-852.84 1287,-873.85 1287,-929.2 1287,-1065.08 1287,-1065.08 1287,-1065.08 1287,-1122.52 1290.75,-1462.32 1226,-1523.1 1212.22,-1536.04 908.62,-1573.09 890,-1576.35 838.18,-1585.43 459.05,-1625.5 425,-1665.6 350.22,-1753.65 418,-1809.91 418,-1925.43 418,-2259.8 418,-2259.8 418,-2259.8 418,-2291 432.37,-2301.57 460,-2316.05 501.86,-2337.99 1215.36,-2348.36 1391.12,-2350.59"/>
<polygon fill="black" stroke="black" points="1391.04,-2354.09 1401.08,-2350.71 1391.13,-2347.09 1391.04,-2354.09"/>
<text xml:space="preserve" text-anchor="middle" x="894.5" y="-1589.68" font-family="Times,serif" font-size="14.00">2</text>
</g>
<!-- 18&#45;&gt;5 -->
<g id="edge80" class="edge">
<title>18&#45;&gt;5</title>
<path fill="none" stroke="black" d="M1431.2,-822.69C1424.9,-787.27 1407.31,-704.65 1372,-644.45 1339.46,-588.98 1284,-593.89 1284,-529.58 1284,-529.58 1284,-529.58 1284,-393.7 1284,-368.16 1272.46,-341.28 1262.09,-322.29"/>
<polygon fill="black" stroke="black" points="1265.16,-320.59 1257.14,-313.66 1259.09,-324.08 1265.16,-320.59"/>
<text xml:space="preserve" text-anchor="middle" x="1321.02" y="-568.53" font-family="Times,serif" font-size="14.00">4</text>
</g>
<!-- 18&#45;&gt;10 -->
<g id="edge57" class="edge">
<title>18&#45;&gt;10</title>
<path fill="none" stroke="black" d="M1414.97,-853.9C1393.94,-868.74 1363,-896.2 1363,-929.2 1363,-1065.08 1363,-1065.08 1363,-1065.08 1363,-1267.18 1298.17,-1508.74 1283,-1523.1 1264.26,-1540.84 853.94,-1618.53 831,-1630.35 770.67,-1661.45 714.14,-1718.03 682.99,-1752.51"/>
<polygon fill="black" stroke="black" points="680.68,-1749.85 676.64,-1759.64 685.9,-1754.5 680.68,-1749.85"/>
<text xml:space="preserve" text-anchor="middle" x="1343.71" y="-1321.93" font-family="Times,serif" font-size="14.00">3</text>
</g>
<!-- 18&#45;&gt;15 -->
<g id="edge66" class="edge">
<title>18&#45;&gt;15</title>
<path fill="none" stroke="black" d="M1458.96,-848.71C1484.24,-855.61 1524.42,-866.72 1559,-876.95 1716.01,-923.39 1902.21,-982.8 1978.15,-1007.21"/>
<polygon fill="black" stroke="black" points="1976.93,-1010.49 1987.52,-1010.22 1979.07,-1003.83 1976.93,-1010.49"/>
<text xml:space="preserve" text-anchor="middle" x="1791.28" y="-925.53" font-family="Times,serif" font-size="14.00">0</text>
</g>
<!-- 18&#45;&gt;22 -->
<g id="edge145" class="edge">
<title>18&#45;&gt;22</title>
<path fill="none" stroke="black" d="M1407.1,-837.84C1361.52,-833.89 1266.39,-823.99 1188,-804.95 1146.71,-794.92 1100.79,-778.04 1070.76,-766.18"/>
<polygon fill="black" stroke="black" points="1072.45,-763.09 1061.86,-762.63 1069.85,-769.59 1072.45,-763.09"/>
<text xml:space="preserve" text-anchor="middle" x="1192.5" y="-791.65" font-family="Times,serif" font-size="14.00">1</text>
</g>
<!-- 19&#45;&gt;2 -->
<g id="edge32" class="edge">
<title>19&#45;&gt;2</title>
<path fill="none" stroke="black" d="M975.96,-396.82C895.3,-400.89 662,-418.25 662,-482.95 662,-618.83 662,-618.83 662,-618.83 662,-743.46 691.27,-771.84 715,-894.2 753.83,-1094.43 762.48,-1144.7 803,-1344.6 806.81,-1363.41 874,-1663.41 874,-1682.6 874,-2162.55 874,-2162.55 874,-2162.55 874,-2183.44 874,-2206.91 874,-2225.32"/>
<polygon fill="black" stroke="black" points="870.5,-2225.1 874,-2235.1 877.5,-2225.1 870.5,-2225.1"/>
<text xml:space="preserve" text-anchor="middle" x="807.5" y="-1321.93" font-family="Times,serif" font-size="14.00">3</text>
</g>
<!-- 19&#45;&gt;5 -->
<g id="edge86" class="edge">
<title>19&#45;&gt;5</title>
<path fill="none" stroke="black" d="M1025.86,-384.57C1069.03,-367.32 1162.69,-329.89 1212.8,-309.87"/>
<polygon fill="black" stroke="black" points="1213.98,-313.16 1221.97,-306.2 1211.39,-306.66 1213.98,-313.16"/>
<text xml:space="preserve" text-anchor="middle" x="1136.29" y="-345.4" font-family="Times,serif" font-size="14.00">1</text>
</g>
<!-- 19&#45;&gt;19 -->
<g id="edge44" class="edge">
<title>19&#45;&gt;19</title>
<path fill="none" stroke="black" d="M1027.53,-402.94C1038.51,-403.72 1048,-400.98 1048,-394.7 1048,-390.78 1044.29,-388.24 1038.83,-387.07"/>
<polygon fill="black" stroke="black" points="1039.22,-383.59 1029.04,-386.55 1038.84,-390.58 1039.22,-383.59"/>
<text xml:space="preserve" text-anchor="middle" x="1052.5" y="-390.03" font-family="Times,serif" font-size="14.00">2</text>
</g>
<!-- 19&#45;&gt;26 -->
<g id="edge108" class="edge">
<title>19&#45;&gt;26</title>
<path fill="none" stroke="black" d="M1024.37,-406.17C1035.9,-412.39 1049.98,-420.96 1061,-430.7 1091.18,-457.37 1085.39,-476.99 1117,-501.95 1131.98,-513.78 1145.71,-503.87 1156,-519.95 1160.13,-526.41 1156.54,-529.55 1156,-537.2 1142.3,-729.91 1046.7,-1205.14 1033,-1397.85 1031.87,-1413.81 1027.48,-1418.84 1033,-1433.85 1067.31,-1527.11 1191.31,-1569.64 1253.67,-1585.49"/>
<polygon fill="black" stroke="black" points="1252.54,-1588.82 1263.09,-1587.79 1254.2,-1582.02 1252.54,-1588.82"/>
<text xml:space="preserve" text-anchor="middle" x="1099" y="-970.15" font-family="Times,serif" font-size="14.00">0</text>
</g>
<!-- 19&#45;&gt;28 -->
<g id="edge119" class="edge">
<title>19&#45;&gt;28</title>
<path fill="none" stroke="black" d="M1006.35,-412.9C1008.68,-424.84 1011.83,-441.02 1014.52,-454.82"/>
<polygon fill="black" stroke="black" points="1011,-455.08 1016.35,-464.23 1017.87,-453.74 1011,-455.08"/>
<text xml:space="preserve" text-anchor="middle" x="1017.52" y="-434.65" font-family="Times,serif" font-size="14.00">4</text>
</g>
<!-- 20&#45;&gt;0 -->
<g id="edge4" class="edge">
<title>20&#45;&gt;0</title>
<path fill="none" stroke="black" d="M1705.15,-1247.4C1719.59,-1262.41 1737.87,-1284.78 1746,-1308.6 1768.47,-1374.48 1768.4,-1867.92 1750,-1935.05 1719.48,-2046.41 1587.04,-2119.35 1526.46,-2147.49"/>
<polygon fill="black" stroke="black" points="1525.06,-2144.28 1517.4,-2151.59 1527.95,-2150.65 1525.06,-2144.28"/>
<text xml:space="preserve" text-anchor="middle" x="1767.81" y="-1678.93" font-family="Times,serif" font-size="14.00">3</text>
</g>
<!-- 20&#45;&gt;10 -->
<g id="edge120" class="edge">
<title>20&#45;&gt;10</title>
<path fill="none" stroke="black" d="M1678.99,-1254.98C1669,-1295.64 1646.36,-1374.9 1610,-1433.85 1581.41,-1480.22 1567.54,-1487.87 1526,-1523.1 1512.43,-1534.61 1409.18,-1604.94 1393,-1612.35 1143.46,-1726.6 809.88,-1767.29 697.12,-1778.29"/>
<polygon fill="black" stroke="black" points="697.12,-1774.77 687.5,-1779.2 697.78,-1781.74 697.12,-1774.77"/>
<text xml:space="preserve" text-anchor="middle" x="1572.57" y="-1500.43" font-family="Times,serif" font-size="14.00">1</text>
</g>
<!-- 20&#45;&gt;18 -->
<g id="edge118" class="edge">
<title>20&#45;&gt;18</title>
<path fill="none" stroke="black" d="M1658.95,-1217.25C1642.9,-1210.12 1623.44,-1198.57 1613,-1181.65 1562.48,-1099.82 1639.11,-1050.59 1593,-966.2 1564.37,-913.79 1503.36,-876.08 1465.8,-856.74"/>
<polygon fill="black" stroke="black" points="1467.73,-853.79 1457.22,-852.45 1464.6,-860.05 1467.73,-853.79"/>
<text xml:space="preserve" text-anchor="middle" x="1612.97" y="-1014.78" font-family="Times,serif" font-size="14.00">2</text>
</g>
<!-- 20&#45;&gt;24 -->
<g id="edge91" class="edge">
<title>20&#45;&gt;24</title>
<path fill="none" stroke="black" d="M1711.68,-1218.11C1771.89,-1199.17 1918.43,-1153.07 1987.63,-1131.3"/>
<polygon fill="black" stroke="black" points="1988.51,-1134.7 1997,-1128.36 1986.41,-1128.02 1988.51,-1134.7"/>
<text xml:space="preserve" text-anchor="middle" x="1879.86" y="-1168.35" font-family="Times,serif" font-size="14.00">4</text>
</g>
<!-- 20&#45;&gt;29 -->
<g id="edge103" class="edge">
<title>20&#45;&gt;29</title>
<path fill="none" stroke="black" d="M1707.92,-1244.15C1722.46,-1254.31 1739.7,-1266.83 1746,-1273.35 1842.4,-1373.13 1893,-1409.99 1893,-1548.73 1893,-1729.23 1893,-1729.23 1893,-1729.23 1893,-1980.78 2193,-1957.62 2193,-2209.18 2193,-2353.05 2193,-2353.05 2193,-2353.05 2193,-2428.36 2078.34,-2440.21 2016.49,-2441.12"/>
<polygon fill="black" stroke="black" points="2016.73,-2437.62 2006.74,-2441.17 2016.76,-2444.62 2016.73,-2437.62"/>
<text xml:space="preserve" text-anchor="middle" x="1924.7" y="-1832.5" font-family="Times,serif" font-size="14.00">0</text>
</g>
<!-- 21&#45;&gt;1 -->
<g id="edge107" class="edge">
<title>21&#45;&gt;1</title>
<path fill="none" stroke="black" d="M968.31,-197.86C1086.35,-199.77 1552.8,-210.83 1686,-267.75 1831.39,-329.88 1870,-414.1 1870,-572.2 1870,-708.08 1870,-708.08 1870,-708.08 1870,-943.66 1759.52,-1214.11 1722.17,-1298.82"/>
<polygon fill="black" stroke="black" points="1718.99,-1297.36 1718.12,-1307.92 1725.38,-1300.21 1718.99,-1297.36"/>
<text xml:space="preserve" text-anchor="middle" x="1873.98" y="-747.03" font-family="Times,serif" font-size="14.00">0</text>
</g>
<!-- 21&#45;&gt;4 -->
<g id="edge135" class="edge">
<title>21&#45;&gt;4</title>
<path fill="none" stroke="black" d="M913.64,-197.83C817.97,-199.48 499.84,-209.35 420,-267.75 303.86,-352.7 122,-640.69 122,-795.33 122,-1065.08 122,-1065.08 122,-1065.08 122,-1269.46 129.8,-1321.44 163,-1523.1 180.22,-1627.66 194.75,-1651.7 219,-1754.85 236.8,-1830.56 258,-1847.66 258,-1925.43 258,-2259.8 258,-2259.8 258,-2259.8 258,-2308.87 305.89,-2302.33 353,-2316.05 454.12,-2345.52 1210.71,-2350.23 1391.35,-2350.93"/>
<polygon fill="black" stroke="black" points="1391.11,-2354.43 1401.13,-2350.97 1391.14,-2347.43 1391.11,-2354.43"/>
<text xml:space="preserve" text-anchor="middle" x="134.06" y="-1277.3" font-family="Times,serif" font-size="14.00">2</text>
</g>
<!-- 21&#45;&gt;12 -->
<g id="edge90" class="edge">
<title>21&#45;&gt;12</title>
<path fill="none" stroke="black" d="M915.54,-190.04C845.96,-175.13 652.37,-133.63 570.89,-116.16"/>
<polygon fill="black" stroke="black" points="571.7,-112.75 561.19,-114.08 570.24,-119.6 571.7,-112.75"/>
<text xml:space="preserve" text-anchor="middle" x="778.45" y="-147.2" font-family="Times,serif" font-size="14.00">4</text>
</g>
<!-- 21&#45;&gt;13 -->
<g id="edge115" class="edge">
<title>21&#45;&gt;13</title>
<path fill="none" stroke="black" d="M913.7,-196.95C827.58,-196.66 558.01,-207.08 401,-341.45 361.69,-375.09 376.41,-401.32 354,-447.95 319,-520.79 295.56,-532.54 270,-609.2 237.74,-705.94 139.26,-1432.47 186,-1523.1 207.05,-1563.93 310.2,-1626.5 351,-1647.6 374.35,-1659.67 402.64,-1668.56 424.68,-1674.36"/>
<polygon fill="black" stroke="black" points="423.56,-1677.69 434.12,-1676.74 425.28,-1670.9 423.56,-1677.69"/>
<text xml:space="preserve" text-anchor="middle" x="221.84" y="-925.53" font-family="Times,serif" font-size="14.00">1</text>
</g>
<!-- 21&#45;&gt;27 -->
<g id="edge11" class="edge">
<title>21&#45;&gt;27</title>
<path fill="none" stroke="black" d="M968.43,-197.55C1107.97,-198.1 1739.52,-204.1 1923,-267.75 2019,-301.05 2052.9,-304.11 2124,-376.7 2253.51,-508.94 2378.19,-1000.98 2338,-1181.65 2326.39,-1233.84 2310.13,-1242.4 2287,-1290.6 2250.83,-1366 2204,-1375.85 2204,-1459.48 2204,-1783.7 2204,-1783.7 2204,-1783.7 2204,-1818.49 2172.68,-1846.66 2147.84,-1863.52"/>
<polygon fill="black" stroke="black" points="2146.16,-1860.44 2139.65,-1868.81 2149.95,-1866.32 2146.16,-1860.44"/>
<text xml:space="preserve" text-anchor="middle" x="2347.78" y="-1014.78" font-family="Times,serif" font-size="14.00">3</text>
</g>
<!-- 22&#45;&gt;6 -->
<g id="edge40" class="edge">
<title>22&#45;&gt;6</title>
<path fill="none" stroke="black" d="M1025.68,-735.19C1020.99,-729.17 1015.66,-722.18 1011,-715.7 1004.77,-707.04 998.19,-697.37 992.44,-688.73"/>
<polygon fill="black" stroke="black" points="995.41,-686.87 986.98,-680.45 989.56,-690.72 995.41,-686.87"/>
<text xml:space="preserve" text-anchor="middle" x="1015.5" y="-702.4" font-family="Times,serif" font-size="14.00">0</text>
</g>
<!-- 22&#45;&gt;9 -->
<g id="edge105" class="edge">
<title>22&#45;&gt;9</title>
<path fill="none" stroke="black" d="M1011.01,-753.35C957.03,-755.86 833.78,-767.7 750,-822.95 553.99,-952.23 546.46,-1286.1 548.81,-1386.12"/>
<polygon fill="black" stroke="black" points="545.31,-1385.98 549.1,-1395.87 552.3,-1385.77 545.31,-1385.98"/>
<text xml:space="preserve" text-anchor="middle" x="595.75" y="-1059.4" font-family="Times,serif" font-size="14.00">1</text>
</g>
<!-- 22&#45;&gt;11 -->
<g id="edge109" class="edge">
<title>22&#45;&gt;11</title>
<path fill="none" stroke="black" d="M1059.25,-740.12C1108.5,-715.42 1233.97,-651.46 1335,-591.2 1421.86,-539.39 1436.62,-515.14 1525,-465.95 1564.76,-443.82 1612.73,-422.49 1644.01,-409.25"/>
<polygon fill="black" stroke="black" points="1645.07,-412.6 1652.93,-405.5 1642.36,-406.15 1645.07,-412.6"/>
<text xml:space="preserve" text-anchor="middle" x="1394.98" y="-568.53" font-family="Times,serif" font-size="14.00">3</text>
</g>
<!-- 22&#45;&gt;18 -->
<g id="edge47" class="edge">
<title>22&#45;&gt;18</title>
<path fill="none" stroke="black" d="M1063.42,-758.3C1131.56,-773.31 1318.51,-814.5 1397.74,-831.96"/>
<polygon fill="black" stroke="black" points="1396.63,-835.3 1407.15,-834.03 1398.14,-828.46 1396.63,-835.3"/>
<text xml:space="preserve" text-anchor="middle" x="1275.97" y="-791.65" font-family="Times,serif" font-size="14.00">2</text>
</g>
<!-- 22&#45;&gt;26 -->
<g id="edge17" class="edge">
<title>22&#45;&gt;26</title>
<path fill="none" stroke="black" d="M1039.31,-770.13C1041.13,-796.85 1043.99,-849.52 1042,-894.2 1030.61,-1149.83 942.46,-1222.57 1011,-1469.1 1022.41,-1510.15 1012.6,-1531.9 1046,-1558.35 1047.01,-1559.15 1184.28,-1578.51 1252.46,-1588.09"/>
<polygon fill="black" stroke="black" points="1251.67,-1591.51 1262.06,-1589.44 1252.64,-1584.58 1251.67,-1591.51"/>
<text xml:space="preserve" text-anchor="middle" x="1004.83" y="-1168.35" font-family="Times,serif" font-size="14.00">4</text>
</g>
<!-- 23&#45;&gt;9 -->
<g id="edge50" class="edge">
<title>23&#45;&gt;9</title>
<path fill="none" stroke="black" d="M434,-591.58C434,-609.19 434,-637.21 434,-661.45 434,-975.83 434,-975.83 434,-975.83 434,-1027.31 422.34,-1039.32 419,-1090.7 411.68,-1203.31 369.52,-1244.18 421,-1344.6 438.87,-1379.47 481.75,-1397.78 513.19,-1406.86"/>
<polygon fill="black" stroke="black" points="512.16,-1410.21 522.72,-1409.41 513.97,-1403.45 512.16,-1410.21"/>
<text xml:space="preserve" text-anchor="middle" x="438.5" y="-970.15" font-family="Times,serif" font-size="14.00">3</text>
</g>
<!-- 23&#45;&gt;12 -->
<g id="edge6" class="edge">
<title>23&#45;&gt;12</title>
<path fill="none" stroke="black" d="M408.4,-566.54C371.83,-556.76 309,-532.98 309,-484.95 309,-484.95 309,-484.95 309,-195.5 309,-155.76 432.54,-127.01 496.54,-114.78"/>
<polygon fill="black" stroke="black" points="497.07,-118.24 506.26,-112.97 495.79,-111.36 497.07,-118.24"/>
<text xml:space="preserve" text-anchor="middle" x="313.5" y="-345.4" font-family="Times,serif" font-size="14.00">4</text>
</g>
<!-- 23&#45;&gt;19 -->
<g id="edge139" class="edge">
<title>23&#45;&gt;19</title>
<path fill="none" stroke="black" d="M449.43,-558.02C482.74,-528.37 565.11,-460.14 648,-430.7 705.52,-410.27 884.96,-400.55 964.44,-397.16"/>
<polygon fill="black" stroke="black" points="964.5,-400.66 974.35,-396.75 964.21,-393.67 964.5,-400.66"/>
<text xml:space="preserve" text-anchor="middle" x="575.41" y="-479.28" font-family="Times,serif" font-size="14.00">0</text>
</g>
<!-- 23&#45;&gt;28 -->
<g id="edge121" class="edge">
<title>23&#45;&gt;28</title>
<path fill="none" stroke="black" d="M460.32,-568.28C554.22,-554.3 873.02,-506.83 982.63,-490.52"/>
<polygon fill="black" stroke="black" points="982.88,-494.02 992.26,-489.08 981.85,-487.09 982.88,-494.02"/>
<text xml:space="preserve" text-anchor="middle" x="783.99" y="-523.9" font-family="Times,serif" font-size="14.00">1</text>
</g>
<!-- 23&#45;&gt;29 -->
<g id="edge69" class="edge">
<title>23&#45;&gt;29</title>
<path fill="none" stroke="black" d="M413.77,-585.5C390.96,-599.9 357,-627.11 357,-661.45 357,-886.58 357,-886.58 357,-886.58 357,-1172.81 372.78,-1260.45 259,-1523.1 213.18,-1628.87 99,-1611.96 99,-1727.23 99,-2353.05 99,-2353.05 99,-2353.05 99,-2419.05 173.1,-2393.31 238,-2405.3 410.3,-2437.14 1698.9,-2440.02 1939.41,-2440.28"/>
<polygon fill="black" stroke="black" points="1939.16,-2443.78 1949.17,-2440.29 1939.17,-2436.78 1939.16,-2443.78"/>
<text xml:space="preserve" text-anchor="middle" x="278.38" y="-1500.43" font-family="Times,serif" font-size="14.00">2</text>
</g>
<!-- 24&#45;&gt;4 -->
<g id="edge60" class="edge">
<title>24&#45;&gt;4</title>
<path fill="none" stroke="black" d="M2020.72,-1146.28C2017.63,-1167.87 2014,-1199.06 2014,-1226.5 2014,-1372.23 2014,-1372.23 2014,-1372.23 2014,-1450.73 2007,-1470.22 2007,-1548.73 2007,-1783.7 2007,-1783.7 2007,-1783.7 2007,-1892.2 1928,-1906.18 1928,-2014.68 1928,-2259.8 1928,-2259.8 1928,-2259.8 1928,-2306.54 1584.23,-2338.6 1467.93,-2348.11"/>
<polygon fill="black" stroke="black" points="1467.97,-2344.6 1458.28,-2348.89 1468.53,-2351.58 1467.97,-2344.6"/>
<text xml:space="preserve" text-anchor="middle" x="2011.5" y="-1723.55" font-family="Times,serif" font-size="14.00">2</text>
</g>
<!-- 24&#45;&gt;7 -->
<g id="edge55" class="edge">
<title>24&#45;&gt;7</title>
<path fill="none" stroke="black" d="M1998.56,-1109.59C1933.24,-1090.05 1758.94,-1038.61 1612,-1001.45 1576.67,-992.52 1564.77,-999.4 1532,-983.45 1516.58,-975.95 1501.61,-964.06 1490.03,-953.52"/>
<polygon fill="black" stroke="black" points="1492.65,-951.18 1482.98,-946.85 1487.84,-956.27 1492.65,-951.18"/>
<text xml:space="preserve" text-anchor="middle" x="1749.52" y="-1014.78" font-family="Times,serif" font-size="14.00">4</text>
</g>
<!-- 24&#45;&gt;10 -->
<g id="edge136" class="edge">
<title>24&#45;&gt;10</title>
<path fill="none" stroke="black" d="M1997.11,-1123.19C1920.48,-1133.55 1708.36,-1164.69 1648,-1199.65 1609.95,-1221.69 1609.94,-1239.4 1582,-1273.35 1578.25,-1277.91 1330.92,-1609.09 1326,-1612.35 1312.4,-1621.38 835.99,-1738.22 696.19,-1772.38"/>
<polygon fill="black" stroke="black" points="695.57,-1768.93 686.69,-1774.7 697.23,-1775.73 695.57,-1768.93"/>
<text xml:space="preserve" text-anchor="middle" x="1452.43" y="-1455.8" font-family="Times,serif" font-size="14.00">3</text>
</g>
<!-- 24&#45;&gt;12 -->
<g id="edge73" class="edge">
<title>24&#45;&gt;12</title>
<path fill="none" stroke="black" d="M2052.68,-1113.69C2098.71,-1105.54 2186,-1081.98 2186,-1020.45 2186,-1020.45 2186,-1020.45 2186,-706.08 2186,-478.89 2133.6,-352.97 1923,-267.75 1667.21,-164.24 770.14,-118.78 572.65,-109.91"/>
<polygon fill="black" stroke="black" points="572.83,-106.41 562.69,-109.46 572.52,-113.4 572.83,-106.41"/>
<text xml:space="preserve" text-anchor="middle" x="2187.8" y="-613.15" font-family="Times,serif" font-size="14.00">0</text>
</g>
<!-- 24&#45;&gt;15 -->
<g id="edge122" class="edge">
<title>24&#45;&gt;15</title>
<path fill="none" stroke="black" d="M2021.66,-1090.5C2020.06,-1077.61 2018.16,-1062.19 2016.54,-1049.1"/>
<polygon fill="black" stroke="black" points="2020.04,-1048.87 2015.34,-1039.38 2013.09,-1049.73 2020.04,-1048.87"/>
<text xml:space="preserve" text-anchor="middle" x="2023.86" y="-1059.4" font-family="Times,serif" font-size="14.00">1</text>
</g>
<!-- 25&#45;&gt;9 -->
<g id="edge110" class="edge">
<title>25&#45;&gt;9</title>
<path fill="none" stroke="black" d="M1163.2,-1502.71C1100.25,-1499.22 938.13,-1488.91 804,-1469.1 725.66,-1457.53 635.06,-1437.19 586.03,-1425.6"/>
<polygon fill="black" stroke="black" points="587.08,-1422.25 576.54,-1423.34 585.46,-1429.06 587.08,-1422.25"/>
<text xml:space="preserve" text-anchor="middle" x="808.5" y="-1455.8" font-family="Times,serif" font-size="14.00">0</text>
</g>
<!-- 25&#45;&gt;15 -->
<g id="edge75" class="edge">
<title>25&#45;&gt;15</title>
<path fill="none" stroke="black" d="M1213.52,-1495.62C1229.87,-1489.29 1251.9,-1479.89 1270,-1469.1 1437.1,-1369.45 1458.24,-1314.89 1615,-1199.65 1637.2,-1183.33 1640.79,-1175.53 1666,-1164.4 1698.55,-1150.03 1710.37,-1158.01 1744,-1146.4 1833.92,-1115.37 1933.92,-1063.66 1982.79,-1037.19"/>
<polygon fill="black" stroke="black" points="1984.26,-1040.37 1991.37,-1032.51 1980.91,-1034.23 1984.26,-1040.37"/>
<text xml:space="preserve" text-anchor="middle" x="1525.25" y="-1277.3" font-family="Times,serif" font-size="14.00">2</text>
</g>
<!-- 25&#45;&gt;16 -->
<g id="edge18" class="edge">
<title>25&#45;&gt;16</title>
<path fill="none" stroke="black" d="M1192.77,-1487.05C1193.61,-1481.36 1194.45,-1474.97 1195,-1469.1 1209.57,-1314.27 1211,-1275.07 1211,-1119.55 1211,-1119.55 1211,-1119.55 1211,-973.83 1211,-779.78 1239.29,-724 1335,-555.2 1386.25,-464.81 1406.56,-443.68 1486,-376.7 1517.16,-350.43 1558.02,-327.65 1586.79,-313.17"/>
<polygon fill="black" stroke="black" points="1588.03,-316.46 1595.45,-308.89 1584.93,-310.18 1588.03,-316.46"/>
<text xml:space="preserve" text-anchor="middle" x="1218.73" y="-880.9" font-family="Times,serif" font-size="14.00">4</text>
</g>
<!-- 25&#45;&gt;16 -->
<g id="edge26" class="edge">
<title>25&#45;&gt;16</title>
<path fill="none" stroke="black" d="M1199.97,-1488.03C1203.38,-1482.19 1207.07,-1475.46 1210,-1469.1 1227.63,-1430.83 1233.88,-1421.2 1242,-1379.85 1285.13,-1160.32 1198.26,-1090.8 1264,-876.95 1282.84,-815.64 1526.33,-442.25 1600.62,-329.08"/>
<polygon fill="black" stroke="black" points="1603.48,-331.11 1606.04,-320.83 1597.63,-327.26 1603.48,-331.11"/>
<text xml:space="preserve" text-anchor="middle" x="1268.5" y="-880.9" font-family="Times,serif" font-size="14.00">3</text>
</g>
<!-- 25&#45;&gt;23 -->
<g id="edge134" class="edge">
<title>25&#45;&gt;23</title>
<path fill="none" stroke="black" d="M1165.74,-1496.82C1150.69,-1491.27 1131.84,-1482.3 1119,-1469.1 1101.18,-1450.79 1095,-1442.41 1095,-1416.85 1095,-1416.85 1095,-1416.85 1095,-1172.03 1095,-853.02 837.59,-857.16 572,-680.45 530.79,-653.03 485.86,-617.23 458.81,-594.98"/>
<polygon fill="black" stroke="black" points="461.13,-592.36 451.19,-588.68 456.67,-597.75 461.13,-592.36"/>
<text xml:space="preserve" text-anchor="middle" x="1079.2" y="-1014.78" font-family="Times,serif" font-size="14.00">1</text>
</g>
<!-- 26&#45;&gt;3 -->
<g id="edge78" class="edge">
<title>26&#45;&gt;3</title>
<path fill="none" stroke="black" d="M1291.3,-1612.69C1296.47,-1681.91 1315.71,-1939.12 1322.56,-2030.68"/>
<polygon fill="black" stroke="black" points="1319.06,-2030.76 1323.29,-2040.47 1326.04,-2030.24 1319.06,-2030.76"/>
<text xml:space="preserve" text-anchor="middle" x="1313" y="-1832.5" font-family="Times,serif" font-size="14.00">4</text>
</g>
<!-- 26&#45;&gt;4 -->
<g id="edge61" class="edge">
<title>26&#45;&gt;4</title>
<path fill="none" stroke="black" d="M1315.28,-1600.9C1335.26,-1606.16 1363.16,-1615.49 1384,-1630.35 1400.52,-1642.13 1401.65,-1648.79 1413,-1665.6 1418.28,-1673.42 1614.23,-2031.29 1617,-2042.3 1647.74,-2164.34 1515.18,-2284.91 1456.6,-2331.21"/>
<polygon fill="black" stroke="black" points="1454.5,-2328.42 1448.74,-2337.31 1458.79,-2333.95 1454.5,-2328.42"/>
<text xml:space="preserve" text-anchor="middle" x="1593.54" y="-1966.38" font-family="Times,serif" font-size="14.00">0</text>
</g>
<!-- 26&#45;&gt;8 -->
<g id="edge12" class="edge">
<title>26&#45;&gt;8</title>
<path fill="none" stroke="black" d="M1263.62,-1589.59C1238.73,-1586.07 1200.35,-1580.71 1167,-1576.35 1134.59,-1572.11 1048.46,-1576.09 1021,-1558.35 1015.16,-1554.58 893.25,-1351.18 891,-1344.6 857.15,-1245.65 892.27,-966.35 838,-876.95 833.2,-869.04 825.84,-862.52 818.16,-857.34"/>
<polygon fill="black" stroke="black" points="820.1,-854.42 809.73,-852.27 816.5,-860.42 820.1,-854.42"/>
<text xml:space="preserve" text-anchor="middle" x="881.35" y="-1222.83" font-family="Times,serif" font-size="14.00">2</text>
</g>
<!-- 26&#45;&gt;20 -->
<g id="edge19" class="edge">
<title>26&#45;&gt;20</title>
<path fill="none" stroke="black" d="M1306.06,-1579.38C1365.11,-1527.98 1567.02,-1352 1572,-1344.6 1590.75,-1316.77 1573.7,-1297.5 1597,-1273.35 1612.25,-1257.55 1623.44,-1265.31 1643,-1255.35 1646.24,-1253.7 1649.55,-1251.87 1652.81,-1249.96"/>
<polygon fill="black" stroke="black" points="1654.38,-1253.11 1661.08,-1244.9 1650.72,-1247.14 1654.38,-1253.11"/>
<text xml:space="preserve" text-anchor="middle" x="1517.16" y="-1411.18" font-family="Times,serif" font-size="14.00">3</text>
</g>
<!-- 26&#45;&gt;25 -->
<g id="edge85" class="edge">
<title>26&#45;&gt;25</title>
<path fill="none" stroke="black" d="M1274.38,-1579.72C1258.32,-1565.72 1233.11,-1543.72 1214.43,-1527.41"/>
<polygon fill="black" stroke="black" points="1216.82,-1524.86 1206.99,-1520.92 1212.22,-1530.13 1216.82,-1524.86"/>
<text xml:space="preserve" text-anchor="middle" x="1253.46" y="-1545.05" font-family="Times,serif" font-size="14.00">1</text>
</g>
<!-- 27&#45;&gt;10 -->
<g id="edge53" class="edge">
<title>27&#45;&gt;10</title>
<path fill="none" stroke="black" d="M2090.72,-1880.17C1987.22,-1877.67 1608.94,-1867.51 1298,-1845.8 1070.06,-1829.89 797.49,-1799.73 697.37,-1788.27"/>
<polygon fill="black" stroke="black" points="697.86,-1784.8 687.53,-1787.14 697.07,-1791.76 697.86,-1784.8"/>
<text xml:space="preserve" text-anchor="middle" x="1302.5" y="-1832.5" font-family="Times,serif" font-size="14.00">2</text>
</g>
<!-- 27&#45;&gt;11 -->
<g id="edge146" class="edge">
<title>27&#45;&gt;11</title>
<path fill="none" stroke="black" d="M2144.6,-1877.72C2166.84,-1873.83 2198.05,-1865.12 2218,-1845.8 2239.26,-1825.22 2242,-1813.29 2242,-1783.7 2242,-1783.7 2242,-1783.7 2242,-1459.48 2242,-1074.85 2156.97,-969.28 1951,-644.45 1883.87,-538.59 1869.35,-503.07 1767,-430.7 1750.83,-419.27 1730.42,-410.93 1713.13,-405.27"/>
<polygon fill="black" stroke="black" points="1714.32,-401.98 1703.73,-402.38 1712.26,-408.67 1714.32,-401.98"/>
<text xml:space="preserve" text-anchor="middle" x="2215.92" y="-1113.88" font-family="Times,serif" font-size="14.00">4</text>
</g>
<!-- 27&#45;&gt;23 -->
<g id="edge126" class="edge">
<title>27&#45;&gt;23</title>
<path fill="none" stroke="black" d="M2130.86,-1865.79C2145.08,-1847.62 2166,-1815.48 2166,-1783.7 2166,-1783.7 2166,-1783.7 2166,-1370.23 2166,-1198.28 2172.91,-1120.68 2049,-1001.45 2020.71,-974.23 2004.64,-980.31 1968,-966.2 1863.41,-925.93 1120.75,-671.56 1012,-644.45 813.03,-594.85 566.46,-579.74 472.66,-575.61"/>
<polygon fill="black" stroke="black" points="472.87,-572.12 462.73,-575.19 472.58,-579.11 472.87,-572.12"/>
<text xml:space="preserve" text-anchor="middle" x="2169.58" y="-1222.83" font-family="Times,serif" font-size="14.00">1</text>
</g>
<!-- 27&#45;&gt;24 -->
<g id="edge79" class="edge">
<title>27&#45;&gt;24</title>
<path fill="none" stroke="black" d="M2110.2,-1864.38C2101.92,-1845.4 2090,-1813 2090,-1783.7 2090,-1783.7 2090,-1783.7 2090,-1593.35 2090,-1514.91 2090,-1495.3 2090,-1416.85 2090,-1416.85 2090,-1416.85 2090,-1226.5 2090,-1196.03 2070.49,-1166.85 2052.85,-1146.68"/>
<polygon fill="black" stroke="black" points="2055.57,-1144.47 2046.23,-1139.47 2050.41,-1149.2 2055.57,-1144.47"/>
<text xml:space="preserve" text-anchor="middle" x="2094.5" y="-1500.43" font-family="Times,serif" font-size="14.00">3</text>
</g>
<!-- 27&#45;&gt;29 -->
<g id="edge88" class="edge">
<title>27&#45;&gt;29</title>
<path fill="none" stroke="black" d="M2118,-1900.18C2118,-1917.79 2118,-1945.82 2118,-1970.05 2118,-2162.55 2118,-2162.55 2118,-2162.55 2118,-2232.63 2113.34,-2253.38 2082,-2316.05 2061.72,-2356.61 2025.74,-2395.36 2001.88,-2418.49"/>
<polygon fill="black" stroke="black" points="1999.62,-2415.81 1994.78,-2425.24 2004.44,-2420.89 1999.62,-2415.81"/>
<text xml:space="preserve" text-anchor="middle" x="2122.5" y="-2156.88" font-family="Times,serif" font-size="14.00">0</text>
</g>
<!-- 28&#45;&gt;10 -->
<g id="edge70" class="edge">
<title>28&#45;&gt;10</title>
<path fill="none" stroke="black" d="M996.42,-493.46C896.12,-530.35 510,-679.89 510,-795.33 510,-975.83 510,-975.83 510,-975.83 510,-1031.95 543.94,-1042.12 591,-1072.7 615.42,-1088.57 636.46,-1067.45 654,-1090.7 670.25,-1112.25 644.31,-1549.37 644,-1576.35 643.17,-1647.68 633.25,-1666.33 644,-1736.85 644.43,-1739.67 645,-1742.56 645.68,-1745.45"/>
<polygon fill="black" stroke="black" points="642.25,-1746.2 648.25,-1754.94 649.01,-1744.37 642.25,-1746.2"/>
<text xml:space="preserve" text-anchor="middle" x="663.71" y="-1113.88" font-family="Times,serif" font-size="14.00">1</text>
</g>
<!-- 28&#45;&gt;11 -->
<g id="edge36" class="edge">
<title>28&#45;&gt;11</title>
<path fill="none" stroke="black" d="M1045.15,-476.93C1060.61,-473.38 1080.88,-469 1099,-465.95 1301.23,-431.98 1545.9,-407.73 1638.76,-399.13"/>
<polygon fill="black" stroke="black" points="1638.94,-402.63 1648.58,-398.23 1638.3,-395.66 1638.94,-402.63"/>
<text xml:space="preserve" text-anchor="middle" x="1340.89" y="-434.65" font-family="Times,serif" font-size="14.00">0</text>
</g>
<!-- 28&#45;&gt;19 -->
<g id="edge59" class="edge">
<title>28&#45;&gt;19</title>
<path fill="none" stroke="black" d="M1003.17,-469.36C997.19,-463.49 991.16,-456.09 988,-447.95 984.77,-439.63 985.97,-430.33 988.77,-421.9"/>
<polygon fill="black" stroke="black" points="991.92,-423.46 992.55,-412.89 985.46,-420.76 991.92,-423.46"/>
<text xml:space="preserve" text-anchor="middle" x="992.5" y="-434.65" font-family="Times,serif" font-size="14.00">3</text>
</g>
<!-- 28&#45;&gt;22 -->
<g id="edge129" class="edge">
<title>28&#45;&gt;22</title>
<path fill="none" stroke="black" d="M1021.16,-502.11C1024.18,-546.67 1032.29,-666.45 1036.05,-721.86"/>
<polygon fill="black" stroke="black" points="1032.55,-722.01 1036.72,-731.75 1039.53,-721.54 1032.55,-722.01"/>
<text xml:space="preserve" text-anchor="middle" x="1033.92" y="-613.15" font-family="Times,serif" font-size="14.00">2</text>
</g>
<!-- 28&#45;&gt;25 -->
<g id="edge125" class="edge">
<title>28&#45;&gt;25</title>
<path fill="none" stroke="black" d="M1029.67,-500.99C1045.95,-528.96 1078.41,-588.97 1092,-644.45 1108.86,-713.29 1133,-1210.11 1133,-1280.98 1133,-1416.85 1133,-1416.85 1133,-1416.85 1133,-1442.43 1150.38,-1466.36 1165.95,-1482.67"/>
<polygon fill="black" stroke="black" points="1163.18,-1484.85 1172.74,-1489.4 1168.1,-1479.88 1163.18,-1484.85"/>
<text xml:space="preserve" text-anchor="middle" x="1124.42" y="-970.15" font-family="Times,serif" font-size="14.00">4</text>
</g>
<!-- 29&#45;&gt;4 -->
<g id="edge3" class="edge">
<title>29&#45;&gt;4</title>
<path fill="none" stroke="black" d="M1951.94,-2436.15C1863.05,-2422 1571.56,-2375.59 1467.41,-2359.01"/>
<polygon fill="black" stroke="black" points="1468.14,-2355.58 1457.72,-2357.47 1467.04,-2362.49 1468.14,-2355.58"/>
<text xml:space="preserve" text-anchor="middle" x="1757.58" y="-2392" font-family="Times,serif" font-size="14.00">2</text>
</g>
<!-- 29&#45;&gt;13 -->
<g id="edge84" class="edge">
<title>29&#45;&gt;13</title>
<path fill="none" stroke="black" d="M1950.65,-2440.48C1722.51,-2441.83 144,-2447.69 144,-2353.05 144,-2353.05 144,-2353.05 144,-2209.18 144,-2079.24 106.81,-2032.43 168,-1917.8 227.62,-1806.12 366.08,-1729.41 428.93,-1699.09"/>
<polygon fill="black" stroke="black" points="430.15,-1702.39 437.69,-1694.94 427.15,-1696.06 430.15,-1702.39"/>
<text xml:space="preserve" text-anchor="middle" x="139.54" y="-2059.63" font-family="Times,serif" font-size="14.00">0</text>
</g>
<!-- 29&#45;&gt;15 -->
<g id="edge15" class="edge">
<title>29&#45;&gt;15</title>
<path fill="none" stroke="black" d="M2005.07,-2438.3C2079.19,-2432.09 2280,-2410.02 2280,-2353.05 2280,-2353.05 2280,-2353.05 2280,-1459.48 2280,-1376.59 2277.4,-1154.1 2224,-1090.7 2180.91,-1039.55 2099.53,-1025.46 2051.41,-1021.69"/>
<polygon fill="black" stroke="black" points="2051.94,-1018.22 2041.73,-1021.06 2051.48,-1025.2 2051.94,-1018.22"/>
<text xml:space="preserve" text-anchor="middle" x="2284.5" y="-1723.55" font-family="Times,serif" font-size="14.00">3</text>
</g>
<!-- 29&#45;&gt;23 -->
<g id="edge116" class="edge">
<title>29&#45;&gt;23</title>
<path fill="none" stroke="black" d="M1950.8,-2440.4C1727.1,-2441.15 196.75,-2444.83 109,-2405.3 80.25,-2392.35 61,-2384.59 61,-2353.05 61,-2353.05 61,-2353.05 61,-1637.98 61,-1510.12 245,-1544.7 245,-1416.85 245,-1416.85 245,-1416.85 245,-1280.98 245,-1063.52 319,-1014.78 319,-797.33 319,-797.33 319,-797.33 319,-661.45 319,-620.97 364.78,-596.84 398.57,-584.54"/>
<polygon fill="black" stroke="black" points="399.29,-588 407.61,-581.45 397.02,-581.37 399.29,-588"/>
<text xml:space="preserve" text-anchor="middle" x="219.8" y="-1500.43" font-family="Times,serif" font-size="14.00">1</text>
</g>
<!-- 29&#45;&gt;26 -->
<g id="edge67" class="edge">
<title>29&#45;&gt;26</title>
<path fill="none" stroke="black" d="M1998.99,-2429.47C2010.62,-2423.07 2025.1,-2414.45 2037,-2405.3 2054.76,-2391.66 2062.65,-2389.91 2073,-2370.05 2084.25,-2348.48 2079.99,-2340.3 2082,-2316.05 2092.71,-2186.66 2072.94,-2132.97 1980,-2042.3 1811.25,-1877.67 1754.58,-1851.25 1559,-1719.6 1494.01,-1675.86 1478.82,-1661.64 1407,-1630.35 1380.77,-1618.93 1349.69,-1609.82 1326.16,-1603.77"/>
<polygon fill="black" stroke="black" points="1327.29,-1600.44 1316.74,-1601.41 1325.59,-1607.23 1327.29,-1600.44"/>
<text xml:space="preserve" text-anchor="middle" x="1965.81" y="-2011" font-family="Times,serif" font-size="14.00">4</text>
</g>
</g>
</svg>
