<?xml version="1.0" encoding="UTF-8" standalone="no"?>
<!DOCTYPE svg PUBLIC "-//W3C//DTD SVG 1.1//EN"
 "http://www.w3.org/Graphics/SVG/1.1/DTD/svg11.dtd">
<!-- Generated by graphviz version 13.0.1 (20250616.1512)
 -->
<!-- Pages: 1 -->
<svg width="2452pt" height="2455pt"
 viewBox="0.00 0.00 2452.00 2455.00" xmlns="http://www.w3.org/2000/svg" xmlns:xlink="http://www.w3.org/1999/xlink">
<g id="graph0" class="graph" transform="scale(1 1) rotate(0) translate(4 2451.35)">
<polygon fill="white" stroke="none" points="-4,4 -4,-2451.35 2448,-2451.35 2448,4 -4,4"/>
<!-- fake -->
<g id="node1" class="node">
<title>fake</title>
</g>
<!-- 29 -->
<g id="node31" class="node">
<title>29</title>
<ellipse fill="none" stroke="black" cx="1152" cy="-2346.5" rx="23.85" ry="23.85"/>
<ellipse fill="none" stroke="black" cx="1152" cy="-2346.5" rx="27.85" ry="27.85"/>
<text xml:space="preserve" text-anchor="middle" x="1152" y="-2341.83" font-family="Times,serif" font-size="14.00">29</text>
</g>
<!-- fake&#45;&gt;29 -->
<g id="edge1" class="edge">
<title>fake&#45;&gt;29</title>
<path fill="none" stroke="black" stroke-width="2" d="M1152,-2411.21C1152,-2403.86 1152,-2394.95 1152,-2386.16"/>
<polygon fill="black" stroke="black" stroke-width="2" points="1155.5,-2387.83 1152,-2377.83 1148.5,-2387.83 1155.5,-2387.83"/>
</g>
<!-- 0 -->
<g id="node2" class="node">
<title>0</title>
<ellipse fill="none" stroke="black" cx="680" cy="-2146.15" rx="18" ry="18"/>
<ellipse fill="none" stroke="black" cx="680" cy="-2146.15" rx="22" ry="22"/>
<text xml:space="preserve" text-anchor="middle" x="680" y="-2141.48" font-family="Times,serif" font-size="14.00">0</text>
</g>
<!-- 4 -->
<g id="node6" class="node">
<title>4</title>
<ellipse fill="none" stroke="black" cx="1381" cy="-2052.9" rx="27" ry="18"/>
<text xml:space="preserve" text-anchor="middle" x="1381" y="-2048.23" font-family="Times,serif" font-size="14.00">4</text>
</g>
<!-- 0&#45;&gt;4 -->
<g id="edge125" class="edge">
<title>0&#45;&gt;4</title>
<path fill="none" stroke="black" d="M702.17,-2143.96C766.14,-2140.35 956.45,-2128.4 1113,-2106.15 1196.38,-2094.3 1293.1,-2073.73 1344.49,-2062.26"/>
<polygon fill="black" stroke="black" points="1345.19,-2065.69 1354.17,-2060.08 1343.65,-2058.86 1345.19,-2065.69"/>
<text xml:space="preserve" text-anchor="middle" x="1213.75" y="-2092.85" font-family="Times,serif" font-size="14.00">2</text>
</g>
<!-- 5 -->
<g id="node7" class="node">
<title>5</title>
<ellipse fill="none" stroke="black" cx="502" cy="-1687.9" rx="27" ry="18"/>
<text xml:space="preserve" text-anchor="middle" x="502" y="-1683.23" font-family="Times,serif" font-size="14.00">5</text>
</g>
<!-- 0&#45;&gt;5 -->
<g id="edge69" class="edge">
<title>0&#45;&gt;5</title>
<path fill="none" stroke="black" d="M661.3,-2134.41C650.48,-2127.45 637.21,-2117.57 628,-2106.15 611.95,-2086.26 604,-2079.46 604,-2053.9 604,-2053.9 604,-2053.9 604,-1780.15 604,-1742.7 565.32,-1716.77 535.6,-1702.37"/>
<polygon fill="black" stroke="black" points="537.07,-1699.2 526.52,-1698.22 534.16,-1705.56 537.07,-1699.2"/>
<text xml:space="preserve" text-anchor="middle" x="608.5" y="-1914.35" font-family="Times,serif" font-size="14.00">4</text>
</g>
<!-- 17 -->
<g id="node19" class="node">
<title>17</title>
<ellipse fill="none" stroke="black" cx="1264" cy="-1063.15" rx="27" ry="18"/>
<text xml:space="preserve" text-anchor="middle" x="1264" y="-1058.48" font-family="Times,serif" font-size="14.00">17</text>
</g>
<!-- 0&#45;&gt;17 -->
<g id="edge115" class="edge">
<title>0&#45;&gt;17</title>
<path fill="none" stroke="black" d="M702.3,-2144.13C779.11,-2140.03 1028,-2121.51 1028,-2053.9 1028,-2053.9 1028,-2053.9 1028,-1731.53 1028,-1579.01 1153.76,-1581.44 1206,-1438.15 1250.93,-1314.91 1261.06,-1156.45 1263.34,-1092.64"/>
<polygon fill="black" stroke="black" points="1266.82,-1093.13 1263.64,-1083.03 1259.83,-1092.91 1266.82,-1093.13"/>
<text xml:space="preserve" text-anchor="middle" x="1102.65" y="-1593.98" font-family="Times,serif" font-size="14.00">0</text>
</g>
<!-- 24 -->
<g id="node26" class="node">
<title>24</title>
<ellipse fill="none" stroke="black" cx="1541" cy="-1420.15" rx="27" ry="18"/>
<text xml:space="preserve" text-anchor="middle" x="1541" y="-1415.48" font-family="Times,serif" font-size="14.00">24</text>
</g>
<!-- 0&#45;&gt;24 -->
<g id="edge33" class="edge">
<title>0&#45;&gt;24</title>
<path fill="none" stroke="black" d="M702.44,-2145.34C772.46,-2145.51 985.63,-2142.96 1042,-2106.15 1064.42,-2091.51 1072,-2080.68 1072,-2053.9 1072,-2053.9 1072,-2053.9 1072,-1918.03 1072,-1836.65 1111.56,-1822.2 1163,-1759.15 1246.51,-1656.79 1287.66,-1650.85 1386,-1562.65 1432.91,-1520.58 1487.17,-1470.78 1517.45,-1442.89"/>
<polygon fill="black" stroke="black" points="1519.59,-1445.68 1524.57,-1436.33 1514.84,-1440.53 1519.59,-1445.68"/>
<text xml:space="preserve" text-anchor="middle" x="1167.5" y="-1776.48" font-family="Times,serif" font-size="14.00">3</text>
</g>
<!-- 26 -->
<g id="node28" class="node">
<title>26</title>
<ellipse fill="none" stroke="black" cx="2110" cy="-196.5" rx="27" ry="18"/>
<text xml:space="preserve" text-anchor="middle" x="2110" y="-191.82" font-family="Times,serif" font-size="14.00">26</text>
</g>
<!-- 0&#45;&gt;26 -->
<g id="edge52" class="edge">
<title>0&#45;&gt;26</title>
<path fill="none" stroke="black" d="M702.24,-2145.09C894.96,-2144.38 2275,-2136.46 2275,-2053.9 2275,-2053.9 2275,-2053.9 2275,-1196.03 2275,-1119 2305.28,-1103.69 2314,-1027.15 2338.38,-813.26 2262,-760.85 2262,-545.58 2262,-545.58 2262,-545.58 2262,-288.75 2262,-235.52 2192.63,-212.56 2147.62,-203.27"/>
<polygon fill="black" stroke="black" points="2148.44,-199.87 2137.96,-201.43 2147.13,-206.74 2148.44,-199.87"/>
<text xml:space="preserve" text-anchor="middle" x="2279.5" y="-1192.35" font-family="Times,serif" font-size="14.00">1</text>
</g>
<!-- 1 -->
<g id="node3" class="node">
<title>1</title>
<ellipse fill="none" stroke="black" cx="1679" cy="-1781.15" rx="18" ry="18"/>
<ellipse fill="none" stroke="black" cx="1679" cy="-1781.15" rx="22" ry="22"/>
<text xml:space="preserve" text-anchor="middle" x="1679" y="-1776.48" font-family="Times,serif" font-size="14.00">1</text>
</g>
<!-- 1&#45;&gt;5 -->
<g id="edge14" class="edge">
<title>1&#45;&gt;5</title>
<path fill="none" stroke="black" d="M1656.79,-1777.87C1577.07,-1769.73 1297.85,-1741.66 1067,-1723.9 869.13,-1708.68 631.87,-1695.7 540.48,-1690.89"/>
<polygon fill="black" stroke="black" points="540.75,-1687.4 530.58,-1690.37 540.39,-1694.39 540.75,-1687.4"/>
<text xml:space="preserve" text-anchor="middle" x="1273.59" y="-1727.85" font-family="Times,serif" font-size="14.00">1</text>
</g>
<!-- 15 -->
<g id="node17" class="node">
<title>15</title>
<ellipse fill="none" stroke="black" cx="1342" cy="-874.8" rx="23.85" ry="23.85"/>
<ellipse fill="none" stroke="black" cx="1342" cy="-874.8" rx="27.85" ry="27.85"/>
<text xml:space="preserve" text-anchor="middle" x="1342" y="-870.13" font-family="Times,serif" font-size="14.00">15</text>
</g>
<!-- 1&#45;&gt;15 -->
<g id="edge118" class="edge">
<title>1&#45;&gt;15</title>
<path fill="none" stroke="black" d="M1679,-1758.76C1679,-1740.27 1679,-1712.82 1679,-1688.9 1679,-1688.9 1679,-1688.9 1679,-1553.03 1679,-1430.38 1726.95,-1396.59 1697,-1277.65 1668.36,-1163.88 1637.95,-1142.18 1572,-1045.15 1531.31,-985.29 1526.44,-961.96 1467,-920.65 1440.86,-902.48 1406.56,-890.87 1380.5,-884.02"/>
<polygon fill="black" stroke="black" points="1381.54,-880.67 1370.99,-881.65 1379.85,-887.47 1381.54,-880.67"/>
<text xml:space="preserve" text-anchor="middle" x="1711.33" y="-1326.23" font-family="Times,serif" font-size="14.00">3</text>
</g>
<!-- 18 -->
<g id="node20" class="node">
<title>18</title>
<ellipse fill="none" stroke="black" cx="1540" cy="-1330.9" rx="27" ry="18"/>
<text xml:space="preserve" text-anchor="middle" x="1540" y="-1326.23" font-family="Times,serif" font-size="14.00">18</text>
</g>
<!-- 1&#45;&gt;18 -->
<g id="edge60" class="edge">
<title>1&#45;&gt;18</title>
<path fill="none" stroke="black" d="M1666.77,-1762.53C1655.66,-1744.78 1641,-1716.19 1641,-1688.9 1641,-1688.9 1641,-1688.9 1641,-1463.78 1641,-1415.38 1597.59,-1373.76 1567.69,-1350.83"/>
<polygon fill="black" stroke="black" points="1569.86,-1348.09 1559.74,-1344.96 1565.7,-1353.72 1569.86,-1348.09"/>
<text xml:space="preserve" text-anchor="middle" x="1645.5" y="-1549.35" font-family="Times,serif" font-size="14.00">4</text>
</g>
<!-- 21 -->
<g id="node23" class="node">
<title>21</title>
<ellipse fill="none" stroke="black" cx="1800" cy="-1509.4" rx="27" ry="18"/>
<text xml:space="preserve" text-anchor="middle" x="1800" y="-1504.73" font-family="Times,serif" font-size="14.00">21</text>
</g>
<!-- 1&#45;&gt;21 -->
<g id="edge62" class="edge">
<title>1&#45;&gt;21</title>
<path fill="none" stroke="black" d="M1698.34,-1769.89C1709.4,-1763.1 1722.68,-1753.23 1731,-1741.15 1782.32,-1666.62 1758.78,-1631.38 1787,-1545.4 1787.84,-1542.86 1788.74,-1540.22 1789.67,-1537.59"/>
<polygon fill="black" stroke="black" points="1792.86,-1539.06 1793,-1528.47 1786.28,-1536.66 1792.86,-1539.06"/>
<text xml:space="preserve" text-anchor="middle" x="1773.72" y="-1638.6" font-family="Times,serif" font-size="14.00">0</text>
</g>
<!-- 25 -->
<g id="node27" class="node">
<title>25</title>
<ellipse fill="none" stroke="black" cx="672" cy="-18" rx="27" ry="18"/>
<text xml:space="preserve" text-anchor="middle" x="672" y="-13.32" font-family="Times,serif" font-size="14.00">25</text>
</g>
<!-- 1&#45;&gt;25 -->
<g id="edge59" class="edge">
<title>1&#45;&gt;25</title>
<path fill="none" stroke="black" d="M1700.96,-1777.25C1739.59,-1771.05 1820.03,-1752.98 1867,-1705.9 1889.57,-1683.28 1964.75,-1469.27 1972,-1438.15 2000.82,-1314.46 1996,-1280.41 1996,-1153.4 1996,-1153.4 1996,-1153.4 1996,-1017.53 1996,-984.03 1750.8,-503.49 1735,-473.95 1663.01,-339.38 1676.06,-277.61 1560,-178.5 1445.83,-81.01 1392.53,-86.64 1246,-54 1143.51,-31.17 821.95,-22.23 710.49,-19.76"/>
<polygon fill="black" stroke="black" points="710.75,-16.27 700.68,-19.55 710.6,-23.27 710.75,-16.27"/>
<text xml:space="preserve" text-anchor="middle" x="1968.52" y="-924.6" font-family="Times,serif" font-size="14.00">2</text>
</g>
<!-- 2 -->
<g id="node4" class="node">
<title>2</title>
<ellipse fill="none" stroke="black" cx="349" cy="-2243.4" rx="18" ry="18"/>
<ellipse fill="none" stroke="black" cx="349" cy="-2243.4" rx="22" ry="22"/>
<text xml:space="preserve" text-anchor="middle" x="349" y="-2238.73" font-family="Times,serif" font-size="14.00">2</text>
</g>
<!-- 2&#45;&gt;0 -->
<g id="edge58" class="edge">
<title>2&#45;&gt;0</title>
<path fill="none" stroke="black" d="M370.21,-2236.3C426.72,-2220.03 581.2,-2175.58 648.24,-2156.29"/>
<polygon fill="black" stroke="black" points="648.87,-2159.75 657.51,-2153.62 646.94,-2153.02 648.87,-2159.75"/>
<text xml:space="preserve" text-anchor="middle" x="548.65" y="-2190.1" font-family="Times,serif" font-size="14.00">0</text>
</g>
<!-- 2&#45;&gt;2 -->
<g id="edge2" class="edge">
<title>2&#45;&gt;2</title>
<path fill="none" stroke="black" d="M369.58,-2252.25C379.84,-2253.47 389,-2250.52 389,-2243.4 389,-2239.17 385.77,-2236.41 381,-2235.13"/>
<polygon fill="black" stroke="black" points="381.26,-2231.64 371.09,-2234.63 380.9,-2238.63 381.26,-2231.64"/>
<text xml:space="preserve" text-anchor="middle" x="393.5" y="-2238.73" font-family="Times,serif" font-size="14.00">2</text>
</g>
<!-- 9 -->
<g id="node11" class="node">
<title>9</title>
<ellipse fill="none" stroke="black" cx="738" cy="-495.95" rx="18" ry="18"/>
<ellipse fill="none" stroke="black" cx="738" cy="-495.95" rx="22" ry="22"/>
<text xml:space="preserve" text-anchor="middle" x="738" y="-491.28" font-family="Times,serif" font-size="14.00">9</text>
</g>
<!-- 2&#45;&gt;9 -->
<g id="edge25" class="edge">
<title>2&#45;&gt;9</title>
<path fill="none" stroke="black" d="M340.68,-2222.73C333.4,-2203.74 324,-2173.99 324,-2147.15 324,-2147.15 324,-2147.15 324,-1731.53 324,-1651.28 286,-1635.27 286,-1555.03 286,-1555.03 286,-1555.03 286,-1285.28 286,-1220.83 348.21,-1067.56 377,-1009.9 398.58,-966.69 406.94,-956.77 439,-920.65 495.42,-857.09 529.6,-860.61 582,-793.7 650.66,-706.03 703.82,-583.66 726.31,-527.42"/>
<polygon fill="black" stroke="black" points="729.54,-528.76 729.95,-518.18 723.03,-526.19 729.54,-528.76"/>
<text xml:space="preserve" text-anchor="middle" x="290.5" y="-1370.85" font-family="Times,serif" font-size="14.00">4</text>
</g>
<!-- 10 -->
<g id="node12" class="node">
<title>10</title>
<ellipse fill="none" stroke="black" cx="1073" cy="-1152.4" rx="27" ry="18"/>
<text xml:space="preserve" text-anchor="middle" x="1073" y="-1147.73" font-family="Times,serif" font-size="14.00">10</text>
</g>
<!-- 2&#45;&gt;10 -->
<g id="edge117" class="edge">
<title>2&#45;&gt;10</title>
<path fill="none" stroke="black" d="M363.02,-2225.95C368.74,-2219.09 375.32,-2210.96 381,-2203.4 475.84,-2077.13 477.86,-2029.12 582,-1910.4 710.83,-1763.54 801.7,-1779.91 909,-1616.65 987.21,-1497.64 962.52,-1446.8 1011,-1312.9 1027.93,-1266.13 1049.24,-1212.31 1061.95,-1180.67"/>
<polygon fill="black" stroke="black" points="1065.17,-1182.05 1065.66,-1171.47 1058.67,-1179.44 1065.17,-1182.05"/>
<text xml:space="preserve" text-anchor="middle" x="874.09" y="-1683.23" font-family="Times,serif" font-size="14.00">1</text>
</g>
<!-- 23 -->
<g id="node25" class="node">
<title>23</title>
<ellipse fill="none" stroke="black" cx="241" cy="-593.2" rx="27" ry="18"/>
<text xml:space="preserve" text-anchor="middle" x="241" y="-588.53" font-family="Times,serif" font-size="14.00">23</text>
</g>
<!-- 2&#45;&gt;23 -->
<g id="edge10" class="edge">
<title>2&#45;&gt;23</title>
<path fill="none" stroke="black" d="M326.74,-2240.84C300.91,-2237.84 258.71,-2229.07 234,-2203.4 189.66,-2157.35 162.3,-1990.75 152,-1927.65 96.51,-1587.85 126,-1497.71 126,-1153.4 126,-1153.4 126,-1153.4 126,-685.45 126,-644.05 172.29,-618.45 206.14,-605.27"/>
<polygon fill="black" stroke="black" points="207.01,-608.68 215.19,-601.94 204.6,-602.11 207.01,-608.68"/>
<text xml:space="preserve" text-anchor="middle" x="125.81" y="-1415.48" font-family="Times,serif" font-size="14.00">3</text>
</g>
<!-- 3 -->
<g id="node5" class="node">
<title>3</title>
<ellipse fill="none" stroke="black" cx="1327" cy="-289.75" rx="18" ry="18"/>
<ellipse fill="none" stroke="black" cx="1327" cy="-289.75" rx="22" ry="22"/>
<text xml:space="preserve" text-anchor="middle" x="1327" y="-285.07" font-family="Times,serif" font-size="14.00">3</text>
</g>
<!-- 3&#45;&gt;3 -->
<g id="edge109" class="edge">
<title>3&#45;&gt;3</title>
<path fill="none" stroke="black" d="M1347.58,-298.6C1357.84,-299.82 1367,-296.87 1367,-289.75 1367,-285.52 1363.77,-282.76 1359,-281.48"/>
<polygon fill="black" stroke="black" points="1359.26,-277.98 1349.09,-280.98 1358.9,-284.98 1359.26,-277.98"/>
<text xml:space="preserve" text-anchor="middle" x="1371.5" y="-285.07" font-family="Times,serif" font-size="14.00">1</text>
</g>
<!-- 8 -->
<g id="node10" class="node">
<title>8</title>
<ellipse fill="none" stroke="black" cx="1036" cy="-593.2" rx="18" ry="18"/>
<ellipse fill="none" stroke="black" cx="1036" cy="-593.2" rx="22" ry="22"/>
<text xml:space="preserve" text-anchor="middle" x="1036" y="-588.53" font-family="Times,serif" font-size="14.00">8</text>
</g>
<!-- 3&#45;&gt;8 -->
<g id="edge120" class="edge">
<title>3&#45;&gt;8</title>
<path fill="none" stroke="black" d="M1308.82,-302.8C1275.33,-325.77 1203.3,-378.89 1159,-438.7 1125.73,-483.61 1144.99,-512.21 1107,-553.2 1096.06,-565 1080.72,-574.05 1067.09,-580.44"/>
<polygon fill="black" stroke="black" points="1065.8,-577.18 1058.04,-584.39 1068.6,-583.6 1065.8,-577.18"/>
<text xml:space="preserve" text-anchor="middle" x="1163.5" y="-442.65" font-family="Times,serif" font-size="14.00">2</text>
</g>
<!-- 20 -->
<g id="node22" class="node">
<title>20</title>
<ellipse fill="none" stroke="black" cx="1359" cy="-392.85" rx="23.85" ry="23.85"/>
<ellipse fill="none" stroke="black" cx="1359" cy="-392.85" rx="27.85" ry="27.85"/>
<text xml:space="preserve" text-anchor="middle" x="1359" y="-388.18" font-family="Times,serif" font-size="14.00">20</text>
</g>
<!-- 3&#45;&gt;20 -->
<g id="edge74" class="edge">
<title>3&#45;&gt;20</title>
<path fill="none" stroke="black" d="M1340.61,-307.24C1345.34,-313.85 1350.16,-321.78 1353,-329.75 1355.64,-337.15 1357.26,-345.35 1358.23,-353.29"/>
<polygon fill="black" stroke="black" points="1354.74,-353.47 1359.1,-363.12 1361.71,-352.85 1354.74,-353.47"/>
<text xml:space="preserve" text-anchor="middle" x="1361.7" y="-333.7" font-family="Times,serif" font-size="14.00">3</text>
</g>
<!-- 3&#45;&gt;25 -->
<g id="edge6" class="edge">
<title>3&#45;&gt;25</title>
<path fill="none" stroke="black" d="M1319.67,-268.49C1299.75,-213.95 1244.86,-67.29 1226,-54 1184.11,-24.48 829.4,-19.85 710.6,-19.13"/>
<polygon fill="black" stroke="black" points="710.75,-15.63 700.73,-19.08 710.71,-22.63 710.75,-15.63"/>
<text xml:space="preserve" text-anchor="middle" x="1282.4" y="-147.2" font-family="Times,serif" font-size="14.00">4</text>
</g>
<!-- 3&#45;&gt;26 -->
<g id="edge29" class="edge">
<title>3&#45;&gt;26</title>
<path fill="none" stroke="black" d="M1349.17,-286.17C1457.75,-273.51 1933.73,-218.04 2072.13,-201.91"/>
<polygon fill="black" stroke="black" points="2072.32,-205.41 2081.85,-200.78 2071.51,-198.46 2072.32,-205.41"/>
<text xml:space="preserve" text-anchor="middle" x="1793.13" y="-236.45" font-family="Times,serif" font-size="14.00">0</text>
</g>
<!-- 4&#45;&gt;4 -->
<g id="edge44" class="edge">
<title>4&#45;&gt;4</title>
<path fill="none" stroke="black" d="M1405.53,-2061.14C1416.51,-2061.92 1426,-2059.18 1426,-2052.9 1426,-2048.98 1422.29,-2046.44 1416.83,-2045.27"/>
<polygon fill="black" stroke="black" points="1417.22,-2041.79 1407.04,-2044.75 1416.84,-2048.78 1417.22,-2041.79"/>
<text xml:space="preserve" text-anchor="middle" x="1430.5" y="-2048.23" font-family="Times,serif" font-size="14.00">3</text>
</g>
<!-- 6 -->
<g id="node8" class="node">
<title>6</title>
<ellipse fill="none" stroke="black" cx="1549" cy="-1963.65" rx="27" ry="18"/>
<text xml:space="preserve" text-anchor="middle" x="1549" y="-1958.98" font-family="Times,serif" font-size="14.00">6</text>
</g>
<!-- 4&#45;&gt;6 -->
<g id="edge48" class="edge">
<title>4&#45;&gt;6</title>
<path fill="none" stroke="black" d="M1396.49,-2037.94C1409.88,-2026.44 1430.16,-2010.34 1450,-1999.65 1469.99,-1988.89 1493.97,-1980.31 1513.31,-1974.34"/>
<polygon fill="black" stroke="black" points="1514.07,-1977.77 1522.66,-1971.57 1512.07,-1971.06 1514.07,-1977.77"/>
<text xml:space="preserve" text-anchor="middle" x="1454.5" y="-2003.6" font-family="Times,serif" font-size="14.00">4</text>
</g>
<!-- 4&#45;&gt;6 -->
<g id="edge126" class="edge">
<title>4&#45;&gt;6</title>
<path fill="none" stroke="black" d="M1403.48,-2042.55C1419.22,-2035.83 1440.64,-2026.32 1459,-2016.9 1479.83,-2006.22 1502.63,-1992.96 1520.07,-1982.48"/>
<polygon fill="black" stroke="black" points="1521.63,-1985.63 1528.37,-1977.45 1518,-1979.64 1521.63,-1985.63"/>
<text xml:space="preserve" text-anchor="middle" x="1493.68" y="-2003.6" font-family="Times,serif" font-size="14.00">0</text>
</g>
<!-- 4&#45;&gt;18 -->
<g id="edge134" class="edge">
<title>4&#45;&gt;18</title>
<path fill="none" stroke="black" d="M1383.62,-2034.73C1397.49,-1944.68 1463.15,-1526.2 1505,-1402.15 1510.1,-1387.02 1517.87,-1371.02 1524.79,-1358.12"/>
<polygon fill="black" stroke="black" points="1527.82,-1359.87 1529.6,-1349.42 1521.7,-1356.48 1527.82,-1359.87"/>
<text xml:space="preserve" text-anchor="middle" x="1449" y="-1683.23" font-family="Times,serif" font-size="14.00">2</text>
</g>
<!-- 19 -->
<g id="node21" class="node">
<title>19</title>
<ellipse fill="none" stroke="black" cx="1099" cy="-1241.65" rx="27" ry="18"/>
<text xml:space="preserve" text-anchor="middle" x="1099" y="-1236.98" font-family="Times,serif" font-size="14.00">19</text>
</g>
<!-- 4&#45;&gt;19 -->
<g id="edge101" class="edge">
<title>4&#45;&gt;19</title>
<path fill="none" stroke="black" d="M1370.55,-2036.14C1352.28,-2008.1 1314.1,-1947.36 1289,-1892.4 1279.2,-1870.95 1158.26,-1513.48 1150,-1491.4 1117.02,-1403.24 1088.88,-1387.31 1071,-1294.9 1069.54,-1287.37 1068.46,-1284.89 1071,-1277.65 1072.42,-1273.59 1074.54,-1269.66 1076.98,-1265.98"/>
<polygon fill="black" stroke="black" points="1079.69,-1268.2 1083.02,-1258.14 1074.14,-1263.92 1079.69,-1268.2"/>
<text xml:space="preserve" text-anchor="middle" x="1209.3" y="-1638.6" font-family="Times,serif" font-size="14.00">1</text>
</g>
<!-- 5&#45;&gt;0 -->
<g id="edge104" class="edge">
<title>5&#45;&gt;0</title>
<path fill="none" stroke="black" d="M509.66,-1705.32C517.33,-1723.29 528,-1753.14 528,-1780.15 528,-1920.03 528,-1920.03 528,-1920.03 528,-2010.42 549.13,-2039.32 610,-2106.15 620.64,-2117.84 635.63,-2126.83 649.01,-2133.22"/>
<polygon fill="black" stroke="black" points="647.33,-2136.31 657.89,-2137.18 650.18,-2129.91 647.33,-2136.31"/>
<text xml:space="preserve" text-anchor="middle" x="532.55" y="-1914.35" font-family="Times,serif" font-size="14.00">3</text>
</g>
<!-- 5&#45;&gt;2 -->
<g id="edge68" class="edge">
<title>5&#45;&gt;2</title>
<path fill="none" stroke="black" d="M476.71,-1694.75C439.41,-1705.04 374,-1730.21 374,-1780.15 374,-2147.15 374,-2147.15 374,-2147.15 374,-2169.38 367.55,-2193.6 361.2,-2212.05"/>
<polygon fill="black" stroke="black" points="357.97,-2210.71 357.84,-2221.3 364.55,-2213.1 357.97,-2210.71"/>
<text xml:space="preserve" text-anchor="middle" x="378.5" y="-1958.98" font-family="Times,serif" font-size="14.00">2</text>
</g>
<!-- 11 -->
<g id="node13" class="node">
<title>11</title>
<ellipse fill="none" stroke="black" cx="914" cy="-973.9" rx="27" ry="18"/>
<text xml:space="preserve" text-anchor="middle" x="914" y="-969.23" font-family="Times,serif" font-size="14.00">11</text>
</g>
<!-- 5&#45;&gt;11 -->
<g id="edge111" class="edge">
<title>5&#45;&gt;11</title>
<path fill="none" stroke="black" d="M506.5,-1669.74C533.18,-1568.73 671.15,-1054.47 727,-1009.9 753.41,-988.82 845.52,-1001.24 878,-991.9 879.62,-991.44 881.26,-990.9 882.89,-990.33"/>
<polygon fill="black" stroke="black" points="884.18,-993.58 892.1,-986.54 881.52,-987.1 884.18,-993.58"/>
<text xml:space="preserve" text-anchor="middle" x="611.87" y="-1326.23" font-family="Times,serif" font-size="14.00">4</text>
</g>
<!-- 28 -->
<g id="node30" class="node">
<title>28</title>
<ellipse fill="none" stroke="black" cx="873" cy="-1598.65" rx="27" ry="18"/>
<text xml:space="preserve" text-anchor="middle" x="873" y="-1593.98" font-family="Times,serif" font-size="14.00">28</text>
</g>
<!-- 5&#45;&gt;28 -->
<g id="edge61" class="edge">
<title>5&#45;&gt;28</title>
<path fill="none" stroke="black" d="M527.21,-1680.97C591.45,-1665.86 761.53,-1625.87 836.56,-1608.22"/>
<polygon fill="black" stroke="black" points="837.35,-1611.63 846.28,-1605.93 835.75,-1604.82 837.35,-1611.63"/>
<text xml:space="preserve" text-anchor="middle" x="725.23" y="-1638.6" font-family="Times,serif" font-size="14.00">1</text>
</g>
<!-- 5&#45;&gt;29 -->
<g id="edge35" class="edge">
<title>5&#45;&gt;29</title>
<path fill="none" stroke="black" d="M487.52,-1703.28C472.13,-1720.15 450,-1749.7 450,-1780.15 450,-2009.28 450,-2009.28 450,-2009.28 450,-2305.64 965.2,-2340.98 1112.88,-2345.02"/>
<polygon fill="black" stroke="black" points="1112.45,-2348.52 1122.53,-2345.25 1112.62,-2341.52 1112.45,-2348.52"/>
<text xml:space="preserve" text-anchor="middle" x="454.59" y="-2003.6" font-family="Times,serif" font-size="14.00">0</text>
</g>
<!-- 7 -->
<g id="node9" class="node">
<title>7</title>
<ellipse fill="none" stroke="black" cx="1679" cy="-1874.4" rx="27" ry="18"/>
<text xml:space="preserve" text-anchor="middle" x="1679" y="-1869.73" font-family="Times,serif" font-size="14.00">7</text>
</g>
<!-- 6&#45;&gt;7 -->
<g id="edge86" class="edge">
<title>6&#45;&gt;7</title>
<path fill="none" stroke="black" d="M1567.63,-1950.15C1589.44,-1935.51 1625.8,-1911.1 1651.02,-1894.18"/>
<polygon fill="black" stroke="black" points="1652.8,-1897.2 1659.15,-1888.72 1648.9,-1891.39 1652.8,-1897.2"/>
<text xml:space="preserve" text-anchor="middle" x="1630.14" y="-1914.35" font-family="Times,serif" font-size="14.00">1</text>
</g>
<!-- 6&#45;&gt;15 -->
<g id="edge11" class="edge">
<title>6&#45;&gt;15</title>
<path fill="none" stroke="black" d="M1549.65,-1945.42C1552.05,-1888.12 1561.72,-1698.95 1590,-1545.4 1604.8,-1465.05 1648.65,-1447.29 1634,-1366.9 1630.4,-1347.13 1517.47,-1057.23 1511,-1045.15 1478.99,-985.43 1473.47,-965.87 1423,-920.65 1409.67,-908.71 1392.62,-898.68 1377.6,-891.14"/>
<polygon fill="black" stroke="black" points="1379.5,-888.17 1368.97,-886.99 1376.47,-894.48 1379.5,-888.17"/>
<text xml:space="preserve" text-anchor="middle" x="1641.36" y="-1415.48" font-family="Times,serif" font-size="14.00">2</text>
</g>
<!-- 6&#45;&gt;19 -->
<g id="edge84" class="edge">
<title>6&#45;&gt;19</title>
<path fill="none" stroke="black" d="M1539.49,-1946.31C1509.38,-1894.82 1416.88,-1738.54 1395,-1723.9 1358.2,-1699.27 1330.51,-1734.85 1297,-1705.9 1201.88,-1623.75 1245.77,-1557.38 1206,-1438.15 1187.46,-1382.59 1194.88,-1363.28 1165,-1312.9 1154.04,-1294.43 1137.48,-1276.82 1123.69,-1263.85"/>
<polygon fill="black" stroke="black" points="1126.4,-1261.58 1116.65,-1257.43 1121.68,-1266.76 1126.4,-1261.58"/>
<text xml:space="preserve" text-anchor="middle" x="1241.34" y="-1593.98" font-family="Times,serif" font-size="14.00">3</text>
</g>
<!-- 6&#45;&gt;26 -->
<g id="edge15" class="edge">
<title>6&#45;&gt;26</title>
<path fill="none" stroke="black" d="M1576.09,-1961.69C1694.53,-1957.13 2161,-1935.37 2161,-1875.4 2161,-1875.4 2161,-1875.4 2161,-1196.03 2161,-1028.68 2198,-988.67 2198,-821.33 2198,-821.33 2198,-821.33 2198,-685.45 2198,-623.06 2186,-607.97 2186,-545.58 2186,-545.58 2186,-545.58 2186,-288.75 2186,-258.04 2160.27,-232.17 2138.75,-215.91"/>
<polygon fill="black" stroke="black" points="2140.97,-213.2 2130.8,-210.22 2136.9,-218.89 2140.97,-213.2"/>
<text xml:space="preserve" text-anchor="middle" x="2170.22" y="-1103.1" font-family="Times,serif" font-size="14.00">4</text>
</g>
<!-- 6&#45;&gt;26 -->
<g id="edge99" class="edge">
<title>6&#45;&gt;26</title>
<path fill="none" stroke="black" d="M1576.11,-1961.8C1668.89,-1958.73 1973.29,-1947.36 2069,-1927.65 2129.99,-1915.09 2199,-1937.67 2199,-1875.4 2199,-1875.4 2199,-1875.4 2199,-1151.4 2199,-1040.74 2205.39,-1013.22 2210,-902.65 2216.62,-743.97 2224,-704.4 2224,-545.58 2224,-545.58 2224,-545.58 2224,-288.75 2224,-247.69 2178.37,-222.06 2144.84,-208.77"/>
<polygon fill="black" stroke="black" points="2146.47,-205.64 2135.87,-205.42 2144.01,-212.2 2146.47,-205.64"/>
<text xml:space="preserve" text-anchor="middle" x="2204.06" y="-1103.1" font-family="Times,serif" font-size="14.00">0</text>
</g>
<!-- 7&#45;&gt;1 -->
<g id="edge9" class="edge">
<title>7&#45;&gt;1</title>
<path fill="none" stroke="black" d="M1679,-1856.24C1679,-1844.54 1679,-1828.69 1679,-1814.65"/>
<polygon fill="black" stroke="black" points="1682.5,-1814.93 1679,-1804.93 1675.5,-1814.93 1682.5,-1814.93"/>
<text xml:space="preserve" text-anchor="middle" x="1683.5" y="-1825.1" font-family="Times,serif" font-size="14.00">1</text>
</g>
<!-- 7&#45;&gt;19 -->
<g id="edge32" class="edge">
<title>7&#45;&gt;19</title>
<path fill="none" stroke="black" d="M1658.27,-1862.64C1615.04,-1839.31 1514.2,-1780.14 1453,-1705.9 1395.84,-1636.56 1395.26,-1609.18 1358,-1527.4 1333.28,-1473.15 1340.59,-1453.32 1310,-1402.15 1283.11,-1357.19 1269.85,-1350.14 1233,-1312.9 1216.33,-1296.06 1213.33,-1289.82 1193,-1277.65 1174.93,-1266.84 1152.97,-1258.43 1134.81,-1252.57"/>
<polygon fill="black" stroke="black" points="1136.1,-1249.31 1125.51,-1249.7 1134.04,-1255.99 1136.1,-1249.31"/>
<text xml:space="preserve" text-anchor="middle" x="1377.83" y="-1549.35" font-family="Times,serif" font-size="14.00">4</text>
</g>
<!-- 7&#45;&gt;19 -->
<g id="edge67" class="edge">
<title>7&#45;&gt;19</title>
<path fill="none" stroke="black" d="M1655.69,-1865.12C1636.58,-1858.23 1608.9,-1848.04 1585,-1838.4 1548.59,-1823.71 1536.7,-1824.88 1504,-1803.15 1461.52,-1774.93 1466.24,-1747.45 1421,-1723.9 1384.81,-1705.07 1361.32,-1733.19 1331,-1705.9 1256.76,-1639.09 1296.91,-1585.7 1264,-1491.4 1235.97,-1411.1 1246.74,-1380.41 1195,-1312.9 1177.59,-1290.19 1150.89,-1271.48 1130.07,-1259.09"/>
<polygon fill="black" stroke="black" points="1131.82,-1256.06 1121.41,-1254.12 1128.34,-1262.13 1131.82,-1256.06"/>
<text xml:space="preserve" text-anchor="middle" x="1283.06" y="-1549.35" font-family="Times,serif" font-size="14.00">0</text>
</g>
<!-- 7&#45;&gt;21 -->
<g id="edge50" class="edge">
<title>7&#45;&gt;21</title>
<path fill="none" stroke="black" d="M1705.63,-1870.6C1742.25,-1866.14 1805.2,-1856.08 1819,-1838.4 1889.39,-1748.25 1837.85,-1598.09 1812.21,-1537.24"/>
<polygon fill="black" stroke="black" points="1815.54,-1536.13 1808.36,-1528.34 1809.12,-1538.91 1815.54,-1536.13"/>
<text xml:space="preserve" text-anchor="middle" x="1858.61" y="-1683.23" font-family="Times,serif" font-size="14.00">3</text>
</g>
<!-- 22 -->
<g id="node24" class="node">
<title>22</title>
<ellipse fill="none" stroke="black" cx="1623" cy="-775.7" rx="27" ry="18"/>
<text xml:space="preserve" text-anchor="middle" x="1623" y="-771.03" font-family="Times,serif" font-size="14.00">22</text>
</g>
<!-- 7&#45;&gt;22 -->
<g id="edge3" class="edge">
<title>7&#45;&gt;22</title>
<path fill="none" stroke="black" d="M1705.73,-1870.74C1738.31,-1866.78 1794.5,-1857.65 1839,-1838.4 1879.56,-1820.85 1921,-1826.35 1921,-1782.15 1921,-1782.15 1921,-1782.15 1921,-1463.78 1921,-1406.9 1884.78,-1005.53 1857,-955.9 1810.56,-872.95 1708.28,-816.02 1655.67,-791.03"/>
<polygon fill="black" stroke="black" points="1657.15,-787.86 1646.61,-786.82 1654.21,-794.21 1657.15,-787.86"/>
<text xml:space="preserve" text-anchor="middle" x="1917.77" y="-1326.23" font-family="Times,serif" font-size="14.00">2</text>
</g>
<!-- 8&#45;&gt;7 -->
<g id="edge137" class="edge">
<title>8&#45;&gt;7</title>
<path fill="none" stroke="black" d="M1016.96,-604.6C1004.45,-611.85 988.05,-622.16 975,-633.2 888.78,-706.11 702.05,-919.8 634,-1009.9 622.87,-1024.64 619.72,-1028.37 612,-1045.15 515.9,-1254.14 473.31,-1385.46 620,-1562.65 692.52,-1650.25 724.64,-1668.43 832,-1705.9 929.64,-1739.98 965.66,-1691.88 1064,-1723.9 1077.9,-1728.43 1078.15,-1736.49 1092,-1741.15 1169.87,-1767.38 1196.85,-1737.09 1276,-1759.15 1319.66,-1771.32 1325.75,-1786.74 1368,-1803.15 1462.81,-1839.98 1581.74,-1860.13 1641.32,-1868.57"/>
<polygon fill="black" stroke="black" points="1640.54,-1872 1650.92,-1869.9 1641.5,-1865.07 1640.54,-1872"/>
<text xml:space="preserve" text-anchor="middle" x="545.74" y="-1236.98" font-family="Times,serif" font-size="14.00">0</text>
</g>
<!-- 8&#45;&gt;9 -->
<g id="edge78" class="edge">
<title>8&#45;&gt;9</title>
<path fill="none" stroke="black" d="M1015.13,-585.39C982.48,-574.76 917.35,-553.6 862,-535.95 830.68,-525.96 794.85,-514.71 769.78,-506.87"/>
<polygon fill="black" stroke="black" points="771.11,-503.62 760.52,-503.98 769.02,-510.3 771.11,-503.62"/>
<text xml:space="preserve" text-anchor="middle" x="919.15" y="-539.9" font-family="Times,serif" font-size="14.00">2</text>
</g>
<!-- 14 -->
<g id="node16" class="node">
<title>14</title>
<ellipse fill="none" stroke="black" cx="979" cy="-107.25" rx="27" ry="18"/>
<text xml:space="preserve" text-anchor="middle" x="979" y="-102.58" font-family="Times,serif" font-size="14.00">14</text>
</g>
<!-- 8&#45;&gt;14 -->
<g id="edge88" class="edge">
<title>8&#45;&gt;14</title>
<path fill="none" stroke="black" d="M1042.43,-571.99C1047.94,-552.87 1055,-523.26 1055,-496.95 1055,-496.95 1055,-496.95 1055,-195.5 1055,-165.89 1029.8,-141.44 1008.42,-126.04"/>
<polygon fill="black" stroke="black" points="1010.46,-123.19 1000.22,-120.46 1006.52,-128.98 1010.46,-123.19"/>
<text xml:space="preserve" text-anchor="middle" x="1059.5" y="-333.7" font-family="Times,serif" font-size="14.00">4</text>
</g>
<!-- 8&#45;&gt;14 -->
<g id="edge95" class="edge">
<title>8&#45;&gt;14</title>
<path fill="none" stroke="black" d="M1020.12,-577.34C1003.26,-559.86 979,-529.13 979,-496.95 979,-496.95 979,-496.95 979,-195.5 979,-176 979,-154.04 979,-137.04"/>
<polygon fill="black" stroke="black" points="982.5,-137.15 979,-127.15 975.5,-137.15 982.5,-137.15"/>
<text xml:space="preserve" text-anchor="middle" x="983.5" y="-333.7" font-family="Times,serif" font-size="14.00">3</text>
</g>
<!-- 8&#45;&gt;18 -->
<g id="edge89" class="edge">
<title>8&#45;&gt;18</title>
<path fill="none" stroke="black" d="M1051.33,-609.14C1066.98,-626.05 1089,-655.22 1089,-685.45 1089,-875.8 1089,-875.8 1089,-875.8 1089,-905.2 1180.76,-1093.35 1199,-1116.4 1247.2,-1177.31 1278.27,-1172.81 1337,-1223.65 1371.52,-1253.53 1371.28,-1272.39 1411,-1294.9 1413.09,-1296.09 1466.61,-1310.43 1504.05,-1320.38"/>
<polygon fill="black" stroke="black" points="1503.05,-1323.73 1513.61,-1322.92 1504.85,-1316.97 1503.05,-1323.73"/>
<text xml:space="preserve" text-anchor="middle" x="1138.07" y="-969.23" font-family="Times,serif" font-size="14.00">1</text>
</g>
<!-- 9&#45;&gt;5 -->
<g id="edge21" class="edge">
<title>9&#45;&gt;5</title>
<path fill="none" stroke="black" d="M734.18,-518.09C726.19,-560.69 706.18,-659.61 679,-739.7 636.4,-865.21 438,-1152.74 438,-1285.28 438,-1599.65 438,-1599.65 438,-1599.65 438,-1626.61 458.11,-1650.76 475.79,-1666.78"/>
<polygon fill="black" stroke="black" points="473.15,-1669.14 483.02,-1672.99 477.71,-1663.82 473.15,-1669.14"/>
<text xml:space="preserve" text-anchor="middle" x="501.46" y="-1103.1" font-family="Times,serif" font-size="14.00">1</text>
</g>
<!-- 9&#45;&gt;10 -->
<g id="edge31" class="edge">
<title>9&#45;&gt;10</title>
<path fill="none" stroke="black" d="M747.17,-516.17C755.33,-535.07 766,-564.97 766,-592.2 766,-974.9 766,-974.9 766,-974.9 766,-1097.66 952.78,-1136.3 1034.96,-1147.36"/>
<polygon fill="black" stroke="black" points="1034.43,-1150.82 1044.79,-1148.6 1035.31,-1143.87 1034.43,-1150.82"/>
<text xml:space="preserve" text-anchor="middle" x="770.5" y="-815.65" font-family="Times,serif" font-size="14.00">3</text>
</g>
<!-- 9&#45;&gt;20 -->
<g id="edge87" class="edge">
<title>9&#45;&gt;20</title>
<path fill="none" stroke="black" d="M759.74,-491.41C850.75,-476.6 1201.9,-419.43 1319.99,-400.2"/>
<polygon fill="black" stroke="black" points="1320.52,-403.66 1329.82,-398.6 1319.39,-396.75 1320.52,-403.66"/>
<text xml:space="preserve" text-anchor="middle" x="1071.62" y="-442.65" font-family="Times,serif" font-size="14.00">4</text>
</g>
<!-- 9&#45;&gt;25 -->
<g id="edge138" class="edge">
<title>9&#45;&gt;25</title>
<path fill="none" stroke="black" d="M721.35,-481.08C701.79,-463.15 672,-429.9 672,-393.85 672,-393.85 672,-393.85 672,-106.25 672,-86.75 672,-64.79 672,-47.79"/>
<polygon fill="black" stroke="black" points="675.5,-47.9 672,-37.9 668.5,-47.9 675.5,-47.9"/>
<text xml:space="preserve" text-anchor="middle" x="676.5" y="-236.45" font-family="Times,serif" font-size="14.00">0</text>
</g>
<!-- 9&#45;&gt;29 -->
<g id="edge133" class="edge">
<title>9&#45;&gt;29</title>
<path fill="none" stroke="black" d="M722.59,-511.82C681.54,-551.47 566.29,-663.14 472,-757.7 432.88,-796.93 416.72,-801.54 385,-846.95 229.05,-1070.17 166,-1146.85 166,-1419.15 166,-2244.4 166,-2244.4 166,-2244.4 166,-2341.27 928.89,-2345.95 1112.57,-2345.67"/>
<polygon fill="black" stroke="black" points="1112.31,-2349.17 1122.3,-2345.65 1112.3,-2342.17 1112.31,-2349.17"/>
<text xml:space="preserve" text-anchor="middle" x="170.5" y="-1415.48" font-family="Times,serif" font-size="14.00">2</text>
</g>
<!-- 10&#45;&gt;17 -->
<g id="edge143" class="edge">
<title>10&#45;&gt;17</title>
<path fill="none" stroke="black" d="M1094.91,-1141.39C1128.5,-1126.05 1192.9,-1096.63 1231.8,-1078.86"/>
<polygon fill="black" stroke="black" points="1233.03,-1082.14 1240.68,-1074.81 1230.13,-1075.78 1233.03,-1082.14"/>
<text xml:space="preserve" text-anchor="middle" x="1190.11" y="-1103.1" font-family="Times,serif" font-size="14.00">3</text>
</g>
<!-- 10&#45;&gt;19 -->
<g id="edge102" class="edge">
<title>10&#45;&gt;19</title>
<path fill="none" stroke="black" d="M1078.09,-1170.47C1081.68,-1182.52 1086.57,-1198.94 1090.72,-1212.87"/>
<polygon fill="black" stroke="black" points="1087.34,-1213.79 1093.55,-1222.38 1094.05,-1211.79 1087.34,-1213.79"/>
<text xml:space="preserve" text-anchor="middle" x="1092.83" y="-1192.35" font-family="Times,serif" font-size="14.00">4</text>
</g>
<!-- 10&#45;&gt;20 -->
<g id="edge91" class="edge">
<title>10&#45;&gt;20</title>
<path fill="none" stroke="black" d="M1079.37,-1134.52C1115.45,-1038.96 1294.2,-565.5 1345.32,-430.08"/>
<polygon fill="black" stroke="black" points="1348.53,-431.49 1348.79,-420.9 1341.98,-429.02 1348.53,-431.49"/>
<text xml:space="preserve" text-anchor="middle" x="1225.7" y="-771.03" font-family="Times,serif" font-size="14.00">0</text>
</g>
<!-- 10&#45;&gt;24 -->
<g id="edge49" class="edge">
<title>10&#45;&gt;24</title>
<path fill="none" stroke="black" d="M1090.61,-1166.05C1122,-1188.05 1190.29,-1233.5 1254,-1259.65 1284.11,-1272.01 1293.87,-1268.13 1325,-1277.65 1325.35,-1277.76 1422.67,-1312.75 1423,-1312.9 1467.52,-1333.26 1486.41,-1330.37 1519,-1366.9 1525.2,-1373.85 1529.82,-1382.79 1533.18,-1391.31"/>
<polygon fill="black" stroke="black" points="1529.83,-1392.32 1536.41,-1400.63 1536.44,-1390.03 1529.83,-1392.32"/>
<text xml:space="preserve" text-anchor="middle" x="1377.38" y="-1281.6" font-family="Times,serif" font-size="14.00">1</text>
</g>
<!-- 10&#45;&gt;28 -->
<g id="edge119" class="edge">
<title>10&#45;&gt;28</title>
<path fill="none" stroke="black" d="M1050.38,-1162.71C1044.12,-1165.25 1037.31,-1167.97 1031,-1170.4 1009.36,-1178.75 998.19,-1171.78 982,-1188.4 947.13,-1224.19 964.79,-1248.61 946,-1294.9 931.25,-1331.23 908,-1335.31 908,-1374.53 908,-1510.4 908,-1510.4 908,-1510.4 908,-1532.3 898.39,-1555.2 889.24,-1572.05"/>
<polygon fill="black" stroke="black" points="886.4,-1569.97 884.45,-1580.38 892.47,-1573.46 886.4,-1569.97"/>
<text xml:space="preserve" text-anchor="middle" x="912.5" y="-1370.85" font-family="Times,serif" font-size="14.00">2</text>
</g>
<!-- 11&#45;&gt;0 -->
<g id="edge36" class="edge">
<title>11&#45;&gt;0</title>
<path fill="none" stroke="black" d="M892.34,-985.25C887.63,-987.47 882.65,-989.78 878,-991.9 859.89,-1000.15 853.33,-998.52 837,-1009.9 819.14,-1022.35 813.92,-1026.32 803,-1045.15 686.51,-1246.07 680,-1320.78 680,-1553.03 680,-2053.9 680,-2053.9 680,-2053.9 680,-2073.34 680,-2095.1 680,-2112.5"/>
<polygon fill="black" stroke="black" points="676.5,-2112.25 680,-2122.25 683.5,-2112.25 676.5,-2112.25"/>
<text xml:space="preserve" text-anchor="middle" x="684.5" y="-1549.35" font-family="Times,serif" font-size="14.00">0</text>
</g>
<!-- 11&#45;&gt;7 -->
<g id="edge147" class="edge">
<title>11&#45;&gt;7</title>
<path fill="none" stroke="black" d="M895.07,-986.85C885.24,-993.31 873.18,-1001.65 863,-1009.9 845.36,-1024.21 838.58,-1026.24 826,-1045.15 802.5,-1080.5 804.19,-1093.74 792,-1134.4 730.17,-1340.6 670.15,-1480.63 837,-1616.65 954.76,-1712.66 1018.39,-1674.27 1167,-1705.9 1217.6,-1716.67 1232.45,-1709.03 1282,-1723.9 1399.44,-1759.15 1417.07,-1798.48 1533,-1838.4 1569.23,-1850.88 1611.98,-1860.56 1641.83,-1866.55"/>
<polygon fill="black" stroke="black" points="1641.02,-1869.96 1651.5,-1868.45 1642.36,-1863.09 1641.02,-1869.96"/>
<text xml:space="preserve" text-anchor="middle" x="734.56" y="-1415.48" font-family="Times,serif" font-size="14.00">2</text>
</g>
<!-- 11&#45;&gt;8 -->
<g id="edge45" class="edge">
<title>11&#45;&gt;8</title>
<path fill="none" stroke="black" d="M928.47,-958.18C944.47,-940.27 968,-908.4 968,-875.8 968,-875.8 968,-875.8 968,-685.45 968,-656.46 990.35,-630.72 1009.42,-614.03"/>
<polygon fill="black" stroke="black" points="1011.5,-616.85 1016.97,-607.77 1007.04,-611.46 1011.5,-616.85"/>
<text xml:space="preserve" text-anchor="middle" x="972.5" y="-771.03" font-family="Times,serif" font-size="14.00">4</text>
</g>
<!-- 11&#45;&gt;15 -->
<g id="edge51" class="edge">
<title>11&#45;&gt;15</title>
<path fill="none" stroke="black" d="M938.77,-966.01C976.75,-955.55 1051.73,-935.33 1116,-920.65 1181.33,-905.73 1257.94,-891.13 1303.09,-882.82"/>
<polygon fill="black" stroke="black" points="1303.71,-886.27 1312.92,-881.02 1302.45,-879.38 1303.71,-886.27"/>
<text xml:space="preserve" text-anchor="middle" x="1120.5" y="-924.6" font-family="Times,serif" font-size="14.00">1</text>
</g>
<!-- 11&#45;&gt;28 -->
<g id="edge72" class="edge">
<title>11&#45;&gt;28</title>
<path fill="none" stroke="black" d="M907.97,-991.78C889.03,-1046.37 832,-1223.32 832,-1374.53 832,-1510.4 832,-1510.4 832,-1510.4 832,-1533.21 843.62,-1556.45 854.48,-1573.21"/>
<polygon fill="black" stroke="black" points="851.3,-1574.76 859.84,-1581.03 857.07,-1570.8 851.3,-1574.76"/>
<text xml:space="preserve" text-anchor="middle" x="843.06" y="-1281.6" font-family="Times,serif" font-size="14.00">3</text>
</g>
<!-- 12 -->
<g id="node14" class="node">
<title>12</title>
<ellipse fill="none" stroke="black" cx="1342" cy="-686.45" rx="27" ry="18"/>
<text xml:space="preserve" text-anchor="middle" x="1342" y="-681.78" font-family="Times,serif" font-size="14.00">12</text>
</g>
<!-- 12&#45;&gt;8 -->
<g id="edge79" class="edge">
<title>12&#45;&gt;8</title>
<path fill="none" stroke="black" d="M1317.48,-678.14C1262.45,-661.73 1129.18,-621.99 1067.85,-603.7"/>
<polygon fill="black" stroke="black" points="1068.97,-600.38 1058.38,-600.88 1066.97,-607.09 1068.97,-600.38"/>
<text xml:space="preserve" text-anchor="middle" x="1220.91" y="-637.15" font-family="Times,serif" font-size="14.00">2</text>
</g>
<!-- 12&#45;&gt;15 -->
<g id="edge40" class="edge">
<title>12&#45;&gt;15</title>
<path fill="none" stroke="black" d="M1342,-704.81C1342,-734.39 1342,-795.22 1342,-835.26"/>
<polygon fill="black" stroke="black" points="1338.5,-835.19 1342,-845.19 1345.5,-835.19 1338.5,-835.19"/>
<text xml:space="preserve" text-anchor="middle" x="1346.5" y="-771.03" font-family="Times,serif" font-size="14.00">1</text>
</g>
<!-- 12&#45;&gt;20 -->
<g id="edge46" class="edge">
<title>12&#45;&gt;20</title>
<path fill="none" stroke="black" d="M1342.29,-668.4C1342.82,-640.63 1344.17,-583.91 1347,-535.95 1349.07,-500.76 1352.55,-460.76 1355.23,-432.18"/>
<polygon fill="black" stroke="black" points="1358.68,-432.86 1356.15,-422.57 1351.71,-432.19 1358.68,-432.86"/>
<text xml:space="preserve" text-anchor="middle" x="1351.5" y="-539.9" font-family="Times,serif" font-size="14.00">3</text>
</g>
<!-- 12&#45;&gt;20 -->
<g id="edge77" class="edge">
<title>12&#45;&gt;20</title>
<path fill="none" stroke="black" d="M1350.41,-669.12C1352.99,-663.37 1355.53,-656.76 1357,-650.45 1378.36,-558.74 1369.22,-532.72 1364,-438.7 1363.88,-436.53 1363.73,-434.3 1363.55,-432.06"/>
<polygon fill="black" stroke="black" points="1367.06,-431.98 1362.64,-422.35 1360.09,-432.64 1367.06,-431.98"/>
<text xml:space="preserve" text-anchor="middle" x="1374.98" y="-539.9" font-family="Times,serif" font-size="14.00">0</text>
</g>
<!-- 12&#45;&gt;23 -->
<g id="edge8" class="edge">
<title>12&#45;&gt;23</title>
<path fill="none" stroke="black" d="M1315.06,-683.22C1167,-670.95 452.76,-611.75 279.11,-597.36"/>
<polygon fill="black" stroke="black" points="279.55,-593.88 269.29,-596.55 278.97,-600.86 279.55,-593.88"/>
<text xml:space="preserve" text-anchor="middle" x="894.61" y="-637.15" font-family="Times,serif" font-size="14.00">4</text>
</g>
<!-- 13 -->
<g id="node15" class="node">
<title>13</title>
<ellipse fill="none" stroke="black" cx="1818" cy="-107.25" rx="27" ry="18"/>
<text xml:space="preserve" text-anchor="middle" x="1818" y="-102.58" font-family="Times,serif" font-size="14.00">13</text>
</g>
<!-- 13&#45;&gt;8 -->
<g id="edge103" class="edge">
<title>13&#45;&gt;8</title>
<path fill="none" stroke="black" d="M1791.31,-110.43C1767.35,-113.74 1732.7,-122.12 1711,-143.25 1674.99,-178.31 1704.61,-210.68 1673,-249.75 1504.17,-458.4 1173.15,-557.37 1068.51,-584.35"/>
<polygon fill="black" stroke="black" points="1067.75,-580.93 1058.91,-586.78 1069.47,-587.72 1067.75,-580.93"/>
<text xml:space="preserve" text-anchor="middle" x="1596.53" y="-333.7" font-family="Times,serif" font-size="14.00">4</text>
</g>
<!-- 13&#45;&gt;13 -->
<g id="edge97" class="edge">
<title>13&#45;&gt;13</title>
<path fill="none" stroke="black" d="M1842.53,-115.49C1853.51,-116.27 1863,-113.53 1863,-107.25 1863,-103.33 1859.29,-100.78 1853.83,-99.62"/>
<polygon fill="black" stroke="black" points="1854.22,-96.14 1844.04,-99.09 1853.84,-103.13 1854.22,-96.14"/>
<text xml:space="preserve" text-anchor="middle" x="1867.5" y="-102.58" font-family="Times,serif" font-size="14.00">1</text>
</g>
<!-- 13&#45;&gt;15 -->
<g id="edge129" class="edge">
<title>13&#45;&gt;15</title>
<path fill="none" stroke="black" d="M1795.49,-117.51C1767.96,-130.51 1725,-156.98 1725,-195.5 1725,-448.33 1725,-448.33 1725,-448.33 1725,-548.32 1570.78,-777.56 1485,-828.95 1452.44,-848.46 1410.56,-860.3 1380.55,-866.87"/>
<polygon fill="black" stroke="black" points="1380.23,-863.36 1371.16,-868.83 1381.66,-870.22 1380.23,-863.36"/>
<text xml:space="preserve" text-anchor="middle" x="1726.73" y="-491.28" font-family="Times,serif" font-size="14.00">0</text>
</g>
<!-- 16 -->
<g id="node18" class="node">
<title>16</title>
<ellipse fill="none" stroke="black" cx="1900" cy="-18" rx="27" ry="18"/>
<text xml:space="preserve" text-anchor="middle" x="1900" y="-13.32" font-family="Times,serif" font-size="14.00">16</text>
</g>
<!-- 13&#45;&gt;16 -->
<g id="edge124" class="edge">
<title>13&#45;&gt;16</title>
<path fill="none" stroke="black" d="M1831.91,-91.45C1844.63,-77.91 1863.65,-57.67 1878.36,-42.02"/>
<polygon fill="black" stroke="black" points="1880.69,-44.66 1884.99,-34.98 1875.59,-39.87 1880.69,-44.66"/>
<text xml:space="preserve" text-anchor="middle" x="1870.84" y="-57.95" font-family="Times,serif" font-size="14.00">2</text>
</g>
<!-- 13&#45;&gt;20 -->
<g id="edge73" class="edge">
<title>13&#45;&gt;20</title>
<path fill="none" stroke="black" d="M1790.57,-107.53C1748.49,-107.55 1666.51,-112.05 1606,-143.25 1504.23,-195.73 1418.6,-305.41 1380.38,-359.82"/>
<polygon fill="black" stroke="black" points="1377.7,-357.54 1374.88,-367.75 1383.46,-361.53 1377.7,-357.54"/>
<text xml:space="preserve" text-anchor="middle" x="1490.9" y="-236.45" font-family="Times,serif" font-size="14.00">3</text>
</g>
<!-- 14&#45;&gt;5 -->
<g id="edge16" class="edge">
<title>14&#45;&gt;5</title>
<path fill="none" stroke="black" d="M952.07,-110.56C889.71,-117.35 734.26,-142.86 650,-232.5 574.25,-313.09 400,-1085.42 400,-1196.03 400,-1599.65 400,-1599.65 400,-1599.65 400,-1636.18 438.24,-1660.69 467.89,-1674.2"/>
<polygon fill="black" stroke="black" points="466.38,-1677.36 476.95,-1678.08 469.14,-1670.92 466.38,-1677.36"/>
<text xml:space="preserve" text-anchor="middle" x="451.03" y="-924.6" font-family="Times,serif" font-size="14.00">1</text>
</g>
<!-- 14&#45;&gt;8 -->
<g id="edge5" class="edge">
<title>14&#45;&gt;8</title>
<path fill="none" stroke="black" d="M990.4,-123.77C1001.59,-140.56 1017,-168.57 1017,-195.5 1017,-496.95 1017,-496.95 1017,-496.95 1017,-518.63 1021.79,-542.56 1026.56,-561.01"/>
<polygon fill="black" stroke="black" points="1023.15,-561.81 1029.17,-570.53 1029.91,-559.97 1023.15,-561.81"/>
<text xml:space="preserve" text-anchor="middle" x="1021.5" y="-333.7" font-family="Times,serif" font-size="14.00">0</text>
</g>
<!-- 14&#45;&gt;15 -->
<g id="edge108" class="edge">
<title>14&#45;&gt;15</title>
<path fill="none" stroke="black" d="M968.7,-124.18C946.27,-160.46 895,-252.64 895,-337.38 895,-594.2 895,-594.2 895,-594.2 895,-619.96 890.01,-633.05 909,-650.45 946.82,-685.1 975.38,-649.38 1023,-668.45 1113.81,-704.82 1121.41,-741.27 1204,-793.7 1238.79,-815.78 1279.73,-839.24 1307.94,-855.03"/>
<polygon fill="black" stroke="black" points="1305.96,-857.93 1316.4,-859.74 1309.37,-851.82 1305.96,-857.93"/>
<text xml:space="preserve" text-anchor="middle" x="899.5" y="-491.28" font-family="Times,serif" font-size="14.00">4</text>
</g>
<!-- 14&#45;&gt;16 -->
<g id="edge112" class="edge">
<title>14&#45;&gt;16</title>
<path fill="none" stroke="black" d="M1005.08,-101.89C1065.64,-91.92 1220.59,-67.3 1351,-54 1541.99,-34.53 1771.53,-24.06 1861.33,-20.46"/>
<polygon fill="black" stroke="black" points="1861.44,-23.95 1871.29,-20.06 1861.16,-16.96 1861.44,-23.95"/>
<text xml:space="preserve" text-anchor="middle" x="1355.5" y="-57.95" font-family="Times,serif" font-size="14.00">3</text>
</g>
<!-- 14&#45;&gt;25 -->
<g id="edge63" class="edge">
<title>14&#45;&gt;25</title>
<path fill="none" stroke="black" d="M956.21,-97.22C927.39,-86.03 876.07,-66.86 831,-54 789.85,-42.25 741.76,-32.16 709.33,-25.87"/>
<polygon fill="black" stroke="black" points="710.1,-22.46 699.62,-24.02 708.78,-29.33 710.1,-22.46"/>
<text xml:space="preserve" text-anchor="middle" x="888.96" y="-57.95" font-family="Times,serif" font-size="14.00">2</text>
</g>
<!-- 15&#45;&gt;5 -->
<g id="edge34" class="edge">
<title>15&#45;&gt;5</title>
<path fill="none" stroke="black" d="M1314.29,-880.27C1254.55,-891.33 1112.63,-925.44 1033,-1009.9 974.76,-1071.67 981.26,-1105.08 965,-1188.4 928.24,-1376.8 1075.44,-1521.03 909,-1616.65 846.21,-1652.72 629.17,-1675.6 540.35,-1683.65"/>
<polygon fill="black" stroke="black" points="540.1,-1680.16 530.45,-1684.54 540.72,-1687.14 540.1,-1680.16"/>
<text xml:space="preserve" text-anchor="middle" x="965.4" y="-1281.6" font-family="Times,serif" font-size="14.00">2</text>
</g>
<!-- 15&#45;&gt;9 -->
<g id="edge105" class="edge">
<title>15&#45;&gt;9</title>
<path fill="none" stroke="black" d="M1314.11,-871.02C1234.27,-862.62 1006.65,-835.49 946,-793.7 833.8,-716.39 867.5,-640.4 780,-535.95 774.85,-529.8 768.78,-523.66 762.87,-518.12"/>
<polygon fill="black" stroke="black" points="765.36,-515.65 755.6,-511.54 760.66,-520.85 765.36,-515.65"/>
<text xml:space="preserve" text-anchor="middle" x="870.86" y="-681.78" font-family="Times,serif" font-size="14.00">3</text>
</g>
<!-- 15&#45;&gt;17 -->
<g id="edge30" class="edge">
<title>15&#45;&gt;17</title>
<path fill="none" stroke="black" d="M1319.84,-892.01C1310.13,-899.88 1299.13,-909.95 1291,-920.65 1266.03,-953.53 1262.04,-1002.85 1262.35,-1033.73"/>
<polygon fill="black" stroke="black" points="1258.84,-1033.56 1262.62,-1043.46 1265.84,-1033.37 1258.84,-1033.56"/>
<text xml:space="preserve" text-anchor="middle" x="1277.14" y="-969.23" font-family="Times,serif" font-size="14.00">4</text>
</g>
<!-- 15&#45;&gt;17 -->
<g id="edge66" class="edge">
<title>15&#45;&gt;17</title>
<path fill="none" stroke="black" d="M1331.47,-900.97C1316.82,-935.96 1290.41,-999.05 1275.35,-1035.05"/>
<polygon fill="black" stroke="black" points="1272.28,-1033.31 1271.64,-1043.89 1278.73,-1036.02 1272.28,-1033.31"/>
<text xml:space="preserve" text-anchor="middle" x="1312.69" y="-969.23" font-family="Times,serif" font-size="14.00">0</text>
</g>
<!-- 15&#45;&gt;22 -->
<g id="edge98" class="edge">
<title>15&#45;&gt;22</title>
<path fill="none" stroke="black" d="M1367.62,-862.95C1398.82,-849.92 1453.27,-827.83 1501,-811.7 1529.65,-802.02 1562.65,-792.66 1587.1,-786.06"/>
<polygon fill="black" stroke="black" points="1587.8,-789.49 1596.56,-783.53 1586,-782.73 1587.8,-789.49"/>
<text xml:space="preserve" text-anchor="middle" x="1505.5" y="-815.65" font-family="Times,serif" font-size="14.00">1</text>
</g>
<!-- 16&#45;&gt;4 -->
<g id="edge83" class="edge">
<title>16&#45;&gt;4</title>
<path fill="none" stroke="black" d="M1927.28,-19.2C2007.73,-20.11 2242.74,-25.25 2313,-54 2346.67,-67.78 2376,-69.87 2376,-106.25 2376,-642.83 2376,-642.83 2376,-642.83 2376,-896.34 2237,-942.52 2237,-1196.03 2237,-1964.65 2237,-1964.65 2237,-1964.65 2237,-2048.03 1585.85,-2052.34 1419.38,-2052.08"/>
<polygon fill="black" stroke="black" points="1419.55,-2048.58 1409.55,-2052.05 1419.54,-2055.58 1419.55,-2048.58"/>
<text xml:space="preserve" text-anchor="middle" x="2261.07" y="-1058.48" font-family="Times,serif" font-size="14.00">2</text>
</g>
<!-- 16&#45;&gt;8 -->
<g id="edge146" class="edge">
<title>16&#45;&gt;8</title>
<path fill="none" stroke="black" d="M1872.6,-19.58C1799.28,-21.45 1600.08,-28.79 1540,-54 1453.19,-90.43 1205.97,-271 1107,-438.7 1079.29,-485.65 1088.47,-505 1063,-553.2 1060.75,-557.46 1058.12,-561.81 1055.4,-565.98"/>
<polygon fill="black" stroke="black" points="1052.64,-563.81 1049.88,-574.04 1058.42,-567.77 1052.64,-563.81"/>
<text xml:space="preserve" text-anchor="middle" x="1251.73" y="-285.07" font-family="Times,serif" font-size="14.00">0</text>
</g>
<!-- 16&#45;&gt;16 -->
<g id="edge20" class="edge">
<title>16&#45;&gt;16</title>
<path fill="none" stroke="black" d="M1924.53,-26.24C1935.51,-27.02 1945,-24.28 1945,-18 1945,-14.08 1941.29,-11.53 1935.83,-10.37"/>
<polygon fill="black" stroke="black" points="1936.22,-6.89 1926.04,-9.84 1935.84,-13.88 1936.22,-6.89"/>
<text xml:space="preserve" text-anchor="middle" x="1949.5" y="-13.32" font-family="Times,serif" font-size="14.00">1</text>
</g>
<!-- 16&#45;&gt;18 -->
<g id="edge114" class="edge">
<title>16&#45;&gt;18</title>
<path fill="none" stroke="black" d="M1900,-36.38C1900,-53.99 1900,-82.01 1900,-106.25 1900,-545.58 1900,-545.58 1900,-545.58 1900,-576.69 1746.53,-1051.87 1736,-1081.15 1721.47,-1121.56 1718.66,-1132.22 1699,-1170.4 1690.55,-1186.82 1688.84,-1191.48 1677,-1205.65 1642.82,-1246.56 1595.35,-1286.67 1566.2,-1309.81"/>
<polygon fill="black" stroke="black" points="1564.32,-1306.84 1558.62,-1315.77 1568.64,-1312.34 1564.32,-1306.84"/>
<text xml:space="preserve" text-anchor="middle" x="1871.07" y="-681.78" font-family="Times,serif" font-size="14.00">3</text>
</g>
<!-- 16&#45;&gt;21 -->
<g id="edge136" class="edge">
<title>16&#45;&gt;21</title>
<path fill="none" stroke="black" d="M1927.4,-18.6C2023.29,-17.93 2338,-22.12 2338,-106.25 2338,-448.33 2338,-448.33 2338,-448.33 2338,-624.27 2186.45,-609.9 2091,-757.7 2020.62,-866.68 1958,-887.8 1958,-1017.53 1958,-1153.4 1958,-1153.4 1958,-1153.4 1958,-1212.01 1959,-1226.66 1959,-1285.28 1959,-1421.15 1959,-1421.15 1959,-1421.15 1959,-1476.01 1885.35,-1496.61 1838.3,-1504.17"/>
<polygon fill="black" stroke="black" points="1837.86,-1500.7 1828.47,-1505.61 1838.87,-1507.63 1837.86,-1500.7"/>
<text xml:space="preserve" text-anchor="middle" x="2095.5" y="-771.03" font-family="Times,serif" font-size="14.00">4</text>
</g>
<!-- 17&#45;&gt;11 -->
<g id="edge106" class="edge">
<title>17&#45;&gt;11</title>
<path fill="none" stroke="black" d="M1239.16,-1055.55C1201.09,-1045.47 1126,-1025.74 1062,-1009.9 1024.1,-1000.52 980.61,-990.3 950.62,-983.34"/>
<polygon fill="black" stroke="black" points="951.45,-979.94 940.92,-981.09 949.87,-986.76 951.45,-979.94"/>
<text xml:space="preserve" text-anchor="middle" x="1133.26" y="-1013.85" font-family="Times,serif" font-size="14.00">3</text>
</g>
<!-- 17&#45;&gt;18 -->
<g id="edge85" class="edge">
<title>17&#45;&gt;18</title>
<path fill="none" stroke="black" d="M1287.5,-1072.37C1302.58,-1078.35 1322.07,-1087.45 1337,-1099.15 1417.87,-1162.53 1383.21,-1226.63 1460,-1294.9 1462,-1296.68 1486.11,-1307.14 1507.35,-1316.16"/>
<polygon fill="black" stroke="black" points="1505.78,-1319.3 1516.35,-1319.98 1508.51,-1312.85 1505.78,-1319.3"/>
<text xml:space="preserve" text-anchor="middle" x="1407.6" y="-1192.35" font-family="Times,serif" font-size="14.00">2</text>
</g>
<!-- 27 -->
<g id="node29" class="node">
<title>27</title>
<ellipse fill="none" stroke="black" cx="842" cy="-973.9" rx="27" ry="18"/>
<text xml:space="preserve" text-anchor="middle" x="842" y="-969.23" font-family="Times,serif" font-size="14.00">27</text>
</g>
<!-- 17&#45;&gt;27 -->
<g id="edge54" class="edge">
<title>17&#45;&gt;27</title>
<path fill="none" stroke="black" d="M1237.05,-1060.06C1191.85,-1056.16 1098.14,-1046.36 1021,-1027.15 999,-1021.67 994.87,-1015.86 973,-1009.9 931.54,-998.6 918.87,-1005.18 878,-991.9 876.4,-991.38 874.77,-990.8 873.15,-990.19"/>
<polygon fill="black" stroke="black" points="874.54,-986.98 863.97,-986.3 871.81,-993.42 874.54,-986.98"/>
<text xml:space="preserve" text-anchor="middle" x="1025.5" y="-1013.85" font-family="Times,serif" font-size="14.00">1</text>
</g>
<!-- 17&#45;&gt;28 -->
<g id="edge122" class="edge">
<title>17&#45;&gt;28</title>
<path fill="none" stroke="black" d="M1257.85,-1081.06C1239.52,-1130.31 1181.96,-1277 1109,-1384.15 1060.27,-1455.71 1035.92,-1463.97 977,-1527.4 962.4,-1543.13 961.24,-1549.87 944,-1562.65 932.56,-1571.14 918.75,-1578.49 906.36,-1584.23"/>
<polygon fill="black" stroke="black" points="905.04,-1580.99 897.31,-1588.24 907.87,-1587.39 905.04,-1580.99"/>
<text xml:space="preserve" text-anchor="middle" x="1156.18" y="-1326.23" font-family="Times,serif" font-size="14.00">0</text>
</g>
<!-- 17&#45;&gt;29 -->
<g id="edge142" class="edge">
<title>17&#45;&gt;29</title>
<path fill="none" stroke="black" d="M1273.51,-1080.21C1304.91,-1133.59 1404.12,-1305.19 1419,-1366.9 1420.8,-1374.35 1420.26,-1376.59 1419,-1384.15 1405.26,-1466.86 1394.58,-1487.22 1358,-1562.65 1327.27,-1626.01 1186,-1758.36 1186,-1828.78 1186,-2244.4 1186,-2244.4 1186,-2244.4 1186,-2267.42 1177.98,-2291.92 1169.74,-2311.03"/>
<polygon fill="black" stroke="black" points="1166.63,-2309.41 1165.68,-2319.96 1173,-2312.31 1166.63,-2309.41"/>
<text xml:space="preserve" text-anchor="middle" x="1283.26" y="-1683.23" font-family="Times,serif" font-size="14.00">4</text>
</g>
<!-- 18&#45;&gt;0 -->
<g id="edge107" class="edge">
<title>18&#45;&gt;0</title>
<path fill="none" stroke="black" d="M1525.36,-1346.14C1519.55,-1352.22 1513.07,-1359.59 1508,-1366.9 1497.97,-1381.36 1497.33,-1386.16 1490,-1402.15 1429.23,-1534.7 1440.21,-1580.38 1366,-1705.9 1296.24,-1823.89 1252.98,-1835.06 1172,-1945.65 1121.5,-2014.63 1139.15,-2061.91 1066,-2106.15 1007.14,-2141.74 796.52,-2145.37 713.74,-2145.38"/>
<polygon fill="black" stroke="black" points="713.79,-2141.88 703.78,-2145.36 713.78,-2148.88 713.79,-2141.88"/>
<text xml:space="preserve" text-anchor="middle" x="1359.41" y="-1727.85" font-family="Times,serif" font-size="14.00">3</text>
</g>
<!-- 18&#45;&gt;13 -->
<g id="edge139" class="edge">
<title>18&#45;&gt;13</title>
<path fill="none" stroke="black" d="M1545.25,-1312.99C1569.02,-1236.89 1670.24,-919.07 1779,-668.45 1786,-652.31 1787.73,-648.15 1797,-633.2 1822.56,-591.99 1862,-594.07 1862,-545.58 1862,-545.58 1862,-545.58 1862,-195.5 1862,-172.24 1849.38,-148.87 1837.66,-132.18"/>
<polygon fill="black" stroke="black" points="1840.64,-130.33 1831.87,-124.39 1835.03,-134.5 1840.64,-130.33"/>
<text xml:space="preserve" text-anchor="middle" x="1760.18" y="-726.4" font-family="Times,serif" font-size="14.00">2</text>
</g>
<!-- 18&#45;&gt;15 -->
<g id="edge140" class="edge">
<title>18&#45;&gt;15</title>
<path fill="none" stroke="black" d="M1518.24,-1319.79C1507.9,-1313.92 1496.24,-1305.56 1489,-1294.9 1393.21,-1153.77 1498.04,-1062.96 1404,-920.65 1397.06,-910.15 1386.77,-901.28 1376.55,-894.27"/>
<polygon fill="black" stroke="black" points="1378.49,-891.36 1368.17,-888.94 1374.73,-897.26 1378.49,-891.36"/>
<text xml:space="preserve" text-anchor="middle" x="1450.69" y="-1103.1" font-family="Times,serif" font-size="14.00">4</text>
</g>
<!-- 18&#45;&gt;17 -->
<g id="edge70" class="edge">
<title>18&#45;&gt;17</title>
<path fill="none" stroke="black" d="M1518.06,-1320.24C1511.94,-1317.7 1505.26,-1315.07 1499,-1312.9 1471.08,-1303.23 1458.64,-1312.63 1435,-1294.9 1353.55,-1233.81 1386.22,-1172.88 1316,-1099.15 1309.62,-1092.45 1301.73,-1086.33 1294.05,-1081.16"/>
<polygon fill="black" stroke="black" points="1296.15,-1078.35 1285.83,-1075.94 1292.4,-1084.26 1296.15,-1078.35"/>
<text xml:space="preserve" text-anchor="middle" x="1376.79" y="-1192.35" font-family="Times,serif" font-size="14.00">0</text>
</g>
<!-- 18&#45;&gt;19 -->
<g id="edge64" class="edge">
<title>18&#45;&gt;19</title>
<path fill="none" stroke="black" d="M1513.53,-1326.06C1462.77,-1318.64 1353.43,-1302.42 1316,-1294.9 1284.59,-1288.59 1277.14,-1285.2 1246,-1277.65 1208.3,-1268.52 1165.1,-1258.26 1135.34,-1251.22"/>
<polygon fill="black" stroke="black" points="1136.26,-1247.84 1125.72,-1248.95 1134.65,-1254.65 1136.26,-1247.84"/>
<text xml:space="preserve" text-anchor="middle" x="1320.5" y="-1281.6" font-family="Times,serif" font-size="14.00">1</text>
</g>
<!-- 19&#45;&gt;10 -->
<g id="edge39" class="edge">
<title>19&#45;&gt;10</title>
<path fill="none" stroke="black" d="M1083.41,-1226.45C1078.09,-1220.6 1072.78,-1213.37 1070,-1205.65 1067.3,-1198.16 1066.8,-1189.67 1067.31,-1181.75"/>
<polygon fill="black" stroke="black" points="1070.78,-1182.21 1068.52,-1171.86 1063.83,-1181.36 1070.78,-1182.21"/>
<text xml:space="preserve" text-anchor="middle" x="1074.5" y="-1192.35" font-family="Times,serif" font-size="14.00">2</text>
</g>
<!-- 19&#45;&gt;15 -->
<g id="edge42" class="edge">
<title>19&#45;&gt;15</title>
<path fill="none" stroke="black" d="M1120.22,-1230.14C1161.75,-1208.42 1253.74,-1154.41 1300,-1081.15 1332.48,-1029.71 1340.45,-957.89 1342.07,-914.24"/>
<polygon fill="black" stroke="black" points="1345.56,-914.58 1342.33,-904.49 1338.56,-914.39 1345.56,-914.58"/>
<text xml:space="preserve" text-anchor="middle" x="1322.31" y="-1058.48" font-family="Times,serif" font-size="14.00">0</text>
</g>
<!-- 19&#45;&gt;25 -->
<g id="edge132" class="edge">
<title>19&#45;&gt;25</title>
<path fill="none" stroke="black" d="M1072.73,-1236.55C993.56,-1222.76 755.3,-1170.62 634,-1027.15 581.21,-964.72 580.45,-927.02 597,-846.95 602.22,-821.7 612,-818.21 620,-793.7 628.72,-767 634,-760.16 634,-732.08 634,-732.08 634,-732.08 634,-106.25 634,-83.95 644.57,-60.91 654.55,-44.11"/>
<polygon fill="black" stroke="black" points="657.42,-46.12 659.79,-35.8 651.5,-42.39 657.42,-46.12"/>
<text xml:space="preserve" text-anchor="middle" x="638.5" y="-637.15" font-family="Times,serif" font-size="14.00">1</text>
</g>
<!-- 19&#45;&gt;28 -->
<g id="edge127" class="edge">
<title>19&#45;&gt;28</title>
<path fill="none" stroke="black" d="M1076.48,-1251.9C1064.93,-1257.7 1051.52,-1266.27 1043,-1277.65 998.59,-1336.95 1027.58,-1370.23 998,-1438.15 972.12,-1497.59 966.16,-1515.19 922,-1562.65 916.13,-1568.97 908.95,-1574.85 901.92,-1579.91"/>
<polygon fill="black" stroke="black" points="900.1,-1576.92 893.81,-1585.44 904.05,-1582.7 900.1,-1576.92"/>
<text xml:space="preserve" text-anchor="middle" x="1013.86" y="-1415.48" font-family="Times,serif" font-size="14.00">3</text>
</g>
<!-- 19&#45;&gt;29 -->
<g id="edge24" class="edge">
<title>19&#45;&gt;29</title>
<path fill="none" stroke="black" d="M1099.9,-1259.88C1102.43,-1309.6 1109.64,-1457.65 1112,-1580.65 1113.52,-1659.97 1110.56,-1679.81 1110,-1759.15 1109.86,-1778.71 1109.24,-1783.61 1110,-1803.15 1117.33,-1992.62 1138.99,-2218.48 1148,-2307.12"/>
<polygon fill="black" stroke="black" points="1144.51,-2307.36 1149.01,-2316.95 1151.47,-2306.65 1144.51,-2307.36"/>
<text xml:space="preserve" text-anchor="middle" x="1114.5" y="-1776.48" font-family="Times,serif" font-size="14.00">4</text>
</g>
<!-- 20&#45;&gt;3 -->
<g id="edge130" class="edge">
<title>20&#45;&gt;3</title>
<path fill="none" stroke="black" d="M1350.3,-366.28C1348.2,-359.99 1345.99,-353.26 1344,-347 1341.46,-339 1338.79,-330.34 1336.35,-322.26"/>
<polygon fill="black" stroke="black" points="1339.74,-321.39 1333.51,-312.82 1333.03,-323.4 1339.74,-321.39"/>
<text xml:space="preserve" text-anchor="middle" x="1348.5" y="-333.7" font-family="Times,serif" font-size="14.00">1</text>
</g>
<!-- 20&#45;&gt;3 -->
<g id="edge151" class="edge">
<title>20&#45;&gt;3</title>
<path fill="none" stroke="black" d="M1340.18,-371.97C1334.48,-364.68 1328.95,-356 1326,-347 1323.52,-339.46 1322.72,-331.03 1322.78,-323.04"/>
<polygon fill="black" stroke="black" points="1326.26,-323.5 1323.3,-313.32 1319.27,-323.12 1326.26,-323.5"/>
<text xml:space="preserve" text-anchor="middle" x="1330.5" y="-333.7" font-family="Times,serif" font-size="14.00">0</text>
</g>
<!-- 20&#45;&gt;7 -->
<g id="edge148" class="edge">
<title>20&#45;&gt;7</title>
<path fill="none" stroke="black" d="M1384.95,-404.1C1462.01,-435.37 1693.97,-535.57 1852,-668.45 1883.25,-694.73 1879.14,-712.96 1910,-739.7 1921.75,-749.88 1930.16,-745.66 1940,-757.7 2003.27,-835.15 2042,-1096.02 2042,-1196.03 2042,-1782.15 2042,-1782.15 2042,-1782.15 2042,-1848.45 1811.37,-1867.03 1717.77,-1871.84"/>
<polygon fill="black" stroke="black" points="1717.61,-1868.35 1707.8,-1872.33 1717.95,-1875.34 1717.61,-1868.35"/>
<text xml:space="preserve" text-anchor="middle" x="2045.82" y="-1147.73" font-family="Times,serif" font-size="14.00">3</text>
</g>
<!-- 20&#45;&gt;21 -->
<g id="edge121" class="edge">
<title>20&#45;&gt;21</title>
<path fill="none" stroke="black" d="M1380.99,-410.58C1421.08,-441.32 1508.32,-509.3 1578,-571.2 1692.54,-672.96 1751.89,-677.05 1825,-811.7 1859.42,-875.1 1844,-900.76 1844,-972.9 1844,-1108.78 1844,-1108.78 1844,-1108.78 1844,-1271.24 1861.82,-1316.96 1818,-1473.4 1817.21,-1476.22 1816.18,-1479.08 1815.01,-1481.88"/>
<polygon fill="black" stroke="black" points="1811.87,-1480.34 1810.7,-1490.87 1818.18,-1483.37 1811.87,-1480.34"/>
<text xml:space="preserve" text-anchor="middle" x="1848.5" y="-969.23" font-family="Times,serif" font-size="14.00">4</text>
</g>
<!-- 20&#45;&gt;29 -->
<g id="edge135" class="edge">
<title>20&#45;&gt;29</title>
<path fill="none" stroke="black" d="M1386.84,-394.4C1451.85,-396.79 1617.09,-409.27 1735,-473.95 1774.03,-495.36 2273.33,-1007.44 2297,-1045.15 2334.86,-1105.48 2351,-1124.81 2351,-1196.03 2351,-2244.4 2351,-2244.4 2351,-2244.4 2351,-2364.37 2206.34,-2288.43 2087,-2300.65 1740.92,-2336.08 1319.84,-2343.62 1191.18,-2345.14"/>
<polygon fill="black" stroke="black" points="1191.47,-2341.63 1181.51,-2345.25 1191.55,-2348.63 1191.47,-2341.63"/>
<text xml:space="preserve" text-anchor="middle" x="2355.5" y="-1370.85" font-family="Times,serif" font-size="14.00">2</text>
</g>
<!-- 21&#45;&gt;7 -->
<g id="edge113" class="edge">
<title>21&#45;&gt;7</title>
<path fill="none" stroke="black" d="M1797.99,-1527.71C1795.51,-1548.75 1791.14,-1585.33 1787,-1616.65 1781.73,-1656.53 1785.6,-1668.05 1772,-1705.9 1752.72,-1759.57 1717.55,-1816.48 1696.42,-1848.22"/>
<polygon fill="black" stroke="black" points="1693.63,-1846.1 1690.94,-1856.35 1699.43,-1850.01 1693.63,-1846.1"/>
<text xml:space="preserve" text-anchor="middle" x="1786.07" y="-1683.23" font-family="Times,serif" font-size="14.00">3</text>
</g>
<!-- 21&#45;&gt;16 -->
<g id="edge23" class="edge">
<title>21&#45;&gt;16</title>
<path fill="none" stroke="black" d="M1815.4,-1494.13C1821.54,-1488.05 1828.46,-1480.68 1834,-1473.4 1872.85,-1422.36 1888.97,-1410.46 1907,-1348.9 1960.56,-1166.1 1898.09,-1109.36 1924,-920.65 1941.26,-794.92 1990,-769.74 1990,-642.83 1990,-642.83 1990,-642.83 1990,-106.25 1990,-73.01 1957.97,-48.38 1932.12,-33.91"/>
<polygon fill="black" stroke="black" points="1934.06,-30.98 1923.59,-29.4 1930.79,-37.17 1934.06,-30.98"/>
<text xml:space="preserve" text-anchor="middle" x="1976.64" y="-771.03" font-family="Times,serif" font-size="14.00">0</text>
</g>
<!-- 21&#45;&gt;18 -->
<g id="edge92" class="edge">
<title>21&#45;&gt;18</title>
<path fill="none" stroke="black" d="M1789.18,-1492.87C1767.85,-1463.48 1717.34,-1399.72 1659,-1366.9 1633.4,-1352.5 1601.3,-1343.51 1576.89,-1338.25"/>
<polygon fill="black" stroke="black" points="1577.91,-1334.89 1567.41,-1336.33 1576.52,-1341.75 1577.91,-1334.89"/>
<text xml:space="preserve" text-anchor="middle" x="1748.49" y="-1415.48" font-family="Times,serif" font-size="14.00">1</text>
</g>
<!-- 21&#45;&gt;19 -->
<g id="edge57" class="edge">
<title>21&#45;&gt;19</title>
<path fill="none" stroke="black" d="M1773.43,-1505.11C1720.58,-1497.92 1599.27,-1478.14 1505,-1438.15 1409.83,-1397.78 1403.25,-1355.38 1309,-1312.9 1282.45,-1300.94 1272.65,-1306.65 1246,-1294.9 1232.63,-1289.01 1231.35,-1283.6 1218,-1277.65 1191.29,-1265.75 1159.44,-1256.63 1135.41,-1250.69"/>
<polygon fill="black" stroke="black" points="1136.31,-1247.3 1125.77,-1248.38 1134.68,-1254.11 1136.31,-1247.3"/>
<text xml:space="preserve" text-anchor="middle" x="1420.55" y="-1370.85" font-family="Times,serif" font-size="14.00">4</text>
</g>
<!-- 21&#45;&gt;24 -->
<g id="edge38" class="edge">
<title>21&#45;&gt;24</title>
<path fill="none" stroke="black" d="M1781.85,-1495.67C1763.58,-1483.51 1734.13,-1465.65 1706,-1456.15 1653.24,-1438.33 1635.69,-1452.93 1582,-1438.15 1579.2,-1437.38 1576.35,-1436.47 1573.5,-1435.48"/>
<polygon fill="black" stroke="black" points="1574.78,-1432.22 1564.19,-1431.9 1572.27,-1438.75 1574.78,-1432.22"/>
<text xml:space="preserve" text-anchor="middle" x="1748.2" y="-1460.1" font-family="Times,serif" font-size="14.00">2</text>
</g>
<!-- 22&#45;&gt;1 -->
<g id="edge110" class="edge">
<title>22&#45;&gt;1</title>
<path fill="none" stroke="black" d="M1626.56,-793.99C1642.92,-873.77 1710.5,-1207.02 1720,-1312.9 1725.99,-1379.7 1717,-1396.71 1717,-1463.78 1717,-1688.9 1717,-1688.9 1717,-1688.9 1717,-1711.71 1706.76,-1735.43 1696.91,-1752.97"/>
<polygon fill="black" stroke="black" points="1694.1,-1750.84 1692.01,-1761.23 1700.12,-1754.42 1694.1,-1750.84"/>
<text xml:space="preserve" text-anchor="middle" x="1722.59" y="-1281.6" font-family="Times,serif" font-size="14.00">2</text>
</g>
<!-- 22&#45;&gt;12 -->
<g id="edge81" class="edge">
<title>22&#45;&gt;12</title>
<path fill="none" stroke="black" d="M1608.48,-760.3C1595.37,-748.2 1574.98,-731.47 1554,-722.45 1496.86,-697.9 1424.23,-690.48 1380.52,-688.29"/>
<polygon fill="black" stroke="black" points="1380.92,-684.81 1370.78,-687.88 1380.62,-691.8 1380.92,-684.81"/>
<text xml:space="preserve" text-anchor="middle" x="1587.09" y="-726.4" font-family="Times,serif" font-size="14.00">0</text>
</g>
<!-- 22&#45;&gt;17 -->
<g id="edge13" class="edge">
<title>22&#45;&gt;17</title>
<path fill="none" stroke="black" d="M1604.69,-789.43C1595.8,-795.83 1585.11,-803.88 1576,-811.7 1532.39,-849.17 1527.85,-865.46 1484,-902.65 1418.72,-958.03 1335.45,-1015.03 1292.49,-1043.54"/>
<polygon fill="black" stroke="black" points="1290.65,-1040.56 1284.23,-1049 1294.51,-1046.41 1290.65,-1040.56"/>
<text xml:space="preserve" text-anchor="middle" x="1466.69" y="-924.6" font-family="Times,serif" font-size="14.00">4</text>
</g>
<!-- 22&#45;&gt;18 -->
<g id="edge90" class="edge">
<title>22&#45;&gt;18</title>
<path fill="none" stroke="black" d="M1614.79,-793.18C1589.1,-846.51 1512.26,-1019.62 1519,-1170.4 1521.49,-1226.03 1522.87,-1240.15 1533,-1294.9 1533.41,-1297.09 1533.84,-1299.36 1534.28,-1301.64"/>
<polygon fill="black" stroke="black" points="1530.82,-1302.21 1536.19,-1311.35 1537.69,-1300.86 1530.82,-1302.21"/>
<text xml:space="preserve" text-anchor="middle" x="1533.54" y="-1058.48" font-family="Times,serif" font-size="14.00">3</text>
</g>
<!-- 22&#45;&gt;21 -->
<g id="edge55" class="edge">
<title>22&#45;&gt;21</title>
<path fill="none" stroke="black" d="M1637.53,-791.38C1670.4,-825.83 1749.54,-916.09 1774,-1009.9 1819.35,-1183.83 1808.28,-1403.14 1802.45,-1480.13"/>
<polygon fill="black" stroke="black" points="1798.99,-1479.49 1801.69,-1489.73 1805.97,-1480.04 1798.99,-1479.49"/>
<text xml:space="preserve" text-anchor="middle" x="1805.32" y="-1147.73" font-family="Times,serif" font-size="14.00">1</text>
</g>
<!-- 23&#45;&gt;2 -->
<g id="edge17" class="edge">
<title>23&#45;&gt;2</title>
<path fill="none" stroke="black" d="M231.57,-610.42C222.13,-628.21 209,-657.92 209,-685.45 209,-1019.53 209,-1019.53 209,-1019.53 209,-1237.49 248,-1290.43 248,-1508.4 248,-2147.15 248,-2147.15 248,-2147.15 248,-2186.22 288.49,-2214 318.2,-2229.13"/>
<polygon fill="black" stroke="black" points="316.67,-2232.27 327.2,-2233.46 319.71,-2225.97 316.67,-2232.27"/>
<text xml:space="preserve" text-anchor="middle" x="251.01" y="-1415.48" font-family="Times,serif" font-size="14.00">2</text>
</g>
<!-- 23&#45;&gt;2 -->
<g id="edge47" class="edge">
<title>23&#45;&gt;2</title>
<path fill="none" stroke="black" d="M214.12,-596.82C167.37,-603.01 76,-623.09 76,-685.45 76,-2147.15 76,-2147.15 76,-2147.15 76,-2197.44 243.2,-2227.35 315.9,-2237.98"/>
<polygon fill="black" stroke="black" points="315.23,-2241.42 325.62,-2239.37 316.22,-2234.49 315.23,-2241.42"/>
<text xml:space="preserve" text-anchor="middle" x="80.5" y="-1415.48" font-family="Times,serif" font-size="14.00">4</text>
</g>
<!-- 23&#45;&gt;5 -->
<g id="edge22" class="edge">
<title>23&#45;&gt;5</title>
<path fill="none" stroke="black" d="M250.43,-610.42C259.87,-628.21 273,-657.92 273,-685.45 273,-875.8 273,-875.8 273,-875.8 273,-1100.96 362,-1149.37 362,-1374.53 362,-1599.65 362,-1599.65 362,-1599.65 362,-1625.21 366.73,-1635.12 386,-1651.9 392.2,-1657.3 434.07,-1669.15 465.74,-1677.57"/>
<polygon fill="black" stroke="black" points="464.84,-1680.95 475.4,-1680.11 466.62,-1674.18 464.84,-1680.95"/>
<text xml:space="preserve" text-anchor="middle" x="336.28" y="-1147.73" font-family="Times,serif" font-size="14.00">3</text>
</g>
<!-- 23&#45;&gt;11 -->
<g id="edge28" class="edge">
<title>23&#45;&gt;11</title>
<path fill="none" stroke="black" d="M266.46,-599.8C347.66,-618.57 605.26,-685.32 779,-811.7 831.39,-849.81 876.03,-912.56 898.48,-947.47"/>
<polygon fill="black" stroke="black" points="895.35,-949.07 903.65,-955.66 901.27,-945.34 895.35,-949.07"/>
<text xml:space="preserve" text-anchor="middle" x="757.15" y="-771.03" font-family="Times,serif" font-size="14.00">1</text>
</g>
<!-- 23&#45;&gt;28 -->
<g id="edge27" class="edge">
<title>23&#45;&gt;28</title>
<path fill="none" stroke="black" d="M261.27,-605.14C285.55,-619.89 323,-648.6 323,-685.45 323,-930.28 323,-930.28 323,-930.28 323,-1105.09 406.65,-1144.29 538,-1259.65 570.65,-1288.33 587.79,-1283.74 620,-1312.9 725.42,-1408.34 714.95,-1466.81 820,-1562.65 826.99,-1569.03 835.24,-1575.06 843.13,-1580.26"/>
<polygon fill="black" stroke="black" points="841.2,-1583.18 851.53,-1585.57 844.94,-1577.27 841.2,-1583.18"/>
<text xml:space="preserve" text-anchor="middle" x="385.02" y="-1103.1" font-family="Times,serif" font-size="14.00">0</text>
</g>
<!-- 24&#45;&gt;7 -->
<g id="edge93" class="edge">
<title>24&#45;&gt;7</title>
<path fill="none" stroke="black" d="M1540.05,-1438.53C1539.17,-1456.13 1538,-1484.15 1538,-1508.4 1538,-1644.28 1538,-1644.28 1538,-1644.28 1538,-1732.18 1614.2,-1814.66 1654.56,-1852.19"/>
<polygon fill="black" stroke="black" points="1651.95,-1854.55 1661.71,-1858.69 1656.67,-1849.37 1651.95,-1854.55"/>
<text xml:space="preserve" text-anchor="middle" x="1542.64" y="-1638.6" font-family="Times,serif" font-size="14.00">0</text>
</g>
<!-- 24&#45;&gt;11 -->
<g id="edge80" class="edge">
<title>24&#45;&gt;11</title>
<path fill="none" stroke="black" d="M1520.35,-1408.36C1498.18,-1397.05 1461.72,-1379.25 1429,-1366.9 1349.7,-1336.98 1128.53,-1313.4 1063,-1259.65 978.42,-1190.29 936,-1060.16 920.77,-1003.02"/>
<polygon fill="black" stroke="black" points="924.19,-1002.26 918.31,-993.45 917.41,-1004 924.19,-1002.26"/>
<text xml:space="preserve" text-anchor="middle" x="1016.87" y="-1192.35" font-family="Times,serif" font-size="14.00">4</text>
</g>
<!-- 24&#45;&gt;12 -->
<g id="edge116" class="edge">
<title>24&#45;&gt;12</title>
<path fill="none" stroke="black" d="M1551.62,-1403.23C1560.11,-1389.5 1571.32,-1368.8 1576,-1348.9 1579.66,-1333.33 1577.18,-1328.86 1576,-1312.9 1572.43,-1264.84 1566.24,-1253.44 1560,-1205.65 1537.17,-1030.86 1603.46,-963.59 1514,-811.7 1481.89,-757.18 1415.45,-719.89 1375.19,-701.25"/>
<polygon fill="black" stroke="black" points="1376.76,-698.12 1366.21,-697.21 1373.89,-704.51 1376.76,-698.12"/>
<text xml:space="preserve" text-anchor="middle" x="1563.35" y="-1058.48" font-family="Times,serif" font-size="14.00">2</text>
</g>
<!-- 24&#45;&gt;16 -->
<g id="edge71" class="edge">
<title>24&#45;&gt;16</title>
<path fill="none" stroke="black" d="M1558.91,-1406.52C1566.34,-1400.5 1574.49,-1392.72 1580,-1384.15 1588.87,-1370.34 1586.72,-1364.74 1591,-1348.9 1633.5,-1191.75 1652.79,-1153.44 1673,-991.9 1687.34,-877.29 1679,-847.58 1679,-732.08 1679,-732.08 1679,-732.08 1679,-494.95 1679,-331.04 1474.59,-277.94 1568,-143.25 1635.61,-45.76 1789.65,-24.64 1861.62,-20.15"/>
<polygon fill="black" stroke="black" points="1861.53,-23.66 1871.33,-19.63 1861.16,-16.67 1861.53,-23.66"/>
<text xml:space="preserve" text-anchor="middle" x="1683.51" y="-726.4" font-family="Times,serif" font-size="14.00">1</text>
</g>
<!-- 24&#45;&gt;18 -->
<g id="edge76" class="edge">
<title>24&#45;&gt;18</title>
<path fill="none" stroke="black" d="M1543,-1401.73C1543.91,-1391.58 1544.66,-1378.51 1544,-1366.9 1543.88,-1364.84 1543.73,-1362.71 1543.54,-1360.57"/>
<polygon fill="black" stroke="black" points="1547.05,-1360.41 1542.54,-1350.82 1540.08,-1361.13 1547.05,-1360.41"/>
<text xml:space="preserve" text-anchor="middle" x="1548.75" y="-1370.85" font-family="Times,serif" font-size="14.00">3</text>
</g>
<!-- 25&#45;&gt;0 -->
<g id="edge145" class="edge">
<title>25&#45;&gt;0</title>
<path fill="none" stroke="black" d="M644.82,-19.62C519.1,-22.82 0,-40.07 0,-106.25 0,-1108.78 0,-1108.78 0,-1108.78 0,-1248.89 121.58,-1240.01 181,-1366.9 219.23,-1448.53 198.1,-1479.98 234,-1562.65 286.92,-1684.54 461.44,-1970.96 549,-2070.9 576.04,-2101.76 619.16,-2122.69 648.49,-2134.27"/>
<polygon fill="black" stroke="black" points="646.98,-2137.44 657.57,-2137.71 649.46,-2130.89 646.98,-2137.44"/>
<text xml:space="preserve" text-anchor="middle" x="4.6" y="-1103.1" font-family="Times,serif" font-size="14.00">2</text>
</g>
<!-- 25&#45;&gt;6 -->
<g id="edge41" class="edge">
<title>25&#45;&gt;6</title>
<path fill="none" stroke="black" d="M645.33,-21.76C576.63,-29.61 399,-54.88 399,-106.25 399,-1019.53 399,-1019.53 399,-1019.53 399,-1056.13 386.19,-1063.48 378,-1099.15 350.08,-1220.71 324,-1249.81 324,-1374.53 324,-1555.03 324,-1555.03 324,-1555.03 324,-1647.11 377.63,-1680.01 466,-1705.9 617.84,-1750.39 1024.26,-1714.34 1176,-1759.15 1248.81,-1780.65 1445.64,-1899.12 1520.02,-1944.74"/>
<polygon fill="black" stroke="black" points="1518.03,-1947.63 1528.38,-1949.88 1521.7,-1941.66 1518.03,-1947.63"/>
<text xml:space="preserve" text-anchor="middle" x="403.5" y="-1013.85" font-family="Times,serif" font-size="14.00">1</text>
</g>
<!-- 25&#45;&gt;8 -->
<g id="edge37" class="edge">
<title>25&#45;&gt;8</title>
<path fill="none" stroke="black" d="M684.37,-34.44C721.83,-81.71 835.92,-229.45 909,-365 951.89,-444.55 931.42,-481.17 986,-553.2 992.12,-561.27 1000.29,-568.58 1008.26,-574.63"/>
<polygon fill="black" stroke="black" points="1005.97,-577.3 1016.15,-580.25 1010.03,-571.6 1005.97,-577.3"/>
<text xml:space="preserve" text-anchor="middle" x="883" y="-285.07" font-family="Times,serif" font-size="14.00">0</text>
</g>
<!-- 25&#45;&gt;25 -->
<g id="edge26" class="edge">
<title>25&#45;&gt;25</title>
<path fill="none" stroke="black" d="M696.53,-26.24C707.51,-27.02 717,-24.28 717,-18 717,-14.08 713.29,-11.53 707.83,-10.37"/>
<polygon fill="black" stroke="black" points="708.22,-6.89 698.04,-9.84 707.84,-13.88 708.22,-6.89"/>
<text xml:space="preserve" text-anchor="middle" x="721.5" y="-13.32" font-family="Times,serif" font-size="14.00">3</text>
</g>
<!-- 25&#45;&gt;28 -->
<g id="edge141" class="edge">
<title>25&#45;&gt;28</title>
<path fill="none" stroke="black" d="M646.07,-23.34C586.71,-34.01 446,-63.77 446,-106.25 446,-687.45 446,-687.45 446,-687.45 446,-845.55 493.15,-1302.07 520,-1348.9 594.14,-1478.2 766,-1556.69 839.1,-1585.31"/>
<polygon fill="black" stroke="black" points="837.55,-1588.46 848.14,-1588.78 840.06,-1581.93 837.55,-1588.46"/>
<text xml:space="preserve" text-anchor="middle" x="456.6" y="-815.65" font-family="Times,serif" font-size="14.00">4</text>
</g>
<!-- 26&#45;&gt;7 -->
<g id="edge18" class="edge">
<title>26&#45;&gt;7</title>
<path fill="none" stroke="black" d="M2110,-214.99C2110,-233.36 2110,-263.09 2110,-288.75 2110,-545.58 2110,-545.58 2110,-545.58 2110,-655.94 2105.74,-683.48 2100,-793.7 2092.75,-932.94 2080,-967.35 2080,-1106.78 2080,-1782.15 2080,-1782.15 2080,-1782.15 2080,-1855.99 1818.22,-1870.08 1717.68,-1872.77"/>
<polygon fill="black" stroke="black" points="1717.67,-1869.27 1707.76,-1873.01 1717.84,-1876.26 1717.67,-1869.27"/>
<text xml:space="preserve" text-anchor="middle" x="2085.45" y="-1058.48" font-family="Times,serif" font-size="14.00">0</text>
</g>
<!-- 26&#45;&gt;7 -->
<g id="edge56" class="edge">
<title>26&#45;&gt;7</title>
<path fill="none" stroke="black" d="M2120.99,-213.16C2132.21,-230.71 2148,-260.43 2148,-288.75 2148,-594.2 2148,-594.2 2148,-594.2 2148,-861.91 2123,-928.32 2123,-1196.03 2123,-1782.15 2123,-1782.15 2123,-1782.15 2123,-1864.54 1825.93,-1873.2 1717.78,-1873.62"/>
<polygon fill="black" stroke="black" points="1717.95,-1870.12 1707.95,-1873.64 1717.96,-1877.12 1717.95,-1870.12"/>
<text xml:space="preserve" text-anchor="middle" x="2130.56" y="-1058.48" font-family="Times,serif" font-size="14.00">2</text>
</g>
<!-- 26&#45;&gt;11 -->
<g id="edge96" class="edge">
<title>26&#45;&gt;11</title>
<path fill="none" stroke="black" d="M2086.93,-206.35C1983.2,-246.85 1565,-417.9 1565,-543.58 1565,-687.45 1565,-687.45 1565,-687.45 1565,-813.87 1492.64,-847.27 1379,-902.65 1303.61,-939.39 1049.78,-962.4 952.44,-970.06"/>
<polygon fill="black" stroke="black" points="952.31,-966.56 942.61,-970.82 952.85,-973.54 952.31,-966.56"/>
<text xml:space="preserve" text-anchor="middle" x="1569.5" y="-588.53" font-family="Times,serif" font-size="14.00">1</text>
</g>
<!-- 26&#45;&gt;13 -->
<g id="edge19" class="edge">
<title>26&#45;&gt;13</title>
<path fill="none" stroke="black" d="M2083.7,-191.64C2050.29,-186.37 1991.07,-175.79 1942,-160.5 1909.75,-150.45 1874.37,-135.08 1849.69,-123.61"/>
<polygon fill="black" stroke="black" points="1851.38,-120.54 1840.84,-119.45 1848.4,-126.88 1851.38,-120.54"/>
<text xml:space="preserve" text-anchor="middle" x="1946.5" y="-147.2" font-family="Times,serif" font-size="14.00">4</text>
</g>
<!-- 26&#45;&gt;14 -->
<g id="edge94" class="edge">
<title>26&#45;&gt;14</title>
<path fill="none" stroke="black" d="M2083.16,-193.43C1932.74,-181.83 1194.86,-124.9 1017.42,-111.21"/>
<polygon fill="black" stroke="black" points="1017.84,-107.74 1007.6,-110.46 1017.3,-114.72 1017.84,-107.74"/>
<text xml:space="preserve" text-anchor="middle" x="1650.3" y="-147.2" font-family="Times,serif" font-size="14.00">3</text>
</g>
<!-- 27&#45;&gt;0 -->
<g id="edge12" class="edge">
<title>27&#45;&gt;0</title>
<path fill="none" stroke="black" d="M815.5,-978.34C780.83,-983.41 722.86,-994.03 709,-1009.9 628.99,-1101.48 642,-1431.42 642,-1553.03 642,-2053.9 642,-2053.9 642,-2053.9 642,-2076.71 652.24,-2100.43 662.09,-2117.97"/>
<polygon fill="black" stroke="black" points="658.88,-2119.42 666.99,-2126.23 664.9,-2115.84 658.88,-2119.42"/>
<text xml:space="preserve" text-anchor="middle" x="646.5" y="-1549.35" font-family="Times,serif" font-size="14.00">0</text>
</g>
<!-- 27&#45;&gt;5 -->
<g id="edge123" class="edge">
<title>27&#45;&gt;5</title>
<path fill="none" stroke="black" d="M814.87,-976.47C768.08,-979.72 674.92,-988.73 651,-1009.9 607.47,-1048.44 594.2,-1205.51 573,-1259.65 536.38,-1353.18 476,-1363.33 476,-1463.78 476,-1599.65 476,-1599.65 476,-1599.65 476,-1620.53 482.92,-1643.08 489.62,-1660.03"/>
<polygon fill="black" stroke="black" points="486.24,-1661.02 493.33,-1668.89 492.69,-1658.31 486.24,-1661.02"/>
<text xml:space="preserve" text-anchor="middle" x="549.43" y="-1326.23" font-family="Times,serif" font-size="14.00">2</text>
</g>
<!-- 27&#45;&gt;14 -->
<g id="edge128" class="edge">
<title>27&#45;&gt;14</title>
<path fill="none" stroke="black" d="M842.62,-955.72C844.33,-906.81 849,-762.62 849,-642.83 849,-642.83 849,-642.83 849,-288.75 849,-218.97 913.76,-157.77 951.87,-127.81"/>
<polygon fill="black" stroke="black" points="953.91,-130.65 959.72,-121.79 949.65,-125.09 953.91,-130.65"/>
<text xml:space="preserve" text-anchor="middle" x="853.5" y="-539.9" font-family="Times,serif" font-size="14.00">1</text>
</g>
<!-- 27&#45;&gt;17 -->
<g id="edge82" class="edge">
<title>27&#45;&gt;17</title>
<path fill="none" stroke="black" d="M862.49,-985.97C867.45,-988.25 872.82,-990.41 878,-991.9 943.39,-1010.67 966.84,-984.63 1030,-1009.9 1041.86,-1014.65 1041.25,-1022.13 1053,-1027.15 1109.8,-1051.43 1181.88,-1058.94 1225.4,-1061.21"/>
<polygon fill="black" stroke="black" points="1225.22,-1064.71 1235.37,-1061.66 1225.53,-1057.72 1225.22,-1064.71"/>
<text xml:space="preserve" text-anchor="middle" x="1057.5" y="-1013.85" font-family="Times,serif" font-size="14.00">3</text>
</g>
<!-- 27&#45;&gt;20 -->
<g id="edge149" class="edge">
<title>27&#45;&gt;20</title>
<path fill="none" stroke="black" d="M856.26,-958.36C883.97,-929.37 945.48,-861.32 981,-793.7 1015.81,-727.44 983.68,-690.36 1032,-633.2 1043.29,-619.84 1052.95,-625.62 1067,-615.2 1097.79,-592.35 1103.38,-583.41 1127,-553.2 1138.37,-538.65 1139.4,-533.73 1149,-517.95 1170.29,-482.97 1163.45,-463.55 1196,-438.7 1232.05,-411.18 1283.97,-400.54 1319.47,-396.43"/>
<polygon fill="black" stroke="black" points="1319.73,-399.92 1329.32,-395.43 1319.02,-392.96 1319.73,-399.92"/>
<text xml:space="preserve" text-anchor="middle" x="1014.72" y="-681.78" font-family="Times,serif" font-size="14.00">4</text>
</g>
<!-- 28&#45;&gt;1 -->
<g id="edge43" class="edge">
<title>28&#45;&gt;1</title>
<path fill="none" stroke="black" d="M898.26,-1605.88C966.47,-1622.66 1160.13,-1669.92 1322,-1705.9 1441.01,-1732.35 1583,-1761.03 1646.05,-1773.61"/>
<polygon fill="black" stroke="black" points="1645.25,-1777.02 1655.74,-1775.54 1646.62,-1770.15 1645.25,-1777.02"/>
<text xml:space="preserve" text-anchor="middle" x="1326.5" y="-1683.23" font-family="Times,serif" font-size="14.00">4</text>
</g>
<!-- 28&#45;&gt;11 -->
<g id="edge75" class="edge">
<title>28&#45;&gt;11</title>
<path fill="none" stroke="black" d="M856.07,-1584.26C849.2,-1578.2 841.58,-1570.62 836,-1562.65 809.07,-1524.22 794,-1512.7 794,-1465.78 794,-1465.78 794,-1465.78 794,-1196.03 794,-1115.15 856.77,-1035.59 891.52,-997.75"/>
<polygon fill="black" stroke="black" points="893.96,-1000.26 898.25,-990.58 888.85,-995.47 893.96,-1000.26"/>
<text xml:space="preserve" text-anchor="middle" x="798.5" y="-1281.6" font-family="Times,serif" font-size="14.00">2</text>
</g>
<!-- 28&#45;&gt;15 -->
<g id="edge53" class="edge">
<title>28&#45;&gt;15</title>
<path fill="none" stroke="black" d="M897.29,-1590.51C916.72,-1584.35 944.35,-1574.58 967,-1562.65 1113.15,-1485.7 1161.42,-1472.48 1271,-1348.9 1359.18,-1249.46 1345.62,-1025.97 1350,-991.9 1354.05,-960.42 1359.46,-952.08 1355,-920.65 1354.62,-918.01 1354.13,-915.31 1353.56,-912.6"/>
<polygon fill="black" stroke="black" points="1357,-911.95 1351.19,-903.09 1350.21,-913.64 1357,-911.95"/>
<text xml:space="preserve" text-anchor="middle" x="1333.26" y="-1236.98" font-family="Times,serif" font-size="14.00">0</text>
</g>
<!-- 28&#45;&gt;20 -->
<g id="edge131" class="edge">
<title>28&#45;&gt;20</title>
<path fill="none" stroke="black" d="M872.05,-1580.28C871.17,-1562.67 870,-1534.65 870,-1510.4 870,-1510.4 870,-1510.4 870,-1374.53 870,-1096.39 952.8,-1027.8 1103,-793.7 1190.61,-657.15 1294.82,-494.22 1338.33,-426.18"/>
<polygon fill="black" stroke="black" points="1341.04,-428.43 1343.48,-418.12 1335.15,-424.66 1341.04,-428.43"/>
<text xml:space="preserve" text-anchor="middle" x="965.91" y="-1013.85" font-family="Times,serif" font-size="14.00">1</text>
</g>
<!-- 28&#45;&gt;21 -->
<g id="edge65" class="edge">
<title>28&#45;&gt;21</title>
<path fill="none" stroke="black" d="M899.72,-1595.28C938.69,-1591.86 1013.39,-1585.42 1077,-1580.65 1196.93,-1571.66 1227.23,-1573.54 1347,-1562.65 1501.48,-1548.6 1684.87,-1525.45 1762.41,-1515.36"/>
<polygon fill="black" stroke="black" points="1762.53,-1518.87 1771.99,-1514.11 1761.63,-1511.93 1762.53,-1518.87"/>
<text xml:space="preserve" text-anchor="middle" x="1513.65" y="-1549.35" font-family="Times,serif" font-size="14.00">3</text>
</g>
<!-- 29&#45;&gt;2 -->
<g id="edge144" class="edge">
<title>29&#45;&gt;2</title>
<path fill="none" stroke="black" d="M1123.77,-2345.57C1008.02,-2345.55 569.79,-2342.65 439,-2300.65 415.32,-2293.05 391.58,-2277.82 374.44,-2265.12"/>
<polygon fill="black" stroke="black" points="376.91,-2262.61 366.84,-2259.32 372.66,-2268.17 376.91,-2262.61"/>
<text xml:space="preserve" text-anchor="middle" x="443.5" y="-2287.35" font-family="Times,serif" font-size="14.00">3</text>
</g>
<!-- 29&#45;&gt;13 -->
<g id="edge7" class="edge">
<title>29&#45;&gt;13</title>
<path fill="none" stroke="black" d="M1180.26,-2345.14C1328.56,-2343.13 2018.01,-2332.22 2229,-2300.65 2306.87,-2289 2397,-2323.14 2397,-2244.4 2397,-2244.4 2397,-2244.4 2397,-873.8 2397,-805.13 2302.58,-331.07 2276,-267.75 2268.66,-250.27 2266.22,-245.03 2252,-232.5 2135.54,-129.92 1939.59,-111.69 1856.79,-108.7"/>
<polygon fill="black" stroke="black" points="1857.03,-105.2 1846.93,-108.4 1856.82,-112.2 1857.03,-105.2"/>
<text xml:space="preserve" text-anchor="middle" x="2401.5" y="-1236.98" font-family="Times,serif" font-size="14.00">2</text>
</g>
<!-- 29&#45;&gt;16 -->
<g id="edge150" class="edge">
<title>29&#45;&gt;16</title>
<path fill="none" stroke="black" d="M1180.14,-2345.69C1335.76,-2346.55 2092.31,-2348.19 2320,-2300.65 2375.7,-2289.02 2435,-2301.3 2435,-2244.4 2435,-2244.4 2435,-2244.4 2435,-106.25 2435,-61.15 2390.96,-67.73 2348,-54 2272.19,-29.77 2032.67,-21.93 1938.53,-19.75"/>
<polygon fill="black" stroke="black" points="1938.86,-16.25 1928.79,-19.53 1938.7,-23.25 1938.86,-16.25"/>
<text xml:space="preserve" text-anchor="middle" x="2439.5" y="-1192.35" font-family="Times,serif" font-size="14.00">0</text>
</g>
<!-- 29&#45;&gt;20 -->
<g id="edge4" class="edge">
<title>29&#45;&gt;20</title>
<path fill="none" stroke="black" d="M1180.12,-2344.57C1357.43,-2338.51 2313,-2303.14 2313,-2244.4 2313,-2244.4 2313,-2244.4 2313,-1196.03 2313,-1133.84 2009.57,-801.06 1965,-757.7 1955.44,-748.4 1950.69,-748.86 1941,-739.7 1910.91,-711.26 1910.37,-697.63 1881,-668.45 1833.03,-620.79 1819.41,-609.96 1764,-571.2 1693.62,-521.97 1674.84,-510.25 1597,-473.95 1529.1,-442.29 1445.13,-417.05 1397.25,-403.87"/>
<polygon fill="black" stroke="black" points="1398.2,-400.5 1387.63,-401.25 1396.36,-407.25 1398.2,-400.5"/>
<text xml:space="preserve" text-anchor="middle" x="2317.5" y="-1370.85" font-family="Times,serif" font-size="14.00">1</text>
</g>
<!-- 29&#45;&gt;23 -->
<g id="edge100" class="edge">
<title>29&#45;&gt;23</title>
<path fill="none" stroke="black" d="M1123.79,-2345.7C981.69,-2346.47 343.67,-2347.23 152,-2300.65 93.98,-2286.55 30,-2304.11 30,-2244.4 30,-2244.4 30,-2244.4 30,-1463.78 30,-1325.79 38,-1291.39 38,-1153.4 38,-1153.4 38,-1153.4 38,-685.45 38,-614.24 143.22,-598.27 202.15,-594.91"/>
<polygon fill="black" stroke="black" points="202.28,-598.4 212.11,-594.45 201.96,-591.41 202.28,-598.4"/>
<text xml:space="preserve" text-anchor="middle" x="34.5" y="-1460.1" font-family="Times,serif" font-size="14.00">4</text>
</g>
</g>
</svg>
