<?xml version="1.0" encoding="UTF-8" standalone="no"?>
<!DOCTYPE svg PUBLIC "-//W3C//DTD SVG 1.1//EN"
 "http://www.w3.org/Graphics/SVG/1.1/DTD/svg11.dtd">
<!-- Generated by graphviz version 13.0.1 (20250616.1512)
 -->
<!-- Pages: 1 -->
<svg width="2594pt" height="2318pt"
 viewBox="0.00 0.00 2594.00 2318.00" xmlns="http://www.w3.org/2000/svg" xmlns:xlink="http://www.w3.org/1999/xlink">
<g id="graph0" class="graph" transform="scale(1 1) rotate(0) translate(4 2314.05)">
<polygon fill="white" stroke="none" points="-4,4 -4,-2314.05 2590.42,-2314.05 2590.42,4 -4,4"/>
<!-- fake -->
<g id="node1" class="node">
<title>fake</title>
</g>
<!-- 0 -->
<g id="node2" class="node">
<title>0</title>
<ellipse fill="none" stroke="black" cx="793.8" cy="-2215.05" rx="18" ry="18"/>
<ellipse fill="none" stroke="black" cx="793.8" cy="-2215.05" rx="22" ry="22"/>
<text xml:space="preserve" text-anchor="middle" x="793.8" y="-2210.38" font-family="Times,serif" font-size="14.00">0</text>
</g>
<!-- fake&#45;&gt;0 -->
<g id="edge1" class="edge">
<title>fake&#45;&gt;0</title>
<path fill="none" stroke="black" stroke-width="2" d="M793.8,-2273.66C793.8,-2266.22 793.8,-2257.28 793.8,-2248.69"/>
<polygon fill="black" stroke="black" stroke-width="2" points="797.3,-2250.4 793.8,-2240.4 790.3,-2250.4 797.3,-2250.4"/>
</g>
<!-- 4 -->
<g id="node6" class="node">
<title>4</title>
<ellipse fill="none" stroke="black" cx="1193.8" cy="-2117.8" rx="18" ry="18"/>
<ellipse fill="none" stroke="black" cx="1193.8" cy="-2117.8" rx="22" ry="22"/>
<text xml:space="preserve" text-anchor="middle" x="1193.8" y="-2113.13" font-family="Times,serif" font-size="14.00">4</text>
</g>
<!-- 0&#45;&gt;4 -->
<g id="edge141" class="edge">
<title>0&#45;&gt;4</title>
<path fill="none" stroke="black" d="M815.99,-2211.57C857.83,-2206.62 951.11,-2194.3 1027.8,-2175.05 1075.93,-2162.97 1130.1,-2143.46 1163.09,-2130.88"/>
<polygon fill="black" stroke="black" points="1163.93,-2134.31 1172.01,-2127.45 1161.42,-2127.77 1163.93,-2134.31"/>
<text xml:space="preserve" text-anchor="middle" x="1087.82" y="-2161.75" font-family="Times,serif" font-size="14.00">1</text>
</g>
<!-- 7 -->
<g id="node9" class="node">
<title>7</title>
<ellipse fill="none" stroke="black" cx="706.8" cy="-402.7" rx="27" ry="18"/>
<text xml:space="preserve" text-anchor="middle" x="706.8" y="-398.03" font-family="Times,serif" font-size="14.00">7</text>
</g>
<!-- 0&#45;&gt;7 -->
<g id="edge77" class="edge">
<title>0&#45;&gt;7</title>
<path fill="none" stroke="black" d="M771.4,-2214.36C677.8,-2215.04 322.8,-2211.51 322.8,-2118.8 322.8,-2118.8 322.8,-2118.8 322.8,-1717.35 322.8,-1657.78 346.8,-1645.05 346.8,-1585.48 346.8,-1585.48 346.8,-1585.48 346.8,-1232.65 346.8,-1139.75 385.04,-1122.9 420.8,-1037.15 440.98,-988.78 450.17,-978.49 469.8,-929.9 537.31,-762.85 478.2,-675.85 604.8,-547.65 621.11,-531.14 636.58,-545.2 653.8,-529.65 668.93,-516 687.61,-463.98 698.28,-431.21"/>
<polygon fill="black" stroke="black" points="701.52,-432.55 701.23,-421.96 694.85,-430.42 701.52,-432.55"/>
<text xml:space="preserve" text-anchor="middle" x="351.3" y="-1273.6" font-family="Times,serif" font-size="14.00">4</text>
</g>
<!-- 10 -->
<g id="node12" class="node">
<title>10</title>
<ellipse fill="none" stroke="black" cx="589.8" cy="-501.8" rx="23.85" ry="23.85"/>
<ellipse fill="none" stroke="black" cx="589.8" cy="-501.8" rx="27.85" ry="27.85"/>
<text xml:space="preserve" text-anchor="middle" x="589.8" y="-497.13" font-family="Times,serif" font-size="14.00">10</text>
</g>
<!-- 0&#45;&gt;10 -->
<g id="edge55" class="edge">
<title>0&#45;&gt;10</title>
<path fill="none" stroke="black" d="M771.49,-2213.58C677.56,-2211.43 313.96,-2201.52 202.8,-2175.05 146.68,-2161.69 85.8,-2176.5 85.8,-2118.8 85.8,-2118.8 85.8,-2118.8 85.8,-1098.78 85.8,-955.27 211.81,-967.03 279.8,-840.65 303.62,-796.39 290.74,-776.5 317.8,-734.15 381.53,-634.45 410.77,-615.36 507.8,-547.65 523.13,-536.96 529.36,-538.53 545.8,-529.65 549.48,-527.66 553.29,-525.51 557.05,-523.31"/>
<polygon fill="black" stroke="black" points="558.7,-526.4 565.48,-518.26 555.1,-520.39 558.7,-526.4"/>
<text xml:space="preserve" text-anchor="middle" x="90.3" y="-1318.23" font-family="Times,serif" font-size="14.00">3</text>
</g>
<!-- 11 -->
<g id="node13" class="node">
<title>11</title>
<ellipse fill="none" stroke="black" cx="1910.8" cy="-1055.15" rx="27" ry="18"/>
<text xml:space="preserve" text-anchor="middle" x="1910.8" y="-1050.48" font-family="Times,serif" font-size="14.00">11</text>
</g>
<!-- 0&#45;&gt;11 -->
<g id="edge111" class="edge">
<title>0&#45;&gt;11</title>
<path fill="none" stroke="black" d="M816.25,-2213.89C1006.37,-2212.35 2339.8,-2198.72 2339.8,-2118.8 2339.8,-2118.8 2339.8,-2118.8 2339.8,-1672.73 2339.8,-1620.64 2268.11,-1256.5 2235.8,-1215.65 2215.93,-1190.52 2021.52,-1104.23 1943.23,-1070.15"/>
<polygon fill="black" stroke="black" points="1944.94,-1067.08 1934.37,-1066.31 1942.15,-1073.5 1944.94,-1067.08"/>
<text xml:space="preserve" text-anchor="middle" x="2341.96" y="-1624.43" font-family="Times,serif" font-size="14.00">2</text>
</g>
<!-- 26 -->
<g id="node28" class="node">
<title>26</title>
<ellipse fill="none" stroke="black" cx="2113.8" cy="-965.9" rx="27" ry="18"/>
<text xml:space="preserve" text-anchor="middle" x="2113.8" y="-961.23" font-family="Times,serif" font-size="14.00">26</text>
</g>
<!-- 0&#45;&gt;26 -->
<g id="edge109" class="edge">
<title>0&#45;&gt;26</title>
<path fill="none" stroke="black" d="M816.19,-2214.01C1016.34,-2213.51 2490.8,-2206.82 2490.8,-2118.8 2490.8,-2118.8 2490.8,-2118.8 2490.8,-1628.1 2490.8,-1377.24 2499.49,-1263.08 2316.8,-1091.15 2264.21,-1041.65 2188.8,-1001.83 2146.25,-981.54"/>
<polygon fill="black" stroke="black" points="2147.83,-978.41 2137.29,-977.33 2144.86,-984.75 2147.83,-978.41"/>
<text xml:space="preserve" text-anchor="middle" x="2495.36" y="-1579.8" font-family="Times,serif" font-size="14.00">0</text>
</g>
<!-- 1 -->
<g id="node3" class="node">
<title>1</title>
<ellipse fill="none" stroke="black" cx="1570.8" cy="-876.65" rx="27" ry="18"/>
<text xml:space="preserve" text-anchor="middle" x="1570.8" y="-871.98" font-family="Times,serif" font-size="14.00">1</text>
</g>
<!-- 1&#45;&gt;1 -->
<g id="edge134" class="edge">
<title>1&#45;&gt;1</title>
<path fill="none" stroke="black" d="M1595.34,-884.89C1606.31,-885.67 1615.8,-882.93 1615.8,-876.65 1615.8,-872.73 1612.1,-870.19 1606.64,-869.02"/>
<polygon fill="black" stroke="black" points="1607.02,-865.54 1596.85,-868.5 1606.65,-872.53 1607.02,-865.54"/>
<text xml:space="preserve" text-anchor="middle" x="1620.3" y="-871.98" font-family="Times,serif" font-size="14.00">3</text>
</g>
<!-- 12 -->
<g id="node14" class="node">
<title>12</title>
<ellipse fill="none" stroke="black" cx="2341.8" cy="-787.4" rx="27" ry="18"/>
<text xml:space="preserve" text-anchor="middle" x="2341.8" y="-782.73" font-family="Times,serif" font-size="14.00">12</text>
</g>
<!-- 1&#45;&gt;12 -->
<g id="edge11" class="edge">
<title>1&#45;&gt;12</title>
<path fill="none" stroke="black" d="M1596.04,-869.73C1643.76,-858.76 1750.59,-835.34 1841.8,-823.4 2013.03,-800.98 2219.26,-792.29 2303.32,-789.51"/>
<polygon fill="black" stroke="black" points="2303.19,-793.02 2313.08,-789.2 2302.97,-786.02 2303.19,-793.02"/>
<text xml:space="preserve" text-anchor="middle" x="1846.3" y="-827.35" font-family="Times,serif" font-size="14.00">1</text>
</g>
<!-- 14 -->
<g id="node16" class="node">
<title>14</title>
<ellipse fill="none" stroke="black" cx="1579.8" cy="-1233.65" rx="27" ry="18"/>
<text xml:space="preserve" text-anchor="middle" x="1579.8" y="-1228.98" font-family="Times,serif" font-size="14.00">14</text>
</g>
<!-- 1&#45;&gt;14 -->
<g id="edge4" class="edge">
<title>1&#45;&gt;14</title>
<path fill="none" stroke="black" d="M1585.33,-892.03C1590.29,-897.9 1595.23,-905.1 1597.8,-912.65 1607.07,-939.84 1589.68,-1131.39 1582.6,-1204.44"/>
<polygon fill="black" stroke="black" points="1579.16,-1203.69 1581.67,-1213.98 1586.13,-1204.37 1579.16,-1203.69"/>
<text xml:space="preserve" text-anchor="middle" x="1601.11" y="-1050.48" font-family="Times,serif" font-size="14.00">4</text>
</g>
<!-- 1&#45;&gt;14 -->
<g id="edge69" class="edge">
<title>1&#45;&gt;14</title>
<path fill="none" stroke="black" d="M1571.22,-895C1572.36,-943.07 1575.71,-1082.1 1578.8,-1197.65 1578.86,-1199.7 1578.92,-1201.82 1578.98,-1203.96"/>
<polygon fill="black" stroke="black" points="1575.47,-1203.79 1579.25,-1213.69 1582.47,-1203.6 1575.47,-1203.79"/>
<text xml:space="preserve" text-anchor="middle" x="1580.02" y="-1050.48" font-family="Times,serif" font-size="14.00">0</text>
</g>
<!-- 15 -->
<g id="node17" class="node">
<title>15</title>
<ellipse fill="none" stroke="black" cx="1385.8" cy="-1718.35" rx="27" ry="18"/>
<text xml:space="preserve" text-anchor="middle" x="1385.8" y="-1713.68" font-family="Times,serif" font-size="14.00">15</text>
</g>
<!-- 1&#45;&gt;15 -->
<g id="edge116" class="edge">
<title>1&#45;&gt;15</title>
<path fill="none" stroke="black" d="M1562.05,-894C1530.4,-954.66 1423.8,-1173.32 1423.8,-1366.53 1423.8,-1630.1 1423.8,-1630.1 1423.8,-1630.1 1423.8,-1652.4 1413.24,-1675.44 1403.25,-1692.24"/>
<polygon fill="black" stroke="black" points="1400.38,-1690.23 1398.01,-1700.56 1406.3,-1693.96 1400.38,-1690.23"/>
<text xml:space="preserve" text-anchor="middle" x="1436.05" y="-1273.6" font-family="Times,serif" font-size="14.00">2</text>
</g>
<!-- 2 -->
<g id="node4" class="node">
<title>2</title>
<ellipse fill="none" stroke="black" cx="1336.8" cy="-1896.85" rx="27" ry="18"/>
<text xml:space="preserve" text-anchor="middle" x="1336.8" y="-1892.18" font-family="Times,serif" font-size="14.00">2</text>
</g>
<!-- 3 -->
<g id="node5" class="node">
<title>3</title>
<ellipse fill="none" stroke="black" cx="657.8" cy="-1807.6" rx="27" ry="18"/>
<text xml:space="preserve" text-anchor="middle" x="657.8" y="-1802.93" font-family="Times,serif" font-size="14.00">3</text>
</g>
<!-- 2&#45;&gt;3 -->
<g id="edge100" class="edge">
<title>2&#45;&gt;3</title>
<path fill="none" stroke="black" d="M1310.19,-1892.43C1205.07,-1878.92 818.57,-1829.26 695.62,-1813.46"/>
<polygon fill="black" stroke="black" points="696.1,-1809.99 685.74,-1812.19 695.21,-1816.94 696.1,-1809.99"/>
<text xml:space="preserve" text-anchor="middle" x="1062.62" y="-1847.55" font-family="Times,serif" font-size="14.00">2</text>
</g>
<!-- 2&#45;&gt;12 -->
<g id="edge102" class="edge">
<title>2&#45;&gt;12</title>
<path fill="none" stroke="black" d="M1363.43,-1892.32C1404.2,-1886.74 1484.45,-1875.03 1551.8,-1860.85 1779.43,-1812.93 1848.81,-1809.18 2043.8,-1682.35 2098.04,-1647.08 2120.32,-1645.11 2158.8,-1593.1 2241.03,-1481.96 2379.8,-1149.78 2379.8,-1011.53 2379.8,-1011.53 2379.8,-1011.53 2379.8,-875.65 2379.8,-853.35 2369.24,-830.31 2359.25,-813.51"/>
<polygon fill="black" stroke="black" points="2362.3,-811.79 2354.01,-805.2 2356.38,-815.52 2362.3,-811.79"/>
<text xml:space="preserve" text-anchor="middle" x="2307.39" y="-1318.23" font-family="Times,serif" font-size="14.00">4</text>
</g>
<!-- 2&#45;&gt;15 -->
<g id="edge78" class="edge">
<title>2&#45;&gt;15</title>
<path fill="none" stroke="black" d="M1341.5,-1878.93C1349.93,-1848.56 1367.7,-1784.55 1377.99,-1747.49"/>
<polygon fill="black" stroke="black" points="1381.34,-1748.51 1380.64,-1737.94 1374.6,-1746.64 1381.34,-1748.51"/>
<text xml:space="preserve" text-anchor="middle" x="1370.67" y="-1802.93" font-family="Times,serif" font-size="14.00">1</text>
</g>
<!-- 2&#45;&gt;26 -->
<g id="edge12" class="edge">
<title>2&#45;&gt;26</title>
<path fill="none" stroke="black" d="M1362.24,-1890.08C1452.63,-1868.25 1761.58,-1782.19 1922.8,-1593.1 1964.05,-1544.73 2036.82,-1400.91 2057.8,-1340.9 2105.8,-1203.67 2103.64,-1163.94 2116.8,-1019.15 2117.51,-1011.43 2117.41,-1003.05 2116.96,-995.32"/>
<polygon fill="black" stroke="black" points="2120.45,-995.06 2116.17,-985.37 2113.48,-995.62 2120.45,-995.06"/>
<text xml:space="preserve" text-anchor="middle" x="2040.12" y="-1417.33" font-family="Times,serif" font-size="14.00">0</text>
</g>
<!-- 27 -->
<g id="node29" class="node">
<title>27</title>
<ellipse fill="none" stroke="black" cx="1368.8" cy="-2024.55" rx="27" ry="18"/>
<text xml:space="preserve" text-anchor="middle" x="1368.8" y="-2019.88" font-family="Times,serif" font-size="14.00">27</text>
</g>
<!-- 2&#45;&gt;27 -->
<g id="edge43" class="edge">
<title>2&#45;&gt;27</title>
<path fill="none" stroke="black" d="M1333.55,-1914.9C1330.74,-1933.64 1328.46,-1964.31 1337.8,-1988.55 1339.54,-1993.07 1342.16,-1997.38 1345.14,-2001.34"/>
<polygon fill="black" stroke="black" points="1342.34,-2003.46 1351.54,-2008.71 1347.63,-1998.87 1342.34,-2003.46"/>
<text xml:space="preserve" text-anchor="middle" x="1342.3" y="-1956.03" font-family="Times,serif" font-size="14.00">3</text>
</g>
<!-- 3&#45;&gt;15 -->
<g id="edge96" class="edge">
<title>3&#45;&gt;15</title>
<path fill="none" stroke="black" d="M684.48,-1803.64C768.79,-1794.26 1037.04,-1764.15 1258.8,-1736.35 1288.91,-1732.58 1322.99,-1728 1348.26,-1724.55"/>
<polygon fill="black" stroke="black" points="1348.62,-1728.03 1358.05,-1723.2 1347.67,-1721.09 1348.62,-1728.03"/>
<text xml:space="preserve" text-anchor="middle" x="1115.01" y="-1758.3" font-family="Times,serif" font-size="14.00">3</text>
</g>
<!-- 16 -->
<g id="node18" class="node">
<title>16</title>
<ellipse fill="none" stroke="black" cx="907.8" cy="-313.45" rx="27" ry="18"/>
<text xml:space="preserve" text-anchor="middle" x="907.8" y="-308.78" font-family="Times,serif" font-size="14.00">16</text>
</g>
<!-- 3&#45;&gt;16 -->
<g id="edge6" class="edge">
<title>3&#45;&gt;16</title>
<path fill="none" stroke="black" d="M646.52,-1790.85C626.76,-1762.84 585.28,-1702.12 556.8,-1647.1 525.15,-1585.95 522.37,-1568.18 497.8,-1503.85 476.34,-1447.63 462.95,-1435.47 452.8,-1376.15 404.7,-1094.88 424.22,-1017.15 460.8,-734.15 476.53,-612.5 473.32,-567.37 552.8,-473.95 595.41,-423.87 617.35,-423 670.8,-384.7 693.5,-368.44 696.99,-360.1 722.8,-349.45 748.86,-338.7 823.79,-326.55 869.9,-319.76"/>
<polygon fill="black" stroke="black" points="870.35,-323.23 879.74,-318.33 869.34,-316.31 870.35,-323.23"/>
<text xml:space="preserve" text-anchor="middle" x="430.39" y="-1050.48" font-family="Times,serif" font-size="14.00">4</text>
</g>
<!-- 22 -->
<g id="node24" class="node">
<title>22</title>
<ellipse fill="none" stroke="black" cx="1100.8" cy="-501.8" rx="27" ry="18"/>
<text xml:space="preserve" text-anchor="middle" x="1100.8" y="-497.13" font-family="Times,serif" font-size="14.00">22</text>
</g>
<!-- 3&#45;&gt;22 -->
<g id="edge83" class="edge">
<title>3&#45;&gt;22</title>
<path fill="none" stroke="black" d="M661.22,-1789.5C664.7,-1767.37 667.61,-1728.34 651.8,-1700.35 631.16,-1663.8 593.41,-1684.22 573.8,-1647.1 509.85,-1526 602.75,-1160.71 661.8,-1037.15 682.63,-993.57 694.53,-986.32 723.8,-947.9 820.53,-820.97 850.38,-793.69 953.8,-672.15 998.54,-619.57 1051.84,-558.58 1080.36,-526.05"/>
<polygon fill="black" stroke="black" points="1082.76,-528.63 1086.73,-518.8 1077.5,-524.01 1082.76,-528.63"/>
<text xml:space="preserve" text-anchor="middle" x="631.41" y="-1139.73" font-family="Times,serif" font-size="14.00">2</text>
</g>
<!-- 3&#45;&gt;26 -->
<g id="edge125" class="edge">
<title>3&#45;&gt;26</title>
<path fill="none" stroke="black" d="M685.22,-1806.53C835.11,-1805.71 1555.43,-1795.84 1739.8,-1682.35 1871.65,-1601.2 2012.25,-1213.4 2077.8,-1073.15 2088.78,-1049.67 2091.55,-1043.72 2099.8,-1019.15 2102.42,-1011.38 2104.88,-1002.82 2106.98,-994.93"/>
<polygon fill="black" stroke="black" points="2110.32,-996.03 2109.42,-985.47 2103.54,-994.28 2110.32,-996.03"/>
<text xml:space="preserve" text-anchor="middle" x="1957.26" y="-1362.85" font-family="Times,serif" font-size="14.00">1</text>
</g>
<!-- 3&#45;&gt;27 -->
<g id="edge87" class="edge">
<title>3&#45;&gt;27</title>
<path fill="none" stroke="black" d="M655.73,-1825.93C652.41,-1862.67 650.66,-1948.3 699.8,-1988.55 724.7,-2008.95 1246.81,-2003.06 1278.8,-2006.55 1296.48,-2008.49 1315.9,-2011.97 1332.15,-2015.29"/>
<polygon fill="black" stroke="black" points="1331.37,-2018.7 1341.88,-2017.34 1332.81,-2011.85 1331.37,-2018.7"/>
<text xml:space="preserve" text-anchor="middle" x="664.01" y="-1892.18" font-family="Times,serif" font-size="14.00">0</text>
</g>
<!-- 4&#45;&gt;0 -->
<g id="edge129" class="edge">
<title>4&#45;&gt;0</title>
<path fill="none" stroke="black" d="M1172.21,-2123.43C1139.13,-2130.56 1073.94,-2144.77 1018.8,-2157.8 950.07,-2174.05 869.89,-2194.44 826.22,-2205.67"/>
<polygon fill="black" stroke="black" points="825.44,-2202.26 816.63,-2208.14 827.19,-2209.04 825.44,-2202.26"/>
<text xml:space="preserve" text-anchor="middle" x="1023.3" y="-2161.75" font-family="Times,serif" font-size="14.00">2</text>
</g>
<!-- 4&#45;&gt;2 -->
<g id="edge137" class="edge">
<title>4&#45;&gt;2</title>
<path fill="none" stroke="black" d="M1205.51,-2098.88C1230.82,-2060.13 1290.72,-1968.41 1320.05,-1923.51"/>
<polygon fill="black" stroke="black" points="1322.95,-1925.47 1325.49,-1915.18 1317.09,-1921.64 1322.95,-1925.47"/>
<text xml:space="preserve" text-anchor="middle" x="1269.8" y="-2019.88" font-family="Times,serif" font-size="14.00">4</text>
</g>
<!-- 18 -->
<g id="node20" class="node">
<title>18</title>
<ellipse fill="none" stroke="black" cx="2146.8" cy="-1960.7" rx="23.85" ry="23.85"/>
<ellipse fill="none" stroke="black" cx="2146.8" cy="-1960.7" rx="27.85" ry="27.85"/>
<text xml:space="preserve" text-anchor="middle" x="2146.8" y="-1956.03" font-family="Times,serif" font-size="14.00">18</text>
</g>
<!-- 4&#45;&gt;18 -->
<g id="edge37" class="edge">
<title>4&#45;&gt;18</title>
<path fill="none" stroke="black" d="M1216.11,-2116.97C1343.17,-2117.76 1972.49,-2119.55 2046.8,-2077.8 2080.09,-2059.1 2069.46,-2035.11 2094.8,-2006.55 2096.97,-2004.11 2106.83,-1995.53 2117.39,-1986.51"/>
<polygon fill="black" stroke="black" points="2119.36,-1989.43 2124.72,-1980.28 2114.83,-1984.09 2119.36,-1989.43"/>
<text xml:space="preserve" text-anchor="middle" x="2070.3" y="-2064.5" font-family="Times,serif" font-size="14.00">1</text>
</g>
<!-- 4&#45;&gt;18 -->
<g id="edge82" class="edge">
<title>4&#45;&gt;18</title>
<path fill="none" stroke="black" d="M1216.25,-2116.63C1354.52,-2115.47 2086.09,-2107.91 2121.8,-2077.8 2143.88,-2059.19 2149.29,-2026.2 2149.65,-2000.13"/>
<polygon fill="black" stroke="black" points="2153.15,-2000.18 2149.53,-1990.22 2146.15,-2000.27 2153.15,-2000.18"/>
<text xml:space="preserve" text-anchor="middle" x="2140.4" y="-2064.5" font-family="Times,serif" font-size="14.00">0</text>
</g>
<!-- 4&#45;&gt;27 -->
<g id="edge26" class="edge">
<title>4&#45;&gt;27</title>
<path fill="none" stroke="black" d="M1213.2,-2106.69C1243.41,-2090.94 1301.97,-2060.4 1338,-2041.61"/>
<polygon fill="black" stroke="black" points="1339.37,-2044.85 1346.62,-2037.12 1336.14,-2038.64 1339.37,-2044.85"/>
<text xml:space="preserve" text-anchor="middle" x="1301.48" y="-2064.5" font-family="Times,serif" font-size="14.00">3</text>
</g>
<!-- 5 -->
<g id="node7" class="node">
<title>5</title>
<ellipse fill="none" stroke="black" cx="821.8" cy="-1629.1" rx="27" ry="18"/>
<text xml:space="preserve" text-anchor="middle" x="821.8" y="-1624.43" font-family="Times,serif" font-size="14.00">5</text>
</g>
<!-- 5&#45;&gt;0 -->
<g id="edge86" class="edge">
<title>5&#45;&gt;0</title>
<path fill="none" stroke="black" d="M794.73,-1630.29C746.1,-1632.13 643.67,-1643.05 585.8,-1700.35 500.09,-1785.22 505.8,-1839.08 505.8,-1959.7 505.8,-2118.8 505.8,-2118.8 505.8,-2118.8 505.8,-2171.92 684.6,-2200.46 760.44,-2210.18"/>
<polygon fill="black" stroke="black" points="759.83,-2213.63 770.18,-2211.4 760.69,-2206.69 759.83,-2213.63"/>
<text xml:space="preserve" text-anchor="middle" x="510.78" y="-1892.18" font-family="Times,serif" font-size="14.00">4</text>
</g>
<!-- 5&#45;&gt;15 -->
<g id="edge97" class="edge">
<title>5&#45;&gt;15</title>
<path fill="none" stroke="black" d="M849.19,-1630.36C931.72,-1631.46 1176.83,-1637.05 1250.8,-1665.1 1262.75,-1669.63 1262.43,-1676.53 1273.8,-1682.35 1297.74,-1694.61 1326.77,-1703.53 1349.27,-1709.3"/>
<polygon fill="black" stroke="black" points="1348.37,-1712.68 1358.91,-1711.67 1350.04,-1705.88 1348.37,-1712.68"/>
<text xml:space="preserve" text-anchor="middle" x="1278.3" y="-1669.05" font-family="Times,serif" font-size="14.00">2</text>
</g>
<!-- 5&#45;&gt;16 -->
<g id="edge85" class="edge">
<title>5&#45;&gt;16</title>
<path fill="none" stroke="black" d="M815.9,-1611.29C810.32,-1593.89 802.8,-1565.81 802.8,-1540.85 802.8,-1540.85 802.8,-1540.85 802.8,-1366.53 802.8,-1017.82 625.33,-902.94 763.8,-582.9 770.56,-567.29 808.57,-543.24 818.8,-529.65 851.8,-485.83 855.59,-471.29 876.8,-420.7 887.59,-394.98 896.11,-364.28 901.46,-342.51"/>
<polygon fill="black" stroke="black" points="904.84,-343.43 903.76,-332.89 898.03,-341.8 904.84,-343.43"/>
<text xml:space="preserve" text-anchor="middle" x="740.51" y="-961.23" font-family="Times,serif" font-size="14.00">3</text>
</g>
<!-- 19 -->
<g id="node21" class="node">
<title>19</title>
<ellipse fill="none" stroke="black" cx="726.8" cy="-1485.85" rx="27" ry="18"/>
<text xml:space="preserve" text-anchor="middle" x="726.8" y="-1481.18" font-family="Times,serif" font-size="14.00">19</text>
</g>
<!-- 5&#45;&gt;19 -->
<g id="edge22" class="edge">
<title>5&#45;&gt;19</title>
<path fill="none" stroke="black" d="M803.57,-1615.57C795.58,-1609.46 786.52,-1601.59 779.8,-1593.1 769.4,-1579.96 750.83,-1540.65 738.67,-1513.71"/>
<polygon fill="black" stroke="black" points="741.94,-1512.46 734.66,-1504.77 735.55,-1515.32 741.94,-1512.46"/>
<text xml:space="preserve" text-anchor="middle" x="784.3" y="-1579.8" font-family="Times,serif" font-size="14.00">1</text>
</g>
<!-- 21 -->
<g id="node23" class="node">
<title>21</title>
<ellipse fill="none" stroke="black" cx="1163.8" cy="-1539.85" rx="27" ry="18"/>
<text xml:space="preserve" text-anchor="middle" x="1163.8" y="-1535.18" font-family="Times,serif" font-size="14.00">21</text>
</g>
<!-- 5&#45;&gt;21 -->
<g id="edge93" class="edge">
<title>5&#45;&gt;21</title>
<path fill="none" stroke="black" d="M848.14,-1624.76C903.77,-1617.58 1029.65,-1600.75 1047.8,-1593.1 1059.58,-1588.14 1059.6,-1582 1070.8,-1575.85 1089,-1565.87 1110.64,-1557.54 1128.47,-1551.51"/>
<polygon fill="black" stroke="black" points="1129.42,-1554.88 1137.84,-1548.45 1127.25,-1548.23 1129.42,-1554.88"/>
<text xml:space="preserve" text-anchor="middle" x="1075.3" y="-1579.8" font-family="Times,serif" font-size="14.00">0</text>
</g>
<!-- 6 -->
<g id="node8" class="node">
<title>6</title>
<ellipse fill="none" stroke="black" cx="1629.8" cy="-1144.4" rx="27" ry="18"/>
<text xml:space="preserve" text-anchor="middle" x="1629.8" y="-1139.73" font-family="Times,serif" font-size="14.00">6</text>
</g>
<!-- 6&#45;&gt;11 -->
<g id="edge131" class="edge">
<title>6&#45;&gt;11</title>
<path fill="none" stroke="black" d="M1653.76,-1135.96C1703.41,-1120.55 1817.71,-1085.06 1875.7,-1067.05"/>
<polygon fill="black" stroke="black" points="1876.55,-1070.45 1885.06,-1064.14 1874.47,-1063.77 1876.55,-1070.45"/>
<text xml:space="preserve" text-anchor="middle" x="1799.97" y="-1095.1" font-family="Times,serif" font-size="14.00">4</text>
</g>
<!-- 6&#45;&gt;16 -->
<g id="edge79" class="edge">
<title>6&#45;&gt;16</title>
<path fill="none" stroke="black" d="M1625.09,-1126.35C1621.83,-1115.85 1616.97,-1102.3 1610.8,-1091.15 1605.9,-1082.28 1601.64,-1082.06 1596.8,-1073.15 1556.71,-999.36 1556.49,-975.79 1534.8,-894.65 1494.27,-742.99 1562.72,-673.45 1468.8,-547.65 1337.7,-372.05 1049.86,-327.87 946.07,-317.46"/>
<polygon fill="black" stroke="black" points="946.42,-313.98 936.14,-316.52 945.76,-320.95 946.42,-313.98"/>
<text xml:space="preserve" text-anchor="middle" x="1525.87" y="-738.1" font-family="Times,serif" font-size="14.00">1</text>
</g>
<!-- 17 -->
<g id="node19" class="node">
<title>17</title>
<ellipse fill="none" stroke="black" cx="1773.8" cy="-111.25" rx="27" ry="18"/>
<text xml:space="preserve" text-anchor="middle" x="1773.8" y="-106.58" font-family="Times,serif" font-size="14.00">17</text>
</g>
<!-- 6&#45;&gt;17 -->
<g id="edge63" class="edge">
<title>6&#45;&gt;17</title>
<path fill="none" stroke="black" d="M1630.07,-1126.17C1631.84,-1012.06 1641.95,-369.18 1645.8,-349.45 1663.91,-256.86 1664.95,-226.54 1721.8,-151.25 1727.91,-143.16 1736.14,-135.94 1744.24,-129.99"/>
<polygon fill="black" stroke="black" points="1746.05,-132.99 1752.32,-124.45 1742.09,-127.22 1746.05,-132.99"/>
<text xml:space="preserve" text-anchor="middle" x="1642.84" y="-640.85" font-family="Times,serif" font-size="14.00">3</text>
</g>
<!-- 6&#45;&gt;27 -->
<g id="edge13" class="edge">
<title>6&#45;&gt;27</title>
<path fill="none" stroke="black" d="M1608.56,-1155.66C1587.69,-1167.05 1557.11,-1187.61 1543.8,-1215.65 1536.95,-1230.11 1541.3,-1235.85 1543.8,-1251.65 1584.21,-1506.78 1712.18,-1536.5 1763.8,-1789.6 1770.13,-1820.63 1781.42,-1834.54 1763.8,-1860.85 1681.9,-1983.17 1489.54,-2013.62 1407.25,-2021.13"/>
<polygon fill="black" stroke="black" points="1407.12,-2017.63 1397.44,-2021.95 1407.7,-2024.6 1407.12,-2017.63"/>
<text xml:space="preserve" text-anchor="middle" x="1696.16" y="-1579.8" font-family="Times,serif" font-size="14.00">0</text>
</g>
<!-- 6&#45;&gt;27 -->
<g id="edge132" class="edge">
<title>6&#45;&gt;27</title>
<path fill="none" stroke="black" d="M1645.13,-1159.59C1682.94,-1195.38 1781.62,-1293.7 1836.8,-1394.15 1948.58,-1597.61 1918.35,-1686.28 1877.8,-1914.85 1871.71,-1949.2 1878.66,-1967.55 1850.8,-1988.55 1815.73,-2015 1515.54,-2021.6 1407.42,-2023.12"/>
<polygon fill="black" stroke="black" points="1407.56,-2019.62 1397.6,-2023.26 1407.65,-2026.62 1407.56,-2019.62"/>
<text xml:space="preserve" text-anchor="middle" x="1914.69" y="-1579.8" font-family="Times,serif" font-size="14.00">2</text>
</g>
<!-- 7&#45;&gt;10 -->
<g id="edge36" class="edge">
<title>7&#45;&gt;10</title>
<path fill="none" stroke="black" d="M686.33,-414.92C675.37,-421.31 661.89,-429.8 650.8,-438.7 638.31,-448.73 625.71,-461.1 615.23,-472.15"/>
<polygon fill="black" stroke="black" points="612.94,-469.47 608.69,-479.18 618.07,-474.24 612.94,-469.47"/>
<text xml:space="preserve" text-anchor="middle" x="655.3" y="-442.65" font-family="Times,serif" font-size="14.00">2</text>
</g>
<!-- 7&#45;&gt;10 -->
<g id="edge145" class="edge">
<title>7&#45;&gt;10</title>
<path fill="none" stroke="black" d="M695,-418.88C686.03,-429.89 673.01,-444.74 659.8,-455.95 648.72,-465.37 635.51,-474.32 623.57,-481.72"/>
<polygon fill="black" stroke="black" points="621.97,-478.59 615.21,-486.76 625.58,-484.59 621.97,-478.59"/>
<text xml:space="preserve" text-anchor="middle" x="681.03" y="-442.65" font-family="Times,serif" font-size="14.00">4</text>
</g>
<!-- 7&#45;&gt;16 -->
<g id="edge84" class="edge">
<title>7&#45;&gt;16</title>
<path fill="none" stroke="black" d="M714.76,-385.01C721.22,-373.26 731.45,-358.14 744.8,-349.45 782.4,-324.99 834.22,-317.32 869.26,-315.07"/>
<polygon fill="black" stroke="black" points="869.13,-318.58 878.94,-314.58 868.77,-311.59 869.13,-318.58"/>
<text xml:space="preserve" text-anchor="middle" x="749.3" y="-353.4" font-family="Times,serif" font-size="14.00">1</text>
</g>
<!-- 7&#45;&gt;21 -->
<g id="edge76" class="edge">
<title>7&#45;&gt;21</title>
<path fill="none" stroke="black" d="M719.13,-418.99C723.35,-424.87 727.78,-431.82 730.8,-438.7 773.66,-536.19 762.2,-568.08 784.8,-672.15 801.47,-748.9 860.37,-941.08 851.8,-1019.15 848.23,-1051.74 840.76,-1058.75 835.8,-1091.15 833.43,-1106.69 833.47,-1110.69 832.8,-1126.4 831.46,-1158.04 824.11,-1167.2 832.8,-1197.65 856.32,-1280 994.95,-1457.26 1066.8,-1503.85 1085.3,-1515.85 1108.45,-1524.4 1127.49,-1530.05"/>
<polygon fill="black" stroke="black" points="1126.42,-1533.38 1136.99,-1532.71 1128.31,-1526.64 1126.42,-1533.38"/>
<text xml:space="preserve" text-anchor="middle" x="856.5" y="-961.23" font-family="Times,serif" font-size="14.00">0</text>
</g>
<!-- 23 -->
<g id="node25" class="node">
<title>23</title>
<ellipse fill="none" stroke="black" cx="629.8" cy="-600.9" rx="27" ry="18"/>
<text xml:space="preserve" text-anchor="middle" x="629.8" y="-596.23" font-family="Times,serif" font-size="14.00">23</text>
</g>
<!-- 7&#45;&gt;23 -->
<g id="edge61" class="edge">
<title>7&#45;&gt;23</title>
<path fill="none" stroke="black" d="M713.36,-420.65C716.5,-430.88 719.11,-444.17 716.8,-455.95 710.01,-490.66 704.81,-499.21 686.8,-529.65 676.8,-546.57 662.96,-563.73 651.42,-576.86"/>
<polygon fill="black" stroke="black" points="648.97,-574.34 644.89,-584.12 654.18,-579.02 648.97,-574.34"/>
<text xml:space="preserve" text-anchor="middle" x="717.3" y="-497.13" font-family="Times,serif" font-size="14.00">3</text>
</g>
<!-- 8 -->
<g id="node10" class="node">
<title>8</title>
<ellipse fill="none" stroke="black" cx="899.8" cy="-111.25" rx="18" ry="18"/>
<ellipse fill="none" stroke="black" cx="899.8" cy="-111.25" rx="22" ry="22"/>
<text xml:space="preserve" text-anchor="middle" x="899.8" y="-106.58" font-family="Times,serif" font-size="14.00">8</text>
</g>
<!-- 8&#45;&gt;0 -->
<g id="edge68" class="edge">
<title>8&#45;&gt;0</title>
<path fill="none" stroke="black" d="M877.41,-111.79C793.18,-110.41 487.61,-108.84 240.8,-151.25 185.18,-160.81 158.99,-146.87 118.8,-186.5 32.87,-271.25 39.8,-325.63 39.8,-446.33 39.8,-2118.8 39.8,-2118.8 39.8,-2118.8 39.8,-2157.01 69.4,-2160.71 104.8,-2175.05 165.85,-2199.79 630.43,-2210.81 760.22,-2213.42"/>
<polygon fill="black" stroke="black" points="760.13,-2216.92 770.19,-2213.62 760.27,-2209.92 760.13,-2216.92"/>
<text xml:space="preserve" text-anchor="middle" x="44.3" y="-1139.73" font-family="Times,serif" font-size="14.00">2</text>
</g>
<!-- 8&#45;&gt;4 -->
<g id="edge18" class="edge">
<title>8&#45;&gt;4</title>
<path fill="none" stroke="black" d="M877.6,-111.81C750.02,-109.84 115.8,-108.07 115.8,-267.83 115.8,-833.03 115.8,-833.03 115.8,-833.03 115.8,-868.52 111.14,-877.19 109.8,-912.65 109.52,-920.31 109.21,-922.26 109.8,-929.9 144.2,-1375.18 120.48,-1509.9 308.8,-1914.85 338.86,-1979.48 353.64,-1993.98 405.8,-2042.55 426.78,-2062.08 432.56,-2068.9 459.8,-2077.8 526.85,-2099.7 1025.5,-2112.86 1160.3,-2116.05"/>
<polygon fill="black" stroke="black" points="1159.89,-2119.54 1169.97,-2116.27 1160.06,-2112.54 1159.89,-2119.54"/>
<text xml:space="preserve" text-anchor="middle" x="126.58" y="-1095.1" font-family="Times,serif" font-size="14.00">4</text>
</g>
<!-- 13 -->
<g id="node15" class="node">
<title>13</title>
<ellipse fill="none" stroke="black" cx="1453.8" cy="-18" rx="27" ry="18"/>
<text xml:space="preserve" text-anchor="middle" x="1453.8" y="-13.32" font-family="Times,serif" font-size="14.00">13</text>
</g>
<!-- 8&#45;&gt;13 -->
<g id="edge29" class="edge">
<title>8&#45;&gt;13</title>
<path fill="none" stroke="black" d="M921.52,-106.67C1005.5,-92.84 1309.55,-42.76 1416.38,-25.16"/>
<polygon fill="black" stroke="black" points="1416.75,-28.65 1426.05,-23.57 1415.61,-21.74 1416.75,-28.65"/>
<text xml:space="preserve" text-anchor="middle" x="1230.92" y="-57.95" font-family="Times,serif" font-size="14.00">3</text>
</g>
<!-- 8&#45;&gt;23 -->
<g id="edge58" class="edge">
<title>8&#45;&gt;23</title>
<path fill="none" stroke="black" d="M877.64,-113.64C775.71,-120.58 354.42,-155.41 291.8,-260.2 254.2,-323.13 289.47,-359.49 329.8,-420.7 386.98,-507.46 421.59,-517.03 513.8,-564.9 538.83,-577.9 569.46,-586.88 592.96,-592.49"/>
<polygon fill="black" stroke="black" points="591.86,-595.83 602.39,-594.64 593.42,-589 591.86,-595.83"/>
<text xml:space="preserve" text-anchor="middle" x="298.59" y="-353.4" font-family="Times,serif" font-size="14.00">1</text>
</g>
<!-- 29 -->
<g id="node31" class="node">
<title>29</title>
<ellipse fill="none" stroke="black" cx="1630.8" cy="-1322.9" rx="27" ry="18"/>
<text xml:space="preserve" text-anchor="middle" x="1630.8" y="-1318.23" font-family="Times,serif" font-size="14.00">29</text>
</g>
<!-- 8&#45;&gt;29 -->
<g id="edge14" class="edge">
<title>8&#45;&gt;29</title>
<path fill="none" stroke="black" d="M921.98,-114.42C994.32,-122.1 1218.8,-150.97 1218.8,-213.35 1218.8,-502.8 1218.8,-502.8 1218.8,-502.8 1218.8,-758.41 1177.45,-845.05 1292.8,-1073.15 1325.6,-1138 1342.23,-1152.04 1398.8,-1197.65 1462.19,-1248.76 1549.76,-1288.93 1597.12,-1308.61"/>
<polygon fill="black" stroke="black" points="1595.72,-1311.82 1606.3,-1312.38 1598.37,-1305.35 1595.72,-1311.82"/>
<text xml:space="preserve" text-anchor="middle" x="1216.32" y="-738.1" font-family="Times,serif" font-size="14.00">0</text>
</g>
<!-- 9 -->
<g id="node11" class="node">
<title>9</title>
<ellipse fill="none" stroke="black" cx="1329.8" cy="-694.15" rx="18" ry="18"/>
<ellipse fill="none" stroke="black" cx="1329.8" cy="-694.15" rx="22" ry="22"/>
<text xml:space="preserve" text-anchor="middle" x="1329.8" y="-689.48" font-family="Times,serif" font-size="14.00">9</text>
</g>
<!-- 9&#45;&gt;5 -->
<g id="edge10" class="edge">
<title>9&#45;&gt;5</title>
<path fill="none" stroke="black" d="M1308.62,-701.22C1291.19,-707.16 1266.82,-717.72 1250.8,-734.15 1122.9,-865.37 1164.91,-947.18 1077.8,-1108.4 1061.74,-1138.14 916.8,-1332.72 916.8,-1366.53 916.8,-1540.85 916.8,-1540.85 916.8,-1540.85 916.8,-1575.4 882.3,-1600 854.88,-1614.09"/>
<polygon fill="black" stroke="black" points="853.63,-1610.8 846.16,-1618.31 856.69,-1617.1 853.63,-1610.8"/>
<text xml:space="preserve" text-anchor="middle" x="1070.67" y="-1139.73" font-family="Times,serif" font-size="14.00">4</text>
</g>
<!-- 9&#45;&gt;5 -->
<g id="edge119" class="edge">
<title>9&#45;&gt;5</title>
<path fill="none" stroke="black" d="M1322.55,-715.22C1294.85,-791.28 1191.89,-1068.51 1084.8,-1286.9 1015.8,-1427.64 1028.16,-1490.33 909.8,-1593.1 895.14,-1605.84 875.27,-1614.27 858.12,-1619.66"/>
<polygon fill="black" stroke="black" points="857.42,-1616.22 848.79,-1622.36 859.36,-1622.95 857.42,-1616.22"/>
<text xml:space="preserve" text-anchor="middle" x="1162.91" y="-1139.73" font-family="Times,serif" font-size="14.00">0</text>
</g>
<!-- 9&#45;&gt;8 -->
<g id="edge17" class="edge">
<title>9&#45;&gt;8</title>
<path fill="none" stroke="black" d="M1349.55,-683.51C1375.21,-669.43 1416.8,-640.64 1416.8,-601.9 1416.8,-601.9 1416.8,-601.9 1416.8,-213.35 1416.8,-114.52 1048.32,-110.5 933.53,-111.65"/>
<polygon fill="black" stroke="black" points="933.49,-108.15 923.53,-111.77 933.57,-115.15 933.49,-108.15"/>
<text xml:space="preserve" text-anchor="middle" x="1421.3" y="-398.03" font-family="Times,serif" font-size="14.00">3</text>
</g>
<!-- 20 -->
<g id="node22" class="node">
<title>20</title>
<ellipse fill="none" stroke="black" cx="1100.8" cy="-600.9" rx="27" ry="18"/>
<text xml:space="preserve" text-anchor="middle" x="1100.8" y="-596.23" font-family="Times,serif" font-size="14.00">20</text>
</g>
<!-- 9&#45;&gt;20 -->
<g id="edge103" class="edge">
<title>9&#45;&gt;20</title>
<path fill="none" stroke="black" d="M1309.31,-685.13C1289.28,-677.27 1257.92,-664.94 1230.8,-654.15 1197.78,-641.01 1160.1,-625.85 1133.84,-615.25"/>
<polygon fill="black" stroke="black" points="1135.32,-612.07 1124.73,-611.58 1132.7,-618.57 1135.32,-612.07"/>
<text xml:space="preserve" text-anchor="middle" x="1235.3" y="-640.85" font-family="Times,serif" font-size="14.00">1</text>
</g>
<!-- 9&#45;&gt;23 -->
<g id="edge52" class="edge">
<title>9&#45;&gt;23</title>
<path fill="none" stroke="black" d="M1307.7,-690.27C1207.41,-677.2 794.62,-623.39 667.35,-606.8"/>
<polygon fill="black" stroke="black" points="668.15,-603.37 657.78,-605.55 667.24,-610.31 668.15,-603.37"/>
<text xml:space="preserve" text-anchor="middle" x="1026.21" y="-640.85" font-family="Times,serif" font-size="14.00">2</text>
</g>
<!-- 10&#45;&gt;7 -->
<g id="edge34" class="edge">
<title>10&#45;&gt;7</title>
<path fill="none" stroke="black" d="M597.1,-474.52C601.63,-462.28 608.59,-448.34 618.8,-438.7 632.93,-425.37 652.76,-416.89 670.02,-411.62"/>
<polygon fill="black" stroke="black" points="670.74,-415.06 679.44,-409.01 668.87,-408.31 670.74,-415.06"/>
<text xml:space="preserve" text-anchor="middle" x="623.3" y="-442.65" font-family="Times,serif" font-size="14.00">3</text>
</g>
<!-- 10&#45;&gt;8 -->
<g id="edge48" class="edge">
<title>10&#45;&gt;8</title>
<path fill="none" stroke="black" d="M591.65,-473.76C593.37,-462.33 596.64,-449.26 602.8,-438.7 657.66,-344.81 721.5,-364.39 786.8,-277.45 823.99,-227.95 806.33,-198.95 845.8,-151.25 852.9,-142.68 862.28,-135.04 871.24,-128.85"/>
<polygon fill="black" stroke="black" points="872.92,-131.93 879.39,-123.54 869.1,-126.06 872.92,-131.93"/>
<text xml:space="preserve" text-anchor="middle" x="776.35" y="-308.78" font-family="Times,serif" font-size="14.00">4</text>
</g>
<!-- 10&#45;&gt;10 -->
<g id="edge62" class="edge">
<title>10&#45;&gt;10</title>
<path fill="none" stroke="black" d="M616.19,-511.95C626.77,-512.53 635.65,-509.14 635.65,-501.8 635.65,-497.33 632.36,-494.32 627.38,-492.79"/>
<polygon fill="black" stroke="black" points="628,-489.33 617.69,-491.8 627.29,-496.3 628,-489.33"/>
<text xml:space="preserve" text-anchor="middle" x="640.15" y="-497.13" font-family="Times,serif" font-size="14.00">2</text>
</g>
<!-- 10&#45;&gt;13 -->
<g id="edge45" class="edge">
<title>10&#45;&gt;13</title>
<path fill="none" stroke="black" d="M561.89,-496.99C501.13,-487.18 356.28,-455.28 280.8,-366.7 228.48,-305.29 239.98,-237.13 302.8,-186.5 479.74,-43.91 1235.22,-22.57 1415.2,-19.5"/>
<polygon fill="black" stroke="black" points="1414.99,-23 1424.94,-19.34 1414.88,-16 1414.99,-23"/>
<text xml:space="preserve" text-anchor="middle" x="255.56" y="-264.15" font-family="Times,serif" font-size="14.00">1</text>
</g>
<!-- 28 -->
<g id="node30" class="node">
<title>28</title>
<ellipse fill="none" stroke="black" cx="465.8" cy="-214.35" rx="23.85" ry="23.85"/>
<ellipse fill="none" stroke="black" cx="465.8" cy="-214.35" rx="27.85" ry="27.85"/>
<text xml:space="preserve" text-anchor="middle" x="465.8" y="-209.68" font-family="Times,serif" font-size="14.00">28</text>
</g>
<!-- 10&#45;&gt;28 -->
<g id="edge138" class="edge">
<title>10&#45;&gt;28</title>
<path fill="none" stroke="black" d="M580.23,-475.33C578,-469.03 575.72,-462.28 573.8,-455.95 547.82,-370.11 574.18,-335.07 524.8,-260.2 518.32,-250.37 508.94,-241.84 499.55,-234.93"/>
<polygon fill="black" stroke="black" points="501.75,-232.2 491.52,-229.44 497.79,-237.97 501.75,-232.2"/>
<text xml:space="preserve" text-anchor="middle" x="563.62" y="-353.4" font-family="Times,serif" font-size="14.00">0</text>
</g>
<!-- 11&#45;&gt;4 -->
<g id="edge147" class="edge">
<title>11&#45;&gt;4</title>
<path fill="none" stroke="black" d="M1921.3,-1071.88C1952.68,-1119.29 2047.68,-1265.45 2112.8,-1394.15 2191.99,-1550.66 2255.8,-1586.58 2255.8,-1761.98 2255.8,-2025.55 2255.8,-2025.55 2255.8,-2025.55 2255.8,-2078.48 2200.11,-2064.84 2148.8,-2077.8 2058.16,-2100.71 1386.92,-2113.51 1227.64,-2116.25"/>
<polygon fill="black" stroke="black" points="1227.7,-2112.74 1217.76,-2116.41 1227.82,-2119.74 1227.7,-2112.74"/>
<text xml:space="preserve" text-anchor="middle" x="2228.89" y="-1579.8" font-family="Times,serif" font-size="14.00">3</text>
</g>
<!-- 11&#45;&gt;9 -->
<g id="edge40" class="edge">
<title>11&#45;&gt;9</title>
<path fill="none" stroke="black" d="M1885.65,-1048.4C1866.12,-1043.07 1839.04,-1033.74 1818.8,-1019.15 1769.23,-983.41 1778.13,-952.52 1731.8,-912.65 1613.91,-811.2 1570.72,-802.07 1430.8,-734.15 1408.22,-723.19 1381.72,-713.05 1361.53,-705.86"/>
<polygon fill="black" stroke="black" points="1362.76,-702.59 1352.16,-702.58 1360.45,-709.19 1362.76,-702.59"/>
<text xml:space="preserve" text-anchor="middle" x="1714.31" y="-871.98" font-family="Times,serif" font-size="14.00">0</text>
</g>
<!-- 11&#45;&gt;11 -->
<g id="edge143" class="edge">
<title>11&#45;&gt;11</title>
<path fill="none" stroke="black" d="M1935.34,-1063.39C1946.31,-1064.17 1955.8,-1061.43 1955.8,-1055.15 1955.8,-1051.23 1952.1,-1048.69 1946.64,-1047.52"/>
<polygon fill="black" stroke="black" points="1947.02,-1044.04 1936.85,-1047 1946.65,-1051.03 1947.02,-1044.04"/>
<text xml:space="preserve" text-anchor="middle" x="1960.3" y="-1050.48" font-family="Times,serif" font-size="14.00">1</text>
</g>
<!-- 24 -->
<g id="node26" class="node">
<title>24</title>
<ellipse fill="none" stroke="black" cx="1854.8" cy="-214.35" rx="23.85" ry="23.85"/>
<ellipse fill="none" stroke="black" cx="1854.8" cy="-214.35" rx="27.85" ry="27.85"/>
<text xml:space="preserve" text-anchor="middle" x="1854.8" y="-209.68" font-family="Times,serif" font-size="14.00">24</text>
</g>
<!-- 11&#45;&gt;24 -->
<g id="edge44" class="edge">
<title>11&#45;&gt;24</title>
<path fill="none" stroke="black" d="M1911.2,-1036.67C1912.02,-999.29 1913.8,-908.85 1913.8,-833.03 1913.8,-833.03 1913.8,-833.03 1913.8,-312.45 1913.8,-286.01 1897.62,-260.63 1882.21,-242.45"/>
<polygon fill="black" stroke="black" points="1885.06,-240.39 1875.79,-235.27 1879.84,-245.06 1885.06,-240.39"/>
<text xml:space="preserve" text-anchor="middle" x="1918.3" y="-640.85" font-family="Times,serif" font-size="14.00">4</text>
</g>
<!-- 11&#45;&gt;26 -->
<g id="edge92" class="edge">
<title>11&#45;&gt;26</title>
<path fill="none" stroke="black" d="M1932.91,-1044.65C1968.67,-1029.28 2039.35,-998.9 2080.99,-981"/>
<polygon fill="black" stroke="black" points="2082.22,-984.29 2090.02,-977.12 2079.45,-977.86 2082.22,-984.29"/>
<text xml:space="preserve" text-anchor="middle" x="2034.99" y="-1005.85" font-family="Times,serif" font-size="14.00">2</text>
</g>
<!-- 12&#45;&gt;0 -->
<g id="edge24" class="edge">
<title>12&#45;&gt;0</title>
<path fill="none" stroke="black" d="M2368.15,-791.94C2391.18,-796.16 2424.49,-805.08 2447.8,-823.4 2462.33,-834.81 2462.68,-841.61 2469.8,-858.65 2543.63,-1035.12 2569.8,-1085.99 2569.8,-1277.28 2569.8,-2118.8 2569.8,-2118.8 2569.8,-2118.8 2569.8,-2237.47 2426.76,-2162.14 2308.8,-2175.05 2007.78,-2208.01 1023.21,-2213.23 827.72,-2213.95"/>
<polygon fill="black" stroke="black" points="827.75,-2210.45 817.76,-2213.98 827.77,-2217.45 827.75,-2210.45"/>
<text xml:space="preserve" text-anchor="middle" x="2574.3" y="-1481.18" font-family="Times,serif" font-size="14.00">4</text>
</g>
<!-- 12&#45;&gt;9 -->
<g id="edge19" class="edge">
<title>12&#45;&gt;9</title>
<path fill="none" stroke="black" d="M2315,-783.98C2174.02,-771.27 1519.05,-712.22 1363.17,-698.16"/>
<polygon fill="black" stroke="black" points="1363.8,-694.7 1353.52,-697.29 1363.17,-701.67 1363.8,-694.7"/>
<text xml:space="preserve" text-anchor="middle" x="1930.95" y="-738.1" font-family="Times,serif" font-size="14.00">0</text>
</g>
<!-- 12&#45;&gt;13 -->
<g id="edge53" class="edge">
<title>12&#45;&gt;13</title>
<path fill="none" stroke="black" d="M2341.8,-768.91C2341.8,-750.54 2341.8,-720.82 2341.8,-695.15 2341.8,-695.15 2341.8,-695.15 2341.8,-110.25 2341.8,-23.51 1662.68,-18.69 1492.24,-18.85"/>
<polygon fill="black" stroke="black" points="1492.37,-15.35 1482.38,-18.87 1492.38,-22.35 1492.37,-15.35"/>
<text xml:space="preserve" text-anchor="middle" x="2346.3" y="-398.03" font-family="Times,serif" font-size="14.00">2</text>
</g>
<!-- 12&#45;&gt;21 -->
<g id="edge7" class="edge">
<title>12&#45;&gt;21</title>
<path fill="none" stroke="black" d="M2334.09,-805.11C2293.41,-892.56 2101.42,-1296.69 1991.8,-1376.15 1807.5,-1509.75 1719.82,-1463.43 1495.8,-1503.85 1390.24,-1522.9 1263.79,-1532.7 1201.83,-1536.67"/>
<polygon fill="black" stroke="black" points="1201.95,-1533.15 1192.18,-1537.27 1202.38,-1540.14 1201.95,-1533.15"/>
<text xml:space="preserve" text-anchor="middle" x="2174.07" y="-1139.73" font-family="Times,serif" font-size="14.00">3</text>
</g>
<!-- 12&#45;&gt;29 -->
<g id="edge15" class="edge">
<title>12&#45;&gt;29</title>
<path fill="none" stroke="black" d="M2317.77,-795.91C2299.22,-802.14 2273.18,-811.83 2251.8,-823.4 2168.17,-868.65 2141.41,-877.21 2077.8,-947.9 2035,-995.47 2048.77,-1024.85 2006.8,-1073.15 1964.14,-1122.25 1944.38,-1125.51 1890.8,-1162.4 1809.94,-1218.08 1709.84,-1276.77 1660.77,-1304.9"/>
<polygon fill="black" stroke="black" points="1659.08,-1301.84 1652.14,-1309.84 1662.56,-1307.91 1659.08,-1301.84"/>
<text xml:space="preserve" text-anchor="middle" x="2035.44" y="-1050.48" font-family="Times,serif" font-size="14.00">1</text>
</g>
<!-- 13&#45;&gt;3 -->
<g id="edge144" class="edge">
<title>13&#45;&gt;3</title>
<path fill="none" stroke="black" d="M1426.52,-19.03C1265.3,-19.34 435.52,-22.45 182.8,-54 -27.06,-80.2 1.8,-50.28 1.8,-110.25 1.8,-448.33 1.8,-448.33 1.8,-448.33 1.8,-541.84 77.8,-551.01 77.8,-644.53 77.8,-833.03 77.8,-833.03 77.8,-833.03 77.8,-919.9 161.8,-922.65 161.8,-1009.53 161.8,-1190.03 161.8,-1190.03 161.8,-1190.03 161.8,-1263.76 200.09,-1273.87 230.8,-1340.9 275.18,-1437.77 269.92,-1471.84 332.8,-1557.85 401,-1651.12 428.45,-1668.27 521.8,-1736.35 554.36,-1760.1 596.06,-1780.36 624.65,-1792.93"/>
<polygon fill="black" stroke="black" points="622.97,-1796.02 633.53,-1796.77 625.74,-1789.59 622.97,-1796.02"/>
<text xml:space="preserve" text-anchor="middle" x="131.27" y="-916.6" font-family="Times,serif" font-size="14.00">1</text>
</g>
<!-- 13&#45;&gt;4 -->
<g id="edge118" class="edge">
<title>13&#45;&gt;4</title>
<path fill="none" stroke="black" d="M1481.18,-19.38C1611.19,-21.27 2167.02,-30.61 2338.8,-54 2446.93,-68.72 2577.8,-1.13 2577.8,-110.25 2577.8,-1011.53 2577.8,-1011.53 2577.8,-1011.53 2577.8,-1141.89 2543.92,-1470.07 2500.8,-1593.1 2487.14,-1632.1 2452.8,-1631.41 2452.8,-1672.73 2452.8,-2025.55 2452.8,-2025.55 2452.8,-2025.55 2452.8,-2137.32 2317.72,-2063.99 2206.8,-2077.8 2010.83,-2102.21 1379.95,-2113.79 1227.29,-2116.28"/>
<polygon fill="black" stroke="black" points="1227.42,-2112.78 1217.48,-2116.44 1227.53,-2119.78 1227.42,-2112.78"/>
<text xml:space="preserve" text-anchor="middle" x="2581.92" y="-1050.48" font-family="Times,serif" font-size="14.00">0</text>
</g>
<!-- 13&#45;&gt;5 -->
<g id="edge150" class="edge">
<title>13&#45;&gt;5</title>
<path fill="none" stroke="black" d="M1426.51,-19.29C1230.07,-21.52 39.8,-38.03 39.8,-110.25 39.8,-269.83 39.8,-269.83 39.8,-269.83 39.8,-493.14 153.78,-524.91 231.8,-734.15 287.29,-882.96 288.55,-924.63 344.8,-1073.15 350.83,-1089.07 351.34,-1093.63 359.8,-1108.4 426.54,-1224.8 611.49,-1513.92 719.8,-1593.1 738.97,-1607.11 764.18,-1615.83 784.74,-1621.06"/>
<polygon fill="black" stroke="black" points="783.91,-1624.46 794.45,-1623.34 785.51,-1617.65 783.91,-1624.46"/>
<text xml:space="preserve" text-anchor="middle" x="273.04" y="-827.35" font-family="Times,serif" font-size="14.00">3</text>
</g>
<!-- 13&#45;&gt;12 -->
<g id="edge128" class="edge">
<title>13&#45;&gt;12</title>
<path fill="none" stroke="black" d="M1481.1,-18.65C1637.98,-16.97 2417.8,-13.48 2417.8,-110.25 2417.8,-695.15 2417.8,-695.15 2417.8,-695.15 2417.8,-725.86 2392.07,-751.73 2370.55,-767.99"/>
<polygon fill="black" stroke="black" points="2368.7,-765.01 2362.61,-773.68 2372.77,-770.7 2368.7,-765.01"/>
<text xml:space="preserve" text-anchor="middle" x="2422.3" y="-398.03" font-family="Times,serif" font-size="14.00">4</text>
</g>
<!-- 13&#45;&gt;21 -->
<g id="edge91" class="edge">
<title>13&#45;&gt;21</title>
<path fill="none" stroke="black" d="M1463.64,-35.15C1501.12,-96.75 1633.42,-315.21 1645.8,-349.45 1707.41,-519.84 1587.75,-621.25 1713.8,-751.4 1741.88,-780.39 1773.75,-741.39 1802.8,-769.4 1825.98,-791.74 1818.66,-808.59 1815.8,-840.65 1795.72,-1065.66 1864.41,-1162.51 1725.8,-1340.9 1658.3,-1427.78 1314.94,-1506.96 1200.77,-1531.24"/>
<polygon fill="black" stroke="black" points="1200.08,-1527.81 1191.01,-1533.3 1201.52,-1534.66 1200.08,-1527.81"/>
<text xml:space="preserve" text-anchor="middle" x="1823.69" y="-782.73" font-family="Times,serif" font-size="14.00">2</text>
</g>
<!-- 14&#45;&gt;6 -->
<g id="edge101" class="edge">
<title>14&#45;&gt;6</title>
<path fill="none" stroke="black" d="M1597.95,-1219.81C1605.14,-1213.85 1612.85,-1206.18 1617.8,-1197.65 1621.95,-1190.51 1624.66,-1182.05 1626.44,-1174.04"/>
<polygon fill="black" stroke="black" points="1629.86,-1174.77 1628.16,-1164.31 1622.97,-1173.55 1629.86,-1174.77"/>
<text xml:space="preserve" text-anchor="middle" x="1629.02" y="-1184.35" font-family="Times,serif" font-size="14.00">4</text>
</g>
<!-- 14&#45;&gt;6 -->
<g id="edge140" class="edge">
<title>14&#45;&gt;6</title>
<path fill="none" stroke="black" d="M1588.55,-1216.57C1594.23,-1206.19 1601.85,-1192.44 1608.8,-1180.4 1610.55,-1177.37 1612.41,-1174.2 1614.27,-1171.07"/>
<polygon fill="black" stroke="black" points="1617.17,-1173.04 1619.29,-1162.66 1611.16,-1169.45 1617.17,-1173.04"/>
<text xml:space="preserve" text-anchor="middle" x="1613.3" y="-1184.35" font-family="Times,serif" font-size="14.00">0</text>
</g>
<!-- 14&#45;&gt;9 -->
<g id="edge38" class="edge">
<title>14&#45;&gt;9</title>
<path fill="none" stroke="black" d="M1573.28,-1215.79C1557.79,-1175.66 1517.6,-1071.33 1484.8,-983.9 1443.26,-873.15 1467.62,-825.78 1392.8,-734.15 1384.15,-723.55 1371.8,-715.02 1360.33,-708.68"/>
<polygon fill="black" stroke="black" points="1362.01,-705.6 1351.51,-704.16 1358.81,-711.83 1362.01,-705.6"/>
<text xml:space="preserve" text-anchor="middle" x="1489.3" y="-961.23" font-family="Times,serif" font-size="14.00">2</text>
</g>
<!-- 14&#45;&gt;12 -->
<g id="edge46" class="edge">
<title>14&#45;&gt;12</title>
<path fill="none" stroke="black" d="M1600.43,-1221.77C1636.63,-1202.09 1712.97,-1158.01 1767.8,-1108.4 1813.76,-1066.83 1814.92,-1046.64 1857.8,-1001.9 1938.89,-917.32 1945.4,-872.45 2051.8,-823.4 2095.77,-803.13 2235.5,-793.63 2303.67,-790.11"/>
<polygon fill="black" stroke="black" points="2303.42,-793.62 2313.23,-789.63 2303.07,-786.63 2303.42,-793.62"/>
<text xml:space="preserve" text-anchor="middle" x="1862.3" y="-1005.85" font-family="Times,serif" font-size="14.00">3</text>
</g>
<!-- 14&#45;&gt;27 -->
<g id="edge81" class="edge">
<title>14&#45;&gt;27</title>
<path fill="none" stroke="black" d="M1576.57,-1251.74C1573.18,-1275.33 1571.22,-1317.59 1594.8,-1340.9 1639.1,-1384.7 1685.91,-1319.07 1733.8,-1358.9 1769.98,-1388.99 1863.8,-1714.92 1863.8,-1761.98 1863.8,-1897.85 1863.8,-1897.85 1863.8,-1897.85 1863.8,-1943.88 1852.49,-1963.61 1813.8,-1988.55 1780.05,-2010.32 1509.19,-2019.78 1407.34,-2022.6"/>
<polygon fill="black" stroke="black" points="1407.47,-2019.09 1397.57,-2022.86 1407.66,-2026.09 1407.47,-2019.09"/>
<text xml:space="preserve" text-anchor="middle" x="1843.63" y="-1624.43" font-family="Times,serif" font-size="14.00">1</text>
</g>
<!-- 15&#45;&gt;5 -->
<g id="edge105" class="edge">
<title>15&#45;&gt;5</title>
<path fill="none" stroke="black" d="M1367.98,-1704.44C1358.92,-1697.86 1347.75,-1689.71 1337.8,-1682.35 1327.53,-1674.75 1326.77,-1669.57 1314.8,-1665.1 1231.76,-1634.11 961.66,-1630.35 860.51,-1630.05"/>
<polygon fill="black" stroke="black" points="860.56,-1626.55 850.55,-1630.03 860.55,-1633.55 860.56,-1626.55"/>
<text xml:space="preserve" text-anchor="middle" x="1342.3" y="-1669.05" font-family="Times,serif" font-size="14.00">0</text>
</g>
<!-- 15&#45;&gt;9 -->
<g id="edge88" class="edge">
<title>15&#45;&gt;9</title>
<path fill="none" stroke="black" d="M1411.17,-1711.26C1446.65,-1701.05 1506.8,-1676.85 1506.8,-1630.1 1506.8,-1630.1 1506.8,-1630.1 1506.8,-1484.85 1506.8,-1443.57 1502.22,-1432.44 1486.8,-1394.15 1483.3,-1385.45 1479.84,-1384.61 1475.8,-1376.15 1454.14,-1330.8 1454.88,-1316.92 1437.8,-1269.65 1411.87,-1197.88 1399.41,-1181.88 1378.8,-1108.4 1374.49,-1093.02 1374.07,-1088.96 1371.8,-1073.15 1350.38,-923.42 1370.87,-882.59 1341.8,-734.15 1341.29,-731.51 1340.66,-728.8 1339.97,-726.09"/>
<polygon fill="black" stroke="black" points="1343.38,-725.3 1337.27,-716.64 1336.65,-727.22 1343.38,-725.3"/>
<text xml:space="preserve" text-anchor="middle" x="1413.9" y="-1184.35" font-family="Times,serif" font-size="14.00">4</text>
</g>
<!-- 15&#45;&gt;11 -->
<g id="edge66" class="edge">
<title>15&#45;&gt;11</title>
<path fill="none" stroke="black" d="M1412.9,-1715.75C1441.88,-1712.88 1488.08,-1704.84 1520.8,-1682.35 1628.41,-1608.42 1793.68,-1314.05 1852.8,-1197.65 1872.33,-1159.2 1890.43,-1112.57 1901.05,-1083.63"/>
<polygon fill="black" stroke="black" points="1904.23,-1085.11 1904.35,-1074.52 1897.65,-1082.73 1904.23,-1085.11"/>
<text xml:space="preserve" text-anchor="middle" x="1768.48" y="-1362.85" font-family="Times,serif" font-size="14.00">2</text>
</g>
<!-- 15&#45;&gt;12 -->
<g id="edge146" class="edge">
<title>15&#45;&gt;12</title>
<path fill="none" stroke="black" d="M1413.2,-1718.17C1487.36,-1719.36 1696.83,-1715.92 1851.8,-1647.1 1923.4,-1615.31 1944.2,-1608.69 2003.8,-1557.85 2112.42,-1465.2 2341.8,-1154.29 2341.8,-1011.53 2341.8,-1011.53 2341.8,-1011.53 2341.8,-875.65 2341.8,-856.15 2341.8,-834.19 2341.8,-817.19"/>
<polygon fill="black" stroke="black" points="2345.3,-817.3 2341.8,-807.3 2338.3,-817.3 2345.3,-817.3"/>
<text xml:space="preserve" text-anchor="middle" x="2271.83" y="-1228.98" font-family="Times,serif" font-size="14.00">1</text>
</g>
<!-- 15&#45;&gt;28 -->
<g id="edge54" class="edge">
<title>15&#45;&gt;28</title>
<path fill="none" stroke="black" d="M1359.32,-1713.86C1332.49,-1710.35 1289.78,-1704.82 1252.8,-1700.35 976.92,-1666.99 862.47,-1755.28 636.8,-1593.1 503.83,-1497.53 331.8,-1086.03 331.8,-922.28 331.8,-922.28 331.8,-922.28 331.8,-741.78 331.8,-565.94 207.96,-509.49 280.8,-349.45 309.19,-287.08 383.51,-247.82 428.85,-228.88"/>
<polygon fill="black" stroke="black" points="430.06,-232.17 438.02,-225.18 427.44,-225.67 430.06,-232.17"/>
<text xml:space="preserve" text-anchor="middle" x="342.12" y="-961.23" font-family="Times,serif" font-size="14.00">3</text>
</g>
<!-- 16&#45;&gt;9 -->
<g id="edge30" class="edge">
<title>16&#45;&gt;9</title>
<path fill="none" stroke="black" d="M933.09,-320.24C993.18,-335.23 1146.04,-380.83 1232.8,-473.95 1283.83,-528.71 1311.03,-614.71 1322.7,-661.03"/>
<polygon fill="black" stroke="black" points="1319.29,-661.82 1325.05,-670.71 1326.1,-660.17 1319.29,-661.82"/>
<text xml:space="preserve" text-anchor="middle" x="1276.23" y="-497.13" font-family="Times,serif" font-size="14.00">1</text>
</g>
<!-- 16&#45;&gt;21 -->
<g id="edge64" class="edge">
<title>16&#45;&gt;21</title>
<path fill="none" stroke="black" d="M930.23,-324C940.97,-329.77 952.96,-338.2 959.8,-349.45 1071.37,-532.93 998.8,-616.29 998.8,-831.03 998.8,-1011.53 998.8,-1011.53 998.8,-1011.53 998.8,-1212.22 1109,-1437.07 1149.28,-1512.56"/>
<polygon fill="black" stroke="black" points="1146.15,-1514.12 1153.98,-1521.26 1152.31,-1510.8 1146.15,-1514.12"/>
<text xml:space="preserve" text-anchor="middle" x="1003.3" y="-916.6" font-family="Times,serif" font-size="14.00">3</text>
</g>
<!-- 16&#45;&gt;24 -->
<g id="edge89" class="edge">
<title>16&#45;&gt;24</title>
<path fill="none" stroke="black" d="M934.62,-309.7C1067.79,-296.05 1657.91,-235.54 1815.83,-219.35"/>
<polygon fill="black" stroke="black" points="1815.76,-222.87 1825.35,-218.37 1815.05,-215.91 1815.76,-222.87"/>
<text xml:space="preserve" text-anchor="middle" x="1414.2" y="-264.15" font-family="Times,serif" font-size="14.00">4</text>
</g>
<!-- 16&#45;&gt;27 -->
<g id="edge57" class="edge">
<title>16&#45;&gt;27</title>
<path fill="none" stroke="black" d="M881.47,-318.55C856.6,-322.32 818.24,-327.84 784.8,-331.45 682.42,-342.5 654.49,-327.83 553.8,-349.45 508.55,-359.17 492.95,-357.09 455.8,-384.7 307.75,-494.76 282.52,-556.78 231.8,-734.15 203.85,-831.91 246.39,-1557.69 294.8,-1647.1 344.72,-1739.3 405.72,-1718.54 482.8,-1789.6 570.04,-1870.02 553.21,-1938.55 660.8,-1988.55 723.1,-2017.5 1210.51,-1999.15 1278.8,-2006.55 1296.49,-2008.47 1315.9,-2011.95 1332.15,-2015.27"/>
<polygon fill="black" stroke="black" points="1331.37,-2018.69 1341.88,-2017.32 1332.82,-2011.84 1331.37,-2018.69"/>
<text xml:space="preserve" text-anchor="middle" x="237.19" y="-1139.73" font-family="Times,serif" font-size="14.00">2</text>
</g>
<!-- 16&#45;&gt;28 -->
<g id="edge49" class="edge">
<title>16&#45;&gt;28</title>
<path fill="none" stroke="black" d="M881.32,-308.65C853.5,-303.95 808.99,-294.43 773.8,-277.45 762.3,-271.9 762.57,-265.17 750.8,-260.2 668.32,-225.35 562.04,-217.3 505.44,-215.62"/>
<polygon fill="black" stroke="black" points="505.73,-212.12 495.65,-215.38 505.56,-219.12 505.73,-212.12"/>
<text xml:space="preserve" text-anchor="middle" x="778.3" y="-264.15" font-family="Times,serif" font-size="14.00">0</text>
</g>
<!-- 17&#45;&gt;9 -->
<g id="edge70" class="edge">
<title>17&#45;&gt;9</title>
<path fill="none" stroke="black" d="M1747.23,-115.31C1705.67,-120.6 1627.96,-132.71 1607.8,-151.25 1465.06,-282.55 1561.31,-394.44 1468.8,-564.9 1446.35,-606.27 1447.09,-623 1411.8,-654.15 1397.3,-666.95 1377.87,-676.44 1361.56,-682.85"/>
<polygon fill="black" stroke="black" points="1360.45,-679.53 1352.29,-686.28 1362.88,-686.09 1360.45,-679.53"/>
<text xml:space="preserve" text-anchor="middle" x="1520.96" y="-398.03" font-family="Times,serif" font-size="14.00">4</text>
</g>
<!-- 17&#45;&gt;23 -->
<g id="edge31" class="edge">
<title>17&#45;&gt;23</title>
<path fill="none" stroke="black" d="M1746.61,-113.98C1687.86,-118.02 1544.83,-129.4 1426.8,-151.25 1176.21,-197.64 1077.17,-144.53 871.8,-295.45 772.97,-368.09 806.75,-437.5 725.8,-529.65 706.91,-551.15 680.34,-569.96 659.94,-582.69"/>
<polygon fill="black" stroke="black" points="658.22,-579.64 651.49,-587.82 661.86,-585.63 658.22,-579.64"/>
<text xml:space="preserve" text-anchor="middle" x="822.84" y="-353.4" font-family="Times,serif" font-size="14.00">1</text>
</g>
<!-- 17&#45;&gt;24 -->
<g id="edge51" class="edge">
<title>17&#45;&gt;24</title>
<path fill="none" stroke="black" d="M1782.26,-128.76C1788.57,-140.39 1797.81,-156.04 1807.8,-168.5 1813.14,-175.15 1819.43,-181.79 1825.64,-187.84"/>
<polygon fill="black" stroke="black" points="1823.17,-190.33 1832.85,-194.63 1827.97,-185.23 1823.17,-190.33"/>
<text xml:space="preserve" text-anchor="middle" x="1812.3" y="-155.2" font-family="Times,serif" font-size="14.00">0</text>
</g>
<!-- 17&#45;&gt;26 -->
<g id="edge28" class="edge">
<title>17&#45;&gt;26</title>
<path fill="none" stroke="black" d="M1800.97,-112.8C1895.27,-115.45 2202.8,-130.42 2202.8,-213.35 2202.8,-877.65 2202.8,-877.65 2202.8,-877.65 2202.8,-910.55 2171.41,-935.15 2145.91,-949.7"/>
<polygon fill="black" stroke="black" points="2144.28,-946.6 2137.14,-954.42 2147.6,-952.76 2144.28,-946.6"/>
<text xml:space="preserve" text-anchor="middle" x="2207.3" y="-551.6" font-family="Times,serif" font-size="14.00">3</text>
</g>
<!-- 17&#45;&gt;29 -->
<g id="edge95" class="edge">
<title>17&#45;&gt;29</title>
<path fill="none" stroke="black" d="M1763.62,-128.36C1752.36,-147.75 1735.8,-181.66 1735.8,-213.35 1735.8,-833.03 1735.8,-833.03 1735.8,-833.03 1735.8,-925.76 1662.67,-1204.23 1638.47,-1293.81"/>
<polygon fill="black" stroke="black" points="1635.15,-1292.68 1635.92,-1303.24 1641.91,-1294.51 1635.15,-1292.68"/>
<text xml:space="preserve" text-anchor="middle" x="1740.3" y="-738.1" font-family="Times,serif" font-size="14.00">2</text>
</g>
<!-- 18&#45;&gt;4 -->
<g id="edge130" class="edge">
<title>18&#45;&gt;4</title>
<path fill="none" stroke="black" d="M2139.56,-1987.99C2130.41,-2015.68 2111.71,-2057.96 2078.8,-2077.8 2041.7,-2100.17 1383.98,-2113.38 1227.17,-2116.22"/>
<polygon fill="black" stroke="black" points="1227.4,-2112.72 1217.47,-2116.4 1227.53,-2119.72 1227.4,-2112.72"/>
<text xml:space="preserve" text-anchor="middle" x="2103.2" y="-2064.5" font-family="Times,serif" font-size="14.00">3</text>
</g>
<!-- 18&#45;&gt;6 -->
<g id="edge56" class="edge">
<title>18&#45;&gt;6</title>
<path fill="none" stroke="black" d="M2152.06,-1932.97C2167.58,-1846.01 2204.88,-1566.81 2082.8,-1394.15 1977.59,-1245.34 1754.13,-1176.07 1666.32,-1153.81"/>
<polygon fill="black" stroke="black" points="1667.36,-1150.46 1656.81,-1151.45 1665.68,-1157.25 1667.36,-1150.46"/>
<text xml:space="preserve" text-anchor="middle" x="2163.14" y="-1579.8" font-family="Times,serif" font-size="14.00">0</text>
</g>
<!-- 18&#45;&gt;18 -->
<g id="edge120" class="edge">
<title>18&#45;&gt;18</title>
<path fill="none" stroke="black" d="M2172.26,-1972.53C2183.25,-1973.5 2192.65,-1969.56 2192.65,-1960.7 2192.65,-1955.17 2188.98,-1951.55 2183.54,-1949.86"/>
<polygon fill="black" stroke="black" points="2184.04,-1946.39 2173.77,-1949 2183.43,-1953.36 2184.04,-1946.39"/>
<text xml:space="preserve" text-anchor="middle" x="2197.15" y="-1956.03" font-family="Times,serif" font-size="14.00">1</text>
</g>
<!-- 18&#45;&gt;24 -->
<g id="edge32" class="edge">
<title>18&#45;&gt;24</title>
<path fill="none" stroke="black" d="M2170.27,-1944.95C2213.28,-1916.68 2304.79,-1850.63 2353.8,-1771.6 2413.75,-1674.94 2493.8,-1393.02 2493.8,-1279.28 2493.8,-1279.28 2493.8,-1279.28 2493.8,-1098.78 2493.8,-1015.75 2523.78,-994.49 2509.8,-912.65 2491.07,-802.98 2427.69,-756.43 2327.8,-564.9 2258.1,-431.24 2300.9,-348.62 2178.8,-260.2 2134.11,-227.83 1970.53,-218.76 1894.35,-216.27"/>
<polygon fill="black" stroke="black" points="1894.51,-212.77 1884.41,-215.97 1894.3,-219.77 1894.51,-212.77"/>
<text xml:space="preserve" text-anchor="middle" x="2498.3" y="-1095.1" font-family="Times,serif" font-size="14.00">2</text>
</g>
<!-- 18&#45;&gt;29 -->
<g id="edge5" class="edge">
<title>18&#45;&gt;29</title>
<path fill="none" stroke="black" d="M2142.57,-1933.14C2138.19,-1909.11 2130.22,-1873.09 2117.8,-1843.6 2063.56,-1714.77 2035.95,-1688.21 1952.8,-1575.85 1933.7,-1550.04 1789.1,-1375.82 1761.8,-1358.9 1733.44,-1341.32 1696.33,-1332.48 1668.84,-1328.09"/>
<polygon fill="black" stroke="black" points="1669.61,-1324.66 1659.21,-1326.68 1668.6,-1331.59 1669.61,-1324.66"/>
<text xml:space="preserve" text-anchor="middle" x="2035.68" y="-1669.05" font-family="Times,serif" font-size="14.00">4</text>
</g>
<!-- 19&#45;&gt;4 -->
<g id="edge35" class="edge">
<title>19&#45;&gt;4</title>
<path fill="none" stroke="black" d="M710.14,-1500.28C663.73,-1539.01 534.1,-1656.69 498.8,-1789.6 475.85,-1876.03 476.72,-1915.87 528.8,-1988.55 569.41,-2045.22 591.09,-2057.55 657.8,-2077.8 752.39,-2106.52 1057.59,-2114.42 1159.97,-2116.29"/>
<polygon fill="black" stroke="black" points="1159.85,-2119.78 1169.91,-2116.46 1159.97,-2112.79 1159.85,-2119.78"/>
<text xml:space="preserve" text-anchor="middle" x="503.3" y="-1802.93" font-family="Times,serif" font-size="14.00">4</text>
</g>
<!-- 19&#45;&gt;5 -->
<g id="edge106" class="edge">
<title>19&#45;&gt;5</title>
<path fill="none" stroke="black" d="M727.01,-1504.27C728.23,-1527.48 733.77,-1568.45 756.8,-1593.1 765.42,-1602.33 777.04,-1609.64 788.06,-1615.14"/>
<polygon fill="black" stroke="black" points="786.41,-1618.23 796.96,-1619.23 789.33,-1611.87 786.41,-1618.23"/>
<text xml:space="preserve" text-anchor="middle" x="761.3" y="-1579.8" font-family="Times,serif" font-size="14.00">3</text>
</g>
<!-- 19&#45;&gt;17 -->
<g id="edge41" class="edge">
<title>19&#45;&gt;17</title>
<path fill="none" stroke="black" d="M752.3,-1479.05C843.14,-1458.65 1159.69,-1389.74 1424.8,-1358.9 1454.56,-1355.44 1668.57,-1357.04 1693.8,-1340.9 1762.2,-1297.17 1847.67,-1098.04 1866.8,-1019.15 1914.75,-821.47 1834.83,-766.89 1810.8,-564.9 1791.79,-405.03 1779.57,-212.22 1775.4,-140.72"/>
<polygon fill="black" stroke="black" points="1778.91,-140.86 1774.84,-131.07 1771.93,-141.26 1778.91,-140.86"/>
<text xml:space="preserve" text-anchor="middle" x="1880.79" y="-827.35" font-family="Times,serif" font-size="14.00">1</text>
</g>
<!-- 19&#45;&gt;23 -->
<g id="edge108" class="edge">
<title>19&#45;&gt;23</title>
<path fill="none" stroke="black" d="M725.41,-1467.58C722.62,-1435.33 715.47,-1363.91 702.8,-1304.9 666.3,-1134.83 620.78,-1101.24 590.8,-929.9 581.25,-875.31 585.36,-860.8 583.8,-805.4 583.35,-789.41 581.67,-785.26 583.8,-769.4 590.62,-718.87 608.49,-662.03 619.85,-629.25"/>
<polygon fill="black" stroke="black" points="623.04,-630.73 623.06,-620.14 616.44,-628.4 623.04,-630.73"/>
<text xml:space="preserve" text-anchor="middle" x="632.17" y="-1050.48" font-family="Times,serif" font-size="14.00">2</text>
</g>
<!-- 19&#45;&gt;28 -->
<g id="edge112" class="edge">
<title>19&#45;&gt;28</title>
<path fill="none" stroke="black" d="M720.37,-1468.2C718.2,-1462.42 715.82,-1455.87 713.8,-1449.85 687.23,-1370.58 686,-1349.05 659.8,-1269.65 551.42,-941.18 480.32,-870.03 418.8,-529.65 400.26,-427.06 381.42,-396.81 405.8,-295.45 410.68,-275.17 424.19,-256.29 437.15,-241.96"/>
<polygon fill="black" stroke="black" points="439.66,-244.4 444.02,-234.75 434.59,-239.57 439.66,-244.4"/>
<text xml:space="preserve" text-anchor="middle" x="522.42" y="-871.98" font-family="Times,serif" font-size="14.00">0</text>
</g>
<!-- 20&#45;&gt;2 -->
<g id="edge23" class="edge">
<title>20&#45;&gt;2</title>
<path fill="none" stroke="black" d="M1095.94,-619.04C1078.47,-681.55 1018.97,-903.49 999.8,-1091.15 983.59,-1249.87 965.61,-1297.76 1013.8,-1449.85 1030.22,-1501.65 1239.82,-1823.01 1278.8,-1860.85 1286.47,-1868.29 1295.99,-1874.86 1305.1,-1880.23"/>
<polygon fill="black" stroke="black" points="1303.31,-1883.24 1313.75,-1885.04 1306.71,-1877.13 1303.31,-1883.24"/>
<text xml:space="preserve" text-anchor="middle" x="990.5" y="-1228.98" font-family="Times,serif" font-size="14.00">1</text>
</g>
<!-- 20&#45;&gt;5 -->
<g id="edge123" class="edge">
<title>20&#45;&gt;5</title>
<path fill="none" stroke="black" d="M1087.23,-616.77C1062.67,-644.53 1010.98,-707.12 984.8,-769.4 946.95,-859.46 959.36,-888.85 936.8,-983.9 934.27,-994.56 840.8,-1355.57 840.8,-1366.53 840.8,-1540.85 840.8,-1540.85 840.8,-1540.85 840.8,-1561.13 835.84,-1583.47 830.99,-1600.46"/>
<polygon fill="black" stroke="black" points="827.7,-1599.25 828.15,-1609.84 834.4,-1601.28 827.7,-1599.25"/>
<text xml:space="preserve" text-anchor="middle" x="913.69" y="-1095.1" font-family="Times,serif" font-size="14.00">4</text>
</g>
<!-- 20&#45;&gt;15 -->
<g id="edge72" class="edge">
<title>20&#45;&gt;15</title>
<path fill="none" stroke="black" d="M1107.68,-618.72C1109.7,-624.4 1111.67,-630.84 1112.8,-636.9 1141.24,-788.61 1090.11,-833.98 1126.8,-983.9 1189.04,-1238.2 1303.79,-1267.75 1366.8,-1521.85 1381.21,-1579.94 1384.79,-1650.27 1385.62,-1688.75"/>
<polygon fill="black" stroke="black" points="1382.12,-1688.61 1385.78,-1698.56 1389.12,-1688.5 1382.12,-1688.61"/>
<text xml:space="preserve" text-anchor="middle" x="1197.65" y="-1139.73" font-family="Times,serif" font-size="14.00">3</text>
</g>
<!-- 20&#45;&gt;22 -->
<g id="edge98" class="edge">
<title>20&#45;&gt;22</title>
<path fill="none" stroke="black" d="M1100.8,-582.54C1100.8,-568.32 1100.8,-547.9 1100.8,-531.29"/>
<polygon fill="black" stroke="black" points="1104.3,-531.52 1100.8,-521.52 1097.3,-531.52 1104.3,-531.52"/>
<text xml:space="preserve" text-anchor="middle" x="1105.3" y="-551.6" font-family="Times,serif" font-size="14.00">0</text>
</g>
<!-- 25 -->
<g id="node27" class="node">
<title>25</title>
<ellipse fill="none" stroke="black" cx="1249.8" cy="-1422" rx="23.85" ry="23.85"/>
<ellipse fill="none" stroke="black" cx="1249.8" cy="-1422" rx="27.85" ry="27.85"/>
<text xml:space="preserve" text-anchor="middle" x="1249.8" y="-1417.33" font-family="Times,serif" font-size="14.00">25</text>
</g>
<!-- 20&#45;&gt;25 -->
<g id="edge104" class="edge">
<title>20&#45;&gt;25</title>
<path fill="none" stroke="black" d="M1100.16,-619.33C1099.31,-641.74 1097.68,-681.86 1095.8,-716.15 1085.81,-898.61 1074.81,-943.77 1068.8,-1126.4 1068.28,-1142.39 1063.08,-1147.46 1068.8,-1162.4 1099.26,-1241.9 1150.15,-1233.69 1196.8,-1304.9 1213.26,-1330.02 1227.15,-1361.08 1236.57,-1384.76"/>
<polygon fill="black" stroke="black" points="1233.28,-1385.93 1240.16,-1393.99 1239.8,-1383.4 1233.28,-1385.93"/>
<text xml:space="preserve" text-anchor="middle" x="1079.22" y="-1005.85" font-family="Times,serif" font-size="14.00">2</text>
</g>
<!-- 21&#45;&gt;2 -->
<g id="edge16" class="edge">
<title>21&#45;&gt;2</title>
<path fill="none" stroke="black" d="M1170.34,-1557.67C1195.61,-1622.68 1285.84,-1854.3 1290.8,-1860.85 1295.53,-1867.08 1301.64,-1872.76 1307.86,-1877.65"/>
<polygon fill="black" stroke="black" points="1305.52,-1880.28 1315.67,-1883.33 1309.64,-1874.62 1305.52,-1880.28"/>
<text xml:space="preserve" text-anchor="middle" x="1243.82" y="-1713.68" font-family="Times,serif" font-size="14.00">3</text>
</g>
<!-- 21&#45;&gt;4 -->
<g id="edge113" class="edge">
<title>21&#45;&gt;4</title>
<path fill="none" stroke="black" d="M1145.78,-1553.68C1129.2,-1565.08 1103.65,-1581.66 1079.8,-1593.1 1028.83,-1617.56 599.8,-1705.44 599.8,-1761.98 599.8,-2025.55 599.8,-2025.55 599.8,-2025.55 599.8,-2082.72 1035.22,-2108.89 1160.47,-2115.23"/>
<polygon fill="black" stroke="black" points="1159.93,-2118.71 1170.09,-2115.71 1160.28,-2111.72 1159.93,-2118.71"/>
<text xml:space="preserve" text-anchor="middle" x="604.3" y="-1802.93" font-family="Times,serif" font-size="14.00">1</text>
</g>
<!-- 21&#45;&gt;9 -->
<g id="edge39" class="edge">
<title>21&#45;&gt;9</title>
<path fill="none" stroke="black" d="M1168.4,-1521.72C1174.03,-1499.24 1182.8,-1458.47 1182.8,-1423 1182.8,-1423 1182.8,-1423 1182.8,-1277.28 1182.8,-1221.77 1215.14,-1215.35 1231.8,-1162.4 1257.88,-1079.55 1306.95,-819.17 1323.88,-727.48"/>
<polygon fill="black" stroke="black" points="1327.32,-728.14 1325.69,-717.67 1320.43,-726.88 1327.32,-728.14"/>
<text xml:space="preserve" text-anchor="middle" x="1254.62" y="-1095.1" font-family="Times,serif" font-size="14.00">0</text>
</g>
<!-- 21&#45;&gt;16 -->
<g id="edge99" class="edge">
<title>21&#45;&gt;16</title>
<path fill="none" stroke="black" d="M1146.67,-1525.7C1139,-1519.45 1130.07,-1511.66 1122.8,-1503.85 1028.24,-1402.31 996.46,-1377.86 938.8,-1251.65 911.43,-1191.74 911.51,-1173.39 900.8,-1108.4 873.72,-943.94 864.62,-900.38 876.8,-734.15 877.95,-718.57 915.78,-471.44 917.8,-455.95 923.93,-408.98 930.76,-395.96 921.8,-349.45 921.29,-346.79 920.58,-344.08 919.75,-341.4"/>
<polygon fill="black" stroke="black" points="923.1,-340.38 916.36,-332.21 916.53,-342.81 923.1,-340.38"/>
<text xml:space="preserve" text-anchor="middle" x="879.22" y="-916.6" font-family="Times,serif" font-size="14.00">2</text>
</g>
<!-- 21&#45;&gt;25 -->
<g id="edge142" class="edge">
<title>21&#45;&gt;25</title>
<path fill="none" stroke="black" d="M1177.42,-1523.9C1182.73,-1517.83 1188.75,-1510.66 1193.8,-1503.85 1205.12,-1488.61 1206.06,-1483.51 1216.8,-1467.85 1219.92,-1463.31 1223.29,-1458.56 1226.64,-1453.94"/>
<polygon fill="black" stroke="black" points="1229.42,-1456.05 1232.5,-1445.92 1223.77,-1451.92 1229.42,-1456.05"/>
<text xml:space="preserve" text-anchor="middle" x="1221.3" y="-1481.18" font-family="Times,serif" font-size="14.00">4</text>
</g>
<!-- 22&#45;&gt;4 -->
<g id="edge25" class="edge">
<title>22&#45;&gt;4</title>
<path fill="none" stroke="black" d="M1126.26,-508.41C1207.43,-526.45 1454.8,-582.85 1454.8,-599.9 1454.8,-743.78 1454.8,-743.78 1454.8,-743.78 1454.8,-987.71 1430.68,-1065.84 1533.8,-1286.9 1618.86,-1469.25 1734.01,-1446.55 1849.8,-1611.1 2149.3,-2036.71 2076.45,-1895.18 1996.8,-1988.55 1895.1,-2107.79 1365.79,-2116.67 1227.1,-2116.93"/>
<polygon fill="black" stroke="black" points="1227.5,-2113.43 1217.5,-2116.93 1227.5,-2120.43 1227.5,-2113.43"/>
<text xml:space="preserve" text-anchor="middle" x="1538.3" y="-1273.6" font-family="Times,serif" font-size="14.00">0</text>
</g>
<!-- 22&#45;&gt;4 -->
<g id="edge110" class="edge">
<title>22&#45;&gt;4</title>
<path fill="none" stroke="black" d="M1076.74,-510.68C1020.05,-530.22 876.06,-585.66 784.8,-672.15 598.91,-848.33 409.8,-1505.86 409.8,-1761.98 409.8,-2025.55 409.8,-2025.55 409.8,-2025.55 409.8,-2102.35 1011.01,-2114.62 1160.47,-2116.48"/>
<polygon fill="black" stroke="black" points="1160.05,-2119.98 1170.09,-2116.6 1160.13,-2112.98 1160.05,-2119.98"/>
<text xml:space="preserve" text-anchor="middle" x="506.35" y="-1273.6" font-family="Times,serif" font-size="14.00">3</text>
</g>
<!-- 22&#45;&gt;7 -->
<g id="edge59" class="edge">
<title>22&#45;&gt;7</title>
<path fill="none" stroke="black" d="M1073.6,-500.84C1021.34,-500.01 904.17,-493.68 814.8,-455.95 803.03,-450.98 802.91,-445.02 791.8,-438.7 775.8,-429.6 756.95,-421.59 741.08,-415.54"/>
<polygon fill="black" stroke="black" points="742.65,-412.39 732.06,-412.2 740.22,-418.96 742.65,-412.39"/>
<text xml:space="preserve" text-anchor="middle" x="819.3" y="-442.65" font-family="Times,serif" font-size="14.00">4</text>
</g>
<!-- 22&#45;&gt;9 -->
<g id="edge94" class="edge">
<title>22&#45;&gt;9</title>
<path fill="none" stroke="black" d="M1117.12,-516.37C1156.58,-549.16 1257.37,-632.94 1304.63,-672.23"/>
<polygon fill="black" stroke="black" points="1302.24,-674.79 1312.17,-678.49 1306.72,-669.41 1302.24,-674.79"/>
<text xml:space="preserve" text-anchor="middle" x="1242.57" y="-596.23" font-family="Times,serif" font-size="14.00">1</text>
</g>
<!-- 22&#45;&gt;24 -->
<g id="edge75" class="edge">
<title>22&#45;&gt;24</title>
<path fill="none" stroke="black" d="M1123.61,-491.59C1172.93,-471.7 1293.28,-423.43 1394.8,-384.7 1551.49,-324.93 1739.52,-256.83 1817.8,-228.64"/>
<polygon fill="black" stroke="black" points="1818.88,-231.97 1827.11,-225.29 1816.51,-225.38 1818.88,-231.97"/>
<text xml:space="preserve" text-anchor="middle" x="1490.98" y="-353.4" font-family="Times,serif" font-size="14.00">2</text>
</g>
<!-- 23&#45;&gt;0 -->
<g id="edge33" class="edge">
<title>23&#45;&gt;0</title>
<path fill="none" stroke="black" d="M619.24,-617.87C546.57,-727.67 123.8,-1366.53 123.8,-1366.53 123.8,-2118.8 123.8,-2118.8 123.8,-2118.8 123.8,-2183.81 624.57,-2207.61 760.25,-2212.86"/>
<polygon fill="black" stroke="black" points="759.87,-2216.35 770,-2213.23 760.14,-2209.35 759.87,-2216.35"/>
<text xml:space="preserve" text-anchor="middle" x="128.3" y="-1362.85" font-family="Times,serif" font-size="14.00">0</text>
</g>
<!-- 23&#45;&gt;10 -->
<g id="edge114" class="edge">
<title>23&#45;&gt;10</title>
<path fill="none" stroke="black" d="M623.02,-583.43C617.95,-571.12 610.83,-553.83 604.48,-538.42"/>
<polygon fill="black" stroke="black" points="607.86,-537.44 600.81,-529.53 601.39,-540.11 607.86,-537.44"/>
<text xml:space="preserve" text-anchor="middle" x="619.06" y="-551.6" font-family="Times,serif" font-size="14.00">2</text>
</g>
<!-- 23&#45;&gt;16 -->
<g id="edge27" class="edge">
<title>23&#45;&gt;16</title>
<path fill="none" stroke="black" d="M655.77,-594.92C687.58,-588.43 739.16,-576.54 754.8,-564.9 795.61,-534.54 865.81,-399.23 894.75,-341.11"/>
<polygon fill="black" stroke="black" points="897.84,-342.76 899.14,-332.24 891.57,-339.65 897.84,-342.76"/>
<text xml:space="preserve" text-anchor="middle" x="846.49" y="-442.65" font-family="Times,serif" font-size="14.00">4</text>
</g>
<!-- 23&#45;&gt;21 -->
<g id="edge135" class="edge">
<title>23&#45;&gt;21</title>
<path fill="none" stroke="black" d="M633.7,-618.95C637.53,-637.21 642.8,-667.07 642.8,-693.15 642.8,-922.28 642.8,-922.28 642.8,-922.28 642.8,-1150.05 721.83,-1213.03 880.8,-1376.15 938.67,-1435.53 943.8,-1464.55 1016.8,-1503.85 1051.01,-1522.27 1094.83,-1531.09 1125.7,-1535.25"/>
<polygon fill="black" stroke="black" points="1124.99,-1538.69 1135.34,-1536.45 1125.85,-1531.75 1124.99,-1538.69"/>
<text xml:space="preserve" text-anchor="middle" x="663.72" y="-1050.48" font-family="Times,serif" font-size="14.00">1</text>
</g>
<!-- 23&#45;&gt;28 -->
<g id="edge8" class="edge">
<title>23&#45;&gt;28</title>
<path fill="none" stroke="black" d="M603.49,-596.6C581.89,-592.59 551.86,-583.82 532.8,-564.9 448.28,-480.97 453.06,-325.24 460.58,-253.43"/>
<polygon fill="black" stroke="black" points="464.03,-254.08 461.67,-243.75 457.07,-253.29 464.03,-254.08"/>
<text xml:space="preserve" text-anchor="middle" x="468.87" y="-398.03" font-family="Times,serif" font-size="14.00">3</text>
</g>
<!-- 24&#45;&gt;8 -->
<g id="edge71" class="edge">
<title>24&#45;&gt;8</title>
<path fill="none" stroke="black" d="M1827.11,-208.59C1759.57,-197.12 1580.93,-167.73 1430.8,-151.25 1243.39,-130.67 1017.53,-118.13 933.47,-113.88"/>
<polygon fill="black" stroke="black" points="933.79,-110.39 923.63,-113.39 933.44,-117.38 933.79,-110.39"/>
<text xml:space="preserve" text-anchor="middle" x="1563.86" y="-155.2" font-family="Times,serif" font-size="14.00">2</text>
</g>
<!-- 24&#45;&gt;15 -->
<g id="edge124" class="edge">
<title>24&#45;&gt;15</title>
<path fill="none" stroke="black" d="M1880.04,-227.01C1908.78,-242.24 1951.8,-271.82 1951.8,-312.45 1951.8,-833.03 1951.8,-833.03 1951.8,-833.03 1951.8,-940.2 2002.08,-969.78 1973.8,-1073.15 1939.12,-1199.94 1782.46,-1497.92 1691.8,-1593.1 1639.09,-1648.45 1615.75,-1653.92 1544.8,-1682.35 1505.08,-1698.27 1456.73,-1707.6 1423.85,-1712.57"/>
<polygon fill="black" stroke="black" points="1423.38,-1709.1 1413.98,-1713.99 1424.37,-1716.03 1423.38,-1709.1"/>
<text xml:space="preserve" text-anchor="middle" x="1984.43" y="-961.23" font-family="Times,serif" font-size="14.00">1</text>
</g>
<!-- 24&#45;&gt;17 -->
<g id="edge121" class="edge">
<title>24&#45;&gt;17</title>
<path fill="none" stroke="black" d="M1842.22,-189.28C1835.43,-177.31 1826.48,-162.93 1816.8,-151.25 1811.62,-144.99 1805.44,-138.81 1799.4,-133.27"/>
<polygon fill="black" stroke="black" points="1801.74,-130.67 1791.92,-126.69 1797.12,-135.92 1801.74,-130.67"/>
<text xml:space="preserve" text-anchor="middle" x="1833.18" y="-155.2" font-family="Times,serif" font-size="14.00">4</text>
</g>
<!-- 24&#45;&gt;17 -->
<g id="edge127" class="edge">
<title>24&#45;&gt;17</title>
<path fill="none" stroke="black" d="M1854.01,-186.29C1852.51,-174.6 1849.12,-161.32 1841.8,-151.25 1833.37,-139.64 1820.34,-130.97 1807.94,-124.8"/>
<polygon fill="black" stroke="black" points="1809.71,-121.76 1799.16,-120.81 1806.82,-128.13 1809.71,-121.76"/>
<text xml:space="preserve" text-anchor="middle" x="1854.57" y="-155.2" font-family="Times,serif" font-size="14.00">3</text>
</g>
<!-- 24&#45;&gt;27 -->
<g id="edge149" class="edge">
<title>24&#45;&gt;27</title>
<path fill="none" stroke="black" d="M1882.86,-218.07C1959.17,-226.22 2164.8,-253.66 2164.8,-312.45 2164.8,-646.53 2164.8,-646.53 2164.8,-646.53 2164.8,-782.98 2303.8,-783.82 2303.8,-920.28 2303.8,-1190.03 2303.8,-1190.03 2303.8,-1190.03 2303.8,-1241.36 2313.13,-1253.64 2315.8,-1304.9 2316.64,-1320.88 2316.24,-1324.91 2315.8,-1340.9 2314.47,-1389.38 2322.29,-1402.99 2309.8,-1449.85 2291.46,-1518.71 2279.95,-1535.64 2237.8,-1593.1 2176.97,-1676.04 2141.7,-1678.89 2071.8,-1754.35 1979.76,-1853.72 1997.4,-1926.89 1876.8,-1988.55 1835.37,-2009.74 1518.38,-2019.75 1407.19,-2022.64"/>
<polygon fill="black" stroke="black" points="1407.3,-2019.13 1397.4,-2022.89 1407.48,-2026.13 1407.3,-2019.13"/>
<text xml:space="preserve" text-anchor="middle" x="2308.3" y="-1095.1" font-family="Times,serif" font-size="14.00">0</text>
</g>
<!-- 25&#45;&gt;2 -->
<g id="edge115" class="edge">
<title>25&#45;&gt;2</title>
<path fill="none" stroke="black" d="M1266.9,-1444.21C1283.05,-1466.43 1304.8,-1503.01 1304.8,-1538.85 1304.8,-1808.6 1304.8,-1808.6 1304.8,-1808.6 1304.8,-1830.04 1313.43,-1852.73 1321.72,-1869.6"/>
<polygon fill="black" stroke="black" points="1318.6,-1871.18 1326.33,-1878.43 1324.8,-1867.95 1318.6,-1871.18"/>
<text xml:space="preserve" text-anchor="middle" x="1309.3" y="-1669.05" font-family="Times,serif" font-size="14.00">0</text>
</g>
<!-- 25&#45;&gt;9 -->
<g id="edge42" class="edge">
<title>25&#45;&gt;9</title>
<path fill="none" stroke="black" d="M1253.85,-1393.95C1265.3,-1316.39 1298.36,-1086.52 1316.8,-894.65 1322.45,-835.94 1326.33,-767.28 1328.3,-727.74"/>
<polygon fill="black" stroke="black" points="1331.78,-728.11 1328.77,-717.96 1324.79,-727.77 1331.78,-728.11"/>
<text xml:space="preserve" text-anchor="middle" x="1305.93" y="-1050.48" font-family="Times,serif" font-size="14.00">3</text>
</g>
<!-- 25&#45;&gt;15 -->
<g id="edge107" class="edge">
<title>25&#45;&gt;15</title>
<path fill="none" stroke="black" d="M1275.26,-1433.78C1290.04,-1441.28 1307.85,-1452.67 1318.8,-1467.85 1376.44,-1547.76 1347.58,-1587.66 1374.8,-1682.35 1375.46,-1684.65 1376.17,-1687.02 1376.88,-1689.4"/>
<polygon fill="black" stroke="black" points="1373.51,-1690.35 1379.82,-1698.87 1380.2,-1688.28 1373.51,-1690.35"/>
<text xml:space="preserve" text-anchor="middle" x="1364.67" y="-1579.8" font-family="Times,serif" font-size="14.00">4</text>
</g>
<!-- 25&#45;&gt;23 -->
<g id="edge136" class="edge">
<title>25&#45;&gt;23</title>
<path fill="none" stroke="black" d="M1227.24,-1405.35C1167.66,-1363.16 1003.65,-1241.2 900.8,-1108.4 756.33,-921.85 783.6,-835.89 656.8,-636.9 654.53,-633.33 651.97,-629.66 649.37,-626.12"/>
<polygon fill="black" stroke="black" points="652.29,-624.17 643.44,-618.35 646.73,-628.42 652.29,-624.17"/>
<text xml:space="preserve" text-anchor="middle" x="843.3" y="-1005.85" font-family="Times,serif" font-size="14.00">1</text>
</g>
<!-- 25&#45;&gt;29 -->
<g id="edge50" class="edge">
<title>25&#45;&gt;29</title>
<path fill="none" stroke="black" d="M1276.9,-1414.1C1344.33,-1396.91 1519.68,-1352.22 1595.27,-1332.96"/>
<polygon fill="black" stroke="black" points="1595.8,-1336.43 1604.63,-1330.57 1594.07,-1329.65 1595.8,-1336.43"/>
<text xml:space="preserve" text-anchor="middle" x="1490.13" y="-1362.85" font-family="Times,serif" font-size="14.00">2</text>
</g>
<!-- 26&#45;&gt;1 -->
<g id="edge20" class="edge">
<title>26&#45;&gt;1</title>
<path fill="none" stroke="black" d="M2087.61,-960.69C1999.19,-946.48 1711.44,-900.25 1608.15,-883.65"/>
<polygon fill="black" stroke="black" points="1608.97,-880.24 1598.54,-882.11 1607.86,-887.15 1608.97,-880.24"/>
<text xml:space="preserve" text-anchor="middle" x="1895.44" y="-916.6" font-family="Times,serif" font-size="14.00">2</text>
</g>
<!-- 26&#45;&gt;2 -->
<g id="edge122" class="edge">
<title>26&#45;&gt;2</title>
<path fill="none" stroke="black" d="M2125.57,-982.24C2149.06,-1014.73 2198.25,-1093.2 2182.8,-1162.4 2155.71,-1283.81 1993.37,-1561.84 1902.8,-1647.1 1756.9,-1784.46 1699.93,-1811.11 1505.8,-1860.85 1460.69,-1872.41 1408.06,-1882.84 1373.67,-1889.24"/>
<polygon fill="black" stroke="black" points="1373.43,-1885.73 1364.23,-1890.98 1374.7,-1892.61 1373.43,-1885.73"/>
<text xml:space="preserve" text-anchor="middle" x="2084.69" y="-1417.33" font-family="Times,serif" font-size="14.00">4</text>
</g>
<!-- 26&#45;&gt;15 -->
<g id="edge47" class="edge">
<title>26&#45;&gt;15</title>
<path fill="none" stroke="black" d="M2104.64,-983.08C2057.04,-1067.11 1837.75,-1454.54 1771.8,-1575.85 1746.26,-1622.84 1760.06,-1652.32 1715.8,-1682.35 1709.81,-1686.42 1509.71,-1705.68 1424.07,-1713.77"/>
<polygon fill="black" stroke="black" points="1423.91,-1710.27 1414.28,-1714.69 1424.57,-1717.24 1423.91,-1710.27"/>
<text xml:space="preserve" text-anchor="middle" x="1927.3" y="-1318.23" font-family="Times,serif" font-size="14.00">3</text>
</g>
<!-- 26&#45;&gt;24 -->
<g id="edge117" class="edge">
<title>26&#45;&gt;24</title>
<path fill="none" stroke="black" d="M2092.1,-954.7C2066.63,-941.04 2027.8,-914.23 2027.8,-877.65 2027.8,-877.65 2027.8,-877.65 2027.8,-312.45 2027.8,-251.42 1944.92,-228.36 1893.89,-219.94"/>
<polygon fill="black" stroke="black" points="1894.51,-216.49 1884.1,-218.45 1893.46,-223.41 1894.51,-216.49"/>
<text xml:space="preserve" text-anchor="middle" x="2032.3" y="-596.23" font-family="Times,serif" font-size="14.00">0</text>
</g>
<!-- 26&#45;&gt;26 -->
<g id="edge21" class="edge">
<title>26&#45;&gt;26</title>
<path fill="none" stroke="black" d="M2138.34,-974.14C2149.31,-974.92 2158.8,-972.18 2158.8,-965.9 2158.8,-961.98 2155.1,-959.44 2149.64,-958.27"/>
<polygon fill="black" stroke="black" points="2150.02,-954.79 2139.85,-957.75 2149.65,-961.78 2150.02,-954.79"/>
<text xml:space="preserve" text-anchor="middle" x="2163.3" y="-961.23" font-family="Times,serif" font-size="14.00">1</text>
</g>
<!-- 27&#45;&gt;2 -->
<g id="edge3" class="edge">
<title>27&#45;&gt;2</title>
<path fill="none" stroke="black" d="M1364.87,-2006.45C1360.62,-1988.18 1353.55,-1958.39 1346.8,-1932.85 1346.2,-1930.56 1345.56,-1928.19 1344.9,-1925.81"/>
<polygon fill="black" stroke="black" points="1348.32,-1925.04 1342.24,-1916.36 1341.58,-1926.94 1348.32,-1925.04"/>
<text xml:space="preserve" text-anchor="middle" x="1364.72" y="-1956.03" font-family="Times,serif" font-size="14.00">3</text>
</g>
<!-- 27&#45;&gt;12 -->
<g id="edge90" class="edge">
<title>27&#45;&gt;12</title>
<path fill="none" stroke="black" d="M1395.95,-2023.7C1509.7,-2024.07 1944.37,-2023.22 1993.8,-1988.55 2086.47,-1923.57 2005.28,-1824.87 2093.8,-1754.35 2129.13,-1726.21 2154.65,-1758.86 2193.8,-1736.35 2282.41,-1685.41 2298.92,-1651.96 2338.8,-1557.85 2350.77,-1529.62 2417.8,-1042.19 2417.8,-1011.53 2417.8,-1011.53 2417.8,-1011.53 2417.8,-875.65 2417.8,-846.04 2392.6,-821.6 2371.22,-806.19"/>
<polygon fill="black" stroke="black" points="2373.26,-803.35 2363.02,-800.61 2369.32,-809.13 2373.26,-803.35"/>
<text xml:space="preserve" text-anchor="middle" x="2376.54" y="-1362.85" font-family="Times,serif" font-size="14.00">4</text>
</g>
<!-- 27&#45;&gt;12 -->
<g id="edge133" class="edge">
<title>27&#45;&gt;12</title>
<path fill="none" stroke="black" d="M1396.14,-2023.59C1513.82,-2023.54 1973.82,-2021.25 2028.8,-1988.55 2093.78,-1949.91 2068.5,-1900.91 2117.8,-1843.6 2206.15,-1740.91 2282.32,-1763.98 2350.8,-1647.1 2382.05,-1593.77 2455.8,-1162.59 2455.8,-1100.78 2455.8,-1100.78 2455.8,-1100.78 2455.8,-875.65 2455.8,-835.57 2410.81,-811.41 2377.36,-798.99"/>
<polygon fill="black" stroke="black" points="2378.56,-795.71 2367.97,-795.72 2376.26,-802.32 2378.56,-795.71"/>
<text xml:space="preserve" text-anchor="middle" x="2422.59" y="-1362.85" font-family="Times,serif" font-size="14.00">0</text>
</g>
<!-- 27&#45;&gt;20 -->
<g id="edge9" class="edge">
<title>27&#45;&gt;20</title>
<path fill="none" stroke="black" d="M1343.25,-2018.46C1325.26,-2014.94 1300.6,-2010.24 1278.8,-2006.55 1152.74,-1985.2 713.8,-2025.71 713.8,-1897.85 713.8,-1897.85 713.8,-1897.85 713.8,-1761.98 713.8,-1679.49 654.31,-1673.71 636.8,-1593.1 614.71,-1491.38 612.74,-1460.17 636.8,-1358.9 717.05,-1021.18 780.62,-933.74 1008.8,-672.15 1026.92,-651.39 1052.01,-632.72 1071.42,-619.85"/>
<polygon fill="black" stroke="black" points="1073.21,-622.86 1079.71,-614.49 1069.42,-616.98 1073.21,-622.86"/>
<text xml:space="preserve" text-anchor="middle" x="663.67" y="-1273.6" font-family="Times,serif" font-size="14.00">2</text>
</g>
<!-- 27&#45;&gt;25 -->
<g id="edge139" class="edge">
<title>27&#45;&gt;25</title>
<path fill="none" stroke="black" d="M1344.62,-2015.99C1285.57,-1996.79 1138.8,-1944.38 1138.8,-1897.85 1138.8,-1897.85 1138.8,-1897.85 1138.8,-1672.73 1138.8,-1614.92 1173.7,-1609.43 1199.8,-1557.85 1211.83,-1534.08 1216.21,-1528.7 1225.8,-1503.85 1231.26,-1489.73 1236.22,-1473.84 1240.2,-1459.9"/>
<polygon fill="black" stroke="black" points="1243.46,-1461.24 1242.76,-1450.67 1236.71,-1459.36 1243.46,-1461.24"/>
<text xml:space="preserve" text-anchor="middle" x="1143.3" y="-1713.68" font-family="Times,serif" font-size="14.00">1</text>
</g>
<!-- 28&#45;&gt;1 -->
<g id="edge126" class="edge">
<title>28&#45;&gt;1</title>
<path fill="none" stroke="black" d="M493.65,-217.75C622.1,-229.14 1157.43,-280.03 1308.8,-349.45 1353.92,-370.14 1354.21,-392.14 1394.8,-420.7 1432.82,-447.44 1456.88,-436.79 1484.8,-473.95 1572.1,-590.13 1574.91,-775.86 1572.43,-846.82"/>
<polygon fill="black" stroke="black" points="1568.93,-846.66 1572,-856.8 1575.92,-846.96 1568.93,-846.66"/>
<text xml:space="preserve" text-anchor="middle" x="1537.71" y="-551.6" font-family="Times,serif" font-size="14.00">2</text>
</g>
<!-- 28&#45;&gt;3 -->
<g id="edge60" class="edge">
<title>28&#45;&gt;3</title>
<path fill="none" stroke="black" d="M438.72,-222.71C412.43,-230.37 371.78,-243.55 338.8,-260.2 313.88,-272.79 303.8,-273.3 286.8,-295.45 92.13,-549.06 199.8,-689.81 199.8,-1009.53 199.8,-1190.03 199.8,-1190.03 199.8,-1190.03 199.8,-1292.39 359.44,-1512.7 422.8,-1593.1 487.15,-1674.75 584.22,-1751.96 630.88,-1786.97"/>
<polygon fill="black" stroke="black" points="628.72,-1789.72 638.83,-1792.88 632.9,-1784.1 628.72,-1789.72"/>
<text xml:space="preserve" text-anchor="middle" x="204.3" y="-1005.85" font-family="Times,serif" font-size="14.00">3</text>
</g>
<!-- 28&#45;&gt;5 -->
<g id="edge151" class="edge">
<title>28&#45;&gt;5</title>
<path fill="none" stroke="black" d="M442.93,-230.58C431.87,-238.61 418.85,-249.08 408.8,-260.2 355.5,-319.19 319.2,-341.9 329.8,-420.7 344.15,-527.32 363.37,-550.96 393.8,-654.15 425.52,-761.67 430.64,-789.62 469.8,-894.65 533.24,-1064.76 573.44,-1097.73 631.8,-1269.65 666.31,-1371.29 651.12,-1404.12 690.8,-1503.85 707.61,-1546.1 707.04,-1562.65 740.8,-1593.1 753.62,-1604.66 770.84,-1612.83 786.11,-1618.34"/>
<polygon fill="black" stroke="black" points="784.76,-1621.58 795.36,-1621.43 786.98,-1614.94 784.76,-1621.58"/>
<text xml:space="preserve" text-anchor="middle" x="487.68" y="-916.6" font-family="Times,serif" font-size="14.00">0</text>
</g>
<!-- 28&#45;&gt;6 -->
<g id="edge2" class="edge">
<title>28&#45;&gt;6</title>
<path fill="none" stroke="black" d="M493.87,-216.69C549.31,-220.6 674.69,-235.91 757.8,-295.45 895.2,-393.88 853.94,-485.56 957.8,-618.9 1035.95,-719.22 1073.36,-728.71 1174.8,-805.4 1336.74,-927.83 1533.16,-1072.43 1603.32,-1123.97"/>
<polygon fill="black" stroke="black" points="1601.02,-1126.62 1611.15,-1129.72 1605.16,-1120.98 1601.02,-1126.62"/>
<text xml:space="preserve" text-anchor="middle" x="1055.59" y="-689.48" font-family="Times,serif" font-size="14.00">1</text>
</g>
<!-- 28&#45;&gt;23 -->
<g id="edge65" class="edge">
<title>28&#45;&gt;23</title>
<path fill="none" stroke="black" d="M471.17,-241.91C484.92,-308.4 522.44,-480.2 552.8,-529.65 565.31,-550.02 585.41,-568.07 601.93,-580.77"/>
<polygon fill="black" stroke="black" points="599.83,-583.57 609.95,-586.71 604,-577.95 599.83,-583.57"/>
<text xml:space="preserve" text-anchor="middle" x="517.67" y="-398.03" font-family="Times,serif" font-size="14.00">4</text>
</g>
<!-- 29&#45;&gt;14 -->
<g id="edge67" class="edge">
<title>29&#45;&gt;14</title>
<path fill="none" stroke="black" d="M1621.45,-1305.9C1614.02,-1293.19 1603.48,-1275.16 1594.87,-1260.42"/>
<polygon fill="black" stroke="black" points="1598.1,-1259.02 1590.04,-1252.15 1592.06,-1262.55 1598.1,-1259.02"/>
<text xml:space="preserve" text-anchor="middle" x="1614.37" y="-1273.6" font-family="Times,serif" font-size="14.00">1</text>
</g>
<!-- 29&#45;&gt;21 -->
<g id="edge74" class="edge">
<title>29&#45;&gt;21</title>
<path fill="none" stroke="black" d="M1608.95,-1333.96C1533.72,-1368.59 1285.18,-1482.99 1196,-1524.03"/>
<polygon fill="black" stroke="black" points="1194.7,-1520.78 1187.08,-1528.14 1197.62,-1527.14 1194.7,-1520.78"/>
<text xml:space="preserve" text-anchor="middle" x="1478.36" y="-1417.33" font-family="Times,serif" font-size="14.00">4</text>
</g>
<!-- 29&#45;&gt;24 -->
<g id="edge80" class="edge">
<title>29&#45;&gt;24</title>
<path fill="none" stroke="black" d="M1639.73,-1305.64C1654.21,-1279.61 1682.63,-1230.04 1696.8,-1215.65 1707.18,-1205.11 1715.69,-1209.3 1724.8,-1197.65 1735,-1184.62 1733.09,-1178.53 1736.8,-1162.4 1757.54,-1072.22 1831.94,-418.29 1850.56,-253.15"/>
<polygon fill="black" stroke="black" points="1853.99,-253.95 1851.63,-243.62 1847.03,-253.17 1853.99,-253.95"/>
<text xml:space="preserve" text-anchor="middle" x="1794.75" y="-782.73" font-family="Times,serif" font-size="14.00">0</text>
</g>
<!-- 29&#45;&gt;28 -->
<g id="edge73" class="edge">
<title>29&#45;&gt;28</title>
<path fill="none" stroke="black" d="M1604.21,-1319.13C1564.74,-1314.62 1488.58,-1304.4 1425.8,-1286.9 1321.38,-1257.79 1296.02,-1245.61 1198.8,-1197.65 1188.48,-1192.56 852.74,-991.16 843.8,-983.9 725.94,-888.24 419.8,-600.12 419.8,-448.33 419.8,-448.33 419.8,-448.33 419.8,-312.45 419.8,-288.68 431.2,-264.52 442.64,-246.25"/>
<polygon fill="black" stroke="black" points="445.5,-248.27 448.1,-238 439.66,-244.41 445.5,-248.27"/>
<text xml:space="preserve" text-anchor="middle" x="655.43" y="-782.73" font-family="Times,serif" font-size="14.00">2</text>
</g>
<!-- 29&#45;&gt;29 -->
<g id="edge148" class="edge">
<title>29&#45;&gt;29</title>
<path fill="none" stroke="black" d="M1655.34,-1331.14C1666.31,-1331.92 1675.8,-1329.18 1675.8,-1322.9 1675.8,-1318.98 1672.1,-1316.44 1666.64,-1315.27"/>
<polygon fill="black" stroke="black" points="1667.02,-1311.79 1656.85,-1314.75 1666.65,-1318.78 1667.02,-1311.79"/>
<text xml:space="preserve" text-anchor="middle" x="1680.3" y="-1318.23" font-family="Times,serif" font-size="14.00">3</text>
</g>
</g>
</svg>
