<?xml version="1.0" encoding="UTF-8" standalone="no"?>
<!DOCTYPE svg PUBLIC "-//W3C//DTD SVG 1.1//EN"
 "http://www.w3.org/Graphics/SVG/1.1/DTD/svg11.dtd">
<!-- Generated by graphviz version 2.49.0 (20210829.0051)
 -->
<!-- Pages: 1 -->
<svg width="2594pt" height="2490pt"
 viewBox="0.00 0.00 2594.00 2490.48" xmlns="http://www.w3.org/2000/svg" xmlns:xlink="http://www.w3.org/1999/xlink">
<g id="graph0" class="graph" transform="scale(1 1) rotate(0) translate(4 2486.48)">
<polygon fill="white" stroke="transparent" points="-4,4 -4,-2486.48 2590,-2486.48 2590,4 -4,4"/>
<!-- fake -->
<g id="node1" class="node">
<title>fake</title>
</g>
<!-- 0 -->
<g id="node2" class="node">
<title>0</title>
<ellipse fill="none" stroke="black" cx="1947" cy="-2391.48" rx="27" ry="18"/>
<text text-anchor="middle" x="1947" y="-2387.78" font-family="Times,serif" font-size="14.00">0</text>
</g>
<!-- fake&#45;&gt;0 -->
<g id="edge1" class="edge">
<title>fake&#45;&gt;0</title>
<path fill="none" stroke="black" stroke-width="2" d="M1947,-2446.29C1947,-2438.27 1947,-2428.53 1947,-2419.55"/>
<polygon fill="black" stroke="black" stroke-width="2" points="1950.5,-2419.51 1947,-2409.51 1943.5,-2419.51 1950.5,-2419.51"/>
</g>
<!-- 1 -->
<g id="node3" class="node">
<title>1</title>
<ellipse fill="none" stroke="black" cx="1619" cy="-2300.48" rx="18" ry="18"/>
<ellipse fill="none" stroke="black" cx="1619" cy="-2300.48" rx="22" ry="22"/>
<text text-anchor="middle" x="1619" y="-2296.78" font-family="Times,serif" font-size="14.00">1</text>
</g>
<!-- 0&#45;&gt;1 -->
<g id="edge57" class="edge">
<title>0&#45;&gt;1</title>
<path fill="none" stroke="black" d="M1922.35,-2383.79C1863.5,-2367.82 1714.9,-2327.5 1650.06,-2309.91"/>
<polygon fill="black" stroke="black" points="1650.61,-2306.43 1640.04,-2307.19 1648.77,-2313.19 1650.61,-2306.43"/>
<text text-anchor="middle" x="1817" y="-2344.28" font-family="Times,serif" font-size="14.00">2</text>
</g>
<!-- 6 -->
<g id="node8" class="node">
<title>6</title>
<ellipse fill="none" stroke="black" cx="490" cy="-105" rx="27" ry="18"/>
<text text-anchor="middle" x="490" y="-101.3" font-family="Times,serif" font-size="14.00">6</text>
</g>
<!-- 0&#45;&gt;6 -->
<g id="edge44" class="edge">
<title>0&#45;&gt;6</title>
<path fill="none" stroke="black" d="M1920.02,-2390.48C1696.49,-2390.44 156.97,-2388.91 66,-2355.48 30.43,-2342.41 0,-2339.38 0,-2301.48 0,-2301.48 0,-2301.48 0,-1243.99 0,-1135.35 17.4,-1105.09 69,-1009.49 123.76,-908.03 236,-926.28 236,-810.99 236,-810.99 236,-810.99 236,-199.75 236,-164.58 258.22,-158 289,-141 340.74,-112.43 410.42,-106.23 452.68,-105.38"/>
<polygon fill="black" stroke="black" points="452.84,-108.88 462.8,-105.27 452.77,-101.88 452.84,-108.88"/>
<text text-anchor="middle" x="5" y="-1241.29" font-family="Times,serif" font-size="14.00">4</text>
</g>
<!-- 7 -->
<g id="node9" class="node">
<title>7</title>
<ellipse fill="none" stroke="black" cx="1912" cy="-1201.49" rx="27" ry="18"/>
<text text-anchor="middle" x="1912" y="-1197.79" font-family="Times,serif" font-size="14.00">7</text>
</g>
<!-- 0&#45;&gt;7 -->
<g id="edge26" class="edge">
<title>0&#45;&gt;7</title>
<path fill="none" stroke="black" d="M1973.56,-2387.69C2042.89,-2379.68 2224,-2353.76 2224,-2301.48 2224,-2301.48 2224,-2301.48 2224,-2156.98 2224,-1966.08 2059.85,-1509.3 2014,-1323.98 2004.5,-1285.58 2018.5,-1267.73 1993,-1237.49 1986.41,-1229.67 1964.68,-1220.49 1945.38,-1213.5"/>
<polygon fill="black" stroke="black" points="1946.49,-1210.18 1935.9,-1210.16 1944.17,-1216.78 1946.49,-1210.18"/>
<text text-anchor="middle" x="2160" y="-1798.28" font-family="Times,serif" font-size="14.00">1</text>
</g>
<!-- 9 -->
<g id="node11" class="node">
<title>9</title>
<ellipse fill="none" stroke="black" cx="2142" cy="-1201.49" rx="27" ry="18"/>
<text text-anchor="middle" x="2142" y="-1197.79" font-family="Times,serif" font-size="14.00">9</text>
</g>
<!-- 0&#45;&gt;9 -->
<g id="edge128" class="edge">
<title>0&#45;&gt;9</title>
<path fill="none" stroke="black" d="M1974.18,-2390.11C2062.85,-2388.2 2338,-2376.23 2338,-2301.48 2338,-2301.48 2338,-2301.48 2338,-1974.98 2338,-1704.19 2326.3,-1628.83 2232,-1374.98 2208.4,-1311.44 2199.93,-1296.17 2166,-1237.49 2163.94,-1233.93 2161.64,-1230.26 2159.3,-1226.7"/>
<polygon fill="black" stroke="black" points="2162.03,-1224.49 2153.52,-1218.18 2156.24,-1228.42 2162.03,-1224.49"/>
<text text-anchor="middle" x="2339" y="-1798.28" font-family="Times,serif" font-size="14.00">3</text>
</g>
<!-- 11 -->
<g id="node13" class="node">
<title>11</title>
<ellipse fill="none" stroke="black" cx="645" cy="-200.75" rx="22.96" ry="22.96"/>
<ellipse fill="none" stroke="black" cx="645" cy="-200.75" rx="27" ry="27"/>
<text text-anchor="middle" x="645" y="-197.05" font-family="Times,serif" font-size="14.00">11</text>
</g>
<!-- 0&#45;&gt;11 -->
<g id="edge18" class="edge">
<title>0&#45;&gt;11</title>
<path fill="none" stroke="black" d="M1919.84,-2390.31C1713.15,-2388.98 391.61,-2379.56 216,-2355.48 140.81,-2345.17 54,-2377.37 54,-2301.48 54,-2301.48 54,-2301.48 54,-1713.98 54,-1585.38 54.76,-1547.78 104,-1428.98 158.79,-1296.8 225.45,-1293.69 289,-1165.49 353.42,-1035.52 388,-999.54 388,-854.49 388,-854.49 388,-854.49 388,-704.49 388,-502.03 555.29,-299.01 619.93,-228.12"/>
<polygon fill="black" stroke="black" points="622.73,-230.25 626.93,-220.52 617.58,-225.51 622.73,-230.25"/>
<text text-anchor="middle" x="222" y="-1293.54" font-family="Times,serif" font-size="14.00">0</text>
</g>
<!-- 3 -->
<g id="node5" class="node">
<title>3</title>
<ellipse fill="none" stroke="black" cx="1660" cy="-2205.48" rx="18" ry="18"/>
<ellipse fill="none" stroke="black" cx="1660" cy="-2205.48" rx="22" ry="22"/>
<text text-anchor="middle" x="1660" y="-2201.78" font-family="Times,serif" font-size="14.00">3</text>
</g>
<!-- 1&#45;&gt;3 -->
<g id="edge19" class="edge">
<title>1&#45;&gt;3</title>
<path fill="none" stroke="black" d="M1632.78,-2283.28C1637.89,-2276.58 1643.32,-2268.51 1647,-2260.48 1650.32,-2253.23 1652.85,-2245.02 1654.76,-2237.23"/>
<polygon fill="black" stroke="black" points="1658.2,-2237.88 1656.92,-2227.36 1651.37,-2236.38 1658.2,-2237.88"/>
<text text-anchor="middle" x="1657" y="-2249.28" font-family="Times,serif" font-size="14.00">4</text>
</g>
<!-- 10 -->
<g id="node12" class="node">
<title>10</title>
<ellipse fill="none" stroke="black" cx="820" cy="-853.49" rx="27" ry="18"/>
<text text-anchor="middle" x="820" y="-849.79" font-family="Times,serif" font-size="14.00">10</text>
</g>
<!-- 1&#45;&gt;10 -->
<g id="edge3" class="edge">
<title>1&#45;&gt;10</title>
<path fill="none" stroke="black" d="M1596.85,-2299.45C1467.83,-2299.13 816.18,-2295.78 735,-2260.48 703.58,-2246.82 680,-2240.74 680,-2206.48 680,-2206.48 680,-2206.48 680,-1931.48 680,-1682.71 694.79,-1619.61 740,-1374.98 765.31,-1238.02 820,-1211.27 820,-1071.99 820,-1071.99 820,-1071.99 820,-939.49 820,-920.24 820,-898.54 820,-881.89"/>
<polygon fill="black" stroke="black" points="823.5,-881.74 820,-871.74 816.5,-881.74 823.5,-881.74"/>
<text text-anchor="middle" x="714" y="-1563.28" font-family="Times,serif" font-size="14.00">3</text>
</g>
<!-- 12 -->
<g id="node14" class="node">
<title>12</title>
<ellipse fill="none" stroke="black" cx="1038" cy="-557.5" rx="27" ry="18"/>
<text text-anchor="middle" x="1038" y="-553.8" font-family="Times,serif" font-size="14.00">12</text>
</g>
<!-- 1&#45;&gt;12 -->
<g id="edge41" class="edge">
<title>1&#45;&gt;12</title>
<path fill="none" stroke="black" d="M1596.79,-2299.25C1420.72,-2297.41 256.51,-2284.36 230,-2260.48 147.65,-2186.3 88.77,-1379.64 108,-1270.49 116.94,-1219.76 151.42,-1159.11 190,-1096.49 224.97,-1039.73 236.56,-1027.06 280,-976.49 436.61,-794.2 769.45,-594.13 771,-593.5 848.15,-562.03 947.28,-557.41 1000.4,-557.51"/>
<polygon fill="black" stroke="black" points="1000.68,-561.01 1010.7,-557.59 1000.73,-554.01 1000.68,-561.01"/>
<text text-anchor="middle" x="112" y="-1432.78" font-family="Times,serif" font-size="14.00">0</text>
</g>
<!-- 13 -->
<g id="node15" class="node">
<title>13</title>
<ellipse fill="none" stroke="black" cx="674" cy="-940.49" rx="27" ry="18"/>
<text text-anchor="middle" x="674" y="-936.79" font-family="Times,serif" font-size="14.00">13</text>
</g>
<!-- 1&#45;&gt;13 -->
<g id="edge31" class="edge">
<title>1&#45;&gt;13</title>
<path fill="none" stroke="black" d="M1596.86,-2299.61C1461.86,-2300.3 752.43,-2301.88 666,-2260.48 454.65,-2159.24 401.37,-2082.87 319,-1863.48 300.9,-1815.28 263.21,-1915.79 343,-1602.98 388.61,-1424.2 444.66,-1394.86 502,-1219.49 524.18,-1151.66 522,-1132.54 540,-1063.49 546.28,-1039.38 541.7,-1030.55 555,-1009.49 566.94,-990.58 574.07,-988.4 593,-976.49 607.89,-967.12 625.72,-959.11 640.86,-953.13"/>
<polygon fill="black" stroke="black" points="642.27,-956.34 650.36,-949.5 639.77,-949.8 642.27,-956.34"/>
<text text-anchor="middle" x="348" y="-1606.78" font-family="Times,serif" font-size="14.00">1</text>
</g>
<!-- 19 -->
<g id="node21" class="node">
<title>19</title>
<ellipse fill="none" stroke="black" cx="2256" cy="-200.75" rx="22.96" ry="22.96"/>
<ellipse fill="none" stroke="black" cx="2256" cy="-200.75" rx="27" ry="27"/>
<text text-anchor="middle" x="2256" y="-197.05" font-family="Times,serif" font-size="14.00">19</text>
</g>
<!-- 1&#45;&gt;19 -->
<g id="edge140" class="edge">
<title>1&#45;&gt;19</title>
<path fill="none" stroke="black" d="M1641.04,-2297.82C1688.64,-2293.92 1804.42,-2282.79 1899,-2260.48 2082.25,-2217.26 2130.64,-2178.38 2264,-2045.48 2494.27,-1816.01 2492,-1675.57 2492,-1350.48 2492,-1350.48 2492,-1350.48 2492,-1156.99 2492,-1055.46 2416,-808.02 2416,-706.49 2416,-706.49 2416,-706.49 2416,-513 2416,-450.06 2366.24,-291.23 2323,-245.5 2313.11,-235.04 2300.26,-225.88 2288.45,-218.68"/>
<polygon fill="black" stroke="black" points="2290.1,-215.59 2279.7,-213.57 2286.57,-221.64 2290.1,-215.59"/>
<text text-anchor="middle" x="2497" y="-1241.29" font-family="Times,serif" font-size="14.00">2</text>
</g>
<!-- 2 -->
<g id="node4" class="node">
<title>2</title>
<ellipse fill="none" stroke="black" cx="2055" cy="-296.5" rx="27" ry="18"/>
<text text-anchor="middle" x="2055" y="-292.8" font-family="Times,serif" font-size="14.00">2</text>
</g>
<!-- 2&#45;&gt;1 -->
<g id="edge55" class="edge">
<title>2&#45;&gt;1</title>
<path fill="none" stroke="black" d="M2072.73,-310.14C2080.52,-316.28 2089.38,-324.13 2096,-332.5 2106.24,-345.43 2105.95,-350.58 2113,-365.5 2113.64,-366.85 2454,-1155.49 2454,-1156.99 2454,-1298.24 2454,-1298.24 2454,-1298.24 2454,-1568.03 2502.95,-1673.54 2351,-1896.48 2219.88,-2088.86 2147.49,-2112.59 1945,-2227.48 1910.47,-2247.07 1900.27,-2249.94 1862,-2260.48 1788.05,-2280.85 1698.32,-2291.83 1651.31,-2296.57"/>
<polygon fill="black" stroke="black" points="1650.74,-2293.11 1641.13,-2297.57 1651.42,-2300.08 1650.74,-2293.11"/>
<text text-anchor="middle" x="2459" y="-1293.54" font-family="Times,serif" font-size="14.00">2</text>
</g>
<!-- 2&#45;&gt;11 -->
<g id="edge125" class="edge">
<title>2&#45;&gt;11</title>
<path fill="none" stroke="black" d="M2028.09,-293.71C1853.61,-282.11 883.31,-217.59 681.69,-204.19"/>
<polygon fill="black" stroke="black" points="681.83,-200.69 671.62,-203.52 681.36,-207.67 681.83,-200.69"/>
<text text-anchor="middle" x="1522" y="-249.3" font-family="Times,serif" font-size="14.00">1</text>
</g>
<!-- 2&#45;&gt;19 -->
<g id="edge121" class="edge">
<title>2&#45;&gt;19</title>
<path fill="none" stroke="black" d="M2066.37,-279.83C2075.2,-268.73 2088.36,-254.31 2103,-245.5 2139.3,-223.63 2187.03,-212.26 2219.46,-206.66"/>
<polygon fill="black" stroke="black" points="2220.11,-210.1 2229.42,-205.04 2218.99,-203.19 2220.11,-210.1"/>
<text text-anchor="middle" x="2108" y="-249.3" font-family="Times,serif" font-size="14.00">3</text>
</g>
<!-- 22 -->
<g id="node24" class="node">
<title>22</title>
<ellipse fill="none" stroke="black" cx="1917" cy="-1114.49" rx="27" ry="18"/>
<text text-anchor="middle" x="1917" y="-1110.79" font-family="Times,serif" font-size="14.00">22</text>
</g>
<!-- 2&#45;&gt;22 -->
<g id="edge116" class="edge">
<title>2&#45;&gt;22</title>
<path fill="none" stroke="black" d="M2059.82,-314.37C2066.6,-340.24 2077.52,-391.23 2072,-434.5 2048.7,-617.13 2007.75,-655.71 1968,-835.49 1947.77,-926.99 1929.34,-1036.69 1921.28,-1086.51"/>
<polygon fill="black" stroke="black" points="1917.81,-1086.05 1919.68,-1096.48 1924.72,-1087.16 1917.81,-1086.05"/>
<text text-anchor="middle" x="2010" y="-701.79" font-family="Times,serif" font-size="14.00">4</text>
</g>
<!-- 25 -->
<g id="node27" class="node">
<title>25</title>
<ellipse fill="none" stroke="black" cx="1174" cy="-1662.73" rx="22.96" ry="22.96"/>
<ellipse fill="none" stroke="black" cx="1174" cy="-1662.73" rx="27" ry="27"/>
<text text-anchor="middle" x="1174" y="-1659.03" font-family="Times,serif" font-size="14.00">25</text>
</g>
<!-- 2&#45;&gt;25 -->
<g id="edge72" class="edge">
<title>2&#45;&gt;25</title>
<path fill="none" stroke="black" d="M2027.97,-297.55C1916.15,-297.97 1489.54,-301.6 1359,-332.5 1323.56,-340.88 1310.51,-340.52 1284,-365.5 1201.1,-443.6 1203.58,-485.63 1167,-593.5 1136.68,-682.9 1137.48,-708.46 1129,-802.49 1128.4,-809.13 1127.19,-811.07 1129,-817.49 1139.16,-853.59 1158.09,-855.08 1173,-889.49 1204.89,-963.1 1210.24,-983.99 1221,-1063.49 1238.01,-1189.14 1208,-1221.69 1208,-1348.48 1208,-1567.98 1208,-1567.98 1208,-1567.98 1208,-1589.46 1200.02,-1612.13 1191.79,-1629.8"/>
<polygon fill="black" stroke="black" points="1188.51,-1628.54 1187.24,-1639.06 1194.79,-1631.63 1188.51,-1628.54"/>
<text text-anchor="middle" x="1215" y="-980.29" font-family="Times,serif" font-size="14.00">0</text>
</g>
<!-- 3&#45;&gt;1 -->
<g id="edge122" class="edge">
<title>3&#45;&gt;1</title>
<path fill="none" stroke="black" d="M1647.8,-2224.22C1643.69,-2230.71 1639.3,-2238.25 1636,-2245.48 1632.56,-2253.02 1629.53,-2261.46 1627.03,-2269.38"/>
<polygon fill="black" stroke="black" points="1623.66,-2268.45 1624.15,-2279.04 1630.36,-2270.46 1623.66,-2268.45"/>
<text text-anchor="middle" x="1641" y="-2249.28" font-family="Times,serif" font-size="14.00">2</text>
</g>
<!-- 3&#45;&gt;9 -->
<g id="edge36" class="edge">
<title>3&#45;&gt;9</title>
<path fill="none" stroke="black" d="M1676.61,-2190.94C1709.31,-2164.11 1783.95,-2101.87 1843,-2045.48 1851.27,-2037.58 1978.16,-1905.64 1985,-1896.48 2048.51,-1811.46 2051.14,-1781.49 2104,-1689.48 2130.68,-1643.04 2150.2,-1636.73 2164,-1584.98 2198.59,-1455.27 2164.97,-1292.35 2149.19,-1229.2"/>
<polygon fill="black" stroke="black" points="2152.51,-1228.09 2146.64,-1219.27 2145.73,-1229.82 2152.51,-1228.09"/>
<text text-anchor="middle" x="2098" y="-1711.28" font-family="Times,serif" font-size="14.00">1</text>
</g>
<!-- 3&#45;&gt;13 -->
<g id="edge66" class="edge">
<title>3&#45;&gt;13</title>
<path fill="none" stroke="black" d="M1638.1,-2202.81C1485.2,-2190.62 579.32,-2109.81 437,-1896.48 273.98,-1652.12 554,-1539.73 554,-1245.99 554,-1245.99 554,-1245.99 554,-1069.99 554,-1017.45 608.24,-977.47 643.79,-956.91"/>
<polygon fill="black" stroke="black" points="645.8,-959.8 652.82,-951.87 642.39,-953.69 645.8,-959.8"/>
<text text-anchor="middle" x="462" y="-1563.28" font-family="Times,serif" font-size="14.00">3</text>
</g>
<!-- 3&#45;&gt;22 -->
<g id="edge134" class="edge">
<title>3&#45;&gt;22</title>
<path fill="none" stroke="black" d="M1668.17,-2184.93C1689.29,-2133.41 1745.83,-1989.24 1771,-1863.48 1793.8,-1749.59 1777,-1718.16 1792,-1602.98 1811.39,-1454.08 1818.67,-1416.9 1852,-1270.49 1860.9,-1231.38 1860.16,-1220.34 1876,-1183.49 1882.57,-1168.2 1892.06,-1152.21 1900.25,-1139.58"/>
<polygon fill="black" stroke="black" points="1903.31,-1141.3 1905.93,-1131.04 1897.48,-1137.43 1903.31,-1141.3"/>
<text text-anchor="middle" x="1793" y="-1659.03" font-family="Times,serif" font-size="14.00">0</text>
</g>
<!-- 27 -->
<g id="node29" class="node">
<title>27</title>
<ellipse fill="none" stroke="black" cx="1222" cy="-2114.48" rx="27" ry="18"/>
<text text-anchor="middle" x="1222" y="-2110.78" font-family="Times,serif" font-size="14.00">27</text>
</g>
<!-- 3&#45;&gt;27 -->
<g id="edge7" class="edge">
<title>3&#45;&gt;27</title>
<path fill="none" stroke="black" d="M1638.58,-2200.13C1568.35,-2185.86 1344.62,-2140.4 1257.34,-2122.66"/>
<polygon fill="black" stroke="black" points="1257.89,-2119.2 1247.4,-2120.64 1256.5,-2126.06 1257.89,-2119.2"/>
<text text-anchor="middle" x="1473" y="-2154.28" font-family="Times,serif" font-size="14.00">4</text>
</g>
<!-- 4 -->
<g id="node6" class="node">
<title>4</title>
<ellipse fill="none" stroke="black" cx="1028" cy="-1566.98" rx="27" ry="18"/>
<text text-anchor="middle" x="1028" y="-1563.28" font-family="Times,serif" font-size="14.00">4</text>
</g>
<!-- 4&#45;&gt;0 -->
<g id="edge68" class="edge">
<title>4&#45;&gt;0</title>
<path fill="none" stroke="black" d="M1025.18,-1585.25C1015.31,-1644.93 982.1,-1840.12 966,-1863.48 746.57,-2181.79 -71.08,-1977.19 192,-2260.48 313.06,-2390.84 1666.56,-2391.6 1909.71,-2390.68"/>
<polygon fill="black" stroke="black" points="1909.82,-2394.18 1919.81,-2390.64 1909.79,-2387.18 1909.82,-2394.18"/>
<text text-anchor="middle" x="848" y="-1972.28" font-family="Times,serif" font-size="14.00">0</text>
</g>
<!-- 4&#45;&gt;3 -->
<g id="edge150" class="edge">
<title>4&#45;&gt;3</title>
<path fill="none" stroke="black" d="M1033.54,-1584.78C1037.42,-1595.02 1043.3,-1608 1051,-1617.98 1081.57,-1657.61 1094.15,-1665.36 1138,-1689.48 1268.78,-1761.42 1329.51,-1716.86 1457,-1794.48 1554.85,-1854.05 1641,-1860.42 1641,-1974.98 1641,-2115.48 1641,-2115.48 1641,-2115.48 1641,-2135.37 1645.59,-2157.22 1650.26,-2174.29"/>
<polygon fill="black" stroke="black" points="1647,-2175.6 1653.14,-2184.24 1653.73,-2173.66 1647,-2175.6"/>
<text text-anchor="middle" x="1624" y="-1885.28" font-family="Times,serif" font-size="14.00">4</text>
</g>
<!-- 4&#45;&gt;13 -->
<g id="edge8" class="edge">
<title>4&#45;&gt;13</title>
<path fill="none" stroke="black" d="M1019.86,-1549.8C997.22,-1504.97 931.3,-1375.58 872,-1270.49 806.81,-1154.96 723.33,-1020.25 689.39,-965.98"/>
<polygon fill="black" stroke="black" points="692.28,-964.01 684.01,-957.39 686.35,-967.72 692.28,-964.01"/>
<text text-anchor="middle" x="867" y="-1241.29" font-family="Times,serif" font-size="14.00">1</text>
</g>
<!-- 15 -->
<g id="node17" class="node">
<title>15</title>
<ellipse fill="none" stroke="black" cx="1481" cy="-1479.98" rx="27" ry="18"/>
<text text-anchor="middle" x="1481" y="-1476.28" font-family="Times,serif" font-size="14.00">15</text>
</g>
<!-- 4&#45;&gt;15 -->
<g id="edge63" class="edge">
<title>4&#45;&gt;15</title>
<path fill="none" stroke="black" d="M1049.8,-1555.86C1055.91,-1553.32 1062.63,-1550.8 1069,-1548.98 1204.2,-1510.35 1371.04,-1491.22 1443.96,-1484.22"/>
<polygon fill="black" stroke="black" points="1444.39,-1487.7 1454.02,-1483.28 1443.74,-1480.73 1444.39,-1487.7"/>
<text text-anchor="middle" x="1209" y="-1519.78" font-family="Times,serif" font-size="14.00">2</text>
</g>
<!-- 28 -->
<g id="node30" class="node">
<title>28</title>
<ellipse fill="none" stroke="black" cx="793" cy="-1932.48" rx="27" ry="18"/>
<text text-anchor="middle" x="793" y="-1928.78" font-family="Times,serif" font-size="14.00">28</text>
</g>
<!-- 4&#45;&gt;28 -->
<g id="edge113" class="edge">
<title>4&#45;&gt;28</title>
<path fill="none" stroke="black" d="M1006.46,-1578.05C995.19,-1584.1 981.75,-1592.64 972,-1602.98 882.75,-1697.73 823.54,-1845.45 802.03,-1905.14"/>
<polygon fill="black" stroke="black" points="798.72,-1903.99 798.68,-1914.59 805.32,-1906.33 798.72,-1903.99"/>
<text text-anchor="middle" x="880" y="-1754.78" font-family="Times,serif" font-size="14.00">3</text>
</g>
<!-- 5 -->
<g id="node7" class="node">
<title>5</title>
<ellipse fill="none" stroke="black" cx="1028" cy="-2023.48" rx="18" ry="18"/>
<ellipse fill="none" stroke="black" cx="1028" cy="-2023.48" rx="22" ry="22"/>
<text text-anchor="middle" x="1028" y="-2019.78" font-family="Times,serif" font-size="14.00">5</text>
</g>
<!-- 5&#45;&gt;1 -->
<g id="edge70" class="edge">
<title>5&#45;&gt;1</title>
<path fill="none" stroke="black" d="M1044.71,-2037.84C1072.67,-2059.75 1131.29,-2103.73 1186,-2132.48 1329.78,-2208.04 1515.61,-2268.15 1588.12,-2290.29"/>
<polygon fill="black" stroke="black" points="1587.39,-2293.73 1597.97,-2293.28 1589.42,-2287.03 1587.39,-2293.73"/>
<text text-anchor="middle" x="1257" y="-2154.28" font-family="Times,serif" font-size="14.00">4</text>
</g>
<!-- 17 -->
<g id="node19" class="node">
<title>17</title>
<ellipse fill="none" stroke="black" cx="986" cy="-1027.49" rx="27" ry="18"/>
<text text-anchor="middle" x="986" y="-1023.79" font-family="Times,serif" font-size="14.00">17</text>
</g>
<!-- 5&#45;&gt;17 -->
<g id="edge32" class="edge">
<title>5&#45;&gt;17</title>
<path fill="none" stroke="black" d="M1025.75,-2001.57C1019.08,-1938.66 999.47,-1745.62 992,-1584.98 982.58,-1382.19 984.58,-1137.4 985.6,-1056.17"/>
<polygon fill="black" stroke="black" points="989.11,-1055.86 985.74,-1045.81 982.11,-1055.76 989.11,-1055.86"/>
<text text-anchor="middle" x="995" y="-1519.78" font-family="Times,serif" font-size="14.00">3</text>
</g>
<!-- 5&#45;&gt;19 -->
<g id="edge56" class="edge">
<title>5&#45;&gt;19</title>
<path fill="none" stroke="black" d="M1049.39,-2017.98C1145.35,-1997.67 1536.34,-1913.31 1651,-1863.48 1791.66,-1802.35 1835.85,-1793.01 1949,-1689.48 2082.7,-1567.15 2106.68,-1520.4 2185,-1356.98 2239.51,-1243.25 2340,-937.11 2340,-810.99 2340,-810.99 2340,-810.99 2340,-600 2340,-521.71 2302,-506.28 2302,-428 2302,-428 2302,-428 2302,-295.5 2302,-272.03 2290.24,-248.33 2278.61,-230.63"/>
<polygon fill="black" stroke="black" points="2281.18,-228.18 2272.61,-221.95 2275.42,-232.16 2281.18,-228.18"/>
<text text-anchor="middle" x="2285" y="-1110.79" font-family="Times,serif" font-size="14.00">2</text>
</g>
<!-- 5&#45;&gt;25 -->
<g id="edge141" class="edge">
<title>5&#45;&gt;25</title>
<path fill="none" stroke="black" d="M1049.87,-2019.27C1090.15,-2011.98 1172,-1990.2 1172,-1933.48 1172,-1933.48 1172,-1933.48 1172,-1757.48 1172,-1738.47 1172.42,-1717.3 1172.87,-1699.89"/>
<polygon fill="black" stroke="black" points="1176.38,-1699.69 1173.15,-1689.59 1169.38,-1699.49 1176.38,-1699.69"/>
<text text-anchor="middle" x="1177" y="-1841.78" font-family="Times,serif" font-size="14.00">0</text>
</g>
<!-- 5&#45;&gt;28 -->
<g id="edge132" class="edge">
<title>5&#45;&gt;28</title>
<path fill="none" stroke="black" d="M1008.25,-2013C984.19,-2001.63 942.13,-1982.38 905,-1968.48 879.36,-1958.88 849.76,-1949.71 827.44,-1943.17"/>
<polygon fill="black" stroke="black" points="828.31,-1939.78 817.74,-1940.35 826.37,-1946.5 828.31,-1939.78"/>
<text text-anchor="middle" x="945" y="-1972.28" font-family="Times,serif" font-size="14.00">1</text>
</g>
<!-- 6&#45;&gt;1 -->
<g id="edge79" class="edge">
<title>6&#45;&gt;1</title>
<path fill="none" stroke="black" d="M462.64,-105.77C404.52,-106.87 274,-118.4 274,-199.75 274,-810.99 274,-810.99 274,-810.99 274,-880.35 274.77,-912.32 223,-958.49 195.48,-983.03 175.59,-961.26 142,-976.49 119.41,-986.73 111.72,-989.53 97,-1009.49 55.83,-1065.31 46,-1087.62 46,-1156.99 46,-1298.24 46,-1298.24 46,-1298.24 46,-1601.32 130,-1671.9 130,-1974.98 130,-2158.98 130,-2158.98 130,-2158.98 130,-2217.82 162.04,-2234.85 215,-2260.48 278.75,-2291.33 1383.28,-2298.31 1586.88,-2299.33"/>
<polygon fill="black" stroke="black" points="1586.91,-2302.83 1596.93,-2299.38 1586.95,-2295.83 1586.91,-2302.83"/>
<text text-anchor="middle" x="51" y="-1197.79" font-family="Times,serif" font-size="14.00">0</text>
</g>
<!-- 6&#45;&gt;4 -->
<g id="edge131" class="edge">
<title>6&#45;&gt;4</title>
<path fill="none" stroke="black" d="M491.09,-122.99C494.04,-170.72 502,-310.08 502,-426 502,-758.74 502,-758.74 502,-758.74 502,-984.53 572.49,-1045.18 716,-1219.49 832.45,-1360.93 855.2,-1402.7 986,-1530.98 991.19,-1536.07 997.03,-1541.25 1002.68,-1546.01"/>
<polygon fill="black" stroke="black" points="1000.76,-1548.96 1010.7,-1552.62 1005.21,-1543.56 1000.76,-1548.96"/>
<text text-anchor="middle" x="515" y="-849.79" font-family="Times,serif" font-size="14.00">3</text>
</g>
<!-- 18 -->
<g id="node20" class="node">
<title>18</title>
<ellipse fill="none" stroke="black" cx="645" cy="-18" rx="27" ry="18"/>
<text text-anchor="middle" x="645" y="-14.3" font-family="Times,serif" font-size="14.00">18</text>
</g>
<!-- 6&#45;&gt;18 -->
<g id="edge39" class="edge">
<title>6&#45;&gt;18</title>
<path fill="none" stroke="black" d="M510.26,-92.89C537.18,-78.12 584.92,-51.95 615.75,-35.04"/>
<polygon fill="black" stroke="black" points="617.65,-37.99 624.73,-30.11 614.28,-31.85 617.65,-37.99"/>
<text text-anchor="middle" x="582" y="-57.8" font-family="Times,serif" font-size="14.00">4</text>
</g>
<!-- 24 -->
<g id="node26" class="node">
<title>24</title>
<ellipse fill="none" stroke="black" cx="635" cy="-1845.48" rx="27" ry="18"/>
<text text-anchor="middle" x="635" y="-1841.78" font-family="Times,serif" font-size="14.00">24</text>
</g>
<!-- 6&#45;&gt;24 -->
<g id="edge22" class="edge">
<title>6&#45;&gt;24</title>
<path fill="none" stroke="black" d="M473.18,-119.29C454.22,-135.9 426,-166.25 426,-199.75 426,-810.99 426,-810.99 426,-810.99 426,-1039.43 405.72,-1101.6 458,-1323.98 479.34,-1414.76 526,-1429.23 526,-1522.48 526,-1759.48 526,-1759.48 526,-1759.48 526,-1798.08 569.04,-1821.73 601.03,-1833.98"/>
<polygon fill="black" stroke="black" points="599.94,-1837.31 610.54,-1837.42 602.32,-1830.73 599.94,-1837.31"/>
<text text-anchor="middle" x="429" y="-980.29" font-family="Times,serif" font-size="14.00">2</text>
</g>
<!-- 29 -->
<g id="node31" class="node">
<title>29</title>
<ellipse fill="none" stroke="black" cx="1917" cy="-1297.24" rx="22.96" ry="22.96"/>
<ellipse fill="none" stroke="black" cx="1917" cy="-1297.24" rx="27" ry="27"/>
<text text-anchor="middle" x="1917" y="-1293.54" font-family="Times,serif" font-size="14.00">29</text>
</g>
<!-- 6&#45;&gt;29 -->
<g id="edge109" class="edge">
<title>6&#45;&gt;29</title>
<path fill="none" stroke="black" d="M516.19,-109.41C562.56,-115.49 662.11,-128.71 746,-141 839.91,-154.76 864.78,-151.55 957,-174 1294.95,-256.27 1398.6,-298.09 1649,-539.5 1878.38,-760.63 1757.53,-923.72 1876,-1219.49 1882.21,-1234.98 1890.69,-1251.4 1898.34,-1265.06"/>
<polygon fill="black" stroke="black" points="1895.46,-1267.08 1903.45,-1274.03 1901.54,-1263.61 1895.46,-1267.08"/>
<text text-anchor="middle" x="1775" y="-701.79" font-family="Times,serif" font-size="14.00">1</text>
</g>
<!-- 7&#45;&gt;0 -->
<g id="edge88" class="edge">
<title>7&#45;&gt;0</title>
<path fill="none" stroke="black" d="M1938.49,-1206.25C1960.37,-1210.54 1991.11,-1219.46 2012,-1237.49 2023.31,-1247.26 2262,-1699.03 2262,-1713.98 2262,-2301.48 2262,-2301.48 2262,-2301.48 2262,-2358.7 2067.06,-2380.97 1983.89,-2387.87"/>
<polygon fill="black" stroke="black" points="1983.55,-2384.39 1973.86,-2388.67 1984.1,-2391.36 1983.55,-2384.39"/>
<text text-anchor="middle" x="2267" y="-1798.28" font-family="Times,serif" font-size="14.00">2</text>
</g>
<!-- 8 -->
<g id="node10" class="node">
<title>8</title>
<ellipse fill="none" stroke="black" cx="1679" cy="-1758.48" rx="27" ry="18"/>
<text text-anchor="middle" x="1679" y="-1754.78" font-family="Times,serif" font-size="14.00">8</text>
</g>
<!-- 7&#45;&gt;8 -->
<g id="edge14" class="edge">
<title>7&#45;&gt;8</title>
<path fill="none" stroke="black" d="M1901.09,-1218.31C1884.29,-1244.25 1854,-1298.03 1854,-1348.48 1854,-1524.48 1854,-1524.48 1854,-1524.48 1854,-1602.82 1839.66,-1627.3 1792,-1689.48 1771.5,-1716.23 1737.21,-1734.7 1711.78,-1745.57"/>
<polygon fill="black" stroke="black" points="1710.43,-1742.33 1702.51,-1749.36 1713.09,-1748.81 1710.43,-1742.33"/>
<text text-anchor="middle" x="1859" y="-1476.28" font-family="Times,serif" font-size="14.00">3</text>
</g>
<!-- 7&#45;&gt;12 -->
<g id="edge98" class="edge">
<title>7&#45;&gt;12</title>
<path fill="none" stroke="black" d="M1894.66,-1187.65C1861.33,-1163.12 1789.23,-1110.75 1762,-1096.49 1704.82,-1066.53 1676.57,-1085.62 1626,-1045.49 1567,-998.67 1566.26,-971.56 1532,-904.49 1509.99,-861.41 1520.08,-843.24 1494,-802.49 1424.43,-693.77 1376.33,-688.26 1263,-626.5 1231.38,-609.26 1223.14,-604.95 1189,-593.5 1150.38,-580.54 1104.63,-570.67 1073.69,-564.76"/>
<polygon fill="black" stroke="black" points="1074.27,-561.31 1063.8,-562.91 1072.98,-568.19 1074.27,-561.31"/>
<text text-anchor="middle" x="1537" y="-893.29" font-family="Times,serif" font-size="14.00">0</text>
</g>
<!-- 21 -->
<g id="node23" class="node">
<title>21</title>
<ellipse fill="none" stroke="black" cx="1227" cy="-653.24" rx="22.96" ry="22.96"/>
<ellipse fill="none" stroke="black" cx="1227" cy="-653.24" rx="27" ry="27"/>
<text text-anchor="middle" x="1227" y="-649.54" font-family="Times,serif" font-size="14.00">21</text>
</g>
<!-- 7&#45;&gt;21 -->
<g id="edge130" class="edge">
<title>7&#45;&gt;21</title>
<path fill="none" stroke="black" d="M1885.16,-1199.21C1802.63,-1194.84 1554.33,-1178.08 1490,-1132.49 1448.72,-1103.23 1293.22,-789.82 1242.85,-686.83"/>
<polygon fill="black" stroke="black" points="1245.84,-684.99 1238.31,-677.54 1239.55,-688.06 1245.84,-684.99"/>
<text text-anchor="middle" x="1386" y="-936.79" font-family="Times,serif" font-size="14.00">1</text>
</g>
<!-- 7&#45;&gt;22 -->
<g id="edge27" class="edge">
<title>7&#45;&gt;22</title>
<path fill="none" stroke="black" d="M1918.43,-1183.64C1920.29,-1177.96 1922.07,-1171.53 1923,-1165.49 1924.14,-1158.09 1923.84,-1150.04 1922.94,-1142.61"/>
<polygon fill="black" stroke="black" points="1926.39,-1141.98 1921.36,-1132.65 1919.47,-1143.08 1926.39,-1141.98"/>
<text text-anchor="middle" x="1928" y="-1154.29" font-family="Times,serif" font-size="14.00">4</text>
</g>
<!-- 8&#45;&gt;1 -->
<g id="edge4" class="edge">
<title>8&#45;&gt;1</title>
<path fill="none" stroke="black" d="M1693.71,-1773.73C1746.3,-1826.45 1918.18,-2015.19 1847,-2165.48 1809.97,-2243.67 1703.92,-2279.36 1650.52,-2292.75"/>
<polygon fill="black" stroke="black" points="1649.49,-2289.39 1640.58,-2295.13 1651.12,-2296.2 1649.49,-2289.39"/>
<text text-anchor="middle" x="1864" y="-2019.78" font-family="Times,serif" font-size="14.00">3</text>
</g>
<!-- 8&#45;&gt;2 -->
<g id="edge91" class="edge">
<title>8&#45;&gt;2</title>
<path fill="none" stroke="black" d="M1670.94,-1741.11C1658.52,-1716.75 1633.06,-1670.17 1604,-1635.98 1543.4,-1564.69 1498.47,-1574.77 1445,-1497.98 1369.41,-1389.43 1372.45,-1347.73 1340,-1219.49 1314.91,-1120.35 1318.29,-1093.33 1309,-991.49 1306.55,-964.63 1280.23,-532.61 1287,-506.5 1301.28,-451.39 1327.1,-437.81 1381,-419.5 1615.62,-339.77 1914.85,-309 2018.06,-300.31"/>
<polygon fill="black" stroke="black" points="2018.59,-303.78 2028.27,-299.47 2018.02,-296.81 2018.59,-303.78"/>
<text text-anchor="middle" x="1319" y="-1023.79" font-family="Times,serif" font-size="14.00">1</text>
</g>
<!-- 8&#45;&gt;8 -->
<g id="edge20" class="edge">
<title>8&#45;&gt;8</title>
<path fill="none" stroke="black" d="M1703.53,-1766.23C1714.51,-1766.97 1724,-1764.39 1724,-1758.48 1724,-1754.51 1719.72,-1752.04 1713.57,-1751.07"/>
<polygon fill="black" stroke="black" points="1713.65,-1747.57 1703.53,-1750.73 1713.41,-1754.57 1713.65,-1747.57"/>
<text text-anchor="middle" x="1729" y="-1754.78" font-family="Times,serif" font-size="14.00">2</text>
</g>
<!-- 14 -->
<g id="node16" class="node">
<title>14</title>
<ellipse fill="none" stroke="black" cx="1746" cy="-470.5" rx="27" ry="18"/>
<text text-anchor="middle" x="1746" y="-466.8" font-family="Times,serif" font-size="14.00">14</text>
</g>
<!-- 8&#45;&gt;14 -->
<g id="edge94" class="edge">
<title>8&#45;&gt;14</title>
<path fill="none" stroke="black" d="M1683.34,-1740.67C1687.77,-1722.01 1694,-1690.93 1694,-1663.73 1694,-1663.73 1694,-1663.73 1694,-1522.48 1694,-1396.85 1726.34,-1083.94 1733,-958.49 1734.27,-934.51 1734.25,-928.49 1735,-904.49 1739.78,-751.42 1743.92,-567.85 1745.41,-499.2"/>
<polygon fill="black" stroke="black" points="1748.92,-498.9 1745.63,-488.82 1741.92,-498.74 1748.92,-498.9"/>
<text text-anchor="middle" x="1727" y="-1110.79" font-family="Times,serif" font-size="14.00">0</text>
</g>
<!-- 8&#45;&gt;25 -->
<g id="edge48" class="edge">
<title>8&#45;&gt;25</title>
<path fill="none" stroke="black" d="M1653.26,-1752.7C1569.87,-1737.22 1306.94,-1688.41 1210.19,-1670.45"/>
<polygon fill="black" stroke="black" points="1210.76,-1667 1200.29,-1668.61 1209.48,-1673.88 1210.76,-1667"/>
<text text-anchor="middle" x="1492" y="-1711.28" font-family="Times,serif" font-size="14.00">4</text>
</g>
<!-- 9&#45;&gt;2 -->
<g id="edge89" class="edge">
<title>9&#45;&gt;2</title>
<path fill="none" stroke="black" d="M2148.43,-1183.64C2150.29,-1177.96 2152.07,-1171.53 2153,-1165.49 2154.01,-1158.9 2153.01,-1157.15 2153,-1150.49 2152.45,-902.9 2188.9,-836.98 2144,-593.5 2122.32,-475.93 2128.03,-441.52 2079,-332.5 2077.31,-328.75 2075.22,-324.97 2072.99,-321.36"/>
<polygon fill="black" stroke="black" points="2075.73,-319.17 2067.26,-312.81 2069.92,-323.07 2075.73,-319.17"/>
<text text-anchor="middle" x="2170" y="-754.04" font-family="Times,serif" font-size="14.00">1</text>
</g>
<!-- 9&#45;&gt;19 -->
<g id="edge17" class="edge">
<title>9&#45;&gt;19</title>
<path fill="none" stroke="black" d="M2155.2,-1185.41C2159.64,-1179.56 2164.18,-1172.56 2167,-1165.49 2274.91,-894.37 2256,-806.8 2256,-515 2256,-515 2256,-515 2256,-295.5 2256,-276.49 2256,-255.32 2256,-237.91"/>
<polygon fill="black" stroke="black" points="2259.5,-237.61 2256,-227.61 2252.5,-237.61 2259.5,-237.61"/>
<text text-anchor="middle" x="2262" y="-701.79" font-family="Times,serif" font-size="14.00">3</text>
</g>
<!-- 26 -->
<g id="node28" class="node">
<title>26</title>
<ellipse fill="none" stroke="black" cx="1944" cy="-383.5" rx="27" ry="18"/>
<text text-anchor="middle" x="1944" y="-379.8" font-family="Times,serif" font-size="14.00">26</text>
</g>
<!-- 9&#45;&gt;26 -->
<g id="edge115" class="edge">
<title>9&#45;&gt;26</title>
<path fill="none" stroke="black" d="M2141.15,-1183.18C2138.65,-1135.84 2130.23,-1000.42 2111,-889.49 2106.4,-862.98 2009.24,-441.67 1994,-419.5 1988.82,-411.96 1981.46,-405.53 1973.97,-400.32"/>
<polygon fill="black" stroke="black" points="1975.56,-397.18 1965.24,-394.76 1971.8,-403.09 1975.56,-397.18"/>
<text text-anchor="middle" x="2099" y="-806.29" font-family="Times,serif" font-size="14.00">4</text>
</g>
<!-- 9&#45;&gt;27 -->
<g id="edge126" class="edge">
<title>9&#45;&gt;27</title>
<path fill="none" stroke="black" d="M2136.26,-1219.33C2113.49,-1284.55 2024.62,-1525 1898,-1689.48 1734.26,-1902.18 1681.39,-1969.69 1436,-2078.48 1377.98,-2104.2 1303.56,-2111.23 1259.51,-2113.02"/>
<polygon fill="black" stroke="black" points="1259.14,-2109.53 1249.26,-2113.37 1259.37,-2116.53 1259.14,-2109.53"/>
<text text-anchor="middle" x="1940" y="-1659.03" font-family="Times,serif" font-size="14.00">0</text>
</g>
<!-- 9&#45;&gt;29 -->
<g id="edge95" class="edge">
<title>9&#45;&gt;29</title>
<path fill="none" stroke="black" d="M2119.54,-1211.85C2079.92,-1228.35 1997.42,-1262.73 1950.87,-1282.12"/>
<polygon fill="black" stroke="black" points="1949.39,-1278.95 1941.51,-1286.02 1952.08,-1285.41 1949.39,-1278.95"/>
<text text-anchor="middle" x="2061" y="-1241.29" font-family="Times,serif" font-size="14.00">2</text>
</g>
<!-- 10&#45;&gt;10 -->
<g id="edge85" class="edge">
<title>10&#45;&gt;10</title>
<path fill="none" stroke="black" d="M844.53,-861.24C855.51,-861.98 865,-859.39 865,-853.49 865,-849.52 860.72,-847.05 854.57,-846.08"/>
<polygon fill="black" stroke="black" points="854.65,-842.58 844.53,-845.74 854.41,-849.58 854.65,-842.58"/>
<text text-anchor="middle" x="870" y="-849.79" font-family="Times,serif" font-size="14.00">3</text>
</g>
<!-- 16 -->
<g id="node18" class="node">
<title>16</title>
<ellipse fill="none" stroke="black" cx="1359" cy="-757.74" rx="22.96" ry="22.96"/>
<ellipse fill="none" stroke="black" cx="1359" cy="-757.74" rx="27" ry="27"/>
<text text-anchor="middle" x="1359" y="-754.04" font-family="Times,serif" font-size="14.00">16</text>
</g>
<!-- 10&#45;&gt;16 -->
<g id="edge96" class="edge">
<title>10&#45;&gt;16</title>
<path fill="none" stroke="black" d="M846.79,-850.43C916.66,-844.95 1103.22,-829.62 1164,-817.49 1221.29,-806.05 1285.86,-784.9 1324.45,-771.35"/>
<polygon fill="black" stroke="black" points="1325.89,-774.55 1334.15,-767.91 1323.55,-767.95 1325.89,-774.55"/>
<text text-anchor="middle" x="1229" y="-806.29" font-family="Times,serif" font-size="14.00">4</text>
</g>
<!-- 10&#45;&gt;24 -->
<g id="edge84" class="edge">
<title>10&#45;&gt;24</title>
<path fill="none" stroke="black" d="M798.98,-865.35C789.26,-871.31 778.28,-879.53 771,-889.49 601.52,-1121.47 640,-1235.19 640,-1522.48 640,-1759.48 640,-1759.48 640,-1759.48 640,-1778.76 638.7,-1800.46 637.43,-1817.11"/>
<polygon fill="black" stroke="black" points="633.93,-1816.99 636.61,-1827.24 640.9,-1817.56 633.93,-1816.99"/>
<text text-anchor="middle" x="643" y="-1345.78" font-family="Times,serif" font-size="14.00">2</text>
</g>
<!-- 10&#45;&gt;27 -->
<g id="edge90" class="edge">
<title>10&#45;&gt;27</title>
<path fill="none" stroke="black" d="M831.61,-869.86C842.78,-886.22 858,-913.3 858,-939.49 858,-1071.99 858,-1071.99 858,-1071.99 858,-1152.33 863.53,-1172.27 868,-1252.49 869.77,-1284.26 868.87,-1292.31 872,-1323.98 896.87,-1575.93 952,-1634.81 952,-1887.98 952,-2024.48 952,-2024.48 952,-2024.48 952,-2073.05 1111.6,-2099.54 1185.38,-2109.2"/>
<polygon fill="black" stroke="black" points="1185.26,-2112.71 1195.62,-2110.5 1186.14,-2105.77 1185.26,-2112.71"/>
<text text-anchor="middle" x="903" y="-1476.28" font-family="Times,serif" font-size="14.00">0</text>
</g>
<!-- 10&#45;&gt;28 -->
<g id="edge78" class="edge">
<title>10&#45;&gt;28</title>
<path fill="none" stroke="black" d="M812.55,-870.97C810.17,-876.73 807.72,-883.31 806,-889.49 763.98,-1040.48 761.71,-1081.28 749,-1237.49 727.88,-1497.05 773.59,-1811.92 788.5,-1904.61"/>
<polygon fill="black" stroke="black" points="785.06,-1905.25 790.12,-1914.55 791.97,-1904.12 785.06,-1905.25"/>
<text text-anchor="middle" x="749" y="-1389.28" font-family="Times,serif" font-size="14.00">1</text>
</g>
<!-- 11&#45;&gt;1 -->
<g id="edge52" class="edge">
<title>11&#45;&gt;1</title>
<path fill="none" stroke="black" d="M631.92,-224.5C623.97,-239.38 614.36,-259.52 609,-278.5 569.54,-418.15 552,-454.88 552,-600 552,-758.74 552,-758.74 552,-758.74 552,-799.45 519.98,-798.96 502,-835.49 418.72,-1004.63 265.5,-1452.78 221,-1635.98 213.43,-1667.16 213.23,-1675.47 211,-1707.48 196.2,-1920.07 297.68,-1967.85 433,-2132.48 470.72,-2178.37 476.29,-2196.55 527,-2227.48 568.76,-2252.95 583.8,-2252.11 632,-2260.48 821.76,-2293.45 1438.43,-2298.59 1586.72,-2299.35"/>
<polygon fill="black" stroke="black" points="1586.94,-2302.85 1596.95,-2299.4 1586.97,-2295.85 1586.94,-2302.85"/>
<text text-anchor="middle" x="350" y="-1241.29" font-family="Times,serif" font-size="14.00">3</text>
</g>
<!-- 11&#45;&gt;6 -->
<g id="edge45" class="edge">
<title>11&#45;&gt;6</title>
<path fill="none" stroke="black" d="M622.46,-186.12C594.92,-169.46 548.29,-141.25 518.34,-123.14"/>
<polygon fill="black" stroke="black" points="519.99,-120.05 509.62,-117.87 516.37,-126.04 519.99,-120.05"/>
<text text-anchor="middle" x="578" y="-144.8" font-family="Times,serif" font-size="14.00">2</text>
</g>
<!-- 11&#45;&gt;7 -->
<g id="edge10" class="edge">
<title>11&#45;&gt;7</title>
<path fill="none" stroke="black" d="M670.21,-210.16C743.54,-234.37 963.33,-305.2 1150,-347.5 1427.7,-410.41 1524.42,-331.13 1782,-452.5 1859.47,-489 1906,-514.35 1906,-600 1906,-810.99 1906,-810.99 1906,-810.99 1906,-938.36 1886.56,-969.23 1881,-1096.49 1880.3,-1112.47 1877.6,-1116.85 1881,-1132.49 1884.25,-1147.44 1891.08,-1163.05 1897.51,-1175.53"/>
<polygon fill="black" stroke="black" points="1894.46,-1177.26 1902.28,-1184.41 1900.63,-1173.95 1894.46,-1177.26"/>
<text text-anchor="middle" x="1911" y="-701.79" font-family="Times,serif" font-size="14.00">4</text>
</g>
<!-- 11&#45;&gt;13 -->
<g id="edge111" class="edge">
<title>11&#45;&gt;13</title>
<path fill="none" stroke="black" d="M656.46,-225.02C664.57,-243.63 674,-270.62 674,-295.5 674,-854.49 674,-854.49 674,-854.49 674,-873.74 674,-895.43 674,-912.09"/>
<polygon fill="black" stroke="black" points="670.5,-912.23 674,-922.23 677.5,-912.23 670.5,-912.23"/>
<text text-anchor="middle" x="679" y="-553.8" font-family="Times,serif" font-size="14.00">1</text>
</g>
<!-- 11&#45;&gt;18 -->
<g id="edge54" class="edge">
<title>11&#45;&gt;18</title>
<path fill="none" stroke="black" d="M645,-173.85C645,-140.03 645,-81.06 645,-46.48"/>
<polygon fill="black" stroke="black" points="648.5,-46.17 645,-36.17 641.5,-46.17 648.5,-46.17"/>
<text text-anchor="middle" x="650" y="-101.3" font-family="Times,serif" font-size="14.00">0</text>
</g>
<!-- 12&#45;&gt;6 -->
<g id="edge73" class="edge">
<title>12&#45;&gt;6</title>
<path fill="none" stroke="black" d="M1016.64,-546.39C968.98,-523.45 851.07,-464.53 761,-401.5 712.46,-367.53 701.32,-356.95 660,-314.5 599.13,-251.95 536.54,-169.63 507.18,-129.72"/>
<polygon fill="black" stroke="black" points="509.83,-127.42 501.1,-121.42 504.19,-131.56 509.83,-127.42"/>
<text text-anchor="middle" x="698" y="-336.3" font-family="Times,serif" font-size="14.00">0</text>
</g>
<!-- 12&#45;&gt;10 -->
<g id="edge76" class="edge">
<title>12&#45;&gt;10</title>
<path fill="none" stroke="black" d="M1026.14,-573.83C1015.55,-587.57 999.64,-608.3 986,-626.5 931.05,-699.81 867.18,-787.46 837.2,-828.75"/>
<polygon fill="black" stroke="black" points="834.21,-826.92 831.17,-837.07 839.88,-831.03 834.21,-826.92"/>
<text text-anchor="middle" x="937" y="-701.79" font-family="Times,serif" font-size="14.00">3</text>
</g>
<!-- 12&#45;&gt;12 -->
<g id="edge107" class="edge">
<title>12&#45;&gt;12</title>
<path fill="none" stroke="black" d="M1062.53,-565.25C1073.51,-565.99 1083,-563.4 1083,-557.5 1083,-553.53 1078.72,-551.06 1072.57,-550.09"/>
<polygon fill="black" stroke="black" points="1072.65,-546.59 1062.53,-549.74 1072.41,-553.59 1072.65,-546.59"/>
<text text-anchor="middle" x="1088" y="-553.8" font-family="Times,serif" font-size="14.00">2</text>
</g>
<!-- 12&#45;&gt;21 -->
<g id="edge53" class="edge">
<title>12&#45;&gt;21</title>
<path fill="none" stroke="black" d="M1059.46,-568.84C1073.79,-575.77 1093.05,-585.12 1110,-593.5 1138.48,-607.57 1170.73,-623.78 1194.15,-635.61"/>
<polygon fill="black" stroke="black" points="1192.79,-638.84 1203.29,-640.23 1195.95,-632.59 1192.79,-638.84"/>
<text text-anchor="middle" x="1144" y="-597.3" font-family="Times,serif" font-size="14.00">4</text>
</g>
<!-- 23 -->
<g id="node25" class="node">
<title>23</title>
<ellipse fill="none" stroke="black" cx="1609" cy="-1392.98" rx="27" ry="18"/>
<text text-anchor="middle" x="1609" y="-1389.28" font-family="Times,serif" font-size="14.00">23</text>
</g>
<!-- 12&#45;&gt;23 -->
<g id="edge86" class="edge">
<title>12&#45;&gt;23</title>
<path fill="none" stroke="black" d="M1048.28,-574.65C1093.41,-645.38 1278.91,-934.63 1441,-1165.49 1493.92,-1240.86 1559.78,-1327.77 1590.99,-1368.55"/>
<polygon fill="black" stroke="black" points="1588.25,-1370.73 1597.11,-1376.54 1593.8,-1366.47 1588.25,-1370.73"/>
<text text-anchor="middle" x="1326" y="-980.29" font-family="Times,serif" font-size="14.00">1</text>
</g>
<!-- 13&#45;&gt;0 -->
<g id="edge136" class="edge">
<title>13&#45;&gt;0</title>
<path fill="none" stroke="black" d="M648.24,-946.14C625.54,-951.09 592.25,-960.46 567,-976.49 522.14,-1004.96 514.17,-1019.08 485,-1063.49 480.97,-1069.62 278.74,-1542.17 276,-1548.98 245.27,-1625.38 243.02,-1646.62 211,-1722.48 162.75,-1836.77 92,-1850.92 92,-1974.98 92,-2301.48 92,-2301.48 92,-2301.48 92,-2395.94 1646.86,-2392.04 1909.53,-2390.7"/>
<polygon fill="black" stroke="black" points="1909.72,-2394.2 1919.7,-2390.65 1909.68,-2387.2 1909.72,-2394.2"/>
<text text-anchor="middle" x="249" y="-1659.03" font-family="Times,serif" font-size="14.00">1</text>
</g>
<!-- 13&#45;&gt;8 -->
<g id="edge16" class="edge">
<title>13&#45;&gt;8</title>
<path fill="none" stroke="black" d="M675.79,-958.81C684.1,-1031.71 724.52,-1318.12 862,-1497.98 952.66,-1616.6 998.55,-1636.16 1138,-1689.48 1230.86,-1724.99 1535.52,-1748 1641.92,-1755.12"/>
<polygon fill="black" stroke="black" points="1641.96,-1758.63 1652.17,-1755.8 1642.42,-1751.65 1641.96,-1758.63"/>
<text text-anchor="middle" x="785" y="-1345.78" font-family="Times,serif" font-size="14.00">4</text>
</g>
<!-- 13&#45;&gt;10 -->
<g id="edge123" class="edge">
<title>13&#45;&gt;10</title>
<path fill="none" stroke="black" d="M688.49,-924.89C699.85,-914.05 716.44,-899.47 733,-889.49 749.51,-879.53 769.36,-871.3 785.93,-865.32"/>
<polygon fill="black" stroke="black" points="787.47,-868.49 795.76,-861.9 785.17,-861.88 787.47,-868.49"/>
<text text-anchor="middle" x="738" y="-893.29" font-family="Times,serif" font-size="14.00">0</text>
</g>
<!-- 13&#45;&gt;11 -->
<g id="edge38" class="edge">
<title>13&#45;&gt;11</title>
<path fill="none" stroke="black" d="M653.63,-928.3C631.12,-914.27 598,-887.94 598,-854.49 598,-854.49 598,-854.49 598,-426 598,-357.36 619.35,-279.36 633.28,-235.81"/>
<polygon fill="black" stroke="black" points="636.61,-236.88 636.38,-226.28 629.95,-234.71 636.61,-236.88"/>
<text text-anchor="middle" x="603" y="-553.8" font-family="Times,serif" font-size="14.00">2</text>
</g>
<!-- 13&#45;&gt;24 -->
<g id="edge119" class="edge">
<title>13&#45;&gt;24</title>
<path fill="none" stroke="black" d="M667.93,-958.27C655.54,-993.38 627.54,-1077.4 616,-1150.49 593.2,-1294.83 602,-1332.85 602,-1478.98 602,-1759.48 602,-1759.48 602,-1759.48 602,-1780.78 611.12,-1803.18 619.77,-1819.63"/>
<polygon fill="black" stroke="black" points="616.83,-1821.54 624.74,-1828.58 622.95,-1818.14 616.83,-1821.54"/>
<text text-anchor="middle" x="607" y="-1389.28" font-family="Times,serif" font-size="14.00">3</text>
</g>
<!-- 14&#45;&gt;7 -->
<g id="edge43" class="edge">
<title>14&#45;&gt;7</title>
<path fill="none" stroke="black" d="M1767.81,-481.43C1802.9,-498.13 1868,-532.36 1868,-556.5 1868,-810.99 1868,-810.99 1868,-810.99 1868,-943.38 1933.91,-965.48 1953,-1096.49 1955.31,-1112.32 1956.58,-1116.89 1953,-1132.49 1949.35,-1148.37 1945.32,-1151.47 1937,-1165.49 1934.77,-1169.24 1932.25,-1173.11 1929.7,-1176.84"/>
<polygon fill="black" stroke="black" points="1926.71,-1175 1923.78,-1185.19 1932.42,-1179.05 1926.71,-1175"/>
<text text-anchor="middle" x="1878" y="-849.79" font-family="Times,serif" font-size="14.00">3</text>
</g>
<!-- 20 -->
<g id="node22" class="node">
<title>20</title>
<ellipse fill="none" stroke="black" cx="1613" cy="-557.5" rx="27" ry="18"/>
<text text-anchor="middle" x="1613" y="-553.8" font-family="Times,serif" font-size="14.00">20</text>
</g>
<!-- 14&#45;&gt;20 -->
<g id="edge135" class="edge">
<title>14&#45;&gt;20</title>
<path fill="none" stroke="black" d="M1721.04,-477.85C1702.28,-483.4 1676.57,-492.76 1657,-506.5 1646.85,-513.62 1637.49,-523.54 1630.03,-532.67"/>
<polygon fill="black" stroke="black" points="1627.14,-530.69 1623.75,-540.73 1632.66,-534.99 1627.14,-530.69"/>
<text text-anchor="middle" x="1662" y="-510.3" font-family="Times,serif" font-size="14.00">0</text>
</g>
<!-- 14&#45;&gt;22 -->
<g id="edge108" class="edge">
<title>14&#45;&gt;22</title>
<path fill="none" stroke="black" d="M1753.1,-488.19C1762.78,-511.44 1780.12,-555.05 1791,-593.5 1851.13,-806.08 1823.48,-871.23 1900,-1078.49 1901.17,-1081.66 1902.53,-1084.92 1903.96,-1088.13"/>
<polygon fill="black" stroke="black" points="1900.91,-1089.86 1908.36,-1097.4 1907.24,-1086.86 1900.91,-1089.86"/>
<text text-anchor="middle" x="1841" y="-806.29" font-family="Times,serif" font-size="14.00">1</text>
</g>
<!-- 14&#45;&gt;25 -->
<g id="edge11" class="edge">
<title>14&#45;&gt;25</title>
<path fill="none" stroke="black" d="M1722.66,-479.63C1714.27,-482.5 1704.73,-485.7 1696,-488.5 1669.48,-496.98 1661.64,-495.64 1636,-506.5 1537.73,-548.13 1481.14,-533.94 1428,-626.5 1416.16,-647.12 1421.02,-657.26 1428,-679.99 1440.09,-719.38 1480,-715.54 1480,-756.74 1480,-897.99 1480,-897.99 1480,-897.99 1480,-1057.43 1327.22,-1435.04 1273,-1584.98 1267.58,-1599.97 1269.84,-1606.31 1259,-1617.98 1245.5,-1632.52 1226.07,-1643.02 1209.2,-1650.09"/>
<polygon fill="black" stroke="black" points="1207.65,-1646.93 1199.62,-1653.85 1210.21,-1653.45 1207.65,-1646.93"/>
<text text-anchor="middle" x="1457" y="-1067.29" font-family="Times,serif" font-size="14.00">4</text>
</g>
<!-- 14&#45;&gt;26 -->
<g id="edge24" class="edge">
<title>14&#45;&gt;26</title>
<path fill="none" stroke="black" d="M1768.33,-459.91C1803.55,-444.79 1872.14,-415.34 1912.41,-398.06"/>
<polygon fill="black" stroke="black" points="1913.95,-401.21 1921.75,-394.05 1911.18,-394.77 1913.95,-401.21"/>
<text text-anchor="middle" x="1861" y="-423.3" font-family="Times,serif" font-size="14.00">2</text>
</g>
<!-- 15&#45;&gt;1 -->
<g id="edge12" class="edge">
<title>15&#45;&gt;1</title>
<path fill="none" stroke="black" d="M1486.64,-1497.72C1498.92,-1535.69 1527,-1631.52 1527,-1713.98 1527,-1889.98 1527,-1889.98 1527,-1889.98 1527,-1969.11 1549.6,-1986.28 1567,-2063.48 1583.57,-2136.99 1602.49,-2223.51 1612.3,-2268.61"/>
<polygon fill="black" stroke="black" points="1608.93,-2269.6 1614.48,-2278.63 1615.77,-2268.11 1608.93,-2269.6"/>
<text text-anchor="middle" x="1532" y="-1885.28" font-family="Times,serif" font-size="14.00">2</text>
</g>
<!-- 15&#45;&gt;9 -->
<g id="edge102" class="edge">
<title>15&#45;&gt;9</title>
<path fill="none" stroke="black" d="M1506.08,-1472.94C1577.81,-1455.19 1789.17,-1399.7 1953,-1323.98 2015.51,-1295.09 2081.69,-1248.27 2116.74,-1221.99"/>
<polygon fill="black" stroke="black" points="2119.1,-1224.59 2124.97,-1215.77 2114.88,-1219.01 2119.1,-1224.59"/>
<text text-anchor="middle" x="1915" y="-1345.78" font-family="Times,serif" font-size="14.00">0</text>
</g>
<!-- 15&#45;&gt;13 -->
<g id="edge148" class="edge">
<title>15&#45;&gt;13</title>
<path fill="none" stroke="black" d="M1460.91,-1467.7C1450.16,-1461.3 1436.91,-1452.81 1426,-1443.98 1367.85,-1396.94 1359.39,-1378.33 1308,-1323.98 1275.55,-1289.67 1063.02,-1032.9 1022,-1009.49 920.51,-951.55 778.17,-942.15 711.38,-941.16"/>
<polygon fill="black" stroke="black" points="711.35,-937.66 701.32,-941.06 711.29,-944.66 711.35,-937.66"/>
<text text-anchor="middle" x="1222" y="-1197.79" font-family="Times,serif" font-size="14.00">3</text>
</g>
<!-- 15&#45;&gt;20 -->
<g id="edge80" class="edge">
<title>15&#45;&gt;20</title>
<path fill="none" stroke="black" d="M1492.75,-1463.64C1502.98,-1450.06 1518.01,-1429.57 1530,-1410.98 1554.18,-1373.51 1564.1,-1365.65 1580,-1323.98 1630.07,-1192.78 1632,-894.63 1632,-854.49 1632,-854.49 1632,-854.49 1632,-652.24 1632,-629.23 1626.43,-603.66 1621.33,-585.05"/>
<polygon fill="black" stroke="black" points="1624.63,-583.87 1618.5,-575.22 1617.9,-585.8 1624.63,-583.87"/>
<text text-anchor="middle" x="1632" y="-1023.79" font-family="Times,serif" font-size="14.00">1</text>
</g>
<!-- 15&#45;&gt;23 -->
<g id="edge142" class="edge">
<title>15&#45;&gt;23</title>
<path fill="none" stroke="black" d="M1495.75,-1464.79C1507.24,-1454.16 1523.89,-1439.68 1540,-1428.98 1551.74,-1421.19 1565.45,-1413.9 1577.55,-1408.02"/>
<polygon fill="black" stroke="black" points="1579.29,-1411.06 1586.83,-1403.61 1576.29,-1404.74 1579.29,-1411.06"/>
<text text-anchor="middle" x="1545" y="-1432.78" font-family="Times,serif" font-size="14.00">4</text>
</g>
<!-- 16&#45;&gt;15 -->
<g id="edge101" class="edge">
<title>16&#45;&gt;15</title>
<path fill="none" stroke="black" d="M1370.95,-782.08C1374.09,-788.6 1377.33,-795.75 1380,-802.49 1400.6,-854.5 1404.47,-868.21 1418,-922.49 1474.3,-1148.37 1414.8,-1217.12 1467,-1443.98 1467.7,-1447.01 1468.62,-1450.12 1469.65,-1453.17"/>
<polygon fill="black" stroke="black" points="1466.4,-1454.48 1473.23,-1462.59 1472.95,-1452 1466.4,-1454.48"/>
<text text-anchor="middle" x="1450" y="-1110.79" font-family="Times,serif" font-size="14.00">2</text>
</g>
<!-- 16&#45;&gt;16 -->
<g id="edge146" class="edge">
<title>16&#45;&gt;16</title>
<path fill="none" stroke="black" d="M1384.3,-767.4C1394.83,-768.07 1403.75,-764.85 1403.75,-757.74 1403.75,-753.07 1399.91,-750.08 1394.29,-748.77"/>
<polygon fill="black" stroke="black" points="1394.52,-745.27 1384.3,-748.08 1394.04,-752.26 1394.52,-745.27"/>
<text text-anchor="middle" x="1408.75" y="-754.04" font-family="Times,serif" font-size="14.00">4</text>
</g>
<!-- 16&#45;&gt;21 -->
<g id="edge15" class="edge">
<title>16&#45;&gt;21</title>
<path fill="none" stroke="black" d="M1338.08,-740.5C1315.88,-723.26 1280.63,-695.89 1255.8,-676.61"/>
<polygon fill="black" stroke="black" points="1257.86,-673.78 1247.82,-670.41 1253.57,-679.31 1257.86,-673.78"/>
<text text-anchor="middle" x="1306" y="-701.79" font-family="Times,serif" font-size="14.00">3</text>
</g>
<!-- 16&#45;&gt;25 -->
<g id="edge29" class="edge">
<title>16&#45;&gt;25</title>
<path fill="none" stroke="black" d="M1347.98,-782.3C1328.1,-825.99 1286.59,-923.01 1268,-1009.49 1239.49,-1142.06 1281.42,-1496.09 1222,-1617.98 1217.79,-1626.62 1211.07,-1634.35 1203.97,-1640.82"/>
<polygon fill="black" stroke="black" points="1201.62,-1638.22 1196.22,-1647.34 1206.13,-1643.58 1201.62,-1638.22"/>
<text text-anchor="middle" x="1262" y="-1197.79" font-family="Times,serif" font-size="14.00">1</text>
</g>
<!-- 16&#45;&gt;26 -->
<g id="edge13" class="edge">
<title>16&#45;&gt;26</title>
<path fill="none" stroke="black" d="M1351.95,-731.7C1337.31,-673.72 1310.83,-529.37 1385,-452.5 1421.32,-414.85 1787.68,-392.62 1906.8,-386.34"/>
<polygon fill="black" stroke="black" points="1907.09,-389.83 1916.89,-385.82 1906.72,-382.84 1907.09,-389.83"/>
<text text-anchor="middle" x="1347" y="-553.8" font-family="Times,serif" font-size="14.00">0</text>
</g>
<!-- 17&#45;&gt;1 -->
<g id="edge106" class="edge">
<title>17&#45;&gt;1</title>
<path fill="none" stroke="black" d="M970.68,-1042.54C955.34,-1058.21 934,-1085.12 934,-1113.49 934,-1245.99 934,-1245.99 934,-1245.99 934,-1344.14 902.61,-1364.93 888,-1461.98 864.92,-1615.31 873.62,-1655.32 857,-1809.48 852.82,-1848.23 854.33,-1858.41 846,-1896.48 840.62,-1921.06 846.24,-1932.16 829,-1950.48 813.67,-1966.77 796.91,-1951.8 782,-1968.48 765.48,-1986.97 768,-1997.69 768,-2022.48 768,-2206.48 768,-2206.48 768,-2206.48 768,-2290.39 1430.24,-2298.63 1586.33,-2299.41"/>
<polygon fill="black" stroke="black" points="1586.66,-2302.91 1596.68,-2299.45 1586.69,-2295.91 1586.66,-2302.91"/>
<text text-anchor="middle" x="876" y="-1659.03" font-family="Times,serif" font-size="14.00">2</text>
</g>
<!-- 17&#45;&gt;11 -->
<g id="edge103" class="edge">
<title>17&#45;&gt;11</title>
<path fill="none" stroke="black" d="M977.47,-1010.34C937.99,-935.51 775,-625.14 775,-602 775,-602 775,-602 775,-295.5 775,-248.88 719.33,-223.13 680.85,-210.9"/>
<polygon fill="black" stroke="black" points="681.58,-207.46 670.99,-207.94 679.56,-214.17 681.58,-207.46"/>
<text text-anchor="middle" x="782" y="-597.3" font-family="Times,serif" font-size="14.00">0</text>
</g>
<!-- 17&#45;&gt;13 -->
<g id="edge138" class="edge">
<title>17&#45;&gt;13</title>
<path fill="none" stroke="black" d="M961.52,-1019.82C906.41,-1004.8 772.46,-968.31 708.76,-950.96"/>
<polygon fill="black" stroke="black" points="709.37,-947.5 698.8,-948.24 707.53,-954.25 709.37,-947.5"/>
<text text-anchor="middle" x="854" y="-980.29" font-family="Times,serif" font-size="14.00">3</text>
</g>
<!-- 17&#45;&gt;22 -->
<g id="edge59" class="edge">
<title>17&#45;&gt;22</title>
<path fill="none" stroke="black" d="M1012.13,-1032.46C1075.87,-1041.99 1244.46,-1066.27 1386,-1078.49 1552.68,-1092.87 1595.21,-1083.36 1762,-1096.49 1802.73,-1099.69 1849.32,-1105.03 1880.69,-1108.87"/>
<polygon fill="black" stroke="black" points="1880.36,-1112.35 1890.72,-1110.11 1881.22,-1105.41 1880.36,-1112.35"/>
<text text-anchor="middle" x="1391" y="-1067.29" font-family="Times,serif" font-size="14.00">4</text>
</g>
<!-- 17&#45;&gt;27 -->
<g id="edge58" class="edge">
<title>17&#45;&gt;27</title>
<path fill="none" stroke="black" d="M991.17,-1045.5C992.82,-1051.19 994.58,-1057.59 996,-1063.49 1054.77,-1307.67 1027.6,-1379.05 1105,-1617.98 1115.79,-1651.28 1122.32,-1658.19 1138,-1689.48 1173.1,-1759.53 1222,-1766.13 1222,-1844.48 1222,-2024.48 1222,-2024.48 1222,-2024.48 1222,-2045.21 1222,-2068.65 1222,-2086.27"/>
<polygon fill="black" stroke="black" points="1218.5,-2086.42 1222,-2096.42 1225.5,-2086.42 1218.5,-2086.42"/>
<text text-anchor="middle" x="1100" y="-1563.28" font-family="Times,serif" font-size="14.00">1</text>
</g>
<!-- 18&#45;&gt;0 -->
<g id="edge46" class="edge">
<title>18&#45;&gt;0</title>
<path fill="none" stroke="black" d="M672.18,-18.93C884.89,-18.46 2279.3,-16.79 2462,-54 2526.44,-67.12 2576,-88.79 2576,-104 2576,-2301.48 2576,-2301.48 2576,-2301.48 2576,-2371.08 2497.51,-2343.22 2429,-2355.48 2265.19,-2384.8 2065.88,-2389.7 1984.41,-2390.42"/>
<polygon fill="black" stroke="black" points="1984.13,-2386.92 1974.16,-2390.49 1984.18,-2393.92 1984.13,-2386.92"/>
<text text-anchor="middle" x="2581" y="-1197.79" font-family="Times,serif" font-size="14.00">4</text>
</g>
<!-- 18&#45;&gt;5 -->
<g id="edge124" class="edge">
<title>18&#45;&gt;5</title>
<path fill="none" stroke="black" d="M618.03,-19.59C517.77,-21.94 170.04,-31.64 126,-54 100.12,-67.14 84,-74.98 84,-104 84,-854.49 84,-854.49 84,-854.49 84,-1077.19 168,-1125.78 168,-1348.48 168,-1611.48 168,-1611.48 168,-1611.48 168,-1765.54 274.49,-1783.24 406,-1863.48 543.2,-1947.19 599.61,-1917.91 757,-1950.48 796.09,-1958.57 806.26,-1958.82 845,-1968.48 899.12,-1981.97 961.21,-2001.08 997.38,-2012.57"/>
<polygon fill="black" stroke="black" points="996.71,-2016.03 1007.3,-2015.74 998.84,-2009.37 996.71,-2016.03"/>
<text text-anchor="middle" x="114" y="-1023.79" font-family="Times,serif" font-size="14.00">0</text>
</g>
<!-- 18&#45;&gt;8 -->
<g id="edge34" class="edge">
<title>18&#45;&gt;8</title>
<path fill="none" stroke="black" d="M671.99,-19.23C874.63,-20.97 2154.47,-32.78 2325,-54 2546.87,-81.61 2492,-58.57 2492,-104 2492,-706.49 2492,-706.49 2492,-706.49 2492,-799.17 2429.46,-804.71 2392,-889.49 2358.94,-964.31 2358.08,-985.96 2332,-1063.49 2303.81,-1147.28 2304.65,-1171.16 2270,-1252.49 2255.9,-1285.59 2252.79,-1294.61 2232,-1323.98 2171.3,-1409.73 2146.35,-1423.76 2072,-1497.98 1960.82,-1608.96 1944.89,-1664.22 1799,-1722.48 1771.14,-1733.61 1738.37,-1742.92 1714.12,-1749.14"/>
<polygon fill="black" stroke="black" points="1713.14,-1745.78 1704.29,-1751.61 1714.84,-1752.57 1713.14,-1745.78"/>
<text text-anchor="middle" x="2397" y="-893.29" font-family="Times,serif" font-size="14.00">3</text>
</g>
<!-- 18&#45;&gt;25 -->
<g id="edge137" class="edge">
<title>18&#45;&gt;25</title>
<path fill="none" stroke="black" d="M671.78,-21.4C758.92,-30.8 1035.1,-73.66 1146,-245.5 1185.45,-306.62 1019.17,-468.8 1002,-539.5 998.22,-555.04 999.12,-559.76 1002,-575.5 1036.34,-762.97 1112.01,-790.58 1154,-976.49 1190.46,-1137.91 1170,-1183 1170,-1348.48 1170,-1524.48 1170,-1524.48 1170,-1524.48 1170,-1558.94 1171.28,-1598.24 1172.39,-1625.93"/>
<polygon fill="black" stroke="black" points="1168.89,-1626.09 1172.8,-1635.94 1175.88,-1625.8 1168.89,-1626.09"/>
<text text-anchor="middle" x="1127" y="-849.79" font-family="Times,serif" font-size="14.00">2</text>
</g>
<!-- 18&#45;&gt;28 -->
<g id="edge64" class="edge">
<title>18&#45;&gt;28</title>
<path fill="none" stroke="black" d="M617.87,-19.33C519.48,-20.72 185.15,-27.41 146,-54 125.61,-67.85 122,-79.35 122,-104 122,-810.99 122,-810.99 122,-810.99 122,-892.04 134.89,-911.51 148,-991.49 167.08,-1107.88 167.67,-1138 196,-1252.49 210.66,-1311.71 324.38,-1726.95 360,-1776.48 454.08,-1907.32 668.96,-1928.19 755.68,-1931.17"/>
<polygon fill="black" stroke="black" points="755.75,-1934.67 765.85,-1931.46 755.95,-1927.68 755.75,-1934.67"/>
<text text-anchor="middle" x="153" y="-980.29" font-family="Times,serif" font-size="14.00">1</text>
</g>
<!-- 19&#45;&gt;0 -->
<g id="edge28" class="edge">
<title>19&#45;&gt;0</title>
<path fill="none" stroke="black" d="M2281.03,-211.07C2299.16,-218.6 2323.61,-230.41 2342,-245.5 2441.65,-327.24 2454,-384.11 2454,-513 2454,-706.49 2454,-706.49 2454,-706.49 2454,-994.25 2538,-1060.72 2538,-1348.48 2538,-2301.48 2538,-2301.48 2538,-2301.48 2538,-2357.74 2113.74,-2382.56 1984.14,-2388.82"/>
<polygon fill="black" stroke="black" points="1983.75,-2385.34 1973.93,-2389.31 1984.08,-2392.33 1983.75,-2385.34"/>
<text text-anchor="middle" x="2542" y="-1293.54" font-family="Times,serif" font-size="14.00">0</text>
</g>
<!-- 19&#45;&gt;3 -->
<g id="edge71" class="edge">
<title>19&#45;&gt;3</title>
<path fill="none" stroke="black" d="M2277.91,-217.17C2287.36,-224.77 2297.86,-234.63 2305,-245.5 2338.86,-296.97 2378,-451.38 2378,-513 2378,-706.49 2378,-706.49 2378,-706.49 2378,-795.13 2405.94,-815.93 2402,-904.49 2401.51,-915.42 2334.84,-1678.91 2332,-1689.48 2316.71,-1746.31 2314.58,-1765.03 2276,-1809.48 2252.26,-1836.83 1761,-2146.77 1730,-2165.48 1716.39,-2173.69 1700.98,-2182.35 1688.1,-2189.41"/>
<polygon fill="black" stroke="black" points="1686.33,-2186.38 1679.22,-2194.24 1689.68,-2192.53 1686.33,-2186.38"/>
<text text-anchor="middle" x="2382" y="-1197.79" font-family="Times,serif" font-size="14.00">3</text>
</g>
<!-- 19&#45;&gt;7 -->
<g id="edge82" class="edge">
<title>19&#45;&gt;7</title>
<path fill="none" stroke="black" d="M2248.73,-226.5C2227.49,-298.91 2163.83,-516.7 2113,-697.99 2076.5,-828.17 2078.57,-864.2 2033,-991.49 2004.44,-1071.28 2006.59,-1098.25 1955,-1165.49 1950.41,-1171.47 1944.6,-1177.07 1938.74,-1181.96"/>
<polygon fill="black" stroke="black" points="1936.55,-1179.24 1930.85,-1188.16 1940.87,-1184.74 1936.55,-1179.24"/>
<text text-anchor="middle" x="2118" y="-701.79" font-family="Times,serif" font-size="14.00">1</text>
</g>
<!-- 19&#45;&gt;13 -->
<g id="edge2" class="edge">
<title>19&#45;&gt;13</title>
<path fill="none" stroke="black" d="M2235.85,-218.4C2185.29,-260.13 2053.83,-368.16 2008,-401.5 1756.68,-584.29 1704.58,-653.02 1423,-784.49 1377.14,-805.9 1363.02,-804.86 1314,-817.49 1202.66,-846.17 1173.86,-849.54 1061,-871.49 932.29,-896.52 778.68,-922.3 710.13,-933.59"/>
<polygon fill="black" stroke="black" points="709.18,-930.2 699.88,-935.28 710.31,-937.11 709.18,-930.2"/>
<text text-anchor="middle" x="1829" y="-553.8" font-family="Times,serif" font-size="14.00">2</text>
</g>
<!-- 19&#45;&gt;16 -->
<g id="edge61" class="edge">
<title>19&#45;&gt;16</title>
<path fill="none" stroke="black" d="M2229.59,-206.26C2194.79,-212.68 2132.01,-225.89 2081,-245.5 2051.86,-256.7 2046.48,-263.69 2019,-278.5 1818.16,-386.71 1744.83,-384.97 1577,-539.5 1539.87,-573.69 1534.86,-586.56 1504,-626.5 1486.17,-649.57 1486.57,-659.32 1466,-679.99 1459.47,-686.55 1418.35,-715.55 1389.04,-735.95"/>
<polygon fill="black" stroke="black" points="1386.96,-733.13 1380.75,-741.72 1390.96,-738.88 1386.96,-733.13"/>
<text text-anchor="middle" x="1687" y="-466.8" font-family="Times,serif" font-size="14.00">4</text>
</g>
<!-- 20&#45;&gt;6 -->
<g id="edge99" class="edge">
<title>20&#45;&gt;6</title>
<path fill="none" stroke="black" d="M1586.62,-553.33C1550.81,-548.6 1485.05,-538.39 1431,-521.5 1339.64,-492.94 1310.83,-491.58 1234,-434.5 1145.2,-368.51 1166.39,-303.2 1072,-245.5 977.75,-187.88 638.53,-129.73 526.32,-111.69"/>
<polygon fill="black" stroke="black" points="526.61,-108.19 516.19,-110.07 525.51,-115.11 526.61,-108.19"/>
<text text-anchor="middle" x="1166" y="-336.3" font-family="Times,serif" font-size="14.00">4</text>
</g>
<!-- 20&#45;&gt;8 -->
<g id="edge25" class="edge">
<title>20&#45;&gt;8</title>
<path fill="none" stroke="black" d="M1633.64,-569.4C1643.91,-575.52 1656.02,-583.86 1665,-593.5 1676.54,-605.87 1679.6,-610.16 1684,-626.5 1766.76,-933.53 1686.33,-1023.99 1687,-1341.98 1687.01,-1348.65 1687.22,-1350.32 1687,-1356.98 1685.44,-1403.73 1681.64,-1415.24 1680,-1461.98 1676.55,-1560.59 1677.72,-1677.81 1678.51,-1730.03"/>
<polygon fill="black" stroke="black" points="1675.02,-1730.21 1678.68,-1740.15 1682.02,-1730.1 1675.02,-1730.21"/>
<text text-anchor="middle" x="1701" y="-1154.29" font-family="Times,serif" font-size="14.00">1</text>
</g>
<!-- 20&#45;&gt;14 -->
<g id="edge35" class="edge">
<title>20&#45;&gt;14</title>
<path fill="none" stroke="black" d="M1631.77,-544.5C1654.32,-530.09 1692.34,-505.79 1718.27,-489.22"/>
<polygon fill="black" stroke="black" points="1720.35,-492.04 1726.89,-483.71 1716.58,-486.14 1720.35,-492.04"/>
<text text-anchor="middle" x="1692" y="-510.3" font-family="Times,serif" font-size="14.00">0</text>
</g>
<!-- 20&#45;&gt;15 -->
<g id="edge83" class="edge">
<title>20&#45;&gt;15</title>
<path fill="none" stroke="black" d="M1607.5,-575.22C1601.89,-593.82 1594,-624.84 1594,-652.24 1594,-897.99 1594,-897.99 1594,-897.99 1594,-1041.5 1592.69,-1078.88 1564,-1219.49 1546.15,-1306.95 1509.51,-1406.49 1491.48,-1452.76"/>
<polygon fill="black" stroke="black" points="1488.13,-1451.73 1487.73,-1462.32 1494.64,-1454.29 1488.13,-1451.73"/>
<text text-anchor="middle" x="1597" y="-1023.79" font-family="Times,serif" font-size="14.00">2</text>
</g>
<!-- 20&#45;&gt;16 -->
<g id="edge21" class="edge">
<title>20&#45;&gt;16</title>
<path fill="none" stroke="black" d="M1591.14,-568.27C1576.88,-574.89 1558.01,-584.11 1542,-593.5 1477.8,-631.12 1415.96,-693.46 1383.19,-729.23"/>
<polygon fill="black" stroke="black" points="1380.38,-727.11 1376.26,-736.87 1385.57,-731.82 1380.38,-727.11"/>
<text text-anchor="middle" x="1498" y="-649.54" font-family="Times,serif" font-size="14.00">3</text>
</g>
<!-- 21&#45;&gt;12 -->
<g id="edge104" class="edge">
<title>21&#45;&gt;12</title>
<path fill="none" stroke="black" d="M1208.02,-633.84C1193.85,-620.97 1173.48,-604.24 1153,-593.5 1127.89,-580.32 1097.03,-571.27 1073.61,-565.68"/>
<polygon fill="black" stroke="black" points="1074.27,-562.24 1063.74,-563.42 1072.7,-569.06 1074.27,-562.24"/>
<text text-anchor="middle" x="1180" y="-597.3" font-family="Times,serif" font-size="14.00">3</text>
</g>
<!-- 21&#45;&gt;13 -->
<g id="edge110" class="edge">
<title>21&#45;&gt;13</title>
<path fill="none" stroke="black" d="M1207.93,-672.5C1193.73,-685.29 1173.34,-701.99 1153,-712.99 1001,-795.19 936.84,-754.87 784,-835.49 748.93,-853.98 741.2,-861.63 713,-889.49 705.01,-897.38 697.2,-906.92 690.69,-915.54"/>
<polygon fill="black" stroke="black" points="687.75,-913.63 684.65,-923.76 693.39,-917.77 687.75,-913.63"/>
<text text-anchor="middle" x="863" y="-806.29" font-family="Times,serif" font-size="14.00">1</text>
</g>
<!-- 21&#45;&gt;16 -->
<g id="edge149" class="edge">
<title>21&#45;&gt;16</title>
<path fill="none" stroke="black" d="M1251.95,-663.01C1270.64,-670.39 1296.12,-682.27 1315,-697.99 1324.46,-705.88 1333.06,-716.19 1340.08,-725.96"/>
<polygon fill="black" stroke="black" points="1337.29,-728.08 1345.84,-734.34 1343.06,-724.12 1337.29,-728.08"/>
<text text-anchor="middle" x="1335" y="-701.79" font-family="Times,serif" font-size="14.00">0</text>
</g>
<!-- 21&#45;&gt;20 -->
<g id="edge133" class="edge">
<title>21&#45;&gt;20</title>
<path fill="none" stroke="black" d="M1252.55,-644.63C1292.53,-632.85 1372.42,-609.87 1441,-593.5 1487.74,-582.34 1542.16,-571.65 1577.06,-565.08"/>
<polygon fill="black" stroke="black" points="1578.05,-568.46 1587.24,-563.18 1576.77,-561.58 1578.05,-568.46"/>
<text text-anchor="middle" x="1446" y="-597.3" font-family="Times,serif" font-size="14.00">2</text>
</g>
<!-- 21&#45;&gt;29 -->
<g id="edge77" class="edge">
<title>21&#45;&gt;29</title>
<path fill="none" stroke="black" d="M1218.36,-678.9C1200.17,-732.3 1158.38,-863.01 1144,-976.49 1139.3,-1013.55 1164.12,-1020.63 1192,-1045.49 1403.6,-1234.15 1764.54,-1282.43 1880.19,-1293.35"/>
<polygon fill="black" stroke="black" points="1880.02,-1296.84 1890.3,-1294.26 1880.65,-1289.87 1880.02,-1296.84"/>
<text text-anchor="middle" x="1149" y="-980.29" font-family="Times,serif" font-size="14.00">4</text>
</g>
<!-- 22&#45;&gt;1 -->
<g id="edge23" class="edge">
<title>22&#45;&gt;1</title>
<path fill="none" stroke="black" d="M1932.63,-1129.41C1954.9,-1150.33 1994.93,-1192.28 2012,-1237.49 2025.58,-1273.46 2014.34,-1285.53 2014,-1323.98 2012.99,-1439.53 2057.16,-1980.32 1961,-2132.48 1890.49,-2244.05 1721.8,-2283.18 1651.07,-2294.99"/>
<polygon fill="black" stroke="black" points="1650.3,-2291.57 1640.98,-2296.6 1651.4,-2298.49 1650.3,-2291.57"/>
<text text-anchor="middle" x="2028" y="-1711.28" font-family="Times,serif" font-size="14.00">3</text>
</g>
<!-- 22&#45;&gt;7 -->
<g id="edge74" class="edge">
<title>22&#45;&gt;7</title>
<path fill="none" stroke="black" d="M1914.07,-1132.53C1913.23,-1138.22 1912.42,-1144.61 1912,-1150.49 1911.48,-1157.82 1911.3,-1165.77 1911.3,-1173.13"/>
<polygon fill="black" stroke="black" points="1907.8,-1173.38 1911.4,-1183.34 1914.8,-1173.31 1907.8,-1173.38"/>
<text text-anchor="middle" x="1917" y="-1154.29" font-family="Times,serif" font-size="14.00">0</text>
</g>
<!-- 22&#45;&gt;8 -->
<g id="edge92" class="edge">
<title>22&#45;&gt;8</title>
<path fill="none" stroke="black" d="M1892.47,-1122.33C1876.69,-1127.79 1856.66,-1136.81 1843,-1150.49 1812.8,-1180.73 1815.28,-1196.86 1802,-1237.49 1733.78,-1446.19 1801.85,-1523.99 1708,-1722.48 1705.88,-1726.97 1703.05,-1731.37 1699.98,-1735.45"/>
<polygon fill="black" stroke="black" points="1697.17,-1733.36 1693.52,-1743.3 1702.58,-1737.8 1697.17,-1733.36"/>
<text text-anchor="middle" x="1772" y="-1432.78" font-family="Times,serif" font-size="14.00">2</text>
</g>
<!-- 22&#45;&gt;17 -->
<g id="edge100" class="edge">
<title>22&#45;&gt;17</title>
<path fill="none" stroke="black" d="M1890.73,-1109.99C1859.94,-1106.04 1807.36,-1099.74 1762,-1096.49 1525.58,-1079.56 1464.37,-1106.47 1229,-1078.49 1153.85,-1069.55 1067.38,-1049.33 1020.54,-1037.52"/>
<polygon fill="black" stroke="black" points="1021.17,-1034.07 1010.61,-1034.99 1019.44,-1040.85 1021.17,-1034.07"/>
<text text-anchor="middle" x="1234" y="-1067.29" font-family="Times,serif" font-size="14.00">1</text>
</g>
<!-- 22&#45;&gt;18 -->
<g id="edge145" class="edge">
<title>22&#45;&gt;18</title>
<path fill="none" stroke="black" d="M1927.58,-1097.59C1956.86,-1053.49 2041.19,-925.74 2108,-817.49 2131.44,-779.51 2134.16,-768.07 2159,-730.99 2219.47,-640.71 2454,-449.66 2454,-341 2454,-341 2454,-341 2454,-104 2454,-11.98 940.79,-17.18 682.33,-18.74"/>
<polygon fill="black" stroke="black" points="681.95,-15.24 671.98,-18.81 682,-22.24 681.95,-15.24"/>
<text text-anchor="middle" x="2336" y="-553.8" font-family="Times,serif" font-size="14.00">4</text>
</g>
<!-- 23&#45;&gt;0 -->
<g id="edge6" class="edge">
<title>23&#45;&gt;0</title>
<path fill="none" stroke="black" d="M1623.39,-1408.34C1655.78,-1441.08 1735.94,-1524.49 1792,-1602.98 1919.1,-1780.94 1947,-1851.29 1947,-2069.98 1947,-2301.48 1947,-2301.48 1947,-2301.48 1947,-2322.21 1947,-2345.65 1947,-2363.27"/>
<polygon fill="black" stroke="black" points="1943.5,-2363.42 1947,-2373.42 1950.5,-2363.42 1943.5,-2363.42"/>
<text text-anchor="middle" x="1940" y="-1885.28" font-family="Times,serif" font-size="14.00">2</text>
</g>
<!-- 23&#45;&gt;1 -->
<g id="edge151" class="edge">
<title>23&#45;&gt;1</title>
<path fill="none" stroke="black" d="M1607.88,-1411.31C1604.88,-1458.69 1596.7,-1594.45 1594,-1707.48 1589.93,-1877.56 1717,-1899.85 1717,-2069.98 1717,-2206.48 1717,-2206.48 1717,-2206.48 1717,-2244.62 1677.46,-2271.83 1648.61,-2286.61"/>
<polygon fill="black" stroke="black" points="1646.76,-2283.62 1639.31,-2291.14 1649.83,-2289.91 1646.76,-2283.62"/>
<text text-anchor="middle" x="1642" y="-1841.78" font-family="Times,serif" font-size="14.00">0</text>
</g>
<!-- 23&#45;&gt;20 -->
<g id="edge42" class="edge">
<title>23&#45;&gt;20</title>
<path fill="none" stroke="black" d="M1612.38,-1374.89C1618.42,-1343.97 1631.26,-1276.63 1640,-1219.49 1667.53,-1039.54 1670,-993.03 1670,-810.99 1670,-810.99 1670,-810.99 1670,-652.24 1670,-624.33 1651.32,-597.65 1635.35,-579.94"/>
<polygon fill="black" stroke="black" points="1637.69,-577.33 1628.27,-572.47 1632.6,-582.14 1637.69,-577.33"/>
<text text-anchor="middle" x="1672" y="-980.29" font-family="Times,serif" font-size="14.00">3</text>
</g>
<!-- 23&#45;&gt;28 -->
<g id="edge117" class="edge">
<title>23&#45;&gt;28</title>
<path fill="none" stroke="black" d="M1600.63,-1410.47C1569.05,-1470.84 1450.54,-1681.27 1287,-1776.48 1245.7,-1800.52 932.1,-1891.59 827.12,-1921.73"/>
<polygon fill="black" stroke="black" points="825.99,-1918.41 817.34,-1924.53 827.92,-1925.14 825.99,-1918.41"/>
<text text-anchor="middle" x="1454" y="-1659.03" font-family="Times,serif" font-size="14.00">1</text>
</g>
<!-- 23&#45;&gt;29 -->
<g id="edge5" class="edge">
<title>23&#45;&gt;29</title>
<path fill="none" stroke="black" d="M1633.17,-1384.63C1687.3,-1368.15 1818.5,-1328.22 1881.75,-1308.97"/>
<polygon fill="black" stroke="black" points="1883.11,-1312.21 1891.66,-1305.95 1881.07,-1305.51 1883.11,-1312.21"/>
<text text-anchor="middle" x="1777" y="-1345.78" font-family="Times,serif" font-size="14.00">4</text>
</g>
<!-- 24&#45;&gt;8 -->
<g id="edge47" class="edge">
<title>24&#45;&gt;8</title>
<path fill="none" stroke="black" d="M658.1,-1835.86C690.89,-1824.08 753.07,-1803.39 808,-1794.48 972.32,-1767.83 1497.45,-1761.14 1641.91,-1759.78"/>
<polygon fill="black" stroke="black" points="1642.06,-1763.28 1652.03,-1759.69 1642,-1756.28 1642.06,-1763.28"/>
<text text-anchor="middle" x="813" y="-1798.28" font-family="Times,serif" font-size="14.00">1</text>
</g>
<!-- 24&#45;&gt;12 -->
<g id="edge87" class="edge">
<title>24&#45;&gt;12</title>
<path fill="none" stroke="black" d="M615.6,-1832.7C594.58,-1818.29 564,-1791.78 564,-1759.48 564,-1759.48 564,-1759.48 564,-1522.48 564,-1292.83 442.69,-1231.36 502,-1009.49 536.45,-880.63 905.4,-641.47 1010.32,-575.65"/>
<polygon fill="black" stroke="black" points="1012.18,-578.61 1018.8,-570.34 1008.47,-572.68 1012.18,-578.61"/>
<text text-anchor="middle" x="503" y="-1197.79" font-family="Times,serif" font-size="14.00">4</text>
</g>
<!-- 24&#45;&gt;17 -->
<g id="edge81" class="edge">
<title>24&#45;&gt;17</title>
<path fill="none" stroke="black" d="M644.47,-1828.38C647.71,-1822.54 651.22,-1815.81 654,-1809.48 762.04,-1563.42 756.26,-1489.34 850,-1237.49 879.08,-1159.37 864.24,-1125.44 920,-1063.49 928.88,-1053.62 941.21,-1046.05 952.81,-1040.52"/>
<polygon fill="black" stroke="black" points="954.55,-1043.57 962.29,-1036.34 951.73,-1037.17 954.55,-1043.57"/>
<text text-anchor="middle" x="791" y="-1432.78" font-family="Times,serif" font-size="14.00">2</text>
</g>
<!-- 24&#45;&gt;18 -->
<g id="edge118" class="edge">
<title>24&#45;&gt;18</title>
<path fill="none" stroke="black" d="M608.38,-1841.08C586.49,-1837.01 555.92,-1828.21 536,-1809.48 524.39,-1798.57 527.09,-1791.58 522,-1776.48 488.64,-1677.61 497.81,-1647.7 464,-1548.98 351.02,-1219.14 198,-1159.64 198,-810.99 198,-810.99 198,-810.99 198,-104 198,-20.86 500.2,-16.98 607.64,-18.22"/>
<polygon fill="black" stroke="black" points="607.66,-21.72 617.71,-18.36 607.76,-14.72 607.66,-21.72"/>
<text text-anchor="middle" x="214" y="-936.79" font-family="Times,serif" font-size="14.00">0</text>
</g>
<!-- 24&#45;&gt;29 -->
<g id="edge112" class="edge">
<title>24&#45;&gt;29</title>
<path fill="none" stroke="black" d="M661.9,-1842.71C762.35,-1836.1 1124.98,-1812.39 1424,-1794.48 1494.87,-1790.23 1676.98,-1802.6 1743,-1776.48 1766.18,-1767.31 1766.02,-1755.38 1786,-1740.48 1818.9,-1715.93 1836.36,-1720.71 1863,-1689.48 1915.28,-1628.19 1938,-1605.04 1938,-1524.48 1938,-1524.48 1938,-1524.48 1938,-1391.98 1938,-1372.05 1933.42,-1350.29 1928.54,-1332.76"/>
<polygon fill="black" stroke="black" points="1931.84,-1331.57 1925.66,-1322.97 1925.12,-1333.55 1931.84,-1331.57"/>
<text text-anchor="middle" x="1942" y="-1563.28" font-family="Times,serif" font-size="14.00">3</text>
</g>
<!-- 25&#45;&gt;4 -->
<g id="edge62" class="edge">
<title>25&#45;&gt;4</title>
<path fill="none" stroke="black" d="M1151.83,-1647.49C1126.06,-1630.95 1083.51,-1603.63 1055.62,-1585.72"/>
<polygon fill="black" stroke="black" points="1057.42,-1582.72 1047.12,-1580.26 1053.64,-1588.61 1057.42,-1582.72"/>
<text text-anchor="middle" x="1111" y="-1606.78" font-family="Times,serif" font-size="14.00">0</text>
</g>
<!-- 25&#45;&gt;4 -->
<g id="edge114" class="edge">
<title>25&#45;&gt;4</title>
<path fill="none" stroke="black" d="M1148.32,-1654.68C1126.14,-1647.76 1093.97,-1635.65 1070,-1617.98 1060.22,-1610.77 1051.26,-1600.84 1044.16,-1591.72"/>
<polygon fill="black" stroke="black" points="1046.96,-1589.62 1038.19,-1583.68 1041.34,-1593.79 1046.96,-1589.62"/>
<text text-anchor="middle" x="1075" y="-1606.78" font-family="Times,serif" font-size="14.00">4</text>
</g>
<!-- 25&#45;&gt;16 -->
<g id="edge139" class="edge">
<title>25&#45;&gt;16</title>
<path fill="none" stroke="black" d="M1198.06,-1650.47C1211.91,-1642.94 1228.76,-1631.88 1240,-1617.98 1249.92,-1605.73 1248.41,-1600.07 1253,-1584.98 1294.47,-1448.64 1374.69,-1100.17 1390,-958.49 1396.3,-900.23 1381.19,-833 1369.93,-793.28"/>
<polygon fill="black" stroke="black" points="1373.25,-792.17 1367.09,-783.55 1366.53,-794.13 1373.25,-792.17"/>
<text text-anchor="middle" x="1356" y="-1197.79" font-family="Times,serif" font-size="14.00">2</text>
</g>
<!-- 25&#45;&gt;17 -->
<g id="edge65" class="edge">
<title>25&#45;&gt;17</title>
<path fill="none" stroke="black" d="M1167.7,-1636.71C1139.32,-1524.16 1024.72,-1070.02 1021,-1063.49 1018.13,-1058.45 1014.34,-1053.63 1010.31,-1049.27"/>
<polygon fill="black" stroke="black" points="1012.52,-1046.54 1002.96,-1041.97 1007.59,-1051.5 1012.52,-1046.54"/>
<text text-anchor="middle" x="1102" y="-1345.78" font-family="Times,serif" font-size="14.00">3</text>
</g>
<!-- 25&#45;&gt;28 -->
<g id="edge67" class="edge">
<title>25&#45;&gt;28</title>
<path fill="none" stroke="black" d="M1150.3,-1675.87C1101.58,-1701.26 987.4,-1762.99 900,-1827.48 866.77,-1852 833.43,-1886.31 813.01,-1908.71"/>
<polygon fill="black" stroke="black" points="810.19,-1906.62 806.09,-1916.39 815.39,-1911.3 810.19,-1906.62"/>
<text text-anchor="middle" x="952" y="-1798.28" font-family="Times,serif" font-size="14.00">1</text>
</g>
<!-- 26&#45;&gt;1 -->
<g id="edge33" class="edge">
<title>26&#45;&gt;1</title>
<path fill="none" stroke="black" d="M1967.39,-392.64C1981.19,-398.4 1998.19,-407.28 2010,-419.5 2041.36,-451.94 2167.08,-744.51 2188,-784.49 2280.34,-960.95 2362.8,-986.47 2392,-1183.49 2411.33,-1313.9 2419.18,-1652.63 2374,-1776.48 2324.12,-1913.22 2022.32,-2150.16 1899,-2227.48 1819.26,-2277.47 1706.12,-2292.86 1651.29,-2297.51"/>
<polygon fill="black" stroke="black" points="1650.82,-2294.04 1641.12,-2298.31 1651.37,-2301.02 1650.82,-2294.04"/>
<text text-anchor="middle" x="2410" y="-1345.78" font-family="Times,serif" font-size="14.00">2</text>
</g>
<!-- 26&#45;&gt;2 -->
<g id="edge147" class="edge">
<title>26&#45;&gt;2</title>
<path fill="none" stroke="black" d="M1961.34,-369.21C1979.67,-355.18 2008.76,-332.91 2029.66,-316.9"/>
<polygon fill="black" stroke="black" points="2031.97,-319.54 2037.78,-310.68 2027.71,-313.98 2031.97,-319.54"/>
<text text-anchor="middle" x="2011" y="-336.3" font-family="Times,serif" font-size="14.00">3</text>
</g>
<!-- 26&#45;&gt;4 -->
<g id="edge37" class="edge">
<title>26&#45;&gt;4</title>
<path fill="none" stroke="black" d="M1917.02,-385.03C1824.7,-387.04 1521.92,-395.37 1428,-419.5 1394.3,-428.15 1385.28,-432.22 1357,-452.5 1346.14,-460.28 1198.82,-615.66 1191,-626.5 1139.22,-698.23 1119.22,-716.6 1098,-802.49 1070.17,-915.13 1102.59,-947.47 1104,-1063.49 1105.59,-1193.95 1118.27,-1228.1 1098,-1356.98 1087.25,-1425.34 1056.76,-1501.42 1039.78,-1540.19"/>
<polygon fill="black" stroke="black" points="1036.43,-1539.1 1035.57,-1549.66 1042.83,-1541.94 1036.43,-1539.1"/>
<text text-anchor="middle" x="1104" y="-980.29" font-family="Times,serif" font-size="14.00">0</text>
</g>
<!-- 26&#45;&gt;17 -->
<g id="edge75" class="edge">
<title>26&#45;&gt;17</title>
<path fill="none" stroke="black" d="M1916.88,-384.93C1803.19,-386.88 1368.29,-395.84 1312,-419.5 1268.71,-437.68 1000,-657.54 1000,-704.49 1000,-941.49 1000,-941.49 1000,-941.49 1000,-961.12 996.32,-982.96 992.73,-999.59"/>
<polygon fill="black" stroke="black" points="989.24,-999.16 990.43,-1009.69 996.07,-1000.72 989.24,-999.16"/>
<text text-anchor="middle" x="1005" y="-701.79" font-family="Times,serif" font-size="14.00">4</text>
</g>
<!-- 26&#45;&gt;26 -->
<g id="edge30" class="edge">
<title>26&#45;&gt;26</title>
<path fill="none" stroke="black" d="M1968.53,-391.25C1979.51,-391.99 1989,-389.4 1989,-383.5 1989,-379.53 1984.72,-377.06 1978.57,-376.09"/>
<polygon fill="black" stroke="black" points="1978.65,-372.59 1968.53,-375.74 1978.41,-379.59 1978.65,-372.59"/>
<text text-anchor="middle" x="1994" y="-379.8" font-family="Times,serif" font-size="14.00">1</text>
</g>
<!-- 27&#45;&gt;5 -->
<g id="edge9" class="edge">
<title>27&#45;&gt;5</title>
<path fill="none" stroke="black" d="M1200.12,-2103.44C1165.04,-2087.35 1096.19,-2055.76 1057.04,-2037.8"/>
<polygon fill="black" stroke="black" points="1058.31,-2034.53 1047.76,-2033.54 1055.39,-2040.9 1058.31,-2034.53"/>
<text text-anchor="middle" x="1148" y="-2067.28" font-family="Times,serif" font-size="14.00">0</text>
</g>
<!-- 27&#45;&gt;15 -->
<g id="edge144" class="edge">
<title>27&#45;&gt;15</title>
<path fill="none" stroke="black" d="M1249.1,-2114.44C1308.11,-2114.99 1443,-2107.2 1443,-2024.48 1443,-2024.48 1443,-2024.48 1443,-1565.98 1443,-1543.89 1453.83,-1521.16 1463.93,-1504.77"/>
<polygon fill="black" stroke="black" points="1466.88,-1506.65 1469.39,-1496.36 1461.01,-1502.84 1466.88,-1506.65"/>
<text text-anchor="middle" x="1448" y="-1798.28" font-family="Times,serif" font-size="14.00">1</text>
</g>
<!-- 27&#45;&gt;18 -->
<g id="edge50" class="edge">
<title>27&#45;&gt;18</title>
<path fill="none" stroke="black" d="M1249.11,-2112.09C1351.35,-2105.58 1719.39,-2070.54 1949,-1896.48 1957.6,-1889.96 2175.45,-1594.24 2181,-1584.98 2282.41,-1415.83 2265.37,-1350.67 2370,-1183.49 2430.11,-1087.43 2530,-1098.3 2530,-984.99 2530,-984.99 2530,-984.99 2530,-104 2530,-73.48 2509.32,-71.63 2408,-54 2232.66,-23.48 921.06,-19.53 682.25,-19.06"/>
<polygon fill="black" stroke="black" points="682.02,-15.56 672.01,-19.04 682,-22.56 682.02,-15.56"/>
<text text-anchor="middle" x="2508" y="-1067.29" font-family="Times,serif" font-size="14.00">4</text>
</g>
<!-- 27&#45;&gt;24 -->
<g id="edge49" class="edge">
<title>27&#45;&gt;24</title>
<path fill="none" stroke="black" d="M1194.73,-2112.37C1129.01,-2109.37 963.6,-2099.87 913,-2078.48 798.33,-2030 694.71,-1917.69 653.66,-1869.32"/>
<polygon fill="black" stroke="black" points="656.29,-1867 647.18,-1861.59 650.92,-1871.5 656.29,-1867"/>
<text text-anchor="middle" x="770" y="-1972.28" font-family="Times,serif" font-size="14.00">3</text>
</g>
<!-- 27&#45;&gt;28 -->
<g id="edge93" class="edge">
<title>27&#45;&gt;28</title>
<path fill="none" stroke="black" d="M1194.83,-2112.68C1132.61,-2110.45 981.83,-2102.64 938,-2078.48 882.68,-2047.98 895.24,-2010.41 848,-1968.48 840.21,-1961.57 830.91,-1955.1 822.2,-1949.65"/>
<polygon fill="black" stroke="black" points="823.79,-1946.53 813.42,-1944.37 820.18,-1952.52 823.79,-1946.53"/>
<text text-anchor="middle" x="905" y="-2019.78" font-family="Times,serif" font-size="14.00">2</text>
</g>
<!-- 28&#45;&gt;1 -->
<g id="edge97" class="edge">
<title>28&#45;&gt;1</title>
<path fill="none" stroke="black" d="M775.78,-1946.53C757.13,-1962.29 730,-1990.68 730,-2022.48 730,-2206.48 730,-2206.48 730,-2206.48 730,-2232.74 732.31,-2245.68 754,-2260.48 789.01,-2284.37 1434,-2296.44 1586.76,-2298.97"/>
<polygon fill="black" stroke="black" points="1586.83,-2302.47 1596.89,-2299.14 1586.95,-2295.47 1586.83,-2302.47"/>
<text text-anchor="middle" x="735" y="-2110.78" font-family="Times,serif" font-size="14.00">0</text>
</g>
<!-- 28&#45;&gt;6 -->
<g id="edge105" class="edge">
<title>28&#45;&gt;6</title>
<path fill="none" stroke="black" d="M770.93,-1921.55C746.38,-1910.75 705.39,-1893.44 669,-1881.48 638.48,-1871.45 628.14,-1877.01 599,-1863.48 561.42,-1846.03 549.76,-1841.11 523,-1809.48 512.47,-1797.04 513,-1791.63 507,-1776.48 468.01,-1678 474.26,-1647.75 436,-1548.98 396.14,-1446.08 376.97,-1424.31 331,-1323.98 309.79,-1277.69 294.68,-1269.28 284,-1219.49 272.72,-1166.9 272.82,-1117.06 302,-1009.49 306.22,-993.94 309.45,-990.72 317,-976.49 321.39,-968.2 324.54,-967.2 328,-958.49 345.46,-914.59 350,-901.73 350,-854.49 350,-854.49 350,-854.49 350,-199.75 350,-149.48 413.07,-124.46 454.55,-113.44"/>
<polygon fill="black" stroke="black" points="455.47,-116.82 464.32,-110.99 453.77,-110.03 455.47,-116.82"/>
<text text-anchor="middle" x="307" y="-1023.79" font-family="Times,serif" font-size="14.00">1</text>
</g>
<!-- 28&#45;&gt;18 -->
<g id="edge127" class="edge">
<title>28&#45;&gt;18</title>
<path fill="none" stroke="black" d="M766.1,-1929.69C716.85,-1925.33 610.42,-1910.73 536,-1863.48 450.77,-1809.37 436.85,-1778.9 390,-1689.48 343.17,-1600.1 160,-911.89 160,-810.99 160,-810.99 160,-810.99 160,-104 160,-69.97 186.61,-67.15 218,-54 287.95,-24.7 517.41,-19.87 607.87,-19.12"/>
<polygon fill="black" stroke="black" points="607.96,-22.62 617.94,-19.05 607.91,-15.62 607.96,-22.62"/>
<text text-anchor="middle" x="198" y="-980.29" font-family="Times,serif" font-size="14.00">3</text>
</g>
<!-- 28&#45;&gt;20 -->
<g id="edge60" class="edge">
<title>28&#45;&gt;20</title>
<path fill="none" stroke="black" d="M814.73,-1921.61C878.89,-1891.9 1071.69,-1798.64 1210,-1689.48 1511.36,-1451.63 1556,-1281.91 1556,-897.99 1556,-897.99 1556,-897.99 1556,-652.24 1556,-624.33 1574.68,-597.65 1590.65,-579.94"/>
<polygon fill="black" stroke="black" points="1593.4,-582.14 1597.73,-572.47 1588.31,-577.33 1593.4,-582.14"/>
<text text-anchor="middle" x="1534" y="-1241.29" font-family="Times,serif" font-size="14.00">4</text>
</g>
<!-- 28&#45;&gt;24 -->
<g id="edge143" class="edge">
<title>28&#45;&gt;24</title>
<path fill="none" stroke="black" d="M774,-1919.18C763.65,-1912.48 750.61,-1904.03 739,-1896.48 728.77,-1889.83 726.75,-1887.25 716,-1881.48 700.39,-1873.1 682.35,-1865.14 667.26,-1858.94"/>
<polygon fill="black" stroke="black" points="668.41,-1855.63 657.83,-1855.14 665.79,-1862.12 668.41,-1855.63"/>
<text text-anchor="middle" x="744" y="-1885.28" font-family="Times,serif" font-size="14.00">2</text>
</g>
<!-- 29&#45;&gt;7 -->
<g id="edge40" class="edge">
<title>29&#45;&gt;7</title>
<path fill="none" stroke="black" d="M1906,-1272.64C1903.53,-1266.24 1901.26,-1259.22 1900,-1252.49 1898.55,-1244.77 1899.52,-1236.45 1901.41,-1228.85"/>
<polygon fill="black" stroke="black" points="1904.82,-1229.65 1904.42,-1219.06 1898.13,-1227.59 1904.82,-1229.65"/>
<text text-anchor="middle" x="1905" y="-1241.29" font-family="Times,serif" font-size="14.00">1</text>
</g>
<!-- 29&#45;&gt;8 -->
<g id="edge69" class="edge">
<title>29&#45;&gt;8</title>
<path fill="none" stroke="black" d="M1906.98,-1322.05C1900.02,-1340.73 1892,-1367.56 1892,-1391.98 1892,-1524.48 1892,-1524.48 1892,-1524.48 1892,-1602.82 1880.4,-1629.51 1830,-1689.48 1825.35,-1695.01 1780.53,-1719.39 1774,-1722.48 1754.17,-1731.88 1731.08,-1740.44 1712.63,-1746.74"/>
<polygon fill="black" stroke="black" points="1711.28,-1743.5 1702.91,-1750 1713.5,-1750.14 1711.28,-1743.5"/>
<text text-anchor="middle" x="1897" y="-1519.78" font-family="Times,serif" font-size="14.00">0</text>
</g>
<!-- 29&#45;&gt;9 -->
<g id="edge129" class="edge">
<title>29&#45;&gt;9</title>
<path fill="none" stroke="black" d="M1937.46,-1279.86C1955.14,-1266.51 1981.9,-1248.18 2008,-1237.49 2044.54,-1222.53 2057,-1230.23 2095,-1219.49 2099.76,-1218.14 2104.73,-1216.55 2109.58,-1214.9"/>
<polygon fill="black" stroke="black" points="2111.01,-1218.1 2119.26,-1211.45 2108.67,-1211.5 2111.01,-1218.1"/>
<text text-anchor="middle" x="2013" y="-1241.29" font-family="Times,serif" font-size="14.00">2</text>
</g>
<!-- 29&#45;&gt;26 -->
<g id="edge51" class="edge">
<title>29&#45;&gt;26</title>
<path fill="none" stroke="black" d="M1924.81,-1271.59C1928.43,-1260.94 1933.04,-1248.44 1938,-1237.49 1941.78,-1229.15 1944.72,-1228.03 1948,-1219.49 1962.22,-1182.45 1963.53,-1171.91 1968,-1132.49 1989.38,-944.07 1944,-896.12 1944,-706.49 1944,-706.49 1944,-706.49 1944,-469.5 1944,-450.25 1944,-428.55 1944,-411.89"/>
<polygon fill="black" stroke="black" points="1947.5,-411.75 1944,-401.75 1940.5,-411.75 1947.5,-411.75"/>
<text text-anchor="middle" x="1961" y="-849.79" font-family="Times,serif" font-size="14.00">3</text>
</g>
<!-- 29&#45;&gt;26 -->
<g id="edge120" class="edge">
<title>29&#45;&gt;26</title>
<path fill="none" stroke="black" d="M1933.75,-1276.03C1945.13,-1261.25 1959.59,-1240.25 1968,-1219.49 1977.16,-1196.86 1973.95,-1189.56 1978,-1165.49 2011.86,-964.31 1982,-910.5 1982,-706.49 1982,-706.49 1982,-706.49 1982,-469.5 1982,-447.4 1971.17,-424.67 1961.07,-408.28"/>
<polygon fill="black" stroke="black" points="1963.99,-406.35 1955.61,-399.87 1958.12,-410.16 1963.99,-406.35"/>
<text text-anchor="middle" x="1993" y="-849.79" font-family="Times,serif" font-size="14.00">4</text>
</g>
</g>
</svg>
