<?xml version="1.0" encoding="UTF-8" standalone="no"?>
<!DOCTYPE svg PUBLIC "-//W3C//DTD SVG 1.1//EN"
 "http://www.w3.org/Graphics/SVG/1.1/DTD/svg11.dtd">
<!-- Generated by graphviz version 2.49.0 (20210829.0051)
 -->
<!-- Pages: 1 -->
<svg width="2674pt" height="2455pt"
 viewBox="0.00 0.00 2674.00 2455.49" xmlns="http://www.w3.org/2000/svg" xmlns:xlink="http://www.w3.org/1999/xlink">
<g id="graph0" class="graph" transform="scale(1 1) rotate(0) translate(4 2451.49)">
<polygon fill="white" stroke="transparent" points="-4,4 -4,-2451.49 2670,-2451.49 2670,4 -4,4"/>
<!-- fake -->
<g id="node1" class="node">
<title>fake</title>
</g>
<!-- 29 -->
<g id="node31" class="node">
<title>29</title>
<ellipse fill="none" stroke="black" cx="2450" cy="-2356.49" rx="27" ry="18"/>
<text text-anchor="middle" x="2450" y="-2352.79" font-family="Times,serif" font-size="14.00">29</text>
</g>
<!-- fake&#45;&gt;29 -->
<g id="edge1" class="edge">
<title>fake&#45;&gt;29</title>
<path fill="none" stroke="black" stroke-width="2" d="M2450,-2411.3C2450,-2403.28 2450,-2393.54 2450,-2384.56"/>
<polygon fill="black" stroke="black" stroke-width="2" points="2453.5,-2384.52 2450,-2374.52 2446.5,-2384.52 2453.5,-2384.52"/>
</g>
<!-- 0 -->
<g id="node2" class="node">
<title>0</title>
<ellipse fill="none" stroke="black" cx="1766" cy="-2004.49" rx="18" ry="18"/>
<ellipse fill="none" stroke="black" cx="1766" cy="-2004.49" rx="22" ry="22"/>
<text text-anchor="middle" x="1766" y="-2000.79" font-family="Times,serif" font-size="14.00">0</text>
</g>
<!-- 0&#45;&gt;0 -->
<g id="edge132" class="edge">
<title>0&#45;&gt;0</title>
<path fill="none" stroke="black" d="M1786.58,-2012.86C1796.84,-2014.02 1806,-2011.23 1806,-2004.49 1806,-2000.17 1802.24,-1997.47 1796.84,-1996.4"/>
<polygon fill="black" stroke="black" points="1796.67,-1992.89 1786.58,-1996.12 1796.48,-1999.89 1796.67,-1992.89"/>
<text text-anchor="middle" x="1811" y="-2000.79" font-family="Times,serif" font-size="14.00">3</text>
</g>
<!-- 4 -->
<g id="node6" class="node">
<title>4</title>
<ellipse fill="none" stroke="black" cx="1473" cy="-1913.49" rx="27" ry="18"/>
<text text-anchor="middle" x="1473" y="-1909.79" font-family="Times,serif" font-size="14.00">4</text>
</g>
<!-- 0&#45;&gt;4 -->
<g id="edge28" class="edge">
<title>0&#45;&gt;4</title>
<path fill="none" stroke="black" d="M1744.93,-1997.09C1694.82,-1981.87 1568.17,-1943.4 1507.04,-1924.83"/>
<polygon fill="black" stroke="black" points="1507.7,-1921.37 1497.12,-1921.81 1505.67,-1928.07 1507.7,-1921.37"/>
<text text-anchor="middle" x="1642" y="-1953.29" font-family="Times,serif" font-size="14.00">4</text>
</g>
<!-- 8 -->
<g id="node10" class="node">
<title>8</title>
<ellipse fill="none" stroke="black" cx="1919" cy="-722" rx="27" ry="18"/>
<text text-anchor="middle" x="1919" y="-718.3" font-family="Times,serif" font-size="14.00">8</text>
</g>
<!-- 0&#45;&gt;8 -->
<g id="edge122" class="edge">
<title>0&#45;&gt;8</title>
<path fill="none" stroke="black" d="M1775.69,-1984.43C1796.18,-1943.62 1844.61,-1844.39 1876,-1757.49 1903.51,-1681.33 1917.86,-1663.54 1930,-1583.49 1970.06,-1319.25 1905.37,-1249.71 1910,-982.5 1911.47,-897.61 1915.65,-797.18 1917.75,-750.02"/>
<polygon fill="black" stroke="black" points="1921.25,-750.14 1918.21,-740 1914.26,-749.83 1921.25,-750.14"/>
<text text-anchor="middle" x="1947" y="-1371.04" font-family="Times,serif" font-size="14.00">1</text>
</g>
<!-- 10 -->
<g id="node12" class="node">
<title>10</title>
<ellipse fill="none" stroke="black" cx="1802" cy="-461" rx="27" ry="18"/>
<text text-anchor="middle" x="1802" y="-457.3" font-family="Times,serif" font-size="14.00">10</text>
</g>
<!-- 0&#45;&gt;10 -->
<g id="edge57" class="edge">
<title>0&#45;&gt;10</title>
<path fill="none" stroke="black" d="M1778.44,-1986.02C1789.53,-1968.71 1804,-1941.03 1804,-1914.49 1804,-1914.49 1804,-1914.49 1804,-1694.99 1804,-1282.23 1824,-1179.26 1824,-766.5 1824,-766.5 1824,-766.5 1824,-547 1824,-526.8 1818.11,-504.74 1812.42,-488.16"/>
<polygon fill="black" stroke="black" points="1815.66,-486.82 1808.96,-478.61 1809.07,-489.2 1815.66,-486.82"/>
<text text-anchor="middle" x="1819" y="-1214.3" font-family="Times,serif" font-size="14.00">2</text>
</g>
<!-- 25 -->
<g id="node27" class="node">
<title>25</title>
<ellipse fill="none" stroke="black" cx="533" cy="-196" rx="27" ry="18"/>
<text text-anchor="middle" x="533" y="-192.3" font-family="Times,serif" font-size="14.00">25</text>
</g>
<!-- 0&#45;&gt;25 -->
<g id="edge26" class="edge">
<title>0&#45;&gt;25</title>
<path fill="none" stroke="black" d="M1744,-2001.51C1655.65,-1993.07 1328.58,-1956.77 1271,-1877.49 1269.23,-1875.05 1253.82,-2105.46 1273,-1688.49 1286.72,-1390.06 1314.99,-1316.99 1327,-1018.5 1329.26,-962.27 1325.54,-943.99 1297,-895.5 1197.15,-725.84 1128.79,-715.74 1001,-566 936.39,-490.29 921.37,-470.37 860,-392 806.4,-323.55 815.94,-281.72 742,-236 688.81,-203.11 614.49,-196.67 570.3,-196.08"/>
<polygon fill="black" stroke="black" points="570.29,-192.58 560.28,-196.04 570.26,-199.58 570.29,-192.58"/>
<text text-anchor="middle" x="1329" y="-1083.8" font-family="Times,serif" font-size="14.00">0</text>
</g>
<!-- 1 -->
<g id="node3" class="node">
<title>1</title>
<ellipse fill="none" stroke="black" cx="1663" cy="-1561.49" rx="18" ry="18"/>
<ellipse fill="none" stroke="black" cx="1663" cy="-1561.49" rx="22" ry="22"/>
<text text-anchor="middle" x="1663" y="-1557.79" font-family="Times,serif" font-size="14.00">1</text>
</g>
<!-- 6 -->
<g id="node8" class="node">
<title>6</title>
<ellipse fill="none" stroke="black" cx="2138" cy="-2269.49" rx="27" ry="18"/>
<text text-anchor="middle" x="2138" y="-2265.79" font-family="Times,serif" font-size="14.00">6</text>
</g>
<!-- 1&#45;&gt;6 -->
<g id="edge107" class="edge">
<title>1&#45;&gt;6</title>
<path fill="none" stroke="black" d="M1683.11,-1570.93C1773.52,-1610.35 2138,-1785.72 2138,-2050.99 2138,-2183.49 2138,-2183.49 2138,-2183.49 2138,-2202.74 2138,-2224.43 2138,-2241.09"/>
<polygon fill="black" stroke="black" points="2134.5,-2241.23 2138,-2251.23 2141.5,-2241.23 2134.5,-2241.23"/>
<text text-anchor="middle" x="2116" y="-1909.79" font-family="Times,serif" font-size="14.00">2</text>
</g>
<!-- 13 -->
<g id="node15" class="node">
<title>13</title>
<ellipse fill="none" stroke="black" cx="1921" cy="-105" rx="27" ry="18"/>
<text text-anchor="middle" x="1921" y="-101.3" font-family="Times,serif" font-size="14.00">13</text>
</g>
<!-- 1&#45;&gt;13 -->
<g id="edge141" class="edge">
<title>1&#45;&gt;13</title>
<path fill="none" stroke="black" d="M1672.48,-1541.44C1683.95,-1517.27 1702.63,-1473.96 1710,-1434.49 1746.89,-1236.99 1745.9,-1181.32 1717,-982.5 1696.79,-843.48 1627,-819.98 1627,-679.5 1627,-679.5 1627,-679.5 1627,-547 1627,-449.91 1680.14,-437.44 1733,-356 1789.54,-268.88 1866.53,-172.4 1901.86,-129.17"/>
<polygon fill="black" stroke="black" points="1904.71,-131.2 1908.35,-121.25 1899.3,-126.77 1904.71,-131.2"/>
<text text-anchor="middle" x="1675" y="-814.05" font-family="Times,serif" font-size="14.00">0</text>
</g>
<!-- 21 -->
<g id="node23" class="node">
<title>21</title>
<ellipse fill="none" stroke="black" cx="1681" cy="-1000.5" rx="27" ry="18"/>
<text text-anchor="middle" x="1681" y="-996.8" font-family="Times,serif" font-size="14.00">21</text>
</g>
<!-- 1&#45;&gt;21 -->
<g id="edge17" class="edge">
<title>1&#45;&gt;21</title>
<path fill="none" stroke="black" d="M1654.39,-1541C1633.6,-1491.62 1583.38,-1357.45 1598,-1243.5 1610.1,-1149.19 1608.64,-1121.11 1652,-1036.5 1654.26,-1032.08 1657.17,-1027.71 1660.26,-1023.65"/>
<polygon fill="black" stroke="black" points="1663.07,-1025.74 1666.73,-1015.8 1657.67,-1021.29 1663.07,-1025.74"/>
<text text-anchor="middle" x="1603" y="-1266.54" font-family="Times,serif" font-size="14.00">3</text>
</g>
<!-- 1&#45;&gt;21 -->
<g id="edge53" class="edge">
<title>1&#45;&gt;21</title>
<path fill="none" stroke="black" d="M1663.68,-1539.26C1666.47,-1452.65 1676.99,-1126.1 1680.12,-1028.93"/>
<polygon fill="black" stroke="black" points="1683.62,-1028.85 1680.44,-1018.75 1676.62,-1028.63 1683.62,-1028.85"/>
<text text-anchor="middle" x="1678" y="-1266.54" font-family="Times,serif" font-size="14.00">4</text>
</g>
<!-- 22 -->
<g id="node24" class="node">
<title>22</title>
<ellipse fill="none" stroke="black" cx="2298" cy="-1470.49" rx="27" ry="18"/>
<text text-anchor="middle" x="2298" y="-1466.79" font-family="Times,serif" font-size="14.00">22</text>
</g>
<!-- 1&#45;&gt;22 -->
<g id="edge22" class="edge">
<title>1&#45;&gt;22</title>
<path fill="none" stroke="black" d="M1684.72,-1557.52C1755.91,-1547.77 1988.63,-1515.83 2181,-1488.49 2208.14,-1484.63 2238.8,-1480.17 2261.93,-1476.79"/>
<polygon fill="black" stroke="black" points="2262.6,-1480.23 2271.98,-1475.32 2261.58,-1473.3 2262.6,-1480.23"/>
<text text-anchor="middle" x="2058" y="-1510.29" font-family="Times,serif" font-size="14.00">1</text>
</g>
<!-- 2 -->
<g id="node4" class="node">
<title>2</title>
<ellipse fill="none" stroke="black" cx="1766" cy="-2095.49" rx="27" ry="18"/>
<text text-anchor="middle" x="1766" y="-2091.79" font-family="Times,serif" font-size="14.00">2</text>
</g>
<!-- 2&#45;&gt;0 -->
<g id="edge109" class="edge">
<title>2&#45;&gt;0</title>
<path fill="none" stroke="black" d="M1766,-2077.33C1766,-2065.93 1766,-2050.62 1766,-2037.07"/>
<polygon fill="black" stroke="black" points="1769.5,-2036.68 1766,-2026.68 1762.5,-2036.68 1769.5,-2036.68"/>
<text text-anchor="middle" x="1771" y="-2048.29" font-family="Times,serif" font-size="14.00">1</text>
</g>
<!-- 2&#45;&gt;6 -->
<g id="edge88" class="edge">
<title>2&#45;&gt;6</title>
<path fill="none" stroke="black" d="M1787.67,-2106.51C1850.67,-2135.63 2033.94,-2220.38 2107.21,-2254.25"/>
<polygon fill="black" stroke="black" points="2105.85,-2257.48 2116.39,-2258.5 2108.78,-2251.12 2105.85,-2257.48"/>
<text text-anchor="middle" x="1993" y="-2178.79" font-family="Times,serif" font-size="14.00">3</text>
</g>
<!-- 2&#45;&gt;8 -->
<g id="edge138" class="edge">
<title>2&#45;&gt;8</title>
<path fill="none" stroke="black" d="M1781.31,-2080.66C1832.43,-2032.91 1994,-1868.43 1994,-1696.99 1994,-1696.99 1994,-1696.99 1994,-1469.49 1994,-1360.18 2018.1,-1334.59 2025,-1225.5 2034.98,-1067.78 1987.33,-1031.53 1952,-877.5 1941.8,-833.02 1930.92,-781.09 1924.55,-750.19"/>
<polygon fill="black" stroke="black" points="1927.93,-749.28 1922.49,-740.18 1921.08,-750.68 1927.93,-749.28"/>
<text text-anchor="middle" x="2000" y="-1423.29" font-family="Times,serif" font-size="14.00">4</text>
</g>
<!-- 16 -->
<g id="node18" class="node">
<title>16</title>
<ellipse fill="none" stroke="black" cx="1349" cy="-1374.74" rx="22.96" ry="22.96"/>
<ellipse fill="none" stroke="black" cx="1349" cy="-1374.74" rx="27" ry="27"/>
<text text-anchor="middle" x="1349" y="-1371.04" font-family="Times,serif" font-size="14.00">16</text>
</g>
<!-- 2&#45;&gt;16 -->
<g id="edge136" class="edge">
<title>2&#45;&gt;16</title>
<path fill="none" stroke="black" d="M1739.25,-2093C1629.43,-2086.54 1219,-2058.83 1219,-2005.49 1219,-2005.49 1219,-2005.49 1219,-1868.99 1219,-1809.19 1297.05,-1674.38 1312,-1616.49 1330.43,-1545.12 1340.92,-1459.32 1345.73,-1411.83"/>
<polygon fill="black" stroke="black" points="1349.23,-1412.03 1346.73,-1401.74 1342.26,-1411.34 1349.23,-1412.03"/>
<text text-anchor="middle" x="1273" y="-1735.79" font-family="Times,serif" font-size="14.00">2</text>
</g>
<!-- 18 -->
<g id="node20" class="node">
<title>18</title>
<ellipse fill="none" stroke="black" cx="1733" cy="-2182.49" rx="27" ry="18"/>
<text text-anchor="middle" x="1733" y="-2178.79" font-family="Times,serif" font-size="14.00">18</text>
</g>
<!-- 2&#45;&gt;18 -->
<g id="edge77" class="edge">
<title>2&#45;&gt;18</title>
<path fill="none" stroke="black" d="M1749,-2109.65C1742.72,-2115.57 1736.33,-2123.11 1733,-2131.49 1730.21,-2138.51 1729.32,-2146.53 1729.36,-2154.06"/>
<polygon fill="black" stroke="black" points="1725.87,-2154.44 1729.92,-2164.23 1732.86,-2154.05 1725.87,-2154.44"/>
<text text-anchor="middle" x="1738" y="-2135.29" font-family="Times,serif" font-size="14.00">0</text>
</g>
<!-- 3 -->
<g id="node5" class="node">
<title>3</title>
<ellipse fill="none" stroke="black" cx="552" cy="-1174.5" rx="27" ry="18"/>
<text text-anchor="middle" x="552" y="-1170.8" font-family="Times,serif" font-size="14.00">3</text>
</g>
<!-- 5 -->
<g id="node7" class="node">
<title>5</title>
<ellipse fill="none" stroke="black" cx="745" cy="-1652.49" rx="27" ry="18"/>
<text text-anchor="middle" x="745" y="-1648.79" font-family="Times,serif" font-size="14.00">5</text>
</g>
<!-- 3&#45;&gt;5 -->
<g id="edge148" class="edge">
<title>3&#45;&gt;5</title>
<path fill="none" stroke="black" d="M562.79,-1191.3C574.02,-1209.33 590,-1240.09 590,-1269.24 590,-1562.49 590,-1562.49 590,-1562.49 590,-1616.87 662.64,-1638.5 708.46,-1646.74"/>
<polygon fill="black" stroke="black" points="707.92,-1650.2 718.35,-1648.39 709.07,-1643.29 707.92,-1650.2"/>
<text text-anchor="middle" x="595" y="-1423.29" font-family="Times,serif" font-size="14.00">2</text>
</g>
<!-- 7 -->
<g id="node9" class="node">
<title>7</title>
<ellipse fill="none" stroke="black" cx="800" cy="-1739.49" rx="27" ry="18"/>
<text text-anchor="middle" x="800" y="-1735.79" font-family="Times,serif" font-size="14.00">7</text>
</g>
<!-- 3&#45;&gt;7 -->
<g id="edge12" class="edge">
<title>3&#45;&gt;7</title>
<path fill="none" stroke="black" d="M552,-1192.77C552,-1211.58 552,-1242.55 552,-1269.24 552,-1653.49 552,-1653.49 552,-1653.49 552,-1697.65 694.48,-1723.7 763.45,-1733.72"/>
<polygon fill="black" stroke="black" points="763.07,-1737.2 773.46,-1735.14 764.05,-1730.27 763.07,-1737.2"/>
<text text-anchor="middle" x="557" y="-1466.79" font-family="Times,serif" font-size="14.00">1</text>
</g>
<!-- 20 -->
<g id="node22" class="node">
<title>20</title>
<ellipse fill="none" stroke="black" cx="1233" cy="-1087.5" rx="27" ry="18"/>
<text text-anchor="middle" x="1233" y="-1083.8" font-family="Times,serif" font-size="14.00">20</text>
</g>
<!-- 3&#45;&gt;20 -->
<g id="edge18" class="edge">
<title>3&#45;&gt;20</title>
<path fill="none" stroke="black" d="M578.28,-1170.22C683.5,-1157.08 1074.57,-1108.27 1196.47,-1093.06"/>
<polygon fill="black" stroke="black" points="1196.94,-1096.52 1206.43,-1091.81 1196.08,-1089.58 1196.94,-1096.52"/>
<text text-anchor="middle" x="938" y="-1127.3" font-family="Times,serif" font-size="14.00">4</text>
</g>
<!-- 3&#45;&gt;29 -->
<g id="edge55" class="edge">
<title>3&#45;&gt;29</title>
<path fill="none" stroke="black" d="M546.13,-1192.25C526.57,-1247.95 461.73,-1432.05 406,-1583.49 359.14,-1710.8 298,-1733.32 298,-1868.99 298,-2270.49 298,-2270.49 298,-2270.49 298,-2325.63 2126.36,-2351.34 2412.52,-2355.02"/>
<polygon fill="black" stroke="black" points="2412.75,-2358.52 2422.79,-2355.15 2412.84,-2351.52 2412.75,-2358.52"/>
<text text-anchor="middle" x="316" y="-1779.29" font-family="Times,serif" font-size="14.00">3</text>
</g>
<!-- 3&#45;&gt;29 -->
<g id="edge125" class="edge">
<title>3&#45;&gt;29</title>
<path fill="none" stroke="black" d="M528.73,-1183.71C484.36,-1200.09 392,-1237.93 392,-1269.24 392,-1514.99 392,-1514.99 392,-1514.99 392,-1647.36 260,-1649.61 260,-1781.99 260,-2270.49 260,-2270.49 260,-2270.49 260,-2425.86 450.93,-2310.83 606,-2320.49 976.03,-2343.53 2185.51,-2353.52 2412.95,-2355.22"/>
<polygon fill="black" stroke="black" points="2413,-2358.72 2423.03,-2355.3 2413.05,-2351.72 2413,-2358.72"/>
<text text-anchor="middle" x="265" y="-1779.29" font-family="Times,serif" font-size="14.00">0</text>
</g>
<!-- 4&#45;&gt;7 -->
<g id="edge61" class="edge">
<title>4&#45;&gt;7</title>
<path fill="none" stroke="black" d="M1446.63,-1909.37C1403.71,-1904.11 1316.19,-1892.52 1243,-1877.49 1085.97,-1845.23 905.19,-1780.26 832.62,-1752.99"/>
<polygon fill="black" stroke="black" points="833.7,-1749.66 823.11,-1749.4 831.23,-1756.21 833.7,-1749.66"/>
<text text-anchor="middle" x="1110" y="-1822.79" font-family="Times,serif" font-size="14.00">4</text>
</g>
<!-- 12 -->
<g id="node14" class="node">
<title>12</title>
<ellipse fill="none" stroke="black" cx="1162" cy="-1826.49" rx="27" ry="18"/>
<text text-anchor="middle" x="1162" y="-1822.79" font-family="Times,serif" font-size="14.00">12</text>
</g>
<!-- 4&#45;&gt;12 -->
<g id="edge54" class="edge">
<title>4&#45;&gt;12</title>
<path fill="none" stroke="black" d="M1446.73,-1908.95C1411.04,-1903.81 1345.43,-1893.13 1291,-1877.49 1256.82,-1867.66 1219.02,-1852.47 1193.22,-1841.41"/>
<polygon fill="black" stroke="black" points="1194.52,-1838.16 1183.96,-1837.4 1191.74,-1844.59 1194.52,-1838.16"/>
<text text-anchor="middle" x="1296" y="-1866.29" font-family="Times,serif" font-size="14.00">1</text>
</g>
<!-- 4&#45;&gt;20 -->
<g id="edge78" class="edge">
<title>4&#45;&gt;20</title>
<path fill="none" stroke="black" d="M1471.54,-1895.33C1470.66,-1885.67 1469.42,-1873.39 1468,-1862.49 1460.5,-1805.07 1408.11,-1401.08 1385,-1347.99 1350.05,-1267.7 1304.09,-1270.35 1264,-1192.5 1251.25,-1167.74 1242.89,-1136.9 1238.1,-1115.25"/>
<polygon fill="black" stroke="black" points="1241.52,-1114.5 1236.03,-1105.43 1234.67,-1115.94 1241.52,-1114.5"/>
<text text-anchor="middle" x="1424" y="-1510.29" font-family="Times,serif" font-size="14.00">0</text>
</g>
<!-- 4&#45;&gt;21 -->
<g id="edge140" class="edge">
<title>4&#45;&gt;21</title>
<path fill="none" stroke="black" d="M1499.33,-1909.41C1564.48,-1901.05 1728,-1875.32 1728,-1827.49 1728,-1827.49 1728,-1827.49 1728,-1694.99 1728,-1494.23 1766.64,-1442.74 1742,-1243.5 1732.1,-1163.48 1704.36,-1071.93 1689.95,-1027.88"/>
<polygon fill="black" stroke="black" points="1693.22,-1026.63 1686.76,-1018.24 1686.58,-1028.83 1693.22,-1026.63"/>
<text text-anchor="middle" x="1750" y="-1466.79" font-family="Times,serif" font-size="14.00">2</text>
</g>
<!-- 28 -->
<g id="node30" class="node">
<title>28</title>
<ellipse fill="none" stroke="black" cx="662" cy="-635" rx="27" ry="18"/>
<text text-anchor="middle" x="662" y="-631.3" font-family="Times,serif" font-size="14.00">28</text>
</g>
<!-- 4&#45;&gt;28 -->
<g id="edge110" class="edge">
<title>4&#45;&gt;28</title>
<path fill="none" stroke="black" d="M1456,-1899.33C1449.72,-1893.41 1443.33,-1885.87 1440,-1877.49 1440,-1877.49 1440,-1539.49 1440,-1539.49 1436.65,-1500.39 1432.02,-1491.09 1425,-1452.49 1416.54,-1405.97 1421.97,-1392.13 1405,-1347.99 1398.85,-1331.98 1396.33,-1327.87 1385,-1314.99 1269.39,-1183.54 1215.48,-1176.58 1077,-1069.5 964.49,-982.5 896.18,-998.22 821,-877.5 771.63,-798.21 844.76,-740.17 782,-671 770.7,-658.55 729.1,-648.34 698.03,-642.23"/>
<polygon fill="black" stroke="black" points="698.43,-638.74 687.96,-640.32 697.13,-645.62 698.43,-638.74"/>
<text text-anchor="middle" x="1373" y="-1266.54" font-family="Times,serif" font-size="14.00">3</text>
</g>
<!-- 5&#45;&gt;1 -->
<g id="edge91" class="edge">
<title>5&#45;&gt;1</title>
<path fill="none" stroke="black" d="M771.55,-1648.68C845.13,-1640.91 1057.96,-1618.59 1235,-1601.49 1382.99,-1587.19 1559.92,-1571.52 1631.06,-1565.28"/>
<polygon fill="black" stroke="black" points="1631.51,-1568.75 1641.17,-1564.39 1630.9,-1561.78 1631.51,-1568.75"/>
<text text-anchor="middle" x="1240" y="-1605.29" font-family="Times,serif" font-size="14.00">0</text>
</g>
<!-- 5&#45;&gt;13 -->
<g id="edge149" class="edge">
<title>5&#45;&gt;13</title>
<path fill="none" stroke="black" d="M748.52,-1634.33C753.5,-1608.55 762,-1558.21 762,-1514.99 762,-1514.99 762,-1514.99 762,-1173.5 762,-1115.99 865.28,-724.64 886,-671 934.45,-545.57 962.67,-520.69 1039,-410 1081.67,-348.13 1176.18,-173.39 1244,-141 1291.06,-118.53 1660.94,-126.12 1713,-123 1773.05,-119.4 1842.71,-113.31 1884.25,-109.49"/>
<polygon fill="black" stroke="black" points="1884.8,-112.95 1894.43,-108.54 1884.15,-105.98 1884.8,-112.95"/>
<text text-anchor="middle" x="835" y="-866.3" font-family="Times,serif" font-size="14.00">3</text>
</g>
<!-- 5&#45;&gt;16 -->
<g id="edge108" class="edge">
<title>5&#45;&gt;16</title>
<path fill="none" stroke="black" d="M771.64,-1648.72C847.45,-1640.52 1062.96,-1614.98 1126,-1583.49 1128.97,-1582.01 1264.07,-1455.41 1322.52,-1400.59"/>
<polygon fill="black" stroke="black" points="1325.01,-1403.05 1329.91,-1393.66 1320.22,-1397.95 1325.01,-1403.05"/>
<text text-anchor="middle" x="1213" y="-1510.29" font-family="Times,serif" font-size="14.00">4</text>
</g>
<!-- 5&#45;&gt;25 -->
<g id="edge15" class="edge">
<title>5&#45;&gt;25</title>
<path fill="none" stroke="black" d="M738.59,-1634.7C732.41,-1617.02 724,-1588.21 724,-1562.49 724,-1562.49 724,-1562.49 724,-1217 724,-1101.85 730,-1073.14 730,-958 730,-958 730,-958 730,-764.5 730,-687.77 745,-669.23 745,-592.5 745,-592.5 745,-592.5 745,-286 745,-211.25 631.57,-198.24 570.65,-196.64"/>
<polygon fill="black" stroke="black" points="570.34,-193.13 560.28,-196.46 570.22,-200.13 570.34,-193.13"/>
<text text-anchor="middle" x="735" y="-909.8" font-family="Times,serif" font-size="14.00">1</text>
</g>
<!-- 5&#45;&gt;25 -->
<g id="edge87" class="edge">
<title>5&#45;&gt;25</title>
<path fill="none" stroke="black" d="M734.53,-1635.63C731.07,-1629.81 727.48,-1623.03 725,-1616.49 694.74,-1536.47 686,-1513.54 686,-1427.99 686,-1427.99 686,-1427.99 686,-1173.5 686,-1048.4 667.97,-1017.86 642,-895.5 627.53,-827.32 561,-662.2 561,-592.5 561,-592.5 561,-592.5 561,-286 561,-263.93 553.07,-240.14 545.65,-222.71"/>
<polygon fill="black" stroke="black" points="548.69,-220.94 541.4,-213.25 542.3,-223.81 548.69,-220.94"/>
<text text-anchor="middle" x="654" y="-909.8" font-family="Times,serif" font-size="14.00">2</text>
</g>
<!-- 6&#45;&gt;18 -->
<g id="edge90" class="edge">
<title>6&#45;&gt;18</title>
<path fill="none" stroke="black" d="M2111.28,-2266.09C2065.97,-2261.72 1971.37,-2251.21 1893,-2233.49 1848.18,-2223.35 1797.77,-2206.7 1765.73,-2195.42"/>
<polygon fill="black" stroke="black" points="1766.59,-2192.01 1756,-2191.96 1764.25,-2198.61 1766.59,-2192.01"/>
<text text-anchor="middle" x="1898" y="-2222.29" font-family="Times,serif" font-size="14.00">1</text>
</g>
<!-- 6&#45;&gt;21 -->
<g id="edge137" class="edge">
<title>6&#45;&gt;21</title>
<path fill="none" stroke="black" d="M2165.12,-2268.76C2219.34,-2267.74 2336,-2257 2336,-2183.49 2336,-2183.49 2336,-2183.49 2336,-1825.49 2336,-1730.18 2373.27,-1711.19 2384,-1616.49 2394.43,-1524.47 2352.31,-1279 2290,-1210.5 2249.08,-1165.5 1837.6,-1045.96 1715.18,-1011.14"/>
<polygon fill="black" stroke="black" points="1716.13,-1007.77 1705.56,-1008.41 1714.22,-1014.51 1716.13,-1007.77"/>
<text text-anchor="middle" x="2386" y="-1648.79" font-family="Times,serif" font-size="14.00">0</text>
</g>
<!-- 6&#45;&gt;25 -->
<g id="edge92" class="edge">
<title>6&#45;&gt;25</title>
<path fill="none" stroke="black" d="M2110.89,-2268.58C1914.94,-2269.12 712.69,-2270.86 350,-2233.49 230.34,-2221.16 84,-2303.78 84,-2183.49 84,-2183.49 84,-2183.49 84,-677.5 84,-648.57 88.49,-638.36 108,-617 136.88,-585.37 239.53,-544.04 280,-530 318.13,-516.77 336.76,-536.27 369,-512 394.76,-492.61 487.9,-294.63 521.13,-222.83"/>
<polygon fill="black" stroke="black" points="524.39,-224.11 525.4,-213.57 518.03,-221.18 524.39,-224.11"/>
<text text-anchor="middle" x="89" y="-1214.3" font-family="Times,serif" font-size="14.00">3</text>
</g>
<!-- 26 -->
<g id="node28" class="node">
<title>26</title>
<ellipse fill="none" stroke="black" cx="1485" cy="-287" rx="27" ry="18"/>
<text text-anchor="middle" x="1485" y="-283.3" font-family="Times,serif" font-size="14.00">26</text>
</g>
<!-- 6&#45;&gt;26 -->
<g id="edge135" class="edge">
<title>6&#45;&gt;26</title>
<path fill="none" stroke="black" d="M2110.82,-2268.53C1895.21,-2268.79 467.66,-2269.19 385,-2233.49 356.44,-2221.15 336,-2214.6 336,-2183.49 336,-2183.49 336,-2183.49 336,-1868.99 336,-1826.75 345.85,-1808.09 319,-1775.49 305.05,-1758.54 290.44,-1770.83 273,-1757.49 249.28,-1739.34 247.82,-1729.42 233,-1703.49 198.16,-1642.56 179.37,-1551.13 166,-1488.49 129.61,-1317.92 103.95,-856.26 189,-704 240.53,-611.75 259.08,-582.1 351,-530 357.26,-526.45 1259.05,-335.75 1449.81,-295.44"/>
<polygon fill="black" stroke="black" points="1450.55,-298.86 1459.61,-293.36 1449.1,-292.01 1450.55,-298.86"/>
<text text-anchor="middle" x="146" y="-1266.54" font-family="Times,serif" font-size="14.00">4</text>
</g>
<!-- 6&#45;&gt;28 -->
<g id="edge76" class="edge">
<title>6&#45;&gt;28</title>
<path fill="none" stroke="black" d="M2110.75,-2268.6C1932.81,-2269.22 934.2,-2270.96 632,-2233.49 532.49,-2221.15 412,-2283.76 412,-2183.49 412,-2183.49 412,-2183.49 412,-1781.99 412,-1645.67 320,-1311.81 320,-1175.5 320,-1175.5 320,-1175.5 320,-1043 320,-849.26 549.94,-699.6 632.74,-651.99"/>
<polygon fill="black" stroke="black" points="634.66,-654.92 641.63,-646.94 631.21,-648.83 634.66,-654.92"/>
<text text-anchor="middle" x="372" y="-1466.79" font-family="Times,serif" font-size="14.00">2</text>
</g>
<!-- 7&#45;&gt;5 -->
<g id="edge105" class="edge">
<title>7&#45;&gt;5</title>
<path fill="none" stroke="black" d="M789.09,-1722.91C784.93,-1716.89 780.19,-1709.91 776,-1703.49 770.65,-1695.28 764.96,-1686.21 759.93,-1678.07"/>
<polygon fill="black" stroke="black" points="762.8,-1676.06 754.59,-1669.37 756.84,-1679.72 762.8,-1676.06"/>
<text text-anchor="middle" x="781" y="-1692.29" font-family="Times,serif" font-size="14.00">0</text>
</g>
<!-- 7&#45;&gt;6 -->
<g id="edge134" class="edge">
<title>7&#45;&gt;6</title>
<path fill="none" stroke="black" d="M773.23,-1743.02C704.28,-1750.29 526,-1774.06 526,-1825.49 526,-2183.49 526,-2183.49 526,-2183.49 526,-2265.08 1860.35,-2268.56 2101.03,-2268.53"/>
<polygon fill="black" stroke="black" points="2101.03,-2272.03 2111.03,-2268.53 2101.03,-2265.03 2101.03,-2272.03"/>
<text text-anchor="middle" x="531" y="-2000.79" font-family="Times,serif" font-size="14.00">2</text>
</g>
<!-- 7&#45;&gt;8 -->
<g id="edge39" class="edge">
<title>7&#45;&gt;8</title>
<path fill="none" stroke="black" d="M811.61,-1723.12C822.78,-1706.76 838,-1679.67 838,-1653.49 838,-1653.49 838,-1653.49 838,-1512.99 838,-1504.89 945.28,-1250.69 949,-1243.5 970.01,-1202.86 979.02,-1194.82 1004,-1156.5 1064.5,-1063.65 1064.29,-1027.5 1143,-949.5 1173.99,-918.78 1183.68,-909.52 1225,-895.5 1330.07,-859.83 1367.61,-909 1474,-877.5 1550.39,-854.88 1556.66,-819.64 1631,-791 1718.37,-757.34 1827.31,-737.14 1882.82,-728.3"/>
<polygon fill="black" stroke="black" points="1883.53,-731.73 1892.87,-726.73 1882.45,-724.81 1883.53,-731.73"/>
<text text-anchor="middle" x="972" y="-1214.3" font-family="Times,serif" font-size="14.00">4</text>
</g>
<!-- 7&#45;&gt;18 -->
<g id="edge14" class="edge">
<title>7&#45;&gt;18</title>
<path fill="none" stroke="black" d="M818.38,-1752.85C837.91,-1767.62 866,-1794.29 866,-1825.49 866,-2096.49 866,-2096.49 866,-2096.49 866,-2147.37 919.68,-2133.95 969,-2146.49 1108.86,-2182.03 1562.01,-2182.45 1695.6,-2181.77"/>
<polygon fill="black" stroke="black" points="1695.76,-2185.26 1705.74,-2181.71 1695.72,-2178.26 1695.76,-2185.26"/>
<text text-anchor="middle" x="871" y="-1953.29" font-family="Times,serif" font-size="14.00">1</text>
</g>
<!-- 7&#45;&gt;28 -->
<g id="edge23" class="edge">
<title>7&#45;&gt;28</title>
<path fill="none" stroke="black" d="M773.13,-1736.49C700.55,-1730.37 506,-1708.81 506,-1653.49 506,-1653.49 506,-1653.49 506,-1321.49 506,-1235.03 454.89,-1223.66 440,-1138.5 433.16,-1099.37 505.39,-826.1 524,-791 553.43,-735.48 606.82,-683.66 637.85,-656.28"/>
<polygon fill="black" stroke="black" points="640.36,-658.74 645.61,-649.53 635.76,-653.46 640.36,-658.74"/>
<text text-anchor="middle" x="462" y="-1170.8" font-family="Times,serif" font-size="14.00">3</text>
</g>
<!-- 8&#45;&gt;3 -->
<g id="edge16" class="edge">
<title>8&#45;&gt;3</title>
<path fill="none" stroke="black" d="M1891.99,-725.07C1836.88,-729.49 1707.57,-740.87 1600,-758 1305.82,-804.85 1221.84,-788.05 944,-895.5 872.84,-923.02 703.97,-1017.64 648,-1069.5 620.6,-1094.88 626.12,-1111.79 600,-1138.5 594.02,-1144.61 586.87,-1150.44 579.94,-1155.53"/>
<polygon fill="black" stroke="black" points="577.56,-1152.92 571.39,-1161.53 581.58,-1158.65 577.56,-1152.92"/>
<text text-anchor="middle" x="836" y="-953.3" font-family="Times,serif" font-size="14.00">3</text>
</g>
<!-- 8&#45;&gt;6 -->
<g id="edge44" class="edge">
<title>8&#45;&gt;6</title>
<path fill="none" stroke="black" d="M1946.1,-722.21C1998.79,-722.16 2115.94,-729.51 2185,-791 2212.36,-815.36 2213.94,-827.91 2226,-862.5 2335.1,-1175.35 2222,-1276.65 2222,-1607.99 2222,-2183.49 2222,-2183.49 2222,-2183.49 2222,-2214.95 2192.53,-2238.96 2168.5,-2253.31"/>
<polygon fill="black" stroke="black" points="2166.61,-2250.36 2159.63,-2258.33 2170.06,-2256.45 2166.61,-2250.36"/>
<text text-anchor="middle" x="2230" y="-1510.29" font-family="Times,serif" font-size="14.00">0</text>
</g>
<!-- 8&#45;&gt;10 -->
<g id="edge143" class="edge">
<title>8&#45;&gt;10</title>
<path fill="none" stroke="black" d="M1915.63,-704.09C1907.3,-665.1 1883.08,-566.83 1838,-497 1834.67,-491.84 1830.44,-486.87 1826.07,-482.37"/>
<polygon fill="black" stroke="black" points="1828.34,-479.7 1818.7,-475.31 1823.49,-484.75 1828.34,-479.7"/>
<text text-anchor="middle" x="1890" y="-587.8" font-family="Times,serif" font-size="14.00">1</text>
</g>
<!-- 8&#45;&gt;28 -->
<g id="edge24" class="edge">
<title>8&#45;&gt;28</title>
<path fill="none" stroke="black" d="M1892.16,-719.19C1730.48,-708.25 886.74,-651.2 699.03,-638.5"/>
<polygon fill="black" stroke="black" points="699.06,-635 688.85,-637.82 698.59,-641.98 699.06,-635"/>
<text text-anchor="middle" x="1370" y="-674.8" font-family="Times,serif" font-size="14.00">2</text>
</g>
<!-- 8&#45;&gt;29 -->
<g id="edge71" class="edge">
<title>8&#45;&gt;29</title>
<path fill="none" stroke="black" d="M1945.97,-723.45C1991.56,-724.97 2086.21,-731.38 2161,-758 2285.88,-802.46 2542,-1084.44 2542,-1217 2542,-1609.99 2542,-1609.99 2542,-1609.99 2542,-1767.9 2576.84,-1806.94 2566,-1964.49 2560.65,-2042.15 2542,-2060.14 2542,-2137.99 2542,-2270.49 2542,-2270.49 2542,-2270.49 2542,-2304.14 2508.38,-2328.17 2481.79,-2341.91"/>
<polygon fill="black" stroke="black" points="2480.18,-2338.8 2472.74,-2346.34 2483.26,-2345.09 2480.18,-2338.8"/>
<text text-anchor="middle" x="2547" y="-1557.79" font-family="Times,serif" font-size="14.00">4</text>
</g>
<!-- 9 -->
<g id="node11" class="node">
<title>9</title>
<ellipse fill="none" stroke="black" cx="1354" cy="-196" rx="18" ry="18"/>
<ellipse fill="none" stroke="black" cx="1354" cy="-196" rx="22" ry="22"/>
<text text-anchor="middle" x="1354" y="-192.3" font-family="Times,serif" font-size="14.00">9</text>
</g>
<!-- 9&#45;&gt;4 -->
<g id="edge45" class="edge">
<title>9&#45;&gt;4</title>
<path fill="none" stroke="black" d="M1370.74,-210.77C1378.67,-217.81 1387.93,-226.81 1395,-236 1395.86,-237.11 1589,-589.1 1589,-590.5 1589,-766.5 1589,-766.5 1589,-766.5 1589,-831.39 1590,-847.61 1590,-912.5 1590,-1132 1590,-1132 1590,-1132 1590,-1276.44 1550.82,-1308.8 1536,-1452.49 1528.91,-1521.29 1530,-1538.83 1530,-1607.99 1530,-1827.49 1530,-1827.49 1530,-1827.49 1530,-1852.68 1512.51,-1876.04 1496.91,-1891.87"/>
<polygon fill="black" stroke="black" points="1494.27,-1889.56 1489.49,-1899.02 1499.12,-1894.61 1494.27,-1889.56"/>
<text text-anchor="middle" x="1595" y="-1040.3" font-family="Times,serif" font-size="14.00">4</text>
</g>
<!-- 9&#45;&gt;13 -->
<g id="edge131" class="edge">
<title>9&#45;&gt;13</title>
<path fill="none" stroke="black" d="M1375.88,-191.57C1461.95,-178.06 1777.76,-128.48 1885.05,-111.64"/>
<polygon fill="black" stroke="black" points="1885.72,-115.08 1895.06,-110.07 1884.64,-108.16 1885.72,-115.08"/>
<text text-anchor="middle" x="1693" y="-144.8" font-family="Times,serif" font-size="14.00">3</text>
</g>
<!-- 15 -->
<g id="node17" class="node">
<title>15</title>
<ellipse fill="none" stroke="black" cx="1172" cy="-18" rx="27" ry="18"/>
<text text-anchor="middle" x="1172" y="-14.3" font-family="Times,serif" font-size="14.00">15</text>
</g>
<!-- 9&#45;&gt;15 -->
<g id="edge117" class="edge">
<title>9&#45;&gt;15</title>
<path fill="none" stroke="black" d="M1338.48,-179.99C1306.14,-148.72 1231.43,-76.47 1194.09,-40.36"/>
<polygon fill="black" stroke="black" points="1196.33,-37.66 1186.71,-33.23 1191.47,-42.7 1196.33,-37.66"/>
<text text-anchor="middle" x="1283" y="-101.3" font-family="Times,serif" font-size="14.00">1</text>
</g>
<!-- 17 -->
<g id="node19" class="node">
<title>17</title>
<ellipse fill="none" stroke="black" cx="1649" cy="-105" rx="27" ry="18"/>
<text text-anchor="middle" x="1649" y="-101.3" font-family="Times,serif" font-size="14.00">17</text>
</g>
<!-- 9&#45;&gt;17 -->
<g id="edge21" class="edge">
<title>9&#45;&gt;17</title>
<path fill="none" stroke="black" d="M1369.83,-180.62C1384.57,-168.07 1407.7,-150.45 1431,-141 1491.18,-116.59 1567.18,-109.16 1611.71,-106.92"/>
<polygon fill="black" stroke="black" points="1611.95,-110.42 1621.79,-106.48 1611.64,-103.42 1611.95,-110.42"/>
<text text-anchor="middle" x="1436" y="-144.8" font-family="Times,serif" font-size="14.00">0</text>
</g>
<!-- 9&#45;&gt;22 -->
<g id="edge102" class="edge">
<title>9&#45;&gt;22</title>
<path fill="none" stroke="black" d="M1376.19,-197.35C1434.49,-198.69 1596.47,-205.14 1727,-236 1780.38,-248.62 2150.36,-371.06 2189,-410 2301.26,-523.13 2375.15,-946.51 2364,-1105.5 2355.03,-1233.32 2319.95,-1383 2304.91,-1442.82"/>
<polygon fill="black" stroke="black" points="2301.5,-1442.05 2302.43,-1452.6 2308.28,-1443.77 2301.5,-1442.05"/>
<text text-anchor="middle" x="2347" y="-814.05" font-family="Times,serif" font-size="14.00">2</text>
</g>
<!-- 10&#45;&gt;2 -->
<g id="edge119" class="edge">
<title>10&#45;&gt;2</title>
<path fill="none" stroke="black" d="M1823.45,-472.12C1869.52,-494.42 1980.23,-551.11 2060,-617 2216.22,-746.05 2318.8,-820.44 2276,-1018.5 2252.81,-1125.81 2210.91,-1140.09 2174,-1243.5 2133.33,-1357.41 2132.51,-1388.94 2104,-1506.49 2048.22,-1736.42 2055.91,-1799.25 1990,-2026.49 1985.65,-2041.48 1990.01,-2049.52 1978,-2059.49 1952.03,-2081.04 1856.87,-2089.61 1803.29,-2092.78"/>
<polygon fill="black" stroke="black" points="1802.96,-2089.3 1793.17,-2093.35 1803.35,-2096.29 1802.96,-2089.3"/>
<text text-anchor="middle" x="2179" y="-1266.54" font-family="Times,serif" font-size="14.00">4</text>
</g>
<!-- 10&#45;&gt;4 -->
<g id="edge48" class="edge">
<title>10&#45;&gt;4</title>
<path fill="none" stroke="black" d="M1786.09,-475.93C1770.16,-491.51 1748,-518.33 1748,-547 1748,-766.5 1748,-766.5 1748,-766.5 1748,-809.62 1757.95,-819.57 1762,-862.5 1788.93,-1147.72 1783.78,-1220.07 1790,-1506.49 1791.83,-1590.92 1766,-1610.53 1766,-1694.99 1766,-1827.49 1766,-1827.49 1766,-1827.49 1766,-1880.27 1588.41,-1902.39 1509.75,-1909.59"/>
<polygon fill="black" stroke="black" points="1509.43,-1906.11 1499.78,-1910.48 1510.05,-1913.08 1509.43,-1906.11"/>
<text text-anchor="middle" x="1789" y="-1170.8" font-family="Times,serif" font-size="14.00">3</text>
</g>
<!-- 10&#45;&gt;7 -->
<g id="edge144" class="edge">
<title>10&#45;&gt;7</title>
<path fill="none" stroke="black" d="M1780.37,-472.01C1766.76,-478.58 1748.99,-487.67 1734,-497 1690.31,-524.2 1683.67,-537.23 1641,-566 1543.42,-631.8 1512.82,-638.56 1415,-704 1142.26,-886.46 1000.14,-991.71 968,-1036.5 959.82,-1047.9 800,-1498.95 800,-1512.99 800,-1653.49 800,-1653.49 800,-1653.49 800,-1672.74 800,-1694.43 800,-1711.09"/>
<polygon fill="black" stroke="black" points="796.5,-1711.23 800,-1721.23 803.5,-1711.23 796.5,-1711.23"/>
<text text-anchor="middle" x="959" y="-1083.8" font-family="Times,serif" font-size="14.00">2</text>
</g>
<!-- 10&#45;&gt;15 -->
<g id="edge49" class="edge">
<title>10&#45;&gt;15</title>
<path fill="none" stroke="black" d="M1828.41,-457.15C1863.55,-452.82 1927.26,-443.12 1979,-425 2143.44,-367.41 2327,-418.73 2327,-244.5 2327,-244.5 2327,-244.5 2327,-104 2327,-46.59 1407.44,-23.96 1209.32,-19.75"/>
<polygon fill="black" stroke="black" points="1209.2,-16.24 1199.13,-19.53 1209.05,-23.24 1209.2,-16.24"/>
<text text-anchor="middle" x="2332" y="-239.8" font-family="Times,serif" font-size="14.00">1</text>
</g>
<!-- 27 -->
<g id="node29" class="node">
<title>27</title>
<ellipse fill="none" stroke="black" cx="1769" cy="-374" rx="27" ry="18"/>
<text text-anchor="middle" x="1769" y="-370.3" font-family="Times,serif" font-size="14.00">27</text>
</g>
<!-- 10&#45;&gt;27 -->
<g id="edge86" class="edge">
<title>10&#45;&gt;27</title>
<path fill="none" stroke="black" d="M1795.48,-443.21C1790.82,-431.22 1784.47,-414.85 1779.16,-401.16"/>
<polygon fill="black" stroke="black" points="1782.39,-399.81 1775.51,-391.76 1775.86,-402.35 1782.39,-399.81"/>
<text text-anchor="middle" x="1792" y="-413.8" font-family="Times,serif" font-size="14.00">0</text>
</g>
<!-- 11 -->
<g id="node13" class="node">
<title>11</title>
<ellipse fill="none" stroke="black" cx="1049" cy="-1270.24" rx="22.96" ry="22.96"/>
<ellipse fill="none" stroke="black" cx="1049" cy="-1270.24" rx="27" ry="27"/>
<text text-anchor="middle" x="1049" y="-1266.54" font-family="Times,serif" font-size="14.00">11</text>
</g>
<!-- 11&#45;&gt;3 -->
<g id="edge5" class="edge">
<title>11&#45;&gt;3</title>
<path fill="none" stroke="black" d="M1022.63,-1264.27C939.46,-1248.58 682.54,-1200.12 587.68,-1182.23"/>
<polygon fill="black" stroke="black" points="588.18,-1178.76 577.71,-1180.35 586.89,-1185.64 588.18,-1178.76"/>
<text text-anchor="middle" x="820" y="-1214.3" font-family="Times,serif" font-size="14.00">1</text>
</g>
<!-- 11&#45;&gt;4 -->
<g id="edge80" class="edge">
<title>11&#45;&gt;4</title>
<path fill="none" stroke="black" d="M1065.08,-1291.77C1095.82,-1331.6 1163.93,-1422.81 1210,-1506.49 1243.79,-1567.87 1338.64,-1837.6 1384,-1877.49 1399.11,-1890.78 1419.87,-1899.33 1437.53,-1904.65"/>
<polygon fill="black" stroke="black" points="1436.94,-1908.12 1447.51,-1907.42 1438.81,-1901.37 1436.94,-1908.12"/>
<text text-anchor="middle" x="1262" y="-1605.29" font-family="Times,serif" font-size="14.00">4</text>
</g>
<!-- 11&#45;&gt;11 -->
<g id="edge64" class="edge">
<title>11&#45;&gt;11</title>
<path fill="none" stroke="black" d="M1074.3,-1279.91C1084.83,-1280.57 1093.75,-1277.35 1093.75,-1270.24 1093.75,-1265.58 1089.91,-1262.59 1084.29,-1261.27"/>
<polygon fill="black" stroke="black" points="1084.52,-1257.78 1074.3,-1260.58 1084.04,-1264.76 1084.52,-1257.78"/>
<text text-anchor="middle" x="1098.75" y="-1266.54" font-family="Times,serif" font-size="14.00">0</text>
</g>
<!-- 11&#45;&gt;18 -->
<g id="edge9" class="edge">
<title>11&#45;&gt;18</title>
<path fill="none" stroke="black" d="M1039.78,-1295.53C1037.64,-1301.8 1035.55,-1308.59 1034,-1314.99 1019.48,-1375.01 1021.01,-1391.13 1014,-1452.49 995.13,-1617.76 983,-1659.14 983,-1825.49 983,-2096.49 983,-2096.49 983,-2096.49 983,-2121.14 986.46,-2132.86 1007,-2146.49 1064.58,-2184.69 1555.14,-2183.14 1695.58,-2181.9"/>
<polygon fill="black" stroke="black" points="1695.86,-2185.4 1705.83,-2181.8 1695.8,-2178.4 1695.86,-2185.4"/>
<text text-anchor="middle" x="990" y="-1735.79" font-family="Times,serif" font-size="14.00">2</text>
</g>
<!-- 23 -->
<g id="node25" class="node">
<title>23</title>
<ellipse fill="none" stroke="black" cx="387" cy="-548" rx="27" ry="18"/>
<text text-anchor="middle" x="387" y="-544.3" font-family="Times,serif" font-size="14.00">23</text>
</g>
<!-- 11&#45;&gt;23 -->
<g id="edge120" class="edge">
<title>11&#45;&gt;23</title>
<path fill="none" stroke="black" d="M1041.56,-1244.35C1028.87,-1204.64 1000.26,-1125.69 958,-1069.5 950.61,-1059.67 943.35,-1062.02 937,-1051.5 892.49,-977.74 917.62,-945.34 894,-862.5 880.53,-815.26 875.85,-803.77 858,-758 842.67,-718.69 848.16,-702.43 820,-671 743.45,-585.56 689.43,-606.8 577,-584 523.52,-573.15 461.27,-561.96 423,-555.24"/>
<polygon fill="black" stroke="black" points="423.32,-551.74 412.87,-553.46 422.12,-558.63 423.32,-551.74"/>
<text text-anchor="middle" x="910" y="-909.8" font-family="Times,serif" font-size="14.00">3</text>
</g>
<!-- 12&#45;&gt;7 -->
<g id="edge113" class="edge">
<title>12&#45;&gt;7</title>
<path fill="none" stroke="black" d="M1137.52,-1818.57C1101.44,-1808.48 1031.79,-1789.43 972,-1775.49 925.2,-1764.58 870.8,-1753.83 835.91,-1747.18"/>
<polygon fill="black" stroke="black" points="836.22,-1743.68 825.74,-1745.26 834.92,-1750.56 836.22,-1743.68"/>
<text text-anchor="middle" x="1034" y="-1779.29" font-family="Times,serif" font-size="14.00">3</text>
</g>
<!-- 12&#45;&gt;9 -->
<g id="edge37" class="edge">
<title>12&#45;&gt;9</title>
<path fill="none" stroke="black" d="M1164.87,-1808.38C1172.33,-1763.96 1193.13,-1641.34 1212,-1539.49 1266.79,-1243.84 1316,-1171.68 1316,-871 1316,-871 1316,-871 1316,-286 1316,-263.6 1326.3,-240.4 1336.18,-223.3"/>
<polygon fill="black" stroke="black" points="1339.35,-224.83 1341.56,-214.47 1333.37,-221.19 1339.35,-224.83"/>
<text text-anchor="middle" x="1318" y="-996.8" font-family="Times,serif" font-size="14.00">0</text>
</g>
<!-- 12&#45;&gt;11 -->
<g id="edge96" class="edge">
<title>12&#45;&gt;11</title>
<path fill="none" stroke="black" d="M1147.27,-1811.32C1132.52,-1795.55 1112,-1768.57 1112,-1740.49 1112,-1740.49 1112,-1740.49 1112,-1607.99 1112,-1495.82 1077.81,-1366.17 1059.8,-1305.66"/>
<polygon fill="black" stroke="black" points="1063.09,-1304.44 1056.85,-1295.87 1056.39,-1306.46 1063.09,-1304.44"/>
<text text-anchor="middle" x="1116" y="-1557.79" font-family="Times,serif" font-size="14.00">4</text>
</g>
<!-- 12&#45;&gt;13 -->
<g id="edge20" class="edge">
<title>12&#45;&gt;13</title>
<path fill="none" stroke="black" d="M1173,-1809.68C1176.63,-1803.87 1180.41,-1797.08 1183,-1790.49 1188.49,-1776.54 1187.19,-1772.22 1190,-1757.49 1209.93,-1652.99 1221.08,-1627.5 1230,-1521.49 1244.45,-1349.8 1183.91,-1310.23 1170,-1138.5 1150.21,-894.1 1249,-837.69 1249,-592.5 1249,-592.5 1249,-592.5 1249,-460 1249,-328.7 1224.14,-260.41 1323,-174 1344.28,-155.4 1756.95,-119.65 1884.06,-109.04"/>
<polygon fill="black" stroke="black" points="1884.41,-112.52 1894.08,-108.21 1883.83,-105.55 1884.41,-112.52"/>
<text text-anchor="middle" x="1185" y="-953.3" font-family="Times,serif" font-size="14.00">2</text>
</g>
<!-- 12&#45;&gt;18 -->
<g id="edge114" class="edge">
<title>12&#45;&gt;18</title>
<path fill="none" stroke="black" d="M1155.99,-1844.18C1150.42,-1861.14 1143,-1888.29 1143,-1912.49 1143,-2096.49 1143,-2096.49 1143,-2096.49 1143,-2152.6 1566.55,-2174.65 1695.92,-2180.07"/>
<polygon fill="black" stroke="black" points="1695.98,-2183.58 1706.12,-2180.49 1696.27,-2176.58 1695.98,-2183.58"/>
<text text-anchor="middle" x="1148" y="-2000.79" font-family="Times,serif" font-size="14.00">1</text>
</g>
<!-- 13&#45;&gt;8 -->
<g id="edge32" class="edge">
<title>13&#45;&gt;8</title>
<path fill="none" stroke="black" d="M1947.23,-109.49C2012.12,-118.85 2175,-147.11 2175,-195 2175,-418.5 2175,-418.5 2175,-418.5 2175,-761.47 2100.81,-639.21 2041,-686 2016.59,-705.09 1982.19,-713.77 1956.13,-717.72"/>
<polygon fill="black" stroke="black" points="1955.33,-714.29 1945.89,-719.09 1956.26,-721.23 1955.33,-714.29"/>
<text text-anchor="middle" x="2180" y="-413.8" font-family="Times,serif" font-size="14.00">1</text>
</g>
<!-- 13&#45;&gt;10 -->
<g id="edge128" class="edge">
<title>13&#45;&gt;10</title>
<path fill="none" stroke="black" d="M1938.49,-118.99C1957.44,-134.69 1985,-163.03 1985,-195 1985,-375 1985,-375 1985,-375 1985,-438.71 1892.63,-454.8 1839.14,-458.77"/>
<polygon fill="black" stroke="black" points="1838.76,-455.29 1829,-459.42 1839.2,-462.28 1838.76,-455.29"/>
<text text-anchor="middle" x="1990" y="-283.3" font-family="Times,serif" font-size="14.00">0</text>
</g>
<!-- 13&#45;&gt;15 -->
<g id="edge151" class="edge">
<title>13&#45;&gt;15</title>
<path fill="none" stroke="black" d="M1894.64,-99.94C1834.86,-90.83 1684.41,-68.43 1558,-54 1430.13,-39.4 1277.86,-27.08 1209.03,-21.78"/>
<polygon fill="black" stroke="black" points="1208.96,-18.27 1198.72,-20.99 1208.42,-25.25 1208.96,-18.27"/>
<text text-anchor="middle" x="1682" y="-57.8" font-family="Times,serif" font-size="14.00">4</text>
</g>
<!-- 13&#45;&gt;22 -->
<g id="edge103" class="edge">
<title>13&#45;&gt;22</title>
<path fill="none" stroke="black" d="M1948.15,-105.95C1994.02,-106.73 2089.07,-112.07 2163,-141 2187.11,-150.43 2194.1,-154.39 2211,-174 2253.31,-223.08 2245.46,-247.33 2275,-305 2319.15,-391.19 2333.26,-411.12 2378,-497 2398.02,-535.43 2406.16,-543.67 2422,-584 2470.18,-706.68 2504,-737.19 2504,-869 2504,-1045 2504,-1045 2504,-1045 2504,-1211.89 2483.75,-1266.22 2386,-1401.49 2370.38,-1423.1 2346,-1441.19 2326.86,-1453.26"/>
<polygon fill="black" stroke="black" points="2324.92,-1450.34 2318.21,-1458.54 2328.57,-1456.32 2324.92,-1450.34"/>
<text text-anchor="middle" x="2500" y="-761.8" font-family="Times,serif" font-size="14.00">3</text>
</g>
<!-- 13&#45;&gt;29 -->
<g id="edge33" class="edge">
<title>13&#45;&gt;29</title>
<path fill="none" stroke="black" d="M1948.07,-105.38C1997.89,-105.13 2106.69,-108.72 2191,-141 2215.18,-150.26 2221.96,-154.51 2239,-174 2567.55,-549.88 2656,-717.77 2656,-1217 2656,-2270.49 2656,-2270.49 2656,-2270.49 2656,-2342.57 2546.89,-2354.75 2487.48,-2356.05"/>
<polygon fill="black" stroke="black" points="2487.31,-2352.55 2477.36,-2356.17 2487.4,-2359.55 2487.31,-2352.55"/>
<text text-anchor="middle" x="2661" y="-1214.3" font-family="Times,serif" font-size="14.00">2</text>
</g>
<!-- 14 -->
<g id="node16" class="node">
<title>14</title>
<ellipse fill="none" stroke="black" cx="2084" cy="-817.75" rx="22.96" ry="22.96"/>
<ellipse fill="none" stroke="black" cx="2084" cy="-817.75" rx="27" ry="27"/>
<text text-anchor="middle" x="2084" y="-814.05" font-family="Times,serif" font-size="14.00">14</text>
</g>
<!-- 14&#45;&gt;2 -->
<g id="edge25" class="edge">
<title>14&#45;&gt;2</title>
<path fill="none" stroke="black" d="M2084,-844.61C2084,-863.44 2084,-889.55 2084,-912.5 2084,-1132 2084,-1132 2084,-1132 2084,-1299.27 1985.22,-2035.67 1962,-2059.49 1940.49,-2081.56 1853.85,-2089.86 1803.25,-2092.87"/>
<polygon fill="black" stroke="black" points="1802.83,-2089.39 1793.03,-2093.44 1803.21,-2096.38 1802.83,-2089.39"/>
<text text-anchor="middle" x="2061" y="-1466.79" font-family="Times,serif" font-size="14.00">4</text>
</g>
<!-- 14&#45;&gt;4 -->
<g id="edge63" class="edge">
<title>14&#45;&gt;4</title>
<path fill="none" stroke="black" d="M2069.63,-840.48C2058.87,-858.86 2046,-886.33 2046,-912.5 2046,-1045 2046,-1045 2046,-1045 2046,-1136.51 1872.22,-1720.56 1856,-1757.49 1830.61,-1815.29 1833.49,-1843.96 1780,-1877.49 1735.9,-1905.13 1582.28,-1910.98 1510.5,-1912.19"/>
<polygon fill="black" stroke="black" points="1510.06,-1908.69 1500.12,-1912.34 1510.17,-1915.69 1510.06,-1908.69"/>
<text text-anchor="middle" x="1982" y="-1371.04" font-family="Times,serif" font-size="14.00">1</text>
</g>
<!-- 14&#45;&gt;8 -->
<g id="edge145" class="edge">
<title>14&#45;&gt;8</title>
<path fill="none" stroke="black" d="M2061.06,-803.71C2031.48,-786.91 1980.03,-757.68 1947.84,-739.39"/>
<polygon fill="black" stroke="black" points="1949.33,-736.21 1938.91,-734.31 1945.87,-742.29 1949.33,-736.21"/>
<text text-anchor="middle" x="2011" y="-761.8" font-family="Times,serif" font-size="14.00">3</text>
</g>
<!-- 14&#45;&gt;11 -->
<g id="edge83" class="edge">
<title>14&#45;&gt;11</title>
<path fill="none" stroke="black" d="M2060.14,-830.25C2034.1,-842.62 1991.04,-862.52 1953,-877.5 1818.43,-930.48 1778.73,-927.42 1645,-982.5 1426.47,-1072.5 1388.62,-1130.97 1172,-1225.5 1142.97,-1238.16 1108.98,-1250.04 1084.1,-1258.21"/>
<polygon fill="black" stroke="black" points="1082.8,-1254.95 1074.37,-1261.37 1084.96,-1261.61 1082.8,-1254.95"/>
<text text-anchor="middle" x="1530" y="-1040.3" font-family="Times,serif" font-size="14.00">2</text>
</g>
<!-- 14&#45;&gt;18 -->
<g id="edge124" class="edge">
<title>14&#45;&gt;18</title>
<path fill="none" stroke="black" d="M2098.37,-840.48C2109.13,-858.86 2122,-886.33 2122,-912.5 2122,-1132 2122,-1132 2122,-1132 2122,-1343.64 2108,-1396.34 2108,-1607.99 2108,-1870.99 2108,-1870.99 2108,-1870.99 2108,-1932.62 2119.88,-2103.21 2076,-2146.49 2073.29,-2149.16 1857.68,-2169.74 1769.73,-2178.04"/>
<polygon fill="black" stroke="black" points="1769.29,-2174.57 1759.66,-2178.99 1769.95,-2181.53 1769.29,-2174.57"/>
<text text-anchor="middle" x="2114" y="-1510.29" font-family="Times,serif" font-size="14.00">0</text>
</g>
<!-- 15&#45;&gt;0 -->
<g id="edge121" class="edge">
<title>15&#45;&gt;0</title>
<path fill="none" stroke="black" d="M1199.1,-18.82C1312.74,-18.33 1762,-18.85 2129,-54 2634.51,-102.42 2365,-39.16 2365,-104 2365,-418.5 2365,-418.5 2365,-418.5 2365,-525.65 2374.65,-568.31 2309,-653 2228.61,-756.71 2131.66,-689.92 2048,-791 1861.87,-1015.89 1880,-1134.06 1880,-1425.99 1880,-1562.49 1880,-1562.49 1880,-1562.49 1880,-1583.28 1821.77,-1911.25 1817,-1931.49 1813.48,-1946.4 1815.04,-1951.44 1807,-1964.49 1802.65,-1971.54 1796.72,-1978.19 1790.71,-1983.92"/>
<polygon fill="black" stroke="black" points="1788.3,-1981.38 1783.18,-1990.66 1792.97,-1986.6 1788.3,-1981.38"/>
<text text-anchor="middle" x="1929" y="-996.8" font-family="Times,serif" font-size="14.00">4</text>
</g>
<!-- 15&#45;&gt;13 -->
<g id="edge85" class="edge">
<title>15&#45;&gt;13</title>
<path fill="none" stroke="black" d="M1198.4,-22.87C1259.69,-31.77 1416.48,-54.09 1548,-69 1671,-82.94 1817.27,-95.5 1884.23,-101.02"/>
<polygon fill="black" stroke="black" points="1884.03,-104.52 1894.28,-101.85 1884.6,-97.54 1884.03,-104.52"/>
<text text-anchor="middle" x="1553" y="-57.8" font-family="Times,serif" font-size="14.00">1</text>
</g>
<!-- 15&#45;&gt;23 -->
<g id="edge36" class="edge">
<title>15&#45;&gt;23</title>
<path fill="none" stroke="black" d="M1144.61,-19.06C998.38,-19.53 312.95,-23.34 224,-54 188.2,-66.34 155,-66.13 155,-104 155,-462 155,-462 155,-462 155,-500.23 190.04,-496.53 225,-512 265.72,-530.02 316.41,-539.04 350.13,-543.36"/>
<polygon fill="black" stroke="black" points="350.1,-546.88 360.45,-544.6 350.94,-539.93 350.1,-546.88"/>
<text text-anchor="middle" x="160" y="-283.3" font-family="Times,serif" font-size="14.00">2</text>
</g>
<!-- 15&#45;&gt;23 -->
<g id="edge75" class="edge">
<title>15&#45;&gt;23</title>
<path fill="none" stroke="black" d="M1145.12,-19.87C1025.64,-23.98 542.36,-43.03 398,-87 289.7,-119.98 239,-172.79 239,-286 239,-462 239,-462 239,-462 239,-513.3 306.68,-534.09 350.51,-542.17"/>
<polygon fill="black" stroke="black" points="350.09,-545.65 360.54,-543.88 351.27,-538.75 350.09,-545.65"/>
<text text-anchor="middle" x="244" y="-283.3" font-family="Times,serif" font-size="14.00">0</text>
</g>
<!-- 24 -->
<g id="node26" class="node">
<title>24</title>
<ellipse fill="none" stroke="black" cx="1261" cy="-913.5" rx="27" ry="18"/>
<text text-anchor="middle" x="1261" y="-909.8" font-family="Times,serif" font-size="14.00">24</text>
</g>
<!-- 15&#45;&gt;24 -->
<g id="edge50" class="edge">
<title>15&#45;&gt;24</title>
<path fill="none" stroke="black" d="M1158.2,-33.67C1144.65,-49.67 1126,-76.65 1126,-104 1126,-766.5 1126,-766.5 1126,-766.5 1126,-827.99 1191.36,-874.59 1231.12,-897.26"/>
<polygon fill="black" stroke="black" points="1229.46,-900.34 1239.91,-902.11 1232.85,-894.21 1229.46,-900.34"/>
<text text-anchor="middle" x="1131" y="-457.3" font-family="Times,serif" font-size="14.00">3</text>
</g>
<!-- 16&#45;&gt;1 -->
<g id="edge65" class="edge">
<title>16&#45;&gt;1</title>
<path fill="none" stroke="black" d="M1371.61,-1389.69C1414.36,-1415.99 1510.09,-1474.45 1592,-1521.49 1606.03,-1529.55 1621.8,-1538.24 1634.9,-1545.37"/>
<polygon fill="black" stroke="black" points="1633.45,-1548.56 1643.91,-1550.25 1636.78,-1542.41 1633.45,-1548.56"/>
<text text-anchor="middle" x="1537" y="-1466.79" font-family="Times,serif" font-size="14.00">4</text>
</g>
<!-- 16&#45;&gt;4 -->
<g id="edge81" class="edge">
<title>16&#45;&gt;4</title>
<path fill="none" stroke="black" d="M1354.25,-1401.04C1362.61,-1443.58 1378,-1532.21 1378,-1607.99 1378,-1827.49 1378,-1827.49 1378,-1827.49 1378,-1852.14 1384.66,-1859.97 1402,-1877.49 1412.32,-1887.92 1426.39,-1895.74 1439.27,-1901.31"/>
<polygon fill="black" stroke="black" points="1438.24,-1904.66 1448.82,-1905.14 1440.84,-1898.17 1438.24,-1904.66"/>
<text text-anchor="middle" x="1383" y="-1648.79" font-family="Times,serif" font-size="14.00">2</text>
</g>
<!-- 16&#45;&gt;5 -->
<g id="edge4" class="edge">
<title>16&#45;&gt;5</title>
<path fill="none" stroke="black" d="M1324.28,-1385.7C1288.98,-1400.01 1222.17,-1427.45 1166,-1452.49 1018.25,-1518.35 844.28,-1602.82 775.33,-1636.58"/>
<polygon fill="black" stroke="black" points="773.75,-1633.46 766.31,-1641 776.83,-1639.74 773.75,-1633.46"/>
<text text-anchor="middle" x="1050" y="-1510.29" font-family="Times,serif" font-size="14.00">1</text>
</g>
<!-- 16&#45;&gt;9 -->
<g id="edge42" class="edge">
<title>16&#45;&gt;9</title>
<path fill="none" stroke="black" d="M1353.93,-1348.34C1359.43,-1321.78 1369.26,-1279.07 1382,-1243.5 1390.45,-1219.91 1400.19,-1216.86 1406,-1192.5 1434.7,-1072.17 1392,-759.7 1392,-636 1392,-636 1392,-636 1392,-286 1392,-263.6 1381.7,-240.4 1371.82,-223.3"/>
<polygon fill="black" stroke="black" points="1374.63,-221.19 1366.44,-214.47 1368.65,-224.83 1374.63,-221.19"/>
<text text-anchor="middle" x="1404" y="-761.8" font-family="Times,serif" font-size="14.00">3</text>
</g>
<!-- 16&#45;&gt;11 -->
<g id="edge123" class="edge">
<title>16&#45;&gt;11</title>
<path fill="none" stroke="black" d="M1323.94,-1365.18C1270.45,-1346.9 1144.99,-1304.04 1083.8,-1283.13"/>
<polygon fill="black" stroke="black" points="1084.8,-1279.78 1074.2,-1279.85 1082.53,-1286.4 1084.8,-1279.78"/>
<text text-anchor="middle" x="1221" y="-1318.79" font-family="Times,serif" font-size="14.00">0</text>
</g>
<!-- 17&#45;&gt;3 -->
<g id="edge133" class="edge">
<title>17&#45;&gt;3</title>
<path fill="none" stroke="black" d="M1621.97,-106.21C1548.24,-107.55 1338.27,-116.52 1176,-174 1053.35,-217.45 1022.45,-237.92 924,-323 856.57,-381.27 861.98,-416.95 798,-479 725.13,-549.67 670.04,-531.07 616,-617 580.39,-673.63 586,-697.6 586,-764.5 586,-958 586,-958 586,-958 586,-994.34 566.89,-1097.31 557.32,-1146.58"/>
<polygon fill="black" stroke="black" points="553.87,-1146.02 555.38,-1156.51 560.74,-1147.37 553.87,-1146.02"/>
<text text-anchor="middle" x="621" y="-631.3" font-family="Times,serif" font-size="14.00">1</text>
</g>
<!-- 17&#45;&gt;4 -->
<g id="edge69" class="edge">
<title>17&#45;&gt;4</title>
<path fill="none" stroke="black" d="M1627.21,-115.78C1600.58,-129.39 1559,-156.76 1559,-195 1559,-331.5 1559,-331.5 1559,-331.5 1559,-359.1 1554.04,-365.92 1545,-392 1534.06,-423.56 1513,-426.6 1513,-460 1513,-818.75 1513,-818.75 1513,-818.75 1513,-877.35 1501.76,-891.18 1496,-949.5 1486.94,-1041.26 1486.03,-1064.37 1482,-1156.5 1468.3,-1470.03 1471.11,-1548.67 1468,-1862.49 1467.93,-1869.15 1467.53,-1870.84 1468,-1877.49 1468.18,-1880.06 1468.44,-1882.73 1468.74,-1885.4"/>
<polygon fill="black" stroke="black" points="1465.29,-1885.99 1470.07,-1895.45 1472.23,-1885.08 1465.29,-1885.99"/>
<text text-anchor="middle" x="1497" y="-996.8" font-family="Times,serif" font-size="14.00">2</text>
</g>
<!-- 17&#45;&gt;14 -->
<g id="edge118" class="edge">
<title>17&#45;&gt;14</title>
<path fill="none" stroke="black" d="M1674.56,-111.41C1699.86,-117.2 1739.42,-127.41 1772,-141 1878.89,-185.6 1915.27,-188.98 1999,-269 2120.83,-385.43 2200,-421.98 2200,-590.5 2200,-723 2200,-723 2200,-723 2200,-765.07 2153.28,-791.5 2119.14,-805.2"/>
<polygon fill="black" stroke="black" points="2117.56,-802.05 2109.46,-808.88 2120.05,-808.6 2117.56,-802.05"/>
<text text-anchor="middle" x="2188" y="-457.3" font-family="Times,serif" font-size="14.00">4</text>
</g>
<!-- 17&#45;&gt;17 -->
<g id="edge8" class="edge">
<title>17&#45;&gt;17</title>
<path fill="none" stroke="black" d="M1673.53,-112.75C1684.51,-113.49 1694,-110.91 1694,-105 1694,-101.03 1689.72,-98.56 1683.57,-97.59"/>
<polygon fill="black" stroke="black" points="1683.65,-94.09 1673.53,-97.25 1683.41,-101.09 1683.65,-94.09"/>
<text text-anchor="middle" x="1699" y="-101.3" font-family="Times,serif" font-size="14.00">3</text>
</g>
<!-- 17&#45;&gt;27 -->
<g id="edge89" class="edge">
<title>17&#45;&gt;27</title>
<path fill="none" stroke="black" d="M1656.35,-122.35C1676.5,-167.19 1732.75,-292.34 1757.3,-346.96"/>
<polygon fill="black" stroke="black" points="1754.2,-348.61 1761.49,-356.3 1760.59,-345.74 1754.2,-348.61"/>
<text text-anchor="middle" x="1718" y="-239.8" font-family="Times,serif" font-size="14.00">0</text>
</g>
<!-- 18&#45;&gt;2 -->
<g id="edge6" class="edge">
<title>18&#45;&gt;2</title>
<path fill="none" stroke="black" d="M1739.52,-2164.69C1744.18,-2152.7 1750.53,-2136.34 1755.84,-2122.64"/>
<polygon fill="black" stroke="black" points="1759.14,-2123.84 1759.49,-2113.25 1752.61,-2121.3 1759.14,-2123.84"/>
<text text-anchor="middle" x="1756" y="-2135.29" font-family="Times,serif" font-size="14.00">0</text>
</g>
<!-- 18&#45;&gt;8 -->
<g id="edge41" class="edge">
<title>18&#45;&gt;8</title>
<path fill="none" stroke="black" d="M1758.9,-2176.52C1814.99,-2164.7 1949.77,-2130.42 2038,-2059.49 2113.25,-1998.99 2146,-1967.54 2146,-1870.99 2146,-1870.99 2146,-1870.99 2146,-1607.99 2146,-1515.25 2165.79,-1493.66 2176,-1401.49 2182.61,-1341.85 2237.71,-915.72 2210,-862.5 2160.52,-767.45 2022.53,-736.56 1955.92,-727.02"/>
<polygon fill="black" stroke="black" points="1956.24,-723.53 1945.86,-725.66 1955.31,-730.46 1956.24,-723.53"/>
<text text-anchor="middle" x="2173" y="-1466.79" font-family="Times,serif" font-size="14.00">2</text>
</g>
<!-- 18&#45;&gt;9 -->
<g id="edge47" class="edge">
<title>18&#45;&gt;9</title>
<path fill="none" stroke="black" d="M1705.82,-2180.98C1530.3,-2177.5 564,-2155.69 564,-2096.49 564,-2096.49 564,-2096.49 564,-1955.99 564,-1945.87 344.04,-1678.6 338,-1670.49 259.34,-1564.95 168,-1559.61 168,-1427.99 168,-1427.99 168,-1427.99 168,-869 168,-776.92 184.36,-751.54 229,-671 269.17,-598.52 282.74,-576.99 351,-530 360.86,-523.21 1149.48,-239.24 1161,-236 1216.95,-220.29 1283.71,-208.24 1322.24,-201.93"/>
<polygon fill="black" stroke="black" points="1323.02,-205.35 1332.33,-200.3 1321.9,-198.44 1323.02,-205.35"/>
<text text-anchor="middle" x="173" y="-1170.8" font-family="Times,serif" font-size="14.00">4</text>
</g>
<!-- 18&#45;&gt;11 -->
<g id="edge130" class="edge">
<title>18&#45;&gt;11</title>
<path fill="none" stroke="black" d="M1705.96,-2181.16C1575.9,-2179.22 1021,-2166.82 1021,-2096.49 1021,-2096.49 1021,-2096.49 1021,-1868.99 1021,-1841.39 1026.12,-1834.62 1035,-1808.49 1045.69,-1777.04 1066,-1773.7 1066,-1740.49 1066,-1740.49 1066,-1740.49 1066,-1607.99 1066,-1568.32 1048.93,-1560.85 1044,-1521.49 1034.5,-1445.57 1040.43,-1355.7 1045.06,-1306.99"/>
<polygon fill="black" stroke="black" points="1048.56,-1307.24 1046.06,-1296.95 1041.59,-1306.56 1048.56,-1307.24"/>
<text text-anchor="middle" x="1071" y="-1735.79" font-family="Times,serif" font-size="14.00">1</text>
</g>
<!-- 18&#45;&gt;14 -->
<g id="edge97" class="edge">
<title>18&#45;&gt;14</title>
<path fill="none" stroke="black" d="M1759.53,-2178.9C1794.31,-2175.51 1857.21,-2169.44 1911,-2164.49 2001.19,-2156.18 2029.05,-2177.92 2114,-2146.49 2149.86,-2133.22 2184,-2134.72 2184,-2096.49 2184,-2096.49 2184,-2096.49 2184,-1607.99 2184,-1562.51 2190.48,-1551.5 2197,-1506.49 2203.78,-1459.7 2210.21,-1448.61 2214,-1401.49 2223.91,-1278.32 2234.36,-1244.64 2210,-1123.5 2207.03,-1108.72 2144.18,-875.15 2136,-862.5 2130.28,-853.65 2122.23,-845.66 2114.17,-839"/>
<polygon fill="black" stroke="black" points="2116.23,-836.17 2106.19,-832.79 2111.94,-841.69 2116.23,-836.17"/>
<text text-anchor="middle" x="2202" y="-1510.29" font-family="Times,serif" font-size="14.00">3</text>
</g>
<!-- 19 -->
<g id="node21" class="node">
<title>19</title>
<ellipse fill="none" stroke="black" cx="434" cy="-105" rx="27" ry="18"/>
<text text-anchor="middle" x="434" y="-101.3" font-family="Times,serif" font-size="14.00">19</text>
</g>
<!-- 19&#45;&gt;3 -->
<g id="edge51" class="edge">
<title>19&#45;&gt;3</title>
<path fill="none" stroke="black" d="M429.03,-122.92C421.69,-149.92 409.31,-204.48 414,-251 438.57,-494.69 495.93,-547.69 524,-791 541.71,-944.49 495.49,-988.87 534,-1138.5 534.88,-1141.91 536.13,-1145.37 537.58,-1148.71"/>
<polygon fill="black" stroke="black" points="534.45,-1150.28 541.99,-1157.72 540.73,-1147.2 534.45,-1150.28"/>
<text text-anchor="middle" x="506" y="-631.3" font-family="Times,serif" font-size="14.00">2</text>
</g>
<!-- 19&#45;&gt;3 -->
<g id="edge56" class="edge">
<title>19&#45;&gt;3</title>
<path fill="none" stroke="black" d="M409.49,-112.71C397.84,-115.87 383.71,-119.67 371,-123 339.51,-131.24 326.46,-122.03 300,-141 244.89,-180.5 245.84,-207.64 217,-269 203.23,-298.29 130,-514.63 130,-547 130,-679.5 130,-679.5 130,-679.5 130,-823.67 291.66,-775.79 372,-895.5 435.85,-990.62 377.65,-1056.83 458,-1138.5 473.39,-1154.14 496.41,-1162.86 515.82,-1167.69"/>
<polygon fill="black" stroke="black" points="515.05,-1171.11 525.58,-1169.87 516.58,-1164.27 515.05,-1171.11"/>
<text text-anchor="middle" x="135" y="-631.3" font-family="Times,serif" font-size="14.00">1</text>
</g>
<!-- 19&#45;&gt;3 -->
<g id="edge146" class="edge">
<title>19&#45;&gt;3</title>
<path fill="none" stroke="black" d="M418.58,-120.15C395.75,-142.25 353.97,-187.5 338,-236 311.65,-316.04 325.14,-345.48 353,-425 371.55,-477.93 402.5,-477.79 423,-530 517.68,-771.17 457.63,-853.06 516,-1105.5 519.45,-1120.43 519.11,-1124.81 526,-1138.5 527.99,-1142.45 530.43,-1146.43 533.01,-1150.21"/>
<polygon fill="black" stroke="black" points="530.4,-1152.57 539.13,-1158.57 536.05,-1148.43 530.4,-1152.57"/>
<text text-anchor="middle" x="467" y="-631.3" font-family="Times,serif" font-size="14.00">4</text>
</g>
<!-- 19&#45;&gt;10 -->
<g id="edge79" class="edge">
<title>19&#45;&gt;10</title>
<path fill="none" stroke="black" d="M461.03,-105.99C597.16,-106.26 1208.01,-110.98 1385,-174 1506.36,-217.21 1517.76,-265.14 1624,-338 1677.61,-374.76 1740.31,-417.73 1775.16,-441.61"/>
<polygon fill="black" stroke="black" points="1773.58,-444.77 1783.8,-447.53 1777.53,-438.99 1773.58,-444.77"/>
<text text-anchor="middle" x="1583" y="-283.3" font-family="Times,serif" font-size="14.00">0</text>
</g>
<!-- 19&#45;&gt;11 -->
<g id="edge127" class="edge">
<title>19&#45;&gt;11</title>
<path fill="none" stroke="black" d="M460.81,-107.32C549.16,-113.34 830.84,-146.25 924,-323 938.91,-351.3 866.21,-863.67 863,-895.5 860.43,-920.97 855.27,-949.19 858,-964.5 879.67,-1086.18 870.13,-1134.71 954,-1225.5 969.81,-1242.61 993.64,-1253.56 1013.48,-1260.22"/>
<polygon fill="black" stroke="black" points="1012.54,-1263.6 1023.13,-1263.24 1014.63,-1256.92 1012.54,-1263.6"/>
<text text-anchor="middle" x="897" y="-674.8" font-family="Times,serif" font-size="14.00">3</text>
</g>
<!-- 20&#45;&gt;7 -->
<g id="edge66" class="edge">
<title>20&#45;&gt;7</title>
<path fill="none" stroke="black" d="M1217.06,-1102.45C1192.98,-1123.23 1145.51,-1163.01 1102,-1192.5 1064.26,-1218.08 1040.8,-1207.37 1013,-1243.5 883.94,-1411.21 1031.22,-1545.88 890,-1703.49 876.12,-1718.97 854.57,-1727.67 836.03,-1732.52"/>
<polygon fill="black" stroke="black" points="835.05,-1729.16 826.11,-1734.84 836.64,-1735.97 835.05,-1729.16"/>
<text text-anchor="middle" x="959" y="-1423.29" font-family="Times,serif" font-size="14.00">1</text>
</g>
<!-- 20&#45;&gt;15 -->
<g id="edge98" class="edge">
<title>20&#45;&gt;15</title>
<path fill="none" stroke="black" d="M1231.04,-1069.12C1227.44,-1042.17 1218.11,-989.24 1197,-949.5 1167.9,-894.7 1129.47,-901.51 1105,-844.5 999.38,-598.42 1050,-512.28 1050,-244.5 1050,-244.5 1050,-244.5 1050,-104 1050,-61.29 1100.96,-38.28 1137,-27.35"/>
<polygon fill="black" stroke="black" points="1138.06,-30.69 1146.72,-24.58 1136.15,-23.96 1138.06,-30.69"/>
<text text-anchor="middle" x="1043" y="-544.3" font-family="Times,serif" font-size="14.00">4</text>
</g>
<!-- 20&#45;&gt;20 -->
<g id="edge59" class="edge">
<title>20&#45;&gt;20</title>
<path fill="none" stroke="black" d="M1257.53,-1095.25C1268.51,-1095.99 1278,-1093.4 1278,-1087.5 1278,-1083.53 1273.72,-1081.06 1267.57,-1080.09"/>
<polygon fill="black" stroke="black" points="1267.65,-1076.59 1257.53,-1079.74 1267.41,-1083.59 1267.65,-1076.59"/>
<text text-anchor="middle" x="1283" y="-1083.8" font-family="Times,serif" font-size="14.00">2</text>
</g>
<!-- 20&#45;&gt;21 -->
<g id="edge11" class="edge">
<title>20&#45;&gt;21</title>
<path fill="none" stroke="black" d="M1257.97,-1080.33C1299.08,-1070.3 1383.69,-1050.21 1456,-1036.5 1522.16,-1023.95 1599.9,-1012.6 1644.51,-1006.41"/>
<polygon fill="black" stroke="black" points="1645.15,-1009.86 1654.58,-1005.03 1644.19,-1002.92 1645.15,-1009.86"/>
<text text-anchor="middle" x="1461" y="-1040.3" font-family="Times,serif" font-size="14.00">0</text>
</g>
<!-- 20&#45;&gt;22 -->
<g id="edge52" class="edge">
<title>20&#45;&gt;22</title>
<path fill="none" stroke="black" d="M1252.84,-1099.88C1289.22,-1120.43 1369.48,-1164.2 1441,-1192.5 1514.75,-1221.67 1545.45,-1200.35 1612,-1243.5 1638.31,-1260.55 1632.68,-1278.49 1658,-1296.99 1753.9,-1367.08 1790.14,-1367.63 1904,-1401.49 1947.7,-1414.48 1960.3,-1410.5 2005,-1419.49 2034.92,-1425.5 2042.02,-1428.82 2072,-1434.49 2107.64,-1441.23 2207.54,-1456.18 2261.81,-1464.18"/>
<polygon fill="black" stroke="black" points="2261.3,-1467.65 2271.71,-1465.64 2262.32,-1460.72 2261.3,-1467.65"/>
<text text-anchor="middle" x="1663" y="-1266.54" font-family="Times,serif" font-size="14.00">3</text>
</g>
<!-- 21&#45;&gt;6 -->
<g id="edge126" class="edge">
<title>21&#45;&gt;6</title>
<path fill="none" stroke="black" d="M1707.63,-1003.49C1815.73,-1012.06 2220.7,-1048.68 2321,-1123.5 2420.49,-1197.71 2445.15,-1546.87 2434,-1670.49 2424.05,-1780.85 2374,-1801.68 2374,-1912.49 2374,-2183.49 2374,-2183.49 2374,-2183.49 2374,-2208.14 2369.72,-2218.7 2350,-2233.49 2323,-2253.74 2228.26,-2262.85 2175.03,-2266.45"/>
<polygon fill="black" stroke="black" points="2174.72,-2262.96 2164.97,-2267.1 2175.17,-2269.95 2174.72,-2262.96"/>
<text text-anchor="middle" x="2441" y="-1648.79" font-family="Times,serif" font-size="14.00">1</text>
</g>
<!-- 21&#45;&gt;8 -->
<g id="edge58" class="edge">
<title>21&#45;&gt;8</title>
<path fill="none" stroke="black" d="M1693.64,-984.4C1732.05,-938.55 1847.13,-801.44 1886,-758 1889.83,-753.72 1893.98,-749.22 1898.01,-744.92"/>
<polygon fill="black" stroke="black" points="1900.7,-747.16 1905.02,-737.49 1895.61,-742.36 1900.7,-747.16"/>
<text text-anchor="middle" x="1800" y="-866.3" font-family="Times,serif" font-size="14.00">0</text>
</g>
<!-- 21&#45;&gt;8 -->
<g id="edge106" class="edge">
<title>21&#45;&gt;8</title>
<path fill="none" stroke="black" d="M1687.48,-982.85C1703.06,-944.63 1745.98,-849.4 1808,-791 1831.86,-768.53 1864.31,-749.7 1887.96,-737.59"/>
<polygon fill="black" stroke="black" points="1889.81,-740.58 1897.19,-732.98 1886.68,-734.32 1889.81,-740.58"/>
<text text-anchor="middle" x="1753" y="-866.3" font-family="Times,serif" font-size="14.00">4</text>
</g>
<!-- 21&#45;&gt;16 -->
<g id="edge101" class="edge">
<title>21&#45;&gt;16</title>
<path fill="none" stroke="black" d="M1654.69,-1004.84C1630.35,-1008.98 1594.1,-1017.91 1568,-1036.5 1475.03,-1102.71 1476.07,-1146.44 1416,-1243.5 1396.21,-1275.46 1376.94,-1313.95 1364.18,-1340.76"/>
<polygon fill="black" stroke="black" points="1360.88,-1339.54 1359.78,-1350.07 1367.21,-1342.52 1360.88,-1339.54"/>
<text text-anchor="middle" x="1468" y="-1170.8" font-family="Times,serif" font-size="14.00">2</text>
</g>
<!-- 21&#45;&gt;24 -->
<g id="edge67" class="edge">
<title>21&#45;&gt;24</title>
<path fill="none" stroke="black" d="M1655.36,-994.31C1583.37,-979.74 1379.25,-938.43 1296.5,-921.68"/>
<polygon fill="black" stroke="black" points="1297.07,-918.22 1286.57,-919.67 1295.68,-925.09 1297.07,-918.22"/>
<text text-anchor="middle" x="1501" y="-953.3" font-family="Times,serif" font-size="14.00">3</text>
</g>
<!-- 22&#45;&gt;6 -->
<g id="edge129" class="edge">
<title>22&#45;&gt;6</title>
<path fill="none" stroke="black" d="M2286.8,-1487.03C2275.6,-1504.16 2260,-1532.93 2260,-1560.49 2260,-2183.49 2260,-2183.49 2260,-2183.49 2260,-2208.14 2254.32,-2216.99 2236,-2233.49 2218.77,-2249 2194.19,-2257.76 2173.96,-2262.63"/>
<polygon fill="black" stroke="black" points="2173.15,-2259.22 2164.13,-2264.78 2174.65,-2266.06 2173.15,-2259.22"/>
<text text-anchor="middle" x="2265" y="-1866.29" font-family="Times,serif" font-size="14.00">0</text>
</g>
<!-- 22&#45;&gt;6 -->
<g id="edge142" class="edge">
<title>22&#45;&gt;6</title>
<path fill="none" stroke="black" d="M2298,-1488.55C2298,-1506.47 2298,-1535.46 2298,-1560.49 2298,-2183.49 2298,-2183.49 2298,-2183.49 2298,-2238.9 2222.22,-2258.3 2174.97,-2265.01"/>
<polygon fill="black" stroke="black" points="2174.25,-2261.58 2164.78,-2266.33 2175.15,-2268.52 2174.25,-2261.58"/>
<text text-anchor="middle" x="2303" y="-1866.29" font-family="Times,serif" font-size="14.00">3</text>
</g>
<!-- 22&#45;&gt;13 -->
<g id="edge72" class="edge">
<title>22&#45;&gt;13</title>
<path fill="none" stroke="black" d="M2311.91,-1455.05C2345.45,-1418.67 2428,-1318.95 2428,-1219 2428,-1219 2428,-1219 2428,-956 2428,-933.28 2203.26,-191.68 2189,-174 2170.14,-150.61 2158.35,-150.96 2130,-141 2071.92,-120.59 2000.48,-111.91 1957.96,-108.34"/>
<polygon fill="black" stroke="black" points="1958.04,-104.84 1947.79,-107.54 1957.49,-111.82 1958.04,-104.84"/>
<text text-anchor="middle" x="2381" y="-761.8" font-family="Times,serif" font-size="14.00">1</text>
</g>
<!-- 22&#45;&gt;16 -->
<g id="edge31" class="edge">
<title>22&#45;&gt;16</title>
<path fill="none" stroke="black" d="M2272.04,-1465.24C2248.37,-1461.48 2212.41,-1456.06 2181,-1452.49 2083.96,-1441.46 2059.28,-1443.15 1962,-1434.49 1743.12,-1415 1480.54,-1388.94 1385.54,-1379.42"/>
<polygon fill="black" stroke="black" points="1385.88,-1375.93 1375.58,-1378.42 1385.18,-1382.9 1385.88,-1375.93"/>
<text text-anchor="middle" x="1967" y="-1423.29" font-family="Times,serif" font-size="14.00">2</text>
</g>
<!-- 22&#45;&gt;29 -->
<g id="edge7" class="edge">
<title>22&#45;&gt;29</title>
<path fill="none" stroke="black" d="M2305.15,-1488.06C2307.5,-1493.83 2310.02,-1500.39 2312,-1506.49 2316.82,-1521.33 2450,-2035.38 2450,-2050.99 2450,-2270.49 2450,-2270.49 2450,-2270.49 2450,-2289.74 2450,-2311.43 2450,-2328.09"/>
<polygon fill="black" stroke="black" points="2446.5,-2328.23 2450,-2338.23 2453.5,-2328.23 2446.5,-2328.23"/>
<text text-anchor="middle" x="2426" y="-1909.79" font-family="Times,serif" font-size="14.00">4</text>
</g>
<!-- 23&#45;&gt;2 -->
<g id="edge115" class="edge">
<title>23&#45;&gt;2</title>
<path fill="none" stroke="black" d="M378.76,-565.32C354.01,-614.94 282,-763.82 282,-816.75 282,-1427.99 282,-1427.99 282,-1427.99 282,-1474.81 319.19,-1617.85 366,-1670.49 649.1,-1988.8 820.82,-1995.62 1242,-2059.49 1423.07,-2086.95 1642.61,-2092.86 1728.76,-2094.14"/>
<polygon fill="black" stroke="black" points="1728.78,-2097.64 1738.83,-2094.27 1728.88,-2090.64 1728.78,-2097.64"/>
<text text-anchor="middle" x="287" y="-1318.79" font-family="Times,serif" font-size="14.00">4</text>
</g>
<!-- 23&#45;&gt;5 -->
<g id="edge95" class="edge">
<title>23&#45;&gt;5</title>
<path fill="none" stroke="black" d="M393.85,-565.51C435.03,-664.96 648,-1181 648,-1217 648,-1427.99 648,-1427.99 648,-1427.99 648,-1516.18 663.78,-1541.37 710,-1616.49 713.04,-1621.43 716.91,-1626.2 720.96,-1630.54"/>
<polygon fill="black" stroke="black" points="718.75,-1633.28 728.31,-1637.85 723.68,-1628.31 718.75,-1633.28"/>
<text text-anchor="middle" x="615" y="-1083.8" font-family="Times,serif" font-size="14.00">1</text>
</g>
<!-- 23&#45;&gt;6 -->
<g id="edge62" class="edge">
<title>23&#45;&gt;6</title>
<path fill="none" stroke="black" d="M373.51,-563.8C361.95,-577.03 345.41,-597.32 334,-617 274.37,-719.9 244,-750.07 244,-869 244,-1323.49 244,-1323.49 244,-1323.49 244,-1461.94 230,-1496.09 226,-1634.49 225.54,-1650.48 219.36,-1655.93 226,-1670.49 255.56,-1735.27 308.66,-1715.49 347,-1775.49 370.29,-1811.94 374,-1825.73 374,-1868.99 374,-2183.49 374,-2183.49 374,-2183.49 374,-2212.51 389.82,-2220.96 416,-2233.49 494.57,-2271.08 1857.01,-2269.23 2100.81,-2268.6"/>
<polygon fill="black" stroke="black" points="2100.95,-2272.1 2110.94,-2268.57 2100.93,-2265.1 2100.95,-2272.1"/>
<text text-anchor="middle" x="247" y="-1423.29" font-family="Times,serif" font-size="14.00">3</text>
</g>
<!-- 23&#45;&gt;7 -->
<g id="edge38" class="edge">
<title>23&#45;&gt;7</title>
<path fill="none" stroke="black" d="M382.94,-565.88C373.74,-605.1 351.53,-705.56 344,-791 318.75,-1077.44 468,-1138.44 468,-1425.99 468,-1653.49 468,-1653.49 468,-1653.49 468,-1713.82 676.33,-1731.9 762.94,-1736.82"/>
<polygon fill="black" stroke="black" points="762.94,-1740.32 773.11,-1737.36 763.31,-1733.33 762.94,-1740.32"/>
<text text-anchor="middle" x="413" y="-1127.3" font-family="Times,serif" font-size="14.00">0</text>
</g>
<!-- 23&#45;&gt;10 -->
<g id="edge111" class="edge">
<title>23&#45;&gt;10</title>
<path fill="none" stroke="black" d="M414,-545.38C589.02,-534.86 1561.8,-476.43 1764.85,-464.23"/>
<polygon fill="black" stroke="black" points="1765.23,-467.72 1775,-463.62 1764.81,-460.73 1765.23,-467.72"/>
<text text-anchor="middle" x="1184" y="-500.8" font-family="Times,serif" font-size="14.00">2</text>
</g>
<!-- 24&#45;&gt;3 -->
<g id="edge46" class="edge">
<title>24&#45;&gt;3</title>
<path fill="none" stroke="black" d="M1235.96,-920.62C1210.19,-927.1 1168.97,-937.98 1134,-949.5 1023.67,-985.83 689.4,-1118.63 584.12,-1160.65"/>
<polygon fill="black" stroke="black" points="582.65,-1157.47 574.66,-1164.43 585.24,-1163.97 582.65,-1157.47"/>
<text text-anchor="middle" x="901" y="-1040.3" font-family="Times,serif" font-size="14.00">4</text>
</g>
<!-- 24&#45;&gt;7 -->
<g id="edge19" class="edge">
<title>24&#45;&gt;7</title>
<path fill="none" stroke="black" d="M1239.02,-924.05C1232.9,-926.58 1226.23,-929.24 1220,-931.5 1194.62,-940.67 1182.92,-932.44 1162,-949.5 1134.87,-971.62 1141.43,-988.13 1124,-1018.5 1101.58,-1057.56 1096.43,-1067.65 1072,-1105.5 1031.48,-1168.27 1009.14,-1176.53 976,-1243.5 882.09,-1433.27 974.4,-1530.71 852,-1703.49 846.41,-1711.38 838.44,-1718.01 830.41,-1723.3"/>
<polygon fill="black" stroke="black" points="828.53,-1720.35 821.78,-1728.52 832.15,-1726.34 828.53,-1720.35"/>
<text text-anchor="middle" x="952" y="-1318.79" font-family="Times,serif" font-size="14.00">2</text>
</g>
<!-- 24&#45;&gt;14 -->
<g id="edge29" class="edge">
<title>24&#45;&gt;14</title>
<path fill="none" stroke="black" d="M1288.19,-911.73C1391.49,-908.7 1759.55,-896.78 1875,-877.5 1937.68,-867.03 2008.45,-844.87 2049.47,-830.96"/>
<polygon fill="black" stroke="black" points="2050.66,-834.25 2058.99,-827.69 2048.39,-827.62 2050.66,-834.25"/>
<text text-anchor="middle" x="1944" y="-866.3" font-family="Times,serif" font-size="14.00">3</text>
</g>
<!-- 24&#45;&gt;20 -->
<g id="edge10" class="edge">
<title>24&#45;&gt;20</title>
<path fill="none" stroke="black" d="M1258.22,-931.55C1253.37,-961.38 1243.29,-1023.26 1237.45,-1059.14"/>
<polygon fill="black" stroke="black" points="1233.94,-1058.94 1235.79,-1069.38 1240.85,-1060.07 1233.94,-1058.94"/>
<text text-anchor="middle" x="1254" y="-996.8" font-family="Times,serif" font-size="14.00">1</text>
</g>
<!-- 24&#45;&gt;22 -->
<g id="edge34" class="edge">
<title>24&#45;&gt;22</title>
<path fill="none" stroke="black" d="M1288.13,-915.29C1409.25,-919.09 1896.82,-937.11 1946,-982.5 2015.7,-1046.83 1942.54,-1107.19 1984,-1192.5 2047.45,-1323.05 2202.95,-1418.46 2268.31,-1454.12"/>
<polygon fill="black" stroke="black" points="2266.81,-1457.29 2277.27,-1458.95 2270.13,-1451.13 2266.81,-1457.29"/>
<text text-anchor="middle" x="1989" y="-1170.8" font-family="Times,serif" font-size="14.00">0</text>
</g>
<!-- 25&#45;&gt;1 -->
<g id="edge60" class="edge">
<title>25&#45;&gt;1</title>
<path fill="none" stroke="black" d="M560.05,-198.48C619,-202.12 756.97,-212.9 797,-236 953.17,-326.14 916.28,-428.56 1033,-566 1104.59,-650.3 1326.08,-819.04 1406,-895.5 1444.84,-932.65 1463.92,-935.5 1490,-982.5 1583.17,-1150.35 1545.15,-1216.1 1595,-1401.49 1609.64,-1455.91 1607.58,-1472.82 1636,-1521.49 1638.63,-1525.99 1641.61,-1530.66 1644.61,-1535.13"/>
<polygon fill="black" stroke="black" points="1641.75,-1537.15 1650.31,-1543.39 1647.52,-1533.17 1641.75,-1537.15"/>
<text text-anchor="middle" x="1391" y="-866.3" font-family="Times,serif" font-size="14.00">1</text>
</g>
<!-- 25&#45;&gt;7 -->
<g id="edge73" class="edge">
<title>25&#45;&gt;7</title>
<path fill="none" stroke="black" d="M529.71,-213.99C522.65,-248.57 504.37,-329.15 476,-392 468.78,-407.99 421.03,-492.38 395,-512 378.13,-524.72 369.66,-520.09 351,-530 312.79,-550.29 294.5,-548.34 270,-584 233.25,-637.5 206,-804.09 206,-869 206,-1323.49 206,-1323.49 206,-1323.49 206,-1536.48 305.56,-1612.2 498,-1703.49 544.04,-1725.33 692.43,-1734.13 762.59,-1737.14"/>
<polygon fill="black" stroke="black" points="762.62,-1740.65 772.75,-1737.56 762.9,-1733.65 762.62,-1740.65"/>
<text text-anchor="middle" x="211" y="-953.3" font-family="Times,serif" font-size="14.00">4</text>
</g>
<!-- 25&#45;&gt;19 -->
<g id="edge93" class="edge">
<title>25&#45;&gt;19</title>
<path fill="none" stroke="black" d="M517.53,-181.09C501.26,-166.46 475.47,-143.28 456.85,-126.54"/>
<polygon fill="black" stroke="black" points="459.14,-123.89 449.36,-119.81 454.46,-129.1 459.14,-123.89"/>
<text text-anchor="middle" x="494" y="-144.8" font-family="Times,serif" font-size="14.00">2</text>
</g>
<!-- 25&#45;&gt;25 -->
<g id="edge27" class="edge">
<title>25&#45;&gt;25</title>
<path fill="none" stroke="black" d="M557.07,-204.45C568.24,-205.38 578,-202.56 578,-196 578,-191.59 573.6,-188.88 567.32,-187.85"/>
<polygon fill="black" stroke="black" points="567.17,-184.34 557.07,-187.55 566.97,-191.34 567.17,-184.34"/>
<text text-anchor="middle" x="583" y="-192.3" font-family="Times,serif" font-size="14.00">0</text>
</g>
<!-- 25&#45;&gt;29 -->
<g id="edge30" class="edge">
<title>25&#45;&gt;29</title>
<path fill="none" stroke="black" d="M521.29,-212.27C487.17,-256.69 388.09,-385.17 353,-425 330.77,-450.23 327.51,-459.66 300,-479 255.58,-510.22 235.03,-501.21 189,-530 137.33,-562.32 123.01,-571.03 83,-617 62.31,-640.77 46,-645.98 46,-677.5 46,-2270.49 46,-2270.49 46,-2270.49 46,-2369.03 164.19,-2308.52 262,-2320.49 483.53,-2347.59 2141.9,-2354.43 2412.67,-2355.37"/>
<polygon fill="black" stroke="black" points="2412.76,-2358.87 2422.77,-2355.4 2412.78,-2351.87 2412.76,-2358.87"/>
<text text-anchor="middle" x="51" y="-1266.54" font-family="Times,serif" font-size="14.00">3</text>
</g>
<!-- 26&#45;&gt;8 -->
<g id="edge70" class="edge">
<title>26&#45;&gt;8</title>
<path fill="none" stroke="black" d="M1507.67,-297.06C1515.58,-299.95 1524.59,-302.93 1533,-305 1587.5,-318.43 1602.8,-312.85 1658,-323 1748.34,-339.62 2048,-368.14 2048,-460 2048,-636 2048,-636 2048,-636 2048,-680.93 1992.76,-703.46 1954.57,-713.66"/>
<polygon fill="black" stroke="black" points="1953.65,-710.28 1944.8,-716.11 1955.35,-717.07 1953.65,-710.28"/>
<text text-anchor="middle" x="2053" y="-500.8" font-family="Times,serif" font-size="14.00">4</text>
</g>
<!-- 26&#45;&gt;9 -->
<g id="edge116" class="edge">
<title>26&#45;&gt;9</title>
<path fill="none" stroke="black" d="M1474.78,-269.87C1467.31,-259.13 1456.37,-245.33 1444,-236 1426.22,-222.59 1403.12,-212.7 1384.77,-206.24"/>
<polygon fill="black" stroke="black" points="1385.73,-202.86 1375.13,-203 1383.5,-209.5 1385.73,-202.86"/>
<text text-anchor="middle" x="1464" y="-239.8" font-family="Times,serif" font-size="14.00">2</text>
</g>
<!-- 26&#45;&gt;10 -->
<g id="edge139" class="edge">
<title>26&#45;&gt;10</title>
<path fill="none" stroke="black" d="M1493.42,-304.29C1509.55,-333.73 1547.82,-395.44 1599,-425 1626.61,-440.95 1714.25,-451.66 1764.89,-456.69"/>
<polygon fill="black" stroke="black" points="1764.81,-460.2 1775.1,-457.68 1765.49,-453.23 1764.81,-460.2"/>
<text text-anchor="middle" x="1561" y="-370.3" font-family="Times,serif" font-size="14.00">1</text>
</g>
<!-- 26&#45;&gt;11 -->
<g id="edge150" class="edge">
<title>26&#45;&gt;11</title>
<path fill="none" stroke="black" d="M1466.93,-300.44C1421.24,-332.84 1300.07,-424.64 1235,-530 1087.3,-769.16 1056.65,-1120.34 1050.49,-1233.03"/>
<polygon fill="black" stroke="black" points="1046.99,-1233.01 1049.97,-1243.18 1053.98,-1233.37 1046.99,-1233.01"/>
<text text-anchor="middle" x="1138" y="-761.8" font-family="Times,serif" font-size="14.00">3</text>
</g>
<!-- 26&#45;&gt;25 -->
<g id="edge147" class="edge">
<title>26&#45;&gt;25</title>
<path fill="none" stroke="black" d="M1458.29,-283.5C1324.22,-270.97 724.81,-214.93 569.73,-200.43"/>
<polygon fill="black" stroke="black" points="570.03,-196.95 559.75,-199.5 569.38,-203.92 570.03,-196.95"/>
<text text-anchor="middle" x="1099" y="-239.8" font-family="Times,serif" font-size="14.00">0</text>
</g>
<!-- 27&#45;&gt;6 -->
<g id="edge104" class="edge">
<title>27&#45;&gt;6</title>
<path fill="none" stroke="black" d="M1796.13,-375.74C1857.32,-378.33 2009.59,-390.05 2123,-443 2249.53,-502.07 2499.35,-769.24 2559,-895.5 2621.05,-1026.85 2618,-1071.72 2618,-1217 2618,-1514.99 2618,-1514.99 2618,-1514.99 2618,-1642.59 2412,-1923.38 2412,-2050.99 2412,-2183.49 2412,-2183.49 2412,-2183.49 2412,-2212.23 2395.99,-2219.29 2371,-2233.49 2338.27,-2252.08 2232.17,-2262.03 2175.12,-2266.15"/>
<polygon fill="black" stroke="black" points="2174.79,-2262.67 2165.06,-2266.86 2175.28,-2269.65 2174.79,-2262.67"/>
<text text-anchor="middle" x="2623" y="-1318.79" font-family="Times,serif" font-size="14.00">0</text>
</g>
<!-- 27&#45;&gt;10 -->
<g id="edge68" class="edge">
<title>27&#45;&gt;10</title>
<path fill="none" stroke="black" d="M1766.41,-392.26C1765.62,-402.18 1765.87,-414.68 1770,-425 1771.97,-429.94 1774.99,-434.61 1778.39,-438.84"/>
<polygon fill="black" stroke="black" points="1775.93,-441.34 1785.25,-446.38 1781.11,-436.63 1775.93,-441.34"/>
<text text-anchor="middle" x="1775" y="-413.8" font-family="Times,serif" font-size="14.00">3</text>
</g>
<!-- 27&#45;&gt;17 -->
<g id="edge2" class="edge">
<title>27&#45;&gt;17</title>
<path fill="none" stroke="black" d="M1773.62,-356.24C1783.95,-314.81 1804.27,-206.21 1754,-141 1738.06,-120.32 1709.45,-111.73 1686.12,-108.23"/>
<polygon fill="black" stroke="black" points="1686.53,-104.75 1676.17,-106.98 1685.66,-111.7 1686.53,-104.75"/>
<text text-anchor="middle" x="1791" y="-239.8" font-family="Times,serif" font-size="14.00">1</text>
</g>
<!-- 27&#45;&gt;20 -->
<g id="edge43" class="edge">
<title>27&#45;&gt;20</title>
<path fill="none" stroke="black" d="M1754.12,-389.28C1726.08,-416.32 1663.65,-477.01 1613,-530 1518.42,-628.93 1484.13,-645.62 1406,-758 1322.15,-878.61 1325.6,-923.23 1254,-1051.5 1252.13,-1054.85 1250.11,-1058.35 1248.09,-1061.79"/>
<polygon fill="black" stroke="black" points="1244.95,-1060.21 1242.83,-1070.59 1250.96,-1063.8 1244.95,-1060.21"/>
<text text-anchor="middle" x="1450" y="-718.3" font-family="Times,serif" font-size="14.00">2</text>
</g>
<!-- 27&#45;&gt;26 -->
<g id="edge94" class="edge">
<title>27&#45;&gt;26</title>
<path fill="none" stroke="black" d="M1744.79,-365.75C1694.17,-350.6 1577.05,-315.55 1518.95,-298.16"/>
<polygon fill="black" stroke="black" points="1519.74,-294.74 1509.15,-295.23 1517.73,-301.45 1519.74,-294.74"/>
<text text-anchor="middle" x="1649" y="-326.8" font-family="Times,serif" font-size="14.00">4</text>
</g>
<!-- 28&#45;&gt;2 -->
<g id="edge74" class="edge">
<title>28&#45;&gt;2</title>
<path fill="none" stroke="black" d="M686.05,-643.36C717.33,-654.6 768,-679.25 768,-721 768,-958 768,-958 768,-958 768,-1056.52 820,-1074.97 820,-1173.5 820,-1323.49 820,-1323.49 820,-1323.49 820,-1471.33 888.39,-1495.22 938,-1634.49 957.34,-1688.77 945.57,-1710.56 979,-1757.49 992.98,-1777.11 1000.36,-1779.9 1022,-1790.49 1050.47,-1804.41 1065.85,-1789.2 1091,-1808.49 1179.44,-1876.34 1129.8,-1954.61 1215,-2026.49 1292.88,-2092.19 1617.96,-2095.75 1728.79,-2095"/>
<polygon fill="black" stroke="black" points="1728.86,-2098.5 1738.83,-2094.91 1728.8,-2091.5 1728.86,-2098.5"/>
<text text-anchor="middle" x="832" y="-1371.04" font-family="Times,serif" font-size="14.00">1</text>
</g>
<!-- 28&#45;&gt;3 -->
<g id="edge112" class="edge">
<title>28&#45;&gt;3</title>
<path fill="none" stroke="black" d="M660.44,-653.25C654.99,-710.6 635.04,-899.77 596,-1051.5 587.27,-1085.42 572.9,-1123.16 562.97,-1147.56"/>
<polygon fill="black" stroke="black" points="559.72,-1146.26 559.15,-1156.84 566.19,-1148.93 559.72,-1146.26"/>
<text text-anchor="middle" x="633" y="-909.8" font-family="Times,serif" font-size="14.00">0</text>
</g>
<!-- 28&#45;&gt;9 -->
<g id="edge3" class="edge">
<title>28&#45;&gt;9</title>
<path fill="none" stroke="black" d="M685.42,-625.86C761.96,-598.09 1007.45,-499.76 1140,-338 1170.66,-300.58 1141.51,-267.76 1178,-236 1199.2,-217.55 1277.28,-205.79 1322,-200.42"/>
<polygon fill="black" stroke="black" points="1322.53,-203.88 1332.06,-199.25 1321.72,-196.93 1322.53,-203.88"/>
<text text-anchor="middle" x="1074" y="-413.8" font-family="Times,serif" font-size="14.00">4</text>
</g>
<!-- 28&#45;&gt;23 -->
<g id="edge99" class="edge">
<title>28&#45;&gt;23</title>
<path fill="none" stroke="black" d="M640.04,-624.37C633.93,-621.84 627.25,-619.2 621,-617 551.24,-592.49 467.66,-569.75 421.65,-557.79"/>
<polygon fill="black" stroke="black" points="422.43,-554.38 411.88,-555.26 420.68,-561.15 422.43,-554.38"/>
<text text-anchor="middle" x="568" y="-587.8" font-family="Times,serif" font-size="14.00">3</text>
</g>
<!-- 28&#45;&gt;28 -->
<g id="edge13" class="edge">
<title>28&#45;&gt;28</title>
<path fill="none" stroke="black" d="M686.53,-642.75C697.51,-643.49 707,-640.91 707,-635 707,-631.03 702.72,-628.56 696.57,-627.59"/>
<polygon fill="black" stroke="black" points="696.65,-624.09 686.53,-627.25 696.41,-631.09 696.65,-624.09"/>
<text text-anchor="middle" x="712" y="-631.3" font-family="Times,serif" font-size="14.00">2</text>
</g>
<!-- 29&#45;&gt;6 -->
<g id="edge35" class="edge">
<title>29&#45;&gt;6</title>
<path fill="none" stroke="black" d="M2425.52,-2348.82C2370.41,-2333.8 2236.46,-2297.31 2172.76,-2279.96"/>
<polygon fill="black" stroke="black" points="2173.37,-2276.5 2162.8,-2277.24 2171.53,-2283.25 2173.37,-2276.5"/>
<text text-anchor="middle" x="2317" y="-2309.29" font-family="Times,serif" font-size="14.00">3</text>
</g>
<!-- 29&#45;&gt;10 -->
<g id="edge84" class="edge">
<title>29&#45;&gt;10</title>
<path fill="none" stroke="black" d="M2476.99,-2353.91C2524.48,-2349.51 2618,-2332.92 2618,-2270.49 2618,-2270.49 2618,-2270.49 2618,-1694.99 2618,-1613.22 2580,-1596.75 2580,-1514.99 2580,-1514.99 2580,-1514.99 2580,-1217 2580,-1109.19 2567.81,-1078.1 2518,-982.5 2466.49,-883.63 2438.73,-865.73 2356,-791 2203.68,-653.41 2154.38,-629.76 1975,-530 1929.18,-504.52 1871.84,-483.99 1836.06,-472.39"/>
<polygon fill="black" stroke="black" points="1836.71,-468.93 1826.12,-469.22 1834.59,-475.6 1836.71,-468.93"/>
<text text-anchor="middle" x="2585" y="-1423.29" font-family="Times,serif" font-size="14.00">4</text>
</g>
<!-- 29&#45;&gt;14 -->
<g id="edge100" class="edge">
<title>29&#45;&gt;14</title>
<path fill="none" stroke="black" d="M2476.4,-2352.63C2499.78,-2348.86 2533.58,-2340.19 2556,-2320.49 2574.51,-2304.21 2580,-2295.14 2580,-2270.49 2580,-2270.49 2580,-2270.49 2580,-2137.99 2580,-2021.28 2528.91,-1732.68 2518,-1616.49 2501.1,-1436.41 2564.78,-1375.18 2490,-1210.5 2453.81,-1130.8 2271.64,-995.56 2212,-931.5 2184.31,-901.75 2182.73,-889.09 2152,-862.5 2141,-852.98 2127.77,-844 2115.91,-836.68"/>
<polygon fill="black" stroke="black" points="2117.55,-833.58 2107.17,-831.43 2113.94,-839.58 2117.55,-833.58"/>
<text text-anchor="middle" x="2523" y="-1605.29" font-family="Times,serif" font-size="14.00">2</text>
</g>
<!-- 29&#45;&gt;22 -->
<g id="edge82" class="edge">
<title>29&#45;&gt;22</title>
<path fill="none" stroke="black" d="M2465.91,-2341.55C2481.84,-2325.98 2504,-2299.16 2504,-2270.49 2504,-2270.49 2504,-2270.49 2504,-1955.99 2504,-1906.25 2358.23,-1585.76 2340,-1539.49 2334.22,-1524.82 2335.02,-1520.06 2327,-1506.49 2324.47,-1502.21 2321.44,-1497.92 2318.29,-1493.89"/>
<polygon fill="black" stroke="black" points="2320.88,-1491.52 2311.82,-1486.04 2315.48,-1495.98 2320.88,-1491.52"/>
<text text-anchor="middle" x="2504" y="-1909.79" font-family="Times,serif" font-size="14.00">0</text>
</g>
<!-- 29&#45;&gt;25 -->
<g id="edge40" class="edge">
<title>29&#45;&gt;25</title>
<path fill="none" stroke="black" d="M2422.92,-2355.37C2162.42,-2354.24 108.61,-2344.51 51,-2320.49 21.7,-2308.27 0,-2302.23 0,-2270.49 0,-2270.49 0,-2270.49 0,-1269.24 0,-1130.87 8,-1096.37 8,-958 8,-958 8,-958 8,-677.5 8,-608.92 402.84,-297.92 507.69,-216.54"/>
<polygon fill="black" stroke="black" points="510.07,-219.12 515.83,-210.23 505.78,-213.59 510.07,-219.12"/>
<text text-anchor="middle" x="5" y="-1266.54" font-family="Times,serif" font-size="14.00">1</text>
</g>
</g>
</svg>
