<?xml version="1.0" encoding="UTF-8" standalone="no"?>
<!DOCTYPE svg PUBLIC "-//W3C//DTD SVG 1.1//EN"
 "http://www.w3.org/Graphics/SVG/1.1/DTD/svg11.dtd">
<!-- Generated by graphviz version 2.49.0 (20210829.0051)
 -->
<!-- Pages: 1 -->
<svg width="2815pt" height="2221pt"
 viewBox="0.00 0.00 2815.00 2221.48" xmlns="http://www.w3.org/2000/svg" xmlns:xlink="http://www.w3.org/1999/xlink">
<g id="graph0" class="graph" transform="scale(1 1) rotate(0) translate(4 2217.48)">
<polygon fill="white" stroke="transparent" points="-4,4 -4,-2217.48 2811,-2217.48 2811,4 -4,4"/>
<!-- fake -->
<g id="node1" class="node">
<title>fake</title>
</g>
<!-- 29 -->
<g id="node31" class="node">
<title>29</title>
<ellipse fill="none" stroke="black" cx="2599" cy="-2113.73" rx="22.96" ry="22.96"/>
<ellipse fill="none" stroke="black" cx="2599" cy="-2113.73" rx="27" ry="27"/>
<text text-anchor="middle" x="2599" y="-2110.03" font-family="Times,serif" font-size="14.00">29</text>
</g>
<!-- fake&#45;&gt;29 -->
<g id="edge1" class="edge">
<title>fake&#45;&gt;29</title>
<path fill="none" stroke="black" stroke-width="2" d="M2599,-2177.18C2599,-2169.39 2599,-2159.89 2599,-2150.67"/>
<polygon fill="black" stroke="black" stroke-width="2" points="2602.5,-2150.49 2599,-2140.49 2595.5,-2150.49 2602.5,-2150.49"/>
</g>
<!-- 0 -->
<g id="node2" class="node">
<title>0</title>
<ellipse fill="none" stroke="black" cx="987" cy="-1282.99" rx="18" ry="18"/>
<ellipse fill="none" stroke="black" cx="987" cy="-1282.99" rx="22" ry="22"/>
<text text-anchor="middle" x="987" y="-1279.29" font-family="Times,serif" font-size="14.00">0</text>
</g>
<!-- 0&#45;&gt;0 -->
<g id="edge147" class="edge">
<title>0&#45;&gt;0</title>
<path fill="none" stroke="black" d="M1007.58,-1291.36C1017.84,-1292.52 1027,-1289.73 1027,-1282.99 1027,-1278.68 1023.24,-1275.98 1017.84,-1274.9"/>
<polygon fill="black" stroke="black" points="1017.67,-1271.4 1007.58,-1274.62 1017.48,-1278.39 1017.67,-1271.4"/>
<text text-anchor="middle" x="1032" y="-1279.29" font-family="Times,serif" font-size="14.00">0</text>
</g>
<!-- 2 -->
<g id="node4" class="node">
<title>2</title>
<ellipse fill="none" stroke="black" cx="868" cy="-1565.49" rx="27" ry="18"/>
<text text-anchor="middle" x="868" y="-1561.79" font-family="Times,serif" font-size="14.00">2</text>
</g>
<!-- 0&#45;&gt;2 -->
<g id="edge16" class="edge">
<title>0&#45;&gt;2</title>
<path fill="none" stroke="black" d="M964.83,-1286.06C941.62,-1289.51 906.07,-1298.68 888,-1322.99 840.29,-1387.19 852.42,-1489.23 861.81,-1537.5"/>
<polygon fill="black" stroke="black" points="858.43,-1538.4 863.87,-1547.48 865.28,-1536.98 858.43,-1538.4"/>
<text text-anchor="middle" x="859" y="-1431.29" font-family="Times,serif" font-size="14.00">4</text>
</g>
<!-- 17 -->
<g id="node19" class="node">
<title>17</title>
<ellipse fill="none" stroke="black" cx="1089" cy="-1104.99" rx="27" ry="18"/>
<text text-anchor="middle" x="1089" y="-1101.29" font-family="Times,serif" font-size="14.00">17</text>
</g>
<!-- 0&#45;&gt;17 -->
<g id="edge27" class="edge">
<title>0&#45;&gt;17</title>
<path fill="none" stroke="black" d="M1002.21,-1266.42C1008.46,-1259.56 1015.51,-1251.21 1021,-1242.99 1045.27,-1206.65 1066.44,-1160.41 1078.47,-1132.02"/>
<polygon fill="black" stroke="black" points="1081.71,-1133.34 1082.33,-1122.77 1075.25,-1130.65 1081.71,-1133.34"/>
<text text-anchor="middle" x="1065" y="-1188.29" font-family="Times,serif" font-size="14.00">3</text>
</g>
<!-- 20 -->
<g id="node22" class="node">
<title>20</title>
<ellipse fill="none" stroke="black" cx="773" cy="-122.5" rx="27" ry="18"/>
<text text-anchor="middle" x="773" y="-118.8" font-family="Times,serif" font-size="14.00">20</text>
</g>
<!-- 0&#45;&gt;20 -->
<g id="edge87" class="edge">
<title>0&#45;&gt;20</title>
<path fill="none" stroke="black" d="M980.04,-1261.84C972.32,-1239.97 959.21,-1204.11 946,-1173.99 942.41,-1165.8 939.11,-1164.68 937,-1155.99 845.61,-780.47 973.5,-669.92 925,-286.5 917.41,-226.52 926.7,-195.63 879,-158.5 858.8,-142.77 831.23,-133.96 809.27,-129.11"/>
<polygon fill="black" stroke="black" points="809.8,-125.64 799.31,-127.09 808.41,-132.5 809.8,-125.64"/>
<text text-anchor="middle" x="923" y="-709.79" font-family="Times,serif" font-size="14.00">1</text>
</g>
<!-- 28 -->
<g id="node30" class="node">
<title>28</title>
<ellipse fill="none" stroke="black" cx="910" cy="-1191.99" rx="27" ry="18"/>
<text text-anchor="middle" x="910" y="-1188.29" font-family="Times,serif" font-size="14.00">28</text>
</g>
<!-- 0&#45;&gt;28 -->
<g id="edge61" class="edge">
<title>0&#45;&gt;28</title>
<path fill="none" stroke="black" d="M969.74,-1268.5C961.2,-1261.39 951.03,-1252.25 943,-1242.99 936.29,-1235.26 929.87,-1226.08 924.5,-1217.72"/>
<polygon fill="black" stroke="black" points="927.37,-1215.71 919.12,-1209.06 921.42,-1219.4 927.37,-1215.71"/>
<text text-anchor="middle" x="948" y="-1231.79" font-family="Times,serif" font-size="14.00">2</text>
</g>
<!-- 1 -->
<g id="node3" class="node">
<title>1</title>
<ellipse fill="none" stroke="black" cx="868" cy="-1652.49" rx="27" ry="18"/>
<text text-anchor="middle" x="868" y="-1648.79" font-family="Times,serif" font-size="14.00">1</text>
</g>
<!-- 1&#45;&gt;2 -->
<g id="edge7" class="edge">
<title>1&#45;&gt;2</title>
<path fill="none" stroke="black" d="M868,-1634.29C868,-1622.65 868,-1607.04 868,-1593.72"/>
<polygon fill="black" stroke="black" points="871.5,-1593.66 868,-1583.66 864.5,-1593.66 871.5,-1593.66"/>
<text text-anchor="middle" x="873" y="-1605.29" font-family="Times,serif" font-size="14.00">1</text>
</g>
<!-- 14 -->
<g id="node16" class="node">
<title>14</title>
<ellipse fill="none" stroke="black" cx="668" cy="-843.99" rx="27" ry="18"/>
<text text-anchor="middle" x="668" y="-840.29" font-family="Times,serif" font-size="14.00">14</text>
</g>
<!-- 1&#45;&gt;14 -->
<g id="edge69" class="edge">
<title>1&#45;&gt;14</title>
<path fill="none" stroke="black" d="M845.93,-1641.71C807.79,-1623.95 728.77,-1583.18 678,-1529.49 599.24,-1446.19 588.94,-1413.16 551,-1304.99 518.91,-1213.5 519.44,-1181.04 543,-1086.99 564.63,-1000.67 622.01,-910.48 650.89,-868.76"/>
<polygon fill="black" stroke="black" points="653.89,-870.58 656.76,-860.38 648.15,-866.57 653.89,-870.58"/>
<text text-anchor="middle" x="538" y="-1231.79" font-family="Times,serif" font-size="14.00">4</text>
</g>
<!-- 21 -->
<g id="node23" class="node">
<title>21</title>
<ellipse fill="none" stroke="black" cx="1676" cy="-930.99" rx="27" ry="18"/>
<text text-anchor="middle" x="1676" y="-927.29" font-family="Times,serif" font-size="14.00">21</text>
</g>
<!-- 1&#45;&gt;21 -->
<g id="edge35" class="edge">
<title>1&#45;&gt;21</title>
<path fill="none" stroke="black" d="M894.53,-1647.8C920.02,-1644.29 959.63,-1638.89 994,-1634.49 1133.7,-1616.6 1526.05,-1635.29 1619,-1529.49 1691.62,-1446.82 1651,-1394.02 1651,-1283.99 1651,-1283.99 1651,-1283.99 1651,-1016.99 1651,-996.61 1657.7,-974.56 1664.16,-958.02"/>
<polygon fill="black" stroke="black" points="1667.51,-959.08 1668.09,-948.5 1661.04,-956.41 1667.51,-959.08"/>
<text text-anchor="middle" x="1657" y="-1279.29" font-family="Times,serif" font-size="14.00">2</text>
</g>
<!-- 1&#45;&gt;21 -->
<g id="edge85" class="edge">
<title>1&#45;&gt;21</title>
<path fill="none" stroke="black" d="M893.99,-1647.3C919.41,-1643.37 959.27,-1637.63 994,-1634.49 1122.86,-1622.84 1456.53,-1637.73 1574,-1583.49 1608.1,-1567.74 1612.79,-1556.39 1639,-1529.49 1652.03,-1516.11 1657.15,-1513.43 1665,-1496.49 1675.3,-1474.27 1672.5,-1466.73 1676,-1442.49 1701.92,-1263.02 1703.22,-1217.16 1711,-1035.99 1711.69,-1020.01 1714.77,-1015.54 1711,-999.99 1707.29,-984.67 1699.49,-968.93 1692.2,-956.46"/>
<polygon fill="black" stroke="black" points="1694.99,-954.33 1686.79,-947.62 1689.02,-957.98 1694.99,-954.33"/>
<text text-anchor="middle" x="1704" y="-1279.29" font-family="Times,serif" font-size="14.00">0</text>
</g>
<!-- 24 -->
<g id="node26" class="node">
<title>24</title>
<ellipse fill="none" stroke="black" cx="591" cy="-565.5" rx="27" ry="18"/>
<text text-anchor="middle" x="591" y="-561.8" font-family="Times,serif" font-size="14.00">24</text>
</g>
<!-- 1&#45;&gt;24 -->
<g id="edge129" class="edge">
<title>1&#45;&gt;24</title>
<path fill="none" stroke="black" d="M841.27,-1649.91C776.99,-1644.66 612.48,-1622.36 523,-1529.49 511.93,-1518 443.69,-1342.47 435,-1304.99 401.35,-1159.84 346.12,-751.01 439,-634.5 467.87,-598.28 520.12,-580.77 555.19,-572.72"/>
<polygon fill="black" stroke="black" points="556,-576.13 565.04,-570.61 554.53,-569.29 556,-576.13"/>
<text text-anchor="middle" x="410" y="-1101.29" font-family="Times,serif" font-size="14.00">3</text>
</g>
<!-- 2&#45;&gt;2 -->
<g id="edge94" class="edge">
<title>2&#45;&gt;2</title>
<path fill="none" stroke="black" d="M892.53,-1573.24C903.51,-1573.98 913,-1571.39 913,-1565.49 913,-1561.52 908.72,-1559.05 902.57,-1558.08"/>
<polygon fill="black" stroke="black" points="902.65,-1554.58 892.53,-1557.74 902.41,-1561.58 902.65,-1554.58"/>
<text text-anchor="middle" x="918" y="-1561.79" font-family="Times,serif" font-size="14.00">4</text>
</g>
<!-- 16 -->
<g id="node18" class="node">
<title>16</title>
<ellipse fill="none" stroke="black" cx="1370" cy="-1478.49" rx="27" ry="18"/>
<text text-anchor="middle" x="1370" y="-1474.79" font-family="Times,serif" font-size="14.00">16</text>
</g>
<!-- 2&#45;&gt;16 -->
<g id="edge96" class="edge">
<title>2&#45;&gt;16</title>
<path fill="none" stroke="black" d="M893.93,-1560.1C977.24,-1545.99 1238.2,-1501.8 1334.15,-1485.56"/>
<polygon fill="black" stroke="black" points="1334.95,-1488.97 1344.22,-1483.85 1333.78,-1482.07 1334.95,-1488.97"/>
<text text-anchor="middle" x="1155" y="-1518.29" font-family="Times,serif" font-size="14.00">1</text>
</g>
<!-- 2&#45;&gt;20 -->
<g id="edge8" class="edge">
<title>2&#45;&gt;20</title>
<path fill="none" stroke="black" d="M843.68,-1557.23C788.49,-1539.75 651.9,-1490.63 566,-1409.49 528.43,-1374 527.44,-1355.15 515,-1304.99 474.53,-1141.78 350,-734.65 350,-566.5 350,-566.5 350,-566.5 350,-212.5 350,-134.04 632.21,-124.37 735.61,-123.46"/>
<polygon fill="black" stroke="black" points="735.92,-126.96 745.9,-123.4 735.87,-119.96 735.92,-126.96"/>
<text text-anchor="middle" x="404" y="-840.29" font-family="Times,serif" font-size="14.00">2</text>
</g>
<!-- 25 -->
<g id="node27" class="node">
<title>25</title>
<ellipse fill="none" stroke="black" cx="2073" cy="-213.5" rx="27" ry="18"/>
<text text-anchor="middle" x="2073" y="-209.8" font-family="Times,serif" font-size="14.00">25</text>
</g>
<!-- 2&#45;&gt;25 -->
<g id="edge47" class="edge">
<title>2&#45;&gt;25</title>
<path fill="none" stroke="black" d="M895.14,-1563.54C1087.87,-1556.74 2242,-1514.53 2242,-1479.49 2242,-1479.49 2242,-1479.49 2242,-1147.49 2242,-1073.1 2256.7,-1055.67 2267,-981.99 2295.47,-778.3 2326,-728.67 2326,-523 2326,-523 2326,-523 2326,-303.5 2326,-225.03 2118,-240.29 2105,-235.5 2102.87,-234.71 2100.74,-233.76 2098.65,-232.71"/>
<polygon fill="black" stroke="black" points="2100.24,-229.58 2089.83,-227.58 2096.72,-235.63 2100.24,-229.58"/>
<text text-anchor="middle" x="2289" y="-883.79" font-family="Times,serif" font-size="14.00">3</text>
</g>
<!-- 26 -->
<g id="node28" class="node">
<title>26</title>
<ellipse fill="none" stroke="black" cx="711" cy="-661.24" rx="22.96" ry="22.96"/>
<ellipse fill="none" stroke="black" cx="711" cy="-661.24" rx="27" ry="27"/>
<text text-anchor="middle" x="711" y="-657.54" font-family="Times,serif" font-size="14.00">26</text>
</g>
<!-- 2&#45;&gt;26 -->
<g id="edge21" class="edge">
<title>2&#45;&gt;26</title>
<path fill="none" stroke="black" d="M850.36,-1551.53C833.76,-1538.76 808.84,-1518.07 791,-1496.49 654.88,-1331.78 601.82,-1280.44 571,-1068.99 553.22,-947.03 542.25,-902.92 598,-792.99 619.4,-750.8 657.31,-710.98 683.27,-686.61"/>
<polygon fill="black" stroke="black" points="685.94,-688.92 690.91,-679.56 681.19,-683.77 685.94,-688.92"/>
<text text-anchor="middle" x="585" y="-1101.29" font-family="Times,serif" font-size="14.00">0</text>
</g>
<!-- 3 -->
<g id="node5" class="node">
<title>3</title>
<ellipse fill="none" stroke="black" cx="1941" cy="-1739.49" rx="27" ry="18"/>
<text text-anchor="middle" x="1941" y="-1735.79" font-family="Times,serif" font-size="14.00">3</text>
</g>
<!-- 3&#45;&gt;1 -->
<g id="edge118" class="edge">
<title>3&#45;&gt;1</title>
<path fill="none" stroke="black" d="M1914.03,-1737.45C1799.94,-1732.89 1345.81,-1712.91 975,-1670.49 951.18,-1667.76 924.55,-1663.54 903.82,-1659.98"/>
<polygon fill="black" stroke="black" points="904.31,-1656.51 893.86,-1658.25 903.11,-1663.41 904.31,-1656.51"/>
<text text-anchor="middle" x="1325" y="-1692.29" font-family="Times,serif" font-size="14.00">2</text>
</g>
<!-- 9 -->
<g id="node11" class="node">
<title>9</title>
<ellipse fill="none" stroke="black" cx="1416" cy="-304.5" rx="27" ry="18"/>
<text text-anchor="middle" x="1416" y="-300.8" font-family="Times,serif" font-size="14.00">9</text>
</g>
<!-- 3&#45;&gt;9 -->
<g id="edge28" class="edge">
<title>3&#45;&gt;9</title>
<path fill="none" stroke="black" d="M1964.89,-1730.73C1995.32,-1719.17 2044,-1694.29 2044,-1653.49 2044,-1653.49 2044,-1653.49 2044,-1147.49 2044,-947.43 1760.85,-1108.42 1640,-948.99 1625.26,-929.54 1633.44,-919.16 1630,-894.99 1613.61,-779.8 1628.82,-748.17 1604,-634.5 1583.25,-539.47 1583.63,-510.54 1533,-427.5 1507.91,-386.34 1466.86,-347.78 1440.66,-325.43"/>
<polygon fill="black" stroke="black" points="1442.62,-322.5 1432.71,-318.75 1438.12,-327.86 1442.62,-322.5"/>
<text text-anchor="middle" x="1932" y="-1014.29" font-family="Times,serif" font-size="14.00">1</text>
</g>
<!-- 12 -->
<g id="node14" class="node">
<title>12</title>
<ellipse fill="none" stroke="black" cx="1248" cy="-1382.74" rx="22.96" ry="22.96"/>
<ellipse fill="none" stroke="black" cx="1248" cy="-1382.74" rx="27" ry="27"/>
<text text-anchor="middle" x="1248" y="-1379.04" font-family="Times,serif" font-size="14.00">12</text>
</g>
<!-- 3&#45;&gt;12 -->
<g id="edge29" class="edge">
<title>3&#45;&gt;12</title>
<path fill="none" stroke="black" d="M1914.2,-1736.98C1871.12,-1733.97 1784.2,-1725.51 1714,-1703.49 1514.3,-1640.83 1447.61,-1635.35 1291,-1496.49 1269.6,-1477.51 1265.95,-1469.3 1256,-1442.49 1253.31,-1435.24 1251.51,-1427.19 1250.31,-1419.43"/>
<polygon fill="black" stroke="black" points="1253.78,-1418.97 1249.05,-1409.49 1246.84,-1419.85 1253.78,-1418.97"/>
<text text-anchor="middle" x="1406" y="-1561.79" font-family="Times,serif" font-size="14.00">0</text>
</g>
<!-- 19 -->
<g id="node21" class="node">
<title>19</title>
<ellipse fill="none" stroke="black" cx="2213" cy="-478.5" rx="27" ry="18"/>
<text text-anchor="middle" x="2213" y="-474.8" font-family="Times,serif" font-size="14.00">19</text>
</g>
<!-- 3&#45;&gt;19 -->
<g id="edge70" class="edge">
<title>3&#45;&gt;19</title>
<path fill="none" stroke="black" d="M1967.74,-1736.62C2014.42,-1732.88 2108.27,-1723.1 2134,-1703.49 2153.6,-1688.54 2158,-1678.14 2158,-1653.49 2158,-1653.49 2158,-1653.49 2158,-1381.74 2158,-1220.43 2170,-1180.3 2170,-1018.99 2170,-1018.99 2170,-1018.99 2170,-712.49 2170,-636.49 2192.4,-548.83 2204.86,-505.92"/>
<polygon fill="black" stroke="black" points="2208.24,-506.84 2207.73,-496.26 2201.53,-504.85 2208.24,-506.84"/>
<text text-anchor="middle" x="2175" y="-1101.29" font-family="Times,serif" font-size="14.00">4</text>
</g>
<!-- 23 -->
<g id="node25" class="node">
<title>23</title>
<ellipse fill="none" stroke="black" cx="773" cy="-26.75" rx="27" ry="18"/>
<text text-anchor="middle" x="773" y="-23.05" font-family="Times,serif" font-size="14.00">23</text>
</g>
<!-- 3&#45;&gt;23 -->
<g id="edge17" class="edge">
<title>3&#45;&gt;23</title>
<path fill="none" stroke="black" d="M1967.19,-1734.76C2007.97,-1727.32 2082,-1706.51 2082,-1653.49 2082,-1653.49 2082,-1653.49 2082,-1147.49 2082,-1051.65 2090,-1027.84 2090,-931.99 2090,-931.99 2090,-931.99 2090,-608 2090,-537.22 2077.44,-513.01 2030,-460.5 1968.95,-392.93 1744.33,-318.16 1668,-268.5 1601.67,-225.34 1598.76,-193.92 1528,-158.5 1445.29,-117.08 1416.98,-125.96 1327,-104.5 1257.22,-87.85 1239.84,-82.78 1169,-71.5 1037.76,-50.59 880.45,-36.42 810.13,-30.65"/>
<polygon fill="black" stroke="black" points="810.26,-27.15 800.01,-29.83 809.69,-34.13 810.26,-27.15"/>
<text text-anchor="middle" x="2095" y="-883.79" font-family="Times,serif" font-size="14.00">3</text>
</g>
<!-- 4 -->
<g id="node6" class="node">
<title>4</title>
<ellipse fill="none" stroke="black" cx="1305" cy="-1017.99" rx="27" ry="18"/>
<text text-anchor="middle" x="1305" y="-1014.29" font-family="Times,serif" font-size="14.00">4</text>
</g>
<!-- 4&#45;&gt;3 -->
<g id="edge112" class="edge">
<title>4&#45;&gt;3</title>
<path fill="none" stroke="black" d="M1318.54,-1033.73C1369.46,-1089.24 1554.18,-1291.09 1703,-1460.49 1785.28,-1554.15 1881.25,-1667.55 1921.59,-1715.41"/>
<polygon fill="black" stroke="black" points="1919.12,-1717.91 1928.24,-1723.3 1924.47,-1713.4 1919.12,-1717.91"/>
<text text-anchor="middle" x="1663" y="-1379.04" font-family="Times,serif" font-size="14.00">3</text>
</g>
<!-- 13 -->
<g id="node15" class="node">
<title>13</title>
<ellipse fill="none" stroke="black" cx="1459" cy="-213.5" rx="27" ry="18"/>
<text text-anchor="middle" x="1459" y="-209.8" font-family="Times,serif" font-size="14.00">13</text>
</g>
<!-- 4&#45;&gt;13 -->
<g id="edge53" class="edge">
<title>4&#45;&gt;13</title>
<path fill="none" stroke="black" d="M1321.33,-1003.35C1327.61,-997.36 1334.39,-989.89 1339,-981.99 1365.8,-936.08 1474,-576.16 1474,-523 1474,-523 1474,-523 1474,-303.5 1474,-282.47 1469.88,-259.04 1465.96,-241.5"/>
<polygon fill="black" stroke="black" points="1469.28,-240.35 1463.58,-231.42 1462.47,-241.95 1469.28,-240.35"/>
<text text-anchor="middle" x="1464" y="-605.3" font-family="Times,serif" font-size="14.00">2</text>
</g>
<!-- 4&#45;&gt;16 -->
<g id="edge117" class="edge">
<title>4&#45;&gt;16</title>
<path fill="none" stroke="black" d="M1309.22,-1036.02C1310.54,-1041.71 1311.93,-1048.1 1313,-1053.99 1339.94,-1202.66 1360.09,-1382.82 1367.2,-1450.26"/>
<polygon fill="black" stroke="black" points="1363.75,-1450.87 1368.27,-1460.46 1370.71,-1450.15 1363.75,-1450.87"/>
<text text-anchor="middle" x="1348" y="-1231.79" font-family="Times,serif" font-size="14.00">1</text>
</g>
<!-- 4&#45;&gt;17 -->
<g id="edge113" class="edge">
<title>4&#45;&gt;17</title>
<path fill="none" stroke="black" d="M1281.68,-1027.1C1264.26,-1033.51 1240.09,-1043.16 1220,-1053.99 1209.58,-1059.61 1208.63,-1063.8 1198,-1068.99 1174.26,-1080.59 1145.78,-1089.58 1123.89,-1095.55"/>
<polygon fill="black" stroke="black" points="1122.8,-1092.21 1114.03,-1098.15 1124.59,-1098.98 1122.8,-1092.21"/>
<text text-anchor="middle" x="1225" y="-1057.79" font-family="Times,serif" font-size="14.00">0</text>
</g>
<!-- 4&#45;&gt;21 -->
<g id="edge39" class="edge">
<title>4&#45;&gt;21</title>
<path fill="none" stroke="black" d="M1329.23,-1009.85C1364.59,-999.57 1432.49,-980.37 1491,-966.99 1542.55,-955.2 1602.84,-944.34 1640.22,-937.93"/>
<polygon fill="black" stroke="black" points="1640.86,-941.38 1650.13,-936.25 1639.69,-934.47 1640.86,-941.38"/>
<text text-anchor="middle" x="1496" y="-970.79" font-family="Times,serif" font-size="14.00">4</text>
</g>
<!-- 5 -->
<g id="node7" class="node">
<title>5</title>
<ellipse fill="none" stroke="black" cx="2438" cy="-2017.98" rx="27" ry="18"/>
<text text-anchor="middle" x="2438" y="-2014.28" font-family="Times,serif" font-size="14.00">5</text>
</g>
<!-- 8 -->
<g id="node10" class="node">
<title>8</title>
<ellipse fill="none" stroke="black" cx="371" cy="-1930.98" rx="27" ry="18"/>
<text text-anchor="middle" x="371" y="-1927.28" font-family="Times,serif" font-size="14.00">8</text>
</g>
<!-- 5&#45;&gt;8 -->
<g id="edge107" class="edge">
<title>5&#45;&gt;8</title>
<path fill="none" stroke="black" d="M2410.65,-2017.03C2261.02,-2017.14 1526.28,-2015.83 927,-1981.98 730.81,-1970.9 496.61,-1946.01 407.69,-1936.13"/>
<polygon fill="black" stroke="black" points="407.9,-1932.64 397.57,-1935.01 407.12,-1939.59 407.9,-1932.64"/>
<text text-anchor="middle" x="932" y="-1970.78" font-family="Times,serif" font-size="14.00">1</text>
</g>
<!-- 5&#45;&gt;12 -->
<g id="edge68" class="edge">
<title>5&#45;&gt;12</title>
<path fill="none" stroke="black" d="M2410.92,-2016.9C2209.38,-2016.11 951,-2008.1 951,-1931.98 951,-1931.98 951,-1931.98 951,-1477.49 951,-1423.48 1131.88,-1396.67 1211.32,-1387.5"/>
<polygon fill="black" stroke="black" points="1211.83,-1390.97 1221.38,-1386.37 1211.05,-1384.01 1211.83,-1390.97"/>
<text text-anchor="middle" x="956" y="-1692.29" font-family="Times,serif" font-size="14.00">2</text>
</g>
<!-- 18 -->
<g id="node20" class="node">
<title>18</title>
<ellipse fill="none" stroke="black" cx="2120" cy="-304.5" rx="27" ry="18"/>
<text text-anchor="middle" x="2120" y="-300.8" font-family="Times,serif" font-size="14.00">18</text>
</g>
<!-- 5&#45;&gt;18 -->
<g id="edge144" class="edge">
<title>5&#45;&gt;18</title>
<path fill="none" stroke="black" d="M2450.22,-2001.71C2461.98,-1985.43 2478,-1958.4 2478,-1931.98 2478,-1931.98 2478,-1931.98 2478,-608 2478,-566.2 2489.49,-550.34 2468,-514.5 2394.77,-392.38 2324.97,-406.87 2199,-340.5 2183.9,-332.54 2166.63,-324.75 2152.09,-318.54"/>
<polygon fill="black" stroke="black" points="2153.09,-315.16 2142.52,-314.51 2150.38,-321.62 2153.09,-315.16"/>
<text text-anchor="middle" x="2483" y="-1144.79" font-family="Times,serif" font-size="14.00">0</text>
</g>
<!-- 5&#45;&gt;20 -->
<g id="edge131" class="edge">
<title>5&#45;&gt;20</title>
<path fill="none" stroke="black" d="M2410.7,-2016.95C2179.1,-2016.61 547.11,-2013.13 332,-1981.98 249.83,-1970.09 152,-2015.01 152,-1931.98 152,-1931.98 152,-1931.98 152,-1781.99 152,-1698.26 95.72,-1693.13 62,-1616.49 27.84,-1538.85 0,-1520.81 0,-1435.99 0,-1435.99 0,-1435.99 0,-799.49 0,-692.59 75.99,-422.97 144,-340.5 228.94,-237.48 257.62,-204.38 383,-158.5 447.21,-135 651.29,-126.82 735.8,-124.39"/>
<polygon fill="black" stroke="black" points="736.07,-127.89 745.97,-124.11 735.87,-120.89 736.07,-127.89"/>
<text text-anchor="middle" x="5" y="-1057.79" font-family="Times,serif" font-size="14.00">3</text>
</g>
<!-- 5&#45;&gt;25 -->
<g id="edge149" class="edge">
<title>5&#45;&gt;25</title>
<path fill="none" stroke="black" d="M2463.39,-2011.61C2499.67,-2002.28 2562,-1979.36 2562,-1931.98 2562,-1931.98 2562,-1931.98 2562,-1147.49 2562,-1070.96 2554,-1052.02 2554,-975.49 2554,-975.49 2554,-975.49 2554,-712.49 2554,-515.55 2564.56,-432.15 2432,-286.5 2415.31,-268.15 2410.31,-261.96 2387,-253.5 2268.95,-210.64 2224.12,-275.27 2105,-235.5 2102.85,-234.78 2100.7,-233.88 2098.6,-232.86"/>
<polygon fill="black" stroke="black" points="2100.17,-229.73 2089.75,-227.8 2096.7,-235.8 2100.17,-229.73"/>
<text text-anchor="middle" x="2567" y="-1101.29" font-family="Times,serif" font-size="14.00">4</text>
</g>
<!-- 6 -->
<g id="node8" class="node">
<title>6</title>
<ellipse fill="none" stroke="black" cx="740" cy="-213.5" rx="18" ry="18"/>
<ellipse fill="none" stroke="black" cx="740" cy="-213.5" rx="22" ry="22"/>
<text text-anchor="middle" x="740" y="-209.8" font-family="Times,serif" font-size="14.00">6</text>
</g>
<!-- 6&#45;&gt;0 -->
<g id="edge126" class="edge">
<title>6&#45;&gt;0</title>
<path fill="none" stroke="black" d="M743.3,-235.3C745.87,-253.29 749,-280.05 749,-303.5 749,-436 749,-436 749,-436 749,-525.82 671.3,-520.25 633,-601.5 592.91,-686.55 566.54,-716.22 587,-807.99 596.05,-848.57 693.77,-1056.9 739,-1122.99 756.07,-1147.94 764.08,-1151.25 784,-1173.99 810.78,-1204.56 809.58,-1221.38 844,-1242.99 878.31,-1264.53 924.5,-1274.33 954.99,-1278.68"/>
<polygon fill="black" stroke="black" points="954.7,-1282.17 965.07,-1280 955.61,-1275.23 954.7,-1282.17"/>
<text text-anchor="middle" x="587" y="-753.29" font-family="Times,serif" font-size="14.00">0</text>
</g>
<!-- 6&#45;&gt;6 -->
<g id="edge10" class="edge">
<title>6&#45;&gt;6</title>
<path fill="none" stroke="black" d="M761.81,-217.74C771.56,-218.15 780,-216.73 780,-213.5 780,-211.47 776.7,-210.16 771.85,-209.56"/>
<polygon fill="black" stroke="black" points="771.91,-206.06 761.81,-209.25 771.69,-213.06 771.91,-206.06"/>
<text text-anchor="middle" x="785" y="-209.8" font-family="Times,serif" font-size="14.00">2</text>
</g>
<!-- 6&#45;&gt;6 -->
<g id="edge74" class="edge">
<title>6&#45;&gt;6</title>
<path fill="none" stroke="black" d="M760.81,-220.7C778.88,-223.98 798,-221.58 798,-213.5 798,-206.93 785.38,-204.11 770.96,-205.05"/>
<polygon fill="black" stroke="black" points="770.31,-201.6 760.81,-206.29 771.17,-208.55 770.31,-201.6"/>
<text text-anchor="middle" x="803" y="-209.8" font-family="Times,serif" font-size="14.00">4</text>
</g>
<!-- 6&#45;&gt;20 -->
<g id="edge115" class="edge">
<title>6&#45;&gt;20</title>
<path fill="none" stroke="black" d="M737,-191.56C736.36,-181.26 736.87,-168.86 741,-158.5 742.97,-153.56 745.98,-148.88 749.39,-144.65"/>
<polygon fill="black" stroke="black" points="752.11,-146.87 756.25,-137.11 746.93,-142.16 752.11,-146.87"/>
<text text-anchor="middle" x="746" y="-162.3" font-family="Times,serif" font-size="14.00">3</text>
</g>
<!-- 6&#45;&gt;24 -->
<g id="edge20" class="edge">
<title>6&#45;&gt;24</title>
<path fill="none" stroke="black" d="M731.59,-234.25C706.22,-293.84 630.46,-471.79 601.99,-538.69"/>
<polygon fill="black" stroke="black" points="598.68,-537.51 597.99,-548.08 605.12,-540.25 598.68,-537.51"/>
<text text-anchor="middle" x="678" y="-387.8" font-family="Times,serif" font-size="14.00">1</text>
</g>
<!-- 7 -->
<g id="node9" class="node">
<title>7</title>
<ellipse fill="none" stroke="black" cx="711" cy="-756.99" rx="27" ry="18"/>
<text text-anchor="middle" x="711" y="-753.29" font-family="Times,serif" font-size="14.00">7</text>
</g>
<!-- 7&#45;&gt;1 -->
<g id="edge54" class="edge">
<title>7&#45;&gt;1</title>
<path fill="none" stroke="black" d="M686.54,-765.07C671.41,-770.55 652.54,-779.51 640,-792.99 574.03,-863.93 502.48,-1113.7 513,-1209.99 533,-1393.17 544.5,-1474.38 693,-1583.49 735.86,-1614.98 795.17,-1633.95 832.56,-1643.57"/>
<polygon fill="black" stroke="black" points="831.94,-1647.02 842.49,-1646.04 833.63,-1640.23 831.94,-1647.02"/>
<text text-anchor="middle" x="518" y="-1188.29" font-family="Times,serif" font-size="14.00">4</text>
</g>
<!-- 7&#45;&gt;12 -->
<g id="edge57" class="edge">
<title>7&#45;&gt;12</title>
<path fill="none" stroke="black" d="M712.05,-775.09C717.3,-859.04 740.92,-1224.4 756,-1242.99 814.64,-1315.3 1107.59,-1362.28 1211.43,-1376.88"/>
<polygon fill="black" stroke="black" points="1211.06,-1380.36 1221.45,-1378.27 1212.02,-1373.43 1211.06,-1380.36"/>
<text text-anchor="middle" x="739" y="-1057.79" font-family="Times,serif" font-size="14.00">2</text>
</g>
<!-- 7&#45;&gt;14 -->
<g id="edge137" class="edge">
<title>7&#45;&gt;14</title>
<path fill="none" stroke="black" d="M694.81,-771.52C688.66,-777.5 682.14,-784.98 678,-792.99 674.43,-799.91 672.13,-807.98 670.65,-815.6"/>
<polygon fill="black" stroke="black" points="667.18,-815.12 669.1,-825.54 674.1,-816.2 667.18,-815.12"/>
<text text-anchor="middle" x="683" y="-796.79" font-family="Times,serif" font-size="14.00">1</text>
</g>
<!-- 7&#45;&gt;17 -->
<g id="edge76" class="edge">
<title>7&#45;&gt;17</title>
<path fill="none" stroke="black" d="M734.13,-766.72C747.33,-772.6 763.5,-781.39 775,-792.99 873.02,-891.82 811.62,-985.51 923,-1068.99 960.43,-1097.05 1015.31,-1103.76 1051.58,-1104.82"/>
<polygon fill="black" stroke="black" points="1051.69,-1108.32 1061.74,-1104.98 1051.8,-1101.32 1051.69,-1108.32"/>
<text text-anchor="middle" x="852" y="-927.29" font-family="Times,serif" font-size="14.00">0</text>
</g>
<!-- 7&#45;&gt;26 -->
<g id="edge9" class="edge">
<title>7&#45;&gt;26</title>
<path fill="none" stroke="black" d="M711,-738.8C711,-727.51 711,-712.32 711,-698.44"/>
<polygon fill="black" stroke="black" points="714.5,-698.18 711,-688.18 707.5,-698.18 714.5,-698.18"/>
<text text-anchor="middle" x="716" y="-709.79" font-family="Times,serif" font-size="14.00">3</text>
</g>
<!-- 8&#45;&gt;8 -->
<g id="edge102" class="edge">
<title>8&#45;&gt;8</title>
<path fill="none" stroke="black" d="M395.53,-1938.74C406.51,-1939.47 416,-1936.89 416,-1930.98 416,-1927.02 411.72,-1924.55 405.57,-1923.58"/>
<polygon fill="black" stroke="black" points="405.65,-1920.08 395.53,-1923.23 405.41,-1927.07 405.65,-1920.08"/>
<text text-anchor="middle" x="421" y="-1927.28" font-family="Times,serif" font-size="14.00">4</text>
</g>
<!-- 10 -->
<g id="node12" class="node">
<title>10</title>
<ellipse fill="none" stroke="black" cx="1605" cy="-1835.24" rx="22.96" ry="22.96"/>
<ellipse fill="none" stroke="black" cx="1605" cy="-1835.24" rx="27" ry="27"/>
<text text-anchor="middle" x="1605" y="-1831.54" font-family="Times,serif" font-size="14.00">10</text>
</g>
<!-- 8&#45;&gt;10 -->
<g id="edge71" class="edge">
<title>8&#45;&gt;10</title>
<path fill="none" stroke="black" d="M397.87,-1928.9C485.27,-1925.31 769.42,-1912.93 1004,-1894.98 1218.14,-1878.6 1474.41,-1850.82 1568.26,-1840.37"/>
<polygon fill="black" stroke="black" points="1568.83,-1843.83 1578.38,-1839.24 1568.05,-1836.87 1568.83,-1843.83"/>
<text text-anchor="middle" x="1175" y="-1883.78" font-family="Times,serif" font-size="14.00">0</text>
</g>
<!-- 8&#45;&gt;12 -->
<g id="edge3" class="edge">
<title>8&#45;&gt;12</title>
<path fill="none" stroke="black" d="M397.83,-1927.54C502.92,-1917.41 884.82,-1875.22 965,-1790.49 1021,-1731.31 997,-1691.46 997,-1609.99 997,-1609.99 997,-1609.99 997,-1477.49 997,-1432.25 1141.91,-1401.63 1211.52,-1389.54"/>
<polygon fill="black" stroke="black" points="1212.34,-1392.95 1221.61,-1387.82 1211.17,-1386.05 1212.34,-1392.95"/>
<text text-anchor="middle" x="1006" y="-1648.79" font-family="Times,serif" font-size="14.00">1</text>
</g>
<!-- 8&#45;&gt;17 -->
<g id="edge15" class="edge">
<title>8&#45;&gt;17</title>
<path fill="none" stroke="black" d="M376.76,-1913.26C389.31,-1875.3 418,-1779.52 418,-1696.99 418,-1696.99 418,-1696.99 418,-1520.99 418,-1329.6 509.79,-1273.95 673,-1173.99 736.57,-1135.06 962.4,-1115.03 1051.99,-1108.47"/>
<polygon fill="black" stroke="black" points="1052.5,-1111.94 1062.22,-1107.74 1051.99,-1104.96 1052.5,-1111.94"/>
<text text-anchor="middle" x="423" y="-1518.29" font-family="Times,serif" font-size="14.00">2</text>
</g>
<!-- 8&#45;&gt;24 -->
<g id="edge23" class="edge">
<title>8&#45;&gt;24</title>
<path fill="none" stroke="black" d="M366.82,-1913.13C342.77,-1813.69 225.9,-1293.93 303,-879.99 324.73,-763.33 330.63,-724.47 408,-634.5 445.08,-591.38 512.16,-575.57 553.99,-569.8"/>
<polygon fill="black" stroke="black" points="554.56,-573.25 564.05,-568.53 553.69,-566.31 554.56,-573.25"/>
<text text-anchor="middle" x="283" y="-1231.79" font-family="Times,serif" font-size="14.00">3</text>
</g>
<!-- 9&#45;&gt;13 -->
<g id="edge48" class="edge">
<title>9&#45;&gt;13</title>
<path fill="none" stroke="black" d="M1413.13,-286.57C1412.2,-276.53 1412.39,-263.8 1417,-253.5 1420.43,-245.83 1426.17,-238.99 1432.31,-233.25"/>
<polygon fill="black" stroke="black" points="1434.8,-235.73 1440.17,-226.6 1430.27,-230.38 1434.8,-235.73"/>
<text text-anchor="middle" x="1422" y="-257.3" font-family="Times,serif" font-size="14.00">4</text>
</g>
<!-- 9&#45;&gt;13 -->
<g id="edge145" class="edge">
<title>9&#45;&gt;13</title>
<path fill="none" stroke="black" d="M1423.89,-287.17C1430.21,-274.08 1439.21,-255.46 1446.51,-240.35"/>
<polygon fill="black" stroke="black" points="1449.82,-241.54 1451.02,-231.02 1443.52,-238.5 1449.82,-241.54"/>
<text text-anchor="middle" x="1446" y="-257.3" font-family="Times,serif" font-size="14.00">0</text>
</g>
<!-- 9&#45;&gt;16 -->
<g id="edge49" class="edge">
<title>9&#45;&gt;16</title>
<path fill="none" stroke="black" d="M1410.3,-322.21C1405.03,-339.19 1398,-366.36 1398,-390.5 1398,-523 1398,-523 1398,-523 1398,-607.94 1465.38,-812.58 1486,-894.99 1494.03,-927.1 1499.24,-934.4 1505,-966.99 1511.75,-1005.23 1511.22,-1015.2 1513,-1053.99 1516.18,-1123.25 1529.85,-1142.74 1513,-1209.99 1488.47,-1307.92 1420.48,-1409.2 1387.88,-1453.88"/>
<polygon fill="black" stroke="black" points="1384.98,-1451.92 1381.86,-1462.05 1390.61,-1456.08 1384.98,-1451.92"/>
<text text-anchor="middle" x="1491" y="-883.79" font-family="Times,serif" font-size="14.00">3</text>
</g>
<!-- 9&#45;&gt;17 -->
<g id="edge127" class="edge">
<title>9&#45;&gt;17</title>
<path fill="none" stroke="black" d="M1389.32,-307.44C1345.78,-311.15 1262.15,-320.7 1241,-340.5 1126.66,-447.48 1158.5,-882.41 1128,-1035.99 1125.04,-1050.9 1126.12,-1055.56 1119,-1068.99 1116.64,-1073.44 1113.63,-1077.82 1110.43,-1081.89"/>
<polygon fill="black" stroke="black" points="1107.56,-1079.86 1103.74,-1089.74 1112.89,-1084.4 1107.56,-1079.86"/>
<text text-anchor="middle" x="1156" y="-709.79" font-family="Times,serif" font-size="14.00">1</text>
</g>
<!-- 9&#45;&gt;25 -->
<g id="edge72" class="edge">
<title>9&#45;&gt;25</title>
<path fill="none" stroke="black" d="M1442.16,-299.95C1544.56,-286.08 1918.33,-235.45 2036.75,-219.41"/>
<polygon fill="black" stroke="black" points="2037.33,-222.86 2046.76,-218.05 2036.39,-215.92 2037.33,-222.86"/>
<text text-anchor="middle" x="1789" y="-257.3" font-family="Times,serif" font-size="14.00">2</text>
</g>
<!-- 10&#45;&gt;3 -->
<g id="edge93" class="edge">
<title>10&#45;&gt;3</title>
<path fill="none" stroke="black" d="M1630.53,-1827.11C1690.25,-1810.45 1839.12,-1768.91 1906.68,-1750.06"/>
<polygon fill="black" stroke="black" points="1907.73,-1753.4 1916.42,-1747.35 1905.85,-1746.66 1907.73,-1753.4"/>
<text text-anchor="middle" x="1818" y="-1779.29" font-family="Times,serif" font-size="14.00">3</text>
</g>
<!-- 10&#45;&gt;6 -->
<g id="edge138" class="edge">
<title>10&#45;&gt;6</title>
<path fill="none" stroke="black" d="M1578.42,-1832.24C1503.24,-1826.53 1282.74,-1809.32 1100,-1790.49 768.06,-1756.27 498.27,-1847.13 396,-1529.49 377.77,-1472.87 306.86,-512.35 336,-460.5 418.58,-313.53 628.5,-244.08 708.44,-222.33"/>
<polygon fill="black" stroke="black" points="709.63,-225.64 718.39,-219.69 707.83,-218.87 709.63,-225.64"/>
<text text-anchor="middle" x="356" y="-1014.29" font-family="Times,serif" font-size="14.00">4</text>
</g>
<!-- 10&#45;&gt;17 -->
<g id="edge91" class="edge">
<title>10&#45;&gt;17</title>
<path fill="none" stroke="black" d="M1578.05,-1832.09C1430.78,-1819.83 724.17,-1754.48 564,-1616.49 527.69,-1585.21 518.47,-1561.24 529,-1514.49 536.74,-1480.11 638.46,-1251.18 665,-1227.99 688.98,-1207.05 907.3,-1149.43 938,-1140.99 977.28,-1130.2 1022.91,-1119.93 1053.64,-1113.34"/>
<polygon fill="black" stroke="black" points="1054.41,-1116.76 1063.46,-1111.25 1052.95,-1109.91 1054.41,-1116.76"/>
<text text-anchor="middle" x="554" y="-1474.79" font-family="Times,serif" font-size="14.00">2</text>
</g>
<!-- 10&#45;&gt;21 -->
<g id="edge12" class="edge">
<title>10&#45;&gt;21</title>
<path fill="none" stroke="black" d="M1631.9,-1832.91C1748.46,-1826.81 2204,-1799.24 2204,-1740.49 2204,-1740.49 2204,-1740.49 2204,-1147.49 2204,-1094.77 2178.98,-1075.84 2131,-1053.99 1983.2,-986.68 1790.91,-950.39 1712.09,-937.49"/>
<polygon fill="black" stroke="black" points="1712.6,-934.03 1702.18,-935.9 1711.49,-940.94 1712.6,-934.03"/>
<text text-anchor="middle" x="2209" y="-1379.04" font-family="Times,serif" font-size="14.00">0</text>
</g>
<!-- 10&#45;&gt;23 -->
<g id="edge135" class="edge">
<title>10&#45;&gt;23</title>
<path fill="none" stroke="black" d="M1577.83,-1834.5C1430.81,-1835.62 729.6,-1836.66 531,-1757.49 467.45,-1732.15 448.6,-1722.38 404,-1670.49 369.24,-1630.04 199,-1289.82 199,-1236.49 199,-1236.49 199,-1236.49 199,-973.49 199,-773.23 190,-723.26 190,-523 190,-523 190,-523 190,-121.5 190,-65.97 607.58,-37.28 735.93,-29.78"/>
<polygon fill="black" stroke="black" points="736.27,-33.26 746.05,-29.19 735.87,-26.27 736.27,-33.26"/>
<text text-anchor="middle" x="204" y="-927.29" font-family="Times,serif" font-size="14.00">1</text>
</g>
<!-- 11 -->
<g id="node13" class="node">
<title>11</title>
<ellipse fill="none" stroke="black" cx="1720" cy="-26.75" rx="22.96" ry="22.96"/>
<ellipse fill="none" stroke="black" cx="1720" cy="-26.75" rx="27" ry="27"/>
<text text-anchor="middle" x="1720" y="-23.05" font-family="Times,serif" font-size="14.00">11</text>
</g>
<!-- 11&#45;&gt;0 -->
<g id="edge40" class="edge">
<title>11&#45;&gt;0</title>
<path fill="none" stroke="black" d="M1702.83,-47.45C1691.02,-62.15 1676.06,-83.28 1668,-104.5 1621.94,-225.74 1610,-260.8 1610,-390.5 1610,-523 1610,-523 1610,-523 1610,-679.11 1570.49,-714.97 1518,-861.99 1500.81,-910.14 1486.08,-918.14 1471,-966.99 1445.82,-1048.54 1474.95,-1079.54 1437,-1155.99 1413.64,-1203.04 1403.92,-1219.38 1357,-1242.99 1341.98,-1250.55 1106.41,-1271.63 1019.17,-1279.22"/>
<polygon fill="black" stroke="black" points="1018.72,-1275.75 1009.06,-1280.1 1019.32,-1282.72 1018.72,-1275.75"/>
<text text-anchor="middle" x="1606" y="-657.54" font-family="Times,serif" font-size="14.00">1</text>
</g>
<!-- 11&#45;&gt;3 -->
<g id="edge98" class="edge">
<title>11&#45;&gt;3</title>
<path fill="none" stroke="black" d="M1746.84,-27.51C1901.12,-26.51 2668,-26.3 2668,-121.5 2668,-262 2668,-262 2668,-262 2668,-446.16 2440,-423.83 2440,-608 2440,-1653.49 2440,-1653.49 2440,-1653.49 2440,-1700.36 2093.45,-1728.14 1977.95,-1736.1"/>
<polygon fill="black" stroke="black" points="1977.57,-1732.62 1967.83,-1736.79 1978.04,-1739.6 1977.57,-1732.62"/>
<text text-anchor="middle" x="2445" y="-883.79" font-family="Times,serif" font-size="14.00">3</text>
</g>
<!-- 11&#45;&gt;5 -->
<g id="edge90" class="edge">
<title>11&#45;&gt;5</title>
<path fill="none" stroke="black" d="M1746.92,-28.17C1877.23,-30.35 2443.4,-41.43 2617,-71.5 2692.5,-84.57 2782,-44.87 2782,-121.5 2782,-349 2782,-349 2782,-349 2782,-456.44 2684.87,-448.12 2644,-547.5 2600.76,-652.64 2600,-685.8 2600,-799.49 2600,-1931.98 2600,-1931.98 2600,-1931.98 2600,-1988.21 2522.55,-2007.32 2474.75,-2013.76"/>
<polygon fill="black" stroke="black" points="2474.25,-2010.29 2464.75,-2014.98 2475.1,-2017.24 2474.25,-2010.29"/>
<text text-anchor="middle" x="2605" y="-1014.29" font-family="Times,serif" font-size="14.00">2</text>
</g>
<!-- 11&#45;&gt;17 -->
<g id="edge100" class="edge">
<title>11&#45;&gt;17</title>
<path fill="none" stroke="black" d="M1693.07,-28.02C1637.23,-30.16 1514,-43.7 1514,-121.5 1514,-392.5 1514,-392.5 1514,-392.5 1514,-487.22 1558.4,-749.56 1483,-894.99 1426.26,-1004.43 1384.81,-1032.71 1267,-1068.99 1223.84,-1082.28 1211.29,-1078.18 1167,-1086.99 1152.92,-1089.79 1137.46,-1093.11 1124.05,-1096.07"/>
<polygon fill="black" stroke="black" points="1123.25,-1092.66 1114.24,-1098.25 1124.76,-1099.49 1123.25,-1092.66"/>
<text text-anchor="middle" x="1531" y="-561.8" font-family="Times,serif" font-size="14.00">0</text>
</g>
<!-- 11&#45;&gt;21 -->
<g id="edge130" class="edge">
<title>11&#45;&gt;21</title>
<path fill="none" stroke="black" d="M1720,-53.61C1720,-72.44 1720,-98.55 1720,-121.5 1720,-349 1720,-349 1720,-349 1720,-470.55 1709.05,-775.46 1687,-894.99 1686.5,-897.72 1685.85,-900.53 1685.12,-903.31"/>
<polygon fill="black" stroke="black" points="1681.7,-902.53 1682.22,-913.11 1688.41,-904.51 1681.7,-902.53"/>
<text text-anchor="middle" x="1724" y="-474.8" font-family="Times,serif" font-size="14.00">4</text>
</g>
<!-- 12&#45;&gt;0 -->
<g id="edge88" class="edge">
<title>12&#45;&gt;0</title>
<path fill="none" stroke="black" d="M1222.97,-1372.37C1174.77,-1354.31 1069.21,-1314.78 1017.2,-1295.3"/>
<polygon fill="black" stroke="black" points="1018.13,-1291.91 1007.54,-1291.68 1015.68,-1298.47 1018.13,-1291.91"/>
<text text-anchor="middle" x="1131" y="-1326.79" font-family="Times,serif" font-size="14.00">4</text>
</g>
<!-- 12&#45;&gt;3 -->
<g id="edge101" class="edge">
<title>12&#45;&gt;3</title>
<path fill="none" stroke="black" d="M1259.91,-1407.18C1274.14,-1432.84 1300.29,-1473.39 1334,-1496.49 1472.19,-1591.18 1565.27,-1496.74 1696,-1601.49 1736.36,-1633.83 1710.09,-1673.19 1752,-1703.49 1775.81,-1720.7 1856.28,-1730.79 1904.2,-1735.42"/>
<polygon fill="black" stroke="black" points="1903.91,-1738.9 1914.19,-1736.35 1904.56,-1731.93 1903.91,-1738.9"/>
<text text-anchor="middle" x="1674" y="-1561.79" font-family="Times,serif" font-size="14.00">2</text>
</g>
<!-- 12&#45;&gt;4 -->
<g id="edge33" class="edge">
<title>12&#45;&gt;4</title>
<path fill="none" stroke="black" d="M1252.01,-1356.23C1262.4,-1290.1 1290.14,-1113.58 1300.77,-1045.91"/>
<polygon fill="black" stroke="black" points="1304.23,-1046.44 1302.32,-1036.02 1297.31,-1045.35 1304.23,-1046.44"/>
<text text-anchor="middle" x="1286" y="-1188.29" font-family="Times,serif" font-size="14.00">3</text>
</g>
<!-- 12&#45;&gt;12 -->
<g id="edge150" class="edge">
<title>12&#45;&gt;12</title>
<path fill="none" stroke="black" d="M1273.3,-1392.4C1283.83,-1393.07 1292.75,-1389.85 1292.75,-1382.74 1292.75,-1378.07 1288.91,-1375.08 1283.29,-1373.77"/>
<polygon fill="black" stroke="black" points="1283.52,-1370.27 1273.3,-1373.08 1283.04,-1377.26 1283.52,-1370.27"/>
<text text-anchor="middle" x="1297.75" y="-1379.04" font-family="Times,serif" font-size="14.00">0</text>
</g>
<!-- 12&#45;&gt;21 -->
<g id="edge79" class="edge">
<title>12&#45;&gt;21</title>
<path fill="none" stroke="black" d="M1274.34,-1377.06C1332.43,-1365.35 1472.27,-1329.3 1547,-1242.99 1575.4,-1210.2 1575,-1192.87 1575,-1149.49 1575,-1149.49 1575,-1149.49 1575,-1016.99 1575,-980.86 1613.32,-956.99 1642.75,-943.98"/>
<polygon fill="black" stroke="black" points="1644.44,-947.07 1652.32,-939.99 1641.74,-940.61 1644.44,-947.07"/>
<text text-anchor="middle" x="1581" y="-1144.79" font-family="Times,serif" font-size="14.00">1</text>
</g>
<!-- 13&#45;&gt;5 -->
<g id="edge46" class="edge">
<title>13&#45;&gt;5</title>
<path fill="none" stroke="black" d="M1485.51,-217.35C1564.1,-225.83 1790.78,-250.47 1798,-253.5 1911.72,-301.08 1921.23,-346.32 2014,-427.5 2165.3,-559.89 2252.41,-559.02 2342,-738.99 2354.35,-763.79 2398,-1206.79 2398,-1234.49 2398,-1931.98 2398,-1931.98 2398,-1931.98 2398,-1954.28 2409.4,-1977 2420.03,-1993.33"/>
<polygon fill="black" stroke="black" points="2417.24,-1995.44 2425.78,-2001.71 2423.01,-1991.48 2417.24,-1995.44"/>
<text text-anchor="middle" x="2394" y="-1101.29" font-family="Times,serif" font-size="14.00">4</text>
</g>
<!-- 13&#45;&gt;23 -->
<g id="edge142" class="edge">
<title>13&#45;&gt;23</title>
<path fill="none" stroke="black" d="M1438.64,-201.29C1388.21,-174.08 1252.77,-104.39 1131,-71.5 1016.76,-40.64 876.1,-31.5 810.27,-28.83"/>
<polygon fill="black" stroke="black" points="810.12,-25.32 799.99,-28.44 809.86,-32.32 810.12,-25.32"/>
<text text-anchor="middle" x="1318" y="-118.8" font-family="Times,serif" font-size="14.00">2</text>
</g>
<!-- 13&#45;&gt;24 -->
<g id="edge114" class="edge">
<title>13&#45;&gt;24</title>
<path fill="none" stroke="black" d="M1435.78,-223.13C1381.88,-243.24 1244.18,-294.92 1130,-340.5 936.24,-417.84 705.52,-515.66 622.61,-550.99"/>
<polygon fill="black" stroke="black" points="621.07,-547.85 613.24,-554.99 623.81,-554.29 621.07,-547.85"/>
<text text-anchor="middle" x="1053" y="-387.8" font-family="Times,serif" font-size="14.00">3</text>
</g>
<!-- 13&#45;&gt;29 -->
<g id="edge80" class="edge">
<title>13&#45;&gt;29</title>
<path fill="none" stroke="black" d="M1485.29,-217.79C1523.64,-222.47 1597.18,-230.98 1660,-235.5 2028.62,-262.02 2163.35,-182.94 2480,-373.5 2571.05,-428.29 2607.82,-447.57 2644,-547.5 2682.14,-652.83 2638,-687.46 2638,-799.49 2638,-2018.98 2638,-2018.98 2638,-2018.98 2638,-2041.35 2628.42,-2064.58 2618.76,-2082.31"/>
<polygon fill="black" stroke="black" points="2615.68,-2080.64 2613.74,-2091.06 2621.75,-2084.12 2615.68,-2080.64"/>
<text text-anchor="middle" x="2643" y="-1144.79" font-family="Times,serif" font-size="14.00">0</text>
</g>
<!-- 13&#45;&gt;29 -->
<g id="edge148" class="edge">
<title>13&#45;&gt;29</title>
<path fill="none" stroke="black" d="M1485.29,-217.86C1523.63,-222.62 1597.17,-231.23 1660,-235.5 1912.43,-252.65 1978.4,-218.62 2229,-253.5 2288.89,-261.83 2304.6,-264.69 2361,-286.5 2492.07,-337.17 2541.24,-347.66 2625,-460.5 2738.66,-613.61 2676,-695.81 2676,-886.49 2676,-2018.98 2676,-2018.98 2676,-2018.98 2676,-2049.8 2650.85,-2076.01 2629.3,-2092.82"/>
<polygon fill="black" stroke="black" points="2627.21,-2090.01 2621.27,-2098.79 2631.38,-2095.63 2627.21,-2090.01"/>
<text text-anchor="middle" x="2681" y="-1144.79" font-family="Times,serif" font-size="14.00">1</text>
</g>
<!-- 14&#45;&gt;2 -->
<g id="edge128" class="edge">
<title>14&#45;&gt;2</title>
<path fill="none" stroke="black" d="M665.35,-862.15C659.09,-906.09 645.33,-1026.02 665,-1122.99 704,-1315.25 732.37,-1363.55 837,-1529.49 839.8,-1533.92 843.16,-1538.35 846.61,-1542.49"/>
<polygon fill="black" stroke="black" points="844.03,-1544.84 853.27,-1550.02 849.27,-1540.21 844.03,-1544.84"/>
<text text-anchor="middle" x="690" y="-1188.29" font-family="Times,serif" font-size="14.00">0</text>
</g>
<!-- 14&#45;&gt;7 -->
<g id="edge4" class="edge">
<title>14&#45;&gt;7</title>
<path fill="none" stroke="black" d="M654.01,-828.08C646.21,-817.88 639.29,-804.23 646,-792.99 652.85,-781.53 664.88,-773.6 676.75,-768.23"/>
<polygon fill="black" stroke="black" points="678.16,-771.43 686.13,-764.45 675.55,-764.94 678.16,-771.43"/>
<text text-anchor="middle" x="651" y="-796.79" font-family="Times,serif" font-size="14.00">4</text>
</g>
<!-- 14&#45;&gt;7 -->
<g id="edge31" class="edge">
<title>14&#45;&gt;7</title>
<path fill="none" stroke="black" d="M678.05,-827.2C681.67,-821.27 685.68,-814.41 689,-807.99 692.98,-800.29 696.93,-791.72 700.35,-783.87"/>
<polygon fill="black" stroke="black" points="703.67,-785.02 704.38,-774.45 697.23,-782.27 703.67,-785.02"/>
<text text-anchor="middle" x="702" y="-796.79" font-family="Times,serif" font-size="14.00">1</text>
</g>
<!-- 14&#45;&gt;25 -->
<g id="edge44" class="edge">
<title>14&#45;&gt;25</title>
<path fill="none" stroke="black" d="M694.86,-841.63C755.04,-838.59 905.24,-831.15 1031,-825.99 1258.51,-816.67 1317.01,-835.79 1543,-807.99 1648.98,-794.96 1778,-864.77 1778,-757.99 1778,-757.99 1778,-757.99 1778,-608 1778,-511.13 1833.16,-499.88 1868,-409.5 1894.19,-341.56 1864.9,-303.31 1918,-253.5 1949.73,-223.73 2000.73,-215.79 2035.5,-214.12"/>
<polygon fill="black" stroke="black" points="2035.85,-217.61 2045.73,-213.78 2035.62,-210.61 2035.85,-217.61"/>
<text text-anchor="middle" x="1810" y="-518.3" font-family="Times,serif" font-size="14.00">3</text>
</g>
<!-- 14&#45;&gt;28 -->
<g id="edge30" class="edge">
<title>14&#45;&gt;28</title>
<path fill="none" stroke="black" d="M669.21,-862.11C672.68,-901.55 685.44,-1000.68 729,-1068.99 764.56,-1124.75 835.74,-1161.18 877.46,-1178.73"/>
<polygon fill="black" stroke="black" points="876.31,-1182.04 886.9,-1182.58 878.96,-1175.56 876.31,-1182.04"/>
<text text-anchor="middle" x="716" y="-1014.29" font-family="Times,serif" font-size="14.00">2</text>
</g>
<!-- 15 -->
<g id="node17" class="node">
<title>15</title>
<ellipse fill="none" stroke="black" cx="2073" cy="-122.5" rx="27" ry="18"/>
<text text-anchor="middle" x="2073" y="-118.8" font-family="Times,serif" font-size="14.00">15</text>
</g>
<!-- 15&#45;&gt;0 -->
<g id="edge24" class="edge">
<title>15&#45;&gt;0</title>
<path fill="none" stroke="black" d="M2045.93,-125.12C1992.3,-128.72 1874.74,-138.69 1840,-158.5 1813.1,-173.83 1796,-181.54 1796,-212.5 1796,-349 1796,-349 1796,-349 1796,-464.45 1816,-492.54 1816,-608 1816,-1192.99 1816,-1192.99 1816,-1192.99 1816,-1257.88 1300.69,-1255.98 1236,-1260.99 1157.99,-1267.03 1066.31,-1274.99 1018.94,-1279.16"/>
<polygon fill="black" stroke="black" points="1018.63,-1275.67 1008.98,-1280.04 1019.24,-1282.64 1018.63,-1275.67"/>
<text text-anchor="middle" x="1821" y="-709.79" font-family="Times,serif" font-size="14.00">1</text>
</g>
<!-- 15&#45;&gt;11 -->
<g id="edge108" class="edge">
<title>15&#45;&gt;11</title>
<path fill="none" stroke="black" d="M2048.46,-114.98C1987.21,-98.71 1827.41,-56.27 1755.72,-37.23"/>
<polygon fill="black" stroke="black" points="1756.36,-33.78 1745.8,-34.6 1754.57,-40.55 1756.36,-33.78"/>
<text text-anchor="middle" x="1944" y="-75.3" font-family="Times,serif" font-size="14.00">0</text>
</g>
<!-- 15&#45;&gt;17 -->
<g id="edge64" class="edge">
<title>15&#45;&gt;17</title>
<path fill="none" stroke="black" d="M2045.61,-123.43C1981.4,-123.8 1823.44,-127.89 1782,-158.5 1760.87,-174.1 1758,-186.23 1758,-212.5 1758,-392.5 1758,-392.5 1758,-392.5 1758,-485.4 1754.89,-508.59 1754,-601.5 1752.79,-728.44 1773,-759.55 1773,-886.49 1773,-1018.99 1773,-1018.99 1773,-1018.99 1773,-1086.75 1234.09,-1077.53 1167,-1086.99 1152.67,-1089.01 1137.06,-1092.21 1123.59,-1095.29"/>
<polygon fill="black" stroke="black" points="1122.7,-1091.91 1113.77,-1097.6 1124.31,-1098.72 1122.7,-1091.91"/>
<text text-anchor="middle" x="1759" y="-605.3" font-family="Times,serif" font-size="14.00">3</text>
</g>
<!-- 15&#45;&gt;18 -->
<g id="edge62" class="edge">
<title>15&#45;&gt;18</title>
<path fill="none" stroke="black" d="M2083.6,-139.22C2092.01,-152.53 2103.26,-172.44 2109,-191.5 2117.46,-219.6 2119.78,-253.28 2120.25,-276.32"/>
<polygon fill="black" stroke="black" points="2116.75,-276.44 2120.35,-286.4 2123.75,-276.37 2116.75,-276.44"/>
<text text-anchor="middle" x="2123" y="-209.8" font-family="Times,serif" font-size="14.00">2</text>
</g>
<!-- 15&#45;&gt;29 -->
<g id="edge26" class="edge">
<title>15&#45;&gt;29</title>
<path fill="none" stroke="black" d="M2098.93,-128.03C2178.32,-142.62 2423.72,-192.91 2606,-286.5 2789.47,-380.69 2790,-506.25 2790,-712.49 2790,-888.49 2790,-888.49 2790,-888.49 2790,-1003.66 2798,-1032.33 2798,-1147.49 2798,-2018.98 2798,-2018.98 2798,-2018.98 2798,-2089.81 2693.56,-2107.22 2636,-2111.43"/>
<polygon fill="black" stroke="black" points="2635.6,-2107.95 2625.84,-2112.08 2636.04,-2114.94 2635.6,-2107.95"/>
<text text-anchor="middle" x="2802" y="-1101.29" font-family="Times,serif" font-size="14.00">4</text>
</g>
<!-- 16&#45;&gt;12 -->
<g id="edge132" class="edge">
<title>16&#45;&gt;12</title>
<path fill="none" stroke="black" d="M1353.04,-1464.45C1333.36,-1449.33 1300.59,-1424.15 1276.88,-1405.93"/>
<polygon fill="black" stroke="black" points="1278.97,-1403.12 1268.9,-1399.8 1274.7,-1408.67 1278.97,-1403.12"/>
<text text-anchor="middle" x="1329" y="-1431.29" font-family="Times,serif" font-size="14.00">2</text>
</g>
<!-- 16&#45;&gt;15 -->
<g id="edge41" class="edge">
<title>16&#45;&gt;15</title>
<path fill="none" stroke="black" d="M1397.06,-1478.05C1498.99,-1479.44 1854,-1477.57 1854,-1383.74 1854,-1383.74 1854,-1383.74 1854,-212.5 1854,-135.1 1972.85,-123.43 2035.44,-122.66"/>
<polygon fill="black" stroke="black" points="2035.72,-126.16 2045.71,-122.62 2035.69,-119.16 2035.72,-126.16"/>
<text text-anchor="middle" x="1859" y="-796.79" font-family="Times,serif" font-size="14.00">4</text>
</g>
<!-- 16&#45;&gt;17 -->
<g id="edge84" class="edge">
<title>16&#45;&gt;17</title>
<path fill="none" stroke="black" d="M1363.7,-1460.58C1354.29,-1436.35 1335.17,-1390.83 1312,-1355.99 1249.84,-1262.53 1154.67,-1167.91 1111.58,-1126.99"/>
<polygon fill="black" stroke="black" points="1113.84,-1124.3 1104.16,-1119.98 1109.03,-1129.39 1113.84,-1124.3"/>
<text text-anchor="middle" x="1280" y="-1279.29" font-family="Times,serif" font-size="14.00">1</text>
</g>
<!-- 16&#45;&gt;18 -->
<g id="edge42" class="edge">
<title>16&#45;&gt;18</title>
<path fill="none" stroke="black" d="M1397.07,-1477.21C1487.56,-1476.03 1778.9,-1470.11 1868,-1442.49 1917.23,-1427.22 1968,-1435.29 1968,-1383.74 1968,-1383.74 1968,-1383.74 1968,-1147.49 1968,-994.21 1983.53,-606.57 2030,-460.5 2046.07,-409.98 2080.62,-358.05 2101.92,-328.96"/>
<polygon fill="black" stroke="black" points="2104.91,-330.81 2108.08,-320.7 2099.3,-326.63 2104.91,-330.81"/>
<text text-anchor="middle" x="1982" y="-883.79" font-family="Times,serif" font-size="14.00">3</text>
</g>
<!-- 16&#45;&gt;28 -->
<g id="edge60" class="edge">
<title>16&#45;&gt;28</title>
<path fill="none" stroke="black" d="M1344.05,-1473.47C1272.88,-1461.18 1072.19,-1417.82 956,-1304.99 932.38,-1282.06 920.44,-1245.26 914.74,-1220.15"/>
<polygon fill="black" stroke="black" points="918.12,-1219.25 912.65,-1210.18 911.27,-1220.68 918.12,-1219.25"/>
<text text-anchor="middle" x="997" y="-1326.79" font-family="Times,serif" font-size="14.00">0</text>
</g>
<!-- 17&#45;&gt;4 -->
<g id="edge34" class="edge">
<title>17&#45;&gt;4</title>
<path fill="none" stroke="black" d="M1115.29,-1100.36C1144.5,-1095.68 1192.6,-1086.05 1231,-1068.99 1233.65,-1067.81 1258.48,-1050.93 1278.66,-1037.11"/>
<polygon fill="black" stroke="black" points="1280.68,-1039.97 1286.94,-1031.42 1276.72,-1034.19 1280.68,-1039.97"/>
<text text-anchor="middle" x="1258" y="-1057.79" font-family="Times,serif" font-size="14.00">1</text>
</g>
<!-- 17&#45;&gt;6 -->
<g id="edge124" class="edge">
<title>17&#45;&gt;6</title>
<path fill="none" stroke="black" d="M1067.98,-1093.43C1057.6,-1087.4 1045.52,-1079.03 1037,-1068.99 1008.98,-1035.97 875,-757.8 875,-714.49 875,-714.49 875,-714.49 875,-434 875,-350.25 802.82,-271.62 764.02,-235.4"/>
<polygon fill="black" stroke="black" points="766.03,-232.49 756.28,-228.32 761.3,-237.66 766.03,-232.49"/>
<text text-anchor="middle" x="880" y="-657.54" font-family="Times,serif" font-size="14.00">0</text>
</g>
<!-- 17&#45;&gt;9 -->
<g id="edge104" class="edge">
<title>17&#45;&gt;9</title>
<path fill="none" stroke="black" d="M1096.68,-1087.57C1099.07,-1081.81 1101.48,-1075.22 1103,-1068.99 1128.74,-963.56 1114.92,-933.84 1127,-825.99 1151.3,-608.94 1045,-491.29 1203,-340.5 1227.59,-317.03 1324.29,-309.24 1378.55,-306.7"/>
<polygon fill="black" stroke="black" points="1378.96,-310.19 1388.8,-306.26 1378.66,-303.19 1378.96,-310.19"/>
<text text-anchor="middle" x="1135" y="-709.79" font-family="Times,serif" font-size="14.00">3</text>
</g>
<!-- 17&#45;&gt;9 -->
<g id="edge136" class="edge">
<title>17&#45;&gt;9</title>
<path fill="none" stroke="black" d="M1109.35,-1093.09C1118.72,-1087.12 1129.24,-1078.91 1136,-1068.99 1144.56,-1056.43 1141.1,-1050.69 1145,-1035.99 1195.17,-847 1255,-805.54 1255,-610 1255,-610 1255,-610 1255,-390.5 1255,-334.69 1331.57,-315.43 1379.1,-308.85"/>
<polygon fill="black" stroke="black" points="1379.57,-312.32 1389.05,-307.6 1378.69,-305.37 1379.57,-312.32"/>
<text text-anchor="middle" x="1254" y="-709.79" font-family="Times,serif" font-size="14.00">4</text>
</g>
<!-- 17&#45;&gt;20 -->
<g id="edge65" class="edge">
<title>17&#45;&gt;20</title>
<path fill="none" stroke="black" d="M1081.62,-1087.49C1079.25,-1081.73 1076.78,-1075.15 1075,-1068.99 1027.24,-903.58 1034.75,-857.57 1005,-687.99 991.49,-610.99 994.61,-590.43 976,-514.5 966.1,-474.09 888.41,-188.89 860,-158.5 846.62,-144.18 826.58,-135.59 809.11,-130.5"/>
<polygon fill="black" stroke="black" points="809.75,-127.05 799.19,-127.9 807.98,-133.82 809.75,-127.05"/>
<text text-anchor="middle" x="1000" y="-605.3" font-family="Times,serif" font-size="14.00">2</text>
</g>
<!-- 18&#45;&gt;2 -->
<g id="edge119" class="edge">
<title>18&#45;&gt;2</title>
<path fill="none" stroke="black" d="M2115.94,-322.57C2095.63,-409.59 2006,-812.64 2006,-1147.49 2006,-1479.49 2006,-1479.49 2006,-1479.49 2006,-1507.76 1100.95,-1553.21 905.09,-1562.71"/>
<polygon fill="black" stroke="black" points="904.83,-1559.22 895.01,-1563.2 905.17,-1566.21 904.83,-1559.22"/>
<text text-anchor="middle" x="2023" y="-927.29" font-family="Times,serif" font-size="14.00">1</text>
</g>
<!-- 18&#45;&gt;5 -->
<g id="edge58" class="edge">
<title>18&#45;&gt;5</title>
<path fill="none" stroke="black" d="M2146.99,-305.88C2192.62,-307.3 2287.32,-313.57 2362,-340.5 2429.15,-364.71 2459.59,-366.71 2497,-427.5 2563.54,-535.61 2516,-585.55 2516,-712.49 2516,-1931.98 2516,-1931.98 2516,-1931.98 2516,-1956.63 2508.28,-1963.48 2492,-1981.98 2485.26,-1989.64 2476.46,-1996.29 2467.93,-2001.67"/>
<polygon fill="black" stroke="black" points="2466.06,-1998.71 2459.23,-2006.81 2469.62,-2004.74 2466.06,-1998.71"/>
<text text-anchor="middle" x="2521" y="-1144.79" font-family="Times,serif" font-size="14.00">3</text>
</g>
<!-- 18&#45;&gt;6 -->
<g id="edge75" class="edge">
<title>18&#45;&gt;6</title>
<path fill="none" stroke="black" d="M2092.85,-302.5C1997.63,-298.94 1670.06,-286.1 1400,-268.5 1158.36,-252.74 867.55,-226.36 772.07,-217.5"/>
<polygon fill="black" stroke="black" points="772.2,-213.99 761.91,-216.55 771.55,-220.96 772.2,-213.99"/>
<text text-anchor="middle" x="1405" y="-257.3" font-family="Times,serif" font-size="14.00">0</text>
</g>
<!-- 18&#45;&gt;13 -->
<g id="edge18" class="edge">
<title>18&#45;&gt;13</title>
<path fill="none" stroke="black" d="M2095.35,-296.88C2053.9,-286.02 1967.45,-264.52 1893,-253.5 1790.26,-238.29 1763.44,-244.89 1660,-235.5 1602.58,-230.28 1536.07,-223.11 1495.78,-218.64"/>
<polygon fill="black" stroke="black" points="1495.96,-215.14 1485.64,-217.51 1495.19,-222.1 1495.96,-215.14"/>
<text text-anchor="middle" x="1980" y="-257.3" font-family="Times,serif" font-size="14.00">2</text>
</g>
<!-- 18&#45;&gt;25 -->
<g id="edge82" class="edge">
<title>18&#45;&gt;25</title>
<path fill="none" stroke="black" d="M2111.38,-287.17C2104.36,-273.87 2094.32,-254.87 2086.27,-239.63"/>
<polygon fill="black" stroke="black" points="2089.33,-237.92 2081.57,-230.72 2083.14,-241.19 2089.33,-237.92"/>
<text text-anchor="middle" x="2106" y="-257.3" font-family="Times,serif" font-size="14.00">4</text>
</g>
<!-- 19&#45;&gt;6 -->
<g id="edge14" class="edge">
<title>19&#45;&gt;6</title>
<path fill="none" stroke="black" d="M2186,-476.08C2057.54,-468.87 1496.1,-432.28 1051,-322.5 944.95,-296.34 823.92,-249.05 769.38,-226.76"/>
<polygon fill="black" stroke="black" points="770.57,-223.46 759.99,-222.89 767.9,-229.93 770.57,-223.46"/>
<text text-anchor="middle" x="1200" y="-344.3" font-family="Times,serif" font-size="14.00">2</text>
</g>
<!-- 19&#45;&gt;10 -->
<g id="edge45" class="edge">
<title>19&#45;&gt;10</title>
<path fill="none" stroke="black" d="M2229.91,-492.78C2244.19,-505.18 2263.64,-525.09 2272,-547.5 2277.6,-562.49 2272.31,-567.5 2272,-583.5 2271.56,-606.18 2270.86,-611.83 2270,-634.5 2265.61,-750.26 2257.01,-779.22 2261,-894.99 2262.33,-933.73 2259.91,-943.89 2267,-981.99 2281.07,-1057.66 2318,-1070.52 2318,-1147.49 2318,-1740.49 2318,-1740.49 2318,-1740.49 2318,-1809.31 1789.12,-1829.12 1642.37,-1833.3"/>
<polygon fill="black" stroke="black" points="1641.98,-1829.81 1632.08,-1833.58 1642.17,-1836.8 1641.98,-1829.81"/>
<text text-anchor="middle" x="2323" y="-1144.79" font-family="Times,serif" font-size="14.00">1</text>
</g>
<!-- 19&#45;&gt;18 -->
<g id="edge22" class="edge">
<title>19&#45;&gt;18</title>
<path fill="none" stroke="black" d="M2213.03,-460.11C2212.22,-432.19 2207.01,-376.81 2180,-340.5 2173,-331.09 2162.66,-323.78 2152.53,-318.33"/>
<polygon fill="black" stroke="black" points="2153.91,-315.1 2143.39,-313.84 2150.82,-321.39 2153.91,-315.1"/>
<text text-anchor="middle" x="2213" y="-387.8" font-family="Times,serif" font-size="14.00">0</text>
</g>
<!-- 19&#45;&gt;18 -->
<g id="edge105" class="edge">
<title>19&#45;&gt;18</title>
<path fill="none" stroke="black" d="M2204.25,-461.31C2187.98,-431.22 2152.96,-366.46 2133.59,-330.63"/>
<polygon fill="black" stroke="black" points="2136.63,-328.89 2128.79,-321.76 2130.47,-332.22 2136.63,-328.89"/>
<text text-anchor="middle" x="2181" y="-387.8" font-family="Times,serif" font-size="14.00">3</text>
</g>
<!-- 19&#45;&gt;26 -->
<g id="edge11" class="edge">
<title>19&#45;&gt;26</title>
<path fill="none" stroke="black" d="M2190.58,-488.56C2124.88,-514.62 1926.54,-589.53 1754,-616.5 1556.14,-647.42 1052.27,-614.57 853,-634.5 816.59,-638.14 775.5,-646.01 746.92,-652.09"/>
<polygon fill="black" stroke="black" points="746.03,-648.7 737,-654.24 747.51,-655.55 746.03,-648.7"/>
<text text-anchor="middle" x="2031" y="-561.8" font-family="Times,serif" font-size="14.00">4</text>
</g>
<!-- 20&#45;&gt;0 -->
<g id="edge2" class="edge">
<title>20&#45;&gt;0</title>
<path fill="none" stroke="black" d="M788.7,-137.35C801.74,-149.98 819.34,-169.9 827,-191.5 883.28,-350.15 826.88,-780.85 835,-948.99 838.75,-1026.52 836.29,-1046.59 850,-1122.99 857.09,-1162.47 850.16,-1177.73 874,-1209.99 895.21,-1238.69 931.57,-1258.85 957.32,-1270.4"/>
<polygon fill="black" stroke="black" points="956.04,-1273.66 966.61,-1274.4 958.81,-1267.23 956.04,-1273.66"/>
<text text-anchor="middle" x="848" y="-709.79" font-family="Times,serif" font-size="14.00">2</text>
</g>
<!-- 20&#45;&gt;6 -->
<g id="edge121" class="edge">
<title>20&#45;&gt;6</title>
<path fill="none" stroke="black" d="M766.81,-140.2C762.31,-152.32 756.12,-169.02 750.82,-183.32"/>
<polygon fill="black" stroke="black" points="747.52,-182.15 747.32,-192.74 754.08,-184.58 747.52,-182.15"/>
<text text-anchor="middle" x="765" y="-162.3" font-family="Times,serif" font-size="14.00">0</text>
</g>
<!-- 20&#45;&gt;17 -->
<g id="edge109" class="edge">
<title>20&#45;&gt;17</title>
<path fill="none" stroke="black" d="M799.82,-125.6C844.11,-129.57 929.95,-139.54 953,-158.5 1055.08,-242.46 1065,-301.82 1065,-434 1065,-801.49 1065,-801.49 1065,-801.49 1065,-903.3 1078.68,-1023.79 1085.38,-1076.73"/>
<polygon fill="black" stroke="black" points="1081.95,-1077.5 1086.7,-1086.97 1088.89,-1076.61 1081.95,-1077.5"/>
<text text-anchor="middle" x="1070" y="-605.3" font-family="Times,serif" font-size="14.00">3</text>
</g>
<!-- 20&#45;&gt;23 -->
<g id="edge38" class="edge">
<title>20&#45;&gt;23</title>
<path fill="none" stroke="black" d="M773,-104.3C773,-90.56 773,-71.03 773,-55.14"/>
<polygon fill="black" stroke="black" points="776.5,-54.83 773,-44.83 769.5,-54.83 776.5,-54.83"/>
<text text-anchor="middle" x="778" y="-75.3" font-family="Times,serif" font-size="14.00">4</text>
</g>
<!-- 20&#45;&gt;26 -->
<g id="edge19" class="edge">
<title>20&#45;&gt;26</title>
<path fill="none" stroke="black" d="M747.04,-128.07C707.07,-136.76 635,-159.75 635,-212.5 635,-436 635,-436 635,-436 635,-508.03 670.61,-586.53 693.08,-628.88"/>
<polygon fill="black" stroke="black" points="690.1,-630.72 697.94,-637.86 696.26,-627.39 690.1,-630.72"/>
<text text-anchor="middle" x="640" y="-387.8" font-family="Times,serif" font-size="14.00">1</text>
</g>
<!-- 21&#45;&gt;0 -->
<g id="edge78" class="edge">
<title>21&#45;&gt;0</title>
<path fill="none" stroke="black" d="M1649.49,-934.86C1624.57,-938.69 1587.27,-947.42 1561,-966.99 1521.02,-996.78 1499,-1010.63 1499,-1060.49 1499,-1192.99 1499,-1192.99 1499,-1192.99 1499,-1219.38 1489.63,-1229.44 1467,-1242.99 1422.83,-1269.45 1287.32,-1256.83 1236,-1260.99 1158.01,-1267.32 1066.32,-1275.15 1018.94,-1279.23"/>
<polygon fill="black" stroke="black" points="1018.64,-1275.75 1008.98,-1280.09 1019.24,-1282.72 1018.64,-1275.75"/>
<text text-anchor="middle" x="1504" y="-1101.29" font-family="Times,serif" font-size="14.00">2</text>
</g>
<!-- 21&#45;&gt;14 -->
<g id="edge110" class="edge">
<title>21&#45;&gt;14</title>
<path fill="none" stroke="black" d="M1652.26,-922.11C1616.18,-910.52 1545.13,-889.27 1483,-879.99 1405.63,-868.44 854.72,-850.76 705.3,-846.13"/>
<polygon fill="black" stroke="black" points="705.35,-842.63 695.25,-845.82 705.14,-849.63 705.35,-842.63"/>
<text text-anchor="middle" x="1558" y="-883.79" font-family="Times,serif" font-size="14.00">3</text>
</g>
<!-- 21&#45;&gt;21 -->
<g id="edge122" class="edge">
<title>21&#45;&gt;21</title>
<path fill="none" stroke="black" d="M1700.53,-938.74C1711.51,-939.48 1721,-936.9 1721,-930.99 1721,-927.02 1716.72,-924.56 1710.57,-923.59"/>
<polygon fill="black" stroke="black" points="1710.65,-920.09 1700.53,-923.24 1710.41,-927.08 1710.65,-920.09"/>
<text text-anchor="middle" x="1726" y="-927.29" font-family="Times,serif" font-size="14.00">0</text>
</g>
<!-- 21&#45;&gt;25 -->
<g id="edge52" class="edge">
<title>21&#45;&gt;25</title>
<path fill="none" stroke="black" d="M1703.11,-929.07C1784.84,-926.08 2027.82,-915.66 2104,-894.99 2153.5,-881.57 2208,-896.28 2208,-844.99 2208,-844.99 2208,-844.99 2208,-712.49 2208,-605.56 2268,-586.43 2268,-479.5 2268,-479.5 2268,-479.5 2268,-303.5 2268,-225 2174.33,-272.3 2105,-235.5 2103.24,-234.56 2101.45,-233.56 2099.67,-232.51"/>
<polygon fill="black" stroke="black" points="2101.26,-229.38 2090.92,-227.09 2097.58,-235.33 2101.26,-229.38"/>
<text text-anchor="middle" x="2263" y="-561.8" font-family="Times,serif" font-size="14.00">4</text>
</g>
<!-- 21&#45;&gt;26 -->
<g id="edge25" class="edge">
<title>21&#45;&gt;26</title>
<path fill="none" stroke="black" d="M1662.5,-915.15C1641.93,-893.25 1600.72,-852.05 1559,-825.99 1439.99,-751.67 1404.03,-736.16 1267,-705.99 1087.13,-666.4 1036.03,-708.47 853,-687.99 816.63,-683.92 775.54,-676.12 746.95,-670.16"/>
<polygon fill="black" stroke="black" points="747.52,-666.7 737.02,-668.06 746.07,-673.55 747.52,-666.7"/>
<text text-anchor="middle" x="1534" y="-796.79" font-family="Times,serif" font-size="14.00">1</text>
</g>
<!-- 22 -->
<g id="node24" class="node">
<title>22</title>
<ellipse fill="none" stroke="black" cx="1333" cy="-478.5" rx="27" ry="18"/>
<text text-anchor="middle" x="1333" y="-474.8" font-family="Times,serif" font-size="14.00">22</text>
</g>
<!-- 22&#45;&gt;4 -->
<g id="edge125" class="edge">
<title>22&#45;&gt;4</title>
<path fill="none" stroke="black" d="M1329.52,-496.35C1326.3,-513.44 1322,-540.69 1322,-564.5 1322,-714.49 1322,-714.49 1322,-714.49 1322,-833.38 1350.97,-866.44 1323,-981.99 1322.17,-985.42 1320.95,-988.88 1319.52,-992.23"/>
<polygon fill="black" stroke="black" points="1316.36,-990.72 1315.12,-1001.24 1322.65,-993.79 1316.36,-990.72"/>
<text text-anchor="middle" x="1330" y="-753.29" font-family="Times,serif" font-size="14.00">4</text>
</g>
<!-- 22&#45;&gt;10 -->
<g id="edge141" class="edge">
<title>22&#45;&gt;10</title>
<path fill="none" stroke="black" d="M1351.25,-492.23C1378.53,-512.26 1429.68,-553.8 1457,-601.5 1504.03,-683.62 1482.8,-717.05 1509,-807.99 1540.83,-918.47 1567.71,-941.01 1589,-1053.99 1611.71,-1174.52 1605,-1206.84 1605,-1329.49 1605,-1740.49 1605,-1740.49 1605,-1740.49 1605,-1759.49 1605,-1780.66 1605,-1798.07"/>
<polygon fill="black" stroke="black" points="1601.5,-1798.37 1605,-1808.37 1608.5,-1798.37 1601.5,-1798.37"/>
<text text-anchor="middle" x="1609" y="-1144.79" font-family="Times,serif" font-size="14.00">2</text>
</g>
<!-- 22&#45;&gt;20 -->
<g id="edge97" class="edge">
<title>22&#45;&gt;20</title>
<path fill="none" stroke="black" d="M1314.01,-465.63C1275.93,-441.35 1188.47,-383.19 1125,-322.5 1056.97,-257.44 1072.57,-205.47 991,-158.5 960.87,-141.15 863.97,-130.81 810.07,-126.26"/>
<polygon fill="black" stroke="black" points="810.14,-122.75 799.89,-125.43 809.57,-129.73 810.14,-122.75"/>
<text text-anchor="middle" x="1130" y="-300.8" font-family="Times,serif" font-size="14.00">0</text>
</g>
<!-- 27 -->
<g id="node29" class="node">
<title>27</title>
<ellipse fill="none" stroke="black" cx="1665" cy="-391.5" rx="27" ry="18"/>
<text text-anchor="middle" x="1665" y="-387.8" font-family="Times,serif" font-size="14.00">27</text>
</g>
<!-- 22&#45;&gt;27 -->
<g id="edge103" class="edge">
<title>22&#45;&gt;27</title>
<path fill="none" stroke="black" d="M1357.68,-471.18C1416.14,-456.21 1563.19,-418.56 1630.45,-401.34"/>
<polygon fill="black" stroke="black" points="1631.34,-404.73 1640.15,-398.86 1629.6,-397.95 1631.34,-404.73"/>
<text text-anchor="middle" x="1524" y="-431.3" font-family="Times,serif" font-size="14.00">3</text>
</g>
<!-- 22&#45;&gt;28 -->
<g id="edge106" class="edge">
<title>22&#45;&gt;28</title>
<path fill="none" stroke="black" d="M1340.77,-495.98C1370.21,-560.97 1469.52,-804.5 1393,-981.99 1357.79,-1063.66 1332.26,-1086.85 1251,-1122.99 1192.59,-1148.97 1173.63,-1143.17 1111,-1155.99 1053.54,-1167.76 986.32,-1178.94 946,-1185.38"/>
<polygon fill="black" stroke="black" points="945.44,-1181.93 936.11,-1186.95 946.54,-1188.84 945.44,-1181.93"/>
<text text-anchor="middle" x="1427" y="-840.29" font-family="Times,serif" font-size="14.00">1</text>
</g>
<!-- 23&#45;&gt;0 -->
<g id="edge51" class="edge">
<title>23&#45;&gt;0</title>
<path fill="none" stroke="black" d="M797.04,-35.16C849.11,-52.64 971.74,-101.87 1023,-191.5 1076.52,-285.06 1027,-326.2 1027,-434 1027,-714.49 1027,-714.49 1027,-714.49 1027,-842.23 1002.93,-872.57 994,-999.99 987.64,-1090.75 986.83,-1198.3 986.86,-1250.47"/>
<polygon fill="black" stroke="black" points="983.36,-1250.74 986.87,-1260.74 990.36,-1250.73 983.36,-1250.74"/>
<text text-anchor="middle" x="1032" y="-657.54" font-family="Times,serif" font-size="14.00">0</text>
</g>
<!-- 23&#45;&gt;0 -->
<g id="edge95" class="edge">
<title>23&#45;&gt;0</title>
<path fill="none" stroke="black" d="M746.11,-29.43C663.45,-35.1 414.97,-55.89 353,-104.5 305.76,-141.55 308.88,-176.49 320,-235.5 399.93,-659.6 476.79,-762.47 714,-1122.99 753.28,-1182.69 757.6,-1210.02 821,-1242.99 864.2,-1265.46 920.42,-1275.15 955.09,-1279.22"/>
<polygon fill="black" stroke="black" points="954.8,-1282.71 965.12,-1280.3 955.55,-1275.75 954.8,-1282.71"/>
<text text-anchor="middle" x="456" y="-657.54" font-family="Times,serif" font-size="14.00">4</text>
</g>
<!-- 23&#45;&gt;4 -->
<g id="edge36" class="edge">
<title>23&#45;&gt;4</title>
<path fill="none" stroke="black" d="M799.98,-28.21C864.83,-29.88 1027.05,-37.43 1067,-71.5 1103.99,-103.04 1266.26,-839.41 1299.17,-990.18"/>
<polygon fill="black" stroke="black" points="1295.76,-990.98 1301.31,-1000 1302.6,-989.48 1295.76,-990.98"/>
<text text-anchor="middle" x="1200" y="-518.3" font-family="Times,serif" font-size="14.00">1</text>
</g>
<!-- 23&#45;&gt;8 -->
<g id="edge81" class="edge">
<title>23&#45;&gt;8</title>
<path fill="none" stroke="black" d="M745.94,-28.7C621.93,-33.39 114,-56.56 114,-121.5 114,-1435.99 114,-1435.99 114,-1435.99 114,-1519.72 165.02,-1527.38 204,-1601.49 263,-1713.66 330.69,-1848.94 358.29,-1904.39"/>
<polygon fill="black" stroke="black" points="355.23,-1906.1 362.82,-1913.49 361.5,-1902.98 355.23,-1906.1"/>
<text text-anchor="middle" x="119" y="-970.79" font-family="Times,serif" font-size="14.00">3</text>
</g>
<!-- 23&#45;&gt;8 -->
<g id="edge92" class="edge">
<title>23&#45;&gt;8</title>
<path fill="none" stroke="black" d="M745.94,-28.12C609.13,-30.37 0,-44.69 0,-121.5 0,-610 0,-610 0,-610 0,-695.89 38,-713.59 38,-799.49 38,-1435.99 38,-1435.99 38,-1435.99 38,-1547.95 238.43,-1773.48 307,-1861.98 319.87,-1878.59 336.1,-1895.81 349,-1908.76"/>
<polygon fill="black" stroke="black" points="346.6,-1911.3 356.16,-1915.86 351.52,-1906.33 346.6,-1911.3"/>
<text text-anchor="middle" x="43" y="-970.79" font-family="Times,serif" font-size="14.00">2</text>
</g>
<!-- 24&#45;&gt;5 -->
<g id="edge111" class="edge">
<title>24&#45;&gt;5</title>
<path fill="none" stroke="black" d="M563.89,-567.34C517.17,-570.2 420.94,-582.48 363,-634.5 313.78,-678.69 192.99,-857.53 177,-912.99 115.88,-1125.04 166.73,-1189.34 182,-1409.49 185.44,-1459.05 190,-1471.3 190,-1520.99 190,-1783.99 190,-1783.99 190,-1783.99 190,-2037.11 471.23,-1968.7 724,-1981.98 1396.08,-2017.32 2218.13,-2017.54 2400.87,-2017.11"/>
<polygon fill="black" stroke="black" points="2401.03,-2020.61 2411.02,-2017.08 2401.01,-2013.61 2401.03,-2020.61"/>
<text text-anchor="middle" x="177" y="-1279.29" font-family="Times,serif" font-size="14.00">2</text>
</g>
<!-- 24&#45;&gt;19 -->
<g id="edge73" class="edge">
<title>24&#45;&gt;19</title>
<path fill="none" stroke="black" d="M618.17,-564.61C748.75,-564.97 1324.74,-564.39 1795,-529.5 1936.72,-518.98 2104.29,-495.6 2176.69,-484.96"/>
<polygon fill="black" stroke="black" points="2177.29,-488.41 2186.67,-483.48 2176.27,-481.48 2177.29,-488.41"/>
<text text-anchor="middle" x="1950" y="-518.3" font-family="Times,serif" font-size="14.00">0</text>
</g>
<!-- 24&#45;&gt;20 -->
<g id="edge133" class="edge">
<title>24&#45;&gt;20</title>
<path fill="none" stroke="black" d="M590.36,-547.24C589.77,-530.07 589,-502.97 589,-479.5 589,-479.5 589,-479.5 589,-212.5 589,-147.96 681.87,-130.2 735.65,-125.33"/>
<polygon fill="black" stroke="black" points="736.16,-128.8 745.85,-124.51 735.6,-121.82 736.16,-128.8"/>
<text text-anchor="middle" x="594" y="-344.3" font-family="Times,serif" font-size="14.00">4</text>
</g>
<!-- 24&#45;&gt;22 -->
<g id="edge116" class="edge">
<title>24&#45;&gt;22</title>
<path fill="none" stroke="black" d="M617.41,-561.47C729.53,-548.63 1166.3,-498.59 1296.3,-483.7"/>
<polygon fill="black" stroke="black" points="1296.99,-487.14 1306.52,-482.53 1296.19,-480.19 1296.99,-487.14"/>
<text text-anchor="middle" x="1012" y="-518.3" font-family="Times,serif" font-size="14.00">3</text>
</g>
<!-- 24&#45;&gt;23 -->
<g id="edge123" class="edge">
<title>24&#45;&gt;23</title>
<path fill="none" stroke="black" d="M574.71,-550.95C526.59,-509.72 385.36,-379.77 336,-235.5 324.92,-203.12 315.56,-185.94 336,-158.5 385.01,-92.68 641.03,-47.74 736.8,-33.01"/>
<polygon fill="black" stroke="black" points="737.51,-36.44 746.88,-31.48 736.46,-29.52 737.51,-36.44"/>
<text text-anchor="middle" x="382" y="-300.8" font-family="Times,serif" font-size="14.00">1</text>
</g>
<!-- 25&#45;&gt;2 -->
<g id="edge6" class="edge">
<title>25&#45;&gt;2</title>
<path fill="none" stroke="black" d="M2089.77,-227.76C2094.46,-230.81 2099.72,-233.69 2105,-235.5 2129.79,-243.95 2322.2,-234.28 2340,-253.5 2439.67,-361.09 2347.43,-437.02 2340,-583.5 2329.76,-785.38 2316.39,-835.09 2294,-1035.99 2292.36,-1050.68 2291.82,-1054.33 2290,-1068.99 2285.66,-1103.89 2280,-1112.32 2280,-1147.49 2280,-1479.49 2280,-1479.49 2280,-1479.49 2280,-1504.14 2276.73,-1516.15 2256,-1529.49 2234.81,-1543.12 1374.19,-1546.79 1349,-1547.49 1183.33,-1552.06 985.64,-1559.75 904.99,-1562.99"/>
<polygon fill="black" stroke="black" points="904.7,-1559.49 894.85,-1563.39 904.98,-1566.49 904.7,-1559.49"/>
<text text-anchor="middle" x="2318" y="-883.79" font-family="Times,serif" font-size="14.00">2</text>
</g>
<!-- 25&#45;&gt;10 -->
<g id="edge66" class="edge">
<title>25&#45;&gt;10</title>
<path fill="none" stroke="black" d="M2089.76,-227.78C2094.45,-230.84 2099.71,-233.71 2105,-235.5 2159.04,-253.73 2310.35,-227.28 2361,-253.5 2501.86,-326.4 2402,-449.39 2402,-608 2402,-1062.49 2402,-1062.49 2402,-1062.49 2402,-1141.18 2360,-1155.8 2360,-1234.49 2360,-1740.49 2360,-1740.49 2360,-1740.49 2360,-1813.69 1793.87,-1830.41 1642.07,-1833.58"/>
<polygon fill="black" stroke="black" points="1641.8,-1830.08 1631.87,-1833.79 1641.94,-1837.08 1641.8,-1830.08"/>
<text text-anchor="middle" x="2407" y="-1014.29" font-family="Times,serif" font-size="14.00">1</text>
</g>
<!-- 25&#45;&gt;12 -->
<g id="edge55" class="edge">
<title>25&#45;&gt;12</title>
<path fill="none" stroke="black" d="M2061.54,-229.96C2027.61,-277.34 1930,-425.67 1930,-564.5 1930,-1283.99 1930,-1283.99 1930,-1283.99 1930,-1316.85 1427.36,-1365.33 1285.1,-1378.4"/>
<polygon fill="black" stroke="black" points="1284.38,-1374.95 1274.74,-1379.34 1285.01,-1381.92 1284.38,-1374.95"/>
<text text-anchor="middle" x="1935" y="-796.79" font-family="Times,serif" font-size="14.00">4</text>
</g>
<!-- 25&#45;&gt;15 -->
<g id="edge56" class="edge">
<title>25&#45;&gt;15</title>
<path fill="none" stroke="black" d="M2073,-195.34C2073,-182.78 2073,-165.48 2073,-151"/>
<polygon fill="black" stroke="black" points="2076.5,-150.6 2073,-140.6 2069.5,-150.6 2076.5,-150.6"/>
<text text-anchor="middle" x="2078" y="-162.3" font-family="Times,serif" font-size="14.00">3</text>
</g>
<!-- 25&#45;&gt;28 -->
<g id="edge140" class="edge">
<title>25&#45;&gt;28</title>
<path fill="none" stroke="black" d="M2048.36,-220.93C2030.52,-226.74 2007,-236.97 1992,-253.5 1881.95,-374.69 1892,-444.29 1892,-608 1892,-1105.99 1892,-1105.99 1892,-1105.99 1892,-1225.85 1746.15,-1143.01 1627,-1155.99 1366.64,-1184.36 1299.04,-1152.72 1038,-1173.99 1006.78,-1176.54 971.5,-1181.37 945.9,-1185.23"/>
<polygon fill="black" stroke="black" points="945.26,-1181.79 935.9,-1186.77 946.32,-1188.71 945.26,-1181.79"/>
<text text-anchor="middle" x="1897" y="-709.79" font-family="Times,serif" font-size="14.00">0</text>
</g>
<!-- 26&#45;&gt;4 -->
<g id="edge32" class="edge">
<title>26&#45;&gt;4</title>
<path fill="none" stroke="black" d="M734.28,-675.26C755.89,-687.29 789,-705.57 818,-720.99 954.37,-793.5 996.09,-798.03 1127,-879.99 1147.72,-892.96 1151.69,-898.01 1171,-912.99 1209.72,-943.03 1218.08,-952.21 1257,-981.99 1263.91,-987.28 1271.48,-992.88 1278.52,-998.02"/>
<polygon fill="black" stroke="black" points="1276.92,-1001.18 1287.08,-1004.22 1281.03,-995.52 1276.92,-1001.18"/>
<text text-anchor="middle" x="1102" y="-840.29" font-family="Times,serif" font-size="14.00">0</text>
</g>
<!-- 26&#45;&gt;4 -->
<g id="edge99" class="edge">
<title>26&#45;&gt;4</title>
<path fill="none" stroke="black" d="M736.63,-669.17C764.97,-677.08 811.79,-690.89 851,-705.99 969.77,-751.73 1004.67,-756.06 1111,-825.99 1159.38,-857.81 1166.65,-872.44 1208,-912.99 1235.67,-940.12 1265.87,-973.08 1285.1,-994.52"/>
<polygon fill="black" stroke="black" points="1282.63,-997.01 1291.9,-1002.13 1287.85,-992.35 1282.63,-997.01"/>
<text text-anchor="middle" x="1163" y="-840.29" font-family="Times,serif" font-size="14.00">1</text>
</g>
<!-- 26&#45;&gt;17 -->
<g id="edge77" class="edge">
<title>26&#45;&gt;17</title>
<path fill="none" stroke="black" d="M726.02,-683.44C748.13,-714.65 790.76,-774.81 827,-825.99 903.47,-933.98 894.7,-987.57 999,-1068.99 1015.02,-1081.5 1036.04,-1090.01 1053.74,-1095.5"/>
<polygon fill="black" stroke="black" points="1053.14,-1098.97 1063.72,-1098.39 1055.09,-1092.25 1053.14,-1098.97"/>
<text text-anchor="middle" x="875" y="-883.79" font-family="Times,serif" font-size="14.00">3</text>
</g>
<!-- 26&#45;&gt;24 -->
<g id="edge151" class="edge">
<title>26&#45;&gt;24</title>
<path fill="none" stroke="black" d="M690.37,-644.13C669.69,-627.97 637.84,-603.09 615.8,-585.87"/>
<polygon fill="black" stroke="black" points="617.91,-583.08 607.88,-579.68 613.6,-588.6 617.91,-583.08"/>
<text text-anchor="middle" x="660" y="-605.3" font-family="Times,serif" font-size="14.00">2</text>
</g>
<!-- 26&#45;&gt;29 -->
<g id="edge37" class="edge">
<title>26&#45;&gt;29</title>
<path fill="none" stroke="black" d="M686.98,-673.06C617.89,-705.66 418.68,-810.44 341,-966.99 267.17,-1115.78 319.44,-1173.56 296,-1337.99 284.37,-1419.58 266,-1438.57 266,-1520.99 266,-1696.99 266,-1696.99 266,-1696.99 266,-1782.89 228,-1800.59 228,-1886.48 228,-2018.98 228,-2018.98 228,-2018.98 228,-2128 607.2,-2062.16 716,-2068.98 1458.7,-2115.59 2368.97,-2113.91 2561.97,-2112.96"/>
<polygon fill="black" stroke="black" points="2562.16,-2116.46 2572.15,-2112.9 2562.13,-2109.46 2562.16,-2116.46"/>
<text text-anchor="middle" x="299" y="-1379.04" font-family="Times,serif" font-size="14.00">4</text>
</g>
<!-- 27&#45;&gt;3 -->
<g id="edge86" class="edge">
<title>27&#45;&gt;3</title>
<path fill="none" stroke="black" d="M1692.1,-392.07C1772.29,-392.46 2008.76,-406.02 2104,-547.5 2173.09,-650.12 2120,-980.28 2120,-1103.99 2120,-1653.49 2120,-1653.49 2120,-1653.49 2120,-1678.14 2115.28,-1688.13 2096,-1703.49 2062.37,-1730.28 2012.23,-1737.42 1978.15,-1738.91"/>
<polygon fill="black" stroke="black" points="1978.02,-1735.41 1968.13,-1739.21 1978.22,-1742.41 1978.02,-1735.41"/>
<text text-anchor="middle" x="2127" y="-1057.79" font-family="Times,serif" font-size="14.00">3</text>
</g>
<!-- 27&#45;&gt;9 -->
<g id="edge134" class="edge">
<title>27&#45;&gt;9</title>
<path fill="none" stroke="black" d="M1645.26,-379.17C1625.12,-368.03 1592.7,-351.16 1563,-340.5 1526.12,-327.25 1482.22,-317.55 1452.06,-311.76"/>
<polygon fill="black" stroke="black" points="1452.47,-308.28 1442,-309.88 1451.18,-315.16 1452.47,-308.28"/>
<text text-anchor="middle" x="1603" y="-344.3" font-family="Times,serif" font-size="14.00">2</text>
</g>
<!-- 27&#45;&gt;11 -->
<g id="edge43" class="edge">
<title>27&#45;&gt;11</title>
<path fill="none" stroke="black" d="M1670.38,-373.76C1675.36,-356.76 1682,-329.57 1682,-305.5 1682,-305.5 1682,-305.5 1682,-121.5 1682,-99.21 1691.33,-75.99 1700.75,-58.23"/>
<polygon fill="black" stroke="black" points="1703.82,-59.91 1705.63,-49.48 1697.71,-56.5 1703.82,-59.91"/>
<text text-anchor="middle" x="1687" y="-209.8" font-family="Times,serif" font-size="14.00">0</text>
</g>
<!-- 27&#45;&gt;18 -->
<g id="edge67" class="edge">
<title>27&#45;&gt;18</title>
<path fill="none" stroke="black" d="M1690.77,-385.68C1767.71,-371.31 1995.94,-328.67 2084.4,-312.15"/>
<polygon fill="black" stroke="black" points="2085.05,-315.59 2094.23,-310.31 2083.76,-308.71 2085.05,-315.59"/>
<text text-anchor="middle" x="1925" y="-344.3" font-family="Times,serif" font-size="14.00">1</text>
</g>
<!-- 27&#45;&gt;21 -->
<g id="edge120" class="edge">
<title>27&#45;&gt;21</title>
<path fill="none" stroke="black" d="M1664.68,-409.75C1664.39,-426.92 1664,-454.03 1664,-477.5 1664,-714.49 1664,-714.49 1664,-714.49 1664,-782.43 1670.02,-862.22 1673.53,-903.01"/>
<polygon fill="black" stroke="black" points="1670.04,-903.31 1674.41,-912.97 1677.02,-902.7 1670.04,-903.31"/>
<text text-anchor="middle" x="1669" y="-657.54" font-family="Times,serif" font-size="14.00">4</text>
</g>
<!-- 28&#45;&gt;2 -->
<g id="edge83" class="edge">
<title>28&#45;&gt;2</title>
<path fill="none" stroke="black" d="M890.17,-1204.36C867.36,-1219.08 833,-1247.05 833,-1281.99 833,-1479.49 833,-1479.49 833,-1479.49 833,-1500.97 842.67,-1523.35 851.85,-1539.76"/>
<polygon fill="black" stroke="black" points="849.02,-1541.85 857.12,-1548.67 855.04,-1538.28 849.02,-1541.85"/>
<text text-anchor="middle" x="838" y="-1379.04" font-family="Times,serif" font-size="14.00">1</text>
</g>
<!-- 28&#45;&gt;4 -->
<g id="edge146" class="edge">
<title>28&#45;&gt;4</title>
<path fill="none" stroke="black" d="M936.42,-1187.28C998.74,-1177.47 1157.69,-1146.06 1264,-1068.99 1273.64,-1062 1282.33,-1052.22 1289.21,-1043.16"/>
<polygon fill="black" stroke="black" points="1292.22,-1044.97 1295.21,-1034.8 1286.53,-1040.88 1292.22,-1044.97"/>
<text text-anchor="middle" x="1242" y="-1101.29" font-family="Times,serif" font-size="14.00">3</text>
</g>
<!-- 28&#45;&gt;7 -->
<g id="edge50" class="edge">
<title>28&#45;&gt;7</title>
<path fill="none" stroke="black" d="M897.9,-1175.87C893.48,-1169.9 888.67,-1162.84 885,-1155.99 803.5,-1003.85 841.79,-937.23 747,-792.99 743.63,-787.86 739.38,-782.9 735,-778.41"/>
<polygon fill="black" stroke="black" points="737.27,-775.74 727.63,-771.34 732.43,-780.79 737.27,-775.74"/>
<text text-anchor="middle" x="829" y="-970.79" font-family="Times,serif" font-size="14.00">2</text>
</g>
<!-- 28&#45;&gt;17 -->
<g id="edge89" class="edge">
<title>28&#45;&gt;17</title>
<path fill="none" stroke="black" d="M921.33,-1175.25C930.13,-1164.11 943.29,-1149.68 958,-1140.99 987.21,-1123.74 1025.04,-1114.82 1052.53,-1110.32"/>
<polygon fill="black" stroke="black" points="1053.16,-1113.77 1062.52,-1108.8 1052.11,-1106.84 1053.16,-1113.77"/>
<text text-anchor="middle" x="963" y="-1144.79" font-family="Times,serif" font-size="14.00">0</text>
</g>
<!-- 28&#45;&gt;29 -->
<g id="edge59" class="edge">
<title>28&#45;&gt;29</title>
<path fill="none" stroke="black" d="M888.13,-1202.8C849.19,-1221.24 767.31,-1264.53 718,-1322.99 553.12,-1518.46 454,-1578.51 454,-1834.24 454,-2018.98 454,-2018.98 454,-2018.98 454,-2073.99 2278.31,-2107.27 2562.09,-2112.12"/>
<polygon fill="black" stroke="black" points="2562.21,-2115.62 2572.27,-2112.29 2562.33,-2108.62 2562.21,-2115.62"/>
<text text-anchor="middle" x="490" y="-1648.79" font-family="Times,serif" font-size="14.00">4</text>
</g>
<!-- 29&#45;&gt;5 -->
<g id="edge143" class="edge">
<title>29&#45;&gt;5</title>
<path fill="none" stroke="black" d="M2576.27,-2099.5C2547.4,-2082.69 2497.57,-2053.67 2466.27,-2035.44"/>
<polygon fill="black" stroke="black" points="2467.98,-2032.39 2457.58,-2030.38 2464.46,-2038.44 2467.98,-2032.39"/>
<text text-anchor="middle" x="2529" y="-2057.78" font-family="Times,serif" font-size="14.00">0</text>
</g>
<!-- 29&#45;&gt;6 -->
<g id="edge13" class="edge">
<title>29&#45;&gt;6</title>
<path fill="none" stroke="black" d="M2572.23,-2112.82C2312.35,-2113.66 245.71,-2118.7 127,-2068.98 97.72,-2056.72 76,-2050.73 76,-2018.98 76,-2018.98 76,-2018.98 76,-712.49 76,-678.93 156.52,-454.83 176,-427.5 234.57,-345.31 262.14,-328.31 354,-286.5 476.5,-230.73 639.64,-218.16 707.87,-215.32"/>
<polygon fill="black" stroke="black" points="708.13,-218.81 717.99,-214.94 707.87,-211.82 708.13,-218.81"/>
<text text-anchor="middle" x="81" y="-1144.79" font-family="Times,serif" font-size="14.00">2</text>
</g>
<!-- 29&#45;&gt;19 -->
<g id="edge63" class="edge">
<title>29&#45;&gt;19</title>
<path fill="none" stroke="black" d="M2625.59,-2109.51C2671.31,-2102.31 2760,-2080.44 2760,-2018.98 2760,-2018.98 2760,-2018.98 2760,-1329.49 2760,-1210.77 2752,-1181.21 2752,-1062.49 2752,-1062.49 2752,-1062.49 2752,-886.49 2752,-632.98 2367.57,-517.38 2248.03,-487.57"/>
<polygon fill="black" stroke="black" points="2248.82,-484.16 2238.27,-485.18 2247.15,-490.96 2248.82,-484.16"/>
<text text-anchor="middle" x="2765" y="-1279.29" font-family="Times,serif" font-size="14.00">3</text>
</g>
<!-- 29&#45;&gt;23 -->
<g id="edge5" class="edge">
<title>29&#45;&gt;23</title>
<path fill="none" stroke="black" d="M2624.24,-2104.8C2658.09,-2092.4 2714,-2064.96 2714,-2018.98 2714,-2018.98 2714,-2018.98 2714,-886.49 2714,-735.59 2736.69,-692.53 2695,-547.5 2657.74,-417.85 2592,-396.89 2592,-262 2592,-262 2592,-262 2592,-121.5 2592,-75.2 1068.92,-35.13 810.15,-28.66"/>
<polygon fill="black" stroke="black" points="810.21,-25.16 800.13,-28.41 810.03,-32.16 810.21,-25.16"/>
<text text-anchor="middle" x="2719" y="-1057.79" font-family="Times,serif" font-size="14.00">4</text>
</g>
<!-- 29&#45;&gt;26 -->
<g id="edge139" class="edge">
<title>29&#45;&gt;26</title>
<path fill="none" stroke="black" d="M2572.02,-2112.79C2326.65,-2113.29 484.63,-2115.47 245,-2068.98 183.82,-2057.12 114,-2081.3 114,-2018.98 114,-2018.98 114,-2018.98 114,-1694.99 114,-1484.01 237,-1447.47 237,-1236.49 237,-1236.49 237,-1236.49 237,-973.49 237,-764.39 563.29,-688.01 674.43,-668.06"/>
<polygon fill="black" stroke="black" points="675.25,-671.47 684.5,-666.3 674.05,-664.57 675.25,-671.47"/>
<text text-anchor="middle" x="226" y="-1379.04" font-family="Times,serif" font-size="14.00">1</text>
</g>
</g>
</svg>
