<?xml version="1.0" encoding="UTF-8" standalone="no"?>
<!DOCTYPE svg PUBLIC "-//W3C//DTD SVG 1.1//EN"
 "http://www.w3.org/Graphics/SVG/1.1/DTD/svg11.dtd">
<!-- Generated by graphviz version 2.49.0 (20210829.0051)
 -->
<!-- Pages: 1 -->
<svg width="2426pt" height="2517pt"
 viewBox="0.00 0.00 2426.00 2517.47" xmlns="http://www.w3.org/2000/svg" xmlns:xlink="http://www.w3.org/1999/xlink">
<g id="graph0" class="graph" transform="scale(1 1) rotate(0) translate(4 2513.47)">
<polygon fill="white" stroke="transparent" points="-4,4 -4,-2513.47 2422,-2513.47 2422,4 -4,4"/>
<!-- fake -->
<g id="node1" class="node">
<title>fake</title>
</g>
<!-- 29 -->
<g id="node31" class="node">
<title>29</title>
<ellipse fill="none" stroke="black" cx="1964" cy="-2418.47" rx="27" ry="18"/>
<text text-anchor="middle" x="1964" y="-2414.77" font-family="Times,serif" font-size="14.00">29</text>
</g>
<!-- fake&#45;&gt;29 -->
<g id="edge1" class="edge">
<title>fake&#45;&gt;29</title>
<path fill="none" stroke="black" stroke-width="2" d="M1964,-2473.28C1964,-2465.26 1964,-2455.52 1964,-2446.54"/>
<polygon fill="black" stroke="black" stroke-width="2" points="1967.5,-2446.5 1964,-2436.5 1960.5,-2446.5 1967.5,-2446.5"/>
</g>
<!-- 0 -->
<g id="node2" class="node">
<title>0</title>
<ellipse fill="none" stroke="black" cx="1487" cy="-2149.47" rx="27" ry="18"/>
<text text-anchor="middle" x="1487" y="-2145.77" font-family="Times,serif" font-size="14.00">0</text>
</g>
<!-- 3 -->
<g id="node5" class="node">
<title>3</title>
<ellipse fill="none" stroke="black" cx="1314" cy="-2062.47" rx="27" ry="18"/>
<text text-anchor="middle" x="1314" y="-2058.77" font-family="Times,serif" font-size="14.00">3</text>
</g>
<!-- 0&#45;&gt;3 -->
<g id="edge60" class="edge">
<title>0&#45;&gt;3</title>
<path fill="none" stroke="black" d="M1461.12,-2143.81C1436.98,-2138.74 1400.52,-2129.18 1372,-2113.47 1358.64,-2106.11 1345.6,-2095.3 1335.28,-2085.62"/>
<polygon fill="black" stroke="black" points="1337.57,-2082.96 1327.96,-2078.51 1332.7,-2087.98 1337.57,-2082.96"/>
<text text-anchor="middle" x="1377" y="-2102.27" font-family="Times,serif" font-size="14.00">3</text>
</g>
<!-- 4 -->
<g id="node6" class="node">
<title>4</title>
<ellipse fill="none" stroke="black" cx="1244" cy="-2327.47" rx="18" ry="18"/>
<ellipse fill="none" stroke="black" cx="1244" cy="-2327.47" rx="22" ry="22"/>
<text text-anchor="middle" x="1244" y="-2323.77" font-family="Times,serif" font-size="14.00">4</text>
</g>
<!-- 0&#45;&gt;4 -->
<g id="edge25" class="edge">
<title>0&#45;&gt;4</title>
<path fill="none" stroke="black" d="M1469.36,-2163.25C1426.99,-2193.94 1319.36,-2271.89 1269.76,-2307.82"/>
<polygon fill="black" stroke="black" points="1267.52,-2305.11 1261.48,-2313.81 1271.63,-2310.78 1267.52,-2305.11"/>
<text text-anchor="middle" x="1395" y="-2232.77" font-family="Times,serif" font-size="14.00">0</text>
</g>
<!-- 8 -->
<g id="node10" class="node">
<title>8</title>
<ellipse fill="none" stroke="black" cx="792" cy="-835.99" rx="27" ry="18"/>
<text text-anchor="middle" x="792" y="-832.29" font-family="Times,serif" font-size="14.00">8</text>
</g>
<!-- 0&#45;&gt;8 -->
<g id="edge53" class="edge">
<title>0&#45;&gt;8</title>
<path fill="none" stroke="black" d="M1460.68,-2145.33C1368.7,-2133.85 1063.34,-2091.42 993,-2026.47 954.8,-1991.2 956,-1967.48 956,-1915.48 956,-1915.48 956,-1915.48 956,-1765.48 956,-1734.74 867.66,-1535.76 860,-1505.98 809.42,-1309.46 792,-1257.42 792,-1054.49 792,-1054.49 792,-1054.49 792,-921.99 792,-902.74 792,-881.05 792,-864.39"/>
<polygon fill="black" stroke="black" points="795.5,-864.25 792,-854.25 788.5,-864.25 795.5,-864.25"/>
<text text-anchor="middle" x="865" y="-1475.54" font-family="Times,serif" font-size="14.00">2</text>
</g>
<!-- 22 -->
<g id="node24" class="node">
<title>22</title>
<ellipse fill="none" stroke="black" cx="1047" cy="-748.99" rx="27" ry="18"/>
<text text-anchor="middle" x="1047" y="-745.29" font-family="Times,serif" font-size="14.00">22</text>
</g>
<!-- 0&#45;&gt;22 -->
<g id="edge80" class="edge">
<title>0&#45;&gt;22</title>
<path fill="none" stroke="black" d="M1484.96,-2131.23C1476.61,-2067.86 1439.67,-1844.78 1321,-1715.48 1320.15,-1714.55 1004.87,-1539.89 1004,-1538.98 965.73,-1499.12 948,-1483.24 948,-1427.99 948,-1427.99 948,-1427.99 948,-1156.99 948,-1009.27 1010.33,-839.72 1036.08,-776"/>
<polygon fill="black" stroke="black" points="1039.33,-777.28 1039.88,-766.7 1032.86,-774.63 1039.33,-777.28"/>
<text text-anchor="middle" x="954" y="-1423.29" font-family="Times,serif" font-size="14.00">4</text>
</g>
<!-- 26 -->
<g id="node28" class="node">
<title>26</title>
<ellipse fill="none" stroke="black" cx="1303" cy="-1574.98" rx="27" ry="18"/>
<text text-anchor="middle" x="1303" y="-1571.28" font-family="Times,serif" font-size="14.00">26</text>
</g>
<!-- 0&#45;&gt;26 -->
<g id="edge130" class="edge">
<title>0&#45;&gt;26</title>
<path fill="none" stroke="black" d="M1493.01,-2131.78C1498.58,-2114.82 1506,-2087.67 1506,-2063.47 1506,-2063.47 1506,-2063.47 1506,-1913.48 1506,-1876.53 1393.25,-1637.95 1368,-1610.98 1359.1,-1601.48 1347.04,-1594.01 1335.71,-1588.45"/>
<polygon fill="black" stroke="black" points="1337.01,-1585.2 1326.46,-1584.23 1334.11,-1591.57 1337.01,-1585.2"/>
<text text-anchor="middle" x="1506" y="-1858.53" font-family="Times,serif" font-size="14.00">1</text>
</g>
<!-- 1 -->
<g id="node3" class="node">
<title>1</title>
<ellipse fill="none" stroke="black" cx="1716" cy="-1292.49" rx="18" ry="18"/>
<ellipse fill="none" stroke="black" cx="1716" cy="-1292.49" rx="22" ry="22"/>
<text text-anchor="middle" x="1716" y="-1288.79" font-family="Times,serif" font-size="14.00">1</text>
</g>
<!-- 1&#45;&gt;0 -->
<g id="edge115" class="edge">
<title>1&#45;&gt;0</title>
<path fill="none" stroke="black" d="M1724.12,-1313.12C1739.99,-1352.4 1775.07,-1443.8 1792,-1523.98 1815.08,-1633.29 1840.15,-1935 1776,-2026.47 1729.97,-2092.1 1692.38,-2083.57 1618,-2113.47 1586.76,-2126.03 1549.54,-2135.48 1522.77,-2141.37"/>
<polygon fill="black" stroke="black" points="1521.75,-2138.01 1512.7,-2143.53 1523.22,-2144.86 1521.75,-2138.01"/>
<text text-anchor="middle" x="1820" y="-1719.28" font-family="Times,serif" font-size="14.00">1</text>
</g>
<!-- 11 -->
<g id="node13" class="node">
<title>11</title>
<ellipse fill="none" stroke="black" cx="1684" cy="-374.75" rx="22.96" ry="22.96"/>
<ellipse fill="none" stroke="black" cx="1684" cy="-374.75" rx="27" ry="27"/>
<text text-anchor="middle" x="1684" y="-371.05" font-family="Times,serif" font-size="14.00">11</text>
</g>
<!-- 1&#45;&gt;11 -->
<g id="edge97" class="edge">
<title>1&#45;&gt;11</title>
<path fill="none" stroke="black" d="M1738.08,-1291.48C1777.54,-1290.34 1855.09,-1282.45 1844,-1237.49 1840.85,-1224.72 1737.57,-1040.64 1734,-1027.99 1660.29,-767.15 1729.5,-688.08 1693,-419.5 1692.63,-416.78 1692.19,-413.98 1691.71,-411.17"/>
<polygon fill="black" stroke="black" points="1695.1,-410.28 1689.82,-401.09 1688.22,-411.57 1695.1,-410.28"/>
<text text-anchor="middle" x="1705" y="-832.29" font-family="Times,serif" font-size="14.00">2</text>
</g>
<!-- 14 -->
<g id="node16" class="node">
<title>14</title>
<ellipse fill="none" stroke="black" cx="578" cy="-18" rx="27" ry="18"/>
<text text-anchor="middle" x="578" y="-14.3" font-family="Times,serif" font-size="14.00">14</text>
</g>
<!-- 1&#45;&gt;14 -->
<g id="edge34" class="edge">
<title>1&#45;&gt;14</title>
<path fill="none" stroke="black" d="M1695.63,-1283.96C1616.24,-1254.01 1332,-1140.77 1332,-1054.49 1332,-1054.49 1332,-1054.49 1332,-878.49 1332,-762.97 1354,-735.02 1354,-619.49 1354,-619.49 1354,-619.49 1354,-373.75 1354,-308.79 1384.34,-278.11 1343,-228 1246.94,-111.55 754.13,-41.25 614.76,-23.48"/>
<polygon fill="black" stroke="black" points="614.96,-19.97 604.6,-22.2 614.08,-26.92 614.96,-19.97"/>
<text text-anchor="middle" x="1359" y="-658.29" font-family="Times,serif" font-size="14.00">3</text>
</g>
<!-- 20 -->
<g id="node22" class="node">
<title>20</title>
<ellipse fill="none" stroke="black" cx="1691" cy="-1201.49" rx="27" ry="18"/>
<text text-anchor="middle" x="1691" y="-1197.79" font-family="Times,serif" font-size="14.00">20</text>
</g>
<!-- 1&#45;&gt;20 -->
<g id="edge114" class="edge">
<title>1&#45;&gt;20</title>
<path fill="none" stroke="black" d="M1705.87,-1272.48C1702.93,-1266.26 1699.98,-1259.21 1698,-1252.49 1695.88,-1245.29 1694.4,-1237.31 1693.36,-1229.88"/>
<polygon fill="black" stroke="black" points="1696.83,-1229.39 1692.17,-1219.88 1689.88,-1230.22 1696.83,-1229.39"/>
<text text-anchor="middle" x="1703" y="-1241.29" font-family="Times,serif" font-size="14.00">4</text>
</g>
<!-- 1&#45;&gt;20 -->
<g id="edge136" class="edge">
<title>1&#45;&gt;20</title>
<path fill="none" stroke="black" d="M1714.38,-1270.39C1713.23,-1260.27 1711.27,-1248.08 1708,-1237.49 1707.02,-1234.33 1705.8,-1231.09 1704.45,-1227.93"/>
<polygon fill="black" stroke="black" points="1707.6,-1226.39 1700.2,-1218.8 1701.25,-1229.34 1707.6,-1226.39"/>
<text text-anchor="middle" x="1716" y="-1241.29" font-family="Times,serif" font-size="14.00">0</text>
</g>
<!-- 2 -->
<g id="node4" class="node">
<title>2</title>
<ellipse fill="none" stroke="black" cx="880" cy="-2236.47" rx="27" ry="18"/>
<text text-anchor="middle" x="880" y="-2232.77" font-family="Times,serif" font-size="14.00">2</text>
</g>
<!-- 2&#45;&gt;0 -->
<g id="edge118" class="edge">
<title>2&#45;&gt;0</title>
<path fill="none" stroke="black" d="M906.47,-2231.76C1003.4,-2218.19 1339.11,-2171.18 1450.65,-2155.56"/>
<polygon fill="black" stroke="black" points="1451.31,-2159 1460.73,-2154.15 1450.34,-2152.07 1451.31,-2159"/>
<text text-anchor="middle" x="1225" y="-2189.27" font-family="Times,serif" font-size="14.00">1</text>
</g>
<!-- 2&#45;&gt;2 -->
<g id="edge32" class="edge">
<title>2&#45;&gt;2</title>
<path fill="none" stroke="black" d="M904.53,-2244.22C915.51,-2244.96 925,-2242.38 925,-2236.47 925,-2232.5 920.72,-2230.03 914.57,-2229.07"/>
<polygon fill="black" stroke="black" points="914.65,-2225.57 904.53,-2228.72 914.41,-2232.56 914.65,-2225.57"/>
<text text-anchor="middle" x="930" y="-2232.77" font-family="Times,serif" font-size="14.00">3</text>
</g>
<!-- 7 -->
<g id="node9" class="node">
<title>7</title>
<ellipse fill="none" stroke="black" cx="1474" cy="-922.99" rx="27" ry="18"/>
<text text-anchor="middle" x="1474" y="-919.29" font-family="Times,serif" font-size="14.00">7</text>
</g>
<!-- 2&#45;&gt;7 -->
<g id="edge73" class="edge">
<title>2&#45;&gt;7</title>
<path fill="none" stroke="black" d="M868.39,-2220.1C857.22,-2203.74 842,-2176.66 842,-2150.47 842,-2150.47 842,-2150.47 842,-2017.97 842,-1886.78 967.86,-1912.58 1074,-1835.48 1209.44,-1737.11 1304.85,-1771.84 1387,-1625.98 1488.96,-1444.96 1408,-1366.75 1408,-1158.99 1408,-1158.99 1408,-1158.99 1408,-1008.99 1408,-981.93 1429.12,-958.29 1447.47,-942.85"/>
<polygon fill="black" stroke="black" points="1449.98,-945.33 1455.62,-936.36 1445.61,-939.85 1449.98,-945.33"/>
<text text-anchor="middle" x="1424" y="-1571.28" font-family="Times,serif" font-size="14.00">0</text>
</g>
<!-- 2&#45;&gt;8 -->
<g id="edge50" class="edge">
<title>2&#45;&gt;8</title>
<path fill="none" stroke="black" d="M856.76,-2226.82C828.35,-2214.55 784,-2189.21 784,-2150.47 784,-2150.47 784,-2150.47 784,-1617.48 784,-1568.67 750.61,-1449.85 744,-1401.49 738.74,-1363.02 737.78,-1353.28 736,-1314.49 732.66,-1241.67 729.92,-1222.93 738,-1150.49 749.93,-1043.46 775.02,-917.59 786.3,-863.68"/>
<polygon fill="black" stroke="black" points="789.72,-864.39 788.36,-853.88 782.87,-862.95 789.72,-864.39"/>
<text text-anchor="middle" x="778" y="-1527.78" font-family="Times,serif" font-size="14.00">2</text>
</g>
<!-- 2&#45;&gt;11 -->
<g id="edge111" class="edge">
<title>2&#45;&gt;11</title>
<path fill="none" stroke="black" d="M907.15,-2234.33C1042.34,-2228.16 1641.87,-2194.6 1781,-2080.47 1862.98,-2013.22 1974,-1784.95 1974,-1723.98 1974,-1723.98 1974,-1723.98 1974,-1530.48 1974,-1374.27 1951.29,-1336.12 1918,-1183.49 1880.47,-1011.4 1771.8,-583.28 1707,-419.5 1705.44,-415.55 1703.62,-411.49 1701.7,-407.51"/>
<polygon fill="black" stroke="black" points="1704.76,-405.81 1697.13,-398.47 1698.52,-408.97 1704.76,-405.81"/>
<text text-anchor="middle" x="1954" y="-1288.79" font-family="Times,serif" font-size="14.00">4</text>
</g>
<!-- 3&#45;&gt;0 -->
<g id="edge29" class="edge">
<title>3&#45;&gt;0</title>
<path fill="none" stroke="black" d="M1335.46,-2073.61C1349.24,-2080.3 1367.41,-2089.47 1383,-2098.47 1393.57,-2104.57 1395.25,-2107.7 1406,-2113.47 1421.61,-2121.86 1439.65,-2129.81 1454.74,-2136.01"/>
<polygon fill="black" stroke="black" points="1453.59,-2139.32 1464.17,-2139.82 1456.21,-2132.83 1453.59,-2139.32"/>
<text text-anchor="middle" x="1411" y="-2102.27" font-family="Times,serif" font-size="14.00">1</text>
</g>
<!-- 3&#45;&gt;1 -->
<g id="edge129" class="edge">
<title>3&#45;&gt;1</title>
<path fill="none" stroke="black" d="M1333.69,-2049.68C1383.26,-2018.78 1513.22,-1930.02 1569,-1817.48 1668.41,-1616.9 1644.39,-1547.99 1705,-1332.49 1705.79,-1329.69 1706.6,-1326.79 1707.42,-1323.88"/>
<polygon fill="black" stroke="black" points="1710.83,-1324.71 1710.17,-1314.13 1704.09,-1322.81 1710.83,-1324.71"/>
<text text-anchor="middle" x="1641" y="-1667.03" font-family="Times,serif" font-size="14.00">2</text>
</g>
<!-- 9 -->
<g id="node11" class="node">
<title>9</title>
<ellipse fill="none" stroke="black" cx="553" cy="-1383.49" rx="27" ry="18"/>
<text text-anchor="middle" x="553" y="-1379.79" font-family="Times,serif" font-size="14.00">9</text>
</g>
<!-- 3&#45;&gt;9 -->
<g id="edge47" class="edge">
<title>3&#45;&gt;9</title>
<path fill="none" stroke="black" d="M1287.4,-2058.91C1216.85,-2052.04 1029.57,-2033.27 1018,-2026.47 885.51,-1948.7 630.44,-1518.3 567.37,-1409.48"/>
<polygon fill="black" stroke="black" points="570.23,-1407.43 562.19,-1400.53 564.17,-1410.94 570.23,-1407.43"/>
<text text-anchor="middle" x="771" y="-1719.28" font-family="Times,serif" font-size="14.00">3</text>
</g>
<!-- 17 -->
<g id="node19" class="node">
<title>17</title>
<ellipse fill="none" stroke="black" cx="1679" cy="-1966.72" rx="22.96" ry="22.96"/>
<ellipse fill="none" stroke="black" cx="1679" cy="-1966.72" rx="27" ry="27"/>
<text text-anchor="middle" x="1679" y="-1963.02" font-family="Times,serif" font-size="14.00">17</text>
</g>
<!-- 3&#45;&gt;17 -->
<g id="edge3" class="edge">
<title>3&#45;&gt;17</title>
<path fill="none" stroke="black" d="M1338.8,-2055.1C1402.09,-2038.85 1569.78,-1995.78 1643.44,-1976.86"/>
<polygon fill="black" stroke="black" points="1644.38,-1980.23 1653.19,-1974.35 1642.64,-1973.45 1644.38,-1980.23"/>
<text text-anchor="middle" x="1513" y="-2015.27" font-family="Times,serif" font-size="14.00">0</text>
</g>
<!-- 3&#45;&gt;29 -->
<g id="edge21" class="edge">
<title>3&#45;&gt;29</title>
<path fill="none" stroke="black" d="M1322.38,-2079.87C1328.42,-2090.45 1337.34,-2103.97 1348,-2113.47 1386.58,-2147.87 1404.87,-2144.15 1451,-2167.47 1632.45,-2259.22 1852.66,-2364.53 1932.87,-2402.7"/>
<polygon fill="black" stroke="black" points="1931.85,-2406.08 1942.38,-2407.22 1934.86,-2399.76 1931.85,-2406.08"/>
<text text-anchor="middle" x="1629" y="-2232.77" font-family="Times,serif" font-size="14.00">4</text>
</g>
<!-- 4&#45;&gt;2 -->
<g id="edge18" class="edge">
<title>4&#45;&gt;2</title>
<path fill="none" stroke="black" d="M1222.86,-2321.3C1162.57,-2306.56 989.39,-2264.22 914.83,-2245.99"/>
<polygon fill="black" stroke="black" points="915.53,-2242.56 904.98,-2243.58 913.87,-2249.36 915.53,-2242.56"/>
<text text-anchor="middle" x="1089" y="-2276.27" font-family="Times,serif" font-size="14.00">3</text>
</g>
<!-- 10 -->
<g id="node12" class="node">
<title>10</title>
<ellipse fill="none" stroke="black" cx="662" cy="-1766.48" rx="27" ry="18"/>
<text text-anchor="middle" x="662" y="-1762.78" font-family="Times,serif" font-size="14.00">10</text>
</g>
<!-- 4&#45;&gt;10 -->
<g id="edge51" class="edge">
<title>4&#45;&gt;10</title>
<path fill="none" stroke="black" d="M1221.9,-2325.47C1115.59,-2320.37 662,-2295.22 662,-2237.47 662,-2237.47 662,-2237.47 662,-1861.23 662,-1838.91 662,-1813.61 662,-1794.93"/>
<polygon fill="black" stroke="black" points="665.5,-1794.76 662,-1784.76 658.5,-1794.76 665.5,-1794.76"/>
<text text-anchor="middle" x="667" y="-2058.77" font-family="Times,serif" font-size="14.00">1</text>
</g>
<!-- 19 -->
<g id="node21" class="node">
<title>19</title>
<ellipse fill="none" stroke="black" cx="994" cy="-374.75" rx="27" ry="18"/>
<text text-anchor="middle" x="994" y="-371.05" font-family="Times,serif" font-size="14.00">19</text>
</g>
<!-- 4&#45;&gt;19 -->
<g id="edge23" class="edge">
<title>4&#45;&gt;19</title>
<path fill="none" stroke="black" d="M1266.15,-2326.1C1380.78,-2324.07 1903.88,-2313.44 1971,-2287.47 2077.29,-2246.36 2324,-2029.44 2324,-1915.48 2324,-1915.48 2324,-1915.48 2324,-1338.99 2324,-1279.38 2290.81,-1128.76 2258,-1078.99 2245.12,-1059.46 2235.84,-1059.85 2217,-1045.99 2147.06,-994.56 1649.53,-640.81 1568,-610.99 1499.96,-586.11 1474.48,-616.63 1406,-592.99 1293.85,-554.27 1284.58,-506.63 1179,-452.5 1127.3,-425.99 1064.29,-401.39 1026.75,-387.5"/>
<polygon fill="black" stroke="black" points="1027.91,-384.2 1017.32,-384.04 1025.5,-390.77 1027.91,-384.2"/>
<text text-anchor="middle" x="2329" y="-1336.29" font-family="Times,serif" font-size="14.00">0</text>
</g>
<!-- 24 -->
<g id="node26" class="node">
<title>24</title>
<ellipse fill="none" stroke="black" cx="2029" cy="-1105.74" rx="22.96" ry="22.96"/>
<ellipse fill="none" stroke="black" cx="2029" cy="-1105.74" rx="27" ry="27"/>
<text text-anchor="middle" x="2029" y="-1102.04" font-family="Times,serif" font-size="14.00">24</text>
</g>
<!-- 4&#45;&gt;24 -->
<g id="edge122" class="edge">
<title>4&#45;&gt;24</title>
<path fill="none" stroke="black" d="M1266.05,-2325.82C1358.88,-2322.95 1718.27,-2310.55 1829,-2287.47 1896.22,-2273.46 1952,-2262.64 1952,-2193.97 1952,-2193.97 1952,-2193.97 1952,-2017.97 1952,-1898.43 2050,-1887.03 2050,-1767.48 2050,-1767.48 2050,-1767.48 2050,-1530.48 2050,-1446.19 2058,-1425.28 2058,-1340.99 2058,-1340.99 2058,-1340.99 2058,-1200.49 2058,-1179.5 2051.28,-1157 2044.32,-1139.31"/>
<polygon fill="black" stroke="black" points="2047.53,-1137.91 2040.46,-1130.01 2041.06,-1140.59 2047.53,-1137.91"/>
<text text-anchor="middle" x="2055" y="-1719.28" font-family="Times,serif" font-size="14.00">4</text>
</g>
<!-- 27 -->
<g id="node29" class="node">
<title>27</title>
<ellipse fill="none" stroke="black" cx="2104" cy="-1862.23" rx="22.96" ry="22.96"/>
<ellipse fill="none" stroke="black" cx="2104" cy="-1862.23" rx="27" ry="27"/>
<text text-anchor="middle" x="2104" y="-1858.53" font-family="Times,serif" font-size="14.00">27</text>
</g>
<!-- 4&#45;&gt;27 -->
<g id="edge33" class="edge">
<title>4&#45;&gt;27</title>
<path fill="none" stroke="black" d="M1266.29,-2326.66C1380.42,-2327.41 1896.15,-2328.51 1953,-2287.47 1965.78,-2278.25 1960.95,-2269.41 1966,-2254.47 2001.95,-2148.11 1995.86,-2116.7 2035,-2011.47 2050.27,-1970.42 2072.2,-1925 2087.21,-1895.39"/>
<polygon fill="black" stroke="black" points="2090.4,-1896.85 2091.83,-1886.36 2084.16,-1893.67 2090.4,-1896.85"/>
<text text-anchor="middle" x="2012" y="-2102.27" font-family="Times,serif" font-size="14.00">2</text>
</g>
<!-- 5 -->
<g id="node7" class="node">
<title>5</title>
<ellipse fill="none" stroke="black" cx="1240" cy="-279" rx="27" ry="18"/>
<text text-anchor="middle" x="1240" y="-275.3" font-family="Times,serif" font-size="14.00">5</text>
</g>
<!-- 5&#45;&gt;0 -->
<g id="edge27" class="edge">
<title>5&#45;&gt;0</title>
<path fill="none" stroke="black" d="M1266.13,-284.5C1321.36,-293.89 1454.09,-315.89 1566,-330 1606.32,-335.08 1715.45,-323.66 1748,-348 1787.96,-377.87 1774.24,-404.84 1789,-452.5 1831.71,-590.37 1832.58,-627.59 1870,-766.99 1878.14,-797.3 1889,-803.61 1889,-834.99 1889,-1010.99 1889,-1010.99 1889,-1010.99 1889,-1242.82 1936,-1298.66 1936,-1530.48 1936,-1723.98 1936,-1723.98 1936,-1723.98 1936,-1740.44 1820.53,-1978.84 1813,-1993.47 1805.26,-2008.52 1803.44,-2012.43 1794,-2026.47 1777.04,-2051.71 1776.82,-2062.91 1752,-2080.47 1715.09,-2106.59 1586.49,-2131.47 1523.01,-2142.51"/>
<polygon fill="black" stroke="black" points="1522.31,-2139.08 1513.04,-2144.22 1523.49,-2145.98 1522.31,-2139.08"/>
<text text-anchor="middle" x="1909" y="-1197.79" font-family="Times,serif" font-size="14.00">1</text>
</g>
<!-- 5&#45;&gt;4 -->
<g id="edge20" class="edge">
<title>5&#45;&gt;4</title>
<path fill="none" stroke="black" d="M1212.75,-279.36C1125.51,-278.09 846.19,-279.95 629,-348 443.19,-406.21 376.22,-462.38 306,-643.99 266.47,-746.22 283.94,-779.22 264,-886.99 204.3,-1209.74 106.34,-1313.99 165,-1505.98 177.25,-1546.09 334.85,-1796.01 349,-1835.48 376.8,-1913.07 382,-1935.55 382,-2017.97 382,-2237.47 382,-2237.47 382,-2237.47 382,-2271.17 407.76,-2274.84 439,-2287.47 511.46,-2316.77 1070.63,-2324.63 1211.74,-2326.16"/>
<polygon fill="black" stroke="black" points="1211.87,-2329.66 1221.9,-2326.27 1211.94,-2322.66 1211.87,-2329.66"/>
<text text-anchor="middle" x="169" y="-1288.79" font-family="Times,serif" font-size="14.00">0</text>
</g>
<!-- 5&#45;&gt;22 -->
<g id="edge148" class="edge">
<title>5&#45;&gt;22</title>
<path fill="none" stroke="black" d="M1233.21,-296.46C1204.53,-366.01 1093.08,-636.25 1057.79,-721.84"/>
<polygon fill="black" stroke="black" points="1054.45,-720.76 1053.87,-731.34 1060.92,-723.43 1054.45,-720.76"/>
<text text-anchor="middle" x="1145" y="-527.79" font-family="Times,serif" font-size="14.00">3</text>
</g>
<!-- 25 -->
<g id="node27" class="node">
<title>25</title>
<ellipse fill="none" stroke="black" cx="1183" cy="-1479.24" rx="22.96" ry="22.96"/>
<ellipse fill="none" stroke="black" cx="1183" cy="-1479.24" rx="27" ry="27"/>
<text text-anchor="middle" x="1183" y="-1475.54" font-family="Times,serif" font-size="14.00">25</text>
</g>
<!-- 5&#45;&gt;25 -->
<g id="edge149" class="edge">
<title>5&#45;&gt;25</title>
<path fill="none" stroke="black" d="M1238.54,-297.21C1229.02,-410.32 1176,-1048.59 1176,-1243.99 1176,-1384.49 1176,-1384.49 1176,-1384.49 1176,-1403.55 1177.46,-1424.72 1179.04,-1442.12"/>
<polygon fill="black" stroke="black" points="1175.59,-1442.79 1180.03,-1452.41 1182.56,-1442.12 1175.59,-1442.79"/>
<text text-anchor="middle" x="1200" y="-875.79" font-family="Times,serif" font-size="14.00">4</text>
</g>
<!-- 5&#45;&gt;29 -->
<g id="edge7" class="edge">
<title>5&#45;&gt;29</title>
<path fill="none" stroke="black" d="M1266.52,-283.15C1317.17,-289.17 1431.14,-302.83 1527,-315 1530.47,-315.44 1773.86,-346.46 1777,-348 1855.7,-386.65 1987.66,-572.33 2057,-625.99 2166.53,-710.76 2232.54,-681.88 2325,-784.99 2438.09,-911.11 2408,-987.59 2408,-1156.99 2408,-2328.47 2408,-2328.47 2408,-2328.47 2408,-2411.13 2108.43,-2418.04 2001.43,-2417.88"/>
<polygon fill="black" stroke="black" points="2001.12,-2414.38 1991.11,-2417.84 2001.09,-2421.38 2001.12,-2414.38"/>
<text text-anchor="middle" x="2413" y="-1336.29" font-family="Times,serif" font-size="14.00">2</text>
</g>
<!-- 6 -->
<g id="node8" class="node">
<title>6</title>
<ellipse fill="none" stroke="black" cx="978" cy="-661.99" rx="27" ry="18"/>
<text text-anchor="middle" x="978" y="-658.29" font-family="Times,serif" font-size="14.00">6</text>
</g>
<!-- 6&#45;&gt;1 -->
<g id="edge109" class="edge">
<title>6&#45;&gt;1</title>
<path fill="none" stroke="black" d="M1002.52,-669.8C1095.96,-695.89 1426.47,-789.41 1466,-817.99 1528.68,-863.31 1538.57,-887.46 1568,-958.99 1603.48,-1045.22 1559.63,-1084.03 1605,-1165.49 1628.17,-1207.08 1666.96,-1246.89 1692,-1270.26"/>
<polygon fill="black" stroke="black" points="1689.88,-1273.06 1699.61,-1277.25 1694.62,-1267.91 1689.88,-1273.06"/>
<text text-anchor="middle" x="1579" y="-962.79" font-family="Times,serif" font-size="14.00">4</text>
</g>
<!-- 12 -->
<g id="node14" class="node">
<title>12</title>
<ellipse fill="none" stroke="black" cx="535" cy="-105" rx="27" ry="18"/>
<text text-anchor="middle" x="535" y="-101.3" font-family="Times,serif" font-size="14.00">12</text>
</g>
<!-- 6&#45;&gt;12 -->
<g id="edge67" class="edge">
<title>6&#45;&gt;12</title>
<path fill="none" stroke="black" d="M951.15,-659.52C901.57,-656.31 798.14,-647.21 770,-625.99 640.64,-528.44 677.43,-445.65 613,-297 583.39,-228.69 581.84,-209.2 552,-141 550.65,-137.91 549.17,-134.68 547.68,-131.51"/>
<polygon fill="black" stroke="black" points="550.72,-129.75 543.23,-122.26 544.41,-132.78 550.72,-129.75"/>
<text text-anchor="middle" x="653" y="-371.05" font-family="Times,serif" font-size="14.00">1</text>
</g>
<!-- 16 -->
<g id="node18" class="node">
<title>16</title>
<ellipse fill="none" stroke="black" cx="1630" cy="-279" rx="27" ry="18"/>
<text text-anchor="middle" x="1630" y="-275.3" font-family="Times,serif" font-size="14.00">16</text>
</g>
<!-- 6&#45;&gt;16 -->
<g id="edge121" class="edge">
<title>6&#45;&gt;16</title>
<path fill="none" stroke="black" d="M988.87,-645.48C1003.85,-624.52 1032.18,-586.38 1060,-556.99 1123.54,-489.88 1139.77,-471.75 1216,-419.5 1299.05,-362.57 1321.46,-346.78 1417,-315 1476.79,-295.11 1549.92,-286.25 1593.08,-282.51"/>
<polygon fill="black" stroke="black" points="1593.44,-285.99 1603.12,-281.69 1592.87,-279.02 1593.44,-285.99"/>
<text text-anchor="middle" x="1175" y="-475.54" font-family="Times,serif" font-size="14.00">2</text>
</g>
<!-- 6&#45;&gt;22 -->
<g id="edge55" class="edge">
<title>6&#45;&gt;22</title>
<path fill="none" stroke="black" d="M974.21,-679.98C972.86,-690.28 972.93,-703.27 979,-712.99 986.5,-725.02 999.58,-733.1 1012.27,-738.44"/>
<polygon fill="black" stroke="black" points="1011.21,-741.78 1021.8,-742.01 1013.66,-735.23 1011.21,-741.78"/>
<text text-anchor="middle" x="984" y="-701.79" font-family="Times,serif" font-size="14.00">0</text>
</g>
<!-- 23 -->
<g id="node25" class="node">
<title>23</title>
<ellipse fill="none" stroke="black" cx="434" cy="-574.99" rx="27" ry="18"/>
<text text-anchor="middle" x="434" y="-571.29" font-family="Times,serif" font-size="14.00">23</text>
</g>
<!-- 6&#45;&gt;23 -->
<g id="edge95" class="edge">
<title>6&#45;&gt;23</title>
<path fill="none" stroke="black" d="M951.52,-658.46C900.41,-653.43 784.67,-641.32 688,-625.99 609.43,-613.53 518.07,-594.4 469.18,-583.78"/>
<polygon fill="black" stroke="black" points="469.64,-580.3 459.13,-581.58 468.15,-587.13 469.64,-580.3"/>
<text text-anchor="middle" x="693" y="-614.79" font-family="Times,serif" font-size="14.00">3</text>
</g>
<!-- 7&#45;&gt;0 -->
<g id="edge103" class="edge">
<title>7&#45;&gt;0</title>
<path fill="none" stroke="black" d="M1477.77,-941.12C1490.47,-999.87 1531.68,-1198.72 1545,-1365.49 1556.78,-1512.89 1555.77,-1553.28 1523,-1697.48 1508.67,-1760.52 1490.13,-1772.18 1477,-1835.48 1453.17,-1950.37 1459.12,-1981.25 1454,-2098.47 1453.71,-2105.13 1451.54,-2107.28 1454,-2113.47 1456.08,-2118.71 1459.36,-2123.62 1463.06,-2128.01"/>
<polygon fill="black" stroke="black" points="1460.57,-2130.48 1470,-2135.31 1465.64,-2125.65 1460.57,-2130.48"/>
<text text-anchor="middle" x="1557" y="-1527.78" font-family="Times,serif" font-size="14.00">2</text>
</g>
<!-- 7&#45;&gt;3 -->
<g id="edge70" class="edge">
<title>7&#45;&gt;3</title>
<path fill="none" stroke="black" d="M1465.29,-940.09C1457.07,-956.81 1446,-983.98 1446,-1008.99 1446,-1158.99 1446,-1158.99 1446,-1158.99 1446,-1281.89 1518,-1303.08 1518,-1425.99 1518,-1619.48 1518,-1619.48 1518,-1619.48 1518,-1709.83 1375.7,-1957.57 1328.8,-2036.77"/>
<polygon fill="black" stroke="black" points="1325.67,-2035.19 1323.57,-2045.58 1331.68,-2038.77 1325.67,-2035.19"/>
<text text-anchor="middle" x="1523" y="-1475.54" font-family="Times,serif" font-size="14.00">4</text>
</g>
<!-- 7&#45;&gt;8 -->
<g id="edge10" class="edge">
<title>7&#45;&gt;8</title>
<path fill="none" stroke="black" d="M1447.34,-919.35C1392.28,-913.83 1262.04,-900.49 1153,-886.99 1034.04,-872.27 893.44,-851.95 828.38,-842.39"/>
<polygon fill="black" stroke="black" points="828.64,-838.89 818.24,-840.89 827.62,-845.81 828.64,-838.89"/>
<text text-anchor="middle" x="1158" y="-875.79" font-family="Times,serif" font-size="14.00">3</text>
</g>
<!-- 7&#45;&gt;17 -->
<g id="edge82" class="edge">
<title>7&#45;&gt;17</title>
<path fill="none" stroke="black" d="M1485.33,-939.83C1492.8,-949.94 1503.02,-963.13 1513,-973.99 1644.16,-1116.78 1755.4,-1092.81 1833,-1270.49 1938.91,-1513.01 1760.02,-1836.07 1698.57,-1935.4"/>
<polygon fill="black" stroke="black" points="1695.5,-1933.7 1693.17,-1944.03 1701.44,-1937.41 1695.5,-1933.7"/>
<text text-anchor="middle" x="1870" y="-1423.29" font-family="Times,serif" font-size="14.00">0</text>
</g>
<!-- 18 -->
<g id="node20" class="node">
<title>18</title>
<ellipse fill="none" stroke="black" cx="1430" cy="-835.99" rx="27" ry="18"/>
<text text-anchor="middle" x="1430" y="-832.29" font-family="Times,serif" font-size="14.00">18</text>
</g>
<!-- 7&#45;&gt;18 -->
<g id="edge17" class="edge">
<title>7&#45;&gt;18</title>
<path fill="none" stroke="black" d="M1465.52,-905.6C1459.19,-893.37 1450.42,-876.43 1443.18,-862.45"/>
<polygon fill="black" stroke="black" points="1446.16,-860.6 1438.46,-853.33 1439.95,-863.82 1446.16,-860.6"/>
<text text-anchor="middle" x="1460" y="-875.79" font-family="Times,serif" font-size="14.00">1</text>
</g>
<!-- 8&#45;&gt;3 -->
<g id="edge89" class="edge">
<title>8&#45;&gt;3</title>
<path fill="none" stroke="black" d="M803.61,-852.36C814.78,-868.72 830,-895.81 830,-921.99 830,-1054.49 830,-1054.49 830,-1054.49 830,-1271.87 837.38,-1329.94 897,-1538.98 906.6,-1572.66 915.49,-1578.68 929,-1610.98 948.25,-1657.01 952.97,-1668.59 970,-1715.48 1019.74,-1852.47 962.2,-1932.98 1074,-2026.47 1089.34,-2039.3 1214.02,-2052.36 1277.36,-2058.24"/>
<polygon fill="black" stroke="black" points="1277.06,-2061.73 1287.33,-2059.16 1277.69,-2054.76 1277.06,-2061.73"/>
<text text-anchor="middle" x="874" y="-1423.29" font-family="Times,serif" font-size="14.00">0</text>
</g>
<!-- 8&#45;&gt;9 -->
<g id="edge91" class="edge">
<title>8&#45;&gt;9</title>
<path fill="none" stroke="black" d="M769.33,-845.91C756.92,-851.76 742.08,-860.46 732,-871.99 666.44,-947.01 678.08,-984.68 646,-1078.99 606.21,-1195.96 622.25,-1233.75 574,-1347.49 572.53,-1350.95 570.77,-1354.49 568.89,-1357.91"/>
<polygon fill="black" stroke="black" points="565.84,-1356.21 563.81,-1366.6 571.88,-1359.74 565.84,-1356.21"/>
<text text-anchor="middle" x="651" y="-1102.04" font-family="Times,serif" font-size="14.00">1</text>
</g>
<!-- 8&#45;&gt;14 -->
<g id="edge65" class="edge">
<title>8&#45;&gt;14</title>
<path fill="none" stroke="black" d="M765.83,-831.15C741.54,-826.66 705.15,-817.49 678,-799.99 524.11,-700.79 501,-611.09 501,-428 501,-428 501,-428 501,-234.5 501,-175.99 552.93,-178.65 571,-123 579.17,-97.82 580.29,-67.46 579.75,-46.06"/>
<polygon fill="black" stroke="black" points="583.25,-45.9 579.36,-36.05 576.25,-46.18 583.25,-45.9"/>
<text text-anchor="middle" x="507" y="-423.3" font-family="Times,serif" font-size="14.00">2</text>
</g>
<!-- 8&#45;&gt;19 -->
<g id="edge128" class="edge">
<title>8&#45;&gt;19</title>
<path fill="none" stroke="black" d="M792,-817.74C792,-800.56 792,-773.46 792,-749.99 792,-749.99 792,-749.99 792,-478.24 792,-405.13 898.55,-384.15 956.88,-378.15"/>
<polygon fill="black" stroke="black" points="957.54,-381.6 967.18,-377.19 956.9,-374.63 957.54,-381.6"/>
<text text-anchor="middle" x="797" y="-614.79" font-family="Times,serif" font-size="14.00">4</text>
</g>
<!-- 8&#45;&gt;25 -->
<g id="edge96" class="edge">
<title>8&#45;&gt;25</title>
<path fill="none" stroke="black" d="M817.79,-841.44C837.55,-846.04 864.34,-855.04 882,-871.99 912.44,-901.21 904.6,-919.71 920,-958.99 960.85,-1063.19 1010.4,-1351.96 1086,-1434.49 1102.19,-1452.16 1126.89,-1463.16 1147.32,-1469.71"/>
<polygon fill="black" stroke="black" points="1146.36,-1473.08 1156.94,-1472.58 1148.36,-1466.37 1146.36,-1473.08"/>
<text text-anchor="middle" x="985" y="-1154.29" font-family="Times,serif" font-size="14.00">3</text>
</g>
<!-- 9&#45;&gt;1 -->
<g id="edge93" class="edge">
<title>9&#45;&gt;1</title>
<path fill="none" stroke="black" d="M579.76,-1380.44C734.68,-1368.58 1515.65,-1308.82 1683.99,-1295.94"/>
<polygon fill="black" stroke="black" points="1684.26,-1299.43 1693.97,-1295.17 1683.73,-1292.45 1684.26,-1299.43"/>
<text text-anchor="middle" x="1210" y="-1336.29" font-family="Times,serif" font-size="14.00">4</text>
</g>
<!-- 9&#45;&gt;4 -->
<g id="edge94" class="edge">
<title>9&#45;&gt;4</title>
<path fill="none" stroke="black" d="M535.31,-1397.39C501.11,-1423.39 426.14,-1485.69 390,-1556.98 333.11,-1669.22 350.38,-1710.16 339,-1835.48 334.45,-1885.6 331.92,-2252.39 368,-2287.47 398.81,-2317.43 1056.95,-2324.88 1211.65,-2326.22"/>
<polygon fill="black" stroke="black" points="1211.88,-2329.72 1221.9,-2326.31 1211.93,-2322.72 1211.88,-2329.72"/>
<text text-anchor="middle" x="344" y="-1858.53" font-family="Times,serif" font-size="14.00">3</text>
</g>
<!-- 9&#45;&gt;6 -->
<g id="edge8" class="edge">
<title>9&#45;&gt;6</title>
<path fill="none" stroke="black" d="M552.18,-1365.49C549.48,-1289.53 548.96,-977.98 711,-817.99 782.27,-747.62 891.76,-697.4 945.7,-675.4"/>
<polygon fill="black" stroke="black" points="947.12,-678.6 955.1,-671.62 944.52,-672.1 947.12,-678.6"/>
<text text-anchor="middle" x="610" y="-1006.29" font-family="Times,serif" font-size="14.00">0</text>
</g>
<!-- 9&#45;&gt;9 -->
<g id="edge88" class="edge">
<title>9&#45;&gt;9</title>
<path fill="none" stroke="black" d="M577.53,-1391.24C588.51,-1391.98 598,-1389.39 598,-1383.49 598,-1379.52 593.72,-1377.05 587.57,-1376.08"/>
<polygon fill="black" stroke="black" points="587.65,-1372.58 577.53,-1375.74 587.41,-1379.58 587.65,-1372.58"/>
<text text-anchor="middle" x="603" y="-1379.79" font-family="Times,serif" font-size="14.00">2</text>
</g>
<!-- 21 -->
<g id="node23" class="node">
<title>21</title>
<ellipse fill="none" stroke="black" cx="944" cy="-192" rx="27" ry="18"/>
<text text-anchor="middle" x="944" y="-188.3" font-family="Times,serif" font-size="14.00">21</text>
</g>
<!-- 9&#45;&gt;21 -->
<g id="edge49" class="edge">
<title>9&#45;&gt;21</title>
<path fill="none" stroke="black" d="M547.3,-1365.72C528.87,-1309.9 472,-1124.95 472,-967.49 472,-967.49 472,-967.49 472,-704.49 472,-610.68 556.81,-620.64 603,-538.99 630.94,-489.6 614.16,-465.05 648,-419.5 722.93,-318.63 854.5,-240.46 913.67,-208.59"/>
<polygon fill="black" stroke="black" points="915.67,-211.49 922.86,-203.71 912.38,-205.31 915.67,-211.49"/>
<text text-anchor="middle" x="477" y="-788.79" font-family="Times,serif" font-size="14.00">1</text>
</g>
<!-- 10&#45;&gt;2 -->
<g id="edge68" class="edge">
<title>10&#45;&gt;2</title>
<path fill="none" stroke="black" d="M672.79,-1783.28C684.02,-1801.31 700,-1832.07 700,-1861.23 700,-2150.47 700,-2150.47 700,-2150.47 700,-2213.16 790.39,-2229.69 843.06,-2234"/>
<polygon fill="black" stroke="black" points="842.83,-2237.49 853.05,-2234.7 843.32,-2230.51 842.83,-2237.49"/>
<text text-anchor="middle" x="705" y="-2015.27" font-family="Times,serif" font-size="14.00">0</text>
</g>
<!-- 10&#45;&gt;8 -->
<g id="edge83" class="edge">
<title>10&#45;&gt;8</title>
<path fill="none" stroke="black" d="M639.71,-1756.05C617.82,-1745.42 585.78,-1725.84 572,-1697.48 506.63,-1562.96 502.42,-1514.34 517,-1365.49 538.21,-1148.97 553.01,-1079.45 683,-904.99 695.39,-888.36 698.98,-883.85 716,-871.99 723.69,-866.63 742.95,-857.78 760.16,-850.32"/>
<polygon fill="black" stroke="black" points="761.61,-853.5 769.42,-846.35 758.85,-847.07 761.61,-853.5"/>
<text text-anchor="middle" x="533" y="-1288.79" font-family="Times,serif" font-size="14.00">3</text>
</g>
<!-- 10&#45;&gt;9 -->
<g id="edge116" class="edge">
<title>10&#45;&gt;9</title>
<path fill="none" stroke="black" d="M640.61,-1755.19C630.67,-1749.32 619.62,-1741.01 613,-1730.48 547.97,-1627.01 547.99,-1473.43 551.06,-1411.66"/>
<polygon fill="black" stroke="black" points="554.57,-1411.74 551.64,-1401.56 547.58,-1411.35 554.57,-1411.74"/>
<text text-anchor="middle" x="568" y="-1571.28" font-family="Times,serif" font-size="14.00">4</text>
</g>
<!-- 13 -->
<g id="node15" class="node">
<title>13</title>
<ellipse fill="none" stroke="black" cx="463" cy="-1670.73" rx="22.96" ry="22.96"/>
<ellipse fill="none" stroke="black" cx="463" cy="-1670.73" rx="27" ry="27"/>
<text text-anchor="middle" x="463" y="-1667.03" font-family="Times,serif" font-size="14.00">13</text>
</g>
<!-- 10&#45;&gt;13 -->
<g id="edge78" class="edge">
<title>10&#45;&gt;13</title>
<path fill="none" stroke="black" d="M636.07,-1761.17C599.8,-1754.83 536.11,-1742.43 516,-1730.48 503.67,-1723.16 492.58,-1712.04 483.78,-1701.43"/>
<polygon fill="black" stroke="black" points="486.45,-1699.17 477.5,-1693.5 480.96,-1703.51 486.45,-1699.17"/>
<text text-anchor="middle" x="521" y="-1719.28" font-family="Times,serif" font-size="14.00">2</text>
</g>
<!-- 10&#45;&gt;29 -->
<g id="edge30" class="edge">
<title>10&#45;&gt;29</title>
<path fill="none" stroke="black" d="M641.58,-1778.46C565.94,-1820.8 306,-1981.57 306,-2191.97 306,-2328.47 306,-2328.47 306,-2328.47 306,-2412.49 1681.33,-2417.29 1926.76,-2417.48"/>
<polygon fill="black" stroke="black" points="1926.94,-2420.98 1936.95,-2417.48 1926.95,-2413.98 1926.94,-2420.98"/>
<text text-anchor="middle" x="328" y="-2102.27" font-family="Times,serif" font-size="14.00">1</text>
</g>
<!-- 11&#45;&gt;1 -->
<g id="edge145" class="edge">
<title>11&#45;&gt;1</title>
<path fill="none" stroke="black" d="M1682.05,-401.43C1680.65,-422.15 1679,-452.06 1679,-478.24 1679,-880.49 1679,-880.49 1679,-880.49 1679,-1016.84 1716.3,-1047.56 1727,-1183.49 1729.41,-1214.07 1729.39,-1222.12 1725,-1252.49 1724.6,-1255.23 1724.11,-1258.06 1723.56,-1260.9"/>
<polygon fill="black" stroke="black" points="1720.08,-1260.45 1721.41,-1270.96 1726.93,-1261.92 1720.08,-1260.45"/>
<text text-anchor="middle" x="1684" y="-832.29" font-family="Times,serif" font-size="14.00">1</text>
</g>
<!-- 11&#45;&gt;11 -->
<g id="edge79" class="edge">
<title>11&#45;&gt;11</title>
<path fill="none" stroke="black" d="M1709.3,-384.41C1719.83,-385.08 1728.75,-381.86 1728.75,-374.75 1728.75,-370.08 1724.91,-367.09 1719.29,-365.77"/>
<polygon fill="black" stroke="black" points="1719.52,-362.28 1709.3,-365.08 1719.04,-369.27 1719.52,-362.28"/>
<text text-anchor="middle" x="1733.75" y="-371.05" font-family="Times,serif" font-size="14.00">4</text>
</g>
<!-- 11&#45;&gt;16 -->
<g id="edge48" class="edge">
<title>11&#45;&gt;16</title>
<path fill="none" stroke="black" d="M1670.93,-351.05C1662.89,-337.1 1652.58,-319.2 1644.32,-304.86"/>
<polygon fill="black" stroke="black" points="1647.26,-302.94 1639.23,-296.03 1641.19,-306.44 1647.26,-302.94"/>
<text text-anchor="middle" x="1663" y="-318.8" font-family="Times,serif" font-size="14.00">0</text>
</g>
<!-- 11&#45;&gt;18 -->
<g id="edge12" class="edge">
<title>11&#45;&gt;18</title>
<path fill="none" stroke="black" d="M1671.47,-398.39C1628.7,-475.73 1488.59,-729.05 1443.86,-809.93"/>
<polygon fill="black" stroke="black" points="1440.67,-808.47 1438.89,-818.92 1446.79,-811.86 1440.67,-808.47"/>
<text text-anchor="middle" x="1559" y="-614.79" font-family="Times,serif" font-size="14.00">2</text>
</g>
<!-- 28 -->
<g id="node30" class="node">
<title>28</title>
<ellipse fill="none" stroke="black" cx="1012" cy="-479.24" rx="22.96" ry="22.96"/>
<ellipse fill="none" stroke="black" cx="1012" cy="-479.24" rx="27" ry="27"/>
<text text-anchor="middle" x="1012" y="-475.54" font-family="Times,serif" font-size="14.00">28</text>
</g>
<!-- 11&#45;&gt;28 -->
<g id="edge107" class="edge">
<title>11&#45;&gt;28</title>
<path fill="none" stroke="black" d="M1657.08,-375.59C1580.53,-375.67 1355.39,-379.56 1174,-419.5 1128.19,-429.58 1077.73,-449.35 1045.5,-463.16"/>
<polygon fill="black" stroke="black" points="1043.89,-460.04 1036.11,-467.23 1046.67,-466.46 1043.89,-460.04"/>
<text text-anchor="middle" x="1179" y="-423.3" font-family="Times,serif" font-size="14.00">3</text>
</g>
<!-- 12&#45;&gt;3 -->
<g id="edge62" class="edge">
<title>12&#45;&gt;3</title>
<path fill="none" stroke="black" d="M536.78,-123.05C545.92,-210.27 587.65,-603.26 600,-625.99 663.24,-742.4 741,-718.08 828,-817.99 846.62,-839.38 848.55,-847.03 862,-871.99 922.94,-985.07 910,-1028.54 910,-1156.99 910,-1427.99 910,-1427.99 910,-1427.99 910,-1614.89 1088,-1622.08 1088,-1808.98 1088,-1967.72 1088,-1967.72 1088,-1967.72 1088,-2048.4 1212.39,-2060.97 1276.61,-2062.08"/>
<polygon fill="black" stroke="black" points="1276.71,-2065.58 1286.74,-2062.17 1276.77,-2058.58 1276.71,-2065.58"/>
<text text-anchor="middle" x="917" y="-1049.79" font-family="Times,serif" font-size="14.00">4</text>
</g>
<!-- 12&#45;&gt;4 -->
<g id="edge43" class="edge">
<title>12&#45;&gt;4</title>
<path fill="none" stroke="black" d="M507.9,-105.79C416.02,-105.78 122,-111.94 122,-191 122,-428 122,-428 122,-428 122,-590.43 84,-629.06 84,-791.49 84,-1054.49 84,-1054.49 84,-1054.49 84,-1140.06 50,-1158.42 50,-1243.99 50,-1427.99 50,-1427.99 50,-1427.99 50,-1474.12 128.62,-1569.12 148,-1610.98 196.71,-1716.24 222,-1745.25 222,-1861.23 222,-2237.47 222,-2237.47 222,-2237.47 222,-2271.17 247.71,-2274.96 279,-2287.47 367.09,-2322.68 1053.52,-2326.12 1211.61,-2326.44"/>
<polygon fill="black" stroke="black" points="1211.65,-2329.94 1221.65,-2326.46 1211.66,-2322.94 1211.65,-2329.94"/>
<text text-anchor="middle" x="62" y="-1197.79" font-family="Times,serif" font-size="14.00">3</text>
</g>
<!-- 12&#45;&gt;9 -->
<g id="edge146" class="edge">
<title>12&#45;&gt;9</title>
<path fill="none" stroke="black" d="M508.03,-106.35C422.05,-108.17 160,-119.57 160,-191 160,-428 160,-428 160,-428 160,-666.88 160,-726.6 160,-965.49 160,-1106.74 160,-1106.74 160,-1106.74 160,-1268.85 292.01,-1269.28 434,-1347.49 460.08,-1361.85 492.69,-1370.91 517.18,-1376.2"/>
<polygon fill="black" stroke="black" points="516.64,-1379.66 527.14,-1378.24 518.04,-1372.81 516.64,-1379.66"/>
<text text-anchor="middle" x="165" y="-745.29" font-family="Times,serif" font-size="14.00">2</text>
</g>
<!-- 12&#45;&gt;14 -->
<g id="edge99" class="edge">
<title>12&#45;&gt;14</title>
<path fill="none" stroke="black" d="M543.29,-87.61C549.48,-75.38 558.05,-58.44 565.12,-44.46"/>
<polygon fill="black" stroke="black" points="568.34,-45.84 569.73,-35.34 562.1,-42.68 568.34,-45.84"/>
<text text-anchor="middle" x="565" y="-57.8" font-family="Times,serif" font-size="14.00">1</text>
</g>
<!-- 12&#45;&gt;23 -->
<g id="edge16" class="edge">
<title>12&#45;&gt;23</title>
<path fill="none" stroke="black" d="M510.59,-112.9C478.18,-123.73 425,-148.04 425,-191 425,-480.24 425,-480.24 425,-480.24 425,-502.66 427.58,-527.95 429.98,-546.61"/>
<polygon fill="black" stroke="black" points="426.54,-547.32 431.35,-556.76 433.48,-546.38 426.54,-547.32"/>
<text text-anchor="middle" x="430" y="-318.8" font-family="Times,serif" font-size="14.00">0</text>
</g>
<!-- 13&#45;&gt;3 -->
<g id="edge139" class="edge">
<title>13&#45;&gt;3</title>
<path fill="none" stroke="black" d="M473.38,-1695.57C479.17,-1707.04 487.21,-1720.44 497,-1730.48 584.89,-1820.61 860.79,-1986.03 980,-2026.47 1034.14,-2044.84 1201.33,-2055.61 1276.6,-2059.64"/>
<polygon fill="black" stroke="black" points="1276.84,-2063.15 1287.01,-2060.18 1277.21,-2056.16 1276.84,-2063.15"/>
<text text-anchor="middle" x="719" y="-1858.53" font-family="Times,serif" font-size="14.00">0</text>
</g>
<!-- 13&#45;&gt;4 -->
<g id="edge71" class="edge">
<title>13&#45;&gt;4</title>
<path fill="none" stroke="black" d="M460.88,-1697.58C459.52,-1716.39 458,-1742.5 458,-1765.48 458,-2237.47 458,-2237.47 458,-2237.47 458,-2314.59 1063.16,-2324.9 1211.48,-2326.26"/>
<polygon fill="black" stroke="black" points="1211.71,-2329.77 1221.74,-2326.35 1211.77,-2322.77 1211.71,-2329.77"/>
<text text-anchor="middle" x="463" y="-2015.27" font-family="Times,serif" font-size="14.00">3</text>
</g>
<!-- 13&#45;&gt;10 -->
<g id="edge56" class="edge">
<title>13&#45;&gt;10</title>
<path fill="none" stroke="black" d="M484.68,-1686.6C509.29,-1703.45 546.51,-1728.8 550,-1730.48 574.68,-1742.35 604.32,-1751.41 626.9,-1757.33"/>
<polygon fill="black" stroke="black" points="626.19,-1760.76 636.74,-1759.83 627.91,-1753.97 626.19,-1760.76"/>
<text text-anchor="middle" x="555" y="-1719.28" font-family="Times,serif" font-size="14.00">1</text>
</g>
<!-- 13&#45;&gt;23 -->
<g id="edge102" class="edge">
<title>13&#45;&gt;23</title>
<path fill="none" stroke="black" d="M458.18,-1644.38C447.19,-1586.21 419.83,-1438.59 401,-1314.49 372.07,-1123.77 396,-1073.39 396,-880.49 396,-880.49 396,-880.49 396,-660.99 396,-638.9 406.83,-616.16 416.93,-599.77"/>
<polygon fill="black" stroke="black" points="419.88,-601.66 422.39,-591.36 414.01,-597.85 419.88,-601.66"/>
<text text-anchor="middle" x="394" y="-1102.04" font-family="Times,serif" font-size="14.00">4</text>
</g>
<!-- 13&#45;&gt;26 -->
<g id="edge75" class="edge">
<title>13&#45;&gt;26</title>
<path fill="none" stroke="black" d="M489.53,-1666.77C612.11,-1653.09 1123.76,-1595.99 1266.11,-1580.1"/>
<polygon fill="black" stroke="black" points="1266.92,-1583.53 1276.47,-1578.95 1266.14,-1576.58 1266.92,-1583.53"/>
<text text-anchor="middle" x="988" y="-1614.78" font-family="Times,serif" font-size="14.00">2</text>
</g>
<!-- 14&#45;&gt;4 -->
<g id="edge110" class="edge">
<title>14&#45;&gt;4</title>
<path fill="none" stroke="black" d="M550.97,-19.68C449.65,-22.38 95.81,-33.22 50,-54 21.38,-66.98 0,-72.57 0,-104 0,-793.49 0,-793.49 0,-793.49 0,-908.62 4,-937.37 4,-1052.49 4,-1202.49 4,-1202.49 4,-1202.49 4,-1339.05 14.62,-1374.64 52,-1505.98 79.64,-1603.12 109.37,-1619.25 140,-1715.48 167.34,-1801.38 184,-1823.33 184,-1913.48 184,-2237.47 184,-2237.47 184,-2237.47 184,-2270.51 208.42,-2274.96 239,-2287.47 330.63,-2324.95 1048.64,-2326.63 1211.31,-2326.53"/>
<polygon fill="black" stroke="black" points="1211.63,-2330.03 1221.63,-2326.52 1211.63,-2323.03 1211.63,-2330.03"/>
<text text-anchor="middle" x="9" y="-1154.29" font-family="Times,serif" font-size="14.00">2</text>
</g>
<!-- 14&#45;&gt;7 -->
<g id="edge35" class="edge">
<title>14&#45;&gt;7</title>
<path fill="none" stroke="black" d="M605.24,-19.21C756.86,-20.48 1491.27,-27.97 1531,-54 1551.62,-67.51 1555,-79.35 1555,-104 1555,-706.49 1555,-706.49 1555,-706.49 1555,-779.94 1513.26,-858.99 1489.71,-897.75"/>
<polygon fill="black" stroke="black" points="1486.72,-895.92 1484.42,-906.27 1492.67,-899.61 1486.72,-895.92"/>
<text text-anchor="middle" x="1560" y="-475.54" font-family="Times,serif" font-size="14.00">1</text>
</g>
<!-- 14&#45;&gt;10 -->
<g id="edge6" class="edge">
<title>14&#45;&gt;10</title>
<path fill="none" stroke="black" d="M551.09,-20.75C448,-27.83 84,-56.19 84,-104 84,-428 84,-428 84,-428 84,-448.59 223.48,-749.29 234,-766.99 315.92,-904.86 674,-1178.62 674,-1338.99 674,-1480.24 674,-1480.24 674,-1480.24 674,-1575.13 667.29,-1687.62 663.9,-1738.32"/>
<polygon fill="black" stroke="black" points="660.4,-1738.24 663.22,-1748.45 667.39,-1738.71 660.4,-1738.24"/>
<text text-anchor="middle" x="337" y="-875.79" font-family="Times,serif" font-size="14.00">3</text>
</g>
<!-- 14&#45;&gt;12 -->
<g id="edge137" class="edge">
<title>14&#45;&gt;12</title>
<path fill="none" stroke="black" d="M559.32,-31.55C552.04,-37.47 544.41,-45.17 540,-54 536.52,-60.98 534.86,-69.18 534.17,-76.89"/>
<polygon fill="black" stroke="black" points="530.67,-76.83 533.76,-86.96 537.66,-77.11 530.67,-76.83"/>
<text text-anchor="middle" x="545" y="-57.8" font-family="Times,serif" font-size="14.00">4</text>
</g>
<!-- 14&#45;&gt;13 -->
<g id="edge144" class="edge">
<title>14&#45;&gt;13</title>
<path fill="none" stroke="black" d="M551.06,-19.29C451.78,-20.56 109.96,-26.89 70,-54 49.6,-67.84 46,-79.35 46,-104 46,-1054.49 46,-1054.49 46,-1054.49 46,-1189.78 121.6,-1206.16 170,-1332.49 198.99,-1408.15 177.66,-1440.95 226,-1505.98 240.61,-1525.64 371.6,-1611.07 432.33,-1650.13"/>
<polygon fill="black" stroke="black" points="430.45,-1653.08 440.76,-1655.54 434.24,-1647.19 430.45,-1653.08"/>
<text text-anchor="middle" x="51" y="-832.29" font-family="Times,serif" font-size="14.00">0</text>
</g>
<!-- 15 -->
<g id="node17" class="node">
<title>15</title>
<ellipse fill="none" stroke="black" cx="2020" cy="-1009.99" rx="27" ry="18"/>
<text text-anchor="middle" x="2020" y="-1006.29" font-family="Times,serif" font-size="14.00">15</text>
</g>
<!-- 15&#45;&gt;7 -->
<g id="edge104" class="edge">
<title>15&#45;&gt;7</title>
<path fill="none" stroke="black" d="M1993.16,-1007.05C1895.32,-999.95 1563.2,-975.75 1558,-973.99 1546.44,-970.07 1545.41,-965.36 1535,-958.99 1524.72,-952.69 1513.29,-946.05 1503.13,-940.26"/>
<polygon fill="black" stroke="black" points="1504.65,-937.1 1494.22,-935.21 1501.2,-943.19 1504.65,-937.1"/>
<text text-anchor="middle" x="1563" y="-962.79" font-family="Times,serif" font-size="14.00">0</text>
</g>
<!-- 15&#45;&gt;16 -->
<g id="edge147" class="edge">
<title>15&#45;&gt;16</title>
<path fill="none" stroke="black" d="M2019.57,-991.96C2016.51,-908.29 1991.78,-537.33 1793,-348 1757.23,-313.93 1701.93,-295.81 1665.85,-287.06"/>
<polygon fill="black" stroke="black" points="1666.29,-283.57 1655.76,-284.74 1664.72,-290.39 1666.29,-283.57"/>
<text text-anchor="middle" x="1976" y="-658.29" font-family="Times,serif" font-size="14.00">4</text>
</g>
<!-- 15&#45;&gt;21 -->
<g id="edge143" class="edge">
<title>15&#45;&gt;21</title>
<path fill="none" stroke="black" d="M2037.07,-995.64C2054.49,-980.37 2079,-953.63 2079,-923.99 2079,-923.99 2079,-923.99 2079,-530.49 2079,-374.18 2004.6,-299.12 1853,-261 1683.62,-218.41 1130.56,-198.71 981.37,-194.09"/>
<polygon fill="black" stroke="black" points="981.04,-190.58 970.94,-193.77 980.83,-197.58 981.04,-190.58"/>
<text text-anchor="middle" x="2084" y="-614.79" font-family="Times,serif" font-size="14.00">1</text>
</g>
<!-- 15&#45;&gt;25 -->
<g id="edge63" class="edge">
<title>15&#45;&gt;25</title>
<path fill="none" stroke="black" d="M1994.7,-1016.39C1905.11,-1036.5 1597.64,-1114.08 1398,-1270.49 1320.95,-1330.85 1325.5,-1370.99 1251,-1434.49 1239.93,-1443.92 1226.69,-1452.88 1214.84,-1460.21"/>
<polygon fill="black" stroke="black" points="1212.86,-1457.32 1206.11,-1465.48 1216.48,-1463.31 1212.86,-1457.32"/>
<text text-anchor="middle" x="1445" y="-1241.29" font-family="Times,serif" font-size="14.00">2</text>
</g>
<!-- 15&#45;&gt;27 -->
<g id="edge132" class="edge">
<title>15&#45;&gt;27</title>
<path fill="none" stroke="black" d="M2033.3,-1025.84C2063.37,-1061 2134,-1153.25 2134,-1243.99 2134,-1767.48 2134,-1767.48 2134,-1767.48 2134,-1788.53 2127.05,-1811.03 2119.85,-1828.71"/>
<polygon fill="black" stroke="black" points="2116.59,-1827.43 2115.86,-1838 2123.02,-1830.19 2116.59,-1827.43"/>
<text text-anchor="middle" x="2139" y="-1423.29" font-family="Times,serif" font-size="14.00">3</text>
</g>
<!-- 16&#45;&gt;4 -->
<g id="edge100" class="edge">
<title>16&#45;&gt;4</title>
<path fill="none" stroke="black" d="M1655.85,-284.27C1684.63,-289.52 1732.18,-299.65 1771,-315 1911.46,-370.55 1940.18,-409.76 2039,-523.99 2068.78,-558.41 2072.33,-570.45 2093,-610.99 2144.02,-711.06 2245.12,-973.61 2284,-1078.99 2326.13,-1193.18 2370,-1217.28 2370,-1338.99 2370,-1967.72 2370,-1967.72 2370,-1967.72 2370,-2185.4 2210.54,-2236.13 1999,-2287.47 1858.64,-2321.54 1401.6,-2325.85 1276.12,-2326.4"/>
<polygon fill="black" stroke="black" points="1276,-2322.9 1266.01,-2326.43 1276.03,-2329.9 1276,-2322.9"/>
<text text-anchor="middle" x="2374" y="-1288.79" font-family="Times,serif" font-size="14.00">2</text>
</g>
<!-- 16&#45;&gt;14 -->
<g id="edge138" class="edge">
<title>16&#45;&gt;14</title>
<path fill="none" stroke="black" d="M1631.41,-260.98C1633.92,-218.09 1633.76,-105.32 1569,-54 1530.96,-23.86 790.89,-19.66 615.19,-19.09"/>
<polygon fill="black" stroke="black" points="615.15,-15.59 605.14,-19.06 615.13,-22.59 615.15,-15.59"/>
<text text-anchor="middle" x="1629" y="-144.8" font-family="Times,serif" font-size="14.00">4</text>
</g>
<!-- 16&#45;&gt;16 -->
<g id="edge19" class="edge">
<title>16&#45;&gt;16</title>
<path fill="none" stroke="black" d="M1654.53,-286.75C1665.51,-287.49 1675,-284.91 1675,-279 1675,-275.03 1670.72,-272.56 1664.57,-271.59"/>
<polygon fill="black" stroke="black" points="1664.65,-268.09 1654.53,-271.25 1664.41,-275.09 1664.65,-268.09"/>
<text text-anchor="middle" x="1680" y="-275.3" font-family="Times,serif" font-size="14.00">1</text>
</g>
<!-- 16&#45;&gt;20 -->
<g id="edge127" class="edge">
<title>16&#45;&gt;20</title>
<path fill="none" stroke="black" d="M1630.11,-297.01C1630.38,-337.47 1631,-442.65 1631,-530.49 1631,-749.99 1631,-749.99 1631,-749.99 1631,-911.77 1669.49,-1103.38 1684.81,-1173.26"/>
<polygon fill="black" stroke="black" points="1681.48,-1174.41 1687.06,-1183.41 1688.31,-1172.89 1681.48,-1174.41"/>
<text text-anchor="middle" x="1636" y="-745.29" font-family="Times,serif" font-size="14.00">0</text>
</g>
<!-- 16&#45;&gt;21 -->
<g id="edge9" class="edge">
<title>16&#45;&gt;21</title>
<path fill="none" stroke="black" d="M1603.53,-274.72C1497.42,-261.57 1102.7,-212.66 980.38,-197.51"/>
<polygon fill="black" stroke="black" points="980.75,-194.03 970.39,-196.27 979.89,-200.97 980.75,-194.03"/>
<text text-anchor="middle" x="1334" y="-231.8" font-family="Times,serif" font-size="14.00">3</text>
</g>
<!-- 17&#45;&gt;0 -->
<g id="edge14" class="edge">
<title>17&#45;&gt;0</title>
<path fill="none" stroke="black" d="M1659.52,-1985.26C1642.41,-2000.72 1616.9,-2023.93 1595,-2044.47 1564.9,-2072.7 1530.67,-2105.85 1508.96,-2127"/>
<polygon fill="black" stroke="black" points="1506.27,-2124.73 1501.56,-2134.22 1511.16,-2129.74 1506.27,-2124.73"/>
<text text-anchor="middle" x="1600" y="-2058.77" font-family="Times,serif" font-size="14.00">1</text>
</g>
<!-- 17&#45;&gt;1 -->
<g id="edge150" class="edge">
<title>17&#45;&gt;1</title>
<path fill="none" stroke="black" d="M1669.79,-1941.52C1667.81,-1935.25 1666.01,-1928.44 1665,-1921.98 1653.1,-1845.73 1666.58,-1825.46 1672,-1748.48 1683.23,-1588.9 1704.06,-1398.51 1712.4,-1324.79"/>
<polygon fill="black" stroke="black" points="1715.89,-1325.11 1713.54,-1314.78 1708.93,-1324.32 1715.89,-1325.11"/>
<text text-anchor="middle" x="1688" y="-1614.78" font-family="Times,serif" font-size="14.00">0</text>
</g>
<!-- 17&#45;&gt;4 -->
<g id="edge15" class="edge">
<title>17&#45;&gt;4</title>
<path fill="none" stroke="black" d="M1698.31,-1985.46C1715.19,-2002.97 1737,-2031.42 1737,-2061.47 1737,-2237.47 1737,-2237.47 1737,-2237.47 1737,-2275.7 1702.83,-2274.14 1667,-2287.47 1595.33,-2314.13 1362.19,-2323.19 1276.22,-2325.67"/>
<polygon fill="black" stroke="black" points="1275.92,-2322.18 1266.02,-2325.95 1276.12,-2329.17 1275.92,-2322.18"/>
<text text-anchor="middle" x="1742" y="-2145.77" font-family="Times,serif" font-size="14.00">4</text>
</g>
<!-- 17&#45;&gt;14 -->
<g id="edge98" class="edge">
<title>17&#45;&gt;14</title>
<path fill="none" stroke="black" d="M1684.85,-1940.62C1697.55,-1886.34 1728.89,-1754.09 1758,-1643.98 1772.17,-1590.39 1775.58,-1576.93 1792,-1523.98 1800.91,-1495.26 1965,-1041.07 1965,-1010.99 1965,-1010.99 1965,-1010.99 1965,-791.49 1965,-572.8 2117,-542.19 2117,-323.5 2117,-323.5 2117,-323.5 2117,-104 2117,-26.3 849.71,-19.62 615.11,-19.05"/>
<polygon fill="black" stroke="black" points="615.05,-15.55 605.04,-19.03 615.03,-22.55 615.05,-15.55"/>
<text text-anchor="middle" x="1970" y="-962.79" font-family="Times,serif" font-size="14.00">3</text>
</g>
<!-- 17&#45;&gt;27 -->
<g id="edge64" class="edge">
<title>17&#45;&gt;27</title>
<path fill="none" stroke="black" d="M1704.95,-1959.47C1777.87,-1941.88 1984.76,-1891.98 2068.33,-1871.83"/>
<polygon fill="black" stroke="black" points="2069.22,-1875.22 2078.12,-1869.47 2067.58,-1868.41 2069.22,-1875.22"/>
<text text-anchor="middle" x="1921" y="-1910.78" font-family="Times,serif" font-size="14.00">2</text>
</g>
<!-- 18&#45;&gt;4 -->
<g id="edge134" class="edge">
<title>18&#45;&gt;4</title>
<path fill="none" stroke="black" d="M1404.1,-841.16C1364.64,-849.15 1294,-870.62 1294,-921.99 1294,-1054.49 1294,-1054.49 1294,-1054.49 1294,-1156.2 1291.43,-1434.59 1219,-1505.98 1165.06,-1559.15 956.66,-1544.2 882,-1556.98 831.27,-1565.67 460.63,-1605.02 427,-1643.98 379.04,-1699.54 420,-1735.58 420,-1808.98 420,-2237.47 420,-2237.47 420,-2237.47 420,-2282.46 464.83,-2274.83 508,-2287.47 642.7,-2326.91 1087.03,-2327.39 1211.39,-2326.73"/>
<polygon fill="black" stroke="black" points="1211.79,-2330.22 1221.76,-2326.66 1211.74,-2323.22 1211.79,-2330.22"/>
<text text-anchor="middle" x="887" y="-1571.28" font-family="Times,serif" font-size="14.00">2</text>
</g>
<!-- 18&#45;&gt;5 -->
<g id="edge24" class="edge">
<title>18&#45;&gt;5</title>
<path fill="none" stroke="black" d="M1426.78,-817.82C1422.68,-796.99 1414.9,-760.97 1405,-730.99 1391.82,-691.09 1391.68,-678.7 1368,-643.99 1332.11,-591.38 1278,-596.18 1278,-532.49 1278,-532.49 1278,-532.49 1278,-373.75 1278,-348.92 1266.41,-322.93 1256.04,-304.63"/>
<polygon fill="black" stroke="black" points="1258.91,-302.61 1250.79,-295.8 1252.89,-306.19 1258.91,-302.61"/>
<text text-anchor="middle" x="1316" y="-571.29" font-family="Times,serif" font-size="14.00">4</text>
</g>
<!-- 18&#45;&gt;10 -->
<g id="edge42" class="edge">
<title>18&#45;&gt;10</title>
<path fill="none" stroke="black" d="M1412.97,-850C1395.23,-865.17 1370,-892.01 1370,-921.99 1370,-1054.49 1370,-1054.49 1370,-1054.49 1370,-1097.35 1319.17,-1394.41 1304,-1434.49 1290.79,-1469.38 1290.01,-1483.82 1260,-1505.98 1110.07,-1616.71 1020.56,-1527.35 854,-1610.98 784.27,-1646 716.44,-1709.54 683.2,-1743.18"/>
<polygon fill="black" stroke="black" points="680.37,-1741.07 675.89,-1750.67 685.38,-1745.96 680.37,-1741.07"/>
<text text-anchor="middle" x="1344" y="-1288.79" font-family="Times,serif" font-size="14.00">3</text>
</g>
<!-- 18&#45;&gt;15 -->
<g id="edge84" class="edge">
<title>18&#45;&gt;15</title>
<path fill="none" stroke="black" d="M1455.15,-843.13C1482.51,-849.89 1527.49,-861.23 1566,-871.99 1723.9,-916.11 1910.85,-974.49 1986.12,-998.25"/>
<polygon fill="black" stroke="black" points="1985.4,-1001.69 1995.99,-1001.36 1987.5,-995.01 1985.4,-1001.69"/>
<text text-anchor="middle" x="1805" y="-919.29" font-family="Times,serif" font-size="14.00">0</text>
</g>
<!-- 18&#45;&gt;22 -->
<g id="edge141" class="edge">
<title>18&#45;&gt;22</title>
<path fill="none" stroke="black" d="M1403.41,-832.3C1360.59,-827.67 1273.9,-816.99 1202,-799.99 1158.92,-789.81 1110.56,-773.38 1079.49,-762.15"/>
<polygon fill="black" stroke="black" points="1080.64,-758.84 1070.04,-758.71 1078.24,-765.42 1080.64,-758.84"/>
<text text-anchor="middle" x="1207" y="-788.79" font-family="Times,serif" font-size="14.00">1</text>
</g>
<!-- 19&#45;&gt;2 -->
<g id="edge125" class="edge">
<title>19&#45;&gt;2</title>
<path fill="none" stroke="black" d="M967.39,-378.18C888.61,-386.11 662,-414.45 662,-478.24 662,-619.49 662,-619.49 662,-619.49 662,-933.74 725.03,-1007.46 792,-1314.49 796.33,-1334.35 880,-1649.4 880,-1669.73 880,-2150.47 880,-2150.47 880,-2150.47 880,-2169.72 880,-2191.42 880,-2208.07"/>
<polygon fill="black" stroke="black" points="876.5,-2208.22 880,-2218.22 883.5,-2208.22 876.5,-2208.22"/>
<text text-anchor="middle" x="797" y="-1288.79" font-family="Times,serif" font-size="14.00">3</text>
</g>
<!-- 19&#45;&gt;5 -->
<g id="edge76" class="edge">
<title>19&#45;&gt;5</title>
<path fill="none" stroke="black" d="M1015.51,-363.44C1041.74,-351.07 1087.56,-330.13 1128,-315 1153.65,-305.4 1183.24,-296.24 1205.56,-289.69"/>
<polygon fill="black" stroke="black" points="1206.64,-293.02 1215.27,-286.88 1204.69,-286.3 1206.64,-293.02"/>
<text text-anchor="middle" x="1133" y="-318.8" font-family="Times,serif" font-size="14.00">1</text>
</g>
<!-- 19&#45;&gt;19 -->
<g id="edge90" class="edge">
<title>19&#45;&gt;19</title>
<path fill="none" stroke="black" d="M1017.15,-384.21C1028.7,-385.52 1039,-382.37 1039,-374.75 1039,-369.51 1034.13,-366.38 1027.34,-365.37"/>
<polygon fill="black" stroke="black" points="1027.18,-361.86 1017.15,-365.29 1027.13,-368.86 1027.18,-361.86"/>
<text text-anchor="middle" x="1044" y="-371.05" font-family="Times,serif" font-size="14.00">2</text>
</g>
<!-- 19&#45;&gt;26 -->
<g id="edge120" class="edge">
<title>19&#45;&gt;26</title>
<path fill="none" stroke="black" d="M1013.7,-387.19C1026.26,-395.15 1042.31,-406.61 1054,-419.5 1083.99,-452.55 1070.72,-477.41 1105,-505.99 1122.82,-520.85 1140.72,-504.97 1154,-523.99 1157.82,-529.46 1154.39,-532.34 1154,-538.99 1147.99,-640.86 1140.16,-665.8 1127,-766.99 1111.89,-883.17 1106.64,-912.02 1090,-1027.99 1068.47,-1178.03 1051.92,-1214.31 1041,-1365.49 1039.85,-1381.45 1035.23,-1386.56 1041,-1401.49 1078.48,-1498.44 1205.72,-1546.71 1268.04,-1565"/>
<polygon fill="black" stroke="black" points="1267.24,-1568.41 1277.81,-1567.78 1269.15,-1561.68 1267.24,-1568.41"/>
<text text-anchor="middle" x="1106" y="-962.79" font-family="Times,serif" font-size="14.00">0</text>
</g>
<!-- 19&#45;&gt;28 -->
<g id="edge28" class="edge">
<title>19&#45;&gt;28</title>
<path fill="none" stroke="black" d="M996.98,-392.69C999.35,-406.2 1002.76,-425.6 1005.72,-442.51"/>
<polygon fill="black" stroke="black" points="1002.33,-443.4 1007.5,-452.64 1009.22,-442.19 1002.33,-443.4"/>
<text text-anchor="middle" x="1010" y="-423.3" font-family="Times,serif" font-size="14.00">4</text>
</g>
<!-- 20&#45;&gt;0 -->
<g id="edge26" class="edge">
<title>20&#45;&gt;0</title>
<path fill="none" stroke="black" d="M1707.43,-1215.83C1721.24,-1228.27 1739.85,-1248.21 1747,-1270.49 1777.68,-1366.07 1762,-1621.59 1762,-1721.98 1762,-1967.72 1762,-1967.72 1762,-1967.72 1762,-2025.29 1591.59,-2104.23 1519.06,-2135.22"/>
<polygon fill="black" stroke="black" points="1517.35,-2132.14 1509.5,-2139.27 1520.08,-2138.59 1517.35,-2132.14"/>
<text text-anchor="middle" x="1768" y="-1667.03" font-family="Times,serif" font-size="14.00">3</text>
</g>
<!-- 20&#45;&gt;10 -->
<g id="edge37" class="edge">
<title>20&#45;&gt;10</title>
<path fill="none" stroke="black" d="M1686.63,-1219.26C1677.04,-1254.53 1652.06,-1338.32 1616,-1401.49 1586.46,-1453.24 1577.63,-1467.66 1532,-1505.98 1501.31,-1531.76 1410.81,-1577.13 1374,-1592.98 1190.12,-1672.2 1140.54,-1687.45 945,-1730.48 857.97,-1749.63 753.42,-1759.15 699.01,-1763.12"/>
<polygon fill="black" stroke="black" points="698.54,-1759.64 688.81,-1763.84 699.03,-1766.63 698.54,-1759.64"/>
<text text-anchor="middle" x="1590" y="-1475.54" font-family="Times,serif" font-size="14.00">1</text>
</g>
<!-- 20&#45;&gt;18 -->
<g id="edge57" class="edge">
<title>20&#45;&gt;18</title>
<path fill="none" stroke="black" d="M1665.42,-1195.11C1649.06,-1190.26 1628.92,-1181.35 1618,-1165.49 1565.78,-1089.64 1646.49,-1039.06 1601,-958.99 1569.8,-904.07 1502.53,-867.61 1462.29,-849.78"/>
<polygon fill="black" stroke="black" points="1463.49,-846.49 1452.92,-845.75 1460.73,-852.92 1463.49,-846.49"/>
<text text-anchor="middle" x="1620" y="-1006.29" font-family="Times,serif" font-size="14.00">2</text>
</g>
<!-- 20&#45;&gt;24 -->
<g id="edge112" class="edge">
<title>20&#45;&gt;24</title>
<path fill="none" stroke="black" d="M1715.58,-1193.67C1774.53,-1177.32 1924.18,-1135.81 1993.17,-1116.68"/>
<polygon fill="black" stroke="black" points="1994.43,-1119.96 2003.13,-1113.92 1992.56,-1113.22 1994.43,-1119.96"/>
<text text-anchor="middle" x="1875" y="-1154.29" font-family="Times,serif" font-size="14.00">4</text>
</g>
<!-- 20&#45;&gt;29 -->
<g id="edge113" class="edge">
<title>20&#45;&gt;29</title>
<path fill="none" stroke="black" d="M1712.02,-1213.07C1723.14,-1219.27 1736.61,-1227.79 1747,-1237.49 1854.09,-1337.45 1898,-1383.99 1898,-1530.48 1898,-1723.98 1898,-1723.98 1898,-1723.98 1898,-1966.82 2180,-1949.13 2180,-2191.97 2180,-2328.47 2180,-2328.47 2180,-2328.47 2180,-2404.77 2063.36,-2416.99 2001.51,-2418.11"/>
<polygon fill="black" stroke="black" points="2001.32,-2414.61 1991.36,-2418.2 2001.39,-2421.61 2001.32,-2414.61"/>
<text text-anchor="middle" x="1919" y="-1806.28" font-family="Times,serif" font-size="14.00">0</text>
</g>
<!-- 21&#45;&gt;1 -->
<g id="edge77" class="edge">
<title>21&#45;&gt;1</title>
<path fill="none" stroke="black" d="M970.85,-194.67C1096.63,-202.6 1624.38,-237.04 1694,-261 1761.85,-284.35 1789.29,-288.92 1830,-348 1888.21,-432.48 1877,-471.4 1877,-573.99 1877,-706.49 1877,-706.49 1877,-706.49 1877,-927.89 1768.48,-1180.07 1729.63,-1263.25"/>
<polygon fill="black" stroke="black" points="1726.45,-1261.79 1725.35,-1272.32 1732.78,-1264.77 1726.45,-1261.79"/>
<text text-anchor="middle" x="1881" y="-745.29" font-family="Times,serif" font-size="14.00">0</text>
</g>
<!-- 21&#45;&gt;4 -->
<g id="edge142" class="edge">
<title>21&#45;&gt;4</title>
<path fill="none" stroke="black" d="M916.92,-193.75C822.9,-196.79 511.78,-210.51 428,-261 311.44,-331.24 122,-655.4 122,-791.49 122,-1054.49 122,-1054.49 122,-1054.49 122,-1160.9 88,-1185.08 88,-1291.49 88,-1427.99 88,-1427.99 88,-1427.99 88,-1455.07 191.27,-1618.71 201,-1643.98 245.04,-1758.41 260,-1790.86 260,-1913.48 260,-2237.47 260,-2237.47 260,-2237.47 260,-2285.97 310.13,-2275.01 357,-2287.47 440.74,-2309.74 1061.78,-2322.98 1211.56,-2325.87"/>
<polygon fill="black" stroke="black" points="1211.84,-2329.38 1221.91,-2326.07 1211.97,-2322.38 1211.84,-2329.38"/>
<text text-anchor="middle" x="97" y="-1241.29" font-family="Times,serif" font-size="14.00">2</text>
</g>
<!-- 21&#45;&gt;12 -->
<g id="edge140" class="edge">
<title>21&#45;&gt;12</title>
<path fill="none" stroke="black" d="M918.42,-185.68C848.12,-171.07 651.89,-130.29 570.78,-113.44"/>
<polygon fill="black" stroke="black" points="571.08,-109.92 560.58,-111.32 569.65,-116.78 571.08,-109.92"/>
<text text-anchor="middle" x="769" y="-144.8" font-family="Times,serif" font-size="14.00">4</text>
</g>
<!-- 21&#45;&gt;13 -->
<g id="edge117" class="edge">
<title>21&#45;&gt;13</title>
<path fill="none" stroke="black" d="M917.38,-195.71C819.73,-206.15 482.75,-246.6 403,-315 359.68,-352.15 377.86,-381.78 356,-434.5 334.78,-485.66 286.23,-573.11 268,-643.99 220.07,-830.3 97.72,-1336.11 188,-1505.98 198.6,-1525.92 332.22,-1615.09 352,-1625.98 376.23,-1639.33 405.39,-1650.66 427.74,-1658.44"/>
<polygon fill="black" stroke="black" points="426.89,-1661.85 437.48,-1661.76 429.15,-1655.22 426.89,-1661.85"/>
<text text-anchor="middle" x="213" y="-919.29" font-family="Times,serif" font-size="14.00">1</text>
</g>
<!-- 21&#45;&gt;27 -->
<g id="edge39" class="edge">
<title>21&#45;&gt;27</title>
<path fill="none" stroke="black" d="M971.09,-193.25C1069.05,-194.37 1414.05,-200.18 1697,-228 1794.96,-237.63 1821.06,-235.03 1916,-261 2015.43,-288.2 2057.6,-275.62 2131,-348 2264.75,-479.89 2390.76,-983.06 2346,-1165.49 2314.88,-1292.33 2210,-1295.38 2210,-1425.99 2210,-1767.48 2210,-1767.48 2210,-1767.48 2210,-1806.55 2169.09,-1833.26 2138.1,-1847.89"/>
<polygon fill="black" stroke="black" points="2136.54,-1844.75 2128.85,-1852.04 2139.41,-1851.13 2136.54,-1844.75"/>
<text text-anchor="middle" x="2358" y="-1006.29" font-family="Times,serif" font-size="14.00">3</text>
</g>
<!-- 22&#45;&gt;6 -->
<g id="edge131" class="edge">
<title>22&#45;&gt;6</title>
<path fill="none" stroke="black" d="M1031.71,-733.93C1025.34,-727.76 1018.03,-720.27 1012,-712.99 1005.41,-705.03 998.87,-695.81 993.3,-687.46"/>
<polygon fill="black" stroke="black" points="996.09,-685.32 987.7,-678.85 990.22,-689.14 996.09,-685.32"/>
<text text-anchor="middle" x="1017" y="-701.79" font-family="Times,serif" font-size="14.00">0</text>
</g>
<!-- 22&#45;&gt;9 -->
<g id="edge11" class="edge">
<title>22&#45;&gt;9</title>
<path fill="none" stroke="black" d="M1019.99,-750.71C965.92,-753.29 842.19,-765.02 756,-817.99 713,-844.42 709.73,-862.18 683,-904.99 588.02,-1057.11 561.5,-1278.61 554.94,-1355.22"/>
<polygon fill="black" stroke="black" points="551.44,-1355.2 554.12,-1365.45 558.41,-1355.76 551.44,-1355.2"/>
<text text-anchor="middle" x="623" y="-1049.79" font-family="Times,serif" font-size="14.00">1</text>
</g>
<!-- 22&#45;&gt;11 -->
<g id="edge124" class="edge">
<title>22&#45;&gt;11</title>
<path fill="none" stroke="black" d="M1068.02,-737.44C1115.57,-713.35 1234.68,-651.86 1330,-592.99 1423.36,-535.34 1438.77,-508.7 1533,-452.5 1572.37,-429.01 1619.78,-405.67 1650.84,-391.01"/>
<polygon fill="black" stroke="black" points="1652.36,-394.16 1659.93,-386.75 1649.39,-387.82 1652.36,-394.16"/>
<text text-anchor="middle" x="1389" y="-571.29" font-family="Times,serif" font-size="14.00">3</text>
</g>
<!-- 22&#45;&gt;18 -->
<g id="edge52" class="edge">
<title>22&#45;&gt;18</title>
<path fill="none" stroke="black" d="M1072.17,-755.58C1138.41,-770.28 1317.78,-810.09 1394.46,-827.1"/>
<polygon fill="black" stroke="black" points="1394.05,-830.6 1404.57,-829.35 1395.57,-823.77 1394.05,-830.6"/>
<text text-anchor="middle" x="1267" y="-788.79" font-family="Times,serif" font-size="14.00">2</text>
</g>
<!-- 22&#45;&gt;26 -->
<g id="edge54" class="edge">
<title>22&#45;&gt;26</title>
<path fill="none" stroke="black" d="M1048.2,-767.31C1049.81,-793.31 1052.24,-843.99 1050,-886.99 1037.34,-1130.46 955.32,-1198.36 1016,-1434.49 1028.19,-1481.93 1013.31,-1507.7 1051,-1538.98 1055.12,-1542.41 1197.77,-1560.75 1266.58,-1569.43"/>
<polygon fill="black" stroke="black" points="1266.21,-1572.91 1276.57,-1570.68 1267.08,-1565.96 1266.21,-1572.91"/>
<text text-anchor="middle" x="1013" y="-1154.29" font-family="Times,serif" font-size="14.00">4</text>
</g>
<!-- 23&#45;&gt;9 -->
<g id="edge31" class="edge">
<title>23&#45;&gt;9</title>
<path fill="none" stroke="black" d="M434,-593.25C434,-610.42 434,-637.53 434,-660.99 434,-967.49 434,-967.49 434,-967.49 434,-1121.78 350.03,-1179.09 424,-1314.49 442.76,-1348.82 485.87,-1366.48 517.11,-1375.09"/>
<polygon fill="black" stroke="black" points="516.64,-1378.58 527.19,-1377.67 518.37,-1371.8 516.64,-1378.58"/>
<text text-anchor="middle" x="439" y="-962.79" font-family="Times,serif" font-size="14.00">3</text>
</g>
<!-- 23&#45;&gt;12 -->
<g id="edge72" class="edge">
<title>23&#45;&gt;12</title>
<path fill="none" stroke="black" d="M409.4,-567.36C373.51,-556.02 311,-529.24 311,-480.24 311,-480.24 311,-480.24 311,-191 311,-151.3 435.53,-123.55 498.89,-112"/>
<polygon fill="black" stroke="black" points="499.63,-115.42 508.87,-110.22 498.41,-108.53 499.63,-115.42"/>
<text text-anchor="middle" x="316" y="-318.8" font-family="Times,serif" font-size="14.00">4</text>
</g>
<!-- 23&#45;&gt;19 -->
<g id="edge2" class="edge">
<title>23&#45;&gt;19</title>
<path fill="none" stroke="black" d="M448.49,-559.4C480.91,-527.75 563.17,-452.94 648,-419.5 703.68,-397.54 879.72,-383.41 957,-378.11"/>
<polygon fill="black" stroke="black" points="957.49,-381.58 967.23,-377.42 957.02,-374.6 957.49,-381.58"/>
<text text-anchor="middle" x="586" y="-475.54" font-family="Times,serif" font-size="14.00">0</text>
</g>
<!-- 23&#45;&gt;28 -->
<g id="edge123" class="edge">
<title>23&#45;&gt;28</title>
<path fill="none" stroke="black" d="M459.96,-569.78C552.65,-554.75 867.49,-503.68 975.38,-486.18"/>
<polygon fill="black" stroke="black" points="976.14,-489.61 985.45,-484.55 975.02,-482.7 976.14,-489.61"/>
<text text-anchor="middle" x="746" y="-527.79" font-family="Times,serif" font-size="14.00">1</text>
</g>
<!-- 23&#45;&gt;29 -->
<g id="edge69" class="edge">
<title>23&#45;&gt;29</title>
<path fill="none" stroke="black" d="M413.63,-587.18C391.12,-601.21 358,-627.54 358,-660.99 358,-880.49 358,-880.49 358,-880.49 358,-1161.95 352.01,-1240.34 259,-1505.98 223.62,-1607.05 172.61,-1613.48 140,-1715.48 87,-1881.23 100,-1930.95 100,-2104.97 100,-2328.47 100,-2328.47 100,-2328.47 100,-2406.48 189.75,-2371.64 267,-2382.47 436.31,-2406.22 1693.18,-2415.67 1926.72,-2417.23"/>
<polygon fill="black" stroke="black" points="1927.03,-2420.74 1937.05,-2417.3 1927.08,-2413.74 1927.03,-2420.74"/>
<text text-anchor="middle" x="283" y="-1475.54" font-family="Times,serif" font-size="14.00">2</text>
</g>
<!-- 24&#45;&gt;4 -->
<g id="edge66" class="edge">
<title>24&#45;&gt;4</title>
<path fill="none" stroke="black" d="M2025.18,-1132.54C2022.73,-1151.34 2020,-1177.43 2020,-1200.49 2020,-1340.99 2020,-1340.99 2020,-1340.99 2020,-1425.28 2012,-1446.19 2012,-1530.48 2012,-1723.98 2012,-1723.98 2012,-1723.98 2012,-1861.71 1914,-1880.24 1914,-2017.97 1914,-2237.47 1914,-2237.47 1914,-2237.47 1914,-2302.59 1410.2,-2321.7 1276.34,-2325.62"/>
<polygon fill="black" stroke="black" points="1276.19,-2322.13 1266.29,-2325.91 1276.39,-2329.12 1276.19,-2322.13"/>
<text text-anchor="middle" x="2017" y="-1719.28" font-family="Times,serif" font-size="14.00">2</text>
</g>
<!-- 24&#45;&gt;7 -->
<g id="edge119" class="edge">
<title>24&#45;&gt;7</title>
<path fill="none" stroke="black" d="M2003.28,-1097.14C1938.97,-1078.25 1765.86,-1028.08 1620,-991.99 1583.78,-983.03 1571.76,-989.87 1538,-973.99 1522.66,-966.78 1507.61,-955.31 1495.96,-945.17"/>
<polygon fill="black" stroke="black" points="1498.25,-942.53 1488.48,-938.44 1493.57,-947.73 1498.25,-942.53"/>
<text text-anchor="middle" x="1762" y="-1006.29" font-family="Times,serif" font-size="14.00">4</text>
</g>
<!-- 24&#45;&gt;10 -->
<g id="edge5" class="edge">
<title>24&#45;&gt;10</title>
<path fill="none" stroke="black" d="M2002.23,-1107.86C1938.86,-1111.41 1775.88,-1125.91 1655,-1183.49 1620.78,-1199.79 1615.16,-1210.06 1589,-1237.49 1540.1,-1288.75 1535.06,-1307.76 1494,-1365.49 1476.27,-1390.41 1364.5,-1576.09 1339,-1592.98 1290.82,-1624.9 1140.15,-1630.31 1084,-1643.98 1045.36,-1653.39 789.31,-1728.19 695.97,-1755.52"/>
<polygon fill="black" stroke="black" points="694.79,-1752.22 686.18,-1758.39 696.76,-1758.94 694.79,-1752.22"/>
<text text-anchor="middle" x="1465" y="-1423.29" font-family="Times,serif" font-size="14.00">3</text>
</g>
<!-- 24&#45;&gt;12 -->
<g id="edge92" class="edge">
<title>24&#45;&gt;12</title>
<path fill="none" stroke="black" d="M2055.71,-1101.74C2102.19,-1094.87 2193,-1073.47 2193,-1010.99 2193,-1010.99 2193,-1010.99 2193,-704.49 2193,-472.1 2135.96,-335.99 1916,-261 1655.88,-172.32 765.05,-118.72 572.07,-108"/>
<polygon fill="black" stroke="black" points="572.06,-104.49 561.88,-107.44 571.67,-111.48 572.06,-104.49"/>
<text text-anchor="middle" x="2195" y="-614.79" font-family="Times,serif" font-size="14.00">0</text>
</g>
<!-- 24&#45;&gt;15 -->
<g id="edge85" class="edge">
<title>24&#45;&gt;15</title>
<path fill="none" stroke="black" d="M2026.49,-1078.63C2025.28,-1066.01 2023.83,-1050.89 2022.61,-1038.14"/>
<polygon fill="black" stroke="black" points="2026.08,-1037.72 2021.64,-1028.1 2019.11,-1038.39 2026.08,-1037.72"/>
<text text-anchor="middle" x="2029" y="-1049.79" font-family="Times,serif" font-size="14.00">1</text>
</g>
<!-- 25&#45;&gt;9 -->
<g id="edge45" class="edge">
<title>25&#45;&gt;9</title>
<path fill="none" stroke="black" d="M1156.38,-1475.33C1098.16,-1468.89 955.17,-1452.52 836,-1434.49 746.74,-1420.98 642.28,-1401.59 588.7,-1391.38"/>
<polygon fill="black" stroke="black" points="589.16,-1387.91 578.68,-1389.46 587.85,-1394.78 589.16,-1387.91"/>
<text text-anchor="middle" x="841" y="-1423.29" font-family="Times,serif" font-size="14.00">0</text>
</g>
<!-- 25&#45;&gt;15 -->
<g id="edge81" class="edge">
<title>25&#45;&gt;15</title>
<path fill="none" stroke="black" d="M1207.6,-1467.93C1226.29,-1459.74 1252.39,-1447.53 1274,-1434.49 1459.76,-1322.43 1477.5,-1248.57 1671,-1150.49 1691.69,-1140 1698.36,-1140.84 1720,-1132.49 1818.21,-1094.58 1933.34,-1047.09 1988.03,-1024.34"/>
<polygon fill="black" stroke="black" points="1989.63,-1027.46 1997.52,-1020.39 1986.94,-1021 1989.63,-1027.46"/>
<text text-anchor="middle" x="1535" y="-1241.29" font-family="Times,serif" font-size="14.00">2</text>
</g>
<!-- 25&#45;&gt;16 -->
<g id="edge4" class="edge">
<title>25&#45;&gt;16</title>
<path fill="none" stroke="black" d="M1188.82,-1452.89C1190.03,-1446.88 1191.18,-1440.48 1192,-1434.49 1225.77,-1186.21 1183.31,-1118.17 1230,-871.99 1257.37,-727.68 1264.14,-688.28 1330,-556.99 1381.27,-454.8 1391.6,-420.51 1480,-348 1514.71,-319.53 1563.27,-300.4 1595.63,-289.87"/>
<polygon fill="black" stroke="black" points="1597.04,-293.09 1605.53,-286.75 1594.94,-286.42 1597.04,-293.09"/>
<text text-anchor="middle" x="1235" y="-875.79" font-family="Times,serif" font-size="14.00">3</text>
</g>
<!-- 25&#45;&gt;16 -->
<g id="edge87" class="edge">
<title>25&#45;&gt;16</title>
<path fill="none" stroke="black" d="M1196.9,-1456.18C1200.65,-1449.42 1204.39,-1441.84 1207,-1434.49 1220.05,-1397.7 1214.76,-1386.29 1219,-1347.49 1242.07,-1136.2 1201.81,-1073.3 1270,-871.99 1312.53,-746.45 1548.64,-398.31 1613.51,-303.89"/>
<polygon fill="black" stroke="black" points="1616.46,-305.78 1619.24,-295.56 1610.69,-301.81 1616.46,-305.78"/>
<text text-anchor="middle" x="1275" y="-875.79" font-family="Times,serif" font-size="14.00">4</text>
</g>
<!-- 25&#45;&gt;23 -->
<g id="edge105" class="edge">
<title>25&#45;&gt;23</title>
<path fill="none" stroke="black" d="M1159.88,-1465.28C1135.32,-1449.62 1100,-1420.79 1100,-1384.49 1100,-1384.49 1100,-1384.49 1100,-1156.99 1100,-840.74 838.23,-850.68 572,-679.99 530.52,-653.4 485.47,-618.13 458.5,-596.25"/>
<polygon fill="black" stroke="black" points="460.37,-593.26 450.4,-589.65 455.94,-598.68 460.37,-593.26"/>
<text text-anchor="middle" x="1086" y="-1006.29" font-family="Times,serif" font-size="14.00">1</text>
</g>
<!-- 26&#45;&gt;3 -->
<g id="edge108" class="edge">
<title>26&#45;&gt;3</title>
<path fill="none" stroke="black" d="M1303.39,-1593.06C1305.02,-1665.14 1311.36,-1944.98 1313.38,-2034.07"/>
<polygon fill="black" stroke="black" points="1309.88,-2034.27 1313.61,-2044.19 1316.88,-2034.12 1309.88,-2034.27"/>
<text text-anchor="middle" x="1314" y="-1806.28" font-family="Times,serif" font-size="14.00">4</text>
</g>
<!-- 26&#45;&gt;4 -->
<g id="edge36" class="edge">
<title>26&#45;&gt;4</title>
<path fill="none" stroke="black" d="M1327.16,-1583.03C1344.73,-1588.84 1368.56,-1598.21 1387,-1610.98 1403.54,-1622.44 1406.45,-1627.51 1418,-1643.98 1539.57,-1817.36 1689.47,-1884.6 1609,-2080.47 1549.65,-2224.94 1352.41,-2295.53 1275.29,-2318.12"/>
<polygon fill="black" stroke="black" points="1273.89,-2314.88 1265.23,-2320.99 1275.81,-2321.61 1273.89,-2314.88"/>
<text text-anchor="middle" x="1636" y="-1963.02" font-family="Times,serif" font-size="14.00">0</text>
</g>
<!-- 26&#45;&gt;8 -->
<g id="edge13" class="edge">
<title>26&#45;&gt;8</title>
<path fill="none" stroke="black" d="M1276.71,-1570.67C1207.61,-1561.96 1026.16,-1539.09 1026,-1538.98 975.5,-1504.97 989.56,-1472.15 959,-1419.49 931.69,-1372.41 913.57,-1366 896,-1314.49 864.04,-1220.78 895.55,-956.52 844,-871.99 838.92,-863.67 831.03,-856.88 822.92,-851.58"/>
<polygon fill="black" stroke="black" points="824.54,-848.47 814.14,-846.4 820.98,-854.5 824.54,-848.47"/>
<text text-anchor="middle" x="887" y="-1197.79" font-family="Times,serif" font-size="14.00">2</text>
</g>
<!-- 26&#45;&gt;20 -->
<g id="edge44" class="edge">
<title>26&#45;&gt;20</title>
<path fill="none" stroke="black" d="M1317.22,-1559.18C1344.16,-1531.29 1404.69,-1469.28 1458,-1419.49 1509.79,-1371.11 1538.99,-1373.65 1578,-1314.49 1597.81,-1284.45 1578.23,-1263.58 1603,-1237.49 1618.4,-1221.27 1629.22,-1227.77 1650,-1219.49 1652.91,-1218.33 1655.93,-1217.11 1658.96,-1215.87"/>
<polygon fill="black" stroke="black" points="1660.57,-1218.99 1668.49,-1211.95 1657.91,-1212.52 1660.57,-1218.99"/>
<text text-anchor="middle" x="1536" y="-1379.79" font-family="Times,serif" font-size="14.00">3</text>
</g>
<!-- 26&#45;&gt;25 -->
<g id="edge74" class="edge">
<title>26&#45;&gt;25</title>
<path fill="none" stroke="black" d="M1286.06,-1560.75C1266.84,-1545.74 1235.17,-1520.99 1212,-1502.89"/>
<polygon fill="black" stroke="black" points="1213.92,-1499.95 1203.88,-1496.55 1209.61,-1505.47 1213.92,-1499.95"/>
<text text-anchor="middle" x="1263" y="-1527.78" font-family="Times,serif" font-size="14.00">1</text>
</g>
<!-- 27&#45;&gt;10 -->
<g id="edge106" class="edge">
<title>27&#45;&gt;10</title>
<path fill="none" stroke="black" d="M2077.27,-1860.01C1975.84,-1855.32 1605.12,-1837.73 1300,-1817.48 1071.1,-1802.29 796.41,-1779.07 698.69,-1770.66"/>
<polygon fill="black" stroke="black" points="698.99,-1767.18 688.73,-1769.8 698.39,-1774.15 698.99,-1767.18"/>
<text text-anchor="middle" x="1305" y="-1806.28" font-family="Times,serif" font-size="14.00">2</text>
</g>
<!-- 27&#45;&gt;11 -->
<g id="edge22" class="edge">
<title>27&#45;&gt;11</title>
<path fill="none" stroke="black" d="M2130.38,-1857.53C2156.91,-1852.58 2197.55,-1841.46 2224,-1817.48 2242.26,-1800.92 2248,-1792.13 2248,-1767.48 2248,-1767.48 2248,-1767.48 2248,-1425.99 2248,-1059.3 2181.48,-953.59 1985,-643.99 1911.63,-528.38 1884.28,-500.65 1774,-419.5 1757,-406.98 1735.86,-396.5 1718.35,-388.93"/>
<polygon fill="black" stroke="black" points="1719.61,-385.66 1709.04,-385.03 1716.91,-392.12 1719.61,-385.66"/>
<text text-anchor="middle" x="2229" y="-1102.04" font-family="Times,serif" font-size="14.00">4</text>
</g>
<!-- 27&#45;&gt;23 -->
<g id="edge46" class="edge">
<title>27&#45;&gt;23</title>
<path fill="none" stroke="black" d="M2125.14,-1845.45C2145.1,-1828.58 2172,-1799.85 2172,-1767.48 2172,-1767.48 2172,-1767.48 2172,-1338.99 2172,-1176.38 2176.32,-1101.38 2056,-991.99 2031.51,-969.73 1862.11,-920.82 1814,-904.99 1744.31,-882.06 1726.69,-876.93 1657,-853.99 1371.43,-760.02 1306.55,-713.23 1014,-643.99 812.61,-596.33 563.61,-581.44 470.98,-577.37"/>
<polygon fill="black" stroke="black" points="471.11,-573.87 460.98,-576.94 470.82,-580.86 471.11,-573.87"/>
<text text-anchor="middle" x="2175" y="-1197.79" font-family="Times,serif" font-size="14.00">1</text>
</g>
<!-- 27&#45;&gt;24 -->
<g id="edge59" class="edge">
<title>27&#45;&gt;24</title>
<path fill="none" stroke="black" d="M2100.61,-1835.41C2098.43,-1816.61 2096,-1790.51 2096,-1767.48 2096,-1767.48 2096,-1767.48 2096,-1200.49 2096,-1172.31 2075.71,-1146.75 2057.46,-1129.47"/>
<polygon fill="black" stroke="black" points="2059.6,-1126.68 2049.83,-1122.58 2054.91,-1131.88 2059.6,-1126.68"/>
<text text-anchor="middle" x="2101" y="-1475.54" font-family="Times,serif" font-size="14.00">3</text>
</g>
<!-- 27&#45;&gt;29 -->
<g id="edge101" class="edge">
<title>27&#45;&gt;29</title>
<path fill="none" stroke="black" d="M2104,-1889.35C2104,-1910.06 2104,-1939.74 2104,-1965.72 2104,-2150.47 2104,-2150.47 2104,-2150.47 2104,-2213.43 2096.28,-2231.22 2068,-2287.47 2046.56,-2330.11 2009.51,-2371.83 1985.91,-2396.08"/>
<polygon fill="black" stroke="black" points="1983.29,-2393.74 1978.75,-2403.32 1988.27,-2398.66 1983.29,-2393.74"/>
<text text-anchor="middle" x="2109" y="-2145.77" font-family="Times,serif" font-size="14.00">0</text>
</g>
<!-- 28&#45;&gt;10 -->
<g id="edge135" class="edge">
<title>28&#45;&gt;10</title>
<path fill="none" stroke="black" d="M987.11,-489.49C885.81,-527.87 510,-677.92 510,-791.49 510,-967.49 510,-967.49 510,-967.49 510,-1028.34 558.53,-1028.55 610,-1060.99 628.57,-1072.7 643.62,-1060.86 656,-1078.99 670.97,-1100.93 648.25,-1530.43 648,-1556.98 647.27,-1634.09 633.42,-1654.76 648,-1730.48 648.59,-1733.53 649.44,-1736.65 650.43,-1739.72"/>
<polygon fill="black" stroke="black" points="647.18,-1741 653.97,-1749.14 653.73,-1738.54 647.18,-1741"/>
<text text-anchor="middle" x="666" y="-1102.04" font-family="Times,serif" font-size="14.00">1</text>
</g>
<!-- 28&#45;&gt;11 -->
<g id="edge61" class="edge">
<title>28&#45;&gt;11</title>
<path fill="none" stroke="black" d="M1036.9,-468.93C1052.52,-463.42 1073.21,-456.7 1092,-452.5 1298.94,-406.19 1553.27,-384.88 1647.03,-378.19"/>
<polygon fill="black" stroke="black" points="1647.41,-381.67 1657.15,-377.48 1646.93,-374.68 1647.41,-381.67"/>
<text text-anchor="middle" x="1275" y="-423.3" font-family="Times,serif" font-size="14.00">0</text>
</g>
<!-- 28&#45;&gt;19 -->
<g id="edge86" class="edge">
<title>28&#45;&gt;19</title>
<path fill="none" stroke="black" d="M997.25,-456.44C993.48,-449.7 989.94,-442.05 988,-434.5 985.37,-424.25 985.84,-412.72 987.33,-402.61"/>
<polygon fill="black" stroke="black" points="990.79,-403.16 989.17,-392.69 983.9,-401.89 990.79,-403.16"/>
<text text-anchor="middle" x="993" y="-423.3" font-family="Times,serif" font-size="14.00">3</text>
</g>
<!-- 28&#45;&gt;22 -->
<g id="edge133" class="edge">
<title>28&#45;&gt;22</title>
<path fill="none" stroke="black" d="M1015.36,-505.97C1021.98,-556.62 1036.65,-668.85 1043.44,-720.73"/>
<polygon fill="black" stroke="black" points="1039.99,-721.37 1044.76,-730.84 1046.93,-720.47 1039.99,-721.37"/>
<text text-anchor="middle" x="1036" y="-614.79" font-family="Times,serif" font-size="14.00">2</text>
</g>
<!-- 28&#45;&gt;25 -->
<g id="edge40" class="edge">
<title>28&#45;&gt;25</title>
<path fill="none" stroke="black" d="M1034.19,-495.15C1063.65,-515.76 1112,-552.81 1112,-573.99 1112,-706.49 1112,-706.49 1112,-706.49 1112,-945.66 1138,-1004.82 1138,-1243.99 1138,-1384.49 1138,-1384.49 1138,-1384.49 1138,-1407.86 1149.5,-1431.56 1160.88,-1449.29"/>
<polygon fill="black" stroke="black" points="1158.25,-1451.65 1166.75,-1457.98 1164.05,-1447.73 1158.25,-1451.65"/>
<text text-anchor="middle" x="1130" y="-962.79" font-family="Times,serif" font-size="14.00">4</text>
</g>
<!-- 29&#45;&gt;4 -->
<g id="edge151" class="edge">
<title>29&#45;&gt;4</title>
<path fill="none" stroke="black" d="M1937.52,-2414.2C1826.33,-2400.45 1397.33,-2347.42 1276.08,-2332.44"/>
<polygon fill="black" stroke="black" points="1276.32,-2328.94 1265.96,-2331.19 1275.46,-2335.89 1276.32,-2328.94"/>
<text text-anchor="middle" x="1673" y="-2371.27" font-family="Times,serif" font-size="14.00">2</text>
</g>
<!-- 29&#45;&gt;13 -->
<g id="edge58" class="edge">
<title>29&#45;&gt;13</title>
<path fill="none" stroke="black" d="M1936.89,-2417.61C1710.74,-2418.63 146,-2422.29 146,-2328.47 146,-2328.47 146,-2328.47 146,-1913.48 146,-1773.29 344.45,-1703.6 427.32,-1680.61"/>
<polygon fill="black" stroke="black" points="428.32,-1683.97 437.06,-1677.98 426.49,-1677.21 428.32,-1683.97"/>
<text text-anchor="middle" x="151" y="-2058.77" font-family="Times,serif" font-size="14.00">0</text>
</g>
<!-- 29&#45;&gt;15 -->
<g id="edge41" class="edge">
<title>29&#45;&gt;15</title>
<path fill="none" stroke="black" d="M1990.9,-2415.82C2068.29,-2410.35 2286,-2389.52 2286,-2328.47 2286,-2328.47 2286,-2328.47 2286,-1425.99 2286,-1347.95 2282.71,-1138.31 2232,-1078.99 2188.12,-1027.67 2105.42,-1014.73 2057.3,-1011.68"/>
<polygon fill="black" stroke="black" points="2057.47,-1008.19 2047.3,-1011.16 2057.1,-1015.18 2057.47,-1008.19"/>
<text text-anchor="middle" x="2291" y="-1719.28" font-family="Times,serif" font-size="14.00">3</text>
</g>
<!-- 29&#45;&gt;23 -->
<g id="edge38" class="edge">
<title>29&#45;&gt;23</title>
<path fill="none" stroke="black" d="M1936.99,-2417.37C1709.87,-2416.47 126.36,-2409.24 86,-2382.47 64.11,-2367.96 62,-2354.74 62,-2328.47 62,-2328.47 62,-2328.47 62,-1617.48 62,-1499.47 248,-1546 248,-1427.99 248,-1427.99 248,-1427.99 248,-1243.99 248,-1041.23 320,-996.25 320,-793.49 320,-793.49 320,-793.49 320,-660.99 320,-636.34 325.92,-627.74 344,-610.99 358.98,-597.12 380.07,-588.52 398.07,-583.33"/>
<polygon fill="black" stroke="black" points="399.2,-586.65 407.97,-580.71 397.41,-579.88 399.2,-586.65"/>
<text text-anchor="middle" x="250" y="-1475.54" font-family="Times,serif" font-size="14.00">1</text>
</g>
<!-- 29&#45;&gt;26 -->
<g id="edge126" class="edge">
<title>29&#45;&gt;26</title>
<path fill="none" stroke="black" d="M1986.08,-2407.81C2007.88,-2397 2040.2,-2377.27 2056,-2349.47 2111.66,-2251.55 2077.86,-2195.7 2021,-2098.47 1969.48,-2010.39 2253.06,-2221.31 1569,-1715.48 1501.01,-1665.2 1486.19,-1647.67 1410,-1610.98 1386.74,-1599.78 1359,-1590.82 1337.59,-1584.77"/>
<polygon fill="black" stroke="black" points="1338.51,-1581.4 1327.94,-1582.12 1336.66,-1588.15 1338.51,-1581.4"/>
<text text-anchor="middle" x="1991" y="-2015.27" font-family="Times,serif" font-size="14.00">4</text>
</g>
</g>
</svg>
