<?xml version="1.0" encoding="UTF-8" standalone="no"?>
<!DOCTYPE svg PUBLIC "-//W3C//DTD SVG 1.1//EN"
 "http://www.w3.org/Graphics/SVG/1.1/DTD/svg11.dtd">
<!-- Generated by graphviz version 2.49.0 (20210829.0051)
 -->
<!-- Pages: 1 -->
<svg width="2601pt" height="2262pt"
 viewBox="0.00 0.00 2600.79 2261.98" xmlns="http://www.w3.org/2000/svg" xmlns:xlink="http://www.w3.org/1999/xlink">
<g id="graph0" class="graph" transform="scale(1 1) rotate(0) translate(4 2257.98)">
<polygon fill="white" stroke="transparent" points="-4,4 -4,-2257.98 2596.79,-2257.98 2596.79,4 -4,4"/>
<!-- fake -->
<g id="node1" class="node">
<title>fake</title>
</g>
<!-- 0 -->
<g id="node2" class="node">
<title>0</title>
<ellipse fill="none" stroke="black" cx="946.79" cy="-2158.98" rx="18" ry="18"/>
<ellipse fill="none" stroke="black" cx="946.79" cy="-2158.98" rx="22" ry="22"/>
<text text-anchor="middle" x="946.79" y="-2155.28" font-family="Times,serif" font-size="14.00">0</text>
</g>
<!-- fake&#45;&gt;0 -->
<g id="edge1" class="edge">
<title>fake&#45;&gt;0</title>
<path fill="none" stroke="black" stroke-width="2" d="M946.79,-2217.97C946.79,-2210.14 946.79,-2200.59 946.79,-2191.52"/>
<polygon fill="black" stroke="black" stroke-width="2" points="950.29,-2191.23 946.79,-2181.23 943.29,-2191.23 950.29,-2191.23"/>
</g>
<!-- 4 -->
<g id="node6" class="node">
<title>4</title>
<ellipse fill="none" stroke="black" cx="1316.79" cy="-2063.98" rx="18" ry="18"/>
<ellipse fill="none" stroke="black" cx="1316.79" cy="-2063.98" rx="22" ry="22"/>
<text text-anchor="middle" x="1316.79" y="-2060.28" font-family="Times,serif" font-size="14.00">4</text>
</g>
<!-- 0&#45;&gt;4 -->
<g id="edge56" class="edge">
<title>0&#45;&gt;4</title>
<path fill="none" stroke="black" d="M968.01,-2152.65C1030.22,-2137.02 1212.31,-2091.25 1285.65,-2072.81"/>
<polygon fill="black" stroke="black" points="1286.81,-2076.13 1295.66,-2070.3 1285.1,-2069.34 1286.81,-2076.13"/>
<text text-anchor="middle" x="1159.79" y="-2107.78" font-family="Times,serif" font-size="14.00">1</text>
</g>
<!-- 7 -->
<g id="node9" class="node">
<title>7</title>
<ellipse fill="none" stroke="black" cx="715.79" cy="-391.5" rx="27" ry="18"/>
<text text-anchor="middle" x="715.79" y="-387.8" font-family="Times,serif" font-size="14.00">7</text>
</g>
<!-- 0&#45;&gt;7 -->
<g id="edge143" class="edge">
<title>0&#45;&gt;7</title>
<path fill="none" stroke="black" d="M924.62,-2157.06C813.64,-2152.17 323.79,-2127.04 323.79,-2064.98 323.79,-2064.98 323.79,-2064.98 323.79,-1672.49 323.79,-1614.39 347.79,-1602.09 347.79,-1543.99 347.79,-1543.99 347.79,-1543.99 347.79,-1198.99 347.79,-1110.4 368.77,-1088.93 404.79,-1007.99 427.01,-958.06 445.05,-952.22 468.79,-902.99 545.08,-744.81 481.07,-656.63 604.79,-531.99 620.84,-515.82 635.67,-529.02 652.79,-513.99 660.67,-507.07 687.65,-451.9 703.64,-418.33"/>
<polygon fill="black" stroke="black" points="706.9,-419.62 708.02,-409.09 700.57,-416.62 706.9,-419.62"/>
<text text-anchor="middle" x="352.79" y="-1239.79" font-family="Times,serif" font-size="14.00">4</text>
</g>
<!-- 10 -->
<g id="node12" class="node">
<title>10</title>
<ellipse fill="none" stroke="black" cx="588.79" cy="-487.24" rx="22.96" ry="22.96"/>
<ellipse fill="none" stroke="black" cx="588.79" cy="-487.24" rx="27" ry="27"/>
<text text-anchor="middle" x="588.79" y="-483.54" font-family="Times,serif" font-size="14.00">10</text>
</g>
<!-- 0&#45;&gt;10 -->
<g id="edge38" class="edge">
<title>0&#45;&gt;10</title>
<path fill="none" stroke="black" d="M924.74,-2157.98C815.89,-2157.78 335.25,-2154.84 190.79,-2118.98 139.86,-2106.34 85.79,-2117.46 85.79,-2064.98 85.79,-2064.98 85.79,-2064.98 85.79,-1068.49 85.79,-927.24 210.5,-939.64 278.79,-815.99 302.18,-773.64 290.21,-754.41 316.79,-713.99 381.05,-616.29 408.99,-596.09 506.79,-531.99 524.12,-520.64 531.51,-523.74 549.79,-513.99 552.73,-512.43 555.72,-510.7 558.68,-508.91"/>
<polygon fill="black" stroke="black" points="560.79,-511.72 567.37,-503.42 557.05,-505.8 560.79,-511.72"/>
<text text-anchor="middle" x="90.79" y="-1283.29" font-family="Times,serif" font-size="14.00">3</text>
</g>
<!-- 11 -->
<g id="node13" class="node">
<title>11</title>
<ellipse fill="none" stroke="black" cx="1915.79" cy="-1025.99" rx="27" ry="18"/>
<text text-anchor="middle" x="1915.79" y="-1022.29" font-family="Times,serif" font-size="14.00">11</text>
</g>
<!-- 0&#45;&gt;11 -->
<g id="edge123" class="edge">
<title>0&#45;&gt;11</title>
<path fill="none" stroke="black" d="M968.99,-2157.71C1147.44,-2155.35 2341.79,-2136.85 2341.79,-2064.98 2341.79,-2064.98 2341.79,-2064.98 2341.79,-1628.99 2341.79,-1603.49 2253.73,-1201.89 2237.79,-1181.99 2227.82,-1169.54 2025.97,-1077.02 1947.04,-1041.15"/>
<polygon fill="black" stroke="black" points="1948.17,-1037.82 1937.61,-1036.87 1945.27,-1044.19 1948.17,-1037.82"/>
<text text-anchor="middle" x="2342.79" y="-1582.79" font-family="Times,serif" font-size="14.00">2</text>
</g>
<!-- 26 -->
<g id="node28" class="node">
<title>26</title>
<ellipse fill="none" stroke="black" cx="2120.79" cy="-938.99" rx="27" ry="18"/>
<text text-anchor="middle" x="2120.79" y="-935.29" font-family="Times,serif" font-size="14.00">26</text>
</g>
<!-- 0&#45;&gt;26 -->
<g id="edge95" class="edge">
<title>0&#45;&gt;26</title>
<path fill="none" stroke="black" d="M968.96,-2157.85C1158.1,-2156.61 2493.79,-2144.99 2493.79,-2064.98 2493.79,-2064.98 2493.79,-2064.98 2493.79,-1541.99 2493.79,-1315.82 2493.25,-1212.9 2324.79,-1061.99 2270.61,-1013.46 2194.33,-973.92 2152.06,-954"/>
<polygon fill="black" stroke="black" points="2153.38,-950.75 2142.83,-949.71 2150.42,-957.1 2153.38,-950.75"/>
<text text-anchor="middle" x="2498.79" y="-1539.29" font-family="Times,serif" font-size="14.00">0</text>
</g>
<!-- 1 -->
<g id="node3" class="node">
<title>1</title>
<ellipse fill="none" stroke="black" cx="1571.79" cy="-851.99" rx="27" ry="18"/>
<text text-anchor="middle" x="1571.79" y="-848.29" font-family="Times,serif" font-size="14.00">1</text>
</g>
<!-- 1&#45;&gt;1 -->
<g id="edge120" class="edge">
<title>1&#45;&gt;1</title>
<path fill="none" stroke="black" d="M1596.32,-859.74C1607.3,-860.48 1616.79,-857.9 1616.79,-851.99 1616.79,-848.02 1612.51,-845.56 1606.37,-844.59"/>
<polygon fill="black" stroke="black" points="1606.44,-841.09 1596.32,-844.24 1606.2,-848.08 1606.44,-841.09"/>
<text text-anchor="middle" x="1621.79" y="-848.29" font-family="Times,serif" font-size="14.00">3</text>
</g>
<!-- 12 -->
<g id="node14" class="node">
<title>12</title>
<ellipse fill="none" stroke="black" cx="2348.79" cy="-764.99" rx="27" ry="18"/>
<text text-anchor="middle" x="2348.79" y="-761.29" font-family="Times,serif" font-size="14.00">12</text>
</g>
<!-- 1&#45;&gt;12 -->
<g id="edge71" class="edge">
<title>1&#45;&gt;12</title>
<path fill="none" stroke="black" d="M1597.24,-845.44C1645.86,-835.05 1755.45,-812.65 1848.79,-800.99 2021.06,-779.48 2228.49,-770.24 2311.66,-767.21"/>
<polygon fill="black" stroke="black" points="2311.99,-770.7 2321.86,-766.85 2311.75,-763.7 2311.99,-770.7"/>
<text text-anchor="middle" x="1853.79" y="-804.79" font-family="Times,serif" font-size="14.00">1</text>
</g>
<!-- 14 -->
<g id="node16" class="node">
<title>14</title>
<ellipse fill="none" stroke="black" cx="1580.79" cy="-1199.99" rx="27" ry="18"/>
<text text-anchor="middle" x="1580.79" y="-1196.29" font-family="Times,serif" font-size="14.00">14</text>
</g>
<!-- 1&#45;&gt;14 -->
<g id="edge68" class="edge">
<title>1&#45;&gt;14</title>
<path fill="none" stroke="black" d="M1587.07,-866.85C1592.5,-872.77 1597.96,-880.12 1600.79,-887.99 1610.26,-914.26 1591.45,-1100.43 1583.81,-1171.51"/>
<polygon fill="black" stroke="black" points="1580.29,-1171.56 1582.69,-1181.88 1587.25,-1172.32 1580.29,-1171.56"/>
<text text-anchor="middle" x="1603.79" y="-1022.29" font-family="Times,serif" font-size="14.00">4</text>
</g>
<!-- 1&#45;&gt;14 -->
<g id="edge97" class="edge">
<title>1&#45;&gt;14</title>
<path fill="none" stroke="black" d="M1572.22,-870.19C1573.38,-917.22 1576.75,-1051.96 1579.79,-1163.99 1579.86,-1166.54 1579.94,-1169.2 1580.01,-1171.86"/>
<polygon fill="black" stroke="black" points="1576.51,-1172.01 1580.29,-1181.9 1583.51,-1171.81 1576.51,-1172.01"/>
<text text-anchor="middle" x="1580.79" y="-1022.29" font-family="Times,serif" font-size="14.00">0</text>
</g>
<!-- 15 -->
<g id="node17" class="node">
<title>15</title>
<ellipse fill="none" stroke="black" cx="1386.79" cy="-1673.49" rx="27" ry="18"/>
<text text-anchor="middle" x="1386.79" y="-1669.79" font-family="Times,serif" font-size="14.00">15</text>
</g>
<!-- 1&#45;&gt;15 -->
<g id="edge116" class="edge">
<title>1&#45;&gt;15</title>
<path fill="none" stroke="black" d="M1562.82,-869.31C1530.9,-928.9 1424.79,-1141.2 1424.79,-1329.49 1424.79,-1587.49 1424.79,-1587.49 1424.79,-1587.49 1424.79,-1609.58 1413.96,-1632.32 1403.86,-1648.71"/>
<polygon fill="black" stroke="black" points="1400.91,-1646.82 1398.4,-1657.12 1406.78,-1650.63 1400.91,-1646.82"/>
<text text-anchor="middle" x="1436.79" y="-1239.79" font-family="Times,serif" font-size="14.00">2</text>
</g>
<!-- 2 -->
<g id="node4" class="node">
<title>2</title>
<ellipse fill="none" stroke="black" cx="1365.79" cy="-1847.49" rx="27" ry="18"/>
<text text-anchor="middle" x="1365.79" y="-1843.79" font-family="Times,serif" font-size="14.00">2</text>
</g>
<!-- 3 -->
<g id="node5" class="node">
<title>3</title>
<ellipse fill="none" stroke="black" cx="658.79" cy="-1760.49" rx="27" ry="18"/>
<text text-anchor="middle" x="658.79" y="-1756.79" font-family="Times,serif" font-size="14.00">3</text>
</g>
<!-- 2&#45;&gt;3 -->
<g id="edge69" class="edge">
<title>2&#45;&gt;3</title>
<path fill="none" stroke="black" d="M1339.37,-1843.31C1231.09,-1830.29 821.18,-1781.01 695.59,-1765.91"/>
<polygon fill="black" stroke="black" points="695.7,-1762.4 685.35,-1764.68 694.86,-1769.35 695.7,-1762.4"/>
<text text-anchor="middle" x="1059.79" y="-1800.29" font-family="Times,serif" font-size="14.00">2</text>
</g>
<!-- 2&#45;&gt;12 -->
<g id="edge51" class="edge">
<title>2&#45;&gt;12</title>
<path fill="none" stroke="black" d="M1392.04,-1842.45C1429.91,-1836.48 1502.01,-1824.58 1562.79,-1811.49 1786.25,-1763.34 1853.6,-1759.68 2046.79,-1637.49 2100.96,-1603.23 2122.98,-1601.49 2161.79,-1550.49 2243.88,-1442.61 2386.79,-1119.05 2386.79,-983.49 2386.79,-983.49 2386.79,-983.49 2386.79,-850.99 2386.79,-828.9 2375.96,-806.16 2365.86,-789.77"/>
<polygon fill="black" stroke="black" points="2368.78,-787.85 2360.4,-781.36 2362.91,-791.66 2368.78,-787.85"/>
<text text-anchor="middle" x="2312.79" y="-1283.29" font-family="Times,serif" font-size="14.00">4</text>
</g>
<!-- 2&#45;&gt;15 -->
<g id="edge150" class="edge">
<title>2&#45;&gt;15</title>
<path fill="none" stroke="black" d="M1367.88,-1829.37C1371.53,-1799.49 1379.09,-1737.6 1383.46,-1701.76"/>
<polygon fill="black" stroke="black" points="1386.97,-1701.89 1384.71,-1691.54 1380.02,-1701.04 1386.97,-1701.89"/>
<text text-anchor="middle" x="1382.79" y="-1756.79" font-family="Times,serif" font-size="14.00">1</text>
</g>
<!-- 2&#45;&gt;26 -->
<g id="edge23" class="edge">
<title>2&#45;&gt;26</title>
<path fill="none" stroke="black" d="M1390.89,-1840.34C1478.05,-1817.7 1770.76,-1730.81 1925.79,-1550.49 1966.31,-1503.36 2038.57,-1363.41 2059.79,-1304.99 2108.55,-1170.8 2108.72,-1132.07 2122.79,-989.99 2123.52,-982.67 2123.54,-974.73 2123.25,-967.37"/>
<polygon fill="black" stroke="black" points="2126.73,-966.93 2122.65,-957.15 2119.75,-967.34 2126.73,-966.93"/>
<text text-anchor="middle" x="2042.79" y="-1379.04" font-family="Times,serif" font-size="14.00">0</text>
</g>
<!-- 27 -->
<g id="node29" class="node">
<title>27</title>
<ellipse fill="none" stroke="black" cx="1398.79" cy="-1972.98" rx="27" ry="18"/>
<text text-anchor="middle" x="1398.79" y="-1969.28" font-family="Times,serif" font-size="14.00">27</text>
</g>
<!-- 2&#45;&gt;27 -->
<g id="edge61" class="edge">
<title>2&#45;&gt;27</title>
<path fill="none" stroke="black" d="M1362.19,-1865.49C1359.11,-1883.83 1356.49,-1913.57 1365.79,-1936.98 1367.87,-1942.22 1371.15,-1947.13 1374.85,-1951.52"/>
<polygon fill="black" stroke="black" points="1372.37,-1953.99 1381.79,-1958.82 1377.44,-1949.16 1372.37,-1953.99"/>
<text text-anchor="middle" x="1370.79" y="-1906.54" font-family="Times,serif" font-size="14.00">3</text>
</g>
<!-- 3&#45;&gt;15 -->
<g id="edge79" class="edge">
<title>3&#45;&gt;15</title>
<path fill="none" stroke="black" d="M685.43,-1756.65C769.6,-1747.66 1037.43,-1718.73 1258.79,-1691.49 1289.69,-1687.69 1324.73,-1683.01 1350.33,-1679.52"/>
<polygon fill="black" stroke="black" points="1350.9,-1682.97 1360.34,-1678.15 1349.95,-1676.04 1350.9,-1682.97"/>
<text text-anchor="middle" x="1099.79" y="-1713.29" font-family="Times,serif" font-size="14.00">3</text>
</g>
<!-- 16 -->
<g id="node18" class="node">
<title>16</title>
<ellipse fill="none" stroke="black" cx="907.79" cy="-304.5" rx="27" ry="18"/>
<text text-anchor="middle" x="907.79" y="-300.8" font-family="Times,serif" font-size="14.00">16</text>
</g>
<!-- 3&#45;&gt;16 -->
<g id="edge141" class="edge">
<title>3&#45;&gt;16</title>
<path fill="none" stroke="black" d="M646.4,-1744.47C624.75,-1717.7 579.62,-1659.36 550.79,-1604.49 491.95,-1492.5 473.38,-1462.47 450.79,-1337.99 393.7,-1023.31 385.51,-924.6 479.79,-618.99 528.65,-460.62 574.92,-404.51 727.79,-340.5 753.26,-329.83 826.88,-317.55 871.69,-310.74"/>
<polygon fill="black" stroke="black" points="872.23,-314.19 881.6,-309.25 871.19,-307.27 872.23,-314.19"/>
<text text-anchor="middle" x="414.79" y="-1022.29" font-family="Times,serif" font-size="14.00">4</text>
</g>
<!-- 22 -->
<g id="node24" class="node">
<title>22</title>
<ellipse fill="none" stroke="black" cx="1103.79" cy="-487.24" rx="27" ry="18"/>
<text text-anchor="middle" x="1103.79" y="-483.54" font-family="Times,serif" font-size="14.00">22</text>
</g>
<!-- 3&#45;&gt;22 -->
<g id="edge89" class="edge">
<title>3&#45;&gt;22</title>
<path fill="none" stroke="black" d="M662.35,-1742.6C666,-1720.78 669.08,-1682.41 652.79,-1655.49 629.99,-1617.79 589.5,-1642.83 567.79,-1604.49 501.64,-1487.65 604.33,-1128.37 663.79,-1007.99 684.71,-965.65 695.78,-958.25 724.79,-920.99 727.82,-917.1 953.53,-655.7 956.79,-651.99 1001.5,-601.18 1054.73,-542.27 1083.28,-510.81"/>
<polygon fill="black" stroke="black" points="1086.19,-512.81 1090.32,-503.06 1081,-508.11 1086.19,-512.81"/>
<text text-anchor="middle" x="633.79" y="-1109.29" font-family="Times,serif" font-size="14.00">2</text>
</g>
<!-- 3&#45;&gt;26 -->
<g id="edge124" class="edge">
<title>3&#45;&gt;26</title>
<path fill="none" stroke="black" d="M686.07,-1759.33C835.2,-1758.04 1552.07,-1746.18 1738.79,-1637.49 1870.54,-1560.8 2015.15,-1180.61 2082.79,-1043.99 2094.45,-1020.46 2097.89,-1014.7 2106.79,-989.99 2109.48,-982.53 2111.97,-974.29 2114.09,-966.69"/>
<polygon fill="black" stroke="black" points="2117.52,-967.41 2116.72,-956.85 2110.76,-965.6 2117.52,-967.41"/>
<text text-anchor="middle" x="1958.79" y="-1326.79" font-family="Times,serif" font-size="14.00">1</text>
</g>
<!-- 3&#45;&gt;27 -->
<g id="edge112" class="edge">
<title>3&#45;&gt;27</title>
<path fill="none" stroke="black" d="M656.84,-1778.68C653.84,-1814.71 652.75,-1897.99 700.79,-1936.98 728.84,-1959.75 1315.28,-1948.37 1350.79,-1954.98 1356.09,-1955.97 1361.58,-1957.45 1366.88,-1959.13"/>
<polygon fill="black" stroke="black" points="1366.13,-1962.58 1376.73,-1962.54 1368.42,-1955.96 1366.13,-1962.58"/>
<text text-anchor="middle" x="666.79" y="-1843.79" font-family="Times,serif" font-size="14.00">0</text>
</g>
<!-- 4&#45;&gt;0 -->
<g id="edge27" class="edge">
<title>4&#45;&gt;0</title>
<path fill="none" stroke="black" d="M1294.77,-2066.35C1250.41,-2069.54 1147.48,-2079.19 1064.79,-2103.98 1032.74,-2113.6 998.16,-2130.23 974.77,-2142.51"/>
<polygon fill="black" stroke="black" points="972.96,-2139.51 965.78,-2147.3 976.25,-2145.69 972.96,-2139.51"/>
<text text-anchor="middle" x="1069.79" y="-2107.78" font-family="Times,serif" font-size="14.00">2</text>
</g>
<!-- 4&#45;&gt;2 -->
<g id="edge88" class="edge">
<title>4&#45;&gt;2</title>
<path fill="none" stroke="black" d="M1320.54,-2042.1C1326.72,-2008.47 1339.88,-1940.33 1354.79,-1883.49 1355.53,-1880.66 1356.36,-1877.72 1357.23,-1874.79"/>
<polygon fill="black" stroke="black" points="1360.61,-1875.72 1360.2,-1865.13 1353.92,-1873.66 1360.61,-1875.72"/>
<text text-anchor="middle" x="1341.79" y="-1969.28" font-family="Times,serif" font-size="14.00">4</text>
</g>
<!-- 18 -->
<g id="node20" class="node">
<title>18</title>
<ellipse fill="none" stroke="black" cx="2147.79" cy="-1910.24" rx="22.96" ry="22.96"/>
<ellipse fill="none" stroke="black" cx="2147.79" cy="-1910.24" rx="27" ry="27"/>
<text text-anchor="middle" x="2147.79" y="-1906.54" font-family="Times,serif" font-size="14.00">18</text>
</g>
<!-- 4&#45;&gt;18 -->
<g id="edge70" class="edge">
<title>4&#45;&gt;18</title>
<path fill="none" stroke="black" d="M1338.84,-2062.95C1454.11,-2062.63 1984.5,-2059.23 2047.79,-2023.98 2080.43,-2005.81 2070.61,-1982.58 2095.79,-1954.98 2096.96,-1953.71 2107.92,-1944.46 2119.48,-1934.8"/>
<polygon fill="black" stroke="black" points="2122.03,-1937.22 2127.46,-1928.13 2117.54,-1931.85 2122.03,-1937.22"/>
<text text-anchor="middle" x="2069.79" y="-2012.78" font-family="Times,serif" font-size="14.00">0</text>
</g>
<!-- 4&#45;&gt;18 -->
<g id="edge137" class="edge">
<title>4&#45;&gt;18</title>
<path fill="none" stroke="black" d="M1339.12,-2062.67C1466.15,-2060.77 2093.07,-2050.11 2123.79,-2023.98 2145.5,-2005.53 2150.49,-1972.72 2150.63,-1947.24"/>
<polygon fill="black" stroke="black" points="2154.13,-1947.12 2150.45,-1937.18 2147.13,-1947.24 2154.13,-1947.12"/>
<text text-anchor="middle" x="2140.79" y="-2012.78" font-family="Times,serif" font-size="14.00">1</text>
</g>
<!-- 4&#45;&gt;27 -->
<g id="edge45" class="edge">
<title>4&#45;&gt;27</title>
<path fill="none" stroke="black" d="M1331.45,-2047.07C1344.4,-2033.02 1363.42,-2012.38 1377.95,-1996.61"/>
<polygon fill="black" stroke="black" points="1380.88,-1998.6 1385.08,-1988.87 1375.73,-1993.85 1380.88,-1998.6"/>
<text text-anchor="middle" x="1369.79" y="-2012.78" font-family="Times,serif" font-size="14.00">3</text>
</g>
<!-- 5 -->
<g id="node7" class="node">
<title>5</title>
<ellipse fill="none" stroke="black" cx="822.79" cy="-1586.49" rx="27" ry="18"/>
<text text-anchor="middle" x="822.79" y="-1582.79" font-family="Times,serif" font-size="14.00">5</text>
</g>
<!-- 5&#45;&gt;0 -->
<g id="edge122" class="edge">
<title>5&#45;&gt;0</title>
<path fill="none" stroke="black" d="M795.77,-1587.43C747.23,-1588.81 644.94,-1598.77 586.79,-1655.49 502.14,-1738.06 506.79,-1790.99 506.79,-1909.24 506.79,-2064.98 506.79,-2064.98 506.79,-2064.98 506.79,-2148.32 812.74,-2157.34 914.4,-2158.04"/>
<polygon fill="black" stroke="black" points="914.66,-2161.54 924.67,-2158.08 914.69,-2154.54 914.66,-2161.54"/>
<text text-anchor="middle" x="512.79" y="-1843.79" font-family="Times,serif" font-size="14.00">4</text>
</g>
<!-- 5&#45;&gt;15 -->
<g id="edge29" class="edge">
<title>5&#45;&gt;15</title>
<path fill="none" stroke="black" d="M849.91,-1587.98C931.64,-1589.74 1174.46,-1597.03 1248.79,-1622.49 1260.34,-1626.44 1260.73,-1632.33 1271.79,-1637.49 1297.49,-1649.48 1328.31,-1658.6 1351.57,-1664.52"/>
<polygon fill="black" stroke="black" points="1350.82,-1667.94 1361.36,-1666.94 1352.49,-1661.15 1350.82,-1667.94"/>
<text text-anchor="middle" x="1276.79" y="-1626.29" font-family="Times,serif" font-size="14.00">2</text>
</g>
<!-- 5&#45;&gt;16 -->
<g id="edge118" class="edge">
<title>5&#45;&gt;16</title>
<path fill="none" stroke="black" d="M816.78,-1568.8C811.21,-1551.84 803.79,-1524.68 803.79,-1500.49 803.79,-1500.49 803.79,-1500.49 803.79,-1329.49 803.79,-989.23 626.67,-876.85 762.79,-564.99 769.46,-549.72 807.46,-527.07 817.79,-513.99 850.85,-472.14 855.56,-458.42 876.79,-409.5 887.77,-384.21 896.32,-353.87 901.64,-332.5"/>
<polygon fill="black" stroke="black" points="905.11,-333.05 904.05,-322.5 898.3,-331.4 905.11,-333.05"/>
<text text-anchor="middle" x="742.79" y="-935.29" font-family="Times,serif" font-size="14.00">3</text>
</g>
<!-- 19 -->
<g id="node21" class="node">
<title>19</title>
<ellipse fill="none" stroke="black" cx="727.79" cy="-1445.49" rx="27" ry="18"/>
<text text-anchor="middle" x="727.79" y="-1441.79" font-family="Times,serif" font-size="14.00">19</text>
</g>
<!-- 5&#45;&gt;19 -->
<g id="edge132" class="edge">
<title>5&#45;&gt;19</title>
<path fill="none" stroke="black" d="M804.11,-1573.03C795.93,-1566.93 786.65,-1559.05 779.79,-1550.49 760.74,-1526.72 746.08,-1494.84 737.26,-1472.67"/>
<polygon fill="black" stroke="black" points="740.48,-1471.3 733.62,-1463.23 733.95,-1473.82 740.48,-1471.3"/>
<text text-anchor="middle" x="784.79" y="-1539.29" font-family="Times,serif" font-size="14.00">1</text>
</g>
<!-- 21 -->
<g id="node23" class="node">
<title>21</title>
<ellipse fill="none" stroke="black" cx="1163.79" cy="-1499.49" rx="27" ry="18"/>
<text text-anchor="middle" x="1163.79" y="-1495.79" font-family="Times,serif" font-size="14.00">21</text>
</g>
<!-- 5&#45;&gt;21 -->
<g id="edge117" class="edge">
<title>5&#45;&gt;21</title>
<path fill="none" stroke="black" d="M849.3,-1583.04C883.18,-1579.23 943.15,-1570.16 990.79,-1550.49 1002.07,-1545.83 1002.57,-1540.28 1013.79,-1535.49 1050.91,-1519.64 1096.4,-1510.31 1127.49,-1505.33"/>
<polygon fill="black" stroke="black" points="1128.1,-1508.77 1137.45,-1503.8 1127.04,-1501.85 1128.1,-1508.77"/>
<text text-anchor="middle" x="1018.79" y="-1539.29" font-family="Times,serif" font-size="14.00">0</text>
</g>
<!-- 6 -->
<g id="node8" class="node">
<title>6</title>
<ellipse fill="none" stroke="black" cx="1630.79" cy="-1112.99" rx="27" ry="18"/>
<text text-anchor="middle" x="1630.79" y="-1109.29" font-family="Times,serif" font-size="14.00">6</text>
</g>
<!-- 6&#45;&gt;11 -->
<g id="edge46" class="edge">
<title>6&#45;&gt;11</title>
<path fill="none" stroke="black" d="M1655.09,-1104.74C1705.89,-1089.6 1823.41,-1054.54 1881.72,-1037.15"/>
<polygon fill="black" stroke="black" points="1882.97,-1040.43 1891.55,-1034.22 1880.97,-1033.72 1882.97,-1040.43"/>
<text text-anchor="middle" x="1794.79" y="-1065.79" font-family="Times,serif" font-size="14.00">4</text>
</g>
<!-- 6&#45;&gt;16 -->
<g id="edge82" class="edge">
<title>6&#45;&gt;16</title>
<path fill="none" stroke="black" d="M1625.22,-1095C1621.77,-1085.16 1617.02,-1072.66 1611.79,-1061.99 1607.66,-1053.57 1604.9,-1052.42 1600.79,-1043.99 1564.66,-969.77 1558.11,-949.47 1535.79,-869.99 1494.44,-722.71 1562.96,-654.08 1470.79,-531.99 1338.36,-356.58 1047.89,-316.65 944.9,-307.87"/>
<polygon fill="black" stroke="black" points="944.94,-304.36 934.69,-307.05 944.38,-311.34 944.94,-304.36"/>
<text text-anchor="middle" x="1526.79" y="-717.79" font-family="Times,serif" font-size="14.00">1</text>
</g>
<!-- 17 -->
<g id="node19" class="node">
<title>17</title>
<ellipse fill="none" stroke="black" cx="1776.79" cy="-109" rx="27" ry="18"/>
<text text-anchor="middle" x="1776.79" y="-105.3" font-family="Times,serif" font-size="14.00">17</text>
</g>
<!-- 6&#45;&gt;17 -->
<g id="edge44" class="edge">
<title>6&#45;&gt;17</title>
<path fill="none" stroke="black" d="M1631.26,-1094.98C1632.34,-1055.47 1634.92,-954.45 1635.79,-869.99 1637.98,-657.73 1624.79,-604.77 1624.79,-392.5 1624.79,-392.5 1624.79,-392.5 1624.79,-207.75 1624.79,-152.74 1696.1,-127.23 1741.03,-116.61"/>
<polygon fill="black" stroke="black" points="1742,-119.98 1751.01,-114.4 1740.49,-113.15 1742,-119.98"/>
<text text-anchor="middle" x="1635.79" y="-622.79" font-family="Times,serif" font-size="14.00">3</text>
</g>
<!-- 6&#45;&gt;27 -->
<g id="edge24" class="edge">
<title>6&#45;&gt;27</title>
<path fill="none" stroke="black" d="M1609.18,-1123.94C1588.34,-1134.87 1558.06,-1154.58 1544.79,-1181.99 1537.82,-1196.39 1542.23,-1202.2 1544.79,-1217.99 1585.31,-1467.68 1713.86,-1494.92 1765.79,-1742.49 1772.09,-1772.5 1782.58,-1785.82 1765.79,-1811.49 1690.62,-1926.4 1513.06,-1959.53 1435.79,-1968.67"/>
<polygon fill="black" stroke="black" points="1435.13,-1965.22 1425.58,-1969.81 1435.9,-1972.18 1435.13,-1965.22"/>
<text text-anchor="middle" x="1697.79" y="-1539.29" font-family="Times,serif" font-size="14.00">0</text>
</g>
<!-- 6&#45;&gt;27 -->
<g id="edge133" class="edge">
<title>6&#45;&gt;27</title>
<path fill="none" stroke="black" d="M1646.34,-1128C1684.25,-1162.92 1782.35,-1258.09 1837.79,-1355.99 1949.74,-1553.67 1921.65,-1642.39 1878.79,-1865.49 1872.38,-1898.84 1878.97,-1916.61 1851.79,-1936.98 1818.88,-1961.66 1538.78,-1969.36 1436.22,-1971.37"/>
<polygon fill="black" stroke="black" points="1435.95,-1967.87 1426.02,-1971.56 1436.08,-1974.87 1435.95,-1967.87"/>
<text text-anchor="middle" x="1916.79" y="-1539.29" font-family="Times,serif" font-size="14.00">2</text>
</g>
<!-- 7&#45;&gt;10 -->
<g id="edge39" class="edge">
<title>7&#45;&gt;10</title>
<path fill="none" stroke="black" d="M693.73,-402.01C680.18,-408.33 662.81,-417.32 648.79,-427.5 636.17,-436.66 623.61,-448.43 613.27,-459.03"/>
<polygon fill="black" stroke="black" points="610.54,-456.83 606.17,-466.48 615.6,-461.66 610.54,-456.83"/>
<text text-anchor="middle" x="653.79" y="-431.3" font-family="Times,serif" font-size="14.00">2</text>
</g>
<!-- 7&#45;&gt;10 -->
<g id="edge53" class="edge">
<title>7&#45;&gt;10</title>
<path fill="none" stroke="black" d="M700.87,-406.78C689.69,-417.18 673.79,-431.34 658.79,-442.5 646.67,-451.51 632.66,-460.52 620.38,-468"/>
<polygon fill="black" stroke="black" points="618.56,-465 611.79,-473.15 622.16,-471.01 618.56,-465"/>
<text text-anchor="middle" x="681.79" y="-431.3" font-family="Times,serif" font-size="14.00">4</text>
</g>
<!-- 7&#45;&gt;16 -->
<g id="edge3" class="edge">
<title>7&#45;&gt;16</title>
<path fill="none" stroke="black" d="M721.46,-373.61C726.04,-362.53 733.59,-348.64 744.79,-340.5 781.61,-313.74 834.69,-306.65 870.17,-305.16"/>
<polygon fill="black" stroke="black" points="870.68,-308.65 880.58,-304.86 870.48,-301.65 870.68,-308.65"/>
<text text-anchor="middle" x="749.79" y="-344.3" font-family="Times,serif" font-size="14.00">1</text>
</g>
<!-- 7&#45;&gt;21 -->
<g id="edge103" class="edge">
<title>7&#45;&gt;21</title>
<path fill="none" stroke="black" d="M724.1,-408.97C726.79,-414.73 729.64,-421.31 731.79,-427.5 765.52,-524.53 763.99,-551.83 786.79,-651.99 803.8,-726.7 863.65,-913.89 854.79,-989.99 850.99,-1022.65 843.07,-1029.54 837.79,-1061.99 835.43,-1076.53 835.46,-1080.28 834.79,-1094.99 834.07,-1110.98 833.59,-1115.04 834.79,-1130.99 835.91,-1145.78 834.75,-1150.04 839.79,-1163.99 896.63,-1321.33 927.18,-1372.86 1067.79,-1463.49 1086.5,-1475.54 1109.93,-1484.19 1128.95,-1489.87"/>
<polygon fill="black" stroke="black" points="1128.16,-1493.28 1138.73,-1492.65 1130.07,-1486.55 1128.16,-1493.28"/>
<text text-anchor="middle" x="860.79" y="-935.29" font-family="Times,serif" font-size="14.00">0</text>
</g>
<!-- 23 -->
<g id="node25" class="node">
<title>23</title>
<ellipse fill="none" stroke="black" cx="629.79" cy="-582.99" rx="27" ry="18"/>
<text text-anchor="middle" x="629.79" y="-579.29" font-family="Times,serif" font-size="14.00">23</text>
</g>
<!-- 7&#45;&gt;23 -->
<g id="edge90" class="edge">
<title>7&#45;&gt;23</title>
<path fill="none" stroke="black" d="M718.02,-409.8C718.81,-419.5 719.01,-431.78 716.79,-442.5 709.76,-476.41 703.87,-484.45 685.79,-513.99 675.78,-530.37 662.12,-547.03 650.8,-559.76"/>
<polygon fill="black" stroke="black" points="647.89,-557.76 643.76,-567.52 653.07,-562.47 647.89,-557.76"/>
<text text-anchor="middle" x="717.79" y="-483.54" font-family="Times,serif" font-size="14.00">3</text>
</g>
<!-- 8 -->
<g id="node10" class="node">
<title>8</title>
<ellipse fill="none" stroke="black" cx="897.79" cy="-109" rx="18" ry="18"/>
<ellipse fill="none" stroke="black" cx="897.79" cy="-109" rx="22" ry="22"/>
<text text-anchor="middle" x="897.79" y="-105.3" font-family="Times,serif" font-size="14.00">8</text>
</g>
<!-- 8&#45;&gt;0 -->
<g id="edge73" class="edge">
<title>8&#45;&gt;0</title>
<path fill="none" stroke="black" d="M875.52,-110.55C754.12,-113.77 175.43,-131.65 115.79,-182 71.1,-219.73 39.79,-375.51 39.79,-434 39.79,-2064.98 39.79,-2064.98 39.79,-2064.98 39.79,-2103.93 72.28,-2105.44 108.79,-2118.98 185.23,-2147.34 769.07,-2155.93 914.21,-2157.64"/>
<polygon fill="black" stroke="black" points="914.6,-2161.14 924.64,-2157.76 914.68,-2154.14 914.6,-2161.14"/>
<text text-anchor="middle" x="44.79" y="-1109.29" font-family="Times,serif" font-size="14.00">2</text>
</g>
<!-- 8&#45;&gt;4 -->
<g id="edge81" class="edge">
<title>8&#45;&gt;4</title>
<path fill="none" stroke="black" d="M875.71,-110.02C796.58,-110.66 520.44,-117.66 304.79,-182 217.71,-207.98 115.79,-169.12 115.79,-260 115.79,-809.49 115.79,-809.49 115.79,-809.49 115.79,-844.48 111.13,-853.03 109.79,-887.99 106.55,-972.85 124.21,-993.17 137.79,-1076.99 205.52,-1494.99 97.75,-1701.5 406.79,-1990.98 425.95,-2008.93 430.86,-2015.75 455.79,-2023.98 535.5,-2050.31 1136.95,-2060.45 1284.29,-2062.55"/>
<polygon fill="black" stroke="black" points="1284.43,-2066.05 1294.48,-2062.69 1284.53,-2059.05 1284.43,-2066.05"/>
<text text-anchor="middle" x="142.79" y="-1065.79" font-family="Times,serif" font-size="14.00">4</text>
</g>
<!-- 13 -->
<g id="node15" class="node">
<title>13</title>
<ellipse fill="none" stroke="black" cx="1457.79" cy="-18" rx="27" ry="18"/>
<text text-anchor="middle" x="1457.79" y="-14.3" font-family="Times,serif" font-size="14.00">13</text>
</g>
<!-- 8&#45;&gt;13 -->
<g id="edge125" class="edge">
<title>8&#45;&gt;13</title>
<path fill="none" stroke="black" d="M919.4,-104.57C1004.31,-91.07 1315.61,-41.6 1421.92,-24.7"/>
<polygon fill="black" stroke="black" points="1422.52,-28.15 1431.85,-23.12 1421.42,-21.24 1422.52,-28.15"/>
<text text-anchor="middle" x="1233.79" y="-57.8" font-family="Times,serif" font-size="14.00">3</text>
</g>
<!-- 8&#45;&gt;23 -->
<g id="edge60" class="edge">
<title>8&#45;&gt;23</title>
<path fill="none" stroke="black" d="M875.73,-111.25C774.29,-117.55 354.92,-149.69 291.79,-253.5 254.71,-314.47 288.3,-351.44 329.79,-409.5 396.8,-503.26 531.83,-553.36 595.32,-572.58"/>
<polygon fill="black" stroke="black" points="594.65,-576.03 605.23,-575.51 596.63,-569.32 594.65,-576.03"/>
<text text-anchor="middle" x="297.79" y="-344.3" font-family="Times,serif" font-size="14.00">1</text>
</g>
<!-- 29 -->
<g id="node31" class="node">
<title>29</title>
<ellipse fill="none" stroke="black" cx="1631.79" cy="-1286.99" rx="27" ry="18"/>
<text text-anchor="middle" x="1631.79" y="-1283.29" font-family="Times,serif" font-size="14.00">29</text>
</g>
<!-- 8&#45;&gt;29 -->
<g id="edge26" class="edge">
<title>8&#45;&gt;29</title>
<path fill="none" stroke="black" d="M919.74,-111.85C992.44,-118.57 1220.79,-144.69 1220.79,-207.75 1220.79,-488.24 1220.79,-488.24 1220.79,-488.24 1220.79,-737.36 1175.4,-824.8 1293.79,-1043.99 1361.95,-1170.18 1527.97,-1246.29 1598.84,-1274.02"/>
<polygon fill="black" stroke="black" points="1598,-1277.45 1608.59,-1277.76 1600.51,-1270.91 1598,-1277.45"/>
<text text-anchor="middle" x="1217.79" y="-717.79" font-family="Times,serif" font-size="14.00">0</text>
</g>
<!-- 9 -->
<g id="node11" class="node">
<title>9</title>
<ellipse fill="none" stroke="black" cx="1332.79" cy="-673.99" rx="18" ry="18"/>
<ellipse fill="none" stroke="black" cx="1332.79" cy="-673.99" rx="22" ry="22"/>
<text text-anchor="middle" x="1332.79" y="-670.29" font-family="Times,serif" font-size="14.00">9</text>
</g>
<!-- 9&#45;&gt;5 -->
<g id="edge102" class="edge">
<title>9&#45;&gt;5</title>
<path fill="none" stroke="black" d="M1311.79,-680.98C1294.17,-686.91 1269.31,-697.51 1252.79,-713.99 1220.99,-745.72 1096.57,-1037.7 1074.79,-1076.99 1058.78,-1105.89 917.79,-1296.46 917.79,-1329.49 917.79,-1500.49 917.79,-1500.49 917.79,-1500.49 917.79,-1534.93 882.67,-1558.92 855.14,-1572.42"/>
<polygon fill="black" stroke="black" points="853.39,-1569.38 845.79,-1576.76 856.33,-1575.73 853.39,-1569.38"/>
<text text-anchor="middle" x="1068.79" y="-1109.29" font-family="Times,serif" font-size="14.00">0</text>
</g>
<!-- 9&#45;&gt;5 -->
<g id="edge146" class="edge">
<title>9&#45;&gt;5</title>
<path fill="none" stroke="black" d="M1324.69,-694.63C1288.31,-782.73 1139.36,-1141.94 1084.79,-1250.99 1016.11,-1388.27 1029.18,-1450.41 912.79,-1550.49 903.97,-1558.07 878.28,-1567.72 856.59,-1574.96"/>
<polygon fill="black" stroke="black" points="855.39,-1571.67 846.98,-1578.1 857.57,-1578.32 855.39,-1571.67"/>
<text text-anchor="middle" x="1160.79" y="-1109.29" font-family="Times,serif" font-size="14.00">4</text>
</g>
<!-- 9&#45;&gt;8 -->
<g id="edge147" class="edge">
<title>9&#45;&gt;8</title>
<path fill="none" stroke="black" d="M1352.31,-663.66C1377.68,-650.01 1418.79,-622.02 1418.79,-583.99 1418.79,-583.99 1418.79,-583.99 1418.79,-207.75 1418.79,-157.77 1043.61,-122.22 930,-112.61"/>
<polygon fill="black" stroke="black" points="930.1,-109.1 919.85,-111.76 929.52,-116.08 930.1,-109.1"/>
<text text-anchor="middle" x="1423.79" y="-387.8" font-family="Times,serif" font-size="14.00">3</text>
</g>
<!-- 20 -->
<g id="node22" class="node">
<title>20</title>
<ellipse fill="none" stroke="black" cx="1103.79" cy="-582.99" rx="27" ry="18"/>
<text text-anchor="middle" x="1103.79" y="-579.29" font-family="Times,serif" font-size="14.00">20</text>
</g>
<!-- 9&#45;&gt;20 -->
<g id="edge98" class="edge">
<title>9&#45;&gt;20</title>
<path fill="none" stroke="black" d="M1312.47,-665.09C1272.72,-649.64 1184.37,-615.31 1136.36,-596.65"/>
<polygon fill="black" stroke="black" points="1137.35,-593.28 1126.76,-592.92 1134.82,-599.8 1137.35,-593.28"/>
<text text-anchor="middle" x="1237.79" y="-622.79" font-family="Times,serif" font-size="14.00">1</text>
</g>
<!-- 9&#45;&gt;23 -->
<g id="edge58" class="edge">
<title>9&#45;&gt;23</title>
<path fill="none" stroke="black" d="M1310.98,-670.23C1210.56,-657.52 792.2,-604.55 665.99,-588.58"/>
<polygon fill="black" stroke="black" points="666.42,-585.1 656.06,-587.32 665.54,-592.05 666.42,-585.1"/>
<text text-anchor="middle" x="1028.79" y="-622.79" font-family="Times,serif" font-size="14.00">2</text>
</g>
<!-- 10&#45;&gt;7 -->
<g id="edge130" class="edge">
<title>10&#45;&gt;7</title>
<path fill="none" stroke="black" d="M596.13,-461.51C600.71,-449.83 607.68,-436.5 617.79,-427.5 635.1,-412.08 659.68,-403.32 679.9,-398.42"/>
<polygon fill="black" stroke="black" points="680.7,-401.83 689.71,-396.26 679.19,-395 680.7,-401.83"/>
<text text-anchor="middle" x="622.79" y="-431.3" font-family="Times,serif" font-size="14.00">3</text>
</g>
<!-- 10&#45;&gt;8 -->
<g id="edge5" class="edge">
<title>10&#45;&gt;8</title>
<path fill="none" stroke="black" d="M591.34,-460.61C593.28,-449.79 596.72,-437.43 602.79,-427.5 659.52,-334.71 722.02,-354.34 788.79,-268.5 825.16,-221.74 810.39,-194.93 847.79,-149 854.4,-140.89 862.99,-133.43 871.18,-127.25"/>
<polygon fill="black" stroke="black" points="873.38,-129.98 879.47,-121.31 869.3,-124.29 873.38,-129.98"/>
<text text-anchor="middle" x="777.79" y="-300.8" font-family="Times,serif" font-size="14.00">4</text>
</g>
<!-- 10&#45;&gt;10 -->
<g id="edge111" class="edge">
<title>10&#45;&gt;10</title>
<path fill="none" stroke="black" d="M614.09,-496.91C624.62,-497.57 633.54,-494.35 633.54,-487.24 633.54,-482.58 629.7,-479.59 624.08,-478.27"/>
<polygon fill="black" stroke="black" points="624.31,-474.78 614.09,-477.58 623.83,-481.76 624.31,-474.78"/>
<text text-anchor="middle" x="638.54" y="-483.54" font-family="Times,serif" font-size="14.00">2</text>
</g>
<!-- 10&#45;&gt;13 -->
<g id="edge36" class="edge">
<title>10&#45;&gt;13</title>
<path fill="none" stroke="black" d="M562.27,-483C502.39,-474.21 356.14,-444.31 280.79,-355.5 230.43,-296.14 243.19,-229.59 304.79,-182 485.3,-42.58 1243.35,-22.3 1420.61,-19.45"/>
<polygon fill="black" stroke="black" points="1420.79,-22.95 1430.73,-19.3 1420.68,-15.95 1420.79,-22.95"/>
<text text-anchor="middle" x="258.79" y="-257.3" font-family="Times,serif" font-size="14.00">1</text>
</g>
<!-- 28 -->
<g id="node30" class="node">
<title>28</title>
<ellipse fill="none" stroke="black" cx="465.79" cy="-208.75" rx="22.96" ry="22.96"/>
<ellipse fill="none" stroke="black" cx="465.79" cy="-208.75" rx="27" ry="27"/>
<text text-anchor="middle" x="465.79" y="-205.05" font-family="Times,serif" font-size="14.00">28</text>
</g>
<!-- 10&#45;&gt;28 -->
<g id="edge2" class="edge">
<title>10&#45;&gt;28</title>
<path fill="none" stroke="black" d="M578.2,-462.43C575.58,-456.03 572.91,-449.06 570.79,-442.5 544.28,-360.32 573.64,-325.38 525.79,-253.5 518.76,-242.93 508.27,-234.02 498.01,-227.06"/>
<polygon fill="black" stroke="black" points="499.85,-224.08 489.53,-221.67 496.1,-229.99 499.85,-224.08"/>
<text text-anchor="middle" x="562.79" y="-344.3" font-family="Times,serif" font-size="14.00">0</text>
</g>
<!-- 11&#45;&gt;4 -->
<g id="edge12" class="edge">
<title>11&#45;&gt;4</title>
<path fill="none" stroke="black" d="M1926.3,-1042.67C1957.32,-1089.27 2050.38,-1231.42 2115.79,-1355.99 2195.75,-1508.27 2257.79,-1543.99 2257.79,-1715.99 2257.79,-1973.98 2257.79,-1973.98 2257.79,-1973.98 2257.79,-2067.32 1514.62,-2065.05 1349.17,-2063.39"/>
<polygon fill="black" stroke="black" points="1349.16,-2059.89 1339.12,-2063.28 1349.09,-2066.89 1349.16,-2059.89"/>
<text text-anchor="middle" x="2231.79" y="-1539.29" font-family="Times,serif" font-size="14.00">3</text>
</g>
<!-- 11&#45;&gt;9 -->
<g id="edge54" class="edge">
<title>11&#45;&gt;9</title>
<path fill="none" stroke="black" d="M1890.01,-1020.03C1868.51,-1015.01 1837.78,-1005.69 1814.79,-989.99 1765.59,-956.39 1773.41,-926.32 1727.79,-887.99 1611.25,-790.08 1569.7,-780.53 1432.79,-713.99 1410,-702.91 1383.19,-692.6 1363.08,-685.36"/>
<polygon fill="black" stroke="black" points="1364.1,-682.01 1353.51,-681.97 1361.76,-688.61 1364.1,-682.01"/>
<text text-anchor="middle" x="1708.79" y="-848.29" font-family="Times,serif" font-size="14.00">0</text>
</g>
<!-- 11&#45;&gt;11 -->
<g id="edge101" class="edge">
<title>11&#45;&gt;11</title>
<path fill="none" stroke="black" d="M1940.32,-1033.74C1951.3,-1034.48 1960.79,-1031.9 1960.79,-1025.99 1960.79,-1022.02 1956.51,-1019.56 1950.37,-1018.59"/>
<polygon fill="black" stroke="black" points="1950.44,-1015.09 1940.32,-1018.24 1950.2,-1022.08 1950.44,-1015.09"/>
<text text-anchor="middle" x="1965.79" y="-1022.29" font-family="Times,serif" font-size="14.00">1</text>
</g>
<!-- 24 -->
<g id="node26" class="node">
<title>24</title>
<ellipse fill="none" stroke="black" cx="1858.79" cy="-208.75" rx="22.96" ry="22.96"/>
<ellipse fill="none" stroke="black" cx="1858.79" cy="-208.75" rx="27" ry="27"/>
<text text-anchor="middle" x="1858.79" y="-205.05" font-family="Times,serif" font-size="14.00">24</text>
</g>
<!-- 11&#45;&gt;24 -->
<g id="edge104" class="edge">
<title>11&#45;&gt;24</title>
<path fill="none" stroke="black" d="M1916.99,-1007.96C1919.44,-971.55 1924.79,-883.45 1924.79,-809.49 1924.79,-809.49 1924.79,-809.49 1924.79,-303.5 1924.79,-275.63 1905.05,-250.2 1887.17,-232.88"/>
<polygon fill="black" stroke="black" points="1889.4,-230.18 1879.68,-225.97 1884.65,-235.33 1889.4,-230.18"/>
<text text-anchor="middle" x="1929.79" y="-622.79" font-family="Times,serif" font-size="14.00">4</text>
</g>
<!-- 11&#45;&gt;26 -->
<g id="edge63" class="edge">
<title>11&#45;&gt;26</title>
<path fill="none" stroke="black" d="M1938.12,-1015.73C1974.63,-1000.6 2047.21,-970.5 2089.05,-953.15"/>
<polygon fill="black" stroke="black" points="2090.59,-956.3 2098.49,-949.24 2087.91,-949.84 2090.59,-956.3"/>
<text text-anchor="middle" x="2034.79" y="-978.79" font-family="Times,serif" font-size="14.00">2</text>
</g>
<!-- 12&#45;&gt;0 -->
<g id="edge86" class="edge">
<title>12&#45;&gt;0</title>
<path fill="none" stroke="black" d="M2375.35,-769.53C2398.56,-773.73 2432.17,-782.66 2455.79,-800.99 2469.52,-811.65 2469.97,-818 2476.79,-833.99 2550.17,-1005.9 2576.79,-1055.58 2576.79,-1242.49 2576.79,-2064.98 2576.79,-2064.98 2576.79,-2064.98 2576.79,-2185.18 2431.34,-2106.45 2311.79,-2118.98 2041.45,-2147.32 1160.17,-2156.19 979.38,-2157.72"/>
<polygon fill="black" stroke="black" points="979.16,-2154.23 969.19,-2157.81 979.22,-2161.23 979.16,-2154.23"/>
<text text-anchor="middle" x="2581.79" y="-1441.79" font-family="Times,serif" font-size="14.00">4</text>
</g>
<!-- 12&#45;&gt;9 -->
<g id="edge37" class="edge">
<title>12&#45;&gt;9</title>
<path fill="none" stroke="black" d="M2322.14,-761.66C2180.73,-749.27 1518.91,-691.3 1364.88,-677.8"/>
<polygon fill="black" stroke="black" points="1364.95,-674.3 1354.69,-676.91 1364.34,-681.27 1364.95,-674.3"/>
<text text-anchor="middle" x="1936.79" y="-717.79" font-family="Times,serif" font-size="14.00">0</text>
</g>
<!-- 12&#45;&gt;13 -->
<g id="edge18" class="edge">
<title>12&#45;&gt;13</title>
<path fill="none" stroke="black" d="M2348.79,-746.93C2348.79,-729.01 2348.79,-700.02 2348.79,-674.99 2348.79,-674.99 2348.79,-674.99 2348.79,-108 2348.79,-20.77 1663.96,-18.08 1495.09,-18.75"/>
<polygon fill="black" stroke="black" points="1494.93,-15.25 1484.94,-18.79 1494.96,-22.25 1494.93,-15.25"/>
<text text-anchor="middle" x="2353.79" y="-387.8" font-family="Times,serif" font-size="14.00">2</text>
</g>
<!-- 12&#45;&gt;21 -->
<g id="edge91" class="edge">
<title>12&#45;&gt;21</title>
<path fill="none" stroke="black" d="M2340.92,-782.27C2299.38,-867.47 2103.53,-1261.17 1994.79,-1337.99 1808.72,-1469.45 1722.1,-1423.63 1497.79,-1463.49 1390.89,-1482.49 1262.77,-1492.36 1200.88,-1496.34"/>
<polygon fill="black" stroke="black" points="1200.58,-1492.85 1190.82,-1496.97 1201.02,-1499.84 1200.58,-1492.85"/>
<text text-anchor="middle" x="2177.79" y="-1109.29" font-family="Times,serif" font-size="14.00">3</text>
</g>
<!-- 12&#45;&gt;29 -->
<g id="edge14" class="edge">
<title>12&#45;&gt;29</title>
<path fill="none" stroke="black" d="M2324.82,-773.61C2306.29,-779.89 2280.27,-789.61 2258.79,-800.99 2175.79,-844.98 2148.71,-852.15 2084.79,-920.99 2041.69,-967.41 2054.96,-996.72 2012.79,-1043.99 1969.89,-1092.08 1950.47,-1095.33 1896.79,-1130.99 1813.79,-1186.13 1710.69,-1243.4 1661.11,-1270.28"/>
<polygon fill="black" stroke="black" points="1659.35,-1267.26 1652.22,-1275.09 1662.68,-1273.41 1659.35,-1267.26"/>
<text text-anchor="middle" x="2041.79" y="-1022.29" font-family="Times,serif" font-size="14.00">1</text>
</g>
<!-- 13&#45;&gt;3 -->
<g id="edge59" class="edge">
<title>13&#45;&gt;3</title>
<path fill="none" stroke="black" d="M1430.72,-19.09C1269.79,-19.7 437.48,-24.26 183.79,-54 -26.88,-78.69 1.79,-46.91 1.79,-108 1.79,-436 1.79,-436 1.79,-436 1.79,-526.74 77.79,-534.75 77.79,-625.49 77.79,-809.49 77.79,-809.49 77.79,-809.49 77.79,-894.57 161.79,-896.42 161.79,-981.49 161.79,-1157.49 161.79,-1157.49 161.79,-1157.49 161.79,-1246.15 280.45,-1446.67 333.79,-1517.49 366.88,-1561.42 382.36,-1566.15 421.79,-1604.49 461.91,-1643.49 466.67,-1659.81 512.79,-1691.49 532.42,-1704.96 590.53,-1730.6 627.25,-1746.25"/>
<polygon fill="black" stroke="black" points="625.96,-1749.51 636.54,-1750.2 628.7,-1743.07 625.96,-1749.51"/>
<text text-anchor="middle" x="131.79" y="-891.79" font-family="Times,serif" font-size="14.00">1</text>
</g>
<!-- 13&#45;&gt;4 -->
<g id="edge85" class="edge">
<title>13&#45;&gt;4</title>
<path fill="none" stroke="black" d="M1485.1,-19.36C1616.06,-21.2 2180.48,-30.36 2354.79,-54 2458.84,-68.11 2584.79,-3 2584.79,-108 2584.79,-983.49 2584.79,-983.49 2584.79,-983.49 2584.79,-1047.07 2530.19,-1490.99 2507.79,-1550.49 2493.05,-1589.65 2455.79,-1587.14 2455.79,-1628.99 2455.79,-1973.98 2455.79,-1973.98 2455.79,-1973.98 2455.79,-2091.22 2313.22,-2010.24 2196.79,-2023.98 1867.59,-2062.84 1464.98,-2063.86 1349.28,-2063.25"/>
<polygon fill="black" stroke="black" points="1349.01,-2059.75 1338.99,-2063.19 1348.97,-2066.75 1349.01,-2059.75"/>
<text text-anchor="middle" x="2587.79" y="-1022.29" font-family="Times,serif" font-size="14.00">0</text>
</g>
<!-- 13&#45;&gt;5 -->
<g id="edge13" class="edge">
<title>13&#45;&gt;5</title>
<path fill="none" stroke="black" d="M1430.73,-19.24C1234.69,-21.12 39.79,-35.54 39.79,-108 39.79,-262 39.79,-262 39.79,-262 39.79,-480.08 152.7,-510.37 230.79,-713.99 286.36,-858.87 287.29,-899.87 344.79,-1043.99 350.76,-1058.96 351.65,-1063.09 359.79,-1076.99 425.69,-1189.58 600.3,-1475.15 706.79,-1550.49 730.38,-1567.18 762.06,-1576.03 786.35,-1580.66"/>
<polygon fill="black" stroke="black" points="785.81,-1584.12 796.26,-1582.39 787.01,-1577.22 785.81,-1584.12"/>
<text text-anchor="middle" x="272.79" y="-804.79" font-family="Times,serif" font-size="14.00">3</text>
</g>
<!-- 13&#45;&gt;12 -->
<g id="edge34" class="edge">
<title>13&#45;&gt;12</title>
<path fill="none" stroke="black" d="M1484.82,-19.04C1608.38,-19.42 2120.11,-22.84 2276.79,-54 2345.47,-67.66 2424.79,-37.98 2424.79,-108 2424.79,-674.99 2424.79,-674.99 2424.79,-674.99 2424.79,-705.66 2398.36,-731.11 2376.68,-746.83"/>
<polygon fill="black" stroke="black" points="2374.61,-744 2368.36,-752.56 2378.58,-749.77 2374.61,-744"/>
<text text-anchor="middle" x="2429.79" y="-387.8" font-family="Times,serif" font-size="14.00">4</text>
</g>
<!-- 13&#45;&gt;21 -->
<g id="edge99" class="edge">
<title>13&#45;&gt;21</title>
<path fill="none" stroke="black" d="M1467.67,-34.96C1501.89,-90.5 1614.66,-275.49 1638.79,-340.5 1700.08,-505.6 1591.96,-604.77 1716.79,-728.99 1746.33,-758.38 1779.48,-717.38 1808.79,-746.99 1825.96,-764.34 1816.56,-776.69 1818.79,-800.99 1829.2,-914.33 1798.65,-1215.93 1727.79,-1304.99 1658.96,-1391.5 1312.4,-1468.35 1199.45,-1491.44"/>
<polygon fill="black" stroke="black" points="1198.67,-1488.02 1189.56,-1493.44 1200.06,-1494.88 1198.67,-1488.02"/>
<text text-anchor="middle" x="1823.79" y="-761.29" font-family="Times,serif" font-size="14.00">2</text>
</g>
<!-- 14&#45;&gt;6 -->
<g id="edge4" class="edge">
<title>14&#45;&gt;6</title>
<path fill="none" stroke="black" d="M1599.06,-1186.58C1606.55,-1180.59 1614.66,-1172.79 1619.79,-1163.99 1623.79,-1157.13 1626.34,-1148.96 1627.96,-1141.24"/>
<polygon fill="black" stroke="black" points="1631.45,-1141.59 1629.65,-1131.15 1624.55,-1140.44 1631.45,-1141.59"/>
<text text-anchor="middle" x="1629.79" y="-1152.79" font-family="Times,serif" font-size="14.00">0</text>
</g>
<!-- 14&#45;&gt;6 -->
<g id="edge57" class="edge">
<title>14&#45;&gt;6</title>
<path fill="none" stroke="black" d="M1589.67,-1182.66C1595.07,-1172.83 1602.19,-1160.11 1608.79,-1148.99 1610.84,-1145.55 1613.03,-1141.95 1615.22,-1138.41"/>
<polygon fill="black" stroke="black" points="1618.2,-1140.25 1620.54,-1129.92 1612.27,-1136.53 1618.2,-1140.25"/>
<text text-anchor="middle" x="1613.79" y="-1152.79" font-family="Times,serif" font-size="14.00">4</text>
</g>
<!-- 14&#45;&gt;9 -->
<g id="edge75" class="edge">
<title>14&#45;&gt;9</title>
<path fill="none" stroke="black" d="M1574.25,-1182.29C1558.88,-1143.03 1519.31,-1041.79 1486.79,-956.99 1445.44,-849.17 1467.91,-803.38 1394.79,-713.99 1385.96,-703.2 1373.32,-694.49 1361.75,-688.07"/>
<polygon fill="black" stroke="black" points="1363.28,-684.92 1352.79,-683.41 1360.05,-691.13 1363.28,-684.92"/>
<text text-anchor="middle" x="1491.79" y="-935.29" font-family="Times,serif" font-size="14.00">2</text>
</g>
<!-- 14&#45;&gt;12 -->
<g id="edge17" class="edge">
<title>14&#45;&gt;12</title>
<path fill="none" stroke="black" d="M1601.79,-1188.58C1638.62,-1169.67 1716.14,-1127.01 1770.79,-1076.99 1813.49,-1037.91 1811.24,-1016.3 1851.79,-974.99 1936.95,-888.25 1951.11,-848.96 2062.79,-800.99 2106.75,-782.11 2244.67,-771.91 2311.61,-767.95"/>
<polygon fill="black" stroke="black" points="2311.94,-771.44 2321.72,-767.37 2311.54,-764.45 2311.94,-771.44"/>
<text text-anchor="middle" x="1856.79" y="-978.79" font-family="Times,serif" font-size="14.00">3</text>
</g>
<!-- 14&#45;&gt;27 -->
<g id="edge41" class="edge">
<title>14&#45;&gt;27</title>
<path fill="none" stroke="black" d="M1577.62,-1218.12C1574.42,-1241.29 1572.79,-1282.34 1595.79,-1304.99 1640.49,-1349.01 1687.39,-1283.08 1735.79,-1322.99 1771.28,-1352.25 1865.79,-1669.99 1865.79,-1715.99 1865.79,-1848.49 1865.79,-1848.49 1865.79,-1848.49 1865.79,-1893.66 1853.82,-1912.6 1815.79,-1936.98 1784.22,-1957.23 1532.23,-1967.59 1435.98,-1970.84"/>
<polygon fill="black" stroke="black" points="1435.71,-1967.34 1425.83,-1971.17 1435.94,-1974.34 1435.71,-1967.34"/>
<text text-anchor="middle" x="1845.79" y="-1582.79" font-family="Times,serif" font-size="14.00">1</text>
</g>
<!-- 15&#45;&gt;5 -->
<g id="edge78" class="edge">
<title>15&#45;&gt;5</title>
<path fill="none" stroke="black" d="M1368.91,-1659.72C1348.59,-1645.26 1317.84,-1623.56 1314.79,-1622.49 1231.03,-1592.95 959.96,-1588.3 860.14,-1587.6"/>
<polygon fill="black" stroke="black" points="859.95,-1584.1 849.93,-1587.54 859.91,-1591.1 859.95,-1584.1"/>
<text text-anchor="middle" x="1340.79" y="-1626.29" font-family="Times,serif" font-size="14.00">0</text>
</g>
<!-- 15&#45;&gt;9 -->
<g id="edge7" class="edge">
<title>15&#45;&gt;9</title>
<path fill="none" stroke="black" d="M1412.07,-1666.91C1447.81,-1657.36 1508.79,-1634.21 1508.79,-1587.49 1508.79,-1587.49 1508.79,-1587.49 1508.79,-1444.49 1508.79,-1404.06 1503.19,-1393.37 1487.79,-1355.99 1484.22,-1347.32 1480.86,-1346.44 1476.79,-1337.99 1455.89,-1294.53 1456.41,-1281.26 1439.79,-1235.99 1422.64,-1189.26 1416.59,-1178.2 1400.79,-1130.99 1387.98,-1092.72 1382.49,-1083.61 1374.79,-1043.99 1346.68,-899.39 1370.79,-858.81 1343.79,-713.99 1343.23,-710.98 1342.54,-707.86 1341.78,-704.76"/>
<polygon fill="black" stroke="black" points="1345.16,-703.83 1339.21,-695.07 1338.39,-705.63 1345.16,-703.83"/>
<text text-anchor="middle" x="1416.79" y="-1152.79" font-family="Times,serif" font-size="14.00">4</text>
</g>
<!-- 15&#45;&gt;11 -->
<g id="edge72" class="edge">
<title>15&#45;&gt;11</title>
<path fill="none" stroke="black" d="M1413.76,-1670.88C1442.89,-1668 1489.57,-1659.96 1522.79,-1637.49 1629.66,-1565.19 1798.5,-1278.06 1858.79,-1163.99 1878.41,-1126.87 1896.15,-1081.49 1906.46,-1053.41"/>
<polygon fill="black" stroke="black" points="1909.79,-1054.49 1909.9,-1043.89 1903.21,-1052.1 1909.79,-1054.49"/>
<text text-anchor="middle" x="1771.79" y="-1326.79" font-family="Times,serif" font-size="14.00">2</text>
</g>
<!-- 15&#45;&gt;12 -->
<g id="edge138" class="edge">
<title>15&#45;&gt;12</title>
<path fill="none" stroke="black" d="M1413.92,-1673.23C1487.86,-1674.3 1697.87,-1670.82 1854.79,-1604.49 1926.13,-1574.33 1946.39,-1567.19 2005.79,-1517.49 2113.97,-1426.99 2348.79,-1124.53 2348.79,-983.49 2348.79,-983.49 2348.79,-983.49 2348.79,-850.99 2348.79,-831.74 2348.79,-810.05 2348.79,-793.39"/>
<polygon fill="black" stroke="black" points="2352.29,-793.25 2348.79,-783.25 2345.29,-793.25 2352.29,-793.25"/>
<text text-anchor="middle" x="2276.79" y="-1196.29" font-family="Times,serif" font-size="14.00">1</text>
</g>
<!-- 15&#45;&gt;28 -->
<g id="edge76" class="edge">
<title>15&#45;&gt;28</title>
<path fill="none" stroke="black" d="M1360.62,-1669.03C1333.62,-1665.5 1290.29,-1659.92 1252.79,-1655.49 977.42,-1622.95 863.59,-1711.44 637.79,-1550.49 507.06,-1457.3 330.79,-1057.04 330.79,-896.49 330.79,-896.49 330.79,-896.49 330.79,-720.49 330.79,-550.15 209.61,-495.25 280.79,-340.5 309.65,-277.75 385.98,-239.56 431.06,-221.77"/>
<polygon fill="black" stroke="black" points="432.36,-225.02 440.45,-218.18 429.86,-218.48 432.36,-225.02"/>
<text text-anchor="middle" x="341.79" y="-935.29" font-family="Times,serif" font-size="14.00">3</text>
</g>
<!-- 16&#45;&gt;9 -->
<g id="edge30" class="edge">
<title>16&#45;&gt;9</title>
<path fill="none" stroke="black" d="M933.1,-310.97C993.28,-325.23 1146.49,-368.91 1234.79,-460.5 1285.8,-513.41 1313.66,-597.65 1325.61,-642.53"/>
<polygon fill="black" stroke="black" points="1322.23,-643.45 1328.12,-652.26 1329.01,-641.7 1322.23,-643.45"/>
<text text-anchor="middle" x="1277.79" y="-483.54" font-family="Times,serif" font-size="14.00">1</text>
</g>
<!-- 16&#45;&gt;21 -->
<g id="edge6" class="edge">
<title>16&#45;&gt;21</title>
<path fill="none" stroke="black" d="M929.88,-314.94C940.68,-320.72 952.81,-329.2 959.79,-340.5 1069.31,-517.74 1000.79,-599.14 1000.79,-807.49 1000.79,-983.49 1000.79,-983.49 1000.79,-983.49 1000.79,-1180.05 1110.05,-1399.95 1149.66,-1473.23"/>
<polygon fill="black" stroke="black" points="1146.7,-1475.1 1154.56,-1482.19 1152.84,-1471.74 1146.7,-1475.1"/>
<text text-anchor="middle" x="1005.79" y="-891.79" font-family="Times,serif" font-size="14.00">3</text>
</g>
<!-- 16&#45;&gt;24 -->
<g id="edge43" class="edge">
<title>16&#45;&gt;24</title>
<path fill="none" stroke="black" d="M934.47,-300.87C1068.41,-287.66 1667.19,-228.64 1822.1,-213.36"/>
<polygon fill="black" stroke="black" points="1822.46,-216.85 1832.07,-212.38 1821.77,-209.88 1822.46,-216.85"/>
<text text-anchor="middle" x="1416.79" y="-257.3" font-family="Times,serif" font-size="14.00">4</text>
</g>
<!-- 16&#45;&gt;27 -->
<g id="edge67" class="edge">
<title>16&#45;&gt;27</title>
<path fill="none" stroke="black" d="M881.89,-309.62C857.43,-313.39 819.69,-318.92 786.79,-322.5 644.05,-338 587.31,-293.94 467.79,-373.5 314.31,-475.66 282.93,-537.14 230.79,-713.99 202.74,-809.15 247.61,-1517.77 295.79,-1604.49 346.3,-1695.41 407.3,-1673.11 484.79,-1742.49 572.1,-1820.65 556.18,-1888.36 662.79,-1936.98 732.37,-1968.72 1275.6,-1941.05 1350.79,-1954.98 1356.09,-1955.97 1361.58,-1957.44 1366.88,-1959.13"/>
<polygon fill="black" stroke="black" points="1366.13,-1962.57 1376.73,-1962.53 1368.42,-1955.95 1366.13,-1962.57"/>
<text text-anchor="middle" x="237.79" y="-1109.29" font-family="Times,serif" font-size="14.00">2</text>
</g>
<!-- 16&#45;&gt;28 -->
<g id="edge62" class="edge">
<title>16&#45;&gt;28</title>
<path fill="none" stroke="black" d="M881.72,-299.2C854.29,-294.09 810.26,-284.23 774.79,-268.5 763.64,-263.55 763.19,-257.85 751.79,-253.5 666.71,-221 558.68,-212.59 502.89,-210.45"/>
<polygon fill="black" stroke="black" points="502.89,-206.95 492.78,-210.11 502.65,-213.94 502.89,-206.95"/>
<text text-anchor="middle" x="779.79" y="-257.3" font-family="Times,serif" font-size="14.00">0</text>
</g>
<!-- 17&#45;&gt;9 -->
<g id="edge139" class="edge">
<title>17&#45;&gt;9</title>
<path fill="none" stroke="black" d="M1750.25,-113.09C1708.73,-118.42 1631.07,-130.6 1610.79,-149 1471.95,-275.02 1562.61,-383.5 1470.79,-546.99 1448.28,-587.09 1449.32,-603.62 1414.79,-633.99 1399.99,-647.01 1380.08,-656.62 1363.59,-663.04"/>
<polygon fill="black" stroke="black" points="1362.02,-659.89 1353.84,-666.63 1364.43,-666.46 1362.02,-659.89"/>
<text text-anchor="middle" x="1523.79" y="-387.8" font-family="Times,serif" font-size="14.00">4</text>
</g>
<!-- 17&#45;&gt;23 -->
<g id="edge140" class="edge">
<title>17&#45;&gt;23</title>
<path fill="none" stroke="black" d="M1749.82,-112.24C1615.49,-123.84 1019.22,-180.65 871.79,-286.5 774.39,-356.42 808.76,-426.49 726.79,-513.99 706.95,-535.17 679.51,-553.67 658.88,-566"/>
<polygon fill="black" stroke="black" points="657.08,-562.99 650.21,-571.06 660.61,-569.04 657.08,-562.99"/>
<text text-anchor="middle" x="823.79" y="-344.3" font-family="Times,serif" font-size="14.00">1</text>
</g>
<!-- 17&#45;&gt;24 -->
<g id="edge19" class="edge">
<title>17&#45;&gt;24</title>
<path fill="none" stroke="black" d="M1801.92,-115.82C1819.5,-121.29 1841.89,-131.36 1853.79,-149 1858.3,-155.68 1860.51,-163.81 1861.4,-171.87"/>
<polygon fill="black" stroke="black" points="1857.91,-172.11 1861.91,-181.92 1864.9,-171.75 1857.91,-172.11"/>
<text text-anchor="middle" x="1864.79" y="-152.8" font-family="Times,serif" font-size="14.00">0</text>
</g>
<!-- 17&#45;&gt;26 -->
<g id="edge50" class="edge">
<title>17&#45;&gt;26</title>
<path fill="none" stroke="black" d="M1803.88,-110.29C1898.67,-112.04 2209.79,-124.13 2209.79,-207.75 2209.79,-852.99 2209.79,-852.99 2209.79,-852.99 2209.79,-885.72 2177.92,-909.72 2152.33,-923.71"/>
<polygon fill="black" stroke="black" points="2150.52,-920.71 2143.25,-928.41 2153.74,-926.92 2150.52,-920.71"/>
<text text-anchor="middle" x="2214.79" y="-535.79" font-family="Times,serif" font-size="14.00">3</text>
</g>
<!-- 17&#45;&gt;29 -->
<g id="edge106" class="edge">
<title>17&#45;&gt;29</title>
<path fill="none" stroke="black" d="M1766.41,-125.87C1755.16,-144.62 1738.79,-177.16 1738.79,-207.75 1738.79,-809.49 1738.79,-809.49 1738.79,-809.49 1738.79,-900.24 1663.97,-1172.42 1639.46,-1259.14"/>
<polygon fill="black" stroke="black" points="1636.03,-1258.42 1636.67,-1268.99 1642.76,-1260.33 1636.03,-1258.42"/>
<text text-anchor="middle" x="1743.79" y="-717.79" font-family="Times,serif" font-size="14.00">2</text>
</g>
<!-- 18&#45;&gt;4 -->
<g id="edge148" class="edge">
<title>18&#45;&gt;4</title>
<path fill="none" stroke="black" d="M2140.35,-1936.02C2130.83,-1962.89 2111.54,-2004.52 2078.79,-2023.98 2015.46,-2061.63 1486.72,-2063.3 1349.32,-2063.09"/>
<polygon fill="black" stroke="black" points="1349.04,-2059.59 1339.03,-2063.07 1349.02,-2066.59 1349.04,-2059.59"/>
<text text-anchor="middle" x="2100.79" y="-2012.78" font-family="Times,serif" font-size="14.00">3</text>
</g>
<!-- 18&#45;&gt;6 -->
<g id="edge74" class="edge">
<title>18&#45;&gt;6</title>
<path fill="none" stroke="black" d="M2153.13,-1883.79C2169.34,-1799.18 2209.74,-1523.16 2086.79,-1355.99 1978.49,-1208.74 1753.31,-1142.51 1666.24,-1121.67"/>
<polygon fill="black" stroke="black" points="1666.85,-1118.22 1656.32,-1119.35 1665.26,-1125.04 1666.85,-1118.22"/>
<text text-anchor="middle" x="2166.79" y="-1539.29" font-family="Times,serif" font-size="14.00">0</text>
</g>
<!-- 18&#45;&gt;18 -->
<g id="edge119" class="edge">
<title>18&#45;&gt;18</title>
<path fill="none" stroke="black" d="M2172.19,-1921.68C2183.1,-1922.77 2192.54,-1918.95 2192.54,-1910.24 2192.54,-1904.51 2188.48,-1900.9 2182.6,-1899.41"/>
<polygon fill="black" stroke="black" points="2182.38,-1895.89 2172.19,-1898.79 2181.96,-1902.88 2182.38,-1895.89"/>
<text text-anchor="middle" x="2197.54" y="-1906.54" font-family="Times,serif" font-size="14.00">1</text>
</g>
<!-- 18&#45;&gt;24 -->
<g id="edge31" class="edge">
<title>18&#45;&gt;24</title>
<path fill="none" stroke="black" d="M2170.26,-1895.44C2212.85,-1868.15 2305.57,-1803.02 2355.79,-1724.49 2415.82,-1630.61 2500.79,-1355.92 2500.79,-1244.49 2500.79,-1244.49 2500.79,-1244.49 2500.79,-1068.49 2500.79,-987.96 2530.35,-967.38 2516.79,-887.99 2512.51,-862.91 2508.34,-857.15 2497.79,-833.99 2436.98,-700.5 2404.24,-676.21 2334.79,-546.99 2265.54,-418.13 2305.11,-338.14 2185.79,-253.5 2139.84,-220.89 1971.38,-212.56 1895.85,-210.45"/>
<polygon fill="black" stroke="black" points="1895.92,-206.96 1885.84,-210.2 1895.74,-213.95 1895.92,-206.96"/>
<text text-anchor="middle" x="2505.79" y="-1065.79" font-family="Times,serif" font-size="14.00">2</text>
</g>
<!-- 18&#45;&gt;29 -->
<g id="edge107" class="edge">
<title>18&#45;&gt;29</title>
<path fill="none" stroke="black" d="M2143.79,-1883.41C2139.61,-1860.06 2131.95,-1825.07 2119.79,-1796.49 2066.16,-1670.42 2038.47,-1644.73 1955.79,-1535.49 1936.59,-1510.12 1790.96,-1339.56 1763.79,-1322.99 1734.54,-1305.15 1696.24,-1296.3 1668.44,-1291.97"/>
<polygon fill="black" stroke="black" points="1668.73,-1288.48 1658.33,-1290.53 1667.74,-1295.41 1668.73,-1288.48"/>
<text text-anchor="middle" x="2037.79" y="-1626.29" font-family="Times,serif" font-size="14.00">4</text>
</g>
<!-- 19&#45;&gt;4 -->
<g id="edge100" class="edge">
<title>19&#45;&gt;4</title>
<path fill="none" stroke="black" d="M710.87,-1459.81C664.39,-1497.76 535.78,-1612.12 499.79,-1742.49 476.5,-1826.87 479.28,-1866.21 530.79,-1936.98 571.27,-1992.6 592.58,-2005.36 658.79,-2023.98 778.45,-2057.64 1168.87,-2062.26 1284.34,-2062.89"/>
<polygon fill="black" stroke="black" points="1284.62,-2066.39 1294.64,-2062.94 1284.66,-2059.39 1284.62,-2066.39"/>
<text text-anchor="middle" x="504.79" y="-1756.79" font-family="Times,serif" font-size="14.00">4</text>
</g>
<!-- 19&#45;&gt;5 -->
<g id="edge84" class="edge">
<title>19&#45;&gt;5</title>
<path fill="none" stroke="black" d="M723.64,-1463.44C719.24,-1485.67 715.23,-1524.86 733.79,-1550.49 746.01,-1567.36 767.63,-1576.1 786.5,-1580.63"/>
<polygon fill="black" stroke="black" points="785.83,-1584.06 796.33,-1582.68 787.26,-1577.21 785.83,-1584.06"/>
<text text-anchor="middle" x="738.79" y="-1539.29" font-family="Times,serif" font-size="14.00">3</text>
</g>
<!-- 19&#45;&gt;17 -->
<g id="edge33" class="edge">
<title>19&#45;&gt;17</title>
<path fill="none" stroke="black" d="M752.99,-1438.94C843.44,-1419.29 1160.51,-1352.52 1425.79,-1322.99 1455.67,-1319.67 1670.36,-1321.04 1695.79,-1304.99 1762.71,-1262.77 1845.62,-1067.45 1861.79,-989.99 1905.3,-781.67 1834.72,-725.34 1809.79,-513.99 1793.16,-372.94 1782.24,-203.2 1778.37,-137.67"/>
<polygon fill="black" stroke="black" points="1781.84,-137.15 1777.76,-127.37 1774.85,-137.56 1781.84,-137.15"/>
<text text-anchor="middle" x="1876.79" y="-804.79" font-family="Times,serif" font-size="14.00">1</text>
</g>
<!-- 19&#45;&gt;23 -->
<g id="edge110" class="edge">
<title>19&#45;&gt;23</title>
<path fill="none" stroke="black" d="M725.98,-1427.47C722.52,-1396.02 714.36,-1326.77 703.79,-1268.99 696.65,-1229.96 694.52,-1220.19 683.79,-1181.99 648.44,-1056.16 616.01,-1031.24 590.79,-902.99 580.48,-850.54 584.57,-836.41 582.79,-782.99 582.26,-767 580.55,-762.83 582.79,-746.99 589.78,-697.52 608.15,-642.04 619.74,-610.24"/>
<polygon fill="black" stroke="black" points="623.05,-611.37 623.25,-600.78 616.49,-608.94 623.05,-611.37"/>
<text text-anchor="middle" x="638.79" y="-1022.29" font-family="Times,serif" font-size="14.00">2</text>
</g>
<!-- 19&#45;&gt;28 -->
<g id="edge131" class="edge">
<title>19&#45;&gt;28</title>
<path fill="none" stroke="black" d="M720.79,-1427.87C718.45,-1422.09 715.91,-1415.54 713.79,-1409.49 687.26,-1333.49 687.49,-1312.28 661.79,-1235.99 584.98,-1007.94 540.4,-959.64 471.79,-728.99 443.88,-635.15 442.77,-610.04 423.79,-513.99 404.13,-414.49 380.73,-384.78 405.79,-286.5 410.98,-266.17 425.22,-247.52 438.53,-233.7"/>
<polygon fill="black" stroke="black" points="441.12,-236.06 445.76,-226.54 436.2,-231.09 441.12,-236.06"/>
<text text-anchor="middle" x="523.79" y="-848.29" font-family="Times,serif" font-size="14.00">0</text>
</g>
<!-- 20&#45;&gt;2 -->
<g id="edge93" class="edge">
<title>20&#45;&gt;2</title>
<path fill="none" stroke="black" d="M1098.93,-600.72C1081.46,-661.77 1021.97,-878.51 1002.79,-1061.99 986.73,-1215.71 969.24,-1262.11 1015.79,-1409.49 1074.57,-1595.58 1143.47,-1617.51 1253.79,-1778.49 1264.04,-1793.45 1263.47,-1800.36 1277.79,-1811.49 1293.42,-1823.63 1313.81,-1832.09 1331.03,-1837.65"/>
<polygon fill="black" stroke="black" points="1330.15,-1841.04 1340.74,-1840.59 1332.18,-1834.34 1330.15,-1841.04"/>
<text text-anchor="middle" x="994.79" y="-1196.29" font-family="Times,serif" font-size="14.00">1</text>
</g>
<!-- 20&#45;&gt;5 -->
<g id="edge149" class="edge">
<title>20&#45;&gt;5</title>
<path fill="none" stroke="black" d="M1089.74,-598.81C1064.87,-625.92 1013.22,-686.31 986.79,-746.99 948.56,-834.77 961.52,-863.99 938.79,-956.99 898.17,-1123.18 841.79,-1158.42 841.79,-1329.49 841.79,-1500.49 841.79,-1500.49 841.79,-1500.49 841.79,-1520.52 836.7,-1542.59 831.79,-1559.22"/>
<polygon fill="black" stroke="black" points="828.44,-1558.21 828.8,-1568.8 835.12,-1560.29 828.44,-1558.21"/>
<text text-anchor="middle" x="911.79" y="-1065.79" font-family="Times,serif" font-size="14.00">4</text>
</g>
<!-- 20&#45;&gt;15 -->
<g id="edge64" class="edge">
<title>20&#45;&gt;15</title>
<path fill="none" stroke="black" d="M1111.12,-600.41C1113.36,-606.17 1115.56,-612.76 1116.79,-618.99 1146,-766.44 1092.8,-811.05 1128.79,-956.99 1165.64,-1106.38 1216.28,-1128.4 1278.79,-1268.99 1320.25,-1362.24 1339.68,-1382.83 1365.79,-1481.49 1380.86,-1538.43 1385.14,-1607.69 1386.33,-1645.18"/>
<polygon fill="black" stroke="black" points="1382.84,-1645.41 1386.61,-1655.31 1389.84,-1645.22 1382.84,-1645.41"/>
<text text-anchor="middle" x="1208.79" y="-1109.29" font-family="Times,serif" font-size="14.00">3</text>
</g>
<!-- 20&#45;&gt;22 -->
<g id="edge121" class="edge">
<title>20&#45;&gt;22</title>
<path fill="none" stroke="black" d="M1103.79,-564.8C1103.79,-551.05 1103.79,-531.53 1103.79,-515.64"/>
<polygon fill="black" stroke="black" points="1107.29,-515.33 1103.79,-505.33 1100.29,-515.33 1107.29,-515.33"/>
<text text-anchor="middle" x="1108.79" y="-535.79" font-family="Times,serif" font-size="14.00">0</text>
</g>
<!-- 25 -->
<g id="node27" class="node">
<title>25</title>
<ellipse fill="none" stroke="black" cx="1250.79" cy="-1382.74" rx="22.96" ry="22.96"/>
<ellipse fill="none" stroke="black" cx="1250.79" cy="-1382.74" rx="27" ry="27"/>
<text text-anchor="middle" x="1250.79" y="-1379.04" font-family="Times,serif" font-size="14.00">25</text>
</g>
<!-- 20&#45;&gt;25 -->
<g id="edge35" class="edge">
<title>20&#45;&gt;25</title>
<path fill="none" stroke="black" d="M1103.23,-601.08C1102.46,-623.05 1100.93,-662.39 1098.79,-695.99 1087.49,-873.57 1073.13,-917.2 1065.79,-1094.99 1065.13,-1110.98 1059.83,-1116.14 1065.79,-1130.99 1097.4,-1209.76 1149.78,-1199 1197.79,-1268.99 1214.71,-1293.65 1228.81,-1324.56 1238.21,-1347.77"/>
<polygon fill="black" stroke="black" points="1235.01,-1349.2 1241.94,-1357.21 1241.51,-1346.62 1235.01,-1349.2"/>
<text text-anchor="middle" x="1078.79" y="-978.79" font-family="Times,serif" font-size="14.00">2</text>
</g>
<!-- 21&#45;&gt;2 -->
<g id="edge151" class="edge">
<title>21&#45;&gt;2</title>
<path fill="none" stroke="black" d="M1170.24,-1517.38C1194.4,-1580.55 1278.78,-1799.95 1289.79,-1811.49 1300.96,-1823.19 1316.78,-1831.33 1331.1,-1836.79"/>
<polygon fill="black" stroke="black" points="1330.11,-1840.15 1340.7,-1840.16 1332.42,-1833.55 1330.11,-1840.15"/>
<text text-anchor="middle" x="1243.79" y="-1669.79" font-family="Times,serif" font-size="14.00">3</text>
</g>
<!-- 21&#45;&gt;4 -->
<g id="edge113" class="edge">
<title>21&#45;&gt;4</title>
<path fill="none" stroke="black" d="M1140.32,-1508.81C1033.77,-1546.64 600.79,-1701.3 600.79,-1715.99 600.79,-1973.98 600.79,-1973.98 600.79,-1973.98 600.79,-2043.88 1145,-2059.55 1284.52,-2062.42"/>
<polygon fill="black" stroke="black" points="1284.51,-2065.92 1294.58,-2062.62 1284.65,-2058.92 1284.51,-2065.92"/>
<text text-anchor="middle" x="605.79" y="-1756.79" font-family="Times,serif" font-size="14.00">1</text>
</g>
<!-- 21&#45;&gt;9 -->
<g id="edge8" class="edge">
<title>21&#45;&gt;9</title>
<path fill="none" stroke="black" d="M1165.76,-1481.41C1170.29,-1443.17 1182.28,-1347.83 1197.79,-1268.99 1209.99,-1207.01 1217.41,-1192.5 1231.79,-1130.99 1269.11,-971.45 1310.44,-779.67 1326.2,-705.94"/>
<polygon fill="black" stroke="black" points="1329.67,-706.45 1328.34,-695.94 1322.83,-704.99 1329.67,-706.45"/>
<text text-anchor="middle" x="1252.79" y="-1065.79" font-family="Times,serif" font-size="14.00">0</text>
</g>
<!-- 21&#45;&gt;16 -->
<g id="edge109" class="edge">
<title>21&#45;&gt;16</title>
<path fill="none" stroke="black" d="M1146.69,-1485.3C1139.03,-1479.05 1130.1,-1471.26 1122.79,-1463.49 1029.17,-1363.99 998.98,-1340.14 937.79,-1217.99 908.56,-1159.64 907.66,-1141.34 896.79,-1076.99 869.89,-917.72 866.99,-875.09 878.79,-713.99 887.7,-592.35 904.38,-563.61 918.79,-442.5 924.15,-397.46 930.37,-385.03 921.79,-340.5 921.2,-337.45 920.35,-334.32 919.36,-331.26"/>
<polygon fill="black" stroke="black" points="922.61,-329.97 915.82,-321.84 916.06,-332.43 922.61,-329.97"/>
<text text-anchor="middle" x="878.79" y="-891.79" font-family="Times,serif" font-size="14.00">2</text>
</g>
<!-- 21&#45;&gt;25 -->
<g id="edge48" class="edge">
<title>21&#45;&gt;25</title>
<path fill="none" stroke="black" d="M1176.92,-1483.48C1182.04,-1477.41 1187.86,-1470.25 1192.79,-1463.49 1203.98,-1448.15 1204.73,-1442.92 1215.79,-1427.49 1219.51,-1422.3 1223.62,-1416.9 1227.68,-1411.73"/>
<polygon fill="black" stroke="black" points="1230.45,-1413.87 1233.95,-1403.87 1224.98,-1409.5 1230.45,-1413.87"/>
<text text-anchor="middle" x="1220.79" y="-1441.79" font-family="Times,serif" font-size="14.00">4</text>
</g>
<!-- 22&#45;&gt;4 -->
<g id="edge115" class="edge">
<title>22&#45;&gt;4</title>
<path fill="none" stroke="black" d="M1129.18,-493.62C1210.12,-510.92 1456.79,-565.03 1456.79,-581.99 1456.79,-722.49 1456.79,-722.49 1456.79,-722.49 1456.79,-959.86 1431.81,-1036.65 1533.79,-1250.99 1619.6,-1431.34 1735.25,-1406.3 1851.79,-1568.49 2151.3,-1985.28 2075.48,-1843.61 1997.79,-1936.98 1913.44,-2038.37 1473.56,-2058.52 1349.43,-2062.21"/>
<polygon fill="black" stroke="black" points="1348.97,-2058.72 1339.08,-2062.5 1349.17,-2065.72 1348.97,-2058.72"/>
<text text-anchor="middle" x="1538.79" y="-1239.79" font-family="Times,serif" font-size="14.00">0</text>
</g>
<!-- 22&#45;&gt;4 -->
<g id="edge134" class="edge">
<title>22&#45;&gt;4</title>
<path fill="none" stroke="black" d="M1079.72,-495.72C1023.01,-514.3 878.88,-567.28 786.79,-651.99 602.24,-821.78 410.79,-1465.21 410.79,-1715.99 410.79,-1973.98 410.79,-1973.98 410.79,-1973.98 410.79,-2063.59 1121.83,-2064.28 1284.1,-2063.27"/>
<polygon fill="black" stroke="black" points="1284.42,-2066.77 1294.4,-2063.2 1284.37,-2059.77 1284.42,-2066.77"/>
<text text-anchor="middle" x="508.79" y="-1239.79" font-family="Times,serif" font-size="14.00">3</text>
</g>
<!-- 22&#45;&gt;7 -->
<g id="edge96" class="edge">
<title>22&#45;&gt;7</title>
<path fill="none" stroke="black" d="M1076.53,-485.94C1024.1,-484.53 906.31,-477.37 814.79,-442.5 803.39,-438.15 802.47,-433.4 791.79,-427.5 777.67,-419.7 761.5,-412.08 747.72,-405.95"/>
<polygon fill="black" stroke="black" points="748.73,-402.57 738.16,-401.77 745.92,-408.99 748.73,-402.57"/>
<text text-anchor="middle" x="819.79" y="-431.3" font-family="Times,serif" font-size="14.00">4</text>
</g>
<!-- 22&#45;&gt;9 -->
<g id="edge9" class="edge">
<title>22&#45;&gt;9</title>
<path fill="none" stroke="black" d="M1120.35,-501.6C1160.1,-533.67 1261.15,-615.19 1308.1,-653.08"/>
<polygon fill="black" stroke="black" points="1305.97,-655.85 1315.95,-659.41 1310.37,-650.4 1305.97,-655.85"/>
<text text-anchor="middle" x="1246.79" y="-579.29" font-family="Times,serif" font-size="14.00">1</text>
</g>
<!-- 22&#45;&gt;24 -->
<g id="edge129" class="edge">
<title>22&#45;&gt;24</title>
<path fill="none" stroke="black" d="M1126.51,-477.26C1175.65,-457.89 1295.56,-410.9 1396.79,-373.5 1555.69,-314.78 1746.82,-248.37 1823.98,-221.73"/>
<polygon fill="black" stroke="black" points="1825.36,-224.96 1833.67,-218.39 1823.07,-218.34 1825.36,-224.96"/>
<text text-anchor="middle" x="1488.79" y="-344.3" font-family="Times,serif" font-size="14.00">2</text>
</g>
<!-- 23&#45;&gt;0 -->
<g id="edge47" class="edge">
<title>23&#45;&gt;0</title>
<path fill="none" stroke="black" d="M619.23,-599.68C575.3,-664.91 402.7,-921.07 259.79,-1130.99 199.61,-1219.39 123.79,-1222.55 123.79,-1329.49 123.79,-2064.98 123.79,-2064.98 123.79,-2064.98 123.79,-2146.08 762.86,-2156.47 914.7,-2157.79"/>
<polygon fill="black" stroke="black" points="914.75,-2161.29 924.78,-2157.87 914.81,-2154.29 914.75,-2161.29"/>
<text text-anchor="middle" x="128.79" y="-1326.79" font-family="Times,serif" font-size="14.00">0</text>
</g>
<!-- 23&#45;&gt;10 -->
<g id="edge114" class="edge">
<title>23&#45;&gt;10</title>
<path fill="none" stroke="black" d="M622.46,-565.23C617.17,-553.13 609.85,-536.4 603.39,-521.62"/>
<polygon fill="black" stroke="black" points="606.51,-520.02 599.29,-512.26 600.09,-522.82 606.51,-520.02"/>
<text text-anchor="middle" x="619.79" y="-535.79" font-family="Times,serif" font-size="14.00">2</text>
</g>
<!-- 23&#45;&gt;16 -->
<g id="edge92" class="edge">
<title>23&#45;&gt;16</title>
<path fill="none" stroke="black" d="M656.78,-579.75C683.58,-576.36 724.76,-567.92 753.79,-546.99 794.21,-517.86 865.72,-386.34 894.88,-330.59"/>
<polygon fill="black" stroke="black" points="897.99,-332.2 899.5,-321.71 891.78,-328.97 897.99,-332.2"/>
<text text-anchor="middle" x="846.79" y="-431.3" font-family="Times,serif" font-size="14.00">4</text>
</g>
<!-- 23&#45;&gt;21 -->
<g id="edge135" class="edge">
<title>23&#45;&gt;21</title>
<path fill="none" stroke="black" d="M633.76,-600.95C637.59,-618.77 642.79,-647.7 642.79,-672.99 642.79,-896.49 642.79,-896.49 642.79,-896.49 642.79,-1119.41 724.97,-1178.58 880.79,-1337.99 938.51,-1397.04 944.87,-1424.74 1017.79,-1463.49 1052.18,-1481.76 1096.15,-1490.63 1126.81,-1494.84"/>
<polygon fill="black" stroke="black" points="1126.7,-1498.35 1137.06,-1496.14 1127.58,-1491.41 1126.7,-1498.35"/>
<text text-anchor="middle" x="664.79" y="-1022.29" font-family="Times,serif" font-size="14.00">1</text>
</g>
<!-- 23&#45;&gt;28 -->
<g id="edge136" class="edge">
<title>23&#45;&gt;28</title>
<path fill="none" stroke="black" d="M606.32,-573.8C581.23,-563.76 542.29,-544.27 521.79,-513.99 465.41,-430.71 461.55,-306.48 463.54,-245.77"/>
<polygon fill="black" stroke="black" points="467.05,-245.67 463.95,-235.54 460.05,-245.39 467.05,-245.67"/>
<text text-anchor="middle" x="483.79" y="-387.8" font-family="Times,serif" font-size="14.00">3</text>
</g>
<!-- 24&#45;&gt;8 -->
<g id="edge80" class="edge">
<title>24&#45;&gt;8</title>
<path fill="none" stroke="black" d="M1832.44,-203.51C1765.72,-192.92 1584.63,-164.99 1432.79,-149 1242.47,-128.96 1012.97,-115.96 929.83,-111.62"/>
<polygon fill="black" stroke="black" points="929.92,-108.12 919.75,-111.09 929.56,-115.11 929.92,-108.12"/>
<text text-anchor="middle" x="1554.79" y="-152.8" font-family="Times,serif" font-size="14.00">2</text>
</g>
<!-- 24&#45;&gt;15 -->
<g id="edge77" class="edge">
<title>24&#45;&gt;15</title>
<path fill="none" stroke="black" d="M1883.44,-219.19C1914.19,-232.77 1962.79,-260.96 1962.79,-303.5 1962.79,-809.49 1962.79,-809.49 1962.79,-809.49 1962.79,-913.99 2008.3,-943.46 1979.79,-1043.99 1944.5,-1168.45 1783.4,-1458.15 1692.79,-1550.49 1639.62,-1604.67 1616.42,-1609.64 1545.79,-1637.49 1505.34,-1653.44 1456.08,-1662.86 1423.21,-1667.84"/>
<polygon fill="black" stroke="black" points="1422.54,-1664.4 1413.15,-1669.3 1423.55,-1671.32 1422.54,-1664.4"/>
<text text-anchor="middle" x="1991.79" y="-935.29" font-family="Times,serif" font-size="14.00">1</text>
</g>
<!-- 24&#45;&gt;17 -->
<g id="edge66" class="edge">
<title>24&#45;&gt;17</title>
<path fill="none" stroke="black" d="M1846.06,-184.98C1839.24,-173.66 1830.29,-160.06 1820.79,-149 1814.96,-142.21 1807.96,-135.5 1801.28,-129.6"/>
<polygon fill="black" stroke="black" points="1803.54,-126.94 1793.67,-123.11 1799,-132.26 1803.54,-126.94"/>
<text text-anchor="middle" x="1835.79" y="-152.8" font-family="Times,serif" font-size="14.00">4</text>
</g>
<!-- 24&#45;&gt;17 -->
<g id="edge144" class="edge">
<title>24&#45;&gt;17</title>
<path fill="none" stroke="black" d="M1837.98,-191.51C1828.75,-183.75 1818.12,-173.98 1809.79,-164 1802.51,-155.27 1795.72,-144.77 1790.22,-135.36"/>
<polygon fill="black" stroke="black" points="1793.13,-133.41 1785.17,-126.42 1787.04,-136.85 1793.13,-133.41"/>
<text text-anchor="middle" x="1814.79" y="-152.8" font-family="Times,serif" font-size="14.00">3</text>
</g>
<!-- 24&#45;&gt;27 -->
<g id="edge126" class="edge">
<title>24&#45;&gt;27</title>
<path fill="none" stroke="black" d="M1885.48,-211.97C1961.17,-219.01 2171.79,-243.93 2171.79,-303.5 2171.79,-627.49 2171.79,-627.49 2171.79,-627.49 2171.79,-761.28 2310.79,-760.71 2310.79,-894.49 2310.79,-1157.49 2310.79,-1157.49 2310.79,-1157.49 2310.79,-1223.2 2325.78,-1239.48 2320.79,-1304.99 2317.23,-1351.84 2318.18,-1364.45 2304.79,-1409.49 2285.18,-1475.45 2280.58,-1494.34 2240.79,-1550.49 2181.72,-1633.84 2145.2,-1635.46 2074.79,-1709.49 1982.62,-1806.41 1997.34,-1877 1877.79,-1936.98 1838.7,-1956.6 1541.99,-1967.57 1436.15,-1970.89"/>
<polygon fill="black" stroke="black" points="1435.83,-1967.4 1425.94,-1971.21 1436.04,-1974.4 1435.83,-1967.4"/>
<text text-anchor="middle" x="2315.79" y="-1065.79" font-family="Times,serif" font-size="14.00">0</text>
</g>
<!-- 25&#45;&gt;2 -->
<g id="edge49" class="edge">
<title>25&#45;&gt;2</title>
<path fill="none" stroke="black" d="M1266.98,-1404.41C1282.57,-1426.43 1303.79,-1462.94 1303.79,-1498.49 1303.79,-1761.49 1303.79,-1761.49 1303.79,-1761.49 1303.79,-1787.78 1323.4,-1811.38 1340.56,-1827"/>
<polygon fill="black" stroke="black" points="1338.34,-1829.71 1348.19,-1833.6 1342.91,-1824.41 1338.34,-1829.71"/>
<text text-anchor="middle" x="1308.79" y="-1626.29" font-family="Times,serif" font-size="14.00">0</text>
</g>
<!-- 25&#45;&gt;9 -->
<g id="edge15" class="edge">
<title>25&#45;&gt;9</title>
<path fill="none" stroke="black" d="M1254.74,-1356.25C1266.15,-1281.64 1299.65,-1057.23 1318.79,-869.99 1324.69,-812.28 1328.96,-744.7 1331.14,-706.16"/>
<polygon fill="black" stroke="black" points="1334.64,-706.27 1331.7,-696.09 1327.65,-705.88 1334.64,-706.27"/>
<text text-anchor="middle" x="1307.79" y="-1022.29" font-family="Times,serif" font-size="14.00">3</text>
</g>
<!-- 25&#45;&gt;15 -->
<g id="edge16" class="edge">
<title>25&#45;&gt;15</title>
<path fill="none" stroke="black" d="M1275.11,-1394.17C1289.5,-1401.51 1306.98,-1412.68 1317.79,-1427.49 1374.91,-1505.68 1348.38,-1544.62 1375.79,-1637.49 1376.62,-1640.29 1377.51,-1643.22 1378.4,-1646.13"/>
<polygon fill="black" stroke="black" points="1375.09,-1647.29 1381.41,-1655.79 1381.78,-1645.2 1375.09,-1647.29"/>
<text text-anchor="middle" x="1364.79" y="-1539.29" font-family="Times,serif" font-size="14.00">4</text>
</g>
<!-- 25&#45;&gt;23 -->
<g id="edge94" class="edge">
<title>25&#45;&gt;23</title>
<path fill="none" stroke="black" d="M1228.8,-1366.82C1169.95,-1326.04 1006.31,-1207.06 902.79,-1076.99 758.9,-896.2 782.45,-812.9 656.79,-618.99 654.28,-615.12 651.46,-611.14 648.62,-607.31"/>
<polygon fill="black" stroke="black" points="651.32,-605.08 642.45,-599.27 645.76,-609.34 651.32,-605.08"/>
<text text-anchor="middle" x="845.79" y="-978.79" font-family="Times,serif" font-size="14.00">1</text>
</g>
<!-- 25&#45;&gt;29 -->
<g id="edge52" class="edge">
<title>25&#45;&gt;29</title>
<path fill="none" stroke="black" d="M1276.68,-1375.37C1343.38,-1358.96 1521.18,-1315.21 1596.88,-1296.58"/>
<polygon fill="black" stroke="black" points="1597.99,-1299.91 1606.87,-1294.13 1596.32,-1293.12 1597.99,-1299.91"/>
<text text-anchor="middle" x="1490.79" y="-1326.79" font-family="Times,serif" font-size="14.00">2</text>
</g>
<!-- 26&#45;&gt;1 -->
<g id="edge25" class="edge">
<title>26&#45;&gt;1</title>
<path fill="none" stroke="black" d="M2094.63,-934.01C2026.26,-923.6 1836.62,-894.67 1678.79,-869.99 1655.1,-866.29 1628.48,-862.06 1607.71,-858.74"/>
<polygon fill="black" stroke="black" points="1608.16,-855.27 1597.73,-857.15 1607.06,-862.18 1608.16,-855.27"/>
<text text-anchor="middle" x="1888.79" y="-891.79" font-family="Times,serif" font-size="14.00">2</text>
</g>
<!-- 26&#45;&gt;2 -->
<g id="edge32" class="edge">
<title>26&#45;&gt;2</title>
<path fill="none" stroke="black" d="M2132.52,-955.51C2155.36,-987.63 2202.28,-1063.99 2186.79,-1130.99 2159.21,-1250.32 1994.99,-1521.64 1904.79,-1604.49 1762.29,-1735.38 1708.98,-1762.48 1521.79,-1811.49 1480.78,-1822.23 1433.18,-1832.61 1401.45,-1839.24"/>
<polygon fill="black" stroke="black" points="1400.41,-1835.88 1391.32,-1841.34 1401.83,-1842.73 1400.41,-1835.88"/>
<text text-anchor="middle" x="2087.79" y="-1379.04" font-family="Times,serif" font-size="14.00">4</text>
</g>
<!-- 26&#45;&gt;15 -->
<g id="edge65" class="edge">
<title>26&#45;&gt;15</title>
<path fill="none" stroke="black" d="M2111.22,-956.01C2070.05,-1024.98 1904.13,-1303.68 1772.79,-1535.49 1747.3,-1580.48 1759.85,-1608.84 1716.79,-1637.49 1710.73,-1641.52 1508.15,-1661.04 1423.45,-1669.05"/>
<polygon fill="black" stroke="black" points="1423.11,-1665.56 1413.49,-1669.99 1423.77,-1672.53 1423.11,-1665.56"/>
<text text-anchor="middle" x="1930.79" y="-1283.29" font-family="Times,serif" font-size="14.00">3</text>
</g>
<!-- 26&#45;&gt;24 -->
<g id="edge42" class="edge">
<title>26&#45;&gt;24</title>
<path fill="none" stroke="black" d="M2099.68,-927.7C2075.38,-914.2 2038.79,-888.05 2038.79,-852.99 2038.79,-852.99 2038.79,-852.99 2038.79,-303.5 2038.79,-239.58 1948.41,-219.17 1895.73,-212.71"/>
<polygon fill="black" stroke="black" points="1896.07,-209.22 1885.74,-211.59 1895.29,-216.18 1896.07,-209.22"/>
<text text-anchor="middle" x="2043.79" y="-579.29" font-family="Times,serif" font-size="14.00">0</text>
</g>
<!-- 26&#45;&gt;26 -->
<g id="edge21" class="edge">
<title>26&#45;&gt;26</title>
<path fill="none" stroke="black" d="M2145.32,-946.74C2156.3,-947.48 2165.79,-944.9 2165.79,-938.99 2165.79,-935.02 2161.51,-932.56 2155.37,-931.59"/>
<polygon fill="black" stroke="black" points="2155.44,-928.09 2145.32,-931.24 2155.2,-935.08 2155.44,-928.09"/>
<text text-anchor="middle" x="2170.79" y="-935.29" font-family="Times,serif" font-size="14.00">1</text>
</g>
<!-- 27&#45;&gt;2 -->
<g id="edge20" class="edge">
<title>27&#45;&gt;2</title>
<path fill="none" stroke="black" d="M1394.88,-1954.94C1390.7,-1937.06 1383.73,-1908.18 1376.79,-1883.49 1376,-1880.67 1375.14,-1877.74 1374.26,-1874.82"/>
<polygon fill="black" stroke="black" points="1377.57,-1873.67 1371.26,-1865.16 1370.88,-1875.75 1377.57,-1873.67"/>
<text text-anchor="middle" x="1394.79" y="-1906.54" font-family="Times,serif" font-size="14.00">3</text>
</g>
<!-- 27&#45;&gt;12 -->
<g id="edge127" class="edge">
<title>27&#45;&gt;12</title>
<path fill="none" stroke="black" d="M1425.78,-1972.03C1535.91,-1972.02 1947.67,-1969.75 1994.79,-1936.98 2085.47,-1873.93 2007.98,-1777.77 2094.79,-1709.49 2130.63,-1681.3 2156.1,-1713.93 2195.79,-1691.49 2285.18,-1640.95 2304.93,-1610.8 2347.79,-1517.49 2372.82,-1463.01 2424.79,-1043.44 2424.79,-983.49 2424.79,-983.49 2424.79,-983.49 2424.79,-850.99 2424.79,-821.59 2399.21,-797.69 2377.73,-782.81"/>
<polygon fill="black" stroke="black" points="2379.44,-779.75 2369.16,-777.18 2375.59,-785.6 2379.44,-779.75"/>
<text text-anchor="middle" x="2389.79" y="-1326.79" font-family="Times,serif" font-size="14.00">4</text>
</g>
<!-- 27&#45;&gt;12 -->
<g id="edge145" class="edge">
<title>27&#45;&gt;12</title>
<path fill="none" stroke="black" d="M1426.01,-1971.91C1540.07,-1971.42 1976.15,-1967.53 2028.79,-1936.98 2093.14,-1899.65 2070.34,-1852.07 2119.79,-1796.49 2208.76,-1696.49 2282.73,-1719.13 2351.79,-1604.49 2383.06,-1552.58 2462.79,-1131.09 2462.79,-1070.49 2462.79,-1070.49 2462.79,-1070.49 2462.79,-850.99 2462.79,-810.77 2416.62,-787.32 2383.05,-775.58"/>
<polygon fill="black" stroke="black" points="2384.12,-772.25 2373.53,-772.44 2381.93,-778.9 2384.12,-772.25"/>
<text text-anchor="middle" x="2426.79" y="-1326.79" font-family="Times,serif" font-size="14.00">0</text>
</g>
<!-- 27&#45;&gt;20 -->
<g id="edge40" class="edge">
<title>27&#45;&gt;20</title>
<path fill="none" stroke="black" d="M1376.16,-1962.75C1368.25,-1959.85 1359.24,-1956.91 1350.79,-1954.98 1278,-1938.41 1257.64,-1947.91 1183.79,-1936.98 1078.87,-1921.46 714.79,-1954.55 714.79,-1848.49 714.79,-1848.49 714.79,-1848.49 714.79,-1715.99 714.79,-1634.86 655.32,-1629.7 637.79,-1550.49 615.95,-1451.77 613.69,-1421.19 637.79,-1322.99 719.13,-991.63 780.37,-903.63 1010.79,-651.99 1029.65,-631.4 1055.6,-613.04 1075.3,-600.61"/>
<polygon fill="black" stroke="black" points="1077.19,-603.55 1083.86,-595.32 1073.51,-597.6 1077.19,-603.55"/>
<text text-anchor="middle" x="665.79" y="-1239.79" font-family="Times,serif" font-size="14.00">2</text>
</g>
<!-- 27&#45;&gt;25 -->
<g id="edge55" class="edge">
<title>27&#45;&gt;25</title>
<path fill="none" stroke="black" d="M1375.54,-1963.68C1311.42,-1940.45 1136.79,-1874.76 1136.79,-1848.49 1136.79,-1848.49 1136.79,-1848.49 1136.79,-1628.99 1136.79,-1572.07 1173.43,-1567.93 1199.79,-1517.49 1212.13,-1493.88 1216,-1488.26 1225.79,-1463.49 1231.5,-1449.05 1236.8,-1432.74 1241.04,-1418.66"/>
<polygon fill="black" stroke="black" points="1244.46,-1419.43 1243.94,-1408.85 1237.75,-1417.45 1244.46,-1419.43"/>
<text text-anchor="middle" x="1141.79" y="-1669.79" font-family="Times,serif" font-size="14.00">1</text>
</g>
<!-- 28&#45;&gt;1 -->
<g id="edge10" class="edge">
<title>28&#45;&gt;1</title>
<path fill="none" stroke="black" d="M492.41,-211.97C618.73,-222.78 1157.97,-272.24 1310.79,-340.5 1355.54,-360.48 1356.23,-381.99 1396.79,-409.5 1434.85,-435.3 1458.71,-424.1 1486.79,-460.5 1573.49,-572.86 1575.91,-754.98 1573.38,-823.64"/>
<polygon fill="black" stroke="black" points="1569.88,-823.51 1572.94,-833.65 1576.87,-823.81 1569.88,-823.51"/>
<text text-anchor="middle" x="1538.79" y="-535.79" font-family="Times,serif" font-size="14.00">2</text>
</g>
<!-- 28&#45;&gt;3 -->
<g id="edge87" class="edge">
<title>28&#45;&gt;3</title>
<path fill="none" stroke="black" d="M440.24,-216.88C414.5,-224.49 373.97,-237.6 340.79,-253.5 246.98,-298.44 191.79,-329.97 191.79,-434 191.79,-583.99 191.79,-583.99 191.79,-583.99 191.79,-760.69 199.79,-804.79 199.79,-981.49 199.79,-1157.49 199.79,-1157.49 199.79,-1157.49 199.79,-1256.51 347.52,-1473.5 409.79,-1550.49 477.29,-1633.94 581.9,-1708.73 631.25,-1741.69"/>
<polygon fill="black" stroke="black" points="629.53,-1744.74 639.8,-1747.35 633.39,-1738.91 629.53,-1744.74"/>
<text text-anchor="middle" x="204.79" y="-978.79" font-family="Times,serif" font-size="14.00">3</text>
</g>
<!-- 28&#45;&gt;5 -->
<g id="edge128" class="edge">
<title>28&#45;&gt;5</title>
<path fill="none" stroke="black" d="M443.97,-224.28C433.01,-232.18 419.94,-242.55 409.79,-253.5 356.8,-310.62 319.17,-332.31 329.79,-409.5 343.92,-512.16 362.9,-534.77 392.79,-633.99 424.57,-739.5 429.2,-767.16 468.79,-869.99 532.91,-1036.51 574.52,-1067.69 633.79,-1235.99 668.49,-1334.51 662.63,-1363.48 692.79,-1463.49 704.6,-1502.65 693.94,-1521.5 722.79,-1550.49 739.63,-1567.4 765.09,-1576.16 786.11,-1580.69"/>
<polygon fill="black" stroke="black" points="785.53,-1584.14 796.01,-1582.59 786.85,-1577.27 785.53,-1584.14"/>
<text text-anchor="middle" x="486.79" y="-891.79" font-family="Times,serif" font-size="14.00">0</text>
</g>
<!-- 28&#45;&gt;6 -->
<g id="edge108" class="edge">
<title>28&#45;&gt;6</title>
<path fill="none" stroke="black" d="M492.78,-211.66C545.59,-216.5 664.56,-232.99 746.79,-286.5 888.5,-378.7 854.8,-469.28 960.79,-600.99 999.23,-648.75 1013.97,-656.42 1060.79,-695.99 1110.01,-737.59 1124.92,-744.75 1176.79,-782.99 1338.71,-902.37 1535.07,-1043.41 1604.74,-1093.34"/>
<polygon fill="black" stroke="black" points="1602.81,-1096.26 1612.98,-1099.24 1606.89,-1090.57 1602.81,-1096.26"/>
<text text-anchor="middle" x="1065.79" y="-670.29" font-family="Times,serif" font-size="14.00">1</text>
</g>
<!-- 28&#45;&gt;23 -->
<g id="edge22" class="edge">
<title>28&#45;&gt;23</title>
<path fill="none" stroke="black" d="M473.95,-234.68C475.9,-240.82 477.96,-247.39 479.79,-253.5 514.34,-368.66 488.89,-412.14 552.79,-513.99 565.46,-534.19 585.9,-551.84 602.54,-564.09"/>
<polygon fill="black" stroke="black" points="600.65,-567.04 610.83,-569.99 604.71,-561.34 600.65,-567.04"/>
<text text-anchor="middle" x="514.79" y="-387.8" font-family="Times,serif" font-size="14.00">4</text>
</g>
<!-- 29&#45;&gt;14 -->
<g id="edge28" class="edge">
<title>29&#45;&gt;14</title>
<path fill="none" stroke="black" d="M1622.2,-1270C1614.72,-1257.54 1604.2,-1240.01 1595.64,-1225.73"/>
<polygon fill="black" stroke="black" points="1598.49,-1223.68 1590.34,-1216.91 1592.49,-1227.28 1598.49,-1223.68"/>
<text text-anchor="middle" x="1613.79" y="-1239.79" font-family="Times,serif" font-size="14.00">1</text>
</g>
<!-- 29&#45;&gt;21 -->
<g id="edge142" class="edge">
<title>29&#45;&gt;21</title>
<path fill="none" stroke="black" d="M1609.89,-1297.84C1534.2,-1331.89 1283.4,-1444.69 1194.98,-1484.46"/>
<polygon fill="black" stroke="black" points="1193.42,-1481.32 1185.74,-1488.62 1196.29,-1487.71 1193.42,-1481.32"/>
<text text-anchor="middle" x="1478.79" y="-1379.04" font-family="Times,serif" font-size="14.00">4</text>
</g>
<!-- 29&#45;&gt;24 -->
<g id="edge105" class="edge">
<title>29&#45;&gt;24</title>
<path fill="none" stroke="black" d="M1641.02,-1269.69C1655.65,-1244.15 1683.96,-1196.14 1697.79,-1181.99 1707.87,-1171.68 1715.73,-1175.22 1724.79,-1163.99 1734.69,-1151.72 1733.72,-1146.22 1737.79,-1130.99 1738.89,-1126.88 1823.79,-572.89 1823.79,-540.49 1823.79,-540.49 1823.79,-540.49 1823.79,-347 1823.79,-310.86 1835.33,-270.98 1845.15,-243.57"/>
<polygon fill="black" stroke="black" points="1848.48,-244.66 1848.67,-234.07 1841.92,-242.23 1848.48,-244.66"/>
<text text-anchor="middle" x="1799.79" y="-761.29" font-family="Times,serif" font-size="14.00">0</text>
</g>
<!-- 29&#45;&gt;28 -->
<g id="edge83" class="edge">
<title>29&#45;&gt;28</title>
<path fill="none" stroke="black" d="M1605.05,-1283.32C1565.36,-1278.93 1488.79,-1268.86 1425.79,-1250.99 1326.62,-1222.86 1305.34,-1205.06 1210.79,-1163.99 1178.88,-1150.13 1170.56,-1147.25 1139.79,-1130.99 1131.44,-1126.58 855.23,-962.81 847.79,-956.99 668.89,-816.91 419.79,-494.73 419.79,-436 419.79,-436 419.79,-436 419.79,-303.5 419.79,-280.03 431.55,-256.33 443.18,-238.63"/>
<polygon fill="black" stroke="black" points="446.37,-240.16 449.19,-229.95 440.62,-236.18 446.37,-240.16"/>
<text text-anchor="middle" x="671.79" y="-761.29" font-family="Times,serif" font-size="14.00">2</text>
</g>
<!-- 29&#45;&gt;29 -->
<g id="edge11" class="edge">
<title>29&#45;&gt;29</title>
<path fill="none" stroke="black" d="M1656.32,-1294.74C1667.3,-1295.48 1676.79,-1292.9 1676.79,-1286.99 1676.79,-1283.02 1672.51,-1280.56 1666.37,-1279.59"/>
<polygon fill="black" stroke="black" points="1666.44,-1276.09 1656.32,-1279.24 1666.2,-1283.08 1666.44,-1276.09"/>
<text text-anchor="middle" x="1681.79" y="-1283.29" font-family="Times,serif" font-size="14.00">3</text>
</g>
</g>
</svg>
