<?xml version="1.0" encoding="UTF-8" standalone="no"?>
<!DOCTYPE svg PUBLIC "-//W3C//DTD SVG 1.1//EN"
 "http://www.w3.org/Graphics/SVG/1.1/DTD/svg11.dtd">
<!-- Generated by graphviz version 2.49.0 (20210829.0051)
 -->
<!-- Pages: 1 -->
<svg width="2466pt" height="2392pt"
 viewBox="0.00 0.00 2466.00 2392.49" xmlns="http://www.w3.org/2000/svg" xmlns:xlink="http://www.w3.org/1999/xlink">
<g id="graph0" class="graph" transform="scale(1 1) rotate(0) translate(4 2388.49)">
<polygon fill="white" stroke="transparent" points="-4,4 -4,-2388.49 2462,-2388.49 2462,4 -4,4"/>
<!-- fake -->
<g id="node1" class="node">
<title>fake</title>
</g>
<!-- 29 -->
<g id="node31" class="node">
<title>29</title>
<ellipse fill="none" stroke="black" cx="1164" cy="-2284.74" rx="22.96" ry="22.96"/>
<ellipse fill="none" stroke="black" cx="1164" cy="-2284.74" rx="27" ry="27"/>
<text text-anchor="middle" x="1164" y="-2281.04" font-family="Times,serif" font-size="14.00">29</text>
</g>
<!-- fake&#45;&gt;29 -->
<g id="edge1" class="edge">
<title>fake&#45;&gt;29</title>
<path fill="none" stroke="black" stroke-width="2" d="M1164,-2348.18C1164,-2340.4 1164,-2330.89 1164,-2321.68"/>
<polygon fill="black" stroke="black" stroke-width="2" points="1167.5,-2321.5 1164,-2311.5 1160.5,-2321.5 1167.5,-2321.5"/>
</g>
<!-- 0 -->
<g id="node2" class="node">
<title>0</title>
<ellipse fill="none" stroke="black" cx="686" cy="-2089.99" rx="18" ry="18"/>
<ellipse fill="none" stroke="black" cx="686" cy="-2089.99" rx="22" ry="22"/>
<text text-anchor="middle" x="686" y="-2086.29" font-family="Times,serif" font-size="14.00">0</text>
</g>
<!-- 4 -->
<g id="node6" class="node">
<title>4</title>
<ellipse fill="none" stroke="black" cx="1384" cy="-1998.99" rx="27" ry="18"/>
<text text-anchor="middle" x="1384" y="-1995.29" font-family="Times,serif" font-size="14.00">4</text>
</g>
<!-- 0&#45;&gt;4 -->
<g id="edge140" class="edge">
<title>0&#45;&gt;4</title>
<path fill="none" stroke="black" d="M708.27,-2087.77C772.52,-2084.09 963.67,-2071.95 1121,-2049.99 1203.08,-2038.54 1298.42,-2018.78 1348.72,-2007.85"/>
<polygon fill="black" stroke="black" points="1349.73,-2011.21 1358.75,-2005.65 1348.23,-2004.37 1349.73,-2011.21"/>
<text text-anchor="middle" x="1213" y="-2038.79" font-family="Times,serif" font-size="14.00">2</text>
</g>
<!-- 5 -->
<g id="node7" class="node">
<title>5</title>
<ellipse fill="none" stroke="black" cx="507" cy="-1642.99" rx="27" ry="18"/>
<text text-anchor="middle" x="507" y="-1639.29" font-family="Times,serif" font-size="14.00">5</text>
</g>
<!-- 0&#45;&gt;5 -->
<g id="edge143" class="edge">
<title>0&#45;&gt;5</title>
<path fill="none" stroke="black" d="M667.21,-2078.08C644.71,-2063.43 610,-2035.14 610,-1999.99 610,-1999.99 610,-1999.99 610,-1732.99 610,-1695.25 569.91,-1669.96 539.75,-1656.27"/>
<polygon fill="black" stroke="black" points="540.94,-1652.97 530.37,-1652.24 538.17,-1659.4 540.94,-1652.97"/>
<text text-anchor="middle" x="615" y="-1864.79" font-family="Times,serif" font-size="14.00">4</text>
</g>
<!-- 17 -->
<g id="node19" class="node">
<title>17</title>
<ellipse fill="none" stroke="black" cx="1272" cy="-1033.99" rx="27" ry="18"/>
<text text-anchor="middle" x="1272" y="-1030.29" font-family="Times,serif" font-size="14.00">17</text>
</g>
<!-- 0&#45;&gt;17 -->
<g id="edge97" class="edge">
<title>0&#45;&gt;17</title>
<path fill="none" stroke="black" d="M707.97,-2088.11C784.25,-2084.46 1033,-2067.39 1033,-1999.99 1033,-1999.99 1033,-1999.99 1033,-1685.49 1033,-1535.73 1159.04,-1540.08 1212,-1399.99 1257.42,-1279.86 1268.49,-1124.67 1271.16,-1062.51"/>
<polygon fill="black" stroke="black" points="1274.67,-1062.48 1271.56,-1052.35 1267.67,-1062.2 1274.67,-1062.48"/>
<text text-anchor="middle" x="1108" y="-1552.29" font-family="Times,serif" font-size="14.00">0</text>
</g>
<!-- 24 -->
<g id="node26" class="node">
<title>24</title>
<ellipse fill="none" stroke="black" cx="1547" cy="-1381.99" rx="27" ry="18"/>
<text text-anchor="middle" x="1547" y="-1378.29" font-family="Times,serif" font-size="14.00">24</text>
</g>
<!-- 0&#45;&gt;24 -->
<g id="edge20" class="edge">
<title>0&#45;&gt;24</title>
<path fill="none" stroke="black" d="M708.3,-2089.05C777.91,-2088.87 989.93,-2085.34 1047,-2049.99 1069.43,-2036.1 1079,-2026.38 1079,-1999.99 1079,-1999.99 1079,-1999.99 1079,-1867.49 1079,-1787.64 1117.96,-1773.4 1169,-1711.99 1252.81,-1611.15 1294.23,-1606.24 1393,-1519.99 1439.76,-1479.16 1493.88,-1430.75 1523.9,-1403.78"/>
<polygon fill="black" stroke="black" points="1526.25,-1406.38 1531.34,-1397.09 1521.57,-1401.17 1526.25,-1406.38"/>
<text text-anchor="middle" x="1174" y="-1730.29" font-family="Times,serif" font-size="14.00">3</text>
</g>
<!-- 26 -->
<g id="node28" class="node">
<title>26</title>
<ellipse fill="none" stroke="black" cx="2120" cy="-192" rx="27" ry="18"/>
<text text-anchor="middle" x="2120" y="-188.3" font-family="Times,serif" font-size="14.00">26</text>
</g>
<!-- 0&#45;&gt;26 -->
<g id="edge129" class="edge">
<title>0&#45;&gt;26</title>
<path fill="none" stroke="black" d="M708.04,-2088.96C900.45,-2088.58 2288,-2082.95 2288,-1999.99 2288,-1999.99 2288,-1999.99 2288,-1163.49 2288,-1087.71 2319.82,-1073.21 2329,-997.99 2354.33,-790.44 2272,-740.09 2272,-531 2272,-531 2272,-531 2272,-282 2272,-228.66 2201.45,-206.69 2156.47,-198.11"/>
<polygon fill="black" stroke="black" points="2156.93,-194.63 2146.48,-196.33 2155.71,-201.52 2156.93,-194.63"/>
<text text-anchor="middle" x="2293" y="-1160.79" font-family="Times,serif" font-size="14.00">1</text>
</g>
<!-- 1 -->
<g id="node3" class="node">
<title>1</title>
<ellipse fill="none" stroke="black" cx="1686" cy="-1733.99" rx="18" ry="18"/>
<ellipse fill="none" stroke="black" cx="1686" cy="-1733.99" rx="22" ry="22"/>
<text text-anchor="middle" x="1686" y="-1730.29" font-family="Times,serif" font-size="14.00">1</text>
</g>
<!-- 1&#45;&gt;5 -->
<g id="edge87" class="edge">
<title>1&#45;&gt;5</title>
<path fill="none" stroke="black" d="M1663.99,-1730.85C1584.37,-1723.14 1303.83,-1696.36 1072,-1678.99 872.85,-1664.07 633.87,-1650.78 543.77,-1645.94"/>
<polygon fill="black" stroke="black" points="543.95,-1642.44 533.78,-1645.4 543.58,-1649.43 543.95,-1642.44"/>
<text text-anchor="middle" x="1262" y="-1682.79" font-family="Times,serif" font-size="14.00">1</text>
</g>
<!-- 15 -->
<g id="node17" class="node">
<title>15</title>
<ellipse fill="none" stroke="black" cx="1352" cy="-851.24" rx="22.96" ry="22.96"/>
<ellipse fill="none" stroke="black" cx="1352" cy="-851.24" rx="27" ry="27"/>
<text text-anchor="middle" x="1352" y="-847.54" font-family="Times,serif" font-size="14.00">15</text>
</g>
<!-- 1&#45;&gt;15 -->
<g id="edge141" class="edge">
<title>1&#45;&gt;15</title>
<path fill="none" stroke="black" d="M1686,-1711.77C1686,-1693.74 1686,-1667.17 1686,-1643.99 1686,-1643.99 1686,-1643.99 1686,-1511.49 1686,-1392.33 1733.18,-1359.52 1704,-1243.99 1675.81,-1132.36 1646.43,-1110.73 1581,-1015.99 1540.89,-957.92 1535.38,-935.65 1477,-895.99 1449.97,-877.63 1414.42,-866.17 1388.15,-859.61"/>
<polygon fill="black" stroke="black" points="1388.75,-856.16 1378.22,-857.25 1387.14,-862.97 1388.75,-856.16"/>
<text text-anchor="middle" x="1718" y="-1291.29" font-family="Times,serif" font-size="14.00">3</text>
</g>
<!-- 18 -->
<g id="node20" class="node">
<title>18</title>
<ellipse fill="none" stroke="black" cx="1547" cy="-1294.99" rx="27" ry="18"/>
<text text-anchor="middle" x="1547" y="-1291.29" font-family="Times,serif" font-size="14.00">18</text>
</g>
<!-- 1&#45;&gt;18 -->
<g id="edge100" class="edge">
<title>1&#45;&gt;18</title>
<path fill="none" stroke="black" d="M1673.56,-1715.52C1662.47,-1698.22 1648,-1670.54 1648,-1643.99 1648,-1643.99 1648,-1643.99 1648,-1424.49 1648,-1376.71 1604.31,-1336.2 1574.4,-1314.06"/>
<polygon fill="black" stroke="black" points="1576.17,-1311.02 1566,-1308.05 1572.09,-1316.71 1576.17,-1311.02"/>
<text text-anchor="middle" x="1653" y="-1508.79" font-family="Times,serif" font-size="14.00">4</text>
</g>
<!-- 21 -->
<g id="node23" class="node">
<title>21</title>
<ellipse fill="none" stroke="black" cx="1808" cy="-1468.99" rx="27" ry="18"/>
<text text-anchor="middle" x="1808" y="-1465.29" font-family="Times,serif" font-size="14.00">21</text>
</g>
<!-- 1&#45;&gt;21 -->
<g id="edge84" class="edge">
<title>1&#45;&gt;21</title>
<path fill="none" stroke="black" d="M1705.05,-1722.86C1716.14,-1716.06 1729.56,-1706.13 1738,-1693.99 1788.02,-1622.07 1765.26,-1587.75 1794,-1504.99 1795.02,-1502.06 1796.14,-1499.01 1797.29,-1495.99"/>
<polygon fill="black" stroke="black" points="1800.58,-1497.2 1800.99,-1486.61 1794.07,-1494.63 1800.58,-1497.2"/>
<text text-anchor="middle" x="1780" y="-1595.79" font-family="Times,serif" font-size="14.00">0</text>
</g>
<!-- 25 -->
<g id="node27" class="node">
<title>25</title>
<ellipse fill="none" stroke="black" cx="678" cy="-18" rx="27" ry="18"/>
<text text-anchor="middle" x="678" y="-14.3" font-family="Times,serif" font-size="14.00">25</text>
</g>
<!-- 1&#45;&gt;25 -->
<g id="edge71" class="edge">
<title>1&#45;&gt;25</title>
<path fill="none" stroke="black" d="M1707.69,-1729.91C1745.06,-1723.53 1821.99,-1705.56 1868,-1660.99 1895.92,-1633.95 2006,-1378.37 2006,-1339.49 2006,-1339.49 2006,-1339.49 2006,-989.49 2006,-973.12 1753.94,-474.81 1746,-460.5 1673.29,-329.4 1683.82,-269.17 1568,-174 1451.29,-78.09 1397.71,-85.63 1250,-54 1147.38,-32.02 825.41,-22.5 715.33,-19.83"/>
<polygon fill="black" stroke="black" points="715.14,-16.32 705.06,-19.58 714.97,-23.32 715.14,-16.32"/>
<text text-anchor="middle" x="1975" y="-899.79" font-family="Times,serif" font-size="14.00">2</text>
</g>
<!-- 2 -->
<g id="node4" class="node">
<title>2</title>
<ellipse fill="none" stroke="black" cx="353" cy="-2184.99" rx="18" ry="18"/>
<ellipse fill="none" stroke="black" cx="353" cy="-2184.99" rx="22" ry="22"/>
<text text-anchor="middle" x="353" y="-2181.29" font-family="Times,serif" font-size="14.00">2</text>
</g>
<!-- 2&#45;&gt;0 -->
<g id="edge82" class="edge">
<title>2&#45;&gt;0</title>
<path fill="none" stroke="black" d="M374.08,-2178.1C430.95,-2162.22 587.68,-2118.45 654.82,-2099.7"/>
<polygon fill="black" stroke="black" points="656.1,-2102.98 664.79,-2096.91 654.22,-2096.23 656.1,-2102.98"/>
<text text-anchor="middle" x="545" y="-2133.79" font-family="Times,serif" font-size="14.00">0</text>
</g>
<!-- 2&#45;&gt;2 -->
<g id="edge5" class="edge">
<title>2&#45;&gt;2</title>
<path fill="none" stroke="black" d="M373.58,-2193.36C383.84,-2194.52 393,-2191.73 393,-2184.99 393,-2180.68 389.24,-2177.98 383.84,-2176.9"/>
<polygon fill="black" stroke="black" points="383.67,-2173.4 373.58,-2176.62 383.48,-2180.39 383.67,-2173.4"/>
<text text-anchor="middle" x="398" y="-2181.29" font-family="Times,serif" font-size="14.00">2</text>
</g>
<!-- 9 -->
<g id="node11" class="node">
<title>9</title>
<ellipse fill="none" stroke="black" cx="743" cy="-482.5" rx="18" ry="18"/>
<ellipse fill="none" stroke="black" cx="743" cy="-482.5" rx="22" ry="22"/>
<text text-anchor="middle" x="743" y="-478.8" font-family="Times,serif" font-size="14.00">9</text>
</g>
<!-- 2&#45;&gt;9 -->
<g id="edge95" class="edge">
<title>2&#45;&gt;9</title>
<path fill="none" stroke="black" d="M344.54,-2164.45C337.28,-2145.9 328,-2117.07 328,-2090.99 328,-2090.99 328,-2090.99 328,-1685.49 328,-1607.2 290,-1591.78 290,-1513.49 290,-1513.49 290,-1513.49 290,-1250.49 290,-1187.63 349.01,-1036.5 382,-982.99 450.53,-871.84 510.54,-878.62 588,-773.5 652.88,-685.45 707.46,-566.78 730.82,-512.62"/>
<polygon fill="black" stroke="black" points="734.1,-513.85 734.81,-503.28 727.66,-511.1 734.1,-513.85"/>
<text text-anchor="middle" x="295" y="-1334.79" font-family="Times,serif" font-size="14.00">4</text>
</g>
<!-- 10 -->
<g id="node12" class="node">
<title>10</title>
<ellipse fill="none" stroke="black" cx="1092" cy="-1120.99" rx="27" ry="18"/>
<text text-anchor="middle" x="1092" y="-1117.29" font-family="Times,serif" font-size="14.00">10</text>
</g>
<!-- 2&#45;&gt;10 -->
<g id="edge69" class="edge">
<title>2&#45;&gt;10</title>
<path fill="none" stroke="black" d="M366.95,-2167.49C372.65,-2160.61 379.25,-2152.5 385,-2144.99 479.37,-2021.84 483.81,-1975.96 588,-1860.99 718.08,-1717.46 808.01,-1734.8 916,-1573.99 993.81,-1458.13 965.18,-1406.18 1018,-1276.99 1037.04,-1230.42 1063.13,-1177.9 1078.7,-1147.51"/>
<polygon fill="black" stroke="black" points="1081.9,-1148.95 1083.37,-1138.45 1075.68,-1145.74 1081.9,-1148.95"/>
<text text-anchor="middle" x="882" y="-1639.29" font-family="Times,serif" font-size="14.00">1</text>
</g>
<!-- 23 -->
<g id="node25" class="node">
<title>23</title>
<ellipse fill="none" stroke="black" cx="246" cy="-577.5" rx="27" ry="18"/>
<text text-anchor="middle" x="246" y="-573.8" font-family="Times,serif" font-size="14.00">23</text>
</g>
<!-- 2&#45;&gt;23 -->
<g id="edge35" class="edge">
<title>2&#45;&gt;23</title>
<path fill="none" stroke="black" d="M331.51,-2178.87C312.13,-2173.31 283.84,-2162.76 265,-2144.99 221.49,-2103.96 233.76,-2253.14 154,-1875.99 84.61,-1547.91 126,-1457.33 126,-1121.99 126,-1121.99 126,-1121.99 126,-667.5 126,-624.58 176.12,-599.96 211.58,-587.92"/>
<polygon fill="black" stroke="black" points="212.68,-591.24 221.14,-584.85 210.54,-584.57 212.68,-591.24"/>
<text text-anchor="middle" x="125" y="-1378.29" font-family="Times,serif" font-size="14.00">3</text>
</g>
<!-- 3 -->
<g id="node5" class="node">
<title>3</title>
<ellipse fill="none" stroke="black" cx="1337" cy="-283" rx="18" ry="18"/>
<ellipse fill="none" stroke="black" cx="1337" cy="-283" rx="22" ry="22"/>
<text text-anchor="middle" x="1337" y="-279.3" font-family="Times,serif" font-size="14.00">3</text>
</g>
<!-- 3&#45;&gt;3 -->
<g id="edge107" class="edge">
<title>3&#45;&gt;3</title>
<path fill="none" stroke="black" d="M1357.58,-291.37C1367.84,-292.53 1377,-289.74 1377,-283 1377,-278.68 1373.24,-275.99 1367.84,-274.91"/>
<polygon fill="black" stroke="black" points="1367.67,-271.41 1357.58,-274.63 1367.48,-278.4 1367.67,-271.41"/>
<text text-anchor="middle" x="1382" y="-279.3" font-family="Times,serif" font-size="14.00">1</text>
</g>
<!-- 8 -->
<g id="node10" class="node">
<title>8</title>
<ellipse fill="none" stroke="black" cx="1042" cy="-577.5" rx="18" ry="18"/>
<ellipse fill="none" stroke="black" cx="1042" cy="-577.5" rx="22" ry="22"/>
<text text-anchor="middle" x="1042" y="-573.8" font-family="Times,serif" font-size="14.00">8</text>
</g>
<!-- 3&#45;&gt;8 -->
<g id="edge119" class="edge">
<title>3&#45;&gt;8</title>
<path fill="none" stroke="black" d="M1318.58,-295.58C1284.64,-317.67 1211.55,-368.9 1166,-427.5 1132.69,-470.34 1150.34,-498.11 1113,-537.5 1101.6,-549.52 1085.66,-558.74 1071.76,-565.18"/>
<polygon fill="black" stroke="black" points="1070.32,-562 1062.56,-569.2 1073.12,-568.41 1070.32,-562"/>
<text text-anchor="middle" x="1171" y="-431.3" font-family="Times,serif" font-size="14.00">2</text>
</g>
<!-- 20 -->
<g id="node22" class="node">
<title>20</title>
<ellipse fill="none" stroke="black" cx="1369" cy="-382.75" rx="22.96" ry="22.96"/>
<ellipse fill="none" stroke="black" cx="1369" cy="-382.75" rx="27" ry="27"/>
<text text-anchor="middle" x="1369" y="-379.05" font-family="Times,serif" font-size="14.00">20</text>
</g>
<!-- 3&#45;&gt;20 -->
<g id="edge59" class="edge">
<title>3&#45;&gt;20</title>
<path fill="none" stroke="black" d="M1332.78,-304.77C1331.56,-315.03 1331.38,-327.44 1335,-338 1337.09,-344.09 1340.41,-349.99 1344.18,-355.37"/>
<polygon fill="black" stroke="black" points="1341.47,-357.6 1350.35,-363.38 1347.01,-353.32 1341.47,-357.6"/>
<text text-anchor="middle" x="1340" y="-326.8" font-family="Times,serif" font-size="14.00">3</text>
</g>
<!-- 3&#45;&gt;25 -->
<g id="edge148" class="edge">
<title>3&#45;&gt;25</title>
<path fill="none" stroke="black" d="M1333.98,-261.09C1326.04,-214.63 1299.92,-103.08 1227,-54 1184.79,-25.59 832.45,-20.23 715.53,-19.23"/>
<polygon fill="black" stroke="black" points="715.32,-15.72 705.29,-19.14 715.26,-22.72 715.32,-15.72"/>
<text text-anchor="middle" x="1308" y="-144.8" font-family="Times,serif" font-size="14.00">4</text>
</g>
<!-- 3&#45;&gt;26 -->
<g id="edge6" class="edge">
<title>3&#45;&gt;26</title>
<path fill="none" stroke="black" d="M1358.76,-279.53C1466.84,-267.24 1946.25,-212.75 2083.3,-197.17"/>
<polygon fill="black" stroke="black" points="2083.76,-200.64 2093.3,-196.04 2082.97,-193.69 2083.76,-200.64"/>
<text text-anchor="middle" x="1803" y="-231.8" font-family="Times,serif" font-size="14.00">0</text>
</g>
<!-- 4&#45;&gt;4 -->
<g id="edge32" class="edge">
<title>4&#45;&gt;4</title>
<path fill="none" stroke="black" d="M1408.53,-2006.74C1419.51,-2007.48 1429,-2004.9 1429,-1998.99 1429,-1995.02 1424.72,-1992.56 1418.57,-1991.59"/>
<polygon fill="black" stroke="black" points="1418.65,-1988.09 1408.53,-1991.24 1418.41,-1995.08 1418.65,-1988.09"/>
<text text-anchor="middle" x="1434" y="-1995.29" font-family="Times,serif" font-size="14.00">3</text>
</g>
<!-- 6 -->
<g id="node8" class="node">
<title>6</title>
<ellipse fill="none" stroke="black" cx="1560" cy="-1911.99" rx="27" ry="18"/>
<text text-anchor="middle" x="1560" y="-1908.29" font-family="Times,serif" font-size="14.00">6</text>
</g>
<!-- 4&#45;&gt;6 -->
<g id="edge113" class="edge">
<title>4&#45;&gt;6</title>
<path fill="none" stroke="black" d="M1405.23,-1987.74C1436.15,-1972.81 1493.75,-1944.99 1529.3,-1927.82"/>
<polygon fill="black" stroke="black" points="1531.21,-1930.78 1538.69,-1923.28 1528.17,-1924.48 1531.21,-1930.78"/>
<text text-anchor="middle" x="1487" y="-1951.79" font-family="Times,serif" font-size="14.00">0</text>
</g>
<!-- 4&#45;&gt;6 -->
<g id="edge123" class="edge">
<title>4&#45;&gt;6</title>
<path fill="none" stroke="black" d="M1409.49,-1992.8C1432.88,-1987.4 1468.04,-1977.66 1496,-1962.99 1510.91,-1955.17 1525.84,-1943.76 1537.53,-1933.82"/>
<polygon fill="black" stroke="black" points="1539.83,-1936.45 1545.06,-1927.23 1535.23,-1931.18 1539.83,-1936.45"/>
<text text-anchor="middle" x="1523" y="-1951.79" font-family="Times,serif" font-size="14.00">4</text>
</g>
<!-- 4&#45;&gt;18 -->
<g id="edge29" class="edge">
<title>4&#45;&gt;18</title>
<path fill="none" stroke="black" d="M1386.73,-1980.93C1401.01,-1892.36 1468.09,-1484.41 1511,-1363.99 1516.32,-1349.05 1524.45,-1333.34 1531.64,-1320.79"/>
<polygon fill="black" stroke="black" points="1534.83,-1322.27 1536.89,-1311.87 1528.8,-1318.72 1534.83,-1322.27"/>
<text text-anchor="middle" x="1453" y="-1639.29" font-family="Times,serif" font-size="14.00">2</text>
</g>
<!-- 19 -->
<g id="node21" class="node">
<title>19</title>
<ellipse fill="none" stroke="black" cx="1107" cy="-1207.99" rx="27" ry="18"/>
<text text-anchor="middle" x="1107" y="-1204.29" font-family="Times,serif" font-size="14.00">19</text>
</g>
<!-- 4&#45;&gt;19 -->
<g id="edge50" class="edge">
<title>4&#45;&gt;19</title>
<path fill="none" stroke="black" d="M1373.8,-1982.19C1356.33,-1954.68 1320.24,-1895.88 1296,-1842.99 1276.73,-1800.95 1172.49,-1494.2 1156,-1450.99 1123.17,-1364.94 1095.66,-1349.39 1078,-1258.99 1076.72,-1252.45 1075.74,-1250.26 1078,-1243.99 1079.68,-1239.32 1082.29,-1234.83 1085.27,-1230.71"/>
<polygon fill="black" stroke="black" points="1088.08,-1232.8 1091.72,-1222.85 1082.67,-1228.36 1088.08,-1232.8"/>
<text text-anchor="middle" x="1215" y="-1595.79" font-family="Times,serif" font-size="14.00">1</text>
</g>
<!-- 5&#45;&gt;0 -->
<g id="edge85" class="edge">
<title>5&#45;&gt;0</title>
<path fill="none" stroke="black" d="M515.1,-1660.27C523.05,-1677.79 534,-1706.67 534,-1732.99 534,-1869.49 534,-1869.49 534,-1869.49 534,-1954.31 538.41,-1987.72 596,-2049.99 611.49,-2066.74 635.4,-2076.63 654.69,-2082.27"/>
<polygon fill="black" stroke="black" points="654,-2085.71 664.56,-2084.91 655.8,-2078.94 654,-2085.71"/>
<text text-anchor="middle" x="540" y="-1864.79" font-family="Times,serif" font-size="14.00">3</text>
</g>
<!-- 5&#45;&gt;2 -->
<g id="edge125" class="edge">
<title>5&#45;&gt;2</title>
<path fill="none" stroke="black" d="M481.51,-1649.43C443.92,-1659.12 378,-1683.2 378,-1732.99 378,-2090.99 378,-2090.99 378,-2090.99 378,-2113 371.39,-2136.96 364.97,-2155.05"/>
<polygon fill="black" stroke="black" points="361.68,-2153.85 361.46,-2164.45 368.24,-2156.3 361.68,-2153.85"/>
<text text-anchor="middle" x="383" y="-1908.29" font-family="Times,serif" font-size="14.00">2</text>
</g>
<!-- 11 -->
<g id="node13" class="node">
<title>11</title>
<ellipse fill="none" stroke="black" cx="921" cy="-946.99" rx="27" ry="18"/>
<text text-anchor="middle" x="921" y="-943.29" font-family="Times,serif" font-size="14.00">11</text>
</g>
<!-- 5&#45;&gt;11 -->
<g id="edge144" class="edge">
<title>5&#45;&gt;11</title>
<path fill="none" stroke="black" d="M511.62,-1624.96C538.7,-1525.84 677.31,-1026.14 732,-982.99 758.88,-961.79 852.09,-974.42 885,-964.99 886.94,-964.43 888.91,-963.78 890.88,-963.07"/>
<polygon fill="black" stroke="black" points="892.61,-966.13 900.51,-959.06 889.93,-959.67 892.61,-966.13"/>
<text text-anchor="middle" x="618" y="-1291.29" font-family="Times,serif" font-size="14.00">4</text>
</g>
<!-- 28 -->
<g id="node30" class="node">
<title>28</title>
<ellipse fill="none" stroke="black" cx="880" cy="-1555.99" rx="27" ry="18"/>
<text text-anchor="middle" x="880" y="-1552.29" font-family="Times,serif" font-size="14.00">28</text>
</g>
<!-- 5&#45;&gt;28 -->
<g id="edge142" class="edge">
<title>5&#45;&gt;28</title>
<path fill="none" stroke="black" d="M532.34,-1636.22C597.34,-1621.41 770.05,-1582.05 844.75,-1565.02"/>
<polygon fill="black" stroke="black" points="845.65,-1568.41 854.62,-1562.78 844.09,-1561.58 845.65,-1568.41"/>
<text text-anchor="middle" x="721" y="-1595.79" font-family="Times,serif" font-size="14.00">1</text>
</g>
<!-- 5&#45;&gt;29 -->
<g id="edge55" class="edge">
<title>5&#45;&gt;29</title>
<path fill="none" stroke="black" d="M491.95,-1658.19C476.28,-1674.58 454,-1703.14 454,-1732.99 454,-1956.49 454,-1956.49 454,-1956.49 454,-2255.75 980.66,-2282.27 1126.79,-2283.87"/>
<polygon fill="black" stroke="black" points="1127.01,-2287.37 1137.03,-2283.95 1127.06,-2280.37 1127.01,-2287.37"/>
<text text-anchor="middle" x="459" y="-1951.79" font-family="Times,serif" font-size="14.00">0</text>
</g>
<!-- 7 -->
<g id="node9" class="node">
<title>7</title>
<ellipse fill="none" stroke="black" cx="1686" cy="-1824.99" rx="27" ry="18"/>
<text text-anchor="middle" x="1686" y="-1821.29" font-family="Times,serif" font-size="14.00">7</text>
</g>
<!-- 6&#45;&gt;7 -->
<g id="edge83" class="edge">
<title>6&#45;&gt;7</title>
<path fill="none" stroke="black" d="M1578.32,-1898.63C1599.6,-1884.28 1634.88,-1860.48 1659.23,-1844.05"/>
<polygon fill="black" stroke="black" points="1661.32,-1846.86 1667.66,-1838.37 1657.41,-1841.06 1661.32,-1846.86"/>
<text text-anchor="middle" x="1635" y="-1864.79" font-family="Times,serif" font-size="14.00">1</text>
</g>
<!-- 6&#45;&gt;15 -->
<g id="edge19" class="edge">
<title>6&#45;&gt;15</title>
<path fill="none" stroke="black" d="M1560.37,-1893.82C1561.84,-1837.57 1568.57,-1653.92 1596,-1504.99 1610.47,-1426.44 1655.28,-1409.58 1641,-1330.99 1636.82,-1307.96 1523.65,-1022.63 1520,-1015.99 1488.14,-958.04 1481.76,-939.56 1432,-895.99 1418.29,-883.99 1400.74,-873.93 1385.57,-866.5"/>
<polygon fill="black" stroke="black" points="1387.02,-863.32 1376.48,-862.22 1384.04,-869.65 1387.02,-863.32"/>
<text text-anchor="middle" x="1648" y="-1378.29" font-family="Times,serif" font-size="14.00">2</text>
</g>
<!-- 6&#45;&gt;19 -->
<g id="edge62" class="edge">
<title>6&#45;&gt;19</title>
<path fill="none" stroke="black" d="M1549.97,-1895.11C1518.26,-1845.1 1420.92,-1693.28 1399,-1678.99 1363.73,-1656 1338.21,-1688.1 1306,-1660.99 1297.83,-1654.11 1245.58,-1497.03 1212,-1399.99 1193.11,-1345.4 1199.61,-1326.59 1170,-1276.99 1159.38,-1259.2 1143.51,-1242.11 1130.36,-1229.51"/>
<polygon fill="black" stroke="black" points="1132.69,-1226.9 1122.98,-1222.64 1127.91,-1232.02 1132.69,-1226.9"/>
<text text-anchor="middle" x="1276" y="-1552.29" font-family="Times,serif" font-size="14.00">3</text>
</g>
<!-- 6&#45;&gt;26 -->
<g id="edge76" class="edge">
<title>6&#45;&gt;26</title>
<path fill="none" stroke="black" d="M1587.18,-1910.14C1706,-1906.05 2174,-1886.12 2174,-1825.99 2174,-1825.99 2174,-1825.99 2174,-1076.49 2174,-952.68 2208,-923.81 2208,-800 2208,-800 2208,-800 2208,-667.5 2208,-606.6 2196,-591.9 2196,-531 2196,-531 2196,-531 2196,-282 2196,-251.33 2169.57,-225.88 2147.88,-210.16"/>
<polygon fill="black" stroke="black" points="2149.79,-207.23 2139.57,-204.43 2145.82,-212.99 2149.79,-207.23"/>
<text text-anchor="middle" x="2179" y="-1073.79" font-family="Times,serif" font-size="14.00">0</text>
</g>
<!-- 6&#45;&gt;26 -->
<g id="edge139" class="edge">
<title>6&#45;&gt;26</title>
<path fill="none" stroke="black" d="M1586.93,-1910.19C1680.54,-1907.24 1991.42,-1896.13 2089,-1875.99 2146.79,-1864.06 2212,-1885 2212,-1825.99 2212,-1825.99 2212,-1825.99 2212,-1076.49 2212,-955.17 2234,-652.32 2234,-531 2234,-531 2234,-531 2234,-282 2234,-240.98 2187.57,-216.07 2153.97,-203.41"/>
<polygon fill="black" stroke="black" points="2155.05,-200.08 2144.46,-200.02 2152.7,-206.67 2155.05,-200.08"/>
<text text-anchor="middle" x="2217" y="-1073.79" font-family="Times,serif" font-size="14.00">4</text>
</g>
<!-- 7&#45;&gt;1 -->
<g id="edge79" class="edge">
<title>7&#45;&gt;1</title>
<path fill="none" stroke="black" d="M1686,-1806.83C1686,-1795.43 1686,-1780.13 1686,-1766.57"/>
<polygon fill="black" stroke="black" points="1689.5,-1766.18 1686,-1756.18 1682.5,-1766.18 1689.5,-1766.18"/>
<text text-anchor="middle" x="1691" y="-1777.79" font-family="Times,serif" font-size="14.00">1</text>
</g>
<!-- 7&#45;&gt;19 -->
<g id="edge91" class="edge">
<title>7&#45;&gt;19</title>
<path fill="none" stroke="black" d="M1665.42,-1813.03C1623.46,-1789.82 1526.91,-1731.99 1467,-1660.99 1409.04,-1592.31 1403.35,-1567.78 1364,-1486.99 1338.3,-1434.24 1346.42,-1414.17 1316,-1363.99 1289.38,-1320.09 1276.81,-1312.78 1240,-1276.99 1223.48,-1260.93 1219.94,-1255.54 1200,-1243.99 1181.61,-1233.34 1159.38,-1224.84 1141.27,-1218.88"/>
<polygon fill="black" stroke="black" points="1142.27,-1215.53 1131.68,-1215.83 1140.15,-1222.2 1142.27,-1215.53"/>
<text text-anchor="middle" x="1384" y="-1508.79" font-family="Times,serif" font-size="14.00">0</text>
</g>
<!-- 7&#45;&gt;19 -->
<g id="edge101" class="edge">
<title>7&#45;&gt;19</title>
<path fill="none" stroke="black" d="M1663.31,-1815.1C1645.32,-1808.04 1619.54,-1797.91 1597,-1788.99 1560.08,-1774.39 1547.63,-1777.09 1514,-1755.99 1471.1,-1729.08 1475.14,-1701.96 1430,-1678.99 1394.03,-1660.69 1371.28,-1687.67 1341,-1660.99 1267.07,-1595.87 1303.72,-1543.57 1270,-1450.99 1241.58,-1372.98 1252.98,-1342.53 1202,-1276.99 1184.54,-1254.54 1157.69,-1236.28 1136.99,-1224.36"/>
<polygon fill="black" stroke="black" points="1138.69,-1221.3 1128.26,-1219.49 1135.29,-1227.41 1138.69,-1221.3"/>
<text text-anchor="middle" x="1290" y="-1508.79" font-family="Times,serif" font-size="14.00">4</text>
</g>
<!-- 7&#45;&gt;21 -->
<g id="edge36" class="edge">
<title>7&#45;&gt;21</title>
<path fill="none" stroke="black" d="M1713.09,-1823.65C1743.6,-1821.92 1793.17,-1814.93 1826,-1788.99 1847.21,-1772.23 1854,-1762.03 1854,-1734.99 1854,-1734.99 1854,-1734.99 1854,-1554.99 1854,-1531.7 1840.48,-1508.68 1828.09,-1492.48"/>
<polygon fill="black" stroke="black" points="1830.8,-1490.26 1821.8,-1484.67 1825.35,-1494.65 1830.8,-1490.26"/>
<text text-anchor="middle" x="1859" y="-1639.29" font-family="Times,serif" font-size="14.00">3</text>
</g>
<!-- 22 -->
<g id="node24" class="node">
<title>22</title>
<ellipse fill="none" stroke="black" cx="1631" cy="-755.5" rx="27" ry="18"/>
<text text-anchor="middle" x="1631" y="-751.8" font-family="Times,serif" font-size="14.00">22</text>
</g>
<!-- 7&#45;&gt;22 -->
<g id="edge9" class="edge">
<title>7&#45;&gt;22</title>
<path fill="none" stroke="black" d="M1712.11,-1820.16C1775.06,-1810.19 1930,-1780.98 1930,-1734.99 1930,-1734.99 1930,-1734.99 1930,-1424.49 1930,-1346.2 1892,-1330.78 1892,-1252.49 1892,-1252.49 1892,-1252.49 1892,-989.49 1892,-868.78 1734.72,-795.08 1664.35,-768.14"/>
<polygon fill="black" stroke="black" points="1665.21,-764.73 1654.62,-764.5 1662.76,-771.28 1665.21,-764.73"/>
<text text-anchor="middle" x="1906" y="-1291.29" font-family="Times,serif" font-size="14.00">2</text>
</g>
<!-- 8&#45;&gt;7 -->
<g id="edge114" class="edge">
<title>8&#45;&gt;7</title>
<path fill="none" stroke="black" d="M1023.09,-589.2C1010.86,-596.49 994.88,-606.75 982,-617.5 843.4,-733.13 613.98,-1005.1 608,-1015.99 575.21,-1075.71 520.65,-1260.55 532,-1312.99 553.37,-1411.75 560.43,-1443.11 626,-1519.99 699.67,-1606.37 731.65,-1624.05 839,-1660.99 935.95,-1694.36 970.6,-1650.17 1069,-1678.99 1082.55,-1682.96 1083.49,-1689.9 1097,-1693.99 1176.49,-1718.07 1203.78,-1687.05 1283,-1711.99 1320.96,-1723.95 1323.94,-1741.47 1361,-1755.99 1461.21,-1795.25 1588.11,-1813.41 1649.48,-1820.37"/>
<polygon fill="black" stroke="black" points="1649.13,-1823.85 1659.45,-1821.47 1649.89,-1816.89 1649.13,-1823.85"/>
<text text-anchor="middle" x="553" y="-1204.29" font-family="Times,serif" font-size="14.00">0</text>
</g>
<!-- 8&#45;&gt;9 -->
<g id="edge80" class="edge">
<title>8&#45;&gt;9</title>
<path fill="none" stroke="black" d="M1021.23,-570C988.76,-559.84 923.98,-539.59 869,-522.5 836.52,-512.4 799.31,-500.89 773.8,-493.01"/>
<polygon fill="black" stroke="black" points="774.55,-489.58 763.96,-489.97 772.48,-496.26 774.55,-489.58"/>
<text text-anchor="middle" x="921" y="-526.3" font-family="Times,serif" font-size="14.00">2</text>
</g>
<!-- 14 -->
<g id="node16" class="node">
<title>14</title>
<ellipse fill="none" stroke="black" cx="985" cy="-105" rx="27" ry="18"/>
<text text-anchor="middle" x="985" y="-101.3" font-family="Times,serif" font-size="14.00">14</text>
</g>
<!-- 8&#45;&gt;14 -->
<g id="edge75" class="edge">
<title>8&#45;&gt;14</title>
<path fill="none" stroke="black" d="M1048.54,-556.42C1054.03,-537.74 1061,-509.04 1061,-483.5 1061,-483.5 1061,-483.5 1061,-191 1061,-161.6 1035.41,-137.7 1013.93,-122.82"/>
<polygon fill="black" stroke="black" points="1015.65,-119.75 1005.37,-117.19 1011.8,-125.6 1015.65,-119.75"/>
<text text-anchor="middle" x="1066" y="-326.8" font-family="Times,serif" font-size="14.00">3</text>
</g>
<!-- 8&#45;&gt;14 -->
<g id="edge147" class="edge">
<title>8&#45;&gt;14</title>
<path fill="none" stroke="black" d="M1026.12,-562.06C1009.26,-545.06 985,-515.12 985,-483.5 985,-483.5 985,-483.5 985,-191 985,-171.75 985,-150.05 985,-133.4"/>
<polygon fill="black" stroke="black" points="988.5,-133.26 985,-123.26 981.5,-133.26 988.5,-133.26"/>
<text text-anchor="middle" x="990" y="-326.8" font-family="Times,serif" font-size="14.00">4</text>
</g>
<!-- 8&#45;&gt;18 -->
<g id="edge88" class="edge">
<title>8&#45;&gt;18</title>
<path fill="none" stroke="black" d="M1057.91,-592.88C1074.15,-609.22 1097,-637.53 1097,-667.5 1097,-852.24 1097,-852.24 1097,-852.24 1097,-909.45 1170.91,-1040.61 1207,-1084.99 1255.84,-1145.06 1286.92,-1139.96 1346,-1189.99 1363.75,-1205.03 1366.39,-1210.79 1384,-1225.99 1401.97,-1241.51 1404.88,-1248.16 1426,-1258.99 1433.83,-1263 1479.59,-1275.79 1512.53,-1284.75"/>
<polygon fill="black" stroke="black" points="1511.71,-1288.15 1522.28,-1287.39 1513.54,-1281.39 1511.71,-1288.15"/>
<text text-anchor="middle" x="1138" y="-943.29" font-family="Times,serif" font-size="14.00">1</text>
</g>
<!-- 9&#45;&gt;5 -->
<g id="edge58" class="edge">
<title>9&#45;&gt;5</title>
<path fill="none" stroke="black" d="M739.24,-504.39C731.45,-546.03 711.99,-642 685,-719.5 663.66,-780.77 442,-1185.61 442,-1250.49 442,-1556.99 442,-1556.99 442,-1556.99 442,-1583.9 462.8,-1607.56 480.87,-1623.04"/>
<polygon fill="black" stroke="black" points="478.93,-1625.97 488.89,-1629.56 483.34,-1620.54 478.93,-1625.97"/>
<text text-anchor="middle" x="519" y="-1073.79" font-family="Times,serif" font-size="14.00">1</text>
</g>
<!-- 9&#45;&gt;10 -->
<g id="edge14" class="edge">
<title>9&#45;&gt;10</title>
<path fill="none" stroke="black" d="M752.32,-502.59C760.47,-521.04 771,-550.02 771,-576.5 771,-947.99 771,-947.99 771,-947.99 771,-1075.62 970.6,-1108.92 1055.01,-1117.29"/>
<polygon fill="black" stroke="black" points="1054.9,-1120.8 1065.18,-1118.24 1055.55,-1113.83 1054.9,-1120.8"/>
<text text-anchor="middle" x="776" y="-795.3" font-family="Times,serif" font-size="14.00">3</text>
</g>
<!-- 9&#45;&gt;20 -->
<g id="edge37" class="edge">
<title>9&#45;&gt;20</title>
<path fill="none" stroke="black" d="M764.91,-478.07C857.35,-463.64 1216.03,-407.63 1332.35,-389.47"/>
<polygon fill="black" stroke="black" points="1333.18,-392.88 1342.53,-387.88 1332.1,-385.97 1333.18,-392.88"/>
<text text-anchor="middle" x="1079" y="-431.3" font-family="Times,serif" font-size="14.00">4</text>
</g>
<!-- 9&#45;&gt;25 -->
<g id="edge122" class="edge">
<title>9&#45;&gt;25</title>
<path fill="none" stroke="black" d="M726.26,-467.85C707,-450.5 678,-418.6 678,-383.75 678,-383.75 678,-383.75 678,-104 678,-84.75 678,-63.05 678,-46.4"/>
<polygon fill="black" stroke="black" points="681.5,-46.26 678,-36.26 674.5,-46.26 681.5,-46.26"/>
<text text-anchor="middle" x="683" y="-231.8" font-family="Times,serif" font-size="14.00">0</text>
</g>
<!-- 9&#45;&gt;29 -->
<g id="edge104" class="edge">
<title>9&#45;&gt;29</title>
<path fill="none" stroke="black" d="M725.48,-496.1C629.11,-567.01 168,-927.74 168,-1337.49 168,-2185.99 168,-2185.99 168,-2185.99 168,-2284.32 946.75,-2285.18 1127.05,-2284.07"/>
<polygon fill="black" stroke="black" points="1127.13,-2287.57 1137.1,-2284 1127.08,-2280.57 1127.13,-2287.57"/>
<text text-anchor="middle" x="173" y="-1378.29" font-family="Times,serif" font-size="14.00">2</text>
</g>
<!-- 10&#45;&gt;17 -->
<g id="edge81" class="edge">
<title>10&#45;&gt;17</title>
<path fill="none" stroke="black" d="M1113.36,-1109.91C1145.16,-1094.89 1205.11,-1066.58 1241.51,-1049.39"/>
<polygon fill="black" stroke="black" points="1243.12,-1052.5 1250.67,-1045.06 1240.14,-1046.17 1243.12,-1052.5"/>
<text text-anchor="middle" x="1197" y="-1073.79" font-family="Times,serif" font-size="14.00">3</text>
</g>
<!-- 10&#45;&gt;19 -->
<g id="edge24" class="edge">
<title>10&#45;&gt;19</title>
<path fill="none" stroke="black" d="M1095.03,-1139.17C1097.08,-1150.8 1099.84,-1166.41 1102.19,-1179.73"/>
<polygon fill="black" stroke="black" points="1098.78,-1180.55 1103.96,-1189.79 1105.67,-1179.33 1098.78,-1180.55"/>
<text text-anchor="middle" x="1105" y="-1160.79" font-family="Times,serif" font-size="14.00">4</text>
</g>
<!-- 10&#45;&gt;20 -->
<g id="edge108" class="edge">
<title>10&#45;&gt;20</title>
<path fill="none" stroke="black" d="M1098.31,-1103.23C1133.66,-1009.25 1307.44,-547.36 1356.24,-417.67"/>
<polygon fill="black" stroke="black" points="1359.55,-418.81 1359.79,-408.22 1352.99,-416.35 1359.55,-418.81"/>
<text text-anchor="middle" x="1240" y="-751.8" font-family="Times,serif" font-size="14.00">0</text>
</g>
<!-- 10&#45;&gt;24 -->
<g id="edge56" class="edge">
<title>10&#45;&gt;24</title>
<path fill="none" stroke="black" d="M1109.4,-1135.11C1139.15,-1156.96 1202.37,-1200.88 1262,-1225.99 1292,-1238.63 1301.79,-1234.74 1333,-1243.99 1354.83,-1250.46 1409.19,-1267.75 1430,-1276.99 1475.09,-1297.02 1494.4,-1293.95 1527,-1330.99 1532.88,-1337.68 1537.16,-1346.31 1540.21,-1354.52"/>
<polygon fill="black" stroke="black" points="1536.92,-1355.73 1543.34,-1364.16 1543.58,-1353.56 1536.92,-1355.73"/>
<text text-anchor="middle" x="1385" y="-1247.79" font-family="Times,serif" font-size="14.00">1</text>
</g>
<!-- 10&#45;&gt;28 -->
<g id="edge118" class="edge">
<title>10&#45;&gt;28</title>
<path fill="none" stroke="black" d="M1068.19,-1129.57C1038.96,-1138.97 992.87,-1154.1 990,-1156.99 956.36,-1190.93 974.89,-1215.1 956,-1258.99 940.35,-1295.34 914,-1297.92 914,-1337.49 914,-1469.99 914,-1469.99 914,-1469.99 914,-1491.38 904.6,-1513.78 895.69,-1530.2"/>
<polygon fill="black" stroke="black" points="892.51,-1528.72 890.57,-1539.13 898.58,-1532.2 892.51,-1528.72"/>
<text text-anchor="middle" x="919" y="-1334.79" font-family="Times,serif" font-size="14.00">2</text>
</g>
<!-- 11&#45;&gt;0 -->
<g id="edge17" class="edge">
<title>11&#45;&gt;0</title>
<path fill="none" stroke="black" d="M899.75,-958.22C894.92,-960.49 889.8,-962.86 885,-964.99 844.05,-983.22 825.82,-980.85 798,-1015.99 657.87,-1193.02 686,-1285.71 686,-1511.49 686,-1999.99 686,-1999.99 686,-1999.99 686,-2019 686,-2040.3 686,-2057.29"/>
<polygon fill="black" stroke="black" points="682.5,-2057.77 686,-2067.77 689.5,-2057.77 682.5,-2057.77"/>
<text text-anchor="middle" x="691" y="-1508.79" font-family="Times,serif" font-size="14.00">0</text>
</g>
<!-- 11&#45;&gt;7 -->
<g id="edge116" class="edge">
<title>11&#45;&gt;7</title>
<path fill="none" stroke="black" d="M900.04,-958.86C879.43,-970.51 848.33,-990.76 829,-1015.99 785.21,-1073.15 762,-1091.49 762,-1163.49 762,-1469.99 762,-1469.99 762,-1469.99 762,-1528.85 794.85,-1541.6 844,-1573.99 968.49,-1656.04 1022.42,-1628.79 1168,-1660.99 1213.37,-1671.03 1226.29,-1666.32 1271,-1678.99 1398.05,-1714.99 1421.36,-1748.34 1547,-1788.99 1581.79,-1800.25 1622.44,-1810.12 1650.76,-1816.48"/>
<polygon fill="black" stroke="black" points="1650.08,-1819.91 1660.6,-1818.66 1651.6,-1813.08 1650.08,-1819.91"/>
<text text-anchor="middle" x="767" y="-1378.29" font-family="Times,serif" font-size="14.00">2</text>
</g>
<!-- 11&#45;&gt;8 -->
<g id="edge117" class="edge">
<title>11&#45;&gt;8</title>
<path fill="none" stroke="black" d="M935.76,-931.56C951.74,-914.31 975,-883.8 975,-852.24 975,-852.24 975,-852.24 975,-667.5 975,-638.73 997.62,-613.34 1016.57,-597.12"/>
<polygon fill="black" stroke="black" points="1018.86,-599.78 1024.4,-590.75 1014.43,-594.35 1018.86,-599.78"/>
<text text-anchor="middle" x="980" y="-751.8" font-family="Times,serif" font-size="14.00">4</text>
</g>
<!-- 11&#45;&gt;15 -->
<g id="edge128" class="edge">
<title>11&#45;&gt;15</title>
<path fill="none" stroke="black" d="M945.78,-939.4C983.77,-929.4 1058.77,-910.07 1123,-895.99 1190.86,-881.12 1270.66,-866.53 1315.89,-858.52"/>
<polygon fill="black" stroke="black" points="1316.56,-861.96 1325.81,-856.77 1315.35,-855.06 1316.56,-861.96"/>
<text text-anchor="middle" x="1128" y="-899.79" font-family="Times,serif" font-size="14.00">1</text>
</g>
<!-- 11&#45;&gt;28 -->
<g id="edge102" class="edge">
<title>11&#45;&gt;28</title>
<path fill="none" stroke="black" d="M914.76,-964.8C895.46,-1018.38 838,-1190.22 838,-1337.49 838,-1469.99 838,-1469.99 838,-1469.99 838,-1492.49 849.97,-1515.2 861.13,-1531.47"/>
<polygon fill="black" stroke="black" points="858.47,-1533.76 867.17,-1539.81 864.14,-1529.66 858.47,-1533.76"/>
<text text-anchor="middle" x="849" y="-1247.79" font-family="Times,serif" font-size="14.00">3</text>
</g>
<!-- 12 -->
<g id="node14" class="node">
<title>12</title>
<ellipse fill="none" stroke="black" cx="1352" cy="-668.5" rx="27" ry="18"/>
<text text-anchor="middle" x="1352" y="-664.8" font-family="Times,serif" font-size="14.00">12</text>
</g>
<!-- 12&#45;&gt;8 -->
<g id="edge44" class="edge">
<title>12&#45;&gt;8</title>
<path fill="none" stroke="black" d="M1327.67,-660.51C1271.81,-644.48 1134.44,-605.04 1072.8,-587.34"/>
<polygon fill="black" stroke="black" points="1073.47,-583.89 1062.9,-584.5 1071.54,-590.62 1073.47,-583.89"/>
<text text-anchor="middle" x="1229" y="-621.3" font-family="Times,serif" font-size="14.00">2</text>
</g>
<!-- 12&#45;&gt;15 -->
<g id="edge38" class="edge">
<title>12&#45;&gt;15</title>
<path fill="none" stroke="black" d="M1352,-686.66C1352,-715.77 1352,-775.38 1352,-814.04"/>
<polygon fill="black" stroke="black" points="1348.5,-814.35 1352,-824.35 1355.5,-814.35 1348.5,-814.35"/>
<text text-anchor="middle" x="1357" y="-751.8" font-family="Times,serif" font-size="14.00">1</text>
</g>
<!-- 12&#45;&gt;20 -->
<g id="edge30" class="edge">
<title>12&#45;&gt;20</title>
<path fill="none" stroke="black" d="M1352.11,-650.07C1352.37,-622.83 1353.21,-568.5 1356,-522.5 1358.12,-487.48 1362.01,-447.63 1364.98,-419.65"/>
<polygon fill="black" stroke="black" points="1368.48,-419.85 1366.07,-409.54 1361.52,-419.1 1368.48,-419.85"/>
<text text-anchor="middle" x="1361" y="-526.3" font-family="Times,serif" font-size="14.00">3</text>
</g>
<!-- 12&#45;&gt;20 -->
<g id="edge57" class="edge">
<title>12&#45;&gt;20</title>
<path fill="none" stroke="black" d="M1359.83,-651.11C1362.24,-645.36 1364.62,-638.76 1366,-632.5 1384.24,-549.97 1373.32,-527.01 1374,-442.5 1374.05,-435.83 1374.38,-434.15 1374,-427.5 1373.86,-424.96 1373.66,-422.34 1373.44,-419.71"/>
<polygon fill="black" stroke="black" points="1376.91,-419.23 1372.45,-409.62 1369.94,-419.91 1376.91,-419.23"/>
<text text-anchor="middle" x="1381" y="-526.3" font-family="Times,serif" font-size="14.00">0</text>
</g>
<!-- 12&#45;&gt;23 -->
<g id="edge72" class="edge">
<title>12&#45;&gt;23</title>
<path fill="none" stroke="black" d="M1325.21,-665.34C1176.73,-653.39 455.35,-595.34 283.02,-581.48"/>
<polygon fill="black" stroke="black" points="283.18,-577.98 272.93,-580.66 282.62,-584.95 283.18,-577.98"/>
<text text-anchor="middle" x="903" y="-621.3" font-family="Times,serif" font-size="14.00">4</text>
</g>
<!-- 13 -->
<g id="node15" class="node">
<title>13</title>
<ellipse fill="none" stroke="black" cx="1831" cy="-105" rx="27" ry="18"/>
<text text-anchor="middle" x="1831" y="-101.3" font-family="Times,serif" font-size="14.00">13</text>
</g>
<!-- 13&#45;&gt;8 -->
<g id="edge13" class="edge">
<title>13&#45;&gt;8</title>
<path fill="none" stroke="black" d="M1804.12,-107.78C1779.08,-110.82 1742.22,-119 1719,-141 1683.89,-174.28 1711.88,-205.76 1681,-243 1504.51,-455.84 1385.2,-424.15 1133,-537.5 1112.5,-546.71 1089.19,-556.69 1071.3,-564.25"/>
<polygon fill="black" stroke="black" points="1069.83,-561.07 1061.97,-568.17 1072.54,-567.52 1069.83,-561.07"/>
<text text-anchor="middle" x="1608" y="-326.8" font-family="Times,serif" font-size="14.00">4</text>
</g>
<!-- 13&#45;&gt;13 -->
<g id="edge12" class="edge">
<title>13&#45;&gt;13</title>
<path fill="none" stroke="black" d="M1855.53,-112.75C1866.51,-113.49 1876,-110.91 1876,-105 1876,-101.03 1871.72,-98.56 1865.57,-97.59"/>
<polygon fill="black" stroke="black" points="1865.65,-94.09 1855.53,-97.25 1865.41,-101.09 1865.65,-94.09"/>
<text text-anchor="middle" x="1881" y="-101.3" font-family="Times,serif" font-size="14.00">1</text>
</g>
<!-- 13&#45;&gt;15 -->
<g id="edge106" class="edge">
<title>13&#45;&gt;15</title>
<path fill="none" stroke="black" d="M1807.78,-114.31C1778.8,-126.34 1733,-151.59 1733,-191 1733,-436 1733,-436 1733,-436 1733,-578.34 1670.29,-606.29 1584,-719.5 1549.69,-764.51 1539.88,-777.96 1491,-806.5 1458.8,-825.3 1417.6,-836.95 1388.44,-843.46"/>
<polygon fill="black" stroke="black" points="1387.33,-840.11 1378.28,-845.62 1388.79,-846.96 1387.33,-840.11"/>
<text text-anchor="middle" x="1737" y="-478.8" font-family="Times,serif" font-size="14.00">0</text>
</g>
<!-- 16 -->
<g id="node18" class="node">
<title>16</title>
<ellipse fill="none" stroke="black" cx="1914" cy="-18" rx="27" ry="18"/>
<text text-anchor="middle" x="1914" y="-14.3" font-family="Times,serif" font-size="14.00">16</text>
</g>
<!-- 13&#45;&gt;16 -->
<g id="edge8" class="edge">
<title>13&#45;&gt;16</title>
<path fill="none" stroke="black" d="M1845.08,-89.58C1858.08,-76.27 1877.57,-56.31 1892.51,-41.01"/>
<polygon fill="black" stroke="black" points="1895.37,-43.09 1899.85,-33.49 1890.36,-38.2 1895.37,-43.09"/>
<text text-anchor="middle" x="1882" y="-57.8" font-family="Times,serif" font-size="14.00">2</text>
</g>
<!-- 13&#45;&gt;20 -->
<g id="edge103" class="edge">
<title>13&#45;&gt;20</title>
<path fill="none" stroke="black" d="M1803.9,-105.18C1761.01,-104.99 1675.92,-109.12 1613,-141 1512.43,-191.95 1427.08,-299.34 1389.5,-351.73"/>
<polygon fill="black" stroke="black" points="1386.61,-349.77 1383.68,-359.95 1392.32,-353.82 1386.61,-349.77"/>
<text text-anchor="middle" x="1500" y="-231.8" font-family="Times,serif" font-size="14.00">3</text>
</g>
<!-- 14&#45;&gt;5 -->
<g id="edge21" class="edge">
<title>14&#45;&gt;5</title>
<path fill="none" stroke="black" d="M958.12,-108.15C895.87,-114.56 740.64,-139.09 656,-228 625.47,-260.07 638.32,-280.47 626,-323 528.57,-659.42 514.92,-746.49 425,-1084.99 415.73,-1119.9 404,-1127.38 404,-1163.49 404,-1556.99 404,-1556.99 404,-1556.99 404,-1593.81 443.64,-1617.66 473.74,-1630.46"/>
<polygon fill="black" stroke="black" points="472.53,-1633.75 483.11,-1634.23 475.14,-1627.25 472.53,-1633.75"/>
<text text-anchor="middle" x="479" y="-899.79" font-family="Times,serif" font-size="14.00">1</text>
</g>
<!-- 14&#45;&gt;8 -->
<g id="edge22" class="edge">
<title>14&#45;&gt;8</title>
<path fill="none" stroke="black" d="M996.61,-121.37C1007.78,-137.73 1023,-164.81 1023,-191 1023,-483.5 1023,-483.5 1023,-483.5 1023,-504.95 1027.91,-528.63 1032.74,-546.73"/>
<polygon fill="black" stroke="black" points="1029.39,-547.74 1035.46,-556.42 1036.13,-545.84 1029.39,-547.74"/>
<text text-anchor="middle" x="1028" y="-326.8" font-family="Times,serif" font-size="14.00">0</text>
</g>
<!-- 14&#45;&gt;15 -->
<g id="edge60" class="edge">
<title>14&#45;&gt;15</title>
<path fill="none" stroke="black" d="M974.53,-121.77C952.01,-157.26 901,-246.8 901,-329.5 901,-578.5 901,-578.5 901,-578.5 901,-603.29 896.61,-615.87 915,-632.5 954.03,-667.77 982.92,-631.55 1032,-650.5 1124.46,-686.19 1133.62,-721.51 1218,-773.5 1252.25,-794.6 1292.38,-817.33 1319.73,-832.53"/>
<polygon fill="black" stroke="black" points="1318.05,-835.6 1328.49,-837.38 1321.44,-829.47 1318.05,-835.6"/>
<text text-anchor="middle" x="906" y="-478.8" font-family="Times,serif" font-size="14.00">4</text>
</g>
<!-- 14&#45;&gt;16 -->
<g id="edge46" class="edge">
<title>14&#45;&gt;16</title>
<path fill="none" stroke="black" d="M1011.59,-101.09C1085.3,-93.06 1298.51,-70.13 1476,-54 1624.44,-40.51 1801.44,-27.22 1876.93,-21.69"/>
<polygon fill="black" stroke="black" points="1877.6,-25.15 1887.32,-20.93 1877.09,-18.17 1877.6,-25.15"/>
<text text-anchor="middle" x="1481" y="-57.8" font-family="Times,serif" font-size="14.00">3</text>
</g>
<!-- 14&#45;&gt;25 -->
<g id="edge73" class="edge">
<title>14&#45;&gt;25</title>
<path fill="none" stroke="black" d="M961.92,-95.33C933,-84.67 881.81,-66.46 837,-54 795.1,-42.35 746.14,-32.06 713.73,-25.71"/>
<polygon fill="black" stroke="black" points="714.31,-22.25 703.82,-23.78 712.97,-29.12 714.31,-22.25"/>
<text text-anchor="middle" x="891" y="-57.8" font-family="Times,serif" font-size="14.00">2</text>
</g>
<!-- 15&#45;&gt;5 -->
<g id="edge34" class="edge">
<title>15&#45;&gt;5</title>
<path fill="none" stroke="black" d="M1325.56,-855.85C1265.78,-865.4 1119.12,-896.75 1038,-982.99 981.55,-1043.01 990.01,-1076.16 974,-1156.99 942.64,-1315.37 1017.05,-1368.95 960,-1519.99 949.06,-1548.95 942.69,-1558.31 916,-1573.99 852.94,-1611.05 632.22,-1632.13 543.92,-1639.24"/>
<polygon fill="black" stroke="black" points="543.52,-1635.76 533.83,-1640.04 544.07,-1642.74 543.52,-1635.76"/>
<text text-anchor="middle" x="971" y="-1247.79" font-family="Times,serif" font-size="14.00">2</text>
</g>
<!-- 15&#45;&gt;9 -->
<g id="edge130" class="edge">
<title>15&#45;&gt;9</title>
<path fill="none" stroke="black" d="M1325.37,-847.81C1246.38,-840.19 1015.02,-814.79 953,-773.5 841.27,-699.1 872.11,-624.63 785,-522.5 779.64,-516.21 773.35,-509.91 767.28,-504.25"/>
<polygon fill="black" stroke="black" points="769.58,-501.61 759.81,-497.49 764.88,-506.8 769.58,-501.61"/>
<text text-anchor="middle" x="877" y="-664.8" font-family="Times,serif" font-size="14.00">3</text>
</g>
<!-- 15&#45;&gt;17 -->
<g id="edge43" class="edge">
<title>15&#45;&gt;17</title>
<path fill="none" stroke="black" d="M1330.38,-867.48C1320.35,-875.25 1308.74,-885.31 1300,-895.99 1289.43,-908.93 1286.9,-913.02 1282,-928.99 1274.3,-954.1 1272.11,-984.07 1271.66,-1005.37"/>
<polygon fill="black" stroke="black" points="1268.16,-1005.62 1271.57,-1015.65 1275.16,-1005.68 1268.16,-1005.62"/>
<text text-anchor="middle" x="1287" y="-943.29" font-family="Times,serif" font-size="14.00">0</text>
</g>
<!-- 15&#45;&gt;17 -->
<g id="edge65" class="edge">
<title>15&#45;&gt;17</title>
<path fill="none" stroke="black" d="M1341.46,-876.05C1326.44,-909.99 1298.98,-972.04 1283.46,-1007.09"/>
<polygon fill="black" stroke="black" points="1280.09,-1006.07 1279.24,-1016.63 1286.49,-1008.91 1280.09,-1006.07"/>
<text text-anchor="middle" x="1322" y="-943.29" font-family="Times,serif" font-size="14.00">4</text>
</g>
<!-- 15&#45;&gt;22 -->
<g id="edge99" class="edge">
<title>15&#45;&gt;22</title>
<path fill="none" stroke="black" d="M1376.56,-840.08C1406.74,-827.77 1459.67,-806.78 1506,-791.5 1536.1,-781.57 1570.85,-771.98 1596.06,-765.36"/>
<polygon fill="black" stroke="black" points="1597.1,-768.71 1605.89,-762.8 1595.34,-761.93 1597.1,-768.71"/>
<text text-anchor="middle" x="1511" y="-795.3" font-family="Times,serif" font-size="14.00">1</text>
</g>
<!-- 16&#45;&gt;4 -->
<g id="edge92" class="edge">
<title>16&#45;&gt;4</title>
<path fill="none" stroke="black" d="M1940.99,-19.29C2020.59,-20.47 2253.12,-26.24 2323,-54 2356.22,-67.2 2386,-68.25 2386,-104 2386,-626 2386,-626 2386,-626 2386,-872.41 2250,-917.08 2250,-1163.49 2250,-1912.99 2250,-1912.99 2250,-1912.99 2250,-1997.53 1587.94,-1999.22 1421.58,-1998.31"/>
<polygon fill="black" stroke="black" points="1421.37,-1994.81 1411.35,-1998.24 1421.33,-2001.81 1421.37,-1994.81"/>
<text text-anchor="middle" x="2274" y="-1030.29" font-family="Times,serif" font-size="14.00">2</text>
</g>
<!-- 16&#45;&gt;8 -->
<g id="edge4" class="edge">
<title>16&#45;&gt;8</title>
<path fill="none" stroke="black" d="M1886.89,-19.55C1812.85,-21.38 1608.63,-28.63 1547,-54 1417.26,-107.4 1209.5,-273.29 1113,-427.5 1085.07,-472.13 1093.92,-491.11 1069,-537.5 1066.53,-542.09 1063.63,-546.8 1060.66,-551.29"/>
<polygon fill="black" stroke="black" points="1057.76,-549.33 1054.97,-559.56 1063.52,-553.31 1057.76,-549.33"/>
<text text-anchor="middle" x="1256" y="-279.3" font-family="Times,serif" font-size="14.00">0</text>
</g>
<!-- 16&#45;&gt;16 -->
<g id="edge23" class="edge">
<title>16&#45;&gt;16</title>
<path fill="none" stroke="black" d="M1938.53,-25.75C1949.51,-26.49 1959,-23.91 1959,-18 1959,-14.03 1954.72,-11.56 1948.57,-10.59"/>
<polygon fill="black" stroke="black" points="1948.65,-7.09 1938.53,-10.25 1948.41,-14.09 1948.65,-7.09"/>
<text text-anchor="middle" x="1964" y="-14.3" font-family="Times,serif" font-size="14.00">1</text>
</g>
<!-- 16&#45;&gt;18 -->
<g id="edge49" class="edge">
<title>16&#45;&gt;18</title>
<path fill="none" stroke="black" d="M1914,-36.26C1914,-53.43 1914,-80.54 1914,-104 1914,-531 1914,-531 1914,-531 1914,-561.41 1756.77,-1023.55 1746,-1051.99 1731.06,-1091.45 1727.42,-1101.53 1708,-1138.99 1700.11,-1154.22 1699.06,-1158.89 1688,-1171.99 1653.03,-1213.41 1603.47,-1252.85 1573.38,-1275.17"/>
<polygon fill="black" stroke="black" points="1571.06,-1272.53 1565.07,-1281.27 1575.2,-1278.18 1571.06,-1272.53"/>
<text text-anchor="middle" x="1884" y="-664.8" font-family="Times,serif" font-size="14.00">3</text>
</g>
<!-- 16&#45;&gt;21 -->
<g id="edge131" class="edge">
<title>16&#45;&gt;21</title>
<path fill="none" stroke="black" d="M1941.15,-18.52C2036.16,-17.54 2348,-20.7 2348,-104 2348,-436 2348,-436 2348,-436 2348,-610.07 2194.02,-592.3 2098,-737.5 2028.49,-842.61 1968,-863.47 1968,-989.49 1968,-1382.99 1968,-1382.99 1968,-1382.99 1968,-1438.41 1892.22,-1457.81 1844.97,-1464.52"/>
<polygon fill="black" stroke="black" points="1844.25,-1461.08 1834.78,-1465.83 1845.15,-1468.02 1844.25,-1461.08"/>
<text text-anchor="middle" x="2103" y="-751.8" font-family="Times,serif" font-size="14.00">4</text>
</g>
<!-- 17&#45;&gt;11 -->
<g id="edge132" class="edge">
<title>17&#45;&gt;11</title>
<path fill="none" stroke="black" d="M1247.2,-1026.86C1208.82,-1017.38 1132.69,-998.62 1068,-982.99 1029.68,-973.73 985.69,-963.28 955.9,-956.23"/>
<polygon fill="black" stroke="black" points="956.52,-952.78 945.98,-953.89 954.91,-959.59 956.52,-952.78"/>
<text text-anchor="middle" x="1134" y="-986.79" font-family="Times,serif" font-size="14.00">3</text>
</g>
<!-- 17&#45;&gt;18 -->
<g id="edge53" class="edge">
<title>17&#45;&gt;18</title>
<path fill="none" stroke="black" d="M1296.84,-1041.39C1314.09,-1046.79 1336.79,-1055.95 1353,-1069.99 1427.48,-1134.54 1394.97,-1193.93 1469,-1258.99 1472.86,-1262.38 1495.33,-1272.33 1515.17,-1280.76"/>
<polygon fill="black" stroke="black" points="1514.03,-1284.08 1524.6,-1284.74 1516.75,-1277.63 1514.03,-1284.08"/>
<text text-anchor="middle" x="1418" y="-1160.79" font-family="Times,serif" font-size="14.00">2</text>
</g>
<!-- 27 -->
<g id="node29" class="node">
<title>27</title>
<ellipse fill="none" stroke="black" cx="849" cy="-946.99" rx="27" ry="18"/>
<text text-anchor="middle" x="849" y="-943.29" font-family="Times,serif" font-size="14.00">27</text>
</g>
<!-- 17&#45;&gt;27 -->
<g id="edge61" class="edge">
<title>17&#45;&gt;27</title>
<path fill="none" stroke="black" d="M1245.43,-1030.65C1199.89,-1026.33 1104.22,-1015.86 1025,-997.99 1003.2,-993.07 998.67,-988.48 977,-982.99 936.61,-972.76 924.59,-977.99 885,-964.99 883.08,-964.36 881.13,-963.65 879.18,-962.89"/>
<polygon fill="black" stroke="black" points="880.15,-959.5 869.58,-958.78 877.39,-965.94 880.15,-959.5"/>
<text text-anchor="middle" x="1030" y="-986.79" font-family="Times,serif" font-size="14.00">1</text>
</g>
<!-- 17&#45;&gt;28 -->
<g id="edge48" class="edge">
<title>17&#45;&gt;28</title>
<path fill="none" stroke="black" d="M1265.46,-1051.76C1246.27,-1099.97 1186.81,-1242.09 1114,-1345.99 1064.74,-1416.29 1042.15,-1425.75 982,-1486.99 967.24,-1502.02 965.1,-1507.71 948,-1519.99 936.77,-1528.06 923.42,-1535.36 911.54,-1541.17"/>
<polygon fill="black" stroke="black" points="909.93,-1538.06 902.39,-1545.51 912.92,-1544.39 909.93,-1538.06"/>
<text text-anchor="middle" x="1161" y="-1291.29" font-family="Times,serif" font-size="14.00">0</text>
</g>
<!-- 17&#45;&gt;29 -->
<g id="edge51" class="edge">
<title>17&#45;&gt;29</title>
<path fill="none" stroke="black" d="M1281.73,-1051.04C1313.36,-1103.59 1412.14,-1270.58 1427,-1330.99 1428.59,-1337.47 1428.15,-1339.43 1427,-1345.99 1412.79,-1427 1400.82,-1446.45 1364,-1519.99 1333,-1581.91 1193,-1711.25 1193,-1780.49 1193,-2185.99 1193,-2185.99 1193,-2185.99 1193,-2208.2 1186.04,-2232.11 1178.93,-2250.73"/>
<polygon fill="black" stroke="black" points="1175.6,-2249.63 1175.13,-2260.22 1182.1,-2252.24 1175.6,-2249.63"/>
<text text-anchor="middle" x="1290" y="-1639.29" font-family="Times,serif" font-size="14.00">4</text>
</g>
<!-- 18&#45;&gt;0 -->
<g id="edge133" class="edge">
<title>18&#45;&gt;0</title>
<path fill="none" stroke="black" d="M1531.98,-1310.24C1526,-1316.32 1519.3,-1323.69 1514,-1330.99 1504.19,-1344.51 1503.12,-1348.88 1496,-1363.99 1435.4,-1492.64 1450.44,-1539.22 1377,-1660.99 1306.81,-1777.36 1262.01,-1786.4 1179,-1893.99 1127.33,-1960.96 1142.93,-2007.16 1070,-2049.99 1010.69,-2084.83 799.58,-2088.87 718.26,-2089.11"/>
<polygon fill="black" stroke="black" points="718.11,-2085.61 708.12,-2089.12 718.12,-2092.61 718.11,-2085.61"/>
<text text-anchor="middle" x="1370" y="-1682.79" font-family="Times,serif" font-size="14.00">3</text>
</g>
<!-- 18&#45;&gt;13 -->
<g id="edge25" class="edge">
<title>18&#45;&gt;13</title>
<path fill="none" stroke="black" d="M1552.56,-1277.16C1582.1,-1187.96 1721.93,-770.01 1787,-650.5 1818.67,-592.33 1876,-597.22 1876,-531 1876,-531 1876,-531 1876,-191 1876,-168.04 1863.01,-145.21 1850.99,-129.01"/>
<polygon fill="black" stroke="black" points="1853.42,-126.44 1844.5,-120.73 1847.92,-130.76 1853.42,-126.44"/>
<text text-anchor="middle" x="1766" y="-708.3" font-family="Times,serif" font-size="14.00">2</text>
</g>
<!-- 18&#45;&gt;15 -->
<g id="edge135" class="edge">
<title>18&#45;&gt;15</title>
<path fill="none" stroke="black" d="M1525.61,-1283.39C1515.8,-1277.49 1504.85,-1269.25 1498,-1258.99 1406.01,-1121.3 1506.39,-1033.42 1414,-895.99 1406.65,-885.06 1395.58,-875.99 1384.82,-869"/>
<polygon fill="black" stroke="black" points="1386.31,-865.81 1375.94,-863.62 1382.68,-871.8 1386.31,-865.81"/>
<text text-anchor="middle" x="1461" y="-1073.79" font-family="Times,serif" font-size="14.00">4</text>
</g>
<!-- 18&#45;&gt;17 -->
<g id="edge94" class="edge">
<title>18&#45;&gt;17</title>
<path fill="none" stroke="black" d="M1525.01,-1284.46C1518.9,-1281.92 1512.23,-1279.26 1506,-1276.99 1481.04,-1267.9 1471.71,-1272.78 1449,-1258.99 1386.48,-1221.03 1341.18,-1087.1 1325,-1069.99 1318.21,-1062.81 1309.68,-1056.37 1301.46,-1051.03"/>
<polygon fill="black" stroke="black" points="1303.12,-1047.94 1292.76,-1045.69 1299.45,-1053.91 1303.12,-1047.94"/>
<text text-anchor="middle" x="1382" y="-1160.79" font-family="Times,serif" font-size="14.00">0</text>
</g>
<!-- 18&#45;&gt;19 -->
<g id="edge27" class="edge">
<title>18&#45;&gt;19</title>
<path fill="none" stroke="black" d="M1520.94,-1290.16C1470.36,-1282.69 1360.58,-1266.27 1323,-1258.99 1288.55,-1252.32 1193.59,-1229.79 1141.8,-1217.37"/>
<polygon fill="black" stroke="black" points="1142.59,-1213.96 1132.05,-1215.03 1140.95,-1220.77 1142.59,-1213.96"/>
<text text-anchor="middle" x="1328" y="-1247.79" font-family="Times,serif" font-size="14.00">1</text>
</g>
<!-- 19&#45;&gt;10 -->
<g id="edge41" class="edge">
<title>19&#45;&gt;10</title>
<path fill="none" stroke="black" d="M1094.35,-1191.95C1090.21,-1186.1 1086.13,-1179.1 1084,-1171.99 1081.78,-1164.58 1082.04,-1156.36 1083.32,-1148.75"/>
<polygon fill="black" stroke="black" points="1086.76,-1149.44 1085.58,-1138.91 1079.93,-1147.87 1086.76,-1149.44"/>
<text text-anchor="middle" x="1089" y="-1160.79" font-family="Times,serif" font-size="14.00">2</text>
</g>
<!-- 19&#45;&gt;15 -->
<g id="edge63" class="edge">
<title>19&#45;&gt;15</title>
<path fill="none" stroke="black" d="M1128.34,-1196.65C1169.66,-1175.5 1260.71,-1123.21 1308,-1051.99 1341.23,-1001.95 1349.76,-930.82 1351.72,-888.33"/>
<polygon fill="black" stroke="black" points="1355.22,-888.29 1352.08,-878.17 1348.22,-888.04 1355.22,-888.29"/>
<text text-anchor="middle" x="1331" y="-1030.29" font-family="Times,serif" font-size="14.00">0</text>
</g>
<!-- 19&#45;&gt;25 -->
<g id="edge90" class="edge">
<title>19&#45;&gt;25</title>
<path fill="none" stroke="black" d="M1080.81,-1203.52C1000.79,-1191.47 757.65,-1143.89 637,-997.99 587.08,-937.63 591.45,-901.46 606,-824.5 610.52,-800.57 618.79,-796.75 626,-773.5 634.17,-747.13 640,-740.6 640,-713 640,-713 640,-713 640,-104 640,-81.91 650.83,-59.17 660.93,-42.78"/>
<polygon fill="black" stroke="black" points="663.88,-44.67 666.39,-34.37 658.01,-40.85 663.88,-44.67"/>
<text text-anchor="middle" x="645" y="-621.3" font-family="Times,serif" font-size="14.00">1</text>
</g>
<!-- 19&#45;&gt;28 -->
<g id="edge70" class="edge">
<title>19&#45;&gt;28</title>
<path fill="none" stroke="black" d="M1084.43,-1218.05C1072.62,-1223.85 1058.82,-1232.47 1050,-1243.99 1006.06,-1301.39 1033.85,-1334.16 1004,-1399.99 977.93,-1457.49 971.15,-1473.92 928,-1519.99 922.15,-1526.24 915.05,-1532.11 908.13,-1537.2"/>
<polygon fill="black" stroke="black" points="905.75,-1534.59 899.55,-1543.19 909.76,-1540.33 905.75,-1534.59"/>
<text text-anchor="middle" x="1021" y="-1378.29" font-family="Times,serif" font-size="14.00">3</text>
</g>
<!-- 19&#45;&gt;29 -->
<g id="edge93" class="edge">
<title>19&#45;&gt;29</title>
<path fill="none" stroke="black" d="M1107.77,-1226.11C1109.94,-1274.86 1116,-1418.57 1118,-1537.99 1119.29,-1615.33 1115.12,-1634.65 1114,-1711.99 1111.05,-1915.64 1144.69,-2158.59 1158.37,-2248.25"/>
<polygon fill="black" stroke="black" points="1154.91,-2248.81 1159.89,-2258.16 1161.83,-2247.75 1154.91,-2248.81"/>
<text text-anchor="middle" x="1119" y="-1730.29" font-family="Times,serif" font-size="14.00">4</text>
</g>
<!-- 20&#45;&gt;3 -->
<g id="edge15" class="edge">
<title>20&#45;&gt;3</title>
<path fill="none" stroke="black" d="M1360.48,-357.26C1358.33,-350.99 1356.06,-344.25 1354,-338 1351.43,-330.19 1348.73,-321.71 1346.25,-313.84"/>
<polygon fill="black" stroke="black" points="1349.59,-312.79 1343.26,-304.3 1342.91,-314.89 1349.59,-312.79"/>
<text text-anchor="middle" x="1359" y="-326.8" font-family="Times,serif" font-size="14.00">0</text>
</g>
<!-- 20&#45;&gt;3 -->
<g id="edge42" class="edge">
<title>20&#45;&gt;3</title>
<path fill="none" stroke="black" d="M1369.67,-355.98C1369.22,-345.48 1367.74,-333.4 1364,-323 1362.23,-318.09 1359.69,-313.22 1356.86,-308.67"/>
<polygon fill="black" stroke="black" points="1359.73,-306.67 1351.19,-300.4 1353.95,-310.62 1359.73,-306.67"/>
<text text-anchor="middle" x="1372" y="-326.8" font-family="Times,serif" font-size="14.00">1</text>
</g>
<!-- 20&#45;&gt;7 -->
<g id="edge18" class="edge">
<title>20&#45;&gt;7</title>
<path fill="none" stroke="black" d="M1392.88,-395.21C1479.88,-437.17 1778.99,-583.48 1861,-650.5 1892.02,-675.85 1888.71,-693.27 1919,-719.5 1930.47,-729.43 1938.37,-725.77 1948,-737.5 2009.84,-812.81 2052,-1066.05 2052,-1163.49 2052,-1734.99 2052,-1734.99 2052,-1734.99 2052,-1802.21 1815.98,-1818.86 1723,-1822.82"/>
<polygon fill="black" stroke="black" points="1722.77,-1819.32 1712.91,-1823.22 1723.04,-1826.32 1722.77,-1819.32"/>
<text text-anchor="middle" x="2056" y="-1117.29" font-family="Times,serif" font-size="14.00">3</text>
</g>
<!-- 20&#45;&gt;21 -->
<g id="edge31" class="edge">
<title>20&#45;&gt;21</title>
<path fill="none" stroke="black" d="M1390.26,-399.46C1429.87,-428.94 1517.27,-495.08 1587,-555.5 1702,-655.13 1760.77,-658.68 1835,-791.5 1878.13,-868.67 1854,-901.09 1854,-989.49 1854,-1165.49 1854,-1165.49 1854,-1165.49 1854,-1285.03 1860.14,-1318.43 1826,-1432.99 1824.99,-1436.37 1823.66,-1439.8 1822.18,-1443.14"/>
<polygon fill="black" stroke="black" points="1819.02,-1441.62 1817.73,-1452.14 1825.3,-1444.72 1819.02,-1441.62"/>
<text text-anchor="middle" x="1862" y="-943.29" font-family="Times,serif" font-size="14.00">4</text>
</g>
<!-- 20&#45;&gt;29 -->
<g id="edge66" class="edge">
<title>20&#45;&gt;29</title>
<path fill="none" stroke="black" d="M1396.13,-383.61C1461.02,-384.43 1628.55,-393.4 1746,-460.5 1839.64,-513.99 1854.1,-541.89 1931,-617.5 1996.8,-682.19 2004.93,-706.14 2068,-773.5 2172.07,-884.64 2228.13,-887.61 2310,-1015.99 2347.53,-1074.85 2364,-1093.68 2364,-1163.49 2364,-2185.99 2364,-2185.99 2364,-2185.99 2364,-2212.26 2361.75,-2225.27 2340,-2239.99 2291.74,-2272.65 1395.24,-2281.85 1200.94,-2283.46"/>
<polygon fill="black" stroke="black" points="1200.91,-2279.96 1190.94,-2283.54 1200.97,-2286.96 1200.91,-2279.96"/>
<text text-anchor="middle" x="2369" y="-1334.79" font-family="Times,serif" font-size="14.00">2</text>
</g>
<!-- 21&#45;&gt;7 -->
<g id="edge137" class="edge">
<title>21&#45;&gt;7</title>
<path fill="none" stroke="black" d="M1805.81,-1486.94C1803.12,-1507.53 1798.39,-1543.33 1794,-1573.99 1788.42,-1612.99 1791.02,-1624.17 1777,-1660.99 1757.16,-1713.09 1722.89,-1768.77 1702.55,-1799.7"/>
<polygon fill="black" stroke="black" points="1699.58,-1797.84 1696.96,-1808.1 1705.41,-1801.72 1699.58,-1797.84"/>
<text text-anchor="middle" x="1792" y="-1639.29" font-family="Times,serif" font-size="14.00">3</text>
</g>
<!-- 21&#45;&gt;16 -->
<g id="edge151" class="edge">
<title>21&#45;&gt;16</title>
<path fill="none" stroke="black" d="M1822.96,-1453.91C1855.54,-1421.64 1930,-1338.48 1930,-1252.49 1930,-1252.49 1930,-1252.49 1930,-989.49 1930,-947.91 1921.6,-937.22 1927,-895.99 1943.14,-772.85 1999,-750.19 1999,-626 1999,-626 1999,-626 1999,-104 1999,-72.36 1969.18,-48.38 1944.87,-34.09"/>
<polygon fill="black" stroke="black" points="1946.33,-30.89 1935.89,-29.09 1942.92,-37.01 1946.33,-30.89"/>
<text text-anchor="middle" x="1983" y="-751.8" font-family="Times,serif" font-size="14.00">0</text>
</g>
<!-- 21&#45;&gt;18 -->
<g id="edge89" class="edge">
<title>21&#45;&gt;18</title>
<path fill="none" stroke="black" d="M1796.57,-1452.62C1774.56,-1424.14 1723.36,-1363.17 1666,-1330.99 1640.03,-1316.43 1607.41,-1307.39 1582.89,-1302.15"/>
<polygon fill="black" stroke="black" points="1583.41,-1298.69 1572.92,-1300.13 1582.03,-1305.55 1583.41,-1298.69"/>
<text text-anchor="middle" x="1755" y="-1378.29" font-family="Times,serif" font-size="14.00">1</text>
</g>
<!-- 21&#45;&gt;19 -->
<g id="edge134" class="edge">
<title>21&#45;&gt;19</title>
<path fill="none" stroke="black" d="M1781.67,-1464.99C1728.72,-1458.31 1606.25,-1439.58 1511,-1399.99 1416.38,-1360.67 1409.54,-1318.82 1316,-1276.99 1289.42,-1265.1 1279.99,-1269.93 1253,-1258.99 1239.92,-1253.69 1238.06,-1249.36 1225,-1243.99 1197.97,-1232.88 1166.14,-1223.65 1142.36,-1217.47"/>
<polygon fill="black" stroke="black" points="1142.93,-1214 1132.37,-1214.92 1141.2,-1220.78 1142.93,-1214"/>
<text text-anchor="middle" x="1425" y="-1334.79" font-family="Times,serif" font-size="14.00">4</text>
</g>
<!-- 21&#45;&gt;24 -->
<g id="edge7" class="edge">
<title>21&#45;&gt;24</title>
<path fill="none" stroke="black" d="M1789.56,-1455.84C1771.01,-1444.21 1741.19,-1427.14 1713,-1417.99 1659.61,-1400.67 1642.12,-1414.86 1588,-1399.99 1584.63,-1399.07 1581.16,-1397.93 1577.75,-1396.7"/>
<polygon fill="black" stroke="black" points="1578.94,-1393.41 1568.35,-1393.03 1576.39,-1399.93 1578.94,-1393.41"/>
<text text-anchor="middle" x="1753" y="-1421.79" font-family="Times,serif" font-size="14.00">2</text>
</g>
<!-- 22&#45;&gt;1 -->
<g id="edge109" class="edge">
<title>22&#45;&gt;1</title>
<path fill="none" stroke="black" d="M1635.29,-773.41C1651.45,-838.15 1708.67,-1076.59 1727,-1276.99 1732.97,-1342.29 1724,-1358.92 1724,-1424.49 1724,-1643.99 1724,-1643.99 1724,-1643.99 1724,-1666.39 1713.7,-1689.6 1703.82,-1706.69"/>
<polygon fill="black" stroke="black" points="1700.65,-1705.16 1698.44,-1715.52 1706.63,-1708.8 1700.65,-1705.16"/>
<text text-anchor="middle" x="1730" y="-1247.79" font-family="Times,serif" font-size="14.00">2</text>
</g>
<!-- 22&#45;&gt;12 -->
<g id="edge54" class="edge">
<title>22&#45;&gt;12</title>
<path fill="none" stroke="black" d="M1615.84,-740.28C1602.64,-728.75 1582.47,-713.06 1562,-704.5 1504.67,-680.52 1432.06,-672.94 1388.97,-670.56"/>
<polygon fill="black" stroke="black" points="1389.1,-667.06 1378.94,-670.07 1388.76,-674.05 1389.1,-667.06"/>
<text text-anchor="middle" x="1593" y="-708.3" font-family="Times,serif" font-size="14.00">0</text>
</g>
<!-- 22&#45;&gt;17 -->
<g id="edge47" class="edge">
<title>22&#45;&gt;17</title>
<path fill="none" stroke="black" d="M1613.86,-769.7C1555.83,-814.39 1366.53,-960.18 1297.49,-1013.36"/>
<polygon fill="black" stroke="black" points="1295.1,-1010.78 1289.32,-1019.66 1299.37,-1016.33 1295.1,-1010.78"/>
<text text-anchor="middle" x="1452" y="-899.79" font-family="Times,serif" font-size="14.00">4</text>
</g>
<!-- 22&#45;&gt;18 -->
<g id="edge115" class="edge">
<title>22&#45;&gt;18</title>
<path fill="none" stroke="black" d="M1622.69,-772.86C1597.05,-825.04 1521.29,-992.66 1528,-1138.99 1529.78,-1177.78 1531.12,-1187.47 1536,-1225.99 1537.71,-1239.48 1540.07,-1254.4 1542.17,-1266.82"/>
<polygon fill="black" stroke="black" points="1538.77,-1267.73 1543.92,-1276.99 1545.67,-1266.54 1538.77,-1267.73"/>
<text text-anchor="middle" x="1543" y="-1030.29" font-family="Times,serif" font-size="14.00">3</text>
</g>
<!-- 22&#45;&gt;21 -->
<g id="edge136" class="edge">
<title>22&#45;&gt;21</title>
<path fill="none" stroke="black" d="M1645.6,-770.65C1678.65,-803.89 1758.34,-891.13 1784,-982.99 1831.12,-1151.7 1817.56,-1366.05 1810.78,-1440.81"/>
<polygon fill="black" stroke="black" points="1807.29,-1440.52 1809.84,-1450.81 1814.26,-1441.18 1807.29,-1440.52"/>
<text text-anchor="middle" x="1816" y="-1117.29" font-family="Times,serif" font-size="14.00">1</text>
</g>
<!-- 23&#45;&gt;2 -->
<g id="edge26" class="edge">
<title>23&#45;&gt;2</title>
<path fill="none" stroke="black" d="M236.4,-594.6C226.97,-611.97 214,-640.73 214,-667.5 214,-991.49 214,-991.49 214,-991.49 214,-1184.68 252,-1231.31 252,-1424.49 252,-2090.99 252,-2090.99 252,-2090.99 252,-2130.14 293.57,-2157.33 323.37,-2171.8"/>
<polygon fill="black" stroke="black" points="322.02,-2175.03 332.56,-2176.05 324.95,-2168.67 322.02,-2175.03"/>
<text text-anchor="middle" x="257" y="-1378.29" font-family="Times,serif" font-size="14.00">2</text>
</g>
<!-- 23&#45;&gt;2 -->
<g id="edge121" class="edge">
<title>23&#45;&gt;2</title>
<path fill="none" stroke="black" d="M219.06,-580.45C171.13,-585.55 76,-603.7 76,-667.5 76,-2090.99 76,-2090.99 76,-2090.99 76,-2142.24 248.57,-2170.53 321.29,-2180.17"/>
<polygon fill="black" stroke="black" points="320.9,-2183.65 331.26,-2181.46 321.8,-2176.71 320.9,-2183.65"/>
<text text-anchor="middle" x="81" y="-1378.29" font-family="Times,serif" font-size="14.00">4</text>
</g>
<!-- 23&#45;&gt;5 -->
<g id="edge124" class="edge">
<title>23&#45;&gt;5</title>
<path fill="none" stroke="black" d="M255.6,-594.6C265.03,-611.97 278,-640.73 278,-667.5 278,-852.24 278,-852.24 278,-852.24 278,-1071.43 366,-1118.31 366,-1337.49 366,-1556.99 366,-1556.99 366,-1556.99 366,-1581.64 371.26,-1590.98 390,-1606.99 402.33,-1617.52 441.7,-1627.97 471.39,-1634.67"/>
<polygon fill="black" stroke="black" points="470.91,-1638.14 481.43,-1636.87 472.41,-1631.31 470.91,-1638.14"/>
<text text-anchor="middle" x="342" y="-1117.29" font-family="Times,serif" font-size="14.00">3</text>
</g>
<!-- 23&#45;&gt;11 -->
<g id="edge28" class="edge">
<title>23&#45;&gt;11</title>
<path fill="none" stroke="black" d="M271.39,-584.01C352.36,-602.49 609.46,-668.11 785,-791.5 836.84,-827.93 882.12,-888.02 905.05,-921.51"/>
<polygon fill="black" stroke="black" points="902.42,-923.87 910.91,-930.21 908.23,-919.96 902.42,-923.87"/>
<text text-anchor="middle" x="760" y="-751.8" font-family="Times,serif" font-size="14.00">1</text>
</g>
<!-- 23&#45;&gt;28 -->
<g id="edge3" class="edge">
<title>23&#45;&gt;28</title>
<path fill="none" stroke="black" d="M266.69,-589.28C290.98,-603.61 328,-631.36 328,-667.5 328,-904.49 328,-904.49 328,-904.49 328,-952.48 357.72,-956.6 382,-997.99 418.91,-1060.91 423.16,-1079.95 466,-1138.99 496.15,-1180.55 502.62,-1193.05 542,-1225.99 575.79,-1254.26 594.18,-1247.6 627,-1276.99 728.12,-1367.54 707.98,-1432.79 812,-1519.99 822.6,-1528.88 835.83,-1536.33 847.79,-1542.04"/>
<polygon fill="black" stroke="black" points="846.49,-1545.29 857.05,-1546.24 849.39,-1538.92 846.49,-1545.29"/>
<text text-anchor="middle" x="436" y="-1073.79" font-family="Times,serif" font-size="14.00">0</text>
</g>
<!-- 24&#45;&gt;7 -->
<g id="edge112" class="edge">
<title>24&#45;&gt;7</title>
<path fill="none" stroke="black" d="M1546.03,-1400.24C1545.16,-1417.41 1544,-1444.51 1544,-1467.99 1544,-1600.49 1544,-1600.49 1544,-1600.49 1544,-1687.33 1621.32,-1767.71 1661.85,-1803.88"/>
<polygon fill="black" stroke="black" points="1659.6,-1806.56 1669.43,-1810.51 1664.21,-1801.29 1659.6,-1806.56"/>
<text text-anchor="middle" x="1549" y="-1595.79" font-family="Times,serif" font-size="14.00">0</text>
</g>
<!-- 24&#45;&gt;11 -->
<g id="edge146" class="edge">
<title>24&#45;&gt;11</title>
<path fill="none" stroke="black" d="M1525.69,-1370.53C1503.23,-1359.74 1466.66,-1342.88 1434,-1330.99 1355.09,-1302.27 1136.45,-1278.61 1071,-1225.99 986.88,-1158.36 943.44,-1030.4 927.86,-974.85"/>
<polygon fill="black" stroke="black" points="931.19,-973.78 925.19,-965.05 924.44,-975.62 931.19,-973.78"/>
<text text-anchor="middle" x="1024" y="-1160.79" font-family="Times,serif" font-size="14.00">4</text>
</g>
<!-- 24&#45;&gt;12 -->
<g id="edge150" class="edge">
<title>24&#45;&gt;12</title>
<path fill="none" stroke="black" d="M1555.97,-1364.65C1559.16,-1358.78 1562.77,-1352.1 1566,-1345.99 1573.71,-1331.41 1579.11,-1329.03 1583,-1312.99 1586.77,-1297.44 1584.06,-1292.96 1583,-1276.99 1579.88,-1230.02 1574.66,-1218.73 1569,-1171.99 1548.5,-1002.72 1607.98,-937.55 1520,-791.5 1487.94,-738.27 1422.87,-701.4 1383.79,-683"/>
<polygon fill="black" stroke="black" points="1385,-679.71 1374.46,-678.72 1382.09,-686.07 1385,-679.71"/>
<text text-anchor="middle" x="1572" y="-1030.29" font-family="Times,serif" font-size="14.00">2</text>
</g>
<!-- 24&#45;&gt;16 -->
<g id="edge145" class="edge">
<title>24&#45;&gt;16</title>
<path fill="none" stroke="black" d="M1564.06,-1367.69C1570.96,-1361.65 1578.55,-1354.05 1584,-1345.99 1592.83,-1332.93 1592.27,-1328.03 1597,-1312.99 1644.7,-1161.31 1659.24,-1122.64 1680,-964.99 1694.63,-853.91 1687,-825.04 1687,-713 1687,-713 1687,-713 1687,-481.5 1687,-322.19 1483.39,-271.33 1575,-141 1644.94,-41.5 1804.2,-22.77 1876.75,-19.51"/>
<polygon fill="black" stroke="black" points="1876.94,-23.01 1886.8,-19.13 1876.68,-16.01 1876.94,-23.01"/>
<text text-anchor="middle" x="1692" y="-708.3" font-family="Times,serif" font-size="14.00">1</text>
</g>
<!-- 24&#45;&gt;18 -->
<g id="edge105" class="edge">
<title>24&#45;&gt;18</title>
<path fill="none" stroke="black" d="M1549.93,-1363.95C1550.77,-1358.26 1551.58,-1351.87 1552,-1345.99 1552.53,-1338.54 1552.15,-1330.48 1551.4,-1323.05"/>
<polygon fill="black" stroke="black" points="1554.87,-1322.59 1550.16,-1313.1 1547.92,-1323.45 1554.87,-1322.59"/>
<text text-anchor="middle" x="1557" y="-1334.79" font-family="Times,serif" font-size="14.00">3</text>
</g>
<!-- 25&#45;&gt;0 -->
<g id="edge149" class="edge">
<title>25&#45;&gt;0</title>
<path fill="none" stroke="black" d="M651,-19.49C524.9,-22.15 0,-37.2 0,-104 0,-1078.49 0,-1078.49 0,-1078.49 0,-1216.83 121.05,-1206.81 182,-1330.99 220.6,-1409.64 202.22,-1440.02 238,-1519.99 291.02,-1638.49 463.69,-1915.79 545,-2016.99 558.19,-2033.41 561.16,-2038.81 579,-2049.99 602.57,-2064.77 632.56,-2075.09 654.79,-2081.38"/>
<polygon fill="black" stroke="black" points="654.14,-2084.83 664.71,-2084.07 655.97,-2078.07 654.14,-2084.83"/>
<text text-anchor="middle" x="6" y="-1073.79" font-family="Times,serif" font-size="14.00">2</text>
</g>
<!-- 25&#45;&gt;6 -->
<g id="edge39" class="edge">
<title>25&#45;&gt;6</title>
<path fill="none" stroke="black" d="M651.23,-21.54C582.28,-28.81 404,-52.58 404,-104 404,-991.49 404,-991.49 404,-991.49 404,-1148.94 328,-1180.05 328,-1337.49 328,-1513.49 328,-1513.49 328,-1513.49 328,-1604.8 383.39,-1635.28 471,-1660.99 623.21,-1705.66 1030.49,-1668.37 1183,-1711.99 1220.3,-1722.66 1449.39,-1849.34 1531.09,-1894.85"/>
<polygon fill="black" stroke="black" points="1529.42,-1897.92 1539.86,-1899.73 1532.83,-1891.81 1529.42,-1897.92"/>
<text text-anchor="middle" x="409" y="-986.79" font-family="Times,serif" font-size="14.00">1</text>
</g>
<!-- 25&#45;&gt;8 -->
<g id="edge138" class="edge">
<title>25&#45;&gt;8</title>
<path fill="none" stroke="black" d="M690.31,-34.04C727.59,-80.06 841.23,-223.93 915,-356 957.82,-432.65 939.71,-467.72 993,-537.5 999.11,-545.49 1007.2,-552.8 1015.05,-558.88"/>
<polygon fill="black" stroke="black" points="1013.22,-561.88 1023.36,-564.96 1017.36,-556.23 1013.22,-561.88"/>
<text text-anchor="middle" x="889" y="-279.3" font-family="Times,serif" font-size="14.00">0</text>
</g>
<!-- 25&#45;&gt;25 -->
<g id="edge10" class="edge">
<title>25&#45;&gt;25</title>
<path fill="none" stroke="black" d="M702.53,-25.75C713.51,-26.49 723,-23.91 723,-18 723,-14.03 718.72,-11.56 712.57,-10.59"/>
<polygon fill="black" stroke="black" points="712.65,-7.09 702.53,-10.25 712.41,-14.09 712.65,-7.09"/>
<text text-anchor="middle" x="728" y="-14.3" font-family="Times,serif" font-size="14.00">3</text>
</g>
<!-- 25&#45;&gt;28 -->
<g id="edge45" class="edge">
<title>25&#45;&gt;28</title>
<path fill="none" stroke="black" d="M652.1,-23.26C593.54,-33.64 456,-62.42 456,-104 456,-669.5 456,-669.5 456,-669.5 456,-773.6 480,-798.39 480,-902.49 480,-1078.49 480,-1078.49 480,-1078.49 480,-1114.39 491.6,-1121.87 499,-1156.99 513.51,-1225.92 490.94,-1252.48 527,-1312.99 602.74,-1440.1 774.24,-1515.89 846.7,-1543.29"/>
<polygon fill="black" stroke="black" points="845.65,-1546.63 856.24,-1546.83 848.09,-1540.07 845.65,-1546.63"/>
<text text-anchor="middle" x="477" y="-795.3" font-family="Times,serif" font-size="14.00">4</text>
</g>
<!-- 26&#45;&gt;7 -->
<g id="edge67" class="edge">
<title>26&#45;&gt;7</title>
<path fill="none" stroke="black" d="M2120,-210.06C2120,-227.98 2120,-256.97 2120,-282 2120,-531 2120,-531 2120,-531 2120,-638.91 2114.4,-665.78 2108,-773.5 2101.14,-888.9 2090,-917.38 2090,-1032.99 2090,-1734.99 2090,-1734.99 2090,-1734.99 2090,-1809.66 1823.49,-1821.75 1723.39,-1823.65"/>
<polygon fill="black" stroke="black" points="1723.08,-1820.16 1713.13,-1823.82 1723.19,-1827.16 1723.08,-1820.16"/>
<text text-anchor="middle" x="2095" y="-1030.29" font-family="Times,serif" font-size="14.00">2</text>
</g>
<!-- 26&#45;&gt;7 -->
<g id="edge110" class="edge">
<title>26&#45;&gt;7</title>
<path fill="none" stroke="black" d="M2131.2,-208.55C2142.4,-225.67 2158,-254.45 2158,-282 2158,-578.5 2158,-578.5 2158,-578.5 2158,-800.04 2136,-854.94 2136,-1076.49 2136,-1734.99 2136,-1734.99 2136,-1734.99 2136,-1818.9 1831.07,-1824.98 1723.23,-1824.5"/>
<polygon fill="black" stroke="black" points="1723.16,-1821 1713.14,-1824.43 1723.11,-1828 1723.16,-1821"/>
<text text-anchor="middle" x="2141" y="-1030.29" font-family="Times,serif" font-size="14.00">0</text>
</g>
<!-- 26&#45;&gt;11 -->
<g id="edge98" class="edge">
<title>26&#45;&gt;11</title>
<path fill="none" stroke="black" d="M2096.85,-201.46C1992.73,-240.18 1573,-404.03 1573,-529 1573,-669.5 1573,-669.5 1573,-669.5 1573,-731.44 1442.51,-848.58 1388,-877.99 1350.18,-898.4 1060.71,-931.03 957.45,-942.14"/>
<polygon fill="black" stroke="black" points="957.06,-938.66 947.49,-943.21 957.81,-945.62 957.06,-938.66"/>
<text text-anchor="middle" x="1578" y="-573.8" font-family="Times,serif" font-size="14.00">1</text>
</g>
<!-- 26&#45;&gt;13 -->
<g id="edge52" class="edge">
<title>26&#45;&gt;13</title>
<path fill="none" stroke="black" d="M2093.68,-187.21C2059.92,-181.99 1999.8,-171.43 1950,-156 1918.96,-146.38 1884.9,-131.62 1861.2,-120.62"/>
<polygon fill="black" stroke="black" points="1862.57,-117.4 1852.03,-116.31 1859.59,-123.73 1862.57,-117.4"/>
<text text-anchor="middle" x="1955" y="-144.8" font-family="Times,serif" font-size="14.00">4</text>
</g>
<!-- 26&#45;&gt;14 -->
<g id="edge120" class="edge">
<title>26&#45;&gt;14</title>
<path fill="none" stroke="black" d="M2093.34,-189C1942.49,-177.71 1196.51,-121.84 1021.7,-108.75"/>
<polygon fill="black" stroke="black" points="1021.95,-105.26 1011.71,-108 1021.42,-112.24 1021.95,-105.26"/>
<text text-anchor="middle" x="1625" y="-144.8" font-family="Times,serif" font-size="14.00">3</text>
</g>
<!-- 27&#45;&gt;0 -->
<g id="edge33" class="edge">
<title>27&#45;&gt;0</title>
<path fill="none" stroke="black" d="M822.8,-951.4C788.19,-956.46 729.94,-967.12 716,-982.99 637.86,-1071.96 648,-1393.08 648,-1511.49 648,-1999.99 648,-1999.99 648,-1999.99 648,-2022.39 658.3,-2045.6 668.18,-2062.69"/>
<polygon fill="black" stroke="black" points="665.37,-2064.8 673.56,-2071.52 671.35,-2061.16 665.37,-2064.8"/>
<text text-anchor="middle" x="653" y="-1508.79" font-family="Times,serif" font-size="14.00">0</text>
</g>
<!-- 27&#45;&gt;5 -->
<g id="edge126" class="edge">
<title>27&#45;&gt;5</title>
<path fill="none" stroke="black" d="M823.08,-952.34C771.17,-961.09 659.14,-980.23 656,-982.99 570.71,-1057.77 620.56,-1120.85 578,-1225.99 541.09,-1317.19 480,-1326.1 480,-1424.49 480,-1556.99 480,-1556.99 480,-1556.99 480,-1577.64 487.32,-1599.83 494.34,-1616.36"/>
<polygon fill="black" stroke="black" points="491.32,-1618.17 498.61,-1625.86 497.7,-1615.31 491.32,-1618.17"/>
<text text-anchor="middle" x="556" y="-1291.29" font-family="Times,serif" font-size="14.00">2</text>
</g>
<!-- 27&#45;&gt;14 -->
<g id="edge40" class="edge">
<title>27&#45;&gt;14</title>
<path fill="none" stroke="black" d="M849.55,-928.65C851.04,-880.58 855,-741.57 855,-626 855,-626 855,-626 855,-282 855,-212.96 920.53,-153.24 958.54,-124.4"/>
<polygon fill="black" stroke="black" points="960.69,-127.16 966.65,-118.4 956.53,-121.54 960.69,-127.16"/>
<text text-anchor="middle" x="860" y="-526.3" font-family="Times,serif" font-size="14.00">1</text>
</g>
<!-- 27&#45;&gt;17 -->
<g id="edge64" class="edge">
<title>27&#45;&gt;17</title>
<path fill="none" stroke="black" d="M869.5,-959.06C874.45,-961.34 879.82,-963.5 885,-964.99 949.52,-983.57 972.13,-959.41 1035,-982.99 1046.08,-987.15 1046.01,-993.6 1057,-997.99 1116.21,-1021.64 1190.69,-1029.32 1234.64,-1031.81"/>
<polygon fill="black" stroke="black" points="1234.7,-1035.31 1244.86,-1032.32 1235.05,-1028.32 1234.7,-1035.31"/>
<text text-anchor="middle" x="1062" y="-986.79" font-family="Times,serif" font-size="14.00">3</text>
</g>
<!-- 27&#45;&gt;20 -->
<g id="edge68" class="edge">
<title>27&#45;&gt;20</title>
<path fill="none" stroke="black" d="M863.83,-931.69C891.99,-903.76 953.58,-838.97 989,-773.5 1023.65,-709.46 992.26,-673.32 1039,-617.5 1049.98,-604.39 1059.33,-609.77 1073,-599.5 1103.66,-576.46 1108.93,-567.35 1133,-537.5 1144.06,-523.77 1145.38,-519.27 1155,-504.5 1177.14,-470.51 1171.26,-451.45 1204,-427.5 1241.99,-399.7 1296.35,-389.56 1332.14,-385.86"/>
<polygon fill="black" stroke="black" points="1332.53,-389.34 1342.17,-384.94 1331.89,-382.37 1332.53,-389.34"/>
<text text-anchor="middle" x="1023" y="-664.8" font-family="Times,serif" font-size="14.00">4</text>
</g>
<!-- 28&#45;&gt;1 -->
<g id="edge111" class="edge">
<title>28&#45;&gt;1</title>
<path fill="none" stroke="black" d="M905.38,-1563.09C973.9,-1579.51 1168.44,-1625.77 1331,-1660.99 1450.1,-1686.8 1592.31,-1714.79 1654.4,-1726.87"/>
<polygon fill="black" stroke="black" points="1653.86,-1730.34 1664.35,-1728.81 1655.2,-1723.46 1653.86,-1730.34"/>
<text text-anchor="middle" x="1336" y="-1639.29" font-family="Times,serif" font-size="14.00">4</text>
</g>
<!-- 28&#45;&gt;11 -->
<g id="edge77" class="edge">
<title>28&#45;&gt;11</title>
<path fill="none" stroke="black" d="M858.01,-1545.44C846.92,-1539.58 834.13,-1531.07 826,-1519.99 800.47,-1485.23 800,-1469.62 800,-1426.49 800,-1426.49 800,-1426.49 800,-1163.49 800,-1075.01 832.27,-1054.78 884,-982.99 887.64,-977.94 892.08,-973.01 896.61,-968.53"/>
<polygon fill="black" stroke="black" points="899.26,-970.84 904.17,-961.46 894.48,-965.73 899.26,-970.84"/>
<text text-anchor="middle" x="805" y="-1247.79" font-family="Times,serif" font-size="14.00">2</text>
</g>
<!-- 28&#45;&gt;15 -->
<g id="edge78" class="edge">
<title>28&#45;&gt;15</title>
<path fill="none" stroke="black" d="M903.93,-1547.31C922.44,-1540.98 948.45,-1531.25 970,-1519.99 1116.19,-1443.64 1166.41,-1434.45 1278,-1312.99 1366.75,-1216.4 1356.06,-987.11 1359,-964.99 1363.05,-934.51 1368.1,-926.46 1364,-895.99 1363.59,-892.97 1363.03,-889.86 1362.38,-886.75"/>
<polygon fill="black" stroke="black" points="1365.77,-885.89 1360.02,-876.99 1358.97,-887.53 1365.77,-885.89"/>
<text text-anchor="middle" x="1341" y="-1204.29" font-family="Times,serif" font-size="14.00">0</text>
</g>
<!-- 28&#45;&gt;20 -->
<g id="edge86" class="edge">
<title>28&#45;&gt;20</title>
<path fill="none" stroke="black" d="M878.71,-1537.75C877.54,-1520.58 876,-1493.48 876,-1469.99 876,-1469.99 876,-1469.99 876,-1337.49 876,-1174.94 898.68,-1130.95 966,-982.99 1012.9,-879.92 1047.52,-867.27 1111,-773.5 1200.93,-640.65 1305.83,-480.54 1348.95,-414.51"/>
<polygon fill="black" stroke="black" points="1352.08,-416.12 1354.61,-405.83 1346.21,-412.29 1352.08,-416.12"/>
<text text-anchor="middle" x="971" y="-986.79" font-family="Times,serif" font-size="14.00">1</text>
</g>
<!-- 28&#45;&gt;21 -->
<g id="edge96" class="edge">
<title>28&#45;&gt;21</title>
<path fill="none" stroke="black" d="M906.78,-1552.58C945.45,-1549.14 1019.18,-1542.71 1082,-1537.99 1202.81,-1528.91 1233.31,-1530.63 1354,-1519.99 1509.6,-1506.28 1694.55,-1484.07 1771.55,-1474.55"/>
<polygon fill="black" stroke="black" points="1772.19,-1478 1781.68,-1473.3 1771.33,-1471.05 1772.19,-1478"/>
<text text-anchor="middle" x="1508" y="-1508.79" font-family="Times,serif" font-size="14.00">3</text>
</g>
<!-- 29&#45;&gt;2 -->
<g id="edge127" class="edge">
<title>29&#45;&gt;2</title>
<path fill="none" stroke="black" d="M1137.16,-2283.75C1023.19,-2283.56 578.99,-2280.18 446,-2239.99 421.27,-2232.52 396.11,-2217.35 378.2,-2204.99"/>
<polygon fill="black" stroke="black" points="380.21,-2202.12 370.03,-2199.19 376.16,-2207.83 380.21,-2202.12"/>
<text text-anchor="middle" x="451" y="-2228.79" font-family="Times,serif" font-size="14.00">3</text>
</g>
<!-- 29&#45;&gt;13 -->
<g id="edge2" class="edge">
<title>29&#45;&gt;13</title>
<path fill="none" stroke="black" d="M1190.75,-2283.35C1362.6,-2280.77 2306.17,-2265.49 2361,-2239.99 2390.39,-2226.33 2410,-2218.4 2410,-2185.99 2410,-2185.99 2410,-2185.99 2410,-989.49 2410,-825.28 2351.23,-411.71 2286,-261 2278.69,-244.11 2275.09,-239.84 2261,-228 2143.01,-128.88 1949.33,-110.12 1868.38,-106.7"/>
<polygon fill="black" stroke="black" points="1868.3,-103.19 1858.18,-106.32 1868.04,-110.19 1868.3,-103.19"/>
<text text-anchor="middle" x="2415" y="-1204.29" font-family="Times,serif" font-size="14.00">2</text>
</g>
<!-- 29&#45;&gt;16 -->
<g id="edge16" class="edge">
<title>29&#45;&gt;16</title>
<path fill="none" stroke="black" d="M1190.99,-2283.89C1360.52,-2284.68 2274.7,-2286.77 2389,-2239.99 2421.9,-2226.53 2448,-2221.54 2448,-2185.99 2448,-2185.99 2448,-2185.99 2448,-104 2448,-57.46 2400.62,-67.24 2356,-54 2280.58,-31.62 2043.8,-22.67 1951.43,-19.97"/>
<polygon fill="black" stroke="black" points="1951.25,-16.46 1941.16,-19.67 1951.05,-23.46 1951.25,-16.46"/>
<text text-anchor="middle" x="2453" y="-1160.79" font-family="Times,serif" font-size="14.00">0</text>
</g>
<!-- 29&#45;&gt;20 -->
<g id="edge74" class="edge">
<title>29&#45;&gt;20</title>
<path fill="none" stroke="black" d="M1190.73,-2282.93C1364.45,-2277.52 2326,-2244.92 2326,-2185.99 2326,-2185.99 2326,-2185.99 2326,-1163.49 2326,-1088.69 1946.09,-699.99 1890,-650.5 1836.34,-603.15 1820.56,-593.62 1760,-555.5 1684.44,-507.93 1664.58,-496.78 1583,-460.5 1521.57,-433.17 1447.14,-408.23 1404.21,-394.6"/>
<polygon fill="black" stroke="black" points="1405.1,-391.21 1394.51,-391.54 1403,-397.89 1405.1,-391.21"/>
<text text-anchor="middle" x="2331" y="-1334.79" font-family="Times,serif" font-size="14.00">1</text>
</g>
<!-- 29&#45;&gt;23 -->
<g id="edge11" class="edge">
<title>29&#45;&gt;23</title>
<path fill="none" stroke="black" d="M1136.93,-2283.9C996.37,-2284.54 348.74,-2284.97 154,-2239.99 95.43,-2226.46 30,-2246.1 30,-2185.99 30,-2185.99 30,-2185.99 30,-1424.49 30,-1270.67 38,-1232.31 38,-1078.49 38,-1078.49 38,-1078.49 38,-667.5 38,-594.13 148.73,-580.44 208.61,-578.41"/>
<polygon fill="black" stroke="black" points="208.9,-581.9 218.81,-578.16 208.72,-574.9 208.9,-581.9"/>
<text text-anchor="middle" x="35" y="-1421.79" font-family="Times,serif" font-size="14.00">4</text>
</g>
</g>
</svg>
