<?xml version="1.0" encoding="UTF-8" standalone="no"?>
<!DOCTYPE svg PUBLIC "-//W3C//DTD SVG 1.1//EN"
 "http://www.w3.org/Graphics/SVG/1.1/DTD/svg11.dtd">
<!-- Generated by graphviz version 2.49.0 (20210829.0051)
 -->
<!-- Pages: 1 -->
<svg width="345pt" height="489pt"
 viewBox="0.00 0.00 344.81 489.00" xmlns="http://www.w3.org/2000/svg" xmlns:xlink="http://www.w3.org/1999/xlink">
<g id="graph0" class="graph" transform="scale(1 1) rotate(0) translate(4 485)">
<polygon fill="white" stroke="transparent" points="-4,4 -4,-485 340.81,-485 340.81,4 -4,4"/>
<!-- fake -->
<g id="node1" class="node">
<title>fake</title>
</g>
<!-- 4 -->
<g id="node6" class="node">
<title>4</title>
<ellipse fill="none" stroke="black" cx="183.81" cy="-386" rx="18" ry="18"/>
<ellipse fill="none" stroke="black" cx="183.81" cy="-386" rx="22" ry="22"/>
<text text-anchor="middle" x="183.81" y="-382.3" font-family="Times,serif" font-size="14.00">4</text>
</g>
<!-- fake&#45;&gt;4 -->
<g id="edge1" class="edge">
<title>fake&#45;&gt;4</title>
<path fill="none" stroke="black" stroke-width="2" d="M183.81,-444.98C183.81,-437.15 183.81,-427.61 183.81,-418.54"/>
<polygon fill="black" stroke="black" stroke-width="2" points="187.31,-418.24 183.81,-408.24 180.31,-418.24 187.31,-418.24"/>
</g>
<!-- 0 -->
<g id="node2" class="node">
<title>0</title>
<ellipse fill="none" stroke="black" cx="145.81" cy="-200" rx="27" ry="18"/>
<text text-anchor="middle" x="145.81" y="-196.3" font-family="Times,serif" font-size="14.00">0</text>
</g>
<!-- 1 -->
<g id="node3" class="node">
<title>1</title>
<ellipse fill="none" stroke="black" cx="151.81" cy="-109" rx="18" ry="18"/>
<ellipse fill="none" stroke="black" cx="151.81" cy="-109" rx="22" ry="22"/>
<text text-anchor="middle" x="151.81" y="-105.3" font-family="Times,serif" font-size="14.00">1</text>
</g>
<!-- 0&#45;&gt;1 -->
<g id="edge3" class="edge">
<title>0&#45;&gt;1</title>
<path fill="none" stroke="black" d="M131.07,-184.6C122.95,-174.86 115.33,-161.53 119.81,-149 121.93,-143.08 125.37,-137.42 129.23,-132.33"/>
<polygon fill="black" stroke="black" points="132.18,-134.27 135.96,-124.37 126.83,-129.75 132.18,-134.27"/>
<text text-anchor="middle" x="124.81" y="-152.8" font-family="Times,serif" font-size="14.00">4</text>
</g>
<!-- 2 -->
<g id="node4" class="node">
<title>2</title>
<ellipse fill="none" stroke="black" cx="105.81" cy="-291" rx="18" ry="18"/>
<ellipse fill="none" stroke="black" cx="105.81" cy="-291" rx="22" ry="22"/>
<text text-anchor="middle" x="105.81" y="-287.3" font-family="Times,serif" font-size="14.00">2</text>
</g>
<!-- 0&#45;&gt;2 -->
<g id="edge10" class="edge">
<title>0&#45;&gt;2</title>
<path fill="none" stroke="black" d="M151.14,-217.91C153.35,-227.94 154.45,-240.68 149.81,-251 146.08,-259.3 139.61,-266.54 132.77,-272.47"/>
<polygon fill="black" stroke="black" points="130.41,-269.87 124.7,-278.79 134.73,-275.38 130.41,-269.87"/>
<text text-anchor="middle" x="157.81" y="-239.8" font-family="Times,serif" font-size="14.00">3</text>
</g>
<!-- 0&#45;&gt;2 -->
<g id="edge24" class="edge">
<title>0&#45;&gt;2</title>
<path fill="none" stroke="black" d="M122.28,-209.27C110.27,-214.83 96.76,-223.47 89.81,-236 85.21,-244.29 86.39,-254.04 89.63,-262.97"/>
<polygon fill="black" stroke="black" points="86.49,-264.52 93.78,-272.21 92.88,-261.65 86.49,-264.52"/>
<text text-anchor="middle" x="94.81" y="-239.8" font-family="Times,serif" font-size="14.00">0</text>
</g>
<!-- 3 -->
<g id="node5" class="node">
<title>3</title>
<ellipse fill="none" stroke="black" cx="167.81" cy="-18" rx="27" ry="18"/>
<text text-anchor="middle" x="167.81" y="-14.3" font-family="Times,serif" font-size="14.00">3</text>
</g>
<!-- 0&#45;&gt;3 -->
<g id="edge16" class="edge">
<title>0&#45;&gt;3</title>
<path fill="none" stroke="black" d="M162.02,-185.14C167.92,-179.23 174.05,-171.88 177.81,-164 196,-125.91 186.15,-75.69 177.13,-45.45"/>
<polygon fill="black" stroke="black" points="180.38,-44.12 174.03,-35.64 173.71,-46.23 180.38,-44.12"/>
<text text-anchor="middle" x="192.81" y="-105.3" font-family="Times,serif" font-size="14.00">1</text>
</g>
<!-- 0&#45;&gt;4 -->
<g id="edge12" class="edge">
<title>0&#45;&gt;4</title>
<path fill="none" stroke="black" d="M157.16,-216.67C160.83,-222.48 164.53,-229.29 166.81,-236 180.05,-275.04 183.42,-322.78 184.06,-353.53"/>
<polygon fill="black" stroke="black" points="180.56,-353.7 184.18,-363.66 187.56,-353.62 180.56,-353.7"/>
<text text-anchor="middle" x="185.81" y="-287.3" font-family="Times,serif" font-size="14.00">2</text>
</g>
<!-- 1&#45;&gt;0 -->
<g id="edge13" class="edge">
<title>1&#45;&gt;0</title>
<path fill="none" stroke="black" d="M150.38,-131.19C149.57,-143.28 148.53,-158.58 147.66,-171.58"/>
<polygon fill="black" stroke="black" points="144.15,-171.63 146.97,-181.84 151.13,-172.1 144.15,-171.63"/>
<text text-anchor="middle" x="153.81" y="-152.8" font-family="Times,serif" font-size="14.00">4</text>
</g>
<!-- 1&#45;&gt;0 -->
<g id="edge17" class="edge">
<title>1&#45;&gt;0</title>
<path fill="none" stroke="black" d="M159.85,-129.55C163.05,-139.83 165.43,-152.62 162.81,-164 162.07,-167.23 160.99,-170.5 159.72,-173.68"/>
<polygon fill="black" stroke="black" points="156.52,-172.28 155.55,-182.83 162.88,-175.19 156.52,-172.28"/>
<text text-anchor="middle" x="168.81" y="-152.8" font-family="Times,serif" font-size="14.00">0</text>
</g>
<!-- 1&#45;&gt;3 -->
<g id="edge18" class="edge">
<title>1&#45;&gt;3</title>
<path fill="none" stroke="black" d="M135.17,-94.51C124.02,-83.75 112.6,-68.18 119.81,-54 123.81,-46.14 130.49,-39.62 137.62,-34.43"/>
<polygon fill="black" stroke="black" points="139.58,-37.33 146.06,-28.94 135.77,-31.46 139.58,-37.33"/>
<text text-anchor="middle" x="124.81" y="-57.8" font-family="Times,serif" font-size="14.00">1</text>
</g>
<!-- 1&#45;&gt;3 -->
<g id="edge26" class="edge">
<title>1&#45;&gt;3</title>
<path fill="none" stroke="black" d="M149.75,-87.01C149.28,-76.92 149.48,-64.72 151.81,-54 152.48,-50.9 153.46,-47.75 154.6,-44.67"/>
<polygon fill="black" stroke="black" points="157.92,-45.8 158.64,-35.23 151.49,-43.04 157.92,-45.8"/>
<text text-anchor="middle" x="156.81" y="-57.8" font-family="Times,serif" font-size="14.00">2</text>
</g>
<!-- 1&#45;&gt;4 -->
<g id="edge25" class="edge">
<title>1&#45;&gt;4</title>
<path fill="none" stroke="black" d="M165.23,-126.56C169.94,-133.17 174.79,-141.09 177.81,-149 206.79,-224.99 195.5,-249.68 196.81,-331 196.92,-337.67 197.88,-339.42 196.81,-346 196.31,-349.07 195.61,-352.23 194.78,-355.35"/>
<polygon fill="black" stroke="black" points="191.38,-354.48 191.82,-365.07 198.08,-356.52 191.38,-354.48"/>
<text text-anchor="middle" x="202.81" y="-239.8" font-family="Times,serif" font-size="14.00">3</text>
</g>
<!-- 2&#45;&gt;0 -->
<g id="edge6" class="edge">
<title>2&#45;&gt;0</title>
<path fill="none" stroke="black" d="M102.39,-269.14C101.62,-258.74 102.13,-246.23 106.81,-236 109.59,-229.92 113.99,-224.44 118.85,-219.73"/>
<polygon fill="black" stroke="black" points="121.4,-222.15 126.69,-212.97 116.83,-216.84 121.4,-222.15"/>
<text text-anchor="middle" x="111.81" y="-239.8" font-family="Times,serif" font-size="14.00">3</text>
</g>
<!-- 2&#45;&gt;0 -->
<g id="edge19" class="edge">
<title>2&#45;&gt;0</title>
<path fill="none" stroke="black" d="M114.49,-270.69C120.28,-257.81 127.95,-240.74 134.25,-226.71"/>
<polygon fill="black" stroke="black" points="137.45,-228.14 138.36,-217.58 131.06,-225.27 137.45,-228.14"/>
<text text-anchor="middle" x="133.81" y="-239.8" font-family="Times,serif" font-size="14.00">0</text>
</g>
<!-- 2&#45;&gt;1 -->
<g id="edge7" class="edge">
<title>2&#45;&gt;1</title>
<path fill="none" stroke="black" d="M84.27,-285.68C65.54,-280.72 39.33,-270.58 25.81,-251 -0.03,-213.58 -11.3,-183.94 17.81,-149 46.15,-114.98 74.28,-146.39 115.81,-131 118.77,-129.9 121.76,-128.57 124.69,-127.12"/>
<polygon fill="black" stroke="black" points="126.63,-130.05 133.73,-122.18 123.28,-123.9 126.63,-130.05"/>
<text text-anchor="middle" x="11.81" y="-196.3" font-family="Times,serif" font-size="14.00">4</text>
</g>
<!-- 2&#45;&gt;2 -->
<g id="edge5" class="edge">
<title>2&#45;&gt;2</title>
<path fill="none" stroke="black" d="M126.39,-299.37C136.65,-300.53 145.81,-297.74 145.81,-291 145.81,-286.68 142.05,-283.99 136.65,-282.91"/>
<polygon fill="black" stroke="black" points="136.48,-279.41 126.39,-282.63 136.29,-286.4 136.48,-279.41"/>
<text text-anchor="middle" x="150.81" y="-287.3" font-family="Times,serif" font-size="14.00">1</text>
</g>
<!-- 2&#45;&gt;3 -->
<g id="edge2" class="edge">
<title>2&#45;&gt;3</title>
<path fill="none" stroke="black" d="M92.9,-272.65C88.84,-266.19 84.88,-258.58 82.81,-251 78.96,-236.9 61.38,-273.87 92.81,-87 95.33,-72.01 92.31,-65.87 101.81,-54 110.18,-43.53 122.56,-35.81 134.33,-30.32"/>
<polygon fill="black" stroke="black" points="135.73,-33.53 143.56,-26.4 132.99,-27.09 135.73,-33.53"/>
<text text-anchor="middle" x="88.81" y="-152.8" font-family="Times,serif" font-size="14.00">2</text>
</g>
<!-- 3&#45;&gt;0 -->
<g id="edge9" class="edge">
<title>3&#45;&gt;0</title>
<path fill="none" stroke="black" d="M144.7,-27.67C133.06,-33.32 119.93,-41.91 112.81,-54 88,-96.13 94.07,-119.27 113.81,-164 115.96,-168.87 119.06,-173.5 122.49,-177.72"/>
<polygon fill="black" stroke="black" points="120.03,-180.22 129.35,-185.26 125.21,-175.51 120.03,-180.22"/>
<text text-anchor="middle" x="106.81" y="-105.3" font-family="Times,serif" font-size="14.00">1</text>
</g>
<!-- 3&#45;&gt;1 -->
<g id="edge20" class="edge">
<title>3&#45;&gt;1</title>
<path fill="none" stroke="black" d="M166.83,-36.23C166.1,-45.92 164.86,-58.2 162.81,-69 162.24,-72.01 161.54,-75.13 160.78,-78.23"/>
<polygon fill="black" stroke="black" points="157.39,-77.35 158.2,-87.92 164.16,-79.16 157.39,-77.35"/>
<text text-anchor="middle" x="169.81" y="-57.8" font-family="Times,serif" font-size="14.00">3</text>
</g>
<!-- 3&#45;&gt;3 -->
<g id="edge8" class="edge">
<title>3&#45;&gt;3</title>
<path fill="none" stroke="black" d="M194.6,-21.93C204.59,-22.06 212.81,-20.75 212.81,-18 212.81,-16.28 209.6,-15.13 204.75,-14.53"/>
<polygon fill="black" stroke="black" points="204.75,-11.03 194.6,-14.07 204.43,-18.02 204.75,-11.03"/>
<text text-anchor="middle" x="217.81" y="-14.3" font-family="Times,serif" font-size="14.00">0</text>
</g>
<!-- 3&#45;&gt;3 -->
<g id="edge14" class="edge">
<title>3&#45;&gt;3</title>
<path fill="none" stroke="black" d="M193.04,-24.94C211.85,-27.37 230.81,-25.05 230.81,-18 230.81,-12.21 218.05,-9.62 203.08,-10.21"/>
<polygon fill="black" stroke="black" points="202.71,-6.73 193.04,-11.06 203.3,-13.7 202.71,-6.73"/>
<text text-anchor="middle" x="235.81" y="-14.3" font-family="Times,serif" font-size="14.00">2</text>
</g>
<!-- 3&#45;&gt;4 -->
<g id="edge4" class="edge">
<title>3&#45;&gt;4</title>
<path fill="none" stroke="black" d="M194.69,-20.59C222.33,-23.47 265.37,-31.51 294.81,-54 316.98,-70.94 326.81,-80.1 326.81,-108 326.81,-292 326.81,-292 326.81,-292 326.81,-344.8 257.44,-369.17 215.33,-379.09"/>
<polygon fill="black" stroke="black" points="214.54,-375.68 205.53,-381.26 216.05,-382.52 214.54,-375.68"/>
<text text-anchor="middle" x="331.81" y="-196.3" font-family="Times,serif" font-size="14.00">4</text>
</g>
<!-- 4&#45;&gt;2 -->
<g id="edge11" class="edge">
<title>4&#45;&gt;2</title>
<path fill="none" stroke="black" d="M161.64,-384.28C135.67,-382.1 93.68,-374.13 73.81,-346 66.39,-335.5 72.6,-323.22 81.46,-313.02"/>
<polygon fill="black" stroke="black" points="84.11,-315.31 88.56,-305.69 79.09,-310.43 84.11,-315.31"/>
<text text-anchor="middle" x="78.81" y="-334.8" font-family="Times,serif" font-size="14.00">4</text>
</g>
<!-- 4&#45;&gt;2 -->
<g id="edge15" class="edge">
<title>4&#45;&gt;2</title>
<path fill="none" stroke="black" d="M162.36,-380.57C144.12,-375.56 118.99,-365.42 106.81,-346 102.55,-339.21 101.02,-330.93 100.88,-322.91"/>
<polygon fill="black" stroke="black" points="104.39,-322.83 101.38,-312.67 97.4,-322.49 104.39,-322.83"/>
<text text-anchor="middle" x="111.81" y="-334.8" font-family="Times,serif" font-size="14.00">0</text>
</g>
<!-- 4&#45;&gt;2 -->
<g id="edge21" class="edge">
<title>4&#45;&gt;2</title>
<path fill="none" stroke="black" d="M166.89,-371.93C158.24,-364.8 147.87,-355.49 139.81,-346 132.95,-337.91 126.46,-328.32 121.03,-319.48"/>
<polygon fill="black" stroke="black" points="123.9,-317.45 115.78,-310.64 117.88,-321.02 123.9,-317.45"/>
<text text-anchor="middle" x="144.81" y="-334.8" font-family="Times,serif" font-size="14.00">1</text>
</g>
<!-- 4&#45;&gt;2 -->
<g id="edge23" class="edge">
<title>4&#45;&gt;2</title>
<path fill="none" stroke="black" d="M173.84,-366.36C167.62,-355.52 159.06,-341.9 149.81,-331 144.02,-324.18 137.03,-317.45 130.35,-311.56"/>
<polygon fill="black" stroke="black" points="132.61,-308.89 122.73,-305.07 128.07,-314.22 132.61,-308.89"/>
<text text-anchor="middle" x="164.81" y="-334.8" font-family="Times,serif" font-size="14.00">2</text>
</g>
<!-- 4&#45;&gt;3 -->
<g id="edge22" class="edge">
<title>4&#45;&gt;3</title>
<path fill="none" stroke="black" d="M203.91,-376.6C232.32,-363.23 280.81,-334.23 280.81,-292 280.81,-292 280.81,-292 280.81,-108 280.81,-67.2 234.79,-42.23 201.48,-29.5"/>
<polygon fill="black" stroke="black" points="202.64,-26.2 192.05,-26.08 200.26,-32.78 202.64,-26.2"/>
<text text-anchor="middle" x="285.81" y="-196.3" font-family="Times,serif" font-size="14.00">3</text>
</g>
</g>
</svg>
