<?xml version="1.0" encoding="UTF-8" standalone="no"?>
<!DOCTYPE svg PUBLIC "-//W3C//DTD SVG 1.1//EN"
 "http://www.w3.org/Graphics/SVG/1.1/DTD/svg11.dtd">
<!-- Generated by graphviz version 2.49.0 (20210829.0051)
 -->
<!-- Pages: 1 -->
<svg width="457pt" height="465pt"
 viewBox="0.00 0.00 457.03 465.00" xmlns="http://www.w3.org/2000/svg" xmlns:xlink="http://www.w3.org/1999/xlink">
<g id="graph0" class="graph" transform="scale(1 1) rotate(0) translate(4 461)">
<polygon fill="white" stroke="transparent" points="-4,4 -4,-461 453.03,-461 453.03,4 -4,4"/>
<!-- fake -->
<g id="node1" class="node">
<title>fake</title>
</g>
<!-- 0 -->
<g id="node2" class="node">
<title>0</title>
<ellipse fill="none" stroke="black" cx="180" cy="-366" rx="27" ry="18"/>
<text text-anchor="middle" x="180" y="-362.3" font-family="Times,serif" font-size="14.00">0</text>
</g>
<!-- fake&#45;&gt;0 -->
<g id="edge1" class="edge">
<title>fake&#45;&gt;0</title>
<path fill="none" stroke="black" stroke-width="2" d="M180,-420.81C180,-412.79 180,-403.05 180,-394.07"/>
<polygon fill="black" stroke="black" stroke-width="2" points="183.5,-394.03 180,-384.03 176.5,-394.03 183.5,-394.03"/>
</g>
<!-- 2 -->
<g id="node4" class="node">
<title>2</title>
<ellipse fill="none" stroke="black" cx="226" cy="-279" rx="27" ry="18"/>
<text text-anchor="middle" x="226" y="-275.3" font-family="Times,serif" font-size="14.00">2</text>
</g>
<!-- 0&#45;&gt;2 -->
<g id="edge6" class="edge">
<title>0&#45;&gt;2</title>
<path fill="none" stroke="black" d="M188.87,-348.61C195.53,-336.3 204.77,-319.23 212.37,-305.19"/>
<polygon fill="black" stroke="black" points="215.63,-306.51 217.31,-296.05 209.48,-303.18 215.63,-306.51"/>
<text text-anchor="middle" x="210" y="-318.8" font-family="Times,serif" font-size="14.00">2</text>
</g>
<!-- 3 -->
<g id="node5" class="node">
<title>3</title>
<ellipse fill="none" stroke="black" cx="206" cy="-18" rx="27" ry="18"/>
<text text-anchor="middle" x="206" y="-14.3" font-family="Times,serif" font-size="14.00">3</text>
</g>
<!-- 0&#45;&gt;3 -->
<g id="edge5" class="edge">
<title>0&#45;&gt;3</title>
<path fill="none" stroke="black" d="M153.05,-364.23C102.84,-361.21 0,-346.87 0,-280 0,-280 0,-280 0,-104 0,-31.92 109.11,-19.73 168.52,-18.44"/>
<polygon fill="black" stroke="black" points="168.69,-21.94 178.64,-18.32 168.6,-14.94 168.69,-21.94"/>
<text text-anchor="middle" x="5" y="-188.3" font-family="Times,serif" font-size="14.00">3</text>
</g>
<!-- 0&#45;&gt;3 -->
<g id="edge21" class="edge">
<title>0&#45;&gt;3</title>
<path fill="none" stroke="black" d="M154.16,-360.64C115.22,-352.42 46,-330.69 46,-280 46,-280 46,-280 46,-104 46,-48.59 121.78,-29.19 169.03,-22.48"/>
<polygon fill="black" stroke="black" points="169.75,-25.91 179.22,-21.16 168.85,-18.97 169.75,-25.91"/>
<text text-anchor="middle" x="51" y="-188.3" font-family="Times,serif" font-size="14.00">1</text>
</g>
<!-- 4 -->
<g id="node6" class="node">
<title>4</title>
<ellipse fill="none" stroke="black" cx="330" cy="-105" rx="27" ry="18"/>
<text text-anchor="middle" x="330" y="-101.3" font-family="Times,serif" font-size="14.00">4</text>
</g>
<!-- 0&#45;&gt;4 -->
<g id="edge2" class="edge">
<title>0&#45;&gt;4</title>
<path fill="none" stroke="black" d="M201.8,-355.17C225.51,-343.7 263.57,-322.95 290,-297 322.81,-264.78 332.62,-254 346,-210 354.92,-180.66 353.87,-170.89 347,-141 346.26,-137.77 345.18,-134.5 343.91,-131.32"/>
<polygon fill="black" stroke="black" points="347.07,-129.81 339.74,-122.17 340.71,-132.72 347.07,-129.81"/>
<text text-anchor="middle" x="344" y="-231.8" font-family="Times,serif" font-size="14.00">4</text>
</g>
<!-- 0&#45;&gt;4 -->
<g id="edge8" class="edge">
<title>0&#45;&gt;4</title>
<path fill="none" stroke="black" d="M205.59,-359.75C255.05,-348.17 363.53,-315.48 416,-243 443.09,-205.58 463.06,-178.44 436,-141 420.47,-119.52 391.28,-111 367.46,-107.73"/>
<polygon fill="black" stroke="black" points="367.63,-104.22 357.3,-106.59 366.85,-111.18 367.63,-104.22"/>
<text text-anchor="middle" x="431" y="-231.8" font-family="Times,serif" font-size="14.00">0</text>
</g>
<!-- 1 -->
<g id="node3" class="node">
<title>1</title>
<ellipse fill="none" stroke="black" cx="231" cy="-192" rx="27" ry="18"/>
<text text-anchor="middle" x="231" y="-188.3" font-family="Times,serif" font-size="14.00">1</text>
</g>
<!-- 1&#45;&gt;0 -->
<g id="edge25" class="edge">
<title>1&#45;&gt;0</title>
<path fill="none" stroke="black" d="M216.1,-207.01C203.74,-219.74 187.09,-239.72 180,-261 171.65,-286.06 172.84,-316.44 175.4,-337.87"/>
<polygon fill="black" stroke="black" points="171.95,-338.47 176.77,-347.9 178.88,-337.52 171.95,-338.47"/>
<text text-anchor="middle" x="185" y="-275.3" font-family="Times,serif" font-size="14.00">2</text>
</g>
<!-- 1&#45;&gt;2 -->
<g id="edge4" class="edge">
<title>1&#45;&gt;2</title>
<path fill="none" stroke="black" d="M228.73,-210.06C228.05,-215.76 227.39,-222.14 227,-228 226.51,-235.33 226.23,-243.28 226.08,-250.64"/>
<polygon fill="black" stroke="black" points="222.58,-250.81 225.95,-260.86 229.58,-250.91 222.58,-250.81"/>
<text text-anchor="middle" x="232" y="-231.8" font-family="Times,serif" font-size="14.00">1</text>
</g>
<!-- 1&#45;&gt;2 -->
<g id="edge19" class="edge">
<title>1&#45;&gt;2</title>
<path fill="none" stroke="black" d="M235.36,-210.16C237.24,-219.83 238.67,-232.11 237,-243 236.58,-245.74 235.98,-248.56 235.29,-251.35"/>
<polygon fill="black" stroke="black" points="231.87,-250.58 232.43,-261.16 238.59,-252.53 231.87,-250.58"/>
<text text-anchor="middle" x="242" y="-231.8" font-family="Times,serif" font-size="14.00">3</text>
</g>
<!-- 1&#45;&gt;3 -->
<g id="edge22" class="edge">
<title>1&#45;&gt;3</title>
<path fill="none" stroke="black" d="M228.12,-173.97C225.82,-160.23 222.58,-140.39 220,-123 216.13,-96.91 212.16,-67.07 209.44,-46.07"/>
<polygon fill="black" stroke="black" points="212.89,-45.42 208.14,-35.95 205.95,-46.32 212.89,-45.42"/>
<text text-anchor="middle" x="225" y="-101.3" font-family="Times,serif" font-size="14.00">0</text>
</g>
<!-- 1&#45;&gt;4 -->
<g id="edge7" class="edge">
<title>1&#45;&gt;4</title>
<path fill="none" stroke="black" d="M244.77,-176.42C254.74,-166.12 268.75,-152.22 282,-141 288.64,-135.38 296.12,-129.66 303.16,-124.52"/>
<polygon fill="black" stroke="black" points="305.66,-127.03 311.75,-118.37 301.58,-121.34 305.66,-127.03"/>
<text text-anchor="middle" x="287" y="-144.8" font-family="Times,serif" font-size="14.00">4</text>
</g>
<!-- 2&#45;&gt;1 -->
<g id="edge10" class="edge">
<title>2&#45;&gt;1</title>
<path fill="none" stroke="black" d="M246.67,-267.2C255.59,-261.34 265.08,-253.2 270,-243 275.56,-231.46 268.02,-220.09 258.12,-211.11"/>
<polygon fill="black" stroke="black" points="260.25,-208.33 250.28,-204.74 255.84,-213.76 260.25,-208.33"/>
<text text-anchor="middle" x="276" y="-231.8" font-family="Times,serif" font-size="14.00">4</text>
</g>
<!-- 2&#45;&gt;1 -->
<g id="edge14" class="edge">
<title>2&#45;&gt;1</title>
<path fill="none" stroke="black" d="M217.07,-261.84C212.77,-252.07 209.12,-239.36 212,-228 212.88,-224.54 214.17,-221.06 215.68,-217.7"/>
<polygon fill="black" stroke="black" points="218.86,-219.18 220.33,-208.69 212.64,-215.97 218.86,-219.18"/>
<text text-anchor="middle" x="217" y="-231.8" font-family="Times,serif" font-size="14.00">1</text>
</g>
<!-- 2&#45;&gt;2 -->
<g id="edge9" class="edge">
<title>2&#45;&gt;2</title>
<path fill="none" stroke="black" d="M250.53,-286.75C261.51,-287.49 271,-284.91 271,-279 271,-275.03 266.72,-272.56 260.57,-271.59"/>
<polygon fill="black" stroke="black" points="260.65,-268.09 250.53,-271.25 260.41,-275.09 260.65,-268.09"/>
<text text-anchor="middle" x="276" y="-275.3" font-family="Times,serif" font-size="14.00">2</text>
</g>
<!-- 2&#45;&gt;3 -->
<g id="edge11" class="edge">
<title>2&#45;&gt;3</title>
<path fill="none" stroke="black" d="M253.02,-276.5C296.54,-273.46 379.13,-264.89 397,-243 440.84,-189.27 427.37,-147.79 394,-87 365.1,-34.36 289.39,-21.81 243.34,-19.21"/>
<polygon fill="black" stroke="black" points="243.3,-15.7 233.16,-18.77 243,-22.7 243.3,-15.7"/>
<text text-anchor="middle" x="427" y="-144.8" font-family="Times,serif" font-size="14.00">3</text>
</g>
<!-- 2&#45;&gt;3 -->
<g id="edge23" class="edge">
<title>2&#45;&gt;3</title>
<path fill="none" stroke="black" d="M205.99,-266.55C202.08,-264.55 197.97,-262.6 194,-261 166.99,-250.11 150.93,-264.23 131,-243 103.91,-214.14 116.25,-195.35 112,-156 107.04,-110.07 100.89,-88.15 132,-54 142.47,-42.5 157.52,-34.44 171.31,-28.98"/>
<polygon fill="black" stroke="black" points="172.84,-32.14 181.04,-25.44 170.45,-25.56 172.84,-32.14"/>
<text text-anchor="middle" x="117" y="-144.8" font-family="Times,serif" font-size="14.00">0</text>
</g>
<!-- 3&#45;&gt;1 -->
<g id="edge24" class="edge">
<title>3&#45;&gt;1</title>
<path fill="none" stroke="black" d="M216.12,-34.85C219.42,-40.67 222.8,-47.45 225,-54 237.24,-90.46 236.42,-135.46 234.15,-163.71"/>
<polygon fill="black" stroke="black" points="230.63,-163.73 233.2,-174.01 237.6,-164.37 230.63,-163.73"/>
<text text-anchor="middle" x="240" y="-101.3" font-family="Times,serif" font-size="14.00">4</text>
</g>
<!-- 3&#45;&gt;2 -->
<g id="edge13" class="edge">
<title>3&#45;&gt;2</title>
<path fill="none" stroke="black" d="M182.46,-27.23C169.78,-32.85 154.94,-41.57 146,-54 119.13,-91.38 123.31,-110.21 128,-156 132.02,-195.28 120.32,-213 146,-243 160.82,-260.31 173.23,-251.64 194,-261 194.85,-261.38 195.72,-261.78 196.58,-262.19"/>
<polygon fill="black" stroke="black" points="195.37,-265.49 205.88,-266.81 198.48,-259.22 195.37,-265.49"/>
<text text-anchor="middle" x="133" y="-144.8" font-family="Times,serif" font-size="14.00">3</text>
</g>
<!-- 3&#45;&gt;2 -->
<g id="edge26" class="edge">
<title>3&#45;&gt;2</title>
<path fill="none" stroke="black" d="M202.56,-35.99C196.32,-69.5 184.68,-146.4 195,-210 197.47,-225.21 204.31,-240.93 210.95,-253.43"/>
<polygon fill="black" stroke="black" points="207.97,-255.27 215.9,-262.29 214.08,-251.86 207.97,-255.27"/>
<text text-anchor="middle" x="196" y="-144.8" font-family="Times,serif" font-size="14.00">2</text>
</g>
<!-- 3&#45;&gt;3 -->
<g id="edge12" class="edge">
<title>3&#45;&gt;3</title>
<path fill="none" stroke="black" d="M230.53,-25.75C241.51,-26.49 251,-23.91 251,-18 251,-14.03 246.72,-11.56 240.57,-10.59"/>
<polygon fill="black" stroke="black" points="240.65,-7.09 230.53,-10.25 240.41,-14.09 240.65,-7.09"/>
<text text-anchor="middle" x="256" y="-14.3" font-family="Times,serif" font-size="14.00">1</text>
</g>
<!-- 3&#45;&gt;4 -->
<g id="edge3" class="edge">
<title>3&#45;&gt;4</title>
<path fill="none" stroke="black" d="M225.8,-30.56C236.89,-37.18 250.89,-45.79 263,-54 277.25,-63.66 292.68,-75.11 305.14,-84.61"/>
<polygon fill="black" stroke="black" points="303.17,-87.51 313.23,-90.83 307.44,-81.96 303.17,-87.51"/>
<text text-anchor="middle" x="288" y="-57.8" font-family="Times,serif" font-size="14.00">0</text>
</g>
<!-- 4&#45;&gt;2 -->
<g id="edge17" class="edge">
<title>4&#45;&gt;2</title>
<path fill="none" stroke="black" d="M326.03,-122.88C318.21,-155.15 300.2,-224.06 285,-243 277.88,-251.87 267.87,-258.99 258.1,-264.43"/>
<polygon fill="black" stroke="black" points="256.22,-261.46 248.92,-269.14 259.42,-267.69 256.22,-261.46"/>
<text text-anchor="middle" x="317" y="-188.3" font-family="Times,serif" font-size="14.00">4</text>
</g>
<!-- 4&#45;&gt;2 -->
<g id="edge20" class="edge">
<title>4&#45;&gt;2</title>
<path fill="none" stroke="black" d="M332.46,-122.99C335.65,-152.4 337.26,-212.57 303,-243 290.69,-253.93 274.39,-262 259.96,-267.62"/>
<polygon fill="black" stroke="black" points="258.54,-264.41 250.34,-271.12 260.93,-270.99 258.54,-264.41"/>
<text text-anchor="middle" x="337" y="-188.3" font-family="Times,serif" font-size="14.00">0</text>
</g>
<!-- 4&#45;&gt;3 -->
<g id="edge15" class="edge">
<title>4&#45;&gt;3</title>
<path fill="none" stroke="black" d="M334.38,-87.03C336.04,-76.48 336.1,-63.21 329,-54 309.08,-28.16 271.5,-20.45 243.1,-18.58"/>
<polygon fill="black" stroke="black" points="243.25,-15.08 233.1,-18.13 242.93,-22.07 243.25,-15.08"/>
<text text-anchor="middle" x="339" y="-57.8" font-family="Times,serif" font-size="14.00">1</text>
</g>
<!-- 4&#45;&gt;3 -->
<g id="edge16" class="edge">
<title>4&#45;&gt;3</title>
<path fill="none" stroke="black" d="M322.21,-87.67C316.33,-76.85 307.33,-63.02 296,-54 280.1,-41.35 259.08,-32.83 241.35,-27.37"/>
<polygon fill="black" stroke="black" points="241.94,-23.89 231.36,-24.5 240.01,-30.62 241.94,-23.89"/>
<text text-anchor="middle" x="314" y="-57.8" font-family="Times,serif" font-size="14.00">2</text>
</g>
<!-- 4&#45;&gt;4 -->
<g id="edge18" class="edge">
<title>4&#45;&gt;4</title>
<path fill="none" stroke="black" d="M354.53,-112.75C365.51,-113.49 375,-110.91 375,-105 375,-101.03 370.72,-98.56 364.57,-97.59"/>
<polygon fill="black" stroke="black" points="364.65,-94.09 354.53,-97.25 364.41,-101.09 364.65,-94.09"/>
<text text-anchor="middle" x="380" y="-101.3" font-family="Times,serif" font-size="14.00">3</text>
</g>
</g>
</svg>
