<?xml version="1.0" encoding="UTF-8" standalone="no"?>
<!DOCTYPE svg PUBLIC "-//W3C//DTD SVG 1.1//EN"
 "http://www.w3.org/Graphics/SVG/1.1/DTD/svg11.dtd">
<!-- Generated by graphviz version 2.49.0 (20210829.0051)
 -->
<!-- Pages: 1 -->
<svg width="206pt" height="117pt"
 viewBox="0.00 0.00 205.55 117.00" xmlns="http://www.w3.org/2000/svg" xmlns:xlink="http://www.w3.org/1999/xlink">
<g id="graph0" class="graph" transform="scale(1 1) rotate(0) translate(4 113)">
<polygon fill="white" stroke="transparent" points="-4,4 -4,-113 201.55,-113 201.55,4 -4,4"/>
<!-- fake -->
<g id="node1" class="node">
<title>fake</title>
</g>
<!-- 0 -->
<g id="node2" class="node">
<title>0</title>
<ellipse fill="none" stroke="black" cx="30.55" cy="-18" rx="27" ry="18"/>
<text text-anchor="middle" x="30.55" y="-14.3" font-family="Times,serif" font-size="14.00">0</text>
</g>
<!-- fake&#45;&gt;0 -->
<g id="edge1" class="edge">
<title>fake&#45;&gt;0</title>
<path fill="none" stroke="black" stroke-width="2" d="M30.55,-72.81C30.55,-64.79 30.55,-55.05 30.55,-46.07"/>
<polygon fill="black" stroke="black" stroke-width="2" points="34.05,-46.03 30.55,-36.03 27.05,-46.03 34.05,-46.03"/>
</g>
<!-- 0&#45;&gt;0 -->
<g id="edge2" class="edge">
<title>0&#45;&gt;0</title>
<path fill="none" stroke="black" d="M57.79,-19.5C67.57,-19.53 75.55,-19.03 75.55,-18 75.55,-17.37 72.59,-16.94 68.06,-16.71"/>
<polygon fill="black" stroke="black" points="67.86,-13.2 57.79,-16.5 67.72,-20.2 67.86,-13.2"/>
<text text-anchor="middle" x="80.55" y="-14.3" font-family="Times,serif" font-size="14.00">3</text>
</g>
<!-- 0&#45;&gt;0 -->
<g id="edge3" class="edge">
<title>0&#45;&gt;0</title>
<path fill="none" stroke="black" d="M57.42,-20.72C75.67,-21.52 93.55,-20.61 93.55,-18 93.55,-15.88 81.75,-14.88 67.53,-15.01"/>
<polygon fill="black" stroke="black" points="67.32,-11.52 57.42,-15.28 67.51,-18.51 67.32,-11.52"/>
<text text-anchor="middle" x="98.55" y="-14.3" font-family="Times,serif" font-size="14.00">0</text>
</g>
<!-- 0&#45;&gt;0 -->
<g id="edge4" class="edge">
<title>0&#45;&gt;0</title>
<path fill="none" stroke="black" d="M57.1,-21.58C83.04,-23.55 111.55,-22.36 111.55,-18 111.55,-14.2 89.92,-12.81 67.19,-13.82"/>
<polygon fill="black" stroke="black" points="66.87,-10.33 57.1,-14.42 67.29,-17.32 66.87,-10.33"/>
<text text-anchor="middle" x="116.55" y="-14.3" font-family="Times,serif" font-size="14.00">2</text>
</g>
<!-- 0&#45;&gt;0 -->
<g id="edge5" class="edge">
<title>0&#45;&gt;0</title>
<path fill="none" stroke="black" d="M56.91,-22.21C90.07,-25.59 129.55,-24.19 129.55,-18 129.55,-12.44 97.68,-10.74 67.16,-12.91"/>
<polygon fill="black" stroke="black" points="66.57,-9.45 56.91,-13.79 67.17,-16.42 66.57,-9.45"/>
<text text-anchor="middle" x="134.55" y="-14.3" font-family="Times,serif" font-size="14.00">4</text>
</g>
<!-- 0&#45;&gt;0 -->
<g id="edge6" class="edge">
<title>0&#45;&gt;0</title>
<path fill="none" stroke="black" d="M56.7,-22.68C96.8,-27.63 147.55,-26.07 147.55,-18 147.55,-10.6 104.78,-8.67 66.75,-12.23"/>
<polygon fill="black" stroke="black" points="66.26,-8.77 56.7,-13.32 67.02,-15.73 66.26,-8.77"/>
<text text-anchor="middle" x="152.55" y="-14.3" font-family="Times,serif" font-size="14.00">1</text>
</g>
</g>
</svg>
