<?xml version="1.0" encoding="UTF-8" standalone="no"?>
<!DOCTYPE svg PUBLIC "-//W3C//DTD SVG 1.1//EN"
 "http://www.w3.org/Graphics/SVG/1.1/DTD/svg11.dtd">
<!-- Generated by graphviz version 2.49.0 (20210829.0051)
 -->
<!-- Pages: 1 -->
<svg width="345pt" height="481pt"
 viewBox="0.00 0.00 345.03 481.00" xmlns="http://www.w3.org/2000/svg" xmlns:xlink="http://www.w3.org/1999/xlink">
<g id="graph0" class="graph" transform="scale(1 1) rotate(0) translate(4 477)">
<polygon fill="white" stroke="transparent" points="-4,4 -4,-477 341.03,-477 341.03,4 -4,4"/>
<!-- fake -->
<g id="node1" class="node">
<title>fake</title>
</g>
<!-- 4 -->
<g id="node6" class="node">
<title>4</title>
<ellipse fill="none" stroke="black" cx="184.03" cy="-378" rx="18" ry="18"/>
<ellipse fill="none" stroke="black" cx="184.03" cy="-378" rx="22" ry="22"/>
<text text-anchor="middle" x="184.03" y="-374.3" font-family="Times,serif" font-size="14.00">4</text>
</g>
<!-- fake&#45;&gt;4 -->
<g id="edge1" class="edge">
<title>fake&#45;&gt;4</title>
<path fill="none" stroke="black" stroke-width="2" d="M184.03,-436.98C184.03,-429.15 184.03,-419.61 184.03,-410.54"/>
<polygon fill="black" stroke="black" stroke-width="2" points="187.53,-410.24 184.03,-400.24 180.53,-410.24 187.53,-410.24"/>
</g>
<!-- 0 -->
<g id="node2" class="node">
<title>0</title>
<ellipse fill="none" stroke="black" cx="146.03" cy="-200" rx="27" ry="18"/>
<text text-anchor="middle" x="146.03" y="-196.3" font-family="Times,serif" font-size="14.00">0</text>
</g>
<!-- 1 -->
<g id="node3" class="node">
<title>1</title>
<ellipse fill="none" stroke="black" cx="147.03" cy="-113" rx="27" ry="18"/>
<text text-anchor="middle" x="147.03" y="-109.3" font-family="Times,serif" font-size="14.00">1</text>
</g>
<!-- 0&#45;&gt;1 -->
<g id="edge3" class="edge">
<title>0&#45;&gt;1</title>
<path fill="none" stroke="black" d="M131.42,-184.64C123.35,-174.92 115.74,-161.59 120.03,-149 121.52,-144.63 123.8,-140.39 126.42,-136.44"/>
<polygon fill="black" stroke="black" points="129.28,-138.47 132.51,-128.37 123.69,-134.25 129.28,-138.47"/>
<text text-anchor="middle" x="125.03" y="-152.8" font-family="Times,serif" font-size="14.00">4</text>
</g>
<!-- 2 -->
<g id="node4" class="node">
<title>2</title>
<ellipse fill="none" stroke="black" cx="106.03" cy="-287" rx="27" ry="18"/>
<text text-anchor="middle" x="106.03" y="-283.3" font-family="Times,serif" font-size="14.00">2</text>
</g>
<!-- 0&#45;&gt;2 -->
<g id="edge10" class="edge">
<title>0&#45;&gt;2</title>
<path fill="none" stroke="black" d="M151.56,-218C153.84,-228.07 154.95,-240.8 150.03,-251 146.65,-258.01 141.11,-264.05 135.08,-269.04"/>
<polygon fill="black" stroke="black" points="132.69,-266.45 126.71,-275.2 136.84,-272.09 132.69,-266.45"/>
<text text-anchor="middle" x="158.03" y="-239.8" font-family="Times,serif" font-size="14.00">3</text>
</g>
<!-- 0&#45;&gt;2 -->
<g id="edge24" class="edge">
<title>0&#45;&gt;2</title>
<path fill="none" stroke="black" d="M122.39,-209.03C110.1,-214.55 96.18,-223.23 89.03,-236 84.61,-243.91 86.14,-253.16 89.67,-261.54"/>
<polygon fill="black" stroke="black" points="86.61,-263.24 94.32,-270.51 92.83,-260.02 86.61,-263.24"/>
<text text-anchor="middle" x="94.03" y="-239.8" font-family="Times,serif" font-size="14.00">0</text>
</g>
<!-- 3 -->
<g id="node5" class="node">
<title>3</title>
<ellipse fill="none" stroke="black" cx="168.03" cy="-22" rx="18" ry="18"/>
<ellipse fill="none" stroke="black" cx="168.03" cy="-22" rx="22" ry="22"/>
<text text-anchor="middle" x="168.03" y="-18.3" font-family="Times,serif" font-size="14.00">3</text>
</g>
<!-- 0&#45;&gt;3 -->
<g id="edge16" class="edge">
<title>0&#45;&gt;3</title>
<path fill="none" stroke="black" d="M160.05,-184.26C165.06,-178.34 170.37,-171.21 174.03,-164 180.93,-150.45 181.02,-146.07 183.03,-131 187.11,-100.55 185.07,-92.12 179.03,-62 178.43,-58.99 177.72,-55.88 176.94,-52.78"/>
<polygon fill="black" stroke="black" points="180.31,-51.85 174.34,-43.1 173.55,-53.66 180.31,-51.85"/>
<text text-anchor="middle" x="190.03" y="-109.3" font-family="Times,serif" font-size="14.00">1</text>
</g>
<!-- 0&#45;&gt;4 -->
<g id="edge12" class="edge">
<title>0&#45;&gt;4</title>
<path fill="none" stroke="black" d="M157.37,-216.68C161.03,-222.49 164.74,-229.3 167.03,-236 179.49,-272.35 183.08,-316.71 183.99,-345.84"/>
<polygon fill="black" stroke="black" points="180.49,-345.92 184.21,-355.84 187.48,-345.77 180.49,-345.92"/>
<text text-anchor="middle" x="185.03" y="-283.3" font-family="Times,serif" font-size="14.00">2</text>
</g>
<!-- 1&#45;&gt;0 -->
<g id="edge13" class="edge">
<title>1&#45;&gt;0</title>
<path fill="none" stroke="black" d="M146.83,-131.18C146.7,-142.81 146.51,-158.42 146.36,-171.73"/>
<polygon fill="black" stroke="black" points="142.85,-171.76 146.24,-181.8 149.85,-171.84 142.85,-171.76"/>
<text text-anchor="middle" x="151.03" y="-152.8" font-family="Times,serif" font-size="14.00">4</text>
</g>
<!-- 1&#45;&gt;0 -->
<g id="edge17" class="edge">
<title>1&#45;&gt;0</title>
<path fill="none" stroke="black" d="M155.16,-130.54C158.96,-140.23 162.21,-152.73 160.03,-164 159.45,-167.05 158.6,-170.17 157.6,-173.24"/>
<polygon fill="black" stroke="black" points="154.3,-172.07 154.06,-182.66 160.85,-174.52 154.3,-172.07"/>
<text text-anchor="middle" x="165.03" y="-152.8" font-family="Times,serif" font-size="14.00">0</text>
</g>
<!-- 1&#45;&gt;3 -->
<g id="edge18" class="edge">
<title>1&#45;&gt;3</title>
<path fill="none" stroke="black" d="M131.38,-97.76C122.49,-87.86 114.18,-74.29 120.03,-62 124.42,-52.79 132.16,-45.04 140.16,-38.95"/>
<polygon fill="black" stroke="black" points="142.24,-41.76 148.46,-33.19 138.25,-36.01 142.24,-41.76"/>
<text text-anchor="middle" x="125.03" y="-65.8" font-family="Times,serif" font-size="14.00">1</text>
</g>
<!-- 1&#45;&gt;3 -->
<g id="edge26" class="edge">
<title>1&#45;&gt;3</title>
<path fill="none" stroke="black" d="M147.53,-94.66C148.12,-84.94 149.37,-72.67 152.03,-62 152.89,-58.56 154,-55.02 155.23,-51.55"/>
<polygon fill="black" stroke="black" points="158.56,-52.66 158.92,-42.07 152.03,-50.12 158.56,-52.66"/>
<text text-anchor="middle" x="157.03" y="-65.8" font-family="Times,serif" font-size="14.00">2</text>
</g>
<!-- 1&#45;&gt;4 -->
<g id="edge25" class="edge">
<title>1&#45;&gt;4</title>
<path fill="none" stroke="black" d="M160.63,-128.75C165.48,-134.68 170.58,-141.8 174.03,-149 180.56,-162.61 179.22,-167.17 182.03,-182 193.78,-243.92 195.29,-260 197.03,-323 197.22,-329.66 198.1,-331.42 197.03,-338 196.54,-341.07 195.83,-344.23 195,-347.35"/>
<polygon fill="black" stroke="black" points="191.61,-346.48 192.05,-357.07 198.3,-348.52 191.61,-346.48"/>
<text text-anchor="middle" x="198.03" y="-239.8" font-family="Times,serif" font-size="14.00">3</text>
</g>
<!-- 2&#45;&gt;0 -->
<g id="edge6" class="edge">
<title>2&#45;&gt;0</title>
<path fill="none" stroke="black" d="M103.11,-269.04C102.15,-258.99 102.33,-246.26 107.03,-236 109.82,-229.92 114.22,-224.45 119.08,-219.73"/>
<polygon fill="black" stroke="black" points="121.64,-222.15 126.93,-212.97 117.07,-216.85 121.64,-222.15"/>
<text text-anchor="middle" x="112.03" y="-239.8" font-family="Times,serif" font-size="14.00">3</text>
</g>
<!-- 2&#45;&gt;0 -->
<g id="edge19" class="edge">
<title>2&#45;&gt;0</title>
<path fill="none" stroke="black" d="M113.75,-269.61C119.5,-257.38 127.47,-240.44 134.05,-226.46"/>
<polygon fill="black" stroke="black" points="137.25,-227.88 138.35,-217.34 130.92,-224.9 137.25,-227.88"/>
<text text-anchor="middle" x="133.03" y="-239.8" font-family="Times,serif" font-size="14.00">0</text>
</g>
<!-- 2&#45;&gt;1 -->
<g id="edge7" class="edge">
<title>2&#45;&gt;1</title>
<path fill="none" stroke="black" d="M80.06,-281.75C61.87,-277.32 38.63,-268.46 26.03,-251 -0.57,-214.12 -11.04,-183.96 18.03,-149 46.07,-115.29 73.64,-145.45 115.03,-131 116.07,-130.64 117.12,-130.24 118.17,-129.83"/>
<polygon fill="black" stroke="black" points="119.84,-132.91 127.49,-125.58 116.94,-126.54 119.84,-132.91"/>
<text text-anchor="middle" x="12.03" y="-196.3" font-family="Times,serif" font-size="14.00">4</text>
</g>
<!-- 2&#45;&gt;2 -->
<g id="edge5" class="edge">
<title>2&#45;&gt;2</title>
<path fill="none" stroke="black" d="M130.57,-294.75C141.54,-295.49 151.03,-292.91 151.03,-287 151.03,-283.03 146.75,-280.56 140.61,-279.59"/>
<polygon fill="black" stroke="black" points="140.68,-276.09 130.57,-279.25 140.44,-283.09 140.68,-276.09"/>
<text text-anchor="middle" x="156.03" y="-283.3" font-family="Times,serif" font-size="14.00">1</text>
</g>
<!-- 2&#45;&gt;3 -->
<g id="edge2" class="edge">
<title>2&#45;&gt;3</title>
<path fill="none" stroke="black" d="M93.39,-270.95C89.24,-265.1 85.16,-258.11 83.03,-251 81.12,-244.61 82.77,-242.66 83.03,-236 86.06,-158.31 55.46,-124.99 101.03,-62 110.18,-49.36 124.77,-40.18 138.01,-33.91"/>
<polygon fill="black" stroke="black" points="139.54,-37.05 147.31,-29.85 136.74,-30.64 139.54,-37.05"/>
<text text-anchor="middle" x="83.03" y="-152.8" font-family="Times,serif" font-size="14.00">2</text>
</g>
<!-- 3&#45;&gt;0 -->
<g id="edge9" class="edge">
<title>3&#45;&gt;0</title>
<path fill="none" stroke="black" d="M148.89,-33.1C137.46,-39.95 123.4,-49.94 114.03,-62 104.37,-74.45 103.97,-79.51 101.03,-95 95.21,-125.66 97.51,-137.53 114.03,-164 116.9,-168.6 120.41,-173.14 124.04,-177.36"/>
<polygon fill="black" stroke="black" points="121.7,-179.99 131.04,-185 126.86,-175.26 121.7,-179.99"/>
<text text-anchor="middle" x="106.03" y="-109.3" font-family="Times,serif" font-size="14.00">1</text>
</g>
<!-- 3&#45;&gt;1 -->
<g id="edge20" class="edge">
<title>3&#45;&gt;1</title>
<path fill="none" stroke="black" d="M167.72,-44.06C167.16,-54.16 165.87,-66.36 163.03,-77 162.22,-80.06 161.15,-83.2 159.96,-86.26"/>
<polygon fill="black" stroke="black" points="156.64,-85.12 155.87,-95.69 163.06,-87.91 156.64,-85.12"/>
<text text-anchor="middle" x="170.03" y="-65.8" font-family="Times,serif" font-size="14.00">3</text>
</g>
<!-- 3&#45;&gt;3 -->
<g id="edge8" class="edge">
<title>3&#45;&gt;3</title>
<path fill="none" stroke="black" d="M189.84,-26.25C199.6,-26.65 208.03,-25.23 208.03,-22 208.03,-19.98 204.74,-18.67 199.88,-18.07"/>
<polygon fill="black" stroke="black" points="199.95,-14.57 189.84,-17.75 199.73,-21.56 199.95,-14.57"/>
<text text-anchor="middle" x="213.03" y="-18.3" font-family="Times,serif" font-size="14.00">0</text>
</g>
<!-- 3&#45;&gt;3 -->
<g id="edge14" class="edge">
<title>3&#45;&gt;3</title>
<path fill="none" stroke="black" d="M188.85,-29.2C206.92,-32.49 226.03,-30.09 226.03,-22 226.03,-15.43 213.41,-12.61 198.99,-13.55"/>
<polygon fill="black" stroke="black" points="198.34,-10.1 188.85,-14.8 199.2,-17.05 198.34,-10.1"/>
<text text-anchor="middle" x="231.03" y="-18.3" font-family="Times,serif" font-size="14.00">2</text>
</g>
<!-- 3&#45;&gt;4 -->
<g id="edge4" class="edge">
<title>3&#45;&gt;4</title>
<path fill="none" stroke="black" d="M190.14,-25.16C233.83,-30.77 327.03,-50 327.03,-112 327.03,-288 327.03,-288 327.03,-288 327.03,-340.03 257.96,-362.73 215.83,-371.73"/>
<polygon fill="black" stroke="black" points="214.88,-368.35 205.75,-373.74 216.24,-375.22 214.88,-368.35"/>
<text text-anchor="middle" x="332.03" y="-196.3" font-family="Times,serif" font-size="14.00">4</text>
</g>
<!-- 4&#45;&gt;2 -->
<g id="edge11" class="edge">
<title>4&#45;&gt;2</title>
<path fill="none" stroke="black" d="M161.86,-376.28C135.9,-374.1 93.91,-366.13 74.03,-338 67.25,-328.4 72.87,-317.43 81.18,-308.21"/>
<polygon fill="black" stroke="black" points="83.89,-310.45 88.58,-300.95 78.99,-305.46 83.89,-310.45"/>
<text text-anchor="middle" x="79.03" y="-326.8" font-family="Times,serif" font-size="14.00">4</text>
</g>
<!-- 4&#45;&gt;2 -->
<g id="edge15" class="edge">
<title>4&#45;&gt;2</title>
<path fill="none" stroke="black" d="M162.59,-372.57C144.35,-367.55 119.23,-357.41 107.03,-338 102.79,-331.25 101.47,-322.92 101.51,-315"/>
<polygon fill="black" stroke="black" points="105,-315.22 102.22,-305 98.02,-314.72 105,-315.22"/>
<text text-anchor="middle" x="112.03" y="-326.8" font-family="Times,serif" font-size="14.00">0</text>
</g>
<!-- 4&#45;&gt;2 -->
<g id="edge21" class="edge">
<title>4&#45;&gt;2</title>
<path fill="none" stroke="black" d="M166.82,-363.46C158.3,-356.34 148.12,-347.2 140.03,-338 133.21,-330.24 126.61,-321.06 121.07,-312.7"/>
<polygon fill="black" stroke="black" points="123.86,-310.57 115.51,-304.05 117.97,-314.35 123.86,-310.57"/>
<text text-anchor="middle" x="145.03" y="-326.8" font-family="Times,serif" font-size="14.00">1</text>
</g>
<!-- 4&#45;&gt;2 -->
<g id="edge23" class="edge">
<title>4&#45;&gt;2</title>
<path fill="none" stroke="black" d="M174.27,-358.18C168.13,-347.27 159.57,-333.65 150.03,-323 144.84,-317.2 138.61,-311.62 132.5,-306.68"/>
<polygon fill="black" stroke="black" points="134.4,-303.72 124.34,-300.39 130.12,-309.27 134.4,-303.72"/>
<text text-anchor="middle" x="165.03" y="-326.8" font-family="Times,serif" font-size="14.00">2</text>
</g>
<!-- 4&#45;&gt;3 -->
<g id="edge22" class="edge">
<title>4&#45;&gt;3</title>
<path fill="none" stroke="black" d="M204.61,-369C233.08,-356.43 281.03,-329.14 281.03,-288 281.03,-288 281.03,-288 281.03,-112 281.03,-70.02 232.31,-44.8 198.85,-32.42"/>
<polygon fill="black" stroke="black" points="199.62,-28.99 189.02,-28.99 197.31,-35.59 199.62,-28.99"/>
<text text-anchor="middle" x="286.03" y="-196.3" font-family="Times,serif" font-size="14.00">3</text>
</g>
</g>
</svg>
