<?xml version="1.0" encoding="UTF-8" standalone="no"?>
<!DOCTYPE svg PUBLIC "-//W3C//DTD SVG 1.1//EN"
 "http://www.w3.org/Graphics/SVG/1.1/DTD/svg11.dtd">
<!-- Generated by graphviz version 2.49.0 (20210829.0051)
 -->
<!-- Pages: 1 -->
<svg width="416pt" height="481pt"
 viewBox="0.00 0.00 416.00 481.00" xmlns="http://www.w3.org/2000/svg" xmlns:xlink="http://www.w3.org/1999/xlink">
<g id="graph0" class="graph" transform="scale(1 1) rotate(0) translate(4 477)">
<polygon fill="white" stroke="transparent" points="-4,4 -4,-477 412,-477 412,4 -4,4"/>
<!-- fake -->
<g id="node1" class="node">
<title>fake</title>
</g>
<!-- 4 -->
<g id="node6" class="node">
<title>4</title>
<ellipse fill="none" stroke="black" cx="230" cy="-382" rx="27" ry="18"/>
<text text-anchor="middle" x="230" y="-378.3" font-family="Times,serif" font-size="14.00">4</text>
</g>
<!-- fake&#45;&gt;4 -->
<g id="edge1" class="edge">
<title>fake&#45;&gt;4</title>
<path fill="none" stroke="black" stroke-width="2" d="M230,-436.81C230,-428.79 230,-419.05 230,-410.07"/>
<polygon fill="black" stroke="black" stroke-width="2" points="233.5,-410.03 230,-400.03 226.5,-410.03 233.5,-410.03"/>
</g>
<!-- 0 -->
<g id="node2" class="node">
<title>0</title>
<ellipse fill="none" stroke="black" cx="27" cy="-200" rx="27" ry="18"/>
<text text-anchor="middle" x="27" y="-196.3" font-family="Times,serif" font-size="14.00">0</text>
</g>
<!-- 0&#45;&gt;0 -->
<g id="edge10" class="edge">
<title>0&#45;&gt;0</title>
<path fill="none" stroke="black" d="M53.79,-203.93C63.78,-204.06 72,-202.75 72,-200 72,-198.28 68.79,-197.13 63.94,-196.53"/>
<polygon fill="black" stroke="black" points="63.94,-193.03 53.79,-196.07 63.63,-200.02 63.94,-193.03"/>
<text text-anchor="middle" x="77" y="-196.3" font-family="Times,serif" font-size="14.00">4</text>
</g>
<!-- 0&#45;&gt;0 -->
<g id="edge22" class="edge">
<title>0&#45;&gt;0</title>
<path fill="none" stroke="black" d="M52.23,-206.94C71.04,-209.37 90,-207.05 90,-200 90,-194.21 77.24,-191.62 62.27,-192.21"/>
<polygon fill="black" stroke="black" points="61.9,-188.73 52.23,-193.06 62.49,-195.7 61.9,-188.73"/>
<text text-anchor="middle" x="95" y="-196.3" font-family="Times,serif" font-size="14.00">2</text>
</g>
<!-- 2 -->
<g id="node4" class="node">
<title>2</title>
<ellipse fill="none" stroke="black" cx="211" cy="-109" rx="18" ry="18"/>
<ellipse fill="none" stroke="black" cx="211" cy="-109" rx="22" ry="22"/>
<text text-anchor="middle" x="211" y="-105.3" font-family="Times,serif" font-size="14.00">2</text>
</g>
<!-- 0&#45;&gt;2 -->
<g id="edge24" class="edge">
<title>0&#45;&gt;2</title>
<path fill="none" stroke="black" d="M39.3,-183.38C48.78,-172.32 62.81,-157.91 78,-149 109.66,-130.44 150.8,-120.15 178.89,-114.87"/>
<polygon fill="black" stroke="black" points="179.73,-118.27 188.97,-113.08 178.51,-111.38 179.73,-118.27"/>
<text text-anchor="middle" x="83" y="-152.8" font-family="Times,serif" font-size="14.00">0</text>
</g>
<!-- 3 -->
<g id="node5" class="node">
<title>3</title>
<ellipse fill="none" stroke="black" cx="244" cy="-18" rx="27" ry="18"/>
<text text-anchor="middle" x="244" y="-14.3" font-family="Times,serif" font-size="14.00">3</text>
</g>
<!-- 0&#45;&gt;3 -->
<g id="edge16" class="edge">
<title>0&#45;&gt;3</title>
<path fill="none" stroke="black" d="M33.9,-182.47C38.77,-172.09 46.02,-158.85 55,-149 102.2,-97.24 173.77,-55.23 213.93,-34.02"/>
<polygon fill="black" stroke="black" points="215.7,-37.04 222.96,-29.32 212.47,-30.83 215.7,-37.04"/>
<text text-anchor="middle" x="131" y="-105.3" font-family="Times,serif" font-size="14.00">1</text>
</g>
<!-- 0&#45;&gt;4 -->
<g id="edge18" class="edge">
<title>0&#45;&gt;4</title>
<path fill="none" stroke="black" d="M31.96,-218.09C39.58,-241.85 56.18,-285.11 83,-313 113.6,-344.82 161.96,-363.19 194.78,-372.64"/>
<polygon fill="black" stroke="black" points="194.28,-376.13 204.85,-375.39 196.13,-369.38 194.28,-376.13"/>
<text text-anchor="middle" x="88" y="-287.3" font-family="Times,serif" font-size="14.00">3</text>
</g>
<!-- 1 -->
<g id="node3" class="node">
<title>1</title>
<ellipse fill="none" stroke="black" cx="124" cy="-291" rx="18" ry="18"/>
<ellipse fill="none" stroke="black" cx="124" cy="-291" rx="22" ry="22"/>
<text text-anchor="middle" x="124" y="-287.3" font-family="Times,serif" font-size="14.00">1</text>
</g>
<!-- 1&#45;&gt;0 -->
<g id="edge19" class="edge">
<title>1&#45;&gt;0</title>
<path fill="none" stroke="black" d="M114.34,-271.16C107.96,-259.99 98.78,-246.08 88,-236 79.26,-227.83 68.27,-220.78 58.04,-215.2"/>
<polygon fill="black" stroke="black" points="59.43,-211.98 48.94,-210.49 56.21,-218.2 59.43,-211.98"/>
<text text-anchor="middle" x="105" y="-239.8" font-family="Times,serif" font-size="14.00">1</text>
</g>
<!-- 1&#45;&gt;1 -->
<g id="edge6" class="edge">
<title>1&#45;&gt;1</title>
<path fill="none" stroke="black" d="M145.81,-295.25C155.56,-295.65 164,-294.23 164,-291 164,-288.98 160.7,-287.67 155.85,-287.07"/>
<polygon fill="black" stroke="black" points="155.91,-283.57 145.81,-286.75 155.69,-290.56 155.91,-283.57"/>
<text text-anchor="middle" x="169" y="-287.3" font-family="Times,serif" font-size="14.00">4</text>
</g>
<!-- 1&#45;&gt;1 -->
<g id="edge8" class="edge">
<title>1&#45;&gt;1</title>
<path fill="none" stroke="black" d="M144.81,-298.2C162.88,-301.49 182,-299.09 182,-291 182,-284.43 169.38,-281.61 154.96,-282.55"/>
<polygon fill="black" stroke="black" points="154.31,-279.1 144.81,-283.8 155.17,-286.05 154.31,-279.1"/>
<text text-anchor="middle" x="187" y="-287.3" font-family="Times,serif" font-size="14.00">0</text>
</g>
<!-- 1&#45;&gt;2 -->
<g id="edge7" class="edge">
<title>1&#45;&gt;2</title>
<path fill="none" stroke="black" d="M128.64,-269.43C135.82,-240.62 151.62,-187.49 178,-149 181.53,-143.84 185.62,-138.57 189.69,-133.64"/>
<polygon fill="black" stroke="black" points="192.6,-135.62 196.42,-125.73 187.28,-131.08 192.6,-135.62"/>
<text text-anchor="middle" x="163" y="-196.3" font-family="Times,serif" font-size="14.00">2</text>
</g>
<!-- 1&#45;&gt;2 -->
<g id="edge15" class="edge">
<title>1&#45;&gt;2</title>
<path fill="none" stroke="black" d="M136.07,-272.24C140.51,-265.62 145.55,-258 150,-251 159.2,-236.53 162.48,-233.41 170,-218 182.51,-192.36 193.77,-161.88 201.31,-139.85"/>
<polygon fill="black" stroke="black" points="204.63,-140.96 204.51,-130.37 198,-138.72 204.63,-140.96"/>
<text text-anchor="middle" x="190" y="-196.3" font-family="Times,serif" font-size="14.00">3</text>
</g>
<!-- 2&#45;&gt;0 -->
<g id="edge20" class="edge">
<title>2&#45;&gt;0</title>
<path fill="none" stroke="black" d="M191.02,-118.27C172.86,-125.91 145.41,-137.73 122,-149 99.59,-159.79 74.73,-172.92 56.06,-183.01"/>
<polygon fill="black" stroke="black" points="54.29,-180 47.17,-187.85 57.63,-186.15 54.29,-180"/>
<text text-anchor="middle" x="127" y="-152.8" font-family="Times,serif" font-size="14.00">0</text>
</g>
<!-- 2&#45;&gt;2 -->
<g id="edge2" class="edge">
<title>2&#45;&gt;2</title>
<path fill="none" stroke="black" d="M232.81,-113.25C242.56,-113.65 251,-112.23 251,-109 251,-106.98 247.7,-105.67 242.85,-105.07"/>
<polygon fill="black" stroke="black" points="242.91,-101.57 232.81,-104.75 242.69,-108.56 242.91,-101.57"/>
<text text-anchor="middle" x="256" y="-105.3" font-family="Times,serif" font-size="14.00">4</text>
</g>
<!-- 2&#45;&gt;2 -->
<g id="edge17" class="edge">
<title>2&#45;&gt;2</title>
<path fill="none" stroke="black" d="M231.81,-116.2C249.88,-119.49 269,-117.09 269,-109 269,-102.43 256.38,-99.61 241.96,-100.55"/>
<polygon fill="black" stroke="black" points="241.31,-97.1 231.81,-101.8 242.17,-104.05 241.31,-97.1"/>
<text text-anchor="middle" x="274" y="-105.3" font-family="Times,serif" font-size="14.00">3</text>
</g>
<!-- 2&#45;&gt;3 -->
<g id="edge3" class="edge">
<title>2&#45;&gt;3</title>
<path fill="none" stroke="black" d="M208,-87.06C207.36,-76.76 207.87,-64.36 212,-54 213.97,-49.06 216.98,-44.39 220.39,-40.16"/>
<polygon fill="black" stroke="black" points="223.11,-42.37 227.25,-32.62 217.93,-37.66 223.11,-42.37"/>
<text text-anchor="middle" x="217" y="-57.8" font-family="Times,serif" font-size="14.00">2</text>
</g>
<!-- 2&#45;&gt;4 -->
<g id="edge12" class="edge">
<title>2&#45;&gt;4</title>
<path fill="none" stroke="black" d="M220.74,-129.01C223.53,-135.23 226.28,-142.27 228,-149 248.13,-227.56 238.39,-249.95 241,-331 241.21,-337.66 242.01,-339.41 241,-346 240.58,-348.74 239.98,-351.56 239.29,-354.35"/>
<polygon fill="black" stroke="black" points="235.87,-353.58 236.43,-364.16 242.59,-355.53 235.87,-353.58"/>
<text text-anchor="middle" x="246" y="-239.8" font-family="Times,serif" font-size="14.00">1</text>
</g>
<!-- 3&#45;&gt;2 -->
<g id="edge11" class="edge">
<title>3&#45;&gt;2</title>
<path fill="none" stroke="black" d="M237.81,-35.71C233.31,-47.82 227.12,-64.52 221.82,-78.82"/>
<polygon fill="black" stroke="black" points="218.52,-77.65 218.32,-88.25 225.08,-80.09 218.52,-77.65"/>
<text text-anchor="middle" x="235" y="-57.8" font-family="Times,serif" font-size="14.00">3</text>
</g>
<!-- 3&#45;&gt;3 -->
<g id="edge9" class="edge">
<title>3&#45;&gt;3</title>
<path fill="none" stroke="black" d="M270.79,-21.93C280.78,-22.06 289,-20.75 289,-18 289,-16.28 285.79,-15.13 280.94,-14.53"/>
<polygon fill="black" stroke="black" points="280.94,-11.03 270.79,-14.07 280.63,-18.02 280.94,-11.03"/>
<text text-anchor="middle" x="294" y="-14.3" font-family="Times,serif" font-size="14.00">0</text>
</g>
<!-- 3&#45;&gt;3 -->
<g id="edge14" class="edge">
<title>3&#45;&gt;3</title>
<path fill="none" stroke="black" d="M269.23,-24.94C288.04,-27.37 307,-25.05 307,-18 307,-12.21 294.24,-9.62 279.27,-10.21"/>
<polygon fill="black" stroke="black" points="278.9,-6.73 269.23,-11.06 279.49,-13.7 278.9,-6.73"/>
<text text-anchor="middle" x="312" y="-14.3" font-family="Times,serif" font-size="14.00">2</text>
</g>
<!-- 3&#45;&gt;4 -->
<g id="edge4" class="edge">
<title>3&#45;&gt;4</title>
<path fill="none" stroke="black" d="M267.97,-26.71C299.79,-38.62 352,-64.75 352,-108 352,-292 352,-292 352,-292 352,-335.5 300.76,-359.99 264.7,-371.85"/>
<polygon fill="black" stroke="black" points="263.5,-368.56 254.98,-374.86 265.57,-375.24 263.5,-368.56"/>
<text text-anchor="middle" x="357" y="-196.3" font-family="Times,serif" font-size="14.00">1</text>
</g>
<!-- 3&#45;&gt;4 -->
<g id="edge26" class="edge">
<title>3&#45;&gt;4</title>
<path fill="none" stroke="black" d="M270.47,-22.16C314.5,-29.05 398,-49.79 398,-108 398,-292 398,-292 398,-292 398,-351.01 316.06,-371.01 266.63,-377.7"/>
<polygon fill="black" stroke="black" points="266.12,-374.24 256.62,-378.94 266.97,-381.18 266.12,-374.24"/>
<text text-anchor="middle" x="403" y="-196.3" font-family="Times,serif" font-size="14.00">4</text>
</g>
<!-- 4&#45;&gt;0 -->
<g id="edge13" class="edge">
<title>4&#45;&gt;0</title>
<path fill="none" stroke="black" d="M203.53,-378.28C161.63,-373.54 82.46,-362.63 60,-346 24.05,-319.39 21.64,-262.39 23.85,-228.31"/>
<polygon fill="black" stroke="black" points="27.35,-228.38 24.69,-218.13 20.38,-227.8 27.35,-228.38"/>
<text text-anchor="middle" x="40" y="-287.3" font-family="Times,serif" font-size="14.00">2</text>
</g>
<!-- 4&#45;&gt;1 -->
<g id="edge23" class="edge">
<title>4&#45;&gt;1</title>
<path fill="none" stroke="black" d="M206.82,-372.68C192.53,-366.76 174.43,-357.78 161,-346 152.45,-338.51 144.93,-328.62 138.95,-319.36"/>
<polygon fill="black" stroke="black" points="141.9,-317.48 133.69,-310.77 135.93,-321.13 141.9,-317.48"/>
<text text-anchor="middle" x="166" y="-334.8" font-family="Times,serif" font-size="14.00">4</text>
</g>
<!-- 4&#45;&gt;1 -->
<g id="edge25" class="edge">
<title>4&#45;&gt;1</title>
<path fill="none" stroke="black" d="M214.01,-367.37C202.16,-357.29 185.61,-343.25 171,-331 163.76,-324.93 155.86,-318.36 148.65,-312.37"/>
<polygon fill="black" stroke="black" points="150.5,-309.36 140.57,-305.68 146.03,-314.75 150.5,-309.36"/>
<text text-anchor="middle" x="192" y="-334.8" font-family="Times,serif" font-size="14.00">0</text>
</g>
<!-- 4&#45;&gt;2 -->
<g id="edge5" class="edge">
<title>4&#45;&gt;2</title>
<path fill="none" stroke="black" d="M228.78,-363.64C225.64,-318.86 217.24,-198.98 213.21,-141.53"/>
<polygon fill="black" stroke="black" points="216.68,-140.97 212.49,-131.24 209.7,-141.46 216.68,-140.97"/>
<text text-anchor="middle" x="225" y="-239.8" font-family="Times,serif" font-size="14.00">3</text>
</g>
<!-- 4&#45;&gt;2 -->
<g id="edge21" class="edge">
<title>4&#45;&gt;2</title>
<path fill="none" stroke="black" d="M243.73,-366.12C248.23,-360.28 252.68,-353.25 255,-346 277.25,-276.57 262.32,-254.03 251,-182 248.66,-167.09 249.73,-162.51 243,-149 240.25,-143.48 236.58,-138.04 232.72,-133.06"/>
<polygon fill="black" stroke="black" points="235.25,-130.62 226.16,-125.17 229.87,-135.1 235.25,-130.62"/>
<text text-anchor="middle" x="268" y="-239.8" font-family="Times,serif" font-size="14.00">1</text>
</g>
</g>
</svg>
