<?xml version="1.0" encoding="UTF-8" standalone="no"?>
<!DOCTYPE svg PUBLIC "-//W3C//DTD SVG 1.1//EN"
 "http://www.w3.org/Graphics/SVG/1.1/DTD/svg11.dtd">
<!-- Generated by graphviz version 13.0.1 (20250616.1512)
 -->
<!-- Pages: 1 -->
<svg width="292pt" height="490pt"
 viewBox="0.00 0.00 292.00 490.00" xmlns="http://www.w3.org/2000/svg" xmlns:xlink="http://www.w3.org/1999/xlink">
<g id="graph0" class="graph" transform="scale(1 1) rotate(0) translate(4 486)">
<polygon fill="white" stroke="none" points="-4,4 -4,-486 287.88,-486 287.88,4 -4,4"/>
<!-- fake -->
<g id="node1" class="node">
<title>fake</title>
</g>
<!-- 0 -->
<g id="node2" class="node">
<title>0</title>
<ellipse fill="none" stroke="black" cx="148.88" cy="-387" rx="18" ry="18"/>
<ellipse fill="none" stroke="black" cx="148.88" cy="-387" rx="22" ry="22"/>
<text xml:space="preserve" text-anchor="middle" x="148.88" y="-382.32" font-family="Times,serif" font-size="14.00">0</text>
</g>
<!-- fake&#45;&gt;0 -->
<g id="edge1" class="edge">
<title>fake&#45;&gt;0</title>
<path fill="none" stroke="black" stroke-width="2" d="M148.88,-445.6C148.88,-438.17 148.88,-429.23 148.88,-420.64"/>
<polygon fill="black" stroke="black" stroke-width="2" points="152.38,-422.34 148.88,-412.34 145.38,-422.34 152.38,-422.34"/>
</g>
<!-- 1 -->
<g id="node3" class="node">
<title>1</title>
<ellipse fill="none" stroke="black" cx="98.88" cy="-293.75" rx="27" ry="18"/>
<text xml:space="preserve" text-anchor="middle" x="98.88" y="-289.07" font-family="Times,serif" font-size="14.00">1</text>
</g>
<!-- 0&#45;&gt;1 -->
<g id="edge11" class="edge">
<title>0&#45;&gt;1</title>
<path fill="none" stroke="black" d="M127.17,-381.89C108.38,-377.06 82.32,-367.01 69.88,-347 63.82,-337.25 68.42,-326.17 75.59,-316.73"/>
<polygon fill="black" stroke="black" points="78.04,-319.24 82,-309.41 72.77,-314.63 78.04,-319.24"/>
<text xml:space="preserve" text-anchor="middle" x="74.38" y="-333.7" font-family="Times,serif" font-size="14.00">2</text>
</g>
<!-- 0&#45;&gt;1 -->
<g id="edge15" class="edge">
<title>0&#45;&gt;1</title>
<path fill="none" stroke="black" d="M129.97,-375.59C119.75,-368.86 108,-359.11 101.88,-347 98.29,-339.89 96.81,-331.52 96.41,-323.59"/>
<polygon fill="black" stroke="black" points="99.91,-323.66 96.49,-313.63 92.91,-323.6 99.91,-323.66"/>
<text xml:space="preserve" text-anchor="middle" x="106.38" y="-333.7" font-family="Times,serif" font-size="14.00">0</text>
</g>
<!-- 0&#45;&gt;1 -->
<g id="edge16" class="edge">
<title>0&#45;&gt;1</title>
<path fill="none" stroke="black" d="M138.52,-367.09C131.25,-353.82 121.42,-335.89 113.37,-321.2"/>
<polygon fill="black" stroke="black" points="116.49,-319.6 108.62,-312.51 110.35,-322.96 116.49,-319.6"/>
<text xml:space="preserve" text-anchor="middle" x="131.38" y="-333.7" font-family="Times,serif" font-size="14.00">1</text>
</g>
<!-- 0&#45;&gt;1 -->
<g id="edge21" class="edge">
<title>0&#45;&gt;1</title>
<path fill="none" stroke="black" d="M148.92,-364.55C148.11,-353.54 145.79,-340.27 139.88,-329.75 136.54,-323.79 131.76,-318.38 126.65,-313.7"/>
<polygon fill="black" stroke="black" points="129.03,-311.12 119.08,-307.48 124.59,-316.53 129.03,-311.12"/>
<text xml:space="preserve" text-anchor="middle" x="150.47" y="-333.7" font-family="Times,serif" font-size="14.00">4</text>
</g>
<!-- 4 -->
<g id="node6" class="node">
<title>4</title>
<ellipse fill="none" stroke="black" cx="163.88" cy="-111.25" rx="18" ry="18"/>
<ellipse fill="none" stroke="black" cx="163.88" cy="-111.25" rx="22" ry="22"/>
<text xml:space="preserve" text-anchor="middle" x="163.88" y="-106.58" font-family="Times,serif" font-size="14.00">4</text>
</g>
<!-- 0&#45;&gt;4 -->
<g id="edge18" class="edge">
<title>0&#45;&gt;4</title>
<path fill="none" stroke="black" d="M169.34,-377.74C182.09,-371.4 197.42,-361.28 204.88,-347 245.15,-269.88 239.18,-231.21 204.88,-151.25 201.71,-143.85 196.36,-137.19 190.56,-131.56"/>
<polygon fill="black" stroke="black" points="192.93,-128.97 183.08,-125.06 188.34,-134.26 192.93,-128.97"/>
<text xml:space="preserve" text-anchor="middle" x="237.39" y="-244.45" font-family="Times,serif" font-size="14.00">3</text>
</g>
<!-- 1&#45;&gt;1 -->
<g id="edge17" class="edge">
<title>1&#45;&gt;1</title>
<path fill="none" stroke="black" d="M123.42,-301.99C134.39,-302.77 143.88,-300.03 143.88,-293.75 143.88,-289.83 140.17,-287.28 134.71,-286.12"/>
<polygon fill="black" stroke="black" points="135.1,-282.64 124.93,-285.59 134.72,-289.63 135.1,-282.64"/>
<text xml:space="preserve" text-anchor="middle" x="148.38" y="-289.07" font-family="Times,serif" font-size="14.00">1</text>
</g>
<!-- 2 -->
<g id="node4" class="node">
<title>2</title>
<ellipse fill="none" stroke="black" cx="70.88" cy="-204.5" rx="27" ry="18"/>
<text xml:space="preserve" text-anchor="middle" x="70.88" y="-199.82" font-family="Times,serif" font-size="14.00">2</text>
</g>
<!-- 1&#45;&gt;2 -->
<g id="edge6" class="edge">
<title>1&#45;&gt;2</title>
<path fill="none" stroke="black" d="M74.06,-286.07C59.9,-280.85 43.34,-272.02 34.88,-257.75 28.45,-246.9 34.97,-235.31 44.14,-225.81"/>
<polygon fill="black" stroke="black" points="46.48,-228.41 51.51,-219.08 41.76,-223.24 46.48,-228.41"/>
<text xml:space="preserve" text-anchor="middle" x="39.38" y="-244.45" font-family="Times,serif" font-size="14.00">0</text>
</g>
<!-- 1&#45;&gt;2 -->
<g id="edge14" class="edge">
<title>1&#45;&gt;2</title>
<path fill="none" stroke="black" d="M83.08,-278.98C77.48,-273.07 71.83,-265.71 68.88,-257.75 66.12,-250.29 65.49,-241.81 65.84,-233.89"/>
<polygon fill="black" stroke="black" points="69.32,-234.3 66.85,-224 62.36,-233.59 69.32,-234.3"/>
<text xml:space="preserve" text-anchor="middle" x="73.38" y="-244.45" font-family="Times,serif" font-size="14.00">3</text>
</g>
<!-- 3 -->
<g id="node5" class="node">
<title>3</title>
<ellipse fill="none" stroke="black" cx="112.88" cy="-18" rx="27" ry="18"/>
<text xml:space="preserve" text-anchor="middle" x="112.88" y="-13.32" font-family="Times,serif" font-size="14.00">3</text>
</g>
<!-- 1&#45;&gt;3 -->
<g id="edge7" class="edge">
<title>1&#45;&gt;3</title>
<path fill="none" stroke="black" d="M73.66,-286.7C58.02,-281.61 38.88,-272.7 27.88,-257.75 -16.67,-197.18 3.51,-163.85 12.88,-89.25 14.9,-73.21 11.14,-66.08 21.88,-54 35.57,-38.6 56.82,-29.93 75.34,-25.08"/>
<polygon fill="black" stroke="black" points="76,-28.52 84.96,-22.86 74.43,-21.7 76,-28.52"/>
<text xml:space="preserve" text-anchor="middle" x="7.27" y="-155.2" font-family="Times,serif" font-size="14.00">4</text>
</g>
<!-- 1&#45;&gt;4 -->
<g id="edge12" class="edge">
<title>1&#45;&gt;4</title>
<path fill="none" stroke="black" d="M107.79,-276.6C110.86,-270.75 114.19,-264.03 116.88,-257.75 133.21,-219.62 147.12,-173.83 155.48,-143.94"/>
<polygon fill="black" stroke="black" points="158.82,-144.96 158.1,-134.39 152.07,-143.1 158.82,-144.96"/>
<text xml:space="preserve" text-anchor="middle" x="146.83" y="-199.82" font-family="Times,serif" font-size="14.00">2</text>
</g>
<!-- 2&#45;&gt;0 -->
<g id="edge23" class="edge">
<title>2&#45;&gt;0</title>
<path fill="none" stroke="black" d="M50.67,-216.41C41.96,-222.28 32.68,-230.42 27.88,-240.5 6.49,-285.5 28.58,-310.86 62.88,-347 77.3,-362.19 98.75,-371.93 116.61,-377.88"/>
<polygon fill="black" stroke="black" points="115.42,-381.18 126.01,-380.74 117.46,-374.48 115.42,-381.18"/>
<text xml:space="preserve" text-anchor="middle" x="36.83" y="-289.07" font-family="Times,serif" font-size="14.00">2</text>
</g>
<!-- 2&#45;&gt;1 -->
<g id="edge13" class="edge">
<title>2&#45;&gt;1</title>
<path fill="none" stroke="black" d="M76.36,-222.57C80.23,-234.62 85.5,-251.04 89.97,-264.97"/>
<polygon fill="black" stroke="black" points="86.63,-266.03 93.02,-274.49 93.3,-263.89 86.63,-266.03"/>
<text xml:space="preserve" text-anchor="middle" x="91.89" y="-244.45" font-family="Times,serif" font-size="14.00">0</text>
</g>
<!-- 2&#45;&gt;1 -->
<g id="edge26" class="edge">
<title>2&#45;&gt;1</title>
<path fill="none" stroke="black" d="M86.68,-219.27C92.29,-225.18 97.94,-232.54 100.88,-240.5 103.64,-247.96 104.28,-256.44 103.92,-264.36"/>
<polygon fill="black" stroke="black" points="100.45,-263.95 102.92,-274.25 107.41,-264.66 100.45,-263.95"/>
<text xml:space="preserve" text-anchor="middle" x="108.45" y="-244.45" font-family="Times,serif" font-size="14.00">3</text>
</g>
<!-- 2&#45;&gt;3 -->
<g id="edge2" class="edge">
<title>2&#45;&gt;3</title>
<path fill="none" stroke="black" d="M55.67,-189.38C49.67,-183.32 43,-175.93 37.88,-168.5 17.46,-138.82 12.86,-124.37 20.88,-89.25 24.76,-72.29 25.51,-66.22 37.88,-54 48.86,-43.17 63.81,-35.27 77.48,-29.74"/>
<polygon fill="black" stroke="black" points="78.49,-33.1 86.64,-26.34 76.05,-26.54 78.49,-33.1"/>
<text xml:space="preserve" text-anchor="middle" x="25.38" y="-106.58" font-family="Times,serif" font-size="14.00">4</text>
</g>
<!-- 2&#45;&gt;4 -->
<g id="edge20" class="edge">
<title>2&#45;&gt;4</title>
<path fill="none" stroke="black" d="M81.37,-187.47C88.89,-176.61 99.63,-162.29 110.88,-151.25 118.58,-143.69 127.82,-136.4 136.4,-130.21"/>
<polygon fill="black" stroke="black" points="138.26,-133.19 144.47,-124.6 134.26,-127.44 138.26,-133.19"/>
<text xml:space="preserve" text-anchor="middle" x="115.38" y="-155.2" font-family="Times,serif" font-size="14.00">1</text>
</g>
<!-- 3&#45;&gt;0 -->
<g id="edge24" class="edge">
<title>3&#45;&gt;0</title>
<path fill="none" stroke="black" d="M139.63,-21.84C185.65,-28.36 274.88,-48.92 274.88,-110.25 274.88,-294.75 274.88,-294.75 274.88,-294.75 274.88,-340.89 218.78,-366.08 181.44,-377.74"/>
<polygon fill="black" stroke="black" points="180.61,-374.34 172,-380.51 182.58,-381.06 180.61,-374.34"/>
<text xml:space="preserve" text-anchor="middle" x="279.38" y="-199.82" font-family="Times,serif" font-size="14.00">3</text>
</g>
<!-- 3&#45;&gt;2 -->
<g id="edge4" class="edge">
<title>3&#45;&gt;2</title>
<path fill="none" stroke="black" d="M98.37,-33.6C86.49,-46.82 70.85,-67.51 65.88,-89.25 59.33,-117.93 62.04,-151.68 65.48,-175.03"/>
<polygon fill="black" stroke="black" points="62,-175.41 67.06,-184.72 68.9,-174.28 62,-175.41"/>
<text xml:space="preserve" text-anchor="middle" x="70.38" y="-106.58" font-family="Times,serif" font-size="14.00">4</text>
</g>
<!-- 3&#45;&gt;2 -->
<g id="edge25" class="edge">
<title>3&#45;&gt;2</title>
<path fill="none" stroke="black" d="M108.95,-36.25C101.7,-68.13 86.13,-136.53 77.31,-175.25"/>
<polygon fill="black" stroke="black" points="73.9,-174.47 75.09,-185 80.73,-176.02 73.9,-174.47"/>
<text xml:space="preserve" text-anchor="middle" x="101.24" y="-106.58" font-family="Times,serif" font-size="14.00">0</text>
</g>
<!-- 3&#45;&gt;4 -->
<g id="edge8" class="edge">
<title>3&#45;&gt;4</title>
<path fill="none" stroke="black" d="M137.03,-26.69C149.82,-32.14 164.4,-40.86 171.88,-54 176.26,-61.69 176.59,-70.89 175.17,-79.61"/>
<polygon fill="black" stroke="black" points="171.81,-78.6 172.84,-89.15 178.61,-80.26 171.81,-78.6"/>
<text xml:space="preserve" text-anchor="middle" x="180.41" y="-57.95" font-family="Times,serif" font-size="14.00">2</text>
</g>
<!-- 3&#45;&gt;4 -->
<g id="edge10" class="edge">
<title>3&#45;&gt;4</title>
<path fill="none" stroke="black" d="M117.05,-36.15C120.03,-46.69 124.62,-60.24 130.88,-71.25 133.82,-76.42 137.48,-81.55 141.29,-86.32"/>
<polygon fill="black" stroke="black" points="138.5,-88.44 147.65,-93.79 143.83,-83.9 138.5,-88.44"/>
<text xml:space="preserve" text-anchor="middle" x="135.38" y="-57.95" font-family="Times,serif" font-size="14.00">1</text>
</g>
<!-- 4&#45;&gt;0 -->
<g id="edge19" class="edge">
<title>4&#45;&gt;0</title>
<path fill="none" stroke="black" d="M164.53,-133.7C164.68,-139.41 164.81,-145.56 164.88,-151.25 164.98,-158.92 164.96,-160.83 164.88,-168.5 164.42,-212.85 167.1,-298.54 158.88,-347 158.46,-349.46 157.97,-352 157.42,-354.54"/>
<polygon fill="black" stroke="black" points="154.08,-353.48 155.17,-364.02 160.89,-355.1 154.08,-353.48"/>
<text xml:space="preserve" text-anchor="middle" x="169.42" y="-244.45" font-family="Times,serif" font-size="14.00">4</text>
</g>
<!-- 4&#45;&gt;2 -->
<g id="edge3" class="edge">
<title>4&#45;&gt;2</title>
<path fill="none" stroke="black" d="M151.97,-130.06C143.72,-141.69 132.06,-156.84 119.88,-168.5 113.65,-174.46 106.35,-180.22 99.31,-185.28"/>
<polygon fill="black" stroke="black" points="97.49,-182.28 91.25,-190.85 101.47,-188.05 97.49,-182.28"/>
<text xml:space="preserve" text-anchor="middle" x="139.04" y="-155.2" font-family="Times,serif" font-size="14.00">1</text>
</g>
<!-- 4&#45;&gt;3 -->
<g id="edge22" class="edge">
<title>4&#45;&gt;3</title>
<path fill="none" stroke="black" d="M156.73,-90.13C152.47,-79.13 146.59,-65.45 139.88,-54 137.74,-50.34 135.26,-46.63 132.7,-43.06"/>
<polygon fill="black" stroke="black" points="135.62,-41.13 126.78,-35.29 130.05,-45.37 135.62,-41.13"/>
<text xml:space="preserve" text-anchor="middle" x="152.88" y="-57.95" font-family="Times,serif" font-size="14.00">3</text>
</g>
<!-- 4&#45;&gt;4 -->
<g id="edge5" class="edge">
<title>4&#45;&gt;4</title>
<path fill="none" stroke="black" d="M185.69,-115.74C195.45,-116.16 203.88,-114.67 203.88,-111.25 203.88,-109.33 201.21,-108.01 197.14,-107.31"/>
<polygon fill="black" stroke="black" points="197.36,-103.81 187.2,-106.83 197.02,-110.8 197.36,-103.81"/>
<text xml:space="preserve" text-anchor="middle" x="208.38" y="-106.58" font-family="Times,serif" font-size="14.00">2</text>
</g>
<!-- 4&#45;&gt;4 -->
<g id="edge9" class="edge">
<title>4&#45;&gt;4</title>
<path fill="none" stroke="black" d="M185,-118.92C202.98,-122.31 221.88,-119.75 221.88,-111.25 221.88,-104.54 210.11,-101.54 196.31,-102.23"/>
<polygon fill="black" stroke="black" points="196.01,-98.74 186.5,-103.4 196.84,-105.69 196.01,-98.74"/>
<text xml:space="preserve" text-anchor="middle" x="226.38" y="-106.58" font-family="Times,serif" font-size="14.00">0</text>
</g>
</g>
</svg>
