<?xml version="1.0" encoding="UTF-8" standalone="no"?>
<!DOCTYPE svg PUBLIC "-//W3C//DTD SVG 1.1//EN"
 "http://www.w3.org/Graphics/SVG/1.1/DTD/svg11.dtd">
<!-- Generated by graphviz version 2.49.0 (20210829.0051)
 -->
<!-- Pages: 1 -->
<svg width="2707pt" height="2447pt"
 viewBox="0.00 0.00 2707.21 2447.49" xmlns="http://www.w3.org/2000/svg" xmlns:xlink="http://www.w3.org/1999/xlink">
<g id="graph0" class="graph" transform="scale(1 1) rotate(0) translate(4 2443.49)">
<polygon fill="white" stroke="transparent" points="-4,4 -4,-2443.49 2703.21,-2443.49 2703.21,4 -4,4"/>
<!-- fake -->
<g id="node1" class="node">
<title>fake</title>
</g>
<!-- 29 -->
<g id="node31" class="node">
<title>29</title>
<ellipse fill="none" stroke="black" cx="884.21" cy="-2348.49" rx="27" ry="18"/>
<text text-anchor="middle" x="884.21" y="-2344.79" font-family="Times,serif" font-size="14.00">29</text>
</g>
<!-- fake&#45;&gt;29 -->
<g id="edge1" class="edge">
<title>fake&#45;&gt;29</title>
<path fill="none" stroke="black" stroke-width="2" d="M884.21,-2403.3C884.21,-2395.28 884.21,-2385.54 884.21,-2376.56"/>
<polygon fill="black" stroke="black" stroke-width="2" points="887.71,-2376.52 884.21,-2366.52 880.71,-2376.52 887.71,-2376.52"/>
</g>
<!-- 0 -->
<g id="node2" class="node">
<title>0</title>
<ellipse fill="none" stroke="black" cx="1321.21" cy="-1909.49" rx="18" ry="18"/>
<ellipse fill="none" stroke="black" cx="1321.21" cy="-1909.49" rx="22" ry="22"/>
<text text-anchor="middle" x="1321.21" y="-1905.79" font-family="Times,serif" font-size="14.00">0</text>
</g>
<!-- 13 -->
<g id="node15" class="node">
<title>13</title>
<ellipse fill="none" stroke="black" cx="1943.21" cy="-1818.49" rx="27" ry="18"/>
<text text-anchor="middle" x="1943.21" y="-1814.79" font-family="Times,serif" font-size="14.00">13</text>
</g>
<!-- 0&#45;&gt;13 -->
<g id="edge52" class="edge">
<title>0&#45;&gt;13</title>
<path fill="none" stroke="black" d="M1340.76,-1898.53C1349.55,-1894.48 1360.19,-1890.13 1370.21,-1887.49 1440.69,-1868.93 1463.77,-1891.62 1533.21,-1869.49 1546.29,-1865.32 1547.09,-1858.53 1560.21,-1854.49 1624.23,-1834.75 1823.21,-1824.45 1906.24,-1820.92"/>
<polygon fill="black" stroke="black" points="1906.39,-1824.42 1916.24,-1820.5 1906.1,-1817.42 1906.39,-1824.42"/>
<text text-anchor="middle" x="1565.21" y="-1858.29" font-family="Times,serif" font-size="14.00">2</text>
</g>
<!-- 17 -->
<g id="node19" class="node">
<title>17</title>
<ellipse fill="none" stroke="black" cx="1501.21" cy="-366" rx="27" ry="18"/>
<text text-anchor="middle" x="1501.21" y="-362.3" font-family="Times,serif" font-size="14.00">17</text>
</g>
<!-- 0&#45;&gt;17 -->
<g id="edge70" class="edge">
<title>0&#45;&gt;17</title>
<path fill="none" stroke="black" d="M1334.76,-1892.03C1382.96,-1832.83 1543.21,-1630.02 1543.21,-1550.49 1543.21,-1550.49 1543.21,-1550.49 1543.21,-1417.99 1543.21,-1093.45 1501.21,-1013.53 1501.21,-689 1501.21,-689 1501.21,-689 1501.21,-460.75 1501.21,-438.44 1501.21,-413.13 1501.21,-394.45"/>
<polygon fill="black" stroke="black" points="1504.71,-394.28 1501.21,-384.28 1497.71,-394.28 1504.71,-394.28"/>
<text text-anchor="middle" x="1536.21" y="-1136.79" font-family="Times,serif" font-size="14.00">1</text>
</g>
<!-- 18 -->
<g id="node20" class="node">
<title>18</title>
<ellipse fill="none" stroke="black" cx="888.21" cy="-279" rx="27" ry="18"/>
<text text-anchor="middle" x="888.21" y="-275.3" font-family="Times,serif" font-size="14.00">18</text>
</g>
<!-- 0&#45;&gt;18 -->
<g id="edge47" class="edge">
<title>0&#45;&gt;18</title>
<path fill="none" stroke="black" d="M1304.98,-1894.12C1256.81,-1851.55 1110.28,-1722.54 986.21,-1618.49 955.83,-1593.01 728.38,-1428.2 709.21,-1393.49 671.66,-1325.49 706.14,-1295.57 688.21,-1219.99 667.3,-1131.87 565.77,-925.72 550.21,-836.5 529.67,-718.76 698.92,-440 775.21,-348 796.63,-322.17 830.55,-303.63 855.65,-292.5"/>
<polygon fill="black" stroke="black" points="857.3,-295.6 865.13,-288.46 854.55,-289.16 857.3,-295.6"/>
<text text-anchor="middle" x="656.21" y="-1084.54" font-family="Times,serif" font-size="14.00">3</text>
</g>
<!-- 24 -->
<g id="node26" class="node">
<title>24</title>
<ellipse fill="none" stroke="black" cx="1150.21" cy="-1183.99" rx="27" ry="18"/>
<text text-anchor="middle" x="1150.21" y="-1180.29" font-family="Times,serif" font-size="14.00">24</text>
</g>
<!-- 0&#45;&gt;24 -->
<g id="edge122" class="edge">
<title>0&#45;&gt;24</title>
<path fill="none" stroke="black" d="M1324.57,-1887.58C1335.96,-1812.07 1369.33,-1546.96 1313.21,-1339.99 1297.17,-1280.83 1291.93,-1259.68 1245.21,-1219.99 1228.4,-1205.72 1205.25,-1197.03 1186.02,-1191.88"/>
<polygon fill="black" stroke="black" points="1186.63,-1188.42 1176.08,-1189.43 1184.95,-1195.22 1186.63,-1188.42"/>
<text text-anchor="middle" x="1348.21" y="-1545.79" font-family="Times,serif" font-size="14.00">4</text>
</g>
<!-- 28 -->
<g id="node30" class="node">
<title>28</title>
<ellipse fill="none" stroke="black" cx="1047.21" cy="-1462.49" rx="27" ry="18"/>
<text text-anchor="middle" x="1047.21" y="-1458.79" font-family="Times,serif" font-size="14.00">28</text>
</g>
<!-- 0&#45;&gt;28 -->
<g id="edge18" class="edge">
<title>0&#45;&gt;28</title>
<path fill="none" stroke="black" d="M1310.68,-1890.04C1298.31,-1868.46 1277.08,-1831.7 1258.21,-1800.49 1186.83,-1682.42 1098.29,-1543.29 1062.9,-1487.96"/>
<polygon fill="black" stroke="black" points="1065.83,-1486.05 1057.49,-1479.51 1059.94,-1489.82 1065.83,-1486.05"/>
<text text-anchor="middle" x="1193.21" y="-1676.29" font-family="Times,serif" font-size="14.00">0</text>
</g>
<!-- 1 -->
<g id="node3" class="node">
<title>1</title>
<ellipse fill="none" stroke="black" cx="290.21" cy="-1549.49" rx="27" ry="18"/>
<text text-anchor="middle" x="290.21" y="-1545.79" font-family="Times,serif" font-size="14.00">1</text>
</g>
<!-- 11 -->
<g id="node13" class="node">
<title>11</title>
<ellipse fill="none" stroke="black" cx="1905.21" cy="-2261.49" rx="27" ry="18"/>
<text text-anchor="middle" x="1905.21" y="-2257.79" font-family="Times,serif" font-size="14.00">11</text>
</g>
<!-- 1&#45;&gt;11 -->
<g id="edge142" class="edge">
<title>1&#45;&gt;11</title>
<path fill="none" stroke="black" d="M293.59,-1567.71C305.66,-1625.42 351.5,-1814.94 453.21,-1931.49 520.62,-2008.73 554.12,-2015.75 650.21,-2051.49 1108.64,-2221.99 1712.99,-2253.9 1867.82,-2259.41"/>
<polygon fill="black" stroke="black" points="1868.07,-2262.92 1878.19,-2259.76 1868.31,-2255.93 1868.07,-2262.92"/>
<text text-anchor="middle" x="458.21" y="-1905.79" font-family="Times,serif" font-size="14.00">3</text>
</g>
<!-- 12 -->
<g id="node14" class="node">
<title>12</title>
<ellipse fill="none" stroke="black" cx="249.21" cy="-992.5" rx="27" ry="18"/>
<text text-anchor="middle" x="249.21" y="-988.8" font-family="Times,serif" font-size="14.00">12</text>
</g>
<!-- 1&#45;&gt;12 -->
<g id="edge106" class="edge">
<title>1&#45;&gt;12</title>
<path fill="none" stroke="black" d="M277.69,-1533.26C265.63,-1517.02 249.21,-1490.03 249.21,-1463.49 249.21,-1463.49 249.21,-1463.49 249.21,-1087.24 249.21,-1064.93 249.21,-1039.63 249.21,-1020.94"/>
<polygon fill="black" stroke="black" points="252.71,-1020.77 249.21,-1010.77 245.71,-1020.77 252.71,-1020.77"/>
<text text-anchor="middle" x="254.21" y="-1267.29" font-family="Times,serif" font-size="14.00">0</text>
</g>
<!-- 16 -->
<g id="node18" class="node">
<title>16</title>
<ellipse fill="none" stroke="black" cx="858.21" cy="-18" rx="27" ry="18"/>
<text text-anchor="middle" x="858.21" y="-14.3" font-family="Times,serif" font-size="14.00">16</text>
</g>
<!-- 1&#45;&gt;16 -->
<g id="edge133" class="edge">
<title>1&#45;&gt;16</title>
<path fill="none" stroke="black" d="M270.5,-1536.94C261.7,-1530.93 251.84,-1522.86 245.21,-1513.49 236.28,-1500.87 238.6,-1495.31 234.21,-1480.49 176.42,-1285.23 119.21,-1240.62 119.21,-1037 119.21,-1037 119.21,-1037 119.21,-104 119.21,-84.91 159.95,-67.55 214.21,-54 330.34,-25 701.67,-20.03 820.94,-19.18"/>
<polygon fill="black" stroke="black" points="821.06,-22.68 831.04,-19.11 821.02,-15.68 821.06,-22.68"/>
<text text-anchor="middle" x="124.21" y="-771.3" font-family="Times,serif" font-size="14.00">1</text>
</g>
<!-- 27 -->
<g id="node29" class="node">
<title>27</title>
<ellipse fill="none" stroke="black" cx="948.21" cy="-461.75" rx="22.96" ry="22.96"/>
<ellipse fill="none" stroke="black" cx="948.21" cy="-461.75" rx="27" ry="27"/>
<text text-anchor="middle" x="948.21" y="-458.05" font-family="Times,serif" font-size="14.00">27</text>
</g>
<!-- 1&#45;&gt;27 -->
<g id="edge103" class="edge">
<title>1&#45;&gt;27</title>
<path fill="none" stroke="black" d="M289.24,-1531.24C288.37,-1514.07 287.21,-1486.97 287.21,-1463.49 287.21,-1463.49 287.21,-1463.49 287.21,-1269.99 287.21,-1194.4 332.18,-1186.32 357.21,-1114.99 378.56,-1054.17 373.75,-1035.95 393.21,-974.5 405.69,-935.07 402.01,-921.03 426.21,-887.5 444.91,-861.58 813.04,-569.63 919.57,-485.38"/>
<polygon fill="black" stroke="black" points="921.96,-487.95 927.63,-479 917.62,-482.46 921.96,-487.95"/>
<text text-anchor="middle" x="398.21" y="-988.8" font-family="Times,serif" font-size="14.00">2</text>
</g>
<!-- 1&#45;&gt;28 -->
<g id="edge113" class="edge">
<title>1&#45;&gt;28</title>
<path fill="none" stroke="black" d="M316.81,-1545.4C385,-1537.49 571.64,-1515.9 727.21,-1498.49 829.9,-1487 951.18,-1473.85 1010.63,-1467.43"/>
<polygon fill="black" stroke="black" points="1011.09,-1470.9 1020.65,-1466.35 1010.34,-1463.94 1011.09,-1470.9"/>
<text text-anchor="middle" x="732.21" y="-1502.29" font-family="Times,serif" font-size="14.00">4</text>
</g>
<!-- 2 -->
<g id="node4" class="node">
<title>2</title>
<ellipse fill="none" stroke="black" cx="1773.21" cy="-2174.49" rx="27" ry="18"/>
<text text-anchor="middle" x="1773.21" y="-2170.79" font-family="Times,serif" font-size="14.00">2</text>
</g>
<!-- 3 -->
<g id="node5" class="node">
<title>3</title>
<ellipse fill="none" stroke="black" cx="1435.21" cy="-2087.49" rx="27" ry="18"/>
<text text-anchor="middle" x="1435.21" y="-2083.79" font-family="Times,serif" font-size="14.00">3</text>
</g>
<!-- 2&#45;&gt;3 -->
<g id="edge49" class="edge">
<title>2&#45;&gt;3</title>
<path fill="none" stroke="black" d="M1748.36,-2167.24C1688.9,-2152.29 1538.34,-2114.42 1469.96,-2097.23"/>
<polygon fill="black" stroke="black" points="1470.65,-2093.79 1460.1,-2094.75 1468.94,-2100.58 1470.65,-2093.79"/>
<text text-anchor="middle" x="1629.21" y="-2127.29" font-family="Times,serif" font-size="14.00">3</text>
</g>
<!-- 9 -->
<g id="node11" class="node">
<title>9</title>
<ellipse fill="none" stroke="black" cx="1018.21" cy="-557.5" rx="27" ry="18"/>
<text text-anchor="middle" x="1018.21" y="-553.8" font-family="Times,serif" font-size="14.00">9</text>
</g>
<!-- 2&#45;&gt;9 -->
<g id="edge65" class="edge">
<title>2&#45;&gt;9</title>
<path fill="none" stroke="black" d="M1749.16,-2166.14C1737.5,-2162.8 1723.22,-2159.03 1710.21,-2156.49 1649.34,-2144.6 1156.21,-2150.51 1156.21,-2088.49 1156.21,-2088.49 1156.21,-2088.49 1156.21,-1678.99 1156.21,-1571.89 1363.25,-1308.68 1303.21,-1219.99 1291.13,-1202.15 1271.07,-1219.28 1258.21,-1201.99 1174.46,-1089.4 1244.88,-1027.06 1230.21,-887.5 1228.67,-872.8 1228.28,-869.12 1226.21,-854.5 1211.81,-752.85 1224.69,-722.83 1189.21,-626.5 1183.28,-610.4 1183.1,-603.56 1169.21,-593.5 1135.78,-569.28 1088.19,-561.52 1055.42,-559.19"/>
<polygon fill="black" stroke="black" points="1055.52,-555.69 1045.34,-558.61 1055.12,-562.68 1055.52,-555.69"/>
<text text-anchor="middle" x="1301.21" y="-1363.04" font-family="Times,serif" font-size="14.00">2</text>
</g>
<!-- 2&#45;&gt;11 -->
<g id="edge27" class="edge">
<title>2&#45;&gt;11</title>
<path fill="none" stroke="black" d="M1790.4,-2188.55C1804.36,-2198.96 1824.69,-2213.69 1843.21,-2225.49 1853.69,-2232.16 1865.5,-2239 1875.99,-2244.83"/>
<polygon fill="black" stroke="black" points="1874.34,-2247.92 1884.79,-2249.67 1877.71,-2241.78 1874.34,-2247.92"/>
<text text-anchor="middle" x="1848.21" y="-2214.29" font-family="Times,serif" font-size="14.00">4</text>
</g>
<!-- 19 -->
<g id="node21" class="node">
<title>19</title>
<ellipse fill="none" stroke="black" cx="1686.21" cy="-1366.74" rx="22.96" ry="22.96"/>
<ellipse fill="none" stroke="black" cx="1686.21" cy="-1366.74" rx="27" ry="27"/>
<text text-anchor="middle" x="1686.21" y="-1363.04" font-family="Times,serif" font-size="14.00">19</text>
</g>
<!-- 2&#45;&gt;19 -->
<g id="edge19" class="edge">
<title>2&#45;&gt;19</title>
<path fill="none" stroke="black" d="M1770.55,-2156.5C1765.11,-2120.17 1753.21,-2032.2 1753.21,-1957.99 1753.21,-1957.99 1753.21,-1957.99 1753.21,-1461.49 1753.21,-1433.31 1732.92,-1407.75 1714.67,-1390.47"/>
<polygon fill="black" stroke="black" points="1716.81,-1387.68 1707.04,-1383.58 1712.12,-1392.88 1716.81,-1387.68"/>
<text text-anchor="middle" x="1758.21" y="-1771.29" font-family="Times,serif" font-size="14.00">1</text>
</g>
<!-- 26 -->
<g id="node28" class="node">
<title>26</title>
<ellipse fill="none" stroke="black" cx="1906.21" cy="-461.75" rx="22.96" ry="22.96"/>
<ellipse fill="none" stroke="black" cx="1906.21" cy="-461.75" rx="27" ry="27"/>
<text text-anchor="middle" x="1906.21" y="-458.05" font-family="Times,serif" font-size="14.00">26</text>
</g>
<!-- 2&#45;&gt;26 -->
<g id="edge82" class="edge">
<title>2&#45;&gt;26</title>
<path fill="none" stroke="black" d="M1800.18,-2173.15C1929.87,-2171.17 2483.21,-2158.63 2483.21,-2088.49 2483.21,-2088.49 2483.21,-2088.49 2483.21,-948 2483.21,-904.71 2454.43,-792.86 2383.21,-713.5 2255.78,-571.5 2028.69,-496.62 1941.57,-472.03"/>
<polygon fill="black" stroke="black" points="1942.47,-468.64 1931.9,-469.34 1940.6,-475.39 1942.47,-468.64"/>
<text text-anchor="middle" x="2488.21" y="-1310.79" font-family="Times,serif" font-size="14.00">0</text>
</g>
<!-- 3&#45;&gt;3 -->
<g id="edge88" class="edge">
<title>3&#45;&gt;3</title>
<path fill="none" stroke="black" d="M1459.74,-2095.24C1470.72,-2095.98 1480.21,-2093.39 1480.21,-2087.49 1480.21,-2083.52 1475.92,-2081.05 1469.78,-2080.08"/>
<polygon fill="black" stroke="black" points="1469.86,-2076.58 1459.74,-2079.74 1469.62,-2083.58 1469.86,-2076.58"/>
<text text-anchor="middle" x="1485.21" y="-2083.79" font-family="Times,serif" font-size="14.00">0</text>
</g>
<!-- 4 -->
<g id="node6" class="node">
<title>4</title>
<ellipse fill="none" stroke="black" cx="734.21" cy="-2000.49" rx="27" ry="18"/>
<text text-anchor="middle" x="734.21" y="-1996.79" font-family="Times,serif" font-size="14.00">4</text>
</g>
<!-- 3&#45;&gt;4 -->
<g id="edge140" class="edge">
<title>3&#45;&gt;4</title>
<path fill="none" stroke="black" d="M1408.98,-2083.19C1323.26,-2072.39 1055.77,-2038.73 1037.21,-2036.49 940.95,-2024.88 827.38,-2011.97 770.51,-2005.56"/>
<polygon fill="black" stroke="black" points="770.89,-2002.08 760.56,-2004.44 770.11,-2009.04 770.89,-2002.08"/>
<text text-anchor="middle" x="1158.21" y="-2040.29" font-family="Times,serif" font-size="14.00">3</text>
</g>
<!-- 3&#45;&gt;13 -->
<g id="edge8" class="edge">
<title>3&#45;&gt;13</title>
<path fill="none" stroke="black" d="M1462.37,-2086.41C1504.55,-2085.36 1587.59,-2079.52 1651.21,-2051.49 1711.9,-2024.75 1862.45,-1892.23 1920.18,-1840.36"/>
<polygon fill="black" stroke="black" points="1922.6,-1842.89 1927.69,-1833.59 1917.91,-1837.69 1922.6,-1842.89"/>
<text text-anchor="middle" x="1797.21" y="-1953.29" font-family="Times,serif" font-size="14.00">1</text>
</g>
<!-- 23 -->
<g id="node25" class="node">
<title>23</title>
<ellipse fill="none" stroke="black" cx="447.21" cy="-1636.49" rx="27" ry="18"/>
<text text-anchor="middle" x="447.21" y="-1632.79" font-family="Times,serif" font-size="14.00">23</text>
</g>
<!-- 3&#45;&gt;23 -->
<g id="edge66" class="edge">
<title>3&#45;&gt;23</title>
<path fill="none" stroke="black" d="M1408.15,-2086.3C1291.19,-2085.12 829.07,-2076.81 698.21,-2018.49 685.14,-2012.66 612.41,-1942.45 603.21,-1931.49 541.53,-1858.02 529.38,-1835.64 487.21,-1749.49 473.43,-1721.35 461.93,-1687.21 454.85,-1664.08"/>
<polygon fill="black" stroke="black" points="458.14,-1662.86 451.92,-1654.28 451.44,-1664.87 458.14,-1662.86"/>
<text text-anchor="middle" x="558.21" y="-1858.29" font-family="Times,serif" font-size="14.00">2</text>
</g>
<!-- 3&#45;&gt;27 -->
<g id="edge7" class="edge">
<title>3&#45;&gt;27</title>
<path fill="none" stroke="black" d="M1435.21,-2069.23C1435.21,-2052.06 1435.21,-2024.95 1435.21,-2001.49 1435.21,-2001.49 1435.21,-2001.49 1435.21,-1773.99 1435.21,-1719.01 1415.01,-1708.19 1403.21,-1654.49 1382.18,-1558.79 1393.36,-1293.18 1328.21,-1219.99 1309.41,-1198.88 1284.13,-1224.63 1267.21,-1201.99 1257.63,-1189.18 1266.3,-1181.97 1267.21,-1165.99 1269.88,-1119.32 1271.47,-1107.6 1279.21,-1061.5 1294.16,-972.38 1323.21,-953.36 1323.21,-863 1323.21,-863 1323.21,-863 1323.21,-600 1323.21,-572.4 1328.9,-558.84 1309.21,-539.5 1263.34,-494.44 1067.5,-472.86 985.04,-465.64"/>
<polygon fill="black" stroke="black" points="985.14,-462.13 974.88,-464.77 984.54,-469.11 985.14,-462.13"/>
<text text-anchor="middle" x="1364.21" y="-1267.29" font-family="Times,serif" font-size="14.00">4</text>
</g>
<!-- 4&#45;&gt;0 -->
<g id="edge13" class="edge">
<title>4&#45;&gt;0</title>
<path fill="none" stroke="black" d="M760.19,-1995.55C855.43,-1981.11 1185.32,-1931.09 1289.45,-1915.3"/>
<polygon fill="black" stroke="black" points="1290,-1918.76 1299.36,-1913.8 1288.95,-1911.84 1290,-1918.76"/>
<text text-anchor="middle" x="1067.21" y="-1953.29" font-family="Times,serif" font-size="14.00">1</text>
</g>
<!-- 4&#45;&gt;9 -->
<g id="edge112" class="edge">
<title>4&#45;&gt;9</title>
<path fill="none" stroke="black" d="M727.79,-1982.7C721.62,-1965.02 713.21,-1936.21 713.21,-1910.49 713.21,-1910.49 713.21,-1910.49 713.21,-1417.99 713.21,-1298.91 747.44,-1270.67 804.21,-1165.99 831.97,-1114.81 840.75,-1101.33 883.21,-1061.5 964.39,-985.34 1016.34,-1004.95 1092.21,-923.5 1143.48,-868.45 1175.21,-851.22 1175.21,-776 1175.21,-776 1175.21,-776 1175.21,-643.5 1175.21,-589.03 1101.25,-569.29 1054.85,-562.26"/>
<polygon fill="black" stroke="black" points="1055.23,-558.78 1044.84,-560.88 1054.27,-565.72 1055.23,-558.78"/>
<text text-anchor="middle" x="759.21" y="-1267.29" font-family="Times,serif" font-size="14.00">4</text>
</g>
<!-- 10 -->
<g id="node12" class="node">
<title>10</title>
<ellipse fill="none" stroke="black" cx="1623.21" cy="-105" rx="27" ry="18"/>
<text text-anchor="middle" x="1623.21" y="-101.3" font-family="Times,serif" font-size="14.00">10</text>
</g>
<!-- 4&#45;&gt;10 -->
<g id="edge39" class="edge">
<title>4&#45;&gt;10</title>
<path fill="none" stroke="black" d="M760.83,-1996.92C818.4,-1991.33 958.75,-1977.52 1076.21,-1964.49 1350.48,-1934.06 2285.21,-1956.94 2285.21,-1680.99 2285.21,-1680.99 2285.21,-1680.99 2285.21,-1313.49 2285.21,-1236.96 2293.21,-1218.02 2293.21,-1141.49 2293.21,-1141.49 2293.21,-1141.49 2293.21,-861 2293.21,-774.46 2324.73,-756.44 2366.21,-680.5 2409.38,-601.44 2483.21,-605.08 2483.21,-515 2483.21,-515 2483.21,-515 2483.21,-191 2483.21,-107.04 1825.74,-104.92 1660.53,-105.71"/>
<polygon fill="black" stroke="black" points="1660.35,-102.21 1650.37,-105.77 1660.39,-109.21 1660.35,-102.21"/>
<text text-anchor="middle" x="2298.21" y="-1032.3" font-family="Times,serif" font-size="14.00">0</text>
</g>
<!-- 14 -->
<g id="node16" class="node">
<title>14</title>
<ellipse fill="none" stroke="black" cx="939.21" cy="-731.5" rx="27" ry="18"/>
<text text-anchor="middle" x="939.21" y="-727.8" font-family="Times,serif" font-size="14.00">14</text>
</g>
<!-- 4&#45;&gt;14 -->
<g id="edge53" class="edge">
<title>4&#45;&gt;14</title>
<path fill="none" stroke="black" d="M717.77,-1985.92C700.32,-1969.89 675.21,-1941.45 675.21,-1910.49 675.21,-1910.49 675.21,-1910.49 675.21,-1635.49 675.21,-1527.4 656.55,-1501.44 651.21,-1393.49 650.03,-1369.74 647.47,-1363.47 651.21,-1339.99 667.86,-1235.51 737.59,-973.5 799.21,-887.5 806.98,-876.66 813.51,-878.64 823.21,-869.5 861.64,-833.27 900.03,-784.97 921.58,-756.46"/>
<polygon fill="black" stroke="black" points="924.52,-758.38 927.71,-748.28 918.91,-754.18 924.52,-758.38"/>
<text text-anchor="middle" x="656.21" y="-1363.04" font-family="Times,serif" font-size="14.00">3</text>
</g>
<!-- 4&#45;&gt;29 -->
<g id="edge109" class="edge">
<title>4&#45;&gt;29</title>
<path fill="none" stroke="black" d="M708.72,-2007C672.7,-2016.47 611.21,-2039.51 611.21,-2086.49 611.21,-2262.49 611.21,-2262.49 611.21,-2262.49 611.21,-2311.34 772.58,-2335.32 847.19,-2343.79"/>
<polygon fill="black" stroke="black" points="847.21,-2347.32 857.54,-2344.93 847.98,-2340.36 847.21,-2347.32"/>
<text text-anchor="middle" x="616.21" y="-2170.79" font-family="Times,serif" font-size="14.00">2</text>
</g>
<!-- 5 -->
<g id="node7" class="node">
<title>5</title>
<ellipse fill="none" stroke="black" cx="1675.21" cy="-1727.49" rx="18" ry="18"/>
<ellipse fill="none" stroke="black" cx="1675.21" cy="-1727.49" rx="22" ry="22"/>
<text text-anchor="middle" x="1675.21" y="-1723.79" font-family="Times,serif" font-size="14.00">5</text>
</g>
<!-- 5&#45;&gt;0 -->
<g id="edge40" class="edge">
<title>5&#45;&gt;0</title>
<path fill="none" stroke="black" d="M1655.69,-1738.41C1596.54,-1768.49 1419.06,-1858.73 1349.56,-1894.07"/>
<polygon fill="black" stroke="black" points="1347.82,-1891.03 1340.49,-1898.68 1350.99,-1897.27 1347.82,-1891.03"/>
<text text-anchor="middle" x="1538.21" y="-1814.79" font-family="Times,serif" font-size="14.00">3</text>
</g>
<!-- 5&#45;&gt;10 -->
<g id="edge118" class="edge">
<title>5&#45;&gt;10</title>
<path fill="none" stroke="black" d="M1693.64,-1714.68C1748.22,-1678.11 1905.21,-1560.69 1905.21,-1419.99 1905.21,-1419.99 1905.21,-1419.99 1905.21,-1226.49 1905.21,-959.69 1846.3,-881.66 1924.21,-626.5 1943.09,-564.66 1958.28,-552.04 1970.21,-488.5 1980.18,-435.36 1976.21,-421.06 1976.21,-367 1976.21,-367 1976.21,-367 1976.21,-191 1976.21,-126.57 1751.16,-110.84 1660.44,-107.12"/>
<polygon fill="black" stroke="black" points="1660.45,-103.61 1650.32,-106.73 1660.18,-110.61 1660.45,-103.61"/>
<text text-anchor="middle" x="1890.21" y="-901.8" font-family="Times,serif" font-size="14.00">1</text>
</g>
<!-- 5&#45;&gt;14 -->
<g id="edge31" class="edge">
<title>5&#45;&gt;14</title>
<path fill="none" stroke="black" d="M1657.34,-1714.59C1580.98,-1662.86 1278.45,-1449.04 1114.21,-1201.99 1090.22,-1165.91 1088.61,-1154.22 1070.21,-1114.99 1055.5,-1083.64 1051.05,-1076.04 1039.21,-1043.5 995.46,-923.24 1004.9,-886.24 957.21,-767.5 955.9,-764.23 954.38,-760.85 952.8,-757.55"/>
<polygon fill="black" stroke="black" points="955.91,-755.94 948.28,-748.58 949.66,-759.09 955.91,-755.94"/>
<text text-anchor="middle" x="1141.21" y="-1223.79" font-family="Times,serif" font-size="14.00">0</text>
</g>
<!-- 5&#45;&gt;19 -->
<g id="edge33" class="edge">
<title>5&#45;&gt;19</title>
<path fill="none" stroke="black" d="M1688.09,-1709.44C1699.78,-1692.23 1715.21,-1664.42 1715.21,-1637.49 1715.21,-1637.49 1715.21,-1637.49 1715.21,-1461.49 1715.21,-1440.5 1708.49,-1418 1701.53,-1400.31"/>
<polygon fill="black" stroke="black" points="1704.74,-1398.91 1697.67,-1391.01 1698.27,-1401.59 1704.74,-1398.91"/>
<text text-anchor="middle" x="1720.21" y="-1545.79" font-family="Times,serif" font-size="14.00">4</text>
</g>
<!-- 5&#45;&gt;23 -->
<g id="edge4" class="edge">
<title>5&#45;&gt;23</title>
<path fill="none" stroke="black" d="M1653.15,-1723.35C1586.77,-1714.02 1383.04,-1686.28 1213.21,-1672.49 933.63,-1649.79 595.36,-1640.75 484.41,-1638.26"/>
<polygon fill="black" stroke="black" points="484.47,-1634.76 474.39,-1638.03 484.31,-1641.75 484.47,-1634.76"/>
<text text-anchor="middle" x="1370.21" y="-1676.29" font-family="Times,serif" font-size="14.00">2</text>
</g>
<!-- 6 -->
<g id="node8" class="node">
<title>6</title>
<ellipse fill="none" stroke="black" cx="835.21" cy="-905.5" rx="27" ry="18"/>
<text text-anchor="middle" x="835.21" y="-901.8" font-family="Times,serif" font-size="14.00">6</text>
</g>
<!-- 6&#45;&gt;2 -->
<g id="edge55" class="edge">
<title>6&#45;&gt;2</title>
<path fill="none" stroke="black" d="M831.27,-923.45C821.25,-968.65 796.12,-1095.78 804.21,-1201.99 822.33,-1439.86 818.09,-1468.25 870.21,-1600.49 917.52,-1720.5 998.21,-1731.99 998.21,-1860.99 998.21,-2001.49 998.21,-2001.49 998.21,-2001.49 998.21,-2089.83 1059.31,-2107.98 1142.21,-2138.49 1201.47,-2160.3 1647.75,-2147.2 1710.21,-2156.49 1719.92,-2157.93 1730.27,-2160.35 1739.73,-2162.91"/>
<polygon fill="black" stroke="black" points="1738.98,-2166.33 1749.55,-2165.71 1740.89,-2159.6 1738.98,-2166.33"/>
<text text-anchor="middle" x="862.21" y="-1545.79" font-family="Times,serif" font-size="14.00">1</text>
</g>
<!-- 6&#45;&gt;3 -->
<g id="edge68" class="edge">
<title>6&#45;&gt;3</title>
<path fill="none" stroke="black" d="M836.66,-923.6C843.16,-998.91 870.27,-1301.37 894.21,-1393.49 947.7,-1599.34 973.51,-1649.69 1075.21,-1836.49 1105.61,-1892.32 1163.27,-2014.67 1240.21,-2051.49 1291.3,-2075.94 1357.34,-2083.41 1397.97,-2085.64"/>
<polygon fill="black" stroke="black" points="1397.82,-2089.13 1407.97,-2086.11 1398.15,-2082.14 1397.82,-2089.13"/>
<text text-anchor="middle" x="932.21" y="-1502.29" font-family="Times,serif" font-size="14.00">4</text>
</g>
<!-- 6&#45;&gt;13 -->
<g id="edge29" class="edge">
<title>6&#45;&gt;13</title>
<path fill="none" stroke="black" d="M842.18,-923.37C853.49,-951.49 875.75,-1009.96 887.21,-1061.5 922.71,-1221.21 850.82,-1286.31 935.21,-1426.49 977.78,-1497.2 1507.42,-1761.37 1587.21,-1782.49 1700.38,-1812.44 1839.91,-1817.26 1905.62,-1817.72"/>
<polygon fill="black" stroke="black" points="1905.88,-1821.22 1915.89,-1817.76 1905.9,-1814.22 1905.88,-1821.22"/>
<text text-anchor="middle" x="922.21" y="-1363.04" font-family="Times,serif" font-size="14.00">2</text>
</g>
<!-- 22 -->
<g id="node24" class="node">
<title>22</title>
<ellipse fill="none" stroke="black" cx="1736.21" cy="-1270.99" rx="27" ry="18"/>
<text text-anchor="middle" x="1736.21" y="-1267.29" font-family="Times,serif" font-size="14.00">22</text>
</g>
<!-- 6&#45;&gt;22 -->
<g id="edge93" class="edge">
<title>6&#45;&gt;22</title>
<path fill="none" stroke="black" d="M860.92,-911.54C924.97,-924.74 1095.76,-963.79 1225.21,-1028.5 1306.52,-1069.14 1313.78,-1100.37 1391.21,-1147.99 1435.57,-1175.28 1447.63,-1180.81 1495.21,-1201.99 1516.02,-1211.26 1521.98,-1211.71 1543.21,-1219.99 1559.74,-1226.44 1563.27,-1229.7 1580.21,-1234.99 1620.55,-1247.6 1668.1,-1257.59 1700.01,-1263.62"/>
<polygon fill="black" stroke="black" points="1699.72,-1267.13 1710.19,-1265.51 1701,-1260.25 1699.72,-1267.13"/>
<text text-anchor="middle" x="1348.21" y="-1084.54" font-family="Times,serif" font-size="14.00">3</text>
</g>
<!-- 25 -->
<g id="node27" class="node">
<title>25</title>
<ellipse fill="none" stroke="black" cx="732.21" cy="-818.5" rx="27" ry="18"/>
<text text-anchor="middle" x="732.21" y="-814.8" font-family="Times,serif" font-size="14.00">25</text>
</g>
<!-- 6&#45;&gt;25 -->
<g id="edge37" class="edge">
<title>6&#45;&gt;25</title>
<path fill="none" stroke="black" d="M818.66,-890.84C801.84,-876.96 775.61,-855.31 756.45,-839.5"/>
<polygon fill="black" stroke="black" points="758.66,-836.78 748.72,-833.12 754.2,-842.18 758.66,-836.78"/>
<text text-anchor="middle" x="794.21" y="-858.3" font-family="Times,serif" font-size="14.00">0</text>
</g>
<!-- 7 -->
<g id="node9" class="node">
<title>7</title>
<ellipse fill="none" stroke="black" cx="1017.21" cy="-644.5" rx="27" ry="18"/>
<text text-anchor="middle" x="1017.21" y="-640.8" font-family="Times,serif" font-size="14.00">7</text>
</g>
<!-- 7&#45;&gt;6 -->
<g id="edge79" class="edge">
<title>7&#45;&gt;6</title>
<path fill="none" stroke="black" d="M1014.79,-662.54C1013.06,-672.38 1010.31,-684.88 1006.21,-695.5 974.81,-776.74 898.92,-850.14 859.66,-884.29"/>
<polygon fill="black" stroke="black" points="857.18,-881.8 851.86,-890.97 861.73,-887.12 857.18,-881.8"/>
<text text-anchor="middle" x="970.21" y="-771.3" font-family="Times,serif" font-size="14.00">0</text>
</g>
<!-- 7&#45;&gt;9 -->
<g id="edge117" class="edge">
<title>7&#45;&gt;9</title>
<path fill="none" stroke="black" d="M1017.41,-626.29C1017.55,-614.66 1017.73,-599.04 1017.89,-585.73"/>
<polygon fill="black" stroke="black" points="1021.39,-585.71 1018.01,-575.67 1014.39,-585.63 1021.39,-585.71"/>
<text text-anchor="middle" x="1022.21" y="-597.3" font-family="Times,serif" font-size="14.00">2</text>
</g>
<!-- 7&#45;&gt;14 -->
<g id="edge141" class="edge">
<title>7&#45;&gt;14</title>
<path fill="none" stroke="black" d="M998.04,-657.33C988.95,-663.53 978.33,-671.65 970.21,-680.5 963.41,-687.9 957.26,-697 952.26,-705.4"/>
<polygon fill="black" stroke="black" points="949.2,-703.7 947.31,-714.12 955.29,-707.15 949.2,-703.7"/>
<text text-anchor="middle" x="975.21" y="-684.3" font-family="Times,serif" font-size="14.00">1</text>
</g>
<!-- 20 -->
<g id="node22" class="node">
<title>20</title>
<ellipse fill="none" stroke="black" cx="468.21" cy="-557.5" rx="27" ry="18"/>
<text text-anchor="middle" x="468.21" y="-553.8" font-family="Times,serif" font-size="14.00">20</text>
</g>
<!-- 7&#45;&gt;20 -->
<g id="edge45" class="edge">
<title>7&#45;&gt;20</title>
<path fill="none" stroke="black" d="M991.1,-639.45C901.58,-625.59 606.97,-579.98 504.07,-564.05"/>
<polygon fill="black" stroke="black" points="504.58,-560.59 494.16,-562.51 503.51,-567.5 504.58,-560.59"/>
<text text-anchor="middle" x="780.21" y="-597.3" font-family="Times,serif" font-size="14.00">3</text>
</g>
<!-- 7&#45;&gt;24 -->
<g id="edge107" class="edge">
<title>7&#45;&gt;24</title>
<path fill="none" stroke="black" d="M1037.62,-656.45C1075.61,-678.12 1156.26,-730.48 1189.21,-800.5 1244.48,-917.91 1201.96,-906.94 1195.21,-956.5 1190.72,-989.4 1182.32,-996.05 1175.21,-1028.5 1165.53,-1072.66 1157.88,-1124.68 1153.7,-1155.68"/>
<polygon fill="black" stroke="black" points="1150.21,-1155.36 1152.37,-1165.73 1157.15,-1156.27 1150.21,-1155.36"/>
<text text-anchor="middle" x="1221.21" y="-901.8" font-family="Times,serif" font-size="14.00">4</text>
</g>
<!-- 8 -->
<g id="node10" class="node">
<title>8</title>
<ellipse fill="none" stroke="black" cx="2084.21" cy="-366" rx="27" ry="18"/>
<text text-anchor="middle" x="2084.21" y="-362.3" font-family="Times,serif" font-size="14.00">8</text>
</g>
<!-- 8&#45;&gt;3 -->
<g id="edge64" class="edge">
<title>8&#45;&gt;3</title>
<path fill="none" stroke="black" d="M2103.94,-378.9C2113.76,-385.22 2125.57,-393.45 2135.21,-402 2149.82,-414.96 2151.73,-419.99 2164.21,-435 2264.89,-556.07 2331.71,-564.69 2383.21,-713.5 2404.75,-775.72 2369.21,-795.15 2369.21,-861 2369.21,-1141.49 2369.21,-1141.49 2369.21,-1141.49 2369.21,-1218.02 2361.21,-1236.96 2361.21,-1313.49 2361.21,-1680.99 2361.21,-1680.99 2361.21,-1680.99 2361.21,-1751.21 2378.67,-1782.96 2333.21,-1836.49 2278.11,-1901.36 2054.02,-1940.99 1972.21,-1964.49 1936.76,-1974.67 1926.36,-1971.32 1891.21,-1982.49 1851.72,-1995.03 1844.05,-2004.04 1805.21,-2018.49 1760.95,-2034.95 1750.27,-2041.06 1704.21,-2051.49 1622.56,-2069.97 1524.61,-2079.66 1472.36,-2083.86"/>
<polygon fill="black" stroke="black" points="1471.92,-2080.38 1462.23,-2084.65 1472.47,-2087.36 1471.92,-2080.38"/>
<text text-anchor="middle" x="2370.21" y="-1223.79" font-family="Times,serif" font-size="14.00">2</text>
</g>
<!-- 8&#45;&gt;3 -->
<g id="edge130" class="edge">
<title>8&#45;&gt;3</title>
<path fill="none" stroke="black" d="M2106.46,-376.63C2120.95,-383.19 2140.09,-392.4 2156.21,-402 2273.58,-471.94 2292.44,-511.5 2366.21,-626.5 2389.72,-663.14 2400.92,-671.2 2411.21,-713.5 2435.85,-814.78 2407.21,-843.76 2407.21,-948 2407.21,-1141.49 2407.21,-1141.49 2407.21,-1141.49 2407.21,-1218.02 2399.21,-1236.96 2399.21,-1313.49 2399.21,-1775.99 2399.21,-1775.99 2399.21,-1775.99 2399.21,-1933.89 1899.35,-2022.05 1744.21,-2051.49 1647.09,-2069.92 1530.82,-2079.89 1472.48,-2084.07"/>
<polygon fill="black" stroke="black" points="1472.01,-2080.6 1462.28,-2084.79 1472.5,-2087.58 1472.01,-2080.6"/>
<text text-anchor="middle" x="2408.21" y="-1223.79" font-family="Times,serif" font-size="14.00">3</text>
</g>
<!-- 8&#45;&gt;8 -->
<g id="edge80" class="edge">
<title>8&#45;&gt;8</title>
<path fill="none" stroke="black" d="M2108.74,-373.75C2119.72,-374.49 2129.21,-371.91 2129.21,-366 2129.21,-362.03 2124.92,-359.56 2118.78,-358.59"/>
<polygon fill="black" stroke="black" points="2118.86,-355.09 2108.74,-358.25 2118.62,-362.09 2118.86,-355.09"/>
<text text-anchor="middle" x="2134.21" y="-362.3" font-family="Times,serif" font-size="14.00">1</text>
</g>
<!-- 8&#45;&gt;13 -->
<g id="edge14" class="edge">
<title>8&#45;&gt;13</title>
<path fill="none" stroke="black" d="M2089.32,-383.85C2100.43,-421.21 2126.76,-513.94 2139.21,-593.5 2169.64,-787.87 2171.21,-838.26 2171.21,-1035 2171.21,-1728.49 2171.21,-1728.49 2171.21,-1728.49 2171.21,-1754.75 2167.94,-1766.36 2147.21,-1782.49 2121.74,-1802.31 2031.58,-1811.54 1980.05,-1815.29"/>
<polygon fill="black" stroke="black" points="1979.71,-1811.81 1969.98,-1815.99 1980.2,-1818.79 1979.71,-1811.81"/>
<text text-anchor="middle" x="2176.21" y="-1084.54" font-family="Times,serif" font-size="14.00">4</text>
</g>
<!-- 8&#45;&gt;28 -->
<g id="edge24" class="edge">
<title>8&#45;&gt;28</title>
<path fill="none" stroke="black" d="M2068.97,-381.1C2062.96,-387.16 2056.29,-394.55 2051.21,-402 2020.12,-447.58 1968.03,-576.27 1945.21,-626.5 1894.21,-738.75 1874.25,-766.37 1851.21,-887.5 1817.79,-1063.16 1866.49,-1115.01 1825.21,-1288.99 1812.69,-1341.76 1807.63,-1363.85 1762.21,-1393.49 1695.93,-1436.74 1665.74,-1416.58 1587.21,-1426.49 1399.31,-1450.2 1172.48,-1458.27 1084.55,-1460.63"/>
<polygon fill="black" stroke="black" points="1084.2,-1457.14 1074.29,-1460.9 1084.38,-1464.14 1084.2,-1457.14"/>
<text text-anchor="middle" x="1856.21" y="-901.8" font-family="Times,serif" font-size="14.00">0</text>
</g>
<!-- 9&#45;&gt;1 -->
<g id="edge76" class="edge">
<title>9&#45;&gt;1</title>
<path fill="none" stroke="black" d="M993.89,-565.46C977.23,-571.08 955.33,-580.27 939.21,-593.5 938.81,-593.82 768.52,-836.09 768.21,-836.5 767.24,-837.75 622.27,-1009.33 621.21,-1010.5 589.56,-1045.33 325.21,-1266.43 325.21,-1313.49 325.21,-1463.49 325.21,-1463.49 325.21,-1463.49 325.21,-1484.97 315.54,-1507.35 306.36,-1523.76"/>
<polygon fill="black" stroke="black" points="303.17,-1522.28 301.09,-1532.67 309.19,-1525.85 303.17,-1522.28"/>
<text text-anchor="middle" x="607.21" y="-1032.3" font-family="Times,serif" font-size="14.00">3</text>
</g>
<!-- 9&#45;&gt;7 -->
<g id="edge97" class="edge">
<title>9&#45;&gt;7</title>
<path fill="none" stroke="black" d="M1009.04,-574.72C1006.27,-580.47 1003.6,-587.1 1002.21,-593.5 1000.45,-601.59 1001.86,-610.28 1004.4,-618.11"/>
<polygon fill="black" stroke="black" points="1001.15,-619.42 1008.06,-627.45 1007.67,-616.86 1001.15,-619.42"/>
<text text-anchor="middle" x="1007.21" y="-597.3" font-family="Times,serif" font-size="14.00">2</text>
</g>
<!-- 9&#45;&gt;16 -->
<g id="edge143" class="edge">
<title>9&#45;&gt;16</title>
<path fill="none" stroke="black" d="M994.02,-549.09C911.37,-522.14 645.21,-421.01 645.21,-236.5 645.21,-236.5 645.21,-236.5 645.21,-104 645.21,-66.27 761.97,-37.81 822.59,-25.58"/>
<polygon fill="black" stroke="black" points="823.38,-28.99 832.52,-23.62 822.03,-22.13 823.38,-28.99"/>
<text text-anchor="middle" x="659.21" y="-275.3" font-family="Times,serif" font-size="14.00">1</text>
</g>
<!-- 9&#45;&gt;26 -->
<g id="edge123" class="edge">
<title>9&#45;&gt;26</title>
<path fill="none" stroke="black" d="M1044.79,-553.69C1172.31,-540.23 1721.38,-482.26 1869.35,-466.64"/>
<polygon fill="black" stroke="black" points="1869.73,-470.12 1879.3,-465.59 1868.99,-463.16 1869.73,-470.12"/>
<text text-anchor="middle" x="1493.21" y="-510.3" font-family="Times,serif" font-size="14.00">0</text>
</g>
<!-- 9&#45;&gt;29 -->
<g id="edge71" class="edge">
<title>9&#45;&gt;29</title>
<path fill="none" stroke="black" d="M1006.62,-573.77C985.68,-601.44 940.3,-661.75 903.21,-713.5 854.08,-782.03 851.69,-806.87 795.21,-869.5 786.98,-878.62 782.49,-878.41 774.21,-887.5 710.44,-957.51 685.11,-973.07 651.21,-1061.5 580.18,-1246.81 599.21,-1306.53 599.21,-1504.99 599.21,-1680.99 599.21,-1680.99 599.21,-1680.99 599.21,-1823.35 565.21,-1857.13 565.21,-1999.49 565.21,-2262.49 565.21,-2262.49 565.21,-2262.49 565.21,-2320.27 763.09,-2339.76 847.15,-2345.43"/>
<polygon fill="black" stroke="black" points="847.08,-2348.94 857.29,-2346.09 847.53,-2341.95 847.08,-2348.94"/>
<text text-anchor="middle" x="603.21" y="-1458.79" font-family="Times,serif" font-size="14.00">4</text>
</g>
<!-- 10&#45;&gt;4 -->
<g id="edge11" class="edge">
<title>10&#45;&gt;4</title>
<path fill="none" stroke="black" d="M1595.86,-106.59C1444.58,-109.99 709.09,-128.66 487.21,-174 391.44,-193.57 349.61,-187.46 285.21,-261 245.01,-306.91 256.46,-332.2 224.21,-384 178.22,-457.88 136.11,-458.14 105.21,-539.5 -43.28,-930.5 -29.8,-1088.92 117.21,-1480.49 166.15,-1610.85 439.11,-1850.26 552.21,-1931.49 597.48,-1964 660.13,-1982.87 698.87,-1992.17"/>
<polygon fill="black" stroke="black" points="698.12,-1995.59 708.65,-1994.43 699.7,-1988.77 698.12,-1995.59"/>
<text text-anchor="middle" x="7.21" y="-1032.3" font-family="Times,serif" font-size="14.00">4</text>
</g>
<!-- 15 -->
<g id="node17" class="node">
<title>15</title>
<ellipse fill="none" stroke="black" cx="1585.21" cy="-1088.24" rx="22.96" ry="22.96"/>
<ellipse fill="none" stroke="black" cx="1585.21" cy="-1088.24" rx="27" ry="27"/>
<text text-anchor="middle" x="1585.21" y="-1084.54" font-family="Times,serif" font-size="14.00">15</text>
</g>
<!-- 10&#45;&gt;15 -->
<g id="edge35" class="edge">
<title>10&#45;&gt;15</title>
<path fill="none" stroke="black" d="M1623.21,-123.26C1623.21,-140.43 1623.21,-167.54 1623.21,-191 1623.21,-323.5 1623.21,-323.5 1623.21,-323.5 1623.21,-443.97 1605.09,-473.17 1599.21,-593.5 1594.35,-692.94 1597.21,-717.94 1597.21,-817.5 1597.21,-993.5 1597.21,-993.5 1597.21,-993.5 1597.21,-1012.79 1594.68,-1034.14 1591.94,-1051.59"/>
<polygon fill="black" stroke="black" points="1588.41,-1051.45 1590.23,-1061.89 1595.32,-1052.6 1588.41,-1051.45"/>
<text text-anchor="middle" x="1604.21" y="-597.3" font-family="Times,serif" font-size="14.00">0</text>
</g>
<!-- 10&#45;&gt;16 -->
<g id="edge62" class="edge">
<title>10&#45;&gt;16</title>
<path fill="none" stroke="black" d="M1596.3,-102.56C1527.31,-98.71 1338.6,-87.25 1182.21,-69 1077.15,-56.74 953.88,-35.93 894.2,-25.45"/>
<polygon fill="black" stroke="black" points="894.62,-21.96 884.16,-23.67 893.4,-28.86 894.62,-21.96"/>
<text text-anchor="middle" x="1187.21" y="-57.8" font-family="Times,serif" font-size="14.00">2</text>
</g>
<!-- 10&#45;&gt;16 -->
<g id="edge84" class="edge">
<title>10&#45;&gt;16</title>
<path fill="none" stroke="black" d="M1596.49,-100.8C1528.85,-92.71 1345.33,-70.9 1192.21,-54 1084.29,-42.09 956.64,-28.98 895.07,-22.73"/>
<polygon fill="black" stroke="black" points="895.36,-19.24 885.06,-21.71 894.66,-26.2 895.36,-19.24"/>
<text text-anchor="middle" x="1327.21" y="-57.8" font-family="Times,serif" font-size="14.00">3</text>
</g>
<!-- 10&#45;&gt;22 -->
<g id="edge147" class="edge">
<title>10&#45;&gt;22</title>
<path fill="none" stroke="black" d="M1650.15,-106.61C1773.59,-109.73 2279.21,-126.47 2279.21,-191 2279.21,-367 2279.21,-367 2279.21,-367 2279.21,-568.13 1959.21,-485.86 1959.21,-687 1959.21,-863 1959.21,-863 1959.21,-863 1959.21,-989.86 2009.21,-1039.65 1943.21,-1147.99 1904.41,-1211.68 1818.84,-1245.92 1770.76,-1260.77"/>
<polygon fill="black" stroke="black" points="1769.68,-1257.44 1761.09,-1263.65 1771.68,-1264.15 1769.68,-1257.44"/>
<text text-anchor="middle" x="1964.21" y="-684.3" font-family="Times,serif" font-size="14.00">1</text>
</g>
<!-- 11&#45;&gt;2 -->
<g id="edge51" class="edge">
<title>11&#45;&gt;2</title>
<path fill="none" stroke="black" d="M1879.32,-2255.89C1858.21,-2251.11 1828.5,-2241.96 1807.21,-2225.49 1798.7,-2218.91 1791.56,-2209.59 1786.05,-2200.78"/>
<polygon fill="black" stroke="black" points="1788.96,-2198.81 1780.92,-2191.92 1782.9,-2202.32 1788.96,-2198.81"/>
<text text-anchor="middle" x="1812.21" y="-2214.29" font-family="Times,serif" font-size="14.00">2</text>
</g>
<!-- 11&#45;&gt;3 -->
<g id="edge60" class="edge">
<title>11&#45;&gt;3</title>
<path fill="none" stroke="black" d="M1880.6,-2253.65C1856.99,-2246.96 1820.44,-2236.23 1789.21,-2225.49 1669.08,-2184.19 1529.14,-2127.4 1467.34,-2101.87"/>
<polygon fill="black" stroke="black" points="1468.34,-2098.5 1457.77,-2097.91 1465.67,-2104.97 1468.34,-2098.5"/>
<text text-anchor="middle" x="1701.21" y="-2170.79" font-family="Times,serif" font-size="14.00">4</text>
</g>
<!-- 11&#45;&gt;8 -->
<g id="edge15" class="edge">
<title>11&#45;&gt;8</title>
<path fill="none" stroke="black" d="M1932.4,-2260.72C2052.74,-2261.51 2533.84,-2262.34 2589.21,-2225.49 2609.73,-2211.83 2613.21,-2200.14 2613.21,-2175.49 2613.21,-2175.49 2613.21,-2175.49 2613.21,-1035 2613.21,-879.39 2374.44,-531.3 2252.21,-435 2212.28,-403.54 2155.84,-384.71 2119.63,-375.09"/>
<polygon fill="black" stroke="black" points="2120.09,-371.6 2109.54,-372.51 2118.36,-378.38 2120.09,-371.6"/>
<text text-anchor="middle" x="2618.21" y="-1310.79" font-family="Times,serif" font-size="14.00">0</text>
</g>
<!-- 11&#45;&gt;18 -->
<g id="edge77" class="edge">
<title>11&#45;&gt;18</title>
<path fill="none" stroke="black" d="M1932.42,-2259.69C2052.53,-2255.83 2529.21,-2236.65 2529.21,-2175.49 2529.21,-2175.49 2529.21,-2175.49 2529.21,-1035 2529.21,-916.11 2555.66,-883.41 2529.21,-767.5 2473.17,-521.95 2389.14,-421.38 2148.21,-348 2088.22,-329.73 1127.09,-289.72 925.23,-281.5"/>
<polygon fill="black" stroke="black" points="925.26,-278 915.13,-281.09 924.98,-284.99 925.26,-278"/>
<text text-anchor="middle" x="2534.21" y="-1267.29" font-family="Times,serif" font-size="14.00">1</text>
</g>
<!-- 11&#45;&gt;27 -->
<g id="edge102" class="edge">
<title>11&#45;&gt;27</title>
<path fill="none" stroke="black" d="M1893.6,-2245.12C1882.43,-2228.76 1867.21,-2201.67 1867.21,-2175.49 1867.21,-2175.49 1867.21,-2175.49 1867.21,-2042.99 1867.21,-1954.37 1646.18,-1823.35 1597.21,-1749.49 1501.16,-1604.6 1506.3,-1552.12 1435.21,-1393.49 1407.3,-1331.2 1408.39,-1311.48 1373.21,-1252.99 1363.59,-1236.99 1362.03,-1231.35 1347.21,-1219.99 1331.09,-1207.63 1316.39,-1218.95 1305.21,-1201.99 1288.32,-1176.38 1291.7,-1159.46 1307.21,-1132.99 1314.69,-1120.23 1327.33,-1127.51 1335.21,-1114.99 1384.95,-1035.96 1361.21,-999.88 1361.21,-906.5 1361.21,-906.5 1361.21,-906.5 1361.21,-556.5 1361.21,-479.71 1086.31,-465.82 985.07,-463.3"/>
<polygon fill="black" stroke="black" points="985.07,-459.8 974.99,-463.08 984.91,-466.8 985.07,-459.8"/>
<text text-anchor="middle" x="1440.21" y="-1363.04" font-family="Times,serif" font-size="14.00">3</text>
</g>
<!-- 12&#45;&gt;1 -->
<g id="edge124" class="edge">
<title>12&#45;&gt;1</title>
<path fill="none" stroke="black" d="M236.4,-1008.63C222.79,-1026.3 203.21,-1056.97 203.21,-1087.24 203.21,-1228.49 203.21,-1228.49 203.21,-1228.49 203.21,-1254.74 228.39,-1406.91 245.21,-1480.49 248.6,-1495.31 246.49,-1500.39 254.21,-1513.49 257.33,-1518.78 261.46,-1523.81 265.81,-1528.32"/>
<polygon fill="black" stroke="black" points="263.54,-1531 273.19,-1535.38 268.38,-1525.94 263.54,-1531"/>
<text text-anchor="middle" x="215.21" y="-1267.29" font-family="Times,serif" font-size="14.00">2</text>
</g>
<!-- 12&#45;&gt;3 -->
<g id="edge89" class="edge">
<title>12&#45;&gt;3</title>
<path fill="none" stroke="black" d="M232.93,-1007.11C219,-1019.72 199.59,-1039.76 189.21,-1061.5 113.09,-1220.87 106.21,-1269.37 83.21,-1444.49 62.97,-1598.57 150.81,-1633.47 254.21,-1749.49 397,-1909.7 455.77,-1939.23 655.21,-2018.49 697.14,-2035.15 706.91,-2042.92 751.21,-2051.49 876.7,-2075.77 1273.8,-2083.95 1397.82,-2085.95"/>
<polygon fill="black" stroke="black" points="1397.91,-2089.45 1407.96,-2086.11 1398.02,-2082.45 1397.91,-2089.45"/>
<text text-anchor="middle" x="101.21" y="-1545.79" font-family="Times,serif" font-size="14.00">4</text>
</g>
<!-- 12&#45;&gt;4 -->
<g id="edge105" class="edge">
<title>12&#45;&gt;4</title>
<path fill="none" stroke="black" d="M222.59,-996.17C175.22,-1002.55 81.21,-1023.28 81.21,-1087.24 81.21,-1228.49 81.21,-1228.49 81.21,-1228.49 81.21,-1279.81 99.05,-1290.14 111.21,-1339.99 129.91,-1416.68 102.26,-1450.03 149.21,-1513.49 158.92,-1526.61 167.35,-1522.88 181.21,-1531.49 217.33,-1553.93 227.6,-1558.19 260.21,-1585.49 395.89,-1699.06 413.66,-1744.81 539.21,-1869.49 584.33,-1914.3 590.91,-1933.08 646.21,-1964.49 648.85,-1965.99 677.72,-1977.4 701.68,-1986.79"/>
<polygon fill="black" stroke="black" points="700.64,-1990.14 711.23,-1990.53 703.19,-1983.62 700.64,-1990.14"/>
<text text-anchor="middle" x="154.21" y="-1502.29" font-family="Times,serif" font-size="14.00">3</text>
</g>
<!-- 12&#45;&gt;6 -->
<g id="edge99" class="edge">
<title>12&#45;&gt;6</title>
<path fill="none" stroke="black" d="M273.39,-984.41C311.64,-973.47 388.59,-952.59 455.21,-941.5 579.9,-920.74 729.8,-911.48 798.08,-908.11"/>
<polygon fill="black" stroke="black" points="798.5,-911.59 808.32,-907.62 798.16,-904.6 798.5,-911.59"/>
<text text-anchor="middle" x="460.21" y="-945.3" font-family="Times,serif" font-size="14.00">1</text>
</g>
<!-- 12&#45;&gt;23 -->
<g id="edge73" class="edge">
<title>12&#45;&gt;23</title>
<path fill="none" stroke="black" d="M256.69,-1009.83C282.05,-1065.78 363.21,-1249.8 363.21,-1313.49 363.21,-1506.99 363.21,-1506.99 363.21,-1506.99 363.21,-1550 362.23,-1566.2 388.21,-1600.49 395.08,-1609.55 405.03,-1616.72 414.81,-1622.15"/>
<polygon fill="black" stroke="black" points="413.53,-1625.43 424.03,-1626.83 416.69,-1619.19 413.53,-1625.43"/>
<text text-anchor="middle" x="368.21" y="-1310.79" font-family="Times,serif" font-size="14.00">0</text>
</g>
<!-- 13&#45;&gt;5 -->
<g id="edge21" class="edge">
<title>13&#45;&gt;5</title>
<path fill="none" stroke="black" d="M1916.26,-1815.58C1864.69,-1811.55 1754.23,-1800.99 1721.21,-1782.49 1709.54,-1775.95 1699.5,-1765.24 1691.8,-1755.08"/>
<polygon fill="black" stroke="black" points="1694.54,-1752.9 1685.89,-1746.77 1688.83,-1756.95 1694.54,-1752.9"/>
<text text-anchor="middle" x="1726.21" y="-1771.29" font-family="Times,serif" font-size="14.00">1</text>
</g>
<!-- 13&#45;&gt;8 -->
<g id="edge10" class="edge">
<title>13&#45;&gt;8</title>
<path fill="none" stroke="black" d="M1970.01,-1815.08C2029.41,-1809.53 2168.25,-1795.33 2185.21,-1782.49 2206.15,-1766.63 2209.21,-1754.75 2209.21,-1728.49 2209.21,-1728.49 2209.21,-1728.49 2209.21,-1313.49 2209.21,-1190.55 2217.21,-1159.93 2217.21,-1037 2217.21,-1037 2217.21,-1037 2217.21,-774 2217.21,-669.23 2228.48,-638.15 2193.21,-539.5 2192.84,-538.47 2117.85,-402.88 2117.21,-402 2113.89,-397.45 2110.02,-392.86 2106.13,-388.58"/>
<polygon fill="black" stroke="black" points="2108.63,-386.12 2099.21,-381.26 2103.54,-390.93 2108.63,-386.12"/>
<text text-anchor="middle" x="2221.21" y="-1084.54" font-family="Times,serif" font-size="14.00">3</text>
</g>
<!-- 13&#45;&gt;8 -->
<g id="edge90" class="edge">
<title>13&#45;&gt;8</title>
<path fill="none" stroke="black" d="M1970.43,-1816.84C2022.97,-1813.98 2133.21,-1799.52 2133.21,-1728.49 2133.21,-1728.49 2133.21,-1728.49 2133.21,-1226.49 2133.21,-1064.82 2119.21,-1024.67 2119.21,-863 2119.21,-863 2119.21,-863 2119.21,-687 2119.21,-672.41 2095.94,-468.87 2087.35,-394.21"/>
<polygon fill="black" stroke="black" points="2090.81,-393.7 2086.19,-384.16 2083.86,-394.5 2090.81,-393.7"/>
<text text-anchor="middle" x="2135.21" y="-1084.54" font-family="Times,serif" font-size="14.00">4</text>
</g>
<!-- 13&#45;&gt;10 -->
<g id="edge41" class="edge">
<title>13&#45;&gt;10</title>
<path fill="none" stroke="black" d="M1969.76,-1815.12C2032.47,-1809.36 2186,-1794.24 2206.21,-1782.49 2232.26,-1767.34 2247.21,-1758.62 2247.21,-1728.49 2247.21,-1728.49 2247.21,-1728.49 2247.21,-1313.49 2247.21,-1213.76 2255.21,-1188.97 2255.21,-1089.24 2255.21,-1089.24 2255.21,-1089.24 2255.21,-774 2255.21,-618.76 2559.21,-757.23 2559.21,-602 2559.21,-602 2559.21,-602 2559.21,-234.5 2559.21,-183.89 2538.58,-165.34 2494.21,-141 2457.2,-120.7 1823.05,-109.2 1660.78,-106.58"/>
<polygon fill="black" stroke="black" points="1660.41,-103.07 1650.36,-106.41 1660.3,-110.07 1660.41,-103.07"/>
<text text-anchor="middle" x="2260.21" y="-945.3" font-family="Times,serif" font-size="14.00">2</text>
</g>
<!-- 13&#45;&gt;14 -->
<g id="edge148" class="edge">
<title>13&#45;&gt;14</title>
<path fill="none" stroke="black" d="M1916.37,-1816.27C1835.75,-1811.88 1601.21,-1793.52 1601.21,-1728.49 1601.21,-1728.49 1601.21,-1728.49 1601.21,-1461.49 1601.21,-1349.37 1539.23,-1331.52 1459.21,-1252.99 1429.65,-1223.98 1415.43,-1225.32 1381.21,-1201.99 1228.46,-1097.84 1187.13,-1068.32 1072.21,-923.5 1022.03,-860.27 1030.89,-829.5 979.21,-767.5 974.87,-762.29 969.72,-757.18 964.59,-752.55"/>
<polygon fill="black" stroke="black" points="966.52,-749.6 956.66,-745.72 961.95,-754.9 966.52,-749.6"/>
<text text-anchor="middle" x="1502.21" y="-1267.29" font-family="Times,serif" font-size="14.00">0</text>
</g>
<!-- 14&#45;&gt;7 -->
<g id="edge111" class="edge">
<title>14&#45;&gt;7</title>
<path fill="none" stroke="black" d="M956.83,-717.44C964.7,-711.22 973.83,-703.41 981.21,-695.5 988.46,-687.71 995.51,-678.43 1001.42,-669.99"/>
<polygon fill="black" stroke="black" points="1004.4,-671.83 1007.13,-661.59 998.61,-667.9 1004.4,-671.83"/>
<text text-anchor="middle" x="997.21" y="-684.3" font-family="Times,serif" font-size="14.00">3</text>
</g>
<!-- 14&#45;&gt;16 -->
<g id="edge95" class="edge">
<title>14&#45;&gt;16</title>
<path fill="none" stroke="black" d="M912.69,-727.35C833.89,-717.01 596.49,-678.65 432.21,-575.5 304.05,-495.02 203.21,-474.84 203.21,-323.5 203.21,-323.5 203.21,-323.5 203.21,-104 203.21,-41.21 682.75,-23.64 821.2,-19.88"/>
<polygon fill="black" stroke="black" points="821.41,-23.37 831.31,-19.61 821.22,-16.38 821.41,-23.37"/>
<text text-anchor="middle" x="215.21" y="-362.3" font-family="Times,serif" font-size="14.00">2</text>
</g>
<!-- 14&#45;&gt;18 -->
<g id="edge151" class="edge">
<title>14&#45;&gt;18</title>
<path fill="none" stroke="black" d="M937.27,-713.39C929.53,-645.02 900.79,-391.13 891.28,-307.16"/>
<polygon fill="black" stroke="black" points="894.75,-306.67 890.15,-297.13 887.8,-307.46 894.75,-306.67"/>
<text text-anchor="middle" x="920.21" y="-510.3" font-family="Times,serif" font-size="14.00">1</text>
</g>
<!-- 14&#45;&gt;28 -->
<g id="edge114" class="edge">
<title>14&#45;&gt;28</title>
<path fill="none" stroke="black" d="M941.18,-749.72C950.99,-835.15 994.12,-1210.43 998.21,-1234.99 1010.33,-1307.8 1030.24,-1392.57 1040.55,-1434.77"/>
<polygon fill="black" stroke="black" points="1037.17,-1435.67 1042.96,-1444.55 1043.97,-1434 1037.17,-1435.67"/>
<text text-anchor="middle" x="988.21" y="-1084.54" font-family="Times,serif" font-size="14.00">4</text>
</g>
<!-- 14&#45;&gt;28 -->
<g id="edge137" class="edge">
<title>14&#45;&gt;28</title>
<path fill="none" stroke="black" d="M938.97,-749.62C938.9,-759.28 938.91,-771.56 939.21,-782.5 939.88,-806.52 940.64,-812.51 942.21,-836.5 958.52,-1085.57 936.57,-1156.26 1014.21,-1393.49 1019.06,-1408.3 1026.51,-1424 1033.1,-1436.57"/>
<polygon fill="black" stroke="black" points="1030.1,-1438.38 1037.92,-1445.52 1036.26,-1435.06 1030.1,-1438.38"/>
<text text-anchor="middle" x="959.21" y="-1084.54" font-family="Times,serif" font-size="14.00">0</text>
</g>
<!-- 15&#45;&gt;12 -->
<g id="edge44" class="edge">
<title>15&#45;&gt;12</title>
<path fill="none" stroke="black" d="M1558.67,-1084.21C1511.67,-1078.92 1410.69,-1067.98 1325.21,-1061.5 1110.42,-1045.21 571.45,-1032.94 357.21,-1010.5 332.99,-1007.96 305.91,-1003.69 284.93,-1000.07"/>
<polygon fill="black" stroke="black" points="285.32,-996.58 274.86,-998.3 284.1,-1003.48 285.32,-996.58"/>
<text text-anchor="middle" x="958.21" y="-1032.3" font-family="Times,serif" font-size="14.00">4</text>
</g>
<!-- 15&#45;&gt;17 -->
<g id="edge110" class="edge">
<title>15&#45;&gt;17</title>
<path fill="none" stroke="black" d="M1570.84,-1065.52C1560.08,-1047.13 1547.21,-1019.66 1547.21,-993.5 1547.21,-993.5 1547.21,-993.5 1547.21,-774 1547.21,-608.05 1553.55,-563.45 1515.21,-402 1514.49,-398.98 1513.56,-395.87 1512.52,-392.82"/>
<polygon fill="black" stroke="black" points="1515.76,-391.51 1508.93,-383.41 1509.22,-394 1515.76,-391.51"/>
<text text-anchor="middle" x="1552.21" y="-727.8" font-family="Times,serif" font-size="14.00">2</text>
</g>
<!-- 15&#45;&gt;19 -->
<g id="edge78" class="edge">
<title>15&#45;&gt;19</title>
<path fill="none" stroke="black" d="M1594.69,-1113.27C1610.36,-1153.26 1642.4,-1236.07 1667.21,-1306.99 1669.98,-1314.9 1672.83,-1323.47 1675.45,-1331.54"/>
<polygon fill="black" stroke="black" points="1672.12,-1332.62 1678.52,-1341.07 1678.79,-1330.48 1672.12,-1332.62"/>
<text text-anchor="middle" x="1645.21" y="-1223.79" font-family="Times,serif" font-size="14.00">1</text>
</g>
<!-- 15&#45;&gt;22 -->
<g id="edge26" class="edge">
<title>15&#45;&gt;22</title>
<path fill="none" stroke="black" d="M1611.36,-1094.99C1633.21,-1101.04 1663.83,-1112.6 1683.21,-1132.99 1712.6,-1163.91 1726.21,-1212.92 1732.11,-1243.17"/>
<polygon fill="black" stroke="black" points="1728.67,-1243.81 1733.89,-1253.03 1735.56,-1242.57 1728.67,-1243.81"/>
<text text-anchor="middle" x="1726.21" y="-1180.29" font-family="Times,serif" font-size="14.00">3</text>
</g>
<!-- 15&#45;&gt;22 -->
<g id="edge119" class="edge">
<title>15&#45;&gt;22</title>
<path fill="none" stroke="black" d="M1606.24,-1104.99C1616.15,-1112.87 1627.82,-1122.88 1637.21,-1132.99 1670.73,-1169.08 1702.85,-1216.73 1721,-1245.28"/>
<polygon fill="black" stroke="black" points="1718.1,-1247.23 1726.38,-1253.83 1724.02,-1243.51 1718.1,-1247.23"/>
<text text-anchor="middle" x="1696.21" y="-1180.29" font-family="Times,serif" font-size="14.00">0</text>
</g>
<!-- 16&#45;&gt;5 -->
<g id="edge63" class="edge">
<title>16&#45;&gt;5</title>
<path fill="none" stroke="black" d="M885.47,-19.07C1088.36,-19.8 2355.21,-27.37 2355.21,-104 2355.21,-323.5 2355.21,-323.5 2355.21,-323.5 2355.21,-410.9 2306.54,-423.41 2248.21,-488.5 2183.49,-560.71 2130.09,-543.94 2079.21,-626.5 2009.2,-740.08 2057.21,-1093.07 2057.21,-1226.49 2057.21,-1637.49 2057.21,-1637.49 2057.21,-1637.49 2057.21,-1709.05 1799.72,-1723.1 1707.54,-1725.83"/>
<polygon fill="black" stroke="black" points="1707.3,-1722.34 1697.4,-1726.11 1707.49,-1729.34 1707.3,-1722.34"/>
<text text-anchor="middle" x="2045.21" y="-858.3" font-family="Times,serif" font-size="14.00">1</text>
</g>
<!-- 16&#45;&gt;11 -->
<g id="edge98" class="edge">
<title>16&#45;&gt;11</title>
<path fill="none" stroke="black" d="M885.3,-18.82C1109.61,-17.46 2651.21,-11.53 2651.21,-104 2651.21,-2175.49 2651.21,-2175.49 2651.21,-2175.49 2651.21,-2203.95 2636.55,-2212.53 2611.21,-2225.49 2551.51,-2256.02 2079.17,-2259.93 1942.27,-2260.42"/>
<polygon fill="black" stroke="black" points="1942.26,-2256.92 1932.27,-2260.45 1942.28,-2263.92 1942.26,-2256.92"/>
<text text-anchor="middle" x="2656.21" y="-1136.79" font-family="Times,serif" font-size="14.00">4</text>
</g>
<!-- 16&#45;&gt;11 -->
<g id="edge104" class="edge">
<title>16&#45;&gt;11</title>
<path fill="none" stroke="black" d="M885.28,-19.23C1087.14,-20.99 2354.31,-32.83 2523.21,-54 2741.84,-81.4 2689.21,-58.88 2689.21,-104 2689.21,-2175.49 2689.21,-2175.49 2689.21,-2175.49 2689.21,-2207.55 2666.65,-2212.8 2637.21,-2225.49 2573.22,-2253.05 2082.83,-2259.07 1942.57,-2260.23"/>
<polygon fill="black" stroke="black" points="1942.31,-2256.74 1932.33,-2260.32 1942.36,-2263.74 1942.31,-2256.74"/>
<text text-anchor="middle" x="2694.21" y="-1136.79" font-family="Times,serif" font-size="14.00">2</text>
</g>
<!-- 16&#45;&gt;22 -->
<g id="edge43" class="edge">
<title>16&#45;&gt;22</title>
<path fill="none" stroke="black" d="M885.21,-19.11C1086.19,-19.96 2342.22,-26.38 2369.21,-54 2436.09,-122.45 2418.94,-417.44 2351.21,-521.5 2274.42,-639.46 2081.21,-546.25 2081.21,-687 2081.21,-906.5 2081.21,-906.5 2081.21,-906.5 2081.21,-1014.13 2125.44,-1060.18 2063.21,-1147.99 1995.56,-1243.45 1843.93,-1264.31 1773.49,-1268.8"/>
<polygon fill="black" stroke="black" points="1773.1,-1265.32 1763.31,-1269.37 1773.49,-1272.31 1773.1,-1265.32"/>
<text text-anchor="middle" x="2106.21" y="-640.8" font-family="Times,serif" font-size="14.00">0</text>
</g>
<!-- 16&#45;&gt;27 -->
<g id="edge9" class="edge">
<title>16&#45;&gt;27</title>
<path fill="none" stroke="black" d="M832.97,-24.94C798.04,-34.84 739.21,-58.3 739.21,-104 739.21,-280 739.21,-280 739.21,-280 739.21,-370.92 853.77,-426.29 913.26,-448.91"/>
<polygon fill="black" stroke="black" points="912.41,-452.33 923,-452.51 914.83,-445.76 912.41,-452.33"/>
<text text-anchor="middle" x="744.21" y="-231.8" font-family="Times,serif" font-size="14.00">3</text>
</g>
<!-- 17&#45;&gt;2 -->
<g id="edge22" class="edge">
<title>17&#45;&gt;2</title>
<path fill="none" stroke="black" d="M1526.11,-373.23C1568.29,-384.06 1656.24,-407.81 1728.21,-435 1911.48,-504.24 2445.21,-752.08 2445.21,-948 2445.21,-1315.49 2445.21,-1315.49 2445.21,-1315.49 2445.21,-1380.38 2444.21,-1396.6 2444.21,-1461.49 2444.21,-1680.99 2444.21,-1680.99 2444.21,-1680.99 2444.21,-1753.06 2436.8,-1775.62 2398.21,-1836.49 2386.41,-1855.1 2378.31,-1855.6 2361.21,-1869.49 2325.19,-1898.74 2316.97,-1907.56 2277.21,-1931.49 2106.96,-2033.94 1886.71,-2127.29 1805.29,-2160.58"/>
<polygon fill="black" stroke="black" points="1803.78,-2157.41 1795.84,-2164.43 1806.42,-2163.89 1803.78,-2157.41"/>
<text text-anchor="middle" x="2450.21" y="-1267.29" font-family="Times,serif" font-size="14.00">2</text>
</g>
<!-- 17&#45;&gt;13 -->
<g id="edge16" class="edge">
<title>17&#45;&gt;13</title>
<path fill="none" stroke="black" d="M1519.26,-379.55C1599.65,-435.58 1921.21,-661.33 1921.21,-687 1921.21,-863 1921.21,-863 1921.21,-863 1921.21,-1024.85 1943.21,-1064.64 1943.21,-1226.49 1943.21,-1728.49 1943.21,-1728.49 1943.21,-1728.49 1943.21,-1749.22 1943.21,-1772.66 1943.21,-1790.28"/>
<polygon fill="black" stroke="black" points="1939.71,-1790.43 1943.21,-1800.43 1946.71,-1790.43 1939.71,-1790.43"/>
<text text-anchor="middle" x="1943.21" y="-1084.54" font-family="Times,serif" font-size="14.00">3</text>
</g>
<!-- 17&#45;&gt;13 -->
<g id="edge94" class="edge">
<title>17&#45;&gt;13</title>
<path fill="none" stroke="black" d="M1522.43,-377.23C1536.59,-384.11 1555.59,-393.45 1572.21,-402 1584.76,-408.46 1587.35,-411.18 1600.21,-417 1620.96,-426.4 1628.13,-424.24 1648.21,-435 1816.83,-525.39 1997.21,-495.68 1997.21,-687 1997.21,-819.5 1997.21,-819.5 1997.21,-819.5 1997.21,-1000.65 2019.21,-1045.34 2019.21,-1226.49 2019.21,-1728.49 2019.21,-1728.49 2019.21,-1728.49 2019.21,-1759.16 1992.78,-1784.61 1971.09,-1800.32"/>
<polygon fill="black" stroke="black" points="1969.03,-1797.5 1962.78,-1806.06 1973,-1803.26 1969.03,-1797.5"/>
<text text-anchor="middle" x="2020.21" y="-1084.54" font-family="Times,serif" font-size="14.00">4</text>
</g>
<!-- 17&#45;&gt;14 -->
<g id="edge92" class="edge">
<title>17&#45;&gt;14</title>
<path fill="none" stroke="black" d="M1478.88,-376.47C1465.72,-382.65 1449.16,-391.51 1436.21,-402 1342.73,-477.72 1359.47,-539.09 1261.21,-608.5 1168.89,-673.7 1037.31,-709.14 974.81,-723.21"/>
<polygon fill="black" stroke="black" points="973.69,-719.87 964.67,-725.44 975.19,-726.71 973.69,-719.87"/>
<text text-anchor="middle" x="1334.21" y="-553.8" font-family="Times,serif" font-size="14.00">1</text>
</g>
<!-- 17&#45;&gt;18 -->
<g id="edge85" class="edge">
<title>17&#45;&gt;18</title>
<path fill="none" stroke="black" d="M1474.87,-361.35C1377.41,-347.83 1037.09,-300.64 924.61,-285.05"/>
<polygon fill="black" stroke="black" points="924.84,-281.55 914.45,-283.64 923.88,-288.48 924.84,-281.55"/>
<text text-anchor="middle" x="1236.21" y="-318.8" font-family="Times,serif" font-size="14.00">0</text>
</g>
<!-- 18&#45;&gt;11 -->
<g id="edge34" class="edge">
<title>18&#45;&gt;11</title>
<path fill="none" stroke="black" d="M915.39,-281.32C981.67,-284.5 1156.89,-292.64 1303.21,-297 1410.4,-300.19 2164.32,-288.41 2268.21,-315 2404.14,-349.79 2442.92,-388.73 2519.21,-506.5 2647.63,-704.74 2575.21,-798.79 2575.21,-1035 2575.21,-2175.49 2575.21,-2175.49 2575.21,-2175.49 2575.21,-2201.87 2566,-2212.19 2543.21,-2225.49 2491.37,-2255.73 2071.23,-2259.85 1942.54,-2260.41"/>
<polygon fill="black" stroke="black" points="1942.37,-2256.91 1932.39,-2260.44 1942.4,-2263.91 1942.37,-2256.91"/>
<text text-anchor="middle" x="2580.21" y="-1267.29" font-family="Times,serif" font-size="14.00">1</text>
</g>
<!-- 18&#45;&gt;12 -->
<g id="edge23" class="edge">
<title>18&#45;&gt;12</title>
<path fill="none" stroke="black" d="M861.23,-281.82C820.01,-286.09 741.69,-300.38 699.21,-348 641.92,-412.23 664.68,-452.52 613.21,-521.5 572.21,-576.44 546.21,-575.66 500.21,-626.5 467.64,-662.48 462.33,-673.94 434.21,-713.5 368.88,-805.38 296.05,-918.09 264.81,-966.96"/>
<polygon fill="black" stroke="black" points="261.73,-965.28 259.31,-975.59 267.64,-969.04 261.73,-965.28"/>
<text text-anchor="middle" x="505.21" y="-640.8" font-family="Times,serif" font-size="14.00">0</text>
</g>
<!-- 18&#45;&gt;14 -->
<g id="edge6" class="edge">
<title>18&#45;&gt;14</title>
<path fill="none" stroke="black" d="M871.07,-293.25C864.16,-299.28 856.57,-306.89 851.21,-315 781.78,-420.03 767.99,-437.65 780.21,-521.5 789.64,-586.2 781.76,-611.12 822.21,-662.5 843.73,-689.83 879.5,-708.3 905.84,-719.01"/>
<polygon fill="black" stroke="black" points="904.83,-722.37 915.42,-722.73 907.37,-715.85 904.83,-722.37"/>
<text text-anchor="middle" x="785.21" y="-510.3" font-family="Times,serif" font-size="14.00">2</text>
</g>
<!-- 21 -->
<g id="node23" class="node">
<title>21</title>
<ellipse fill="none" stroke="black" cx="523.21" cy="-192" rx="27" ry="18"/>
<text text-anchor="middle" x="523.21" y="-188.3" font-family="Times,serif" font-size="14.00">21</text>
</g>
<!-- 18&#45;&gt;21 -->
<g id="edge12" class="edge">
<title>18&#45;&gt;21</title>
<path fill="none" stroke="black" d="M862.3,-273.62C827.05,-267.51 762.08,-255.74 707.21,-243 654.45,-230.75 593.97,-213.73 557.19,-203.05"/>
<polygon fill="black" stroke="black" points="558.05,-199.65 547.47,-200.21 556.09,-206.37 558.05,-199.65"/>
<text text-anchor="middle" x="712.21" y="-231.8" font-family="Times,serif" font-size="14.00">3</text>
</g>
<!-- 18&#45;&gt;27 -->
<g id="edge86" class="edge">
<title>18&#45;&gt;27</title>
<path fill="none" stroke="black" d="M893.82,-296.91C903.59,-326.33 923.89,-387.49 936.74,-426.2"/>
<polygon fill="black" stroke="black" points="933.52,-427.61 939.99,-435.99 940.16,-425.4 933.52,-427.61"/>
<text text-anchor="middle" x="926.21" y="-362.3" font-family="Times,serif" font-size="14.00">4</text>
</g>
<!-- 19&#45;&gt;5 -->
<g id="edge135" class="edge">
<title>19&#45;&gt;5</title>
<path fill="none" stroke="black" d="M1685.41,-1393.77C1683.43,-1458.25 1678.32,-1625.2 1676.17,-1695.04"/>
<polygon fill="black" stroke="black" points="1672.66,-1695.28 1675.86,-1705.39 1679.66,-1695.5 1672.66,-1695.28"/>
<text text-anchor="middle" x="1685.21" y="-1545.79" font-family="Times,serif" font-size="14.00">1</text>
</g>
<!-- 19&#45;&gt;10 -->
<g id="edge74" class="edge">
<title>19&#45;&gt;10</title>
<path fill="none" stroke="black" d="M1706.77,-1348.91C1731.08,-1328.79 1768.69,-1296.85 1772.21,-1288.99 1778.75,-1274.39 1772.9,-1268.98 1772.21,-1252.99 1755.97,-877.5 1699.21,-786.34 1699.21,-410.5 1699.21,-410.5 1699.21,-410.5 1699.21,-191 1699.21,-161.6 1673.62,-137.7 1652.14,-122.82"/>
<polygon fill="black" stroke="black" points="1653.86,-119.75 1643.58,-117.19 1650.01,-125.6 1653.86,-119.75"/>
<text text-anchor="middle" x="1723.21" y="-727.8" font-family="Times,serif" font-size="14.00">0</text>
</g>
<!-- 19&#45;&gt;15 -->
<g id="edge36" class="edge">
<title>19&#45;&gt;15</title>
<path fill="none" stroke="black" d="M1675.9,-1341.58C1664.61,-1317.16 1644.67,-1279.37 1619.21,-1252.99 1608.93,-1242.35 1598.56,-1247.83 1591.21,-1234.99 1571.92,-1201.33 1573.57,-1155.77 1578,-1124.6"/>
<polygon fill="black" stroke="black" points="1581.48,-1125.04 1579.59,-1114.62 1574.56,-1123.95 1581.48,-1125.04"/>
<text text-anchor="middle" x="1596.21" y="-1223.79" font-family="Times,serif" font-size="14.00">4</text>
</g>
<!-- 19&#45;&gt;15 -->
<g id="edge132" class="edge">
<title>19&#45;&gt;15</title>
<path fill="none" stroke="black" d="M1668.07,-1346.84C1636.75,-1313.96 1575.33,-1248.47 1570.21,-1234.99 1556.38,-1198.56 1564.47,-1153.55 1573.2,-1123.26"/>
<polygon fill="black" stroke="black" points="1576.58,-1124.17 1576.16,-1113.59 1569.89,-1122.13 1576.58,-1124.17"/>
<text text-anchor="middle" x="1575.21" y="-1223.79" font-family="Times,serif" font-size="14.00">2</text>
</g>
<!-- 19&#45;&gt;22 -->
<g id="edge96" class="edge">
<title>19&#45;&gt;22</title>
<path fill="none" stroke="black" d="M1698.57,-1342.57C1705.9,-1328.82 1715.2,-1311.39 1722.72,-1297.28"/>
<polygon fill="black" stroke="black" points="1725.98,-1298.61 1727.6,-1288.14 1719.8,-1295.32 1725.98,-1298.61"/>
<text text-anchor="middle" x="1721.21" y="-1310.79" font-family="Times,serif" font-size="14.00">3</text>
</g>
<!-- 20&#45;&gt;12 -->
<g id="edge56" class="edge">
<title>20&#45;&gt;12</title>
<path fill="none" stroke="black" d="M442.42,-563.48C408.4,-571.3 348.58,-589.54 312.21,-626.5 262.2,-677.3 249.21,-702.71 249.21,-774 249.21,-906.5 249.21,-906.5 249.21,-906.5 249.21,-925.74 249.21,-947.44 249.21,-964.1"/>
<polygon fill="black" stroke="black" points="245.71,-964.24 249.21,-974.24 252.71,-964.24 245.71,-964.24"/>
<text text-anchor="middle" x="254.21" y="-771.3" font-family="Times,serif" font-size="14.00">3</text>
</g>
<!-- 20&#45;&gt;16 -->
<g id="edge61" class="edge">
<title>20&#45;&gt;16</title>
<path fill="none" stroke="black" d="M453.09,-542.5C409.59,-500.61 287.21,-370.85 287.21,-236.5 287.21,-236.5 287.21,-236.5 287.21,-104 287.21,-49.84 694.36,-26.54 821.05,-20.6"/>
<polygon fill="black" stroke="black" points="821.22,-24.09 831.05,-20.14 820.9,-17.1 821.22,-24.09"/>
<text text-anchor="middle" x="300.21" y="-275.3" font-family="Times,serif" font-size="14.00">2</text>
</g>
<!-- 20&#45;&gt;21 -->
<g id="edge2" class="edge">
<title>20&#45;&gt;21</title>
<path fill="none" stroke="black" d="M459.82,-540.04C451.26,-521.68 439.21,-490.86 439.21,-462.75 439.21,-462.75 439.21,-462.75 439.21,-278 439.21,-246.54 468.68,-222.53 492.71,-208.18"/>
<polygon fill="black" stroke="black" points="494.6,-211.13 501.58,-203.16 491.15,-205.04 494.6,-211.13"/>
<text text-anchor="middle" x="444.21" y="-362.3" font-family="Times,serif" font-size="14.00">1</text>
</g>
<!-- 20&#45;&gt;21 -->
<g id="edge72" class="edge">
<title>20&#45;&gt;21</title>
<path fill="none" stroke="black" d="M473.13,-539.73C478.15,-521.1 485.21,-490.04 485.21,-462.75 485.21,-462.75 485.21,-462.75 485.21,-278 485.21,-255.91 496.04,-233.17 506.14,-216.78"/>
<polygon fill="black" stroke="black" points="509.09,-218.67 511.6,-208.37 503.22,-214.85 509.09,-218.67"/>
<text text-anchor="middle" x="490.21" y="-362.3" font-family="Times,serif" font-size="14.00">0</text>
</g>
<!-- 20&#45;&gt;27 -->
<g id="edge144" class="edge">
<title>20&#45;&gt;27</title>
<path fill="none" stroke="black" d="M494.02,-551.46C574.17,-535.8 819.02,-487.98 911.93,-469.83"/>
<polygon fill="black" stroke="black" points="912.84,-473.22 921.98,-467.87 911.5,-466.35 912.84,-473.22"/>
<text text-anchor="middle" x="727.21" y="-510.3" font-family="Times,serif" font-size="14.00">4</text>
</g>
<!-- 21&#45;&gt;3 -->
<g id="edge58" class="edge">
<title>21&#45;&gt;3</title>
<path fill="none" stroke="black" d="M550.29,-193.83C752.11,-200.22 2017.5,-244.3 2148.21,-348 2337.85,-498.45 2331.21,-618.93 2331.21,-861 2331.21,-1141.49 2331.21,-1141.49 2331.21,-1141.49 2331.21,-1218.02 2323.21,-1236.96 2323.21,-1313.49 2323.21,-1680.99 2323.21,-1680.99 2323.21,-1680.99 2323.21,-1773.69 2265,-1791.04 2184.21,-1836.49 2026.88,-1924.99 1968.52,-1905.59 1805.21,-1982.49 1775.68,-1996.39 1770.12,-2003.34 1741.21,-2018.49 1725.01,-2026.97 1720.49,-2028.17 1704.21,-2036.49 1691.64,-2042.91 1689.62,-2047.07 1676.21,-2051.49 1606.58,-2074.41 1520.72,-2082.34 1472.55,-2085.07"/>
<polygon fill="black" stroke="black" points="1472.1,-2081.59 1462.29,-2085.6 1472.46,-2088.58 1472.1,-2081.59"/>
<text text-anchor="middle" x="2336.21" y="-1136.79" font-family="Times,serif" font-size="14.00">4</text>
</g>
<!-- 21&#45;&gt;10 -->
<g id="edge25" class="edge">
<title>21&#45;&gt;10</title>
<path fill="none" stroke="black" d="M549.86,-188.94C697.53,-177.53 1415,-122.09 1586.39,-108.85"/>
<polygon fill="black" stroke="black" points="1586.72,-112.33 1596.42,-108.07 1586.18,-105.35 1586.72,-112.33"/>
<text text-anchor="middle" x="1143.21" y="-144.8" font-family="Times,serif" font-size="14.00">0</text>
</g>
<!-- 21&#45;&gt;12 -->
<g id="edge134" class="edge">
<title>21&#45;&gt;12</title>
<path fill="none" stroke="black" d="M496.55,-195.24C453.47,-199.35 371.16,-209.45 349.21,-228 315.54,-256.46 211.21,-555.91 211.21,-600 211.21,-906.5 211.21,-906.5 211.21,-906.5 211.21,-928.59 222.04,-951.32 232.14,-967.71"/>
<polygon fill="black" stroke="black" points="229.22,-969.64 237.6,-976.12 235.09,-965.83 229.22,-969.64"/>
<text text-anchor="middle" x="216.21" y="-597.3" font-family="Times,serif" font-size="14.00">3</text>
</g>
<!-- 21&#45;&gt;23 -->
<g id="edge17" class="edge">
<title>21&#45;&gt;23</title>
<path fill="none" stroke="black" d="M523.21,-210.26C523.21,-227.43 523.21,-254.54 523.21,-278 523.21,-515 523.21,-515 523.21,-515 523.21,-525.42 478.33,-877.13 477.21,-887.5 473.05,-926.1 472.7,-935.82 469.21,-974.5 455.62,-1125.14 439.21,-1162.24 439.21,-1313.49 439.21,-1550.49 439.21,-1550.49 439.21,-1550.49 439.21,-1569.82 441.29,-1591.52 443.32,-1608.15"/>
<polygon fill="black" stroke="black" points="439.88,-1608.81 444.63,-1618.28 446.82,-1607.91 439.88,-1608.81"/>
<text text-anchor="middle" x="482.21" y="-901.8" font-family="Times,serif" font-size="14.00">1</text>
</g>
<!-- 21&#45;&gt;25 -->
<g id="edge67" class="edge">
<title>21&#45;&gt;25</title>
<path fill="none" stroke="black" d="M543.58,-204.19C566.09,-218.22 599.21,-244.55 599.21,-278 599.21,-515 599.21,-515 599.21,-515 599.21,-627.57 677.35,-745.29 713.84,-794.13"/>
<polygon fill="black" stroke="black" points="711.1,-796.31 719.94,-802.17 716.68,-792.08 711.1,-796.31"/>
<text text-anchor="middle" x="604.21" y="-510.3" font-family="Times,serif" font-size="14.00">2</text>
</g>
<!-- 22&#45;&gt;3 -->
<g id="edge75" class="edge">
<title>22&#45;&gt;3</title>
<path fill="none" stroke="black" d="M1749.53,-1286.97C1775.25,-1317.48 1829.21,-1390.03 1829.21,-1461.49 1829.21,-1593.99 1829.21,-1593.99 1829.21,-1593.99 1829.21,-1636.89 1825.76,-1649.83 1805.21,-1687.49 1804.82,-1688.2 1533.28,-1980.82 1455.69,-2064.42"/>
<polygon fill="black" stroke="black" points="1453.04,-2062.13 1448.8,-2071.84 1458.17,-2066.89 1453.04,-2062.13"/>
<text text-anchor="middle" x="1817.21" y="-1676.29" font-family="Times,serif" font-size="14.00">2</text>
</g>
<!-- 22&#45;&gt;11 -->
<g id="edge125" class="edge">
<title>22&#45;&gt;11</title>
<path fill="none" stroke="black" d="M1756.97,-1282.71C1793.91,-1303.43 1867.21,-1352.77 1867.21,-1417.99 1867.21,-1862.99 1867.21,-1862.99 1867.21,-1862.99 1867.21,-1908.59 1864.3,-1922.55 1882.21,-1964.49 1899.56,-2005.12 1943.21,-1998.8 1943.21,-2042.99 1943.21,-2175.49 1943.21,-2175.49 1943.21,-2175.49 1943.21,-2197.58 1932.38,-2220.32 1922.28,-2236.71"/>
<polygon fill="black" stroke="black" points="1919.33,-2234.82 1916.82,-2245.12 1925.2,-2238.63 1919.33,-2234.82"/>
<text text-anchor="middle" x="1872.21" y="-1771.29" font-family="Times,serif" font-size="14.00">1</text>
</g>
<!-- 22&#45;&gt;14 -->
<g id="edge138" class="edge">
<title>22&#45;&gt;14</title>
<path fill="none" stroke="black" d="M1719.88,-1256.35C1632.29,-1183.37 1216.59,-839.8 1067.21,-767.5 1037.74,-753.23 1001.53,-744.02 975.16,-738.64"/>
<polygon fill="black" stroke="black" points="975.7,-735.18 965.21,-736.7 974.36,-742.05 975.7,-735.18"/>
<text text-anchor="middle" x="1419.21" y="-988.8" font-family="Times,serif" font-size="14.00">0</text>
</g>
<!-- 22&#45;&gt;18 -->
<g id="edge139" class="edge">
<title>22&#45;&gt;18</title>
<path fill="none" stroke="black" d="M1737.97,-1252.92C1738.47,-1247.23 1738.96,-1240.84 1739.21,-1234.99 1740.52,-1204.3 1739.07,-1196.47 1735.21,-1165.99 1724.33,-1080.09 1676.21,-868.51 1666.21,-782.5 1661.4,-741.16 1661.21,-730.61 1661.21,-689 1661.21,-689 1661.21,-689 1661.21,-408.5 1661.21,-347.18 1596.09,-365.14 1537.21,-348 1312.09,-282.48 1026.79,-278.45 925.75,-279.32"/>
<polygon fill="black" stroke="black" points="925.41,-275.82 915.45,-279.43 925.49,-282.82 925.41,-275.82"/>
<text text-anchor="middle" x="1671.21" y="-771.3" font-family="Times,serif" font-size="14.00">3</text>
</g>
<!-- 22&#45;&gt;24 -->
<g id="edge108" class="edge">
<title>22&#45;&gt;24</title>
<path fill="none" stroke="black" d="M1709.89,-1266.17C1615.71,-1252.51 1295.25,-1206.03 1186.59,-1190.27"/>
<polygon fill="black" stroke="black" points="1186.85,-1186.77 1176.45,-1188.8 1185.85,-1193.7 1186.85,-1186.77"/>
<text text-anchor="middle" x="1483.21" y="-1223.79" font-family="Times,serif" font-size="14.00">4</text>
</g>
<!-- 23&#45;&gt;1 -->
<g id="edge145" class="edge">
<title>23&#45;&gt;1</title>
<path fill="none" stroke="black" d="M424.44,-1626.48C417.63,-1623.85 410.14,-1621 403.21,-1618.49 379.82,-1610 371.91,-1612.66 350.21,-1600.49 336.31,-1592.7 322.54,-1581.53 311.69,-1571.72"/>
<polygon fill="black" stroke="black" points="314.06,-1569.14 304.36,-1564.89 309.29,-1574.26 314.06,-1569.14"/>
<text text-anchor="middle" x="355.21" y="-1589.29" font-family="Times,serif" font-size="14.00">2</text>
</g>
<!-- 23&#45;&gt;4 -->
<g id="edge101" class="edge">
<title>23&#45;&gt;4</title>
<path fill="none" stroke="black" d="M457.33,-1653.46C497.87,-1717.41 647.11,-1952.14 661.21,-1964.49 667.93,-1970.37 685.96,-1979.04 702.42,-1986.27"/>
<polygon fill="black" stroke="black" points="701.27,-1989.59 711.83,-1990.34 704.04,-1983.16 701.27,-1989.59"/>
<text text-anchor="middle" x="578.21" y="-1814.79" font-family="Times,serif" font-size="14.00">1</text>
</g>
<!-- 23&#45;&gt;18 -->
<g id="edge100" class="edge">
<title>23&#45;&gt;18</title>
<path fill="none" stroke="black" d="M456.54,-1619.47C465.34,-1602.81 477.21,-1575.68 477.21,-1550.49 477.21,-1550.49 477.21,-1550.49 477.21,-1313.49 477.21,-1263.86 472.54,-1251.6 471.21,-1201.99 469.53,-1139.57 468.35,-1123.87 471.21,-1061.5 472.99,-1022.71 471.38,-1012.53 479.21,-974.5 490.51,-919.57 497.47,-906.6 518.21,-854.5 543.87,-790.04 549.26,-772.84 585.21,-713.5 625,-647.81 648.73,-640.76 689.21,-575.5 748.82,-479.39 736.36,-439.22 803.21,-348 818.47,-327.17 841.66,-309.21 859.96,-296.98"/>
<polygon fill="black" stroke="black" points="862.01,-299.82 868.5,-291.45 858.2,-293.95 862.01,-299.82"/>
<text text-anchor="middle" x="491.21" y="-945.3" font-family="Times,serif" font-size="14.00">3</text>
</g>
<!-- 23&#45;&gt;20 -->
<g id="edge42" class="edge">
<title>23&#45;&gt;20</title>
<path fill="none" stroke="black" d="M433.41,-1620.81C419.86,-1604.82 401.21,-1577.84 401.21,-1550.49 401.21,-1550.49 401.21,-1550.49 401.21,-1313.49 401.21,-1161.56 337.46,-1125.14 357.21,-974.5 377,-823.59 435.52,-649.58 458.65,-584.67"/>
<polygon fill="black" stroke="black" points="461.96,-585.81 462.05,-575.21 455.37,-583.44 461.96,-585.81"/>
<text text-anchor="middle" x="369.21" y="-1084.54" font-family="Times,serif" font-size="14.00">4</text>
</g>
<!-- 23&#45;&gt;24 -->
<g id="edge38" class="edge">
<title>23&#45;&gt;24</title>
<path fill="none" stroke="black" d="M470.44,-1627.01C538.5,-1602.55 743.74,-1531.52 920.21,-1498.49 956.03,-1491.78 1054.98,-1503.54 1083.21,-1480.49 1164.53,-1414.09 1159.78,-1271.62 1153.73,-1212.05"/>
<polygon fill="black" stroke="black" points="1157.19,-1211.48 1152.61,-1201.93 1150.23,-1212.25 1157.19,-1211.48"/>
<text text-anchor="middle" x="1137.21" y="-1415.29" font-family="Times,serif" font-size="14.00">0</text>
</g>
<!-- 24&#45;&gt;3 -->
<g id="edge126" class="edge">
<title>24&#45;&gt;3</title>
<path fill="none" stroke="black" d="M1172.17,-1194.67C1191.56,-1203.42 1217.2,-1215.59 1220.21,-1219.99 1250.36,-1264.17 1227.37,-1286.54 1229.21,-1339.99 1237.19,-1571.63 1206.21,-1629.21 1206.21,-1860.99 1206.21,-2001.49 1206.21,-2001.49 1206.21,-2001.49 1206.21,-2042.06 1334.15,-2069.47 1398.77,-2080.73"/>
<polygon fill="black" stroke="black" points="1398.5,-2084.23 1408.94,-2082.45 1399.67,-2077.33 1398.5,-2084.23"/>
<text text-anchor="middle" x="1223.21" y="-1632.79" font-family="Times,serif" font-size="14.00">4</text>
</g>
<!-- 24&#45;&gt;7 -->
<g id="edge87" class="edge">
<title>24&#45;&gt;7</title>
<path fill="none" stroke="black" d="M1130.02,-1171.54C1121.53,-1165.64 1112.43,-1157.64 1107.21,-1147.99 1026.26,-998.46 1108.76,-932.38 1067.21,-767.5 1058.51,-732.97 1041.92,-695.35 1030.24,-671.15"/>
<polygon fill="black" stroke="black" points="1033.28,-669.39 1025.73,-661.96 1026.99,-672.47 1033.28,-669.39"/>
<text text-anchor="middle" x="1083.21" y="-901.8" font-family="Times,serif" font-size="14.00">1</text>
</g>
<!-- 24&#45;&gt;15 -->
<g id="edge30" class="edge">
<title>24&#45;&gt;15</title>
<path fill="none" stroke="black" d="M1175.5,-1177.38C1217.55,-1168.06 1304.52,-1148.86 1378.21,-1132.99 1438.13,-1120.09 1507.88,-1105.42 1549.19,-1096.77"/>
<polygon fill="black" stroke="black" points="1549.98,-1100.18 1559.05,-1094.71 1548.55,-1093.33 1549.98,-1100.18"/>
<text text-anchor="middle" x="1383.21" y="-1136.79" font-family="Times,serif" font-size="14.00">2</text>
</g>
<!-- 24&#45;&gt;28 -->
<g id="edge136" class="edge">
<title>24&#45;&gt;28</title>
<path fill="none" stroke="black" d="M1141.34,-1201.19C1134.08,-1214.79 1123.81,-1234.85 1116.21,-1252.99 1089.49,-1316.74 1066.01,-1394.77 1054.58,-1434.87"/>
<polygon fill="black" stroke="black" points="1051.16,-1434.11 1051.81,-1444.68 1057.9,-1436.01 1051.16,-1434.11"/>
<text text-anchor="middle" x="1100.21" y="-1310.79" font-family="Times,serif" font-size="14.00">0</text>
</g>
<!-- 24&#45;&gt;29 -->
<g id="edge28" class="edge">
<title>24&#45;&gt;29</title>
<path fill="none" stroke="black" d="M1160.1,-1200.8C1163.26,-1206.62 1166.4,-1213.4 1168.21,-1219.99 1188.64,-1294.45 1172.02,-1317.34 1159.21,-1393.49 1125.84,-1591.93 1039.67,-2089.91 972.21,-2279.49 966.68,-2295.03 966.98,-2300.93 955.21,-2312.49 944.74,-2322.77 930.65,-2330.57 917.79,-2336.16"/>
<polygon fill="black" stroke="black" points="916.22,-2333.02 908.27,-2340.01 918.85,-2339.5 916.22,-2333.02"/>
<text text-anchor="middle" x="1097.21" y="-1771.29" font-family="Times,serif" font-size="14.00">3</text>
</g>
<!-- 25&#45;&gt;14 -->
<g id="edge150" class="edge">
<title>25&#45;&gt;14</title>
<path fill="none" stroke="black" d="M753.92,-807.56C776.74,-797.21 813.78,-780.7 846.21,-767.5 866.03,-759.43 888.47,-750.96 906.35,-744.38"/>
<polygon fill="black" stroke="black" points="907.58,-747.65 915.76,-740.93 905.17,-741.08 907.58,-747.65"/>
<text text-anchor="middle" x="851.21" y="-771.3" font-family="Times,serif" font-size="14.00">4</text>
</g>
<!-- 25&#45;&gt;15 -->
<g id="edge69" class="edge">
<title>25&#45;&gt;15</title>
<path fill="none" stroke="black" d="M758.69,-822.15C820.04,-828.76 976.26,-848.37 1101.21,-887.5 1132.86,-897.41 1342.48,-998.01 1373.21,-1010.5 1434.81,-1035.53 1508.01,-1061.14 1550.29,-1075.53"/>
<polygon fill="black" stroke="black" points="1549.25,-1078.87 1559.84,-1078.77 1551.5,-1072.24 1549.25,-1078.87"/>
<text text-anchor="middle" x="1258.21" y="-945.3" font-family="Times,serif" font-size="14.00">0</text>
</g>
<!-- 25&#45;&gt;16 -->
<g id="edge54" class="edge">
<title>25&#45;&gt;16</title>
<path fill="none" stroke="black" d="M708.93,-809.33C647.48,-787.55 482.35,-727.6 434.21,-695.5 262.72,-581.12 157.21,-529.63 157.21,-323.5 157.21,-323.5 157.21,-323.5 157.21,-104 157.21,-90.61 208.19,-67.89 268.21,-54 374.01,-29.51 708.22,-21.59 820.78,-19.58"/>
<polygon fill="black" stroke="black" points="821.03,-23.08 830.97,-19.41 820.91,-16.08 821.03,-23.08"/>
<text text-anchor="middle" x="171.21" y="-405.8" font-family="Times,serif" font-size="14.00">1</text>
</g>
<!-- 25&#45;&gt;21 -->
<g id="edge50" class="edge">
<title>25&#45;&gt;21</title>
<path fill="none" stroke="black" d="M714.17,-804.86C705.83,-798.6 696.06,-790.65 688.21,-782.5 596.92,-687.7 561.21,-646.6 561.21,-515 561.21,-515 561.21,-515 561.21,-278 561.21,-255.91 550.38,-233.17 540.28,-216.78"/>
<polygon fill="black" stroke="black" points="543.2,-214.85 534.82,-208.37 537.33,-218.67 543.2,-214.85"/>
<text text-anchor="middle" x="566.21" y="-510.3" font-family="Times,serif" font-size="14.00">3</text>
</g>
<!-- 25&#45;&gt;29 -->
<g id="edge127" class="edge">
<title>25&#45;&gt;29</title>
<path fill="none" stroke="black" d="M713.62,-831.66C667.51,-863.08 548.37,-952.17 503.21,-1061.5 497.84,-1074.49 490.95,-1553.45 490.21,-1567.49 488.16,-1606.23 494.37,-1617.34 483.21,-1654.49 439.21,-1800.99 317.21,-1803.02 317.21,-1955.99 317.21,-2262.49 317.21,-2262.49 317.21,-2262.49 317.21,-2315.38 374.02,-2299.15 425.21,-2312.49 504.7,-2333.2 752.52,-2343.22 847.06,-2346.36"/>
<polygon fill="black" stroke="black" points="847.18,-2349.87 857.28,-2346.69 847.4,-2342.87 847.18,-2349.87"/>
<text text-anchor="middle" x="494.21" y="-1589.29" font-family="Times,serif" font-size="14.00">2</text>
</g>
<!-- 26&#45;&gt;8 -->
<g id="edge32" class="edge">
<title>26&#45;&gt;8</title>
<path fill="none" stroke="black" d="M1924.65,-442.15C1938.2,-429.37 1957.59,-412.81 1977.21,-402 1999.82,-389.54 2027.58,-380.62 2049.16,-374.9"/>
<polygon fill="black" stroke="black" points="2050.07,-378.28 2058.9,-372.43 2048.35,-371.5 2050.07,-378.28"/>
<text text-anchor="middle" x="1982.21" y="-405.8" font-family="Times,serif" font-size="14.00">4</text>
</g>
<!-- 26&#45;&gt;8 -->
<g id="edge128" class="edge">
<title>26&#45;&gt;8</title>
<path fill="none" stroke="black" d="M1929.89,-448.62C1946.2,-440.11 1968.25,-428.27 1987.21,-417 1997.7,-410.76 1999.56,-407.96 2010.21,-402 2023.88,-394.35 2039.5,-386.8 2052.86,-380.68"/>
<polygon fill="black" stroke="black" points="2054.45,-383.8 2062.12,-376.5 2051.57,-377.42 2054.45,-383.8"/>
<text text-anchor="middle" x="2015.21" y="-405.8" font-family="Times,serif" font-size="14.00">0</text>
</g>
<!-- 26&#45;&gt;15 -->
<g id="edge91" class="edge">
<title>26&#45;&gt;15</title>
<path fill="none" stroke="black" d="M1886.41,-479.97C1829.45,-531.53 1669.21,-691.63 1669.21,-861 1669.21,-993.5 1669.21,-993.5 1669.21,-993.5 1669.21,-1026 1640.86,-1052.38 1617.09,-1068.78"/>
<polygon fill="black" stroke="black" points="1615.04,-1065.94 1608.61,-1074.36 1618.89,-1071.79 1615.04,-1065.94"/>
<text text-anchor="middle" x="1688.21" y="-771.3" font-family="Times,serif" font-size="14.00">3</text>
</g>
<!-- 26&#45;&gt;25 -->
<g id="edge20" class="edge">
<title>26&#45;&gt;25</title>
<path fill="none" stroke="black" d="M1879.59,-465.79C1809.14,-474.56 1623.21,-502.8 1623.21,-556.5 1623.21,-689 1623.21,-689 1623.21,-689 1623.21,-727.5 1596.25,-733.53 1561.21,-749.5 1417.13,-815.14 911.61,-818.22 769.58,-817.75"/>
<polygon fill="black" stroke="black" points="769.24,-814.25 759.23,-817.71 769.22,-821.25 769.24,-814.25"/>
<text text-anchor="middle" x="1628.21" y="-640.8" font-family="Times,serif" font-size="14.00">1</text>
</g>
<!-- 26&#45;&gt;26 -->
<g id="edge131" class="edge">
<title>26&#45;&gt;26</title>
<path fill="none" stroke="black" d="M1931.51,-471.41C1942.04,-472.08 1950.96,-468.86 1950.96,-461.75 1950.96,-457.08 1947.12,-454.09 1941.5,-452.77"/>
<polygon fill="black" stroke="black" points="1941.73,-449.28 1931.51,-452.08 1941.25,-456.27 1941.73,-449.28"/>
<text text-anchor="middle" x="1955.96" y="-458.05" font-family="Times,serif" font-size="14.00">2</text>
</g>
<!-- 27&#45;&gt;10 -->
<g id="edge149" class="edge">
<title>27&#45;&gt;10</title>
<path fill="none" stroke="black" d="M972.93,-451.04C1024.46,-430.56 1146.75,-380.61 1245.21,-330 1380.4,-260.5 1534.16,-163.48 1595.67,-123.89"/>
<polygon fill="black" stroke="black" points="1597.89,-126.62 1604.39,-118.25 1594.09,-120.74 1597.89,-126.62"/>
<text text-anchor="middle" x="1374.21" y="-275.3" font-family="Times,serif" font-size="14.00">3</text>
</g>
<!-- 27&#45;&gt;17 -->
<g id="edge5" class="edge">
<title>27&#45;&gt;17</title>
<path fill="none" stroke="black" d="M975.05,-459.47C1053.66,-455.48 1282.2,-441.99 1352.21,-417 1363.7,-412.9 1364.09,-407.03 1375.21,-402 1404.3,-388.85 1439.45,-379.59 1465.23,-373.91"/>
<polygon fill="black" stroke="black" points="1466.25,-377.27 1475.31,-371.76 1464.8,-370.42 1466.25,-377.27"/>
<text text-anchor="middle" x="1380.21" y="-405.8" font-family="Times,serif" font-size="14.00">0</text>
</g>
<!-- 27&#45;&gt;18 -->
<g id="edge116" class="edge">
<title>27&#45;&gt;18</title>
<path fill="none" stroke="black" d="M948.41,-434.96C947.86,-411.64 945.18,-376.66 935.21,-348 929.43,-331.37 918.39,-315.06 908.47,-302.59"/>
<polygon fill="black" stroke="black" points="910.93,-300.07 901.85,-294.61 905.54,-304.54 910.93,-300.07"/>
<text text-anchor="middle" x="948.21" y="-362.3" font-family="Times,serif" font-size="14.00">4</text>
</g>
<!-- 27&#45;&gt;19 -->
<g id="edge120" class="edge">
<title>27&#45;&gt;19</title>
<path fill="none" stroke="black" d="M975.18,-463.8C1064.11,-467.51 1344.23,-481.11 1375.21,-506.5 1449.69,-567.53 1416.03,-620.03 1439.21,-713.5 1471.54,-843.87 1463.78,-879.9 1495.21,-1010.5 1519.54,-1111.61 1528.46,-1136.28 1561.21,-1234.99 1569.27,-1259.28 1565.79,-1268.56 1581.21,-1288.99 1600.54,-1314.61 1630.77,-1335.44 1653.84,-1348.9"/>
<polygon fill="black" stroke="black" points="1652.18,-1351.98 1662.61,-1353.87 1655.63,-1345.89 1652.18,-1351.98"/>
<text text-anchor="middle" x="1481.21" y="-901.8" font-family="Times,serif" font-size="14.00">2</text>
</g>
<!-- 27&#45;&gt;25 -->
<g id="edge48" class="edge">
<title>27&#45;&gt;25</title>
<path fill="none" stroke="black" d="M934.57,-485.15C896.23,-548.11 787.72,-726.32 747.48,-792.42"/>
<polygon fill="black" stroke="black" points="744.26,-790.97 742.05,-801.33 750.24,-794.61 744.26,-790.97"/>
<text text-anchor="middle" x="852.21" y="-640.8" font-family="Times,serif" font-size="14.00">1</text>
</g>
<!-- 28&#45;&gt;8 -->
<g id="edge3" class="edge">
<title>28&#45;&gt;8</title>
<path fill="none" stroke="black" d="M1074.22,-1459.86C1192.68,-1452.6 1662.97,-1422.15 1722.21,-1393.49 1752.06,-1379.04 1750.61,-1363.29 1774.21,-1339.99 1782.49,-1331.82 1786.83,-1331.72 1793.21,-1321.99 1831.35,-1263.85 1806.09,-1235.52 1805.21,-1165.99 1803.44,-1026.74 1745.52,-671.39 1790.21,-539.5 1820.41,-450.37 1861.95,-431.79 1951.21,-402 1983.94,-391.08 2022.11,-381.33 2049.14,-374.91"/>
<polygon fill="black" stroke="black" points="2049.98,-378.31 2058.92,-372.62 2048.39,-371.5 2049.98,-378.31"/>
<text text-anchor="middle" x="1791.21" y="-901.8" font-family="Times,serif" font-size="14.00">0</text>
</g>
<!-- 28&#45;&gt;19 -->
<g id="edge81" class="edge">
<title>28&#45;&gt;19</title>
<path fill="none" stroke="black" d="M1073.45,-1457.64C1173.77,-1442.92 1533.22,-1390.19 1649.58,-1373.11"/>
<polygon fill="black" stroke="black" points="1650.36,-1376.54 1659.75,-1371.62 1649.35,-1369.61 1650.36,-1376.54"/>
<text text-anchor="middle" x="1390.21" y="-1415.29" font-family="Times,serif" font-size="14.00">1</text>
</g>
<!-- 28&#45;&gt;21 -->
<g id="edge46" class="edge">
<title>28&#45;&gt;21</title>
<path fill="none" stroke="black" d="M1033.58,-1446.8C1028.04,-1440.65 1021.67,-1433.35 1016.21,-1426.49 756.77,-1100.23 681.08,-1023.22 472.21,-662.5 450.88,-625.67 442.93,-616.68 432.21,-575.5 397,-440.19 375.93,-391.84 425.21,-261 431.6,-244.03 435.24,-239.57 449.21,-228 461.19,-218.08 476.45,-210.24 489.99,-204.52"/>
<polygon fill="black" stroke="black" points="491.5,-207.69 499.48,-200.73 488.9,-201.19 491.5,-207.69"/>
<text text-anchor="middle" x="580.21" y="-814.8" font-family="Times,serif" font-size="14.00">4</text>
</g>
<!-- 28&#45;&gt;21 -->
<g id="edge146" class="edge">
<title>28&#45;&gt;21</title>
<path fill="none" stroke="black" d="M1023.86,-1453.04C968.09,-1432.04 824.7,-1373.01 729.21,-1288.99 709.41,-1271.57 441.88,-944.71 426.21,-923.5 398.75,-886.31 383.13,-880.58 369.21,-836.5 292.03,-592.03 302.91,-494.74 408.21,-261 415.35,-245.15 415.69,-238.93 429.21,-228 446.08,-214.35 468.8,-205.7 487.67,-200.41"/>
<polygon fill="black" stroke="black" points="488.62,-203.78 497.42,-197.88 486.86,-197 488.62,-203.78"/>
<text text-anchor="middle" x="374.21" y="-814.8" font-family="Times,serif" font-size="14.00">2</text>
</g>
<!-- 28&#45;&gt;24 -->
<g id="edge121" class="edge">
<title>28&#45;&gt;24</title>
<path fill="none" stroke="black" d="M1061.84,-1447.18C1067.29,-1441.21 1073.13,-1433.93 1077.21,-1426.49 1087.75,-1407.24 1126.55,-1270.05 1142.88,-1211.44"/>
<polygon fill="black" stroke="black" points="1146.26,-1212.35 1145.57,-1201.77 1139.52,-1210.47 1146.26,-1212.35"/>
<text text-anchor="middle" x="1120.21" y="-1310.79" font-family="Times,serif" font-size="14.00">3</text>
</g>
<!-- 29&#45;&gt;11 -->
<g id="edge59" class="edge">
<title>29&#45;&gt;11</title>
<path fill="none" stroke="black" d="M910.99,-2345.26C1051.69,-2333.54 1705.04,-2279.15 1868.21,-2265.57"/>
<polygon fill="black" stroke="black" points="1868.56,-2269.05 1878.23,-2264.73 1867.98,-2262.08 1868.56,-2269.05"/>
<text text-anchor="middle" x="1460.21" y="-2301.29" font-family="Times,serif" font-size="14.00">2</text>
</g>
<!-- 29&#45;&gt;17 -->
<g id="edge115" class="edge">
<title>29&#45;&gt;17</title>
<path fill="none" stroke="black" d="M910.76,-2344.93C1005.14,-2334.44 1327.95,-2286.22 1499.21,-2105.49 1579.29,-2020.97 1647.73,-1944.77 1574.21,-1854.49 1549.28,-1823.87 1513.41,-1866.03 1487.21,-1836.49 1413.73,-1753.65 1477.79,-1445.82 1445.21,-1339.99 1432.15,-1297.58 1418.52,-1291.36 1396.21,-1252.99 1368.85,-1205.94 1347.74,-1200.44 1333.21,-1147.99 1331.43,-1141.57 1330.02,-1138.84 1333.21,-1132.99 1340.3,-1120.01 1351.09,-1125.79 1361.21,-1114.99 1397.54,-1076.24 1404.85,-1061.64 1419.21,-1010.5 1436.94,-947.33 1425.21,-928.61 1425.21,-863 1425.21,-863 1425.21,-863 1425.21,-687 1425.21,-575.15 1469.7,-447.12 1490.6,-393.15"/>
<polygon fill="black" stroke="black" points="1493.93,-394.25 1494.33,-383.67 1487.42,-391.69 1493.93,-394.25"/>
<text text-anchor="middle" x="1458.21" y="-1363.04" font-family="Times,serif" font-size="14.00">3</text>
</g>
<!-- 29&#45;&gt;24 -->
<g id="edge129" class="edge">
<title>29&#45;&gt;24</title>
<path fill="none" stroke="black" d="M884.21,-2330.23C884.21,-2313.06 884.21,-2285.95 884.21,-2262.49 884.21,-2262.49 884.21,-2262.49 884.21,-1548.49 884.21,-1387.96 1055.25,-1251.15 1123.03,-1203.24"/>
<polygon fill="black" stroke="black" points="1125.3,-1205.92 1131.51,-1197.33 1121.3,-1200.17 1125.3,-1205.92"/>
<text text-anchor="middle" x="889.21" y="-1771.29" font-family="Times,serif" font-size="14.00">1</text>
</g>
<!-- 29&#45;&gt;27 -->
<g id="edge83" class="edge">
<title>29&#45;&gt;27</title>
<path fill="none" stroke="black" d="M857.04,-2348.1C760.43,-2349.57 439.21,-2348.02 439.21,-2262.49 439.21,-2262.49 439.21,-2262.49 439.21,-1955.99 439.21,-1752.9 527.67,-1714.96 553.21,-1513.49 578.48,-1314.07 504.33,-1259.8 537.21,-1061.5 557.26,-940.59 562.66,-905.29 626.21,-800.5 709.63,-662.93 857.39,-535.55 919.47,-485.34"/>
<polygon fill="black" stroke="black" points="921.7,-488.04 927.3,-479.04 917.31,-482.58 921.7,-488.04"/>
<text text-anchor="middle" x="563.21" y="-1415.29" font-family="Times,serif" font-size="14.00">0</text>
</g>
<!-- 29&#45;&gt;28 -->
<g id="edge57" class="edge">
<title>29&#45;&gt;28</title>
<path fill="none" stroke="black" d="M904.58,-2336.3C927.09,-2322.27 960.21,-2295.94 960.21,-2262.49 960.21,-2262.49 960.21,-2262.49 960.21,-1860.99 960.21,-1718.12 1014.51,-1552.9 1037.31,-1489.81"/>
<polygon fill="black" stroke="black" points="1040.66,-1490.84 1040.81,-1480.25 1034.09,-1488.43 1040.66,-1490.84"/>
<text text-anchor="middle" x="965.21" y="-1905.79" font-family="Times,serif" font-size="14.00">4</text>
</g>
</g>
</svg>
