<?xml version="1.0" encoding="UTF-8" standalone="no"?>
<!DOCTYPE svg PUBLIC "-//W3C//DTD SVG 1.1//EN"
 "http://www.w3.org/Graphics/SVG/1.1/DTD/svg11.dtd">
<!-- Generated by graphviz version 2.49.0 (20210829.0051)
 -->
<!-- Pages: 1 -->
<svg width="2414pt" height="2326pt"
 viewBox="0.00 0.00 2414.30 2325.98" xmlns="http://www.w3.org/2000/svg" xmlns:xlink="http://www.w3.org/1999/xlink">
<g id="graph0" class="graph" transform="scale(1 1) rotate(0) translate(4 2321.98)">
<polygon fill="white" stroke="transparent" points="-4,4 -4,-2321.98 2410.3,-2321.98 2410.3,4 -4,4"/>
<!-- fake -->
<g id="node1" class="node">
<title>fake</title>
</g>
<!-- 0 -->
<g id="node2" class="node">
<title>0</title>
<ellipse fill="none" stroke="black" cx="478" cy="-2226.98" rx="27" ry="18"/>
<text text-anchor="middle" x="478" y="-2223.28" font-family="Times,serif" font-size="14.00">0</text>
</g>
<!-- fake&#45;&gt;0 -->
<g id="edge1" class="edge">
<title>fake&#45;&gt;0</title>
<path fill="none" stroke="black" stroke-width="2" d="M478,-2281.79C478,-2273.77 478,-2264.02 478,-2255.04"/>
<polygon fill="black" stroke="black" stroke-width="2" points="481.5,-2255 478,-2245 474.5,-2255 481.5,-2255"/>
</g>
<!-- 13 -->
<g id="node15" class="node">
<title>13</title>
<ellipse fill="none" stroke="black" cx="676" cy="-2131.23" rx="22.96" ry="22.96"/>
<ellipse fill="none" stroke="black" cx="676" cy="-2131.23" rx="27" ry="27"/>
<text text-anchor="middle" x="676" y="-2127.53" font-family="Times,serif" font-size="14.00">13</text>
</g>
<!-- 0&#45;&gt;13 -->
<g id="edge108" class="edge">
<title>0&#45;&gt;13</title>
<path fill="none" stroke="black" d="M499.57,-2215.76C534.08,-2199.42 601.99,-2167.27 642.75,-2147.97"/>
<polygon fill="black" stroke="black" points="644.46,-2151.03 652,-2143.59 641.47,-2144.71 644.46,-2151.03"/>
<text text-anchor="middle" x="588" y="-2179.78" font-family="Times,serif" font-size="14.00">4</text>
</g>
<!-- 14 -->
<g id="node16" class="node">
<title>14</title>
<ellipse fill="none" stroke="black" cx="1114" cy="-1583.73" rx="22.96" ry="22.96"/>
<ellipse fill="none" stroke="black" cx="1114" cy="-1583.73" rx="27" ry="27"/>
<text text-anchor="middle" x="1114" y="-1580.03" font-family="Times,serif" font-size="14.00">14</text>
</g>
<!-- 0&#45;&gt;14 -->
<g id="edge31" class="edge">
<title>0&#45;&gt;14</title>
<path fill="none" stroke="black" d="M491.77,-2211.19C555.76,-2142.69 822.93,-1858.43 872,-1835.48 910.62,-1817.42 1031.08,-1845.74 1063,-1817.48 1118.93,-1767.98 1121.33,-1672.52 1117.89,-1620.56"/>
<polygon fill="black" stroke="black" points="1121.37,-1620.17 1117.12,-1610.47 1114.4,-1620.71 1121.37,-1620.17"/>
<text text-anchor="middle" x="811" y="-1893.28" font-family="Times,serif" font-size="14.00">3</text>
</g>
<!-- 17 -->
<g id="node19" class="node">
<title>17</title>
<ellipse fill="none" stroke="black" cx="1344" cy="-287.75" rx="27" ry="18"/>
<text text-anchor="middle" x="1344" y="-284.05" font-family="Times,serif" font-size="14.00">17</text>
</g>
<!-- 0&#45;&gt;17 -->
<g id="edge82" class="edge">
<title>0&#45;&gt;17</title>
<path fill="none" stroke="black" d="M505.16,-2225.82C684.74,-2224.71 1703.41,-2217.31 2013,-2190.98 2131.91,-2180.86 2275,-2251.56 2275,-2132.23 2275,-2132.23 2275,-2132.23 2275,-782 2275,-577.87 2129.48,-551.97 1947,-460.5 1842.85,-408.29 1491.24,-323.3 1378.85,-296.86"/>
<polygon fill="black" stroke="black" points="1379.58,-293.43 1369.04,-294.56 1377.98,-300.25 1379.58,-293.43"/>
<text text-anchor="middle" x="2280" y="-1231.79" font-family="Times,serif" font-size="14.00">2</text>
</g>
<!-- 20 -->
<g id="node22" class="node">
<title>20</title>
<ellipse fill="none" stroke="black" cx="625" cy="-1278.99" rx="27" ry="18"/>
<text text-anchor="middle" x="625" y="-1275.29" font-family="Times,serif" font-size="14.00">20</text>
</g>
<!-- 0&#45;&gt;20 -->
<g id="edge111" class="edge">
<title>0&#45;&gt;20</title>
<path fill="none" stroke="black" d="M451.06,-2224.9C391.61,-2222.14 251.23,-2213.38 210,-2190.98 179.87,-2174.61 160,-2166.51 160,-2132.23 160,-2132.23 160,-2132.23 160,-1808.98 160,-1584.57 180.71,-1474.59 366,-1347.99 434.91,-1300.91 534.55,-1286.42 587.92,-1281.97"/>
<polygon fill="black" stroke="black" points="588.25,-1285.45 597.96,-1281.2 587.72,-1278.47 588.25,-1285.45"/>
<text text-anchor="middle" x="166" y="-1762.78" font-family="Times,serif" font-size="14.00">0</text>
</g>
<!-- 29 -->
<g id="node31" class="node">
<title>29</title>
<ellipse fill="none" stroke="black" cx="757" cy="-1479.24" rx="22.96" ry="22.96"/>
<ellipse fill="none" stroke="black" cx="757" cy="-1479.24" rx="27" ry="27"/>
<text text-anchor="middle" x="757" y="-1475.54" font-family="Times,serif" font-size="14.00">29</text>
</g>
<!-- 0&#45;&gt;29 -->
<g id="edge48" class="edge">
<title>0&#45;&gt;29</title>
<path fill="none" stroke="black" d="M486.11,-2209.38C497.64,-2185.9 519.52,-2141.7 539,-2104.48 593.69,-1999.99 620.95,-1980.48 666,-1871.48 687.75,-1818.84 677.39,-1799.85 702,-1748.48 709.72,-1732.36 711.35,-1727.03 725,-1715.48 739.27,-1703.41 753.01,-1713.27 763,-1697.48 798.45,-1641.46 782.41,-1560 768.86,-1514.41"/>
<polygon fill="black" stroke="black" points="772.16,-1513.22 765.85,-1504.71 765.47,-1515.29 772.16,-1513.22"/>
<text text-anchor="middle" x="683" y="-1849.78" font-family="Times,serif" font-size="14.00">1</text>
</g>
<!-- 1 -->
<g id="node3" class="node">
<title>1</title>
<ellipse fill="none" stroke="black" cx="1527" cy="-2031.48" rx="18" ry="18"/>
<ellipse fill="none" stroke="black" cx="1527" cy="-2031.48" rx="22" ry="22"/>
<text text-anchor="middle" x="1527" y="-2027.78" font-family="Times,serif" font-size="14.00">1</text>
</g>
<!-- 2 -->
<g id="node4" class="node">
<title>2</title>
<ellipse fill="none" stroke="black" cx="1267" cy="-1940.48" rx="27" ry="18"/>
<text text-anchor="middle" x="1267" y="-1936.78" font-family="Times,serif" font-size="14.00">2</text>
</g>
<!-- 1&#45;&gt;2 -->
<g id="edge113" class="edge">
<title>1&#45;&gt;2</title>
<path fill="none" stroke="black" d="M1506.02,-2024.55C1480.56,-2017.25 1436.38,-2004.24 1399,-1991.48 1364.66,-1979.76 1325.88,-1964.87 1299.29,-1954.4"/>
<polygon fill="black" stroke="black" points="1300.31,-1951.04 1289.73,-1950.61 1297.74,-1957.55 1300.31,-1951.04"/>
<text text-anchor="middle" x="1404" y="-1980.28" font-family="Times,serif" font-size="14.00">2</text>
</g>
<!-- 4 -->
<g id="node6" class="node">
<title>4</title>
<ellipse fill="none" stroke="black" cx="567" cy="-1766.48" rx="27" ry="18"/>
<text text-anchor="middle" x="567" y="-1762.78" font-family="Times,serif" font-size="14.00">4</text>
</g>
<!-- 1&#45;&gt;4 -->
<g id="edge26" class="edge">
<title>1&#45;&gt;4</title>
<path fill="none" stroke="black" d="M1505.02,-2029.83C1406.38,-2026.84 1004.1,-2013.47 880,-1991.48 704.35,-1960.36 599.66,-2017.36 497,-1871.48 476.11,-1841.8 512.14,-1806.66 539.79,-1785.77"/>
<polygon fill="black" stroke="black" points="542.01,-1788.48 548.03,-1779.76 537.89,-1782.82 542.01,-1788.48"/>
<text text-anchor="middle" x="529" y="-1893.28" font-family="Times,serif" font-size="14.00">0</text>
</g>
<!-- 21 -->
<g id="node23" class="node">
<title>21</title>
<ellipse fill="none" stroke="black" cx="1052" cy="-826.5" rx="27" ry="18"/>
<text text-anchor="middle" x="1052" y="-822.8" font-family="Times,serif" font-size="14.00">21</text>
</g>
<!-- 1&#45;&gt;21 -->
<g id="edge89" class="edge">
<title>1&#45;&gt;21</title>
<path fill="none" stroke="black" d="M1506.45,-2023.51C1476.14,-2011.76 1423,-1984.97 1423,-1941.48 1423,-1941.48 1423,-1941.48 1423,-1765.48 1423,-1512.32 1363.38,-1454.29 1297,-1209.99 1280.18,-1148.09 1288.66,-1128.71 1264,-1069.5 1221.96,-968.55 1214.64,-932.94 1131,-862.5 1117.92,-851.48 1100.82,-843.33 1085.87,-837.68"/>
<polygon fill="black" stroke="black" points="1087.02,-834.38 1076.43,-834.33 1084.68,-840.97 1087.02,-834.38"/>
<text text-anchor="middle" x="1374" y="-1423.29" font-family="Times,serif" font-size="14.00">3</text>
</g>
<!-- 22 -->
<g id="node24" class="node">
<title>22</title>
<ellipse fill="none" stroke="black" cx="1724" cy="-1766.48" rx="27" ry="18"/>
<text text-anchor="middle" x="1724" y="-1762.78" font-family="Times,serif" font-size="14.00">22</text>
</g>
<!-- 1&#45;&gt;22 -->
<g id="edge25" class="edge">
<title>1&#45;&gt;22</title>
<path fill="none" stroke="black" d="M1549.19,-2028.73C1574.99,-2025.54 1617.32,-2016.58 1643,-1991.48 1698.69,-1937.04 1716.28,-1841.47 1721.69,-1794.75"/>
<polygon fill="black" stroke="black" points="1725.17,-1795.07 1722.74,-1784.76 1718.21,-1794.34 1725.17,-1795.07"/>
<text text-anchor="middle" x="1707" y="-1893.28" font-family="Times,serif" font-size="14.00">1</text>
</g>
<!-- 27 -->
<g id="node29" class="node">
<title>27</title>
<ellipse fill="none" stroke="black" cx="894" cy="-1679.48" rx="27" ry="18"/>
<text text-anchor="middle" x="894" y="-1675.78" font-family="Times,serif" font-size="14.00">27</text>
</g>
<!-- 1&#45;&gt;27 -->
<g id="edge65" class="edge">
<title>1&#45;&gt;27</title>
<path fill="none" stroke="black" d="M1504.84,-2029.75C1392.81,-2025.77 894,-2004.53 894,-1941.48 894,-1941.48 894,-1941.48 894,-1765.48 894,-1746.23 894,-1724.53 894,-1707.88"/>
<polygon fill="black" stroke="black" points="897.5,-1707.74 894,-1697.74 890.5,-1707.74 897.5,-1707.74"/>
<text text-anchor="middle" x="899" y="-1849.78" font-family="Times,serif" font-size="14.00">4</text>
</g>
<!-- 3 -->
<g id="node5" class="node">
<title>3</title>
<ellipse fill="none" stroke="black" cx="533" cy="-1853.48" rx="27" ry="18"/>
<text text-anchor="middle" x="533" y="-1849.78" font-family="Times,serif" font-size="14.00">3</text>
</g>
<!-- 2&#45;&gt;3 -->
<g id="edge63" class="edge">
<title>2&#45;&gt;3</title>
<path fill="none" stroke="black" d="M1240.02,-1939.27C1135.8,-1938.27 759.63,-1932.74 644,-1904.48 614.67,-1897.31 583.51,-1882.57 561.69,-1870.95"/>
<polygon fill="black" stroke="black" points="563.11,-1867.73 552.66,-1866.02 559.76,-1873.88 563.11,-1867.73"/>
<text text-anchor="middle" x="649" y="-1893.28" font-family="Times,serif" font-size="14.00">3</text>
</g>
<!-- 2&#45;&gt;14 -->
<g id="edge52" class="edge">
<title>2&#45;&gt;14</title>
<path fill="none" stroke="black" d="M1271.49,-1922.44C1286.38,-1864.26 1331.21,-1674.49 1295,-1628.48 1277.43,-1606.16 1198.71,-1593.87 1151.06,-1588.36"/>
<polygon fill="black" stroke="black" points="1151.15,-1584.84 1140.82,-1587.22 1150.37,-1591.8 1151.15,-1584.84"/>
<text text-anchor="middle" x="1311" y="-1762.78" font-family="Times,serif" font-size="14.00">1</text>
</g>
<!-- 24 -->
<g id="node26" class="node">
<title>24</title>
<ellipse fill="none" stroke="black" cx="1399" cy="-913.5" rx="27" ry="18"/>
<text text-anchor="middle" x="1399" y="-909.8" font-family="Times,serif" font-size="14.00">24</text>
</g>
<!-- 2&#45;&gt;24 -->
<g id="edge67" class="edge">
<title>2&#45;&gt;24</title>
<path fill="none" stroke="black" d="M1293.39,-1935.63C1354.58,-1925.96 1501,-1898.24 1501,-1854.48 1501,-1854.48 1501,-1854.48 1501,-1321.49 1501,-1245.82 1478.29,-1229.66 1461,-1155.99 1439.5,-1064.36 1443.1,-1039.01 1414,-949.5 1413.03,-946.51 1411.9,-943.43 1410.71,-940.39"/>
<polygon fill="black" stroke="black" points="1413.87,-938.88 1406.8,-930.99 1407.41,-941.57 1413.87,-938.88"/>
<text text-anchor="middle" x="1506" y="-1423.29" font-family="Times,serif" font-size="14.00">4</text>
</g>
<!-- 2&#45;&gt;24 -->
<g id="edge76" class="edge">
<title>2&#45;&gt;24</title>
<path fill="none" stroke="black" d="M1293.79,-1938.2C1371.42,-1933.75 1591,-1915.76 1591,-1854.48 1591,-1854.48 1591,-1854.48 1591,-1530.48 1591,-1460.43 1621,-1445.8 1621,-1375.74 1621,-1375.74 1621,-1375.74 1621,-1234.49 1621,-1135.24 1547.25,-1134.61 1493,-1051.5 1464,-1007.07 1462.83,-991.94 1431,-949.5 1427.75,-945.16 1424.06,-940.74 1420.36,-936.57"/>
<polygon fill="black" stroke="black" points="1422.7,-933.94 1413.37,-928.93 1417.54,-938.67 1422.7,-933.94"/>
<text text-anchor="middle" x="1622" y="-1423.29" font-family="Times,serif" font-size="14.00">0</text>
</g>
<!-- 26 -->
<g id="node28" class="node">
<title>26</title>
<ellipse fill="none" stroke="black" cx="1333" cy="-1191.99" rx="27" ry="18"/>
<text text-anchor="middle" x="1333" y="-1188.29" font-family="Times,serif" font-size="14.00">26</text>
</g>
<!-- 2&#45;&gt;26 -->
<g id="edge18" class="edge">
<title>2&#45;&gt;26</title>
<path fill="none" stroke="black" d="M1279.61,-1924.14C1283.99,-1918.26 1288.64,-1911.31 1292,-1904.48 1305.59,-1876.85 1318.27,-1793.03 1320,-1784.48 1332.69,-1721.86 1339.9,-1706.85 1348,-1643.48 1357.97,-1565.42 1364.79,-1255.37 1365,-1242.99 1365.11,-1236.33 1367.41,-1234.21 1365,-1227.99 1363.04,-1222.94 1359.97,-1218.17 1356.5,-1213.88"/>
<polygon fill="black" stroke="black" points="1358.83,-1211.25 1349.49,-1206.25 1353.68,-1215.98 1358.83,-1211.25"/>
<text text-anchor="middle" x="1360" y="-1580.03" font-family="Times,serif" font-size="14.00">2</text>
</g>
<!-- 3&#45;&gt;4 -->
<g id="edge7" class="edge">
<title>3&#45;&gt;4</title>
<path fill="none" stroke="black" d="M539.72,-1835.69C544.54,-1823.62 551.14,-1807.12 556.64,-1793.37"/>
<polygon fill="black" stroke="black" points="559.95,-1794.53 560.41,-1783.95 553.45,-1791.93 559.95,-1794.53"/>
<text text-anchor="middle" x="558" y="-1806.28" font-family="Times,serif" font-size="14.00">1</text>
</g>
<!-- 3&#45;&gt;17 -->
<g id="edge64" class="edge">
<title>3&#45;&gt;17</title>
<path fill="none" stroke="black" d="M552.61,-1841.08C556.63,-1839.03 560.88,-1837.05 565,-1835.48 596.64,-1823.45 606.19,-1825.8 639,-1817.48 694.7,-1803.36 708.56,-1799.58 764,-1784.48 1005.65,-1718.65 1202.43,-1841.15 1300,-1610.48 1309.26,-1588.58 1303.9,-1580.44 1300,-1556.98 1276.57,-1416.23 1151.8,-1079.05 1092,-949.5 1080.31,-924.17 1076.29,-918.15 1060,-895.5 1042.52,-871.19 1026.43,-872.56 1016,-844.5 1010.42,-829.5 1014.87,-824.46 1016,-808.5 1028.03,-637.89 989.09,-578.17 1070,-427.5 1100.08,-371.47 1120.92,-362.49 1177,-332.5 1218.56,-310.27 1272.06,-298.84 1307.16,-293.33"/>
<polygon fill="black" stroke="black" points="1308.06,-296.74 1317.43,-291.81 1307.03,-289.82 1308.06,-296.74"/>
<text text-anchor="middle" x="1141" y="-1040.3" font-family="Times,serif" font-size="14.00">3</text>
</g>
<!-- 18 -->
<g id="node20" class="node">
<title>18</title>
<ellipse fill="none" stroke="black" cx="954" cy="-18" rx="27" ry="18"/>
<text text-anchor="middle" x="954" y="-14.3" font-family="Times,serif" font-size="14.00">18</text>
</g>
<!-- 3&#45;&gt;18 -->
<g id="edge5" class="edge">
<title>3&#45;&gt;18</title>
<path fill="none" stroke="black" d="M510.48,-1843.27C486.67,-1832.46 449.49,-1812.41 427,-1784.48 357.26,-1697.9 386.5,-1648.24 323,-1556.98 267.09,-1476.63 204.54,-1491.9 167,-1401.49 110.1,-1264.44 334.8,-218.79 403,-87 412.39,-68.86 416.46,-62.59 435,-54 478.41,-33.88 805.59,-23.09 916.99,-19.97"/>
<polygon fill="black" stroke="black" points="917.18,-23.46 927.08,-19.69 916.99,-16.47 917.18,-23.46"/>
<text text-anchor="middle" x="215" y="-909.8" font-family="Times,serif" font-size="14.00">4</text>
</g>
<!-- 3&#45;&gt;20 -->
<g id="edge39" class="edge">
<title>3&#45;&gt;20</title>
<path fill="none" stroke="black" d="M526.36,-1835.85C520.2,-1818.92 512,-1791.8 512,-1767.48 512,-1767.48 512,-1767.48 512,-1582.73 512,-1472.88 578.11,-1353.96 609.2,-1304.11"/>
<polygon fill="black" stroke="black" points="612.18,-1305.94 614.57,-1295.62 606.27,-1302.2 612.18,-1305.94"/>
<text text-anchor="middle" x="517" y="-1580.03" font-family="Times,serif" font-size="14.00">0</text>
</g>
<!-- 3&#45;&gt;27 -->
<g id="edge94" class="edge">
<title>3&#45;&gt;27</title>
<path fill="none" stroke="black" d="M554.5,-1842.24C615.82,-1813.02 791.75,-1729.2 863.24,-1695.14"/>
<polygon fill="black" stroke="black" points="865.09,-1698.13 872.61,-1690.67 862.08,-1691.81 865.09,-1698.13"/>
<text text-anchor="middle" x="755" y="-1762.78" font-family="Times,serif" font-size="14.00">2</text>
</g>
<!-- 4&#45;&gt;2 -->
<g id="edge148" class="edge">
<title>4&#45;&gt;2</title>
<path fill="none" stroke="black" d="M577.64,-1783.09C593.03,-1804.86 623.28,-1844.67 656,-1871.48 658.9,-1873.86 711.4,-1903.42 715,-1904.48 811.83,-1933.02 1121.94,-1938.29 1229.69,-1939.26"/>
<polygon fill="black" stroke="black" points="1229.74,-1942.76 1239.76,-1939.34 1229.79,-1935.76 1229.74,-1942.76"/>
<text text-anchor="middle" x="661" y="-1849.78" font-family="Times,serif" font-size="14.00">0</text>
</g>
<!-- 4&#45;&gt;4 -->
<g id="edge85" class="edge">
<title>4&#45;&gt;4</title>
<path fill="none" stroke="black" d="M591.53,-1774.23C602.51,-1774.97 612,-1772.39 612,-1766.48 612,-1762.51 607.72,-1760.04 601.57,-1759.07"/>
<polygon fill="black" stroke="black" points="601.65,-1755.57 591.53,-1758.73 601.41,-1762.57 601.65,-1755.57"/>
<text text-anchor="middle" x="617" y="-1762.78" font-family="Times,serif" font-size="14.00">2</text>
</g>
<!-- 9 -->
<g id="node11" class="node">
<title>9</title>
<ellipse fill="none" stroke="black" cx="643" cy="-387.5" rx="27" ry="18"/>
<text text-anchor="middle" x="643" y="-383.8" font-family="Times,serif" font-size="14.00">9</text>
</g>
<!-- 4&#45;&gt;9 -->
<g id="edge114" class="edge">
<title>4&#45;&gt;9</title>
<path fill="none" stroke="black" d="M556.12,-1749.62C541.06,-1727.01 513.92,-1683.76 498,-1643.48 492.45,-1629.44 492.83,-1625.3 490,-1610.48 442.49,-1361.2 411,-1298.76 411,-1045 411,-1045 411,-1045 411,-869 411,-802.27 407.38,-780.26 439,-721.5 480.7,-644 534.72,-658.35 581,-583.5 598.68,-554.9 624.1,-462.01 636.16,-415.52"/>
<polygon fill="black" stroke="black" points="639.62,-416.11 638.72,-405.55 632.84,-414.36 639.62,-416.11"/>
<text text-anchor="middle" x="417" y="-1040.3" font-family="Times,serif" font-size="14.00">4</text>
</g>
<!-- 4&#45;&gt;20 -->
<g id="edge132" class="edge">
<title>4&#45;&gt;20</title>
<path fill="none" stroke="black" d="M569.03,-1748.49C577.63,-1676.47 611.13,-1396.1 621.75,-1307.2"/>
<polygon fill="black" stroke="black" points="625.25,-1307.44 622.96,-1297.1 618.29,-1306.61 625.25,-1307.44"/>
<text text-anchor="middle" x="601" y="-1527.78" font-family="Times,serif" font-size="14.00">3</text>
</g>
<!-- 4&#45;&gt;27 -->
<g id="edge66" class="edge">
<title>4&#45;&gt;27</title>
<path fill="none" stroke="black" d="M591.23,-1758.5C625.88,-1748.59 691.65,-1730.01 748,-1715.48 785.82,-1705.73 829.38,-1695.4 859.01,-1688.51"/>
<polygon fill="black" stroke="black" points="859.92,-1691.89 868.88,-1686.23 858.34,-1685.07 859.92,-1691.89"/>
<text text-anchor="middle" x="753" y="-1719.28" font-family="Times,serif" font-size="14.00">1</text>
</g>
<!-- 5 -->
<g id="node7" class="node">
<title>5</title>
<ellipse fill="none" stroke="black" cx="1843" cy="-387.5" rx="18" ry="18"/>
<ellipse fill="none" stroke="black" cx="1843" cy="-387.5" rx="22" ry="22"/>
<text text-anchor="middle" x="1843" y="-383.8" font-family="Times,serif" font-size="14.00">5</text>
</g>
<!-- 5&#45;&gt;1 -->
<g id="edge86" class="edge">
<title>5&#45;&gt;1</title>
<path fill="none" stroke="black" d="M1862.94,-397.31C1915.72,-422.13 2055,-498.06 2055,-608 2055,-958 2055,-958 2055,-958 2055,-1093.89 2029.68,-1126.01 2014,-1260.99 1984.86,-1511.95 2031.56,-1714.89 1939,-1904.48 1916.22,-1951.15 1909.62,-1973.22 1861,-1991.48 1806.16,-2012.08 1632.02,-2024.35 1559.35,-2028.69"/>
<polygon fill="black" stroke="black" points="1558.77,-2025.22 1548.99,-2029.3 1559.18,-2032.21 1558.77,-2025.22"/>
<text text-anchor="middle" x="2033" y="-1188.29" font-family="Times,serif" font-size="14.00">2</text>
</g>
<!-- 5&#45;&gt;5 -->
<g id="edge128" class="edge">
<title>5&#45;&gt;5</title>
<path fill="none" stroke="black" d="M1863.58,-395.87C1873.84,-397.02 1883,-394.23 1883,-387.5 1883,-383.18 1879.24,-380.48 1873.84,-379.41"/>
<polygon fill="black" stroke="black" points="1873.67,-375.9 1863.58,-379.13 1873.48,-382.9 1873.67,-375.9"/>
<text text-anchor="middle" x="1888" y="-383.8" font-family="Times,serif" font-size="14.00">3</text>
</g>
<!-- 5&#45;&gt;17 -->
<g id="edge135" class="edge">
<title>5&#45;&gt;17</title>
<path fill="none" stroke="black" d="M1821.91,-380.24C1784.53,-369.32 1704.08,-346.62 1635,-332.5 1544.25,-313.95 1436.07,-299.73 1380.68,-293.01"/>
<polygon fill="black" stroke="black" points="1380.99,-289.52 1370.65,-291.8 1380.16,-296.47 1380.99,-289.52"/>
<text text-anchor="middle" x="1704" y="-336.3" font-family="Times,serif" font-size="14.00">4</text>
</g>
<!-- 5&#45;&gt;18 -->
<g id="edge30" class="edge">
<title>5&#45;&gt;18</title>
<path fill="none" stroke="black" d="M1851.68,-367.04C1863.44,-338.85 1883,-284.74 1883,-236.5 1883,-236.5 1883,-236.5 1883,-104 1883,-58.42 1164.34,-27.26 991.2,-20.42"/>
<polygon fill="black" stroke="black" points="991.18,-16.92 981.05,-20.02 990.91,-23.91 991.18,-16.92"/>
<text text-anchor="middle" x="1888" y="-188.3" font-family="Times,serif" font-size="14.00">1</text>
</g>
<!-- 19 -->
<g id="node21" class="node">
<title>19</title>
<ellipse fill="none" stroke="black" cx="1826" cy="-287.75" rx="27" ry="18"/>
<text text-anchor="middle" x="1826" y="-284.05" font-family="Times,serif" font-size="14.00">19</text>
</g>
<!-- 5&#45;&gt;19 -->
<g id="edge16" class="edge">
<title>5&#45;&gt;19</title>
<path fill="none" stroke="black" d="M1833.56,-367.5C1830.91,-361.28 1828.39,-354.23 1827,-347.5 1824.91,-337.37 1824.32,-326.06 1824.37,-316.08"/>
<polygon fill="black" stroke="black" points="1827.87,-315.99 1824.63,-305.9 1820.88,-315.81 1827.87,-315.99"/>
<text text-anchor="middle" x="1832" y="-336.3" font-family="Times,serif" font-size="14.00">0</text>
</g>
<!-- 6 -->
<g id="node8" class="node">
<title>6</title>
<ellipse fill="none" stroke="black" cx="1621" cy="-192" rx="27" ry="18"/>
<text text-anchor="middle" x="1621" y="-188.3" font-family="Times,serif" font-size="14.00">6</text>
</g>
<!-- 8 -->
<g id="node10" class="node">
<title>8</title>
<ellipse fill="none" stroke="black" cx="1621" cy="-478.5" rx="27" ry="18"/>
<text text-anchor="middle" x="1621" y="-474.8" font-family="Times,serif" font-size="14.00">8</text>
</g>
<!-- 6&#45;&gt;8 -->
<g id="edge95" class="edge">
<title>6&#45;&gt;8</title>
<path fill="none" stroke="black" d="M1621,-210.14C1621,-257.7 1621,-391.6 1621,-449.85"/>
<polygon fill="black" stroke="black" points="1617.5,-450.13 1621,-460.13 1624.5,-450.13 1617.5,-450.13"/>
<text text-anchor="middle" x="1626" y="-336.3" font-family="Times,serif" font-size="14.00">2</text>
</g>
<!-- 6&#45;&gt;13 -->
<g id="edge75" class="edge">
<title>6&#45;&gt;13</title>
<path fill="none" stroke="black" d="M1645.04,-200.38C1656.7,-203.74 1670.98,-207.5 1684,-210 1752.11,-223.07 1773.53,-205.12 1839,-228 1945.72,-265.3 1966.1,-293.18 2053,-365.5 2208.55,-494.94 2237,-579.63 2237,-782 2237,-1149.49 2237,-1149.49 2237,-1149.49 2237,-1366.23 2191,-1418.24 2191,-1634.98 2191,-2032.48 2191,-2032.48 2191,-2032.48 2191,-2074.28 2153.96,-2074.21 2114,-2086.48 1976.71,-2128.64 925.37,-2130.36 713.23,-2130.27"/>
<polygon fill="black" stroke="black" points="712.94,-2126.77 702.94,-2130.26 712.94,-2133.77 712.94,-2126.77"/>
<text text-anchor="middle" x="2242" y="-1144.79" font-family="Times,serif" font-size="14.00">1</text>
</g>
<!-- 16 -->
<g id="node18" class="node">
<title>16</title>
<ellipse fill="none" stroke="black" cx="1243" cy="-105" rx="27" ry="18"/>
<text text-anchor="middle" x="1243" y="-101.3" font-family="Times,serif" font-size="14.00">16</text>
</g>
<!-- 6&#45;&gt;16 -->
<g id="edge21" class="edge">
<title>6&#45;&gt;16</title>
<path fill="none" stroke="black" d="M1595.91,-185.36C1530.39,-170.63 1354.04,-130.97 1278.33,-113.94"/>
<polygon fill="black" stroke="black" points="1278.86,-110.48 1268.33,-111.7 1277.32,-117.31 1278.86,-110.48"/>
<text text-anchor="middle" x="1460" y="-144.8" font-family="Times,serif" font-size="14.00">3</text>
</g>
<!-- 6&#45;&gt;24 -->
<g id="edge46" class="edge">
<title>6&#45;&gt;24</title>
<path fill="none" stroke="black" d="M1648.25,-193.11C1697.25,-194.77 1800.85,-205.15 1862,-261 1898.72,-294.54 1892.96,-316.6 1902,-365.5 1931.56,-525.39 1743,-532.39 1743,-695 1743,-827.5 1743,-827.5 1743,-827.5 1743,-863.59 1712.33,-863.65 1679,-877.5 1635.93,-895.39 1502.04,-906.03 1436.25,-910.3"/>
<polygon fill="black" stroke="black" points="1435.68,-906.83 1425.92,-910.96 1436.12,-913.82 1435.68,-906.83"/>
<text text-anchor="middle" x="1820" y="-561.8" font-family="Times,serif" font-size="14.00">4</text>
</g>
<!-- 6&#45;&gt;29 -->
<g id="edge70" class="edge">
<title>6&#45;&gt;29</title>
<path fill="none" stroke="black" d="M1598.86,-202.42C1588.06,-208.19 1575.92,-216.67 1569,-228 1399.72,-505.11 1507,-631.27 1507,-956 1507,-1149.49 1507,-1149.49 1507,-1149.49 1507,-1185.17 1524.54,-1424.65 1515,-1434.49 1492.21,-1457.99 958.6,-1449.52 926,-1452.49 879.93,-1456.69 827.31,-1465.32 793.19,-1471.43"/>
<polygon fill="black" stroke="black" points="792.44,-1468.01 783.23,-1473.23 793.69,-1474.89 792.44,-1468.01"/>
<text text-anchor="middle" x="1508" y="-822.8" font-family="Times,serif" font-size="14.00">0</text>
</g>
<!-- 7 -->
<g id="node9" class="node">
<title>7</title>
<ellipse fill="none" stroke="black" cx="841" cy="-739.5" rx="27" ry="18"/>
<text text-anchor="middle" x="841" y="-735.8" font-family="Times,serif" font-size="14.00">7</text>
</g>
<!-- 10 -->
<g id="node12" class="node">
<title>10</title>
<ellipse fill="none" stroke="black" cx="1239" cy="-652.5" rx="27" ry="18"/>
<text text-anchor="middle" x="1239" y="-648.8" font-family="Times,serif" font-size="14.00">10</text>
</g>
<!-- 7&#45;&gt;10 -->
<g id="edge134" class="edge">
<title>7&#45;&gt;10</title>
<path fill="none" stroke="black" d="M866.5,-733.05C935.3,-718.36 1124.82,-677.88 1203.77,-661.02"/>
<polygon fill="black" stroke="black" points="1204.66,-664.41 1213.71,-658.9 1203.2,-657.56 1204.66,-664.41"/>
<text text-anchor="middle" x="1069" y="-692.3" font-family="Times,serif" font-size="14.00">4</text>
</g>
<!-- 7&#45;&gt;13 -->
<g id="edge44" class="edge">
<title>7&#45;&gt;13</title>
<path fill="none" stroke="black" d="M813.9,-741.29C747.2,-744.03 570.67,-756.09 435,-808.5 393.6,-824.49 376.64,-826.27 351,-862.5 296.38,-939.66 316.5,-976.07 302,-1069.5 253.25,-1383.57 174.36,-1487.27 287,-1784.48 296.15,-1808.62 346.31,-1852.68 364,-1871.48 442.39,-1954.79 455.58,-1983.4 546,-2053.48 576.95,-2077.47 616.04,-2099.59 643.24,-2113.86"/>
<polygon fill="black" stroke="black" points="641.84,-2117.08 652.33,-2118.57 645.06,-2110.86 641.84,-2117.08"/>
<text text-anchor="middle" x="241" y="-1423.29" font-family="Times,serif" font-size="14.00">2</text>
</g>
<!-- 7&#45;&gt;14 -->
<g id="edge119" class="edge">
<title>7&#45;&gt;14</title>
<path fill="none" stroke="black" d="M851.38,-756.13C855.03,-762.04 858.98,-768.93 862,-775.5 902.52,-863.6 902.21,-889.89 931,-982.5 988.55,-1167.58 993.73,-1216.63 1052,-1401.49 1068.27,-1453.09 1088.9,-1512.31 1101.78,-1548.62"/>
<polygon fill="black" stroke="black" points="1098.55,-1549.98 1105.2,-1558.23 1105.14,-1547.64 1098.55,-1549.98"/>
<text text-anchor="middle" x="987" y="-1144.79" font-family="Times,serif" font-size="14.00">3</text>
</g>
<!-- 23 -->
<g id="node25" class="node">
<title>23</title>
<ellipse fill="none" stroke="black" cx="904" cy="-1096.24" rx="22.96" ry="22.96"/>
<ellipse fill="none" stroke="black" cx="904" cy="-1096.24" rx="27" ry="27"/>
<text text-anchor="middle" x="904" y="-1092.54" font-family="Times,serif" font-size="14.00">23</text>
</g>
<!-- 7&#45;&gt;23 -->
<g id="edge146" class="edge">
<title>7&#45;&gt;23</title>
<path fill="none" stroke="black" d="M844.01,-757.47C853.73,-812.19 884.38,-984.76 897.71,-1059.81"/>
<polygon fill="black" stroke="black" points="894.27,-1060.5 899.47,-1069.73 901.17,-1059.27 894.27,-1060.5"/>
<text text-anchor="middle" x="880" y="-909.8" font-family="Times,serif" font-size="14.00">1</text>
</g>
<!-- 7&#45;&gt;27 -->
<g id="edge60" class="edge">
<title>7&#45;&gt;27</title>
<path fill="none" stroke="black" d="M841.6,-757.57C843.88,-822.86 851.98,-1063.05 855,-1260.99 856.88,-1384.53 839.4,-1416.55 856,-1538.98 861.44,-1579.12 875.12,-1624.09 884.49,-1651.85"/>
<polygon fill="black" stroke="black" points="881.29,-1653.28 887.85,-1661.6 887.91,-1651 881.29,-1653.28"/>
<text text-anchor="middle" x="860" y="-1188.29" font-family="Times,serif" font-size="14.00">0</text>
</g>
<!-- 8&#45;&gt;1 -->
<g id="edge58" class="edge">
<title>8&#45;&gt;1</title>
<path fill="none" stroke="black" d="M1647.72,-481.4C1690.94,-485.82 1776.63,-500.34 1829,-547.5 1882.37,-595.55 1895,-623.18 1895,-695 1895,-1045 1895,-1045 1895,-1045 1895,-1113.44 1944,-1122.55 1944,-1190.99 1944,-1636.98 1944,-1636.98 1944,-1636.98 1944,-1801.68 1973.68,-1901.07 1836,-1991.48 1791.06,-2020.99 1629.48,-2028.19 1559.59,-2029.93"/>
<polygon fill="black" stroke="black" points="1559.11,-2026.44 1549.19,-2030.16 1559.27,-2033.44 1559.11,-2026.44"/>
<text text-anchor="middle" x="1949" y="-1231.79" font-family="Times,serif" font-size="14.00">4</text>
</g>
<!-- 8&#45;&gt;5 -->
<g id="edge8" class="edge">
<title>8&#45;&gt;5</title>
<path fill="none" stroke="black" d="M1643.51,-468.47C1683.78,-452.33 1768.17,-418.5 1813.2,-400.44"/>
<polygon fill="black" stroke="black" points="1814.72,-403.6 1822.7,-396.63 1812.12,-397.11 1814.72,-403.6"/>
<text text-anchor="middle" x="1751" y="-431.3" font-family="Times,serif" font-size="14.00">0</text>
</g>
<!-- 8&#45;&gt;9 -->
<g id="edge150" class="edge">
<title>8&#45;&gt;9</title>
<path fill="none" stroke="black" d="M1594.33,-475.07C1457.87,-462.65 837.93,-406.23 679.8,-391.84"/>
<polygon fill="black" stroke="black" points="679.92,-388.34 669.64,-390.92 679.28,-395.31 679.92,-388.34"/>
<text text-anchor="middle" x="1225" y="-431.3" font-family="Times,serif" font-size="14.00">1</text>
</g>
<!-- 11 -->
<g id="node13" class="node">
<title>11</title>
<ellipse fill="none" stroke="black" cx="680" cy="-1000.5" rx="27" ry="18"/>
<text text-anchor="middle" x="680" y="-996.8" font-family="Times,serif" font-size="14.00">11</text>
</g>
<!-- 8&#45;&gt;11 -->
<g id="edge36" class="edge">
<title>8&#45;&gt;11</title>
<path fill="none" stroke="black" d="M1614.24,-496.2C1611.92,-501.99 1609.32,-508.52 1607,-514.5 1571.41,-606.14 1563.55,-629.45 1529,-721.5 1508.49,-776.14 1507.38,-791.47 1483,-844.5 1464.55,-884.62 1471.6,-906.79 1435,-931.5 1375,-971.99 860.56,-993.1 717.04,-998.24"/>
<polygon fill="black" stroke="black" points="716.85,-994.75 706.98,-998.6 717.1,-1001.74 716.85,-994.75"/>
<text text-anchor="middle" x="1534" y="-735.8" font-family="Times,serif" font-size="14.00">3</text>
</g>
<!-- 8&#45;&gt;20 -->
<g id="edge17" class="edge">
<title>8&#45;&gt;20</title>
<path fill="none" stroke="black" d="M1627.72,-495.97C1629.78,-501.74 1631.82,-508.31 1633,-514.5 1647.91,-592.31 1652.9,-734.39 1643,-790.5 1602.44,-1020.46 1589.37,-1148.12 1376,-1242.99 1322.87,-1266.62 911.06,-1257.83 853,-1260.99 785.49,-1264.67 706.87,-1270.98 661.82,-1274.79"/>
<polygon fill="black" stroke="black" points="661.32,-1271.32 651.65,-1275.66 661.92,-1278.3 661.32,-1271.32"/>
<text text-anchor="middle" x="1636" y="-866.3" font-family="Times,serif" font-size="14.00">2</text>
</g>
<!-- 9&#45;&gt;3 -->
<g id="edge91" class="edge">
<title>9&#45;&gt;3</title>
<path fill="none" stroke="black" d="M629.97,-403.43C611.45,-424.52 576.29,-464.07 545,-496.5 417.85,-628.26 297,-642.38 297,-825.5 297,-958 297,-958 297,-958 297,-1044.91 382,-1652.31 420,-1730.48 440.62,-1772.89 480.92,-1810.84 507.4,-1832.76"/>
<polygon fill="black" stroke="black" points="505.5,-1835.73 515.47,-1839.3 509.9,-1830.29 505.5,-1835.73"/>
<text text-anchor="middle" x="318" y="-1092.54" font-family="Times,serif" font-size="14.00">3</text>
</g>
<!-- 9&#45;&gt;7 -->
<g id="edge28" class="edge">
<title>9&#45;&gt;7</title>
<path fill="none" stroke="black" d="M665.75,-397.64C694.14,-410.74 739,-437.72 739,-477.5 739,-653.5 739,-653.5 739,-653.5 739,-690.1 778.25,-714 808.06,-726.87"/>
<polygon fill="black" stroke="black" points="806.76,-730.12 817.34,-730.67 809.41,-723.64 806.76,-730.12"/>
<text text-anchor="middle" x="744" y="-561.8" font-family="Times,serif" font-size="14.00">0</text>
</g>
<!-- 9&#45;&gt;7 -->
<g id="edge98" class="edge">
<title>9&#45;&gt;7</title>
<path fill="none" stroke="black" d="M669.88,-390.82C716.63,-396.48 808,-415.49 808,-477.5 808,-653.5 808,-653.5 808,-653.5 808,-674.8 817.12,-697.2 825.77,-713.65"/>
<polygon fill="black" stroke="black" points="822.83,-715.55 830.74,-722.6 828.95,-712.15 822.83,-715.55"/>
<text text-anchor="middle" x="813" y="-561.8" font-family="Times,serif" font-size="14.00">2</text>
</g>
<!-- 9&#45;&gt;11 -->
<g id="edge19" class="edge">
<title>9&#45;&gt;11</title>
<path fill="none" stroke="black" d="M654.2,-404.04C665.4,-421.17 681,-449.94 681,-477.5 681,-914.5 681,-914.5 681,-914.5 681,-933.74 680.74,-955.44 680.49,-972.1"/>
<polygon fill="black" stroke="black" points="676.98,-972.18 680.32,-982.24 683.98,-972.3 676.98,-972.18"/>
<text text-anchor="middle" x="686" y="-692.3" font-family="Times,serif" font-size="14.00">1</text>
</g>
<!-- 28 -->
<g id="node30" class="node">
<title>28</title>
<ellipse fill="none" stroke="black" cx="557" cy="-287.75" rx="22.96" ry="22.96"/>
<ellipse fill="none" stroke="black" cx="557" cy="-287.75" rx="27" ry="27"/>
<text text-anchor="middle" x="557" y="-284.05" font-family="Times,serif" font-size="14.00">28</text>
</g>
<!-- 9&#45;&gt;28 -->
<g id="edge123" class="edge">
<title>9&#45;&gt;28</title>
<path fill="none" stroke="black" d="M629.94,-371.65C617.06,-357.01 597.08,-334.3 581.28,-316.34"/>
<polygon fill="black" stroke="black" points="583.59,-313.67 574.35,-308.47 578.33,-318.29 583.59,-313.67"/>
<text text-anchor="middle" x="613" y="-336.3" font-family="Times,serif" font-size="14.00">4</text>
</g>
<!-- 10&#45;&gt;14 -->
<g id="edge80" class="edge">
<title>10&#45;&gt;14</title>
<path fill="none" stroke="black" d="M1234.95,-670.46C1226.63,-705.91 1207.51,-790.53 1197,-862.5 1191.39,-900.92 1191.54,-910.75 1189,-949.5 1171.88,-1211.13 1281.27,-1303.49 1166,-1538.98 1161.29,-1548.6 1153.39,-1556.9 1145.15,-1563.6"/>
<polygon fill="black" stroke="black" points="1142.81,-1560.97 1136.89,-1569.76 1147,-1566.58 1142.81,-1560.97"/>
<text text-anchor="middle" x="1200" y="-1092.54" font-family="Times,serif" font-size="14.00">3</text>
</g>
<!-- 15 -->
<g id="node17" class="node">
<title>15</title>
<ellipse fill="none" stroke="black" cx="1306" cy="-565.5" rx="27" ry="18"/>
<text text-anchor="middle" x="1306" y="-561.8" font-family="Times,serif" font-size="14.00">15</text>
</g>
<!-- 10&#45;&gt;15 -->
<g id="edge47" class="edge">
<title>10&#45;&gt;15</title>
<path fill="none" stroke="black" d="M1250.9,-636.14C1258.6,-626.23 1268.86,-613.07 1278,-601.5 1281.04,-597.65 1284.27,-593.58 1287.42,-589.63"/>
<polygon fill="black" stroke="black" points="1290.18,-591.79 1293.69,-581.8 1284.71,-587.42 1290.18,-591.79"/>
<text text-anchor="middle" x="1283" y="-605.3" font-family="Times,serif" font-size="14.00">0</text>
</g>
<!-- 10&#45;&gt;24 -->
<g id="edge32" class="edge">
<title>10&#45;&gt;24</title>
<path fill="none" stroke="black" d="M1258.87,-665.16C1267.81,-671.2 1277.92,-679.25 1285,-688.5 1340.15,-760.5 1310.78,-802.64 1362,-877.5 1365.52,-882.64 1369.9,-887.6 1374.41,-892.1"/>
<polygon fill="black" stroke="black" points="1372.28,-894.9 1381.98,-899.16 1377.06,-889.78 1372.28,-894.9"/>
<text text-anchor="middle" x="1332" y="-779.3" font-family="Times,serif" font-size="14.00">4</text>
</g>
<!-- 10&#45;&gt;26 -->
<g id="edge129" class="edge">
<title>10&#45;&gt;26</title>
<path fill="none" stroke="black" d="M1241.92,-670.43C1245.47,-691.02 1251.65,-726.81 1257,-757.5 1283.82,-911.47 1316.3,-1096.16 1328.28,-1164.17"/>
<polygon fill="black" stroke="black" points="1324.84,-1164.81 1330.02,-1174.06 1331.73,-1163.6 1324.84,-1164.81"/>
<text text-anchor="middle" x="1293" y="-909.8" font-family="Times,serif" font-size="14.00">2</text>
</g>
<!-- 10&#45;&gt;28 -->
<g id="edge37" class="edge">
<title>10&#45;&gt;28</title>
<path fill="none" stroke="black" d="M1220.28,-639.32C1175.58,-609.62 1060.62,-529.47 984,-442.5 945.85,-399.19 963.71,-363.45 915,-332.5 862.34,-299.03 674.69,-291.16 594.15,-289.31"/>
<polygon fill="black" stroke="black" points="594.05,-285.81 583.98,-289.1 593.9,-292.81 594.05,-285.81"/>
<text text-anchor="middle" x="1041" y="-474.8" font-family="Times,serif" font-size="14.00">1</text>
</g>
<!-- 11&#45;&gt;0 -->
<g id="edge51" class="edge">
<title>11&#45;&gt;0</title>
<path fill="none" stroke="black" d="M654.74,-1006.87C609.03,-1016.5 509.49,-1037.04 425,-1051.5 370.54,-1060.81 346.98,-1037.41 302,-1069.5 232.05,-1119.39 76,-1723.06 76,-1808.98 76,-2132.23 76,-2132.23 76,-2132.23 76,-2206.73 341.19,-2222.05 440.79,-2225.18"/>
<polygon fill="black" stroke="black" points="440.9,-2228.69 451,-2225.48 441.1,-2221.69 440.9,-2228.69"/>
<text text-anchor="middle" x="115" y="-1632.28" font-family="Times,serif" font-size="14.00">2</text>
</g>
<!-- 11&#45;&gt;9 -->
<g id="edge100" class="edge">
<title>11&#45;&gt;9</title>
<path fill="none" stroke="black" d="M668.7,-984.08C657.82,-967.68 643,-940.57 643,-914.5 643,-914.5 643,-914.5 643,-477.5 643,-456.77 643,-433.32 643,-415.7"/>
<polygon fill="black" stroke="black" points="646.5,-415.56 643,-405.56 639.5,-415.56 646.5,-415.56"/>
<text text-anchor="middle" x="648" y="-692.3" font-family="Times,serif" font-size="14.00">4</text>
</g>
<!-- 11&#45;&gt;13 -->
<g id="edge147" class="edge">
<title>11&#45;&gt;13</title>
<path fill="none" stroke="black" d="M657.05,-1010.05C575.41,-1041.19 304,-1150.98 304,-1234.49 304,-1427.99 304,-1427.99 304,-1427.99 304,-1515 304.58,-1739.91 344,-1817.48 349.42,-1828.14 355.21,-1827.37 364,-1835.48 471.04,-1934.18 596.44,-2053.92 649.81,-2105.08"/>
<polygon fill="black" stroke="black" points="647.52,-2107.73 657.16,-2112.12 652.36,-2102.68 647.52,-2107.73"/>
<text text-anchor="middle" x="314" y="-1580.03" font-family="Times,serif" font-size="14.00">0</text>
</g>
<!-- 11&#45;&gt;20 -->
<g id="edge112" class="edge">
<title>11&#45;&gt;20</title>
<path fill="none" stroke="black" d="M672.57,-1017.98C670.2,-1023.75 667.74,-1030.32 666,-1036.5 644.61,-1112.51 632.68,-1205.31 627.74,-1250.55"/>
<polygon fill="black" stroke="black" points="624.23,-1250.42 626.66,-1260.73 631.19,-1251.16 624.23,-1250.42"/>
<text text-anchor="middle" x="648" y="-1144.79" font-family="Times,serif" font-size="14.00">3</text>
</g>
<!-- 11&#45;&gt;24 -->
<g id="edge120" class="edge">
<title>11&#45;&gt;24</title>
<path fill="none" stroke="black" d="M706.71,-997.18C792.95,-989.55 1071.72,-963.9 1301,-931.5 1321.68,-928.57 1344.69,-924.62 1363.22,-921.26"/>
<polygon fill="black" stroke="black" points="1364.07,-924.66 1373.28,-919.41 1362.81,-917.77 1364.07,-924.66"/>
<text text-anchor="middle" x="1154" y="-953.3" font-family="Times,serif" font-size="14.00">1</text>
</g>
<!-- 12 -->
<g id="node14" class="node">
<title>12</title>
<ellipse fill="none" stroke="black" cx="288" cy="-192" rx="27" ry="18"/>
<text text-anchor="middle" x="288" y="-188.3" font-family="Times,serif" font-size="14.00">12</text>
</g>
<!-- 12&#45;&gt;13 -->
<g id="edge125" class="edge">
<title>12&#45;&gt;13</title>
<path fill="none" stroke="black" d="M261.42,-195.88C190.12,-204.35 0,-232.06 0,-286.75 0,-1723.98 0,-1723.98 0,-1723.98 0,-1940.88 169.32,-1950.1 360,-2053.48 401.51,-2075.99 415.34,-2074.42 461,-2086.48 523.09,-2102.88 596.65,-2116.66 639.64,-2124.15"/>
<polygon fill="black" stroke="black" points="639.18,-2127.62 649.63,-2125.87 640.37,-2120.72 639.18,-2127.62"/>
<text text-anchor="middle" x="5" y="-1144.79" font-family="Times,serif" font-size="14.00">0</text>
</g>
<!-- 12&#45;&gt;16 -->
<g id="edge81" class="edge">
<title>12&#45;&gt;16</title>
<path fill="none" stroke="black" d="M314.54,-188.64C448.53,-176.71 1050.39,-123.14 1206.12,-109.28"/>
<polygon fill="black" stroke="black" points="1206.49,-112.76 1216.14,-108.39 1205.87,-105.79 1206.49,-112.76"/>
<text text-anchor="middle" x="828" y="-144.8" font-family="Times,serif" font-size="14.00">3</text>
</g>
<!-- 12&#45;&gt;18 -->
<g id="edge23" class="edge">
<title>12&#45;&gt;18</title>
<path fill="none" stroke="black" d="M273.82,-176.59C262.37,-163.77 247.32,-143.85 242,-123 234.17,-92.29 233.16,-70.86 260,-54 315.7,-19.01 780.19,-18.24 916.52,-18.77"/>
<polygon fill="black" stroke="black" points="916.85,-22.27 926.86,-18.82 916.88,-15.27 916.85,-22.27"/>
<text text-anchor="middle" x="247" y="-101.3" font-family="Times,serif" font-size="14.00">4</text>
</g>
<!-- 12&#45;&gt;18 -->
<g id="edge71" class="edge">
<title>12&#45;&gt;18</title>
<path fill="none" stroke="black" d="M283.51,-174.2C276.4,-143.35 267.04,-78.57 306,-54 357.62,-21.45 786,-18.92 916.45,-18.92"/>
<polygon fill="black" stroke="black" points="916.73,-22.42 926.73,-18.92 916.73,-15.42 916.73,-22.42"/>
<text text-anchor="middle" x="287" y="-101.3" font-family="Times,serif" font-size="14.00">1</text>
</g>
<!-- 12&#45;&gt;18 -->
<g id="edge73" class="edge">
<title>12&#45;&gt;18</title>
<path fill="none" stroke="black" d="M292.48,-174.11C301.68,-140.8 323.56,-68.59 344,-54 390.5,-20.8 790.86,-18.69 916.47,-18.86"/>
<polygon fill="black" stroke="black" points="916.73,-22.36 926.74,-18.88 916.74,-15.36 916.73,-22.36"/>
<text text-anchor="middle" x="327" y="-101.3" font-family="Times,serif" font-size="14.00">2</text>
</g>
<!-- 13&#45;&gt;1 -->
<g id="edge130" class="edge">
<title>13&#45;&gt;1</title>
<path fill="none" stroke="black" d="M702.87,-2127.14C828.58,-2112.7 1358.21,-2051.87 1494.77,-2036.18"/>
<polygon fill="black" stroke="black" points="1495.45,-2039.63 1504.98,-2035.01 1494.65,-2032.67 1495.45,-2039.63"/>
<text text-anchor="middle" x="1183" y="-2075.28" font-family="Times,serif" font-size="14.00">3</text>
</g>
<!-- 13&#45;&gt;9 -->
<g id="edge59" class="edge">
<title>13&#45;&gt;9</title>
<path fill="none" stroke="black" d="M650.1,-2123.6C612.37,-2113.08 541.22,-2089.95 490,-2053.48 254.36,-1885.68 168.01,-1793.71 138,-1505.98 130.72,-1436.14 136.54,-1418.2 138,-1347.99 139.11,-1294.62 137.26,-1281.06 143,-1227.99 150.6,-1157.73 211.8,-658.92 253,-601.5 299.61,-536.53 526.45,-437.12 611.08,-401.64"/>
<polygon fill="black" stroke="black" points="612.56,-404.81 620.44,-397.73 609.87,-398.35 612.56,-404.81"/>
<text text-anchor="middle" x="148" y="-1231.79" font-family="Times,serif" font-size="14.00">1</text>
</g>
<!-- 13&#45;&gt;10 -->
<g id="edge101" class="edge">
<title>13&#45;&gt;10</title>
<path fill="none" stroke="black" d="M702.9,-2129.12C869.71,-2121.96 1758.41,-2079.82 1836,-1991.48 1940.39,-1872.62 1868,-1795.18 1868,-1636.98 1868,-1636.98 1868,-1636.98 1868,-1321.49 1868,-1037.91 1522.74,-1165.81 1363,-931.5 1296.63,-834.14 1307.53,-794.94 1257,-688.5 1255.49,-685.31 1253.86,-681.99 1252.21,-678.72"/>
<polygon fill="black" stroke="black" points="1255.31,-677.08 1247.64,-669.77 1249.07,-680.27 1255.31,-677.08"/>
<text text-anchor="middle" x="1873" y="-1371.04" font-family="Times,serif" font-size="14.00">4</text>
</g>
<!-- 13&#45;&gt;19 -->
<g id="edge118" class="edge">
<title>13&#45;&gt;19</title>
<path fill="none" stroke="black" d="M703.01,-2130.2C885.61,-2129.9 1936.12,-2126.42 2072,-2086.48 2113.51,-2074.28 2153,-2075.75 2153,-2032.48 2153,-2032.48 2153,-2032.48 2153,-1582.73 2153,-1439.12 2166.13,-1403.61 2183,-1260.99 2188.88,-1211.28 2199,-1199.56 2199,-1149.49 2199,-1149.49 2199,-1149.49 2199,-782 2199,-579.26 2173.38,-489.5 2013,-365.5 1966.52,-329.56 1900.85,-307.8 1860.97,-297.05"/>
<polygon fill="black" stroke="black" points="1861.74,-293.63 1851.18,-294.49 1859.97,-300.4 1861.74,-293.63"/>
<text text-anchor="middle" x="2204" y="-1188.29" font-family="Times,serif" font-size="14.00">0</text>
</g>
<!-- 13&#45;&gt;27 -->
<g id="edge141" class="edge">
<title>13&#45;&gt;27</title>
<path fill="none" stroke="black" d="M684.38,-2105.79C699.79,-2061.71 734.51,-1966.32 772,-1889.48 805.77,-1820.26 853.73,-1743.01 878.24,-1704.72"/>
<polygon fill="black" stroke="black" points="881.2,-1706.59 883.67,-1696.29 875.31,-1702.81 881.2,-1706.59"/>
<text text-anchor="middle" x="777" y="-1893.28" font-family="Times,serif" font-size="14.00">2</text>
</g>
<!-- 14&#45;&gt;2 -->
<g id="edge53" class="edge">
<title>14&#45;&gt;2</title>
<path fill="none" stroke="black" d="M1137.23,-1597.6C1171.86,-1618.68 1233,-1664.11 1233,-1721.98 1233,-1854.48 1233,-1854.48 1233,-1854.48 1233,-1875.87 1242.4,-1898.26 1251.31,-1914.69"/>
<polygon fill="black" stroke="black" points="1248.42,-1916.69 1256.43,-1923.62 1254.49,-1913.21 1248.42,-1916.69"/>
<text text-anchor="middle" x="1238" y="-1762.78" font-family="Times,serif" font-size="14.00">0</text>
</g>
<!-- 14&#45;&gt;6 -->
<g id="edge90" class="edge">
<title>14&#45;&gt;6</title>
<path fill="none" stroke="black" d="M1140.73,-1582.59C1216.7,-1580.59 1434.57,-1563.38 1531,-1434.49 1532.01,-1433.13 1584.84,-462.18 1585,-460.5 1593.37,-372.24 1609.03,-268.33 1616.63,-220.11"/>
<polygon fill="black" stroke="black" points="1620.1,-220.58 1618.22,-210.16 1613.19,-219.49 1620.1,-220.58"/>
<text text-anchor="middle" x="1568" y="-866.3" font-family="Times,serif" font-size="14.00">4</text>
</g>
<!-- 14&#45;&gt;15 -->
<g id="edge41" class="edge">
<title>14&#45;&gt;15</title>
<path fill="none" stroke="black" d="M1121.36,-1557.95C1122.87,-1551.81 1124.23,-1545.2 1125,-1538.98 1125.82,-1532.37 1125.19,-1530.65 1125,-1523.98 1122.81,-1445.61 1119.14,-1426.15 1113,-1347.99 1109.52,-1303.65 1092.85,-990.23 1075,-949.5 1050.1,-892.67 1004.84,-902.57 983,-844.5 977.37,-829.52 980.56,-824.31 983,-808.5 998.52,-708.09 994.15,-655.83 1080,-601.5 1110.73,-582.05 1213.21,-572.51 1269.01,-568.66"/>
<polygon fill="black" stroke="black" points="1269.44,-572.14 1279.19,-567.98 1268.98,-565.15 1269.44,-572.14"/>
<text text-anchor="middle" x="1097" y="-1040.3" font-family="Times,serif" font-size="14.00">1</text>
</g>
<!-- 14&#45;&gt;21 -->
<g id="edge78" class="edge">
<title>14&#45;&gt;21</title>
<path fill="none" stroke="black" d="M1112.06,-1556.87C1107.94,-1502.23 1097.97,-1371 1089,-1260.99 1076.5,-1107.67 1060.47,-923.94 1054.44,-855.22"/>
<polygon fill="black" stroke="black" points="1057.89,-854.49 1053.53,-844.84 1050.92,-855.1 1057.89,-854.49"/>
<text text-anchor="middle" x="1090" y="-1188.29" font-family="Times,serif" font-size="14.00">2</text>
</g>
<!-- 14&#45;&gt;29 -->
<g id="edge40" class="edge">
<title>14&#45;&gt;29</title>
<path fill="none" stroke="black" d="M1087.45,-1579.01C1046.44,-1572.88 965.48,-1559.3 899,-1538.98 860.77,-1527.3 818.65,-1509.17 790.28,-1496.14"/>
<polygon fill="black" stroke="black" points="791.4,-1492.8 780.86,-1491.76 788.45,-1499.15 791.4,-1492.8"/>
<text text-anchor="middle" x="904" y="-1527.78" font-family="Times,serif" font-size="14.00">3</text>
</g>
<!-- 15&#45;&gt;8 -->
<g id="edge131" class="edge">
<title>15&#45;&gt;8</title>
<path fill="none" stroke="black" d="M1330.72,-557.83C1386.5,-542.77 1522.26,-506.14 1586.38,-488.84"/>
<polygon fill="black" stroke="black" points="1587.65,-492.12 1596.4,-486.13 1585.83,-485.36 1587.65,-492.12"/>
<text text-anchor="middle" x="1488" y="-518.3" font-family="Times,serif" font-size="14.00">4</text>
</g>
<!-- 15&#45;&gt;10 -->
<g id="edge13" class="edge">
<title>15&#45;&gt;10</title>
<path fill="none" stroke="black" d="M1303.01,-583.51C1300.56,-593.83 1296.27,-606.82 1289,-616.5 1283.51,-623.8 1276.05,-630.16 1268.56,-635.38"/>
<polygon fill="black" stroke="black" points="1266.39,-632.61 1259.88,-640.97 1270.18,-638.5 1266.39,-632.61"/>
<text text-anchor="middle" x="1302" y="-605.3" font-family="Times,serif" font-size="14.00">0</text>
</g>
<!-- 15&#45;&gt;16 -->
<g id="edge117" class="edge">
<title>15&#45;&gt;16</title>
<path fill="none" stroke="black" d="M1281.72,-557.2C1250.15,-546.05 1199,-521.49 1199,-479.5 1199,-479.5 1199,-479.5 1199,-191 1199,-168.15 1211.7,-145.32 1223.45,-129.08"/>
<polygon fill="black" stroke="black" points="1226.51,-130.85 1229.8,-120.78 1220.94,-126.6 1226.51,-130.85"/>
<text text-anchor="middle" x="1204" y="-336.3" font-family="Times,serif" font-size="14.00">1</text>
</g>
<!-- 15&#45;&gt;17 -->
<g id="edge62" class="edge">
<title>15&#45;&gt;17</title>
<path fill="none" stroke="black" d="M1313.67,-548.08C1316.07,-542.32 1318.48,-535.73 1320,-529.5 1338.53,-453.73 1342.81,-361.21 1343.76,-316.11"/>
<polygon fill="black" stroke="black" points="1347.26,-316.01 1343.93,-305.95 1340.26,-315.89 1347.26,-316.01"/>
<text text-anchor="middle" x="1342" y="-431.3" font-family="Times,serif" font-size="14.00">3</text>
</g>
<!-- 15&#45;&gt;24 -->
<g id="edge102" class="edge">
<title>15&#45;&gt;24</title>
<path fill="none" stroke="black" d="M1310.53,-583.35C1325.47,-638.95 1373.31,-816.9 1391.7,-885.33"/>
<polygon fill="black" stroke="black" points="1388.41,-886.59 1394.39,-895.34 1395.17,-884.77 1388.41,-886.59"/>
<text text-anchor="middle" x="1362" y="-735.8" font-family="Times,serif" font-size="14.00">2</text>
</g>
<!-- 16&#45;&gt;1 -->
<g id="edge151" class="edge">
<title>16&#45;&gt;1</title>
<path fill="none" stroke="black" d="M1270.33,-106.14C1394.09,-106.91 1902.7,-111.86 2059,-141 2127.25,-153.73 2207,-121.57 2207,-191 2207,-436 2207,-436 2207,-436 2207,-527.91 2168.02,-544.57 2149,-634.5 2093.34,-897.7 2069,-965.47 2069,-1234.49 2069,-1941.48 2069,-1941.48 2069,-1941.48 2069,-1993.49 1675.28,-2021.5 1558.98,-2028.63"/>
<polygon fill="black" stroke="black" points="1558.69,-2025.14 1548.92,-2029.24 1559.11,-2032.13 1558.69,-2025.14"/>
<text text-anchor="middle" x="2081" y="-1040.3" font-family="Times,serif" font-size="14.00">4</text>
</g>
<!-- 16&#45;&gt;7 -->
<g id="edge103" class="edge">
<title>16&#45;&gt;7</title>
<path fill="none" stroke="black" d="M1217.31,-110.62C1160.66,-121.55 1030,-151.09 1030,-191 1030,-341 1030,-341 1030,-341 1030,-387.53 993.2,-386.6 971,-427.5 916.19,-528.48 868.98,-657.51 849.96,-712.15"/>
<polygon fill="black" stroke="black" points="846.6,-711.17 846.64,-721.77 853.21,-713.46 846.6,-711.17"/>
<text text-anchor="middle" x="976" y="-431.3" font-family="Times,serif" font-size="14.00">3</text>
</g>
<!-- 16&#45;&gt;15 -->
<g id="edge136" class="edge">
<title>16&#45;&gt;15</title>
<path fill="none" stroke="black" d="M1216.91,-110.1C1177.16,-118 1106,-139.36 1106,-191 1106,-479.5 1106,-479.5 1106,-479.5 1106,-549.29 1210.43,-562.6 1268.37,-564.61"/>
<polygon fill="black" stroke="black" points="1268.53,-568.12 1278.61,-564.87 1268.7,-561.12 1268.53,-568.12"/>
<text text-anchor="middle" x="1111" y="-336.3" font-family="Times,serif" font-size="14.00">2</text>
</g>
<!-- 16&#45;&gt;16 -->
<g id="edge12" class="edge">
<title>16&#45;&gt;16</title>
<path fill="none" stroke="black" d="M1267.53,-112.75C1278.51,-113.49 1288,-110.91 1288,-105 1288,-101.03 1283.72,-98.56 1277.57,-97.59"/>
<polygon fill="black" stroke="black" points="1277.65,-94.09 1267.53,-97.25 1277.41,-101.09 1277.65,-94.09"/>
<text text-anchor="middle" x="1293" y="-101.3" font-family="Times,serif" font-size="14.00">0</text>
</g>
<!-- 16&#45;&gt;18 -->
<g id="edge140" class="edge">
<title>16&#45;&gt;18</title>
<path fill="none" stroke="black" d="M1218.86,-96.9C1167.43,-81.77 1046.97,-46.34 987.89,-28.97"/>
<polygon fill="black" stroke="black" points="988.86,-25.6 978.28,-26.14 986.88,-32.32 988.86,-25.6"/>
<text text-anchor="middle" x="1121" y="-57.8" font-family="Times,serif" font-size="14.00">1</text>
</g>
<!-- 17&#45;&gt;1 -->
<g id="edge33" class="edge">
<title>17&#45;&gt;1</title>
<path fill="none" stroke="black" d="M1366.51,-297.82C1384.03,-305.52 1408.41,-317.66 1427,-332.5 1462.23,-360.61 1455.34,-384.73 1493,-409.5 1556.77,-451.44 1587.19,-429.62 1657,-460.5 1726.78,-491.36 1760.12,-485.79 1805,-547.5 1867.79,-633.83 1857,-675.24 1857,-782 1857,-1149.49 1857,-1149.49 1857,-1149.49 1857,-1273.36 1822,-1302.12 1822,-1425.99 1822,-1941.48 1822,-1941.48 1822,-1941.48 1822,-1955.15 1633.96,-2003.72 1558.14,-2022.75"/>
<polygon fill="black" stroke="black" points="1557.07,-2019.41 1548.22,-2025.23 1558.77,-2026.2 1557.07,-2019.41"/>
<text text-anchor="middle" x="1862" y="-1144.79" font-family="Times,serif" font-size="14.00">1</text>
</g>
<!-- 17&#45;&gt;10 -->
<g id="edge133" class="edge">
<title>17&#45;&gt;10</title>
<path fill="none" stroke="black" d="M1322.03,-298.47C1292.86,-313.04 1245,-343.5 1245,-386.5 1245,-566.5 1245,-566.5 1245,-566.5 1245,-585.79 1243.44,-607.49 1241.91,-624.13"/>
<polygon fill="black" stroke="black" points="1238.41,-623.97 1240.93,-634.26 1245.38,-624.65 1238.41,-623.97"/>
<text text-anchor="middle" x="1250" y="-474.8" font-family="Times,serif" font-size="14.00">4</text>
</g>
<!-- 17&#45;&gt;15 -->
<g id="edge122" class="edge">
<title>17&#45;&gt;15</title>
<path fill="none" stroke="black" d="M1341.06,-305.8C1336.62,-331.95 1328.05,-383.52 1322,-427.5 1316.78,-465.4 1311.85,-509.36 1308.87,-537.05"/>
<polygon fill="black" stroke="black" points="1305.37,-536.85 1307.79,-547.17 1312.33,-537.59 1305.37,-536.85"/>
<text text-anchor="middle" x="1327" y="-431.3" font-family="Times,serif" font-size="14.00">0</text>
</g>
<!-- 17&#45;&gt;16 -->
<g id="edge3" class="edge">
<title>17&#45;&gt;16</title>
<path fill="none" stroke="black" d="M1335.04,-270.71C1317.37,-239.09 1277.93,-168.51 1256.88,-130.83"/>
<polygon fill="black" stroke="black" points="1259.88,-129.03 1251.94,-122 1253.77,-132.44 1259.88,-129.03"/>
<text text-anchor="middle" x="1306" y="-188.3" font-family="Times,serif" font-size="14.00">2</text>
</g>
<!-- 17&#45;&gt;24 -->
<g id="edge34" class="edge">
<title>17&#45;&gt;24</title>
<path fill="none" stroke="black" d="M1364.62,-299.97C1390.34,-315.66 1431,-346.74 1431,-386.5 1431,-697 1431,-697 1431,-697 1431,-765.57 1414.95,-845.1 1405.58,-885.67"/>
<polygon fill="black" stroke="black" points="1402.14,-885.05 1403.25,-895.58 1408.95,-886.65 1402.14,-885.05"/>
<text text-anchor="middle" x="1436" y="-605.3" font-family="Times,serif" font-size="14.00">3</text>
</g>
<!-- 18&#45;&gt;0 -->
<g id="edge54" class="edge">
<title>18&#45;&gt;0</title>
<path fill="none" stroke="black" d="M981,-19.22C1172.75,-20.96 2321,-34.26 2321,-104 2321,-2132.23 2321,-2132.23 2321,-2132.23 2321,-2211.33 2231.43,-2180.7 2153,-2190.98 1985.86,-2212.88 747.9,-2223.81 515.53,-2225.68"/>
<polygon fill="black" stroke="black" points="515.21,-2222.19 505.24,-2225.77 515.26,-2229.19 515.21,-2222.19"/>
<text text-anchor="middle" x="2326" y="-1092.54" font-family="Times,serif" font-size="14.00">3</text>
</g>
<!-- 18&#45;&gt;0 -->
<g id="edge68" class="edge">
<title>18&#45;&gt;0</title>
<path fill="none" stroke="black" d="M981.03,-19.31C1134.69,-21.16 1899.52,-31.38 2134,-54 2539.37,-93.11 2367,-54.11 2367,-104 2367,-2132.23 2367,-2132.23 2367,-2132.23 2367,-2193.61 2302.37,-2179.86 2242,-2190.98 2066.86,-2223.23 754.27,-2225.77 515.28,-2225.96"/>
<polygon fill="black" stroke="black" points="515.03,-2222.46 505.03,-2225.97 515.03,-2229.46 515.03,-2222.46"/>
<text text-anchor="middle" x="2372" y="-1092.54" font-family="Times,serif" font-size="14.00">0</text>
</g>
<!-- 18&#45;&gt;4 -->
<g id="edge106" class="edge">
<title>18&#45;&gt;4</title>
<path fill="none" stroke="black" d="M926.83,-18.42C856.38,-17.51 662.38,-18.67 506,-54 466.07,-63.02 444.55,-54.24 420,-87 367.79,-156.65 373,-781.95 373,-869 373,-1045 373,-1045 373,-1045 373,-1300.46 413.06,-1362.89 476,-1610.48 485.94,-1649.59 482.45,-1662.17 502,-1697.48 511.46,-1714.56 517.55,-1716.33 531,-1730.48 535.31,-1735.01 540.03,-1739.75 544.6,-1744.23"/>
<polygon fill="black" stroke="black" points="542.41,-1746.99 552.03,-1751.43 547.28,-1741.96 542.41,-1746.99"/>
<text text-anchor="middle" x="378" y="-866.3" font-family="Times,serif" font-size="14.00">4</text>
</g>
<!-- 18&#45;&gt;23 -->
<g id="edge6" class="edge">
<title>18&#45;&gt;23</title>
<path fill="none" stroke="black" d="M954,-36.26C954,-53.43 954,-80.54 954,-104 954,-288.75 954,-288.75 954,-288.75 954,-371.86 896.79,-379.09 880,-460.5 843.17,-639.04 917,-686.7 917,-869 917,-1001.5 917,-1001.5 917,-1001.5 917,-1020.82 914.26,-1042.17 911.29,-1059.61"/>
<polygon fill="black" stroke="black" points="907.76,-1059.45 909.44,-1069.91 914.65,-1060.69 907.76,-1059.45"/>
<text text-anchor="middle" x="876" y="-561.8" font-family="Times,serif" font-size="14.00">2</text>
</g>
<!-- 18&#45;&gt;27 -->
<g id="edge72" class="edge">
<title>18&#45;&gt;27</title>
<path fill="none" stroke="black" d="M927.14,-20.52C820.66,-26.89 434,-53.52 434,-104 434,-288.75 434,-288.75 434,-288.75 434,-738.52 433.38,-855.84 521,-1296.99 542.81,-1406.81 517.51,-1454.52 591,-1538.98 663.2,-1621.96 795.05,-1658.6 858.29,-1671.98"/>
<polygon fill="black" stroke="black" points="857.7,-1675.43 868.2,-1674 859.1,-1668.57 857.7,-1675.43"/>
<text text-anchor="middle" x="454" y="-822.8" font-family="Times,serif" font-size="14.00">1</text>
</g>
<!-- 19&#45;&gt;4 -->
<g id="edge115" class="edge">
<title>19&#45;&gt;4</title>
<path fill="none" stroke="black" d="M1802.05,-296.59C1784.83,-303.44 1762.37,-315.05 1749,-332.5 1733.92,-352.18 1735,-361.7 1735,-386.5 1735,-523 1735,-523 1735,-523 1735,-600.59 1705,-617.4 1705,-695 1705,-958 1705,-958 1705,-958 1705,-1046.75 1691.48,-1068.12 1679,-1155.99 1674.04,-1190.94 1667,-1199.2 1667,-1234.49 1667,-1680.48 1667,-1680.48 1667,-1680.48 1667,-1755.41 1579.95,-1718.44 1506,-1730.48 1323.47,-1760.19 858.19,-1731.93 674,-1748.48 650.12,-1750.63 623.49,-1754.85 602.78,-1758.55"/>
<polygon fill="black" stroke="black" points="602.03,-1755.13 592.82,-1760.37 603.29,-1762.01 602.03,-1755.13"/>
<text text-anchor="middle" x="1710" y="-996.8" font-family="Times,serif" font-size="14.00">2</text>
</g>
<!-- 19&#45;&gt;5 -->
<g id="edge137" class="edge">
<title>19&#45;&gt;5</title>
<path fill="none" stroke="black" d="M1830.82,-305.67C1832.98,-313.74 1835.39,-323.56 1837,-332.5 1838.32,-339.81 1839.4,-347.75 1840.25,-355.22"/>
<polygon fill="black" stroke="black" points="1836.79,-355.79 1841.32,-365.37 1843.76,-355.06 1836.79,-355.79"/>
<text text-anchor="middle" x="1845" y="-336.3" font-family="Times,serif" font-size="14.00">1</text>
</g>
<!-- 19&#45;&gt;6 -->
<g id="edge43" class="edge">
<title>19&#45;&gt;6</title>
<path fill="none" stroke="black" d="M1804.45,-276.89C1767.92,-260.19 1693.74,-226.26 1651.76,-207.07"/>
<polygon fill="black" stroke="black" points="1653.12,-203.84 1642.57,-202.86 1650.21,-210.21 1653.12,-203.84"/>
<text text-anchor="middle" x="1735" y="-231.8" font-family="Times,serif" font-size="14.00">4</text>
</g>
<!-- 19&#45;&gt;13 -->
<g id="edge92" class="edge">
<title>19&#45;&gt;13</title>
<path fill="none" stroke="black" d="M1848.66,-297.94C1897.35,-318.91 2012.12,-375.17 2069,-460.5 2260.16,-747.22 2115,-889.89 2115,-1234.49 2115,-2032.48 2115,-2032.48 2115,-2032.48 2115,-2078.37 2070.95,-2073.3 2027,-2086.48 1898.23,-2125.1 917.52,-2129.63 713.22,-2130.16"/>
<polygon fill="black" stroke="black" points="713,-2126.66 703.01,-2130.18 713.01,-2133.66 713,-2126.66"/>
<text text-anchor="middle" x="2122" y="-1188.29" font-family="Times,serif" font-size="14.00">3</text>
</g>
<!-- 19&#45;&gt;14 -->
<g id="edge104" class="edge">
<title>19&#45;&gt;14</title>
<path fill="none" stroke="black" d="M1822.08,-305.7C1818.7,-321.18 1814.05,-344.74 1812,-365.5 1809.3,-392.92 1811.22,-399.94 1811,-427.5 1810.95,-434.16 1810.31,-435.86 1811,-442.5 1815.92,-489.92 1828.08,-500.07 1833,-547.5 1852.22,-732.91 1839.92,-785.46 1788,-964.5 1753.04,-1085.07 1705,-1108.95 1705,-1234.49 1705,-1480.24 1705,-1480.24 1705,-1480.24 1705,-1546.9 1631.71,-1522.99 1567,-1538.98 1472.19,-1562.41 1445.21,-1547.64 1348,-1556.98 1278.18,-1563.69 1196.8,-1572.98 1150.74,-1578.37"/>
<polygon fill="black" stroke="black" points="1150.17,-1574.91 1140.65,-1579.56 1150.99,-1581.87 1150.17,-1574.91"/>
<text text-anchor="middle" x="1813" y="-909.8" font-family="Times,serif" font-size="14.00">0</text>
</g>
<!-- 20&#45;&gt;0 -->
<g id="edge138" class="edge">
<title>20&#45;&gt;0</title>
<path fill="none" stroke="black" d="M605.01,-1291.1C562.83,-1315.39 463.71,-1377.16 404,-1452.49 317.01,-1562.23 320.41,-1610.59 296,-1748.48 180.5,-2401.05 254.47,-2100.86 276,-2157.98 282.89,-2176.25 288.1,-2181.19 305,-2190.98 347.24,-2215.43 403.89,-2223 440.66,-2225.23"/>
<polygon fill="black" stroke="black" points="440.78,-2228.74 450.94,-2225.75 441.13,-2221.75 440.78,-2228.74"/>
<text text-anchor="middle" x="301" y="-1762.78" font-family="Times,serif" font-size="14.00">4</text>
</g>
<!-- 20&#45;&gt;11 -->
<g id="edge55" class="edge">
<title>20&#45;&gt;11</title>
<path fill="none" stroke="black" d="M619.66,-1261.34C607.34,-1219.56 581.41,-1108.48 628,-1036.5 633.3,-1028.31 641.26,-1021.57 649.36,-1016.26"/>
<polygon fill="black" stroke="black" points="651.3,-1019.18 658.1,-1011.06 647.72,-1013.17 651.3,-1019.18"/>
<text text-anchor="middle" x="607" y="-1144.79" font-family="Times,serif" font-size="14.00">1</text>
</g>
<!-- 20&#45;&gt;14 -->
<g id="edge79" class="edge">
<title>20&#45;&gt;14</title>
<path fill="none" stroke="black" d="M640.31,-1294.45C651.36,-1304.69 666.77,-1318.57 681,-1329.99 691.68,-1338.56 696.56,-1338.07 706,-1347.99 737.57,-1381.17 725.44,-1406.91 762,-1434.49 783.89,-1451 795.87,-1441.53 821,-1452.49 891.19,-1483.08 899.79,-1508.43 970,-1538.98 1005.68,-1554.51 1048.59,-1566.78 1078.23,-1574.32"/>
<polygon fill="black" stroke="black" points="1077.58,-1577.77 1088.13,-1576.79 1079.28,-1570.98 1077.58,-1577.77"/>
<text text-anchor="middle" x="767" y="-1423.29" font-family="Times,serif" font-size="14.00">3</text>
</g>
<!-- 20&#45;&gt;14 -->
<g id="edge87" class="edge">
<title>20&#45;&gt;14</title>
<path fill="none" stroke="black" d="M649.97,-1286.41C688.04,-1296.68 762.37,-1318.68 821,-1347.99 895.31,-1385.14 919.85,-1391.25 976,-1452.49 1005.71,-1484.89 992.08,-1508.75 1024,-1538.98 1039.54,-1553.7 1060.96,-1564.39 1079.01,-1571.51"/>
<polygon fill="black" stroke="black" points="1078.04,-1574.88 1088.63,-1575.1 1080.49,-1568.32 1078.04,-1574.88"/>
<text text-anchor="middle" x="963" y="-1423.29" font-family="Times,serif" font-size="14.00">0</text>
</g>
<!-- 20&#45;&gt;26 -->
<g id="edge24" class="edge">
<title>20&#45;&gt;26</title>
<path fill="none" stroke="black" d="M651.01,-1274C709.97,-1265.04 858.38,-1242.92 983,-1227.99 1097.01,-1214.34 1232.36,-1201.86 1296.2,-1196.2"/>
<polygon fill="black" stroke="black" points="1296.52,-1199.68 1306.18,-1195.31 1295.91,-1192.71 1296.52,-1199.68"/>
<text text-anchor="middle" x="988" y="-1231.79" font-family="Times,serif" font-size="14.00">2</text>
</g>
<!-- 21&#45;&gt;7 -->
<g id="edge9" class="edge">
<title>21&#45;&gt;7</title>
<path fill="none" stroke="black" d="M1029.42,-816.4C991.84,-801.26 916.35,-770.85 873.2,-753.47"/>
<polygon fill="black" stroke="black" points="874.32,-750.15 863.74,-749.66 871.71,-756.64 874.32,-750.15"/>
<text text-anchor="middle" x="965" y="-779.3" font-family="Times,serif" font-size="14.00">3</text>
</g>
<!-- 21&#45;&gt;8 -->
<g id="edge49" class="edge">
<title>21&#45;&gt;8</title>
<path fill="none" stroke="black" d="M1079.1,-824.61C1141.93,-822.17 1295.65,-813.92 1341,-790.5 1420.45,-749.46 1356.18,-672.91 1410,-601.5 1455.31,-541.36 1539.58,-505.88 1586.75,-489.83"/>
<polygon fill="black" stroke="black" points="1588.11,-493.07 1596.51,-486.61 1585.91,-486.43 1588.11,-493.07"/>
<text text-anchor="middle" x="1398" y="-648.8" font-family="Times,serif" font-size="14.00">4</text>
</g>
<!-- 21&#45;&gt;10 -->
<g id="edge97" class="edge">
<title>21&#45;&gt;10</title>
<path fill="none" stroke="black" d="M1060.35,-809.35C1075.61,-781.23 1110.59,-723 1155,-688.5 1169.67,-677.1 1188.59,-668.79 1204.75,-663.13"/>
<polygon fill="black" stroke="black" points="1206,-666.41 1214.4,-659.95 1203.81,-659.76 1206,-666.41"/>
<text text-anchor="middle" x="1125" y="-735.8" font-family="Times,serif" font-size="14.00">1</text>
</g>
<!-- 21&#45;&gt;18 -->
<g id="edge116" class="edge">
<title>21&#45;&gt;18</title>
<path fill="none" stroke="black" d="M1051.44,-808.12C1050.7,-784.46 1049.46,-740.78 1049,-703.5 1047.67,-595.5 1074.19,-565.75 1050,-460.5 1036.78,-402.96 992,-400.03 992,-341 992,-341 992,-341 992,-104 992,-81.91 981.17,-59.17 971.07,-42.78"/>
<polygon fill="black" stroke="black" points="973.99,-40.85 965.61,-34.37 968.12,-44.67 973.99,-40.85"/>
<text text-anchor="middle" x="1050" y="-431.3" font-family="Times,serif" font-size="14.00">0</text>
</g>
<!-- 21&#45;&gt;21 -->
<g id="edge11" class="edge">
<title>21&#45;&gt;21</title>
<path fill="none" stroke="black" d="M1076.53,-834.25C1087.51,-834.99 1097,-832.4 1097,-826.5 1097,-822.53 1092.72,-820.06 1086.57,-819.09"/>
<polygon fill="black" stroke="black" points="1086.65,-815.59 1076.53,-818.74 1086.41,-822.59 1086.65,-815.59"/>
<text text-anchor="middle" x="1102" y="-822.8" font-family="Times,serif" font-size="14.00">2</text>
</g>
<!-- 22&#45;&gt;8 -->
<g id="edge96" class="edge">
<title>22&#45;&gt;8</title>
<path fill="none" stroke="black" d="M1741.03,-1752.47C1758.77,-1737.3 1784,-1710.46 1784,-1680.48 1784,-1680.48 1784,-1680.48 1784,-1425.99 1784,-1291.32 1786.33,-1257.66 1787,-1122.99 1787.48,-1026.21 1787.17,-780.46 1757,-688.5 1732.16,-612.78 1672.72,-537.89 1641.29,-501.79"/>
<polygon fill="black" stroke="black" points="1643.9,-499.46 1634.66,-494.28 1638.66,-504.09 1643.9,-499.46"/>
<text text-anchor="middle" x="1793" y="-1092.54" font-family="Times,serif" font-size="14.00">0</text>
</g>
<!-- 22&#45;&gt;11 -->
<g id="edge27" class="edge">
<title>22&#45;&gt;11</title>
<path fill="none" stroke="black" d="M1697,-1764C1554.55,-1756.12 895.47,-1718.64 858,-1697.48 666.76,-1589.48 680,-1456.12 680,-1236.49 680,-1236.49 680,-1236.49 680,-1095.24 680,-1072.93 680,-1047.63 680,-1028.94"/>
<polygon fill="black" stroke="black" points="683.5,-1028.77 680,-1018.77 676.5,-1028.77 683.5,-1028.77"/>
<text text-anchor="middle" x="687" y="-1371.04" font-family="Times,serif" font-size="14.00">2</text>
</g>
<!-- 22&#45;&gt;15 -->
<g id="edge4" class="edge">
<title>22&#45;&gt;15</title>
<path fill="none" stroke="black" d="M1730.01,-1748.79C1735.58,-1731.83 1743,-1704.67 1743,-1680.48 1743,-1680.48 1743,-1680.48 1743,-1234.49 1743,-1149.44 1711.42,-1132.97 1687,-1051.5 1668.65,-990.27 1637.54,-831.09 1606,-775.5 1554.01,-683.86 1535.61,-655.25 1445,-601.5 1413.55,-582.84 1372.4,-574.07 1343.06,-569.98"/>
<polygon fill="black" stroke="black" points="1343.18,-566.47 1332.82,-568.68 1342.3,-573.41 1343.18,-566.47"/>
<text text-anchor="middle" x="1735" y="-1144.79" font-family="Times,serif" font-size="14.00">1</text>
</g>
<!-- 22&#45;&gt;16 -->
<g id="edge29" class="edge">
<title>22&#45;&gt;16</title>
<path fill="none" stroke="black" d="M1751.25,-1764.82C1802.02,-1761.99 1906,-1747.96 1906,-1680.48 1906,-1680.48 1906,-1680.48 1906,-1234.49 1906,-1185.02 1949.28,-1066.8 1960,-1018.5 2000.91,-834.18 1994.9,-784.58 2041,-601.5 2070.6,-483.92 2122,-462.24 2122,-341 2122,-341 2122,-341 2122,-191 2122,-105.07 1447.86,-104.46 1280.34,-105.63"/>
<polygon fill="black" stroke="black" points="1280.24,-102.13 1270.27,-105.71 1280.3,-109.13 1280.24,-102.13"/>
<text text-anchor="middle" x="1990" y="-909.8" font-family="Times,serif" font-size="14.00">4</text>
</g>
<!-- 22&#45;&gt;27 -->
<g id="edge144" class="edge">
<title>22&#45;&gt;27</title>
<path fill="none" stroke="black" d="M1697.89,-1761.09C1640.06,-1751.5 1496.76,-1728.52 1376,-1715.48 1210.55,-1697.61 1012.14,-1686.42 931.16,-1682.29"/>
<polygon fill="black" stroke="black" points="931.14,-1678.78 920.97,-1681.77 930.78,-1685.77 931.14,-1678.78"/>
<text text-anchor="middle" x="1497" y="-1719.28" font-family="Times,serif" font-size="14.00">3</text>
</g>
<!-- 23&#45;&gt;11 -->
<g id="edge109" class="edge">
<title>23&#45;&gt;11</title>
<path fill="none" stroke="black" d="M879.6,-1085.03C838.82,-1067.97 756.86,-1033.66 711.68,-1014.76"/>
<polygon fill="black" stroke="black" points="712.94,-1011.49 702.36,-1010.86 710.24,-1017.94 712.94,-1011.49"/>
<text text-anchor="middle" x="804" y="-1040.3" font-family="Times,serif" font-size="14.00">3</text>
</g>
<!-- 25 -->
<g id="node27" class="node">
<title>25</title>
<ellipse fill="none" stroke="black" cx="785" cy="-1374.74" rx="22.96" ry="22.96"/>
<ellipse fill="none" stroke="black" cx="785" cy="-1374.74" rx="27" ry="27"/>
<text text-anchor="middle" x="785" y="-1371.04" font-family="Times,serif" font-size="14.00">25</text>
</g>
<!-- 23&#45;&gt;25 -->
<g id="edge149" class="edge">
<title>23&#45;&gt;25</title>
<path fill="none" stroke="black" d="M880.45,-1109.25C858.02,-1122.03 825.32,-1144.49 809,-1173.99 780.47,-1225.55 779.12,-1295.9 781.52,-1337.88"/>
<polygon fill="black" stroke="black" points="778.03,-1338.18 782.19,-1347.92 785.01,-1337.71 778.03,-1338.18"/>
<text text-anchor="middle" x="794" y="-1231.79" font-family="Times,serif" font-size="14.00">0</text>
</g>
<!-- 23&#45;&gt;26 -->
<g id="edge121" class="edge">
<title>23&#45;&gt;26</title>
<path fill="none" stroke="black" d="M928.89,-1106.42C964.56,-1119.24 1032.48,-1142.46 1092,-1155.99 1163.48,-1172.24 1248.69,-1182.54 1296.24,-1187.49"/>
<polygon fill="black" stroke="black" points="1296.05,-1190.99 1306.36,-1188.52 1296.76,-1184.02 1296.05,-1190.99"/>
<text text-anchor="middle" x="1097" y="-1144.79" font-family="Times,serif" font-size="14.00">4</text>
</g>
<!-- 23&#45;&gt;29 -->
<g id="edge93" class="edge">
<title>23&#45;&gt;29</title>
<path fill="none" stroke="black" d="M898.52,-1122.73C884.56,-1186.57 846.95,-1351.73 821,-1401.49 811.19,-1420.31 796.13,-1438.67 783.09,-1452.71"/>
<polygon fill="black" stroke="black" points="780.47,-1450.39 776.1,-1460.04 785.54,-1455.22 780.47,-1450.39"/>
<text text-anchor="middle" x="871" y="-1275.29" font-family="Times,serif" font-size="14.00">2</text>
</g>
<!-- 23&#45;&gt;29 -->
<g id="edge139" class="edge">
<title>23&#45;&gt;29</title>
<path fill="none" stroke="black" d="M904.28,-1123.05C903.8,-1177.81 896.93,-1308.3 846,-1401.49 832.7,-1425.82 808.45,-1445.94 788.61,-1459.47"/>
<polygon fill="black" stroke="black" points="786.58,-1456.62 780.14,-1465.04 790.42,-1462.47 786.58,-1456.62"/>
<text text-anchor="middle" x="897" y="-1275.29" font-family="Times,serif" font-size="14.00">1</text>
</g>
<!-- 24&#45;&gt;0 -->
<g id="edge20" class="edge">
<title>24&#45;&gt;0</title>
<path fill="none" stroke="black" d="M1426.07,-915.98C1482.56,-919.38 1616.99,-929.06 1728,-949.5 1928.88,-986.47 1999.78,-1015.82 2129,-1173.99 2262.13,-1336.95 2237,-1424.55 2237,-1634.98 2237,-2132.23 2237,-2132.23 2237,-2132.23 2237,-2221.59 770.26,-2225.92 515.5,-2226"/>
<polygon fill="black" stroke="black" points="515.28,-2222.5 505.28,-2226 515.28,-2229.5 515.28,-2222.5"/>
<text text-anchor="middle" x="2243" y="-1580.03" font-family="Times,serif" font-size="14.00">4</text>
</g>
<!-- 24&#45;&gt;13 -->
<g id="edge127" class="edge">
<title>24&#45;&gt;13</title>
<path fill="none" stroke="black" d="M1426.03,-915.38C1546.42,-920.88 2028,-960.05 2028,-1234.49 2028,-2032.48 2028,-2032.48 2028,-2032.48 2028,-2058.74 2025.78,-2071.81 2004,-2086.48 1949.02,-2123.51 921.97,-2129.31 712.94,-2130.11"/>
<polygon fill="black" stroke="black" points="712.78,-2126.61 702.79,-2130.15 712.8,-2133.61 712.78,-2126.61"/>
<text text-anchor="middle" x="2033" y="-1527.78" font-family="Times,serif" font-size="14.00">1</text>
</g>
<!-- 24&#45;&gt;14 -->
<g id="edge10" class="edge">
<title>24&#45;&gt;14</title>
<path fill="none" stroke="black" d="M1399.4,-931.56C1400.03,-977.55 1398.81,-1107.5 1369,-1209.99 1363.29,-1229.63 1218.55,-1524.62 1204,-1538.98 1188.7,-1554.09 1167.16,-1564.82 1148.99,-1571.87"/>
<polygon fill="black" stroke="black" points="1147.76,-1568.59 1139.57,-1575.31 1150.17,-1575.16 1147.76,-1568.59"/>
<text text-anchor="middle" x="1367" y="-1231.79" font-family="Times,serif" font-size="14.00">0</text>
</g>
<!-- 24&#45;&gt;18 -->
<g id="edge22" class="edge">
<title>24&#45;&gt;18</title>
<path fill="none" stroke="black" d="M1425.85,-911.09C1534.13,-905.08 1933,-879.42 1933,-827.5 1933,-827.5 1933,-827.5 1933,-477.5 1933,-361.19 2035,-352.81 2035,-236.5 2035,-236.5 2035,-236.5 2035,-104 2035,-50.45 1180.75,-24.94 991.03,-19.93"/>
<polygon fill="black" stroke="black" points="991.08,-16.43 980.99,-19.67 990.9,-23.43 991.08,-16.43"/>
<text text-anchor="middle" x="1938" y="-474.8" font-family="Times,serif" font-size="14.00">3</text>
</g>
<!-- 24&#45;&gt;21 -->
<g id="edge77" class="edge">
<title>24&#45;&gt;21</title>
<path fill="none" stroke="black" d="M1374.34,-906.13C1336.91,-896.5 1263.52,-877.73 1201,-862.5 1162.09,-853.01 1117.34,-842.56 1087.13,-835.57"/>
<polygon fill="black" stroke="black" points="1087.61,-832.09 1077.08,-833.25 1086.03,-838.91 1087.61,-832.09"/>
<text text-anchor="middle" x="1266" y="-866.3" font-family="Times,serif" font-size="14.00">2</text>
</g>
<!-- 25&#45;&gt;2 -->
<g id="edge38" class="edge">
<title>25&#45;&gt;2</title>
<path fill="none" stroke="black" d="M764.55,-1392.93C733.96,-1420.78 680.62,-1478.78 688,-1538.98 693.82,-1586.49 694.27,-1599.88 714,-1643.48 717.18,-1650.5 865.5,-1867.34 872,-1871.48 931.35,-1909.32 1143.59,-1929.82 1230,-1936.76"/>
<polygon fill="black" stroke="black" points="1229.89,-1940.26 1240.13,-1937.55 1230.44,-1933.28 1229.89,-1940.26"/>
<text text-anchor="middle" x="755" y="-1675.78" font-family="Times,serif" font-size="14.00">4</text>
</g>
<!-- 25&#45;&gt;2 -->
<g id="edge99" class="edge">
<title>25&#45;&gt;2</title>
<path fill="none" stroke="black" d="M760.68,-1386.22C736.39,-1398.22 700.64,-1420.44 686,-1452.49 600.69,-1639.29 611.84,-1789.5 782,-1904.48 818.81,-1929.35 1122.98,-1936.98 1229.96,-1938.91"/>
<polygon fill="black" stroke="black" points="1229.91,-1942.41 1239.97,-1939.09 1230.03,-1935.41 1229.91,-1942.41"/>
<text text-anchor="middle" x="642" y="-1675.78" font-family="Times,serif" font-size="14.00">3</text>
</g>
<!-- 25&#45;&gt;11 -->
<g id="edge57" class="edge">
<title>25&#45;&gt;11</title>
<path fill="none" stroke="black" d="M774.21,-1350C762.98,-1323.06 747,-1277.53 747,-1236.49 747,-1236.49 747,-1236.49 747,-1095.24 747,-1065.35 724.18,-1038.42 705.17,-1021.17"/>
<polygon fill="black" stroke="black" points="707.45,-1018.52 697.6,-1014.61 702.87,-1023.81 707.45,-1018.52"/>
<text text-anchor="middle" x="752" y="-1188.29" font-family="Times,serif" font-size="14.00">0</text>
</g>
<!-- 25&#45;&gt;14 -->
<g id="edge88" class="edge">
<title>25&#45;&gt;14</title>
<path fill="none" stroke="black" d="M807.3,-1390.34C813.3,-1394.1 819.83,-1398.05 826,-1401.49 870.97,-1426.55 891.23,-1418.62 930,-1452.49 964.86,-1482.94 951.35,-1510.71 988,-1538.98 1014.34,-1559.3 1050.79,-1570.59 1077.71,-1576.59"/>
<polygon fill="black" stroke="black" points="1077.02,-1580.02 1087.52,-1578.64 1078.45,-1573.17 1077.02,-1580.02"/>
<text text-anchor="middle" x="967" y="-1475.54" font-family="Times,serif" font-size="14.00">2</text>
</g>
<!-- 25&#45;&gt;20 -->
<g id="edge84" class="edge">
<title>25&#45;&gt;20</title>
<path fill="none" stroke="black" d="M762.6,-1359.32C756.6,-1355.56 750.09,-1351.56 744,-1347.99 729.59,-1339.55 725.56,-1338.19 711,-1329.99 691.7,-1319.12 670.16,-1306.59 653.46,-1296.8"/>
<polygon fill="black" stroke="black" points="655.12,-1293.71 644.72,-1291.66 651.57,-1299.75 655.12,-1293.71"/>
<text text-anchor="middle" x="716" y="-1318.79" font-family="Times,serif" font-size="14.00">1</text>
</g>
<!-- 26&#45;&gt;1 -->
<g id="edge143" class="edge">
<title>26&#45;&gt;1</title>
<path fill="none" stroke="black" d="M1351.67,-1205.32C1360.64,-1211.63 1371.31,-1219.71 1380,-1227.99 1443.04,-1288.04 1629,-1443.42 1629,-1530.48 1629,-1941.48 1629,-1941.48 1629,-1941.48 1629,-1980.08 1587.02,-2005.78 1556.93,-2019.25"/>
<polygon fill="black" stroke="black" points="1555.48,-2016.06 1547.64,-2023.19 1558.21,-2022.5 1555.48,-2016.06"/>
<text text-anchor="middle" x="1634" y="-1632.28" font-family="Times,serif" font-size="14.00">2</text>
</g>
<!-- 26&#45;&gt;8 -->
<g id="edge105" class="edge">
<title>26&#45;&gt;8</title>
<path fill="none" stroke="black" d="M1354.49,-1180.8C1393.46,-1161.24 1475.92,-1114.7 1521,-1051.5 1585.03,-961.72 1612.66,-607.63 1619.33,-506.56"/>
<polygon fill="black" stroke="black" points="1622.83,-506.75 1619.98,-496.55 1615.84,-506.3 1622.83,-506.75"/>
<text text-anchor="middle" x="1593" y="-822.8" font-family="Times,serif" font-size="14.00">3</text>
</g>
<!-- 26&#45;&gt;16 -->
<g id="edge74" class="edge">
<title>26&#45;&gt;16</title>
<path fill="none" stroke="black" d="M1360.26,-1191.04C1464.12,-1190.97 1831.16,-1188.41 1871,-1155.99 1997.36,-1053.17 1981.46,-587.9 1953,-427.5 1939.23,-349.9 1941.71,-322.15 1892,-261 1874.5,-239.47 1864.31,-239.38 1839,-228 1640.78,-138.85 1376.12,-114.19 1279.92,-107.95"/>
<polygon fill="black" stroke="black" points="1280.02,-104.45 1269.82,-107.32 1279.59,-111.44 1280.02,-104.45"/>
<text text-anchor="middle" x="1978" y="-648.8" font-family="Times,serif" font-size="14.00">0</text>
</g>
<!-- 26&#45;&gt;23 -->
<g id="edge15" class="edge">
<title>26&#45;&gt;23</title>
<path fill="none" stroke="black" d="M1307.77,-1185.48C1235.01,-1169.58 1024.62,-1123.6 939.94,-1105.1"/>
<polygon fill="black" stroke="black" points="940.53,-1101.64 930.02,-1102.93 939.04,-1108.48 940.53,-1101.64"/>
<text text-anchor="middle" x="1175" y="-1144.79" font-family="Times,serif" font-size="14.00">1</text>
</g>
<!-- 26&#45;&gt;25 -->
<g id="edge126" class="edge">
<title>26&#45;&gt;25</title>
<path fill="none" stroke="black" d="M1305.89,-1192.75C1254.28,-1193.05 1138.98,-1197.46 1048,-1227.99 990.04,-1247.45 982.43,-1267.28 929,-1296.99 890.91,-1318.18 846.59,-1341.62 817.29,-1356.95"/>
<polygon fill="black" stroke="black" points="815.58,-1353.9 808.33,-1361.63 818.82,-1360.1 815.58,-1353.9"/>
<text text-anchor="middle" x="988" y="-1275.29" font-family="Times,serif" font-size="14.00">4</text>
</g>
<!-- 27&#45;&gt;14 -->
<g id="edge45" class="edge">
<title>27&#45;&gt;14</title>
<path fill="none" stroke="black" d="M916.31,-1668.97C954.98,-1652.5 1034.69,-1618.53 1080.2,-1599.14"/>
<polygon fill="black" stroke="black" points="1081.8,-1602.26 1089.63,-1595.12 1079.06,-1595.82 1081.8,-1602.26"/>
<text text-anchor="middle" x="1016" y="-1632.28" font-family="Times,serif" font-size="14.00">2</text>
</g>
<!-- 27&#45;&gt;15 -->
<g id="edge142" class="edge">
<title>27&#45;&gt;15</title>
<path fill="none" stroke="black" d="M920.89,-1676.79C995.2,-1670.43 1201.2,-1640.75 1252,-1505.98 1255.64,-1496.33 1272.62,-935.39 1234,-862.5 1191.91,-783.07 1049.14,-802.06 1089,-721.5 1126.73,-645.25 1222.09,-598.6 1272.92,-578.35"/>
<polygon fill="black" stroke="black" points="1274.4,-581.52 1282.46,-574.64 1271.87,-575 1274.4,-581.52"/>
<text text-anchor="middle" x="1264" y="-1092.54" font-family="Times,serif" font-size="14.00">1</text>
</g>
<!-- 27&#45;&gt;21 -->
<g id="edge56" class="edge">
<title>27&#45;&gt;21</title>
<path fill="none" stroke="black" d="M906.62,-1663.23C938.68,-1623.36 1022.84,-1511.46 1052,-1401.49 1054.06,-1393.7 1052.75,-1287.46 1051,-1260.99 1047.89,-1213.95 1039.57,-1203 1036,-1155.99 1029.05,-1064.44 1036.81,-1041.16 1042,-949.5 1043.84,-916.97 1047.06,-879.64 1049.35,-854.94"/>
<polygon fill="black" stroke="black" points="1052.85,-855.14 1050.3,-844.85 1045.88,-854.48 1052.85,-855.14"/>
<text text-anchor="middle" x="1055" y="-1231.79" font-family="Times,serif" font-size="14.00">3</text>
</g>
<!-- 27&#45;&gt;23 -->
<g id="edge83" class="edge">
<title>27&#45;&gt;23</title>
<path fill="none" stroke="black" d="M891.38,-1661.46C886.1,-1620.9 878.43,-1517.11 926,-1452.49 937.08,-1437.44 953.07,-1449.65 964,-1434.49 972.47,-1422.73 968.45,-1351.76 968,-1347.99 958.58,-1268.86 931.49,-1179 915.73,-1131.27"/>
<polygon fill="black" stroke="black" points="919.04,-1130.13 912.56,-1121.75 912.4,-1132.34 919.04,-1130.13"/>
<text text-anchor="middle" x="975" y="-1371.04" font-family="Times,serif" font-size="14.00">0</text>
</g>
<!-- 27&#45;&gt;24 -->
<g id="edge14" class="edge">
<title>27&#45;&gt;24</title>
<path fill="none" stroke="black" d="M920.89,-1677.4C998.54,-1674.05 1219.29,-1662.92 1245,-1643.48 1252.58,-1637.75 1321.83,-1567.87 1379,-1296.99 1382.61,-1279.88 1393.05,-999.96 1394,-982.5 1394.79,-967.82 1394.93,-964.15 1396,-949.5 1396.19,-946.94 1396.39,-944.28 1396.61,-941.62"/>
<polygon fill="black" stroke="black" points="1400.1,-941.84 1397.45,-931.58 1393.13,-941.25 1400.1,-941.84"/>
<text text-anchor="middle" x="1387" y="-1275.29" font-family="Times,serif" font-size="14.00">4</text>
</g>
<!-- 28&#45;&gt;1 -->
<g id="edge42" class="edge">
<title>28&#45;&gt;1</title>
<path fill="none" stroke="black" d="M536.94,-305.75C474.65,-358.65 287.43,-518.57 266,-547.5 217.4,-613.12 223.18,-641.46 207,-721.5 143.91,-1033.66 76,-1107.51 76,-1425.99 76,-1636.98 76,-1636.98 76,-1636.98 76,-1711.77 102.18,-1733.61 157,-1784.48 293.76,-1911.38 362.52,-1897.98 539,-1958.48 599.06,-1979.07 615.12,-1982.65 678,-1991.48 840.18,-2014.25 1359.49,-2026.86 1494.61,-2029.8"/>
<polygon fill="black" stroke="black" points="1494.66,-2033.31 1504.73,-2030.02 1494.81,-2026.31 1494.66,-2033.31"/>
<text text-anchor="middle" x="107" y="-1144.79" font-family="Times,serif" font-size="14.00">4</text>
</g>
<!-- 28&#45;&gt;13 -->
<g id="edge61" class="edge">
<title>28&#45;&gt;13</title>
<path fill="none" stroke="black" d="M532.6,-299.19C502.95,-312.45 452.04,-337.05 413,-365.5 322.56,-431.4 293.06,-449.51 239,-547.5 45.5,-898.18 38,-1025.46 38,-1425.99 38,-1723.98 38,-1723.98 38,-1723.98 38,-1780.62 378.15,-2024.81 427,-2053.48 463.02,-2074.62 475.25,-2073.66 515,-2086.48 557.53,-2100.2 607.29,-2113.27 640.1,-2121.5"/>
<polygon fill="black" stroke="black" points="639.58,-2124.97 650.13,-2123.99 641.27,-2118.18 639.58,-2124.97"/>
<text text-anchor="middle" x="47" y="-1188.29" font-family="Times,serif" font-size="14.00">2</text>
</g>
<!-- 28&#45;&gt;24 -->
<g id="edge69" class="edge">
<title>28&#45;&gt;24</title>
<path fill="none" stroke="black" d="M582.02,-297.48C639.61,-318.48 783.96,-376.39 880,-460.5 930.57,-504.78 921.31,-535.14 968,-583.5 1037.72,-655.69 1290.31,-835.87 1372.77,-894.06"/>
<polygon fill="black" stroke="black" points="1370.9,-897.02 1381.09,-899.92 1374.93,-891.3 1370.9,-897.02"/>
<text text-anchor="middle" x="1009" y="-605.3" font-family="Times,serif" font-size="14.00">1</text>
</g>
<!-- 28&#45;&gt;28 -->
<g id="edge2" class="edge">
<title>28&#45;&gt;28</title>
<path fill="none" stroke="black" d="M582.3,-297.41C592.83,-298.08 601.75,-294.86 601.75,-287.75 601.75,-283.08 597.91,-280.09 592.29,-278.77"/>
<polygon fill="black" stroke="black" points="592.52,-275.28 582.3,-278.08 592.04,-282.27 592.52,-275.28"/>
<text text-anchor="middle" x="606.75" y="-284.05" font-family="Times,serif" font-size="14.00">3</text>
</g>
<!-- 28&#45;&gt;29 -->
<g id="edge110" class="edge">
<title>28&#45;&gt;29</title>
<path fill="none" stroke="black" d="M551.93,-314.06C543.86,-356.61 529,-445.25 529,-521 529,-740.5 529,-740.5 529,-740.5 529,-797.86 541,-811.64 541,-869 541,-1001.5 541,-1001.5 541,-1001.5 541,-1068.02 551.12,-1242.3 589,-1296.99 614.96,-1334.47 646.38,-1315.15 678,-1347.99 696.61,-1367.33 692.33,-1378.39 706,-1401.49 715.38,-1417.34 726.63,-1434.45 736.18,-1448.49"/>
<polygon fill="black" stroke="black" points="733.33,-1450.52 741.88,-1456.79 739.11,-1446.56 733.33,-1450.52"/>
<text text-anchor="middle" x="546" y="-866.3" font-family="Times,serif" font-size="14.00">0</text>
</g>
<!-- 29&#45;&gt;0 -->
<g id="edge35" class="edge">
<title>29&#45;&gt;0</title>
<path fill="none" stroke="black" d="M748.97,-1504.76C731.23,-1557.61 685.86,-1685.46 631,-1784.48 607.99,-1826.01 606.42,-1842.26 569,-1871.48 537.39,-1896.17 523.22,-1892.32 485,-1904.48 453.16,-1914.61 441.15,-1906.15 412,-1922.48 336.34,-1964.87 309.54,-1988.01 286,-2071.48 270.87,-2125.12 282.2,-2154.11 324,-2190.98 341.18,-2206.13 401.52,-2216.41 441.38,-2221.72"/>
<polygon fill="black" stroke="black" points="441.16,-2225.22 451.53,-2223.03 442.06,-2218.28 441.16,-2225.22"/>
<text text-anchor="middle" x="609" y="-1849.78" font-family="Times,serif" font-size="14.00">3</text>
</g>
<!-- 29&#45;&gt;12 -->
<g id="edge124" class="edge">
<title>29&#45;&gt;12</title>
<path fill="none" stroke="black" d="M731.73,-1470.25C671.6,-1449.48 525,-1387.81 525,-1279.99 525,-1279.99 525,-1279.99 525,-1147.49 525,-918.04 511.73,-859.54 467,-634.5 459.16,-595.04 455.6,-585.36 442,-547.5 396.65,-421.24 328.2,-275.97 300.4,-218.39"/>
<polygon fill="black" stroke="black" points="303.5,-216.78 295.99,-209.3 297.2,-219.83 303.5,-216.78"/>
<text text-anchor="middle" x="512" y="-822.8" font-family="Times,serif" font-size="14.00">2</text>
</g>
<!-- 29&#45;&gt;25 -->
<g id="edge50" class="edge">
<title>29&#45;&gt;25</title>
<path fill="none" stroke="black" d="M766.62,-1453.92C768.9,-1447.65 771.19,-1440.87 773,-1434.49 775.11,-1427.04 777.01,-1418.95 778.64,-1411.24"/>
<polygon fill="black" stroke="black" points="782.08,-1411.88 780.62,-1401.39 775.22,-1410.5 782.08,-1411.88"/>
<text text-anchor="middle" x="782" y="-1423.29" font-family="Times,serif" font-size="14.00">1</text>
</g>
<!-- 29&#45;&gt;27 -->
<g id="edge107" class="edge">
<title>29&#45;&gt;27</title>
<path fill="none" stroke="black" d="M774.43,-1499.97C780.4,-1507.24 786.86,-1515.72 792,-1523.98 822.98,-1573.79 811.15,-1597.85 848,-1643.48 853.14,-1649.85 859.68,-1655.71 866.2,-1660.74"/>
<polygon fill="black" stroke="black" points="864.19,-1663.61 874.34,-1666.65 868.3,-1657.95 864.19,-1663.61"/>
<text text-anchor="middle" x="832" y="-1580.03" font-family="Times,serif" font-size="14.00">4</text>
</g>
<!-- 29&#45;&gt;29 -->
<g id="edge145" class="edge">
<title>29&#45;&gt;29</title>
<path fill="none" stroke="black" d="M782.3,-1488.9C792.83,-1489.57 801.75,-1486.35 801.75,-1479.24 801.75,-1474.57 797.91,-1471.58 792.29,-1470.26"/>
<polygon fill="black" stroke="black" points="792.52,-1466.77 782.3,-1469.57 792.04,-1473.75 792.52,-1466.77"/>
<text text-anchor="middle" x="806.75" y="-1475.54" font-family="Times,serif" font-size="14.00">0</text>
</g>
</g>
</svg>
