<?xml version="1.0" encoding="UTF-8" standalone="no"?>
<!DOCTYPE svg PUBLIC "-//W3C//DTD SVG 1.1//EN"
 "http://www.w3.org/Graphics/SVG/1.1/DTD/svg11.dtd">
<!-- Generated by graphviz version 2.49.0 (20210829.0051)
 -->
<!-- Pages: 1 -->
<svg width="2674pt" height="2471pt"
 viewBox="0.00 0.00 2674.00 2471.49" xmlns="http://www.w3.org/2000/svg" xmlns:xlink="http://www.w3.org/1999/xlink">
<g id="graph0" class="graph" transform="scale(1 1) rotate(0) translate(4 2467.49)">
<polygon fill="white" stroke="transparent" points="-4,4 -4,-2467.49 2670,-2467.49 2670,4 -4,4"/>
<!-- fake -->
<g id="node1" class="node">
<title>fake</title>
</g>
<!-- 29 -->
<g id="node31" class="node">
<title>29</title>
<ellipse fill="none" stroke="black" cx="2450" cy="-2372.49" rx="27" ry="18"/>
<text text-anchor="middle" x="2450" y="-2368.79" font-family="Times,serif" font-size="14.00">29</text>
</g>
<!-- fake&#45;&gt;29 -->
<g id="edge1" class="edge">
<title>fake&#45;&gt;29</title>
<path fill="none" stroke="black" stroke-width="2" d="M2450,-2427.3C2450,-2419.28 2450,-2409.54 2450,-2400.56"/>
<polygon fill="black" stroke="black" stroke-width="2" points="2453.5,-2400.52 2450,-2390.52 2446.5,-2400.52 2453.5,-2400.52"/>
</g>
<!-- 0 -->
<g id="node2" class="node">
<title>0</title>
<ellipse fill="none" stroke="black" cx="1766" cy="-2012.49" rx="18" ry="18"/>
<ellipse fill="none" stroke="black" cx="1766" cy="-2012.49" rx="22" ry="22"/>
<text text-anchor="middle" x="1766" y="-2008.79" font-family="Times,serif" font-size="14.00">0</text>
</g>
<!-- 0&#45;&gt;0 -->
<g id="edge65" class="edge">
<title>0&#45;&gt;0</title>
<path fill="none" stroke="black" d="M1786.58,-2020.86C1796.84,-2022.02 1806,-2019.23 1806,-2012.49 1806,-2008.17 1802.24,-2005.47 1796.84,-2004.4"/>
<polygon fill="black" stroke="black" points="1796.67,-2000.89 1786.58,-2004.12 1796.48,-2007.89 1796.67,-2000.89"/>
<text text-anchor="middle" x="1811" y="-2008.79" font-family="Times,serif" font-size="14.00">3</text>
</g>
<!-- 4 -->
<g id="node6" class="node">
<title>4</title>
<ellipse fill="none" stroke="black" cx="1473" cy="-1917.49" rx="18" ry="18"/>
<ellipse fill="none" stroke="black" cx="1473" cy="-1917.49" rx="22" ry="22"/>
<text text-anchor="middle" x="1473" y="-1913.79" font-family="Times,serif" font-size="14.00">4</text>
</g>
<!-- 0&#45;&gt;4 -->
<g id="edge118" class="edge">
<title>0&#45;&gt;4</title>
<path fill="none" stroke="black" d="M1744.93,-2004.8C1693.82,-1988.58 1563.12,-1947.09 1503.49,-1928.16"/>
<polygon fill="black" stroke="black" points="1504.47,-1924.81 1493.88,-1925.12 1502.35,-1931.48 1504.47,-1924.81"/>
<text text-anchor="middle" x="1642" y="-1961.29" font-family="Times,serif" font-size="14.00">4</text>
</g>
<!-- 8 -->
<g id="node10" class="node">
<title>8</title>
<ellipse fill="none" stroke="black" cx="1919" cy="-766.49" rx="27" ry="18"/>
<text text-anchor="middle" x="1919" y="-762.79" font-family="Times,serif" font-size="14.00">8</text>
</g>
<!-- 0&#45;&gt;8 -->
<g id="edge47" class="edge">
<title>0&#45;&gt;8</title>
<path fill="none" stroke="black" d="M1774.97,-1992.28C1794.48,-1950.19 1841.74,-1846.51 1876,-1757.49 1890.74,-1719.18 1893.93,-1709.4 1907,-1670.49 1921.1,-1628.52 1930.25,-1619.25 1937,-1575.49 1939.98,-1556.16 1937.54,-1551.04 1937,-1531.49 1930.55,-1299.27 1905.68,-1241.76 1910,-1009.49 1911.45,-931.43 1915.53,-839.29 1917.66,-794.56"/>
<polygon fill="black" stroke="black" points="1921.16,-794.66 1918.15,-784.5 1914.17,-794.32 1921.16,-794.66"/>
<text text-anchor="middle" x="1935" y="-1371.79" font-family="Times,serif" font-size="14.00">1</text>
</g>
<!-- 10 -->
<g id="node12" class="node">
<title>10</title>
<ellipse fill="none" stroke="black" cx="1803" cy="-496.74" rx="22.96" ry="22.96"/>
<ellipse fill="none" stroke="black" cx="1803" cy="-496.74" rx="27" ry="27"/>
<text text-anchor="middle" x="1803" y="-493.04" font-family="Times,serif" font-size="14.00">10</text>
</g>
<!-- 0&#45;&gt;10 -->
<g id="edge101" class="edge">
<title>0&#45;&gt;10</title>
<path fill="none" stroke="black" d="M1778.02,-1993.84C1789.16,-1975.75 1804,-1946.39 1804,-1918.49 1804,-1918.49 1804,-1918.49 1804,-1694.99 1804,-1302 1824,-1203.98 1824,-810.99 1824,-810.99 1824,-810.99 1824,-591.49 1824,-571.55 1819.42,-549.79 1814.54,-532.26"/>
<polygon fill="black" stroke="black" points="1817.84,-531.08 1811.66,-522.47 1811.12,-533.05 1817.84,-531.08"/>
<text text-anchor="middle" x="1819" y="-1241.29" font-family="Times,serif" font-size="14.00">2</text>
</g>
<!-- 25 -->
<g id="node27" class="node">
<title>25</title>
<ellipse fill="none" stroke="black" cx="529" cy="-218.24" rx="22.96" ry="22.96"/>
<ellipse fill="none" stroke="black" cx="529" cy="-218.24" rx="27" ry="27"/>
<text text-anchor="middle" x="529" y="-214.54" font-family="Times,serif" font-size="14.00">25</text>
</g>
<!-- 0&#45;&gt;25 -->
<g id="edge105" class="edge">
<title>0&#45;&gt;25</title>
<path fill="none" stroke="black" d="M1743.95,-2009.17C1655.41,-1999.33 1327.71,-1957.88 1271,-1877.49 1222.58,-1808.85 1266.35,-1772.41 1270,-1688.49 1282.46,-1401.9 1313.54,-1332.08 1326,-1045.49 1328.44,-989.38 1325.73,-970.75 1297,-922.49 1210.15,-776.58 1146.03,-772.81 1036,-643.49 1018.69,-623.14 764.67,-277.13 742,-262.99 687.44,-228.96 611.18,-220.85 566.26,-219.23"/>
<polygon fill="black" stroke="black" points="566.17,-215.72 556.08,-218.95 565.99,-222.72 566.17,-215.72"/>
<text text-anchor="middle" x="1328" y="-1110.79" font-family="Times,serif" font-size="14.00">0</text>
</g>
<!-- 1 -->
<g id="node3" class="node">
<title>1</title>
<ellipse fill="none" stroke="black" cx="1663" cy="-1553.49" rx="18" ry="18"/>
<ellipse fill="none" stroke="black" cx="1663" cy="-1553.49" rx="22" ry="22"/>
<text text-anchor="middle" x="1663" y="-1549.79" font-family="Times,serif" font-size="14.00">1</text>
</g>
<!-- 6 -->
<g id="node8" class="node">
<title>6</title>
<ellipse fill="none" stroke="black" cx="2138" cy="-2281.49" rx="18" ry="18"/>
<ellipse fill="none" stroke="black" cx="2138" cy="-2281.49" rx="22" ry="22"/>
<text text-anchor="middle" x="2138" y="-2277.79" font-family="Times,serif" font-size="14.00">6</text>
</g>
<!-- 1&#45;&gt;6 -->
<g id="edge143" class="edge">
<title>1&#45;&gt;6</title>
<path fill="none" stroke="black" d="M1682.81,-1563.26C1772.7,-1604.54 2138,-1788.92 2138,-2058.99 2138,-2191.49 2138,-2191.49 2138,-2191.49 2138,-2210.5 2138,-2231.8 2138,-2248.79"/>
<polygon fill="black" stroke="black" points="2134.5,-2249.27 2138,-2259.27 2141.5,-2249.27 2134.5,-2249.27"/>
<text text-anchor="middle" x="2117" y="-1913.79" font-family="Times,serif" font-size="14.00">2</text>
</g>
<!-- 13 -->
<g id="node15" class="node">
<title>13</title>
<ellipse fill="none" stroke="black" cx="1921" cy="-113.75" rx="27" ry="18"/>
<text text-anchor="middle" x="1921" y="-110.05" font-family="Times,serif" font-size="14.00">13</text>
</g>
<!-- 1&#45;&gt;13 -->
<g id="edge28" class="edge">
<title>1&#45;&gt;13</title>
<path fill="none" stroke="black" d="M1672.47,-1533.44C1683.93,-1509.27 1702.6,-1465.96 1710,-1426.49 1744.17,-1244.31 1734.42,-1194.03 1717,-1009.49 1698.56,-814.09 1597.01,-765.76 1641,-574.49 1662.21,-482.28 1686.13,-464.61 1734,-382.99 1789.45,-288.46 1867.62,-183.95 1902.7,-138.28"/>
<polygon fill="black" stroke="black" points="1905.6,-140.25 1908.93,-130.2 1900.05,-135.98 1905.6,-140.25"/>
<text text-anchor="middle" x="1691" y="-849.79" font-family="Times,serif" font-size="14.00">0</text>
</g>
<!-- 21 -->
<g id="node23" class="node">
<title>21</title>
<ellipse fill="none" stroke="black" cx="1681" cy="-1027.49" rx="27" ry="18"/>
<text text-anchor="middle" x="1681" y="-1023.79" font-family="Times,serif" font-size="14.00">21</text>
</g>
<!-- 1&#45;&gt;21 -->
<g id="edge102" class="edge">
<title>1&#45;&gt;21</title>
<path fill="none" stroke="black" d="M1655.8,-1532.43C1641.33,-1490.94 1609.15,-1392.35 1598,-1306.49 1595.94,-1290.62 1595.96,-1286.36 1598,-1270.49 1610.1,-1176.18 1608.64,-1148.1 1652,-1063.49 1654.26,-1059.07 1657.17,-1054.71 1660.26,-1050.64"/>
<polygon fill="black" stroke="black" points="1663.07,-1052.73 1666.73,-1042.79 1657.67,-1048.28 1663.07,-1052.73"/>
<text text-anchor="middle" x="1603" y="-1284.79" font-family="Times,serif" font-size="14.00">3</text>
</g>
<!-- 1&#45;&gt;21 -->
<g id="edge132" class="edge">
<title>1&#45;&gt;21</title>
<path fill="none" stroke="black" d="M1663.73,-1531.3C1666.57,-1448.69 1676.89,-1148.24 1680.06,-1055.77"/>
<polygon fill="black" stroke="black" points="1683.57,-1055.66 1680.41,-1045.55 1676.57,-1055.42 1683.57,-1055.66"/>
<text text-anchor="middle" x="1677" y="-1284.79" font-family="Times,serif" font-size="14.00">4</text>
</g>
<!-- 22 -->
<g id="node24" class="node">
<title>22</title>
<ellipse fill="none" stroke="black" cx="2298" cy="-1462.49" rx="27" ry="18"/>
<text text-anchor="middle" x="2298" y="-1458.79" font-family="Times,serif" font-size="14.00">22</text>
</g>
<!-- 1&#45;&gt;22 -->
<g id="edge26" class="edge">
<title>1&#45;&gt;22</title>
<path fill="none" stroke="black" d="M1684.72,-1549.52C1755.91,-1539.77 1988.63,-1507.83 2181,-1480.49 2208.14,-1476.63 2238.8,-1472.17 2261.93,-1468.79"/>
<polygon fill="black" stroke="black" points="2262.6,-1472.23 2271.98,-1467.32 2261.58,-1465.3 2262.6,-1472.23"/>
<text text-anchor="middle" x="2058" y="-1502.29" font-family="Times,serif" font-size="14.00">1</text>
</g>
<!-- 2 -->
<g id="node4" class="node">
<title>2</title>
<ellipse fill="none" stroke="black" cx="1766" cy="-2103.49" rx="27" ry="18"/>
<text text-anchor="middle" x="1766" y="-2099.79" font-family="Times,serif" font-size="14.00">2</text>
</g>
<!-- 2&#45;&gt;0 -->
<g id="edge72" class="edge">
<title>2&#45;&gt;0</title>
<path fill="none" stroke="black" d="M1766,-2085.33C1766,-2073.93 1766,-2058.62 1766,-2045.07"/>
<polygon fill="black" stroke="black" points="1769.5,-2044.68 1766,-2034.68 1762.5,-2044.68 1769.5,-2044.68"/>
<text text-anchor="middle" x="1771" y="-2056.29" font-family="Times,serif" font-size="14.00">1</text>
</g>
<!-- 2&#45;&gt;6 -->
<g id="edge18" class="edge">
<title>2&#45;&gt;6</title>
<path fill="none" stroke="black" d="M1787.53,-2114.67C1850.87,-2144.64 2036.67,-2232.55 2108.86,-2266.7"/>
<polygon fill="black" stroke="black" points="2107.73,-2270.04 2118.26,-2271.15 2110.72,-2263.71 2107.73,-2270.04"/>
<text text-anchor="middle" x="1987" y="-2186.79" font-family="Times,serif" font-size="14.00">3</text>
</g>
<!-- 2&#45;&gt;8 -->
<g id="edge76" class="edge">
<title>2&#45;&gt;8</title>
<path fill="none" stroke="black" d="M1781.31,-2088.32C1832.43,-2039.4 1994,-1871.04 1994,-1696.99 1994,-1696.99 1994,-1696.99 1994,-1461.49 1994,-1361.1 2032.39,-1337.43 2023,-1237.49 2015.63,-1159.12 2006.52,-1140.45 1990,-1063.49 1988.56,-1056.79 1942.87,-866.75 1925.56,-794.76"/>
<polygon fill="black" stroke="black" points="1928.87,-793.56 1923.13,-784.65 1922.06,-795.19 1928.87,-793.56"/>
<text text-anchor="middle" x="2002" y="-1415.29" font-family="Times,serif" font-size="14.00">4</text>
</g>
<!-- 16 -->
<g id="node18" class="node">
<title>16</title>
<ellipse fill="none" stroke="black" cx="1349" cy="-1375.49" rx="27" ry="18"/>
<text text-anchor="middle" x="1349" y="-1371.79" font-family="Times,serif" font-size="14.00">16</text>
</g>
<!-- 2&#45;&gt;16 -->
<g id="edge70" class="edge">
<title>2&#45;&gt;16</title>
<path fill="none" stroke="black" d="M1739.25,-2101C1629.43,-2094.54 1219,-2066.83 1219,-2013.49 1219,-2013.49 1219,-2013.49 1219,-1868.99 1219,-1807.67 1294.36,-1667.78 1310,-1608.49 1313.8,-1594.07 1313.45,-1590.17 1316,-1575.49 1326.64,-1514.25 1338.39,-1442.28 1344.59,-1403.88"/>
<polygon fill="black" stroke="black" points="1348.13,-1403.97 1346.26,-1393.54 1341.22,-1402.85 1348.13,-1403.97"/>
<text text-anchor="middle" x="1270" y="-1735.79" font-family="Times,serif" font-size="14.00">2</text>
</g>
<!-- 18 -->
<g id="node20" class="node">
<title>18</title>
<ellipse fill="none" stroke="black" cx="1733" cy="-2190.49" rx="27" ry="18"/>
<text text-anchor="middle" x="1733" y="-2186.79" font-family="Times,serif" font-size="14.00">18</text>
</g>
<!-- 2&#45;&gt;18 -->
<g id="edge147" class="edge">
<title>2&#45;&gt;18</title>
<path fill="none" stroke="black" d="M1749,-2117.65C1742.72,-2123.57 1736.33,-2131.11 1733,-2139.49 1730.21,-2146.51 1729.32,-2154.53 1729.36,-2162.06"/>
<polygon fill="black" stroke="black" points="1725.87,-2162.44 1729.92,-2172.23 1732.86,-2162.05 1725.87,-2162.44"/>
<text text-anchor="middle" x="1738" y="-2143.29" font-family="Times,serif" font-size="14.00">0</text>
</g>
<!-- 3 -->
<g id="node5" class="node">
<title>3</title>
<ellipse fill="none" stroke="black" cx="552" cy="-1201.49" rx="27" ry="18"/>
<text text-anchor="middle" x="552" y="-1197.79" font-family="Times,serif" font-size="14.00">3</text>
</g>
<!-- 5 -->
<g id="node7" class="node">
<title>5</title>
<ellipse fill="none" stroke="black" cx="750" cy="-1648.49" rx="18" ry="18"/>
<ellipse fill="none" stroke="black" cx="750" cy="-1648.49" rx="22" ry="22"/>
<text text-anchor="middle" x="750" y="-1644.79" font-family="Times,serif" font-size="14.00">5</text>
</g>
<!-- 3&#45;&gt;5 -->
<g id="edge77" class="edge">
<title>3&#45;&gt;5</title>
<path fill="none" stroke="black" d="M563.61,-1217.86C574.78,-1234.22 590,-1261.3 590,-1287.49 590,-1554.49 590,-1554.49 590,-1554.49 590,-1613.18 671.48,-1635.47 718.15,-1643.42"/>
<polygon fill="black" stroke="black" points="717.67,-1646.88 728.09,-1644.98 718.76,-1639.97 717.67,-1646.88"/>
<text text-anchor="middle" x="595" y="-1415.29" font-family="Times,serif" font-size="14.00">2</text>
</g>
<!-- 7 -->
<g id="node9" class="node">
<title>7</title>
<ellipse fill="none" stroke="black" cx="800" cy="-1739.49" rx="27" ry="18"/>
<text text-anchor="middle" x="800" y="-1735.79" font-family="Times,serif" font-size="14.00">7</text>
</g>
<!-- 3&#45;&gt;7 -->
<g id="edge92" class="edge">
<title>3&#45;&gt;7</title>
<path fill="none" stroke="black" d="M552,-1219.74C552,-1236.92 552,-1264.02 552,-1287.49 552,-1649.49 552,-1649.49 552,-1649.49 552,-1693.87 694.48,-1722.1 763.45,-1733.17"/>
<polygon fill="black" stroke="black" points="763.04,-1736.65 773.46,-1734.74 764.12,-1729.73 763.04,-1736.65"/>
<text text-anchor="middle" x="557" y="-1458.79" font-family="Times,serif" font-size="14.00">1</text>
</g>
<!-- 20 -->
<g id="node22" class="node">
<title>20</title>
<ellipse fill="none" stroke="black" cx="1233" cy="-1114.49" rx="27" ry="18"/>
<text text-anchor="middle" x="1233" y="-1110.79" font-family="Times,serif" font-size="14.00">20</text>
</g>
<!-- 3&#45;&gt;20 -->
<g id="edge19" class="edge">
<title>3&#45;&gt;20</title>
<path fill="none" stroke="black" d="M578.28,-1197.21C683.5,-1184.07 1074.57,-1135.26 1196.47,-1120.05"/>
<polygon fill="black" stroke="black" points="1196.94,-1123.52 1206.43,-1118.8 1196.08,-1116.57 1196.94,-1123.52"/>
<text text-anchor="middle" x="938" y="-1154.29" font-family="Times,serif" font-size="14.00">4</text>
</g>
<!-- 3&#45;&gt;29 -->
<g id="edge22" class="edge">
<title>3&#45;&gt;29</title>
<path fill="none" stroke="black" d="M544.93,-1219.1C528.38,-1258.15 486.1,-1358.98 454,-1444.49 445.23,-1467.85 307,-1844.03 307,-1868.99 307,-2282.49 307,-2282.49 307,-2282.49 307,-2337.4 2127.71,-2366.7 2412.68,-2370.95"/>
<polygon fill="black" stroke="black" points="2412.85,-2374.45 2422.9,-2371.1 2412.96,-2367.45 2412.85,-2374.45"/>
<text text-anchor="middle" x="340" y="-1779.29" font-family="Times,serif" font-size="14.00">3</text>
</g>
<!-- 3&#45;&gt;29 -->
<g id="edge45" class="edge">
<title>3&#45;&gt;29</title>
<path fill="none" stroke="black" d="M527.7,-1209.88C482.94,-1224.24 392,-1257.13 392,-1287.49 392,-1506.99 392,-1506.99 392,-1506.99 392,-1640.88 269,-1648.1 269,-1781.99 269,-2282.49 269,-2282.49 269,-2282.49 269,-2370.64 573.98,-2331.59 662,-2336.49 1364.83,-2375.62 2225.18,-2372.89 2412.77,-2371.75"/>
<polygon fill="black" stroke="black" points="2412.95,-2375.25 2422.93,-2371.69 2412.91,-2368.25 2412.95,-2375.25"/>
<text text-anchor="middle" x="274" y="-1779.29" font-family="Times,serif" font-size="14.00">0</text>
</g>
<!-- 4&#45;&gt;7 -->
<g id="edge115" class="edge">
<title>4&#45;&gt;7</title>
<path fill="none" stroke="black" d="M1451.32,-1913.45C1410.39,-1907.57 1319.03,-1893.78 1243,-1877.49 1086.25,-1843.9 905.31,-1779.67 832.66,-1752.79"/>
<polygon fill="black" stroke="black" points="833.74,-1749.46 823.14,-1749.25 831.3,-1756.02 833.74,-1749.46"/>
<text text-anchor="middle" x="1110" y="-1822.79" font-family="Times,serif" font-size="14.00">4</text>
</g>
<!-- 12 -->
<g id="node14" class="node">
<title>12</title>
<ellipse fill="none" stroke="black" cx="1162" cy="-1826.49" rx="27" ry="18"/>
<text text-anchor="middle" x="1162" y="-1822.79" font-family="Times,serif" font-size="14.00">12</text>
</g>
<!-- 4&#45;&gt;12 -->
<g id="edge129" class="edge">
<title>4&#45;&gt;12</title>
<path fill="none" stroke="black" d="M1451.43,-1913.01C1417.07,-1907.21 1347.97,-1894.51 1291,-1877.49 1256.92,-1867.3 1219.1,-1852.17 1193.28,-1841.22"/>
<polygon fill="black" stroke="black" points="1194.57,-1837.97 1184,-1837.25 1191.81,-1844.4 1194.57,-1837.97"/>
<text text-anchor="middle" x="1296" y="-1866.29" font-family="Times,serif" font-size="14.00">1</text>
</g>
<!-- 4&#45;&gt;20 -->
<g id="edge148" class="edge">
<title>4&#45;&gt;20</title>
<path fill="none" stroke="black" d="M1471.27,-1895.35C1463.7,-1805.62 1431.69,-1456.31 1385,-1357.49 1350.15,-1283.73 1303.45,-1290.89 1264,-1219.49 1250.53,-1195.11 1242.28,-1164.21 1237.71,-1142.45"/>
<polygon fill="black" stroke="black" points="1241.13,-1141.7 1235.76,-1132.57 1234.27,-1143.06 1241.13,-1141.7"/>
<text text-anchor="middle" x="1430" y="-1502.29" font-family="Times,serif" font-size="14.00">0</text>
</g>
<!-- 4&#45;&gt;21 -->
<g id="edge33" class="edge">
<title>4&#45;&gt;21</title>
<path fill="none" stroke="black" d="M1494.74,-1913.67C1556.41,-1905.07 1728,-1876.72 1728,-1827.49 1728,-1827.49 1728,-1827.49 1728,-1694.99 1728,-1506.22 1765.17,-1457.83 1742,-1270.49 1732.1,-1190.47 1704.36,-1098.92 1689.95,-1054.88"/>
<polygon fill="black" stroke="black" points="1693.22,-1053.62 1686.76,-1045.23 1686.58,-1055.82 1693.22,-1053.62"/>
<text text-anchor="middle" x="1752" y="-1458.79" font-family="Times,serif" font-size="14.00">2</text>
</g>
<!-- 28 -->
<g id="node30" class="node">
<title>28</title>
<ellipse fill="none" stroke="black" cx="662" cy="-679.49" rx="27" ry="18"/>
<text text-anchor="middle" x="662" y="-675.79" font-family="Times,serif" font-size="14.00">28</text>
</g>
<!-- 4&#45;&gt;28 -->
<g id="edge44" class="edge">
<title>4&#45;&gt;28</title>
<path fill="none" stroke="black" d="M1456.67,-1902.2C1450.16,-1895.45 1443.42,-1886.82 1440,-1877.49 1440,-1877.49 1440,-1531.49 1440,-1531.49 1439.11,-1516.74 1437.84,-1513.15 1436,-1498.49 1428.02,-1434.82 1431.04,-1416.13 1405,-1357.49 1397.94,-1341.6 1395.83,-1337.23 1384,-1324.49 1382.34,-1322.7 822.31,-906.55 821,-904.49 774.96,-832.12 840.17,-778.52 782,-715.49 770.6,-703.13 729.02,-692.91 697.98,-686.76"/>
<polygon fill="black" stroke="black" points="698.4,-683.28 687.92,-684.84 697.08,-690.16 698.4,-683.28"/>
<text text-anchor="middle" x="1364" y="-1284.79" font-family="Times,serif" font-size="14.00">3</text>
</g>
<!-- 5&#45;&gt;1 -->
<g id="edge11" class="edge">
<title>5&#45;&gt;1</title>
<path fill="none" stroke="black" d="M771.74,-1644.91C839.95,-1636.86 1055.88,-1611.62 1235,-1593.49 1382.93,-1578.51 1559.89,-1563.22 1631.05,-1557.18"/>
<polygon fill="black" stroke="black" points="1631.49,-1560.65 1641.16,-1556.32 1630.9,-1553.68 1631.49,-1560.65"/>
<text text-anchor="middle" x="1240" y="-1597.29" font-family="Times,serif" font-size="14.00">0</text>
</g>
<!-- 5&#45;&gt;13 -->
<g id="edge80" class="edge">
<title>5&#45;&gt;13</title>
<path fill="none" stroke="black" d="M752.9,-1626.59C756.46,-1599.18 762,-1549.59 762,-1506.99 762,-1506.99 762,-1506.99 762,-1200.49 762,-1096.84 846.47,-847.54 877,-748.49 881.6,-733.57 882.62,-729.73 889,-715.49 946.51,-587.2 965.18,-556.64 1039,-436.99 1119.7,-306.19 1106.9,-227.97 1244,-158.5 1290.32,-135.02 1659.24,-144.66 1711,-140.5 1772.26,-135.57 1843.15,-126.08 1884.91,-120.1"/>
<polygon fill="black" stroke="black" points="1885.48,-123.56 1894.88,-118.66 1884.48,-116.63 1885.48,-123.56"/>
<text text-anchor="middle" x="837" y="-893.29" font-family="Times,serif" font-size="14.00">3</text>
</g>
<!-- 5&#45;&gt;16 -->
<g id="edge82" class="edge">
<title>5&#45;&gt;16</title>
<path fill="none" stroke="black" d="M772.1,-1647.38C832.28,-1646.25 1002.77,-1637.4 1126,-1575.49 1151.86,-1562.5 1152.5,-1550.86 1174,-1531.49 1227.65,-1483.15 1291.25,-1427.13 1325.06,-1397.46"/>
<polygon fill="black" stroke="black" points="1327.78,-1399.73 1332.99,-1390.5 1323.17,-1394.47 1327.78,-1399.73"/>
<text text-anchor="middle" x="1215" y="-1502.29" font-family="Times,serif" font-size="14.00">4</text>
</g>
<!-- 5&#45;&gt;25 -->
<g id="edge13" class="edge">
<title>5&#45;&gt;25</title>
<path fill="none" stroke="black" d="M741.2,-1627.97C733.65,-1609.45 724,-1580.64 724,-1554.49 724,-1554.49 724,-1554.49 724,-1243.99 724,-1128.85 730,-1100.13 730,-984.99 730,-984.99 730,-984.99 730,-808.99 730,-732.25 745,-713.72 745,-636.99 745,-636.99 745,-636.99 745,-312.99 745,-235.9 627.78,-221.51 566.04,-219.28"/>
<polygon fill="black" stroke="black" points="566.01,-215.78 555.92,-219.01 565.82,-222.78 566.01,-215.78"/>
<text text-anchor="middle" x="735" y="-936.79" font-family="Times,serif" font-size="14.00">1</text>
</g>
<!-- 5&#45;&gt;25 -->
<g id="edge17" class="edge">
<title>5&#45;&gt;25</title>
<path fill="none" stroke="black" d="M737.11,-1630.38C732.69,-1623.82 728.1,-1616.08 725,-1608.49 692.71,-1529.26 686,-1505.54 686,-1419.99 686,-1419.99 686,-1419.99 686,-1243.99 686,-1099.77 671.53,-1063.65 642,-922.49 614.99,-793.39 561,-768.88 561,-636.99 561,-636.99 561,-636.99 561,-312.99 561,-291.66 553.49,-268.99 545.74,-251.29"/>
<polygon fill="black" stroke="black" points="548.83,-249.62 541.46,-242.01 542.47,-252.56 548.83,-249.62"/>
<text text-anchor="middle" x="654" y="-936.79" font-family="Times,serif" font-size="14.00">2</text>
</g>
<!-- 6&#45;&gt;18 -->
<g id="edge66" class="edge">
<title>6&#45;&gt;18</title>
<path fill="none" stroke="black" d="M2116.16,-2278.09C2073.1,-2273.13 1974.35,-2260.57 1893,-2241.49 1848.39,-2231.02 1798.12,-2214.52 1766.04,-2203.36"/>
<polygon fill="black" stroke="black" points="1766.89,-2199.95 1756.29,-2199.94 1764.57,-2206.55 1766.89,-2199.95"/>
<text text-anchor="middle" x="1898" y="-2230.29" font-family="Times,serif" font-size="14.00">1</text>
</g>
<!-- 6&#45;&gt;21 -->
<g id="edge16" class="edge">
<title>6&#45;&gt;21</title>
<path fill="none" stroke="black" d="M2160.33,-2280.45C2212.11,-2279.07 2336,-2267.81 2336,-2191.49 2336,-2191.49 2336,-2191.49 2336,-1916.49 2336,-1770.31 2408.53,-1739.28 2398,-1593.49 2392.05,-1511.03 2348.29,-1296.11 2290,-1237.49 2247.16,-1194.4 1837.84,-1073.76 1715.42,-1038.36"/>
<polygon fill="black" stroke="black" points="1716.04,-1034.9 1705.46,-1035.49 1714.1,-1041.63 1716.04,-1034.9"/>
<text text-anchor="middle" x="2404" y="-1644.79" font-family="Times,serif" font-size="14.00">0</text>
</g>
<!-- 6&#45;&gt;25 -->
<g id="edge23" class="edge">
<title>6&#45;&gt;25</title>
<path fill="none" stroke="black" d="M2115.79,-2280.48C1936.51,-2280.38 723.03,-2278.34 359,-2241.49 235.41,-2228.98 84,-2315.71 84,-2191.49 84,-2191.49 84,-2191.49 84,-721.99 84,-693.06 88.44,-682.8 108,-661.49 137.23,-629.63 241.11,-588.52 282,-574.49 320.58,-561.25 339.93,-581.7 372,-556.49 375.28,-553.91 475.46,-335.97 514.05,-251.86"/>
<polygon fill="black" stroke="black" points="517.24,-253.3 518.23,-242.75 510.88,-250.38 517.24,-253.3"/>
<text text-anchor="middle" x="89" y="-1241.29" font-family="Times,serif" font-size="14.00">3</text>
</g>
<!-- 26 -->
<g id="node28" class="node">
<title>26</title>
<ellipse fill="none" stroke="black" cx="1485" cy="-313.99" rx="27" ry="18"/>
<text text-anchor="middle" x="1485" y="-310.29" font-family="Times,serif" font-size="14.00">26</text>
</g>
<!-- 6&#45;&gt;26 -->
<g id="edge68" class="edge">
<title>6&#45;&gt;26</title>
<path fill="none" stroke="black" d="M2115.83,-2280.47C1919.04,-2280.25 476.84,-2277.39 394,-2241.49 365.45,-2229.12 345,-2222.6 345,-2191.49 345,-2191.49 345,-2191.49 345,-1868.99 345,-1826.75 355.39,-1807.64 328,-1775.49 312.41,-1757.19 296.66,-1771.32 277,-1757.49 238.99,-1730.74 234.46,-1714.31 219,-1670.49 142.04,-1452.28 122,-1390.37 122,-1158.99 122,-1158.99 122,-1158.99 122,-1026.49 122,-801.29 155.58,-686.41 351,-574.49 383.38,-555.94 396.62,-564.79 433,-556.49 595.54,-519.39 635.57,-507.56 798,-469.99 1047.38,-412.31 1348.3,-345.32 1449.71,-322.81"/>
<polygon fill="black" stroke="black" points="1450.71,-326.18 1459.71,-320.59 1449.19,-319.34 1450.71,-326.18"/>
<text text-anchor="middle" x="132" y="-1284.79" font-family="Times,serif" font-size="14.00">4</text>
</g>
<!-- 6&#45;&gt;28 -->
<g id="edge119" class="edge">
<title>6&#45;&gt;28</title>
<path fill="none" stroke="black" d="M2115.8,-2280.51C1953.15,-2280.62 943.45,-2279.69 640,-2241.49 540.94,-2229.02 421,-2291.33 421,-2191.49 421,-2191.49 421,-2191.49 421,-1781.99 421,-1645.93 379.82,-1616.03 368,-1480.49 351.9,-1295.86 365.37,-1248.8 368,-1063.49 368.89,-1000.8 346.54,-979.78 372,-922.49 427.84,-796.81 485.86,-789.14 602,-715.49 612.06,-709.11 623.29,-702.44 633.28,-696.66"/>
<polygon fill="black" stroke="black" points="635.12,-699.64 642.05,-691.63 631.64,-693.57 635.12,-699.64"/>
<text text-anchor="middle" x="373" y="-1458.79" font-family="Times,serif" font-size="14.00">2</text>
</g>
<!-- 7&#45;&gt;5 -->
<g id="edge29" class="edge">
<title>7&#45;&gt;5</title>
<path fill="none" stroke="black" d="M788.48,-1722.79C784.34,-1716.87 779.77,-1709.99 776,-1703.49 771.3,-1695.38 766.69,-1686.29 762.69,-1677.91"/>
<polygon fill="black" stroke="black" points="765.86,-1676.43 758.45,-1668.85 759.51,-1679.39 765.86,-1676.43"/>
<text text-anchor="middle" x="781" y="-1692.29" font-family="Times,serif" font-size="14.00">0</text>
</g>
<!-- 7&#45;&gt;6 -->
<g id="edge67" class="edge">
<title>7&#45;&gt;6</title>
<path fill="none" stroke="black" d="M773.13,-1743.31C705.76,-1751.13 535,-1775.84 535,-1825.49 535,-2191.49 535,-2191.49 535,-2191.49 535,-2273.16 1879.03,-2279.88 2105.72,-2280.44"/>
<polygon fill="black" stroke="black" points="2105.94,-2283.94 2115.95,-2280.46 2105.96,-2276.94 2105.94,-2283.94"/>
<text text-anchor="middle" x="540" y="-2008.79" font-family="Times,serif" font-size="14.00">2</text>
</g>
<!-- 7&#45;&gt;8 -->
<g id="edge123" class="edge">
<title>7&#45;&gt;8</title>
<path fill="none" stroke="black" d="M811.2,-1722.94C822.4,-1705.82 838,-1677.04 838,-1649.49 838,-1649.49 838,-1649.49 838,-1504.99 838,-1464.99 979.58,-1217.89 1000,-1183.49 1057.07,-1087.33 1063.06,-1054.67 1143,-976.49 1174.2,-945.98 1183.68,-936.51 1225,-922.49 1330.07,-886.82 1366.4,-931.58 1474,-904.49 1546.73,-886.17 1556.94,-859.46 1628,-835.49 1717.59,-805.26 1827.11,-783.61 1882.77,-773.64"/>
<polygon fill="black" stroke="black" points="1883.61,-777.05 1892.84,-771.86 1882.39,-770.15 1883.61,-777.05"/>
<text text-anchor="middle" x="973" y="-1241.29" font-family="Times,serif" font-size="14.00">4</text>
</g>
<!-- 7&#45;&gt;18 -->
<g id="edge12" class="edge">
<title>7&#45;&gt;18</title>
<path fill="none" stroke="black" d="M818.66,-1752.79C838.49,-1767.5 867,-1794.11 867,-1825.49 867,-2104.49 867,-2104.49 867,-2104.49 867,-2154.97 920.09,-2141.96 969,-2154.49 1108.79,-2190.3 1561.99,-2190.53 1695.6,-2189.78"/>
<polygon fill="black" stroke="black" points="1695.76,-2193.28 1705.74,-2189.72 1695.72,-2186.28 1695.76,-2193.28"/>
<text text-anchor="middle" x="872" y="-1961.29" font-family="Times,serif" font-size="14.00">1</text>
</g>
<!-- 7&#45;&gt;28 -->
<g id="edge137" class="edge">
<title>7&#45;&gt;28</title>
<path fill="none" stroke="black" d="M773.39,-1736.17C701.02,-1729.16 506,-1705.08 506,-1649.49 506,-1649.49 506,-1649.49 506,-1330.99 506,-1251.8 454.93,-1243.26 440,-1165.49 425.73,-1091.17 488.12,-902.11 524,-835.49 553.8,-780.16 607.05,-728.28 637.96,-700.82"/>
<polygon fill="black" stroke="black" points="640.47,-703.29 645.68,-694.06 635.86,-698.02 640.47,-703.29"/>
<text text-anchor="middle" x="465" y="-1197.79" font-family="Times,serif" font-size="14.00">3</text>
</g>
<!-- 8&#45;&gt;3 -->
<g id="edge133" class="edge">
<title>8&#45;&gt;3</title>
<path fill="none" stroke="black" d="M1892.03,-769.79C1836.98,-774.63 1707.78,-786.74 1600,-802.49 1306.72,-845.34 1221.79,-819.14 944,-922.49 872.49,-949.09 703.97,-1044.63 648,-1096.49 620.6,-1121.88 626.12,-1138.78 600,-1165.49 594.02,-1171.61 586.87,-1177.43 579.94,-1182.52"/>
<polygon fill="black" stroke="black" points="577.56,-1179.91 571.39,-1188.53 581.58,-1185.64 577.56,-1179.91"/>
<text text-anchor="middle" x="836" y="-980.29" font-family="Times,serif" font-size="14.00">3</text>
</g>
<!-- 8&#45;&gt;6 -->
<g id="edge117" class="edge">
<title>8&#45;&gt;6</title>
<path fill="none" stroke="black" d="M1945.83,-769.28C1986.39,-772.59 2065.33,-781.35 2129,-802.49 2184.27,-820.84 2206.69,-834.9 2227,-889.49 2337.1,-1185.46 2222,-1284.2 2222,-1599.99 2222,-2191.49 2222,-2191.49 2222,-2191.49 2222,-2224.65 2190.78,-2250.45 2166.41,-2265.55"/>
<polygon fill="black" stroke="black" points="2164.33,-2262.71 2157.48,-2270.8 2167.88,-2268.75 2164.33,-2262.71"/>
<text text-anchor="middle" x="2231" y="-1502.29" font-family="Times,serif" font-size="14.00">0</text>
</g>
<!-- 8&#45;&gt;10 -->
<g id="edge108" class="edge">
<title>8&#45;&gt;10</title>
<path fill="none" stroke="black" d="M1914.95,-748.67C1905.26,-710.25 1878.54,-613.81 1838,-541.49 1834.88,-535.92 1831.06,-530.33 1827.1,-525.1"/>
<polygon fill="black" stroke="black" points="1829.81,-522.88 1820.85,-517.22 1824.33,-527.23 1829.81,-522.88"/>
<text text-anchor="middle" x="1887" y="-632.29" font-family="Times,serif" font-size="14.00">1</text>
</g>
<!-- 8&#45;&gt;28 -->
<g id="edge112" class="edge">
<title>8&#45;&gt;28</title>
<path fill="none" stroke="black" d="M1892.16,-763.67C1730.48,-752.74 886.74,-695.68 699.03,-682.99"/>
<polygon fill="black" stroke="black" points="699.06,-679.49 688.85,-682.3 698.59,-686.47 699.06,-679.49"/>
<text text-anchor="middle" x="1370" y="-719.29" font-family="Times,serif" font-size="14.00">2</text>
</g>
<!-- 8&#45;&gt;29 -->
<g id="edge7" class="edge">
<title>8&#45;&gt;29</title>
<path fill="none" stroke="black" d="M1945.99,-768.17C1991.64,-770.03 2086.51,-776.92 2162,-802.49 2284.61,-844.01 2542,-1114.54 2542,-1243.99 2542,-1601.99 2542,-1601.99 2542,-1601.99 2542,-1767 2577.33,-1807.87 2566,-1972.49 2560.65,-2050.15 2542,-2068.14 2542,-2145.99 2542,-2282.49 2542,-2282.49 2542,-2282.49 2542,-2317.08 2507.99,-2342.51 2481.33,-2357.13"/>
<polygon fill="black" stroke="black" points="2479.52,-2354.12 2472.27,-2361.85 2482.76,-2360.33 2479.52,-2354.12"/>
<text text-anchor="middle" x="2547" y="-1549.79" font-family="Times,serif" font-size="14.00">4</text>
</g>
<!-- 9 -->
<g id="node11" class="node">
<title>9</title>
<ellipse fill="none" stroke="black" cx="1354" cy="-218.24" rx="27" ry="18"/>
<text text-anchor="middle" x="1354" y="-214.54" font-family="Times,serif" font-size="14.00">9</text>
</g>
<!-- 9&#45;&gt;4 -->
<g id="edge60" class="edge">
<title>9&#45;&gt;4</title>
<path fill="none" stroke="black" d="M1369.51,-233.29C1377.98,-241.44 1388.27,-252.21 1396,-262.99 1402.78,-272.45 1589,-623.35 1589,-634.99 1589,-767.49 1589,-767.49 1589,-767.49 1589,-824.6 1590,-838.88 1590,-895.99 1590,-1158.99 1590,-1158.99 1590,-1158.99 1590,-1288.13 1550.53,-1316.17 1536,-1444.49 1528.22,-1513.21 1530,-1530.83 1530,-1599.99 1530,-1827.49 1530,-1827.49 1530,-1827.49 1530,-1853.66 1512.3,-1878.3 1496.63,-1894.99"/>
<polygon fill="black" stroke="black" points="1493.73,-1892.95 1489.18,-1902.52 1498.7,-1897.87 1493.73,-1892.95"/>
<text text-anchor="middle" x="1595" y="-1067.29" font-family="Times,serif" font-size="14.00">4</text>
</g>
<!-- 9&#45;&gt;13 -->
<g id="edge63" class="edge">
<title>9&#45;&gt;13</title>
<path fill="none" stroke="black" d="M1379.84,-212.57C1471.26,-196.05 1779.62,-140.31 1885.19,-121.22"/>
<polygon fill="black" stroke="black" points="1886.12,-124.61 1895.34,-119.39 1884.87,-117.72 1886.12,-124.61"/>
<text text-anchor="middle" x="1676" y="-162.3" font-family="Times,serif" font-size="14.00">3</text>
</g>
<!-- 15 -->
<g id="node17" class="node">
<title>15</title>
<ellipse fill="none" stroke="black" cx="1172" cy="-18" rx="27" ry="18"/>
<text text-anchor="middle" x="1172" y="-14.3" font-family="Times,serif" font-size="14.00">15</text>
</g>
<!-- 9&#45;&gt;15 -->
<g id="edge51" class="edge">
<title>9&#45;&gt;15</title>
<path fill="none" stroke="black" d="M1340.32,-202.34C1308.62,-167.82 1230,-82.18 1192.51,-41.34"/>
<polygon fill="black" stroke="black" points="1194.93,-38.8 1185.59,-33.8 1189.77,-43.54 1194.93,-38.8"/>
<text text-anchor="middle" x="1286" y="-110.05" font-family="Times,serif" font-size="14.00">1</text>
</g>
<!-- 17 -->
<g id="node19" class="node">
<title>17</title>
<ellipse fill="none" stroke="black" cx="1647" cy="-113.75" rx="22.96" ry="22.96"/>
<ellipse fill="none" stroke="black" cx="1647" cy="-113.75" rx="27" ry="27"/>
<text text-anchor="middle" x="1647" y="-110.05" font-family="Times,serif" font-size="14.00">17</text>
</g>
<!-- 9&#45;&gt;17 -->
<g id="edge128" class="edge">
<title>9&#45;&gt;17</title>
<path fill="none" stroke="black" d="M1364.75,-201.62C1375,-187.99 1391.71,-168.83 1411,-158.5 1475.16,-124.12 1561.64,-116.29 1610.11,-114.78"/>
<polygon fill="black" stroke="black" points="1610.23,-118.28 1620.14,-114.54 1610.06,-111.28 1610.23,-118.28"/>
<text text-anchor="middle" x="1416" y="-162.3" font-family="Times,serif" font-size="14.00">0</text>
</g>
<!-- 9&#45;&gt;22 -->
<g id="edge40" class="edge">
<title>9&#45;&gt;22</title>
<path fill="none" stroke="black" d="M1381.3,-220.12C1443.85,-222.63 1601.98,-231.79 1730,-262.99 1782.99,-275.91 2150.93,-397.94 2189,-436.99 2300.25,-551.11 2376.7,-973.62 2364,-1132.49 2354.88,-1246.51 2320.93,-1379.16 2305.6,-1434.79"/>
<polygon fill="black" stroke="black" points="2302.19,-1433.99 2302.88,-1444.56 2308.93,-1435.87 2302.19,-1433.99"/>
<text text-anchor="middle" x="2348" y="-849.79" font-family="Times,serif" font-size="14.00">2</text>
</g>
<!-- 10&#45;&gt;2 -->
<g id="edge151" class="edge">
<title>10&#45;&gt;2</title>
<path fill="none" stroke="black" d="M1827.04,-508.7C1931.8,-558.22 2340.49,-770.71 2279,-1045.49 2254.86,-1153.36 2212.46,-1167.23 2173,-1270.49 2135.25,-1369.26 2131.59,-1396.14 2105,-1498.49 2039.83,-1749.37 2169.38,-1893.77 1977,-2067.49 1952.07,-2090 1856.97,-2098.17 1803.35,-2101.03"/>
<polygon fill="black" stroke="black" points="1803.03,-2097.54 1793.21,-2101.54 1803.38,-2104.54 1803.03,-2097.54"/>
<text text-anchor="middle" x="2178" y="-1284.79" font-family="Times,serif" font-size="14.00">4</text>
</g>
<!-- 10&#45;&gt;4 -->
<g id="edge126" class="edge">
<title>10&#45;&gt;4</title>
<path fill="none" stroke="black" d="M1784.38,-516C1768.42,-533.68 1748,-562.05 1748,-591.49 1748,-810.99 1748,-810.99 1748,-810.99 1748,-846.88 1762.08,-853.93 1767,-889.49 1804.16,-1157.79 1784.89,-1227.68 1790,-1498.49 1791.66,-1586.45 1766,-1607.01 1766,-1694.99 1766,-1827.49 1766,-1827.49 1766,-1827.49 1766,-1881.56 1580.98,-1905.9 1504.99,-1913.61"/>
<polygon fill="black" stroke="black" points="1504.63,-1910.13 1495.02,-1914.59 1505.32,-1917.1 1504.63,-1910.13"/>
<text text-anchor="middle" x="1795" y="-1197.79" font-family="Times,serif" font-size="14.00">3</text>
</g>
<!-- 10&#45;&gt;7 -->
<g id="edge37" class="edge">
<title>10&#45;&gt;7</title>
<path fill="none" stroke="black" d="M1780.36,-511.52C1766.76,-519.93 1749.2,-531.05 1734,-541.49 1691.57,-570.62 1683.67,-581.71 1641,-610.49 1543.42,-676.28 1514.2,-685.17 1415,-748.49 1209.22,-879.84 1110.46,-867.42 965,-1063.49 949.4,-1084.52 800,-1478.8 800,-1504.99 800,-1649.49 800,-1649.49 800,-1649.49 800,-1670.22 800,-1693.66 800,-1711.28"/>
<polygon fill="black" stroke="black" points="796.5,-1711.43 800,-1721.43 803.5,-1711.43 796.5,-1711.43"/>
<text text-anchor="middle" x="954" y="-1110.79" font-family="Times,serif" font-size="14.00">2</text>
</g>
<!-- 10&#45;&gt;15 -->
<g id="edge8" class="edge">
<title>10&#45;&gt;15</title>
<path fill="none" stroke="black" d="M1829.34,-490.52C1935.6,-468.71 2327,-380.96 2327,-271.49 2327,-271.49 2327,-271.49 2327,-112.75 2327,-55.31 1407.44,-25.73 1209.32,-20.03"/>
<polygon fill="black" stroke="black" points="1209.23,-16.53 1199.13,-19.74 1209.03,-23.52 1209.23,-16.53"/>
<text text-anchor="middle" x="2332" y="-266.79" font-family="Times,serif" font-size="14.00">1</text>
</g>
<!-- 27 -->
<g id="node29" class="node">
<title>27</title>
<ellipse fill="none" stroke="black" cx="1770" cy="-400.99" rx="27" ry="18"/>
<text text-anchor="middle" x="1770" y="-397.29" font-family="Times,serif" font-size="14.00">27</text>
</g>
<!-- 10&#45;&gt;27 -->
<g id="edge9" class="edge">
<title>10&#45;&gt;27</title>
<path fill="none" stroke="black" d="M1794.33,-471.11C1789.7,-457.97 1784.01,-441.79 1779.29,-428.39"/>
<polygon fill="black" stroke="black" points="1782.53,-427.05 1775.91,-418.78 1775.93,-429.37 1782.53,-427.05"/>
<text text-anchor="middle" x="1792" y="-440.79" font-family="Times,serif" font-size="14.00">0</text>
</g>
<!-- 11 -->
<g id="node13" class="node">
<title>11</title>
<ellipse fill="none" stroke="black" cx="1049" cy="-1288.49" rx="27" ry="18"/>
<text text-anchor="middle" x="1049" y="-1284.79" font-family="Times,serif" font-size="14.00">11</text>
</g>
<!-- 11&#45;&gt;3 -->
<g id="edge6" class="edge">
<title>11&#45;&gt;3</title>
<path fill="none" stroke="black" d="M1022.98,-1283.04C940.2,-1268.88 682.81,-1224.86 587.75,-1208.6"/>
<polygon fill="black" stroke="black" points="588.21,-1205.13 577.76,-1206.89 587.03,-1212.03 588.21,-1205.13"/>
<text text-anchor="middle" x="835" y="-1241.29" font-family="Times,serif" font-size="14.00">1</text>
</g>
<!-- 11&#45;&gt;4 -->
<g id="edge127" class="edge">
<title>11&#45;&gt;4</title>
<path fill="none" stroke="black" d="M1062.61,-1304.22C1092.41,-1337.05 1164.41,-1419.56 1210,-1498.49 1241.71,-1553.37 1333.08,-1830.95 1384,-1877.49 1400.39,-1892.47 1423.45,-1902.35 1442,-1908.42"/>
<polygon fill="black" stroke="black" points="1441.17,-1911.83 1451.76,-1911.41 1443.22,-1905.14 1441.17,-1911.83"/>
<text text-anchor="middle" x="1261" y="-1597.29" font-family="Times,serif" font-size="14.00">4</text>
</g>
<!-- 11&#45;&gt;11 -->
<g id="edge131" class="edge">
<title>11&#45;&gt;11</title>
<path fill="none" stroke="black" d="M1073.53,-1296.24C1084.51,-1296.98 1094,-1294.39 1094,-1288.49 1094,-1284.52 1089.72,-1282.05 1083.57,-1281.08"/>
<polygon fill="black" stroke="black" points="1083.65,-1277.58 1073.53,-1280.74 1083.41,-1284.58 1083.65,-1277.58"/>
<text text-anchor="middle" x="1099" y="-1284.79" font-family="Times,serif" font-size="14.00">0</text>
</g>
<!-- 11&#45;&gt;18 -->
<g id="edge61" class="edge">
<title>11&#45;&gt;18</title>
<path fill="none" stroke="black" d="M1043.57,-1306.45C1041.91,-1312.13 1040.2,-1318.54 1039,-1324.49 1036.07,-1338.97 1036.7,-1342.81 1035,-1357.49 1010.85,-1565.37 983,-1616.21 983,-1825.49 983,-2104.49 983,-2104.49 983,-2104.49 983,-2151.81 1031.41,-2141.82 1077,-2154.49 1194.73,-2187.21 1574.99,-2189.67 1695.8,-2189.61"/>
<polygon fill="black" stroke="black" points="1696.01,-2193.11 1706.01,-2189.6 1696.01,-2186.11 1696.01,-2193.11"/>
<text text-anchor="middle" x="990" y="-1735.79" font-family="Times,serif" font-size="14.00">2</text>
</g>
<!-- 23 -->
<g id="node25" class="node">
<title>23</title>
<ellipse fill="none" stroke="black" cx="387" cy="-592.49" rx="27" ry="18"/>
<text text-anchor="middle" x="387" y="-588.79" font-family="Times,serif" font-size="14.00">23</text>
</g>
<!-- 11&#45;&gt;23 -->
<g id="edge57" class="edge">
<title>11&#45;&gt;23</title>
<path fill="none" stroke="black" d="M1042.21,-1271.03C1025.26,-1230.37 980.83,-1126.31 958,-1096.49 950.53,-1086.73 943.24,-1089.08 937,-1078.49 893.43,-1004.61 924.37,-971.1 898,-889.49 871.95,-808.84 876.86,-778.33 820,-715.49 743.04,-630.42 689.43,-651.28 577,-628.49 523.52,-617.64 461.27,-606.45 423,-599.72"/>
<polygon fill="black" stroke="black" points="423.32,-596.23 412.87,-597.95 422.12,-603.12 423.32,-596.23"/>
<text text-anchor="middle" x="915" y="-936.79" font-family="Times,serif" font-size="14.00">3</text>
</g>
<!-- 12&#45;&gt;7 -->
<g id="edge48" class="edge">
<title>12&#45;&gt;7</title>
<path fill="none" stroke="black" d="M1137.52,-1818.57C1101.44,-1808.48 1031.79,-1789.43 972,-1775.49 925.2,-1764.58 870.8,-1753.83 835.91,-1747.18"/>
<polygon fill="black" stroke="black" points="836.22,-1743.68 825.74,-1745.26 834.92,-1750.56 836.22,-1743.68"/>
<text text-anchor="middle" x="1034" y="-1779.29" font-family="Times,serif" font-size="14.00">3</text>
</g>
<!-- 12&#45;&gt;9 -->
<g id="edge111" class="edge">
<title>12&#45;&gt;9</title>
<path fill="none" stroke="black" d="M1164.63,-1808.54C1171.69,-1763.39 1191.89,-1636.49 1212,-1531.49 1265.66,-1251.25 1316,-1183.31 1316,-897.99 1316,-897.99 1316,-897.99 1316,-312.99 1316,-288.17 1327.59,-262.17 1337.96,-243.87"/>
<polygon fill="black" stroke="black" points="1341.11,-245.43 1343.21,-235.05 1335.09,-241.85 1341.11,-245.43"/>
<text text-anchor="middle" x="1317" y="-1023.79" font-family="Times,serif" font-size="14.00">0</text>
</g>
<!-- 12&#45;&gt;11 -->
<g id="edge41" class="edge">
<title>12&#45;&gt;11</title>
<path fill="none" stroke="black" d="M1147.27,-1811.32C1132.52,-1795.55 1112,-1768.57 1112,-1740.49 1112,-1740.49 1112,-1740.49 1112,-1599.99 1112,-1475.54 1094.9,-1444.5 1062,-1324.49 1061.21,-1321.62 1060.29,-1318.65 1059.3,-1315.71"/>
<polygon fill="black" stroke="black" points="1062.5,-1314.25 1055.82,-1306.03 1055.91,-1316.62 1062.5,-1314.25"/>
<text text-anchor="middle" x="1116" y="-1549.79" font-family="Times,serif" font-size="14.00">4</text>
</g>
<!-- 12&#45;&gt;13 -->
<g id="edge103" class="edge">
<title>12&#45;&gt;13</title>
<path fill="none" stroke="black" d="M1172.45,-1809.62C1175.91,-1803.8 1179.51,-1797.03 1182,-1790.49 1187.34,-1776.48 1186.17,-1772.21 1189,-1757.49 1196.68,-1717.54 1229.71,-1528.62 1231,-1513.49 1244.36,-1357.03 1184.2,-1321.87 1170,-1165.49 1148.55,-929.34 1243,-874.11 1243,-636.99 1243,-636.99 1243,-636.99 1243,-495.74 1243,-356.47 1214.02,-284.15 1318,-191.5 1320.68,-189.11 1753.63,-135.43 1884.17,-119.3"/>
<polygon fill="black" stroke="black" points="1884.95,-122.73 1894.44,-118.03 1884.09,-115.78 1884.95,-122.73"/>
<text text-anchor="middle" x="1184" y="-980.29" font-family="Times,serif" font-size="14.00">2</text>
</g>
<!-- 12&#45;&gt;18 -->
<g id="edge74" class="edge">
<title>12&#45;&gt;18</title>
<path fill="none" stroke="black" d="M1156.2,-1844.32C1150.61,-1862.05 1143,-1890.89 1143,-1916.49 1143,-2104.49 1143,-2104.49 1143,-2104.49 1143,-2160.6 1566.55,-2182.65 1695.92,-2188.07"/>
<polygon fill="black" stroke="black" points="1695.98,-2191.58 1706.12,-2188.49 1696.27,-2184.58 1695.98,-2191.58"/>
<text text-anchor="middle" x="1148" y="-2008.79" font-family="Times,serif" font-size="14.00">1</text>
</g>
<!-- 13&#45;&gt;8 -->
<g id="edge138" class="edge">
<title>13&#45;&gt;8</title>
<path fill="none" stroke="black" d="M1946.75,-119.44C2011.33,-131.92 2175,-168.38 2175,-217.24 2175,-445.49 2175,-445.49 2175,-445.49 2175,-821.96 2105.72,-679.86 2041,-730.49 2016.59,-749.58 1982.19,-758.26 1956.13,-762.2"/>
<polygon fill="black" stroke="black" points="1955.33,-758.78 1945.89,-763.58 1956.26,-765.72 1955.33,-758.78"/>
<text text-anchor="middle" x="2180" y="-440.79" font-family="Times,serif" font-size="14.00">1</text>
</g>
<!-- 13&#45;&gt;10 -->
<g id="edge89" class="edge">
<title>13&#45;&gt;10</title>
<path fill="none" stroke="black" d="M1936.82,-128.64C1955.77,-146.9 1985,-180.95 1985,-217.24 1985,-401.99 1985,-401.99 1985,-401.99 1985,-466.64 1893.14,-486.75 1839.94,-492.97"/>
<polygon fill="black" stroke="black" points="1839.43,-489.51 1829.85,-494.04 1840.17,-496.47 1839.43,-489.51"/>
<text text-anchor="middle" x="1990" y="-310.29" font-family="Times,serif" font-size="14.00">0</text>
</g>
<!-- 13&#45;&gt;15 -->
<g id="edge91" class="edge">
<title>13&#45;&gt;15</title>
<path fill="none" stroke="black" d="M1895.12,-107.92C1835.73,-96.98 1685,-70.01 1558,-54 1430.31,-37.9 1277.95,-26.32 1209.07,-21.49"/>
<polygon fill="black" stroke="black" points="1208.96,-17.98 1198.74,-20.78 1208.48,-24.96 1208.96,-17.98"/>
<text text-anchor="middle" x="1663" y="-57.8" font-family="Times,serif" font-size="14.00">4</text>
</g>
<!-- 13&#45;&gt;22 -->
<g id="edge136" class="edge">
<title>13&#45;&gt;22</title>
<path fill="none" stroke="black" d="M1948.17,-114.95C2015.16,-116 2185.8,-122.25 2227,-158.5 2287.07,-211.34 2245.54,-257.61 2275,-331.99 2302.42,-401.21 2400.88,-560.4 2431,-628.49 2437.31,-642.76 2438.36,-646.59 2443,-661.49 2474.99,-764.32 2504,-788.3 2504,-895.99 2504,-1071.99 2504,-1071.99 2504,-1071.99 2504,-1195.09 2460.7,-1372.75 2404,-1426.49 2385.21,-1444.29 2357.18,-1453.04 2334.66,-1457.35"/>
<polygon fill="black" stroke="black" points="2334.03,-1453.9 2324.76,-1459.02 2335.2,-1460.8 2334.03,-1453.9"/>
<text text-anchor="middle" x="2501" y="-806.29" font-family="Times,serif" font-size="14.00">3</text>
</g>
<!-- 13&#45;&gt;29 -->
<g id="edge2" class="edge">
<title>13&#45;&gt;29</title>
<path fill="none" stroke="black" d="M1948.04,-115.6C2017.02,-118.19 2197.69,-127.82 2248,-158.5 2263.26,-167.8 2262.37,-175.84 2271,-191.5 2511.42,-627.72 2656,-745.9 2656,-1243.99 2656,-2282.49 2656,-2282.49 2656,-2282.49 2656,-2355.07 2546.89,-2369.15 2487.48,-2371.43"/>
<polygon fill="black" stroke="black" points="2487.25,-2367.93 2477.36,-2371.72 2487.45,-2374.93 2487.25,-2367.93"/>
<text text-anchor="middle" x="2661" y="-1241.29" font-family="Times,serif" font-size="14.00">2</text>
</g>
<!-- 14 -->
<g id="node16" class="node">
<title>14</title>
<ellipse fill="none" stroke="black" cx="2084" cy="-853.49" rx="27" ry="18"/>
<text text-anchor="middle" x="2084" y="-849.79" font-family="Times,serif" font-size="14.00">14</text>
</g>
<!-- 14&#45;&gt;2 -->
<g id="edge38" class="edge">
<title>14&#45;&gt;2</title>
<path fill="none" stroke="black" d="M2084,-871.74C2084,-888.92 2084,-916.02 2084,-939.49 2084,-1158.99 2084,-1158.99 2084,-1158.99 2084,-1232.22 1971.73,-2057.46 1962,-2067.49 1940.53,-2089.6 1853.87,-2097.89 1803.26,-2100.88"/>
<polygon fill="black" stroke="black" points="1802.84,-2097.4 1793.04,-2101.44 1803.22,-2104.39 1802.84,-2097.4"/>
<text text-anchor="middle" x="2056" y="-1458.79" font-family="Times,serif" font-size="14.00">4</text>
</g>
<!-- 14&#45;&gt;4 -->
<g id="edge24" class="edge">
<title>14&#45;&gt;4</title>
<path fill="none" stroke="black" d="M2072.39,-869.86C2061.22,-886.22 2046,-913.3 2046,-939.49 2046,-1071.99 2046,-1071.99 2046,-1071.99 2046,-1151.03 1888.05,-1685.24 1856,-1757.49 1830.4,-1815.2 1833.28,-1843.62 1780,-1877.49 1734.92,-1906.15 1574.63,-1913.82 1505.32,-1915.81"/>
<polygon fill="black" stroke="black" points="1504.91,-1912.32 1495.01,-1916.08 1505.1,-1919.32 1504.91,-1912.32"/>
<text text-anchor="middle" x="1984" y="-1371.79" font-family="Times,serif" font-size="14.00">1</text>
</g>
<!-- 14&#45;&gt;8 -->
<g id="edge75" class="edge">
<title>14&#45;&gt;8</title>
<path fill="none" stroke="black" d="M2063.1,-841.72C2034.22,-826.84 1981.92,-799.9 1948.9,-782.89"/>
<polygon fill="black" stroke="black" points="1950.22,-779.63 1939.73,-778.17 1947.01,-785.86 1950.22,-779.63"/>
<text text-anchor="middle" x="2016" y="-806.29" font-family="Times,serif" font-size="14.00">3</text>
</g>
<!-- 14&#45;&gt;11 -->
<g id="edge124" class="edge">
<title>14&#45;&gt;11</title>
<path fill="none" stroke="black" d="M2061.89,-864.19C2037.78,-874.65 1997.95,-891.52 1963,-904.49 1823.46,-956.28 1782.69,-952.98 1645,-1009.49 1427.09,-1098.92 1393,-1165.75 1174,-1252.49 1144.54,-1264.16 1109.72,-1273.57 1084.33,-1279.68"/>
<polygon fill="black" stroke="black" points="1083.34,-1276.32 1074.41,-1282.01 1084.94,-1283.13 1083.34,-1276.32"/>
<text text-anchor="middle" x="1531" y="-1067.29" font-family="Times,serif" font-size="14.00">2</text>
</g>
<!-- 14&#45;&gt;18 -->
<g id="edge46" class="edge">
<title>14&#45;&gt;18</title>
<path fill="none" stroke="black" d="M2095.61,-869.86C2106.78,-886.22 2122,-913.3 2122,-939.49 2122,-1158.99 2122,-1158.99 2122,-1158.99 2122,-1355.09 2108,-1403.89 2108,-1599.99 2108,-1870.99 2108,-1870.99 2108,-1870.99 2108,-1934.39 2121.07,-2109.9 2076,-2154.49 2073.29,-2157.17 1857.69,-2177.75 1769.73,-2186.04"/>
<polygon fill="black" stroke="black" points="1769.29,-2182.57 1759.66,-2186.99 1769.95,-2189.54 1769.29,-2182.57"/>
<text text-anchor="middle" x="2114" y="-1502.29" font-family="Times,serif" font-size="14.00">0</text>
</g>
<!-- 15&#45;&gt;0 -->
<g id="edge94" class="edge">
<title>15&#45;&gt;0</title>
<path fill="none" stroke="black" d="M1199.13,-19.4C1306.37,-21.11 1711,-28.98 2043,-54 2676.61,-101.75 2365,8.08 2365,-112.75 2365,-358.49 2365,-358.49 2365,-358.49 2365,-510.85 2402.62,-573.55 2314,-697.49 2236.53,-805.82 2134.74,-734.42 2048,-835.49 1872.53,-1039.96 1880,-1148.55 1880,-1417.99 1880,-1554.49 1880,-1554.49 1880,-1554.49 1880,-1597.85 1825.27,-1897.13 1816,-1939.49 1812.75,-1954.34 1814.79,-1959.44 1807,-1972.49 1802.75,-1979.6 1796.85,-1986.27 1790.84,-1992"/>
<polygon fill="black" stroke="black" points="1788.43,-1989.46 1783.3,-1998.73 1793.09,-1994.68 1788.43,-1989.46"/>
<text text-anchor="middle" x="1934" y="-1023.79" font-family="Times,serif" font-size="14.00">4</text>
</g>
<!-- 15&#45;&gt;13 -->
<g id="edge62" class="edge">
<title>15&#45;&gt;13</title>
<path fill="none" stroke="black" d="M1198.41,-22.72C1259.75,-31.31 1416.61,-53.01 1548,-69 1620.35,-77.8 1638.6,-78.56 1711,-87 1771.88,-94.09 1842.61,-102.88 1884.49,-108.14"/>
<polygon fill="black" stroke="black" points="1884.13,-111.62 1894.49,-109.39 1885.01,-104.67 1884.13,-111.62"/>
<text text-anchor="middle" x="1553" y="-57.8" font-family="Times,serif" font-size="14.00">1</text>
</g>
<!-- 15&#45;&gt;23 -->
<g id="edge5" class="edge">
<title>15&#45;&gt;23</title>
<path fill="none" stroke="black" d="M1144.85,-18.87C998.35,-18.32 305.53,-17.65 218,-54 182.64,-68.68 155,-74.46 155,-112.75 155,-497.74 155,-497.74 155,-497.74 155,-580.66 283.97,-592.05 349.6,-592.47"/>
<polygon fill="black" stroke="black" points="349.94,-595.97 359.93,-592.45 349.93,-588.97 349.94,-595.97"/>
<text text-anchor="middle" x="160" y="-310.29" font-family="Times,serif" font-size="14.00">2</text>
</g>
<!-- 15&#45;&gt;23 -->
<g id="edge85" class="edge">
<title>15&#45;&gt;23</title>
<path fill="none" stroke="black" d="M1144.8,-19.44C1023.95,-21.71 535.34,-34.03 393,-87 263.71,-135.11 239,-218.54 239,-356.49 239,-497.74 239,-497.74 239,-497.74 239,-550.54 307.05,-574.84 350.86,-585.01"/>
<polygon fill="black" stroke="black" points="350.37,-588.49 360.88,-587.19 351.85,-581.65 350.37,-588.49"/>
<text text-anchor="middle" x="247" y="-310.29" font-family="Times,serif" font-size="14.00">0</text>
</g>
<!-- 24 -->
<g id="node26" class="node">
<title>24</title>
<ellipse fill="none" stroke="black" cx="1261" cy="-940.49" rx="27" ry="18"/>
<text text-anchor="middle" x="1261" y="-936.79" font-family="Times,serif" font-size="14.00">24</text>
</g>
<!-- 15&#45;&gt;24 -->
<g id="edge58" class="edge">
<title>15&#45;&gt;24</title>
<path fill="none" stroke="black" d="M1159.19,-34.14C1145.58,-51.8 1126,-82.47 1126,-112.75 1126,-810.99 1126,-810.99 1126,-810.99 1126,-867.75 1189.4,-907.06 1229.3,-926.18"/>
<polygon fill="black" stroke="black" points="1227.86,-929.37 1238.4,-930.39 1230.8,-923.02 1227.86,-929.37"/>
<text text-anchor="middle" x="1131" y="-493.04" font-family="Times,serif" font-size="14.00">3</text>
</g>
<!-- 16&#45;&gt;1 -->
<g id="edge149" class="edge">
<title>16&#45;&gt;1</title>
<path fill="none" stroke="black" d="M1368.8,-1387.75C1410.18,-1411.26 1508.84,-1467.21 1592,-1513.49 1606.14,-1521.36 1621.91,-1530.03 1635,-1537.2"/>
<polygon fill="black" stroke="black" points="1633.53,-1540.39 1643.98,-1542.12 1636.89,-1534.25 1633.53,-1540.39"/>
<text text-anchor="middle" x="1537" y="-1458.79" font-family="Times,serif" font-size="14.00">4</text>
</g>
<!-- 16&#45;&gt;4 -->
<g id="edge122" class="edge">
<title>16&#45;&gt;4</title>
<path fill="none" stroke="black" d="M1352.73,-1393.49C1360.56,-1430.72 1378,-1522.32 1378,-1599.99 1378,-1827.49 1378,-1827.49 1378,-1827.49 1378,-1852.14 1385.05,-1859.59 1402,-1877.49 1413.39,-1889.52 1429.33,-1898.74 1443.23,-1905.18"/>
<polygon fill="black" stroke="black" points="1441.87,-1908.41 1452.44,-1909.2 1444.67,-1901.99 1441.87,-1908.41"/>
<text text-anchor="middle" x="1383" y="-1644.79" font-family="Times,serif" font-size="14.00">2</text>
</g>
<!-- 16&#45;&gt;5 -->
<g id="edge78" class="edge">
<title>16&#45;&gt;5</title>
<path fill="none" stroke="black" d="M1325.31,-1384.45C1290.14,-1396.47 1222.23,-1420.39 1166,-1444.49 1017.1,-1508.3 844.75,-1597.49 778.21,-1632.52"/>
<polygon fill="black" stroke="black" points="776.39,-1629.53 769.18,-1637.29 779.66,-1635.72 776.39,-1629.53"/>
<text text-anchor="middle" x="1050" y="-1502.29" font-family="Times,serif" font-size="14.00">1</text>
</g>
<!-- 16&#45;&gt;9 -->
<g id="edge120" class="edge">
<title>16&#45;&gt;9</title>
<path fill="none" stroke="black" d="M1354.44,-1357.81C1361.26,-1337.18 1373.43,-1301.04 1385,-1270.49 1393.68,-1247.56 1400.82,-1243.45 1406,-1219.49 1456.66,-985.27 1392,-920.12 1392,-680.49 1392,-680.49 1392,-680.49 1392,-312.99 1392,-288.17 1380.41,-262.17 1370.04,-243.87"/>
<polygon fill="black" stroke="black" points="1372.91,-241.85 1364.79,-235.05 1366.89,-245.43 1372.91,-241.85"/>
<text text-anchor="middle" x="1404" y="-806.29" font-family="Times,serif" font-size="14.00">3</text>
</g>
<!-- 16&#45;&gt;11 -->
<g id="edge43" class="edge">
<title>16&#45;&gt;11</title>
<path fill="none" stroke="black" d="M1324.7,-1367.6C1271.56,-1352.55 1144.86,-1316.65 1083.49,-1299.26"/>
<polygon fill="black" stroke="black" points="1084.1,-1295.79 1073.52,-1296.44 1082.19,-1302.53 1084.1,-1295.79"/>
<text text-anchor="middle" x="1221" y="-1328.29" font-family="Times,serif" font-size="14.00">0</text>
</g>
<!-- 17&#45;&gt;3 -->
<g id="edge93" class="edge">
<title>17&#45;&gt;3</title>
<path fill="none" stroke="black" d="M1620.04,-115.39C1546.52,-117.91 1337.29,-130.36 1177,-191.5 1054.43,-238.24 1024.23,-260.83 928,-349.99 857.32,-415.48 865.94,-455.16 798,-523.49 726.42,-595.47 670.04,-575.55 616,-661.49 580.39,-718.12 586,-742.09 586,-808.99 586,-984.99 586,-984.99 586,-984.99 586,-1021.33 566.89,-1124.3 557.32,-1173.57"/>
<polygon fill="black" stroke="black" points="553.87,-1173.02 555.38,-1183.5 560.74,-1174.36 553.87,-1173.02"/>
<text text-anchor="middle" x="621" y="-675.79" font-family="Times,serif" font-size="14.00">1</text>
</g>
<!-- 17&#45;&gt;4 -->
<g id="edge50" class="edge">
<title>17&#45;&gt;4</title>
<path fill="none" stroke="black" d="M1623.57,-127.69C1596.6,-144.49 1556,-176.55 1556,-217.24 1556,-358.49 1556,-358.49 1556,-358.49 1556,-386.09 1550.01,-392.58 1542,-418.99 1531.42,-453.89 1513,-459.28 1513,-495.74 1513,-854.49 1513,-854.49 1513,-854.49 1513,-909.43 1498.91,-921.86 1493,-976.49 1483.09,-1068.08 1485.39,-1091.42 1482,-1183.49 1470.88,-1485.12 1471.11,-1560.66 1468,-1862.49 1467.93,-1869.15 1467.58,-1870.83 1468,-1877.49 1468.16,-1880.05 1468.39,-1882.7 1468.65,-1885.36"/>
<polygon fill="black" stroke="black" points="1465.19,-1885.95 1469.81,-1895.49 1472.15,-1885.15 1465.19,-1885.95"/>
<text text-anchor="middle" x="1494" y="-1023.79" font-family="Times,serif" font-size="14.00">2</text>
</g>
<!-- 17&#45;&gt;14 -->
<g id="edge64" class="edge">
<title>17&#45;&gt;14</title>
<path fill="none" stroke="black" d="M1672.91,-121.96C1736.15,-140.74 1900.46,-196.71 1999,-295.99 2122.39,-420.31 2200,-459.83 2200,-634.99 2200,-767.49 2200,-767.49 2200,-767.49 2200,-808.28 2152.76,-831.62 2118.57,-843.18"/>
<polygon fill="black" stroke="black" points="2117.35,-839.89 2108.88,-846.26 2119.48,-846.56 2117.35,-839.89"/>
<text text-anchor="middle" x="2190" y="-493.04" font-family="Times,serif" font-size="14.00">4</text>
</g>
<!-- 17&#45;&gt;17 -->
<g id="edge56" class="edge">
<title>17&#45;&gt;17</title>
<path fill="none" stroke="black" d="M1672.3,-123.41C1682.83,-124.08 1691.75,-120.86 1691.75,-113.75 1691.75,-109.08 1687.91,-106.09 1682.29,-104.77"/>
<polygon fill="black" stroke="black" points="1682.52,-101.28 1672.3,-104.08 1682.04,-108.27 1682.52,-101.28"/>
<text text-anchor="middle" x="1696.75" y="-110.05" font-family="Times,serif" font-size="14.00">3</text>
</g>
<!-- 17&#45;&gt;27 -->
<g id="edge99" class="edge">
<title>17&#45;&gt;27</title>
<path fill="none" stroke="black" d="M1657.34,-138.74C1680.26,-191.88 1735.14,-319.14 1758.81,-374.05"/>
<polygon fill="black" stroke="black" points="1755.68,-375.63 1762.86,-383.42 1762.11,-372.85 1755.68,-375.63"/>
<text text-anchor="middle" x="1721" y="-266.79" font-family="Times,serif" font-size="14.00">0</text>
</g>
<!-- 18&#45;&gt;2 -->
<g id="edge81" class="edge">
<title>18&#45;&gt;2</title>
<path fill="none" stroke="black" d="M1739.52,-2172.69C1744.18,-2160.7 1750.53,-2144.34 1755.84,-2130.64"/>
<polygon fill="black" stroke="black" points="1759.14,-2131.84 1759.49,-2121.25 1752.61,-2129.3 1759.14,-2131.84"/>
<text text-anchor="middle" x="1756" y="-2143.29" font-family="Times,serif" font-size="14.00">0</text>
</g>
<!-- 18&#45;&gt;8 -->
<g id="edge86" class="edge">
<title>18&#45;&gt;8</title>
<path fill="none" stroke="black" d="M1758.87,-2184.49C1814.91,-2172.6 1949.58,-2138.19 2038,-2067.49 2115.83,-2005.25 2146,-1970.64 2146,-1870.99 2146,-1870.99 2146,-1870.99 2146,-1599.99 2146,-1507.25 2165.5,-1485.63 2176,-1393.49 2182.35,-1337.71 2239.51,-937.84 2211,-889.49 2157.87,-799.38 2022.25,-775.82 1956.23,-769.66"/>
<polygon fill="black" stroke="black" points="1956.14,-766.14 1945.88,-768.79 1955.55,-773.12 1956.14,-766.14"/>
<text text-anchor="middle" x="2173" y="-1458.79" font-family="Times,serif" font-size="14.00">2</text>
</g>
<!-- 18&#45;&gt;9 -->
<g id="edge97" class="edge">
<title>18&#45;&gt;9</title>
<path fill="none" stroke="black" d="M1706.03,-2188.97C1531.86,-2185.42 573,-2163.24 573,-2104.49 573,-2104.49 573,-2104.49 573,-1963.99 573,-1942.31 328.71,-1688.05 316,-1670.49 240.19,-1565.73 168,-1549.3 168,-1419.99 168,-1419.99 168,-1419.99 168,-895.99 168,-810.42 191.6,-789.24 235,-715.49 276.15,-645.55 284.82,-621.45 351,-574.49 369.92,-561.06 378.3,-564.7 400,-556.49 598.53,-481.33 646.88,-459.23 845,-382.99 985.21,-329.04 1017.17,-306.37 1161,-262.99 1215.05,-246.69 1279.23,-233.29 1318.26,-225.79"/>
<polygon fill="black" stroke="black" points="1318.93,-229.22 1328.1,-223.92 1317.62,-222.35 1318.93,-229.22"/>
<text text-anchor="middle" x="173" y="-1197.79" font-family="Times,serif" font-size="14.00">4</text>
</g>
<!-- 18&#45;&gt;11 -->
<g id="edge52" class="edge">
<title>18&#45;&gt;11</title>
<path fill="none" stroke="black" d="M1705.96,-2189.16C1575.9,-2187.22 1021,-2174.82 1021,-2104.49 1021,-2104.49 1021,-2104.49 1021,-1868.99 1021,-1841.39 1026.12,-1834.62 1035,-1808.49 1045.69,-1777.04 1066,-1773.7 1066,-1740.49 1066,-1740.49 1066,-1740.49 1066,-1599.99 1066,-1560.21 1048.15,-1552.93 1043,-1513.49 1033.77,-1442.87 1040.81,-1358.7 1045.57,-1316.48"/>
<polygon fill="black" stroke="black" points="1049.06,-1316.78 1046.75,-1306.44 1042.11,-1315.96 1049.06,-1316.78"/>
<text text-anchor="middle" x="1071" y="-1735.79" font-family="Times,serif" font-size="14.00">1</text>
</g>
<!-- 18&#45;&gt;14 -->
<g id="edge32" class="edge">
<title>18&#45;&gt;14</title>
<path fill="none" stroke="black" d="M1759.53,-2186.9C1794.31,-2183.51 1857.21,-2177.44 1911,-2172.49 2001.19,-2164.18 2029.05,-2185.92 2114,-2154.49 2149.86,-2141.22 2184,-2142.72 2184,-2104.49 2184,-2104.49 2184,-2104.49 2184,-1599.99 2184,-1554.56 2189.49,-1543.44 2196,-1498.49 2202.78,-1451.63 2209.99,-1440.66 2214,-1393.49 2223.16,-1285.86 2231.29,-1256.38 2210,-1150.49 2207.03,-1135.71 2144.85,-901.69 2136,-889.49 2130.32,-881.66 2122.32,-875.05 2114.3,-869.75"/>
<polygon fill="black" stroke="black" points="2116.05,-866.72 2105.68,-864.53 2112.42,-872.71 2116.05,-866.72"/>
<text text-anchor="middle" x="2201" y="-1502.29" font-family="Times,serif" font-size="14.00">3</text>
</g>
<!-- 19 -->
<g id="node21" class="node">
<title>19</title>
<ellipse fill="none" stroke="black" cx="429" cy="-113.75" rx="27" ry="18"/>
<text text-anchor="middle" x="429" y="-110.05" font-family="Times,serif" font-size="14.00">19</text>
</g>
<!-- 19&#45;&gt;3 -->
<g id="edge20" class="edge">
<title>19&#45;&gt;3</title>
<path fill="none" stroke="black" d="M424.18,-131.87C416.4,-161.56 402.5,-224.55 408,-277.99 433.91,-529.74 494.28,-584.16 524,-835.49 541.23,-981.21 497.32,-1023.41 534,-1165.49 534.88,-1168.9 536.14,-1172.36 537.58,-1175.7"/>
<polygon fill="black" stroke="black" points="534.45,-1177.27 542,-1184.71 540.74,-1174.19 534.45,-1177.27"/>
<text text-anchor="middle" x="506" y="-675.79" font-family="Times,serif" font-size="14.00">2</text>
</g>
<!-- 19&#45;&gt;3 -->
<g id="edge84" class="edge">
<title>19&#45;&gt;3</title>
<path fill="none" stroke="black" d="M406.53,-123.9C393.38,-129.1 376.38,-135.53 361,-140.5 331.66,-149.97 317.24,-138.23 294,-158.5 255.22,-192.3 130,-540.04 130,-591.49 130,-723.99 130,-723.99 130,-723.99 130,-863.1 292.08,-808.63 372,-922.49 437.82,-1016.26 377.65,-1083.82 458,-1165.49 473.39,-1181.13 496.41,-1189.86 515.82,-1194.68"/>
<polygon fill="black" stroke="black" points="515.05,-1198.1 525.58,-1196.87 516.58,-1191.27 515.05,-1198.1"/>
<text text-anchor="middle" x="135" y="-675.79" font-family="Times,serif" font-size="14.00">4</text>
</g>
<!-- 19&#45;&gt;3 -->
<g id="edge125" class="edge">
<title>19&#45;&gt;3</title>
<path fill="none" stroke="black" d="M415.24,-129.24C392.61,-154.18 348.43,-207.87 332,-262.99 330.1,-269.38 331.54,-271.34 332,-277.99 337.35,-355.87 331.53,-377.86 356,-451.99 375.45,-510.92 402.67,-515.86 423,-574.49 505.37,-812.11 462.96,-886.87 517,-1132.49 520.27,-1147.34 519.35,-1151.82 526,-1165.49 527.94,-1169.47 530.35,-1173.46 532.91,-1177.25"/>
<polygon fill="black" stroke="black" points="530.3,-1179.61 539.03,-1185.61 535.95,-1175.47 530.3,-1179.61"/>
<text text-anchor="middle" x="463" y="-675.79" font-family="Times,serif" font-size="14.00">1</text>
</g>
<!-- 19&#45;&gt;10 -->
<g id="edge90" class="edge">
<title>19&#45;&gt;10</title>
<path fill="none" stroke="black" d="M456.35,-114.91C594.1,-116.04 1212.13,-124.78 1390,-191.5 1511.56,-237.09 1520.46,-288.01 1625,-364.99 1677.23,-403.45 1738.16,-448.18 1773.48,-474.09"/>
<polygon fill="black" stroke="black" points="1771.76,-477.17 1781.89,-480.26 1775.9,-471.52 1771.76,-477.17"/>
<text text-anchor="middle" x="1588" y="-310.29" font-family="Times,serif" font-size="14.00">0</text>
</g>
<!-- 19&#45;&gt;11 -->
<g id="edge95" class="edge">
<title>19&#45;&gt;11</title>
<path fill="none" stroke="black" d="M455.81,-116.95C544.86,-125.94 830.68,-168.52 928,-349.99 995.78,-476.37 832.38,-850.39 858,-991.49 880.13,-1113.4 868.42,-1164.84 956,-1252.49 971.3,-1267.8 993.94,-1276.51 1013.05,-1281.41"/>
<polygon fill="black" stroke="black" points="1012.41,-1284.86 1022.95,-1283.7 1013.99,-1278.04 1012.41,-1284.86"/>
<text text-anchor="middle" x="901" y="-719.29" font-family="Times,serif" font-size="14.00">3</text>
</g>
<!-- 20&#45;&gt;7 -->
<g id="edge27" class="edge">
<title>20&#45;&gt;7</title>
<path fill="none" stroke="black" d="M1217.06,-1129.44C1192.98,-1150.22 1145.51,-1190 1102,-1219.49 1064.26,-1245.07 1041.59,-1234.97 1013,-1270.49 950.28,-1348.41 957.18,-1629.37 890,-1703.49 876.13,-1718.79 854.77,-1727.47 836.34,-1732.36"/>
<polygon fill="black" stroke="black" points="835.39,-1728.99 826.47,-1734.7 837,-1735.8 835.39,-1728.99"/>
<text text-anchor="middle" x="971" y="-1415.29" font-family="Times,serif" font-size="14.00">1</text>
</g>
<!-- 20&#45;&gt;15 -->
<g id="edge34" class="edge">
<title>20&#45;&gt;15</title>
<path fill="none" stroke="black" d="M1231.01,-1096.13C1227.37,-1069.2 1218,-1016.29 1197,-976.49 1168.18,-921.87 1130.25,-928.28 1106,-871.49 1000.82,-625.18 1050,-539.32 1050,-271.49 1050,-271.49 1050,-271.49 1050,-112.75 1050,-68.31 1101.52,-42.04 1137.6,-29.09"/>
<polygon fill="black" stroke="black" points="1138.97,-32.32 1147.31,-25.78 1136.72,-25.69 1138.97,-32.32"/>
<text text-anchor="middle" x="1044" y="-588.79" font-family="Times,serif" font-size="14.00">4</text>
</g>
<!-- 20&#45;&gt;20 -->
<g id="edge104" class="edge">
<title>20&#45;&gt;20</title>
<path fill="none" stroke="black" d="M1257.53,-1122.24C1268.51,-1122.98 1278,-1120.39 1278,-1114.49 1278,-1110.52 1273.72,-1108.05 1267.57,-1107.08"/>
<polygon fill="black" stroke="black" points="1267.65,-1103.58 1257.53,-1106.74 1267.41,-1110.58 1267.65,-1103.58"/>
<text text-anchor="middle" x="1283" y="-1110.79" font-family="Times,serif" font-size="14.00">2</text>
</g>
<!-- 20&#45;&gt;21 -->
<g id="edge88" class="edge">
<title>20&#45;&gt;21</title>
<path fill="none" stroke="black" d="M1257.97,-1107.32C1299.08,-1097.29 1383.69,-1077.2 1456,-1063.49 1522.16,-1050.94 1599.9,-1039.59 1644.51,-1033.41"/>
<polygon fill="black" stroke="black" points="1645.15,-1036.85 1654.58,-1032.02 1644.19,-1029.92 1645.15,-1036.85"/>
<text text-anchor="middle" x="1461" y="-1067.29" font-family="Times,serif" font-size="14.00">0</text>
</g>
<!-- 20&#45;&gt;22 -->
<g id="edge14" class="edge">
<title>20&#45;&gt;22</title>
<path fill="none" stroke="black" d="M1252.84,-1126.87C1289.22,-1147.42 1369.48,-1191.19 1441,-1219.49 1514.75,-1248.67 1541.54,-1234.08 1612,-1270.49 1635.06,-1282.41 1635.24,-1294 1658,-1306.49 1759.66,-1362.29 1791.87,-1363.88 1904,-1393.49 1948.09,-1405.13 1960.3,-1402.5 2005,-1411.49 2034.92,-1417.5 2042.02,-1420.82 2072,-1426.49 2107.64,-1433.23 2207.54,-1448.18 2261.81,-1456.18"/>
<polygon fill="black" stroke="black" points="2261.3,-1459.65 2271.71,-1457.64 2262.32,-1452.72 2261.3,-1459.65"/>
<text text-anchor="middle" x="1663" y="-1284.79" font-family="Times,serif" font-size="14.00">3</text>
</g>
<!-- 21&#45;&gt;6 -->
<g id="edge83" class="edge">
<title>21&#45;&gt;6</title>
<path fill="none" stroke="black" d="M1707.17,-1032.45C1822.13,-1050.41 2280.33,-1128.1 2366,-1237.49 2565.11,-1491.7 2374,-1641.08 2374,-1963.99 2374,-2191.49 2374,-2191.49 2374,-2191.49 2374,-2221.09 2355.62,-2226.66 2330,-2241.49 2279.44,-2270.76 2210.3,-2278.31 2170.27,-2280.11"/>
<polygon fill="black" stroke="black" points="2169.9,-2276.62 2160.03,-2280.47 2170.15,-2283.61 2169.9,-2276.62"/>
<text text-anchor="middle" x="2437" y="-1644.79" font-family="Times,serif" font-size="14.00">1</text>
</g>
<!-- 21&#45;&gt;8 -->
<g id="edge15" class="edge">
<title>21&#45;&gt;8</title>
<path fill="none" stroke="black" d="M1694.36,-1011.74C1726.94,-975.8 1813.17,-880.89 1886,-802.49 1889.91,-798.28 1894.1,-793.81 1898.13,-789.52"/>
<polygon fill="black" stroke="black" points="1900.83,-791.76 1905.14,-782.09 1895.74,-786.96 1900.83,-791.76"/>
<text text-anchor="middle" x="1810" y="-893.29" font-family="Times,serif" font-size="14.00">0</text>
</g>
<!-- 21&#45;&gt;8 -->
<g id="edge55" class="edge">
<title>21&#45;&gt;8</title>
<path fill="none" stroke="black" d="M1688.76,-1009.94C1698.98,-988.82 1718.13,-951.53 1739,-922.49 1769.47,-880.07 1778.5,-869.65 1818,-835.49 1840.7,-815.85 1869.29,-797.08 1890.25,-784.25"/>
<polygon fill="black" stroke="black" points="1892.26,-787.13 1899.01,-778.97 1888.64,-781.14 1892.26,-787.13"/>
<text text-anchor="middle" x="1768" y="-893.29" font-family="Times,serif" font-size="14.00">4</text>
</g>
<!-- 21&#45;&gt;16 -->
<g id="edge42" class="edge">
<title>21&#45;&gt;16</title>
<path fill="none" stroke="black" d="M1654.69,-1031.83C1630.35,-1035.97 1594.1,-1044.9 1568,-1063.49 1512.25,-1103.2 1403.18,-1282.53 1363.71,-1349.32"/>
<polygon fill="black" stroke="black" points="1360.46,-1347.94 1358.4,-1358.33 1366.49,-1351.49 1360.46,-1347.94"/>
<text text-anchor="middle" x="1473" y="-1197.79" font-family="Times,serif" font-size="14.00">2</text>
</g>
<!-- 21&#45;&gt;24 -->
<g id="edge110" class="edge">
<title>21&#45;&gt;24</title>
<path fill="none" stroke="black" d="M1655.36,-1021.3C1583.37,-1006.73 1379.25,-965.42 1296.5,-948.67"/>
<polygon fill="black" stroke="black" points="1297.07,-945.22 1286.57,-946.66 1295.68,-952.08 1297.07,-945.22"/>
<text text-anchor="middle" x="1501" y="-980.29" font-family="Times,serif" font-size="14.00">3</text>
</g>
<!-- 22&#45;&gt;6 -->
<g id="edge30" class="edge">
<title>22&#45;&gt;6</title>
<path fill="none" stroke="black" d="M2286.8,-1479.03C2275.6,-1496.16 2260,-1524.93 2260,-1552.49 2260,-2191.49 2260,-2191.49 2260,-2191.49 2260,-2216.14 2254.02,-2224.67 2236,-2241.49 2217.48,-2258.78 2190.35,-2268.77 2169.33,-2274.3"/>
<polygon fill="black" stroke="black" points="2168.46,-2270.91 2159.57,-2276.67 2170.11,-2277.72 2168.46,-2270.91"/>
<text text-anchor="middle" x="2265" y="-1866.29" font-family="Times,serif" font-size="14.00">3</text>
</g>
<!-- 22&#45;&gt;6 -->
<g id="edge98" class="edge">
<title>22&#45;&gt;6</title>
<path fill="none" stroke="black" d="M2298,-1480.55C2298,-1498.47 2298,-1527.46 2298,-1552.49 2298,-2191.49 2298,-2191.49 2298,-2191.49 2298,-2249.56 2216.52,-2270.07 2169.85,-2277.06"/>
<polygon fill="black" stroke="black" points="2169.34,-2273.59 2159.91,-2278.42 2170.29,-2280.53 2169.34,-2273.59"/>
<text text-anchor="middle" x="2303" y="-1866.29" font-family="Times,serif" font-size="14.00">0</text>
</g>
<!-- 22&#45;&gt;13 -->
<g id="edge141" class="edge">
<title>22&#45;&gt;13</title>
<path fill="none" stroke="black" d="M2313.94,-1447.61C2348.65,-1415.75 2428,-1333.38 2428,-1245.99 2428,-1245.99 2428,-1245.99 2428,-982.99 2428,-891.12 2247.3,-262.49 2189,-191.5 2159.48,-155.55 2023.2,-130.31 1957.12,-119.97"/>
<polygon fill="black" stroke="black" points="1957.56,-116.5 1947.15,-118.44 1956.5,-123.42 1957.56,-116.5"/>
<text text-anchor="middle" x="2400" y="-806.29" font-family="Times,serif" font-size="14.00">1</text>
</g>
<!-- 22&#45;&gt;16 -->
<g id="edge150" class="edge">
<title>22&#45;&gt;16</title>
<path fill="none" stroke="black" d="M2272.04,-1457.24C2248.37,-1453.48 2212.41,-1448.05 2181,-1444.49 2175.98,-1443.92 1547.69,-1392.69 1386.39,-1379.54"/>
<polygon fill="black" stroke="black" points="1386.28,-1376.02 1376.03,-1378.69 1385.71,-1382.99 1386.28,-1376.02"/>
<text text-anchor="middle" x="1960" y="-1415.29" font-family="Times,serif" font-size="14.00">2</text>
</g>
<!-- 22&#45;&gt;29 -->
<g id="edge100" class="edge">
<title>22&#45;&gt;29</title>
<path fill="none" stroke="black" d="M2305.54,-1480.14C2336.21,-1549.48 2450,-1822.65 2450,-2058.99 2450,-2282.49 2450,-2282.49 2450,-2282.49 2450,-2303.22 2450,-2326.66 2450,-2344.28"/>
<polygon fill="black" stroke="black" points="2446.5,-2344.43 2450,-2354.43 2453.5,-2344.43 2446.5,-2344.43"/>
<text text-anchor="middle" x="2446" y="-1913.79" font-family="Times,serif" font-size="14.00">4</text>
</g>
<!-- 23&#45;&gt;2 -->
<g id="edge59" class="edge">
<title>23&#45;&gt;2</title>
<path fill="none" stroke="black" d="M378.58,-609.59C353.67,-657.87 282,-801.18 282,-852.49 282,-1419.99 282,-1419.99 282,-1419.99 282,-1535.35 280.73,-1578.23 350,-1670.49 427.37,-1773.53 725.9,-1923.3 845,-1972.49 1012.29,-2041.57 1062.07,-2040.26 1241,-2067.49 1422.62,-2095.12 1642.89,-2100.94 1728.99,-2102.16"/>
<polygon fill="black" stroke="black" points="1729.01,-2105.66 1739.05,-2102.29 1729.1,-2098.66 1729.01,-2105.66"/>
<text text-anchor="middle" x="287" y="-1328.29" font-family="Times,serif" font-size="14.00">4</text>
</g>
<!-- 23&#45;&gt;5 -->
<g id="edge69" class="edge">
<title>23&#45;&gt;5</title>
<path fill="none" stroke="black" d="M394.53,-610.09C437.32,-704.7 648,-1174.02 648,-1243.99 648,-1419.99 648,-1419.99 648,-1419.99 648,-1508.18 663.31,-1533.67 710,-1608.49 714.17,-1615.16 719.71,-1621.52 725.34,-1627.1"/>
<polygon fill="black" stroke="black" points="723.24,-1629.93 732.94,-1634.17 728,-1624.8 723.24,-1629.93"/>
<text text-anchor="middle" x="619" y="-1110.79" font-family="Times,serif" font-size="14.00">1</text>
</g>
<!-- 23&#45;&gt;6 -->
<g id="edge135" class="edge">
<title>23&#45;&gt;6</title>
<path fill="none" stroke="black" d="M372.88,-607.87C360.59,-620.99 342.91,-641.35 331,-661.49 274.41,-757.17 244,-784.82 244,-895.99 244,-1332.99 244,-1332.99 244,-1332.99 244,-1463.68 230,-1495.86 226,-1626.49 225.4,-1646.03 217.57,-1652.84 226,-1670.49 258.02,-1737.5 314.91,-1713.62 356,-1775.49 379.93,-1811.52 383,-1825.73 383,-1868.99 383,-2191.49 383,-2191.49 383,-2191.49 383,-2220.51 398.84,-2228.93 425,-2241.49 503.66,-2279.24 1877.32,-2280.55 2105.89,-2280.51"/>
<polygon fill="black" stroke="black" points="2105.9,-2284.01 2115.9,-2280.5 2105.89,-2277.01 2105.9,-2284.01"/>
<text text-anchor="middle" x="247" y="-1415.29" font-family="Times,serif" font-size="14.00">3</text>
</g>
<!-- 23&#45;&gt;7 -->
<g id="edge113" class="edge">
<title>23&#45;&gt;7</title>
<path fill="none" stroke="black" d="M382.94,-610.37C373.74,-649.59 351.53,-750.05 344,-835.49 320.76,-1099.16 468,-1153.3 468,-1417.99 468,-1649.49 468,-1649.49 468,-1649.49 468,-1709.99 676.33,-1730.49 762.94,-1736.39"/>
<polygon fill="black" stroke="black" points="762.91,-1739.9 773.11,-1737.06 763.36,-1732.91 762.91,-1739.9"/>
<text text-anchor="middle" x="418" y="-1154.29" font-family="Times,serif" font-size="14.00">0</text>
</g>
<!-- 23&#45;&gt;10 -->
<g id="edge142" class="edge">
<title>23&#45;&gt;10</title>
<path fill="none" stroke="black" d="M413.71,-589.72C588.08,-578.17 1563.43,-513.6 1766.11,-500.18"/>
<polygon fill="black" stroke="black" points="1766.49,-503.66 1776.24,-499.51 1766.03,-496.68 1766.49,-503.66"/>
<text text-anchor="middle" x="1142" y="-545.29" font-family="Times,serif" font-size="14.00">2</text>
</g>
<!-- 24&#45;&gt;3 -->
<g id="edge130" class="edge">
<title>24&#45;&gt;3</title>
<path fill="none" stroke="black" d="M1235.96,-947.61C1210.19,-954.1 1168.97,-964.97 1134,-976.49 1023.67,-1012.82 689.4,-1145.62 584.12,-1187.65"/>
<polygon fill="black" stroke="black" points="582.65,-1184.46 574.66,-1191.42 585.24,-1190.97 582.65,-1184.46"/>
<text text-anchor="middle" x="901" y="-1067.29" font-family="Times,serif" font-size="14.00">4</text>
</g>
<!-- 24&#45;&gt;7 -->
<g id="edge106" class="edge">
<title>24&#45;&gt;7</title>
<path fill="none" stroke="black" d="M1239.02,-951.04C1232.9,-953.58 1226.23,-956.23 1220,-958.49 1194.62,-967.67 1182.92,-959.43 1162,-976.49 1134.87,-998.61 1141.43,-1015.12 1124,-1045.49 1101.58,-1084.56 1095.16,-1093.85 1072,-1132.49 1035.2,-1193.87 1020.53,-1206.23 989,-1270.49 900.08,-1451.69 972.17,-1541.31 852,-1703.49 846.24,-1711.26 838.22,-1717.85 830.19,-1723.15"/>
<polygon fill="black" stroke="black" points="828.31,-1720.19 821.59,-1728.38 831.95,-1726.17 828.31,-1720.19"/>
<text text-anchor="middle" x="970" y="-1328.29" font-family="Times,serif" font-size="14.00">2</text>
</g>
<!-- 24&#45;&gt;14 -->
<g id="edge144" class="edge">
<title>24&#45;&gt;14</title>
<path fill="none" stroke="black" d="M1288.06,-939.64C1374.16,-939.77 1649.34,-937.38 1874,-904.49 1936.9,-895.28 2008.64,-876.32 2049.89,-864.58"/>
<polygon fill="black" stroke="black" points="2051.06,-867.88 2059.7,-861.76 2049.12,-861.16 2051.06,-867.88"/>
<text text-anchor="middle" x="1954" y="-893.29" font-family="Times,serif" font-size="14.00">3</text>
</g>
<!-- 24&#45;&gt;20 -->
<g id="edge121" class="edge">
<title>24&#45;&gt;20</title>
<path fill="none" stroke="black" d="M1258.22,-958.54C1253.37,-988.37 1243.29,-1050.25 1237.45,-1086.13"/>
<polygon fill="black" stroke="black" points="1233.94,-1085.93 1235.79,-1096.37 1240.85,-1087.06 1233.94,-1085.93"/>
<text text-anchor="middle" x="1254" y="-1023.79" font-family="Times,serif" font-size="14.00">1</text>
</g>
<!-- 24&#45;&gt;22 -->
<g id="edge109" class="edge">
<title>24&#45;&gt;22</title>
<path fill="none" stroke="black" d="M1288.13,-942.28C1409.28,-946.05 1896.93,-963.98 1946,-1009.49 2015.49,-1073.93 1938.73,-1135.69 1983,-1219.49 2046.59,-1339.83 2199.36,-1418.46 2266,-1448.16"/>
<polygon fill="black" stroke="black" points="2265,-1451.54 2275.56,-1452.34 2267.81,-1445.13 2265,-1451.54"/>
<text text-anchor="middle" x="1988" y="-1197.79" font-family="Times,serif" font-size="14.00">0</text>
</g>
<!-- 25&#45;&gt;1 -->
<g id="edge21" class="edge">
<title>25&#45;&gt;1</title>
<path fill="none" stroke="black" d="M555.9,-221.41C615.26,-226.53 755.47,-240.68 797,-262.99 889.81,-312.86 897.82,-350.51 958,-436.99 1007.39,-507.96 992.78,-542.35 1046,-610.49 1209.3,-819.58 1357.6,-779.58 1490,-1009.49 1598.62,-1198.09 1546.45,-1277.13 1624,-1480.49 1629.97,-1496.14 1638.7,-1512.63 1646.39,-1525.88"/>
<polygon fill="black" stroke="black" points="1643.39,-1527.67 1651.5,-1534.48 1649.41,-1524.1 1643.39,-1527.67"/>
<text text-anchor="middle" x="1417" y="-893.29" font-family="Times,serif" font-size="14.00">1</text>
</g>
<!-- 25&#45;&gt;7 -->
<g id="edge10" class="edge">
<title>25&#45;&gt;7</title>
<path fill="none" stroke="black" d="M522.55,-244.5C512.54,-282.75 491.98,-357.42 469,-418.99 444.88,-483.62 452.01,-514.87 397,-556.49 379.49,-569.73 370.47,-564.34 351,-574.49 312.63,-594.49 294.74,-593 270,-628.49 252.52,-653.56 206,-865.43 206,-895.99 206,-1332.99 206,-1332.99 206,-1332.99 206,-1544.59 309.93,-1621.5 505,-1703.49 550.7,-1722.69 694.08,-1732.79 762.7,-1736.63"/>
<polygon fill="black" stroke="black" points="762.87,-1740.14 773.04,-1737.19 763.25,-1733.15 762.87,-1740.14"/>
<text text-anchor="middle" x="211" y="-980.29" font-family="Times,serif" font-size="14.00">4</text>
</g>
<!-- 25&#45;&gt;19 -->
<g id="edge73" class="edge">
<title>25&#45;&gt;19</title>
<path fill="none" stroke="black" d="M510.66,-198.44C493.59,-180.95 468.15,-154.88 450.22,-136.49"/>
<polygon fill="black" stroke="black" points="452.52,-133.84 443.03,-129.13 447.51,-138.73 452.52,-133.84"/>
<text text-anchor="middle" x="489" y="-162.3" font-family="Times,serif" font-size="14.00">2</text>
</g>
<!-- 25&#45;&gt;25 -->
<g id="edge36" class="edge">
<title>25&#45;&gt;25</title>
<path fill="none" stroke="black" d="M554.3,-227.91C564.83,-228.57 573.75,-225.35 573.75,-218.24 573.75,-213.58 569.91,-210.59 564.29,-209.27"/>
<polygon fill="black" stroke="black" points="564.52,-205.78 554.3,-208.58 564.04,-212.76 564.52,-205.78"/>
<text text-anchor="middle" x="578.75" y="-214.54" font-family="Times,serif" font-size="14.00">0</text>
</g>
<!-- 25&#45;&gt;29 -->
<g id="edge114" class="edge">
<title>25&#45;&gt;29</title>
<path fill="none" stroke="black" d="M513.43,-240.55C472.65,-296.3 365.24,-442.81 356,-451.99 291.2,-516.38 46,-630.63 46,-721.99 46,-2282.49 46,-2282.49 46,-2282.49 46,-2399.2 187.01,-2323.48 303,-2336.49 520.42,-2360.88 2144.4,-2369.97 2412.56,-2371.31"/>
<polygon fill="black" stroke="black" points="2412.9,-2374.81 2422.92,-2371.36 2412.94,-2367.81 2412.9,-2374.81"/>
<text text-anchor="middle" x="51" y="-1284.79" font-family="Times,serif" font-size="14.00">3</text>
</g>
<!-- 26&#45;&gt;8 -->
<g id="edge49" class="edge">
<title>26&#45;&gt;8</title>
<path fill="none" stroke="black" d="M1508.51,-322.94C1518.45,-326.09 1530.2,-329.54 1541,-331.99 1592.3,-343.66 1606.3,-340.26 1658,-349.99 1839.85,-384.21 2048,-310.7 2048,-495.74 2048,-680.49 2048,-680.49 2048,-680.49 2048,-725.42 1992.76,-747.95 1954.57,-758.15"/>
<polygon fill="black" stroke="black" points="1953.65,-754.77 1944.8,-760.6 1955.35,-761.56 1953.65,-754.77"/>
<text text-anchor="middle" x="2053" y="-545.29" font-family="Times,serif" font-size="14.00">4</text>
</g>
<!-- 26&#45;&gt;9 -->
<g id="edge53" class="edge">
<title>26&#45;&gt;9</title>
<path fill="none" stroke="black" d="M1474.65,-297.03C1467.12,-286.37 1456.16,-272.59 1444,-262.99 1426.86,-249.46 1404.85,-238.67 1386.88,-231.19"/>
<polygon fill="black" stroke="black" points="1387.96,-227.85 1377.38,-227.38 1385.36,-234.35 1387.96,-227.85"/>
<text text-anchor="middle" x="1464" y="-266.79" font-family="Times,serif" font-size="14.00">2</text>
</g>
<!-- 26&#45;&gt;10 -->
<g id="edge107" class="edge">
<title>26&#45;&gt;10</title>
<path fill="none" stroke="black" d="M1493.54,-331.09C1509.86,-360.2 1548.43,-421.4 1599,-451.99 1651.25,-483.6 1723.16,-492.55 1766.17,-494.98"/>
<polygon fill="black" stroke="black" points="1766.04,-498.47 1776.2,-495.45 1766.37,-491.48 1766.04,-498.47"/>
<text text-anchor="middle" x="1562" y="-397.29" font-family="Times,serif" font-size="14.00">1</text>
</g>
<!-- 26&#45;&gt;11 -->
<g id="edge39" class="edge">
<title>26&#45;&gt;11</title>
<path fill="none" stroke="black" d="M1467.54,-327.78C1421.61,-362.33 1296.32,-462.48 1229,-574.49 1085.89,-812.59 1056.02,-1161.04 1050.28,-1260.24"/>
<polygon fill="black" stroke="black" points="1046.78,-1260.15 1049.73,-1270.32 1053.77,-1260.53 1046.78,-1260.15"/>
<text text-anchor="middle" x="1135" y="-806.29" font-family="Times,serif" font-size="14.00">3</text>
</g>
<!-- 26&#45;&gt;25 -->
<g id="edge79" class="edge">
<title>26&#45;&gt;25</title>
<path fill="none" stroke="black" d="M1458.43,-310.39C1324.3,-297.23 721.81,-238.15 565.92,-222.86"/>
<polygon fill="black" stroke="black" points="566.19,-219.37 555.89,-221.88 565.5,-226.34 566.19,-219.37"/>
<text text-anchor="middle" x="1125" y="-266.79" font-family="Times,serif" font-size="14.00">0</text>
</g>
<!-- 27&#45;&gt;6 -->
<g id="edge140" class="edge">
<title>27&#45;&gt;6</title>
<path fill="none" stroke="black" d="M1797.22,-402.39C1858.59,-404.3 2011.09,-414.7 2123,-469.99 2217.97,-516.91 2224.6,-555.11 2301,-628.49 2363.48,-688.5 2520.07,-844.12 2557,-922.49 2619,-1054.05 2618,-1098.55 2618,-1243.99 2618,-1506.99 2618,-1506.99 2618,-1506.99 2618,-1572.45 2412,-1993.52 2412,-2058.99 2412,-2191.49 2412,-2191.49 2412,-2191.49 2412,-2224.85 2386,-2226.89 2356,-2241.49 2295,-2271.18 2214.52,-2278.47 2170.4,-2280.13"/>
<polygon fill="black" stroke="black" points="2170.14,-2276.64 2160.25,-2280.44 2170.36,-2283.63 2170.14,-2276.64"/>
<text text-anchor="middle" x="2623" y="-1328.29" font-family="Times,serif" font-size="14.00">0</text>
</g>
<!-- 27&#45;&gt;10 -->
<g id="edge145" class="edge">
<title>27&#45;&gt;10</title>
<path fill="none" stroke="black" d="M1767.35,-419.09C1766.47,-428.96 1766.47,-441.46 1770,-451.99 1771.94,-457.77 1774.97,-463.4 1778.43,-468.59"/>
<polygon fill="black" stroke="black" points="1775.78,-470.89 1784.54,-476.85 1781.41,-466.73 1775.78,-470.89"/>
<text text-anchor="middle" x="1775" y="-440.79" font-family="Times,serif" font-size="14.00">3</text>
</g>
<!-- 27&#45;&gt;17 -->
<g id="edge3" class="edge">
<title>27&#45;&gt;17</title>
<path fill="none" stroke="black" d="M1774.32,-383.07C1784.08,-340.65 1803.28,-228.21 1753,-158.5 1736.9,-136.17 1707.28,-125.2 1683.43,-119.83"/>
<polygon fill="black" stroke="black" points="1684.11,-116.4 1673.62,-117.86 1682.73,-123.26 1684.11,-116.4"/>
<text text-anchor="middle" x="1791" y="-266.79" font-family="Times,serif" font-size="14.00">1</text>
</g>
<!-- 27&#45;&gt;20 -->
<g id="edge87" class="edge">
<title>27&#45;&gt;20</title>
<path fill="none" stroke="black" d="M1756.55,-416.75C1729.41,-446.56 1666.11,-516.06 1613,-574.49 1520.94,-675.76 1485.56,-691.12 1406,-802.49 1324.6,-916.44 1323.81,-957.09 1254,-1078.49 1252.09,-1081.82 1250.04,-1085.3 1248.01,-1088.73"/>
<polygon fill="black" stroke="black" points="1244.87,-1087.15 1242.74,-1097.53 1250.88,-1090.75 1244.87,-1087.15"/>
<text text-anchor="middle" x="1451" y="-762.79" font-family="Times,serif" font-size="14.00">2</text>
</g>
<!-- 27&#45;&gt;26 -->
<g id="edge71" class="edge">
<title>27&#45;&gt;26</title>
<path fill="none" stroke="black" d="M1745.7,-392.74C1694.91,-377.6 1577.38,-342.54 1519.07,-325.15"/>
<polygon fill="black" stroke="black" points="1519.82,-321.72 1509.24,-322.22 1517.82,-328.43 1519.82,-321.72"/>
<text text-anchor="middle" x="1649" y="-353.79" font-family="Times,serif" font-size="14.00">4</text>
</g>
<!-- 28&#45;&gt;2 -->
<g id="edge146" class="edge">
<title>28&#45;&gt;2</title>
<path fill="none" stroke="black" d="M686.05,-687.85C717.33,-699.09 768,-723.74 768,-765.49 768,-984.99 768,-984.99 768,-984.99 768,-1083.51 820,-1101.96 820,-1200.49 820,-1332.99 820,-1332.99 820,-1332.99 820,-1472.61 883.09,-1495.71 932,-1626.49 953.72,-1684.57 943.57,-1707.31 980,-1757.49 993.95,-1776.7 1000.73,-1779.94 1022,-1790.49 1050.39,-1804.57 1066,-1789 1091,-1808.49 1181.36,-1878.92 1128,-1959.94 1215,-2034.49 1292.38,-2100.78 1617.78,-2103.96 1728.75,-2103.05"/>
<polygon fill="black" stroke="black" points="1728.83,-2106.55 1738.8,-2102.95 1728.77,-2099.55 1728.83,-2106.55"/>
<text text-anchor="middle" x="829" y="-1371.79" font-family="Times,serif" font-size="14.00">1</text>
</g>
<!-- 28&#45;&gt;3 -->
<g id="edge31" class="edge">
<title>28&#45;&gt;3</title>
<path fill="none" stroke="black" d="M660.27,-697.79C654.44,-753.62 633.75,-933.8 596,-1078.49 587.16,-1112.38 572.81,-1150.13 562.92,-1174.54"/>
<polygon fill="black" stroke="black" points="559.67,-1173.24 559.11,-1183.82 566.14,-1175.9 559.67,-1173.24"/>
<text text-anchor="middle" x="633" y="-936.79" font-family="Times,serif" font-size="14.00">0</text>
</g>
<!-- 28&#45;&gt;9 -->
<g id="edge96" class="edge">
<title>28&#45;&gt;9</title>
<path fill="none" stroke="black" d="M684.88,-669.67C760.8,-639.28 1007.08,-531.58 1140,-364.99 1170.17,-327.18 1141.92,-295.21 1178,-262.99 1198.43,-244.75 1272.35,-231.1 1317.65,-224.22"/>
<polygon fill="black" stroke="black" points="1318.29,-227.67 1327.67,-222.74 1317.26,-220.74 1318.29,-227.67"/>
<text text-anchor="middle" x="1076" y="-440.79" font-family="Times,serif" font-size="14.00">4</text>
</g>
<!-- 28&#45;&gt;23 -->
<g id="edge35" class="edge">
<title>28&#45;&gt;23</title>
<path fill="none" stroke="black" d="M640.04,-668.86C633.93,-666.32 627.25,-663.68 621,-661.49 551.24,-636.97 467.66,-614.24 421.65,-602.28"/>
<polygon fill="black" stroke="black" points="422.43,-598.86 411.88,-599.75 420.68,-605.64 422.43,-598.86"/>
<text text-anchor="middle" x="568" y="-632.29" font-family="Times,serif" font-size="14.00">3</text>
</g>
<!-- 28&#45;&gt;28 -->
<g id="edge134" class="edge">
<title>28&#45;&gt;28</title>
<path fill="none" stroke="black" d="M686.53,-687.24C697.51,-687.98 707,-685.39 707,-679.49 707,-675.52 702.72,-673.05 696.57,-672.08"/>
<polygon fill="black" stroke="black" points="696.65,-668.58 686.53,-671.74 696.41,-675.58 696.65,-668.58"/>
<text text-anchor="middle" x="712" y="-675.79" font-family="Times,serif" font-size="14.00">2</text>
</g>
<!-- 29&#45;&gt;6 -->
<g id="edge116" class="edge">
<title>29&#45;&gt;6</title>
<path fill="none" stroke="black" d="M2425.52,-2364.5C2369.3,-2348.47 2231.04,-2309.03 2169,-2291.33"/>
<polygon fill="black" stroke="black" points="2169.61,-2287.86 2159.03,-2288.49 2167.69,-2294.6 2169.61,-2287.86"/>
<text text-anchor="middle" x="2326" y="-2325.29" font-family="Times,serif" font-size="14.00">3</text>
</g>
<!-- 29&#45;&gt;10 -->
<g id="edge25" class="edge">
<title>29&#45;&gt;10</title>
<path fill="none" stroke="black" d="M2476.62,-2369.42C2523.99,-2364.14 2618,-2345.7 2618,-2282.49 2618,-2282.49 2618,-2282.49 2618,-1694.99 2618,-1609.74 2580,-1592.23 2580,-1506.99 2580,-1506.99 2580,-1506.99 2580,-1243.99 2580,-1136.18 2569.92,-1103.96 2518,-1009.49 2371.88,-743.63 2254.86,-725.92 1992,-574.49 1941.3,-545.28 1877.31,-521.8 1838.31,-508.83"/>
<polygon fill="black" stroke="black" points="1839.07,-505.39 1828.48,-505.6 1836.89,-512.04 1839.07,-505.39"/>
<text text-anchor="middle" x="2585" y="-1415.29" font-family="Times,serif" font-size="14.00">4</text>
</g>
<!-- 29&#45;&gt;14 -->
<g id="edge139" class="edge">
<title>29&#45;&gt;14</title>
<path fill="none" stroke="black" d="M2476.54,-2368.79C2500.01,-2365.12 2533.87,-2356.52 2556,-2336.49 2575.47,-2318.86 2580,-2308.75 2580,-2282.49 2580,-2282.49 2580,-2282.49 2580,-2145.99 2580,-2025.75 2527.95,-1728.31 2518,-1608.49 2507.86,-1486.31 2504,-1455.59 2504,-1332.99 2504,-1332.99 2504,-1332.99 2504,-1200.49 2504,-1145.83 2354.85,-1080.65 2313,-1045.49 2267.9,-1007.59 2254.82,-999.98 2213,-958.49 2183.94,-929.66 2184.31,-914.62 2152,-889.49 2141.08,-881 2127.79,-873.62 2115.87,-867.86"/>
<polygon fill="black" stroke="black" points="2117.21,-864.62 2106.67,-863.59 2114.27,-870.98 2117.21,-864.62"/>
<text text-anchor="middle" x="2523" y="-1597.29" font-family="Times,serif" font-size="14.00">2</text>
</g>
<!-- 29&#45;&gt;22 -->
<g id="edge4" class="edge">
<title>29&#45;&gt;22</title>
<path fill="none" stroke="black" d="M2465.33,-2357.35C2481.29,-2341 2504,-2312.49 2504,-2282.49 2504,-2282.49 2504,-2282.49 2504,-1963.99 2504,-1825.3 2440.22,-1802.59 2398,-1670.49 2373.84,-1594.89 2396.45,-1562.84 2350,-1498.49 2344.34,-1490.65 2336.34,-1484.03 2328.32,-1478.74"/>
<polygon fill="black" stroke="black" points="2330.07,-1475.71 2319.7,-1473.51 2326.44,-1481.69 2330.07,-1475.71"/>
<text text-anchor="middle" x="2508" y="-1913.79" font-family="Times,serif" font-size="14.00">0</text>
</g>
<!-- 29&#45;&gt;25 -->
<g id="edge54" class="edge">
<title>29&#45;&gt;25</title>
<path fill="none" stroke="black" d="M2422.67,-2371.46C2159.68,-2371.19 86.43,-2368.03 32,-2336.49 7.86,-2322.5 0,-2310.39 0,-2282.49 0,-2282.49 0,-2282.49 0,-1330.99 0,-1215.82 8,-1187.15 8,-1071.99 8,-1071.99 8,-1071.99 8,-721.99 8,-676.25 23.39,-664.96 51,-628.49 59.57,-617.17 396.07,-270.67 408,-262.99 434.25,-246.09 467.89,-234.61 493.04,-227.66"/>
<polygon fill="black" stroke="black" points="494.14,-230.99 502.91,-225.05 492.35,-224.22 494.14,-230.99"/>
<text text-anchor="middle" x="6" y="-1284.79" font-family="Times,serif" font-size="14.00">1</text>
</g>
</g>
</svg>
