<?xml version="1.0" encoding="UTF-8" standalone="no"?>
<!DOCTYPE svg PUBLIC "-//W3C//DTD SVG 1.1//EN"
 "http://www.w3.org/Graphics/SVG/1.1/DTD/svg11.dtd">
<!-- Generated by graphviz version 2.49.0 (20210829.0051)
 -->
<!-- Pages: 1 -->
<svg width="2430pt" height="2297pt"
 viewBox="0.00 0.00 2430.00 2297.49" xmlns="http://www.w3.org/2000/svg" xmlns:xlink="http://www.w3.org/1999/xlink">
<g id="graph0" class="graph" transform="scale(1 1) rotate(0) translate(4 2293.49)">
<polygon fill="white" stroke="transparent" points="-4,4 -4,-2293.49 2426,-2293.49 2426,4 -4,4"/>
<!-- fake -->
<g id="node1" class="node">
<title>fake</title>
</g>
<!-- 0 -->
<g id="node2" class="node">
<title>0</title>
<ellipse fill="none" stroke="black" cx="2000" cy="-2198.49" rx="27" ry="18"/>
<text text-anchor="middle" x="2000" y="-2194.79" font-family="Times,serif" font-size="14.00">0</text>
</g>
<!-- fake&#45;&gt;0 -->
<g id="edge1" class="edge">
<title>fake&#45;&gt;0</title>
<path fill="none" stroke="black" stroke-width="2" d="M2000,-2253.3C2000,-2245.28 2000,-2235.54 2000,-2226.56"/>
<polygon fill="black" stroke="black" stroke-width="2" points="2003.5,-2226.52 2000,-2216.52 1996.5,-2226.52 2003.5,-2226.52"/>
</g>
<!-- 3 -->
<g id="node5" class="node">
<title>3</title>
<ellipse fill="none" stroke="black" cx="824" cy="-2107.49" rx="18" ry="18"/>
<ellipse fill="none" stroke="black" cx="824" cy="-2107.49" rx="22" ry="22"/>
<text text-anchor="middle" x="824" y="-2103.79" font-family="Times,serif" font-size="14.00">3</text>
</g>
<!-- 0&#45;&gt;3 -->
<g id="edge104" class="edge">
<title>0&#45;&gt;3</title>
<path fill="none" stroke="black" d="M1973.23,-2195.46C1817.25,-2183.66 1026.79,-2123.84 856.4,-2110.94"/>
<polygon fill="black" stroke="black" points="856.54,-2107.44 846.3,-2110.18 856.01,-2114.42 856.54,-2107.44"/>
<text text-anchor="middle" x="1522" y="-2151.29" font-family="Times,serif" font-size="14.00">1</text>
</g>
<!-- 5 -->
<g id="node7" class="node">
<title>5</title>
<ellipse fill="none" stroke="black" cx="288" cy="-22" rx="18" ry="18"/>
<ellipse fill="none" stroke="black" cx="288" cy="-22" rx="22" ry="22"/>
<text text-anchor="middle" x="288" y="-18.3" font-family="Times,serif" font-size="14.00">5</text>
</g>
<!-- 0&#45;&gt;5 -->
<g id="edge33" class="edge">
<title>0&#45;&gt;5</title>
<path fill="none" stroke="black" d="M1972.79,-2197.56C1820.72,-2197.79 1060.68,-2197.11 441,-2162.49 342.42,-2156.98 0,-2207.22 0,-2108.49 0,-2108.49 0,-2108.49 0,-112 0,-59 180.27,-34.16 255.57,-26.09"/>
<polygon fill="black" stroke="black" points="256.29,-29.53 265.88,-25.02 255.57,-22.57 256.29,-29.53"/>
<text text-anchor="middle" x="5" y="-1126.79" font-family="Times,serif" font-size="14.00">3</text>
</g>
<!-- 16 -->
<g id="node18" class="node">
<title>16</title>
<ellipse fill="none" stroke="black" cx="1210" cy="-947.74" rx="22.96" ry="22.96"/>
<ellipse fill="none" stroke="black" cx="1210" cy="-947.74" rx="27" ry="27"/>
<text text-anchor="middle" x="1210" y="-944.04" font-family="Times,serif" font-size="14.00">16</text>
</g>
<!-- 0&#45;&gt;16 -->
<g id="edge25" class="edge">
<title>0&#45;&gt;16</title>
<path fill="none" stroke="black" d="M2024.46,-2190.47C2057.95,-2179.18 2114,-2153.56 2114,-2108.49 2114,-2108.49 2114,-2108.49 2114,-1884.99 2114,-1869.85 1934.23,-1386.2 1926,-1373.49 1823.51,-1215.16 1782.64,-1174.98 1620,-1079.49 1494.12,-1005.57 1321.55,-968.32 1246.89,-954.83"/>
<polygon fill="black" stroke="black" points="1247.06,-951.3 1236.61,-953.01 1245.84,-958.2 1247.06,-951.3"/>
<text text-anchor="middle" x="2011" y="-1561.79" font-family="Times,serif" font-size="14.00">2</text>
</g>
<!-- 19 -->
<g id="node21" class="node">
<title>19</title>
<ellipse fill="none" stroke="black" cx="1665" cy="-113" rx="27" ry="18"/>
<text text-anchor="middle" x="1665" y="-109.3" font-family="Times,serif" font-size="14.00">19</text>
</g>
<!-- 0&#45;&gt;19 -->
<g id="edge21" class="edge">
<title>0&#45;&gt;19</title>
<path fill="none" stroke="black" d="M2026.86,-2196.35C2108.16,-2192.17 2346,-2174.31 2346,-2108.49 2346,-2108.49 2346,-2108.49 2346,-1346.99 2346,-1270.13 2328,-1251.85 2328,-1174.99 2328,-1174.99 2328,-1174.99 2328,-207.75 2328,-144.09 1842.61,-120.73 1702.46,-115.32"/>
<polygon fill="black" stroke="black" points="1702.35,-111.81 1692.23,-114.93 1702.09,-118.81 1702.35,-111.81"/>
<text text-anchor="middle" x="2333" y="-1170.29" font-family="Times,serif" font-size="14.00">0</text>
</g>
<!-- 21 -->
<g id="node23" class="node">
<title>21</title>
<ellipse fill="none" stroke="black" cx="565" cy="-1391.49" rx="27" ry="18"/>
<text text-anchor="middle" x="565" y="-1387.79" font-family="Times,serif" font-size="14.00">21</text>
</g>
<!-- 0&#45;&gt;21 -->
<g id="edge63" class="edge">
<title>0&#45;&gt;21</title>
<path fill="none" stroke="black" d="M1972.8,-2196.97C1738.95,-2192.41 76,-2158.23 76,-2108.49 76,-2108.49 76,-2108.49 76,-1702.99 76,-1655.14 364.04,-1448.56 407,-1427.49 445.81,-1408.45 495.03,-1399.65 528.14,-1395.67"/>
<polygon fill="black" stroke="black" points="528.74,-1399.12 538.29,-1394.53 527.96,-1392.16 528.74,-1399.12"/>
<text text-anchor="middle" x="81" y="-1795.29" font-family="Times,serif" font-size="14.00">4</text>
</g>
<!-- 1 -->
<g id="node3" class="node">
<title>1</title>
<ellipse fill="none" stroke="black" cx="1418" cy="-1565.49" rx="27" ry="18"/>
<text text-anchor="middle" x="1418" y="-1561.79" font-family="Times,serif" font-size="14.00">1</text>
</g>
<!-- 1&#45;&gt;0 -->
<g id="edge116" class="edge">
<title>1&#45;&gt;0</title>
<path fill="none" stroke="black" d="M1443.01,-1572.44C1554.41,-1599.65 2000,-1716.32 2000,-1841.49 2000,-2108.49 2000,-2108.49 2000,-2108.49 2000,-2129.22 2000,-2152.66 2000,-2170.28"/>
<polygon fill="black" stroke="black" points="1996.5,-2170.43 2000,-2180.43 2003.5,-2170.43 1996.5,-2170.43"/>
<text text-anchor="middle" x="2005" y="-1882.29" font-family="Times,serif" font-size="14.00">2</text>
</g>
<!-- 8 -->
<g id="node10" class="node">
<title>8</title>
<ellipse fill="none" stroke="black" cx="2066" cy="-760.99" rx="18" ry="18"/>
<ellipse fill="none" stroke="black" cx="2066" cy="-760.99" rx="22" ry="22"/>
<text text-anchor="middle" x="2066" y="-757.29" font-family="Times,serif" font-size="14.00">8</text>
</g>
<!-- 1&#45;&gt;8 -->
<g id="edge113" class="edge">
<title>1&#45;&gt;8</title>
<path fill="none" stroke="black" d="M1444.21,-1561.04C1506.8,-1551.72 1667.65,-1521.19 1774,-1442.49 1886.46,-1359.26 1901.75,-1312.82 1950,-1181.49 1990.71,-1070.67 1968.26,-1034.13 2002,-920.99 2015.97,-874.16 2038.35,-821.98 2052.61,-790.59"/>
<polygon fill="black" stroke="black" points="2055.94,-791.71 2056.93,-781.16 2049.58,-788.79 2055.94,-791.71"/>
<text text-anchor="middle" x="1960" y="-1170.29" font-family="Times,serif" font-size="14.00">4</text>
</g>
<!-- 13 -->
<g id="node15" class="node">
<title>13</title>
<ellipse fill="none" stroke="black" cx="1397" cy="-1130.49" rx="27" ry="18"/>
<text text-anchor="middle" x="1397" y="-1126.79" font-family="Times,serif" font-size="14.00">13</text>
</g>
<!-- 1&#45;&gt;13 -->
<g id="edge30" class="edge">
<title>1&#45;&gt;13</title>
<path fill="none" stroke="black" d="M1418,-1547.23C1418,-1530.06 1418,-1502.95 1418,-1479.49 1418,-1479.49 1418,-1479.49 1418,-1216.49 1418,-1196.35 1412.37,-1174.28 1406.95,-1157.69"/>
<polygon fill="black" stroke="black" points="1410.22,-1156.43 1403.64,-1148.12 1403.6,-1158.72 1410.22,-1156.43"/>
<text text-anchor="middle" x="1423" y="-1344.29" font-family="Times,serif" font-size="14.00">0</text>
</g>
<!-- 17 -->
<g id="node19" class="node">
<title>17</title>
<ellipse fill="none" stroke="black" cx="690" cy="-1929.49" rx="27" ry="18"/>
<text text-anchor="middle" x="690" y="-1925.79" font-family="Times,serif" font-size="14.00">17</text>
</g>
<!-- 1&#45;&gt;17 -->
<g id="edge79" class="edge">
<title>1&#45;&gt;17</title>
<path fill="none" stroke="black" d="M1391.26,-1568.87C1297.53,-1578.55 979.79,-1622.93 798,-1791.49 761.53,-1825.3 785.54,-1856.77 752,-1893.49 743.75,-1902.52 732.6,-1909.8 722.04,-1915.34"/>
<polygon fill="black" stroke="black" points="720.45,-1912.22 713,-1919.75 723.52,-1918.51 720.45,-1912.22"/>
<text text-anchor="middle" x="882" y="-1747.79" font-family="Times,serif" font-size="14.00">3</text>
</g>
<!-- 28 -->
<g id="node30" class="node">
<title>28</title>
<ellipse fill="none" stroke="black" cx="901" cy="-1478.49" rx="27" ry="18"/>
<text text-anchor="middle" x="901" y="-1474.79" font-family="Times,serif" font-size="14.00">28</text>
</g>
<!-- 1&#45;&gt;28 -->
<g id="edge106" class="edge">
<title>1&#45;&gt;28</title>
<path fill="none" stroke="black" d="M1391.21,-1563.02C1318.02,-1558.51 1109.06,-1542.27 942,-1496.49 938.63,-1495.56 935.16,-1494.43 931.74,-1493.2"/>
<polygon fill="black" stroke="black" points="932.94,-1489.91 922.35,-1489.53 930.39,-1496.43 932.94,-1489.91"/>
<text text-anchor="middle" x="1089" y="-1518.29" font-family="Times,serif" font-size="14.00">1</text>
</g>
<!-- 2 -->
<g id="node4" class="node">
<title>2</title>
<ellipse fill="none" stroke="black" cx="1722" cy="-1751.49" rx="18" ry="18"/>
<ellipse fill="none" stroke="black" cx="1722" cy="-1751.49" rx="22" ry="22"/>
<text text-anchor="middle" x="1722" y="-1747.79" font-family="Times,serif" font-size="14.00">2</text>
</g>
<!-- 7 -->
<g id="node9" class="node">
<title>7</title>
<ellipse fill="none" stroke="black" cx="1487" cy="-1656.49" rx="18" ry="18"/>
<ellipse fill="none" stroke="black" cx="1487" cy="-1656.49" rx="22" ry="22"/>
<text text-anchor="middle" x="1487" y="-1652.79" font-family="Times,serif" font-size="14.00">7</text>
</g>
<!-- 2&#45;&gt;7 -->
<g id="edge64" class="edge">
<title>2&#45;&gt;7</title>
<path fill="none" stroke="black" d="M1701.68,-1742.62C1681.46,-1734.78 1649.56,-1722.37 1622,-1711.49 1585.62,-1697.12 1543.81,-1680.36 1516.48,-1669.37"/>
<polygon fill="black" stroke="black" points="1517.69,-1666.08 1507.11,-1665.59 1515.08,-1672.57 1517.69,-1666.08"/>
<text text-anchor="middle" x="1627" y="-1700.29" font-family="Times,serif" font-size="14.00">1</text>
</g>
<!-- 2&#45;&gt;13 -->
<g id="edge28" class="edge">
<title>2&#45;&gt;13</title>
<path fill="none" stroke="black" d="M1714.76,-1730.46C1686.99,-1653.65 1588.61,-1381.88 1584,-1373.49 1535.29,-1284.95 1455.66,-1194.31 1418,-1153.62"/>
<polygon fill="black" stroke="black" points="1420.43,-1151.1 1411.05,-1146.17 1415.31,-1155.87 1420.43,-1151.1"/>
<text text-anchor="middle" x="1614" y="-1431.29" font-family="Times,serif" font-size="14.00">0</text>
</g>
<!-- 18 -->
<g id="node20" class="node">
<title>18</title>
<ellipse fill="none" stroke="black" cx="1212" cy="-208.75" rx="22.96" ry="22.96"/>
<ellipse fill="none" stroke="black" cx="1212" cy="-208.75" rx="27" ry="27"/>
<text text-anchor="middle" x="1212" y="-205.05" font-family="Times,serif" font-size="14.00">18</text>
</g>
<!-- 2&#45;&gt;18 -->
<g id="edge29" class="edge">
<title>2&#45;&gt;18</title>
<path fill="none" stroke="black" d="M1722,-1729.43C1722,-1710.59 1722,-1682.19 1722,-1657.49 1722,-1657.49 1722,-1657.49 1722,-1433.99 1722,-1376.63 1734,-1362.85 1734,-1305.49 1734,-1305.49 1734,-1305.49 1734,-1172.99 1734,-1075.26 1834.39,-832.19 1805,-738.99 1754.03,-577.35 1706.56,-545.6 1585,-427.5 1489.47,-334.68 1461.66,-309.91 1341,-253.5 1312.29,-240.07 1301.98,-245.77 1272,-235.5 1263.2,-232.48 1253.87,-228.75 1245.26,-225.07"/>
<polygon fill="black" stroke="black" points="1246.47,-221.78 1235.91,-220.99 1243.67,-228.2 1246.47,-221.78"/>
<text text-anchor="middle" x="1775" y="-996.29" font-family="Times,serif" font-size="14.00">4</text>
</g>
<!-- 22 -->
<g id="node24" class="node">
<title>22</title>
<ellipse fill="none" stroke="black" cx="1861" cy="-487.24" rx="27" ry="18"/>
<text text-anchor="middle" x="1861" y="-483.54" font-family="Times,serif" font-size="14.00">22</text>
</g>
<!-- 2&#45;&gt;22 -->
<g id="edge10" class="edge">
<title>2&#45;&gt;22</title>
<path fill="none" stroke="black" d="M1734.02,-1732.84C1745.16,-1714.75 1760,-1685.39 1760,-1657.49 1760,-1657.49 1760,-1657.49 1760,-1433.99 1760,-1414.31 1855.61,-1113.41 1861,-1094.49 1865.17,-1079.87 1867.15,-1076.42 1870,-1061.49 1874.52,-1037.77 1873.6,-1031.52 1876,-1007.49 1889,-877.4 1902,-845.22 1902,-714.49 1902,-714.49 1902,-714.49 1902,-581.99 1902,-556.73 1889.35,-530.6 1878.1,-512.37"/>
<polygon fill="black" stroke="black" points="1880.79,-510.09 1872.42,-503.6 1874.92,-513.9 1880.79,-510.09"/>
<text text-anchor="middle" x="1860" y="-1126.79" font-family="Times,serif" font-size="14.00">3</text>
</g>
<!-- 29 -->
<g id="node31" class="node">
<title>29</title>
<ellipse fill="none" stroke="black" cx="1665" cy="-22" rx="27" ry="18"/>
<text text-anchor="middle" x="1665" y="-18.3" font-family="Times,serif" font-size="14.00">29</text>
</g>
<!-- 2&#45;&gt;29 -->
<g id="edge133" class="edge">
<title>2&#45;&gt;29</title>
<path fill="none" stroke="black" d="M1743.07,-1744.81C1764.57,-1738.51 1798.47,-1727.11 1825,-1711.49 1856.16,-1693.14 1938.26,-1633.68 1974,-1583.49 2008.13,-1535.55 1997.85,-1513.69 2023,-1460.49 2081.69,-1336.35 2252,-1089.87 2252,-1087.99 2252,-1087.99 2252,-1087.99 2252,-112 2252,-56.17 1831.55,-31.09 1702.33,-24.7"/>
<polygon fill="black" stroke="black" points="1702.29,-21.2 1692.13,-24.21 1701.95,-28.19 1702.29,-21.2"/>
<text text-anchor="middle" x="2257" y="-891.79" font-family="Times,serif" font-size="14.00">2</text>
</g>
<!-- 3&#45;&gt;0 -->
<g id="edge124" class="edge">
<title>3&#45;&gt;0</title>
<path fill="none" stroke="black" d="M846.02,-2109.29C933.05,-2112.56 1261.43,-2125.7 1531,-2147.49 1692.36,-2160.53 1884.21,-2183.25 1963.21,-2192.92"/>
<polygon fill="black" stroke="black" points="1963.25,-2196.45 1973.6,-2194.19 1964.1,-2189.5 1963.25,-2196.45"/>
<text text-anchor="middle" x="1690" y="-2151.29" font-family="Times,serif" font-size="14.00">3</text>
</g>
<!-- 9 -->
<g id="node11" class="node">
<title>9</title>
<ellipse fill="none" stroke="black" cx="656" cy="-582.99" rx="27" ry="18"/>
<text text-anchor="middle" x="656" y="-579.29" font-family="Times,serif" font-size="14.00">9</text>
</g>
<!-- 3&#45;&gt;9 -->
<g id="edge100" class="edge">
<title>3&#45;&gt;9</title>
<path fill="none" stroke="black" d="M801.86,-2106.38C698.16,-2105.71 263.54,-2100.91 214,-2067.49 193.57,-2053.7 190,-2042.14 190,-2017.49 190,-2017.49 190,-2017.49 190,-1520.99 190,-1437.41 266,-1432.56 266,-1348.99 266,-1348.99 266,-1348.99 266,-998.99 266,-954.71 299.08,-954.53 328,-920.99 382.83,-857.41 404.25,-848.31 457,-782.99 501.54,-727.84 496.75,-700.97 548,-651.99 571.09,-629.93 602.42,-611.15 625.38,-598.96"/>
<polygon fill="black" stroke="black" points="627.09,-602.01 634.36,-594.3 623.87,-595.8 627.09,-602.01"/>
<text text-anchor="middle" x="271" y="-1344.29" font-family="Times,serif" font-size="14.00">2</text>
</g>
<!-- 3&#45;&gt;18 -->
<g id="edge8" class="edge">
<title>3&#45;&gt;18</title>
<path fill="none" stroke="black" d="M801.76,-2106.57C703.8,-2106.71 310.62,-2104.87 194,-2067.49 154.07,-2054.69 114,-2059.42 114,-2017.49 114,-2017.49 114,-2017.49 114,-1702.99 114,-1429.65 114,-1361.32 114,-1087.99 114,-1087.99 114,-1087.99 114,-538.49 114,-356.77 263.6,-343.96 436,-286.5 575.9,-239.87 1039.65,-217.02 1174.76,-211.25"/>
<polygon fill="black" stroke="black" points="1175.15,-214.73 1185,-210.82 1174.86,-207.74 1175.15,-214.73"/>
<text text-anchor="middle" x="119" y="-1170.29" font-family="Times,serif" font-size="14.00">4</text>
</g>
<!-- 3&#45;&gt;21 -->
<g id="edge98" class="edge">
<title>3&#45;&gt;21</title>
<path fill="none" stroke="black" d="M801.98,-2106.82C712.39,-2107.58 380,-2104.56 380,-2017.49 380,-2017.49 380,-2017.49 380,-1884.99 380,-1819.97 442,-1817.5 442,-1752.49 442,-1752.49 442,-1752.49 442,-1477.49 442,-1434.54 493.37,-1411.6 529.72,-1400.75"/>
<polygon fill="black" stroke="black" points="530.83,-1404.07 539.51,-1398 528.94,-1397.33 530.83,-1404.07"/>
<text text-anchor="middle" x="447" y="-1747.79" font-family="Times,serif" font-size="14.00">0</text>
</g>
<!-- 27 -->
<g id="node29" class="node">
<title>27</title>
<ellipse fill="none" stroke="black" cx="1897" cy="-2016.49" rx="27" ry="18"/>
<text text-anchor="middle" x="1897" y="-2012.79" font-family="Times,serif" font-size="14.00">27</text>
</g>
<!-- 3&#45;&gt;27 -->
<g id="edge139" class="edge">
<title>3&#45;&gt;27</title>
<path fill="none" stroke="black" d="M846.09,-2106.67C942.05,-2107.2 1332.02,-2106.7 1649,-2067.49 1725.96,-2057.97 1814.72,-2037.8 1862.4,-2026.2"/>
<polygon fill="black" stroke="black" points="1863.33,-2029.57 1872.21,-2023.79 1861.67,-2022.77 1863.33,-2029.57"/>
<text text-anchor="middle" x="1743" y="-2056.29" font-family="Times,serif" font-size="14.00">1</text>
</g>
<!-- 4 -->
<g id="node6" class="node">
<title>4</title>
<ellipse fill="none" stroke="black" cx="1856" cy="-1565.49" rx="27" ry="18"/>
<text text-anchor="middle" x="1856" y="-1561.79" font-family="Times,serif" font-size="14.00">4</text>
</g>
<!-- 4&#45;&gt;2 -->
<g id="edge77" class="edge">
<title>4&#45;&gt;2</title>
<path fill="none" stroke="black" d="M1847.81,-1582.89C1831.03,-1616.14 1792.76,-1690.14 1774,-1711.49 1766.85,-1719.63 1757.75,-1727.14 1749.17,-1733.36"/>
<polygon fill="black" stroke="black" points="1747.08,-1730.55 1740.85,-1739.13 1751.06,-1736.31 1747.08,-1730.55"/>
<text text-anchor="middle" x="1825" y="-1652.79" font-family="Times,serif" font-size="14.00">1</text>
</g>
<!-- 4&#45;&gt;2 -->
<g id="edge146" class="edge">
<title>4&#45;&gt;2</title>
<path fill="none" stroke="black" d="M1856.18,-1583.72C1855.67,-1606.89 1852.04,-1648.64 1834,-1678.49 1815.56,-1709.01 1778.66,-1728.9 1752.26,-1739.88"/>
<polygon fill="black" stroke="black" points="1750.72,-1736.72 1742.71,-1743.65 1753.3,-1743.23 1750.72,-1736.72"/>
<text text-anchor="middle" x="1855" y="-1652.79" font-family="Times,serif" font-size="14.00">0</text>
</g>
<!-- 4&#45;&gt;19 -->
<g id="edge84" class="edge">
<title>4&#45;&gt;19</title>
<path fill="none" stroke="black" d="M1866.99,-1548.95C1870.84,-1543.05 1874.95,-1536.14 1878,-1529.49 1908.23,-1463.55 1889.59,-1436.23 1926,-1373.49 1984.71,-1272.32 2043.71,-1280.49 2106,-1181.49 2151.82,-1108.66 2176,-1087.03 2176,-1000.99 2176,-1000.99 2176,-1000.99 2176,-712.49 2176,-449.04 2201.4,-308.87 1992,-149 1947.36,-114.92 1778.19,-112.55 1702.27,-113.28"/>
<polygon fill="black" stroke="black" points="1702.16,-109.78 1692.2,-113.4 1702.24,-116.78 1702.16,-109.78"/>
<text text-anchor="middle" x="2181" y="-848.29" font-family="Times,serif" font-size="14.00">4</text>
</g>
<!-- 4&#45;&gt;22 -->
<g id="edge148" class="edge">
<title>4&#45;&gt;22</title>
<path fill="none" stroke="black" d="M1859.24,-1547.42C1874.68,-1465.57 1940,-1112.63 1940,-1000.99 1940,-1000.99 1940,-1000.99 1940,-581.99 1940,-549.34 1911.63,-522.16 1888.9,-505.61"/>
<polygon fill="black" stroke="black" points="1890.74,-502.63 1880.53,-499.81 1886.75,-508.38 1890.74,-502.63"/>
<text text-anchor="middle" x="1944" y="-1039.79" font-family="Times,serif" font-size="14.00">3</text>
</g>
<!-- 26 -->
<g id="node28" class="node">
<title>26</title>
<ellipse fill="none" stroke="black" cx="1414" cy="-1043.49" rx="27" ry="18"/>
<text text-anchor="middle" x="1414" y="-1039.79" font-family="Times,serif" font-size="14.00">26</text>
</g>
<!-- 4&#45;&gt;26 -->
<g id="edge4" class="edge">
<title>4&#45;&gt;26</title>
<path fill="none" stroke="black" d="M1844.26,-1549.17C1828.52,-1528.73 1799.6,-1491.53 1774,-1460.49 1647.81,-1307.45 1489.44,-1128.94 1434.15,-1067"/>
<polygon fill="black" stroke="black" points="1436.61,-1064.5 1427.34,-1059.38 1431.39,-1069.17 1436.61,-1064.5"/>
<text text-anchor="middle" x="1662" y="-1300.79" font-family="Times,serif" font-size="14.00">2</text>
</g>
<!-- 10 -->
<g id="node12" class="node">
<title>10</title>
<ellipse fill="none" stroke="black" cx="1277" cy="-851.99" rx="27" ry="18"/>
<text text-anchor="middle" x="1277" y="-848.29" font-family="Times,serif" font-size="14.00">10</text>
</g>
<!-- 5&#45;&gt;10 -->
<g id="edge92" class="edge">
<title>5&#45;&gt;10</title>
<path fill="none" stroke="black" d="M310.15,-24.7C439.53,-34.9 1097.82,-90.66 1276,-182 1334.31,-211.89 1355,-225.93 1380,-286.5 1394.14,-320.75 1356.52,-582.02 1354,-618.99 1349.03,-691.8 1375.8,-716.38 1346,-782.99 1337.02,-803.07 1319.2,-820.38 1303.93,-832.51"/>
<polygon fill="black" stroke="black" points="1301.62,-829.87 1295.77,-838.7 1305.85,-835.44 1301.62,-829.87"/>
<text text-anchor="middle" x="1380" y="-431.3" font-family="Times,serif" font-size="14.00">2</text>
</g>
<!-- 11 -->
<g id="node13" class="node">
<title>11</title>
<ellipse fill="none" stroke="black" cx="342" cy="-1217.49" rx="27" ry="18"/>
<text text-anchor="middle" x="342" y="-1213.79" font-family="Times,serif" font-size="14.00">11</text>
</g>
<!-- 5&#45;&gt;11 -->
<g id="edge69" class="edge">
<title>5&#45;&gt;11</title>
<path fill="none" stroke="black" d="M271.29,-36.51C253.53,-52.49 228,-80.88 228,-112 228,-349 228,-349 228,-349 228,-433.78 206,-453.71 206,-538.49 206,-670.99 206,-670.99 206,-670.99 206,-732.44 228,-746.04 228,-807.49 228,-1087.99 228,-1087.99 228,-1087.99 228,-1139.18 279.26,-1179.5 313.03,-1200.51"/>
<polygon fill="black" stroke="black" points="311.25,-1203.52 321.62,-1205.67 314.85,-1197.52 311.25,-1203.52"/>
<text text-anchor="middle" x="211" y="-622.79" font-family="Times,serif" font-size="14.00">3</text>
</g>
<!-- 5&#45;&gt;11 -->
<g id="edge102" class="edge">
<title>5&#45;&gt;11</title>
<path fill="none" stroke="black" d="M266.45,-26.81C228.1,-34.97 152,-57.96 152,-112 152,-1087.99 152,-1087.99 152,-1087.99 152,-1161.69 251.3,-1195.99 306.33,-1209.33"/>
<polygon fill="black" stroke="black" points="305.84,-1212.81 316.38,-1211.66 307.42,-1205.99 305.84,-1212.81"/>
<text text-anchor="middle" x="157" y="-622.79" font-family="Times,serif" font-size="14.00">4</text>
</g>
<!-- 15 -->
<g id="node17" class="node">
<title>15</title>
<ellipse fill="none" stroke="black" cx="1086" cy="-1842.49" rx="27" ry="18"/>
<text text-anchor="middle" x="1086" y="-1838.79" font-family="Times,serif" font-size="14.00">15</text>
</g>
<!-- 5&#45;&gt;15 -->
<g id="edge141" class="edge">
<title>5&#45;&gt;15</title>
<path fill="none" stroke="black" d="M295.3,-42.78C297.51,-48.92 299.91,-55.72 302,-62 412.81,-394.64 420.24,-484.35 534,-815.99 543.23,-842.9 885.74,-1747.37 897,-1773.49 903.45,-1788.46 900.12,-1796.5 913,-1806.49 933.85,-1822.65 1004.92,-1832.91 1049.22,-1837.89"/>
<polygon fill="black" stroke="black" points="1049,-1841.38 1059.32,-1838.98 1049.76,-1834.43 1049,-1841.38"/>
<text text-anchor="middle" x="599" y="-944.04" font-family="Times,serif" font-size="14.00">0</text>
</g>
<!-- 5&#45;&gt;17 -->
<g id="edge125" class="edge">
<title>5&#45;&gt;17</title>
<path fill="none" stroke="black" d="M266.25,-25.97C205.43,-34.86 38,-63.74 38,-112 38,-1087.99 38,-1087.99 38,-1087.99 38,-1108.34 285.17,-1756.93 297,-1773.49 345.63,-1841.55 365.48,-1859.7 442,-1893.49 511.82,-1924.31 602.47,-1929.32 652.58,-1929.42"/>
<polygon fill="black" stroke="black" points="652.65,-1932.92 662.63,-1929.38 652.62,-1925.92 652.65,-1932.92"/>
<text text-anchor="middle" x="43" y="-996.29" font-family="Times,serif" font-size="14.00">1</text>
</g>
<!-- 6 -->
<g id="node8" class="node">
<title>6</title>
<ellipse fill="none" stroke="black" cx="641" cy="-669.99" rx="27" ry="18"/>
<text text-anchor="middle" x="641" y="-666.29" font-family="Times,serif" font-size="14.00">6</text>
</g>
<!-- 6&#45;&gt;6 -->
<g id="edge56" class="edge">
<title>6&#45;&gt;6</title>
<path fill="none" stroke="black" d="M665.53,-677.74C676.51,-678.48 686,-675.9 686,-669.99 686,-666.02 681.72,-663.56 675.57,-662.59"/>
<polygon fill="black" stroke="black" points="675.65,-659.09 665.53,-662.24 675.41,-666.08 675.65,-659.09"/>
<text text-anchor="middle" x="691" y="-666.29" font-family="Times,serif" font-size="14.00">2</text>
</g>
<!-- 6&#45;&gt;9 -->
<g id="edge37" class="edge">
<title>6&#45;&gt;9</title>
<path fill="none" stroke="black" d="M644.04,-651.79C646.09,-640.15 648.84,-624.54 651.19,-611.23"/>
<polygon fill="black" stroke="black" points="654.68,-611.62 652.97,-601.17 647.78,-610.41 654.68,-611.62"/>
<text text-anchor="middle" x="655" y="-622.79" font-family="Times,serif" font-size="14.00">3</text>
</g>
<!-- 24 -->
<g id="node26" class="node">
<title>24</title>
<ellipse fill="none" stroke="black" cx="482" cy="-1304.49" rx="27" ry="18"/>
<text text-anchor="middle" x="482" y="-1300.79" font-family="Times,serif" font-size="14.00">24</text>
</g>
<!-- 6&#45;&gt;24 -->
<g id="edge48" class="edge">
<title>6&#45;&gt;24</title>
<path fill="none" stroke="black" d="M626.4,-685.55C620.84,-691.56 614.72,-698.8 610,-705.99 577.66,-755.34 498,-887.73 498,-946.74 498,-1218.49 498,-1218.49 498,-1218.49 498,-1238.2 493.79,-1260.04 489.7,-1276.65"/>
<polygon fill="black" stroke="black" points="486.2,-1276.17 487.06,-1286.73 492.98,-1277.94 486.2,-1276.17"/>
<text text-anchor="middle" x="503" y="-996.29" font-family="Times,serif" font-size="14.00">4</text>
</g>
<!-- 6&#45;&gt;24 -->
<g id="edge137" class="edge">
<title>6&#45;&gt;24</title>
<path fill="none" stroke="black" d="M641.63,-688.02C642.81,-735.1 642.55,-870.4 606,-974.49 586.61,-1029.69 536,-1027.48 536,-1085.99 536,-1218.49 536,-1218.49 536,-1218.49 536,-1243.13 519.63,-1266.4 504.92,-1282.34"/>
<polygon fill="black" stroke="black" points="502.37,-1279.94 497.91,-1289.55 507.39,-1284.82 502.37,-1279.94"/>
<text text-anchor="middle" x="603" y="-996.29" font-family="Times,serif" font-size="14.00">0</text>
</g>
<!-- 6&#45;&gt;29 -->
<g id="edge74" class="edge">
<title>6&#45;&gt;29</title>
<path fill="none" stroke="black" d="M627.87,-654.04C587.84,-606.56 473.44,-455.57 530,-340.5 619.39,-158.64 700.91,-132.19 891,-62 960.42,-36.37 1482.12,-25.99 1627.49,-23.58"/>
<polygon fill="black" stroke="black" points="1627.75,-27.07 1637.69,-23.41 1627.63,-20.07 1627.75,-27.07"/>
<text text-anchor="middle" x="535" y="-344.3" font-family="Times,serif" font-size="14.00">1</text>
</g>
<!-- 7&#45;&gt;1 -->
<g id="edge86" class="edge">
<title>7&#45;&gt;1</title>
<path fill="none" stroke="black" d="M1468.25,-1644.03C1458.17,-1637.1 1446.18,-1627.48 1438,-1616.49 1432.82,-1609.53 1428.77,-1601.04 1425.71,-1593.05"/>
<polygon fill="black" stroke="black" points="1428.93,-1591.65 1422.35,-1583.35 1422.31,-1593.94 1428.93,-1591.65"/>
<text text-anchor="middle" x="1443" y="-1605.29" font-family="Times,serif" font-size="14.00">1</text>
</g>
<!-- 7&#45;&gt;3 -->
<g id="edge14" class="edge">
<title>7&#45;&gt;3</title>
<path fill="none" stroke="black" d="M1488.78,-1678.52C1490.21,-1697.36 1492,-1725.75 1492,-1750.49 1492,-2017.49 1492,-2017.49 1492,-2017.49 1492,-2082.42 989.71,-2101.66 856.24,-2105.63"/>
<polygon fill="black" stroke="black" points="856.12,-2102.13 846.23,-2105.92 856.32,-2109.13 856.12,-2102.13"/>
<text text-anchor="middle" x="1497" y="-1882.29" font-family="Times,serif" font-size="14.00">0</text>
</g>
<!-- 7&#45;&gt;4 -->
<g id="edge101" class="edge">
<title>7&#45;&gt;4</title>
<path fill="none" stroke="black" d="M1508.16,-1650.38C1569.16,-1635.67 1745.73,-1593.08 1821.16,-1574.89"/>
<polygon fill="black" stroke="black" points="1822.21,-1578.24 1831.11,-1572.49 1820.57,-1571.43 1822.21,-1578.24"/>
<text text-anchor="middle" x="1709" y="-1605.29" font-family="Times,serif" font-size="14.00">4</text>
</g>
<!-- 7&#45;&gt;15 -->
<g id="edge85" class="edge">
<title>7&#45;&gt;15</title>
<path fill="none" stroke="black" d="M1467.25,-1666.55C1402.42,-1696.3 1195.77,-1791.12 1116.95,-1827.29"/>
<polygon fill="black" stroke="black" points="1115.19,-1824.24 1107.56,-1831.6 1118.11,-1830.61 1115.19,-1824.24"/>
<text text-anchor="middle" x="1331" y="-1747.79" font-family="Times,serif" font-size="14.00">3</text>
</g>
<!-- 25 -->
<g id="node27" class="node">
<title>25</title>
<ellipse fill="none" stroke="black" cx="1805" cy="-391.5" rx="27" ry="18"/>
<text text-anchor="middle" x="1805" y="-387.8" font-family="Times,serif" font-size="14.00">25</text>
</g>
<!-- 7&#45;&gt;25 -->
<g id="edge7" class="edge">
<title>7&#45;&gt;25</title>
<path fill="none" stroke="black" d="M1489.28,-1634.51C1495.15,-1583.43 1512.59,-1448.85 1544,-1340.49 1569.64,-1252.02 1590.23,-1234.94 1622,-1148.49 1723.34,-872.68 1784.62,-519.56 1800.72,-419.81"/>
<polygon fill="black" stroke="black" points="1804.22,-420.11 1802.34,-409.68 1797.31,-419 1804.22,-420.11"/>
<text text-anchor="middle" x="1667" y="-1039.79" font-family="Times,serif" font-size="14.00">2</text>
</g>
<!-- 8&#45;&gt;0 -->
<g id="edge105" class="edge">
<title>8&#45;&gt;0</title>
<path fill="none" stroke="black" d="M2081.16,-777.16C2087.19,-783.96 2093.7,-792.37 2098,-800.99 2104.73,-814.5 2102.55,-819.3 2106,-833.99 2108.24,-843.52 2262,-1511.2 2262,-1520.99 2262,-2108.49 2262,-2108.49 2262,-2108.49 2262,-2155.53 2108.63,-2182.69 2036.58,-2192.85"/>
<polygon fill="black" stroke="black" points="2035.99,-2189.4 2026.56,-2194.23 2036.95,-2196.33 2035.99,-2189.4"/>
<text text-anchor="middle" x="2261" y="-1474.79" font-family="Times,serif" font-size="14.00">4</text>
</g>
<!-- 8&#45;&gt;6 -->
<g id="edge119" class="edge">
<title>8&#45;&gt;6</title>
<path fill="none" stroke="black" d="M2043.9,-758.61C1882.35,-748.52 883.86,-686.16 678.07,-673.31"/>
<polygon fill="black" stroke="black" points="677.99,-669.8 667.8,-672.67 677.56,-676.78 677.99,-669.8"/>
<text text-anchor="middle" x="1443" y="-709.79" font-family="Times,serif" font-size="14.00">0</text>
</g>
<!-- 8&#45;&gt;25 -->
<g id="edge11" class="edge">
<title>8&#45;&gt;25</title>
<path fill="none" stroke="black" d="M2077.32,-742.01C2087.21,-724.55 2100,-696.96 2100,-670.99 2100,-670.99 2100,-670.99 2100,-486.24 2100,-432.56 1920.34,-405.57 1841.43,-396.31"/>
<polygon fill="black" stroke="black" points="1841.77,-392.82 1831.44,-395.17 1840.98,-399.78 1841.77,-392.82"/>
<text text-anchor="middle" x="2105" y="-579.29" font-family="Times,serif" font-size="14.00">3</text>
</g>
<!-- 8&#45;&gt;26 -->
<g id="edge94" class="edge">
<title>8&#45;&gt;26</title>
<path fill="none" stroke="black" d="M2045.98,-770.43C1990.49,-793.86 1830.15,-861.89 1698,-920.99 1614.41,-958.38 1595.7,-972.69 1511,-1007.49 1490.08,-1016.08 1466.2,-1024.71 1447.36,-1031.26"/>
<polygon fill="black" stroke="black" points="1446.06,-1028 1437.74,-1034.57 1448.33,-1034.62 1446.06,-1028"/>
<text text-anchor="middle" x="1776" y="-891.79" font-family="Times,serif" font-size="14.00">1</text>
</g>
<!-- 8&#45;&gt;27 -->
<g id="edge5" class="edge">
<title>8&#45;&gt;27</title>
<path fill="none" stroke="black" d="M2062.91,-783.05C2059.35,-809.14 2054,-854.99 2054,-894.49 2054,-1174.99 2054,-1174.99 2054,-1174.99 2054,-1280.18 2055.59,-1308.79 2086,-1409.49 2101.92,-1462.2 2140,-1465.93 2140,-1520.99 2140,-1704.99 2140,-1704.99 2140,-1704.99 2140,-1844.62 2094.3,-1888.79 1989,-1980.49 1973.12,-1994.31 1951.22,-2002.94 1932.77,-2008.16"/>
<polygon fill="black" stroke="black" points="1931.73,-2004.82 1922.94,-2010.73 1933.5,-2011.59 1931.73,-2004.82"/>
<text text-anchor="middle" x="2091" y="-1387.79" font-family="Times,serif" font-size="14.00">2</text>
</g>
<!-- 9&#45;&gt;5 -->
<g id="edge95" class="edge">
<title>9&#45;&gt;5</title>
<path fill="none" stroke="black" d="M628.91,-582.06C576.07,-580.85 457.8,-571.39 382,-513.99 314.72,-463.04 288,-433.39 288,-349 288,-349 288,-349 288,-112 288,-92.99 288,-71.69 288,-54.7"/>
<polygon fill="black" stroke="black" points="291.5,-54.22 288,-44.22 284.5,-54.22 291.5,-54.22"/>
<text text-anchor="middle" x="293" y="-300.8" font-family="Times,serif" font-size="14.00">2</text>
</g>
<!-- 12 -->
<g id="node14" class="node">
<title>12</title>
<ellipse fill="none" stroke="black" cx="718" cy="-487.24" rx="22.96" ry="22.96"/>
<ellipse fill="none" stroke="black" cx="718" cy="-487.24" rx="27" ry="27"/>
<text text-anchor="middle" x="718" y="-483.54" font-family="Times,serif" font-size="14.00">12</text>
</g>
<!-- 9&#45;&gt;12 -->
<g id="edge126" class="edge">
<title>9&#45;&gt;12</title>
<path fill="none" stroke="black" d="M653.11,-564.82C652.25,-554.69 652.68,-541.95 658,-531.99 661.5,-525.43 674.03,-515.9 686.75,-507.4"/>
<polygon fill="black" stroke="black" points="688.99,-510.12 695.47,-501.74 685.17,-504.25 688.99,-510.12"/>
<text text-anchor="middle" x="663" y="-535.79" font-family="Times,serif" font-size="14.00">1</text>
</g>
<!-- 20 -->
<g id="node22" class="node">
<title>20</title>
<ellipse fill="none" stroke="black" cx="1098" cy="-304.5" rx="27" ry="18"/>
<text text-anchor="middle" x="1098" y="-300.8" font-family="Times,serif" font-size="14.00">20</text>
</g>
<!-- 9&#45;&gt;20 -->
<g id="edge42" class="edge">
<title>9&#45;&gt;20</title>
<path fill="none" stroke="black" d="M651.49,-564.81C649.56,-555.13 648.14,-542.85 650,-531.99 665.37,-442.37 647,-391.9 722,-340.5 762.1,-313.01 891.61,-327.1 940,-322.5 981.58,-318.54 1029.23,-313.32 1061.24,-309.71"/>
<polygon fill="black" stroke="black" points="1061.92,-313.16 1071.46,-308.55 1061.13,-306.2 1061.92,-313.16"/>
<text text-anchor="middle" x="668" y="-431.3" font-family="Times,serif" font-size="14.00">3</text>
</g>
<!-- 9&#45;&gt;20 -->
<g id="edge61" class="edge">
<title>9&#45;&gt;20</title>
<path fill="none" stroke="black" d="M679.63,-573.64C703.68,-563.68 739.42,-544.44 754,-513.99 764.27,-492.55 757.21,-484.05 754,-460.5 752.88,-452.27 750.12,-450.72 749,-442.5 748.1,-435.89 746.15,-433.52 749,-427.5 765.23,-393.25 781.05,-390.35 815,-373.5 897.28,-332.65 1005.4,-315.53 1061.18,-309.03"/>
<polygon fill="black" stroke="black" points="1061.74,-312.49 1071.29,-307.9 1060.97,-305.53 1061.74,-312.49"/>
<text text-anchor="middle" x="754" y="-431.3" font-family="Times,serif" font-size="14.00">0</text>
</g>
<!-- 9&#45;&gt;22 -->
<g id="edge93" class="edge">
<title>9&#45;&gt;22</title>
<path fill="none" stroke="black" d="M683.13,-581.03C837.35,-575.56 1597.21,-548.57 1609,-546.99 1688.23,-536.4 1779.07,-512.15 1827.1,-498.34"/>
<polygon fill="black" stroke="black" points="1828.33,-501.63 1836.96,-495.48 1826.38,-494.91 1828.33,-501.63"/>
<text text-anchor="middle" x="1697" y="-535.79" font-family="Times,serif" font-size="14.00">4</text>
</g>
<!-- 10&#45;&gt;6 -->
<g id="edge45" class="edge">
<title>10&#45;&gt;6</title>
<path fill="none" stroke="black" d="M1252.23,-844.21C1229.33,-837.72 1194.49,-827.27 1165,-815.99 1087.9,-786.51 1074.65,-764.04 996,-738.99 883.01,-703 743.38,-683.09 678.02,-675.13"/>
<polygon fill="black" stroke="black" points="678.16,-671.62 667.81,-673.91 677.33,-678.57 678.16,-671.62"/>
<text text-anchor="middle" x="1098" y="-757.29" font-family="Times,serif" font-size="14.00">0</text>
</g>
<!-- 10&#45;&gt;8 -->
<g id="edge136" class="edge">
<title>10&#45;&gt;8</title>
<path fill="none" stroke="black" d="M1303.7,-847.98C1422.7,-834.56 1904.5,-780.21 2033.89,-765.61"/>
<polygon fill="black" stroke="black" points="2034.4,-769.08 2043.95,-764.48 2033.62,-762.12 2034.4,-769.08"/>
<text text-anchor="middle" x="1723" y="-804.79" font-family="Times,serif" font-size="14.00">2</text>
</g>
<!-- 10&#45;&gt;12 -->
<g id="edge52" class="edge">
<title>10&#45;&gt;12</title>
<path fill="none" stroke="black" d="M1258.4,-838.92C1176.94,-786.06 851.11,-574.62 748.86,-508.27"/>
<polygon fill="black" stroke="black" points="750.52,-505.17 740.23,-502.67 746.71,-511.05 750.52,-505.17"/>
<text text-anchor="middle" x="1028" y="-666.29" font-family="Times,serif" font-size="14.00">1</text>
</g>
<!-- 10&#45;&gt;16 -->
<g id="edge134" class="edge">
<title>10&#45;&gt;16</title>
<path fill="none" stroke="black" d="M1275.67,-870.29C1274.23,-880.46 1271.24,-893.2 1265,-902.99 1258.94,-912.51 1250.08,-920.85 1241.24,-927.64"/>
<polygon fill="black" stroke="black" points="1238.95,-924.98 1232.86,-933.65 1243.02,-930.66 1238.95,-924.98"/>
<text text-anchor="middle" x="1276" y="-891.79" font-family="Times,serif" font-size="14.00">4</text>
</g>
<!-- 10&#45;&gt;18 -->
<g id="edge108" class="edge">
<title>10&#45;&gt;18</title>
<path fill="none" stroke="black" d="M1275.64,-833.74C1268.12,-738.76 1231.85,-282.75 1226,-253.5 1225.36,-250.29 1224.56,-246.99 1223.68,-243.7"/>
<polygon fill="black" stroke="black" points="1227.01,-242.63 1220.83,-234.02 1220.3,-244.6 1227.01,-242.63"/>
<text text-anchor="middle" x="1257" y="-535.79" font-family="Times,serif" font-size="14.00">3</text>
</g>
<!-- 11&#45;&gt;13 -->
<g id="edge81" class="edge">
<title>11&#45;&gt;13</title>
<path fill="none" stroke="black" d="M368.61,-1214.34C511.98,-1202.79 1192.29,-1147.98 1359.71,-1134.49"/>
<polygon fill="black" stroke="black" points="1360.3,-1137.96 1369.98,-1133.66 1359.74,-1130.98 1360.3,-1137.96"/>
<text text-anchor="middle" x="938" y="-1170.29" font-family="Times,serif" font-size="14.00">2</text>
</g>
<!-- 11&#45;&gt;17 -->
<g id="edge22" class="edge">
<title>11&#45;&gt;17</title>
<path fill="none" stroke="black" d="M332.26,-1234.65C329.32,-1240.4 326.48,-1247.04 325,-1253.49 323.51,-1259.98 324.74,-1261.83 325,-1268.49 329.45,-1380.97 301.09,-1680.81 365,-1773.49 375.61,-1788.87 386.17,-1783.36 403,-1791.49 432.89,-1805.93 441.54,-1807.41 470,-1824.49 515.06,-1851.52 518.67,-1870.67 566,-1893.49 594.16,-1907.06 628.53,-1916.24 653.93,-1921.79"/>
<polygon fill="black" stroke="black" points="653.38,-1925.25 663.88,-1923.87 654.81,-1918.4 653.38,-1925.25"/>
<text text-anchor="middle" x="330" y="-1561.79" font-family="Times,serif" font-size="14.00">0</text>
</g>
<!-- 23 -->
<g id="node25" class="node">
<title>23</title>
<ellipse fill="none" stroke="black" cx="851" cy="-391.5" rx="27" ry="18"/>
<text text-anchor="middle" x="851" y="-387.8" font-family="Times,serif" font-size="14.00">23</text>
</g>
<!-- 11&#45;&gt;23 -->
<g id="edge71" class="edge">
<title>11&#45;&gt;23</title>
<path fill="none" stroke="black" d="M342,-1199.23C342,-1182.06 342,-1154.95 342,-1131.49 342,-1131.49 342,-1131.49 342,-894.49 342,-825.1 308.97,-805.72 328,-738.99 340.48,-695.23 352.33,-686.5 382,-651.99 505.41,-508.43 564.61,-487.99 744,-427.5 768.51,-419.23 796.28,-410.16 817.38,-403.32"/>
<polygon fill="black" stroke="black" points="818.72,-406.56 827.16,-400.16 816.57,-399.9 818.72,-406.56"/>
<text text-anchor="middle" x="333" y="-804.79" font-family="Times,serif" font-size="14.00">1</text>
</g>
<!-- 11&#45;&gt;24 -->
<g id="edge38" class="edge">
<title>11&#45;&gt;24</title>
<path fill="none" stroke="black" d="M333.01,-1234.95C328.56,-1245.56 325.55,-1259.09 333,-1268.49 346.75,-1285.84 405.71,-1295.43 445.22,-1300.01"/>
<polygon fill="black" stroke="black" points="444.97,-1303.51 455.29,-1301.12 445.74,-1296.55 444.97,-1303.51"/>
<text text-anchor="middle" x="338" y="-1257.29" font-family="Times,serif" font-size="14.00">4</text>
</g>
<!-- 11&#45;&gt;24 -->
<g id="edge143" class="edge">
<title>11&#45;&gt;24</title>
<path fill="none" stroke="black" d="M345.96,-1235.53C349.31,-1246.39 355.19,-1259.97 365,-1268.49 387.37,-1287.92 420.18,-1296.56 445.37,-1300.41"/>
<polygon fill="black" stroke="black" points="444.92,-1303.88 455.3,-1301.74 445.85,-1296.94 444.92,-1303.88"/>
<text text-anchor="middle" x="370" y="-1257.29" font-family="Times,serif" font-size="14.00">3</text>
</g>
<!-- 12&#45;&gt;9 -->
<g id="edge24" class="edge">
<title>12&#45;&gt;9</title>
<path fill="none" stroke="black" d="M699.8,-506.95C693.09,-514.39 685.75,-523.25 680,-531.99 675.11,-539.43 670.63,-548.01 666.89,-555.95"/>
<polygon fill="black" stroke="black" points="663.64,-554.63 662.72,-565.18 670.03,-557.5 663.64,-554.63"/>
<text text-anchor="middle" x="685" y="-535.79" font-family="Times,serif" font-size="14.00">4</text>
</g>
<!-- 12&#45;&gt;9 -->
<g id="edge35" class="edge">
<title>12&#45;&gt;9</title>
<path fill="none" stroke="black" d="M708.63,-512.37C703.82,-523.39 697.42,-536.33 690,-546.99 686.73,-551.69 682.83,-556.34 678.84,-560.64"/>
<polygon fill="black" stroke="black" points="676.19,-558.35 671.71,-567.95 681.2,-563.24 676.19,-558.35"/>
<text text-anchor="middle" x="704" y="-535.79" font-family="Times,serif" font-size="14.00">2</text>
</g>
<!-- 12&#45;&gt;13 -->
<g id="edge135" class="edge">
<title>12&#45;&gt;13</title>
<path fill="none" stroke="black" d="M733.66,-508.99C738.61,-516.07 743.87,-524.18 748,-531.99 880.61,-782.61 806.79,-947.07 1049,-1094.49 1100.34,-1125.73 1280.33,-1129.58 1359.34,-1129.72"/>
<polygon fill="black" stroke="black" points="1359.8,-1133.22 1369.79,-1129.72 1359.79,-1126.22 1359.8,-1133.22"/>
<text text-anchor="middle" x="852" y="-804.79" font-family="Times,serif" font-size="14.00">0</text>
</g>
<!-- 12&#45;&gt;20 -->
<g id="edge109" class="edge">
<title>12&#45;&gt;20</title>
<path fill="none" stroke="black" d="M712.47,-461.03C706.77,-427.44 703.02,-368.94 738,-340.5 755.48,-326.28 917.57,-324.7 940,-322.5 981.57,-318.41 1029.22,-313.21 1061.23,-309.64"/>
<polygon fill="black" stroke="black" points="1061.91,-313.09 1071.46,-308.5 1061.13,-306.13 1061.91,-313.09"/>
<text text-anchor="middle" x="721" y="-387.8" font-family="Times,serif" font-size="14.00">3</text>
</g>
<!-- 12&#45;&gt;23 -->
<g id="edge53" class="edge">
<title>12&#45;&gt;23</title>
<path fill="none" stroke="black" d="M735.81,-467C747.81,-454.72 764.42,-439.01 781,-427.5 792.92,-419.22 807.07,-411.76 819.52,-405.87"/>
<polygon fill="black" stroke="black" points="821.01,-409.04 828.65,-401.69 818.1,-402.67 821.01,-409.04"/>
<text text-anchor="middle" x="786" y="-431.3" font-family="Times,serif" font-size="14.00">1</text>
</g>
<!-- 13&#45;&gt;1 -->
<g id="edge110" class="edge">
<title>13&#45;&gt;1</title>
<path fill="none" stroke="black" d="M1391.62,-1148.22C1386.64,-1165.23 1380,-1192.41 1380,-1216.49 1380,-1479.49 1380,-1479.49 1380,-1479.49 1380,-1501.58 1390.83,-1524.32 1400.93,-1540.71"/>
<polygon fill="black" stroke="black" points="1398.01,-1542.63 1406.39,-1549.12 1403.88,-1538.82 1398.01,-1542.63"/>
<text text-anchor="middle" x="1385" y="-1344.29" font-family="Times,serif" font-size="14.00">4</text>
</g>
<!-- 13&#45;&gt;9 -->
<g id="edge23" class="edge">
<title>13&#45;&gt;9</title>
<path fill="none" stroke="black" d="M1369.83,-1129.47C1294.13,-1129.02 1082.33,-1125.01 1021,-1094.49 872.62,-1020.64 857.18,-958.76 773,-815.99 732.92,-748.02 743.43,-720.91 705,-651.99 696.3,-636.4 684.69,-620.13 674.95,-607.42"/>
<polygon fill="black" stroke="black" points="677.48,-604.97 668.57,-599.24 671.96,-609.28 677.48,-604.97"/>
<text text-anchor="middle" x="810" y="-848.29" font-family="Times,serif" font-size="14.00">0</text>
</g>
<!-- 13&#45;&gt;20 -->
<g id="edge114" class="edge">
<title>13&#45;&gt;20</title>
<path fill="none" stroke="black" d="M1410.92,-1114.93C1422.77,-1101.85 1439.48,-1081.66 1450,-1061.49 1518.6,-929.96 1580.2,-880.59 1536,-738.99 1468.99,-524.3 1353.71,-523.36 1186,-373.5 1169.32,-358.59 1165.63,-354.26 1148,-340.5 1140.68,-334.78 1132.5,-328.87 1124.92,-323.57"/>
<polygon fill="black" stroke="black" points="1126.6,-320.48 1116.38,-317.69 1122.63,-326.24 1126.6,-320.48"/>
<text text-anchor="middle" x="1534" y="-709.79" font-family="Times,serif" font-size="14.00">1</text>
</g>
<!-- 13&#45;&gt;26 -->
<g id="edge18" class="edge">
<title>13&#45;&gt;26</title>
<path fill="none" stroke="black" d="M1400.44,-1112.29C1402.78,-1100.57 1405.93,-1084.83 1408.61,-1071.46"/>
<polygon fill="black" stroke="black" points="1412.09,-1071.87 1410.62,-1061.37 1405.23,-1070.49 1412.09,-1071.87"/>
<text text-anchor="middle" x="1411" y="-1083.29" font-family="Times,serif" font-size="14.00">3</text>
</g>
<!-- 13&#45;&gt;26 -->
<g id="edge40" class="edge">
<title>13&#45;&gt;26</title>
<path fill="none" stroke="black" d="M1391.01,-1112.53C1388.43,-1102.7 1386.68,-1090.2 1390,-1079.49 1391.22,-1075.56 1393.04,-1071.69 1395.15,-1068.02"/>
<polygon fill="black" stroke="black" points="1398.22,-1069.73 1400.81,-1059.45 1392.38,-1065.87 1398.22,-1069.73"/>
<text text-anchor="middle" x="1395" y="-1083.29" font-family="Times,serif" font-size="14.00">2</text>
</g>
<!-- 14 -->
<g id="node16" class="node">
<title>14</title>
<ellipse fill="none" stroke="black" cx="1419" cy="-391.5" rx="27" ry="18"/>
<text text-anchor="middle" x="1419" y="-387.8" font-family="Times,serif" font-size="14.00">14</text>
</g>
<!-- 14&#45;&gt;10 -->
<g id="edge68" class="edge">
<title>14&#45;&gt;10</title>
<path fill="none" stroke="black" d="M1423.38,-409.37C1438.42,-471.39 1481.67,-689.69 1382,-815.99 1373.16,-827.19 1339.23,-837.18 1312.31,-843.59"/>
<polygon fill="black" stroke="black" points="1311.36,-840.21 1302.4,-845.86 1312.93,-847.04 1311.36,-840.21"/>
<text text-anchor="middle" x="1449" y="-622.79" font-family="Times,serif" font-size="14.00">1</text>
</g>
<!-- 14&#45;&gt;11 -->
<g id="edge130" class="edge">
<title>14&#45;&gt;11</title>
<path fill="none" stroke="black" d="M1392.13,-394.75C1261.55,-405.74 698.74,-453.44 682,-460.5 656.98,-471.04 511.9,-596.98 496,-618.99 457.3,-672.56 384,-828.4 384,-894.49 384,-1131.49 384,-1131.49 384,-1131.49 384,-1153.99 372.03,-1176.69 360.87,-1192.97"/>
<polygon fill="black" stroke="black" points="357.86,-1191.16 354.83,-1201.31 363.53,-1195.26 357.86,-1191.16"/>
<text text-anchor="middle" x="412" y="-804.79" font-family="Times,serif" font-size="14.00">2</text>
</g>
<!-- 14&#45;&gt;18 -->
<g id="edge70" class="edge">
<title>14&#45;&gt;18</title>
<path fill="none" stroke="black" d="M1406.67,-375.35C1395.71,-361.73 1379.4,-341.07 1366,-322.5 1344.43,-292.61 1348.57,-276.78 1320,-253.5 1299.06,-236.43 1270.57,-225.26 1248.12,-218.49"/>
<polygon fill="black" stroke="black" points="1248.85,-215.05 1238.27,-215.68 1246.93,-221.79 1248.85,-215.05"/>
<text text-anchor="middle" x="1371" y="-300.8" font-family="Times,serif" font-size="14.00">4</text>
</g>
<!-- 14&#45;&gt;20 -->
<g id="edge39" class="edge">
<title>14&#45;&gt;20</title>
<path fill="none" stroke="black" d="M1394.34,-383.97C1337.63,-368.95 1197.78,-331.92 1132.54,-314.64"/>
<polygon fill="black" stroke="black" points="1133.3,-311.22 1122.74,-312.05 1131.51,-317.99 1133.3,-311.22"/>
<text text-anchor="middle" x="1282" y="-344.3" font-family="Times,serif" font-size="14.00">3</text>
</g>
<!-- 14&#45;&gt;29 -->
<g id="edge58" class="edge">
<title>14&#45;&gt;29</title>
<path fill="none" stroke="black" d="M1446.12,-390.33C1512.65,-388.28 1683.86,-372.65 1757,-268.5 1808.32,-195.41 1726.92,-90.13 1686.1,-44.95"/>
<polygon fill="black" stroke="black" points="1688.58,-42.47 1679.23,-37.48 1683.43,-47.21 1688.58,-42.47"/>
<text text-anchor="middle" x="1778" y="-205.05" font-family="Times,serif" font-size="14.00">0</text>
</g>
<!-- 15&#45;&gt;2 -->
<g id="edge19" class="edge">
<title>15&#45;&gt;2</title>
<path fill="none" stroke="black" d="M1113.09,-1841.24C1207.98,-1840.15 1524.88,-1834.43 1622,-1806.49 1648.68,-1798.81 1676.24,-1783.26 1695.66,-1770.81"/>
<polygon fill="black" stroke="black" points="1697.8,-1773.59 1704.23,-1765.17 1693.95,-1767.74 1697.8,-1773.59"/>
<text text-anchor="middle" x="1661" y="-1795.29" font-family="Times,serif" font-size="14.00">3</text>
</g>
<!-- 15&#45;&gt;16 -->
<g id="edge129" class="edge">
<title>15&#45;&gt;16</title>
<path fill="none" stroke="black" d="M1068.78,-1828.44C1050.13,-1812.68 1023,-1784.29 1023,-1752.49 1023,-1752.49 1023,-1752.49 1023,-1607.99 1023,-1573 1019.01,-1564.42 1017,-1529.49 1012.38,-1449.34 1010,-1429.27 1010,-1348.99 1010,-1348.99 1010,-1348.99 1010,-1129.49 1010,-1084.51 1122.75,-1005.17 1178.94,-968.43"/>
<polygon fill="black" stroke="black" points="1180.96,-971.29 1187.45,-962.91 1177.15,-965.42 1180.96,-971.29"/>
<text text-anchor="middle" x="1016" y="-1387.79" font-family="Times,serif" font-size="14.00">1</text>
</g>
<!-- 15&#45;&gt;17 -->
<g id="edge127" class="edge">
<title>15&#45;&gt;17</title>
<path fill="none" stroke="black" d="M1059.32,-1846.11C1015.48,-1850.73 925.6,-1861.46 851,-1878.49 805.94,-1888.78 755.21,-1905.4 722.95,-1916.62"/>
<polygon fill="black" stroke="black" points="721.43,-1913.45 713.16,-1920.06 723.75,-1920.05 721.43,-1913.45"/>
<text text-anchor="middle" x="856" y="-1882.29" font-family="Times,serif" font-size="14.00">2</text>
</g>
<!-- 15&#45;&gt;19 -->
<g id="edge41" class="edge">
<title>15&#45;&gt;19</title>
<path fill="none" stroke="black" d="M1113.36,-1841.46C1254.94,-1841.18 1901,-1838.15 1984,-1806.49 2005.53,-1798.27 2010.01,-1791.8 2024,-1773.49 2090.91,-1685.92 2076.66,-1646.03 2126,-1547.49 2169.64,-1460.33 2193.35,-1444.97 2232,-1355.49 2265.41,-1278.13 2290,-1259.25 2290,-1174.99 2290,-1174.99 2290,-1174.99 2290,-807.49 2290,-726.99 2259.02,-711.7 2238,-633.99 2206.89,-519.01 2209.04,-487.64 2175,-373.5 2163.27,-334.16 2162.69,-323.04 2144,-286.5 2118.32,-236.28 2113.42,-220.28 2072,-182 2050.5,-162.13 2042.86,-157.99 2015,-149 1957.55,-130.46 1780.1,-119.68 1702.25,-115.73"/>
<polygon fill="black" stroke="black" points="1702.11,-112.22 1691.95,-115.22 1701.76,-119.21 1702.11,-112.22"/>
<text text-anchor="middle" x="2295" y="-996.29" font-family="Times,serif" font-size="14.00">4</text>
</g>
<!-- 15&#45;&gt;22 -->
<g id="edge132" class="edge">
<title>15&#45;&gt;22</title>
<path fill="none" stroke="black" d="M1113.36,-1841.21C1257.69,-1839.67 1925.35,-1831.2 1961,-1806.49 2091.04,-1716.35 2016,-1582.58 2016,-1174.99 2016,-1174.99 2016,-1174.99 2016,-581.99 2016,-526.73 1942.98,-503.17 1897.18,-493.82"/>
<polygon fill="black" stroke="black" points="1897.77,-490.37 1887.29,-491.93 1896.46,-497.24 1897.77,-490.37"/>
<text text-anchor="middle" x="2021" y="-1170.29" font-family="Times,serif" font-size="14.00">0</text>
</g>
<!-- 16&#45;&gt;10 -->
<g id="edge60" class="edge">
<title>16&#45;&gt;10</title>
<path fill="none" stroke="black" d="M1225.2,-925.47C1235.53,-911.02 1249.21,-891.88 1259.91,-876.9"/>
<polygon fill="black" stroke="black" points="1262.86,-878.8 1265.82,-868.63 1257.16,-874.73 1262.86,-878.8"/>
<text text-anchor="middle" x="1256" y="-891.79" font-family="Times,serif" font-size="14.00">2</text>
</g>
<!-- 16&#45;&gt;15 -->
<g id="edge31" class="edge">
<title>16&#45;&gt;15</title>
<path fill="none" stroke="black" d="M1199.47,-972.47C1185.34,-1006.52 1162,-1071.53 1162,-1129.49 1162,-1261.99 1162,-1261.99 1162,-1261.99 1162,-1385.54 1061,-1397.43 1061,-1520.99 1061,-1752.49 1061,-1752.49 1061,-1752.49 1061,-1774.36 1068.08,-1798.16 1074.71,-1815.64"/>
<polygon fill="black" stroke="black" points="1071.54,-1817.15 1078.5,-1825.14 1078.04,-1814.56 1071.54,-1817.15"/>
<text text-anchor="middle" x="1129" y="-1387.79" font-family="Times,serif" font-size="14.00">1</text>
</g>
<!-- 16&#45;&gt;18 -->
<g id="edge96" class="edge">
<title>16&#45;&gt;18</title>
<path fill="none" stroke="black" d="M1183.46,-942.09C1161.71,-936.73 1132.26,-925.57 1118,-902.99 1114.44,-897.36 1117.8,-894.66 1118,-887.99 1120.45,-806.99 1119.86,-786.51 1129,-705.99 1148.73,-532.18 1188.38,-326.63 1204.72,-245.36"/>
<polygon fill="black" stroke="black" points="1208.22,-245.68 1206.77,-235.18 1201.36,-244.29 1208.22,-245.68"/>
<text text-anchor="middle" x="1152" y="-579.29" font-family="Times,serif" font-size="14.00">4</text>
</g>
<!-- 16&#45;&gt;19 -->
<g id="edge83" class="edge">
<title>16&#45;&gt;19</title>
<path fill="none" stroke="black" d="M1183.75,-941.08C1161.84,-935.09 1131.19,-923.56 1112,-902.99 1059.05,-846.25 1087.11,-808.21 1052,-738.99 1039.68,-714.7 1027.96,-713.35 1018,-687.99 1009.37,-666.02 951.9,-292.03 950,-268.5 949.46,-261.85 946.06,-258.87 950,-253.5 1012.25,-168.51 1073.24,-205.23 1176,-182 1342.59,-144.35 1546.11,-124.11 1628.14,-116.99"/>
<polygon fill="black" stroke="black" points="1628.55,-120.47 1638.21,-116.13 1627.95,-113.49 1628.55,-120.47"/>
<text text-anchor="middle" x="998" y="-535.79" font-family="Times,serif" font-size="14.00">3</text>
</g>
<!-- 16&#45;&gt;24 -->
<g id="edge72" class="edge">
<title>16&#45;&gt;24</title>
<path fill="none" stroke="black" d="M1185.48,-959.28C1165.38,-968 1136.23,-980.79 1111,-992.49 1000.28,-1043.83 967.53,-1047.85 864,-1112.49 841.98,-1126.24 840.16,-1134.96 818,-1148.49 712.83,-1212.7 576.62,-1267.71 514.93,-1291.25"/>
<polygon fill="black" stroke="black" points="513.45,-1288.07 505.34,-1294.89 515.93,-1294.62 513.45,-1288.07"/>
<text text-anchor="middle" x="869" y="-1126.79" font-family="Times,serif" font-size="14.00">0</text>
</g>
<!-- 17&#45;&gt;15 -->
<g id="edge9" class="edge">
<title>17&#45;&gt;15</title>
<path fill="none" stroke="black" d="M715.37,-1923.04C783.74,-1908.37 971.95,-1867.97 1050.66,-1851.07"/>
<polygon fill="black" stroke="black" points="1051.54,-1854.46 1060.58,-1848.94 1050.07,-1847.62 1051.54,-1854.46"/>
<text text-anchor="middle" x="917" y="-1882.29" font-family="Times,serif" font-size="14.00">1</text>
</g>
<!-- 17&#45;&gt;21 -->
<g id="edge17" class="edge">
<title>17&#45;&gt;21</title>
<path fill="none" stroke="black" d="M667.79,-1918.84C641.72,-1905.83 602,-1880.02 602,-1843.49 602,-1843.49 602,-1843.49 602,-1477.49 602,-1455.69 591.65,-1433.17 581.89,-1416.79"/>
<polygon fill="black" stroke="black" points="584.59,-1414.51 576.3,-1407.91 578.67,-1418.23 584.59,-1414.51"/>
<text text-anchor="middle" x="607" y="-1652.79" font-family="Times,serif" font-size="14.00">0</text>
</g>
<!-- 17&#45;&gt;21 -->
<g id="edge44" class="edge">
<title>17&#45;&gt;21</title>
<path fill="none" stroke="black" d="M664.16,-1924.13C625.22,-1915.91 556,-1894.18 556,-1843.49 556,-1843.49 556,-1843.49 556,-1477.49 556,-1458.13 558.34,-1436.44 560.63,-1419.81"/>
<polygon fill="black" stroke="black" points="564.12,-1420.09 562.1,-1409.69 557.2,-1419.08 564.12,-1420.09"/>
<text text-anchor="middle" x="561" y="-1652.79" font-family="Times,serif" font-size="14.00">4</text>
</g>
<!-- 17&#45;&gt;26 -->
<g id="edge115" class="edge">
<title>17&#45;&gt;26</title>
<path fill="none" stroke="black" d="M700.15,-1912.49C728.31,-1868.17 809.87,-1740.08 879,-1634.49 893.92,-1611.7 899.83,-1607.34 913,-1583.49 962.42,-1493.97 942.49,-1452.83 1007,-1373.49 1114.63,-1241.12 1190.4,-1261.73 1318,-1148.49 1333.66,-1134.59 1370.99,-1093.13 1394.22,-1066.95"/>
<polygon fill="black" stroke="black" points="1396.93,-1069.17 1400.93,-1059.36 1391.69,-1064.53 1396.93,-1069.17"/>
<text text-anchor="middle" x="964" y="-1474.79" font-family="Times,serif" font-size="14.00">2</text>
</g>
<!-- 17&#45;&gt;27 -->
<g id="edge145" class="edge">
<title>17&#45;&gt;27</title>
<path fill="none" stroke="black" d="M716.95,-1931.42C809.31,-1934.69 1121.59,-1946.54 1379,-1965.49 1560.03,-1978.82 1775.95,-2002.02 1860.51,-2011.39"/>
<polygon fill="black" stroke="black" points="1860.3,-2014.89 1870.62,-2012.51 1861.07,-2007.93 1860.3,-2014.89"/>
<text text-anchor="middle" x="1555" y="-1969.29" font-family="Times,serif" font-size="14.00">3</text>
</g>
<!-- 18&#45;&gt;1 -->
<g id="edge120" class="edge">
<title>18&#45;&gt;1</title>
<path fill="none" stroke="black" d="M1227.1,-230.92C1231.64,-237.9 1236.38,-245.83 1240,-253.5 1348.26,-482.73 1374.04,-548.81 1400,-800.99 1417.48,-970.84 1304,-1002.24 1304,-1172.99 1304,-1479.49 1304,-1479.49 1304,-1479.49 1304,-1519.71 1350.17,-1543.16 1383.75,-1554.9"/>
<polygon fill="black" stroke="black" points="1382.67,-1558.23 1393.26,-1558.04 1384.86,-1551.58 1382.67,-1558.23"/>
<text text-anchor="middle" x="1401" y="-891.79" font-family="Times,serif" font-size="14.00">3</text>
</g>
<!-- 18&#45;&gt;7 -->
<g id="edge20" class="edge">
<title>18&#45;&gt;7</title>
<path fill="none" stroke="black" d="M1186.39,-216.62C1123.03,-233.98 964,-279.91 964,-303.5 964,-436 964,-436 964,-436 964,-548.12 943.92,-576.16 952,-687.99 975.68,-1015.98 921.25,-1144.51 1116,-1409.49 1208.48,-1535.32 1386.11,-1615.77 1456.85,-1644.09"/>
<polygon fill="black" stroke="black" points="1455.9,-1647.47 1466.49,-1647.88 1458.47,-1640.96 1455.9,-1647.47"/>
<text text-anchor="middle" x="968" y="-944.04" font-family="Times,serif" font-size="14.00">2</text>
</g>
<!-- 18&#45;&gt;11 -->
<g id="edge47" class="edge">
<title>18&#45;&gt;11</title>
<path fill="none" stroke="black" d="M1185.38,-211.55C1044.58,-221.69 388.73,-276.63 271,-427.5 192.74,-527.78 304,-871.78 304,-998.99 304,-1131.49 304,-1131.49 304,-1131.49 304,-1153.58 314.83,-1176.32 324.93,-1192.71"/>
<polygon fill="black" stroke="black" points="322.01,-1194.63 330.39,-1201.12 327.88,-1190.82 322.01,-1194.63"/>
<text text-anchor="middle" x="267" y="-709.79" font-family="Times,serif" font-size="14.00">1</text>
</g>
<!-- 18&#45;&gt;18 -->
<g id="edge111" class="edge">
<title>18&#45;&gt;18</title>
<path fill="none" stroke="black" d="M1237.3,-218.41C1247.83,-219.08 1256.75,-215.86 1256.75,-208.75 1256.75,-204.08 1252.91,-201.09 1247.29,-199.77"/>
<polygon fill="black" stroke="black" points="1247.52,-196.28 1237.3,-199.08 1247.04,-203.27 1247.52,-196.28"/>
<text text-anchor="middle" x="1261.75" y="-205.05" font-family="Times,serif" font-size="14.00">0</text>
</g>
<!-- 18&#45;&gt;19 -->
<g id="edge46" class="edge">
<title>18&#45;&gt;19</title>
<path fill="none" stroke="black" d="M1238.87,-205.58C1280.67,-201.5 1363.21,-190.55 1428,-164 1439.29,-159.37 1439.62,-153.41 1451,-149 1510.18,-126.05 1584.23,-118.15 1627.89,-115.43"/>
<polygon fill="black" stroke="black" points="1628.26,-118.91 1638.05,-114.85 1627.87,-111.92 1628.26,-118.91"/>
<text text-anchor="middle" x="1456" y="-152.8" font-family="Times,serif" font-size="14.00">4</text>
</g>
<!-- 19&#45;&gt;5 -->
<g id="edge112" class="edge">
<title>19&#45;&gt;5</title>
<path fill="none" stroke="black" d="M1638.11,-110.26C1464.92,-99.07 507.87,-37.21 320.01,-25.07"/>
<polygon fill="black" stroke="black" points="320.15,-21.57 309.95,-24.42 319.7,-28.56 320.15,-21.57"/>
<text text-anchor="middle" x="1104" y="-65.8" font-family="Times,serif" font-size="14.00">0</text>
</g>
<!-- 19&#45;&gt;12 -->
<g id="edge26" class="edge">
<title>19&#45;&gt;12</title>
<path fill="none" stroke="black" d="M1637.99,-115.42C1530.08,-121.31 1129.91,-145.24 1009,-182 869.59,-224.39 821.45,-234 722,-340.5 690.63,-374.09 698.39,-397.02 705,-442.5 705.44,-445.53 706.05,-448.66 706.76,-451.76"/>
<polygon fill="black" stroke="black" points="703.4,-452.75 709.31,-461.54 710.17,-450.98 703.4,-452.75"/>
<text text-anchor="middle" x="782" y="-300.8" font-family="Times,serif" font-size="14.00">2</text>
</g>
<!-- 19&#45;&gt;13 -->
<g id="edge103" class="edge">
<title>19&#45;&gt;13</title>
<path fill="none" stroke="black" d="M1665,-131.28C1665,-150.09 1665,-181.06 1665,-207.75 1665,-436 1665,-436 1665,-436 1665,-676.48 1731.5,-765.8 1612,-974.49 1570.18,-1047.52 1478.37,-1095.32 1429.35,-1116.66"/>
<polygon fill="black" stroke="black" points="1427.69,-1113.56 1419.86,-1120.69 1430.43,-1120 1427.69,-1113.56"/>
<text text-anchor="middle" x="1682" y="-622.79" font-family="Times,serif" font-size="14.00">3</text>
</g>
<!-- 19&#45;&gt;15 -->
<g id="edge50" class="edge">
<title>19&#45;&gt;15</title>
<path fill="none" stroke="black" d="M1691.69,-116.22C1767.38,-123.26 1978,-148.19 1978,-207.75 1978,-714.49 1978,-714.49 1978,-714.49 1978,-820.42 1910.48,-828.42 1859,-920.99 1836.6,-961.27 1677.97,-1242.91 1663,-1286.49 1639.46,-1355.04 1608,-1535.51 1608,-1607.99 1608,-1752.49 1608,-1752.49 1608,-1752.49 1608,-1801.74 1242.27,-1830.9 1123.07,-1839.09"/>
<polygon fill="black" stroke="black" points="1122.71,-1835.61 1112.97,-1839.78 1123.18,-1842.59 1122.71,-1835.61"/>
<text text-anchor="middle" x="1823" y="-996.29" font-family="Times,serif" font-size="14.00">4</text>
</g>
<!-- 19&#45;&gt;29 -->
<g id="edge76" class="edge">
<title>19&#45;&gt;29</title>
<path fill="none" stroke="black" d="M1665,-94.84C1665,-82.28 1665,-64.98 1665,-50.5"/>
<polygon fill="black" stroke="black" points="1668.5,-50.11 1665,-40.11 1661.5,-50.11 1668.5,-50.11"/>
<text text-anchor="middle" x="1670" y="-65.8" font-family="Times,serif" font-size="14.00">1</text>
</g>
<!-- 20&#45;&gt;3 -->
<g id="edge107" class="edge">
<title>20&#45;&gt;3</title>
<path fill="none" stroke="black" d="M1071.09,-307.48C984.46,-313.9 717.44,-334.11 700,-340.5 594.21,-379.25 379.68,-572.35 300,-651.99 240.13,-711.84 190,-722.84 190,-807.49 190,-1174.99 190,-1174.99 190,-1174.99 190,-1291.33 152,-1317.64 152,-1433.99 152,-1609.99 152,-1609.99 152,-1609.99 152,-1700.11 228,-1707.86 228,-1797.99 228,-2017.49 228,-2017.49 228,-2017.49 228,-2080.22 298.82,-2053.62 360,-2067.49 518.93,-2103.52 715.27,-2106.99 791.56,-2106.84"/>
<polygon fill="black" stroke="black" points="791.94,-2110.33 801.93,-2106.79 791.91,-2103.33 791.94,-2110.33"/>
<text text-anchor="middle" x="195" y="-1213.79" font-family="Times,serif" font-size="14.00">4</text>
</g>
<!-- 20&#45;&gt;15 -->
<g id="edge34" class="edge">
<title>20&#45;&gt;15</title>
<path fill="none" stroke="black" d="M1120.96,-314.19C1179.2,-336.46 1331.14,-396 1375,-427.5 1383.92,-433.9 1598,-570.1 1598,-712.49 1598,-896.49 1598,-896.49 1598,-896.49 1598,-1095.28 1558.16,-1142.21 1544,-1340.49 1532.25,-1505 1634.89,-1579.5 1536,-1711.49 1485.31,-1779.15 1220.11,-1822.66 1122.29,-1836.61"/>
<polygon fill="black" stroke="black" points="1121.69,-1833.16 1112.28,-1838.02 1122.67,-1840.09 1121.69,-1833.16"/>
<text text-anchor="middle" x="1588" y="-1083.29" font-family="Times,serif" font-size="14.00">3</text>
</g>
<!-- 20&#45;&gt;16 -->
<g id="edge32" class="edge">
<title>20&#45;&gt;16</title>
<path fill="none" stroke="black" d="M1101.59,-322.51C1106.03,-343.17 1113.99,-379.03 1122,-409.5 1140.33,-479.19 1152.41,-494.63 1168,-564.99 1184.91,-641.33 1185.21,-661.3 1194,-738.99 1200.79,-799.01 1205.53,-869.11 1208,-910.61"/>
<polygon fill="black" stroke="black" points="1204.52,-911 1208.6,-920.77 1211.51,-910.59 1204.52,-911"/>
<text text-anchor="middle" x="1186" y="-622.79" font-family="Times,serif" font-size="14.00">1</text>
</g>
<!-- 20&#45;&gt;17 -->
<g id="edge62" class="edge">
<title>20&#45;&gt;17</title>
<path fill="none" stroke="black" d="M1097.02,-322.79C1093.02,-388.96 1076.18,-625.45 1037,-687.99 1015.99,-721.53 985.98,-706.08 964,-738.99 891.6,-847.42 921.68,-896.77 901,-1025.49 889.94,-1094.3 902.39,-1113.99 885,-1181.49 874.52,-1222.18 867.72,-1231.39 848,-1268.49 834.58,-1293.74 830.37,-1299.77 813,-1322.49 774.96,-1372.25 749.88,-1372.99 719,-1427.49 697.55,-1465.34 690,-1477.48 690,-1520.99 690,-1843.49 690,-1843.49 690,-1843.49 690,-1862.74 690,-1884.43 690,-1901.09"/>
<polygon fill="black" stroke="black" points="686.5,-1901.23 690,-1911.23 693.5,-1901.23 686.5,-1901.23"/>
<text text-anchor="middle" x="901" y="-1126.79" font-family="Times,serif" font-size="14.00">0</text>
</g>
<!-- 20&#45;&gt;18 -->
<g id="edge88" class="edge">
<title>20&#45;&gt;18</title>
<path fill="none" stroke="black" d="M1114.33,-290.06C1132.35,-275.25 1161.67,-251.13 1183.5,-233.19"/>
<polygon fill="black" stroke="black" points="1185.95,-235.7 1191.45,-226.65 1181.51,-230.29 1185.95,-235.7"/>
<text text-anchor="middle" x="1163" y="-257.3" font-family="Times,serif" font-size="14.00">2</text>
</g>
<!-- 21&#45;&gt;2 -->
<g id="edge65" class="edge">
<title>21&#45;&gt;2</title>
<path fill="none" stroke="black" d="M584.63,-1403.85C679.37,-1458.59 1087.25,-1693.2 1150,-1711.49 1176.06,-1719.09 1573.21,-1742.06 1689.96,-1748.68"/>
<polygon fill="black" stroke="black" points="1689.87,-1752.18 1700.05,-1749.26 1690.26,-1745.2 1689.87,-1752.18"/>
<text text-anchor="middle" x="904" y="-1561.79" font-family="Times,serif" font-size="14.00">2</text>
</g>
<!-- 21&#45;&gt;2 -->
<g id="edge123" class="edge">
<title>21&#45;&gt;2</title>
<path fill="none" stroke="black" d="M587.77,-1401.19C605.8,-1408.14 631.6,-1418.22 654,-1427.49 688.03,-1441.56 696.25,-1445.75 730,-1460.49 808.96,-1494.98 1002.96,-1590.14 1085,-1616.49 1311.38,-1689.18 1595.91,-1732.89 1690.1,-1746.17"/>
<polygon fill="black" stroke="black" points="1689.75,-1749.65 1700.13,-1747.56 1690.71,-1742.72 1689.75,-1749.65"/>
<text text-anchor="middle" x="1004" y="-1561.79" font-family="Times,serif" font-size="14.00">4</text>
</g>
<!-- 21&#45;&gt;3 -->
<g id="edge138" class="edge">
<title>21&#45;&gt;3</title>
<path fill="none" stroke="black" d="M538.22,-1393.98C490.57,-1398.23 396,-1414.59 396,-1477.49 396,-1704.99 396,-1704.99 396,-1704.99 396,-1770.23 342,-1776.25 342,-1841.49 342,-2017.49 342,-2017.49 342,-2017.49 342,-2051.52 368.67,-2054.18 400,-2067.49 470.62,-2097.48 705.52,-2104.48 791.83,-2106.05"/>
<polygon fill="black" stroke="black" points="791.77,-2109.55 801.83,-2106.22 791.89,-2102.55 791.77,-2109.55"/>
<text text-anchor="middle" x="399" y="-1747.79" font-family="Times,serif" font-size="14.00">3</text>
</g>
<!-- 21&#45;&gt;12 -->
<g id="edge122" class="edge">
<title>21&#45;&gt;12</title>
<path fill="none" stroke="black" d="M567.9,-1373.29C570.53,-1356.16 574,-1329.08 574,-1305.49 574,-1305.49 574,-1305.49 574,-1085.99 574,-1036.04 565.57,-1024.12 560,-974.49 553.95,-920.56 548,-907.25 548,-852.99 548,-852.99 548,-852.99 548,-712.49 548,-652.93 592.63,-649.13 644,-618.99 663.65,-607.46 675.79,-617 692,-600.99 712.01,-581.23 717.91,-549.36 719.15,-524.54"/>
<polygon fill="black" stroke="black" points="722.65,-524.48 719.42,-514.39 715.65,-524.29 722.65,-524.48"/>
<text text-anchor="middle" x="565" y="-944.04" font-family="Times,serif" font-size="14.00">1</text>
</g>
<!-- 21&#45;&gt;24 -->
<g id="edge55" class="edge">
<title>21&#45;&gt;24</title>
<path fill="none" stroke="black" d="M550.92,-1376.07C537.92,-1362.76 518.43,-1342.8 503.49,-1327.49"/>
<polygon fill="black" stroke="black" points="505.64,-1324.69 496.15,-1319.98 500.63,-1329.58 505.64,-1324.69"/>
<text text-anchor="middle" x="534" y="-1344.29" font-family="Times,serif" font-size="14.00">0</text>
</g>
<!-- 22&#45;&gt;1 -->
<g id="edge57" class="edge">
<title>22&#45;&gt;1</title>
<path fill="none" stroke="black" d="M1856.79,-505.05C1834.5,-593.86 1730.59,-1006.49 1710,-1061.49 1694.87,-1101.88 1687.65,-1110.62 1667,-1148.49 1584.24,-1300.28 1473.99,-1476.29 1433.64,-1539.94"/>
<polygon fill="black" stroke="black" points="1430.61,-1538.19 1428.2,-1548.5 1436.52,-1541.94 1430.61,-1538.19"/>
<text text-anchor="middle" x="1726" y="-1039.79" font-family="Times,serif" font-size="14.00">3</text>
</g>
<!-- 22&#45;&gt;7 -->
<g id="edge151" class="edge">
<title>22&#45;&gt;7</title>
<path fill="none" stroke="black" d="M1861.62,-505.57C1862.5,-531.61 1864,-582.35 1864,-625.49 1864,-896.49 1864,-896.49 1864,-896.49 1864,-1009.89 1865.22,-1042.84 1824,-1148.49 1743.52,-1354.75 1569.09,-1562.94 1508.36,-1631.78"/>
<polygon fill="black" stroke="black" points="1505.55,-1629.68 1501.54,-1639.48 1510.79,-1634.32 1505.55,-1629.68"/>
<text text-anchor="middle" x="1852" y="-1083.29" font-family="Times,serif" font-size="14.00">0</text>
</g>
<!-- 22&#45;&gt;14 -->
<g id="edge97" class="edge">
<title>22&#45;&gt;14</title>
<path fill="none" stroke="black" d="M1835.65,-480.87C1760.82,-465 1540.76,-418.32 1454.38,-400"/>
<polygon fill="black" stroke="black" points="1455.03,-396.56 1444.52,-397.91 1453.58,-403.41 1455.03,-396.56"/>
<text text-anchor="middle" x="1658" y="-431.3" font-family="Times,serif" font-size="14.00">1</text>
</g>
<!-- 22&#45;&gt;18 -->
<g id="edge43" class="edge">
<title>22&#45;&gt;18</title>
<path fill="none" stroke="black" d="M1863.34,-469.13C1865.67,-444.5 1865.9,-399.2 1841,-373.5 1756.59,-286.37 1370.27,-230.09 1248.72,-214.3"/>
<polygon fill="black" stroke="black" points="1248.82,-210.78 1238.45,-212.98 1247.93,-217.72 1248.82,-210.78"/>
<text text-anchor="middle" x="1822" y="-344.3" font-family="Times,serif" font-size="14.00">4</text>
</g>
<!-- 22&#45;&gt;25 -->
<g id="edge3" class="edge">
<title>22&#45;&gt;25</title>
<path fill="none" stroke="black" d="M1845.66,-472.04C1837.7,-464 1828.36,-453.4 1822,-442.5 1817.83,-435.34 1814.48,-427 1811.9,-419.21"/>
<polygon fill="black" stroke="black" points="1815.18,-417.98 1808.94,-409.43 1808.48,-420.01 1815.18,-417.98"/>
<text text-anchor="middle" x="1827" y="-431.3" font-family="Times,serif" font-size="14.00">2</text>
</g>
<!-- 23&#45;&gt;7 -->
<g id="edge80" class="edge">
<title>23&#45;&gt;7</title>
<path fill="none" stroke="black" d="M858.26,-408.93C860.49,-414.69 862.7,-421.28 864,-427.5 896.36,-582.4 871.92,-625.21 884,-782.99 893.49,-906.99 886.85,-939.5 911,-1061.49 931.94,-1167.27 1046.56,-1413.73 1085,-1514.49 1102.24,-1559.69 1084.8,-1586.81 1123,-1616.49 1136.05,-1626.63 1368.35,-1646.05 1454.87,-1652.97"/>
<polygon fill="black" stroke="black" points="1454.67,-1656.46 1464.91,-1653.76 1455.22,-1649.48 1454.67,-1656.46"/>
<text text-anchor="middle" x="916" y="-1039.79" font-family="Times,serif" font-size="14.00">2</text>
</g>
<!-- 23&#45;&gt;12 -->
<g id="edge149" class="edge">
<title>23&#45;&gt;12</title>
<path fill="none" stroke="black" d="M835.49,-406.56C823.68,-416.99 806.81,-431.27 791,-442.5 778.11,-451.65 763.23,-460.8 750.29,-468.34"/>
<polygon fill="black" stroke="black" points="748.19,-465.51 741.26,-473.53 751.68,-471.58 748.19,-465.51"/>
<text text-anchor="middle" x="815" y="-431.3" font-family="Times,serif" font-size="14.00">4</text>
</g>
<!-- 23&#45;&gt;13 -->
<g id="edge147" class="edge">
<title>23&#45;&gt;13</title>
<path fill="none" stroke="black" d="M872.51,-402.45C882.92,-408.33 894.71,-416.74 902,-427.5 992.82,-561.58 922.73,-632.28 982,-782.99 1004.6,-840.45 1015.22,-853.4 1052,-902.99 1089.75,-953.89 1098.17,-969.65 1149,-1007.49 1218.86,-1059.49 1314.32,-1099.08 1363.96,-1117.72"/>
<polygon fill="black" stroke="black" points="1362.95,-1121.07 1373.55,-1121.27 1365.39,-1114.51 1362.95,-1121.07"/>
<text text-anchor="middle" x="987" y="-757.29" font-family="Times,serif" font-size="14.00">1</text>
</g>
<!-- 23&#45;&gt;17 -->
<g id="edge66" class="edge">
<title>23&#45;&gt;17</title>
<path fill="none" stroke="black" d="M845.47,-409.39C813.33,-508.13 652,-1011.83 652,-1172.99 652,-1843.49 652,-1843.49 652,-1843.49 652,-1865.58 662.83,-1888.32 672.93,-1904.71"/>
<polygon fill="black" stroke="black" points="670.01,-1906.63 678.39,-1913.12 675.88,-1902.82 670.01,-1906.63"/>
<text text-anchor="middle" x="657" y="-1170.29" font-family="Times,serif" font-size="14.00">0</text>
</g>
<!-- 23&#45;&gt;28 -->
<g id="edge67" class="edge">
<title>23&#45;&gt;28</title>
<path fill="none" stroke="black" d="M850.46,-409.63C850.12,-419.28 849.63,-431.57 849,-442.5 830.1,-770.68 769.28,-856.39 818,-1181.49 833.28,-1283.46 872.77,-1400.09 891.22,-1451.19"/>
<polygon fill="black" stroke="black" points="888.01,-1452.6 894.72,-1460.79 894.59,-1450.2 888.01,-1452.6"/>
<text text-anchor="middle" x="806" y="-944.04" font-family="Times,serif" font-size="14.00">3</text>
</g>
<!-- 24&#45;&gt;11 -->
<g id="edge82" class="edge">
<title>24&#45;&gt;11</title>
<path fill="none" stroke="black" d="M458.11,-1295.73C440.97,-1289.62 417.69,-1280.19 399,-1268.49 386.2,-1260.47 373.42,-1249.59 363.22,-1240.03"/>
<polygon fill="black" stroke="black" points="365.59,-1237.46 355.96,-1233.05 360.74,-1242.5 365.59,-1237.46"/>
<text text-anchor="middle" x="404" y="-1257.29" font-family="Times,serif" font-size="14.00">4</text>
</g>
<!-- 24&#45;&gt;18 -->
<g id="edge2" class="edge">
<title>24&#45;&gt;18</title>
<path fill="none" stroke="black" d="M469.57,-1288.34C451.99,-1265.34 422,-1219.55 422,-1174.99 422,-1174.99 422,-1174.99 422,-894.49 422,-852 428.38,-834.31 402,-800.99 390.4,-786.34 374.57,-798.4 364,-782.99 282.76,-664.57 280.49,-589.3 344,-460.5 349.03,-450.3 438.1,-390.47 464,-373.5 475.76,-365.79 504.63,-344.86 518,-340.5 610.85,-310.21 641.59,-343.35 737,-322.5 824.77,-303.31 839.96,-275.75 927,-253.5 1014.52,-231.12 1120.28,-218.55 1175.07,-213.08"/>
<polygon fill="black" stroke="black" points="1175.71,-216.54 1185.33,-212.08 1175.03,-209.57 1175.71,-216.54"/>
<text text-anchor="middle" x="369" y="-757.29" font-family="Times,serif" font-size="14.00">2</text>
</g>
<!-- 24&#45;&gt;18 -->
<g id="edge27" class="edge">
<title>24&#45;&gt;18</title>
<path fill="none" stroke="black" d="M477.23,-1286.6C470.76,-1262.18 460,-1215.5 460,-1174.99 460,-1174.99 460,-1174.99 460,-894.49 460,-732.4 358.09,-681.79 420,-531.99 457.99,-440.07 502.22,-437.93 578,-373.5 597.17,-357.2 600.47,-349.4 624,-340.5 698.37,-312.37 725.28,-343.4 802,-322.5 810.85,-320.09 943.19,-256.06 952,-253.5 1009.28,-236.85 1026.18,-245.43 1085,-235.5 1115.81,-230.29 1150.56,-223.16 1175.91,-217.72"/>
<polygon fill="black" stroke="black" points="1176.79,-221.11 1185.82,-215.58 1175.31,-214.27 1176.79,-221.11"/>
<text text-anchor="middle" x="448" y="-757.29" font-family="Times,serif" font-size="14.00">3</text>
</g>
<!-- 24&#45;&gt;21 -->
<g id="edge150" class="edge">
<title>24&#45;&gt;21</title>
<path fill="none" stroke="black" d="M486.83,-1322.27C490.5,-1332.75 496.4,-1346.01 505,-1355.49 512.88,-1364.17 523.43,-1371.31 533.48,-1376.82"/>
<polygon fill="black" stroke="black" points="531.99,-1379.99 542.49,-1381.42 535.18,-1373.75 531.99,-1379.99"/>
<text text-anchor="middle" x="510" y="-1344.29" font-family="Times,serif" font-size="14.00">0</text>
</g>
<!-- 24&#45;&gt;24 -->
<g id="edge144" class="edge">
<title>24&#45;&gt;24</title>
<path fill="none" stroke="black" d="M506.53,-1312.24C517.51,-1312.98 527,-1310.39 527,-1304.49 527,-1300.52 522.72,-1298.05 516.57,-1297.08"/>
<polygon fill="black" stroke="black" points="516.65,-1293.58 506.53,-1296.74 516.41,-1300.58 516.65,-1293.58"/>
<text text-anchor="middle" x="532" y="-1300.79" font-family="Times,serif" font-size="14.00">1</text>
</g>
<!-- 25&#45;&gt;16 -->
<g id="edge87" class="edge">
<title>25&#45;&gt;16</title>
<path fill="none" stroke="black" d="M1781.8,-400.97C1767.76,-406.9 1750.09,-415.84 1737,-427.5 1702.44,-458.28 1707.68,-477.66 1679,-513.99 1565.77,-657.42 1535.4,-693.28 1400,-815.99 1352.51,-859.03 1338.33,-867.45 1285,-902.99 1271.34,-912.09 1255.74,-921.37 1242.31,-929.02"/>
<polygon fill="black" stroke="black" points="1240.4,-926.07 1233.41,-934.04 1243.84,-932.17 1240.4,-926.07"/>
<text text-anchor="middle" x="1571" y="-666.29" font-family="Times,serif" font-size="14.00">3</text>
</g>
<!-- 25&#45;&gt;19 -->
<g id="edge75" class="edge">
<title>25&#45;&gt;19</title>
<path fill="none" stroke="black" d="M1796.66,-374.03C1773.17,-327.64 1706.32,-195.61 1677.97,-139.61"/>
<polygon fill="black" stroke="black" points="1680.93,-137.72 1673.29,-130.38 1674.69,-140.88 1680.93,-137.72"/>
<text text-anchor="middle" x="1748" y="-257.3" font-family="Times,serif" font-size="14.00">2</text>
</g>
<!-- 25&#45;&gt;21 -->
<g id="edge140" class="edge">
<title>25&#45;&gt;21</title>
<path fill="none" stroke="black" d="M1778.11,-394.51C1726.64,-398.73 1616.35,-409.6 1583,-427.5 1427.1,-511.18 1451.48,-609.6 1314,-720.99 1178.08,-831.12 1112.35,-812.66 975,-920.99 882.08,-994.28 865.14,-1021.07 790,-1112.49 766.28,-1141.35 764.76,-1151.87 742,-1181.49 688.13,-1251.59 619.14,-1330.11 585.41,-1367.85"/>
<polygon fill="black" stroke="black" points="582.45,-1365.9 578.39,-1375.68 587.67,-1370.57 582.45,-1365.9"/>
<text text-anchor="middle" x="1025" y="-891.79" font-family="Times,serif" font-size="14.00">4</text>
</g>
<!-- 25&#45;&gt;22 -->
<g id="edge73" class="edge">
<title>25&#45;&gt;22</title>
<path fill="none" stroke="black" d="M1817.78,-407.7C1822.53,-413.68 1827.78,-420.72 1832,-427.5 1838.55,-437.99 1844.76,-450.16 1849.75,-460.7"/>
<polygon fill="black" stroke="black" points="1846.59,-462.21 1853.96,-469.82 1852.95,-459.28 1846.59,-462.21"/>
<text text-anchor="middle" x="1845" y="-431.3" font-family="Times,serif" font-size="14.00">0</text>
</g>
<!-- 25&#45;&gt;26 -->
<g id="edge12" class="edge">
<title>25&#45;&gt;26</title>
<path fill="none" stroke="black" d="M1790.03,-406.82C1784.41,-412.8 1778.35,-420.07 1774,-427.5 1689.37,-571.85 1728.4,-635.16 1650,-782.99 1620.87,-837.92 1530.54,-967.42 1483,-1007.49 1472.22,-1016.57 1458.68,-1024.09 1446.46,-1029.8"/>
<polygon fill="black" stroke="black" points="1444.74,-1026.73 1437.02,-1033.99 1447.58,-1033.13 1444.74,-1026.73"/>
<text text-anchor="middle" x="1688" y="-709.79" font-family="Times,serif" font-size="14.00">1</text>
</g>
<!-- 26&#45;&gt;16 -->
<g id="edge36" class="edge">
<title>26&#45;&gt;16</title>
<path fill="none" stroke="black" d="M1386.86,-1041.92C1336.9,-1040.24 1233.4,-1033.62 1211,-1007.49 1205.48,-1001.05 1203.44,-992.59 1203.2,-984.1"/>
<polygon fill="black" stroke="black" points="1206.71,-984.03 1203.7,-973.88 1199.72,-983.7 1206.71,-984.03"/>
<text text-anchor="middle" x="1216" y="-996.29" font-family="Times,serif" font-size="14.00">2</text>
</g>
<!-- 26&#45;&gt;16 -->
<g id="edge91" class="edge">
<title>26&#45;&gt;16</title>
<path fill="none" stroke="black" d="M1386.87,-1043.46C1350.87,-1043.39 1286.9,-1038.41 1244,-1007.49 1235.16,-1001.12 1228.27,-991.69 1223.08,-982.23"/>
<polygon fill="black" stroke="black" points="1226.2,-980.66 1218.61,-973.27 1219.94,-983.78 1226.2,-980.66"/>
<text text-anchor="middle" x="1249" y="-996.29" font-family="Times,serif" font-size="14.00">4</text>
</g>
<!-- 26&#45;&gt;19 -->
<g id="edge128" class="edge">
<title>26&#45;&gt;19</title>
<path fill="none" stroke="black" d="M1420.27,-1025.91C1422.3,-1020.14 1424.42,-1013.58 1426,-1007.49 1447.64,-923.8 1450.72,-901.93 1460,-815.99 1478.15,-647.95 1475,-605.01 1475,-436 1475,-436 1475,-436 1475,-207.75 1475,-140.19 1572.8,-121.32 1628.06,-116.04"/>
<polygon fill="black" stroke="black" points="1628.51,-119.52 1638.18,-115.18 1627.92,-112.54 1628.51,-119.52"/>
<text text-anchor="middle" x="1480" y="-579.29" font-family="Times,serif" font-size="14.00">3</text>
</g>
<!-- 26&#45;&gt;20 -->
<g id="edge99" class="edge">
<title>26&#45;&gt;20</title>
<path fill="none" stroke="black" d="M1413.51,-1025.45C1412.31,-996.6 1408.17,-936.54 1394,-887.99 1366.48,-793.71 1332.39,-780.71 1300,-687.99 1276.5,-620.72 1292.78,-596.73 1263,-531.99 1224.84,-449.06 1153.97,-366.01 1118.84,-327.57"/>
<polygon fill="black" stroke="black" points="1121.27,-325.04 1111.92,-320.07 1116.12,-329.79 1121.27,-325.04"/>
<text text-anchor="middle" x="1305" y="-666.29" font-family="Times,serif" font-size="14.00">0</text>
</g>
<!-- 26&#45;&gt;23 -->
<g id="edge16" class="edge">
<title>26&#45;&gt;23</title>
<path fill="none" stroke="black" d="M1398.25,-1028.58C1366.67,-1000.31 1294.07,-933.43 1241,-869.99 1128.91,-735.99 1114.11,-692.22 1017,-546.99 981.88,-494.47 988.87,-467.54 940,-427.5 924.54,-414.83 903.94,-406.33 886.46,-400.89"/>
<polygon fill="black" stroke="black" points="887.16,-397.45 876.58,-398.03 885.21,-404.17 887.16,-397.45"/>
<text text-anchor="middle" x="1133" y="-709.79" font-family="Times,serif" font-size="14.00">1</text>
</g>
<!-- 27&#45;&gt;3 -->
<g id="edge54" class="edge">
<title>27&#45;&gt;3</title>
<path fill="none" stroke="black" d="M1870.99,-2021.46C1808.33,-2030.87 1643.99,-2054.74 1506,-2067.49 1256.44,-2090.55 954.15,-2102.11 856.26,-2105.45"/>
<polygon fill="black" stroke="black" points="856,-2101.95 846.12,-2105.79 856.23,-2108.95 856,-2101.95"/>
<text text-anchor="middle" x="1640" y="-2056.29" font-family="Times,serif" font-size="14.00">4</text>
</g>
<!-- 27&#45;&gt;4 -->
<g id="edge117" class="edge">
<title>27&#45;&gt;4</title>
<path fill="none" stroke="black" d="M1912.62,-2001.5C1928.25,-1985.87 1950,-1959.01 1950,-1930.49 1950,-1930.49 1950,-1930.49 1950,-1655.49 1950,-1620.31 1914.85,-1594.87 1887.54,-1580.42"/>
<polygon fill="black" stroke="black" points="1888.78,-1577.13 1878.28,-1575.77 1885.64,-1583.38 1888.78,-1577.13"/>
<text text-anchor="middle" x="1955" y="-1795.29" font-family="Times,serif" font-size="14.00">3</text>
</g>
<!-- 27&#45;&gt;8 -->
<g id="edge121" class="edge">
<title>27&#45;&gt;8</title>
<path fill="none" stroke="black" d="M1923.69,-2013.16C1993.83,-2006.31 2178,-1983.3 2178,-1930.49 2178,-1930.49 2178,-1930.49 2178,-1520.99 2178,-1362.53 2092,-1333.44 2092,-1174.99 2092,-1174.99 2092,-1174.99 2092,-850.99 2092,-830.27 2085.43,-807.88 2078.89,-790.74"/>
<polygon fill="black" stroke="black" points="2082.07,-789.28 2075.09,-781.31 2075.58,-791.9 2082.07,-789.28"/>
<text text-anchor="middle" x="2165" y="-1387.79" font-family="Times,serif" font-size="14.00">2</text>
</g>
<!-- 27&#45;&gt;14 -->
<g id="edge49" class="edge">
<title>27&#45;&gt;14</title>
<path fill="none" stroke="black" d="M1917.44,-2004.26C1987.85,-1965.28 2216,-1836.16 2216,-1799.99 2216,-1799.99 2216,-1799.99 2216,-1520.99 2216,-1416.76 2219.05,-1390.71 2218,-1286.49 2217.11,-1198.25 2214,-1176.23 2214,-1087.99 2214,-1087.99 2214,-1087.99 2214,-807.49 2214,-769.53 2039.48,-558.18 2012,-531.99 1951.05,-473.92 1933.58,-454.96 1854,-427.5 1780.89,-402.26 1547.71,-395.02 1456.29,-393.12"/>
<polygon fill="black" stroke="black" points="1456.18,-389.61 1446.11,-392.91 1456.04,-396.61 1456.18,-389.61"/>
<text text-anchor="middle" x="2222" y="-1213.79" font-family="Times,serif" font-size="14.00">0</text>
</g>
<!-- 27&#45;&gt;17 -->
<g id="edge6" class="edge">
<title>27&#45;&gt;17</title>
<path fill="none" stroke="black" d="M1870.1,-2013.59C1712.45,-2002.49 909.2,-1945.92 726.85,-1933.08"/>
<polygon fill="black" stroke="black" points="726.93,-1929.58 716.71,-1932.37 726.44,-1936.56 726.93,-1929.58"/>
<text text-anchor="middle" x="1370" y="-1969.29" font-family="Times,serif" font-size="14.00">1</text>
</g>
<!-- 28&#45;&gt;3 -->
<g id="edge59" class="edge">
<title>28&#45;&gt;3</title>
<path fill="none" stroke="black" d="M875.72,-1485.07C839.99,-1494.62 779,-1517.76 779,-1564.49 779,-1704.99 779,-1704.99 779,-1704.99 779,-1783.32 800.7,-1800.71 810,-1878.49 818.38,-1948.51 821.87,-2031.28 823.22,-2075.29"/>
<polygon fill="black" stroke="black" points="819.73,-2075.46 823.52,-2085.35 826.73,-2075.26 819.73,-2075.46"/>
<text text-anchor="middle" x="801" y="-1795.29" font-family="Times,serif" font-size="14.00">4</text>
</g>
<!-- 28&#45;&gt;5 -->
<g id="edge118" class="edge">
<title>28&#45;&gt;5</title>
<path fill="none" stroke="black" d="M890.59,-1461.85C862.47,-1418.93 784.25,-1294.92 742,-1181.49 681.38,-1018.74 706.93,-966.08 653,-800.99 636.06,-749.12 620.78,-740.23 605,-687.99 559.57,-537.58 601.74,-484.98 540,-340.5 480.12,-200.37 446.63,-170.86 340,-62 332.42,-54.26 323.21,-46.84 314.66,-40.59"/>
<polygon fill="black" stroke="black" points="316.6,-37.68 306.42,-34.76 312.56,-43.39 316.6,-37.68"/>
<text text-anchor="middle" x="652" y="-757.29" font-family="Times,serif" font-size="14.00">1</text>
</g>
<!-- 28&#45;&gt;11 -->
<g id="edge51" class="edge">
<title>28&#45;&gt;11</title>
<path fill="none" stroke="black" d="M878.53,-1467.92C872.54,-1465.43 866.04,-1462.81 860,-1460.49 837.56,-1451.88 830.77,-1452.67 809,-1442.49 778.22,-1428.1 576.9,-1300.61 546,-1286.49 488.56,-1260.24 417.95,-1238.99 376.66,-1227.59"/>
<polygon fill="black" stroke="black" points="377.39,-1224.16 366.83,-1224.91 375.55,-1230.92 377.39,-1224.16"/>
<text text-anchor="middle" x="667" y="-1344.29" font-family="Times,serif" font-size="14.00">2</text>
</g>
<!-- 28&#45;&gt;15 -->
<g id="edge131" class="edge">
<title>28&#45;&gt;15</title>
<path fill="none" stroke="black" d="M901,-1496.74C901,-1513.92 901,-1541.02 901,-1564.49 901,-1752.49 901,-1752.49 901,-1752.49 901,-1817.48 994.86,-1835.04 1048.87,-1839.76"/>
<polygon fill="black" stroke="black" points="1048.86,-1843.27 1059.1,-1840.55 1049.4,-1836.29 1048.86,-1843.27"/>
<text text-anchor="middle" x="906" y="-1652.79" font-family="Times,serif" font-size="14.00">3</text>
</g>
<!-- 28&#45;&gt;21 -->
<g id="edge78" class="edge">
<title>28&#45;&gt;21</title>
<path fill="none" stroke="black" d="M879.16,-1467.51C873.04,-1464.98 866.34,-1462.42 860,-1460.49 821.4,-1448.7 810.09,-1452.52 771,-1442.49 749.35,-1436.93 744.6,-1433.24 723,-1427.49 681.23,-1416.36 632.6,-1405.96 600.44,-1399.44"/>
<polygon fill="black" stroke="black" points="601.1,-1396 590.61,-1397.46 599.72,-1402.87 601.1,-1396"/>
<text text-anchor="middle" x="776" y="-1431.29" font-family="Times,serif" font-size="14.00">0</text>
</g>
<!-- 29&#45;&gt;0 -->
<g id="edge15" class="edge">
<title>29&#45;&gt;0</title>
<path fill="none" stroke="black" d="M1692.28,-23.07C1800.35,-23.57 2198.36,-27.77 2319,-62 2364.15,-74.81 2412,-65.07 2412,-112 2412,-2108.49 2412,-2108.49 2412,-2108.49 2412,-2184.82 2138.4,-2195.85 2037.12,-2197.31"/>
<polygon fill="black" stroke="black" points="2036.99,-2193.82 2027.03,-2197.44 2037.07,-2200.82 2036.99,-2193.82"/>
<text text-anchor="middle" x="2417" y="-1126.79" font-family="Times,serif" font-size="14.00">2</text>
</g>
<!-- 29&#45;&gt;2 -->
<g id="edge89" class="edge">
<title>29&#45;&gt;2</title>
<path fill="none" stroke="black" d="M1692.11,-23.33C1794.23,-24.82 2155.48,-32.1 2266,-62 2313.97,-74.98 2366,-62.31 2366,-112 2366,-1174.99 2366,-1174.99 2366,-1174.99 2366,-1263.54 2144.61,-1392.39 2088,-1460.49 2003.12,-1562.59 2036.08,-1637.26 1926,-1711.49 1898.37,-1730.12 1804.28,-1742.18 1754.11,-1747.44"/>
<polygon fill="black" stroke="black" points="1753.7,-1743.97 1744.11,-1748.46 1754.42,-1750.93 1753.7,-1743.97"/>
<text text-anchor="middle" x="2371" y="-891.79" font-family="Times,serif" font-size="14.00">3</text>
</g>
<!-- 29&#45;&gt;9 -->
<g id="edge90" class="edge">
<title>29&#45;&gt;9</title>
<path fill="none" stroke="black" d="M1637.91,-23.32C1476.69,-25.31 648.97,-36.75 602,-62 473.85,-130.89 403.35,-220.25 457,-355.5 493.63,-447.83 585.3,-527.73 630.29,-562.9"/>
<polygon fill="black" stroke="black" points="628.32,-565.8 638.38,-569.13 632.59,-560.25 628.32,-565.8"/>
<text text-anchor="middle" x="452" y="-300.8" font-family="Times,serif" font-size="14.00">0</text>
</g>
<!-- 29&#45;&gt;17 -->
<g id="edge13" class="edge">
<title>29&#45;&gt;17</title>
<path fill="none" stroke="black" d="M1637.77,-22.92C1490.35,-22.63 786.5,-23.34 573,-62 407.46,-91.98 335.71,-65.85 214,-182 183.27,-211.32 76,-496.02 76,-538.49 76,-1087.99 76,-1087.99 76,-1087.99 76,-1129.35 107.84,-1129.32 126,-1166.49 188.86,-1295.13 254.46,-1660.19 342,-1773.49 420.82,-1875.5 581.35,-1912.02 653.48,-1923.65"/>
<polygon fill="black" stroke="black" points="653.04,-1927.12 663.46,-1925.19 654.11,-1920.2 653.04,-1927.12"/>
<text text-anchor="middle" x="81" y="-996.29" font-family="Times,serif" font-size="14.00">4</text>
</g>
<!-- 29&#45;&gt;26 -->
<g id="edge142" class="edge">
<title>29&#45;&gt;26</title>
<path fill="none" stroke="black" d="M1638.99,-27.56C1587.15,-38.2 1471.81,-70.05 1424,-149 1388.99,-206.82 1459.61,-225.63 1489,-286.5 1570.15,-454.56 1649.01,-505.07 1612,-687.99 1583.87,-827.03 1477.62,-966.53 1433.45,-1019.85"/>
<polygon fill="black" stroke="black" points="1430.65,-1017.74 1426.91,-1027.65 1436.01,-1022.23 1430.65,-1017.74"/>
<text text-anchor="middle" x="1620" y="-535.79" font-family="Times,serif" font-size="14.00">1</text>
</g>
</g>
</svg>
