<?xml version="1.0" encoding="UTF-8" standalone="no"?>
<!DOCTYPE svg PUBLIC "-//W3C//DTD SVG 1.1//EN"
 "http://www.w3.org/Graphics/SVG/1.1/DTD/svg11.dtd">
<!-- Generated by graphviz version 13.0.1 (20250616.1512)
 -->
<!-- Pages: 1 -->
<svg width="2582pt" height="2560pt"
 viewBox="0.00 0.00 2582.00 2560.00" xmlns="http://www.w3.org/2000/svg" xmlns:xlink="http://www.w3.org/1999/xlink">
<g id="graph0" class="graph" transform="scale(1 1) rotate(0) translate(4 2556)">
<polygon fill="white" stroke="none" points="-4,4 -4,-2556 2578,-2556 2578,4 -4,4"/>
<!-- fake -->
<g id="node1" class="node">
<title>fake</title>
</g>
<!-- 0 -->
<g id="node2" class="node">
<title>0</title>
<ellipse fill="none" stroke="black" cx="1952" cy="-2461" rx="27" ry="18"/>
<text xml:space="preserve" text-anchor="middle" x="1952" y="-2456.33" font-family="Times,serif" font-size="14.00">0</text>
</g>
<!-- fake&#45;&gt;0 -->
<g id="edge1" class="edge">
<title>fake&#45;&gt;0</title>
<path fill="none" stroke="black" stroke-width="2" d="M1952,-2515.82C1952,-2508.23 1952,-2499.1 1952,-2490.54"/>
<polygon fill="black" stroke="black" stroke-width="2" points="1955.5,-2492.06 1952,-2482.06 1948.5,-2492.06 1955.5,-2492.06"/>
</g>
<!-- 1 -->
<g id="node3" class="node">
<title>1</title>
<ellipse fill="none" stroke="black" cx="1610" cy="-2367.75" rx="18" ry="18"/>
<ellipse fill="none" stroke="black" cx="1610" cy="-2367.75" rx="22" ry="22"/>
<text xml:space="preserve" text-anchor="middle" x="1610" y="-2363.08" font-family="Times,serif" font-size="14.00">1</text>
</g>
<!-- 0&#45;&gt;1 -->
<g id="edge103" class="edge">
<title>0&#45;&gt;1</title>
<path fill="none" stroke="black" d="M1927.13,-2453.37C1866.25,-2437.12 1709.77,-2395.37 1642.04,-2377.3"/>
<polygon fill="black" stroke="black" points="1643.24,-2374 1632.68,-2374.8 1641.44,-2380.76 1643.24,-2374"/>
<text xml:space="preserve" text-anchor="middle" x="1816.13" y="-2411.7" font-family="Times,serif" font-size="14.00">2</text>
</g>
<!-- 6 -->
<g id="node8" class="node">
<title>6</title>
<ellipse fill="none" stroke="black" cx="485" cy="-107.25" rx="27" ry="18"/>
<text xml:space="preserve" text-anchor="middle" x="485" y="-102.58" font-family="Times,serif" font-size="14.00">6</text>
</g>
<!-- 0&#45;&gt;6 -->
<g id="edge23" class="edge">
<title>0&#45;&gt;6</title>
<path fill="none" stroke="black" d="M1924.58,-2460.03C1699,-2460.16 155.74,-2459.77 65,-2425 29.33,-2411.33 0,-2406.96 0,-2368.75 0,-2368.75 0,-2368.75 0,-1280.98 0,-1168.49 25.87,-1139.46 80,-1040.85 134.43,-941.7 232,-949.84 232,-836.73 232,-836.73 232,-836.73 232,-205.35 232,-169.35 252.81,-161.23 284,-143.25 311.06,-127.65 396.23,-116.93 446.6,-111.77"/>
<polygon fill="black" stroke="black" points="446.89,-115.26 456.49,-110.79 446.2,-108.3 446.89,-115.26"/>
<text xml:space="preserve" text-anchor="middle" x="4.5" y="-1277.3" font-family="Times,serif" font-size="14.00">4</text>
</g>
<!-- 7 -->
<g id="node9" class="node">
<title>7</title>
<ellipse fill="none" stroke="black" cx="1905" cy="-1237.35" rx="27" ry="18"/>
<text xml:space="preserve" text-anchor="middle" x="1905" y="-1232.68" font-family="Times,serif" font-size="14.00">7</text>
</g>
<!-- 0&#45;&gt;7 -->
<g id="edge118" class="edge">
<title>0&#45;&gt;7</title>
<path fill="none" stroke="black" d="M1978.67,-2456.55C2045.53,-2447.15 2215,-2418.41 2215,-2368.75 2215,-2368.75 2215,-2368.75 2215,-2220.88 2215,-2024.78 2046.61,-1555.48 2003,-1364.3 1993.82,-1324.04 2009.96,-1305.47 1984,-1273.35 1980.78,-1269.37 1958.54,-1259.69 1938.48,-1251.51"/>
<polygon fill="black" stroke="black" points="1939.98,-1248.35 1929.4,-1247.86 1937.37,-1254.84 1939.98,-1248.35"/>
<text xml:space="preserve" text-anchor="middle" x="2150.6" y="-1852.2" font-family="Times,serif" font-size="14.00">1</text>
</g>
<!-- 9 -->
<g id="node11" class="node">
<title>9</title>
<ellipse fill="none" stroke="black" cx="2132" cy="-1237.35" rx="27" ry="18"/>
<text xml:space="preserve" text-anchor="middle" x="2132" y="-1232.68" font-family="Times,serif" font-size="14.00">9</text>
</g>
<!-- 0&#45;&gt;9 -->
<g id="edge35" class="edge">
<title>0&#45;&gt;9</title>
<path fill="none" stroke="black" d="M1979.11,-2459.26C2065.56,-2456.16 2329,-2440.81 2329,-2368.75 2329,-2368.75 2329,-2368.75 2329,-2034.38 2329,-1756.06 2310.58,-1681.06 2221,-1417.55 2198.25,-1350.64 2187.76,-1335.44 2154,-1273.35 2152.31,-1270.24 2150.45,-1267.02 2148.55,-1263.86"/>
<polygon fill="black" stroke="black" points="2151.55,-1262.06 2143.31,-1255.41 2145.61,-1265.76 2151.55,-1262.06"/>
<text xml:space="preserve" text-anchor="middle" x="2329.69" y="-1852.2" font-family="Times,serif" font-size="14.00">3</text>
</g>
<!-- 11 -->
<g id="node13" class="node">
<title>11</title>
<ellipse fill="none" stroke="black" cx="645" cy="-206.35" rx="23.85" ry="23.85"/>
<ellipse fill="none" stroke="black" cx="645" cy="-206.35" rx="27.85" ry="27.85"/>
<text xml:space="preserve" text-anchor="middle" x="645" y="-201.68" font-family="Times,serif" font-size="14.00">11</text>
</g>
<!-- 0&#45;&gt;11 -->
<g id="edge71" class="edge">
<title>0&#45;&gt;11</title>
<path fill="none" stroke="black" d="M1924.75,-2459.86C1717.31,-2458.74 391.01,-2450.6 215,-2425 139.58,-2414.03 53,-2444.97 53,-2368.75 53,-2368.75 53,-2368.75 53,-1766.63 53,-1633.06 60.27,-1595.52 110,-1471.55 163.18,-1338.98 226.52,-1332.11 284,-1201.35 292.81,-1181.3 400.51,-747.15 408,-718.15 441.06,-590.21 428.57,-550.66 484,-430.7 519.51,-353.85 582.94,-276.43 618.67,-236.02"/>
<polygon fill="black" stroke="black" points="621.22,-238.42 625.27,-228.63 616,-233.76 621.22,-238.42"/>
<text xml:space="preserve" text-anchor="middle" x="222.81" y="-1331.78" font-family="Times,serif" font-size="14.00">0</text>
</g>
<!-- 3 -->
<g id="node5" class="node">
<title>3</title>
<ellipse fill="none" stroke="black" cx="1651" cy="-2270.5" rx="18" ry="18"/>
<ellipse fill="none" stroke="black" cx="1651" cy="-2270.5" rx="22" ry="22"/>
<text xml:space="preserve" text-anchor="middle" x="1651" y="-2265.83" font-family="Times,serif" font-size="14.00">3</text>
</g>
<!-- 1&#45;&gt;3 -->
<g id="edge144" class="edge">
<title>1&#45;&gt;3</title>
<path fill="none" stroke="black" d="M1623.52,-2350.09C1628.35,-2343.46 1633.47,-2335.56 1637,-2327.75 1640.41,-2320.21 1643.07,-2311.71 1645.12,-2303.64"/>
<polygon fill="black" stroke="black" points="1648.47,-2304.68 1647.28,-2294.15 1641.65,-2303.13 1648.47,-2304.68"/>
<text xml:space="preserve" text-anchor="middle" x="1647.5" y="-2314.45" font-family="Times,serif" font-size="14.00">4</text>
</g>
<!-- 10 -->
<g id="node12" class="node">
<title>10</title>
<ellipse fill="none" stroke="black" cx="815" cy="-880.35" rx="27" ry="18"/>
<text xml:space="preserve" text-anchor="middle" x="815" y="-875.68" font-family="Times,serif" font-size="14.00">10</text>
</g>
<!-- 1&#45;&gt;10 -->
<g id="edge24" class="edge">
<title>1&#45;&gt;10</title>
<path fill="none" stroke="black" d="M1587.54,-2366.76C1458.14,-2366.67 810.93,-2364.39 731,-2327.75 699.77,-2313.44 678,-2305.85 678,-2271.5 678,-2271.5 678,-2271.5 678,-1989.75 678,-1734.18 690.57,-1669.23 735,-1417.55 759.97,-1276.12 815,-1248.09 815,-1104.48 815,-1104.48 815,-1104.48 815,-968.6 815,-949.1 815,-927.14 815,-910.14"/>
<polygon fill="black" stroke="black" points="818.5,-910.25 815,-900.25 811.5,-910.25 818.5,-910.25"/>
<text xml:space="preserve" text-anchor="middle" x="708.65" y="-1609.38" font-family="Times,serif" font-size="14.00">3</text>
</g>
<!-- 12 -->
<g id="node14" class="node">
<title>12</title>
<ellipse fill="none" stroke="black" cx="1031" cy="-573.2" rx="27" ry="18"/>
<text xml:space="preserve" text-anchor="middle" x="1031" y="-568.53" font-family="Times,serif" font-size="14.00">12</text>
</g>
<!-- 1&#45;&gt;12 -->
<g id="edge134" class="edge">
<title>1&#45;&gt;12</title>
<path fill="none" stroke="black" d="M1587.64,-2366.52C1411.63,-2364.66 255.3,-2351.53 229,-2327.75 148.97,-2255.39 114.41,-1472 108,-1364.3 106.53,-1339.59 105.24,-1333.2 108,-1308.6 117.64,-1222.56 141.67,-1204.47 186,-1130.1 220.83,-1071.68 232.03,-1058.33 275,-1005.6 365.13,-895.01 648.15,-663.68 780,-609.2 850.96,-579.88 941.81,-574.27 992.46,-573.67"/>
<polygon fill="black" stroke="black" points="992.34,-577.17 1002.32,-573.62 992.31,-570.17 992.34,-577.17"/>
<text xml:space="preserve" text-anchor="middle" x="119.23" y="-1475.5" font-family="Times,serif" font-size="14.00">0</text>
</g>
<!-- 13 -->
<g id="node15" class="node">
<title>13</title>
<ellipse fill="none" stroke="black" cx="670" cy="-969.6" rx="27" ry="18"/>
<text xml:space="preserve" text-anchor="middle" x="670" y="-964.93" font-family="Times,serif" font-size="14.00">13</text>
</g>
<!-- 1&#45;&gt;13 -->
<g id="edge122" class="edge">
<title>1&#45;&gt;13</title>
<path fill="none" stroke="black" d="M1587.57,-2366.92C1452.36,-2367.79 749.02,-2370.21 664,-2327.75 454.27,-2223.02 408.81,-2140.29 330,-1919.5 314.73,-1876.71 259.64,-2031.24 342,-1650.05 381.8,-1465.84 440.7,-1435.21 497,-1255.35 518.9,-1185.39 517.36,-1166 535,-1094.85 540.97,-1070.79 536.15,-1062.06 549,-1040.85 561.11,-1020.87 568.32,-1018.19 588,-1005.6 602.69,-996.2 620.33,-988.3 635.48,-982.39"/>
<polygon fill="black" stroke="black" points="636.44,-985.77 644.58,-978.99 633.98,-979.22 636.44,-985.77"/>
<text xml:space="preserve" text-anchor="middle" x="346.5" y="-1654" font-family="Times,serif" font-size="14.00">1</text>
</g>
<!-- 19 -->
<g id="node21" class="node">
<title>19</title>
<ellipse fill="none" stroke="black" cx="2247" cy="-206.35" rx="23.85" ry="23.85"/>
<ellipse fill="none" stroke="black" cx="2247" cy="-206.35" rx="27.85" ry="27.85"/>
<text xml:space="preserve" text-anchor="middle" x="2247" y="-201.68" font-family="Times,serif" font-size="14.00">19</text>
</g>
<!-- 1&#45;&gt;19 -->
<g id="edge72" class="edge">
<title>1&#45;&gt;19</title>
<path fill="none" stroke="black" d="M1632.05,-2365.76C1681.94,-2363.1 1807.03,-2354.13 1908,-2327.75 2160,-2261.91 2235.37,-2183.46 2360,-1954.75 2544.29,-1616.58 2498.67,-1478.67 2467,-1094.85 2453.4,-930.03 2406,-893.16 2406,-727.78 2406,-727.78 2406,-727.78 2406,-527.58 2406,-463.06 2357.91,-299.47 2314,-252.2 2304.64,-242.13 2292.6,-233.18 2281.32,-225.98"/>
<polygon fill="black" stroke="black" points="2283.33,-223.11 2272.97,-220.9 2279.69,-229.09 2283.33,-223.11"/>
<text xml:space="preserve" text-anchor="middle" x="2489.4" y="-1277.3" font-family="Times,serif" font-size="14.00">2</text>
</g>
<!-- 2 -->
<g id="node4" class="node">
<title>2</title>
<ellipse fill="none" stroke="black" cx="2046" cy="-305.45" rx="27" ry="18"/>
<text xml:space="preserve" text-anchor="middle" x="2046" y="-300.78" font-family="Times,serif" font-size="14.00">2</text>
</g>
<!-- 2&#45;&gt;1 -->
<g id="edge98" class="edge">
<title>2&#45;&gt;1</title>
<path fill="none" stroke="black" d="M2064.65,-318.93C2072.82,-325.04 2082.1,-332.92 2089,-341.45 2100.06,-355.13 2099.96,-360.58 2107,-376.7 2232.7,-664.79 2244.43,-744.8 2350,-1040.85 2364.1,-1080.4 2370.59,-1089.42 2381,-1130.1 2390.97,-1169.07 2390.65,-1179.49 2396,-1219.35 2426.89,-1449.34 2407,-1511.31 2374,-1741 2360.34,-1836.09 2388.16,-1870.51 2342,-1954.75 2306.69,-2019.19 2041.61,-2235.82 1950,-2292.5 1916.61,-2313.16 1906.73,-2316.9 1869,-2327.75 1790.07,-2350.45 1693.6,-2360.53 1643.62,-2364.5"/>
<polygon fill="black" stroke="black" points="1643.46,-2361 1633.75,-2365.25 1643.99,-2367.98 1643.46,-2361"/>
<text xml:space="preserve" text-anchor="middle" x="2414.67" y="-1331.78" font-family="Times,serif" font-size="14.00">2</text>
</g>
<!-- 2&#45;&gt;11 -->
<g id="edge114" class="edge">
<title>2&#45;&gt;11</title>
<path fill="none" stroke="black" d="M2018.95,-302.58C1845.64,-290.56 891.54,-224.44 684.6,-210.1"/>
<polygon fill="black" stroke="black" points="684.87,-206.61 674.65,-209.41 684.38,-213.59 684.87,-206.61"/>
<text xml:space="preserve" text-anchor="middle" x="1516.69" y="-256.15" font-family="Times,serif" font-size="14.00">1</text>
</g>
<!-- 2&#45;&gt;19 -->
<g id="edge31" class="edge">
<title>2&#45;&gt;19</title>
<path fill="none" stroke="black" d="M2057.18,-288.59C2066.16,-276.95 2079.75,-261.59 2095,-252.2 2129.94,-230.67 2175.78,-219 2207.94,-213.01"/>
<polygon fill="black" stroke="black" points="2208.39,-216.49 2217.64,-211.32 2207.19,-209.59 2208.39,-216.49"/>
<text xml:space="preserve" text-anchor="middle" x="2099.5" y="-256.15" font-family="Times,serif" font-size="14.00">3</text>
</g>
<!-- 22 -->
<g id="node24" class="node">
<title>22</title>
<ellipse fill="none" stroke="black" cx="1910" cy="-1148.1" rx="27" ry="18"/>
<text xml:space="preserve" text-anchor="middle" x="1910" y="-1143.43" font-family="Times,serif" font-size="14.00">22</text>
</g>
<!-- 2&#45;&gt;22 -->
<g id="edge102" class="edge">
<title>2&#45;&gt;22</title>
<path fill="none" stroke="black" d="M2050.91,-323.43C2057.97,-349.99 2069.56,-402.97 2064,-447.95 2040.71,-636.41 1999.56,-676.63 1960,-862.35 1940.11,-955.75 1922.17,-1067.59 1914.26,-1118.88"/>
<polygon fill="black" stroke="black" points="1910.84,-1118.1 1912.79,-1128.51 1917.76,-1119.16 1910.84,-1118.1"/>
<text xml:space="preserve" text-anchor="middle" x="2002.52" y="-722.1" font-family="Times,serif" font-size="14.00">4</text>
</g>
<!-- 25 -->
<g id="node27" class="node">
<title>25</title>
<ellipse fill="none" stroke="black" cx="1167" cy="-1713.15" rx="23.85" ry="23.85"/>
<ellipse fill="none" stroke="black" cx="1167" cy="-1713.15" rx="27.85" ry="27.85"/>
<text xml:space="preserve" text-anchor="middle" x="1167" y="-1708.48" font-family="Times,serif" font-size="14.00">25</text>
</g>
<!-- 2&#45;&gt;25 -->
<g id="edge125" class="edge">
<title>2&#45;&gt;25</title>
<path fill="none" stroke="black" d="M2018.61,-306.42C1906.29,-306.51 1480.81,-309.02 1351,-341.45 1315.27,-350.38 1302.39,-351.01 1276,-376.7 1193.11,-457.39 1195.08,-499.29 1159,-609.2 1128.36,-702.53 1130.25,-729.22 1122,-827.1 1121.36,-834.74 1119.89,-836.98 1122,-844.35 1132.4,-880.63 1151.94,-881.75 1167,-916.35 1199.8,-991.67 1204.24,-1013.41 1215,-1094.85 1232.2,-1225.01 1201,-1258.64 1201,-1389.93 1201,-1615.05 1201,-1615.05 1201,-1615.05 1201,-1636.75 1193.34,-1659.72 1185.3,-1677.87"/>
<polygon fill="black" stroke="black" points="1182.16,-1676.31 1181.08,-1686.85 1188.5,-1679.29 1182.16,-1676.31"/>
<text xml:space="preserve" text-anchor="middle" x="1208.25" y="-1009.55" font-family="Times,serif" font-size="14.00">0</text>
</g>
<!-- 3&#45;&gt;1 -->
<g id="edge2" class="edge">
<title>3&#45;&gt;1</title>
<path fill="none" stroke="black" d="M1639.37,-2289.31C1635.43,-2295.81 1631.21,-2303.33 1628,-2310.5 1624.52,-2318.26 1621.41,-2326.9 1618.79,-2335.02"/>
<polygon fill="black" stroke="black" points="1615.44,-2334 1615.87,-2344.59 1622.14,-2336.05 1615.44,-2334"/>
<text xml:space="preserve" text-anchor="middle" x="1632.5" y="-2314.45" font-family="Times,serif" font-size="14.00">2</text>
</g>
<!-- 3&#45;&gt;9 -->
<g id="edge92" class="edge">
<title>3&#45;&gt;9</title>
<path fill="none" stroke="black" d="M1668.78,-2256.83C1704.86,-2230.7 1788.47,-2168.09 1850,-2106 1987.53,-1967.23 2005.44,-1914.64 2095,-1741 2119.42,-1693.65 2133.63,-1684.1 2145,-1632.05 2174.34,-1497.77 2149.6,-1331.66 2137.61,-1266.47"/>
<polygon fill="black" stroke="black" points="2141.11,-1266.17 2135.81,-1256.99 2134.23,-1267.47 2141.11,-1266.17"/>
<text xml:space="preserve" text-anchor="middle" x="2090.21" y="-1762.95" font-family="Times,serif" font-size="14.00">1</text>
</g>
<!-- 3&#45;&gt;13 -->
<g id="edge128" class="edge">
<title>3&#45;&gt;13</title>
<path fill="none" stroke="black" d="M1628.7,-2267.65C1475.03,-2254.33 574.87,-2167.71 434,-1954.75 266.88,-1702.12 549,-1585.89 549,-1282.98 549,-1282.98 549,-1282.98 549,-1102.48 549,-1049.08 603.52,-1007.95 639.37,-986.68"/>
<polygon fill="black" stroke="black" points="640.67,-989.96 647.61,-981.96 637.19,-983.89 640.67,-989.96"/>
<text xml:space="preserve" text-anchor="middle" x="454.33" y="-1609.38" font-family="Times,serif" font-size="14.00">3</text>
</g>
<!-- 3&#45;&gt;22 -->
<g id="edge86" class="edge">
<title>3&#45;&gt;22</title>
<path fill="none" stroke="black" d="M1659.69,-2249.89C1682.44,-2197.5 1743.7,-2049.48 1769,-1919.5 1791.92,-1801.75 1770.87,-1769.18 1785,-1650.05 1803.16,-1496.97 1813.19,-1459.23 1846,-1308.6 1854.72,-1268.58 1853.42,-1257.23 1869,-1219.35 1875.4,-1203.79 1884.72,-1187.5 1892.86,-1174.52"/>
<polygon fill="black" stroke="black" points="1895.77,-1176.48 1898.24,-1166.18 1889.88,-1172.69 1895.77,-1176.48"/>
<text xml:space="preserve" text-anchor="middle" x="1786.05" y="-1708.48" font-family="Times,serif" font-size="14.00">0</text>
</g>
<!-- 27 -->
<g id="node29" class="node">
<title>27</title>
<ellipse fill="none" stroke="black" cx="1217" cy="-2177.25" rx="27" ry="18"/>
<text xml:space="preserve" text-anchor="middle" x="1217" y="-2172.58" font-family="Times,serif" font-size="14.00">27</text>
</g>
<!-- 3&#45;&gt;27 -->
<g id="edge62" class="edge">
<title>3&#45;&gt;27</title>
<path fill="none" stroke="black" d="M1629.48,-2264.98C1560.06,-2250.38 1341.53,-2204.44 1253.89,-2186.01"/>
<polygon fill="black" stroke="black" points="1254.65,-2182.59 1244.14,-2183.96 1253.21,-2189.44 1254.65,-2182.59"/>
<text xml:space="preserve" text-anchor="middle" x="1464.48" y="-2217.2" font-family="Times,serif" font-size="14.00">4</text>
</g>
<!-- 4 -->
<g id="node6" class="node">
<title>4</title>
<ellipse fill="none" stroke="black" cx="1022" cy="-1614.05" rx="27" ry="18"/>
<text xml:space="preserve" text-anchor="middle" x="1022" y="-1609.38" font-family="Times,serif" font-size="14.00">4</text>
</g>
<!-- 4&#45;&gt;0 -->
<g id="edge91" class="edge">
<title>4&#45;&gt;0</title>
<path fill="none" stroke="black" d="M1019.44,-1632.4C1010.32,-1693.34 979.19,-1895.19 963,-1919.5 747.89,-2242.58 -72.97,-2043.21 191,-2327.75 312.23,-2458.43 1666.55,-2460.82 1913.48,-2460.17"/>
<polygon fill="black" stroke="black" points="1913.21,-2463.67 1923.2,-2460.14 1913.19,-2456.67 1913.21,-2463.67"/>
<text xml:space="preserve" text-anchor="middle" x="845.6" y="-2030.7" font-family="Times,serif" font-size="14.00">0</text>
</g>
<!-- 4&#45;&gt;3 -->
<g id="edge131" class="edge">
<title>4&#45;&gt;3</title>
<path fill="none" stroke="black" d="M1026.54,-1632.1C1029.94,-1642.86 1035.33,-1656.68 1043,-1667.3 1072.65,-1708.4 1085.87,-1716.09 1130,-1741 1355.02,-1868.07 1632,-1775.96 1632,-2034.38 1632,-2178.25 1632,-2178.25 1632,-2178.25 1632,-2198.56 1636.57,-2220.89 1641.22,-2238.38"/>
<polygon fill="black" stroke="black" points="1637.75,-2238.97 1643.84,-2247.64 1644.49,-2237.07 1637.75,-2238.97"/>
<text xml:space="preserve" text-anchor="middle" x="1623.9" y="-1941.45" font-family="Times,serif" font-size="14.00">4</text>
</g>
<!-- 4&#45;&gt;13 -->
<g id="edge80" class="edge">
<title>4&#45;&gt;13</title>
<path fill="none" stroke="black" d="M1013.93,-1596.38C991.48,-1550.2 926.07,-1416.91 867,-1308.6 802.53,-1190.4 719.79,-1052.6 685.72,-996.42"/>
<polygon fill="black" stroke="black" points="688.73,-994.62 680.55,-987.89 682.74,-998.26 688.73,-994.62"/>
<text xml:space="preserve" text-anchor="middle" x="861.02" y="-1277.3" font-family="Times,serif" font-size="14.00">1</text>
</g>
<!-- 15 -->
<g id="node17" class="node">
<title>15</title>
<ellipse fill="none" stroke="black" cx="1475" cy="-1524.8" rx="27" ry="18"/>
<text xml:space="preserve" text-anchor="middle" x="1475" y="-1520.13" font-family="Times,serif" font-size="14.00">15</text>
</g>
<!-- 4&#45;&gt;15 -->
<g id="edge142" class="edge">
<title>4&#45;&gt;15</title>
<path fill="none" stroke="black" d="M1043.8,-1602.95C1049.92,-1600.41 1056.63,-1597.89 1063,-1596.05 1197.39,-1557.27 1363,-1537.06 1436.61,-1529.44"/>
<polygon fill="black" stroke="black" points="1436.92,-1532.93 1446.52,-1528.44 1436.22,-1525.97 1436.92,-1532.93"/>
<text xml:space="preserve" text-anchor="middle" x="1212.8" y="-1564.75" font-family="Times,serif" font-size="14.00">2</text>
</g>
<!-- 28 -->
<g id="node30" class="node">
<title>28</title>
<ellipse fill="none" stroke="black" cx="791" cy="-1990.75" rx="27" ry="18"/>
<text xml:space="preserve" text-anchor="middle" x="791" y="-1986.08" font-family="Times,serif" font-size="14.00">28</text>
</g>
<!-- 4&#45;&gt;28 -->
<g id="edge13" class="edge">
<title>4&#45;&gt;28</title>
<path fill="none" stroke="black" d="M1000.51,-1625.27C989.48,-1631.32 976.41,-1639.8 967,-1650.05 877.34,-1747.75 820.49,-1899.65 799.8,-1961.81"/>
<polygon fill="black" stroke="black" points="796.5,-1960.64 796.72,-1971.23 803.15,-1962.81 796.5,-1960.64"/>
<text xml:space="preserve" text-anchor="middle" x="874.31" y="-1807.58" font-family="Times,serif" font-size="14.00">3</text>
</g>
<!-- 5 -->
<g id="node7" class="node">
<title>5</title>
<ellipse fill="none" stroke="black" cx="1025" cy="-2084" rx="18" ry="18"/>
<ellipse fill="none" stroke="black" cx="1025" cy="-2084" rx="22" ry="22"/>
<text xml:space="preserve" text-anchor="middle" x="1025" y="-2079.33" font-family="Times,serif" font-size="14.00">5</text>
</g>
<!-- 5&#45;&gt;1 -->
<g id="edge46" class="edge">
<title>5&#45;&gt;1</title>
<path fill="none" stroke="black" d="M1041.46,-2098.62C1069.01,-2120.95 1126.8,-2165.8 1181,-2195.25 1322.49,-2272.14 1505.9,-2333.91 1578.46,-2356.98"/>
<polygon fill="black" stroke="black" points="1577.1,-2360.22 1587.69,-2359.9 1579.2,-2353.55 1577.1,-2360.22"/>
<text xml:space="preserve" text-anchor="middle" x="1254.62" y="-2217.2" font-family="Times,serif" font-size="14.00">4</text>
</g>
<!-- 17 -->
<g id="node19" class="node">
<title>17</title>
<ellipse fill="none" stroke="black" cx="980" cy="-1058.85" rx="27" ry="18"/>
<text xml:space="preserve" text-anchor="middle" x="980" y="-1054.18" font-family="Times,serif" font-size="14.00">17</text>
</g>
<!-- 5&#45;&gt;17 -->
<g id="edge93" class="edge">
<title>5&#45;&gt;17</title>
<path fill="none" stroke="black" d="M1022.6,-2061.91C1015.41,-1997.57 994.04,-1798.06 986,-1632.05 975.91,-1423.72 978.34,-1172.25 979.53,-1088.51"/>
<polygon fill="black" stroke="black" points="983.03,-1088.75 979.68,-1078.7 976.03,-1088.65 983.03,-1088.75"/>
<text xml:space="preserve" text-anchor="middle" x="988.15" y="-1564.75" font-family="Times,serif" font-size="14.00">3</text>
</g>
<!-- 5&#45;&gt;19 -->
<g id="edge99" class="edge">
<title>5&#45;&gt;19</title>
<path fill="none" stroke="black" d="M1046.92,-2079.92C1129.25,-2067.8 1426.69,-2019.12 1651,-1919.5 1789.67,-1857.92 1832.85,-1846.39 1942,-1741 2004.51,-1680.65 2002.04,-1650.5 2050,-1578.05 2102.49,-1498.75 2128.17,-1485.91 2168,-1399.55 2277.03,-1163.19 2330,-1097.03 2330,-836.73 2330,-836.73 2330,-836.73 2330,-616.83 2330,-536.58 2292,-520.57 2292,-440.33 2292,-440.33 2292,-440.33 2292,-304.45 2292,-280.94 2281,-256.94 2269.88,-238.68"/>
<polygon fill="black" stroke="black" points="2272.93,-236.96 2264.58,-230.44 2267.05,-240.75 2272.93,-236.96"/>
<text xml:space="preserve" text-anchor="middle" x="2293.2" y="-1143.43" font-family="Times,serif" font-size="14.00">2</text>
</g>
<!-- 5&#45;&gt;25 -->
<g id="edge38" class="edge">
<title>5&#45;&gt;25</title>
<path fill="none" stroke="black" d="M1046.88,-2079.36C1086.71,-2071.33 1167,-2048.16 1167,-1991.75 1167,-1991.75 1167,-1991.75 1167,-1811.25 1167,-1791.99 1167,-1770.57 1167,-1752.76"/>
<polygon fill="black" stroke="black" points="1170.5,-1752.87 1167,-1742.87 1163.5,-1752.87 1170.5,-1752.87"/>
<text xml:space="preserve" text-anchor="middle" x="1171.5" y="-1896.83" font-family="Times,serif" font-size="14.00">0</text>
</g>
<!-- 5&#45;&gt;28 -->
<g id="edge120" class="edge">
<title>5&#45;&gt;28</title>
<path fill="none" stroke="black" d="M1005.47,-2073.05C981.66,-2061.13 940,-2041 903,-2026.75 877.91,-2017.09 848.91,-2008.09 826.72,-2001.63"/>
<polygon fill="black" stroke="black" points="827.82,-1998.31 817.24,-1998.92 825.89,-2005.04 827.82,-1998.31"/>
<text xml:space="preserve" text-anchor="middle" x="948.38" y="-2030.7" font-family="Times,serif" font-size="14.00">1</text>
</g>
<!-- 6&#45;&gt;1 -->
<g id="edge25" class="edge">
<title>6&#45;&gt;1</title>
<path fill="none" stroke="black" d="M457.77,-108.43C399.92,-110.38 270,-123.85 270,-205.35 270,-836.73 270,-836.73 270,-836.73 270,-907.65 270.78,-940.23 218,-987.6 191.2,-1011.66 170.95,-988.99 139,-1005.6 118.27,-1016.38 110.21,-1019.84 100,-1040.85 -93.1,-1438.17 129,-1592.62 129,-2034.38 129,-2222.88 129,-2222.88 129,-2222.88 129,-2282.6 159.53,-2301.15 213,-2327.75 275.93,-2359.06 1369.87,-2365.65 1576.48,-2366.61"/>
<polygon fill="black" stroke="black" points="1576.23,-2370.11 1586.25,-2366.66 1576.26,-2363.11 1576.23,-2370.11"/>
<text xml:space="preserve" text-anchor="middle" x="39.74" y="-1232.68" font-family="Times,serif" font-size="14.00">0</text>
</g>
<!-- 6&#45;&gt;4 -->
<g id="edge42" class="edge">
<title>6&#45;&gt;4</title>
<path fill="none" stroke="black" d="M486.15,-125.42C489.34,-174.31 498,-318.47 498,-438.33 498,-782.25 498,-782.25 498,-782.25 498,-799.44 614.06,-1112.91 711,-1255.35 815.89,-1409.48 846.52,-1446.88 979,-1578.05 984.21,-1583.21 990.12,-1588.39 995.86,-1593.13"/>
<polygon fill="black" stroke="black" points="993.43,-1595.67 1003.42,-1599.2 997.81,-1590.21 993.43,-1595.67"/>
<text xml:space="preserve" text-anchor="middle" x="542.83" y="-875.68" font-family="Times,serif" font-size="14.00">3</text>
</g>
<!-- 18 -->
<g id="node20" class="node">
<title>18</title>
<ellipse fill="none" stroke="black" cx="645" cy="-18" rx="27" ry="18"/>
<text xml:space="preserve" text-anchor="middle" x="645" y="-13.32" font-family="Times,serif" font-size="14.00">18</text>
</g>
<!-- 6&#45;&gt;18 -->
<g id="edge129" class="edge">
<title>6&#45;&gt;18</title>
<path fill="none" stroke="black" d="M505.59,-95.02C533.31,-79.91 582.84,-52.9 614.78,-35.48"/>
<polygon fill="black" stroke="black" points="616.06,-38.77 623.16,-30.91 612.71,-32.62 616.06,-38.77"/>
<text xml:space="preserve" text-anchor="middle" x="583.83" y="-57.95" font-family="Times,serif" font-size="14.00">4</text>
</g>
<!-- 24 -->
<g id="node26" class="node">
<title>24</title>
<ellipse fill="none" stroke="black" cx="633" cy="-1901.5" rx="27" ry="18"/>
<text xml:space="preserve" text-anchor="middle" x="633" y="-1896.83" font-family="Times,serif" font-size="14.00">24</text>
</g>
<!-- 6&#45;&gt;24 -->
<g id="edge100" class="edge">
<title>6&#45;&gt;24</title>
<path fill="none" stroke="black" d="M468.78,-121.89C450.11,-139.21 422,-170.99 422,-205.35 422,-836.73 422,-836.73 422,-836.73 422,-1071.58 391.99,-1137.24 452,-1364.3 476.55,-1457.17 523,-1472.37 523,-1568.43 523,-1813.25 523,-1813.25 523,-1813.25 523,-1852.23 565.93,-1876.56 598.15,-1889.33"/>
<polygon fill="black" stroke="black" points="596.58,-1892.48 607.17,-1892.69 599.02,-1885.92 596.58,-1892.48"/>
<text xml:space="preserve" text-anchor="middle" x="421.84" y="-1009.55" font-family="Times,serif" font-size="14.00">2</text>
</g>
<!-- 29 -->
<g id="node31" class="node">
<title>29</title>
<ellipse fill="none" stroke="black" cx="1909" cy="-1336.45" rx="23.85" ry="23.85"/>
<ellipse fill="none" stroke="black" cx="1909" cy="-1336.45" rx="27.85" ry="27.85"/>
<text xml:space="preserve" text-anchor="middle" x="1909" y="-1331.78" font-family="Times,serif" font-size="14.00">29</text>
</g>
<!-- 6&#45;&gt;29 -->
<g id="edge56" class="edge">
<title>6&#45;&gt;29</title>
<path fill="none" stroke="black" d="M511.41,-111.72C557.19,-117.78 654.22,-130.85 736,-143.25 831.74,-157.77 857.14,-154.68 951,-178.5 1290.03,-264.54 1386.71,-316.09 1642,-555.2 1880.76,-778.82 1753.4,-949.33 1869,-1255.35 1874.91,-1270.99 1882.92,-1287.64 1890.21,-1301.67"/>
<polygon fill="black" stroke="black" points="1887.12,-1303.31 1894.9,-1310.5 1893.3,-1300.03 1887.12,-1303.31"/>
<text xml:space="preserve" text-anchor="middle" x="1774.59" y="-722.1" font-family="Times,serif" font-size="14.00">1</text>
</g>
<!-- 7&#45;&gt;0 -->
<g id="edge130" class="edge">
<title>7&#45;&gt;0</title>
<path fill="none" stroke="black" d="M1931.47,-1242.26C1952.92,-1246.62 1982.8,-1255.55 2003,-1273.35 2008.76,-1278.43 2253,-1758.95 2253,-1766.63 2253,-2368.75 2253,-2368.75 2253,-2368.75 2253,-2423.02 2071.55,-2448.03 1990.41,-2456.5"/>
<polygon fill="black" stroke="black" points="1990.08,-2453.01 1980.48,-2457.5 1990.78,-2459.98 1990.08,-2453.01"/>
<text xml:space="preserve" text-anchor="middle" x="2257.5" y="-1852.2" font-family="Times,serif" font-size="14.00">2</text>
</g>
<!-- 8 -->
<g id="node10" class="node">
<title>8</title>
<ellipse fill="none" stroke="black" cx="1671" cy="-1812.25" rx="27" ry="18"/>
<text xml:space="preserve" text-anchor="middle" x="1671" y="-1807.58" font-family="Times,serif" font-size="14.00">8</text>
</g>
<!-- 7&#45;&gt;8 -->
<g id="edge77" class="edge">
<title>7&#45;&gt;8</title>
<path fill="none" stroke="black" d="M1894.36,-1254.4C1877.62,-1281.25 1847,-1337.52 1847,-1389.93 1847,-1570.43 1847,-1570.43 1847,-1570.43 1847,-1651.24 1831.62,-1675.7 1784,-1741 1764.11,-1768.28 1730.11,-1787.3 1704.59,-1798.61"/>
<polygon fill="black" stroke="black" points="1703.48,-1795.28 1695.63,-1802.4 1706.2,-1801.73 1703.48,-1795.28"/>
<text xml:space="preserve" text-anchor="middle" x="1851.5" y="-1520.13" font-family="Times,serif" font-size="14.00">3</text>
</g>
<!-- 7&#45;&gt;12 -->
<g id="edge43" class="edge">
<title>7&#45;&gt;12</title>
<path fill="none" stroke="black" d="M1887.26,-1223.41C1850.62,-1196.75 1768.88,-1137.57 1755,-1130.1 1697.47,-1099.16 1668.58,-1118.2 1618,-1076.85 1559.42,-1028.96 1559.66,-1001.37 1526,-933.6 1503.58,-888.46 1513.73,-869.84 1487,-827.1 1405.78,-697.24 1360.55,-670.07 1220,-609.2 1170.74,-587.87 1108.76,-579.52 1069.5,-576.27"/>
<polygon fill="black" stroke="black" points="1069.83,-572.79 1059.59,-575.53 1069.3,-579.77 1069.83,-572.79"/>
<text xml:space="preserve" text-anchor="middle" x="1530.5" y="-920.3" font-family="Times,serif" font-size="14.00">0</text>
</g>
<!-- 21 -->
<g id="node23" class="node">
<title>21</title>
<ellipse fill="none" stroke="black" cx="1220" cy="-672.3" rx="23.85" ry="23.85"/>
<ellipse fill="none" stroke="black" cx="1220" cy="-672.3" rx="27.85" ry="27.85"/>
<text xml:space="preserve" text-anchor="middle" x="1220" y="-667.63" font-family="Times,serif" font-size="14.00">21</text>
</g>
<!-- 7&#45;&gt;21 -->
<g id="edge87" class="edge">
<title>7&#45;&gt;21</title>
<path fill="none" stroke="black" d="M1877.97,-1234.92C1795.45,-1230.09 1548.61,-1212.03 1485,-1166.1 1443.12,-1135.86 1287.9,-815.69 1236.59,-708.24"/>
<polygon fill="black" stroke="black" points="1239.79,-706.83 1232.33,-699.31 1233.47,-709.84 1239.79,-706.83"/>
<text xml:space="preserve" text-anchor="middle" x="1378.8" y="-964.93" font-family="Times,serif" font-size="14.00">1</text>
</g>
<!-- 7&#45;&gt;22 -->
<g id="edge147" class="edge">
<title>7&#45;&gt;22</title>
<path fill="none" stroke="black" d="M1910.85,-1219.47C1912.54,-1213.78 1914.16,-1207.36 1915,-1201.35 1916.09,-1193.56 1915.88,-1185.08 1915.12,-1177.27"/>
<polygon fill="black" stroke="black" points="1918.62,-1177.04 1913.83,-1167.59 1911.68,-1177.96 1918.62,-1177.04"/>
<text xml:space="preserve" text-anchor="middle" x="1920.25" y="-1188.05" font-family="Times,serif" font-size="14.00">4</text>
</g>
<!-- 8&#45;&gt;1 -->
<g id="edge110" class="edge">
<title>8&#45;&gt;1</title>
<path fill="none" stroke="black" d="M1686.1,-1827.19C1741.92,-1880.45 1929.43,-2075.88 1852,-2230.5 1811.19,-2312.01 1698.67,-2347.44 1642.62,-2360.39"/>
<polygon fill="black" stroke="black" points="1642.05,-2356.94 1633.04,-2362.5 1643.56,-2363.77 1642.05,-2356.94"/>
<text xml:space="preserve" text-anchor="middle" x="1869.95" y="-2079.33" font-family="Times,serif" font-size="14.00">3</text>
</g>
<!-- 8&#45;&gt;2 -->
<g id="edge39" class="edge">
<title>8&#45;&gt;2</title>
<path fill="none" stroke="black" d="M1663.34,-1794.73C1651.27,-1769.64 1626.17,-1721.07 1597,-1685.3 1537.24,-1612.01 1492.25,-1620.95 1439,-1542.8 1362.15,-1430.02 1363.95,-1387.79 1331,-1255.35 1305.84,-1154.24 1309.5,-1126.69 1301,-1022.85 1296.44,-967.13 1272.82,-574.73 1284,-519.95 1289.22,-494.39 1289.71,-485.48 1307,-465.95 1327.76,-442.51 1338.61,-441.51 1368,-430.7 1601.31,-344.84 1902.44,-316.51 2007.68,-308.88"/>
<polygon fill="black" stroke="black" points="2007.72,-312.38 2017.45,-308.19 2007.23,-305.4 2007.72,-312.38"/>
<text xml:space="preserve" text-anchor="middle" x="1309.44" y="-1054.18" font-family="Times,serif" font-size="14.00">1</text>
</g>
<!-- 8&#45;&gt;8 -->
<g id="edge58" class="edge">
<title>8&#45;&gt;8</title>
<path fill="none" stroke="black" d="M1695.53,-1820.49C1706.51,-1821.27 1716,-1818.53 1716,-1812.25 1716,-1808.33 1712.29,-1805.79 1706.83,-1804.62"/>
<polygon fill="black" stroke="black" points="1707.22,-1801.14 1697.04,-1804.1 1706.84,-1808.13 1707.22,-1801.14"/>
<text xml:space="preserve" text-anchor="middle" x="1720.5" y="-1807.58" font-family="Times,serif" font-size="14.00">2</text>
</g>
<!-- 14 -->
<g id="node16" class="node">
<title>14</title>
<ellipse fill="none" stroke="black" cx="1739" cy="-483.95" rx="27" ry="18"/>
<text xml:space="preserve" text-anchor="middle" x="1739" y="-479.28" font-family="Times,serif" font-size="14.00">14</text>
</g>
<!-- 8&#45;&gt;14 -->
<g id="edge41" class="edge">
<title>8&#45;&gt;14</title>
<path fill="none" stroke="black" d="M1675.54,-1794.2C1680.27,-1774.92 1687,-1742.51 1687,-1714.15 1687,-1714.15 1687,-1714.15 1687,-1568.43 1687,-1477.55 1693.82,-1455.03 1699,-1364.3 1704.03,-1276.22 1705.58,-1254.22 1710,-1166.1 1722.68,-913.25 1734.42,-607.41 1737.93,-513.65"/>
<polygon fill="black" stroke="black" points="1741.42,-513.96 1738.3,-503.84 1734.43,-513.7 1741.42,-513.96"/>
<text xml:space="preserve" text-anchor="middle" x="1716.24" y="-1143.43" font-family="Times,serif" font-size="14.00">0</text>
</g>
<!-- 8&#45;&gt;25 -->
<g id="edge105" class="edge">
<title>8&#45;&gt;25</title>
<path fill="none" stroke="black" d="M1645.31,-1806.3C1562.81,-1790.41 1304.22,-1740.59 1205.67,-1721.6"/>
<polygon fill="black" stroke="black" points="1206.43,-1718.19 1195.95,-1719.73 1205.11,-1725.06 1206.43,-1718.19"/>
<text xml:space="preserve" text-anchor="middle" x="1483.46" y="-1762.95" font-family="Times,serif" font-size="14.00">4</text>
</g>
<!-- 9&#45;&gt;2 -->
<g id="edge116" class="edge">
<title>9&#45;&gt;2</title>
<path fill="none" stroke="black" d="M2137.84,-1219.47C2139.53,-1213.78 2141.15,-1207.36 2142,-1201.35 2172.02,-988.7 2147.37,-932.86 2143,-718.15 2142.01,-669.64 2144.48,-656.98 2136,-609.2 2114.61,-488.63 2121.96,-452.8 2071,-341.45 2069.37,-337.88 2067.35,-334.3 2065.17,-330.86"/>
<polygon fill="black" stroke="black" points="2068.25,-329.16 2059.68,-322.93 2062.5,-333.15 2068.25,-329.16"/>
<text xml:space="preserve" text-anchor="middle" x="2150.74" y="-776.58" font-family="Times,serif" font-size="14.00">1</text>
</g>
<!-- 9&#45;&gt;19 -->
<g id="edge81" class="edge">
<title>9&#45;&gt;19</title>
<path fill="none" stroke="black" d="M2145.08,-1221.23C2149.51,-1215.37 2154.07,-1208.38 2157,-1201.35 2163.11,-1186.68 2160.62,-1181.81 2163,-1166.1 2205.82,-883.98 2247,-814.93 2247,-529.58 2247,-529.58 2247,-529.58 2247,-304.45 2247,-285.18 2247,-263.76 2247,-245.96"/>
<polygon fill="black" stroke="black" points="2250.5,-246.07 2247,-236.07 2243.5,-246.07 2250.5,-246.07"/>
<text xml:space="preserve" text-anchor="middle" x="2243.59" y="-722.1" font-family="Times,serif" font-size="14.00">3</text>
</g>
<!-- 26 -->
<g id="node28" class="node">
<title>26</title>
<ellipse fill="none" stroke="black" cx="1936" cy="-394.7" rx="27" ry="18"/>
<text xml:space="preserve" text-anchor="middle" x="1936" y="-390.03" font-family="Times,serif" font-size="14.00">26</text>
</g>
<!-- 9&#45;&gt;26 -->
<g id="edge6" class="edge">
<title>9&#45;&gt;26</title>
<path fill="none" stroke="black" d="M2130.3,-1219.01C2125.94,-1174.55 2113.9,-1052.88 2103,-951.6 2101.31,-935.93 2101.68,-931.89 2099,-916.35 2089.58,-861.76 2017.02,-476.6 1986,-430.7 1981.15,-423.52 1974.29,-417.35 1967.2,-412.29"/>
<polygon fill="black" stroke="black" points="1969.14,-409.37 1958.84,-406.89 1965.34,-415.25 1969.14,-409.37"/>
<text xml:space="preserve" text-anchor="middle" x="2090.11" y="-831.05" font-family="Times,serif" font-size="14.00">4</text>
</g>
<!-- 9&#45;&gt;27 -->
<g id="edge79" class="edge">
<title>9&#45;&gt;27</title>
<path fill="none" stroke="black" d="M2126.58,-1255.21C2104.7,-1321.59 2018.07,-1569.64 1892,-1741 1730.61,-1960.38 1676.9,-2030.71 1428,-2141.25 1371.42,-2166.38 1299.05,-2173.62 1255.45,-2175.62"/>
<polygon fill="black" stroke="black" points="1255.59,-2172.11 1245.73,-2175.99 1255.85,-2179.11 1255.59,-2172.11"/>
<text xml:space="preserve" text-anchor="middle" x="1933.88" y="-1708.48" font-family="Times,serif" font-size="14.00">0</text>
</g>
<!-- 9&#45;&gt;29 -->
<g id="edge21" class="edge">
<title>9&#45;&gt;29</title>
<path fill="none" stroke="black" d="M2113.85,-1250.85C2104.31,-1257.46 2092.47,-1265.77 2082,-1273.35 2071.65,-1280.85 2070.41,-1284.85 2059,-1290.6 2023.12,-1308.69 1978.65,-1320.85 1947.48,-1327.89"/>
<polygon fill="black" stroke="black" points="1947.15,-1324.38 1938.12,-1329.93 1948.64,-1331.22 1947.15,-1324.38"/>
<text xml:space="preserve" text-anchor="middle" x="2086.5" y="-1277.3" font-family="Times,serif" font-size="14.00">2</text>
</g>
<!-- 10&#45;&gt;10 -->
<g id="edge145" class="edge">
<title>10&#45;&gt;10</title>
<path fill="none" stroke="black" d="M839.53,-888.59C850.51,-889.37 860,-886.63 860,-880.35 860,-876.43 856.29,-873.89 850.83,-872.72"/>
<polygon fill="black" stroke="black" points="851.22,-869.24 841.04,-872.2 850.84,-876.23 851.22,-869.24"/>
<text xml:space="preserve" text-anchor="middle" x="864.5" y="-875.68" font-family="Times,serif" font-size="14.00">3</text>
</g>
<!-- 16 -->
<g id="node18" class="node">
<title>16</title>
<ellipse fill="none" stroke="black" cx="1352" cy="-781.25" rx="23.85" ry="23.85"/>
<ellipse fill="none" stroke="black" cx="1352" cy="-781.25" rx="27.85" ry="27.85"/>
<text xml:space="preserve" text-anchor="middle" x="1352" y="-776.58" font-family="Times,serif" font-size="14.00">16</text>
</g>
<!-- 10&#45;&gt;16 -->
<g id="edge27" class="edge">
<title>10&#45;&gt;16</title>
<path fill="none" stroke="black" d="M841.99,-877.28C911.46,-871.85 1095.15,-856.73 1155,-844.35 1212.17,-832.53 1276.31,-810.62 1315.42,-796.25"/>
<polygon fill="black" stroke="black" points="1316.43,-799.61 1324.58,-792.84 1313.99,-793.04 1316.43,-799.61"/>
<text xml:space="preserve" text-anchor="middle" x="1225.48" y="-831.05" font-family="Times,serif" font-size="14.00">4</text>
</g>
<!-- 10&#45;&gt;24 -->
<g id="edge126" class="edge">
<title>10&#45;&gt;24</title>
<path fill="none" stroke="black" d="M794,-892.23C784.29,-898.2 773.3,-906.41 766,-916.35 667.14,-1050.91 678.67,-1109.04 649,-1273.35 625.67,-1402.52 637,-1437.17 637,-1568.43 637,-1813.25 637,-1813.25 637,-1813.25 637,-1832.78 635.99,-1854.73 634.98,-1871.73"/>
<polygon fill="black" stroke="black" points="631.5,-1871.42 634.36,-1881.62 638.48,-1871.86 631.5,-1871.42"/>
<text xml:space="preserve" text-anchor="middle" x="639.75" y="-1386.25" font-family="Times,serif" font-size="14.00">2</text>
</g>
<!-- 10&#45;&gt;27 -->
<g id="edge36" class="edge">
<title>10&#45;&gt;27</title>
<path fill="none" stroke="black" d="M826.4,-896.87C837.59,-913.66 853,-941.67 853,-968.6 853,-1104.48 853,-1104.48 853,-1104.48 853,-1187.32 858.53,-1207.88 863,-1290.6 864.77,-1323.36 863.82,-1331.65 867,-1364.3 892.31,-1623.78 949,-1684.42 949,-1945.13 949,-2085 949,-2085 949,-2085 949,-2133.06 1105.36,-2160.94 1179.21,-2171.43"/>
<polygon fill="black" stroke="black" points="1178.44,-2174.86 1188.82,-2172.76 1179.4,-2167.92 1178.44,-2174.86"/>
<text xml:space="preserve" text-anchor="middle" x="897.74" y="-1520.13" font-family="Times,serif" font-size="14.00">0</text>
</g>
<!-- 10&#45;&gt;28 -->
<g id="edge14" class="edge">
<title>10&#45;&gt;28</title>
<path fill="none" stroke="black" d="M807.53,-897.83C805.16,-903.59 802.71,-910.17 801,-916.35 758.23,-1071.23 756.71,-1113.18 744,-1273.35 722.78,-1540.86 770.49,-1865.11 786.2,-1961.46"/>
<polygon fill="black" stroke="black" points="782.71,-1961.76 787.79,-1971.06 789.61,-1960.62 782.71,-1961.76"/>
<text xml:space="preserve" text-anchor="middle" x="743.38" y="-1430.88" font-family="Times,serif" font-size="14.00">1</text>
</g>
<!-- 11&#45;&gt;1 -->
<g id="edge115" class="edge">
<title>11&#45;&gt;1</title>
<path fill="none" stroke="black" d="M630.79,-230.68C621.98,-246.22 611.2,-267.4 605,-287.45 566.87,-410.75 548,-443.13 548,-572.2 548,-782.25 548,-782.25 548,-782.25 548,-795.6 222.63,-1672.46 219,-1685.3 209.92,-1717.47 207.35,-1725.74 204,-1759 181.95,-1977.92 304.72,-2020.2 438,-2195.25 473.49,-2241.87 478.13,-2260.18 527,-2292.5 566.31,-2318.5 580.72,-2318.89 627,-2327.75 814.82,-2363.73 1426.23,-2366.61 1576.44,-2366.76"/>
<polygon fill="black" stroke="black" points="1576.09,-2370.26 1586.1,-2366.77 1576.1,-2363.26 1576.09,-2370.26"/>
<text xml:space="preserve" text-anchor="middle" x="374.44" y="-1277.3" font-family="Times,serif" font-size="14.00">3</text>
</g>
<!-- 11&#45;&gt;6 -->
<g id="edge95" class="edge">
<title>11&#45;&gt;6</title>
<path fill="none" stroke="black" d="M621.39,-191.02C592.81,-173.68 544.68,-144.47 513.9,-125.79"/>
<polygon fill="black" stroke="black" points="515.84,-122.87 505.48,-120.68 512.21,-128.86 515.84,-122.87"/>
<text xml:space="preserve" text-anchor="middle" x="574.3" y="-147.2" font-family="Times,serif" font-size="14.00">2</text>
</g>
<!-- 11&#45;&gt;7 -->
<g id="edge136" class="edge">
<title>11&#45;&gt;7</title>
<path fill="none" stroke="black" d="M671.53,-215.94C760.32,-244.61 1046.7,-336.43 1141,-358.7 1419.13,-424.37 1517.75,-341.49 1775,-465.95 1852.88,-503.63 1898,-530.31 1898,-616.83 1898,-836.73 1898,-836.73 1898,-836.73 1898,-967.55 1879.34,-999.39 1874,-1130.1 1873.35,-1146.09 1870.7,-1150.45 1874,-1166.1 1877.22,-1181.39 1883.99,-1197.4 1890.38,-1210.27"/>
<polygon fill="black" stroke="black" points="1887.16,-1211.66 1894.88,-1218.91 1893.37,-1208.43 1887.16,-1211.66"/>
<text xml:space="preserve" text-anchor="middle" x="1902.5" y="-722.1" font-family="Times,serif" font-size="14.00">4</text>
</g>
<!-- 11&#45;&gt;13 -->
<g id="edge61" class="edge">
<title>11&#45;&gt;13</title>
<path fill="none" stroke="black" d="M655.17,-232.45C662.09,-251.79 670,-279.38 670,-304.45 670,-881.35 670,-881.35 670,-881.35 670,-900.85 670,-922.81 670,-939.82"/>
<polygon fill="black" stroke="black" points="666.5,-939.71 670,-949.71 673.5,-939.71 666.5,-939.71"/>
<text xml:space="preserve" text-anchor="middle" x="674.5" y="-568.53" font-family="Times,serif" font-size="14.00">1</text>
</g>
<!-- 11&#45;&gt;18 -->
<g id="edge149" class="edge">
<title>11&#45;&gt;18</title>
<path fill="none" stroke="black" d="M645,-178.25C645,-143.49 645,-83.44 645,-47.85"/>
<polygon fill="black" stroke="black" points="648.5,-47.87 645,-37.87 641.5,-47.87 648.5,-47.87"/>
<text xml:space="preserve" text-anchor="middle" x="649.5" y="-102.58" font-family="Times,serif" font-size="14.00">0</text>
</g>
<!-- 12&#45;&gt;6 -->
<g id="edge10" class="edge">
<title>12&#45;&gt;6</title>
<path fill="none" stroke="black" d="M1009.44,-561.76C948.49,-531.49 771.87,-438.49 656,-323.45 592.96,-260.86 531.18,-175.51 502.16,-133.59"/>
<polygon fill="black" stroke="black" points="505.08,-131.65 496.53,-125.39 499.31,-135.62 505.08,-131.65"/>
<text xml:space="preserve" text-anchor="middle" x="696.59" y="-345.4" font-family="Times,serif" font-size="14.00">0</text>
</g>
<!-- 12&#45;&gt;10 -->
<g id="edge133" class="edge">
<title>12&#45;&gt;10</title>
<path fill="none" stroke="black" d="M1019.03,-589.69C1008.17,-603.84 991.79,-625.39 978,-644.45 923.44,-719.84 861.38,-810.78 832.06,-854.07"/>
<polygon fill="black" stroke="black" points="829.21,-852.03 826.51,-862.28 835.01,-855.96 829.21,-852.03"/>
<text xml:space="preserve" text-anchor="middle" x="929.94" y="-722.1" font-family="Times,serif" font-size="14.00">3</text>
</g>
<!-- 12&#45;&gt;12 -->
<g id="edge146" class="edge">
<title>12&#45;&gt;12</title>
<path fill="none" stroke="black" d="M1055.53,-581.44C1066.51,-582.22 1076,-579.48 1076,-573.2 1076,-569.28 1072.29,-566.74 1066.83,-565.57"/>
<polygon fill="black" stroke="black" points="1067.22,-562.09 1057.04,-565.05 1066.84,-569.08 1067.22,-562.09"/>
<text xml:space="preserve" text-anchor="middle" x="1080.5" y="-568.53" font-family="Times,serif" font-size="14.00">2</text>
</g>
<!-- 12&#45;&gt;21 -->
<g id="edge138" class="edge">
<title>12&#45;&gt;21</title>
<path fill="none" stroke="black" d="M1052.51,-584.62C1066.63,-591.51 1085.47,-600.78 1102,-609.2 1130.26,-623.6 1162.07,-640.38 1185.54,-652.86"/>
<polygon fill="black" stroke="black" points="1183.88,-655.94 1194.35,-657.56 1187.18,-649.76 1183.88,-655.94"/>
<text xml:space="preserve" text-anchor="middle" x="1139.05" y="-613.15" font-family="Times,serif" font-size="14.00">4</text>
</g>
<!-- 23 -->
<g id="node25" class="node">
<title>23</title>
<ellipse fill="none" stroke="black" cx="1602" cy="-1435.55" rx="27" ry="18"/>
<text xml:space="preserve" text-anchor="middle" x="1602" y="-1430.88" font-family="Times,serif" font-size="14.00">23</text>
</g>
<!-- 12&#45;&gt;23 -->
<g id="edge141" class="edge">
<title>12&#45;&gt;23</title>
<path fill="none" stroke="black" d="M1040.97,-590.4C1085.5,-662.62 1271.22,-962.24 1434,-1201.35 1486.62,-1278.65 1552.23,-1367.75 1583.61,-1409.94"/>
<polygon fill="black" stroke="black" points="1580.62,-1411.78 1589.4,-1417.71 1586.23,-1407.6 1580.62,-1411.78"/>
<text xml:space="preserve" text-anchor="middle" x="1318.88" y="-1009.55" font-family="Times,serif" font-size="14.00">1</text>
</g>
<!-- 13&#45;&gt;0 -->
<g id="edge90" class="edge">
<title>13&#45;&gt;0</title>
<path fill="none" stroke="black" d="M643.63,-974.81C620.01,-979.5 585.15,-988.74 559,-1005.6 514.23,-1034.47 507.12,-1049.61 479,-1094.85 410.91,-1204.44 419.91,-1244.91 371,-1364.3 328.67,-1467.63 315.37,-1492.34 274,-1596.05 248.47,-1660.05 244.72,-1677.08 219,-1741 212.65,-1756.8 210.75,-1760.62 204,-1776.25 154.37,-1891.23 91,-1909.14 91,-2034.38 91,-2368.75 91,-2368.75 91,-2368.75 91,-2463.38 1646.26,-2461.26 1913.23,-2460.19"/>
<polygon fill="black" stroke="black" points="1913.11,-2463.69 1923.1,-2460.15 1913.08,-2456.69 1913.11,-2463.69"/>
<text xml:space="preserve" text-anchor="middle" x="244.95" y="-1708.48" font-family="Times,serif" font-size="14.00">1</text>
</g>
<!-- 13&#45;&gt;8 -->
<g id="edge139" class="edge">
<title>13&#45;&gt;8</title>
<path fill="none" stroke="black" d="M671.69,-987.83C679.7,-1061.66 719.36,-1355.97 858,-1542.8 947.13,-1662.92 991.06,-1685.61 1130,-1741 1242.41,-1785.82 1279.99,-1760.67 1400,-1776.25 1483.14,-1787.05 1580.65,-1799.62 1633.06,-1806.37"/>
<polygon fill="black" stroke="black" points="1632.59,-1809.84 1642.96,-1807.64 1633.48,-1802.9 1632.59,-1809.84"/>
<text xml:space="preserve" text-anchor="middle" x="780.8" y="-1386.25" font-family="Times,serif" font-size="14.00">4</text>
</g>
<!-- 13&#45;&gt;10 -->
<g id="edge73" class="edge">
<title>13&#45;&gt;10</title>
<path fill="none" stroke="black" d="M685.01,-954.25C699.24,-940.86 719.76,-922.09 729,-916.35 744.8,-906.54 763.83,-898.46 779.96,-892.55"/>
<polygon fill="black" stroke="black" points="780.9,-895.93 789.17,-889.31 778.57,-889.33 780.9,-895.93"/>
<text xml:space="preserve" text-anchor="middle" x="733.5" y="-920.3" font-family="Times,serif" font-size="14.00">0</text>
</g>
<!-- 13&#45;&gt;11 -->
<g id="edge78" class="edge">
<title>13&#45;&gt;11</title>
<path fill="none" stroke="black" d="M650.03,-957.24C627.51,-942.77 594,-915.5 594,-881.35 594,-881.35 594,-881.35 594,-438.33 594,-368.1 616.76,-288.63 631.87,-243.6"/>
<polygon fill="black" stroke="black" points="635.11,-244.95 635.04,-234.35 628.48,-242.68 635.11,-244.95"/>
<text xml:space="preserve" text-anchor="middle" x="598.5" y="-568.53" font-family="Times,serif" font-size="14.00">2</text>
</g>
<!-- 13&#45;&gt;24 -->
<g id="edge29" class="edge">
<title>13&#45;&gt;24</title>
<path fill="none" stroke="black" d="M663.85,-987.46C651.17,-1023.15 622.35,-1109.2 611,-1184.1 585.39,-1353.07 599,-1397.53 599,-1568.43 599,-1813.25 599,-1813.25 599,-1813.25 599,-1835.06 608.34,-1857.98 617.23,-1874.84"/>
<polygon fill="black" stroke="black" points="613.95,-1876.15 621.88,-1883.18 620.06,-1872.74 613.95,-1876.15"/>
<text xml:space="preserve" text-anchor="middle" x="601.56" y="-1430.88" font-family="Times,serif" font-size="14.00">3</text>
</g>
<!-- 14&#45;&gt;7 -->
<g id="edge107" class="edge">
<title>14&#45;&gt;7</title>
<path fill="none" stroke="black" d="M1760.63,-495.27C1795.44,-512.59 1860,-547.99 1860,-572.2 1860,-782.25 1860,-782.25 1860,-782.25 1860,-941.51 1926.75,-972.01 1946,-1130.1 1947.93,-1145.98 1949.56,-1150.5 1946,-1166.1 1942.12,-1183.06 1937.72,-1186.3 1929,-1201.35 1927.12,-1204.6 1925.03,-1207.95 1922.9,-1211.22"/>
<polygon fill="black" stroke="black" points="1920.07,-1209.16 1917.36,-1219.4 1925.87,-1213.08 1920.07,-1209.16"/>
<text xml:space="preserve" text-anchor="middle" x="1879.44" y="-875.68" font-family="Times,serif" font-size="14.00">3</text>
</g>
<!-- 20 -->
<g id="node22" class="node">
<title>20</title>
<ellipse fill="none" stroke="black" cx="1606" cy="-573.2" rx="27" ry="18"/>
<text xml:space="preserve" text-anchor="middle" x="1606" y="-568.53" font-family="Times,serif" font-size="14.00">20</text>
</g>
<!-- 14&#45;&gt;20 -->
<g id="edge89" class="edge">
<title>14&#45;&gt;20</title>
<path fill="none" stroke="black" d="M1713.69,-490.82C1694.39,-496.17 1667.83,-505.48 1648,-519.95 1638.09,-527.18 1629.22,-537.31 1622.22,-546.73"/>
<polygon fill="black" stroke="black" points="1619.37,-544.7 1616.5,-554.9 1625.1,-548.72 1619.37,-544.7"/>
<text xml:space="preserve" text-anchor="middle" x="1652.5" y="-523.9" font-family="Times,serif" font-size="14.00">0</text>
</g>
<!-- 14&#45;&gt;22 -->
<g id="edge4" class="edge">
<title>14&#45;&gt;22</title>
<path fill="none" stroke="black" d="M1746.01,-501.55C1755.72,-525.12 1773.3,-569.79 1784,-609.2 1843.89,-829.73 1808.79,-898.89 1891,-1112.1 1892.13,-1115.03 1893.45,-1118.01 1894.87,-1120.94"/>
<polygon fill="black" stroke="black" points="1891.76,-1122.56 1899.5,-1129.8 1897.96,-1119.31 1891.76,-1122.56"/>
<text xml:space="preserve" text-anchor="middle" x="1831.26" y="-831.05" font-family="Times,serif" font-size="14.00">1</text>
</g>
<!-- 14&#45;&gt;25 -->
<g id="edge106" class="edge">
<title>14&#45;&gt;25</title>
<path fill="none" stroke="black" d="M1714.76,-492.36C1683.08,-502.08 1631.11,-518.1 1627,-519.95 1529.46,-563.89 1473.56,-551.27 1421,-644.45 1408.84,-666.01 1413.97,-676.41 1421,-700.15 1433.05,-740.85 1473,-737.81 1473,-780.25 1473,-925.98 1473,-925.98 1473,-925.98 1473,-1088.64 1323.64,-1475.35 1280,-1632.05 1275.63,-1647.74 1280.72,-1655.04 1270,-1667.3 1253.39,-1686.31 1227.24,-1697.56 1205.45,-1704.04"/>
<polygon fill="black" stroke="black" points="1204.72,-1700.62 1195.99,-1706.62 1206.55,-1707.37 1204.72,-1700.62"/>
<text xml:space="preserve" text-anchor="middle" x="1450.12" y="-1098.8" font-family="Times,serif" font-size="14.00">4</text>
</g>
<!-- 14&#45;&gt;26 -->
<g id="edge63" class="edge">
<title>14&#45;&gt;26</title>
<path fill="none" stroke="black" d="M1761.22,-473.11C1795.97,-457.72 1863.35,-427.88 1903.54,-410.08"/>
<polygon fill="black" stroke="black" points="1904.76,-413.37 1912.48,-406.12 1901.92,-406.97 1904.76,-413.37"/>
<text xml:space="preserve" text-anchor="middle" x="1859.64" y="-434.65" font-family="Times,serif" font-size="14.00">2</text>
</g>
<!-- 15&#45;&gt;1 -->
<g id="edge52" class="edge">
<title>15&#45;&gt;1</title>
<path fill="none" stroke="black" d="M1480.19,-1542.84C1491.62,-1581.98 1518,-1681.47 1518,-1766.63 1518,-1947.13 1518,-1947.13 1518,-1947.13 1518,-2027.72 1540.67,-2045.29 1558,-2124 1574.62,-2199.51 1593.48,-2288.39 1603.28,-2334.83"/>
<polygon fill="black" stroke="black" points="1599.83,-2335.41 1605.32,-2344.47 1606.68,-2333.97 1599.83,-2335.41"/>
<text xml:space="preserve" text-anchor="middle" x="1522.57" y="-1941.45" font-family="Times,serif" font-size="14.00">2</text>
</g>
<!-- 15&#45;&gt;9 -->
<g id="edge51" class="edge">
<title>15&#45;&gt;9</title>
<path fill="none" stroke="black" d="M1499.73,-1516.8C1570.51,-1496.46 1779.5,-1434.38 1946,-1364.3 2012.63,-1336.26 2035.15,-1336.5 2091,-1290.6 2100.26,-1283 2108.75,-1272.96 2115.58,-1263.71"/>
<polygon fill="black" stroke="black" points="2118.3,-1265.93 2121.19,-1255.74 2112.57,-1261.91 2118.3,-1265.93"/>
<text xml:space="preserve" text-anchor="middle" x="1902.51" y="-1386.25" font-family="Times,serif" font-size="14.00">0</text>
</g>
<!-- 15&#45;&gt;13 -->
<g id="edge64" class="edge">
<title>15&#45;&gt;13</title>
<path fill="none" stroke="black" d="M1454.47,-1512.66C1443.49,-1506.29 1430.01,-1497.8 1419,-1488.8 1359.98,-1440.55 1352.43,-1420.58 1301,-1364.3 1284.84,-1346.62 1036.55,-1053.16 1016,-1040.85 916.79,-981.43 775.88,-971.44 708.62,-970.29"/>
<polygon fill="black" stroke="black" points="708.88,-966.8 698.84,-970.19 708.8,-973.79 708.88,-966.8"/>
<text xml:space="preserve" text-anchor="middle" x="1211.75" y="-1232.68" font-family="Times,serif" font-size="14.00">3</text>
</g>
<!-- 15&#45;&gt;20 -->
<g id="edge26" class="edge">
<title>15&#45;&gt;20</title>
<path fill="none" stroke="black" d="M1485.99,-1508.14C1509.55,-1474.26 1563.71,-1394.8 1575,-1364.3 1613.31,-1260.8 1625,-994.18 1625,-925.98 1625,-925.98 1625,-925.98 1625,-671.3 1625,-647.69 1619.52,-621.43 1614.45,-602.19"/>
<polygon fill="black" stroke="black" points="1617.85,-601.35 1611.8,-592.65 1611.1,-603.22 1617.85,-601.35"/>
<text xml:space="preserve" text-anchor="middle" x="1625.36" y="-1054.18" font-family="Times,serif" font-size="14.00">1</text>
</g>
<!-- 15&#45;&gt;23 -->
<g id="edge75" class="edge">
<title>15&#45;&gt;23</title>
<path fill="none" stroke="black" d="M1489.19,-1509.4C1500.64,-1498.24 1517.51,-1482.83 1534,-1471.55 1545.07,-1463.98 1558,-1456.93 1569.6,-1451.17"/>
<polygon fill="black" stroke="black" points="1570.92,-1454.42 1578.41,-1446.92 1567.88,-1448.11 1570.92,-1454.42"/>
<text xml:space="preserve" text-anchor="middle" x="1538.5" y="-1475.5" font-family="Times,serif" font-size="14.00">4</text>
</g>
<!-- 16&#45;&gt;15 -->
<g id="edge140" class="edge">
<title>16&#45;&gt;15</title>
<path fill="none" stroke="black" d="M1364.19,-806.66C1367.26,-813.21 1370.41,-820.36 1373,-827.1 1393.76,-881.1 1397.12,-895.44 1411,-951.6 1468.52,-1184.39 1407.82,-1254.99 1461,-1488.8 1461.6,-1491.44 1462.37,-1494.14 1463.24,-1496.81"/>
<polygon fill="black" stroke="black" points="1459.9,-1497.85 1466.68,-1505.99 1466.45,-1495.4 1459.9,-1497.85"/>
<text xml:space="preserve" text-anchor="middle" x="1442.6" y="-1143.43" font-family="Times,serif" font-size="14.00">2</text>
</g>
<!-- 16&#45;&gt;16 -->
<g id="edge47" class="edge">
<title>16&#45;&gt;16</title>
<path fill="none" stroke="black" d="M1378.39,-791.4C1388.97,-791.98 1397.85,-788.59 1397.85,-781.25 1397.85,-776.78 1394.55,-773.77 1389.58,-772.24"/>
<polygon fill="black" stroke="black" points="1390.19,-768.78 1379.89,-771.25 1389.49,-775.75 1390.19,-768.78"/>
<text xml:space="preserve" text-anchor="middle" x="1402.35" y="-776.58" font-family="Times,serif" font-size="14.00">4</text>
</g>
<!-- 16&#45;&gt;21 -->
<g id="edge76" class="edge">
<title>16&#45;&gt;21</title>
<path fill="none" stroke="black" d="M1330.5,-762.83C1308.73,-745.19 1274.88,-717.77 1250.38,-697.92"/>
<polygon fill="black" stroke="black" points="1252.64,-695.24 1242.67,-691.67 1248.24,-700.68 1252.64,-695.24"/>
<text xml:space="preserve" text-anchor="middle" x="1298.4" y="-722.1" font-family="Times,serif" font-size="14.00">3</text>
</g>
<!-- 16&#45;&gt;25 -->
<g id="edge84" class="edge">
<title>16&#45;&gt;25</title>
<path fill="none" stroke="black" d="M1340.96,-806.96C1321.27,-852.28 1280.43,-952.19 1262,-1040.85 1205.19,-1314.22 1335.71,-1415.54 1215,-1667.3 1211.08,-1675.47 1204.97,-1682.89 1198.41,-1689.24"/>
<polygon fill="black" stroke="black" points="1196.3,-1686.44 1191.12,-1695.68 1200.93,-1691.68 1196.3,-1686.44"/>
<text xml:space="preserve" text-anchor="middle" x="1254.6" y="-1232.68" font-family="Times,serif" font-size="14.00">1</text>
</g>
<!-- 16&#45;&gt;26 -->
<g id="edge108" class="edge">
<title>16&#45;&gt;26</title>
<path fill="none" stroke="black" d="M1344.46,-754.33C1328.77,-694.34 1300.09,-545.01 1377,-465.95 1413.39,-428.55 1777.53,-404.69 1897.73,-397.78"/>
<polygon fill="black" stroke="black" points="1897.6,-401.3 1907.39,-397.23 1897.21,-394.31 1897.6,-401.3"/>
<text xml:space="preserve" text-anchor="middle" x="1336.62" y="-568.53" font-family="Times,serif" font-size="14.00">0</text>
</g>
<!-- 17&#45;&gt;1 -->
<g id="edge37" class="edge">
<title>17&#45;&gt;1</title>
<path fill="none" stroke="black" d="M965.25,-1074.11C950.19,-1090.27 929,-1118.15 929,-1147.1 929,-1282.98 929,-1282.98 929,-1282.98 929,-1384.53 897.06,-1406.22 883,-1506.8 870.65,-1595.11 870.5,-1829.63 843,-1954.75 837.63,-1979.2 844,-1990.38 827,-2008.75 811.81,-2025.17 794.82,-2010 780,-2026.75 762.93,-2046.05 766,-2057.24 766,-2083 766,-2271.5 766,-2271.5 766,-2271.5 766,-2354.59 1420.16,-2365.21 1576.66,-2366.56"/>
<polygon fill="black" stroke="black" points="1576.32,-2370.05 1586.35,-2366.63 1576.37,-2363.05 1576.32,-2370.05"/>
<text xml:space="preserve" text-anchor="middle" x="874.92" y="-1708.48" font-family="Times,serif" font-size="14.00">2</text>
</g>
<!-- 17&#45;&gt;11 -->
<g id="edge53" class="edge">
<title>17&#45;&gt;11</title>
<path fill="none" stroke="black" d="M971.83,-1041.67C934.73,-967.99 784,-665.67 784,-618.83 784,-618.83 784,-618.83 784,-304.45 784,-255.08 724.33,-228.72 683.18,-216.41"/>
<polygon fill="black" stroke="black" points="684.16,-213.05 673.59,-213.72 682.27,-219.79 684.16,-213.05"/>
<text xml:space="preserve" text-anchor="middle" x="789.28" y="-613.15" font-family="Times,serif" font-size="14.00">0</text>
</g>
<!-- 17&#45;&gt;13 -->
<g id="edge48" class="edge">
<title>17&#45;&gt;13</title>
<path fill="none" stroke="black" d="M955.42,-1050.93C900.82,-1035.57 769.26,-998.54 705.64,-980.63"/>
<polygon fill="black" stroke="black" points="706.62,-977.27 696.04,-977.93 704.72,-984.01 706.62,-977.27"/>
<text xml:space="preserve" text-anchor="middle" x="857.27" y="-1009.55" font-family="Times,serif" font-size="14.00">3</text>
</g>
<!-- 17&#45;&gt;22 -->
<g id="edge109" class="edge">
<title>17&#45;&gt;22</title>
<path fill="none" stroke="black" d="M1006.19,-1064.02C1070.07,-1074.01 1239.04,-1099.46 1381,-1112.1 1546.76,-1126.87 1589.1,-1117.02 1755,-1130.1 1795.08,-1133.26 1840.83,-1138.48 1872.18,-1142.3"/>
<polygon fill="black" stroke="black" points="1871.59,-1145.75 1881.94,-1143.5 1872.44,-1138.81 1871.59,-1145.75"/>
<text xml:space="preserve" text-anchor="middle" x="1385.5" y="-1098.8" font-family="Times,serif" font-size="14.00">4</text>
</g>
<!-- 17&#45;&gt;27 -->
<g id="edge150" class="edge">
<title>17&#45;&gt;27</title>
<path fill="none" stroke="black" d="M985.78,-1076.83C987.6,-1082.52 989.51,-1088.92 991,-1094.85 1053.92,-1346 1024.39,-1419.37 1099,-1667.3 1109.24,-1701.33 1114.58,-1708.99 1130,-1741 1165.03,-1813.76 1217,-1819.75 1217,-1900.5 1217,-2085 1217,-2085 1217,-2085 1217,-2105.86 1217,-2129.39 1217,-2147.33"/>
<polygon fill="black" stroke="black" points="1213.5,-2147.25 1217,-2157.25 1220.5,-2147.25 1213.5,-2147.25"/>
<text xml:space="preserve" text-anchor="middle" x="1092.8" y="-1609.38" font-family="Times,serif" font-size="14.00">1</text>
</g>
<!-- 18&#45;&gt;0 -->
<g id="edge132" class="edge">
<title>18&#45;&gt;0</title>
<path fill="none" stroke="black" d="M672.39,-18.89C885.26,-18.09 2271.84,-14.46 2453,-54 2519.88,-68.6 2565,-91.87 2565,-106.25 2565,-2368.75 2565,-2368.75 2565,-2368.75 2565,-2440.37 2484.42,-2411.97 2414,-2425 2259.02,-2453.68 2070.63,-2458.96 1990.76,-2459.86"/>
<polygon fill="black" stroke="black" points="1990.82,-2456.36 1980.85,-2459.96 1990.89,-2463.36 1990.82,-2456.36"/>
<text xml:space="preserve" text-anchor="middle" x="2569.5" y="-1232.68" font-family="Times,serif" font-size="14.00">4</text>
</g>
<!-- 18&#45;&gt;5 -->
<g id="edge74" class="edge">
<title>18&#45;&gt;5</title>
<path fill="none" stroke="black" d="M617.72,-19.74C517.93,-22.6 176.31,-33.79 132,-54 102.19,-67.6 80,-73.49 80,-106.25 80,-836.73 80,-836.73 80,-836.73 80,-1085.62 167,-1141.04 167,-1389.93 167,-1659.68 167,-1659.68 167,-1659.68 167,-1758.72 408.19,-1920.19 501,-1954.75 609.16,-1995.03 642.07,-1984.93 755,-2008.75 793.21,-2016.81 803.18,-2017.04 841,-2026.75 855.9,-2030.58 944.65,-2058.03 993.24,-2073.12"/>
<polygon fill="black" stroke="black" points="992.06,-2076.42 1002.64,-2076.05 994.13,-2069.74 992.06,-2076.42"/>
<text xml:space="preserve" text-anchor="middle" x="117.65" y="-1054.18" font-family="Times,serif" font-size="14.00">0</text>
</g>
<!-- 18&#45;&gt;8 -->
<g id="edge94" class="edge">
<title>18&#45;&gt;8</title>
<path fill="none" stroke="black" d="M672.46,-18.84C860.9,-17.86 1965.54,-13.91 2299,-54 2578.51,-87.61 2482,-56.81 2482,-106.25 2482,-727.78 2482,-727.78 2482,-727.78 2482,-822.44 2420.01,-829.23 2383,-916.35 2314.49,-1077.63 2326.91,-1129.07 2259,-1290.6 2244.72,-1324.57 2241.91,-1333.96 2221,-1364.3 2160.54,-1452.03 2134.9,-1466.06 2061,-1542.8 1950.73,-1657.31 1937.14,-1716.06 1790,-1776.25 1762.94,-1787.32 1731.1,-1796.5 1707.18,-1802.67"/>
<polygon fill="black" stroke="black" points="1706.43,-1799.25 1697.59,-1805.09 1708.14,-1806.04 1706.43,-1799.25"/>
<text xml:space="preserve" text-anchor="middle" x="2387.5" y="-920.3" font-family="Times,serif" font-size="14.00">3</text>
</g>
<!-- 18&#45;&gt;25 -->
<g id="edge22" class="edge">
<title>18&#45;&gt;25</title>
<path fill="none" stroke="black" d="M671.7,-21.95C757.93,-33.07 1029.6,-81.01 1138,-252.2 1177.83,-315.11 1012.12,-482.74 995,-555.2 991.32,-570.77 992.19,-575.45 995,-591.2 1029.54,-784.47 1104.93,-814.05 1148,-1005.6 1168.92,-1098.65 1162.77,-1124.07 1167,-1219.35 1170.36,-1295.11 1163,-1314.1 1163,-1389.93 1163,-1570.43 1163,-1570.43 1163,-1570.43 1163,-1605.32 1164.23,-1645.02 1165.32,-1673.51"/>
<polygon fill="black" stroke="black" points="1161.82,-1673.62 1165.72,-1683.48 1168.82,-1673.35 1161.82,-1673.62"/>
<text xml:space="preserve" text-anchor="middle" x="1119.56" y="-875.68" font-family="Times,serif" font-size="14.00">2</text>
</g>
<!-- 18&#45;&gt;28 -->
<g id="edge123" class="edge">
<title>18&#45;&gt;28</title>
<path fill="none" stroke="black" d="M617.78,-18.61C529.56,-17.72 252.49,-17.92 172,-54 141.53,-67.66 118,-72.85 118,-106.25 118,-836.73 118,-836.73 118,-836.73 118,-842.84 199.52,-1509.09 408,-1830.25 435.3,-1872.31 437.37,-1888.79 477,-1919.5 508.35,-1943.8 520.85,-1943.87 559,-1954.75 625.66,-1973.77 706.22,-1982.97 752.74,-1987"/>
<polygon fill="black" stroke="black" points="752.32,-1990.48 762.58,-1987.82 752.9,-1983.5 752.32,-1990.48"/>
<text xml:space="preserve" text-anchor="middle" x="150.66" y="-1009.55" font-family="Times,serif" font-size="14.00">1</text>
</g>
<!-- 19&#45;&gt;0 -->
<g id="edge119" class="edge">
<title>19&#45;&gt;0</title>
<path fill="none" stroke="black" d="M2272.85,-216.96C2291.22,-224.63 2315.76,-236.66 2334,-252.2 2434.32,-337.67 2444,-395.78 2444,-527.58 2444,-727.78 2444,-727.78 2444,-727.78 2444,-1024.31 2526,-1093.39 2526,-1389.93 2526,-2368.75 2526,-2368.75 2526,-2368.75 2526,-2423.18 2118.25,-2450.68 1990.08,-2457.98"/>
<polygon fill="black" stroke="black" points="1990.22,-2454.47 1980.43,-2458.52 1990.61,-2461.46 1990.22,-2454.47"/>
<text xml:space="preserve" text-anchor="middle" x="2530.27" y="-1331.78" font-family="Times,serif" font-size="14.00">0</text>
</g>
<!-- 19&#45;&gt;3 -->
<g id="edge20" class="edge">
<title>19&#45;&gt;3</title>
<path fill="none" stroke="black" d="M2269.13,-223.11C2278.62,-230.9 2289.09,-241.01 2296,-252.2 2329.22,-306.02 2368,-464.32 2368,-527.58 2368,-727.78 2368,-727.78 2368,-727.78 2368,-819.87 2396.09,-841.6 2392,-933.6 2391.5,-944.85 2322.78,-1730.09 2320,-1741 2305.13,-1799.46 2304.37,-1818.97 2266,-1865.5 2245.39,-1890.5 1812.08,-2177.46 1785,-2195.25 1760.42,-2211.4 1754.63,-2216.08 1729,-2230.5 1713.39,-2239.29 1695.56,-2248.28 1680.88,-2255.42"/>
<polygon fill="black" stroke="black" points="1679.69,-2252.1 1672.2,-2259.59 1682.72,-2258.41 1679.69,-2252.1"/>
<text xml:space="preserve" text-anchor="middle" x="2371.74" y="-1232.68" font-family="Times,serif" font-size="14.00">3</text>
</g>
<!-- 19&#45;&gt;7 -->
<g id="edge28" class="edge">
<title>19&#45;&gt;7</title>
<path fill="none" stroke="black" d="M2239.73,-233.67C2201.39,-372.42 2024.39,-1012.94 2021,-1022.85 1993.28,-1103.96 1999.04,-1132.5 1948,-1201.35 1943.71,-1207.14 1938.26,-1212.53 1932.68,-1217.27"/>
<polygon fill="black" stroke="black" points="1930.85,-1214.25 1925.17,-1223.19 1935.19,-1219.75 1930.85,-1214.25"/>
<text xml:space="preserve" text-anchor="middle" x="2109.58" y="-722.1" font-family="Times,serif" font-size="14.00">1</text>
</g>
<!-- 19&#45;&gt;13 -->
<g id="edge44" class="edge">
<title>19&#45;&gt;13</title>
<path fill="none" stroke="black" d="M2226.1,-225.09C2175,-268.39 2044.58,-378.45 1999,-412.7 1748.5,-600.92 1698,-672.52 1416,-809.1 1369.03,-831.85 1354.46,-831.04 1304,-844.35 1080.46,-903.34 805.88,-947.89 707.37,-963.01"/>
<polygon fill="black" stroke="black" points="707.1,-959.51 697.74,-964.48 708.15,-966.43 707.1,-959.51"/>
<text xml:space="preserve" text-anchor="middle" x="1820.4" y="-568.53" font-family="Times,serif" font-size="14.00">2</text>
</g>
<!-- 19&#45;&gt;16 -->
<g id="edge112" class="edge">
<title>19&#45;&gt;16</title>
<path fill="none" stroke="black" d="M2219.45,-212.01C2184.19,-218.51 2121.61,-231.83 2071,-252.2 1829.6,-349.36 1759.59,-376.96 1570,-555.2 1532.66,-590.3 1527.69,-603.41 1497,-644.45 1479.05,-668.45 1479.72,-678.5 1459,-700.15 1452.59,-706.85 1412.53,-736.36 1383.3,-757.62"/>
<polygon fill="black" stroke="black" points="1381.51,-754.6 1375.48,-763.31 1385.63,-760.26 1381.51,-754.6"/>
<text xml:space="preserve" text-anchor="middle" x="1674.39" y="-479.28" font-family="Times,serif" font-size="14.00">4</text>
</g>
<!-- 20&#45;&gt;6 -->
<g id="edge82" class="edge">
<title>20&#45;&gt;6</title>
<path fill="none" stroke="black" d="M1579.3,-569.16C1543.06,-564.57 1476.54,-554.53 1422,-537.2 1330.78,-508.22 1302,-506.13 1226,-447.95 1136.33,-379.3 1159.59,-312.34 1064,-252.2 971.07,-193.73 634.99,-133.38 522.2,-114.36"/>
<polygon fill="black" stroke="black" points="523.02,-110.95 512.58,-112.75 521.86,-117.86 523.02,-110.95"/>
<text xml:space="preserve" text-anchor="middle" x="1157.68" y="-345.4" font-family="Times,serif" font-size="14.00">4</text>
</g>
<!-- 20&#45;&gt;8 -->
<g id="edge117" class="edge">
<title>20&#45;&gt;8</title>
<path fill="none" stroke="black" d="M1626.75,-585C1637.06,-591.09 1649.16,-599.44 1658,-609.2 1695.09,-650.12 1701,-670.55 1701,-725.78 1701,-925.98 1701,-925.98 1701,-925.98 1701,-1136.64 1693.28,-1189.25 1681,-1399.55 1678.21,-1447.27 1674.94,-1459.04 1673,-1506.8 1668.89,-1608.23 1669.82,-1728.81 1670.54,-1782.73"/>
<polygon fill="black" stroke="black" points="1667.04,-1782.61 1670.68,-1792.56 1674.04,-1782.51 1667.04,-1782.61"/>
<text xml:space="preserve" text-anchor="middle" x="1698.93" y="-1188.05" font-family="Times,serif" font-size="14.00">1</text>
</g>
<!-- 20&#45;&gt;14 -->
<g id="edge88" class="edge">
<title>20&#45;&gt;14</title>
<path fill="none" stroke="black" d="M1624.77,-559.88C1647.25,-545.14 1685.1,-520.31 1711.03,-503.3"/>
<polygon fill="black" stroke="black" points="1712.61,-506.45 1719.06,-498.03 1708.78,-500.59 1712.61,-506.45"/>
<text xml:space="preserve" text-anchor="middle" x="1688.91" y="-523.9" font-family="Times,serif" font-size="14.00">0</text>
</g>
<!-- 20&#45;&gt;15 -->
<g id="edge124" class="edge">
<title>20&#45;&gt;15</title>
<path fill="none" stroke="black" d="M1600.61,-591.19C1594.99,-610.42 1587,-642.79 1587,-671.3 1587,-925.98 1587,-925.98 1587,-925.98 1587,-1072.97 1585.29,-1111.1 1557,-1255.35 1539.37,-1345.25 1503.41,-1447.89 1485.55,-1496.07"/>
<polygon fill="black" stroke="black" points="1482.28,-1494.83 1482.05,-1505.42 1488.84,-1497.28 1482.28,-1494.83"/>
<text xml:space="preserve" text-anchor="middle" x="1590.13" y="-1054.18" font-family="Times,serif" font-size="14.00">2</text>
</g>
<!-- 20&#45;&gt;16 -->
<g id="edge83" class="edge">
<title>20&#45;&gt;16</title>
<path fill="none" stroke="black" d="M1583.69,-583.9C1569.41,-590.43 1550.69,-599.56 1535,-609.2 1470.67,-648.71 1409.44,-713.28 1376.69,-750.76"/>
<polygon fill="black" stroke="black" points="1374.25,-748.23 1370.36,-758.09 1379.55,-752.81 1374.25,-748.23"/>
<text xml:space="preserve" text-anchor="middle" x="1490" y="-667.63" font-family="Times,serif" font-size="14.00">3</text>
</g>
<!-- 21&#45;&gt;12 -->
<g id="edge7" class="edge">
<title>21&#45;&gt;12</title>
<path fill="none" stroke="black" d="M1214.83,-644.61C1211.07,-632.13 1204.7,-618.09 1194,-609.2 1175.32,-593.7 1111.15,-583.48 1069.11,-578.28"/>
<polygon fill="black" stroke="black" points="1069.75,-574.83 1059.4,-577.13 1068.92,-581.79 1069.75,-574.83"/>
<text xml:space="preserve" text-anchor="middle" x="1211.85" y="-613.15" font-family="Times,serif" font-size="14.00">3</text>
</g>
<!-- 21&#45;&gt;13 -->
<g id="edge60" class="edge">
<title>21&#45;&gt;13</title>
<path fill="none" stroke="black" d="M1200.77,-692.56C1186.41,-706.06 1165.77,-723.71 1145,-735.4 994.97,-819.86 930.47,-780.49 779,-862.35 744.43,-881.03 736.56,-888.35 709,-916.35 700.95,-924.53 693.17,-934.42 686.69,-943.39"/>
<polygon fill="black" stroke="black" points="683.96,-941.19 681.1,-951.39 689.7,-945.19 683.96,-941.19"/>
<text xml:space="preserve" text-anchor="middle" x="859.58" y="-831.05" font-family="Times,serif" font-size="14.00">1</text>
</g>
<!-- 21&#45;&gt;16 -->
<g id="edge97" class="edge">
<title>21&#45;&gt;16</title>
<path fill="none" stroke="black" d="M1245.89,-682.87C1264.28,-690.52 1288.83,-702.54 1307,-718.15 1316.57,-726.37 1325.21,-737.01 1332.31,-747.15"/>
<polygon fill="black" stroke="black" points="1329.33,-748.99 1337.79,-755.37 1335.16,-745.11 1329.33,-748.99"/>
<text xml:space="preserve" text-anchor="middle" x="1327.46" y="-722.1" font-family="Times,serif" font-size="14.00">0</text>
</g>
<!-- 21&#45;&gt;20 -->
<g id="edge15" class="edge">
<title>21&#45;&gt;20</title>
<path fill="none" stroke="black" d="M1246.44,-662.7C1286.2,-649.94 1363.9,-625.75 1431,-609.2 1478.03,-597.6 1532.88,-587.12 1568.46,-580.71"/>
<polygon fill="black" stroke="black" points="1569.03,-584.17 1578.26,-578.97 1567.8,-577.27 1569.03,-584.17"/>
<text xml:space="preserve" text-anchor="middle" x="1435.5" y="-613.15" font-family="Times,serif" font-size="14.00">2</text>
</g>
<!-- 21&#45;&gt;29 -->
<g id="edge8" class="edge">
<title>21&#45;&gt;29</title>
<path fill="none" stroke="black" d="M1205.57,-696.39C1171.96,-753.27 1094.57,-904.13 1139,-1022.85 1157.99,-1073.58 1175.67,-1084.04 1222,-1112.1 1445.82,-1247.67 1761.16,-1310.62 1870.15,-1329.27"/>
<polygon fill="black" stroke="black" points="1869.3,-1332.67 1879.74,-1330.88 1870.46,-1325.77 1869.3,-1332.67"/>
<text xml:space="preserve" text-anchor="middle" x="1143.5" y="-1009.55" font-family="Times,serif" font-size="14.00">4</text>
</g>
<!-- 22&#45;&gt;1 -->
<g id="edge85" class="edge">
<title>22&#45;&gt;1</title>
<path fill="none" stroke="black" d="M1924.95,-1163.55C1946.31,-1185.19 1984.96,-1228.33 2003,-1273.35 2022.41,-1321.79 2017,-1337.74 2017,-1389.93 2017,-1570.43 2017,-1570.43 2017,-1570.43 2017,-1604.66 2011.89,-2117.65 1966,-2195.25 1895.89,-2313.8 1716.8,-2351.89 1642.78,-2362.8"/>
<polygon fill="black" stroke="black" points="1642.76,-2359.27 1633.34,-2364.12 1643.72,-2366.21 1642.76,-2359.27"/>
<text xml:space="preserve" text-anchor="middle" x="2017.56" y="-1762.95" font-family="Times,serif" font-size="14.00">3</text>
</g>
<!-- 22&#45;&gt;7 -->
<g id="edge11" class="edge">
<title>22&#45;&gt;7</title>
<path fill="none" stroke="black" d="M1907.68,-1166.52C1907.02,-1172.12 1906.38,-1178.37 1906,-1184.1 1905.49,-1191.71 1905.21,-1199.95 1905.06,-1207.58"/>
<polygon fill="black" stroke="black" points="1901.56,-1207.36 1904.94,-1217.4 1908.56,-1207.45 1901.56,-1207.36"/>
<text xml:space="preserve" text-anchor="middle" x="1910.5" y="-1188.05" font-family="Times,serif" font-size="14.00">0</text>
</g>
<!-- 22&#45;&gt;8 -->
<g id="edge17" class="edge">
<title>22&#45;&gt;8</title>
<path fill="none" stroke="black" d="M1885.42,-1155.9C1869.63,-1161.34 1849.59,-1170.36 1836,-1184.1 1805.31,-1215.14 1808.22,-1231.75 1795,-1273.35 1726.13,-1490.05 1799.23,-1571.18 1701,-1776.25 1698.94,-1780.56 1696.21,-1784.75 1693.24,-1788.66"/>
<polygon fill="black" stroke="black" points="1690.81,-1786.11 1687.03,-1796.01 1696.16,-1790.63 1690.81,-1786.11"/>
<text xml:space="preserve" text-anchor="middle" x="1765.44" y="-1475.5" font-family="Times,serif" font-size="14.00">2</text>
</g>
<!-- 22&#45;&gt;17 -->
<g id="edge50" class="edge">
<title>22&#45;&gt;17</title>
<path fill="none" stroke="black" d="M1883.45,-1143.55C1852.63,-1139.57 1800.23,-1133.27 1755,-1130.1 1495.96,-1111.93 1427.8,-1150.63 1171,-1112.1 1115.08,-1103.71 1052.17,-1084.53 1014.34,-1071.89"/>
<polygon fill="black" stroke="black" points="1015.46,-1068.58 1004.87,-1068.69 1013.22,-1075.21 1015.46,-1068.58"/>
<text xml:space="preserve" text-anchor="middle" x="1175.5" y="-1098.8" font-family="Times,serif" font-size="14.00">1</text>
</g>
<!-- 22&#45;&gt;18 -->
<g id="edge45" class="edge">
<title>22&#45;&gt;18</title>
<path fill="none" stroke="black" d="M1920.71,-1131.41C1950.65,-1087.25 2037.08,-957.74 2099,-844.35 2120.43,-805.11 2118.91,-791.69 2142,-753.4 2199.74,-657.68 2444,-462.87 2444,-351.08 2444,-351.08 2444,-351.08 2444,-106.25 2444,-14.92 945.2,-17.62 683.69,-18.79"/>
<polygon fill="black" stroke="black" points="683.68,-15.29 673.69,-18.84 683.71,-22.29 683.68,-15.29"/>
<text xml:space="preserve" text-anchor="middle" x="2321.49" y="-568.53" font-family="Times,serif" font-size="14.00">4</text>
</g>
<!-- 23&#45;&gt;0 -->
<g id="edge49" class="edge">
<title>23&#45;&gt;0</title>
<path fill="none" stroke="black" d="M1616.54,-1451.16C1649.22,-1484.46 1729.96,-1569.41 1785,-1650.05 1912.71,-1837.16 1952,-1905.09 1952,-2131.63 1952,-2368.75 1952,-2368.75 1952,-2368.75 1952,-2389.61 1952,-2413.14 1952,-2431.08"/>
<polygon fill="black" stroke="black" points="1948.5,-2431 1952,-2441 1955.5,-2431 1948.5,-2431"/>
<text xml:space="preserve" text-anchor="middle" x="1942.88" y="-1941.45" font-family="Times,serif" font-size="14.00">2</text>
</g>
<!-- 23&#45;&gt;1 -->
<g id="edge104" class="edge">
<title>23&#45;&gt;1</title>
<path fill="none" stroke="black" d="M1600.9,-1454.02C1597.92,-1502.43 1589.71,-1642.47 1587,-1759 1586.82,-1766.67 1585.75,-1768.69 1587,-1776.25 1614.25,-1940.86 1708,-1964.78 1708,-2131.63 1708,-2271.5 1708,-2271.5 1708,-2271.5 1708,-2309.75 1669.14,-2337.6 1640.36,-2352.98"/>
<polygon fill="black" stroke="black" points="1638.99,-2349.75 1631.66,-2357.39 1642.16,-2355.99 1638.99,-2349.75"/>
<text xml:space="preserve" text-anchor="middle" x="1642.69" y="-1896.83" font-family="Times,serif" font-size="14.00">0</text>
</g>
<!-- 23&#45;&gt;20 -->
<g id="edge143" class="edge">
<title>23&#45;&gt;20</title>
<path fill="none" stroke="black" d="M1605.54,-1417.52C1618.56,-1353.39 1663,-1120.28 1663,-925.98 1663,-925.98 1663,-925.98 1663,-671.3 1663,-641.71 1654.78,-634.23 1639,-609.2 1636.22,-604.79 1632.83,-600.45 1629.3,-596.4"/>
<polygon fill="black" stroke="black" points="1631.95,-594.11 1622.55,-589.22 1626.85,-598.91 1631.95,-594.11"/>
<text xml:space="preserve" text-anchor="middle" x="1665.18" y="-1009.55" font-family="Times,serif" font-size="14.00">3</text>
</g>
<!-- 23&#45;&gt;28 -->
<g id="edge70" class="edge">
<title>23&#45;&gt;28</title>
<path fill="none" stroke="black" d="M1593.9,-1453.03C1562.84,-1514.35 1444.68,-1730.92 1279,-1830.25 1238.57,-1854.49 931.66,-1947.61 826.34,-1979.2"/>
<polygon fill="black" stroke="black" points="825.4,-1975.83 816.82,-1982.05 827.41,-1982.53 825.4,-1975.83"/>
<text xml:space="preserve" text-anchor="middle" x="1445.97" y="-1708.48" font-family="Times,serif" font-size="14.00">1</text>
</g>
<!-- 23&#45;&gt;29 -->
<g id="edge101" class="edge">
<title>23&#45;&gt;29</title>
<path fill="none" stroke="black" d="M1626.09,-1426.93C1679.43,-1410.06 1807.81,-1369.46 1871.66,-1349.26"/>
<polygon fill="black" stroke="black" points="1872.5,-1352.67 1880.98,-1346.31 1870.39,-1345.99 1872.5,-1352.67"/>
<text xml:space="preserve" text-anchor="middle" x="1769.21" y="-1386.25" font-family="Times,serif" font-size="14.00">4</text>
</g>
<!-- 24&#45;&gt;8 -->
<g id="edge33" class="edge">
<title>24&#45;&gt;8</title>
<path fill="none" stroke="black" d="M656.32,-1891.71C690.08,-1879.43 754.81,-1857.62 812,-1848.25 973.35,-1821.82 1487.69,-1815 1632.64,-1813.58"/>
<polygon fill="black" stroke="black" points="1632.5,-1817.08 1642.46,-1813.48 1632.43,-1810.08 1632.5,-1817.08"/>
<text xml:space="preserve" text-anchor="middle" x="816.5" y="-1852.2" font-family="Times,serif" font-size="14.00">1</text>
</g>
<!-- 24&#45;&gt;12 -->
<g id="edge32" class="edge">
<title>24&#45;&gt;12</title>
<path fill="none" stroke="black" d="M613.71,-1888.62C592.38,-1873.84 561,-1846.44 561,-1813.25 561,-1813.25 561,-1813.25 561,-1568.43 561,-1332.23 436.73,-1269.23 497,-1040.85 531.39,-910.54 897.53,-661.81 1002.83,-592.52"/>
<polygon fill="black" stroke="black" points="1004.47,-595.62 1010.92,-587.21 1000.63,-589.77 1004.47,-595.62"/>
<text xml:space="preserve" text-anchor="middle" x="497.46" y="-1232.68" font-family="Times,serif" font-size="14.00">4</text>
</g>
<!-- 24&#45;&gt;17 -->
<g id="edge3" class="edge">
<title>24&#45;&gt;17</title>
<path fill="none" stroke="black" d="M641.98,-1884.38C645.05,-1878.53 648.37,-1871.81 651,-1865.5 757.53,-1610.02 749.91,-1533.67 844,-1273.35 873.02,-1193.06 858.21,-1158.6 915,-1094.85 923.4,-1085.42 934.96,-1078.07 946,-1072.59"/>
<polygon fill="black" stroke="black" points="947.28,-1075.85 954.94,-1068.53 944.39,-1069.48 947.28,-1075.85"/>
<text xml:space="preserve" text-anchor="middle" x="784.18" y="-1475.5" font-family="Times,serif" font-size="14.00">2</text>
</g>
<!-- 24&#45;&gt;18 -->
<g id="edge18" class="edge">
<title>24&#45;&gt;18</title>
<path fill="none" stroke="black" d="M608.64,-1893.14C580.89,-1884.57 538.64,-1870.92 533,-1865.5 520.84,-1853.83 524.15,-1846.3 519,-1830.25 486.25,-1728.14 494.85,-1697.8 461,-1596.05 348.07,-1256.61 194,-1194.46 194,-836.73 194,-836.73 194,-836.73 194,-106.25 194,-22.56 497.14,-17.45 606.36,-18.33"/>
<polygon fill="black" stroke="black" points="606.25,-21.83 616.29,-18.43 606.33,-14.83 606.25,-21.83"/>
<text xml:space="preserve" text-anchor="middle" x="209.2" y="-964.93" font-family="Times,serif" font-size="14.00">0</text>
</g>
<!-- 24&#45;&gt;29 -->
<g id="edge12" class="edge">
<title>24&#45;&gt;29</title>
<path fill="none" stroke="black" d="M660.04,-1898.6C760.2,-1891.57 1119.56,-1866.53 1416,-1848.25 1486.65,-1843.9 1668.19,-1856.3 1734,-1830.25 1757.18,-1821.08 1757.08,-1809.24 1777,-1794.25 1810.83,-1768.79 1828.85,-1773.5 1856,-1741 1909.1,-1677.45 1931,-1653.24 1931,-1570.43 1931,-1570.43 1931,-1570.43 1931,-1434.55 1931,-1414.18 1926.34,-1391.98 1921.3,-1373.96"/>
<polygon fill="black" stroke="black" points="1924.7,-1373.11 1918.51,-1364.51 1917.99,-1375.09 1924.7,-1373.11"/>
<text xml:space="preserve" text-anchor="middle" x="1934.64" y="-1609.38" font-family="Times,serif" font-size="14.00">3</text>
</g>
<!-- 25&#45;&gt;4 -->
<g id="edge55" class="edge">
<title>25&#45;&gt;4</title>
<path fill="none" stroke="black" d="M1144.02,-1696.77C1118.56,-1679.72 1077.49,-1652.21 1050.13,-1633.89"/>
<polygon fill="black" stroke="black" points="1052.23,-1631.09 1041.98,-1628.43 1048.34,-1636.9 1052.23,-1631.09"/>
<text xml:space="preserve" text-anchor="middle" x="1103.35" y="-1654" font-family="Times,serif" font-size="14.00">4</text>
</g>
<!-- 25&#45;&gt;4 -->
<g id="edge151" class="edge">
<title>25&#45;&gt;4</title>
<path fill="none" stroke="black" d="M1140.16,-1704.44C1118.2,-1697.24 1087.1,-1684.94 1064,-1667.3 1054.25,-1659.86 1045.41,-1649.69 1038.38,-1640.3"/>
<polygon fill="black" stroke="black" points="1041.27,-1638.31 1032.63,-1632.18 1035.56,-1642.36 1041.27,-1638.31"/>
<text xml:space="preserve" text-anchor="middle" x="1068.5" y="-1654" font-family="Times,serif" font-size="14.00">0</text>
</g>
<!-- 25&#45;&gt;16 -->
<g id="edge69" class="edge">
<title>25&#45;&gt;16</title>
<path fill="none" stroke="black" d="M1194.08,-1704.95C1213.48,-1698.35 1238.63,-1686.62 1253,-1667.3 1264.47,-1651.88 1381.19,-1006.74 1383,-987.6 1388.6,-928.51 1374.18,-860.49 1363.17,-819.47"/>
<polygon fill="black" stroke="black" points="1366.55,-818.56 1360.5,-809.85 1359.8,-820.42 1366.55,-818.56"/>
<text xml:space="preserve" text-anchor="middle" x="1345.97" y="-1232.68" font-family="Times,serif" font-size="14.00">2</text>
</g>
<!-- 25&#45;&gt;17 -->
<g id="edge16" class="edge">
<title>25&#45;&gt;17</title>
<path fill="none" stroke="black" d="M1160.48,-1685.59C1159.01,-1679.58 1157.45,-1673.22 1156,-1667.3 1148.21,-1635.5 1032.26,-1123.27 1016,-1094.85 1013.1,-1089.78 1009.25,-1084.96 1005.14,-1080.62"/>
<polygon fill="black" stroke="black" points="1007.85,-1078.36 998.22,-1073.95 1002.99,-1083.4 1007.85,-1078.36"/>
<text xml:space="preserve" text-anchor="middle" x="1098.3" y="-1386.25" font-family="Times,serif" font-size="14.00">3</text>
</g>
<!-- 25&#45;&gt;28 -->
<g id="edge57" class="edge">
<title>25&#45;&gt;28</title>
<path fill="none" stroke="black" d="M1142.26,-1726.51C1083.92,-1756.53 935.27,-1838.15 837,-1937.5 828.08,-1946.53 818.73,-1956.94 810.82,-1966.08"/>
<polygon fill="black" stroke="black" points="808.27,-1963.68 804.43,-1973.55 813.59,-1968.22 808.27,-1963.68"/>
<text xml:space="preserve" text-anchor="middle" x="943.91" y="-1852.2" font-family="Times,serif" font-size="14.00">1</text>
</g>
<!-- 26&#45;&gt;1 -->
<g id="edge68" class="edge">
<title>26&#45;&gt;1</title>
<path fill="none" stroke="black" d="M1959.89,-403.45C1974.2,-409.11 1991.9,-418.02 2004,-430.7 2106.73,-538.41 2078.71,-601.15 2143,-735.4 2158.83,-768.46 2162.49,-776.9 2180,-809.1 2276.89,-987.31 2354.71,-1018.09 2380,-1219.35 2413.91,-1489.21 2377.29,-1560.32 2344,-1830.25 2342.05,-1846.03 2345.34,-1851.41 2338,-1865.5 2275.68,-1985.24 2018.74,-2218.27 1906,-2292.5 1822.76,-2347.31 1702.02,-2361.66 1643.84,-2365.42"/>
<polygon fill="black" stroke="black" points="1643.71,-2361.92 1633.92,-2365.99 1644.1,-2368.91 1643.71,-2361.92"/>
<text xml:space="preserve" text-anchor="middle" x="2397.97" y="-1386.25" font-family="Times,serif" font-size="14.00">2</text>
</g>
<!-- 26&#45;&gt;2 -->
<g id="edge65" class="edge">
<title>26&#45;&gt;2</title>
<path fill="none" stroke="black" d="M1952.71,-380.45C1970.64,-366.23 1999.34,-343.46 2020.18,-326.93"/>
<polygon fill="black" stroke="black" points="2022.29,-329.72 2027.95,-320.77 2017.94,-324.24 2022.29,-329.72"/>
<text xml:space="preserve" text-anchor="middle" x="2005.35" y="-345.4" font-family="Times,serif" font-size="14.00">3</text>
</g>
<!-- 26&#45;&gt;4 -->
<g id="edge127" class="edge">
<title>26&#45;&gt;4</title>
<path fill="none" stroke="black" d="M1908.69,-396.19C1815.94,-398.05 1513.63,-405.91 1420,-430.7 1385.17,-439.92 1375.11,-443.42 1347,-465.95 1276.02,-522.84 1290.9,-569.46 1220,-626.45 1205.75,-637.91 1196.13,-631.72 1183,-644.45 1117.15,-708.28 1108.97,-738.07 1087,-827.1 1058.46,-942.73 1095.39,-975.78 1098,-1094.85 1100.97,-1230.28 1109.67,-1265.39 1091,-1399.55 1081.35,-1468.88 1051.25,-1546.07 1034.17,-1585.93"/>
<polygon fill="black" stroke="black" points="1031.01,-1584.42 1030.22,-1594.98 1037.43,-1587.21 1031.01,-1584.42"/>
<text xml:space="preserve" text-anchor="middle" x="1096.23" y="-1009.55" font-family="Times,serif" font-size="14.00">0</text>
</g>
<!-- 26&#45;&gt;17 -->
<g id="edge5" class="edge">
<title>26&#45;&gt;17</title>
<path fill="none" stroke="black" d="M1908.87,-396.11C1795.13,-397.96 1360.08,-406.56 1304,-430.7 1260.17,-449.56 992,-678.06 992,-725.78 992,-970.6 992,-970.6 992,-970.6 992,-990.48 988.91,-1012.67 985.86,-1029.69"/>
<polygon fill="black" stroke="black" points="982.5,-1028.6 984.08,-1039.08 989.38,-1029.91 982.5,-1028.6"/>
<text xml:space="preserve" text-anchor="middle" x="996.5" y="-722.1" font-family="Times,serif" font-size="14.00">4</text>
</g>
<!-- 26&#45;&gt;26 -->
<g id="edge121" class="edge">
<title>26&#45;&gt;26</title>
<path fill="none" stroke="black" d="M1960.53,-402.94C1971.51,-403.72 1981,-400.98 1981,-394.7 1981,-390.78 1977.29,-388.24 1971.83,-387.07"/>
<polygon fill="black" stroke="black" points="1972.22,-383.59 1962.04,-386.55 1971.84,-390.58 1972.22,-383.59"/>
<text xml:space="preserve" text-anchor="middle" x="1985.5" y="-390.03" font-family="Times,serif" font-size="14.00">1</text>
</g>
<!-- 27&#45;&gt;5 -->
<g id="edge66" class="edge">
<title>27&#45;&gt;5</title>
<path fill="none" stroke="black" d="M1195.35,-2165.96C1161.01,-2149.65 1093.99,-2117.79 1055.03,-2099.28"/>
<polygon fill="black" stroke="black" points="1056.74,-2096.21 1046.21,-2095.08 1053.74,-2102.54 1056.74,-2096.21"/>
<text xml:space="preserve" text-anchor="middle" x="1142.7" y="-2127.95" font-family="Times,serif" font-size="14.00">0</text>
</g>
<!-- 27&#45;&gt;15 -->
<g id="edge96" class="edge">
<title>27&#45;&gt;15</title>
<path fill="none" stroke="black" d="M1244.17,-2176.84C1302.61,-2176.55 1435,-2166.86 1435,-2085 1435,-2085 1435,-2085 1435,-1613.05 1435,-1590.56 1446.12,-1567.53 1456.64,-1550.78"/>
<polygon fill="black" stroke="black" points="1459.53,-1552.75 1462.16,-1542.49 1453.7,-1548.87 1459.53,-1552.75"/>
<text xml:space="preserve" text-anchor="middle" x="1439.5" y="-1852.2" font-family="Times,serif" font-size="14.00">1</text>
</g>
<!-- 27&#45;&gt;18 -->
<g id="edge137" class="edge">
<title>27&#45;&gt;18</title>
<path fill="none" stroke="black" d="M1244.13,-2175.07C1347.19,-2169.27 1720.08,-2136.07 1946,-1954.75 1954.41,-1948 2156.65,-1641.42 2162,-1632.05 2262.84,-1455.36 2252.61,-1392.14 2360,-1219.35 2420.85,-1121.45 2520,-1130.5 2520,-1015.23 2520,-1015.23 2520,-1015.23 2520,-106.25 2520,-76.41 2503.21,-73.44 2397,-54 2223.37,-22.22 924.64,-19.3 683.48,-19.03"/>
<polygon fill="black" stroke="black" points="683.69,-15.53 673.69,-19.02 683.69,-22.53 683.69,-15.53"/>
<text xml:space="preserve" text-anchor="middle" x="2498.89" y="-1098.8" font-family="Times,serif" font-size="14.00">4</text>
</g>
<!-- 27&#45;&gt;24 -->
<g id="edge111" class="edge">
<title>27&#45;&gt;24</title>
<path fill="none" stroke="black" d="M1189.69,-2175.22C1123.89,-2172.42 958.31,-2163.31 908,-2141.25 794.04,-2091.28 692.76,-1977.03 652.03,-1926.87"/>
<polygon fill="black" stroke="black" points="654.85,-1924.8 645.86,-1919.19 649.39,-1929.18 654.85,-1924.8"/>
<text xml:space="preserve" text-anchor="middle" x="767.87" y="-2030.7" font-family="Times,serif" font-size="14.00">3</text>
</g>
<!-- 27&#45;&gt;28 -->
<g id="edge19" class="edge">
<title>27&#45;&gt;28</title>
<path fill="none" stroke="black" d="M1189.99,-2175.48C1128.17,-2173.29 978.35,-2165.58 935,-2141.25 878.31,-2109.44 891.94,-2070.65 844,-2026.75 837.02,-2020.37 828.77,-2014.33 820.88,-2009.12"/>
<polygon fill="black" stroke="black" points="822.81,-2006.2 812.49,-2003.82 819.07,-2012.12 822.81,-2006.2"/>
<text xml:space="preserve" text-anchor="middle" x="900.56" y="-2079.33" font-family="Times,serif" font-size="14.00">2</text>
</g>
<!-- 28&#45;&gt;1 -->
<g id="edge148" class="edge">
<title>28&#45;&gt;1</title>
<path fill="none" stroke="black" d="M773.49,-2004.65C766.14,-2010.73 757.93,-2018.47 752,-2026.75 736.18,-2048.85 728,-2055.82 728,-2083 728,-2271.5 728,-2271.5 728,-2271.5 728,-2298.68 729.67,-2312.26 752,-2327.75 786.41,-2351.62 1421.24,-2363.63 1576.13,-2366.22"/>
<polygon fill="black" stroke="black" points="1576.07,-2369.72 1586.12,-2366.38 1576.18,-2362.72 1576.07,-2369.72"/>
<text xml:space="preserve" text-anchor="middle" x="732.5" y="-2172.58" font-family="Times,serif" font-size="14.00">0</text>
</g>
<!-- 28&#45;&gt;6 -->
<g id="edge54" class="edge">
<title>28&#45;&gt;6</title>
<path fill="none" stroke="black" d="M769.42,-1979.51C744.98,-1968.19 703.75,-1949.89 667,-1937.5 636.56,-1927.24 626.22,-1932.85 597,-1919.5 558.65,-1901.98 545.64,-1898.19 519,-1865.5 508.24,-1852.3 509.81,-1846.26 504,-1830.25 466.87,-1728.02 471.3,-1697.85 433,-1596.05 393.18,-1490.22 374.13,-1467.54 328,-1364.3 306.41,-1315.99 290.9,-1307.13 280,-1255.35 268.8,-1202.16 267.8,-1158.43 298,-1040.85 302.24,-1024.36 306.21,-1021.22 313,-1005.6 316.49,-997.57 318.49,-995.99 321,-987.6 340.52,-922.49 346,-904.7 346,-836.73 346,-836.73 346,-836.73 346,-205.35 346,-155.3 407.31,-128.9 448.49,-116.82"/>
<polygon fill="black" stroke="black" points="449.34,-120.21 458.05,-114.18 447.48,-113.47 449.34,-120.21"/>
<text xml:space="preserve" text-anchor="middle" x="302.5" y="-1054.18" font-family="Times,serif" font-size="14.00">1</text>
</g>
<!-- 28&#45;&gt;18 -->
<g id="edge34" class="edge">
<title>28&#45;&gt;18</title>
<path fill="none" stroke="black" d="M764.13,-1987.87C714.41,-1983.27 606.24,-1968.04 531,-1919.5 444.64,-1863.79 430.83,-1832.49 384,-1741 346.4,-1667.56 213.97,-1103.15 195,-1022.85 175.57,-940.6 156,-921.25 156,-836.73 156,-836.73 156,-836.73 156,-106.25 156,-71.55 182.14,-67.74 214,-54 284,-23.81 514.21,-19.49 606.36,-19"/>
<polygon fill="black" stroke="black" points="606.16,-22.5 616.14,-18.96 606.13,-15.5 606.16,-22.5"/>
<text xml:space="preserve" text-anchor="middle" x="199.5" y="-1009.55" font-family="Times,serif" font-size="14.00">3</text>
</g>
<!-- 28&#45;&gt;20 -->
<g id="edge40" class="edge">
<title>28&#45;&gt;20</title>
<path fill="none" stroke="black" d="M812.02,-1978.83C874.2,-1946.15 1061.75,-1844.97 1204,-1741 1244.1,-1711.7 1256.98,-1706.09 1288,-1667.3 1506.18,-1394.52 1549,-1275.28 1549,-925.98 1549,-925.98 1549,-925.98 1549,-671.3 1549,-642.87 1567.4,-615.41 1583.29,-596.99"/>
<polygon fill="black" stroke="black" points="1585.88,-599.34 1590.01,-589.58 1580.69,-594.63 1585.88,-599.34"/>
<text xml:space="preserve" text-anchor="middle" x="1520.79" y="-1277.3" font-family="Times,serif" font-size="14.00">4</text>
</g>
<!-- 28&#45;&gt;24 -->
<g id="edge30" class="edge">
<title>28&#45;&gt;24</title>
<path fill="none" stroke="black" d="M771.8,-1977.76C761.38,-1971.14 748.36,-1962.68 737,-1954.75 726.52,-1947.44 725.05,-1943.92 714,-1937.5 699.07,-1928.84 681.6,-1921.03 666.71,-1914.99"/>
<polygon fill="black" stroke="black" points="668.39,-1911.89 657.8,-1911.48 665.82,-1918.4 668.39,-1911.89"/>
<text xml:space="preserve" text-anchor="middle" x="741.5" y="-1941.45" font-family="Times,serif" font-size="14.00">2</text>
</g>
<!-- 29&#45;&gt;7 -->
<g id="edge135" class="edge">
<title>29&#45;&gt;7</title>
<path fill="none" stroke="black" d="M1897.66,-1310.59C1893.81,-1299.32 1890.93,-1285.76 1893,-1273.35 1893.4,-1270.98 1893.93,-1268.54 1894.56,-1266.13"/>
<polygon fill="black" stroke="black" points="1897.9,-1267.18 1897.53,-1256.59 1891.22,-1265.1 1897.9,-1267.18"/>
<text xml:space="preserve" text-anchor="middle" x="1897.5" y="-1277.3" font-family="Times,serif" font-size="14.00">1</text>
</g>
<!-- 29&#45;&gt;8 -->
<g id="edge59" class="edge">
<title>29&#45;&gt;8</title>
<path fill="none" stroke="black" d="M1899.1,-1362.99C1892.49,-1382.33 1885,-1409.72 1885,-1434.55 1885,-1570.43 1885,-1570.43 1885,-1570.43 1885,-1651.24 1873.15,-1678.44 1822,-1741 1821.85,-1741.18 1765.21,-1776.15 1765,-1776.25 1746.05,-1785.53 1723.98,-1793.86 1705.99,-1800.07"/>
<polygon fill="black" stroke="black" points="1704.9,-1796.75 1696.54,-1803.26 1707.14,-1803.38 1704.9,-1796.75"/>
<text xml:space="preserve" text-anchor="middle" x="1889.5" y="-1564.75" font-family="Times,serif" font-size="14.00">0</text>
</g>
<!-- 29&#45;&gt;9 -->
<g id="edge9" class="edge">
<title>29&#45;&gt;9</title>
<path fill="none" stroke="black" d="M1934.43,-1324.15C1962.64,-1311.63 2009.51,-1290.91 2050,-1273.35 2066.23,-1266.32 2084.3,-1258.59 2099.35,-1252.19"/>
<polygon fill="black" stroke="black" points="2100.47,-1255.51 2108.3,-1248.38 2097.73,-1249.07 2100.47,-1255.51"/>
<text xml:space="preserve" text-anchor="middle" x="2054.5" y="-1277.3" font-family="Times,serif" font-size="14.00">2</text>
</g>
<!-- 29&#45;&gt;26 -->
<g id="edge67" class="edge">
<title>29&#45;&gt;26</title>
<path fill="none" stroke="black" d="M1916.43,-1309.27C1919.99,-1297.99 1924.65,-1284.8 1930,-1273.35 1933.97,-1264.86 1937.48,-1264.04 1941,-1255.35 1956.25,-1217.67 1956.53,-1206.51 1961,-1166.1 1982.46,-972.16 1936,-922.9 1936,-727.78 1936,-727.78 1936,-727.78 1936,-482.95 1936,-463.45 1936,-441.49 1936,-424.49"/>
<polygon fill="black" stroke="black" points="1939.5,-424.6 1936,-414.6 1932.5,-424.6 1939.5,-424.6"/>
<text xml:space="preserve" text-anchor="middle" x="1953.6" y="-875.68" font-family="Times,serif" font-size="14.00">4</text>
</g>
<!-- 29&#45;&gt;26 -->
<g id="edge113" class="edge">
<title>29&#45;&gt;26</title>
<path fill="none" stroke="black" d="M1926.19,-1313.92C1937.69,-1298.46 1952.27,-1276.68 1961,-1255.35 1970.28,-1232.68 1967.83,-1225.49 1972,-1201.35 2007.8,-993.94 1974,-938.26 1974,-727.78 1974,-727.78 1974,-727.78 1974,-482.95 1974,-460.65 1963.43,-437.61 1953.45,-420.81"/>
<polygon fill="black" stroke="black" points="1956.5,-419.09 1948.21,-412.5 1950.58,-422.82 1956.5,-419.09"/>
<text xml:space="preserve" text-anchor="middle" x="1985.94" y="-875.68" font-family="Times,serif" font-size="14.00">3</text>
</g>
</g>
</svg>
