<?xml version="1.0" encoding="UTF-8" standalone="no"?>
<!DOCTYPE svg PUBLIC "-//W3C//DTD SVG 1.1//EN"
 "http://www.w3.org/Graphics/SVG/1.1/DTD/svg11.dtd">
<!-- Generated by graphviz version 2.49.0 (20210829.0051)
 -->
<!-- Pages: 1 -->
<svg width="2660pt" height="2500pt"
 viewBox="0.00 0.00 2660.16 2499.98" xmlns="http://www.w3.org/2000/svg" xmlns:xlink="http://www.w3.org/1999/xlink">
<g id="graph0" class="graph" transform="scale(1 1) rotate(0) translate(4 2495.98)">
<polygon fill="white" stroke="transparent" points="-4,4 -4,-2495.98 2656.16,-2495.98 2656.16,4 -4,4"/>
<!-- fake -->
<g id="node1" class="node">
<title>fake</title>
</g>
<!-- 29 -->
<g id="node31" class="node">
<title>29</title>
<ellipse fill="none" stroke="black" cx="837.16" cy="-2400.98" rx="27" ry="18"/>
<text text-anchor="middle" x="837.16" y="-2397.28" font-family="Times,serif" font-size="14.00">29</text>
</g>
<!-- fake&#45;&gt;29 -->
<g id="edge1" class="edge">
<title>fake&#45;&gt;29</title>
<path fill="none" stroke="black" stroke-width="2" d="M837.16,-2455.79C837.16,-2447.77 837.16,-2438.02 837.16,-2429.04"/>
<polygon fill="black" stroke="black" stroke-width="2" points="840.66,-2429 837.16,-2419 833.66,-2429 840.66,-2429"/>
</g>
<!-- 0 -->
<g id="node2" class="node">
<title>0</title>
<ellipse fill="none" stroke="black" cx="1274.16" cy="-1940.48" rx="27" ry="18"/>
<text text-anchor="middle" x="1274.16" y="-1936.78" font-family="Times,serif" font-size="14.00">0</text>
</g>
<!-- 13 -->
<g id="node15" class="node">
<title>13</title>
<ellipse fill="none" stroke="black" cx="1896.16" cy="-1853.48" rx="27" ry="18"/>
<text text-anchor="middle" x="1896.16" y="-1849.78" font-family="Times,serif" font-size="14.00">13</text>
</g>
<!-- 0&#45;&gt;13 -->
<g id="edge52" class="edge">
<title>0&#45;&gt;13</title>
<path fill="none" stroke="black" d="M1296.97,-1930.73C1305.68,-1927.7 1315.77,-1924.55 1325.16,-1922.48 1395.48,-1907.01 1417.95,-1927.53 1486.16,-1904.48 1498.43,-1900.33 1498.84,-1893.5 1511.16,-1889.48 1575.25,-1868.56 1775.87,-1858.92 1859.25,-1855.74"/>
<polygon fill="black" stroke="black" points="1859.42,-1859.23 1869.28,-1855.37 1859.16,-1852.24 1859.42,-1859.23"/>
<text text-anchor="middle" x="1516.16" y="-1893.28" font-family="Times,serif" font-size="14.00">2</text>
</g>
<!-- 17 -->
<g id="node19" class="node">
<title>17</title>
<ellipse fill="none" stroke="black" cx="1454.16" cy="-392.24" rx="22.96" ry="22.96"/>
<ellipse fill="none" stroke="black" cx="1454.16" cy="-392.24" rx="27" ry="27"/>
<text text-anchor="middle" x="1454.16" y="-388.54" font-family="Times,serif" font-size="14.00">17</text>
</g>
<!-- 0&#45;&gt;17 -->
<g id="edge70" class="edge">
<title>0&#45;&gt;17</title>
<path fill="none" stroke="black" d="M1286.41,-1924.37C1332.95,-1866.36 1496.16,-1657.14 1496.16,-1575.98 1496.16,-1575.98 1496.16,-1575.98 1496.16,-1443.48 1496.16,-1118.95 1454.16,-1039.03 1454.16,-714.49 1454.16,-714.49 1454.16,-714.49 1454.16,-486.99 1454.16,-467.99 1454.16,-446.82 1454.16,-429.41"/>
<polygon fill="black" stroke="black" points="1457.66,-429.11 1454.16,-419.11 1450.66,-429.11 1457.66,-429.11"/>
<text text-anchor="middle" x="1487.16" y="-1144.79" font-family="Times,serif" font-size="14.00">1</text>
</g>
<!-- 18 -->
<g id="node20" class="node">
<title>18</title>
<ellipse fill="none" stroke="black" cx="841.16" cy="-296.5" rx="27" ry="18"/>
<text text-anchor="middle" x="841.16" y="-292.8" font-family="Times,serif" font-size="14.00">18</text>
</g>
<!-- 0&#45;&gt;18 -->
<g id="edge47" class="edge">
<title>0&#45;&gt;18</title>
<path fill="none" stroke="black" d="M1258.47,-1925.46C1210.59,-1882.73 1061.93,-1750.56 936.16,-1643.98 921.13,-1631.25 671.54,-1436.31 662.16,-1418.98 625.23,-1350.77 660.37,-1321.12 643.16,-1245.49 603.06,-1069.3 538.59,-1040.11 508.16,-861.99 496.27,-792.4 514.16,-772.39 538.16,-705.99 578.45,-594.51 637.7,-467.29 726.16,-365.5 748.55,-339.73 783.21,-321.11 808.63,-309.94"/>
<polygon fill="black" stroke="black" points="810.03,-313.15 817.88,-306.02 807.3,-306.7 810.03,-313.15"/>
<text text-anchor="middle" x="608.16" y="-1101.29" font-family="Times,serif" font-size="14.00">3</text>
</g>
<!-- 24 -->
<g id="node26" class="node">
<title>24</title>
<ellipse fill="none" stroke="black" cx="1103.16" cy="-1200.74" rx="22.96" ry="22.96"/>
<ellipse fill="none" stroke="black" cx="1103.16" cy="-1200.74" rx="27" ry="27"/>
<text text-anchor="middle" x="1103.16" y="-1197.04" font-family="Times,serif" font-size="14.00">24</text>
</g>
<!-- 0&#45;&gt;24 -->
<g id="edge122" class="edge">
<title>0&#45;&gt;24</title>
<path fill="none" stroke="black" d="M1275.06,-1922.43C1279.26,-1839.11 1295.66,-1474.3 1266.16,-1365.49 1250.12,-1306.32 1243.29,-1286.98 1198.16,-1245.49 1181.31,-1230 1158.03,-1219.16 1138.73,-1212.14"/>
<polygon fill="black" stroke="black" points="1139.65,-1208.76 1129.05,-1208.82 1137.37,-1215.38 1139.65,-1208.76"/>
<text text-anchor="middle" x="1288.16" y="-1571.28" font-family="Times,serif" font-size="14.00">4</text>
</g>
<!-- 28 -->
<g id="node30" class="node">
<title>28</title>
<ellipse fill="none" stroke="black" cx="1000.16" cy="-1487.98" rx="27" ry="18"/>
<text text-anchor="middle" x="1000.16" y="-1484.28" font-family="Times,serif" font-size="14.00">28</text>
</g>
<!-- 0&#45;&gt;28 -->
<g id="edge18" class="edge">
<title>0&#45;&gt;28</title>
<path fill="none" stroke="black" d="M1264.56,-1923.62C1252.22,-1903.21 1230.12,-1866.69 1211.16,-1835.48 1137.74,-1714.59 1049.66,-1570.14 1015.11,-1513.49"/>
<polygon fill="black" stroke="black" points="1018.04,-1511.58 1009.85,-1504.86 1012.07,-1515.22 1018.04,-1511.58"/>
<text text-anchor="middle" x="1151.16" y="-1719.28" font-family="Times,serif" font-size="14.00">0</text>
</g>
<!-- 1 -->
<g id="node3" class="node">
<title>1</title>
<ellipse fill="none" stroke="black" cx="243.16" cy="-1574.98" rx="27" ry="18"/>
<text text-anchor="middle" x="243.16" y="-1571.28" font-family="Times,serif" font-size="14.00">1</text>
</g>
<!-- 11 -->
<g id="node13" class="node">
<title>11</title>
<ellipse fill="none" stroke="black" cx="1858.16" cy="-2305.23" rx="22.96" ry="22.96"/>
<ellipse fill="none" stroke="black" cx="1858.16" cy="-2305.23" rx="27" ry="27"/>
<text text-anchor="middle" x="1858.16" y="-2301.53" font-family="Times,serif" font-size="14.00">11</text>
</g>
<!-- 1&#45;&gt;11 -->
<g id="edge142" class="edge">
<title>1&#45;&gt;11</title>
<path fill="none" stroke="black" d="M246.55,-1593.24C258.66,-1651.1 304.61,-1841.12 406.16,-1958.48 473.24,-2036.01 507.38,-2041.93 603.16,-2078.48 1061.16,-2253.24 1665.82,-2294.58 1820.75,-2302.55"/>
<polygon fill="black" stroke="black" points="1820.96,-2306.07 1831.12,-2303.07 1821.31,-2299.07 1820.96,-2306.07"/>
<text text-anchor="middle" x="411.16" y="-1936.78" font-family="Times,serif" font-size="14.00">3</text>
</g>
<!-- 12 -->
<g id="node14" class="node">
<title>12</title>
<ellipse fill="none" stroke="black" cx="203.16" cy="-1017.99" rx="27" ry="18"/>
<text text-anchor="middle" x="203.16" y="-1014.29" font-family="Times,serif" font-size="14.00">12</text>
</g>
<!-- 1&#45;&gt;12 -->
<g id="edge106" class="edge">
<title>1&#45;&gt;12</title>
<path fill="none" stroke="black" d="M230.64,-1558.75C218.58,-1542.51 202.16,-1515.53 202.16,-1488.98 202.16,-1488.98 202.16,-1488.98 202.16,-1103.99 202.16,-1084.74 202.42,-1063.04 202.67,-1046.39"/>
<polygon fill="black" stroke="black" points="206.18,-1046.3 202.84,-1036.25 199.18,-1046.19 206.18,-1046.3"/>
<text text-anchor="middle" x="207.16" y="-1292.79" font-family="Times,serif" font-size="14.00">0</text>
</g>
<!-- 16 -->
<g id="node18" class="node">
<title>16</title>
<ellipse fill="none" stroke="black" cx="811.16" cy="-18" rx="27" ry="18"/>
<text text-anchor="middle" x="811.16" y="-14.3" font-family="Times,serif" font-size="14.00">16</text>
</g>
<!-- 1&#45;&gt;16 -->
<g id="edge133" class="edge">
<title>1&#45;&gt;16</title>
<path fill="none" stroke="black" d="M223.45,-1562.44C214.65,-1556.42 204.79,-1548.36 198.16,-1538.98 189.23,-1526.36 191.55,-1520.81 187.16,-1505.98 129.37,-1310.73 72.16,-1266.12 72.16,-1062.49 72.16,-1062.49 72.16,-1062.49 72.16,-104 72.16,-84.91 112.9,-67.55 167.16,-54 283.29,-25 654.62,-20.03 773.89,-19.18"/>
<polygon fill="black" stroke="black" points="774.01,-22.68 783.99,-19.11 773.97,-15.68 774.01,-22.68"/>
<text text-anchor="middle" x="77.16" y="-796.79" font-family="Times,serif" font-size="14.00">1</text>
</g>
<!-- 27 -->
<g id="node29" class="node">
<title>27</title>
<ellipse fill="none" stroke="black" cx="901.16" cy="-487.99" rx="27" ry="18"/>
<text text-anchor="middle" x="901.16" y="-484.29" font-family="Times,serif" font-size="14.00">27</text>
</g>
<!-- 1&#45;&gt;27 -->
<g id="edge103" class="edge">
<title>1&#45;&gt;27</title>
<path fill="none" stroke="black" d="M242.19,-1556.73C241.32,-1539.57 240.16,-1512.46 240.16,-1488.98 240.16,-1488.98 240.16,-1488.98 240.16,-1338.99 240.16,-1238.07 280.43,-1219.43 310.16,-1122.99 326.94,-1068.56 328.04,-1053.99 346.16,-999.99 359.31,-960.78 354.94,-946.52 379.16,-912.99 416.86,-860.8 777.11,-583.78 876.1,-508.11"/>
<polygon fill="black" stroke="black" points="878.25,-510.87 884.07,-502.01 874,-505.3 878.25,-510.87"/>
<text text-anchor="middle" x="351.16" y="-1014.29" font-family="Times,serif" font-size="14.00">2</text>
</g>
<!-- 1&#45;&gt;28 -->
<g id="edge113" class="edge">
<title>1&#45;&gt;28</title>
<path fill="none" stroke="black" d="M269.66,-1571.01C383.55,-1558.22 831.64,-1507.91 963.48,-1493.1"/>
<polygon fill="black" stroke="black" points="963.94,-1496.57 973.48,-1491.98 963.16,-1489.62 963.94,-1496.57"/>
<text text-anchor="middle" x="671.16" y="-1527.78" font-family="Times,serif" font-size="14.00">4</text>
</g>
<!-- 2 -->
<g id="node4" class="node">
<title>2</title>
<ellipse fill="none" stroke="black" cx="1726.16" cy="-2209.48" rx="27" ry="18"/>
<text text-anchor="middle" x="1726.16" y="-2205.78" font-family="Times,serif" font-size="14.00">2</text>
</g>
<!-- 3 -->
<g id="node5" class="node">
<title>3</title>
<ellipse fill="none" stroke="black" cx="1388.16" cy="-2118.48" rx="18" ry="18"/>
<ellipse fill="none" stroke="black" cx="1388.16" cy="-2118.48" rx="22" ry="22"/>
<text text-anchor="middle" x="1388.16" y="-2114.78" font-family="Times,serif" font-size="14.00">3</text>
</g>
<!-- 2&#45;&gt;3 -->
<g id="edge49" class="edge">
<title>2&#45;&gt;3</title>
<path fill="none" stroke="black" d="M1701.58,-2202.01C1641.3,-2186.14 1486.23,-2145.3 1419.48,-2127.73"/>
<polygon fill="black" stroke="black" points="1420.11,-2124.27 1409.55,-2125.11 1418.33,-2131.04 1420.11,-2124.27"/>
<text text-anchor="middle" x="1592.16" y="-2162.28" font-family="Times,serif" font-size="14.00">3</text>
</g>
<!-- 9 -->
<g id="node11" class="node">
<title>9</title>
<ellipse fill="none" stroke="black" cx="971.16" cy="-578.99" rx="18" ry="18"/>
<ellipse fill="none" stroke="black" cx="971.16" cy="-578.99" rx="22" ry="22"/>
<text text-anchor="middle" x="971.16" y="-575.29" font-family="Times,serif" font-size="14.00">9</text>
</g>
<!-- 2&#45;&gt;9 -->
<g id="edge65" class="edge">
<title>2&#45;&gt;9</title>
<path fill="none" stroke="black" d="M1702.68,-2200.4C1692.75,-2197.23 1680.99,-2193.8 1670.16,-2191.48 1608.71,-2178.31 1109.16,-2182.32 1109.16,-2119.48 1109.16,-2119.48 1109.16,-2119.48 1109.16,-1721.98 1109.16,-1666.57 1287.04,-1291.49 1256.16,-1245.49 1244.38,-1227.95 1224.54,-1244.61 1212.16,-1227.49 1130.05,-1113.95 1206.97,-1052.1 1190.16,-912.99 1176.03,-796.13 1187.59,-761.79 1145.16,-651.99 1138.89,-635.78 1138.24,-629.19 1124.16,-618.99 1088.2,-592.95 1036.5,-584.25 1003.37,-581.37"/>
<polygon fill="black" stroke="black" points="1003.54,-577.87 993.31,-580.63 1003.02,-584.85 1003.54,-577.87"/>
<text text-anchor="middle" x="1240.16" y="-1388.54" font-family="Times,serif" font-size="14.00">2</text>
</g>
<!-- 2&#45;&gt;11 -->
<g id="edge27" class="edge">
<title>2&#45;&gt;11</title>
<path fill="none" stroke="black" d="M1743.98,-2223.25C1758.11,-2233.37 1778.38,-2247.86 1796.16,-2260.48 1806.65,-2267.93 1818.16,-2276.06 1828.38,-2283.27"/>
<polygon fill="black" stroke="black" points="1826.43,-2286.17 1836.62,-2289.07 1830.46,-2280.45 1826.43,-2286.17"/>
<text text-anchor="middle" x="1801.16" y="-2249.28" font-family="Times,serif" font-size="14.00">4</text>
</g>
<!-- 19 -->
<g id="node21" class="node">
<title>19</title>
<ellipse fill="none" stroke="black" cx="1639.16" cy="-1392.24" rx="22.96" ry="22.96"/>
<ellipse fill="none" stroke="black" cx="1639.16" cy="-1392.24" rx="27" ry="27"/>
<text text-anchor="middle" x="1639.16" y="-1388.54" font-family="Times,serif" font-size="14.00">19</text>
</g>
<!-- 2&#45;&gt;19 -->
<g id="edge19" class="edge">
<title>2&#45;&gt;19</title>
<path fill="none" stroke="black" d="M1723.59,-2191.42C1718.18,-2154.09 1706.16,-2062.31 1706.16,-1984.98 1706.16,-1984.98 1706.16,-1984.98 1706.16,-1486.98 1706.16,-1458.8 1685.87,-1433.25 1667.62,-1415.96"/>
<polygon fill="black" stroke="black" points="1669.76,-1413.18 1659.99,-1409.08 1665.07,-1418.38 1669.76,-1413.18"/>
<text text-anchor="middle" x="1711.16" y="-1806.28" font-family="Times,serif" font-size="14.00">1</text>
</g>
<!-- 26 -->
<g id="node28" class="node">
<title>26</title>
<ellipse fill="none" stroke="black" cx="1859.16" cy="-487.99" rx="27" ry="18"/>
<text text-anchor="middle" x="1859.16" y="-484.29" font-family="Times,serif" font-size="14.00">26</text>
</g>
<!-- 2&#45;&gt;26 -->
<g id="edge82" class="edge">
<title>2&#45;&gt;26</title>
<path fill="none" stroke="black" d="M1753.13,-2207.99C1882.82,-2205.29 2436.16,-2189.67 2436.16,-2119.48 2436.16,-2119.48 2436.16,-2119.48 2436.16,-973.49 2436.16,-930.36 2407.38,-818.81 2336.16,-738.99 2208.9,-596.37 1980.69,-522.1 1893.93,-497.97"/>
<polygon fill="black" stroke="black" points="1894.63,-494.54 1884.06,-495.28 1892.79,-501.29 1894.63,-494.54"/>
<text text-anchor="middle" x="2441.16" y="-1336.29" font-family="Times,serif" font-size="14.00">0</text>
</g>
<!-- 3&#45;&gt;3 -->
<g id="edge88" class="edge">
<title>3&#45;&gt;3</title>
<path fill="none" stroke="black" d="M1408.74,-2126.85C1419,-2128.01 1428.16,-2125.22 1428.16,-2118.48 1428.16,-2114.16 1424.4,-2111.47 1419,-2110.39"/>
<polygon fill="black" stroke="black" points="1418.83,-2106.88 1408.74,-2110.11 1418.64,-2113.88 1418.83,-2106.88"/>
<text text-anchor="middle" x="1433.16" y="-2114.78" font-family="Times,serif" font-size="14.00">0</text>
</g>
<!-- 4 -->
<g id="node6" class="node">
<title>4</title>
<ellipse fill="none" stroke="black" cx="687.16" cy="-2027.48" rx="27" ry="18"/>
<text text-anchor="middle" x="687.16" y="-2023.78" font-family="Times,serif" font-size="14.00">4</text>
</g>
<!-- 3&#45;&gt;4 -->
<g id="edge140" class="edge">
<title>3&#45;&gt;4</title>
<path fill="none" stroke="black" d="M1366.17,-2114.34C1306.04,-2105.79 1133.72,-2081.51 990.16,-2063.48 894.2,-2051.43 780.95,-2038.76 723.91,-2032.49"/>
<polygon fill="black" stroke="black" points="724.25,-2029 713.93,-2031.39 723.49,-2035.96 724.25,-2029"/>
<text text-anchor="middle" x="1104.16" y="-2067.28" font-family="Times,serif" font-size="14.00">3</text>
</g>
<!-- 3&#45;&gt;13 -->
<g id="edge8" class="edge">
<title>3&#45;&gt;13</title>
<path fill="none" stroke="black" d="M1410.29,-2116.85C1450.53,-2114.99 1537.67,-2107.63 1604.16,-2078.48 1663.96,-2052.26 1814.4,-1925.13 1872.63,-1874.93"/>
<polygon fill="black" stroke="black" points="1874.94,-1877.56 1880.22,-1868.37 1870.36,-1872.26 1874.94,-1877.56"/>
<text text-anchor="middle" x="1753.16" y="-1980.28" font-family="Times,serif" font-size="14.00">1</text>
</g>
<!-- 23 -->
<g id="node25" class="node">
<title>23</title>
<ellipse fill="none" stroke="black" cx="400.16" cy="-1670.73" rx="22.96" ry="22.96"/>
<ellipse fill="none" stroke="black" cx="400.16" cy="-1670.73" rx="27" ry="27"/>
<text text-anchor="middle" x="400.16" y="-1667.03" font-family="Times,serif" font-size="14.00">23</text>
</g>
<!-- 3&#45;&gt;23 -->
<g id="edge66" class="edge">
<title>3&#45;&gt;23</title>
<path fill="none" stroke="black" d="M1365.98,-2117.23C1257.58,-2115.73 783.51,-2105.77 651.16,-2045.48 638.36,-2039.65 568.43,-1969.06 559.16,-1958.48 498.08,-1888.75 486,-1867.2 444.16,-1784.48 431.27,-1759 419.67,-1728.8 411.62,-1706.07"/>
<polygon fill="black" stroke="black" points="414.88,-1704.8 408.28,-1696.51 408.27,-1707.11 414.88,-1704.8"/>
<text text-anchor="middle" x="519.16" y="-1893.28" font-family="Times,serif" font-size="14.00">2</text>
</g>
<!-- 3&#45;&gt;27 -->
<g id="edge7" class="edge">
<title>3&#45;&gt;27</title>
<path fill="none" stroke="black" d="M1388.16,-2096.26C1388.16,-2078.23 1388.16,-2051.66 1388.16,-2028.48 1388.16,-2028.48 1388.16,-2028.48 1388.16,-1808.98 1388.16,-1757.42 1367.35,-1747.81 1356.16,-1697.48 1334.09,-1598.19 1351.78,-1321.46 1284.16,-1245.49 1264.51,-1223.42 1238,-1251.04 1220.16,-1227.49 1199.56,-1200.3 1279.16,-891.79 1279.16,-888.49 1279.16,-888.49 1279.16,-888.49 1279.16,-625.49 1279.16,-594.42 1287.32,-578.78 1265.16,-556.99 1219.11,-511.72 1021.15,-495.62 938.08,-490.79"/>
<polygon fill="black" stroke="black" points="938.25,-487.3 928.07,-490.23 937.86,-494.29 938.25,-487.3"/>
<text text-anchor="middle" x="1320.16" y="-1292.79" font-family="Times,serif" font-size="14.00">4</text>
</g>
<!-- 4&#45;&gt;0 -->
<g id="edge13" class="edge">
<title>4&#45;&gt;0</title>
<path fill="none" stroke="black" d="M713.52,-2022.66C807.87,-2009 1128.87,-1962.52 1237.72,-1946.76"/>
<polygon fill="black" stroke="black" points="1238.47,-1950.18 1247.87,-1945.29 1237.47,-1943.26 1238.47,-1950.18"/>
<text text-anchor="middle" x="1020.16" y="-1980.28" font-family="Times,serif" font-size="14.00">1</text>
</g>
<!-- 4&#45;&gt;9 -->
<g id="edge112" class="edge">
<title>4&#45;&gt;9</title>
<path fill="none" stroke="black" d="M680.51,-2009.85C674.36,-1992.92 666.16,-1965.8 666.16,-1941.48 666.16,-1941.48 666.16,-1941.48 666.16,-1443.48 666.16,-1317.35 690.92,-1282.55 755.16,-1173.99 874.96,-971.55 1131.16,-1036.73 1131.16,-801.49 1131.16,-801.49 1131.16,-801.49 1131.16,-668.99 1131.16,-610.92 1049.68,-590.41 1003.01,-583.42"/>
<polygon fill="black" stroke="black" points="1003.45,-579.95 993.07,-582.06 1002.5,-586.88 1003.45,-579.95"/>
<text text-anchor="middle" x="701.16" y="-1292.79" font-family="Times,serif" font-size="14.00">4</text>
</g>
<!-- 10 -->
<g id="node12" class="node">
<title>10</title>
<ellipse fill="none" stroke="black" cx="1576.16" cy="-105" rx="27" ry="18"/>
<text text-anchor="middle" x="1576.16" y="-101.3" font-family="Times,serif" font-size="14.00">10</text>
</g>
<!-- 4&#45;&gt;10 -->
<g id="edge39" class="edge">
<title>4&#45;&gt;10</title>
<path fill="none" stroke="black" d="M713.78,-2023.89C771.34,-2018.27 911.69,-2004.39 1029.16,-1991.48 1302.68,-1961.43 2238.16,-1999.14 2238.16,-1723.98 2238.16,-1723.98 2238.16,-1723.98 2238.16,-1338.99 2238.16,-1216.05 2246.16,-1185.43 2246.16,-1062.49 2246.16,-1062.49 2246.16,-1062.49 2246.16,-886.49 2246.16,-799.96 2278.52,-782.39 2319.16,-705.99 2362.83,-623.88 2436.16,-625.5 2436.16,-532.49 2436.16,-532.49 2436.16,-532.49 2436.16,-199.75 2436.16,-115.7 1778.69,-106.96 1613.48,-106.09"/>
<polygon fill="black" stroke="black" points="1613.33,-102.59 1603.32,-106.04 1613.3,-109.59 1613.33,-102.59"/>
<text text-anchor="middle" x="2251.16" y="-1057.79" font-family="Times,serif" font-size="14.00">0</text>
</g>
<!-- 14 -->
<g id="node16" class="node">
<title>14</title>
<ellipse fill="none" stroke="black" cx="892.16" cy="-756.99" rx="27" ry="18"/>
<text text-anchor="middle" x="892.16" y="-753.29" font-family="Times,serif" font-size="14.00">14</text>
</g>
<!-- 4&#45;&gt;14 -->
<g id="edge53" class="edge">
<title>4&#45;&gt;14</title>
<path fill="none" stroke="black" d="M670.09,-2013.13C652.67,-1997.86 628.16,-1971.12 628.16,-1941.48 628.16,-1941.48 628.16,-1941.48 628.16,-1669.73 628.16,-1557.78 609.5,-1530.81 604.16,-1418.98 603.03,-1395.23 600.42,-1388.97 604.16,-1365.49 620.81,-1261.01 699.1,-1004.52 752.16,-912.99 769.07,-883.83 835.27,-815.26 870.24,-779.91"/>
<polygon fill="black" stroke="black" points="873.04,-782.06 877.6,-772.49 868.07,-777.13 873.04,-782.06"/>
<text text-anchor="middle" x="609.16" y="-1388.54" font-family="Times,serif" font-size="14.00">3</text>
</g>
<!-- 4&#45;&gt;29 -->
<g id="edge109" class="edge">
<title>4&#45;&gt;29</title>
<path fill="none" stroke="black" d="M662.27,-2034.47C626.33,-2044.76 564.16,-2069.51 564.16,-2117.48 564.16,-2306.23 564.16,-2306.23 564.16,-2306.23 564.16,-2355.54 725.53,-2384.44 800.14,-2395.17"/>
<polygon fill="black" stroke="black" points="800.1,-2398.7 810.49,-2396.62 801.07,-2391.76 800.1,-2398.7"/>
<text text-anchor="middle" x="569.16" y="-2205.78" font-family="Times,serif" font-size="14.00">2</text>
</g>
<!-- 5 -->
<g id="node7" class="node">
<title>5</title>
<ellipse fill="none" stroke="black" cx="1628.16" cy="-1766.48" rx="27" ry="18"/>
<text text-anchor="middle" x="1628.16" y="-1762.78" font-family="Times,serif" font-size="14.00">5</text>
</g>
<!-- 5&#45;&gt;0 -->
<g id="edge40" class="edge">
<title>5&#45;&gt;0</title>
<path fill="none" stroke="black" d="M1606.74,-1777.89C1546.33,-1807.24 1374.47,-1890.74 1304.43,-1924.77"/>
<polygon fill="black" stroke="black" points="1302.71,-1921.72 1295.24,-1929.24 1305.77,-1928.01 1302.71,-1921.72"/>
<text text-anchor="middle" x="1491.16" y="-1849.78" font-family="Times,serif" font-size="14.00">3</text>
</g>
<!-- 5&#45;&gt;10 -->
<g id="edge118" class="edge">
<title>5&#45;&gt;10</title>
<path fill="none" stroke="black" d="M1645.02,-1752.42C1652.53,-1746.19 1661.22,-1738.39 1668.16,-1730.48 1768.54,-1616.03 1858.16,-1597.72 1858.16,-1445.48 1858.16,-1445.48 1858.16,-1445.48 1858.16,-1251.99 1858.16,-1009.32 1818.97,-945.14 1860.16,-705.99 1864.41,-681.32 1868.77,-675.91 1876.16,-651.99 1896.29,-586.86 1911.1,-573.08 1923.16,-505.99 1932.03,-456.62 1928.16,-443.4 1928.16,-393.24 1928.16,-393.24 1928.16,-393.24 1928.16,-199.75 1928.16,-135.11 1703.74,-113.93 1613.29,-108.01"/>
<polygon fill="black" stroke="black" points="1613.39,-104.51 1603.2,-107.38 1612.96,-111.5 1613.39,-104.51"/>
<text text-anchor="middle" x="1847.16" y="-927.29" font-family="Times,serif" font-size="14.00">1</text>
</g>
<!-- 5&#45;&gt;14 -->
<g id="edge31" class="edge">
<title>5&#45;&gt;14</title>
<path fill="none" stroke="black" d="M1609.96,-1753.03C1532.9,-1699.4 1229.9,-1479.4 1067.16,-1227.49 1024.87,-1162.03 1020,-1141.78 992.16,-1068.99 946.44,-949.47 957.85,-911.74 910.16,-792.99 908.85,-789.72 907.33,-786.35 905.75,-783.05"/>
<polygon fill="black" stroke="black" points="908.86,-781.43 901.23,-774.08 902.6,-784.58 908.86,-781.43"/>
<text text-anchor="middle" x="1094.16" y="-1249.29" font-family="Times,serif" font-size="14.00">0</text>
</g>
<!-- 5&#45;&gt;19 -->
<g id="edge33" class="edge">
<title>5&#45;&gt;19</title>
<path fill="none" stroke="black" d="M1639.3,-1750.08C1651.14,-1732.17 1668.16,-1701.28 1668.16,-1671.73 1668.16,-1671.73 1668.16,-1671.73 1668.16,-1486.98 1668.16,-1466 1661.44,-1443.5 1654.48,-1425.81"/>
<polygon fill="black" stroke="black" points="1657.69,-1424.41 1650.62,-1416.51 1651.22,-1427.09 1657.69,-1424.41"/>
<text text-anchor="middle" x="1673.16" y="-1571.28" font-family="Times,serif" font-size="14.00">4</text>
</g>
<!-- 5&#45;&gt;23 -->
<g id="edge4" class="edge">
<title>5&#45;&gt;23</title>
<path fill="none" stroke="black" d="M1601.7,-1762.13C1531.19,-1753.31 1332.83,-1729.18 1167.16,-1715.48 887.05,-1692.32 548.37,-1677.64 437.35,-1673.18"/>
<polygon fill="black" stroke="black" points="437.16,-1669.67 427.03,-1672.77 436.88,-1676.66 437.16,-1669.67"/>
<text text-anchor="middle" x="1324.16" y="-1719.28" font-family="Times,serif" font-size="14.00">2</text>
</g>
<!-- 6 -->
<g id="node8" class="node">
<title>6</title>
<ellipse fill="none" stroke="black" cx="788.16" cy="-930.99" rx="27" ry="18"/>
<text text-anchor="middle" x="788.16" y="-927.29" font-family="Times,serif" font-size="14.00">6</text>
</g>
<!-- 6&#45;&gt;2 -->
<g id="edge55" class="edge">
<title>6&#45;&gt;2</title>
<path fill="none" stroke="black" d="M781.59,-948.62C772.82,-971.79 757.75,-1015.31 752.16,-1053.99 741.13,-1130.33 749.23,-1150.67 756.16,-1227.49 775.61,-1443.05 771.26,-1491.58 823.16,-1625.98 870.99,-1749.87 951.16,-1763.18 951.16,-1895.98 951.16,-2028.48 951.16,-2028.48 951.16,-2028.48 951.16,-2119.3 1010.62,-2140.29 1095.16,-2173.48 1154.66,-2196.84 1607.09,-2181.11 1670.16,-2191.48 1677.83,-2192.74 1685.91,-2194.77 1693.48,-2196.99"/>
<polygon fill="black" stroke="black" points="1692.46,-2200.34 1703.05,-2199.97 1694.55,-2193.65 1692.46,-2200.34"/>
<text text-anchor="middle" x="815.16" y="-1571.28" font-family="Times,serif" font-size="14.00">1</text>
</g>
<!-- 6&#45;&gt;3 -->
<g id="edge68" class="edge">
<title>6&#45;&gt;3</title>
<path fill="none" stroke="black" d="M789.65,-949.08C796.31,-1024.35 824,-1326.67 847.16,-1418.98 899.66,-1628.29 917.82,-1683.15 1023.16,-1871.48 1101.55,-2011.63 1132.56,-2048.9 1188.16,-2078.48 1242.31,-2107.3 1314.87,-2114.97 1356.05,-2116.92"/>
<polygon fill="black" stroke="black" points="1355.93,-2120.42 1366.06,-2117.31 1356.2,-2113.42 1355.93,-2120.42"/>
<text text-anchor="middle" x="883.16" y="-1527.78" font-family="Times,serif" font-size="14.00">4</text>
</g>
<!-- 6&#45;&gt;13 -->
<g id="edge29" class="edge">
<title>6&#45;&gt;13</title>
<path fill="none" stroke="black" d="M795.13,-948.86C806.44,-976.98 828.7,-1035.46 840.16,-1086.99 875.66,-1246.71 803.77,-1311.81 888.16,-1451.98 909.53,-1487.48 929.66,-1483.04 964.16,-1505.98 1060.89,-1570.33 1088.68,-1580.78 1186.16,-1643.98 1243.77,-1681.34 1253.29,-1698.72 1314.16,-1730.48 1409.58,-1780.26 1435.43,-1792.66 1540.16,-1817.48 1654.07,-1844.48 1793.25,-1850.69 1858.72,-1852.09"/>
<polygon fill="black" stroke="black" points="1858.89,-1855.6 1868.96,-1852.29 1859.02,-1848.6 1858.89,-1855.6"/>
<text text-anchor="middle" x="875.16" y="-1388.54" font-family="Times,serif" font-size="14.00">2</text>
</g>
<!-- 22 -->
<g id="node24" class="node">
<title>22</title>
<ellipse fill="none" stroke="black" cx="1689.16" cy="-1296.49" rx="27" ry="18"/>
<text text-anchor="middle" x="1689.16" y="-1292.79" font-family="Times,serif" font-size="14.00">22</text>
</g>
<!-- 6&#45;&gt;22 -->
<g id="edge93" class="edge">
<title>6&#45;&gt;22</title>
<path fill="none" stroke="black" d="M813.63,-937.53C877.13,-951.86 1046.78,-993.29 1178.16,-1053.99 1307.64,-1113.82 1320.95,-1162.96 1448.16,-1227.49 1468.48,-1237.79 1474.93,-1237.21 1496.16,-1245.49 1512.69,-1251.94 1516.22,-1255.19 1533.16,-1260.49 1573.5,-1273.1 1621.05,-1283.09 1652.96,-1289.12"/>
<polygon fill="black" stroke="black" points="1652.67,-1292.62 1663.14,-1291.01 1653.95,-1285.74 1652.67,-1292.62"/>
<text text-anchor="middle" x="1297.16" y="-1101.29" font-family="Times,serif" font-size="14.00">3</text>
</g>
<!-- 25 -->
<g id="node27" class="node">
<title>25</title>
<ellipse fill="none" stroke="black" cx="685.16" cy="-843.99" rx="27" ry="18"/>
<text text-anchor="middle" x="685.16" y="-840.29" font-family="Times,serif" font-size="14.00">25</text>
</g>
<!-- 6&#45;&gt;25 -->
<g id="edge37" class="edge">
<title>6&#45;&gt;25</title>
<path fill="none" stroke="black" d="M771.61,-916.34C754.79,-902.46 728.56,-880.81 709.4,-864.99"/>
<polygon fill="black" stroke="black" points="711.61,-862.28 701.67,-858.61 707.15,-867.68 711.61,-862.28"/>
<text text-anchor="middle" x="747.16" y="-883.79" font-family="Times,serif" font-size="14.00">0</text>
</g>
<!-- 7 -->
<g id="node9" class="node">
<title>7</title>
<ellipse fill="none" stroke="black" cx="970.16" cy="-669.99" rx="27" ry="18"/>
<text text-anchor="middle" x="970.16" y="-666.29" font-family="Times,serif" font-size="14.00">7</text>
</g>
<!-- 7&#45;&gt;6 -->
<g id="edge79" class="edge">
<title>7&#45;&gt;6</title>
<path fill="none" stroke="black" d="M967.74,-688.03C966.01,-697.88 963.26,-710.38 959.16,-720.99 927.76,-802.23 851.87,-875.63 812.61,-909.78"/>
<polygon fill="black" stroke="black" points="810.13,-907.3 804.81,-916.46 814.68,-912.61 810.13,-907.3"/>
<text text-anchor="middle" x="923.16" y="-796.79" font-family="Times,serif" font-size="14.00">0</text>
</g>
<!-- 7&#45;&gt;9 -->
<g id="edge117" class="edge">
<title>7&#45;&gt;9</title>
<path fill="none" stroke="black" d="M970.35,-651.83C970.48,-640.43 970.65,-625.13 970.8,-611.57"/>
<polygon fill="black" stroke="black" points="974.31,-611.22 970.92,-601.18 967.31,-611.14 974.31,-611.22"/>
<text text-anchor="middle" x="975.16" y="-622.79" font-family="Times,serif" font-size="14.00">2</text>
</g>
<!-- 7&#45;&gt;14 -->
<g id="edge141" class="edge">
<title>7&#45;&gt;14</title>
<path fill="none" stroke="black" d="M950.99,-682.83C941.9,-689.02 931.28,-697.15 923.16,-705.99 916.36,-713.39 910.21,-722.49 905.21,-730.89"/>
<polygon fill="black" stroke="black" points="902.15,-729.19 900.26,-739.62 908.24,-732.64 902.15,-729.19"/>
<text text-anchor="middle" x="928.16" y="-709.79" font-family="Times,serif" font-size="14.00">1</text>
</g>
<!-- 20 -->
<g id="node22" class="node">
<title>20</title>
<ellipse fill="none" stroke="black" cx="421.16" cy="-578.99" rx="27" ry="18"/>
<text text-anchor="middle" x="421.16" y="-575.29" font-family="Times,serif" font-size="14.00">20</text>
</g>
<!-- 7&#45;&gt;20 -->
<g id="edge45" class="edge">
<title>7&#45;&gt;20</title>
<path fill="none" stroke="black" d="M944.05,-664.76C854.53,-650.25 559.92,-602.49 457.02,-585.81"/>
<polygon fill="black" stroke="black" points="457.54,-582.34 447.11,-584.2 456.42,-589.25 457.54,-582.34"/>
<text text-anchor="middle" x="749.16" y="-622.79" font-family="Times,serif" font-size="14.00">3</text>
</g>
<!-- 7&#45;&gt;24 -->
<g id="edge107" class="edge">
<title>7&#45;&gt;24</title>
<path fill="none" stroke="black" d="M990.92,-681.85C1029.55,-703.35 1111.58,-755.45 1145.16,-825.99 1207.44,-956.85 1158.66,-933.87 1151.16,-981.99 1145.99,-1015.18 1136.13,-1021.36 1128.16,-1053.99 1119.13,-1090.98 1112.17,-1134.02 1107.92,-1163.69"/>
<polygon fill="black" stroke="black" points="1104.39,-1163.59 1106.47,-1173.98 1111.33,-1164.56 1104.39,-1163.59"/>
<text text-anchor="middle" x="1181.16" y="-927.29" font-family="Times,serif" font-size="14.00">4</text>
</g>
<!-- 8 -->
<g id="node10" class="node">
<title>8</title>
<ellipse fill="none" stroke="black" cx="2037.16" cy="-392.24" rx="27" ry="18"/>
<text text-anchor="middle" x="2037.16" y="-388.54" font-family="Times,serif" font-size="14.00">8</text>
</g>
<!-- 8&#45;&gt;3 -->
<g id="edge64" class="edge">
<title>8&#45;&gt;3</title>
<path fill="none" stroke="black" d="M2055.34,-406C2111.37,-446.61 2280.93,-579.66 2336.16,-738.99 2357.72,-801.21 2322.16,-820.64 2322.16,-886.49 2322.16,-1105.99 2322.16,-1105.99 2322.16,-1105.99 2322.16,-1190.29 2314.16,-1211.19 2314.16,-1295.49 2314.16,-1723.98 2314.16,-1723.98 2314.16,-1723.98 2314.16,-1790.71 2329.61,-1820.84 2286.16,-1871.48 2182.09,-1992.78 2101.75,-1950.91 1947.16,-1991.48 1902.21,-2003.27 1888.76,-1996.43 1844.16,-2009.48 1804.39,-2021.12 1797,-2031.03 1758.16,-2045.48 1713.9,-2061.94 1703.14,-2067.72 1657.16,-2078.48 1572.65,-2098.26 1470.73,-2109.75 1420.03,-2114.65"/>
<polygon fill="black" stroke="black" points="1419.64,-2111.17 1410.01,-2115.6 1420.3,-2118.14 1419.64,-2111.17"/>
<text text-anchor="middle" x="2320.16" y="-1249.29" font-family="Times,serif" font-size="14.00">2</text>
</g>
<!-- 8&#45;&gt;3 -->
<g id="edge130" class="edge">
<title>8&#45;&gt;3</title>
<path fill="none" stroke="black" d="M2058.08,-403.9C2074.61,-412.46 2098.14,-425.01 2118.16,-436.99 2187.33,-478.39 2203.08,-494.63 2254.16,-556.99 2313.9,-629.94 2340.87,-647.38 2363.16,-738.99 2387.8,-840.27 2360.16,-869.26 2360.16,-973.49 2360.16,-1149.49 2360.16,-1149.49 2360.16,-1149.49 2360.16,-1233.79 2352.16,-1254.69 2352.16,-1338.99 2352.16,-1767.48 2352.16,-1767.48 2352.16,-1767.48 2352.16,-1874.6 2301.87,-1912.42 2205.16,-1958.48 1995.71,-2058.24 1925.45,-2037.23 1697.16,-2078.48 1596.68,-2096.63 1476.31,-2109.23 1420.06,-2114.58"/>
<polygon fill="black" stroke="black" points="1419.64,-2111.11 1410.01,-2115.53 1420.29,-2118.08 1419.64,-2111.11"/>
<text text-anchor="middle" x="2360.16" y="-1249.29" font-family="Times,serif" font-size="14.00">3</text>
</g>
<!-- 8&#45;&gt;8 -->
<g id="edge80" class="edge">
<title>8&#45;&gt;8</title>
<path fill="none" stroke="black" d="M2060.31,-401.71C2071.86,-403.02 2082.16,-399.86 2082.16,-392.24 2082.16,-387.01 2077.29,-383.88 2070.5,-382.86"/>
<polygon fill="black" stroke="black" points="2070.34,-379.36 2060.31,-382.78 2070.28,-386.36 2070.34,-379.36"/>
<text text-anchor="middle" x="2087.16" y="-388.54" font-family="Times,serif" font-size="14.00">1</text>
</g>
<!-- 8&#45;&gt;13 -->
<g id="edge14" class="edge">
<title>8&#45;&gt;13</title>
<path fill="none" stroke="black" d="M2042.23,-410.04C2053.24,-447.26 2079.29,-539.68 2091.16,-618.99 2126,-851.75 2124.16,-912.15 2124.16,-1147.49 2124.16,-1767.48 2124.16,-1767.48 2124.16,-1767.48 2124.16,-1792.13 2119.83,-1802.63 2100.16,-1817.48 2074.47,-1836.87 1984.82,-1846.26 1933.32,-1850.15"/>
<polygon fill="black" stroke="black" points="1932.98,-1846.67 1923.25,-1850.88 1933.48,-1853.65 1932.98,-1846.67"/>
<text text-anchor="middle" x="2129.16" y="-1101.29" font-family="Times,serif" font-size="14.00">4</text>
</g>
<!-- 8&#45;&gt;28 -->
<g id="edge24" class="edge">
<title>8&#45;&gt;28</title>
<path fill="none" stroke="black" d="M2024.52,-408.54C2018.05,-416.72 2010.27,-427.12 2004.16,-436.99 1948,-527.76 1942.31,-555.28 1897.16,-651.99 1845,-763.71 1826.2,-791.87 1803.16,-912.99 1769.74,-1088.66 1816.18,-1139.98 1777.16,-1314.49 1765.22,-1367.86 1758.2,-1389.46 1712.16,-1418.98 1649.57,-1459.12 1621.87,-1442.26 1548.16,-1451.98 1356.98,-1477.21 1125.79,-1484.42 1037.17,-1486.34"/>
<polygon fill="black" stroke="black" points="1037.01,-1482.84 1027.08,-1486.55 1037.15,-1489.84 1037.01,-1482.84"/>
<text text-anchor="middle" x="1808.16" y="-927.29" font-family="Times,serif" font-size="14.00">0</text>
</g>
<!-- 9&#45;&gt;1 -->
<g id="edge76" class="edge">
<title>9&#45;&gt;1</title>
<path fill="none" stroke="black" d="M950.37,-586.97C933.39,-593.39 909.47,-604.17 892.16,-618.99 791.84,-704.88 801.85,-757.45 721.16,-861.99 720.19,-863.24 575.22,-1034.82 574.16,-1035.99 447.55,-1175.32 278.16,-1150.73 278.16,-1338.99 278.16,-1488.98 278.16,-1488.98 278.16,-1488.98 278.16,-1510.46 268.49,-1532.85 259.31,-1549.25"/>
<polygon fill="black" stroke="black" points="256.12,-1547.78 254.04,-1558.17 262.14,-1551.34 256.12,-1547.78"/>
<text text-anchor="middle" x="561.16" y="-1057.79" font-family="Times,serif" font-size="14.00">3</text>
</g>
<!-- 9&#45;&gt;7 -->
<g id="edge97" class="edge">
<title>9&#45;&gt;7</title>
<path fill="none" stroke="black" d="M960.84,-598.78C956.4,-609.07 952.72,-622.11 955.16,-633.99 955.79,-637.07 956.7,-640.2 957.77,-643.27"/>
<polygon fill="black" stroke="black" points="954.58,-644.73 961.56,-652.7 961.08,-642.12 954.58,-644.73"/>
<text text-anchor="middle" x="960.16" y="-622.79" font-family="Times,serif" font-size="14.00">2</text>
</g>
<!-- 9&#45;&gt;16 -->
<g id="edge143" class="edge">
<title>9&#45;&gt;16</title>
<path fill="none" stroke="black" d="M950.31,-571.51C871.75,-545.64 598.16,-442.06 598.16,-254 598.16,-254 598.16,-254 598.16,-104 598.16,-66.27 714.92,-37.81 775.54,-25.58"/>
<polygon fill="black" stroke="black" points="776.33,-28.99 785.47,-23.62 774.98,-22.13 776.33,-28.99"/>
<text text-anchor="middle" x="612.16" y="-292.8" font-family="Times,serif" font-size="14.00">1</text>
</g>
<!-- 9&#45;&gt;26 -->
<g id="edge123" class="edge">
<title>9&#45;&gt;26</title>
<path fill="none" stroke="black" d="M993.11,-575.79C1111.39,-563.94 1673.02,-507.65 1822.53,-492.66"/>
<polygon fill="black" stroke="black" points="1822.97,-496.14 1832.57,-491.66 1822.27,-489.17 1822.97,-496.14"/>
<text text-anchor="middle" x="1499.16" y="-527.79" font-family="Times,serif" font-size="14.00">0</text>
</g>
<!-- 9&#45;&gt;29 -->
<g id="edge71" class="edge">
<title>9&#45;&gt;29</title>
<path fill="none" stroke="black" d="M958.56,-597.28C929.3,-637.42 854.52,-740.08 792.16,-825.99 708.18,-941.68 655.83,-953.7 604.16,-1086.99 532.42,-1272.03 552.16,-1332.03 552.16,-1530.48 552.16,-1723.98 552.16,-1723.98 552.16,-1723.98 552.16,-1859.27 518.16,-1891.19 518.16,-2026.48 518.16,-2306.23 518.16,-2306.23 518.16,-2306.23 518.16,-2364.49 716.51,-2389.16 800.4,-2396.99"/>
<polygon fill="black" stroke="black" points="800.24,-2400.49 810.51,-2397.9 800.87,-2393.52 800.24,-2400.49"/>
<text text-anchor="middle" x="556.16" y="-1484.28" font-family="Times,serif" font-size="14.00">4</text>
</g>
<!-- 10&#45;&gt;4 -->
<g id="edge11" class="edge">
<title>10&#45;&gt;4</title>
<path fill="none" stroke="black" d="M1548.73,-106.24C1397.02,-107.77 659.6,-118 440.16,-174 407.19,-182.41 274.5,-234.41 238.16,-278.5 195.19,-330.62 221.25,-365.37 180.16,-418.99 165.51,-438.11 156.29,-437.36 137.16,-451.99 91.44,-486.96 34.16,-472.93 34.16,-530.49 34.16,-670.99 34.16,-670.99 34.16,-670.99 34.16,-728.17 28.16,-742.32 28.16,-799.49 28.16,-931.99 28.16,-931.99 28.16,-931.99 28.16,-1203.12 -64.62,-1315.68 89.16,-1538.98 239.69,-1757.57 300.29,-1801.32 514.16,-1958.48 556.59,-1989.66 615.21,-2008.72 652.14,-2018.44"/>
<polygon fill="black" stroke="black" points="651.4,-2021.86 661.96,-2020.94 653.13,-2015.08 651.4,-2021.86"/>
<text text-anchor="middle" x="27.16" y="-1057.79" font-family="Times,serif" font-size="14.00">4</text>
</g>
<!-- 15 -->
<g id="node17" class="node">
<title>15</title>
<ellipse fill="none" stroke="black" cx="1538.16" cy="-1104.99" rx="27" ry="18"/>
<text text-anchor="middle" x="1538.16" y="-1101.29" font-family="Times,serif" font-size="14.00">15</text>
</g>
<!-- 10&#45;&gt;15 -->
<g id="edge35" class="edge">
<title>10&#45;&gt;15</title>
<path fill="none" stroke="black" d="M1576.16,-123.28C1576.16,-142.09 1576.16,-173.06 1576.16,-199.75 1576.16,-341 1576.16,-341 1576.16,-341 1576.16,-465.01 1558.05,-495.12 1552.16,-618.99 1547.43,-718.44 1550.16,-743.43 1550.16,-842.99 1550.16,-1018.99 1550.16,-1018.99 1550.16,-1018.99 1550.16,-1038.55 1547,-1060.4 1543.93,-1077.05"/>
<polygon fill="black" stroke="black" points="1540.44,-1076.67 1541.96,-1087.16 1547.31,-1078.01 1540.44,-1076.67"/>
<text text-anchor="middle" x="1557.16" y="-622.79" font-family="Times,serif" font-size="14.00">0</text>
</g>
<!-- 10&#45;&gt;16 -->
<g id="edge62" class="edge">
<title>10&#45;&gt;16</title>
<path fill="none" stroke="black" d="M1549.25,-102.56C1480.26,-98.71 1291.54,-87.25 1135.16,-69 1030.1,-56.74 906.83,-35.93 847.15,-25.45"/>
<polygon fill="black" stroke="black" points="847.57,-21.96 837.11,-23.67 846.35,-28.86 847.57,-21.96"/>
<text text-anchor="middle" x="1140.16" y="-57.8" font-family="Times,serif" font-size="14.00">2</text>
</g>
<!-- 10&#45;&gt;16 -->
<g id="edge84" class="edge">
<title>10&#45;&gt;16</title>
<path fill="none" stroke="black" d="M1549.44,-100.8C1481.8,-92.71 1298.28,-70.9 1145.16,-54 1037.24,-42.09 909.58,-28.98 848.02,-22.73"/>
<polygon fill="black" stroke="black" points="848.31,-19.24 838.01,-21.71 847.61,-26.2 848.31,-19.24"/>
<text text-anchor="middle" x="1280.16" y="-57.8" font-family="Times,serif" font-size="14.00">3</text>
</g>
<!-- 10&#45;&gt;22 -->
<g id="edge147" class="edge">
<title>10&#45;&gt;22</title>
<path fill="none" stroke="black" d="M1603.1,-106.96C1726.54,-111.71 2232.16,-135.11 2232.16,-199.75 2232.16,-393.24 2232.16,-393.24 2232.16,-393.24 2232.16,-594.46 1911.16,-511.28 1911.16,-712.49 1911.16,-1018.99 1911.16,-1018.99 1911.16,-1018.99 1911.16,-1080.24 1927.83,-1103.56 1896.16,-1155.99 1855.78,-1222.83 1769.7,-1264.69 1722.25,-1283.62"/>
<polygon fill="black" stroke="black" points="1720.8,-1280.43 1712.74,-1287.31 1723.33,-1286.95 1720.8,-1280.43"/>
<text text-anchor="middle" x="1916.16" y="-709.79" font-family="Times,serif" font-size="14.00">1</text>
</g>
<!-- 11&#45;&gt;2 -->
<g id="edge51" class="edge">
<title>11&#45;&gt;2</title>
<path fill="none" stroke="black" d="M1832.51,-2296.62C1811.93,-2289.61 1783.11,-2277.68 1762.16,-2260.48 1753.6,-2253.46 1746.08,-2243.94 1740.15,-2235.09"/>
<polygon fill="black" stroke="black" points="1743.08,-2233.17 1734.78,-2226.59 1737.16,-2236.91 1743.08,-2233.17"/>
<text text-anchor="middle" x="1767.16" y="-2249.28" font-family="Times,serif" font-size="14.00">2</text>
</g>
<!-- 11&#45;&gt;3 -->
<g id="edge60" class="edge">
<title>11&#45;&gt;3</title>
<path fill="none" stroke="black" d="M1833.44,-2294.94C1810.13,-2286.16 1774.22,-2272.55 1743.16,-2260.48 1622.26,-2213.48 1478.85,-2155.98 1417.92,-2131.47"/>
<polygon fill="black" stroke="black" points="1419.11,-2128.18 1408.53,-2127.69 1416.5,-2134.67 1419.11,-2128.18"/>
<text text-anchor="middle" x="1661.16" y="-2205.78" font-family="Times,serif" font-size="14.00">4</text>
</g>
<!-- 11&#45;&gt;8 -->
<g id="edge15" class="edge">
<title>11&#45;&gt;8</title>
<path fill="none" stroke="black" d="M1884.96,-2304.1C2004.66,-2303.29 2486.92,-2297.75 2542.16,-2260.48 2562.59,-2246.69 2566.16,-2235.13 2566.16,-2210.48 2566.16,-2210.48 2566.16,-2210.48 2566.16,-1060.49 2566.16,-906.46 2324.9,-564.37 2203.16,-469.99 2162.39,-438.39 2106.51,-415.99 2071.12,-403.84"/>
<polygon fill="black" stroke="black" points="2071.87,-400.4 2061.27,-400.54 2069.64,-407.03 2071.87,-400.4"/>
<text text-anchor="middle" x="2571.16" y="-1336.29" font-family="Times,serif" font-size="14.00">0</text>
</g>
<!-- 11&#45;&gt;18 -->
<g id="edge77" class="edge">
<title>11&#45;&gt;18</title>
<path fill="none" stroke="black" d="M1884.97,-2303.08C2004.41,-2297.59 2482.16,-2271.83 2482.16,-2210.48 2482.16,-2210.48 2482.16,-2210.48 2482.16,-1338.99 2482.16,-1096.32 2533.8,-1029.43 2479.16,-792.99 2422.05,-545.88 2340.08,-450.58 2101.16,-365.5 2071.59,-354.97 1084.35,-308.75 878.53,-299.22"/>
<polygon fill="black" stroke="black" points="878.39,-295.71 868.24,-298.74 878.07,-302.7 878.39,-295.71"/>
<text text-anchor="middle" x="2488.16" y="-1292.79" font-family="Times,serif" font-size="14.00">1</text>
</g>
<!-- 11&#45;&gt;27 -->
<g id="edge102" class="edge">
<title>11&#45;&gt;27</title>
<path fill="none" stroke="black" d="M1843.79,-2282.5C1833.03,-2264.11 1820.16,-2236.65 1820.16,-2210.48 1820.16,-2210.48 1820.16,-2210.48 1820.16,-2069.98 1820.16,-1982.66 1597.21,-1858.04 1550.16,-1784.48 1454.41,-1634.8 1458.56,-1582.13 1388.16,-1418.98 1361.33,-1356.8 1363.54,-1336.84 1329.16,-1278.49 1319.68,-1262.4 1318.11,-1256.67 1303.16,-1245.49 1285.91,-1232.59 1270.24,-1245.33 1258.16,-1227.49 1236.59,-1195.64 1241.49,-1174.05 1261.16,-1140.99 1268.53,-1128.6 1280.42,-1135.16 1288.16,-1122.99 1311.21,-1086.77 1317.16,-974.92 1317.16,-931.99 1317.16,-931.99 1317.16,-931.99 1317.16,-577.99 1317.16,-500.86 1040.26,-490.35 938.28,-489.09"/>
<polygon fill="black" stroke="black" points="938.17,-485.59 928.13,-488.99 938.1,-492.59 938.17,-485.59"/>
<text text-anchor="middle" x="1393.16" y="-1388.54" font-family="Times,serif" font-size="14.00">3</text>
</g>
<!-- 12&#45;&gt;1 -->
<g id="edge124" class="edge">
<title>12&#45;&gt;1</title>
<path fill="none" stroke="black" d="M189.06,-1033.61C175.21,-1049.56 156.16,-1076.51 156.16,-1103.99 156.16,-1253.99 156.16,-1253.99 156.16,-1253.99 156.16,-1280.24 181.34,-1432.41 198.16,-1505.98 201.55,-1520.8 199.44,-1525.89 207.16,-1538.98 210.28,-1544.27 214.41,-1549.31 218.76,-1553.82"/>
<polygon fill="black" stroke="black" points="216.49,-1556.49 226.14,-1560.88 221.33,-1551.44 216.49,-1556.49"/>
<text text-anchor="middle" x="168.16" y="-1292.79" font-family="Times,serif" font-size="14.00">2</text>
</g>
<!-- 12&#45;&gt;3 -->
<g id="edge89" class="edge">
<title>12&#45;&gt;3</title>
<path fill="none" stroke="black" d="M185.16,-1031.71C177.21,-1037.86 168.12,-1045.71 161.16,-1053.99 150.27,-1066.94 148.79,-1071.42 142.16,-1086.99 72.98,-1249.5 59.16,-1294.87 36.16,-1469.98 15.44,-1627.73 100.4,-1666.51 207.16,-1784.48 349.84,-1942.15 410.54,-1966.95 608.16,-2045.48 650.09,-2062.14 659.89,-2069.78 704.16,-2078.48 831.34,-2103.47 1237.73,-2114.18 1355.74,-2116.81"/>
<polygon fill="black" stroke="black" points="1355.86,-2120.31 1365.93,-2117.03 1356.01,-2113.31 1355.86,-2120.31"/>
<text text-anchor="middle" x="52.16" y="-1571.28" font-family="Times,serif" font-size="14.00">4</text>
</g>
<!-- 12&#45;&gt;4 -->
<g id="edge105" class="edge">
<title>12&#45;&gt;4</title>
<path fill="none" stroke="black" d="M176.38,-1020.48C128.73,-1024.74 34.16,-1041.1 34.16,-1103.99 34.16,-1253.99 34.16,-1253.99 34.16,-1253.99 34.16,-1305.31 52,-1315.63 64.16,-1365.49 82.86,-1442.18 55.64,-1475.21 102.16,-1538.98 111.55,-1551.86 119.66,-1548.52 133.16,-1556.98 169.51,-1579.77 180.24,-1583.48 213.16,-1610.98 352.93,-1727.76 367.84,-1778.27 499.16,-1904.48 511.58,-1916.42 587.4,-1985.62 597.16,-1991.48 616.34,-2002.99 623.31,-2001.37 644.16,-2009.48 647.66,-2010.84 651.31,-2012.27 654.95,-2013.7"/>
<polygon fill="black" stroke="black" points="653.83,-2017.02 664.41,-2017.44 656.4,-2010.51 653.83,-2017.02"/>
<text text-anchor="middle" x="107.16" y="-1527.78" font-family="Times,serif" font-size="14.00">3</text>
</g>
<!-- 12&#45;&gt;6 -->
<g id="edge99" class="edge">
<title>12&#45;&gt;6</title>
<path fill="none" stroke="black" d="M227.29,-1009.8C265.07,-998.82 340.65,-978 406.16,-966.99 531.47,-945.94 682.18,-936.83 750.82,-933.55"/>
<polygon fill="black" stroke="black" points="751.29,-937.03 761.12,-933.07 750.97,-930.04 751.29,-937.03"/>
<text text-anchor="middle" x="411.16" y="-970.79" font-family="Times,serif" font-size="14.00">1</text>
</g>
<!-- 12&#45;&gt;23 -->
<g id="edge73" class="edge">
<title>12&#45;&gt;23</title>
<path fill="none" stroke="black" d="M213.19,-1034.94C240.84,-1080.49 316.16,-1215.85 316.16,-1338.99 316.16,-1532.48 316.16,-1532.48 316.16,-1532.48 316.16,-1575.5 316.98,-1590.41 341.16,-1625.98 348.09,-1636.18 358.2,-1644.91 368.1,-1651.84"/>
<polygon fill="black" stroke="black" points="366.38,-1654.89 376.66,-1657.44 370.21,-1649.04 366.38,-1654.89"/>
<text text-anchor="middle" x="321.16" y="-1336.29" font-family="Times,serif" font-size="14.00">0</text>
</g>
<!-- 13&#45;&gt;5 -->
<g id="edge21" class="edge">
<title>13&#45;&gt;5</title>
<path fill="none" stroke="black" d="M1869.27,-1850.46C1817.81,-1846.23 1707.52,-1835.35 1674.16,-1817.48 1662.58,-1811.28 1652.37,-1801.01 1644.53,-1791.38"/>
<polygon fill="black" stroke="black" points="1647.13,-1789.03 1638.27,-1783.21 1641.57,-1793.28 1647.13,-1789.03"/>
<text text-anchor="middle" x="1679.16" y="-1806.28" font-family="Times,serif" font-size="14.00">1</text>
</g>
<!-- 13&#45;&gt;8 -->
<g id="edge10" class="edge">
<title>13&#45;&gt;8</title>
<path fill="none" stroke="black" d="M1922.93,-1850.03C1982.28,-1844.41 2121.01,-1830.08 2138.16,-1817.48 2158.03,-1802.89 2162.16,-1792.13 2162.16,-1767.48 2162.16,-1767.48 2162.16,-1767.48 2162.16,-1295.49 2162.16,-1191.87 2170.16,-1166.11 2170.16,-1062.49 2170.16,-1062.49 2170.16,-1062.49 2170.16,-799.49 2170.16,-691.19 2185.33,-657.96 2146.16,-556.99 2134.74,-527.56 2088.12,-462.95 2070.16,-436.99 2065.54,-430.32 2060.34,-423.24 2055.46,-416.77"/>
<polygon fill="black" stroke="black" points="2057.93,-414.23 2049.08,-408.41 2052.36,-418.48 2057.93,-414.23"/>
<text text-anchor="middle" x="2174.16" y="-1101.29" font-family="Times,serif" font-size="14.00">3</text>
</g>
<!-- 13&#45;&gt;8 -->
<g id="edge90" class="edge">
<title>13&#45;&gt;8</title>
<path fill="none" stroke="black" d="M1923.38,-1852.3C1975.92,-1850.38 2086.16,-1837.95 2086.16,-1767.48 2086.16,-1767.48 2086.16,-1767.48 2086.16,-1251.99 2086.16,-924.23 2050.14,-527.26 2039.87,-420.67"/>
<polygon fill="black" stroke="black" points="2043.32,-420.08 2038.87,-410.46 2036.36,-420.76 2043.32,-420.08"/>
<text text-anchor="middle" x="2089.16" y="-1101.29" font-family="Times,serif" font-size="14.00">4</text>
</g>
<!-- 13&#45;&gt;10 -->
<g id="edge41" class="edge">
<title>13&#45;&gt;10</title>
<path fill="none" stroke="black" d="M1922.68,-1850.06C1985.33,-1844.2 2138.74,-1828.85 2159.16,-1817.48 2184.27,-1803.5 2200.16,-1796.22 2200.16,-1767.48 2200.16,-1767.48 2200.16,-1767.48 2200.16,-1295.49 2200.16,-1191.87 2208.16,-1166.11 2208.16,-1062.49 2208.16,-1062.49 2208.16,-1062.49 2208.16,-799.49 2208.16,-644.25 2512.16,-782.73 2512.16,-627.49 2512.16,-627.49 2512.16,-627.49 2512.16,-252 2512.16,-194.83 2496.18,-170.42 2447.16,-141 2410.97,-119.28 1776.21,-108.83 1613.77,-106.51"/>
<polygon fill="black" stroke="black" points="1613.39,-103 1603.34,-106.36 1613.29,-110 1613.39,-103"/>
<text text-anchor="middle" x="2213.16" y="-970.79" font-family="Times,serif" font-size="14.00">2</text>
</g>
<!-- 13&#45;&gt;14 -->
<g id="edge148" class="edge">
<title>13&#45;&gt;14</title>
<path fill="none" stroke="black" d="M1869.04,-1851.55C1788.15,-1848.03 1554.16,-1832.26 1554.16,-1767.48 1554.16,-1767.48 1554.16,-1767.48 1554.16,-1486.98 1554.16,-1374.87 1492.18,-1357.02 1412.16,-1278.49 1382.6,-1249.48 1366.93,-1252.81 1334.16,-1227.49 1188.39,-1114.84 1144.5,-1091.01 1027.16,-948.99 975.45,-886.41 984.42,-855.11 932.16,-792.99 927.79,-787.8 922.64,-782.71 917.5,-778.08"/>
<polygon fill="black" stroke="black" points="919.43,-775.12 909.57,-771.25 914.87,-780.43 919.43,-775.12"/>
<text text-anchor="middle" x="1455.16" y="-1292.79" font-family="Times,serif" font-size="14.00">0</text>
</g>
<!-- 14&#45;&gt;7 -->
<g id="edge111" class="edge">
<title>14&#45;&gt;7</title>
<path fill="none" stroke="black" d="M909.78,-742.94C917.65,-736.72 926.78,-728.91 934.16,-720.99 941.41,-713.21 948.46,-703.93 954.37,-695.48"/>
<polygon fill="black" stroke="black" points="957.35,-697.33 960.08,-687.09 951.56,-693.39 957.35,-697.33"/>
<text text-anchor="middle" x="950.16" y="-709.79" font-family="Times,serif" font-size="14.00">3</text>
</g>
<!-- 14&#45;&gt;16 -->
<g id="edge95" class="edge">
<title>14&#45;&gt;16</title>
<path fill="none" stroke="black" d="M865.53,-754C733.58,-742.59 156.16,-673.62 156.16,-341 156.16,-341 156.16,-341 156.16,-104 156.16,-41.21 635.7,-23.64 774.15,-19.88"/>
<polygon fill="black" stroke="black" points="774.36,-23.37 784.26,-19.61 774.17,-16.38 774.36,-23.37"/>
<text text-anchor="middle" x="173.16" y="-388.54" font-family="Times,serif" font-size="14.00">2</text>
</g>
<!-- 14&#45;&gt;18 -->
<g id="edge151" class="edge">
<title>14&#45;&gt;18</title>
<path fill="none" stroke="black" d="M890.25,-738.86C882.54,-669.55 853.64,-409.67 844.18,-324.62"/>
<polygon fill="black" stroke="black" points="847.63,-324.03 843.05,-314.48 840.67,-324.8 847.63,-324.03"/>
<text text-anchor="middle" x="872.16" y="-527.79" font-family="Times,serif" font-size="14.00">1</text>
</g>
<!-- 14&#45;&gt;28 -->
<g id="edge114" class="edge">
<title>14&#45;&gt;28</title>
<path fill="none" stroke="black" d="M894.13,-775.21C903.94,-860.65 947.07,-1235.93 951.16,-1260.49 963.28,-1333.29 983.19,-1418.07 993.5,-1460.27"/>
<polygon fill="black" stroke="black" points="990.12,-1461.17 995.91,-1470.04 996.92,-1459.5 990.12,-1461.17"/>
<text text-anchor="middle" x="939.16" y="-1101.29" font-family="Times,serif" font-size="14.00">4</text>
</g>
<!-- 14&#45;&gt;28 -->
<g id="edge137" class="edge">
<title>14&#45;&gt;28</title>
<path fill="none" stroke="black" d="M891.92,-775.12C891.85,-784.78 891.86,-797.06 892.16,-807.99 892.83,-832.02 893.53,-838.01 895.16,-861.99 912.09,-1111.03 890.77,-1181.35 967.16,-1418.98 971.93,-1433.82 979.37,-1449.52 985.98,-1462.09"/>
<polygon fill="black" stroke="black" points="982.98,-1463.9 990.82,-1471.03 989.14,-1460.57 982.98,-1463.9"/>
<text text-anchor="middle" x="912.16" y="-1101.29" font-family="Times,serif" font-size="14.00">0</text>
</g>
<!-- 15&#45;&gt;12 -->
<g id="edge44" class="edge">
<title>15&#45;&gt;12</title>
<path fill="none" stroke="black" d="M1511.22,-1102.12C1464.01,-1098.86 1363.28,-1092.02 1278.16,-1086.99 1170.64,-1080.64 417.27,-1047.29 310.16,-1035.99 286.32,-1033.48 259.69,-1029.25 238.96,-1025.64"/>
<polygon fill="black" stroke="black" points="239.46,-1022.18 229,-1023.88 238.24,-1029.07 239.46,-1022.18"/>
<text text-anchor="middle" x="901.16" y="-1057.79" font-family="Times,serif" font-size="14.00">4</text>
</g>
<!-- 15&#45;&gt;17 -->
<g id="edge110" class="edge">
<title>15&#45;&gt;17</title>
<path fill="none" stroke="black" d="M1526.55,-1088.62C1515.38,-1072.26 1500.16,-1045.18 1500.16,-1018.99 1500.16,-1018.99 1500.16,-1018.99 1500.16,-799.49 1500.16,-637.75 1500.11,-595.54 1468.16,-436.99 1467.51,-433.79 1466.72,-430.49 1465.83,-427.2"/>
<polygon fill="black" stroke="black" points="1469.16,-426.12 1462.98,-417.52 1462.45,-428.1 1469.16,-426.12"/>
<text text-anchor="middle" x="1504.16" y="-753.29" font-family="Times,serif" font-size="14.00">2</text>
</g>
<!-- 15&#45;&gt;19 -->
<g id="edge78" class="edge">
<title>15&#45;&gt;19</title>
<path fill="none" stroke="black" d="M1544.43,-1122.69C1558.42,-1160.1 1593.12,-1253.56 1620.16,-1332.49 1622.88,-1340.42 1625.71,-1348.99 1628.33,-1357.06"/>
<polygon fill="black" stroke="black" points="1625,-1358.15 1631.4,-1366.59 1631.66,-1356 1625,-1358.15"/>
<text text-anchor="middle" x="1599.16" y="-1249.29" font-family="Times,serif" font-size="14.00">1</text>
</g>
<!-- 15&#45;&gt;22 -->
<g id="edge26" class="edge">
<title>15&#45;&gt;22</title>
<path fill="none" stroke="black" d="M1564.86,-1109.11C1586.74,-1113.01 1617.12,-1121.71 1636.16,-1140.99 1670.5,-1175.77 1682.62,-1233.74 1686.88,-1267.92"/>
<polygon fill="black" stroke="black" points="1683.43,-1268.56 1688,-1278.12 1690.39,-1267.8 1683.43,-1268.56"/>
<text text-anchor="middle" x="1684.16" y="-1197.04" font-family="Times,serif" font-size="14.00">3</text>
</g>
<!-- 15&#45;&gt;22 -->
<g id="edge119" class="edge">
<title>15&#45;&gt;22</title>
<path fill="none" stroke="black" d="M1558.62,-1117.06C1568.85,-1123.23 1580.97,-1131.56 1590.16,-1140.99 1621.95,-1173.62 1620.56,-1189.14 1645.16,-1227.49 1654.38,-1241.87 1664.76,-1257.92 1673.13,-1270.81"/>
<polygon fill="black" stroke="black" points="1670.43,-1273.09 1678.81,-1279.57 1676.3,-1269.28 1670.43,-1273.09"/>
<text text-anchor="middle" x="1650.16" y="-1197.04" font-family="Times,serif" font-size="14.00">0</text>
</g>
<!-- 16&#45;&gt;5 -->
<g id="edge63" class="edge">
<title>16&#45;&gt;5</title>
<path fill="none" stroke="black" d="M838.42,-19.07C1041.31,-19.8 2308.16,-27.37 2308.16,-104 2308.16,-341 2308.16,-341 2308.16,-341 2308.16,-526.09 2127.45,-493.91 2031.16,-651.99 1961.76,-765.93 2010.16,-1118.57 2010.16,-1251.99 2010.16,-1671.73 2010.16,-1671.73 2010.16,-1671.73 2010.16,-1742.24 1761.58,-1760 1665.47,-1764.23"/>
<polygon fill="black" stroke="black" points="1665.17,-1760.74 1655.33,-1764.65 1665.46,-1767.73 1665.17,-1760.74"/>
<text text-anchor="middle" x="1998.16" y="-883.79" font-family="Times,serif" font-size="14.00">1</text>
</g>
<!-- 16&#45;&gt;11 -->
<g id="edge98" class="edge">
<title>16&#45;&gt;11</title>
<path fill="none" stroke="black" d="M838.25,-18.82C1062.56,-17.46 2604.16,-11.53 2604.16,-104 2604.16,-2210.48 2604.16,-2210.48 2604.16,-2210.48 2604.16,-2238.94 2589.42,-2247.36 2564.16,-2260.48 2504.61,-2291.4 2032.16,-2301.41 1895.23,-2303.68"/>
<polygon fill="black" stroke="black" points="1895.17,-2300.18 1885.22,-2303.84 1895.28,-2307.18 1895.17,-2300.18"/>
<text text-anchor="middle" x="2609.16" y="-1144.79" font-family="Times,serif" font-size="14.00">4</text>
</g>
<!-- 16&#45;&gt;11 -->
<g id="edge104" class="edge">
<title>16&#45;&gt;11</title>
<path fill="none" stroke="black" d="M838.23,-19.23C1040.09,-20.99 2307.26,-32.83 2476.16,-54 2694.79,-81.4 2642.16,-58.88 2642.16,-104 2642.16,-2210.48 2642.16,-2210.48 2642.16,-2210.48 2642.16,-2242.54 2619.53,-2247.62 2590.16,-2260.48 2526.23,-2288.48 2034.72,-2300.61 1895.06,-2303.51"/>
<polygon fill="black" stroke="black" points="1894.8,-2300.02 1884.88,-2303.72 1894.94,-2307.02 1894.8,-2300.02"/>
<text text-anchor="middle" x="2647.16" y="-1144.79" font-family="Times,serif" font-size="14.00">2</text>
</g>
<!-- 16&#45;&gt;22 -->
<g id="edge43" class="edge">
<title>16&#45;&gt;22</title>
<path fill="none" stroke="black" d="M838.16,-19.11C1039.14,-19.96 2295.17,-26.38 2322.16,-54 2421.77,-155.94 2383.66,-419.23 2304.16,-538.99 2225.06,-658.14 2033.16,-569.48 2033.16,-712.49 2033.16,-1018.99 2033.16,-1018.99 2033.16,-1018.99 2033.16,-1080.35 2051.85,-1106.08 2016.16,-1155.99 1946.84,-1252.93 1796.06,-1283 1726.14,-1291.92"/>
<polygon fill="black" stroke="black" points="1725.54,-1288.46 1716.03,-1293.13 1726.38,-1295.41 1725.54,-1288.46"/>
<text text-anchor="middle" x="2057.16" y="-666.29" font-family="Times,serif" font-size="14.00">0</text>
</g>
<!-- 16&#45;&gt;27 -->
<g id="edge9" class="edge">
<title>16&#45;&gt;27</title>
<path fill="none" stroke="black" d="M785.92,-24.94C750.99,-34.84 692.16,-58.3 692.16,-104 692.16,-297.5 692.16,-297.5 692.16,-297.5 692.16,-391.25 809.02,-450.75 867.97,-474.8"/>
<polygon fill="black" stroke="black" points="867,-478.18 877.59,-478.62 869.59,-471.67 867,-478.18"/>
<text text-anchor="middle" x="697.16" y="-249.3" font-family="Times,serif" font-size="14.00">3</text>
</g>
<!-- 17&#45;&gt;2 -->
<g id="edge22" class="edge">
<title>17&#45;&gt;2</title>
<path fill="none" stroke="black" d="M1479.04,-402.63C1516.38,-416.79 1589.05,-444.67 1650.16,-469.99 1953.73,-595.78 2071.41,-588.16 2298.16,-825.99 2352.81,-883.32 2398.16,-894.29 2398.16,-973.49 2398.16,-1393.24 2398.16,-1393.24 2398.16,-1393.24 2398.16,-1473.57 2396.16,-1493.65 2396.16,-1573.98 2396.16,-1810.98 2396.16,-1810.98 2396.16,-1810.98 2396.16,-1960.76 1894.67,-2148.9 1759.42,-2196.92"/>
<polygon fill="black" stroke="black" points="1757.88,-2193.75 1749.61,-2200.38 1760.21,-2200.35 1757.88,-2193.75"/>
<text text-anchor="middle" x="2403.16" y="-1292.79" font-family="Times,serif" font-size="14.00">2</text>
</g>
<!-- 17&#45;&gt;13 -->
<g id="edge16" class="edge">
<title>17&#45;&gt;13</title>
<path fill="none" stroke="black" d="M1474.77,-409.86C1489.55,-421.71 1509.98,-437.96 1528.16,-451.99 1604.21,-510.68 1873.16,-616.42 1873.16,-712.49 1873.16,-975.49 1873.16,-975.49 1873.16,-975.49 1873.16,-1098.8 1896.16,-1128.68 1896.16,-1251.99 1896.16,-1767.48 1896.16,-1767.48 1896.16,-1767.48 1896.16,-1786.73 1896.16,-1808.43 1896.16,-1825.08"/>
<polygon fill="black" stroke="black" points="1892.66,-1825.22 1896.16,-1835.22 1899.66,-1825.22 1892.66,-1825.22"/>
<text text-anchor="middle" x="1890.16" y="-1101.29" font-family="Times,serif" font-size="14.00">3</text>
</g>
<!-- 17&#45;&gt;13 -->
<g id="edge94" class="edge">
<title>17&#45;&gt;13</title>
<path fill="none" stroke="black" d="M1476.74,-407.22C1501.05,-422.17 1538.25,-444.71 1553.16,-451.99 1572.89,-461.63 1579.27,-460.7 1599.16,-469.99 1672.15,-504.07 1691.97,-511.08 1758.16,-556.99 1811.24,-593.81 1820.25,-608.66 1868.16,-651.99 1894.04,-675.4 1910.01,-674.56 1925.16,-705.99 1951.6,-760.84 1972.16,-1191.1 1972.16,-1251.99 1972.16,-1767.48 1972.16,-1767.48 1972.16,-1767.48 1972.16,-1796.88 1946.57,-1820.78 1925.09,-1835.66"/>
<polygon fill="black" stroke="black" points="1922.96,-1832.88 1916.53,-1841.29 1926.81,-1838.73 1922.96,-1832.88"/>
<text text-anchor="middle" x="1972.16" y="-1101.29" font-family="Times,serif" font-size="14.00">4</text>
</g>
<!-- 17&#45;&gt;14 -->
<g id="edge92" class="edge">
<title>17&#45;&gt;14</title>
<path fill="none" stroke="black" d="M1431.71,-407.27C1419.51,-415.33 1404.44,-426.02 1392.16,-436.99 1304.85,-515.05 1313.7,-567.69 1217.16,-633.99 1123.04,-698.63 990.23,-734.41 927.55,-748.65"/>
<polygon fill="black" stroke="black" points="926.75,-745.24 917.75,-750.83 928.27,-752.07 926.75,-745.24"/>
<text text-anchor="middle" x="1300.16" y="-575.29" font-family="Times,serif" font-size="14.00">1</text>
</g>
<!-- 17&#45;&gt;18 -->
<g id="edge85" class="edge">
<title>17&#45;&gt;18</title>
<path fill="none" stroke="black" d="M1427.82,-387.22C1330.36,-372.31 990.04,-320.27 877.56,-303.06"/>
<polygon fill="black" stroke="black" points="877.82,-299.56 867.4,-301.51 876.76,-306.48 877.82,-299.56"/>
<text text-anchor="middle" x="1170.16" y="-336.3" font-family="Times,serif" font-size="14.00">0</text>
</g>
<!-- 18&#45;&gt;11 -->
<g id="edge34" class="edge">
<title>18&#45;&gt;11</title>
<path fill="none" stroke="black" d="M867.97,-298.88C931.76,-302.12 1097.57,-310.25 1236.16,-314.5 1290.86,-316.17 2168.13,-318.93 2221.16,-332.5 2357.1,-367.26 2387.83,-411.84 2472.16,-523.99 2616.24,-715.61 2528.16,-820.75 2528.16,-1060.49 2528.16,-2210.48 2528.16,-2210.48 2528.16,-2210.48 2528.16,-2236.86 2518.86,-2247.03 2496.16,-2260.48 2444.43,-2291.14 2023.28,-2301.24 1895.06,-2303.62"/>
<polygon fill="black" stroke="black" points="1894.89,-2300.12 1884.96,-2303.8 1895.02,-2307.12 1894.89,-2300.12"/>
<text text-anchor="middle" x="2533.16" y="-1292.79" font-family="Times,serif" font-size="14.00">1</text>
</g>
<!-- 18&#45;&gt;12 -->
<g id="edge23" class="edge">
<title>18&#45;&gt;12</title>
<path fill="none" stroke="black" d="M814.18,-299.31C772.96,-303.59 694.64,-317.87 652.16,-365.5 594.87,-429.72 616.36,-469.09 566.16,-538.99 524.73,-596.68 499.84,-598.46 453.16,-651.99 421.26,-688.57 415.23,-699.4 387.16,-738.99 322.05,-830.8 249.68,-943.55 218.66,-992.44"/>
<polygon fill="black" stroke="black" points="215.58,-990.76 213.18,-1001.08 221.49,-994.5 215.58,-990.76"/>
<text text-anchor="middle" x="458.16" y="-666.29" font-family="Times,serif" font-size="14.00">0</text>
</g>
<!-- 18&#45;&gt;14 -->
<g id="edge6" class="edge">
<title>18&#45;&gt;14</title>
<path fill="none" stroke="black" d="M824.02,-310.75C817.11,-316.78 809.52,-324.38 804.16,-332.5 773,-379.64 727.31,-496.67 733.16,-538.99 742.58,-607.15 733,-633.62 775.16,-687.99 796.48,-715.49 832.28,-733.93 858.68,-744.59"/>
<polygon fill="black" stroke="black" points="857.7,-747.96 868.29,-748.29 860.22,-741.43 857.7,-747.96"/>
<text text-anchor="middle" x="738.16" y="-527.79" font-family="Times,serif" font-size="14.00">2</text>
</g>
<!-- 21 -->
<g id="node23" class="node">
<title>21</title>
<ellipse fill="none" stroke="black" cx="476.16" cy="-200.75" rx="22.96" ry="22.96"/>
<ellipse fill="none" stroke="black" cx="476.16" cy="-200.75" rx="27" ry="27"/>
<text text-anchor="middle" x="476.16" y="-197.05" font-family="Times,serif" font-size="14.00">21</text>
</g>
<!-- 18&#45;&gt;21 -->
<g id="edge12" class="edge">
<title>18&#45;&gt;21</title>
<path fill="none" stroke="black" d="M815.17,-291.46C779.82,-285.75 714.74,-274.43 660.16,-260.5 607.44,-247.03 547.64,-227.04 510.91,-214.2"/>
<polygon fill="black" stroke="black" points="511.78,-210.79 501.18,-210.78 509.46,-217.4 511.78,-210.79"/>
<text text-anchor="middle" x="665.16" y="-249.3" font-family="Times,serif" font-size="14.00">3</text>
</g>
<!-- 18&#45;&gt;27 -->
<g id="edge86" class="edge">
<title>18&#45;&gt;27</title>
<path fill="none" stroke="black" d="M846.14,-314.45C853.1,-337.98 866.22,-381.84 878.16,-418.99 882.57,-432.71 887.69,-447.91 891.97,-460.45"/>
<polygon fill="black" stroke="black" points="888.79,-461.95 895.35,-470.27 895.41,-459.68 888.79,-461.95"/>
<text text-anchor="middle" x="883.16" y="-388.54" font-family="Times,serif" font-size="14.00">4</text>
</g>
<!-- 19&#45;&gt;5 -->
<g id="edge135" class="edge">
<title>19&#45;&gt;5</title>
<path fill="none" stroke="black" d="M1638.39,-1419.16C1636.39,-1486.82 1631.03,-1668.34 1628.98,-1737.86"/>
<polygon fill="black" stroke="black" points="1625.47,-1737.93 1628.67,-1748.02 1632.47,-1738.13 1625.47,-1737.93"/>
<text text-anchor="middle" x="1639.16" y="-1571.28" font-family="Times,serif" font-size="14.00">1</text>
</g>
<!-- 19&#45;&gt;10 -->
<g id="edge74" class="edge">
<title>19&#45;&gt;10</title>
<path fill="none" stroke="black" d="M1659.72,-1374.41C1684.03,-1354.29 1721.64,-1322.34 1725.16,-1314.49 1731.7,-1299.89 1725.86,-1294.47 1725.16,-1278.49 1708.92,-907.2 1652.16,-817.13 1652.16,-445.49 1652.16,-445.49 1652.16,-445.49 1652.16,-199.75 1652.16,-167.93 1625.42,-140.88 1603.66,-124.13"/>
<polygon fill="black" stroke="black" points="1605.47,-121.11 1595.34,-118.02 1601.33,-126.76 1605.47,-121.11"/>
<text text-anchor="middle" x="1675.16" y="-753.29" font-family="Times,serif" font-size="14.00">0</text>
</g>
<!-- 19&#45;&gt;15 -->
<g id="edge36" class="edge">
<title>19&#45;&gt;15</title>
<path fill="none" stroke="black" d="M1628.85,-1367.08C1617.56,-1342.66 1597.62,-1304.86 1572.16,-1278.49 1561.88,-1267.84 1551.5,-1273.33 1544.16,-1260.49 1521.55,-1220.91 1526.29,-1165.87 1532.05,-1133.28"/>
<polygon fill="black" stroke="black" points="1535.55,-1133.63 1534,-1123.15 1528.67,-1132.31 1535.55,-1133.63"/>
<text text-anchor="middle" x="1549.16" y="-1249.29" font-family="Times,serif" font-size="14.00">4</text>
</g>
<!-- 19&#45;&gt;15 -->
<g id="edge132" class="edge">
<title>19&#45;&gt;15</title>
<path fill="none" stroke="black" d="M1621.02,-1372.33C1589.69,-1339.46 1528.28,-1273.96 1523.16,-1260.49 1504.31,-1210.83 1513.33,-1192.99 1524.16,-1140.99 1524.79,-1137.95 1525.67,-1134.83 1526.69,-1131.77"/>
<polygon fill="black" stroke="black" points="1529.98,-1132.95 1530.24,-1122.36 1523.43,-1130.48 1529.98,-1132.95"/>
<text text-anchor="middle" x="1528.16" y="-1249.29" font-family="Times,serif" font-size="14.00">2</text>
</g>
<!-- 19&#45;&gt;22 -->
<g id="edge96" class="edge">
<title>19&#45;&gt;22</title>
<path fill="none" stroke="black" d="M1651.52,-1368.06C1658.85,-1354.32 1668.15,-1336.88 1675.67,-1322.78"/>
<polygon fill="black" stroke="black" points="1678.93,-1324.11 1680.55,-1313.64 1672.75,-1320.81 1678.93,-1324.11"/>
<text text-anchor="middle" x="1674.16" y="-1336.29" font-family="Times,serif" font-size="14.00">3</text>
</g>
<!-- 20&#45;&gt;12 -->
<g id="edge56" class="edge">
<title>20&#45;&gt;12</title>
<path fill="none" stroke="black" d="M395.42,-585.06C360.89,-593.19 299.89,-612.43 265.16,-651.99 178.8,-750.37 190.61,-923.23 199.05,-989.8"/>
<polygon fill="black" stroke="black" points="195.6,-990.45 200.41,-999.9 202.54,-989.52 195.6,-990.45"/>
<text text-anchor="middle" x="207.16" y="-796.79" font-family="Times,serif" font-size="14.00">3</text>
</g>
<!-- 20&#45;&gt;16 -->
<g id="edge61" class="edge">
<title>20&#45;&gt;16</title>
<path fill="none" stroke="black" d="M406.04,-563.78C362.54,-521.27 240.16,-389.62 240.16,-254 240.16,-254 240.16,-254 240.16,-104 240.16,-49.84 647.31,-26.54 774,-20.6"/>
<polygon fill="black" stroke="black" points="774.17,-24.09 784,-20.14 773.85,-17.1 774.17,-24.09"/>
<text text-anchor="middle" x="253.16" y="-292.8" font-family="Times,serif" font-size="14.00">2</text>
</g>
<!-- 20&#45;&gt;21 -->
<g id="edge2" class="edge">
<title>20&#45;&gt;21</title>
<path fill="none" stroke="black" d="M412.46,-561.78C403.92,-544.32 392.16,-515.48 392.16,-488.99 392.16,-488.99 392.16,-488.99 392.16,-295.5 392.16,-262.99 420.51,-236.61 444.28,-220.21"/>
<polygon fill="black" stroke="black" points="446.33,-223.05 452.76,-214.63 442.48,-217.2 446.33,-223.05"/>
<text text-anchor="middle" x="397.16" y="-388.54" font-family="Times,serif" font-size="14.00">1</text>
</g>
<!-- 20&#45;&gt;21 -->
<g id="edge72" class="edge">
<title>20&#45;&gt;21</title>
<path fill="none" stroke="black" d="M426.35,-561.11C431.35,-543.35 438.16,-514.48 438.16,-488.99 438.16,-488.99 438.16,-488.99 438.16,-295.5 438.16,-273.21 447.49,-249.99 456.91,-232.23"/>
<polygon fill="black" stroke="black" points="459.98,-233.91 461.79,-223.48 453.87,-230.5 459.98,-233.91"/>
<text text-anchor="middle" x="443.16" y="-388.54" font-family="Times,serif" font-size="14.00">0</text>
</g>
<!-- 20&#45;&gt;27 -->
<g id="edge144" class="edge">
<title>20&#45;&gt;27</title>
<path fill="none" stroke="black" d="M446.9,-572.84C496.06,-563.04 606.75,-541.16 700.16,-523.99 757.84,-513.39 825,-501.86 865.24,-495.04"/>
<polygon fill="black" stroke="black" points="865.84,-498.49 875.11,-493.37 864.67,-491.58 865.84,-498.49"/>
<text text-anchor="middle" x="705.16" y="-527.79" font-family="Times,serif" font-size="14.00">4</text>
</g>
<!-- 21&#45;&gt;3 -->
<g id="edge58" class="edge">
<title>21&#45;&gt;3</title>
<path fill="none" stroke="black" d="M502.92,-202.72C703.71,-210.24 1970.37,-261.61 2101.16,-365.5 2293.33,-518.15 2284.16,-641.07 2284.16,-886.49 2284.16,-1105.99 2284.16,-1105.99 2284.16,-1105.99 2284.16,-1209.61 2276.16,-1235.37 2276.16,-1338.99 2276.16,-1723.98 2276.16,-1723.98 2276.16,-1723.98 2276.16,-1810.2 2224.99,-1828.66 2150.16,-1871.48 1989.84,-1963.2 1925.6,-1931.51 1758.16,-2009.48 1729.62,-2022.77 1725.11,-2031 1697.16,-2045.48 1679.85,-2054.45 1674.65,-2054.87 1657.16,-2063.48 1644.49,-2069.71 1642.53,-2073.96 1629.16,-2078.48 1557.08,-2102.86 1467.58,-2112.22 1420.54,-2115.64"/>
<polygon fill="black" stroke="black" points="1420.09,-2112.17 1410.35,-2116.34 1420.56,-2119.15 1420.09,-2112.17"/>
<text text-anchor="middle" x="2288.16" y="-1144.79" font-family="Times,serif" font-size="14.00">4</text>
</g>
<!-- 21&#45;&gt;10 -->
<g id="edge25" class="edge">
<title>21&#45;&gt;10</title>
<path fill="none" stroke="black" d="M502.81,-197.48C650.48,-184.89 1367.95,-123.74 1539.34,-109.14"/>
<polygon fill="black" stroke="black" points="1539.71,-112.62 1549.37,-108.28 1539.11,-105.64 1539.71,-112.62"/>
<text text-anchor="middle" x="1161.16" y="-144.8" font-family="Times,serif" font-size="14.00">0</text>
</g>
<!-- 21&#45;&gt;12 -->
<g id="edge134" class="edge">
<title>21&#45;&gt;12</title>
<path fill="none" stroke="black" d="M449.41,-201.21C411.94,-201.89 343.76,-208.6 302.16,-245.5 268.58,-275.28 165.16,-580.61 165.16,-625.49 165.16,-931.99 165.16,-931.99 165.16,-931.99 165.16,-954.09 175.99,-976.82 186.09,-993.21"/>
<polygon fill="black" stroke="black" points="183.17,-995.14 191.55,-1001.62 189.04,-991.33 183.17,-995.14"/>
<text text-anchor="middle" x="170.16" y="-622.79" font-family="Times,serif" font-size="14.00">3</text>
</g>
<!-- 21&#45;&gt;23 -->
<g id="edge17" class="edge">
<title>21&#45;&gt;23</title>
<path fill="none" stroke="black" d="M476.16,-227.61C476.16,-246.44 476.16,-272.55 476.16,-295.5 476.16,-532.49 476.16,-532.49 476.16,-532.49 476.16,-553.79 431.39,-891.81 429.16,-912.99 409.28,-1101.99 392.16,-1148.94 392.16,-1338.99 392.16,-1575.98 392.16,-1575.98 392.16,-1575.98 392.16,-1595.06 393.82,-1616.23 395.63,-1633.63"/>
<polygon fill="black" stroke="black" points="392.19,-1634.36 396.77,-1643.92 399.15,-1633.59 392.19,-1634.36"/>
<text text-anchor="middle" x="434.16" y="-927.29" font-family="Times,serif" font-size="14.00">1</text>
</g>
<!-- 21&#45;&gt;25 -->
<g id="edge67" class="edge">
<title>21&#45;&gt;25</title>
<path fill="none" stroke="black" d="M498.55,-216.06C520.97,-232.32 552.16,-261.13 552.16,-295.5 552.16,-532.49 552.16,-532.49 552.16,-532.49 552.16,-647.84 630.67,-769.23 667.05,-819.29"/>
<polygon fill="black" stroke="black" points="664.37,-821.55 673.12,-827.52 670,-817.39 664.37,-821.55"/>
<text text-anchor="middle" x="557.16" y="-527.79" font-family="Times,serif" font-size="14.00">2</text>
</g>
<!-- 22&#45;&gt;3 -->
<g id="edge75" class="edge">
<title>22&#45;&gt;3</title>
<path fill="none" stroke="black" d="M1697.8,-1313.63C1727.98,-1372.3 1823.33,-1578.78 1757.16,-1730.48 1738.94,-1772.25 1715.99,-1769.87 1684.16,-1802.48 1579.46,-1909.75 1457.94,-2041.39 1409.59,-2094.07"/>
<polygon fill="black" stroke="black" points="1406.91,-2091.81 1402.73,-2101.55 1412.07,-2096.54 1406.91,-2091.81"/>
<text text-anchor="middle" x="1767.16" y="-1719.28" font-family="Times,serif" font-size="14.00">2</text>
</g>
<!-- 22&#45;&gt;11 -->
<g id="edge125" class="edge">
<title>22&#45;&gt;11</title>
<path fill="none" stroke="black" d="M1709.92,-1308.2C1746.85,-1328.93 1820.16,-1378.27 1820.16,-1443.48 1820.16,-1897.98 1820.16,-1897.98 1820.16,-1897.98 1820.16,-1940.07 1818.39,-1952.88 1835.16,-1991.48 1852.76,-2032 1896.16,-2025.8 1896.16,-2069.98 1896.16,-2210.48 1896.16,-2210.48 1896.16,-2210.48 1896.16,-2232.76 1886.82,-2255.99 1877.41,-2273.75"/>
<polygon fill="black" stroke="black" points="1874.34,-2272.06 1872.53,-2282.5 1880.45,-2275.47 1874.34,-2272.06"/>
<text text-anchor="middle" x="1825.16" y="-1806.28" font-family="Times,serif" font-size="14.00">1</text>
</g>
<!-- 22&#45;&gt;14 -->
<g id="edge138" class="edge">
<title>22&#45;&gt;14</title>
<path fill="none" stroke="black" d="M1672.85,-1281.8C1585.37,-1208.59 1170.16,-864.01 1020.16,-792.99 990.56,-778.98 954.38,-769.74 928.04,-764.29"/>
<polygon fill="black" stroke="black" points="928.6,-760.83 918.11,-762.32 927.23,-767.7 928.6,-760.83"/>
<text text-anchor="middle" x="1372.16" y="-1014.29" font-family="Times,serif" font-size="14.00">0</text>
</g>
<!-- 22&#45;&gt;18 -->
<g id="edge139" class="edge">
<title>22&#45;&gt;18</title>
<path fill="none" stroke="black" d="M1690.94,-1278.13C1693.05,-1254.51 1695.86,-1210.94 1692.16,-1173.99 1675.63,-1008.86 1638.21,-972.73 1618.16,-807.99 1613.13,-766.7 1614.16,-756.09 1614.16,-714.49 1614.16,-714.49 1614.16,-714.49 1614.16,-443.49 1614.16,-378.39 1551.68,-386.81 1490.16,-365.5 1375.47,-325.75 998.07,-304.9 878.11,-299.16"/>
<polygon fill="black" stroke="black" points="878.12,-295.66 867.97,-298.68 877.79,-302.65 878.12,-295.66"/>
<text text-anchor="middle" x="1623.16" y="-796.79" font-family="Times,serif" font-size="14.00">3</text>
</g>
<!-- 22&#45;&gt;24 -->
<g id="edge108" class="edge">
<title>22&#45;&gt;24</title>
<path fill="none" stroke="black" d="M1662.94,-1291.77C1619.36,-1285.54 1529.26,-1272.52 1453.16,-1260.49 1338.44,-1242.35 1202.89,-1219.07 1139.39,-1208.06"/>
<polygon fill="black" stroke="black" points="1139.93,-1204.6 1129.47,-1206.33 1138.73,-1211.49 1139.93,-1204.6"/>
<text text-anchor="middle" x="1458.16" y="-1249.29" font-family="Times,serif" font-size="14.00">4</text>
</g>
<!-- 23&#45;&gt;1 -->
<g id="edge145" class="edge">
<title>23&#45;&gt;1</title>
<path fill="none" stroke="black" d="M375.31,-1660.69C355.13,-1652.84 326.34,-1640.49 303.16,-1625.98 289.97,-1617.73 276.55,-1606.83 265.75,-1597.31"/>
<polygon fill="black" stroke="black" points="267.83,-1594.47 258.06,-1590.37 263.14,-1599.67 267.83,-1594.47"/>
<text text-anchor="middle" x="308.16" y="-1614.78" font-family="Times,serif" font-size="14.00">2</text>
</g>
<!-- 23&#45;&gt;4 -->
<g id="edge101" class="edge">
<title>23&#45;&gt;4</title>
<path fill="none" stroke="black" d="M413.97,-1693.79C456.98,-1762.3 587.28,-1968.19 614.16,-1991.48 620.91,-1997.33 638.94,-2005.99 655.39,-2013.24"/>
<polygon fill="black" stroke="black" points="654.23,-2016.55 664.8,-2017.31 657.01,-2010.12 654.23,-2016.55"/>
<text text-anchor="middle" x="531.16" y="-1849.78" font-family="Times,serif" font-size="14.00">1</text>
</g>
<!-- 23&#45;&gt;18 -->
<g id="edge100" class="edge">
<title>23&#45;&gt;18</title>
<path fill="none" stroke="black" d="M412.02,-1646.5C420.4,-1627.92 430.16,-1600.93 430.16,-1575.98 430.16,-1575.98 430.16,-1575.98 430.16,-1338.99 430.16,-1289.36 425.49,-1277.1 424.16,-1227.49 422.48,-1165.07 421.3,-1149.37 424.16,-1086.99 425.94,-1048.2 424.05,-1037.96 432.16,-999.99 458.08,-878.67 468.03,-845.8 531.16,-738.99 571.21,-671.23 599.85,-667.36 642.16,-600.99 650,-588.69 749.67,-377.35 758.16,-365.5 772.89,-344.93 795.34,-327.05 813.18,-314.8"/>
<polygon fill="black" stroke="black" points="815.14,-317.7 821.52,-309.24 811.25,-311.87 815.14,-317.7"/>
<text text-anchor="middle" x="444.16" y="-970.79" font-family="Times,serif" font-size="14.00">3</text>
</g>
<!-- 23&#45;&gt;20 -->
<g id="edge42" class="edge">
<title>23&#45;&gt;20</title>
<path fill="none" stroke="black" d="M383.55,-1649.53C370.38,-1631.42 354.16,-1603.54 354.16,-1575.98 354.16,-1575.98 354.16,-1575.98 354.16,-1338.99 354.16,-1187.06 290.59,-1150.65 310.16,-999.99 329.94,-847.71 388.47,-671.98 411.6,-606.43"/>
<polygon fill="black" stroke="black" points="414.94,-607.47 415,-596.88 408.35,-605.13 414.94,-607.47"/>
<text text-anchor="middle" x="318.16" y="-1101.29" font-family="Times,serif" font-size="14.00">4</text>
</g>
<!-- 23&#45;&gt;24 -->
<g id="edge38" class="edge">
<title>23&#45;&gt;24</title>
<path fill="none" stroke="black" d="M424.85,-1660.3C494.3,-1634.16 697.73,-1560.36 873.16,-1523.98 908.84,-1516.59 1007.69,-1528.74 1036.16,-1505.98 1117,-1441.36 1114.42,-1303.37 1107.97,-1237.79"/>
<polygon fill="black" stroke="black" points="1111.41,-1237.1 1106.86,-1227.53 1104.45,-1237.85 1111.41,-1237.1"/>
<text text-anchor="middle" x="1091.16" y="-1440.78" font-family="Times,serif" font-size="14.00">0</text>
</g>
<!-- 24&#45;&gt;3 -->
<g id="edge126" class="edge">
<title>24&#45;&gt;3</title>
<path fill="none" stroke="black" d="M1125.7,-1215.93C1131.7,-1219.69 1138.17,-1223.75 1144.16,-1227.49 1157.03,-1235.52 1165.19,-1232.58 1173.16,-1245.49 1201.25,-1291 1180.32,-1312.04 1182.16,-1365.49 1190.28,-1601.34 1159.16,-1659.98 1159.16,-1895.98 1159.16,-2028.48 1159.16,-2028.48 1159.16,-2028.48 1159.16,-2070.31 1293.6,-2100.29 1356.46,-2112.02"/>
<polygon fill="black" stroke="black" points="1356.15,-2115.52 1366.62,-2113.87 1357.41,-2108.63 1356.15,-2115.52"/>
<text text-anchor="middle" x="1177.16" y="-1667.03" font-family="Times,serif" font-size="14.00">4</text>
</g>
<!-- 24&#45;&gt;7 -->
<g id="edge87" class="edge">
<title>24&#45;&gt;7</title>
<path fill="none" stroke="black" d="M1082.06,-1183.61C1073.83,-1176.14 1065.18,-1166.57 1060.16,-1155.99 990.55,-1009.37 1060.21,-950.28 1020.16,-792.99 1011.37,-758.48 994.8,-720.86 983.15,-696.66"/>
<polygon fill="black" stroke="black" points="986.19,-694.9 978.65,-687.46 979.9,-697.98 986.19,-694.9"/>
<text text-anchor="middle" x="1038.16" y="-927.29" font-family="Times,serif" font-size="14.00">1</text>
</g>
<!-- 24&#45;&gt;15 -->
<g id="edge30" class="edge">
<title>24&#45;&gt;15</title>
<path fill="none" stroke="black" d="M1128.64,-1192.42C1170.6,-1180.54 1257,-1156.79 1331.16,-1140.99 1390.64,-1128.32 1460.52,-1117.3 1501.98,-1111.16"/>
<polygon fill="black" stroke="black" points="1502.5,-1114.62 1511.88,-1109.71 1501.48,-1107.7 1502.5,-1114.62"/>
<text text-anchor="middle" x="1336.16" y="-1144.79" font-family="Times,serif" font-size="14.00">2</text>
</g>
<!-- 24&#45;&gt;28 -->
<g id="edge136" class="edge">
<title>24&#45;&gt;28</title>
<path fill="none" stroke="black" d="M1092.89,-1225.46C1086.45,-1240.56 1078.08,-1260.58 1071.16,-1278.49 1046.24,-1342.99 1021.1,-1420.41 1008.48,-1460.3"/>
<polygon fill="black" stroke="black" points="1005.07,-1459.47 1005.41,-1470.06 1011.75,-1461.57 1005.07,-1459.47"/>
<text text-anchor="middle" x="1055.16" y="-1336.29" font-family="Times,serif" font-size="14.00">0</text>
</g>
<!-- 24&#45;&gt;29 -->
<g id="edge28" class="edge">
<title>24&#45;&gt;29</title>
<path fill="none" stroke="black" d="M1115.74,-1224.74C1118.73,-1231.26 1121.53,-1238.49 1123.16,-1245.49 1140.73,-1320.7 1125.82,-1342.79 1113.16,-1418.98 1096.18,-1521.18 962.05,-2235.56 924.16,-2331.98 917.89,-2347.94 916.66,-2353.24 904.16,-2364.98 894.27,-2374.26 881.44,-2381.75 869.66,-2387.39"/>
<polygon fill="black" stroke="black" points="868.2,-2384.21 860.52,-2391.51 871.07,-2390.59 868.2,-2384.21"/>
<text text-anchor="middle" x="1045.16" y="-1806.28" font-family="Times,serif" font-size="14.00">3</text>
</g>
<!-- 25&#45;&gt;14 -->
<g id="edge150" class="edge">
<title>25&#45;&gt;14</title>
<path fill="none" stroke="black" d="M706.66,-833.02C729.27,-822.64 765.97,-806.09 798.16,-792.99 818.3,-784.79 841.16,-776.27 859.29,-769.68"/>
<polygon fill="black" stroke="black" points="860.61,-772.92 868.83,-766.24 858.24,-766.34 860.61,-772.92"/>
<text text-anchor="middle" x="803.16" y="-796.79" font-family="Times,serif" font-size="14.00">4</text>
</g>
<!-- 25&#45;&gt;15 -->
<g id="edge69" class="edge">
<title>25&#45;&gt;15</title>
<path fill="none" stroke="black" d="M711.86,-847.57C773.74,-854.05 931.28,-873.39 1057.16,-912.99 1119.86,-932.72 1264.87,-1012.25 1326.16,-1035.99 1387.76,-1059.86 1461.6,-1082.17 1503.88,-1094.36"/>
<polygon fill="black" stroke="black" points="1503.09,-1097.77 1513.67,-1097.16 1505.02,-1091.04 1503.09,-1097.77"/>
<text text-anchor="middle" x="1213.16" y="-970.79" font-family="Times,serif" font-size="14.00">0</text>
</g>
<!-- 25&#45;&gt;16 -->
<g id="edge54" class="edge">
<title>25&#45;&gt;16</title>
<path fill="none" stroke="black" d="M661.82,-834.91C600.22,-813.36 434.75,-753.9 387.16,-720.99 215.27,-602.11 110.16,-549.99 110.16,-341 110.16,-341 110.16,-341 110.16,-104 110.16,-90.61 161.14,-67.89 221.16,-54 326.96,-29.51 661.16,-21.59 773.73,-19.58"/>
<polygon fill="black" stroke="black" points="773.98,-23.08 783.92,-19.41 773.86,-16.08 773.98,-23.08"/>
<text text-anchor="middle" x="128.16" y="-440.79" font-family="Times,serif" font-size="14.00">1</text>
</g>
<!-- 25&#45;&gt;21 -->
<g id="edge50" class="edge">
<title>25&#45;&gt;21</title>
<path fill="none" stroke="black" d="M667.12,-830.36C658.78,-824.1 649.01,-816.15 641.16,-807.99 560.7,-724.44 514.16,-695.99 514.16,-579.99 514.16,-579.99 514.16,-579.99 514.16,-295.5 514.16,-273.21 504.82,-249.99 495.41,-232.23"/>
<polygon fill="black" stroke="black" points="498.45,-230.5 490.53,-223.48 492.34,-233.91 498.45,-230.5"/>
<text text-anchor="middle" x="519.16" y="-527.79" font-family="Times,serif" font-size="14.00">3</text>
</g>
<!-- 25&#45;&gt;29 -->
<g id="edge127" class="edge">
<title>25&#45;&gt;29</title>
<path fill="none" stroke="black" d="M666.75,-857.21C621.1,-888.76 503.11,-978.1 458.16,-1086.99 432.26,-1149.73 456.01,-1632.57 436.16,-1697.48 393.24,-1837.84 270.16,-1836.2 270.16,-1982.98 270.16,-2306.23 270.16,-2306.23 270.16,-2306.23 270.16,-2360.87 325.75,-2349.5 378.16,-2364.98 456.94,-2388.24 705.19,-2396.71 799.92,-2399.14"/>
<polygon fill="black" stroke="black" points="800.09,-2402.65 810.17,-2399.4 800.26,-2395.65 800.09,-2402.65"/>
<text text-anchor="middle" x="448.16" y="-1614.78" font-family="Times,serif" font-size="14.00">2</text>
</g>
<!-- 26&#45;&gt;8 -->
<g id="edge32" class="edge">
<title>26&#45;&gt;8</title>
<path fill="none" stroke="black" d="M1875.68,-473.49C1889.42,-462.69 1909.79,-447.64 1929.16,-436.99 1953.14,-423.81 1981.94,-412.34 2003.76,-404.46"/>
<polygon fill="black" stroke="black" points="2005,-407.73 2013.26,-401.1 2002.66,-401.14 2005,-407.73"/>
<text text-anchor="middle" x="1934.16" y="-440.79" font-family="Times,serif" font-size="14.00">4</text>
</g>
<!-- 26&#45;&gt;8 -->
<g id="edge128" class="edge">
<title>26&#45;&gt;8</title>
<path fill="none" stroke="black" d="M1882.05,-478.16C1898.31,-471.6 1920.48,-462.08 1939.16,-451.99 1949.9,-446.19 1951.77,-443.4 1962.16,-436.99 1977.31,-427.64 1994.45,-417.6 2008.51,-409.51"/>
<polygon fill="black" stroke="black" points="2010.33,-412.5 2017.26,-404.49 2006.84,-406.43 2010.33,-412.5"/>
<text text-anchor="middle" x="1967.16" y="-440.79" font-family="Times,serif" font-size="14.00">0</text>
</g>
<!-- 26&#45;&gt;15 -->
<g id="edge91" class="edge">
<title>26&#45;&gt;15</title>
<path fill="none" stroke="black" d="M1843.17,-502.68C1789.81,-549.97 1621.16,-713.16 1621.16,-886.49 1621.16,-1018.99 1621.16,-1018.99 1621.16,-1018.99 1621.16,-1050.27 1592.04,-1074.31 1568.3,-1088.72"/>
<polygon fill="black" stroke="black" points="1566.45,-1085.74 1559.53,-1093.77 1569.95,-1091.81 1566.45,-1085.74"/>
<text text-anchor="middle" x="1640.16" y="-796.79" font-family="Times,serif" font-size="14.00">3</text>
</g>
<!-- 26&#45;&gt;25 -->
<g id="edge20" class="edge">
<title>26&#45;&gt;25</title>
<path fill="none" stroke="black" d="M1832.54,-491.61C1762.09,-499.27 1576.16,-524.56 1576.16,-577.99 1576.16,-714.49 1576.16,-714.49 1576.16,-714.49 1576.16,-752.99 1549.2,-759.03 1514.16,-774.99 1370.08,-840.64 864.56,-843.71 722.53,-843.25"/>
<polygon fill="black" stroke="black" points="722.19,-839.75 712.18,-843.21 722.17,-846.75 722.19,-839.75"/>
<text text-anchor="middle" x="1581.16" y="-666.29" font-family="Times,serif" font-size="14.00">1</text>
</g>
<!-- 26&#45;&gt;26 -->
<g id="edge131" class="edge">
<title>26&#45;&gt;26</title>
<path fill="none" stroke="black" d="M1883.69,-495.74C1894.67,-496.48 1904.16,-493.9 1904.16,-487.99 1904.16,-484.02 1899.87,-481.56 1893.73,-480.59"/>
<polygon fill="black" stroke="black" points="1893.81,-477.09 1883.69,-480.24 1893.57,-484.08 1893.81,-477.09"/>
<text text-anchor="middle" x="1909.16" y="-484.29" font-family="Times,serif" font-size="14.00">2</text>
</g>
<!-- 27&#45;&gt;10 -->
<g id="edge149" class="edge">
<title>27&#45;&gt;10</title>
<path fill="none" stroke="black" d="M922.74,-476.9C969.89,-454.69 1085.39,-399.43 1179.16,-347.5 1321.09,-268.89 1485.03,-164.75 1548.81,-123.71"/>
<polygon fill="black" stroke="black" points="1550.97,-126.48 1557.47,-118.12 1547.17,-120.59 1550.97,-126.48"/>
<text text-anchor="middle" x="1301.16" y="-292.8" font-family="Times,serif" font-size="14.00">3</text>
</g>
<!-- 27&#45;&gt;17 -->
<g id="edge5" class="edge">
<title>27&#45;&gt;17</title>
<path fill="none" stroke="black" d="M928.22,-486.04C1001.15,-483.2 1200.44,-473.64 1262.16,-451.99 1273.68,-447.95 1273.99,-441.92 1285.16,-436.99 1297.34,-431.62 1372.42,-413.01 1418.31,-401.87"/>
<polygon fill="black" stroke="black" points="1419.29,-405.23 1428.18,-399.48 1417.64,-398.43 1419.29,-405.23"/>
<text text-anchor="middle" x="1290.16" y="-440.79" font-family="Times,serif" font-size="14.00">0</text>
</g>
<!-- 27&#45;&gt;18 -->
<g id="edge116" class="edge">
<title>27&#45;&gt;18</title>
<path fill="none" stroke="black" d="M901.77,-469.95C902.1,-445.93 900.72,-401.11 888.16,-365.5 882.3,-348.89 871.26,-332.58 861.36,-320.1"/>
<polygon fill="black" stroke="black" points="863.82,-317.59 854.76,-312.12 858.43,-322.05 863.82,-317.59"/>
<text text-anchor="middle" x="904.16" y="-388.54" font-family="Times,serif" font-size="14.00">4</text>
</g>
<!-- 27&#45;&gt;19 -->
<g id="edge120" class="edge">
<title>27&#45;&gt;19</title>
<path fill="none" stroke="black" d="M928.32,-489.43C1017.9,-491.12 1300.05,-498.43 1331.16,-523.99 1407.91,-587.05 1369.38,-642.31 1392.16,-738.99 1422.97,-869.74 1416.73,-905.39 1448.16,-1035.99 1472.49,-1137.1 1481.41,-1161.78 1514.16,-1260.49 1522.22,-1284.78 1518.74,-1294.06 1534.16,-1314.49 1553.49,-1340.11 1583.72,-1360.94 1606.79,-1374.4"/>
<polygon fill="black" stroke="black" points="1605.13,-1377.48 1615.56,-1379.36 1608.58,-1371.39 1605.13,-1377.48"/>
<text text-anchor="middle" x="1434.16" y="-927.29" font-family="Times,serif" font-size="14.00">2</text>
</g>
<!-- 27&#45;&gt;25 -->
<g id="edge48" class="edge">
<title>27&#45;&gt;25</title>
<path fill="none" stroke="black" d="M891.51,-504.81C857.36,-560.78 742.09,-749.69 700.38,-818.04"/>
<polygon fill="black" stroke="black" points="697.22,-816.5 695,-826.86 703.2,-820.15 697.22,-816.5"/>
<text text-anchor="middle" x="805.16" y="-666.29" font-family="Times,serif" font-size="14.00">1</text>
</g>
<!-- 28&#45;&gt;8 -->
<g id="edge3" class="edge">
<title>28&#45;&gt;8</title>
<path fill="none" stroke="black" d="M1027.21,-1485.45C1145.85,-1478.55 1616.82,-1449.44 1675.16,-1418.98 1702.96,-1404.47 1698.05,-1386.69 1721.16,-1365.49 1731.25,-1356.23 1737.9,-1358.41 1746.16,-1347.49 1783.53,-1298.1 1758.28,-1184.31 1758.16,-1173.99 1756.6,-1036.86 1696.15,-685.08 1745.16,-556.99 1785.36,-451.92 1931.71,-412.12 2000.7,-398.96"/>
<polygon fill="black" stroke="black" points="2001.48,-402.38 2010.69,-397.14 2000.22,-395.49 2001.48,-402.38"/>
<text text-anchor="middle" x="1744.16" y="-927.29" font-family="Times,serif" font-size="14.00">0</text>
</g>
<!-- 28&#45;&gt;19 -->
<g id="edge81" class="edge">
<title>28&#45;&gt;19</title>
<path fill="none" stroke="black" d="M1026.4,-1483.13C1126.72,-1468.42 1486.17,-1415.68 1602.53,-1398.61"/>
<polygon fill="black" stroke="black" points="1603.31,-1402.03 1612.7,-1397.12 1602.3,-1395.11 1603.31,-1402.03"/>
<text text-anchor="middle" x="1343.16" y="-1440.78" font-family="Times,serif" font-size="14.00">1</text>
</g>
<!-- 28&#45;&gt;21 -->
<g id="edge46" class="edge">
<title>28&#45;&gt;21</title>
<path fill="none" stroke="black" d="M986.53,-1472.3C980.99,-1466.15 974.62,-1458.85 969.16,-1451.98 839.44,-1288.86 529.6,-868.36 425.16,-687.99 403.83,-651.16 395.96,-642.16 385.16,-600.99 348.78,-462.32 330.37,-413.66 378.16,-278.5 384.04,-261.88 387.29,-257.54 400.16,-245.5 412.56,-233.89 428.58,-224.09 442.72,-216.73"/>
<polygon fill="black" stroke="black" points="444.3,-219.85 451.68,-212.25 441.17,-213.59 444.3,-219.85"/>
<text text-anchor="middle" x="541.16" y="-840.29" font-family="Times,serif" font-size="14.00">4</text>
</g>
<!-- 28&#45;&gt;21 -->
<g id="edge146" class="edge">
<title>28&#45;&gt;21</title>
<path fill="none" stroke="black" d="M976.81,-1478.54C921.04,-1457.54 777.65,-1398.5 682.16,-1314.49 662.36,-1297.06 394.83,-970.21 379.16,-948.99 351.7,-911.81 335.38,-906.29 322.16,-861.99 247.83,-612.91 266.86,-520.33 362.16,-278.5 368.45,-262.54 369.39,-256.94 382.16,-245.5 399.05,-230.35 422.1,-219.52 441.14,-212.42"/>
<polygon fill="black" stroke="black" points="442.42,-215.68 450.68,-209.04 440.08,-209.08 442.42,-215.68"/>
<text text-anchor="middle" x="327.16" y="-840.29" font-family="Times,serif" font-size="14.00">2</text>
</g>
<!-- 28&#45;&gt;24 -->
<g id="edge121" class="edge">
<title>28&#45;&gt;24</title>
<path fill="none" stroke="black" d="M1014.83,-1472.7C1020.28,-1466.73 1026.12,-1459.44 1030.16,-1451.98 1050.48,-1414.46 1080.48,-1296.41 1094.87,-1236.85"/>
<polygon fill="black" stroke="black" points="1098.27,-1237.67 1097.2,-1227.13 1091.46,-1236.03 1098.27,-1237.67"/>
<text text-anchor="middle" x="1074.16" y="-1336.29" font-family="Times,serif" font-size="14.00">3</text>
</g>
<!-- 29&#45;&gt;11 -->
<g id="edge59" class="edge">
<title>29&#45;&gt;11</title>
<path fill="none" stroke="black" d="M863.68,-2397.54C1003.98,-2384.66 1659.21,-2324.49 1821.65,-2309.58"/>
<polygon fill="black" stroke="black" points="1821.99,-2313.06 1831.63,-2308.66 1821.35,-2306.09 1821.99,-2313.06"/>
<text text-anchor="middle" x="1383.16" y="-2353.78" font-family="Times,serif" font-size="14.00">2</text>
</g>
<!-- 29&#45;&gt;17 -->
<g id="edge115" class="edge">
<title>29&#45;&gt;17</title>
<path fill="none" stroke="black" d="M859.75,-2391.05C877.34,-2384.06 902.36,-2374.04 924.16,-2364.98 1157.73,-2267.88 1271.37,-2322.37 1447.16,-2140.48 1478.65,-2107.9 1469.6,-2088.39 1484.16,-2045.48 1507.2,-1977.59 1570.29,-1945.17 1525.16,-1889.48 1500.85,-1859.48 1465.69,-1900.45 1440.16,-1871.48 1365.55,-1786.84 1429.84,-1473.78 1398.16,-1365.49 1368.52,-1264.15 1311.98,-1258.37 1286.16,-1155.99 1284.53,-1149.53 1283.3,-1147.02 1286.16,-1140.99 1291.57,-1129.58 1299.46,-1132.15 1308.16,-1122.99 1341.22,-1088.19 1356.27,-1081.29 1372.16,-1035.99 1393.88,-974.08 1378.16,-954.1 1378.16,-888.49 1378.16,-888.49 1378.16,-888.49 1378.16,-712.49 1378.16,-605.8 1418.82,-484.38 1440.66,-426.86"/>
<polygon fill="black" stroke="black" points="1444.05,-427.8 1444.38,-417.21 1437.52,-425.28 1444.05,-427.8"/>
<text text-anchor="middle" x="1411.16" y="-1388.54" font-family="Times,serif" font-size="14.00">3</text>
</g>
<!-- 29&#45;&gt;24 -->
<g id="edge129" class="edge">
<title>29&#45;&gt;24</title>
<path fill="none" stroke="black" d="M837.16,-2382.7C837.16,-2363.89 837.16,-2332.92 837.16,-2306.23 837.16,-2306.23 837.16,-2306.23 837.16,-1573.98 837.16,-1413.26 1003.34,-1274.05 1073,-1222.76"/>
<polygon fill="black" stroke="black" points="1075.36,-1225.38 1081.39,-1216.67 1071.24,-1219.71 1075.36,-1225.38"/>
<text text-anchor="middle" x="842.16" y="-1806.28" font-family="Times,serif" font-size="14.00">1</text>
</g>
<!-- 29&#45;&gt;27 -->
<g id="edge83" class="edge">
<title>29&#45;&gt;27</title>
<path fill="none" stroke="black" d="M809.99,-2400.08C713.38,-2399.72 392.16,-2392.09 392.16,-2306.23 392.16,-2306.23 392.16,-2306.23 392.16,-1982.98 392.16,-1779.25 480.62,-1741.11 506.16,-1538.98 531.35,-1339.56 457.96,-1285.41 490.16,-1086.99 493.08,-1069.02 578.69,-826.77 579.16,-825.99 663.65,-685.55 816,-556.39 875.95,-508.57"/>
<polygon fill="black" stroke="black" points="878.44,-511.06 884.11,-502.11 874.09,-505.58 878.44,-511.06"/>
<text text-anchor="middle" x="516.16" y="-1440.78" font-family="Times,serif" font-size="14.00">0</text>
</g>
<!-- 29&#45;&gt;28 -->
<g id="edge57" class="edge">
<title>29&#45;&gt;28</title>
<path fill="none" stroke="black" d="M856.34,-2387.96C878.85,-2372.2 913.16,-2342.27 913.16,-2306.23 913.16,-2306.23 913.16,-2306.23 913.16,-1808.98 913.16,-1696.21 964.09,-1568.67 988.02,-1514.98"/>
<polygon fill="black" stroke="black" points="991.35,-1516.1 992.29,-1505.55 984.97,-1513.22 991.35,-1516.1"/>
<text text-anchor="middle" x="918.16" y="-1936.78" font-family="Times,serif" font-size="14.00">4</text>
</g>
</g>
</svg>
