<?xml version="1.0" encoding="UTF-8" standalone="no"?>
<!DOCTYPE svg PUBLIC "-//W3C//DTD SVG 1.1//EN"
 "http://www.w3.org/Graphics/SVG/1.1/DTD/svg11.dtd">
<!-- Generated by graphviz version 13.0.1 (20250616.1512)
 -->
<!-- Pages: 1 -->
<svg width="2671pt" height="2521pt"
 viewBox="0.00 0.00 2671.00 2521.00" xmlns="http://www.w3.org/2000/svg" xmlns:xlink="http://www.w3.org/1999/xlink">
<g id="graph0" class="graph" transform="scale(1 1) rotate(0) translate(4 2516.6)">
<polygon fill="white" stroke="none" points="-4,4 -4,-2516.6 2667,-2516.6 2667,4 -4,4"/>
<!-- fake -->
<g id="node1" class="node">
<title>fake</title>
</g>
<!-- 29 -->
<g id="node31" class="node">
<title>29</title>
<ellipse fill="none" stroke="black" cx="2451" cy="-2421.6" rx="27" ry="18"/>
<text xml:space="preserve" text-anchor="middle" x="2451" y="-2416.93" font-family="Times,serif" font-size="14.00">29</text>
</g>
<!-- fake&#45;&gt;29 -->
<g id="edge1" class="edge">
<title>fake&#45;&gt;29</title>
<path fill="none" stroke="black" stroke-width="2" d="M2451,-2476.41C2451,-2468.83 2451,-2459.7 2451,-2451.14"/>
<polygon fill="black" stroke="black" stroke-width="2" points="2454.5,-2452.66 2451,-2442.66 2447.5,-2452.66 2454.5,-2452.66"/>
</g>
<!-- 0 -->
<g id="node2" class="node">
<title>0</title>
<ellipse fill="none" stroke="black" cx="1767" cy="-2060.6" rx="18" ry="18"/>
<ellipse fill="none" stroke="black" cx="1767" cy="-2060.6" rx="22" ry="22"/>
<text xml:space="preserve" text-anchor="middle" x="1767" y="-2055.93" font-family="Times,serif" font-size="14.00">0</text>
</g>
<!-- 0&#45;&gt;0 -->
<g id="edge130" class="edge">
<title>0&#45;&gt;0</title>
<path fill="none" stroke="black" d="M1787.58,-2069.45C1797.84,-2070.67 1807,-2067.72 1807,-2060.6 1807,-2056.37 1803.77,-2053.61 1799,-2052.33"/>
<polygon fill="black" stroke="black" points="1799.26,-2048.84 1789.09,-2051.83 1798.9,-2055.83 1799.26,-2048.84"/>
<text xml:space="preserve" text-anchor="middle" x="1811.5" y="-2055.93" font-family="Times,serif" font-size="14.00">3</text>
</g>
<!-- 4 -->
<g id="node6" class="node">
<title>4</title>
<ellipse fill="none" stroke="black" cx="1474" cy="-1967.35" rx="27" ry="18"/>
<text xml:space="preserve" text-anchor="middle" x="1474" y="-1962.68" font-family="Times,serif" font-size="14.00">4</text>
</g>
<!-- 0&#45;&gt;4 -->
<g id="edge5" class="edge">
<title>0&#45;&gt;4</title>
<path fill="none" stroke="black" d="M1745.93,-2053.04C1696.02,-2037.5 1570.21,-1998.32 1508.8,-1979.19"/>
<polygon fill="black" stroke="black" points="1510.15,-1975.94 1499.56,-1976.31 1508.07,-1982.63 1510.15,-1975.94"/>
<text xml:space="preserve" text-anchor="middle" x="1642.54" y="-2007.3" font-family="Times,serif" font-size="14.00">4</text>
</g>
<!-- 8 -->
<g id="node10" class="node">
<title>8</title>
<ellipse fill="none" stroke="black" cx="1918" cy="-740" rx="27" ry="18"/>
<text xml:space="preserve" text-anchor="middle" x="1918" y="-735.33" font-family="Times,serif" font-size="14.00">8</text>
</g>
<!-- 0&#45;&gt;8 -->
<g id="edge57" class="edge">
<title>0&#45;&gt;8</title>
<path fill="none" stroke="black" d="M1776.46,-2040.42C1791.3,-2010.08 1820.66,-1949.02 1843,-1896.1 1859.51,-1857 1863.29,-1847.02 1877,-1806.85 1903.77,-1728.41 1918.87,-1710.34 1931,-1628.35 1971.28,-1356.07 1904.39,-1284.65 1909,-1009.45 1910.47,-921.98 1914.62,-818.55 1916.73,-769.52"/>
<polygon fill="black" stroke="black" points="1920.22,-769.92 1917.15,-759.78 1913.22,-769.62 1920.22,-769.92"/>
<text xml:space="preserve" text-anchor="middle" x="1948.15" y="-1409.33" font-family="Times,serif" font-size="14.00">1</text>
</g>
<!-- 10 -->
<g id="node12" class="node">
<title>10</title>
<ellipse fill="none" stroke="black" cx="1785" cy="-472.25" rx="27" ry="18"/>
<text xml:space="preserve" text-anchor="middle" x="1785" y="-467.57" font-family="Times,serif" font-size="14.00">10</text>
</g>
<!-- 0&#45;&gt;10 -->
<g id="edge87" class="edge">
<title>0&#45;&gt;10</title>
<path fill="none" stroke="black" d="M1779.23,-2041.98C1790.34,-2024.23 1805,-1995.64 1805,-1968.35 1805,-1968.35 1805,-1968.35 1805,-1743.23 1805,-1648.77 1814.79,-1625.5 1818,-1531.1 1829.25,-1199.96 1823,-1116.96 1823,-785.62 1823,-785.62 1823,-785.62 1823,-560.5 1823,-538.2 1812.43,-515.16 1802.45,-498.36"/>
<polygon fill="black" stroke="black" points="1805.5,-496.64 1797.21,-490.05 1799.58,-500.37 1805.5,-496.64"/>
<text xml:space="preserve" text-anchor="middle" x="1828.98" y="-1245.9" font-family="Times,serif" font-size="14.00">2</text>
</g>
<!-- 25 -->
<g id="node27" class="node">
<title>25</title>
<ellipse fill="none" stroke="black" cx="527" cy="-200.5" rx="27" ry="18"/>
<text xml:space="preserve" text-anchor="middle" x="527" y="-195.82" font-family="Times,serif" font-size="14.00">25</text>
</g>
<!-- 0&#45;&gt;25 -->
<g id="edge36" class="edge">
<title>0&#45;&gt;25</title>
<path fill="none" stroke="black" d="M1744.8,-2058.01C1646.83,-2050.71 1258,-2018.57 1258,-1968.35 1258,-1968.35 1258,-1968.35 1258,-1743.23 1258,-1707.04 1269.75,-1699.4 1275,-1663.6 1309.25,-1430.26 1299.22,-1369.79 1318,-1134.7 1325.63,-1039.17 1343.38,-1003.5 1296,-920.2 1206.71,-763.22 1142.69,-754.26 1028,-614.75 1011.34,-594.48 762.39,-254.17 740,-240.5 711.21,-222.93 618.14,-210.83 565.04,-205.16"/>
<polygon fill="black" stroke="black" points="565.54,-201.7 555.23,-204.15 564.81,-208.66 565.54,-201.7"/>
<text xml:space="preserve" text-anchor="middle" x="1325.98" y="-1112.03" font-family="Times,serif" font-size="14.00">0</text>
</g>
<!-- 1 -->
<g id="node3" class="node">
<title>1</title>
<ellipse fill="none" stroke="black" cx="1679" cy="-1606.35" rx="18" ry="18"/>
<ellipse fill="none" stroke="black" cx="1679" cy="-1606.35" rx="22" ry="22"/>
<text xml:space="preserve" text-anchor="middle" x="1679" y="-1601.68" font-family="Times,serif" font-size="14.00">1</text>
</g>
<!-- 6 -->
<g id="node8" class="node">
<title>6</title>
<ellipse fill="none" stroke="black" cx="2140" cy="-2332.35" rx="27" ry="18"/>
<text xml:space="preserve" text-anchor="middle" x="2140" y="-2327.68" font-family="Times,serif" font-size="14.00">6</text>
</g>
<!-- 1&#45;&gt;6 -->
<g id="edge136" class="edge">
<title>1&#45;&gt;6</title>
<path fill="none" stroke="black" d="M1698.81,-1616.46C1787.05,-1658.56 2140,-1843.5 2140,-2108.23 2140,-2244.1 2140,-2244.1 2140,-2244.1 2140,-2263.6 2140,-2285.56 2140,-2302.57"/>
<polygon fill="black" stroke="black" points="2136.5,-2302.46 2140,-2312.46 2143.5,-2302.46 2136.5,-2302.46"/>
<text xml:space="preserve" text-anchor="middle" x="2118.75" y="-1962.68" font-family="Times,serif" font-size="14.00">2</text>
</g>
<!-- 13 -->
<g id="node15" class="node">
<title>13</title>
<ellipse fill="none" stroke="black" cx="1919" cy="-107.25" rx="27" ry="18"/>
<text xml:space="preserve" text-anchor="middle" x="1919" y="-102.58" font-family="Times,serif" font-size="14.00">13</text>
</g>
<!-- 1&#45;&gt;13 -->
<g id="edge81" class="edge">
<title>1&#45;&gt;13</title>
<path fill="none" stroke="black" d="M1686.83,-1585.29C1689.02,-1579.26 1691.26,-1572.59 1693,-1566.35 1703.86,-1527.37 1706.75,-1517.34 1711,-1477.1 1732.85,-1270.4 1734.39,-1216.49 1716,-1009.45 1697.43,-800.38 1596.07,-748.96 1639,-543.5 1676.92,-362.01 1835.63,-190.31 1895.77,-130.53"/>
<polygon fill="black" stroke="black" points="1898.14,-133.11 1902.82,-123.6 1893.24,-128.12 1898.14,-133.11"/>
<text xml:space="preserve" text-anchor="middle" x="1691.28" y="-834.43" font-family="Times,serif" font-size="14.00">0</text>
</g>
<!-- 21 -->
<g id="node23" class="node">
<title>21</title>
<ellipse fill="none" stroke="black" cx="1680" cy="-1027.45" rx="27" ry="18"/>
<text xml:space="preserve" text-anchor="middle" x="1680" y="-1022.78" font-family="Times,serif" font-size="14.00">21</text>
</g>
<!-- 1&#45;&gt;21 -->
<g id="edge72" class="edge">
<title>1&#45;&gt;21</title>
<path fill="none" stroke="black" d="M1669.65,-1586.03C1646.39,-1535.81 1588.75,-1396.72 1602,-1277.2 1612.73,-1180.43 1606.36,-1150.49 1650,-1063.45 1652.14,-1059.18 1654.91,-1055.01 1657.9,-1051.11"/>
<polygon fill="black" stroke="black" points="1660.33,-1053.66 1664.11,-1043.76 1654.98,-1049.14 1660.33,-1053.66"/>
<text xml:space="preserve" text-anchor="middle" x="1606.5" y="-1300.38" font-family="Times,serif" font-size="14.00">3</text>
</g>
<!-- 1&#45;&gt;21 -->
<g id="edge132" class="edge">
<title>1&#45;&gt;21</title>
<path fill="none" stroke="black" d="M1679.04,-1584.14C1679.19,-1495.93 1679.78,-1158.14 1679.95,-1057.14"/>
<polygon fill="black" stroke="black" points="1683.45,-1057.29 1679.97,-1047.28 1676.45,-1057.28 1683.45,-1057.29"/>
<text xml:space="preserve" text-anchor="middle" x="1684.07" y="-1300.38" font-family="Times,serif" font-size="14.00">4</text>
</g>
<!-- 22 -->
<g id="node24" class="node">
<title>22</title>
<ellipse fill="none" stroke="black" cx="2299" cy="-1513.1" rx="27" ry="18"/>
<text xml:space="preserve" text-anchor="middle" x="2299" y="-1508.43" font-family="Times,serif" font-size="14.00">22</text>
</g>
<!-- 1&#45;&gt;22 -->
<g id="edge104" class="edge">
<title>1&#45;&gt;22</title>
<path fill="none" stroke="black" d="M1701.07,-1602.1C1792.83,-1588.6 2144.86,-1536.79 2261.34,-1519.65"/>
<polygon fill="black" stroke="black" points="2261.6,-1523.14 2270.99,-1518.22 2260.58,-1516.22 2261.6,-1523.14"/>
<text xml:space="preserve" text-anchor="middle" x="2049.03" y="-1553.05" font-family="Times,serif" font-size="14.00">1</text>
</g>
<!-- 2 -->
<g id="node4" class="node">
<title>2</title>
<ellipse fill="none" stroke="black" cx="1767" cy="-2153.85" rx="27" ry="18"/>
<text xml:space="preserve" text-anchor="middle" x="1767" y="-2149.18" font-family="Times,serif" font-size="14.00">2</text>
</g>
<!-- 2&#45;&gt;0 -->
<g id="edge47" class="edge">
<title>2&#45;&gt;0</title>
<path fill="none" stroke="black" d="M1767,-2135.69C1767,-2123.99 1767,-2108.14 1767,-2094.1"/>
<polygon fill="black" stroke="black" points="1770.5,-2094.38 1767,-2084.38 1763.5,-2094.38 1770.5,-2094.38"/>
<text xml:space="preserve" text-anchor="middle" x="1771.5" y="-2104.55" font-family="Times,serif" font-size="14.00">1</text>
</g>
<!-- 2&#45;&gt;6 -->
<g id="edge141" class="edge">
<title>2&#45;&gt;6</title>
<path fill="none" stroke="black" d="M1788.73,-2165.13C1851.64,-2194.9 2034.17,-2281.27 2108.22,-2316.31"/>
<polygon fill="black" stroke="black" points="2106.43,-2319.34 2116.97,-2320.45 2109.42,-2313.01 2106.43,-2319.34"/>
<text xml:space="preserve" text-anchor="middle" x="1995.08" y="-2238.43" font-family="Times,serif" font-size="14.00">3</text>
</g>
<!-- 2&#45;&gt;8 -->
<g id="edge102" class="edge">
<title>2&#45;&gt;8</title>
<path fill="none" stroke="black" d="M1782.31,-2138.59C1833.43,-2089.37 1995,-1919.97 1995,-1745.23 1995,-1745.23 1995,-1745.23 1995,-1512.1 1995,-1398.91 2018.32,-1372.19 2025,-1259.2 2034.56,-1097.44 1985.84,-1060.45 1951,-902.2 1940.76,-855.69 1929.86,-801.4 1923.51,-769.18"/>
<polygon fill="black" stroke="black" points="1926.96,-768.6 1921.6,-759.46 1920.09,-769.95 1926.96,-768.6"/>
<text xml:space="preserve" text-anchor="middle" x="2001.38" y="-1463.8" font-family="Times,serif" font-size="14.00">4</text>
</g>
<!-- 16 -->
<g id="node18" class="node">
<title>16</title>
<ellipse fill="none" stroke="black" cx="1352" cy="-1414" rx="23.85" ry="23.85"/>
<ellipse fill="none" stroke="black" cx="1352" cy="-1414" rx="27.85" ry="27.85"/>
<text xml:space="preserve" text-anchor="middle" x="1352" y="-1409.33" font-family="Times,serif" font-size="14.00">16</text>
</g>
<!-- 2&#45;&gt;16 -->
<g id="edge17" class="edge">
<title>2&#45;&gt;16</title>
<path fill="none" stroke="black" d="M1739.87,-2151.23C1629.5,-2144.28 1220,-2114.92 1220,-2061.6 1220,-2061.6 1220,-2061.6 1220,-1921.73 1220,-1860.98 1294.05,-1722.22 1310,-1663.6 1314.2,-1648.19 1314.15,-1644.07 1317,-1628.35 1328.08,-1567.25 1339.45,-1496.01 1346.12,-1453.26"/>
<polygon fill="black" stroke="black" points="1349.56,-1453.91 1347.64,-1443.49 1342.64,-1452.83 1349.56,-1453.91"/>
<text xml:space="preserve" text-anchor="middle" x="1272.15" y="-1784.18" font-family="Times,serif" font-size="14.00">2</text>
</g>
<!-- 18 -->
<g id="node20" class="node">
<title>18</title>
<ellipse fill="none" stroke="black" cx="1735" cy="-2243.1" rx="27" ry="18"/>
<text xml:space="preserve" text-anchor="middle" x="1735" y="-2238.43" font-family="Times,serif" font-size="14.00">18</text>
</g>
<!-- 2&#45;&gt;18 -->
<g id="edge122" class="edge">
<title>2&#45;&gt;18</title>
<path fill="none" stroke="black" d="M1750.76,-2168.56C1744.98,-2174.46 1739.13,-2181.84 1736,-2189.85 1733.11,-2197.26 1732.08,-2205.72 1731.98,-2213.65"/>
<polygon fill="black" stroke="black" points="1728.48,-2213.68 1732.36,-2223.54 1735.47,-2213.42 1728.48,-2213.68"/>
<text xml:space="preserve" text-anchor="middle" x="1740.5" y="-2193.8" font-family="Times,serif" font-size="14.00">0</text>
</g>
<!-- 3 -->
<g id="node5" class="node">
<title>3</title>
<ellipse fill="none" stroke="black" cx="555" cy="-1205.95" rx="27" ry="18"/>
<text xml:space="preserve" text-anchor="middle" x="555" y="-1201.28" font-family="Times,serif" font-size="14.00">3</text>
</g>
<!-- 5 -->
<g id="node7" class="node">
<title>5</title>
<ellipse fill="none" stroke="black" cx="747" cy="-1699.6" rx="27" ry="18"/>
<text xml:space="preserve" text-anchor="middle" x="747" y="-1694.93" font-family="Times,serif" font-size="14.00">5</text>
</g>
<!-- 3&#45;&gt;5 -->
<g id="edge71" class="edge">
<title>3&#45;&gt;5</title>
<path fill="none" stroke="black" d="M565.38,-1222.7C576.63,-1241.32 593,-1273.64 593,-1304.05 593,-1607.35 593,-1607.35 593,-1607.35 593,-1661.24 663.66,-1683.99 709.25,-1693.06"/>
<polygon fill="black" stroke="black" points="708.57,-1696.5 719.04,-1694.86 709.83,-1689.61 708.57,-1696.5"/>
<text xml:space="preserve" text-anchor="middle" x="597.5" y="-1463.8" font-family="Times,serif" font-size="14.00">2</text>
</g>
<!-- 7 -->
<g id="node9" class="node">
<title>7</title>
<ellipse fill="none" stroke="black" cx="802" cy="-1788.85" rx="27" ry="18"/>
<text xml:space="preserve" text-anchor="middle" x="802" y="-1784.18" font-family="Times,serif" font-size="14.00">7</text>
</g>
<!-- 3&#45;&gt;7 -->
<g id="edge63" class="edge">
<title>3&#45;&gt;7</title>
<path fill="none" stroke="black" d="M555,-1224.14C555,-1243.55 555,-1276.07 555,-1304.05 555,-1700.6 555,-1700.6 555,-1700.6 555,-1744.45 695.16,-1771.75 764.32,-1782.55"/>
<polygon fill="black" stroke="black" points="763.66,-1785.99 774.07,-1784.03 764.71,-1779.07 763.66,-1785.99"/>
<text xml:space="preserve" text-anchor="middle" x="559.5" y="-1508.43" font-family="Times,serif" font-size="14.00">1</text>
</g>
<!-- 20 -->
<g id="node22" class="node">
<title>20</title>
<ellipse fill="none" stroke="black" cx="1233" cy="-1116.7" rx="27" ry="18"/>
<text xml:space="preserve" text-anchor="middle" x="1233" y="-1112.03" font-family="Times,serif" font-size="14.00">20</text>
</g>
<!-- 3&#45;&gt;20 -->
<g id="edge60" class="edge">
<title>3&#45;&gt;20</title>
<path fill="none" stroke="black" d="M581.58,-1201.53C686.54,-1188.02 1072.47,-1138.36 1195.24,-1122.56"/>
<polygon fill="black" stroke="black" points="1195.63,-1126.04 1205.1,-1121.29 1194.74,-1119.1 1195.63,-1126.04"/>
<text xml:space="preserve" text-anchor="middle" x="959.23" y="-1156.65" font-family="Times,serif" font-size="14.00">4</text>
</g>
<!-- 3&#45;&gt;29 -->
<g id="edge56" class="edge">
<title>3&#45;&gt;29</title>
<path fill="none" stroke="black" d="M549.3,-1223.96C526.3,-1292.5 440.06,-1548.63 409,-1628.35 365.24,-1740.65 301,-1756.58 301,-1877.1 301,-2333.35 301,-2333.35 301,-2333.35 301,-2388.39 2124.04,-2416.05 2412.71,-2420.08"/>
<polygon fill="black" stroke="black" points="2412.26,-2423.58 2422.3,-2420.22 2412.35,-2416.58 2412.26,-2423.58"/>
<text xml:space="preserve" text-anchor="middle" x="310.4" y="-1828.8" font-family="Times,serif" font-size="14.00">0</text>
</g>
<!-- 3&#45;&gt;29 -->
<g id="edge101" class="edge">
<title>3&#45;&gt;29</title>
<path fill="none" stroke="black" d="M528.58,-1210.67C483.13,-1218.73 395,-1242.31 395,-1304.05 395,-1558.73 395,-1558.73 395,-1558.73 395,-1693.8 263,-1697.4 263,-1832.48 263,-2333.35 263,-2333.35 263,-2333.35 263,-2488.87 453.81,-2375.38 609,-2385.6 977.61,-2409.87 2180.71,-2418.84 2412.25,-2420.36"/>
<polygon fill="black" stroke="black" points="2412.2,-2423.86 2422.22,-2420.42 2412.25,-2416.86 2412.2,-2423.86"/>
<text xml:space="preserve" text-anchor="middle" x="267.5" y="-1828.8" font-family="Times,serif" font-size="14.00">3</text>
</g>
<!-- 4&#45;&gt;7 -->
<g id="edge145" class="edge">
<title>4&#45;&gt;7</title>
<path fill="none" stroke="black" d="M1447.23,-1963.5C1403.69,-1958.59 1314.93,-1947.51 1241,-1931.35 1085.86,-1897.44 907.63,-1831.15 835.19,-1803"/>
<polygon fill="black" stroke="black" points="836.88,-1799.91 826.3,-1799.53 834.34,-1806.43 836.88,-1799.91"/>
<text xml:space="preserve" text-anchor="middle" x="1109.33" y="-1873.43" font-family="Times,serif" font-size="14.00">4</text>
</g>
<!-- 12 -->
<g id="node14" class="node">
<title>12</title>
<ellipse fill="none" stroke="black" cx="1164" cy="-1878.1" rx="27" ry="18"/>
<text xml:space="preserve" text-anchor="middle" x="1164" y="-1873.43" font-family="Times,serif" font-size="14.00">12</text>
</g>
<!-- 4&#45;&gt;12 -->
<g id="edge150" class="edge">
<title>4&#45;&gt;12</title>
<path fill="none" stroke="black" d="M1447.39,-1962.92C1411.58,-1957.91 1346.13,-1947.43 1292,-1931.35 1258.18,-1921.3 1220.99,-1905.57 1195.46,-1893.99"/>
<polygon fill="black" stroke="black" points="1197.2,-1890.93 1186.65,-1889.94 1194.28,-1897.3 1197.2,-1890.93"/>
<text xml:space="preserve" text-anchor="middle" x="1296.5" y="-1918.05" font-family="Times,serif" font-size="14.00">1</text>
</g>
<!-- 4&#45;&gt;20 -->
<g id="edge123" class="edge">
<title>4&#45;&gt;20</title>
<path fill="none" stroke="black" d="M1472.57,-1948.91C1471.68,-1938.74 1470.43,-1925.68 1469,-1914.1 1461.73,-1855.22 1412.5,-1440.63 1389,-1386.15 1352.73,-1302.08 1303.09,-1305.77 1262,-1223.95 1249.55,-1199.15 1241.89,-1168.32 1237.6,-1146.27"/>
<polygon fill="black" stroke="black" points="1241.06,-1145.72 1235.82,-1136.51 1234.17,-1146.97 1241.06,-1145.72"/>
<text xml:space="preserve" text-anchor="middle" x="1427.83" y="-1553.05" font-family="Times,serif" font-size="14.00">0</text>
</g>
<!-- 4&#45;&gt;21 -->
<g id="edge28" class="edge">
<title>4&#45;&gt;21</title>
<path fill="none" stroke="black" d="M1500.33,-1963.05C1565.48,-1954.16 1729,-1927.06 1729,-1879.1 1729,-1879.1 1729,-1879.1 1729,-1743.23 1729,-1536.02 1767.24,-1482.86 1742,-1277.2 1731.95,-1195.32 1703.95,-1101.6 1689.26,-1056.11"/>
<polygon fill="black" stroke="black" points="1692.65,-1055.23 1686.22,-1046.81 1686,-1057.4 1692.65,-1055.23"/>
<text xml:space="preserve" text-anchor="middle" x="1750.78" y="-1508.43" font-family="Times,serif" font-size="14.00">2</text>
</g>
<!-- 28 -->
<g id="node30" class="node">
<title>28</title>
<ellipse fill="none" stroke="black" cx="661" cy="-650.75" rx="27" ry="18"/>
<text xml:space="preserve" text-anchor="middle" x="661" y="-646.08" font-family="Times,serif" font-size="14.00">28</text>
</g>
<!-- 4&#45;&gt;28 -->
<g id="edge12" class="edge">
<title>4&#45;&gt;28</title>
<path fill="none" stroke="black" d="M1457,-1953.19C1450.72,-1947.27 1444.33,-1939.73 1441,-1931.35 1441,-1931.35 1441,-1584.35 1441,-1584.35 1438.33,-1544.42 1435.11,-1534.66 1429,-1495.1 1421.5,-1446.52 1427.08,-1432.24 1410,-1386.15 1403.66,-1369.05 1400.98,-1364.65 1389,-1350.9 1271.22,-1215.65 1214.72,-1209.89 1074,-1098.7 962.56,-1010.65 895.48,-1023.74 822,-902.2 771.65,-818.93 848.27,-758.92 783,-686.75 771.61,-674.16 729.74,-664.05 698.2,-657.99"/>
<polygon fill="black" stroke="black" points="699.08,-654.59 688.61,-656.22 697.81,-661.48 699.08,-654.59"/>
<text xml:space="preserve" text-anchor="middle" x="1377.16" y="-1300.38" font-family="Times,serif" font-size="14.00">3</text>
</g>
<!-- 5&#45;&gt;1 -->
<g id="edge95" class="edge">
<title>5&#45;&gt;1</title>
<path fill="none" stroke="black" d="M773.81,-1695.57C847.62,-1687.26 1060.1,-1663.59 1237,-1646.35 1389.52,-1631.49 1571.89,-1616.18 1645.63,-1610.09"/>
<polygon fill="black" stroke="black" points="1645.72,-1613.59 1655.4,-1609.28 1645.15,-1606.62 1645.72,-1613.59"/>
<text xml:space="preserve" text-anchor="middle" x="1241.5" y="-1650.3" font-family="Times,serif" font-size="14.00">0</text>
</g>
<!-- 5&#45;&gt;13 -->
<g id="edge49" class="edge">
<title>5&#45;&gt;13</title>
<path fill="none" stroke="black" d="M750.44,-1681.46C755.41,-1655.16 764,-1603.25 764,-1558.73 764,-1558.73 764,-1558.73 764,-1204.95 764,-1145.56 871.52,-741.3 895,-686.75 948.17,-563.21 966.39,-534.08 1036,-419 1075.59,-353.55 1173.19,-176.65 1242,-143.25 1287.52,-121.16 1646.49,-128.18 1697,-125.25 1761.51,-121.51 1836.44,-115.4 1880.67,-111.62"/>
<polygon fill="black" stroke="black" points="1880.85,-115.11 1890.52,-110.77 1880.25,-108.14 1880.85,-115.11"/>
<text xml:space="preserve" text-anchor="middle" x="840.67" y="-888.9" font-family="Times,serif" font-size="14.00">3</text>
</g>
<!-- 5&#45;&gt;16 -->
<g id="edge108" class="edge">
<title>5&#45;&gt;16</title>
<path fill="none" stroke="black" d="M773.44,-1694.61C854.37,-1682.25 1095.24,-1644.52 1127,-1628.35 1132.96,-1625.32 1265.25,-1498.43 1324.15,-1441.8"/>
<polygon fill="black" stroke="black" points="1326.41,-1444.49 1331.19,-1435.03 1321.56,-1439.44 1326.41,-1444.49"/>
<text xml:space="preserve" text-anchor="middle" x="1216.49" y="-1553.05" font-family="Times,serif" font-size="14.00">4</text>
</g>
<!-- 5&#45;&gt;25 -->
<g id="edge16" class="edge">
<title>5&#45;&gt;25</title>
<path fill="none" stroke="black" d="M740.7,-1681.71C734.51,-1663.6 726,-1633.85 726,-1607.35 726,-1607.35 726,-1607.35 726,-1249.58 726,-1131.44 731,-1101.96 731,-983.83 731,-983.83 731,-983.83 731,-783.62 731,-705 743,-685.75 743,-607.12 743,-607.12 743,-607.12 743,-292.75 743,-216.64 627.81,-203.03 565.67,-201.22"/>
<polygon fill="black" stroke="black" points="565.93,-197.73 555.87,-201.04 565.8,-204.73 565.93,-197.73"/>
<text xml:space="preserve" text-anchor="middle" x="735.5" y="-933.53" font-family="Times,serif" font-size="14.00">2</text>
</g>
<!-- 5&#45;&gt;25 -->
<g id="edge140" class="edge">
<title>5&#45;&gt;25</title>
<path fill="none" stroke="black" d="M736.51,-1682.75C733.05,-1676.93 729.46,-1670.15 727,-1663.6 696.11,-1581.2 688,-1557.48 688,-1469.48 688,-1469.48 688,-1469.48 688,-1249.58 688,-1101.64 668.8,-1065.3 640,-920.2 633.02,-885.01 561,-643 561,-607.12 561,-607.12 561,-607.12 561,-292.75 561,-269.79 551.43,-245.51 542.45,-227.77"/>
<polygon fill="black" stroke="black" points="545.54,-226.14 537.73,-218.98 539.37,-229.44 545.54,-226.14"/>
<text xml:space="preserve" text-anchor="middle" x="651.73" y="-933.53" font-family="Times,serif" font-size="14.00">1</text>
</g>
<!-- 6&#45;&gt;18 -->
<g id="edge133" class="edge">
<title>6&#45;&gt;18</title>
<path fill="none" stroke="black" d="M2113,-2329C2067.71,-2324.73 1973.74,-2314.4 1896,-2296.35 1851.19,-2285.95 1800.98,-2268.73 1768.73,-2256.92"/>
<polygon fill="black" stroke="black" points="1770.12,-2253.71 1759.53,-2253.52 1767.69,-2260.27 1770.12,-2253.71"/>
<text xml:space="preserve" text-anchor="middle" x="1900.5" y="-2283.05" font-family="Times,serif" font-size="14.00">1</text>
</g>
<!-- 6&#45;&gt;21 -->
<g id="edge74" class="edge">
<title>6&#45;&gt;21</title>
<path fill="none" stroke="black" d="M2167.39,-2331.3C2221.52,-2329.61 2337,-2317.42 2337,-2244.1 2337,-2244.1 2337,-2244.1 2337,-1921.73 2337,-1803.53 2386.67,-1780.93 2401,-1663.6 2409.84,-1591.23 2314.5,-1269.61 2288,-1241.95 2205.05,-1155.37 1834.71,-1064.09 1716.44,-1036.69"/>
<polygon fill="black" stroke="black" points="1717.49,-1033.34 1706.96,-1034.5 1715.92,-1040.16 1717.49,-1033.34"/>
<text xml:space="preserve" text-anchor="middle" x="2402.89" y="-1694.93" font-family="Times,serif" font-size="14.00">0</text>
</g>
<!-- 6&#45;&gt;25 -->
<g id="edge146" class="edge">
<title>6&#45;&gt;25</title>
<path fill="none" stroke="black" d="M2112.56,-2331.47C1915.52,-2332.19 713.58,-2334.95 351,-2296.35 230.33,-2283.51 83,-2365.46 83,-2244.1 83,-2244.1 83,-2244.1 83,-694.38 83,-627.14 252.45,-554.14 279,-543.5 315.65,-528.82 334.73,-549.61 366,-525.5 417.24,-485.99 490.29,-300.22 516.85,-229.2"/>
<polygon fill="black" stroke="black" points="520.11,-230.46 520.31,-219.87 513.55,-228.02 520.11,-230.46"/>
<text xml:space="preserve" text-anchor="middle" x="87.5" y="-1245.9" font-family="Times,serif" font-size="14.00">3</text>
</g>
<!-- 26 -->
<g id="node28" class="node">
<title>26</title>
<ellipse fill="none" stroke="black" cx="1484" cy="-293.75" rx="27" ry="18"/>
<text xml:space="preserve" text-anchor="middle" x="1484" y="-289.07" font-family="Times,serif" font-size="14.00">26</text>
</g>
<!-- 6&#45;&gt;26 -->
<g id="edge22" class="edge">
<title>6&#45;&gt;26</title>
<path fill="none" stroke="black" d="M2112.81,-2331.42C1897.12,-2331.86 469.07,-2333.38 387,-2296.35 358.26,-2283.38 339,-2275.64 339,-2244.1 339,-2244.1 339,-2244.1 339,-1921.73 339,-1877.03 341.43,-1858.49 312,-1824.85 298.63,-1809.57 285.61,-1819.84 270,-1806.85 247.82,-1788.41 246.76,-1778.72 234,-1752.85 213.87,-1712.03 206.84,-1730.05 164,-1531.1 126.14,-1355.26 100.38,-880.18 186,-722 237.14,-627.52 255.94,-597.18 349,-543.5 349,-543.5 1252.92,-345.39 1447.41,-302.77"/>
<polygon fill="black" stroke="black" points="1447.94,-306.24 1456.95,-300.68 1446.44,-299.4 1447.94,-306.24"/>
<text xml:space="preserve" text-anchor="middle" x="142.2" y="-1300.38" font-family="Times,serif" font-size="14.00">4</text>
</g>
<!-- 6&#45;&gt;28 -->
<g id="edge105" class="edge">
<title>6&#45;&gt;28</title>
<path fill="none" stroke="black" d="M2112.78,-2331.49C1935.05,-2332.31 937.64,-2335.09 636,-2296.35 535.89,-2283.5 415,-2345.03 415,-2244.1 415,-2244.1 415,-2244.1 415,-1832.48 415,-1697.18 382.33,-1666.01 372,-1531.1 356.72,-1331.5 368.11,-1280.89 367,-1080.7 366.6,-1009.35 344.09,-986.29 371,-920.2 416.22,-809.16 465.01,-802.34 554,-722 577.49,-700.79 607.97,-681.43 630.38,-668.43"/>
<polygon fill="black" stroke="black" points="632.09,-671.49 639.05,-663.5 628.63,-665.41 632.09,-671.49"/>
<text xml:space="preserve" text-anchor="middle" x="376.5" y="-1508.43" font-family="Times,serif" font-size="14.00">2</text>
</g>
<!-- 7&#45;&gt;5 -->
<g id="edge44" class="edge">
<title>7&#45;&gt;5</title>
<path fill="none" stroke="black" d="M791.36,-1771.89C787.43,-1765.94 782.97,-1759.11 779,-1752.85 773.57,-1744.3 767.75,-1734.87 762.58,-1726.41"/>
<polygon fill="black" stroke="black" points="765.64,-1724.71 757.46,-1717.98 759.66,-1728.35 765.64,-1724.71"/>
<text xml:space="preserve" text-anchor="middle" x="783.5" y="-1739.55" font-family="Times,serif" font-size="14.00">0</text>
</g>
<!-- 7&#45;&gt;6 -->
<g id="edge48" class="edge">
<title>7&#45;&gt;6</title>
<path fill="none" stroke="black" d="M775.33,-1792.61C706.63,-1800.46 529,-1825.73 529,-1877.1 529,-2244.1 529,-2244.1 529,-2244.1 529,-2325.44 1855.84,-2331.01 2101.22,-2331.34"/>
<polygon fill="black" stroke="black" points="2101.2,-2334.84 2111.2,-2331.35 2101.2,-2327.84 2101.2,-2334.84"/>
<text xml:space="preserve" text-anchor="middle" x="533.5" y="-2055.93" font-family="Times,serif" font-size="14.00">2</text>
</g>
<!-- 7&#45;&gt;8 -->
<g id="edge13" class="edge">
<title>7&#45;&gt;8</title>
<path fill="none" stroke="black" d="M813.4,-1772.34C824.59,-1755.54 840,-1727.53 840,-1700.6 840,-1700.6 840,-1700.6 840,-1556.73 840,-1540.08 940.66,-1292.14 948,-1277.2 968.43,-1235.58 977.17,-1227.1 1002,-1187.95 1063.09,-1091.64 1063.65,-1055.14 1144,-974.2 1174.22,-943.76 1183.46,-934.23 1224,-920.2 1328.44,-884.07 1366.47,-935.02 1472,-902.2 1548.27,-878.48 1552.94,-841.16 1627,-811.25 1714.28,-776.01 1823.72,-755.47 1880.27,-746.47"/>
<polygon fill="black" stroke="black" points="1880.67,-749.95 1890.02,-744.96 1879.6,-743.03 1880.67,-749.95"/>
<text xml:space="preserve" text-anchor="middle" x="971.32" y="-1245.9" font-family="Times,serif" font-size="14.00">4</text>
</g>
<!-- 7&#45;&gt;18 -->
<g id="edge138" class="edge">
<title>7&#45;&gt;18</title>
<path fill="none" stroke="black" d="M820.31,-1802.32C840.15,-1817.47 869,-1845.02 869,-1877.1 869,-2154.85 869,-2154.85 869,-2154.85 869,-2206.18 922.36,-2194.02 972,-2207.1 1110.94,-2243.71 1561.41,-2243.42 1696.42,-2242.47"/>
<polygon fill="black" stroke="black" points="1696.27,-2245.97 1706.25,-2242.39 1696.22,-2238.97 1696.27,-2245.97"/>
<text xml:space="preserve" text-anchor="middle" x="873.5" y="-2007.3" font-family="Times,serif" font-size="14.00">1</text>
</g>
<!-- 7&#45;&gt;28 -->
<g id="edge79" class="edge">
<title>7&#45;&gt;28</title>
<path fill="none" stroke="black" d="M774.96,-1785.62C702.43,-1778.9 509,-1755.8 509,-1700.6 509,-1700.6 509,-1700.6 509,-1358.53 509,-1268.97 454.04,-1258.06 438,-1169.95 430.67,-1129.65 504.14,-847.61 523,-811.25 552.32,-754.75 605.45,-701.43 636.54,-673.03"/>
<polygon fill="black" stroke="black" points="638.84,-675.67 643.93,-666.38 634.16,-670.47 638.84,-675.67"/>
<text xml:space="preserve" text-anchor="middle" x="460.22" y="-1201.28" font-family="Times,serif" font-size="14.00">3</text>
</g>
<!-- 8&#45;&gt;3 -->
<g id="edge149" class="edge">
<title>8&#45;&gt;3</title>
<path fill="none" stroke="black" d="M1890.89,-742.97C1835.58,-747.2 1705.81,-758.25 1598,-776 1304.73,-824.27 1221.18,-810.37 945,-920.2 873.27,-948.73 703.02,-1045.59 647,-1098.7 619.29,-1124.97 624.91,-1141.91 599,-1169.95 593.96,-1175.41 588.02,-1180.72 582.17,-1185.48"/>
<polygon fill="black" stroke="black" points="580.13,-1182.63 574.39,-1191.53 584.43,-1188.16 580.13,-1182.63"/>
<text xml:space="preserve" text-anchor="middle" x="839.7" y="-978.15" font-family="Times,serif" font-size="14.00">3</text>
</g>
<!-- 8&#45;&gt;6 -->
<g id="edge127" class="edge">
<title>8&#45;&gt;6</title>
<path fill="none" stroke="black" d="M1945.41,-740.22C1998.68,-740.24 2116.9,-747.93 2185,-811.25 2212.29,-836.63 2213.31,-849.56 2225,-884.95 2332.22,-1209.49 2223,-1312.19 2223,-1653.98 2223,-2244.1 2223,-2244.1 2223,-2244.1 2223,-2275.57 2194.31,-2300.19 2170.67,-2315.14"/>
<polygon fill="black" stroke="black" points="2169.04,-2312.04 2162.24,-2320.17 2172.62,-2318.05 2169.04,-2312.04"/>
<text xml:space="preserve" text-anchor="middle" x="2230.89" y="-1553.05" font-family="Times,serif" font-size="14.00">0</text>
</g>
<!-- 8&#45;&gt;10 -->
<g id="edge114" class="edge">
<title>8&#45;&gt;10</title>
<path fill="none" stroke="black" d="M1915.71,-721.59C1909.56,-680.55 1889.45,-576.11 1837,-508.25 1831.34,-500.92 1823.7,-494.6 1816.02,-489.43"/>
<polygon fill="black" stroke="black" points="1818.05,-486.57 1807.7,-484.29 1814.37,-492.52 1818.05,-486.57"/>
<text xml:space="preserve" text-anchor="middle" x="1894.21" y="-601.45" font-family="Times,serif" font-size="14.00">1</text>
</g>
<!-- 8&#45;&gt;28 -->
<g id="edge96" class="edge">
<title>8&#45;&gt;28</title>
<path fill="none" stroke="black" d="M1890.87,-737.12C1728.86,-725.87 889.77,-667.63 699.43,-654.42"/>
<polygon fill="black" stroke="black" points="699.82,-650.94 689.6,-653.74 699.33,-657.92 699.82,-650.94"/>
<text xml:space="preserve" text-anchor="middle" x="1406.59" y="-690.7" font-family="Times,serif" font-size="14.00">2</text>
</g>
<!-- 8&#45;&gt;29 -->
<g id="edge4" class="edge">
<title>8&#45;&gt;29</title>
<path fill="none" stroke="black" d="M1945.16,-741.19C1991.07,-742.33 2086.31,-748.18 2161,-776 2287.32,-823.04 2540,-1114.78 2540,-1249.58 2540,-1514.1 2540,-1514.1 2540,-1514.1 2540,-1656.66 2579,-1689.92 2579,-1832.48 2579,-2012.98 2579,-2012.98 2579,-2012.98 2579,-2096.7 2541,-2113.76 2541,-2197.48 2541,-2333.35 2541,-2333.35 2541,-2333.35 2541,-2366.59 2508.97,-2391.22 2483.12,-2405.69"/>
<polygon fill="black" stroke="black" points="2481.79,-2402.43 2474.59,-2410.2 2485.06,-2408.62 2481.79,-2402.43"/>
<text xml:space="preserve" text-anchor="middle" x="2554.61" y="-1601.68" font-family="Times,serif" font-size="14.00">4</text>
</g>
<!-- 9 -->
<g id="node11" class="node">
<title>9</title>
<ellipse fill="none" stroke="black" cx="1353" cy="-200.5" rx="18" ry="18"/>
<ellipse fill="none" stroke="black" cx="1353" cy="-200.5" rx="22" ry="22"/>
<text xml:space="preserve" text-anchor="middle" x="1353" y="-195.82" font-family="Times,serif" font-size="14.00">9</text>
</g>
<!-- 9&#45;&gt;4 -->
<g id="edge121" class="edge">
<title>9&#45;&gt;4</title>
<path fill="none" stroke="black" d="M1369.84,-214.79C1378.08,-221.84 1387.76,-231 1395,-240.5 1454.48,-318.52 1451.26,-349.46 1497,-436.25 1536.65,-511.49 1587,-520.08 1587,-605.12 1587,-939.2 1587,-939.2 1587,-939.2 1587,-1257.85 1531,-1335.33 1531,-1653.98 1531,-1879.1 1531,-1879.1 1531,-1879.1 1531,-1904.68 1513.62,-1928.61 1498.05,-1944.92"/>
<polygon fill="black" stroke="black" points="1495.9,-1942.13 1491.26,-1951.65 1500.82,-1947.1 1495.9,-1942.13"/>
<text xml:space="preserve" text-anchor="middle" x="1588.3" y="-1067.4" font-family="Times,serif" font-size="14.00">4</text>
</g>
<!-- 9&#45;&gt;13 -->
<g id="edge129" class="edge">
<title>9&#45;&gt;13</title>
<path fill="none" stroke="black" d="M1374.84,-195.98C1460.32,-182.2 1772.76,-131.83 1881.44,-114.31"/>
<polygon fill="black" stroke="black" points="1881.97,-117.77 1891.28,-112.72 1880.85,-110.85 1881.97,-117.77"/>
<text xml:space="preserve" text-anchor="middle" x="1691.2" y="-147.2" font-family="Times,serif" font-size="14.00">3</text>
</g>
<!-- 15 -->
<g id="node17" class="node">
<title>15</title>
<ellipse fill="none" stroke="black" cx="1171" cy="-18" rx="27" ry="18"/>
<text xml:space="preserve" text-anchor="middle" x="1171" y="-13.32" font-family="Times,serif" font-size="14.00">15</text>
</g>
<!-- 9&#45;&gt;15 -->
<g id="edge21" class="edge">
<title>9&#45;&gt;15</title>
<path fill="none" stroke="black" d="M1337.8,-184.42C1305.71,-152.6 1230.94,-78.44 1193.38,-41.19"/>
<polygon fill="black" stroke="black" points="1196.17,-39.03 1186.6,-34.47 1191.24,-44 1196.17,-39.03"/>
<text xml:space="preserve" text-anchor="middle" x="1281.6" y="-102.58" font-family="Times,serif" font-size="14.00">1</text>
</g>
<!-- 17 -->
<g id="node19" class="node">
<title>17</title>
<ellipse fill="none" stroke="black" cx="1634" cy="-107.25" rx="27" ry="18"/>
<text xml:space="preserve" text-anchor="middle" x="1634" y="-102.58" font-family="Times,serif" font-size="14.00">17</text>
</g>
<!-- 9&#45;&gt;17 -->
<g id="edge147" class="edge">
<title>9&#45;&gt;17</title>
<path fill="none" stroke="black" d="M1361.81,-179.88C1368.52,-167.32 1378.99,-151.81 1393,-143.25 1426.16,-122.99 1535.97,-113.78 1595.25,-110.2"/>
<polygon fill="black" stroke="black" points="1595.45,-113.69 1605.23,-109.62 1595.04,-106.7 1595.45,-113.69"/>
<text xml:space="preserve" text-anchor="middle" x="1397.5" y="-147.2" font-family="Times,serif" font-size="14.00">0</text>
</g>
<!-- 9&#45;&gt;22 -->
<g id="edge31" class="edge">
<title>9&#45;&gt;22</title>
<path fill="none" stroke="black" d="M1375.18,-201.97C1431.99,-203.59 1587,-210.63 1712,-240.5 1766.64,-253.55 2145.51,-379.05 2185,-419 2300.17,-535.52 2375.1,-971.39 2362,-1134.7 2351.42,-1266.58 2319.17,-1421.68 2305.37,-1484.06"/>
<polygon fill="black" stroke="black" points="2302.04,-1482.93 2303.28,-1493.45 2308.87,-1484.45 2302.04,-1482.93"/>
<text xml:space="preserve" text-anchor="middle" x="2346.56" y="-834.43" font-family="Times,serif" font-size="14.00">2</text>
</g>
<!-- 10&#45;&gt;2 -->
<g id="edge39" class="edge">
<title>10&#45;&gt;2</title>
<path fill="none" stroke="black" d="M1807.25,-482.95C1856.15,-504.91 1975.29,-562.11 2059,-632.75 2217.23,-766.26 2317.61,-842.86 2275,-1045.45 2251.84,-1155.58 2209.26,-1170.67 2173,-1277.2 2132.89,-1395.02 2133.68,-1427.76 2106,-1549.1 2052.12,-1785.31 2058.05,-1848.94 1994,-2082.6 1989.63,-2098.56 1994.64,-2107.16 1982,-2117.85 1955.97,-2139.86 1859.99,-2148.23 1805.48,-2151.25"/>
<polygon fill="black" stroke="black" points="1805.51,-2147.75 1795.7,-2151.76 1805.87,-2154.74 1805.51,-2147.75"/>
<text xml:space="preserve" text-anchor="middle" x="2177.5" y="-1300.38" font-family="Times,serif" font-size="14.00">4</text>
</g>
<!-- 10&#45;&gt;4 -->
<g id="edge97" class="edge">
<title>10&#45;&gt;4</title>
<path fill="none" stroke="black" d="M1773.6,-488.77C1762.41,-505.56 1747,-533.57 1747,-560.5 1747,-785.62 1747,-785.62 1747,-785.62 1747,-830.09 1754.23,-840.74 1759,-884.95 1781.68,-1095.16 1804,-1147.1 1804,-1358.53 1804,-1514.1 1804,-1514.1 1804,-1514.1 1804,-1617.25 1767,-1640.07 1767,-1743.23 1767,-1879.1 1767,-1879.1 1767,-1879.1 1767,-1931.61 1592,-1955.07 1512.49,-1963.02"/>
<polygon fill="black" stroke="black" points="1512.16,-1959.53 1502.55,-1963.98 1512.84,-1966.5 1512.16,-1959.53"/>
<text xml:space="preserve" text-anchor="middle" x="1804.48" y="-1201.28" font-family="Times,serif" font-size="14.00">3</text>
</g>
<!-- 10&#45;&gt;7 -->
<g id="edge30" class="edge">
<title>10&#45;&gt;7</title>
<path fill="none" stroke="black" d="M1766.05,-485.63C1756.12,-492.22 1743.8,-500.53 1733,-508.25 1690.35,-538.73 1682.07,-549.62 1639,-579.5 1541.75,-646.98 1511.65,-655.1 1414,-722 1125.79,-919.47 988.91,-1021.74 960,-1063.45 951.8,-1075.28 802,-1542.34 802,-1556.73 802,-1700.6 802,-1700.6 802,-1700.6 802,-1720.1 802,-1742.06 802,-1759.07"/>
<polygon fill="black" stroke="black" points="798.5,-1758.96 802,-1768.96 805.5,-1758.96 798.5,-1758.96"/>
<text xml:space="preserve" text-anchor="middle" x="951.23" y="-1112.03" font-family="Times,serif" font-size="14.00">2</text>
</g>
<!-- 10&#45;&gt;15 -->
<g id="edge93" class="edge">
<title>10&#45;&gt;15</title>
<path fill="none" stroke="black" d="M1811.9,-469.06C1849.83,-465.37 1920.78,-456.26 1978,-436.25 2142.82,-378.6 2324,-424.74 2324,-250.12 2324,-250.12 2324,-250.12 2324,-106.25 2324,-49.08 1410.66,-24.56 1209.77,-19.86"/>
<polygon fill="black" stroke="black" points="1209.96,-16.36 1199.88,-19.63 1209.79,-23.36 1209.96,-16.36"/>
<text xml:space="preserve" text-anchor="middle" x="2328.5" y="-244.45" font-family="Times,serif" font-size="14.00">1</text>
</g>
<!-- 27 -->
<g id="node29" class="node">
<title>27</title>
<ellipse fill="none" stroke="black" cx="1753" cy="-383" rx="27" ry="18"/>
<text xml:space="preserve" text-anchor="middle" x="1753" y="-378.32" font-family="Times,serif" font-size="14.00">27</text>
</g>
<!-- 10&#45;&gt;27 -->
<g id="edge32" class="edge">
<title>10&#45;&gt;27</title>
<path fill="none" stroke="black" d="M1778.83,-454.43C1774.36,-442.24 1768.22,-425.49 1763.04,-411.38"/>
<polygon fill="black" stroke="black" points="1766.4,-410.38 1759.67,-402.19 1759.83,-412.79 1766.4,-410.38"/>
<text xml:space="preserve" text-anchor="middle" x="1776.37" y="-422.95" font-family="Times,serif" font-size="14.00">0</text>
</g>
<!-- 11 -->
<g id="node13" class="node">
<title>11</title>
<ellipse fill="none" stroke="black" cx="1048" cy="-1305.05" rx="23.85" ry="23.85"/>
<ellipse fill="none" stroke="black" cx="1048" cy="-1305.05" rx="27.85" ry="27.85"/>
<text xml:space="preserve" text-anchor="middle" x="1048" y="-1300.38" font-family="Times,serif" font-size="14.00">11</text>
</g>
<!-- 11&#45;&gt;3 -->
<g id="edge91" class="edge">
<title>11&#45;&gt;3</title>
<path fill="none" stroke="black" d="M1020.44,-1298.62C936.93,-1282.17 686.64,-1232.88 591.89,-1214.22"/>
<polygon fill="black" stroke="black" points="592.84,-1210.84 582.36,-1212.34 591.49,-1217.71 592.84,-1210.84"/>
<text xml:space="preserve" text-anchor="middle" x="820.78" y="-1245.9" font-family="Times,serif" font-size="14.00">1</text>
</g>
<!-- 11&#45;&gt;4 -->
<g id="edge20" class="edge">
<title>11&#45;&gt;4</title>
<path fill="none" stroke="black" d="M1063.53,-1328.36C1068.5,-1335.54 1074,-1343.54 1079,-1350.9 1138.42,-1438.48 1160.84,-1455.91 1211,-1549.1 1269.95,-1658.62 1265.21,-1695.19 1320,-1806.85 1347.96,-1863.84 1342.56,-1889.18 1390,-1931.35 1403.62,-1943.46 1422.03,-1951.77 1438.14,-1957.23"/>
<polygon fill="black" stroke="black" points="1436.8,-1960.48 1447.39,-1960.13 1438.89,-1953.8 1436.8,-1960.48"/>
<text xml:space="preserve" text-anchor="middle" x="1266.66" y="-1650.3" font-family="Times,serif" font-size="14.00">4</text>
</g>
<!-- 11&#45;&gt;11 -->
<g id="edge2" class="edge">
<title>11&#45;&gt;11</title>
<path fill="none" stroke="black" d="M1074.39,-1315.2C1084.97,-1315.78 1093.85,-1312.39 1093.85,-1305.05 1093.85,-1300.58 1090.55,-1297.57 1085.58,-1296.04"/>
<polygon fill="black" stroke="black" points="1086.19,-1292.58 1075.89,-1295.05 1085.49,-1299.55 1086.19,-1292.58"/>
<text xml:space="preserve" text-anchor="middle" x="1098.35" y="-1300.38" font-family="Times,serif" font-size="14.00">0</text>
</g>
<!-- 11&#45;&gt;18 -->
<g id="edge41" class="edge">
<title>11&#45;&gt;18</title>
<path fill="none" stroke="black" d="M1042.3,-1332.55C1041.11,-1338.56 1039.93,-1344.94 1039,-1350.9 1036.56,-1366.48 1036.67,-1370.47 1035,-1386.15 1011.75,-1604.2 986,-1657.82 986,-1877.1 986,-2154.85 986,-2154.85 986,-2154.85 986,-2203.04 1034.67,-2193.87 1081,-2207.1 1197.66,-2240.41 1574.26,-2242.51 1696.38,-2242.28"/>
<polygon fill="black" stroke="black" points="1696.21,-2245.78 1706.2,-2242.26 1696.19,-2238.78 1696.21,-2245.78"/>
<text xml:space="preserve" text-anchor="middle" x="992.84" y="-1784.18" font-family="Times,serif" font-size="14.00">2</text>
</g>
<!-- 23 -->
<g id="node25" class="node">
<title>23</title>
<ellipse fill="none" stroke="black" cx="385" cy="-561.5" rx="27" ry="18"/>
<text xml:space="preserve" text-anchor="middle" x="385" y="-556.83" font-family="Times,serif" font-size="14.00">23</text>
</g>
<!-- 11&#45;&gt;23 -->
<g id="edge24" class="edge">
<title>11&#45;&gt;23</title>
<path fill="none" stroke="black" d="M1040.05,-1277.92C1026.8,-1237.04 997.4,-1156.66 955,-1098.7 947.94,-1089.05 940.84,-1091.14 935,-1080.7 891.82,-1003.5 922.33,-970.28 899,-884.95 885.4,-835.19 878,-823.96 859,-776 843.12,-735.92 849.84,-718.8 821,-686.75 743.49,-600.6 689.4,-621.38 576,-597.5 522.79,-586.3 460.8,-575.31 422.22,-568.72"/>
<polygon fill="black" stroke="black" points="422.97,-565.3 412.53,-567.08 421.8,-572.2 422.97,-565.3"/>
<text xml:space="preserve" text-anchor="middle" x="913.59" y="-933.53" font-family="Times,serif" font-size="14.00">3</text>
</g>
<!-- 12&#45;&gt;7 -->
<g id="edge14" class="edge">
<title>12&#45;&gt;7</title>
<path fill="none" stroke="black" d="M1139.68,-1869.79C1103.83,-1859.14 1034.6,-1839.1 975,-1824.85 928.41,-1813.71 874.21,-1803.13 839.07,-1796.57"/>
<polygon fill="black" stroke="black" points="839.87,-1793.16 829.4,-1794.78 838.6,-1800.05 839.87,-1793.16"/>
<text xml:space="preserve" text-anchor="middle" x="1042.18" y="-1828.8" font-family="Times,serif" font-size="14.00">3</text>
</g>
<!-- 12&#45;&gt;9 -->
<g id="edge118" class="edge">
<title>12&#45;&gt;9</title>
<path fill="none" stroke="black" d="M1166.77,-1859.93C1174.08,-1814.75 1194.6,-1688.9 1213,-1584.35 1266.71,-1279.14 1315,-1204.48 1315,-894.58 1315,-894.58 1315,-894.58 1315,-292.75 1315,-269.94 1325.24,-246.22 1335.09,-228.68"/>
<polygon fill="black" stroke="black" points="1337.9,-230.81 1339.99,-220.42 1331.88,-227.24 1337.9,-230.81"/>
<text xml:space="preserve" text-anchor="middle" x="1316.88" y="-1022.78" font-family="Times,serif" font-size="14.00">0</text>
</g>
<!-- 12&#45;&gt;11 -->
<g id="edge34" class="edge">
<title>12&#45;&gt;11</title>
<path fill="none" stroke="black" d="M1149.27,-1862.49C1134.52,-1846.24 1114,-1818.48 1114,-1789.85 1114,-1789.85 1114,-1789.85 1114,-1653.98 1114,-1538.8 1078.66,-1405.87 1059.7,-1342.85"/>
<polygon fill="black" stroke="black" points="1063.07,-1341.91 1056.8,-1333.37 1056.37,-1343.95 1063.07,-1341.91"/>
<text xml:space="preserve" text-anchor="middle" x="1117.82" y="-1601.68" font-family="Times,serif" font-size="14.00">4</text>
</g>
<!-- 12&#45;&gt;13 -->
<g id="edge88" class="edge">
<title>12&#45;&gt;13</title>
<path fill="none" stroke="black" d="M1175.05,-1861.32C1178.69,-1855.5 1182.45,-1848.71 1185,-1842.1 1190.75,-1827.2 1189.13,-1822.57 1192,-1806.85 1212.8,-1692.81 1240.98,-1664.68 1232,-1549.1 1225.09,-1460.21 1216.12,-1438.77 1201,-1350.9 1187.12,-1270.26 1174.59,-1251.43 1167,-1169.95 1129.73,-769.82 1228.2,-670.96 1301,-275.75 1309.01,-232.26 1289.42,-208.4 1322,-178.5 1342.74,-159.47 1752.6,-122.61 1880.93,-111.5"/>
<polygon fill="black" stroke="black" points="1880.93,-115.01 1890.6,-110.67 1880.33,-108.04 1880.93,-115.01"/>
<text xml:space="preserve" text-anchor="middle" x="1163.75" y="-978.15" font-family="Times,serif" font-size="14.00">2</text>
</g>
<!-- 12&#45;&gt;18 -->
<g id="edge46" class="edge">
<title>12&#45;&gt;18</title>
<path fill="none" stroke="black" d="M1158.09,-1895.92C1152.51,-1913.32 1145,-1941.39 1145,-1966.35 1145,-2154.85 1145,-2154.85 1145,-2154.85 1145,-2210.77 1565.05,-2234.44 1696.3,-2240.47"/>
<polygon fill="black" stroke="black" points="1696.07,-2243.97 1706.21,-2240.92 1696.38,-2236.97 1696.07,-2243.97"/>
<text xml:space="preserve" text-anchor="middle" x="1149.5" y="-2055.93" font-family="Times,serif" font-size="14.00">1</text>
</g>
<!-- 13&#45;&gt;8 -->
<g id="edge11" class="edge">
<title>13&#45;&gt;8</title>
<path fill="none" stroke="black" d="M1945.12,-111.97C2009.76,-121.92 2172,-151.64 2172,-199.5 2172,-428.62 2172,-428.62 2172,-428.62 2172,-731.61 2101.87,-654.57 2038,-704 2014.34,-722.31 1981.35,-731.05 1955.95,-735.22"/>
<polygon fill="black" stroke="black" points="1955.77,-731.71 1946.37,-736.61 1956.77,-738.64 1955.77,-731.71"/>
<text xml:space="preserve" text-anchor="middle" x="2176.5" y="-422.95" font-family="Times,serif" font-size="14.00">1</text>
</g>
<!-- 13&#45;&gt;10 -->
<g id="edge61" class="edge">
<title>13&#45;&gt;10</title>
<path fill="none" stroke="black" d="M1936.15,-121.37C1955.11,-137.51 1983,-166.8 1983,-199.5 1983,-384 1983,-384 1983,-384 1983,-453.06 1880.9,-467.93 1823.33,-470.82"/>
<polygon fill="black" stroke="black" points="1823.48,-467.31 1813.63,-471.2 1823.76,-474.31 1823.48,-467.31"/>
<text xml:space="preserve" text-anchor="middle" x="1987.5" y="-289.07" font-family="Times,serif" font-size="14.00">0</text>
</g>
<!-- 13&#45;&gt;15 -->
<g id="edge115" class="edge">
<title>13&#45;&gt;15</title>
<path fill="none" stroke="black" d="M1892.64,-101.97C1832.89,-92.38 1682.47,-68.84 1556,-54 1429.34,-39.14 1278.61,-27.06 1209.31,-21.82"/>
<polygon fill="black" stroke="black" points="1209.87,-18.35 1199.63,-21.09 1209.34,-25.33 1209.87,-18.35"/>
<text xml:space="preserve" text-anchor="middle" x="1690.5" y="-57.95" font-family="Times,serif" font-size="14.00">4</text>
</g>
<!-- 13&#45;&gt;22 -->
<g id="edge10" class="edge">
<title>13&#45;&gt;22</title>
<path fill="none" stroke="black" d="M1946.02,-107.65C2012.65,-106.73 2182.45,-107.98 2224,-143.25 2283.37,-193.64 2243.08,-239.45 2272,-311.75 2375.1,-569.54 2502,-614.93 2502,-892.58 2502,-1073.08 2502,-1073.08 2502,-1073.08 2502,-1244.44 2444.34,-1432.95 2402,-1477.1 2385.05,-1494.78 2358.84,-1503.53 2337.1,-1507.86"/>
<polygon fill="black" stroke="black" points="2336.64,-1504.39 2327.38,-1509.53 2337.83,-1511.28 2336.64,-1504.39"/>
<text xml:space="preserve" text-anchor="middle" x="2500" y="-779.95" font-family="Times,serif" font-size="14.00">3</text>
</g>
<!-- 13&#45;&gt;29 -->
<g id="edge69" class="edge">
<title>13&#45;&gt;29</title>
<path fill="none" stroke="black" d="M1946.28,-108.28C2015.43,-108.8 2195.68,-113.1 2246,-143.25 2262.26,-152.99 2260.84,-161.91 2270,-178.5 2514.4,-621.22 2654,-743.87 2654,-1249.58 2654,-1558.73 2654,-1558.73 2654,-1558.73 2654,-1620.9 2655,-1636.43 2655,-1698.6 2655,-2333.35 2655,-2333.35 2655,-2333.35 2655,-2404.53 2548.73,-2418.41 2489.59,-2420.63"/>
<polygon fill="black" stroke="black" points="2489.51,-2417.13 2479.6,-2420.89 2489.69,-2424.13 2489.51,-2417.13"/>
<text xml:space="preserve" text-anchor="middle" x="2658.5" y="-1245.9" font-family="Times,serif" font-size="14.00">2</text>
</g>
<!-- 14 -->
<g id="node16" class="node">
<title>14</title>
<ellipse fill="none" stroke="black" cx="2082" cy="-839.1" rx="23.85" ry="23.85"/>
<ellipse fill="none" stroke="black" cx="2082" cy="-839.1" rx="27.85" ry="27.85"/>
<text xml:space="preserve" text-anchor="middle" x="2082" y="-834.43" font-family="Times,serif" font-size="14.00">14</text>
</g>
<!-- 14&#45;&gt;2 -->
<g id="edge73" class="edge">
<title>14&#45;&gt;2</title>
<path fill="none" stroke="black" d="M2082,-867.31C2082,-886.77 2082,-913.6 2082,-937.2 2082,-1073.08 2082,-1073.08 2082,-1073.08 2082,-1309.34 1993.78,-2087.1 1964,-2117.85 1942.59,-2139.96 1856.43,-2148.23 1805.42,-2151.23"/>
<polygon fill="black" stroke="black" points="1805.5,-2147.72 1795.7,-2151.76 1805.87,-2154.71 1805.5,-2147.72"/>
<text xml:space="preserve" text-anchor="middle" x="2057.38" y="-1508.43" font-family="Times,serif" font-size="14.00">4</text>
</g>
<!-- 14&#45;&gt;4 -->
<g id="edge103" class="edge">
<title>14&#45;&gt;4</title>
<path fill="none" stroke="black" d="M2067.42,-863.06C2056.7,-882.14 2044,-910.41 2044,-937.2 2044,-1073.08 2044,-1073.08 2044,-1073.08 2044,-1169.85 1873.14,-1768.72 1857,-1806.85 1831.73,-1866.55 1835.64,-1896.47 1781,-1931.35 1737.31,-1959.24 1584.65,-1964.97 1512.43,-1966.1"/>
<polygon fill="black" stroke="black" points="1512.61,-1962.6 1502.66,-1966.23 1512.7,-1969.6 1512.61,-1962.6"/>
<text xml:space="preserve" text-anchor="middle" x="1980.74" y="-1409.33" font-family="Times,serif" font-size="14.00">1</text>
</g>
<!-- 14&#45;&gt;8 -->
<g id="edge7" class="edge">
<title>14&#45;&gt;8</title>
<path fill="none" stroke="black" d="M2058.15,-823.98C2028.81,-806.61 1979.01,-777.12 1947.35,-758.38"/>
<polygon fill="black" stroke="black" points="1949.45,-755.55 1939.06,-753.47 1945.88,-761.58 1949.45,-755.55"/>
<text xml:space="preserve" text-anchor="middle" x="2009.42" y="-779.95" font-family="Times,serif" font-size="14.00">3</text>
</g>
<!-- 14&#45;&gt;11 -->
<g id="edge112" class="edge">
<title>14&#45;&gt;11</title>
<path fill="none" stroke="black" d="M2057.59,-853.15C2032.32,-866.4 1991.5,-887.05 1955,-902.2 1819.96,-958.25 1779.19,-953.77 1644,-1009.45 1423.82,-1100.13 1387.04,-1161.24 1170,-1259.2 1142.18,-1271.76 1109.69,-1283.57 1085.24,-1291.92"/>
<polygon fill="black" stroke="black" points="1084.41,-1288.5 1076.05,-1295.01 1086.64,-1295.14 1084.41,-1288.5"/>
<text xml:space="preserve" text-anchor="middle" x="1528.64" y="-1067.4" font-family="Times,serif" font-size="14.00">2</text>
</g>
<!-- 14&#45;&gt;18 -->
<g id="edge55" class="edge">
<title>14&#45;&gt;18</title>
<path fill="none" stroke="black" d="M2096.58,-863.06C2107.3,-882.14 2120,-910.41 2120,-937.2 2120,-1162.33 2120,-1162.33 2120,-1162.33 2120,-1380.89 2109,-1435.41 2109,-1653.98 2109,-1923.73 2109,-1923.73 2109,-1923.73 2109,-1987.07 2122.96,-2162.47 2078,-2207.1 2076.65,-2208.44 1862,-2229.64 1772.99,-2238.38"/>
<polygon fill="black" stroke="black" points="1772.91,-2234.87 1763.3,-2239.33 1773.59,-2241.84 1772.91,-2234.87"/>
<text xml:space="preserve" text-anchor="middle" x="2114.45" y="-1553.05" font-family="Times,serif" font-size="14.00">0</text>
</g>
<!-- 15&#45;&gt;0 -->
<g id="edge82" class="edge">
<title>15&#45;&gt;0</title>
<path fill="none" stroke="black" d="M1198.41,-18.84C1311.38,-18.45 1751.96,-19.35 2112,-54 2691.78,-109.8 2362,-38.3 2362,-106.25 2362,-250.12 2362,-250.12 2362,-250.12 2362,-343.92 2361.06,-591.4 2308,-668.75 2232.8,-778.38 2128.54,-707.83 2045,-811.25 1950.52,-928.23 1880,-1317.11 1880,-1467.48 1880,-1607.35 1880,-1607.35 1880,-1607.35 1880,-1649.91 1826.72,-1943.69 1818,-1985.35 1814.69,-2001.18 1817.26,-2006.7 1809,-2020.6 1804.9,-2027.5 1799.22,-2033.92 1793.36,-2039.48"/>
<polygon fill="black" stroke="black" points="1791.16,-2036.75 1785.94,-2045.97 1795.77,-2042.02 1791.16,-2036.75"/>
<text xml:space="preserve" text-anchor="middle" x="1961.71" y="-1022.78" font-family="Times,serif" font-size="14.00">4</text>
</g>
<!-- 15&#45;&gt;13 -->
<g id="edge33" class="edge">
<title>15&#45;&gt;13</title>
<path fill="none" stroke="black" d="M1197.39,-23.08C1258.67,-32.45 1415.42,-55.93 1547,-71.25 1668.87,-85.44 1813.73,-97.77 1881.07,-103.24"/>
<polygon fill="black" stroke="black" points="1880.59,-106.71 1890.84,-104.03 1881.15,-99.73 1880.59,-106.71"/>
<text xml:space="preserve" text-anchor="middle" x="1551.5" y="-57.95" font-family="Times,serif" font-size="14.00">1</text>
</g>
<!-- 15&#45;&gt;23 -->
<g id="edge19" class="edge">
<title>15&#45;&gt;23</title>
<path fill="none" stroke="black" d="M1143.92,-18.97C997.77,-18.94 306.59,-20.59 218,-54 183.64,-66.96 154,-69.53 154,-106.25 154,-473.25 154,-473.25 154,-473.25 154,-512.07 188.67,-509.4 224,-525.5 263.7,-543.59 313.24,-552.55 346.81,-556.84"/>
<polygon fill="black" stroke="black" points="346.12,-560.28 356.47,-557.99 346.95,-553.33 346.12,-560.28"/>
<text xml:space="preserve" text-anchor="middle" x="158.5" y="-289.07" font-family="Times,serif" font-size="14.00">0</text>
</g>
<!-- 15&#45;&gt;23 -->
<g id="edge100" class="edge">
<title>15&#45;&gt;23</title>
<path fill="none" stroke="black" d="M1143.94,-19.95C1023.69,-24.39 537.28,-44.82 392,-89.25 344.44,-103.79 325.04,-104.39 294,-143.25 237.96,-213.41 238,-247.58 238,-337.38 238,-473.25 238,-473.25 238,-473.25 238,-524.06 303.74,-545.93 347.3,-554.85"/>
<polygon fill="black" stroke="black" points="346.42,-558.24 356.89,-556.66 347.71,-551.36 346.42,-558.24"/>
<text xml:space="preserve" text-anchor="middle" x="243.48" y="-289.07" font-family="Times,serif" font-size="14.00">2</text>
</g>
<!-- 24 -->
<g id="node26" class="node">
<title>24</title>
<ellipse fill="none" stroke="black" cx="1260" cy="-938.2" rx="27" ry="18"/>
<text xml:space="preserve" text-anchor="middle" x="1260" y="-933.53" font-family="Times,serif" font-size="14.00">24</text>
</g>
<!-- 15&#45;&gt;24 -->
<g id="edge65" class="edge">
<title>15&#45;&gt;24</title>
<path fill="none" stroke="black" d="M1157.45,-33.83C1143.88,-50.26 1125,-78.17 1125,-106.25 1125,-785.62 1125,-785.62 1125,-785.62 1125,-848.03 1189.6,-896.63 1229.42,-920.66"/>
<polygon fill="black" stroke="black" points="1227.49,-923.59 1237.9,-925.61 1231.02,-917.54 1227.49,-923.59"/>
<text xml:space="preserve" text-anchor="middle" x="1129.5" y="-467.57" font-family="Times,serif" font-size="14.00">3</text>
</g>
<!-- 16&#45;&gt;1 -->
<g id="edge144" class="edge">
<title>16&#45;&gt;1</title>
<path fill="none" stroke="black" d="M1374.65,-1430.68C1416.64,-1459.41 1509.88,-1521.67 1593,-1566.35 1611,-1576.03 1631.87,-1585.53 1648.54,-1592.73"/>
<polygon fill="black" stroke="black" points="1646.86,-1595.82 1657.43,-1596.52 1649.6,-1589.38 1646.86,-1595.82"/>
<text xml:space="preserve" text-anchor="middle" x="1533.42" y="-1508.43" font-family="Times,serif" font-size="14.00">4</text>
</g>
<!-- 16&#45;&gt;4 -->
<g id="edge110" class="edge">
<title>16&#45;&gt;4</title>
<path fill="none" stroke="black" d="M1355.78,-1442.02C1356.56,-1447.89 1357.34,-1454.08 1358,-1459.85 1369.98,-1564.42 1343.22,-1844.72 1403,-1931.35 1411.23,-1943.28 1424.73,-1951.32 1437.76,-1956.65"/>
<polygon fill="black" stroke="black" points="1436.45,-1959.9 1447.05,-1960.01 1438.83,-1953.32 1436.45,-1959.9"/>
<text xml:space="preserve" text-anchor="middle" x="1367.45" y="-1694.93" font-family="Times,serif" font-size="14.00">2</text>
</g>
<!-- 16&#45;&gt;5 -->
<g id="edge52" class="edge">
<title>16&#45;&gt;5</title>
<path fill="none" stroke="black" d="M1326.26,-1425.83C1290.55,-1440.93 1224.04,-1469.37 1168,-1495.1 1020.98,-1562.6 847.76,-1648.32 778.2,-1683"/>
<polygon fill="black" stroke="black" points="777.07,-1679.65 769.68,-1687.25 780.19,-1685.91 777.07,-1679.65"/>
<text xml:space="preserve" text-anchor="middle" x="1056.19" y="-1553.05" font-family="Times,serif" font-size="14.00">1</text>
</g>
<!-- 16&#45;&gt;9 -->
<g id="edge92" class="edge">
<title>16&#45;&gt;9</title>
<path fill="none" stroke="black" d="M1357.96,-1386.54C1364.3,-1359.05 1374.94,-1314.86 1386,-1277.2 1393.04,-1253.23 1399.6,-1248.54 1404,-1223.95 1448.78,-973.55 1391,-906.13 1391,-651.75 1391,-651.75 1391,-651.75 1391,-292.75 1391,-269.94 1380.76,-246.22 1370.91,-228.68"/>
<polygon fill="black" stroke="black" points="1374.12,-227.24 1366.01,-220.42 1368.1,-230.81 1374.12,-227.24"/>
<text xml:space="preserve" text-anchor="middle" x="1401.77" y="-779.95" font-family="Times,serif" font-size="14.00">3</text>
</g>
<!-- 16&#45;&gt;11 -->
<g id="edge54" class="edge">
<title>16&#45;&gt;11</title>
<path fill="none" stroke="black" d="M1325.82,-1403.79C1271.61,-1384.72 1146.96,-1340.86 1084.73,-1318.97"/>
<polygon fill="black" stroke="black" points="1086.25,-1315.8 1075.65,-1315.78 1083.93,-1322.4 1086.25,-1315.8"/>
<text xml:space="preserve" text-anchor="middle" x="1222.7" y="-1354.85" font-family="Times,serif" font-size="14.00">0</text>
</g>
<!-- 17&#45;&gt;3 -->
<g id="edge68" class="edge">
<title>17&#45;&gt;3</title>
<path fill="none" stroke="black" d="M1606.6,-108.47C1533.82,-109.89 1330.58,-119.28 1175,-178.5 1054.7,-224.29 1022.61,-242.46 928,-329.75 863.12,-389.61 873.38,-427.79 811,-490.25 735.14,-566.2 674.03,-542.45 616,-632.75 578.99,-690.34 585,-715.17 585,-783.62 585,-983.83 585,-983.83 585,-983.83 585,-1020.86 568.27,-1125.9 559.8,-1176.72"/>
<polygon fill="black" stroke="black" points="556.39,-1175.9 558.18,-1186.34 563.29,-1177.06 556.39,-1175.9"/>
<text xml:space="preserve" text-anchor="middle" x="620.5" y="-646.08" font-family="Times,serif" font-size="14.00">1</text>
</g>
<!-- 17&#45;&gt;4 -->
<g id="edge137" class="edge">
<title>17&#45;&gt;4</title>
<path fill="none" stroke="black" d="M1614.17,-120.03C1591.36,-135.25 1557,-164.05 1557,-199.5 1557,-339.38 1557,-339.38 1557,-339.38 1557,-367.46 1551.98,-374.39 1543,-401 1532.03,-433.51 1511,-436.94 1511,-471.25 1511,-840.1 1511,-840.1 1511,-840.1 1511,-900.3 1497.91,-914.3 1492,-974.2 1482.65,-1068.89 1483.39,-1092.86 1480,-1187.95 1468.51,-1510.52 1471.44,-1591.34 1469,-1914.1 1468.94,-1921.77 1468.46,-1923.7 1469,-1931.35 1469.16,-1933.56 1469.37,-1935.83 1469.62,-1938.12"/>
<polygon fill="black" stroke="black" points="1466.12,-1938.35 1470.88,-1947.81 1473.06,-1937.45 1466.12,-1938.35"/>
<text xml:space="preserve" text-anchor="middle" x="1493.15" y="-1022.78" font-family="Times,serif" font-size="14.00">2</text>
</g>
<!-- 17&#45;&gt;14 -->
<g id="edge45" class="edge">
<title>17&#45;&gt;14</title>
<path fill="none" stroke="black" d="M1659.21,-114.43C1722.43,-130.99 1890.19,-181.63 1996,-275.75 2124.31,-389.89 2198,-433.4 2198,-605.12 2198,-741 2198,-741 2198,-741 2198,-782.95 2152.85,-810.35 2118.88,-825.03"/>
<polygon fill="black" stroke="black" points="2117.65,-821.75 2109.72,-828.77 2120.3,-828.23 2117.65,-821.75"/>
<text xml:space="preserve" text-anchor="middle" x="2186.3" y="-467.57" font-family="Times,serif" font-size="14.00">4</text>
</g>
<!-- 17&#45;&gt;17 -->
<g id="edge64" class="edge">
<title>17&#45;&gt;17</title>
<path fill="none" stroke="black" d="M1658.53,-115.49C1669.51,-116.27 1679,-113.53 1679,-107.25 1679,-103.33 1675.29,-100.78 1669.83,-99.62"/>
<polygon fill="black" stroke="black" points="1670.22,-96.14 1660.04,-99.09 1669.84,-103.13 1670.22,-96.14"/>
<text xml:space="preserve" text-anchor="middle" x="1683.5" y="-102.58" font-family="Times,serif" font-size="14.00">3</text>
</g>
<!-- 17&#45;&gt;27 -->
<g id="edge35" class="edge">
<title>17&#45;&gt;27</title>
<path fill="none" stroke="black" d="M1641.17,-124.74C1661.02,-170.41 1716.84,-298.81 1741.28,-355.05"/>
<polygon fill="black" stroke="black" points="1737.94,-356.12 1745.13,-363.9 1744.35,-353.33 1737.94,-356.12"/>
<text xml:space="preserve" text-anchor="middle" x="1703.49" y="-244.45" font-family="Times,serif" font-size="14.00">0</text>
</g>
<!-- 18&#45;&gt;2 -->
<g id="edge94" class="edge">
<title>18&#45;&gt;2</title>
<path fill="none" stroke="black" d="M1741.17,-2225.28C1745.64,-2213.09 1751.78,-2196.34 1756.96,-2182.23"/>
<polygon fill="black" stroke="black" points="1760.17,-2183.64 1760.33,-2173.04 1753.6,-2181.23 1760.17,-2183.64"/>
<text xml:space="preserve" text-anchor="middle" x="1758.37" y="-2193.8" font-family="Times,serif" font-size="14.00">0</text>
</g>
<!-- 18&#45;&gt;8 -->
<g id="edge77" class="edge">
<title>18&#45;&gt;8</title>
<path fill="none" stroke="black" d="M1760.56,-2237.12C1816.57,-2225.12 1952.13,-2190.13 2040,-2117.85 2116.09,-2055.27 2147,-2022.24 2147,-1923.73 2147,-1923.73 2147,-1923.73 2147,-1653.98 2147,-1558.94 2164.48,-1536.41 2174,-1441.85 2180.21,-1380.16 2236.33,-940.6 2209,-884.95 2161.65,-788.54 2023.55,-755.9 1956.04,-745.51"/>
<polygon fill="black" stroke="black" points="1956.58,-742.05 1946.18,-744.09 1955.58,-748.98 1956.58,-742.05"/>
<text xml:space="preserve" text-anchor="middle" x="2171.32" y="-1508.43" font-family="Times,serif" font-size="14.00">2</text>
</g>
<!-- 18&#45;&gt;9 -->
<g id="edge125" class="edge">
<title>18&#45;&gt;9</title>
<path fill="none" stroke="black" d="M1707.85,-2241.54C1532.48,-2237.72 567,-2214.01 567,-2154.85 567,-2154.85 567,-2154.85 567,-2010.98 567,-1968.58 347.89,-1751.92 323,-1717.6 246.52,-1612.16 167,-1599.74 167,-1469.48 167,-1469.48 167,-1469.48 167,-892.58 167,-797.41 180.85,-770.52 226,-686.75 265.81,-612.88 280.2,-591.55 349,-543.5 358.85,-536.62 1147.45,-243.8 1159,-240.5 1214.68,-224.6 1281.15,-212.73 1320.05,-206.48"/>
<polygon fill="black" stroke="black" points="1320.37,-209.97 1329.7,-204.95 1319.28,-203.05 1320.37,-209.97"/>
<text xml:space="preserve" text-anchor="middle" x="171.5" y="-1201.28" font-family="Times,serif" font-size="14.00">4</text>
</g>
<!-- 18&#45;&gt;11 -->
<g id="edge23" class="edge">
<title>18&#45;&gt;11</title>
<path fill="none" stroke="black" d="M1708,-2241.68C1578.12,-2239.32 1024,-2225.12 1024,-2154.85 1024,-2154.85 1024,-2154.85 1024,-1921.73 1024,-1893.64 1026.43,-1885.7 1038,-1860.1 1042.06,-1851.11 1046.53,-1850.9 1051,-1842.1 1062.06,-1820.33 1068,-1814.27 1068,-1789.85 1068,-1789.85 1068,-1789.85 1068,-1653.98 1068,-1613.71 1050.15,-1606.28 1045,-1566.35 1034.91,-1488.13 1039.97,-1395.6 1044.21,-1344.61"/>
<polygon fill="black" stroke="black" points="1047.7,-1344.95 1045.08,-1334.68 1040.72,-1344.34 1047.7,-1344.95"/>
<text xml:space="preserve" text-anchor="middle" x="1072.5" y="-1784.18" font-family="Times,serif" font-size="14.00">1</text>
</g>
<!-- 18&#45;&gt;14 -->
<g id="edge106" class="edge">
<title>18&#45;&gt;14</title>
<path fill="none" stroke="black" d="M1761.95,-2239.51C1845.95,-2231.44 2097.5,-2207.27 2098,-2207.1 2140.84,-2192.98 2185,-2199.96 2185,-2154.85 2185,-2154.85 2185,-2154.85 2185,-1653.98 2185,-1558.94 2205.99,-1536.7 2212,-1441.85 2219.14,-1329.23 2218.37,-1300.62 2212,-1187.95 2211.11,-1172.21 2211.24,-1168.13 2208,-1152.7 2195.21,-1091.73 2156.62,-938.62 2125,-884.95 2121.1,-878.33 2116.04,-871.92 2110.77,-866.12"/>
<polygon fill="black" stroke="black" points="2113.53,-863.94 2104.06,-859.19 2108.5,-868.81 2113.53,-863.94"/>
<text xml:space="preserve" text-anchor="middle" x="2200.44" y="-1553.05" font-family="Times,serif" font-size="14.00">3</text>
</g>
<!-- 19 -->
<g id="node21" class="node">
<title>19</title>
<ellipse fill="none" stroke="black" cx="428" cy="-107.25" rx="27" ry="18"/>
<text xml:space="preserve" text-anchor="middle" x="428" y="-102.58" font-family="Times,serif" font-size="14.00">19</text>
</g>
<!-- 19&#45;&gt;3 -->
<g id="edge76" class="edge">
<title>19&#45;&gt;3</title>
<path fill="none" stroke="black" d="M423.1,-125.25C415.7,-152.95 403.05,-209.56 408,-257.75 433.69,-507.69 493.83,-561.7 523,-811.25 541.52,-969.66 486.71,-1017.33 533,-1169.95 534.01,-1173.28 535.42,-1176.6 537.05,-1179.8"/>
<polygon fill="black" stroke="black" points="533.89,-1181.33 542,-1188.15 539.92,-1177.76 533.89,-1181.33"/>
<text xml:space="preserve" text-anchor="middle" x="503.91" y="-646.08" font-family="Times,serif" font-size="14.00">4</text>
</g>
<!-- 19&#45;&gt;3 -->
<g id="edge116" class="edge">
<title>19&#45;&gt;3</title>
<path fill="none" stroke="black" d="M403.19,-115.04C391.6,-118.19 377.6,-121.95 365,-125.25 333.51,-133.49 318.96,-122.35 294,-143.25 247.42,-182.24 121.13,-612.07 143,-668.75 197.31,-809.49 294.21,-790.35 371,-920.2 430.76,-1021.25 374.46,-1086.47 457,-1169.95 473,-1186.14 496.99,-1194.87 517.22,-1199.56"/>
<polygon fill="black" stroke="black" points="516.33,-1202.95 526.83,-1201.53 517.73,-1196.09 516.33,-1202.95"/>
<text xml:space="preserve" text-anchor="middle" x="147.5" y="-646.08" font-family="Times,serif" font-size="14.00">2</text>
</g>
<!-- 19&#45;&gt;3 -->
<g id="edge142" class="edge">
<title>19&#45;&gt;3</title>
<path fill="none" stroke="black" d="M412.94,-122.33C390.2,-144.76 348.03,-191.12 332,-240.5 304.99,-323.68 322.7,-353.85 352,-436.25 370.99,-489.65 400.87,-490.51 421,-543.5 515.43,-792.09 452.78,-875.69 513,-1134.7 516.72,-1150.69 515.94,-1155.66 524,-1169.95 526.38,-1174.17 529.33,-1178.32 532.46,-1182.2"/>
<polygon fill="black" stroke="black" points="529.68,-1184.34 538.9,-1189.56 534.95,-1179.73 529.68,-1184.34"/>
<text xml:space="preserve" text-anchor="middle" x="463.93" y="-646.08" font-family="Times,serif" font-size="14.00">1</text>
</g>
<!-- 19&#45;&gt;10 -->
<g id="edge26" class="edge">
<title>19&#45;&gt;10</title>
<path fill="none" stroke="black" d="M455.19,-108.27C592.1,-108.66 1206.45,-114.04 1384,-178.5 1405.75,-186.4 1673.13,-387.01 1758.78,-451.49"/>
<polygon fill="black" stroke="black" points="1756.55,-454.19 1766.64,-457.41 1760.76,-448.6 1756.55,-454.19"/>
<text xml:space="preserve" text-anchor="middle" x="1574.74" y="-289.07" font-family="Times,serif" font-size="14.00">0</text>
</g>
<!-- 19&#45;&gt;11 -->
<g id="edge70" class="edge">
<title>19&#45;&gt;11</title>
<path fill="none" stroke="black" d="M454.98,-109.61C544.57,-115.82 831.95,-149.63 928,-329.75 997.56,-460.2 834.16,-845.71 859,-991.45 880.19,-1115.78 868.55,-1165.53 953,-1259.2 968.08,-1275.92 990.71,-1286.95 1010.1,-1293.88"/>
<polygon fill="black" stroke="black" points="1008.73,-1297.12 1019.33,-1296.94 1010.93,-1290.47 1008.73,-1297.12"/>
<text xml:space="preserve" text-anchor="middle" x="907.45" y="-690.7" font-family="Times,serif" font-size="14.00">3</text>
</g>
<!-- 20&#45;&gt;7 -->
<g id="edge43" class="edge">
<title>20&#45;&gt;7</title>
<path fill="none" stroke="black" d="M1217.16,-1131.52C1192.77,-1152.52 1144.19,-1193.29 1100,-1223.95 1062.13,-1250.23 1038.47,-1240.18 1011,-1277.2 881.14,-1452.2 1036.1,-1589.39 892,-1752.85 878.66,-1767.99 857.97,-1776.63 839.8,-1781.53"/>
<polygon fill="black" stroke="black" points="839,-1778.12 830.08,-1783.84 840.62,-1784.93 839,-1778.12"/>
<text xml:space="preserve" text-anchor="middle" x="959.12" y="-1463.8" font-family="Times,serif" font-size="14.00">1</text>
</g>
<!-- 20&#45;&gt;15 -->
<g id="edge99" class="edge">
<title>20&#45;&gt;15</title>
<path fill="none" stroke="black" d="M1231.39,-1098.6C1228.21,-1070.96 1219.37,-1015.42 1197,-974.2 1166.05,-917.19 1124,-926.38 1098,-866.95 987.79,-614.99 1049,-525.13 1049,-250.12 1049,-250.12 1049,-250.12 1049,-106.25 1049,-63.54 1099.09,-39.74 1135.08,-28.15"/>
<polygon fill="black" stroke="black" points="1135.71,-31.62 1144.27,-25.38 1133.69,-24.92 1135.71,-31.62"/>
<text xml:space="preserve" text-anchor="middle" x="1037.36" y="-556.83" font-family="Times,serif" font-size="14.00">4</text>
</g>
<!-- 20&#45;&gt;20 -->
<g id="edge89" class="edge">
<title>20&#45;&gt;20</title>
<path fill="none" stroke="black" d="M1257.53,-1124.94C1268.51,-1125.72 1278,-1122.98 1278,-1116.7 1278,-1112.78 1274.29,-1110.24 1268.83,-1109.07"/>
<polygon fill="black" stroke="black" points="1269.22,-1105.59 1259.04,-1108.55 1268.84,-1112.58 1269.22,-1105.59"/>
<text xml:space="preserve" text-anchor="middle" x="1282.5" y="-1112.03" font-family="Times,serif" font-size="14.00">2</text>
</g>
<!-- 20&#45;&gt;21 -->
<g id="edge58" class="edge">
<title>20&#45;&gt;21</title>
<path fill="none" stroke="black" d="M1257.95,-1109.21C1299.04,-1098.66 1383.6,-1077.57 1456,-1063.45 1521.08,-1050.76 1597.5,-1039.62 1642.16,-1033.48"/>
<polygon fill="black" stroke="black" points="1642.4,-1036.98 1651.84,-1032.16 1641.46,-1030.04 1642.4,-1036.98"/>
<text xml:space="preserve" text-anchor="middle" x="1460.5" y="-1067.4" font-family="Times,serif" font-size="14.00">0</text>
</g>
<!-- 20&#45;&gt;22 -->
<g id="edge98" class="edge">
<title>20&#45;&gt;22</title>
<path fill="none" stroke="black" d="M1252.97,-1129.06C1289.98,-1149.81 1372.12,-1194.43 1445,-1223.95 1517.99,-1253.52 1548.69,-1233.2 1614,-1277.2 1640.63,-1295.14 1634.44,-1313.47 1660,-1332.9 1754.53,-1404.8 1790.48,-1406.96 1904,-1441.85 1947.58,-1455.25 1960.48,-1450 2005,-1459.85 2034.18,-1466.31 2040.74,-1471 2070,-1477.1 2088.32,-1480.92 2201.01,-1497.68 2261.2,-1506.55"/>
<polygon fill="black" stroke="black" points="2260.59,-1510 2270.99,-1507.99 2261.61,-1503.07 2260.59,-1510"/>
<text xml:space="preserve" text-anchor="middle" x="1664.5" y="-1300.38" font-family="Times,serif" font-size="14.00">3</text>
</g>
<!-- 21&#45;&gt;6 -->
<g id="edge59" class="edge">
<title>21&#45;&gt;6</title>
<path fill="none" stroke="black" d="M1706.98,-1030.56C1815.56,-1039.49 2219.43,-1077.33 2319,-1152.7 2421.15,-1230.02 2449.97,-1590.49 2434,-1717.6 2422.23,-1811.3 2375,-1827.29 2375,-1921.73 2375,-2244.1 2375,-2244.1 2375,-2244.1 2375,-2269.66 2371.31,-2280.84 2351,-2296.35 2324.59,-2316.52 2231.99,-2325.6 2178.65,-2329.23"/>
<polygon fill="black" stroke="black" points="2178.53,-2325.73 2168.77,-2329.87 2178.98,-2332.72 2178.53,-2325.73"/>
<text xml:space="preserve" text-anchor="middle" x="2441.51" y="-1694.93" font-family="Times,serif" font-size="14.00">1</text>
</g>
<!-- 21&#45;&gt;8 -->
<g id="edge38" class="edge">
<title>21&#45;&gt;8</title>
<path fill="none" stroke="black" d="M1692.73,-1011.14C1697.8,-1005.02 1703.69,-997.91 1709,-991.45 1787.56,-895.97 1803.43,-868.92 1885,-776 1888.44,-772.08 1892.17,-767.99 1895.83,-764.05"/>
<polygon fill="black" stroke="black" points="1898.28,-766.55 1902.59,-756.87 1893.19,-761.75 1898.28,-766.55"/>
<text xml:space="preserve" text-anchor="middle" x="1798.15" y="-888.9" font-family="Times,serif" font-size="14.00">4</text>
</g>
<!-- 21&#45;&gt;8 -->
<g id="edge143" class="edge">
<title>21&#45;&gt;8</title>
<path fill="none" stroke="black" d="M1686.12,-1009.62C1701.07,-970.51 1742.79,-872.15 1805,-811.25 1828.87,-787.88 1861.83,-768.5 1885.99,-756.06"/>
<polygon fill="black" stroke="black" points="1887.36,-759.29 1894.73,-751.68 1884.22,-753.03 1887.36,-759.29"/>
<text xml:space="preserve" text-anchor="middle" x="1751.72" y="-888.9" font-family="Times,serif" font-size="14.00">0</text>
</g>
<!-- 21&#45;&gt;16 -->
<g id="edge131" class="edge">
<title>21&#45;&gt;16</title>
<path fill="none" stroke="black" d="M1653.31,-1031.53C1628.65,-1035.49 1592.01,-1044.3 1566,-1063.45 1473.36,-1131.67 1478.33,-1178.04 1420,-1277.2 1400.47,-1310.41 1381.08,-1349.94 1368.04,-1377.77"/>
<polygon fill="black" stroke="black" points="1364.87,-1376.27 1363.83,-1386.82 1371.22,-1379.22 1364.87,-1376.27"/>
<text xml:space="preserve" text-anchor="middle" x="1469.68" y="-1201.28" font-family="Times,serif" font-size="14.00">2</text>
</g>
<!-- 21&#45;&gt;24 -->
<g id="edge113" class="edge">
<title>21&#45;&gt;24</title>
<path fill="none" stroke="black" d="M1654.36,-1021.12C1582.73,-1006.24 1380.33,-964.2 1296.78,-946.84"/>
<polygon fill="black" stroke="black" points="1297.56,-943.43 1287.05,-944.82 1296.13,-950.28 1297.56,-943.43"/>
<text xml:space="preserve" text-anchor="middle" x="1512.12" y="-978.15" font-family="Times,serif" font-size="14.00">3</text>
</g>
<!-- 22&#45;&gt;6 -->
<g id="edge42" class="edge">
<title>22&#45;&gt;6</title>
<path fill="none" stroke="black" d="M2288.01,-1529.76C2276.79,-1547.31 2261,-1577.04 2261,-1605.35 2261,-2244.1 2261,-2244.1 2261,-2244.1 2261,-2269.66 2255.82,-2279.06 2237,-2296.35 2220.58,-2311.44 2197.18,-2320.13 2177.47,-2325.08"/>
<polygon fill="black" stroke="black" points="2176.84,-2321.63 2167.85,-2327.25 2178.38,-2328.46 2176.84,-2321.63"/>
<text xml:space="preserve" text-anchor="middle" x="2265.5" y="-1918.05" font-family="Times,serif" font-size="14.00">3</text>
</g>
<!-- 22&#45;&gt;6 -->
<g id="edge62" class="edge">
<title>22&#45;&gt;6</title>
<path fill="none" stroke="black" d="M2299,-1531.6C2299,-1549.96 2299,-1579.69 2299,-1605.35 2299,-2244.1 2299,-2244.1 2299,-2244.1 2299,-2298.96 2225.35,-2319.56 2178.3,-2327.13"/>
<polygon fill="black" stroke="black" points="2177.86,-2323.65 2168.47,-2328.56 2178.87,-2330.58 2177.86,-2323.65"/>
<text xml:space="preserve" text-anchor="middle" x="2303.5" y="-1918.05" font-family="Times,serif" font-size="14.00">0</text>
</g>
<!-- 22&#45;&gt;13 -->
<g id="edge15" class="edge">
<title>22&#45;&gt;13</title>
<path fill="none" stroke="black" d="M2312.35,-1497.21C2344.96,-1459.23 2426,-1354.48 2426,-1251.58 2426,-1251.58 2426,-1251.58 2426,-981.83 2426,-888.67 2244,-251.4 2186,-178.5 2166.26,-153.7 2153.85,-153.91 2124,-143.25 2068.02,-123.26 1999.26,-114.5 1957.31,-110.8"/>
<polygon fill="black" stroke="black" points="1957.72,-107.32 1947.47,-109.99 1957.15,-114.3 1957.72,-107.32"/>
<text xml:space="preserve" text-anchor="middle" x="2392.72" y="-779.95" font-family="Times,serif" font-size="14.00">1</text>
</g>
<!-- 22&#45;&gt;16 -->
<g id="edge67" class="edge">
<title>22&#45;&gt;16</title>
<path fill="none" stroke="black" d="M2272.81,-1507.87C2248.94,-1504.12 2212.67,-1498.69 2181,-1495.1 2084.84,-1484.2 2060.37,-1485.99 1964,-1477.1 1747.58,-1457.15 1488.48,-1429.67 1391.34,-1419.25"/>
<polygon fill="black" stroke="black" points="1391.86,-1415.78 1381.55,-1418.19 1391.12,-1422.74 1391.86,-1415.78"/>
<text xml:space="preserve" text-anchor="middle" x="1968.5" y="-1463.8" font-family="Times,serif" font-size="14.00">2</text>
</g>
<!-- 22&#45;&gt;29 -->
<g id="edge50" class="edge">
<title>22&#45;&gt;29</title>
<path fill="none" stroke="black" d="M2306.54,-1530.72C2337.21,-1599.88 2451,-1872.4 2451,-2108.23 2451,-2333.35 2451,-2333.35 2451,-2333.35 2451,-2352.85 2451,-2374.81 2451,-2391.82"/>
<polygon fill="black" stroke="black" points="2447.5,-2391.71 2451,-2401.71 2454.5,-2391.71 2447.5,-2391.71"/>
<text xml:space="preserve" text-anchor="middle" x="2446.48" y="-1962.68" font-family="Times,serif" font-size="14.00">4</text>
</g>
<!-- 23&#45;&gt;2 -->
<g id="edge40" class="edge">
<title>23&#45;&gt;2</title>
<path fill="none" stroke="black" d="M377.01,-578.96C352.66,-629.74 281,-783.76 281,-838.1 281,-1558.73 281,-1558.73 281,-1558.73 281,-1637.39 306.24,-1659.26 359,-1717.6 648,-2037.19 816.22,-2051.76 1242,-2117.85 1422.4,-2145.85 1641.09,-2151.47 1728.35,-2152.58"/>
<polygon fill="black" stroke="black" points="1728.21,-2156.08 1738.25,-2152.69 1728.29,-2149.08 1728.21,-2156.08"/>
<text xml:space="preserve" text-anchor="middle" x="285.5" y="-1354.85" font-family="Times,serif" font-size="14.00">4</text>
</g>
<!-- 23&#45;&gt;5 -->
<g id="edge80" class="edge">
<title>23&#45;&gt;5</title>
<path fill="none" stroke="black" d="M391.68,-579.33C432.83,-683 650,-1231.06 650,-1249.58 650,-1469.48 650,-1469.48 650,-1469.48 650,-1560.05 664.87,-1586.26 712,-1663.6 714.87,-1668.31 718.49,-1672.85 722.32,-1677.02"/>
<polygon fill="black" stroke="black" points="719.66,-1679.31 729.2,-1683.91 724.61,-1674.36 719.66,-1679.31"/>
<text xml:space="preserve" text-anchor="middle" x="612.61" y="-1112.03" font-family="Times,serif" font-size="14.00">1</text>
</g>
<!-- 23&#45;&gt;6 -->
<g id="edge9" class="edge">
<title>23&#45;&gt;6</title>
<path fill="none" stroke="black" d="M371.73,-577.47C360.21,-591.09 343.74,-612.17 333,-632.75 276.48,-741.11 243,-770.37 243,-892.58 243,-1360.53 243,-1360.53 243,-1360.53 243,-1503.36 232.11,-1538.8 229,-1681.6 228.65,-1697.6 222.85,-1702.83 229,-1717.6 255,-1780.05 298.39,-1769.31 337,-1824.85 363.59,-1863.1 377,-1875.15 377,-1921.73 377,-2244.1 377,-2244.1 377,-2244.1 377,-2274.18 392.94,-2283.24 420,-2296.35 498.13,-2334.22 1853.83,-2332.17 2101.37,-2331.48"/>
<polygon fill="black" stroke="black" points="2101.12,-2334.98 2111.11,-2331.45 2101.1,-2327.98 2101.12,-2334.98"/>
<text xml:space="preserve" text-anchor="middle" x="245.35" y="-1463.8" font-family="Times,serif" font-size="14.00">3</text>
</g>
<!-- 23&#45;&gt;7 -->
<g id="edge119" class="edge">
<title>23&#45;&gt;7</title>
<path fill="none" stroke="black" d="M381.1,-579.56C372.16,-619.69 350.37,-723.31 343,-811.25 318.18,-1107.36 471,-1170.32 471,-1467.48 471,-1700.6 471,-1700.6 471,-1700.6 471,-1737.32 501.29,-1738.3 535,-1752.85 575.31,-1770.25 700.18,-1780.96 763.84,-1785.43"/>
<polygon fill="black" stroke="black" points="763.26,-1788.9 773.47,-1786.09 763.73,-1781.91 763.26,-1788.9"/>
<text xml:space="preserve" text-anchor="middle" x="414.13" y="-1156.65" font-family="Times,serif" font-size="14.00">0</text>
</g>
<!-- 23&#45;&gt;10 -->
<g id="edge135" class="edge">
<title>23&#45;&gt;10</title>
<path fill="none" stroke="black" d="M412.03,-558.82C585.59,-548 1542.74,-488.35 1746.75,-475.63"/>
<polygon fill="black" stroke="black" points="1746.76,-479.14 1756.52,-475.02 1746.32,-472.15 1746.76,-479.14"/>
<text xml:space="preserve" text-anchor="middle" x="1214.9" y="-512.2" font-family="Times,serif" font-size="14.00">2</text>
</g>
<!-- 24&#45;&gt;3 -->
<g id="edge27" class="edge">
<title>24&#45;&gt;3</title>
<path fill="none" stroke="black" d="M1234.86,-945.41C1209.45,-951.87 1169.16,-962.66 1135,-974.2 1025.18,-1011.31 693.87,-1147.54 587.95,-1191.31"/>
<polygon fill="black" stroke="black" points="586.87,-1187.97 578.97,-1195.02 589.54,-1194.44 586.87,-1187.97"/>
<text xml:space="preserve" text-anchor="middle" x="902.76" y="-1067.4" font-family="Times,serif" font-size="14.00">4</text>
</g>
<!-- 24&#45;&gt;7 -->
<g id="edge53" class="edge">
<title>24&#45;&gt;7</title>
<path fill="none" stroke="black" d="M1237.57,-948.89C1231.58,-951.37 1225.08,-953.97 1219,-956.2 1194.46,-965.21 1183.06,-957.44 1163,-974.2 1135.46,-997.21 1142.99,-1014.4 1125,-1045.45 1101.52,-1085.97 1094.43,-1095.38 1069,-1134.7 1027.66,-1198.61 1006.36,-1208.3 974,-1277.2 881.32,-1474.55 978.68,-1573.99 854,-1752.85 848.71,-1760.45 841.19,-1766.86 833.51,-1772.04"/>
<polygon fill="black" stroke="black" points="831.85,-1768.95 825.14,-1777.14 835.5,-1774.92 831.85,-1768.95"/>
<text xml:space="preserve" text-anchor="middle" x="950.32" y="-1354.85" font-family="Times,serif" font-size="14.00">2</text>
</g>
<!-- 24&#45;&gt;14 -->
<g id="edge83" class="edge">
<title>24&#45;&gt;14</title>
<path fill="none" stroke="black" d="M1287.11,-936.48C1390.1,-933.62 1757.06,-922.21 1872,-902.2 1934.1,-891.39 2003.85,-868.54 2045.29,-853.77"/>
<polygon fill="black" stroke="black" points="2046.3,-857.13 2054.52,-850.44 2043.93,-850.54 2046.3,-857.13"/>
<text xml:space="preserve" text-anchor="middle" x="1946.86" y="-888.9" font-family="Times,serif" font-size="14.00">3</text>
</g>
<!-- 24&#45;&gt;20 -->
<g id="edge134" class="edge">
<title>24&#45;&gt;20</title>
<path fill="none" stroke="black" d="M1257.6,-956.21C1253.82,-982.8 1246.18,-1035.82 1239,-1080.7 1238.65,-1082.89 1238.28,-1085.16 1237.9,-1087.44"/>
<polygon fill="black" stroke="black" points="1234.48,-1086.69 1236.26,-1097.13 1241.38,-1087.86 1234.48,-1086.69"/>
<text xml:space="preserve" text-anchor="middle" x="1254.33" y="-1022.78" font-family="Times,serif" font-size="14.00">1</text>
</g>
<!-- 24&#45;&gt;22 -->
<g id="edge37" class="edge">
<title>24&#45;&gt;22</title>
<path fill="none" stroke="black" d="M1287.11,-940.08C1408.12,-944.23 1895.24,-963.72 1944,-1009.45 2014.5,-1075.58 1938.98,-1136.42 1980,-1223.95 2043.13,-1358.66 2201.36,-1458.29 2268.31,-1495.8"/>
<polygon fill="black" stroke="black" points="2266.47,-1498.78 2276.92,-1500.55 2269.86,-1492.65 2266.47,-1498.78"/>
<text xml:space="preserve" text-anchor="middle" x="1984.5" y="-1201.28" font-family="Times,serif" font-size="14.00">0</text>
</g>
<!-- 25&#45;&gt;1 -->
<g id="edge148" class="edge">
<title>25&#45;&gt;1</title>
<path fill="none" stroke="black" d="M553.89,-203.13C613.24,-207.09 753.43,-218.53 795,-240.5 890.25,-290.83 895.99,-331.61 959,-419 1006.7,-485.16 998.15,-514.94 1048,-579.5 1215.1,-795.91 1356.09,-769.96 1488,-1009.45 1583.89,-1183.54 1546.91,-1250.9 1602,-1441.85 1618.44,-1498.83 1617.61,-1516.67 1650,-1566.35 1652.82,-1570.68 1655.96,-1575.18 1659.09,-1579.5"/>
<polygon fill="black" stroke="black" points="1656.16,-1581.43 1664.93,-1587.38 1661.78,-1577.26 1656.16,-1581.43"/>
<text xml:space="preserve" text-anchor="middle" x="1419.49" y="-888.9" font-family="Times,serif" font-size="14.00">1</text>
</g>
<!-- 25&#45;&gt;7 -->
<g id="edge8" class="edge">
<title>25&#45;&gt;7</title>
<path fill="none" stroke="black" d="M524.33,-218.66C518.43,-253.97 502.51,-336.81 474,-401 446.92,-461.96 404.2,-516.25 393,-525.5 376.71,-538.96 367.66,-533.59 349,-543.5 310.79,-563.79 292.31,-561.71 268,-597.5 230.33,-652.97 205,-825.53 205,-892.58 205,-1360.53 205,-1360.53 205,-1360.53 205,-1575.52 294.91,-1658.31 488,-1752.85 535.72,-1776.22 691.01,-1784.26 763.76,-1786.79"/>
<polygon fill="black" stroke="black" points="763.48,-1790.29 773.59,-1787.12 763.71,-1783.29 763.48,-1790.29"/>
<text xml:space="preserve" text-anchor="middle" x="209.5" y="-978.15" font-family="Times,serif" font-size="14.00">4</text>
</g>
<!-- 25&#45;&gt;19 -->
<g id="edge126" class="edge">
<title>25&#45;&gt;19</title>
<path fill="none" stroke="black" d="M511.53,-185.24C495.48,-170.44 470.16,-147.11 451.6,-130.01"/>
<polygon fill="black" stroke="black" points="454.2,-127.64 444.47,-123.43 449.45,-132.78 454.2,-127.64"/>
<text xml:space="preserve" text-anchor="middle" x="487.93" y="-147.2" font-family="Times,serif" font-size="14.00">2</text>
</g>
<!-- 25&#45;&gt;25 -->
<g id="edge109" class="edge">
<title>25&#45;&gt;25</title>
<path fill="none" stroke="black" d="M551.07,-209.44C562.24,-210.41 572,-207.43 572,-200.5 572,-196.06 568,-193.24 562.18,-192.04"/>
<polygon fill="black" stroke="black" points="562.73,-188.56 552.59,-191.63 562.43,-195.56 562.73,-188.56"/>
<text xml:space="preserve" text-anchor="middle" x="576.5" y="-195.82" font-family="Times,serif" font-size="14.00">0</text>
</g>
<!-- 25&#45;&gt;29 -->
<g id="edge120" class="edge">
<title>25&#45;&gt;29</title>
<path fill="none" stroke="black" d="M516.25,-217.25C484.41,-263.64 390.47,-398.89 352,-436.25 288.06,-498.35 45,-605.24 45,-694.38 45,-2333.35 45,-2333.35 45,-2333.35 45,-2433.42 164.72,-2373.12 264,-2385.6 485.01,-2413.4 2138.11,-2419.64 2412.47,-2420.49"/>
<polygon fill="black" stroke="black" points="2412.26,-2423.99 2422.27,-2420.52 2412.28,-2416.99 2412.26,-2423.99"/>
<text xml:space="preserve" text-anchor="middle" x="49.5" y="-1300.38" font-family="Times,serif" font-size="14.00">3</text>
</g>
<!-- 26&#45;&gt;8 -->
<g id="edge151" class="edge">
<title>26&#45;&gt;8</title>
<path fill="none" stroke="black" d="M1504.28,-305.96C1509,-308.18 1514.08,-310.28 1519,-311.75 1577.82,-329.39 1595.75,-317.86 1656,-329.75 1746.45,-347.6 2046,-379.06 2046,-471.25 2046,-651.75 2046,-651.75 2046,-651.75 2046,-696.42 1992.11,-719.86 1954.27,-730.8"/>
<polygon fill="black" stroke="black" points="1953.8,-727.31 1945.06,-733.3 1955.62,-734.06 1953.8,-727.31"/>
<text xml:space="preserve" text-anchor="middle" x="2050.5" y="-512.2" font-family="Times,serif" font-size="14.00">4</text>
</g>
<!-- 26&#45;&gt;9 -->
<g id="edge139" class="edge">
<title>26&#45;&gt;9</title>
<path fill="none" stroke="black" d="M1474.56,-276.84C1467.16,-265.48 1455.96,-250.5 1443,-240.5 1425.69,-227.15 1403.12,-217.38 1384.9,-210.96"/>
<polygon fill="black" stroke="black" points="1386.24,-207.72 1375.65,-207.87 1384.03,-214.36 1386.24,-207.72"/>
<text xml:space="preserve" text-anchor="middle" x="1464.36" y="-244.45" font-family="Times,serif" font-size="14.00">2</text>
</g>
<!-- 26&#45;&gt;10 -->
<g id="edge111" class="edge">
<title>26&#45;&gt;10</title>
<path fill="none" stroke="black" d="M1491.95,-311.04C1507.56,-341.13 1545.24,-405.19 1597,-436.25 1643.15,-463.94 1706.24,-470.6 1746.31,-471.75"/>
<polygon fill="black" stroke="black" points="1746.14,-475.25 1756.2,-471.93 1746.26,-468.25 1746.14,-475.25"/>
<text xml:space="preserve" text-anchor="middle" x="1557.52" y="-378.32" font-family="Times,serif" font-size="14.00">1</text>
</g>
<!-- 26&#45;&gt;11 -->
<g id="edge51" class="edge">
<title>26&#45;&gt;11</title>
<path fill="none" stroke="black" d="M1465.53,-307.17C1418.23,-339.97 1291.84,-433.89 1226,-543.5 1078.16,-789.63 1053.11,-1148.87 1048.86,-1265.76"/>
<polygon fill="black" stroke="black" points="1045.38,-1265.31 1048.55,-1275.42 1052.37,-1265.54 1045.38,-1265.31"/>
<text xml:space="preserve" text-anchor="middle" x="1130.32" y="-779.95" font-family="Times,serif" font-size="14.00">3</text>
</g>
<!-- 26&#45;&gt;25 -->
<g id="edge84" class="edge">
<title>26&#45;&gt;25</title>
<path fill="none" stroke="black" d="M1457.15,-290.19C1322.78,-277.38 723.42,-220.23 565.33,-205.16"/>
<polygon fill="black" stroke="black" points="565.69,-201.67 555.4,-204.21 565.02,-208.64 565.69,-201.67"/>
<text xml:space="preserve" text-anchor="middle" x="1095.72" y="-244.45" font-family="Times,serif" font-size="14.00">0</text>
</g>
<!-- 27&#45;&gt;6 -->
<g id="edge107" class="edge">
<title>27&#45;&gt;6</title>
<path fill="none" stroke="black" d="M1780.19,-384.68C1843.01,-387.2 2001.89,-399 2120,-454.25 2248.31,-514.27 2497.59,-790.7 2555,-920.2 2615.34,-1056.3 2616,-1100.7 2616,-1249.58 2616,-1558.73 2616,-1558.73 2616,-1558.73 2616,-1688.9 2413,-1978.05 2413,-2108.23 2413,-2244.1 2413,-2244.1 2413,-2244.1 2413,-2273.35 2398.19,-2281.48 2373,-2296.35 2340.79,-2315.37 2235.67,-2325.08 2178.27,-2329.07"/>
<polygon fill="black" stroke="black" points="2178.37,-2325.56 2168.63,-2329.72 2178.84,-2332.54 2178.37,-2325.56"/>
<text xml:space="preserve" text-anchor="middle" x="2620.5" y="-1354.85" font-family="Times,serif" font-size="14.00">0</text>
</g>
<!-- 27&#45;&gt;10 -->
<g id="edge117" class="edge">
<title>27&#45;&gt;10</title>
<path fill="none" stroke="black" d="M1750.41,-401.05C1749.52,-411.55 1749.65,-425.09 1754,-436.25 1755.76,-440.76 1758.38,-445.07 1761.37,-449.02"/>
<polygon fill="black" stroke="black" points="1758.57,-451.14 1767.77,-456.4 1763.86,-446.55 1758.57,-451.14"/>
<text xml:space="preserve" text-anchor="middle" x="1758.5" y="-422.95" font-family="Times,serif" font-size="14.00">3</text>
</g>
<!-- 27&#45;&gt;17 -->
<g id="edge90" class="edge">
<title>27&#45;&gt;17</title>
<path fill="none" stroke="black" d="M1752.48,-364.88C1751.89,-354.59 1750.64,-341.3 1748,-329.75 1741.61,-301.83 1691.6,-185.69 1688,-178.5 1679.84,-162.19 1677.99,-157.8 1667,-143.25 1663.86,-139.09 1660.29,-134.87 1656.68,-130.88"/>
<polygon fill="black" stroke="black" points="1659.33,-128.59 1649.92,-123.7 1654.23,-133.38 1659.33,-128.59"/>
<text xml:space="preserve" text-anchor="middle" x="1725.89" y="-244.45" font-family="Times,serif" font-size="14.00">1</text>
</g>
<!-- 27&#45;&gt;20 -->
<g id="edge78" class="edge">
<title>27&#45;&gt;20</title>
<path fill="none" stroke="black" d="M1739.68,-398.94C1714.51,-427.17 1658.27,-490.28 1611,-543.5 1519.32,-646.72 1482.1,-661.48 1405,-776 1320.59,-901.37 1326.49,-948.08 1254,-1080.7 1252.32,-1083.77 1250.51,-1086.96 1248.67,-1090.11"/>
<polygon fill="black" stroke="black" points="1245.77,-1088.14 1243.67,-1098.53 1251.79,-1091.72 1245.77,-1088.14"/>
<text xml:space="preserve" text-anchor="middle" x="1448.17" y="-735.33" font-family="Times,serif" font-size="14.00">2</text>
</g>
<!-- 27&#45;&gt;26 -->
<g id="edge75" class="edge">
<title>27&#45;&gt;26</title>
<path fill="none" stroke="black" d="M1729.13,-374.26C1681.37,-358.77 1573.91,-323.91 1518.49,-305.94"/>
<polygon fill="black" stroke="black" points="1519.85,-302.7 1509.26,-302.94 1517.69,-309.36 1519.85,-302.7"/>
<text xml:space="preserve" text-anchor="middle" x="1647.09" y="-333.7" font-family="Times,serif" font-size="14.00">4</text>
</g>
<!-- 28&#45;&gt;2 -->
<g id="edge18" class="edge">
<title>28&#45;&gt;2</title>
<path fill="none" stroke="black" d="M685.24,-659.26C717.08,-670.82 769,-696.22 769,-739 769,-983.83 769,-983.83 769,-983.83 769,-1084.78 821,-1103.99 821,-1204.95 821,-1360.53 821,-1360.53 821,-1360.53 821,-1512.71 888.84,-1538.27 940,-1681.6 959.78,-1737.03 949.69,-1758.33 983,-1806.85 996.79,-1826.94 1003.37,-1830.88 1025,-1842.1 1052.75,-1856.5 1068.35,-1840.88 1093,-1860.1 1137.55,-1894.84 1173.37,-2045.53 1216,-2082.6 1292.61,-2149.23 1616,-2153.78 1728.35,-2153.3"/>
<polygon fill="black" stroke="black" points="1728.28,-2156.8 1738.26,-2153.23 1728.23,-2149.8 1728.28,-2156.8"/>
<text xml:space="preserve" text-anchor="middle" x="833.59" y="-1409.33" font-family="Times,serif" font-size="14.00">1</text>
</g>
<!-- 28&#45;&gt;3 -->
<g id="edge6" class="edge">
<title>28&#45;&gt;3</title>
<path fill="none" stroke="black" d="M659.43,-669.11C653.9,-727.69 633.64,-923.2 596,-1080.7 587.85,-1114.8 574.62,-1152.95 565.4,-1177.87"/>
<polygon fill="black" stroke="black" points="562.25,-1176.32 562.01,-1186.91 568.8,-1178.78 562.25,-1176.32"/>
<text xml:space="preserve" text-anchor="middle" x="631.69" y="-933.53" font-family="Times,serif" font-size="14.00">0</text>
</g>
<!-- 28&#45;&gt;9 -->
<g id="edge124" class="edge">
<title>28&#45;&gt;9</title>
<path fill="none" stroke="black" d="M684.51,-641.34C761.33,-612.67 1007.57,-511.38 1139,-347 1170.38,-307.75 1139.32,-273.75 1177,-240.5 1197.89,-222.06 1274.89,-210.4 1319.82,-205.01"/>
<polygon fill="black" stroke="black" points="1320,-208.52 1329.53,-203.89 1319.2,-201.56 1320,-208.52"/>
<text xml:space="preserve" text-anchor="middle" x="1073.09" y="-422.95" font-family="Times,serif" font-size="14.00">4</text>
</g>
<!-- 28&#45;&gt;23 -->
<g id="edge3" class="edge">
<title>28&#45;&gt;23</title>
<path fill="none" stroke="black" d="M639.03,-640.15C632.92,-637.62 626.24,-634.97 620,-632.75 550.47,-608.02 467.37,-584.57 420.95,-572.01"/>
<polygon fill="black" stroke="black" points="422,-568.67 411.43,-569.45 420.18,-575.43 422,-568.67"/>
<text xml:space="preserve" text-anchor="middle" x="567.11" y="-601.45" font-family="Times,serif" font-size="14.00">3</text>
</g>
<!-- 28&#45;&gt;28 -->
<g id="edge86" class="edge">
<title>28&#45;&gt;28</title>
<path fill="none" stroke="black" d="M685.53,-658.99C696.51,-659.77 706,-657.03 706,-650.75 706,-646.83 702.29,-644.28 696.83,-643.12"/>
<polygon fill="black" stroke="black" points="697.22,-639.64 687.04,-642.59 696.84,-646.63 697.22,-639.64"/>
<text xml:space="preserve" text-anchor="middle" x="710.5" y="-646.08" font-family="Times,serif" font-size="14.00">2</text>
</g>
<!-- 29&#45;&gt;6 -->
<g id="edge85" class="edge">
<title>29&#45;&gt;6</title>
<path fill="none" stroke="black" d="M2426.34,-2413.68C2371.45,-2398.28 2239.03,-2361.14 2175.36,-2343.27"/>
<polygon fill="black" stroke="black" points="2176.7,-2340.01 2166.12,-2340.68 2174.81,-2346.75 2176.7,-2340.01"/>
<text xml:space="preserve" text-anchor="middle" x="2327.86" y="-2372.3" font-family="Times,serif" font-size="14.00">3</text>
</g>
<!-- 29&#45;&gt;10 -->
<g id="edge66" class="edge">
<title>29&#45;&gt;10</title>
<path fill="none" stroke="black" d="M2478.04,-2418.57C2525.08,-2413.4 2617,-2395.37 2617,-2333.35 2617,-2333.35 2617,-2333.35 2617,-1743.23 2617,-1659.41 2578,-1642.54 2578,-1558.73 2578,-1558.73 2578,-1558.73 2578,-1249.58 2578,-1139.35 2565.67,-1107.85 2516,-1009.45 2372.4,-724.96 2248.82,-699.62 1971,-543.5 1921.56,-515.72 1858.98,-494.66 1820.48,-483.14"/>
<polygon fill="black" stroke="black" points="1821.85,-479.9 1811.27,-480.44 1819.88,-486.61 1821.85,-479.9"/>
<text xml:space="preserve" text-anchor="middle" x="2582.5" y="-1463.8" font-family="Times,serif" font-size="14.00">4</text>
</g>
<!-- 29&#45;&gt;14 -->
<g id="edge128" class="edge">
<title>29&#45;&gt;14</title>
<path fill="none" stroke="black" d="M2477.43,-2417.63C2500.41,-2413.79 2533.33,-2405.09 2555,-2385.6 2574,-2368.51 2579,-2358.91 2579,-2333.35 2579,-2333.35 2579,-2333.35 2579,-2197.48 2579,-2113.76 2541,-2096.7 2541,-2012.98 2541,-2012.98 2541,-2012.98 2541,-1832.48 2541,-1756.73 2525.8,-1738.95 2518,-1663.6 2508.32,-1570.16 2526.34,-1327.71 2488,-1241.95 2451.9,-1161.21 2272.31,-1019.94 2211,-956.2 2180.65,-924.65 2175.87,-913.86 2143,-884.95 2134.04,-877.07 2123.77,-869.14 2114.24,-862.19"/>
<polygon fill="black" stroke="black" points="2116.43,-859.46 2106.27,-856.48 2112.36,-865.15 2116.43,-859.46"/>
<text xml:space="preserve" text-anchor="middle" x="2522.5" y="-1650.3" font-family="Times,serif" font-size="14.00">2</text>
</g>
<!-- 29&#45;&gt;22 -->
<g id="edge29" class="edge">
<title>29&#45;&gt;22</title>
<path fill="none" stroke="black" d="M2466.04,-2406.4C2481.4,-2390.28 2503,-2362.45 2503,-2333.35 2503,-2333.35 2503,-2333.35 2503,-2059.6 2503,-1900.73 2443.88,-1870 2399,-1717.6 2377.01,-1642.9 2396.75,-1612.12 2351,-1549.1 2345.56,-1541.61 2337.99,-1535.23 2330.31,-1530.05"/>
<polygon fill="black" stroke="black" points="2332.32,-1527.18 2321.97,-1524.94 2328.66,-1533.15 2332.32,-1527.18"/>
<text xml:space="preserve" text-anchor="middle" x="2502.18" y="-1962.68" font-family="Times,serif" font-size="14.00">0</text>
</g>
<!-- 29&#45;&gt;25 -->
<g id="edge25" class="edge">
<title>29&#45;&gt;25</title>
<path fill="none" stroke="black" d="M2423.64,-2420.58C2160.44,-2420.31 85.49,-2417.15 31,-2385.6 7.63,-2372.07 0,-2360.35 0,-2333.35 0,-2333.35 0,-2333.35 0,-1304.05 0,-1097.83 7,-1046.32 7,-840.1 7,-840.1 7,-840.1 7,-694.38 7,-647.27 21.61,-635.09 50,-597.5 125.48,-497.55 163.45,-489.58 252,-401 322.33,-330.64 323.62,-293.19 408,-240.5 433.31,-224.69 465.69,-214.63 490.28,-208.69"/>
<polygon fill="black" stroke="black" points="490.87,-212.14 499.85,-206.51 489.32,-205.32 490.87,-212.14"/>
<text xml:space="preserve" text-anchor="middle" x="4.5" y="-1300.38" font-family="Times,serif" font-size="14.00">1</text>
</g>
</g>
</svg>
