<?xml version="1.0" encoding="UTF-8" standalone="no"?>
<!DOCTYPE svg PUBLIC "-//W3C//DTD SVG 1.1//EN"
 "http://www.w3.org/Graphics/SVG/1.1/DTD/svg11.dtd">
<!-- Generated by graphviz version 2.49.0 (20210829.0051)
 -->
<!-- Pages: 1 -->
<svg width="2423pt" height="2473pt"
 viewBox="0.00 0.00 2423.00 2472.98" xmlns="http://www.w3.org/2000/svg" xmlns:xlink="http://www.w3.org/1999/xlink">
<g id="graph0" class="graph" transform="scale(1 1) rotate(0) translate(4 2468.98)">
<polygon fill="white" stroke="transparent" points="-4,4 -4,-2468.98 2419,-2468.98 2419,4 -4,4"/>
<!-- fake -->
<g id="node1" class="node">
<title>fake</title>
</g>
<!-- 29 -->
<g id="node31" class="node">
<title>29</title>
<ellipse fill="none" stroke="black" cx="1983" cy="-2373.98" rx="27" ry="18"/>
<text text-anchor="middle" x="1983" y="-2370.28" font-family="Times,serif" font-size="14.00">29</text>
</g>
<!-- fake&#45;&gt;29 -->
<g id="edge1" class="edge">
<title>fake&#45;&gt;29</title>
<path fill="none" stroke="black" stroke-width="2" d="M1983,-2428.8C1983,-2420.77 1983,-2411.03 1983,-2402.05"/>
<polygon fill="black" stroke="black" stroke-width="2" points="1986.5,-2402.01 1983,-2392.01 1979.5,-2402.01 1986.5,-2402.01"/>
</g>
<!-- 0 -->
<g id="node2" class="node">
<title>0</title>
<ellipse fill="none" stroke="black" cx="1497" cy="-2100.98" rx="18" ry="18"/>
<ellipse fill="none" stroke="black" cx="1497" cy="-2100.98" rx="22" ry="22"/>
<text text-anchor="middle" x="1497" y="-2097.28" font-family="Times,serif" font-size="14.00">0</text>
</g>
<!-- 3 -->
<g id="node5" class="node">
<title>3</title>
<ellipse fill="none" stroke="black" cx="1324" cy="-2005.98" rx="18" ry="18"/>
<ellipse fill="none" stroke="black" cx="1324" cy="-2005.98" rx="22" ry="22"/>
<text text-anchor="middle" x="1324" y="-2002.28" font-family="Times,serif" font-size="14.00">3</text>
</g>
<!-- 0&#45;&gt;3 -->
<g id="edge120" class="edge">
<title>0&#45;&gt;3</title>
<path fill="none" stroke="black" d="M1475.49,-2095.57C1451.48,-2090 1412.05,-2078.93 1382,-2060.98 1368.31,-2052.81 1355.13,-2040.97 1344.81,-2030.46"/>
<polygon fill="black" stroke="black" points="1347.25,-2027.95 1337.82,-2023.12 1342.18,-2032.78 1347.25,-2027.95"/>
<text text-anchor="middle" x="1387" y="-2049.78" font-family="Times,serif" font-size="14.00">3</text>
</g>
<!-- 4 -->
<g id="node6" class="node">
<title>4</title>
<ellipse fill="none" stroke="black" cx="1248" cy="-2286.98" rx="27" ry="18"/>
<text text-anchor="middle" x="1248" y="-2283.28" font-family="Times,serif" font-size="14.00">4</text>
</g>
<!-- 0&#45;&gt;4 -->
<g id="edge80" class="edge">
<title>0&#45;&gt;4</title>
<path fill="none" stroke="black" d="M1479.51,-2114.91C1436.31,-2146.83 1324.41,-2229.52 1273.67,-2267.01"/>
<polygon fill="black" stroke="black" points="1271.47,-2264.29 1265.51,-2273.05 1275.63,-2269.92 1271.47,-2264.29"/>
<text text-anchor="middle" x="1403" y="-2192.28" font-family="Times,serif" font-size="14.00">0</text>
</g>
<!-- 8 -->
<g id="node10" class="node">
<title>8</title>
<ellipse fill="none" stroke="black" cx="789" cy="-818.5" rx="27" ry="18"/>
<text text-anchor="middle" x="789" y="-814.8" font-family="Times,serif" font-size="14.00">8</text>
</g>
<!-- 0&#45;&gt;8 -->
<g id="edge69" class="edge">
<title>0&#45;&gt;8</title>
<path fill="none" stroke="black" d="M1475.26,-2096.95C1387.82,-2084.36 1062.9,-2033.7 988,-1965.98 955.08,-1936.23 953,-1916.86 953,-1872.48 953,-1872.48 953,-1872.48 953,-1731.24 953,-1612.37 887.22,-1596.19 860,-1480.49 803.23,-1239.2 791.74,-937.54 789.51,-846.63"/>
<polygon fill="black" stroke="black" points="793.01,-846.53 789.29,-836.61 786.01,-846.69 793.01,-846.53"/>
<text text-anchor="middle" x="865" y="-1458.79" font-family="Times,serif" font-size="14.00">2</text>
</g>
<!-- 22 -->
<g id="node24" class="node">
<title>22</title>
<ellipse fill="none" stroke="black" cx="1043" cy="-731.5" rx="27" ry="18"/>
<text text-anchor="middle" x="1043" y="-727.8" font-family="Times,serif" font-size="14.00">22</text>
</g>
<!-- 0&#45;&gt;22 -->
<g id="edge107" class="edge">
<title>0&#45;&gt;22</title>
<path fill="none" stroke="black" d="M1494.2,-2078.72C1489.9,-2049.33 1480.41,-1994.92 1464,-1950.98 1414.74,-1819.08 1412.72,-1771.89 1313,-1672.49 1219.35,-1579.13 1171.76,-1585.36 1051,-1531.49 1029.43,-1521.87 1019.24,-1528.49 1001,-1513.49 963.59,-1482.72 945,-1468.43 945,-1419.99 945,-1419.99 945,-1419.99 945,-1139.49 945,-991.86 1006.7,-822.26 1032.19,-758.51"/>
<polygon fill="black" stroke="black" points="1035.45,-759.79 1035.95,-749.21 1028.96,-757.16 1035.45,-759.79"/>
<text text-anchor="middle" x="951" y="-1415.29" font-family="Times,serif" font-size="14.00">4</text>
</g>
<!-- 26 -->
<g id="node28" class="node">
<title>26</title>
<ellipse fill="none" stroke="black" cx="1288" cy="-1549.49" rx="27" ry="18"/>
<text text-anchor="middle" x="1288" y="-1545.79" font-family="Times,serif" font-size="14.00">26</text>
</g>
<!-- 0&#45;&gt;26 -->
<g id="edge66" class="edge">
<title>0&#45;&gt;26</title>
<path fill="none" stroke="black" d="M1503.54,-2079.91C1509.03,-2061.23 1516,-2032.53 1516,-2006.98 1516,-2006.98 1516,-2006.98 1516,-1870.48 1516,-1829.82 1488.6,-1827.61 1469,-1791.98 1419.46,-1701.95 1439.1,-1656.68 1365,-1585.49 1353.13,-1574.08 1336.88,-1565.95 1322.38,-1560.42"/>
<polygon fill="black" stroke="black" points="1323.28,-1557.02 1312.68,-1556.99 1320.95,-1563.62 1323.28,-1557.02"/>
<text text-anchor="middle" x="1517" y="-1824.28" font-family="Times,serif" font-size="14.00">1</text>
</g>
<!-- 1 -->
<g id="node3" class="node">
<title>1</title>
<ellipse fill="none" stroke="black" cx="1713" cy="-1288.49" rx="27" ry="18"/>
<text text-anchor="middle" x="1713" y="-1284.79" font-family="Times,serif" font-size="14.00">1</text>
</g>
<!-- 1&#45;&gt;0 -->
<g id="edge95" class="edge">
<title>1&#45;&gt;0</title>
<path fill="none" stroke="black" d="M1721.75,-1305.55C1763.94,-1385.39 1938.36,-1744.56 1788,-1965.98 1741.54,-2034.4 1703.76,-2027.82 1628,-2060.98 1595.18,-2075.35 1555.52,-2086.33 1528.49,-2092.93"/>
<polygon fill="black" stroke="black" points="1527.36,-2089.6 1518.44,-2095.32 1528.98,-2096.41 1527.36,-2089.6"/>
<text text-anchor="middle" x="1849" y="-1676.29" font-family="Times,serif" font-size="14.00">1</text>
</g>
<!-- 11 -->
<g id="node13" class="node">
<title>11</title>
<ellipse fill="none" stroke="black" cx="1681" cy="-383.5" rx="27" ry="18"/>
<text text-anchor="middle" x="1681" y="-379.8" font-family="Times,serif" font-size="14.00">11</text>
</g>
<!-- 1&#45;&gt;11 -->
<g id="edge115" class="edge">
<title>1&#45;&gt;11</title>
<path fill="none" stroke="black" d="M1739.37,-1284.05C1773.13,-1279.04 1828.73,-1268.56 1841,-1252.49 1845.04,-1247.19 1842.47,-1243.99 1841,-1237.49 1821.86,-1152.96 1795.35,-1139.22 1757,-1061.5 1745.74,-1038.68 1737.8,-1035.01 1731,-1010.5 1660.68,-756.76 1732.07,-679.41 1690,-419.5 1689.56,-416.8 1689.02,-414.01 1688.41,-411.24"/>
<polygon fill="black" stroke="black" points="1691.79,-410.34 1686.02,-401.45 1684.99,-412 1691.79,-410.34"/>
<text text-anchor="middle" x="1704" y="-814.8" font-family="Times,serif" font-size="14.00">2</text>
</g>
<!-- 14 -->
<g id="node16" class="node">
<title>14</title>
<ellipse fill="none" stroke="black" cx="577" cy="-18" rx="27" ry="18"/>
<text text-anchor="middle" x="577" y="-14.3" font-family="Times,serif" font-size="14.00">14</text>
</g>
<!-- 1&#45;&gt;14 -->
<g id="edge94" class="edge">
<title>1&#45;&gt;14</title>
<path fill="none" stroke="black" d="M1689.94,-1278.85C1621.83,-1251.89 1422.04,-1161.89 1353,-1010.5 1330.32,-960.76 1351.47,-942.14 1353,-887.5 1356.56,-760.46 1369,-729.08 1369,-602 1369,-602 1369,-602 1369,-382.5 1369,-310.46 1371.77,-278.09 1320,-228 1214.76,-126.16 747.57,-45.86 613.24,-24.56"/>
<polygon fill="black" stroke="black" points="613.49,-21.06 603.07,-22.96 612.4,-27.98 613.49,-21.06"/>
<text text-anchor="middle" x="1374" y="-640.8" font-family="Times,serif" font-size="14.00">3</text>
</g>
<!-- 20 -->
<g id="node22" class="node">
<title>20</title>
<ellipse fill="none" stroke="black" cx="1688" cy="-1192.74" rx="22.96" ry="22.96"/>
<ellipse fill="none" stroke="black" cx="1688" cy="-1192.74" rx="27" ry="27"/>
<text text-anchor="middle" x="1688" y="-1189.04" font-family="Times,serif" font-size="14.00">20</text>
</g>
<!-- 1&#45;&gt;20 -->
<g id="edge16" class="edge">
<title>1&#45;&gt;20</title>
<path fill="none" stroke="black" d="M1703.32,-1271.62C1700.18,-1265.79 1697,-1259.02 1695,-1252.49 1692.79,-1245.26 1691.27,-1237.34 1690.23,-1229.71"/>
<polygon fill="black" stroke="black" points="1693.69,-1229.14 1689.09,-1219.6 1686.73,-1229.93 1693.69,-1229.14"/>
<text text-anchor="middle" x="1700" y="-1241.29" font-family="Times,serif" font-size="14.00">0</text>
</g>
<!-- 1&#45;&gt;20 -->
<g id="edge57" class="edge">
<title>1&#45;&gt;20</title>
<path fill="none" stroke="black" d="M1711.15,-1270.17C1709.88,-1260.46 1707.9,-1248.18 1705,-1237.49 1704.08,-1234.08 1702.98,-1230.58 1701.79,-1227.1"/>
<polygon fill="black" stroke="black" points="1705.01,-1225.69 1698.29,-1217.5 1698.43,-1228.1 1705.01,-1225.69"/>
<text text-anchor="middle" x="1713" y="-1241.29" font-family="Times,serif" font-size="14.00">4</text>
</g>
<!-- 2 -->
<g id="node4" class="node">
<title>2</title>
<ellipse fill="none" stroke="black" cx="877" cy="-2195.98" rx="18" ry="18"/>
<ellipse fill="none" stroke="black" cx="877" cy="-2195.98" rx="22" ry="22"/>
<text text-anchor="middle" x="877" y="-2192.28" font-family="Times,serif" font-size="14.00">2</text>
</g>
<!-- 2&#45;&gt;0 -->
<g id="edge52" class="edge">
<title>2&#45;&gt;0</title>
<path fill="none" stroke="black" d="M898.7,-2191.73C991.42,-2177.82 1354.57,-2123.35 1464.98,-2106.79"/>
<polygon fill="black" stroke="black" points="1465.78,-2110.21 1475.15,-2105.26 1464.74,-2103.28 1465.78,-2110.21"/>
<text text-anchor="middle" x="1230" y="-2144.78" font-family="Times,serif" font-size="14.00">1</text>
</g>
<!-- 2&#45;&gt;2 -->
<g id="edge142" class="edge">
<title>2&#45;&gt;2</title>
<path fill="none" stroke="black" d="M897.58,-2204.35C907.84,-2205.51 917,-2202.72 917,-2195.98 917,-2191.67 913.24,-2188.97 907.84,-2187.89"/>
<polygon fill="black" stroke="black" points="907.67,-2184.39 897.58,-2187.61 907.48,-2191.39 907.67,-2184.39"/>
<text text-anchor="middle" x="922" y="-2192.28" font-family="Times,serif" font-size="14.00">3</text>
</g>
<!-- 7 -->
<g id="node9" class="node">
<title>7</title>
<ellipse fill="none" stroke="black" cx="1470" cy="-905.5" rx="27" ry="18"/>
<text text-anchor="middle" x="1470" y="-901.8" font-family="Times,serif" font-size="14.00">7</text>
</g>
<!-- 2&#45;&gt;7 -->
<g id="edge130" class="edge">
<title>2&#45;&gt;7</title>
<path fill="none" stroke="black" d="M864.98,-2177.33C853.84,-2159.24 839,-2129.89 839,-2101.98 839,-2101.98 839,-2101.98 839,-1957.48 839,-1812.33 1314.26,-1726.67 1386,-1600.49 1486.91,-1423 1405,-1345.66 1405,-1141.49 1405,-1141.49 1405,-1141.49 1405,-991.5 1405,-964.59 1425.8,-940.93 1443.87,-925.44"/>
<polygon fill="black" stroke="black" points="1446.34,-927.95 1451.89,-918.92 1441.93,-922.51 1446.34,-927.95"/>
<text text-anchor="middle" x="1424" y="-1545.79" font-family="Times,serif" font-size="14.00">0</text>
</g>
<!-- 2&#45;&gt;8 -->
<g id="edge13" class="edge">
<title>2&#45;&gt;8</title>
<path fill="none" stroke="black" d="M857.11,-2186.53C828.99,-2173.08 781,-2143.98 781,-2101.98 781,-2101.98 781,-2101.98 781,-1591.99 781,-1539.91 754.86,-1531.62 745,-1480.49 715.74,-1328.8 715.06,-1285.91 737,-1132.99 752.25,-1026.72 774.36,-900.87 784.09,-846.61"/>
<polygon fill="black" stroke="black" points="787.59,-846.91 785.92,-836.45 780.7,-845.67 787.59,-846.91"/>
<text text-anchor="middle" x="761" y="-1502.29" font-family="Times,serif" font-size="14.00">2</text>
</g>
<!-- 2&#45;&gt;11 -->
<g id="edge30" class="edge">
<title>2&#45;&gt;11</title>
<path fill="none" stroke="black" d="M899.04,-2192.66C955.55,-2186.69 1110.21,-2170.27 1239,-2155.98 1490.6,-2128.07 1594.5,-2183.8 1794,-2027.98 1862.22,-1974.7 1971,-1767.55 1971,-1680.99 1971,-1680.99 1971,-1680.99 1971,-1504.99 1971,-1352.49 1950.76,-1314.93 1918,-1165.99 1880.94,-997.51 1778.4,-575.61 1705,-419.5 1703.25,-415.78 1701.13,-412.02 1698.87,-408.41"/>
<polygon fill="black" stroke="black" points="1701.62,-406.22 1693.13,-399.87 1695.8,-410.12 1701.62,-406.22"/>
<text text-anchor="middle" x="1955" y="-1284.79" font-family="Times,serif" font-size="14.00">4</text>
</g>
<!-- 3&#45;&gt;0 -->
<g id="edge84" class="edge">
<title>3&#45;&gt;0</title>
<path fill="none" stroke="black" d="M1342.93,-2017.26C1356.9,-2024.95 1376.3,-2035.83 1393,-2045.98 1403.43,-2052.32 1405.37,-2054.99 1416,-2060.98 1432.78,-2070.44 1452.2,-2079.84 1467.82,-2087.04"/>
<polygon fill="black" stroke="black" points="1466.44,-2090.26 1476.99,-2091.22 1469.35,-2083.89 1466.44,-2090.26"/>
<text text-anchor="middle" x="1421" y="-2049.78" font-family="Times,serif" font-size="14.00">1</text>
</g>
<!-- 3&#45;&gt;1 -->
<g id="edge7" class="edge">
<title>3&#45;&gt;1</title>
<path fill="none" stroke="black" d="M1342.87,-1994.37C1381.75,-1971.68 1471.72,-1914.86 1526,-1845.98 1552.34,-1812.56 1550.72,-1798.7 1566,-1758.98 1598.82,-1673.66 1679.54,-1402.74 1705.1,-1316.28"/>
<polygon fill="black" stroke="black" points="1708.53,-1317.03 1708.01,-1306.45 1701.82,-1315.05 1708.53,-1317.03"/>
<text text-anchor="middle" x="1617" y="-1632.79" font-family="Times,serif" font-size="14.00">2</text>
</g>
<!-- 9 -->
<g id="node11" class="node">
<title>9</title>
<ellipse fill="none" stroke="black" cx="550" cy="-1375.49" rx="27" ry="18"/>
<text text-anchor="middle" x="550" y="-1371.79" font-family="Times,serif" font-size="14.00">9</text>
</g>
<!-- 3&#45;&gt;9 -->
<g id="edge108" class="edge">
<title>3&#45;&gt;9</title>
<path fill="none" stroke="black" d="M1301.84,-2002.65C1233.12,-1995.36 1027.53,-1973.07 1015,-1965.98 767.52,-1826.18 604.27,-1496.85 561.31,-1402.29"/>
<polygon fill="black" stroke="black" points="564.38,-1400.59 557.09,-1392.91 558,-1403.46 564.38,-1400.59"/>
<text text-anchor="middle" x="729" y="-1676.29" font-family="Times,serif" font-size="14.00">3</text>
</g>
<!-- 17 -->
<g id="node19" class="node">
<title>17</title>
<ellipse fill="none" stroke="black" cx="1691" cy="-1914.98" rx="27" ry="18"/>
<text text-anchor="middle" x="1691" y="-1911.28" font-family="Times,serif" font-size="14.00">17</text>
</g>
<!-- 3&#45;&gt;17 -->
<g id="edge58" class="edge">
<title>3&#45;&gt;17</title>
<path fill="none" stroke="black" d="M1345.32,-1999.81C1406.1,-1985.07 1580.71,-1942.73 1655.89,-1924.5"/>
<polygon fill="black" stroke="black" points="1656.92,-1927.85 1665.81,-1922.09 1655.27,-1921.05 1656.92,-1927.85"/>
<text text-anchor="middle" x="1546" y="-1954.78" font-family="Times,serif" font-size="14.00">0</text>
</g>
<!-- 3&#45;&gt;29 -->
<g id="edge46" class="edge">
<title>3&#45;&gt;29</title>
<path fill="none" stroke="black" d="M1333.44,-2026.08C1339.62,-2037.2 1348.48,-2050.97 1359,-2060.98 1398.82,-2098.87 1417.45,-2097.22 1466,-2122.98 1647.11,-2219.07 1870.86,-2322.1 1951.88,-2358.92"/>
<polygon fill="black" stroke="black" points="1950.49,-2362.13 1961.04,-2363.08 1953.38,-2355.76 1950.49,-2362.13"/>
<text text-anchor="middle" x="1657" y="-2192.28" font-family="Times,serif" font-size="14.00">4</text>
</g>
<!-- 4&#45;&gt;2 -->
<g id="edge82" class="edge">
<title>4&#45;&gt;2</title>
<path fill="none" stroke="black" d="M1223.08,-2280.01C1157.58,-2264.29 980.64,-2221.85 908.38,-2204.51"/>
<polygon fill="black" stroke="black" points="909.05,-2201.07 898.51,-2202.14 907.41,-2207.88 909.05,-2201.07"/>
<text text-anchor="middle" x="1101" y="-2239.78" font-family="Times,serif" font-size="14.00">3</text>
</g>
<!-- 10 -->
<g id="node12" class="node">
<title>10</title>
<ellipse fill="none" stroke="black" cx="659" cy="-1732.24" rx="22.96" ry="22.96"/>
<ellipse fill="none" stroke="black" cx="659" cy="-1732.24" rx="27" ry="27"/>
<text text-anchor="middle" x="659" y="-1728.54" font-family="Times,serif" font-size="14.00">10</text>
</g>
<!-- 4&#45;&gt;10 -->
<g id="edge111" class="edge">
<title>4&#45;&gt;10</title>
<path fill="none" stroke="black" d="M1221.16,-2284.8C1105.94,-2279.38 659,-2254.64 659,-2196.98 659,-2196.98 659,-2196.98 659,-1826.98 659,-1807.98 659,-1786.81 659,-1769.4"/>
<polygon fill="black" stroke="black" points="662.5,-1769.1 659,-1759.1 655.5,-1769.1 662.5,-1769.1"/>
<text text-anchor="middle" x="664" y="-2002.28" font-family="Times,serif" font-size="14.00">1</text>
</g>
<!-- 19 -->
<g id="node21" class="node">
<title>19</title>
<ellipse fill="none" stroke="black" cx="1009" cy="-383.5" rx="27" ry="18"/>
<text text-anchor="middle" x="1009" y="-379.8" font-family="Times,serif" font-size="14.00">19</text>
</g>
<!-- 4&#45;&gt;19 -->
<g id="edge78" class="edge">
<title>4&#45;&gt;19</title>
<path fill="none" stroke="black" d="M1275.04,-2285.76C1400.52,-2284.57 1922.68,-2278.01 1990,-2250.98 2093.69,-2209.35 2321,-1984.22 2321,-1872.48 2321,-1872.48 2321,-1872.48 2321,-1330.99 2321,-1269.33 2290.93,-1111.6 2255,-1061.5 2201.28,-986.59 1656.28,-625.95 1570,-593.5 1507.57,-570.01 1484.58,-595.68 1421,-575.5 1366.13,-558.07 1245.46,-476.2 1193,-452.5 1141.8,-429.36 1080.17,-407.8 1042.82,-395.4"/>
<polygon fill="black" stroke="black" points="1043.55,-391.95 1032.96,-392.15 1041.36,-398.6 1043.55,-391.95"/>
<text text-anchor="middle" x="2326" y="-1328.29" font-family="Times,serif" font-size="14.00">0</text>
</g>
<!-- 24 -->
<g id="node26" class="node">
<title>24</title>
<ellipse fill="none" stroke="black" cx="2026" cy="-1088.24" rx="22.96" ry="22.96"/>
<ellipse fill="none" stroke="black" cx="2026" cy="-1088.24" rx="27" ry="27"/>
<text text-anchor="middle" x="2026" y="-1084.54" font-family="Times,serif" font-size="14.00">24</text>
</g>
<!-- 4&#45;&gt;24 -->
<g id="edge42" class="edge">
<title>4&#45;&gt;24</title>
<path fill="none" stroke="black" d="M1275.14,-2285.19C1374.91,-2282.12 1721.24,-2270.3 1830,-2250.98 1880.26,-2242.06 1901.58,-2251.59 1940,-2217.98 1965.15,-2195.98 1971,-2182.9 1971,-2149.48 1971,-2149.48 1971,-2149.48 1971,-1957.48 1971,-1830.04 2047,-1808.43 2047,-1680.99 2047,-1680.99 2047,-1680.99 2047,-1504.99 2047,-1428.46 2055,-1409.51 2055,-1332.99 2055,-1332.99 2055,-1332.99 2055,-1191.74 2055,-1168.01 2047.71,-1142.32 2040.45,-1122.59"/>
<polygon fill="black" stroke="black" points="2043.66,-1121.21 2036.8,-1113.14 2037.13,-1123.73 2043.66,-1121.21"/>
<text text-anchor="middle" x="2052" y="-1676.29" font-family="Times,serif" font-size="14.00">4</text>
</g>
<!-- 27 -->
<g id="node29" class="node">
<title>27</title>
<ellipse fill="none" stroke="black" cx="2123" cy="-1827.98" rx="27" ry="18"/>
<text text-anchor="middle" x="2123" y="-1824.28" font-family="Times,serif" font-size="14.00">27</text>
</g>
<!-- 4&#45;&gt;27 -->
<g id="edge93" class="edge">
<title>4&#45;&gt;27</title>
<path fill="none" stroke="black" d="M1275.15,-2285.49C1403.37,-2283.07 1943.17,-2271.65 1972,-2250.98 1984.81,-2241.8 1980.18,-2232.99 1985,-2217.98 2022.39,-2101.49 2005.89,-2064.31 2052,-1950.98 2066.58,-1915.16 2090.17,-1877.13 2106.12,-1853.24"/>
<polygon fill="black" stroke="black" points="2109.12,-1855.05 2111.82,-1844.81 2103.32,-1851.13 2109.12,-1855.05"/>
<text text-anchor="middle" x="2026" y="-2049.78" font-family="Times,serif" font-size="14.00">2</text>
</g>
<!-- 5 -->
<g id="node7" class="node">
<title>5</title>
<ellipse fill="none" stroke="black" cx="1255" cy="-287.75" rx="27" ry="18"/>
<text text-anchor="middle" x="1255" y="-284.05" font-family="Times,serif" font-size="14.00">5</text>
</g>
<!-- 5&#45;&gt;0 -->
<g id="edge23" class="edge">
<title>5&#45;&gt;0</title>
<path fill="none" stroke="black" d="M1280.42,-294.4C1332.96,-305.91 1457.4,-332.23 1563,-347.5 1603.22,-353.31 1711.19,-342.94 1745,-365.5 1780.56,-389.22 1773.06,-411.76 1786,-452.5 1827.41,-582.9 1830.59,-617.61 1867,-749.5 1875.35,-779.74 1886,-786.12 1886,-817.5 1886,-993.5 1886,-993.5 1886,-993.5 1886,-1221.78 1933,-1276.7 1933,-1504.99 1933,-1680.99 1933,-1680.99 1933,-1680.99 1933,-1767.25 1829.03,-1977.62 1759,-2027.98 1721.69,-2054.82 1705.18,-2048.32 1661,-2060.98 1615.31,-2074.08 1561.58,-2086.26 1528.4,-2093.41"/>
<polygon fill="black" stroke="black" points="1527.44,-2090.04 1518.39,-2095.55 1528.9,-2096.88 1527.44,-2090.04"/>
<text text-anchor="middle" x="1909" y="-1189.04" font-family="Times,serif" font-size="14.00">1</text>
</g>
<!-- 5&#45;&gt;4 -->
<g id="edge76" class="edge">
<title>5&#45;&gt;4</title>
<path fill="none" stroke="black" d="M1227.9,-289.52C1139.83,-292.54 854.27,-306.58 627,-365.5 565.24,-381.5 546.81,-383.69 494,-419.5 401.8,-482.01 338.53,-541.86 306,-626.5 266.71,-728.73 284.62,-761.74 265,-869.5 120.29,-1664.08 96.83,-1327.29 165,-1480.49 169.35,-1490.27 175.08,-1489.57 181,-1498.49 294.07,-1668.96 379,-1709.42 379,-1913.98 379,-2196.98 379,-2196.98 379,-2196.98 379,-2232.86 405.79,-2237.41 439,-2250.98 510.88,-2280.36 1061.31,-2285.1 1210.69,-2285.85"/>
<polygon fill="black" stroke="black" points="1210.73,-2289.35 1220.74,-2285.89 1210.76,-2282.35 1210.73,-2289.35"/>
<text text-anchor="middle" x="186" y="-1284.79" font-family="Times,serif" font-size="14.00">0</text>
</g>
<!-- 5&#45;&gt;22 -->
<g id="edge61" class="edge">
<title>5&#45;&gt;22</title>
<path fill="none" stroke="black" d="M1247.13,-305.14C1215.09,-371.91 1094.27,-623.66 1055.24,-704.99"/>
<polygon fill="black" stroke="black" points="1051.97,-703.72 1050.8,-714.25 1058.28,-706.75 1051.97,-703.72"/>
<text text-anchor="middle" x="1154" y="-510.3" font-family="Times,serif" font-size="14.00">3</text>
</g>
<!-- 25 -->
<g id="node27" class="node">
<title>25</title>
<ellipse fill="none" stroke="black" cx="1177" cy="-1462.49" rx="27" ry="18"/>
<text text-anchor="middle" x="1177" y="-1458.79" font-family="Times,serif" font-size="14.00">25</text>
</g>
<!-- 5&#45;&gt;25 -->
<g id="edge63" class="edge">
<title>5&#45;&gt;25</title>
<path fill="none" stroke="black" d="M1253.03,-305.8C1246.58,-361.7 1225.41,-544.45 1207,-695.5 1198.38,-766.2 1192.04,-783.45 1187,-854.5 1171.18,-1077.58 1174.72,-1347.89 1176.39,-1433.85"/>
<polygon fill="black" stroke="black" points="1172.89,-1434.15 1176.6,-1444.07 1179.89,-1434.01 1172.89,-1434.15"/>
<text text-anchor="middle" x="1192" y="-858.3" font-family="Times,serif" font-size="14.00">4</text>
</g>
<!-- 5&#45;&gt;29 -->
<g id="edge35" class="edge">
<title>5&#45;&gt;29</title>
<path fill="none" stroke="black" d="M1281.21,-292.72C1344.33,-302.26 1509.78,-327.21 1648,-347.5 1703.53,-355.65 1721.93,-342.2 1773,-365.5 1923.22,-434.03 1920.51,-511.33 2054,-608.5 2164.12,-688.66 2224.32,-666.76 2316,-767.5 2430.43,-893.22 2405,-969.49 2405,-1139.49 2405,-2287.98 2405,-2287.98 2405,-2287.98 2405,-2366.12 2123.46,-2373.32 2020.3,-2373.34"/>
<polygon fill="black" stroke="black" points="2020.05,-2369.84 2010.04,-2373.32 2020.03,-2376.84 2020.05,-2369.84"/>
<text text-anchor="middle" x="2410" y="-1328.29" font-family="Times,serif" font-size="14.00">2</text>
</g>
<!-- 6 -->
<g id="node8" class="node">
<title>6</title>
<ellipse fill="none" stroke="black" cx="984" cy="-644.5" rx="27" ry="18"/>
<text text-anchor="middle" x="984" y="-640.8" font-family="Times,serif" font-size="14.00">6</text>
</g>
<!-- 6&#45;&gt;1 -->
<g id="edge48" class="edge">
<title>6&#45;&gt;1</title>
<path fill="none" stroke="black" d="M1008.23,-652.53C1105.26,-680.74 1461.44,-784.98 1481,-800.5 1537.97,-845.68 1539.15,-873.16 1564,-941.5 1595.9,-1029.19 1562.4,-1063.49 1602,-1147.99 1624.02,-1194.98 1664.81,-1240.25 1690.33,-1265.9"/>
<polygon fill="black" stroke="black" points="1688.16,-1268.67 1697.73,-1273.21 1693.08,-1263.69 1688.16,-1268.67"/>
<text text-anchor="middle" x="1574" y="-945.3" font-family="Times,serif" font-size="14.00">4</text>
</g>
<!-- 12 -->
<g id="node14" class="node">
<title>12</title>
<ellipse fill="none" stroke="black" cx="533" cy="-105" rx="27" ry="18"/>
<text text-anchor="middle" x="533" y="-101.3" font-family="Times,serif" font-size="14.00">12</text>
</g>
<!-- 6&#45;&gt;12 -->
<g id="edge118" class="edge">
<title>6&#45;&gt;12</title>
<path fill="none" stroke="black" d="M956.89,-642.09C905.65,-638.97 797.05,-629.95 767,-608.5 646.45,-522.41 669.28,-450.25 610,-314.5 577.35,-239.72 581.21,-216.38 550,-141 548.71,-137.88 547.27,-134.64 545.8,-131.45"/>
<polygon fill="black" stroke="black" points="548.84,-129.71 541.37,-122.2 542.53,-132.73 548.84,-129.71"/>
<text text-anchor="middle" x="647" y="-379.8" font-family="Times,serif" font-size="14.00">1</text>
</g>
<!-- 16 -->
<g id="node18" class="node">
<title>16</title>
<ellipse fill="none" stroke="black" cx="1627" cy="-287.75" rx="22.96" ry="22.96"/>
<ellipse fill="none" stroke="black" cx="1627" cy="-287.75" rx="27" ry="27"/>
<text text-anchor="middle" x="1627" y="-284.05" font-family="Times,serif" font-size="14.00">16</text>
</g>
<!-- 6&#45;&gt;16 -->
<g id="edge151" class="edge">
<title>6&#45;&gt;16</title>
<path fill="none" stroke="black" d="M993.71,-627.38C1007.58,-605.38 1034.85,-565.69 1066,-539.5 1234.6,-397.69 1496.25,-321.5 1591.11,-297.34"/>
<polygon fill="black" stroke="black" points="1592.21,-300.67 1601.06,-294.84 1590.51,-293.88 1592.21,-300.67"/>
<text text-anchor="middle" x="1197" y="-466.8" font-family="Times,serif" font-size="14.00">2</text>
</g>
<!-- 6&#45;&gt;22 -->
<g id="edge67" class="edge">
<title>6&#45;&gt;22</title>
<path fill="none" stroke="black" d="M980.44,-662.34C979.18,-672.59 979.27,-685.57 985,-695.5 990.72,-705.4 1000.46,-712.83 1010.35,-718.23"/>
<polygon fill="black" stroke="black" points="1008.83,-721.39 1019.35,-722.64 1011.91,-715.1 1008.83,-721.39"/>
<text text-anchor="middle" x="990" y="-684.3" font-family="Times,serif" font-size="14.00">0</text>
</g>
<!-- 23 -->
<g id="node25" class="node">
<title>23</title>
<ellipse fill="none" stroke="black" cx="434" cy="-557.5" rx="27" ry="18"/>
<text text-anchor="middle" x="434" y="-553.8" font-family="Times,serif" font-size="14.00">23</text>
</g>
<!-- 6&#45;&gt;23 -->
<g id="edge10" class="edge">
<title>6&#45;&gt;23</title>
<path fill="none" stroke="black" d="M957.37,-641.04C905.41,-636.09 786.91,-624.06 688,-608.5 609.41,-596.13 518.06,-576.96 469.18,-566.31"/>
<polygon fill="black" stroke="black" points="469.64,-562.83 459.12,-564.11 468.14,-569.66 469.64,-562.83"/>
<text text-anchor="middle" x="693" y="-597.3" font-family="Times,serif" font-size="14.00">3</text>
</g>
<!-- 7&#45;&gt;0 -->
<g id="edge121" class="edge">
<title>7&#45;&gt;0</title>
<path fill="none" stroke="black" d="M1473.16,-923.62C1483.99,-983.21 1519.54,-1187.21 1531,-1357.49 1538.25,-1465.25 1532.52,-1492.54 1529,-1600.49 1528.22,-1624.51 1529.17,-1630.66 1526,-1654.49 1524.02,-1669.35 1522.19,-1672.84 1519,-1687.49 1512.07,-1719.3 1512.26,-1727.77 1503,-1758.98 1496.12,-1782.17 1489.29,-1786.38 1484,-1809.98 1460.97,-1912.7 1468.45,-1940.81 1464,-2045.98 1463.72,-2052.64 1461.71,-2054.72 1464,-2060.98 1466.24,-2067.11 1469.92,-2072.93 1474.02,-2078.12"/>
<polygon fill="black" stroke="black" points="1471.44,-2080.49 1480.67,-2085.7 1476.71,-2075.87 1471.44,-2080.49"/>
<text text-anchor="middle" x="1539" y="-1502.29" font-family="Times,serif" font-size="14.00">2</text>
</g>
<!-- 7&#45;&gt;3 -->
<g id="edge144" class="edge">
<title>7&#45;&gt;3</title>
<path fill="none" stroke="black" d="M1461.61,-922.63C1453.68,-939.37 1443,-966.57 1443,-991.5 1443,-1141.49 1443,-1141.49 1443,-1141.49 1443,-1268.48 1515,-1291 1515,-1417.99 1515,-1593.99 1515,-1593.99 1515,-1593.99 1515,-1754.43 1393.82,-1920.03 1344.51,-1980.79"/>
<polygon fill="black" stroke="black" points="1341.69,-1978.7 1338.04,-1988.65 1347.1,-1983.15 1341.69,-1978.7"/>
<text text-anchor="middle" x="1520" y="-1458.79" font-family="Times,serif" font-size="14.00">4</text>
</g>
<!-- 7&#45;&gt;8 -->
<g id="edge75" class="edge">
<title>7&#45;&gt;8</title>
<path fill="none" stroke="black" d="M1443.17,-901.87C1387.76,-896.39 1256.71,-883.1 1147,-869.5 1029.01,-854.87 889.59,-834.51 825.08,-824.91"/>
<polygon fill="black" stroke="black" points="825.42,-821.42 815.02,-823.41 824.39,-828.35 825.42,-821.42"/>
<text text-anchor="middle" x="1152" y="-858.3" font-family="Times,serif" font-size="14.00">3</text>
</g>
<!-- 7&#45;&gt;17 -->
<g id="edge138" class="edge">
<title>7&#45;&gt;17</title>
<path fill="none" stroke="black" d="M1481.41,-922.27C1488.91,-932.35 1499.13,-945.53 1509,-956.5 1584.6,-1040.48 1611.02,-1054.18 1692,-1132.99 1754.5,-1193.82 1798.26,-1190.07 1832,-1270.49 1927.83,-1498.93 1760.55,-1801.49 1706.8,-1889.19"/>
<polygon fill="black" stroke="black" points="1703.69,-1887.56 1701.39,-1897.91 1709.64,-1891.25 1703.69,-1887.56"/>
<text text-anchor="middle" x="1866" y="-1415.29" font-family="Times,serif" font-size="14.00">0</text>
</g>
<!-- 18 -->
<g id="node20" class="node">
<title>18</title>
<ellipse fill="none" stroke="black" cx="1445" cy="-818.5" rx="27" ry="18"/>
<text text-anchor="middle" x="1445" y="-814.8" font-family="Times,serif" font-size="14.00">18</text>
</g>
<!-- 7&#45;&gt;18 -->
<g id="edge17" class="edge">
<title>7&#45;&gt;18</title>
<path fill="none" stroke="black" d="M1465.06,-887.7C1461.57,-875.83 1456.81,-859.66 1452.81,-846.05"/>
<polygon fill="black" stroke="black" points="1456.11,-844.86 1449.93,-836.25 1449.39,-846.84 1456.11,-844.86"/>
<text text-anchor="middle" x="1464" y="-858.3" font-family="Times,serif" font-size="14.00">1</text>
</g>
<!-- 8&#45;&gt;3 -->
<g id="edge143" class="edge">
<title>8&#45;&gt;3</title>
<path fill="none" stroke="black" d="M796.62,-835.93C799.01,-841.69 801.43,-848.28 803,-854.5 852.54,-1050.54 824.71,-1106.56 855,-1306.49 869.03,-1399.05 861.27,-1425.78 894,-1513.49 906.95,-1548.2 919.68,-1552.23 936,-1585.49 1016.39,-1749.26 947.65,-1851.88 1090,-1965.98 1120.57,-1990.49 1234.93,-2000.11 1291.66,-2003.44"/>
<polygon fill="black" stroke="black" points="1291.7,-2006.94 1301.88,-2004 1292.08,-1999.95 1291.7,-2006.94"/>
<text text-anchor="middle" x="875" y="-1415.29" font-family="Times,serif" font-size="14.00">0</text>
</g>
<!-- 8&#45;&gt;9 -->
<g id="edge148" class="edge">
<title>8&#45;&gt;9</title>
<path fill="none" stroke="black" d="M766.9,-828.94C755.24,-834.86 741.43,-843.46 732,-854.5 667.29,-930.25 678.15,-967.2 646,-1061.5 604.7,-1182.62 621.07,-1221.72 571,-1339.49 569.53,-1342.95 567.76,-1346.49 565.89,-1349.91"/>
<polygon fill="black" stroke="black" points="562.83,-1348.2 560.8,-1358.6 568.87,-1351.74 562.83,-1348.2"/>
<text text-anchor="middle" x="651" y="-1084.54" font-family="Times,serif" font-size="14.00">1</text>
</g>
<!-- 8&#45;&gt;14 -->
<g id="edge125" class="edge">
<title>8&#45;&gt;14</title>
<path fill="none" stroke="black" d="M762.77,-813.74C738.44,-809.31 702.02,-800.19 675,-782.5 527.67,-686.03 498,-604.1 498,-428 498,-428 498,-428 498,-234.5 498,-175.75 550.41,-178.73 569,-123 577.38,-97.87 578.8,-67.5 578.47,-46.09"/>
<polygon fill="black" stroke="black" points="581.97,-45.96 578.18,-36.07 574.97,-46.16 581.97,-45.96"/>
<text text-anchor="middle" x="504" y="-423.3" font-family="Times,serif" font-size="14.00">2</text>
</g>
<!-- 8&#45;&gt;19 -->
<g id="edge44" class="edge">
<title>8&#45;&gt;19</title>
<path fill="none" stroke="black" d="M789,-800.24C789,-783.07 789,-755.96 789,-732.5 789,-732.5 789,-732.5 789,-469.5 789,-430.52 910.7,-402.5 973.07,-390.7"/>
<polygon fill="black" stroke="black" points="973.7,-394.14 982.9,-388.88 972.43,-387.26 973.7,-394.14"/>
<text text-anchor="middle" x="794" y="-597.3" font-family="Times,serif" font-size="14.00">4</text>
</g>
<!-- 8&#45;&gt;25 -->
<g id="edge11" class="edge">
<title>8&#45;&gt;25</title>
<path fill="none" stroke="black" d="M814.79,-823.94C834.55,-828.55 861.34,-837.55 879,-854.5 909.44,-883.72 901.71,-902.17 917,-941.5 958.28,-1047.67 1003.53,-1344.87 1083,-1426.49 1098.31,-1442.21 1121.33,-1450.94 1140.75,-1455.74"/>
<polygon fill="black" stroke="black" points="1140,-1459.16 1150.53,-1457.92 1141.52,-1452.33 1140,-1459.16"/>
<text text-anchor="middle" x="979" y="-1136.79" font-family="Times,serif" font-size="14.00">3</text>
</g>
<!-- 9&#45;&gt;1 -->
<g id="edge116" class="edge">
<title>9&#45;&gt;1</title>
<path fill="none" stroke="black" d="M576.76,-1372.53C730.25,-1361.31 1498.33,-1305.18 1676.19,-1292.18"/>
<polygon fill="black" stroke="black" points="1676.62,-1295.66 1686.34,-1291.44 1676.11,-1288.67 1676.62,-1295.66"/>
<text text-anchor="middle" x="1207" y="-1328.29" font-family="Times,serif" font-size="14.00">4</text>
</g>
<!-- 9&#45;&gt;4 -->
<g id="edge40" class="edge">
<title>9&#45;&gt;4</title>
<path fill="none" stroke="black" d="M531.54,-1388.86C497.71,-1412.51 425.69,-1467.49 387,-1531.49 316.36,-1648.33 303,-1690.45 303,-1826.98 303,-1959.48 303,-1959.48 303,-1959.48 303,-1998.94 314.6,-2007.43 323,-2045.98 342.81,-2136.85 294.12,-2190.77 365,-2250.98 397.68,-2278.74 1046.85,-2284.71 1210.7,-2285.78"/>
<polygon fill="black" stroke="black" points="1210.76,-2289.28 1220.78,-2285.84 1210.8,-2282.28 1210.76,-2289.28"/>
<text text-anchor="middle" x="308" y="-1824.28" font-family="Times,serif" font-size="14.00">3</text>
</g>
<!-- 9&#45;&gt;6 -->
<g id="edge60" class="edge">
<title>9&#45;&gt;6</title>
<path fill="none" stroke="black" d="M547.66,-1357.43C546.98,-1351.74 546.33,-1345.35 546,-1339.49 544.26,-1308.87 545.12,-1301.14 546,-1270.49 551.01,-1095.7 538.98,-1032.97 636,-887.5 663.23,-846.67 666.67,-832.35 704,-800.5 783.18,-732.92 896.42,-681.24 951.47,-658.38"/>
<polygon fill="black" stroke="black" points="953.12,-661.49 961.05,-654.45 950.47,-655.01 953.12,-661.49"/>
<text text-anchor="middle" x="591" y="-988.8" font-family="Times,serif" font-size="14.00">0</text>
</g>
<!-- 9&#45;&gt;9 -->
<g id="edge104" class="edge">
<title>9&#45;&gt;9</title>
<path fill="none" stroke="black" d="M574.53,-1383.24C585.51,-1383.98 595,-1381.39 595,-1375.49 595,-1371.52 590.72,-1369.05 584.57,-1368.08"/>
<polygon fill="black" stroke="black" points="584.65,-1364.58 574.53,-1367.74 584.41,-1371.58 584.65,-1364.58"/>
<text text-anchor="middle" x="600" y="-1371.79" font-family="Times,serif" font-size="14.00">2</text>
</g>
<!-- 21 -->
<g id="node23" class="node">
<title>21</title>
<ellipse fill="none" stroke="black" cx="942" cy="-192" rx="27" ry="18"/>
<text text-anchor="middle" x="942" y="-188.3" font-family="Times,serif" font-size="14.00">21</text>
</g>
<!-- 9&#45;&gt;21 -->
<g id="edge110" class="edge">
<title>9&#45;&gt;21</title>
<path fill="none" stroke="black" d="M544.64,-1357.71C527.02,-1301.01 472,-1111.1 472,-950 472,-950 472,-950 472,-687 472,-592.91 555.61,-602.18 604,-521.5 629.39,-479.16 617.7,-458.47 648,-419.5 724.79,-320.71 854.25,-241.47 912.29,-208.96"/>
<polygon fill="black" stroke="black" points="914.25,-211.88 921.3,-203.97 910.85,-205.75 914.25,-211.88"/>
<text text-anchor="middle" x="477" y="-771.3" font-family="Times,serif" font-size="14.00">1</text>
</g>
<!-- 10&#45;&gt;2 -->
<g id="edge123" class="edge">
<title>10&#45;&gt;2</title>
<path fill="none" stroke="black" d="M673.37,-1754.96C684.13,-1773.35 697,-1800.82 697,-1826.98 697,-2101.98 697,-2101.98 697,-2101.98 697,-2167.8 793.16,-2187.09 844.91,-2192.7"/>
<polygon fill="black" stroke="black" points="844.64,-2196.19 854.93,-2193.68 845.32,-2189.23 844.64,-2196.19"/>
<text text-anchor="middle" x="702" y="-1954.78" font-family="Times,serif" font-size="14.00">0</text>
</g>
<!-- 10&#45;&gt;8 -->
<g id="edge150" class="edge">
<title>10&#45;&gt;8</title>
<path fill="none" stroke="black" d="M636.42,-1717.54C624.49,-1709.65 610.06,-1699.03 599,-1687.49 586.8,-1674.76 584.07,-1670.64 577,-1654.49 483.92,-1441.75 493.37,-1359.39 545,-1132.99 572.88,-1010.75 604.31,-984.3 684,-887.5 696.98,-871.72 699.42,-866.43 716,-854.5 728.39,-845.58 743.41,-837.92 756.6,-832.07"/>
<polygon fill="black" stroke="black" points="757.99,-835.28 765.81,-828.13 755.24,-828.84 757.99,-835.28"/>
<text text-anchor="middle" x="522" y="-1284.79" font-family="Times,serif" font-size="14.00">3</text>
</g>
<!-- 10&#45;&gt;9 -->
<g id="edge137" class="edge">
<title>10&#45;&gt;9</title>
<path fill="none" stroke="black" d="M636.92,-1716.62C627.2,-1709.05 616.53,-1698.99 610,-1687.49 556.69,-1593.56 549.86,-1460.7 549.57,-1403.93"/>
<polygon fill="black" stroke="black" points="553.07,-1403.63 549.59,-1393.63 546.07,-1403.62 553.07,-1403.63"/>
<text text-anchor="middle" x="572" y="-1545.79" font-family="Times,serif" font-size="14.00">4</text>
</g>
<!-- 13 -->
<g id="node15" class="node">
<title>13</title>
<ellipse fill="none" stroke="black" cx="460" cy="-1636.49" rx="27" ry="18"/>
<text text-anchor="middle" x="460" y="-1632.79" font-family="Times,serif" font-size="14.00">13</text>
</g>
<!-- 10&#45;&gt;13 -->
<g id="edge97" class="edge">
<title>10&#45;&gt;13</title>
<path fill="none" stroke="black" d="M633.35,-1724.25C594.35,-1713.51 523.54,-1693.57 513,-1687.49 500.55,-1680.3 488.71,-1669.64 479.4,-1660.01"/>
<polygon fill="black" stroke="black" points="481.87,-1657.53 472.5,-1652.59 476.74,-1662.3 481.87,-1657.53"/>
<text text-anchor="middle" x="518" y="-1676.29" font-family="Times,serif" font-size="14.00">2</text>
</g>
<!-- 10&#45;&gt;29 -->
<g id="edge131" class="edge">
<title>10&#45;&gt;29</title>
<path fill="none" stroke="black" d="M635.64,-1745.41C556.44,-1788.57 303,-1942.66 303,-2147.48 303,-2287.98 303,-2287.98 303,-2287.98 303,-2373.14 1698.06,-2373.68 1945.66,-2373.11"/>
<polygon fill="black" stroke="black" points="1945.94,-2376.61 1955.93,-2373.08 1945.92,-2369.61 1945.94,-2376.61"/>
<text text-anchor="middle" x="328" y="-2049.78" font-family="Times,serif" font-size="14.00">1</text>
</g>
<!-- 11&#45;&gt;1 -->
<g id="edge141" class="edge">
<title>11&#45;&gt;1</title>
<path fill="none" stroke="black" d="M1679.39,-401.73C1677.93,-418.89 1676,-445.99 1676,-469.5 1676,-863 1676,-863 1676,-863 1676,-999.34 1713.3,-1030.07 1724,-1165.99 1727.02,-1204.33 1727.98,-1214.5 1722,-1252.49 1721.58,-1255.18 1721.04,-1257.97 1720.43,-1260.75"/>
<polygon fill="black" stroke="black" points="1717.01,-1259.99 1718.05,-1270.53 1723.82,-1261.64 1717.01,-1259.99"/>
<text text-anchor="middle" x="1681" y="-814.8" font-family="Times,serif" font-size="14.00">1</text>
</g>
<!-- 11&#45;&gt;11 -->
<g id="edge106" class="edge">
<title>11&#45;&gt;11</title>
<path fill="none" stroke="black" d="M1705.53,-391.25C1716.51,-391.99 1726,-389.4 1726,-383.5 1726,-379.53 1721.72,-377.06 1715.57,-376.09"/>
<polygon fill="black" stroke="black" points="1715.65,-372.59 1705.53,-375.74 1715.41,-379.59 1715.65,-372.59"/>
<text text-anchor="middle" x="1731" y="-379.8" font-family="Times,serif" font-size="14.00">4</text>
</g>
<!-- 11&#45;&gt;16 -->
<g id="edge98" class="edge">
<title>11&#45;&gt;16</title>
<path fill="none" stroke="black" d="M1671.59,-366.17C1664.27,-353.45 1653.88,-335.42 1644.98,-319.96"/>
<polygon fill="black" stroke="black" points="1647.96,-318.13 1639.94,-311.21 1641.9,-321.62 1647.96,-318.13"/>
<text text-anchor="middle" x="1665" y="-336.3" font-family="Times,serif" font-size="14.00">0</text>
</g>
<!-- 11&#45;&gt;18 -->
<g id="edge38" class="edge">
<title>11&#45;&gt;18</title>
<path fill="none" stroke="black" d="M1672.26,-400.53C1636.63,-465.91 1502.15,-712.63 1458.66,-792.43"/>
<polygon fill="black" stroke="black" points="1455.53,-790.86 1453.82,-801.31 1461.68,-794.21 1455.53,-790.86"/>
<text text-anchor="middle" x="1572" y="-597.3" font-family="Times,serif" font-size="14.00">2</text>
</g>
<!-- 28 -->
<g id="node30" class="node">
<title>28</title>
<ellipse fill="none" stroke="black" cx="1027" cy="-470.5" rx="27" ry="18"/>
<text text-anchor="middle" x="1027" y="-466.8" font-family="Times,serif" font-size="14.00">28</text>
</g>
<!-- 11&#45;&gt;28 -->
<g id="edge21" class="edge">
<title>11&#45;&gt;28</title>
<path fill="none" stroke="black" d="M1653.88,-386.31C1591.68,-390.62 1434.03,-402.42 1303,-419.5 1215.4,-430.91 1193.78,-435.98 1107,-452.5 1092.33,-455.29 1076.21,-458.66 1062.3,-461.66"/>
<polygon fill="black" stroke="black" points="1061.19,-458.32 1052.17,-463.86 1062.68,-465.16 1061.19,-458.32"/>
<text text-anchor="middle" x="1308" y="-423.3" font-family="Times,serif" font-size="14.00">3</text>
</g>
<!-- 12&#45;&gt;3 -->
<g id="edge83" class="edge">
<title>12&#45;&gt;3</title>
<path fill="none" stroke="black" d="M534.54,-123.01C542.14,-205.84 576.2,-564.77 600,-608.5 683.99,-762.8 817.38,-723.36 880,-887.5 920.15,-992.74 907,-1026.85 907,-1139.49 907,-1419.99 907,-1419.99 907,-1419.99 907,-1603.74 1104,-1599.73 1104,-1783.48 1104,-1915.98 1104,-1915.98 1104,-1915.98 1104,-1995.86 1230.16,-2005.8 1291.41,-2005.92"/>
<polygon fill="black" stroke="black" points="1291.72,-2009.41 1301.69,-2005.84 1291.67,-2002.41 1291.72,-2009.41"/>
<text text-anchor="middle" x="915" y="-1032.3" font-family="Times,serif" font-size="14.00">4</text>
</g>
<!-- 12&#45;&gt;4 -->
<g id="edge103" class="edge">
<title>12&#45;&gt;4</title>
<path fill="none" stroke="black" d="M505.71,-105.81C413.92,-105.91 122,-112.4 122,-191 122,-428 122,-428 122,-428 122,-582.7 84,-619.29 84,-774 84,-1037 84,-1037 84,-1037 84,-1196 96.46,-1235.46 114,-1393.49 118.3,-1432.28 118.8,-1442.13 126,-1480.49 158.88,-1655.62 219,-1692.29 219,-1870.48 219,-2196.98 219,-2196.98 219,-2196.98 219,-2233.86 247.65,-2237.56 282,-2250.98 369.57,-2285.19 1043.96,-2286.33 1210.77,-2286.08"/>
<polygon fill="black" stroke="black" points="1211.02,-2289.58 1221.02,-2286.06 1211.01,-2282.58 1211.02,-2289.58"/>
<text text-anchor="middle" x="98" y="-1189.04" font-family="Times,serif" font-size="14.00">3</text>
</g>
<!-- 12&#45;&gt;9 -->
<g id="edge28" class="edge">
<title>12&#45;&gt;9</title>
<path fill="none" stroke="black" d="M505.87,-106.38C420.04,-108.31 160,-120.02 160,-191 160,-428 160,-428 160,-428 160,-564.88 135.21,-915.6 184,-1043.5 353.01,-1486.54 350.67,-1289.18 431,-1339.49 456.23,-1355.29 488.92,-1364.23 513.65,-1369.11"/>
<polygon fill="black" stroke="black" points="513.24,-1372.6 523.71,-1370.97 514.51,-1365.72 513.24,-1372.6"/>
<text text-anchor="middle" x="159" y="-727.8" font-family="Times,serif" font-size="14.00">2</text>
</g>
<!-- 12&#45;&gt;14 -->
<g id="edge36" class="edge">
<title>12&#45;&gt;14</title>
<path fill="none" stroke="black" d="M541.48,-87.61C547.81,-75.38 556.58,-58.44 563.82,-44.46"/>
<polygon fill="black" stroke="black" points="567.05,-45.83 568.54,-35.34 560.84,-42.61 567.05,-45.83"/>
<text text-anchor="middle" x="563" y="-57.8" font-family="Times,serif" font-size="14.00">1</text>
</g>
<!-- 12&#45;&gt;23 -->
<g id="edge70" class="edge">
<title>12&#45;&gt;23</title>
<path fill="none" stroke="black" d="M508.37,-112.83C475.66,-123.58 422,-147.8 422,-191 422,-471.5 422,-471.5 422,-471.5 422,-491.06 425.15,-512.9 428.23,-529.55"/>
<polygon fill="black" stroke="black" points="424.85,-530.52 430.2,-539.66 431.72,-529.18 424.85,-530.52"/>
<text text-anchor="middle" x="427" y="-336.3" font-family="Times,serif" font-size="14.00">0</text>
</g>
<!-- 13&#45;&gt;3 -->
<g id="edge81" class="edge">
<title>13&#45;&gt;3</title>
<path fill="none" stroke="black" d="M468.51,-1653.74C474.6,-1664.27 483.54,-1677.77 494,-1687.49 675.59,-1856.09 741.59,-1888.63 977,-1965.98 1088.34,-2002.57 1229.4,-2006.14 1291.8,-2005.69"/>
<polygon fill="black" stroke="black" points="1291.86,-2009.19 1301.82,-2005.58 1291.78,-2002.19 1291.86,-2009.19"/>
<text text-anchor="middle" x="694" y="-1824.28" font-family="Times,serif" font-size="14.00">0</text>
</g>
<!-- 13&#45;&gt;4 -->
<g id="edge87" class="edge">
<title>13&#45;&gt;4</title>
<path fill="none" stroke="black" d="M458.53,-1654.75C457.05,-1673.55 455,-1704.51 455,-1731.24 455,-2196.98 455,-2196.98 455,-2196.98 455,-2274.01 1053.45,-2284.37 1210.58,-2285.77"/>
<polygon fill="black" stroke="black" points="1210.67,-2289.27 1220.7,-2285.85 1210.73,-2282.27 1210.67,-2289.27"/>
<text text-anchor="middle" x="460" y="-1954.78" font-family="Times,serif" font-size="14.00">3</text>
</g>
<!-- 13&#45;&gt;10 -->
<g id="edge5" class="edge">
<title>13&#45;&gt;10</title>
<path fill="none" stroke="black" d="M480.69,-1648.28C493.34,-1655 509.76,-1663.97 524,-1672.49 534.47,-1678.75 536.15,-1681.9 547,-1687.49 571.9,-1700.3 601.46,-1711.7 623.96,-1719.64"/>
<polygon fill="black" stroke="black" points="622.85,-1722.96 633.44,-1722.94 625.14,-1716.35 622.85,-1722.96"/>
<text text-anchor="middle" x="552" y="-1676.29" font-family="Times,serif" font-size="14.00">1</text>
</g>
<!-- 13&#45;&gt;23 -->
<g id="edge128" class="edge">
<title>13&#45;&gt;23</title>
<path fill="none" stroke="black" d="M456.85,-1618.38C447.92,-1569.65 421.67,-1425.99 401,-1306.49 394.32,-1267.9 389.94,-1258.54 387,-1219.49 385.21,-1195.78 386.65,-1189.77 387,-1165.99 389,-1031.28 396,-997.72 396,-863 396,-863 396,-863 396,-643.5 396,-621.4 406.83,-598.67 416.93,-582.28"/>
<polygon fill="black" stroke="black" points="419.88,-584.16 422.39,-573.87 414.01,-580.35 419.88,-584.16"/>
<text text-anchor="middle" x="396" y="-1084.54" font-family="Times,serif" font-size="14.00">4</text>
</g>
<!-- 13&#45;&gt;26 -->
<g id="edge33" class="edge">
<title>13&#45;&gt;26</title>
<path fill="none" stroke="black" d="M486.61,-1632.76C608.15,-1620.28 1110.56,-1568.7 1251.24,-1554.26"/>
<polygon fill="black" stroke="black" points="1251.9,-1557.71 1261.49,-1553.21 1251.18,-1550.75 1251.9,-1557.71"/>
<text text-anchor="middle" x="929" y="-1589.29" font-family="Times,serif" font-size="14.00">2</text>
</g>
<!-- 14&#45;&gt;4 -->
<g id="edge132" class="edge">
<title>14&#45;&gt;4</title>
<path fill="none" stroke="black" d="M550.02,-19.68C448.89,-22.39 95.72,-33.26 50,-54 21.38,-66.98 0,-72.57 0,-104 0,-776 0,-776 0,-776 0,-927.87 19.79,-964.9 43,-1114.99 56.04,-1199.32 181,-1785.15 181,-1870.48 181,-2196.98 181,-2196.98 181,-2196.98 181,-2232.53 207.09,-2237.54 240,-2250.98 331.09,-2288.21 1039.44,-2287.05 1210.78,-2286.21"/>
<polygon fill="black" stroke="black" points="1210.84,-2289.71 1220.82,-2286.16 1210.8,-2282.71 1210.84,-2289.71"/>
<text text-anchor="middle" x="54" y="-1136.79" font-family="Times,serif" font-size="14.00">2</text>
</g>
<!-- 14&#45;&gt;7 -->
<g id="edge134" class="edge">
<title>14&#45;&gt;7</title>
<path fill="none" stroke="black" d="M604.19,-19.21C755.49,-20.49 1488.36,-28.02 1528,-54 1548.62,-67.51 1552,-79.35 1552,-104 1552,-288.75 1552,-288.75 1552,-288.75 1552,-349.75 1553,-365 1553,-426 1553,-689 1553,-689 1553,-689 1553,-762.67 1510.23,-841.62 1486.09,-880.3"/>
<polygon fill="black" stroke="black" points="1483.1,-878.49 1480.68,-888.81 1489,-882.25 1483.1,-878.49"/>
<text text-anchor="middle" x="1558" y="-466.8" font-family="Times,serif" font-size="14.00">1</text>
</g>
<!-- 14&#45;&gt;10 -->
<g id="edge72" class="edge">
<title>14&#45;&gt;10</title>
<path fill="none" stroke="black" d="M550.14,-20.76C447.27,-27.85 84,-56.29 84,-104 84,-428 84,-428 84,-428 84,-437.75 220.04,-741.1 225,-749.5 390.72,-1029.89 671,-1005.28 671,-1330.99 671,-1463.49 671,-1463.49 671,-1463.49 671,-1546.46 665.18,-1643.75 661.64,-1695.15"/>
<polygon fill="black" stroke="black" points="658.13,-1695.19 660.93,-1705.41 665.12,-1695.67 658.13,-1695.19"/>
<text text-anchor="middle" x="322" y="-858.3" font-family="Times,serif" font-size="14.00">3</text>
</g>
<!-- 14&#45;&gt;12 -->
<g id="edge129" class="edge">
<title>14&#45;&gt;12</title>
<path fill="none" stroke="black" d="M558.4,-31.6C551.14,-37.52 543.49,-45.22 539,-54 535.44,-60.96 533.64,-69.15 532.79,-76.87"/>
<polygon fill="black" stroke="black" points="529.29,-76.74 532.17,-86.94 536.28,-77.18 529.29,-76.74"/>
<text text-anchor="middle" x="544" y="-57.8" font-family="Times,serif" font-size="14.00">4</text>
</g>
<!-- 14&#45;&gt;13 -->
<g id="edge45" class="edge">
<title>14&#45;&gt;13</title>
<path fill="none" stroke="black" d="M549.78,-19.3C450.25,-20.59 109.84,-26.97 70,-54 49.6,-67.84 46,-79.35 46,-104 46,-1037 46,-1037 46,-1037 46,-1178.16 132.46,-1191.93 181,-1324.49 205.69,-1391.91 180.85,-1422.36 223,-1480.49 230.22,-1490.45 371.12,-1579.64 432.18,-1618.04"/>
<polygon fill="black" stroke="black" points="430.59,-1621.17 440.92,-1623.53 434.32,-1615.25 430.59,-1621.17"/>
<text text-anchor="middle" x="51" y="-814.8" font-family="Times,serif" font-size="14.00">0</text>
</g>
<!-- 15 -->
<g id="node17" class="node">
<title>15</title>
<ellipse fill="none" stroke="black" cx="2017" cy="-992.5" rx="27" ry="18"/>
<text text-anchor="middle" x="2017" y="-988.8" font-family="Times,serif" font-size="14.00">15</text>
</g>
<!-- 15&#45;&gt;7 -->
<g id="edge41" class="edge">
<title>15&#45;&gt;7</title>
<path fill="none" stroke="black" d="M1990.11,-989.55C1892.05,-982.46 1559.21,-958.26 1554,-956.5 1542.44,-952.58 1541.41,-947.87 1531,-941.5 1520.72,-935.2 1509.29,-928.55 1499.13,-922.76"/>
<polygon fill="black" stroke="black" points="1500.65,-919.6 1490.22,-917.72 1497.2,-925.69 1500.65,-919.6"/>
<text text-anchor="middle" x="1559" y="-945.3" font-family="Times,serif" font-size="14.00">0</text>
</g>
<!-- 15&#45;&gt;16 -->
<g id="edge62" class="edge">
<title>15&#45;&gt;16</title>
<path fill="none" stroke="black" d="M2015.23,-974.32C2011.01,-936.36 1998.98,-842.74 1976,-767.5 1926.7,-606.08 1902.96,-568.66 1824,-419.5 1810.73,-394.43 1811.24,-384.29 1790,-365.5 1752.48,-332.29 1698.09,-310.59 1662.64,-299"/>
<polygon fill="black" stroke="black" points="1663.32,-295.54 1652.73,-295.86 1661.2,-302.22 1663.32,-295.54"/>
<text text-anchor="middle" x="1946" y="-640.8" font-family="Times,serif" font-size="14.00">4</text>
</g>
<!-- 15&#45;&gt;21 -->
<g id="edge89" class="edge">
<title>15&#45;&gt;21</title>
<path fill="none" stroke="black" d="M2034.07,-978.15C2051.49,-962.88 2076,-936.14 2076,-906.5 2076,-906.5 2076,-906.5 2076,-513 2076,-362.55 1993.64,-305.74 1850,-261 1683.26,-209.07 1127.97,-196.12 979.03,-193.55"/>
<polygon fill="black" stroke="black" points="979.08,-190.05 969.02,-193.39 978.96,-197.05 979.08,-190.05"/>
<text text-anchor="middle" x="2081" y="-597.3" font-family="Times,serif" font-size="14.00">1</text>
</g>
<!-- 15&#45;&gt;25 -->
<g id="edge18" class="edge">
<title>15&#45;&gt;25</title>
<path fill="none" stroke="black" d="M1990.59,-996.49C1937.46,-1003.15 1814.59,-1021.86 1719,-1061.5 1560.71,-1127.13 1526.09,-1160.13 1395,-1270.49 1322.12,-1331.84 1324.61,-1369.86 1248,-1426.49 1236.2,-1435.21 1221.89,-1442.75 1209.22,-1448.57"/>
<polygon fill="black" stroke="black" points="1207.65,-1445.43 1199.92,-1452.68 1210.48,-1451.84 1207.65,-1445.43"/>
<text text-anchor="middle" x="1439" y="-1241.29" font-family="Times,serif" font-size="14.00">2</text>
</g>
<!-- 15&#45;&gt;27 -->
<g id="edge8" class="edge">
<title>15&#45;&gt;27</title>
<path fill="none" stroke="black" d="M2029.42,-1008.51C2058.96,-1045.82 2131,-1146.76 2131,-1243.99 2131,-1733.24 2131,-1733.24 2131,-1733.24 2131,-1755.63 2128.71,-1780.92 2126.57,-1799.59"/>
<polygon fill="black" stroke="black" points="2123.07,-1799.4 2125.36,-1809.74 2130.02,-1800.23 2123.07,-1799.4"/>
<text text-anchor="middle" x="2136" y="-1415.29" font-family="Times,serif" font-size="14.00">3</text>
</g>
<!-- 16&#45;&gt;4 -->
<g id="edge117" class="edge">
<title>16&#45;&gt;4</title>
<path fill="none" stroke="black" d="M1653.01,-294.53C1681.91,-301.48 1729.59,-314.49 1768,-332.5 1896.59,-392.77 1936.61,-405.06 2036,-506.5 2067.85,-539 2069.33,-552.95 2090,-593.5 2141.02,-693.57 2242.37,-956.02 2281,-1061.5 2297.79,-1107.36 2300.1,-1119.48 2315,-1165.99 2338.45,-1239.22 2367,-1254.1 2367,-1330.99 2367,-1915.98 2367,-1915.98 2367,-1915.98 2367,-2023.49 2122.42,-2225.4 2018,-2250.98 1876.58,-2285.63 1419.22,-2286.66 1285.22,-2286.2"/>
<polygon fill="black" stroke="black" points="1285.07,-2282.7 1275.06,-2286.16 1285.04,-2289.7 1285.07,-2282.7"/>
<text text-anchor="middle" x="2370" y="-1284.79" font-family="Times,serif" font-size="14.00">2</text>
</g>
<!-- 16&#45;&gt;14 -->
<g id="edge24" class="edge">
<title>16&#45;&gt;14</title>
<path fill="none" stroke="black" d="M1629.15,-260.93C1631.67,-211.64 1629.11,-104.51 1566,-54 1528.19,-23.74 789.49,-19.63 614.12,-19.08"/>
<polygon fill="black" stroke="black" points="614.1,-15.58 604.09,-19.05 614.08,-22.58 614.1,-15.58"/>
<text text-anchor="middle" x="1626" y="-144.8" font-family="Times,serif" font-size="14.00">4</text>
</g>
<!-- 16&#45;&gt;16 -->
<g id="edge122" class="edge">
<title>16&#45;&gt;16</title>
<path fill="none" stroke="black" d="M1652.3,-297.41C1662.83,-298.08 1671.75,-294.86 1671.75,-287.75 1671.75,-283.08 1667.91,-280.09 1662.29,-278.77"/>
<polygon fill="black" stroke="black" points="1662.52,-275.28 1652.3,-278.08 1662.04,-282.27 1662.52,-275.28"/>
<text text-anchor="middle" x="1676.75" y="-284.05" font-family="Times,serif" font-size="14.00">1</text>
</g>
<!-- 16&#45;&gt;20 -->
<g id="edge32" class="edge">
<title>16&#45;&gt;20</title>
<path fill="none" stroke="black" d="M1627.38,-314.64C1627.96,-356.39 1629,-441.16 1629,-513 1629,-689 1629,-689 1629,-689 1629,-865.38 1665.26,-1074.2 1680.93,-1156.19"/>
<polygon fill="black" stroke="black" points="1677.54,-1157.07 1682.87,-1166.23 1684.41,-1155.75 1677.54,-1157.07"/>
<text text-anchor="middle" x="1635" y="-727.8" font-family="Times,serif" font-size="14.00">0</text>
</g>
<!-- 16&#45;&gt;21 -->
<g id="edge74" class="edge">
<title>16&#45;&gt;21</title>
<path fill="none" stroke="black" d="M1600.57,-283.13C1494.61,-268.63 1100.47,-214.69 978.33,-197.97"/>
<polygon fill="black" stroke="black" points="978.74,-194.5 968.35,-196.61 977.79,-201.43 978.74,-194.5"/>
<text text-anchor="middle" x="1311" y="-231.8" font-family="Times,serif" font-size="14.00">3</text>
</g>
<!-- 17&#45;&gt;0 -->
<g id="edge113" class="edge">
<title>17&#45;&gt;0</title>
<path fill="none" stroke="black" d="M1673.23,-1928.79C1655.38,-1941.93 1627.39,-1963.34 1605,-1983.98 1572.66,-2013.82 1538.58,-2051.65 1517.55,-2075.84"/>
<polygon fill="black" stroke="black" points="1514.83,-2073.63 1510.94,-2083.49 1520.13,-2078.21 1514.83,-2073.63"/>
<text text-anchor="middle" x="1610" y="-2002.28" font-family="Times,serif" font-size="14.00">1</text>
</g>
<!-- 17&#45;&gt;1 -->
<g id="edge149" class="edge">
<title>17&#45;&gt;1</title>
<path fill="none" stroke="black" d="M1682.97,-1897.64C1680.55,-1891.89 1678.21,-1885.28 1677,-1878.98 1675.74,-1872.44 1676.96,-1870.65 1677,-1863.98 1677.44,-1793.54 1675.68,-1775.86 1679,-1705.49 1685.93,-1558.41 1703.28,-1382.74 1710.14,-1316.52"/>
<polygon fill="black" stroke="black" points="1713.63,-1316.81 1711.19,-1306.5 1706.67,-1316.08 1713.63,-1316.81"/>
<text text-anchor="middle" x="1691" y="-1589.29" font-family="Times,serif" font-size="14.00">0</text>
</g>
<!-- 17&#45;&gt;4 -->
<g id="edge88" class="edge">
<title>17&#45;&gt;4</title>
<path fill="none" stroke="black" d="M1707.16,-1929.61C1724.32,-1945.69 1749,-1974.18 1749,-2004.98 1749,-2196.98 1749,-2196.98 1749,-2196.98 1749,-2236.28 1715.89,-2237.45 1679,-2250.98 1607.14,-2277.35 1376.27,-2283.92 1285.33,-2285.5"/>
<polygon fill="black" stroke="black" points="1285.14,-2282 1275.2,-2285.67 1285.25,-2289 1285.14,-2282"/>
<text text-anchor="middle" x="1754" y="-2097.28" font-family="Times,serif" font-size="14.00">4</text>
</g>
<!-- 17&#45;&gt;14 -->
<g id="edge112" class="edge">
<title>17&#45;&gt;14</title>
<path fill="none" stroke="black" d="M1695.19,-1896.96C1706.4,-1851.62 1738.06,-1724.15 1766,-1618.49 1780.14,-1565.01 1783.17,-1551.49 1799,-1498.49 1803.22,-1484.36 1962,-1008.24 1962,-993.5 1962,-993.5 1962,-993.5 1962,-687 1962,-519.03 2114,-508.96 2114,-341 2114,-341 2114,-341 2114,-104 2114,-26.4 848.36,-19.64 614.07,-19.06"/>
<polygon fill="black" stroke="black" points="614.01,-15.56 604,-19.03 613.99,-22.56 614.01,-15.56"/>
<text text-anchor="middle" x="1967" y="-945.3" font-family="Times,serif" font-size="14.00">3</text>
</g>
<!-- 17&#45;&gt;27 -->
<g id="edge19" class="edge">
<title>17&#45;&gt;27</title>
<path fill="none" stroke="black" d="M1716.73,-1908.92C1790.49,-1894.41 2002.79,-1852.64 2087.49,-1835.97"/>
<polygon fill="black" stroke="black" points="2088.27,-1839.38 2097.4,-1834.02 2086.92,-1832.52 2088.27,-1839.38"/>
<text text-anchor="middle" x="1937" y="-1867.78" font-family="Times,serif" font-size="14.00">2</text>
</g>
<!-- 18&#45;&gt;4 -->
<g id="edge43" class="edge">
<title>18&#45;&gt;4</title>
<path fill="none" stroke="black" d="M1421.96,-828.15C1407.97,-834.14 1390.31,-843.09 1377,-854.5 1345.1,-881.84 1349.67,-900.61 1340,-941.5 1292.53,-1142.19 1283.62,-1193.07 1235,-1393.49 1225.6,-1432.25 1242.63,-1453.79 1213,-1480.49 1183.64,-1506.95 899.95,-1524.79 861,-1531.49 812.21,-1539.87 456.21,-1580.89 424,-1618.49 376.25,-1674.23 417,-1710.09 417,-1783.48 417,-2196.98 417,-2196.98 417,-2196.98 417,-2248.28 469.3,-2238.3 519,-2250.98 651.85,-2284.89 1081.07,-2286.48 1210.63,-2286.16"/>
<polygon fill="black" stroke="black" points="1210.84,-2289.66 1220.83,-2286.13 1210.82,-2282.66 1210.84,-2289.66"/>
<text text-anchor="middle" x="866" y="-1545.79" font-family="Times,serif" font-size="14.00">2</text>
</g>
<!-- 18&#45;&gt;5 -->
<g id="edge49" class="edge">
<title>18&#45;&gt;5</title>
<path fill="none" stroke="black" d="M1442.31,-800.51C1436.21,-765.69 1418.98,-684.59 1383,-626.5 1349.47,-572.35 1293,-578.68 1293,-515 1293,-515 1293,-515 1293,-382.5 1293,-357.67 1281.41,-331.68 1271.04,-313.37"/>
<polygon fill="black" stroke="black" points="1273.91,-311.36 1265.79,-304.55 1267.89,-314.94 1273.91,-311.36"/>
<text text-anchor="middle" x="1332" y="-553.8" font-family="Times,serif" font-size="14.00">4</text>
</g>
<!-- 18&#45;&gt;10 -->
<g id="edge101" class="edge">
<title>18&#45;&gt;10</title>
<path fill="none" stroke="black" d="M1424.51,-830.3C1401.4,-844.14 1367,-870.45 1367,-904.5 1367,-1037 1367,-1037 1367,-1037 1367,-1124.78 1339.77,-1347.72 1301,-1426.49 1286.56,-1455.83 1279.14,-1463.81 1251,-1480.49 1086.21,-1578.14 1003.63,-1498.45 833,-1585.49 772.72,-1616.24 715.01,-1671.32 683.55,-1704.25"/>
<polygon fill="black" stroke="black" points="680.82,-1702.05 676.51,-1711.72 685.91,-1706.85 680.82,-1702.05"/>
<text text-anchor="middle" x="1348" y="-1284.79" font-family="Times,serif" font-size="14.00">3</text>
</g>
<!-- 18&#45;&gt;15 -->
<g id="edge139" class="edge">
<title>18&#45;&gt;15</title>
<path fill="none" stroke="black" d="M1469.2,-826.72C1492.87,-833.79 1529.91,-844.87 1562,-854.5 1719.34,-901.72 1907.21,-958.37 1982.91,-981.21"/>
<polygon fill="black" stroke="black" points="1982.25,-984.67 1992.83,-984.2 1984.27,-977.96 1982.25,-984.67"/>
<text text-anchor="middle" x="1794" y="-901.8" font-family="Times,serif" font-size="14.00">0</text>
</g>
<!-- 18&#45;&gt;22 -->
<g id="edge85" class="edge">
<title>18&#45;&gt;22</title>
<path fill="none" stroke="black" d="M1418.23,-814.92C1373.78,-810.34 1282.09,-799.63 1206,-782.5 1160.07,-772.15 1108.3,-755.36 1075.67,-744.13"/>
<polygon fill="black" stroke="black" points="1076.78,-740.81 1066.18,-740.83 1074.48,-747.42 1076.78,-740.81"/>
<text text-anchor="middle" x="1211" y="-771.3" font-family="Times,serif" font-size="14.00">1</text>
</g>
<!-- 19&#45;&gt;2 -->
<g id="edge37" class="edge">
<title>19&#45;&gt;2</title>
<path fill="none" stroke="black" d="M982.06,-385.33C900.53,-388.57 662,-403.67 662,-469.5 662,-602 662,-602 662,-602 662,-723.28 691.53,-750.7 716,-869.5 718.19,-880.14 877,-1624.62 877,-1635.49 877,-2101.98 877,-2101.98 877,-2101.98 877,-2122.54 877,-2145.65 877,-2163.69"/>
<polygon fill="black" stroke="black" points="873.5,-2163.93 877,-2173.93 880.5,-2163.93 873.5,-2163.93"/>
<text text-anchor="middle" x="814" y="-1284.79" font-family="Times,serif" font-size="14.00">3</text>
</g>
<!-- 19&#45;&gt;5 -->
<g id="edge135" class="edge">
<title>19&#45;&gt;5</title>
<path fill="none" stroke="black" d="M1032.14,-373.68C1076.21,-356.88 1172.26,-320.28 1222.66,-301.07"/>
<polygon fill="black" stroke="black" points="1224,-304.31 1232.1,-297.48 1221.51,-297.77 1224,-304.31"/>
<text text-anchor="middle" x="1145" y="-336.3" font-family="Times,serif" font-size="14.00">1</text>
</g>
<!-- 19&#45;&gt;19 -->
<g id="edge9" class="edge">
<title>19&#45;&gt;19</title>
<path fill="none" stroke="black" d="M1033.53,-391.25C1044.51,-391.99 1054,-389.4 1054,-383.5 1054,-379.53 1049.72,-377.06 1043.57,-376.09"/>
<polygon fill="black" stroke="black" points="1043.65,-372.59 1033.53,-375.74 1043.41,-379.59 1043.65,-372.59"/>
<text text-anchor="middle" x="1059" y="-379.8" font-family="Times,serif" font-size="14.00">2</text>
</g>
<!-- 19&#45;&gt;26 -->
<g id="edge59" class="edge">
<title>19&#45;&gt;26</title>
<path fill="none" stroke="black" d="M1030.25,-394.91C1042.19,-401.23 1057.05,-409.92 1069,-419.5 1101.64,-445.65 1100.52,-462.14 1133,-488.5 1145.07,-498.29 1155.34,-492.97 1163,-506.5 1166.28,-512.3 1163.5,-514.85 1163,-521.5 1148.96,-708.84 1051.04,-1170.14 1037,-1357.49 1035.8,-1373.44 1031.23,-1378.56 1037,-1393.49 1071.92,-1483.8 1192.16,-1525.26 1252.65,-1540.76"/>
<polygon fill="black" stroke="black" points="1251.98,-1544.2 1262.52,-1543.2 1253.65,-1537.4 1251.98,-1544.2"/>
<text text-anchor="middle" x="1105" y="-945.3" font-family="Times,serif" font-size="14.00">0</text>
</g>
<!-- 19&#45;&gt;28 -->
<g id="edge99" class="edge">
<title>19&#45;&gt;28</title>
<path fill="none" stroke="black" d="M1012.58,-401.38C1015.04,-413.02 1018.37,-428.75 1021.21,-442.16"/>
<polygon fill="black" stroke="black" points="1017.86,-443.24 1023.36,-452.29 1024.71,-441.79 1017.86,-443.24"/>
<text text-anchor="middle" x="1025" y="-423.3" font-family="Times,serif" font-size="14.00">4</text>
</g>
<!-- 20&#45;&gt;0 -->
<g id="edge91" class="edge">
<title>20&#45;&gt;0</title>
<path fill="none" stroke="black" d="M1707.45,-1211.12C1721.94,-1225.43 1740.59,-1247.1 1749,-1270.49 1771.87,-1334.12 1778.32,-1813.89 1760,-1878.98 1728.1,-1992.37 1588.88,-2062.34 1526.92,-2088.4"/>
<polygon fill="black" stroke="black" points="1525.24,-2085.31 1517.32,-2092.34 1527.9,-2091.78 1525.24,-2085.31"/>
<text text-anchor="middle" x="1775" y="-1632.79" font-family="Times,serif" font-size="14.00">3</text>
</g>
<!-- 20&#45;&gt;10 -->
<g id="edge136" class="edge">
<title>20&#45;&gt;10</title>
<path fill="none" stroke="black" d="M1682.1,-1218.9C1672.1,-1258.31 1649.31,-1336.03 1613,-1393.49 1562.66,-1473.16 1529.79,-1478.29 1452,-1531.49 1429.1,-1547.15 1426.16,-1555.79 1401,-1567.49 1148.08,-1685.07 806.81,-1720.13 695.64,-1728.77"/>
<polygon fill="black" stroke="black" points="695.32,-1725.28 685.61,-1729.52 695.85,-1732.26 695.32,-1725.28"/>
<text text-anchor="middle" x="1579" y="-1458.79" font-family="Times,serif" font-size="14.00">1</text>
</g>
<!-- 20&#45;&gt;18 -->
<g id="edge73" class="edge">
<title>20&#45;&gt;18</title>
<path fill="none" stroke="black" d="M1662.66,-1183.44C1646.18,-1176.64 1625.81,-1165.28 1615,-1147.99 1566.15,-1069.89 1640.41,-1022.75 1597,-941.5 1569.85,-890.68 1511.56,-853.48 1475.58,-834.28"/>
<polygon fill="black" stroke="black" points="1476.99,-831.07 1466.5,-829.56 1473.76,-837.28 1476.99,-831.07"/>
<text text-anchor="middle" x="1616" y="-988.8" font-family="Times,serif" font-size="14.00">2</text>
</g>
<!-- 20&#45;&gt;24 -->
<g id="edge54" class="edge">
<title>20&#45;&gt;24</title>
<path fill="none" stroke="black" d="M1713.4,-1184.04C1772.99,-1165.97 1921.84,-1120.83 1990.4,-1100.04"/>
<polygon fill="black" stroke="black" points="1991.75,-1103.29 2000.3,-1097.04 1989.71,-1096.59 1991.75,-1103.29"/>
<text text-anchor="middle" x="1882" y="-1136.79" font-family="Times,serif" font-size="14.00">4</text>
</g>
<!-- 20&#45;&gt;29 -->
<g id="edge20" class="edge">
<title>20&#45;&gt;29</title>
<path fill="none" stroke="black" d="M1709.93,-1208.37C1724.64,-1218.39 1742.49,-1231.01 1749,-1237.49 1844.99,-1333.04 1895,-1369.54 1895,-1504.99 1895,-1680.99 1895,-1680.99 1895,-1680.99 1895,-1928.46 2199,-1900.01 2199,-2147.48 2199,-2287.98 2199,-2287.98 2199,-2287.98 2199,-2326.17 2080.6,-2354.41 2019.12,-2366.49"/>
<polygon fill="black" stroke="black" points="2018.21,-2363.1 2009.05,-2368.43 2019.54,-2369.98 2018.21,-2363.1"/>
<text text-anchor="middle" x="1926" y="-1780.78" font-family="Times,serif" font-size="14.00">0</text>
</g>
<!-- 21&#45;&gt;1 -->
<g id="edge26" class="edge">
<title>21&#45;&gt;1</title>
<path fill="none" stroke="black" d="M969.03,-193.31C1086.94,-194.99 1556.39,-205.13 1691,-261 1833.68,-320.22 1874,-402.02 1874,-556.5 1874,-689 1874,-689 1874,-689 1874,-917.78 1762.93,-1179.4 1725.3,-1261.48"/>
<polygon fill="black" stroke="black" points="1722.01,-1260.25 1720.98,-1270.79 1728.36,-1263.19 1722.01,-1260.25"/>
<text text-anchor="middle" x="1878" y="-727.8" font-family="Times,serif" font-size="14.00">0</text>
</g>
<!-- 21&#45;&gt;4 -->
<g id="edge55" class="edge">
<title>21&#45;&gt;4</title>
<path fill="none" stroke="black" d="M915.06,-193.38C820.09,-195.2 502.11,-205.41 420,-261 310.83,-334.91 122,-642.16 122,-774 122,-1037 122,-1037 122,-1037 122,-1210.11 100.27,-1255.29 126,-1426.49 153.83,-1611.69 257,-1639.71 257,-1826.98 257,-2196.98 257,-2196.98 257,-2196.98 257,-2243.63 302.3,-2237.66 347,-2250.98 430.5,-2275.87 1050.21,-2283.94 1210.33,-2285.62"/>
<polygon fill="black" stroke="black" points="1210.59,-2289.13 1220.63,-2285.73 1210.66,-2282.13 1210.59,-2289.13"/>
<text text-anchor="middle" x="120" y="-1241.29" font-family="Times,serif" font-size="14.00">2</text>
</g>
<!-- 21&#45;&gt;12 -->
<g id="edge53" class="edge">
<title>21&#45;&gt;12</title>
<path fill="none" stroke="black" d="M916.42,-185.68C846.12,-171.07 649.89,-130.29 568.78,-113.44"/>
<polygon fill="black" stroke="black" points="569.08,-109.92 558.58,-111.32 567.65,-116.78 569.08,-109.92"/>
<text text-anchor="middle" x="767" y="-144.8" font-family="Times,serif" font-size="14.00">4</text>
</g>
<!-- 21&#45;&gt;13 -->
<g id="edge51" class="edge">
<title>21&#45;&gt;13</title>
<path fill="none" stroke="black" d="M914.71,-192.26C828.59,-191.38 558.89,-199.89 400,-332.5 361.68,-364.48 374.55,-389.47 353,-434.5 318.93,-505.67 299.35,-518.77 274,-593.5 176.51,-880.88 207.79,-967.87 185,-1270.49 177.99,-1363.56 137.29,-1400.27 185,-1480.49 193.14,-1494.18 202.76,-1489.62 216,-1498.49 277.89,-1539.94 282.92,-1566.1 349,-1600.49 372.94,-1612.95 402.11,-1621.93 424.54,-1627.68"/>
<polygon fill="black" stroke="black" points="423.78,-1631.09 434.32,-1630.09 425.45,-1624.3 423.78,-1631.09"/>
<text text-anchor="middle" x="210" y="-901.8" font-family="Times,serif" font-size="14.00">1</text>
</g>
<!-- 21&#45;&gt;27 -->
<g id="edge50" class="edge">
<title>21&#45;&gt;27</title>
<path fill="none" stroke="black" d="M969,-193.06C1107.74,-193.64 1741.13,-199.64 1926,-261 2021.93,-292.84 2056.85,-293.7 2128,-365.5 2254.93,-493.59 2384.69,-972.55 2343,-1147.99 2342.03,-1152.08 2207,-1413.79 2207,-1417.99 2207,-1733.24 2207,-1733.24 2207,-1733.24 2207,-1767.1 2176.22,-1794.32 2151.92,-1810.53"/>
<polygon fill="black" stroke="black" points="2149.89,-1807.67 2143.33,-1815.99 2153.65,-1813.58 2149.89,-1807.67"/>
<text text-anchor="middle" x="2353" y="-988.8" font-family="Times,serif" font-size="14.00">3</text>
</g>
<!-- 22&#45;&gt;6 -->
<g id="edge79" class="edge">
<title>22&#45;&gt;6</title>
<path fill="none" stroke="black" d="M1031.72,-714.87C1027.4,-708.84 1022.44,-701.87 1018,-695.5 1012.18,-687.15 1005.89,-677.95 1000.33,-669.75"/>
<polygon fill="black" stroke="black" points="1003.13,-667.64 994.63,-661.32 997.33,-671.57 1003.13,-667.64"/>
<text text-anchor="middle" x="1023" y="-684.3" font-family="Times,serif" font-size="14.00">0</text>
</g>
<!-- 22&#45;&gt;9 -->
<g id="edge109" class="edge">
<title>22&#45;&gt;9</title>
<path fill="none" stroke="black" d="M1015.95,-733.04C961.84,-735.3 838.15,-746.48 753,-800.5 559.2,-923.44 548.11,-1250.75 549.22,-1347.31"/>
<polygon fill="black" stroke="black" points="545.72,-1347.48 549.39,-1357.42 552.72,-1347.37 545.72,-1347.48"/>
<text text-anchor="middle" x="599" y="-1032.3" font-family="Times,serif" font-size="14.00">1</text>
</g>
<!-- 22&#45;&gt;11 -->
<g id="edge2" class="edge">
<title>22&#45;&gt;11</title>
<path fill="none" stroke="black" d="M1064.67,-720.39C1114.89,-696.75 1242.75,-635.3 1345,-575.5 1430.55,-525.46 1444.26,-500.44 1531,-452.5 1570.4,-430.72 1618.08,-410 1648.95,-397.28"/>
<polygon fill="black" stroke="black" points="1650.41,-400.47 1658.35,-393.44 1647.77,-393.99 1650.41,-400.47"/>
<text text-anchor="middle" x="1406" y="-553.8" font-family="Times,serif" font-size="14.00">3</text>
</g>
<!-- 22&#45;&gt;18 -->
<g id="edge14" class="edge">
<title>22&#45;&gt;18</title>
<path fill="none" stroke="black" d="M1068.34,-737.85C1137.5,-752.48 1329.64,-793.1 1409.49,-809.99"/>
<polygon fill="black" stroke="black" points="1409.04,-813.47 1419.55,-812.11 1410.49,-806.62 1409.04,-813.47"/>
<text text-anchor="middle" x="1274" y="-771.3" font-family="Times,serif" font-size="14.00">2</text>
</g>
<!-- 22&#45;&gt;26 -->
<g id="edge126" class="edge">
<title>22&#45;&gt;26</title>
<path fill="none" stroke="black" d="M1043.72,-749.81C1044.66,-775.81 1045.98,-826.49 1044,-869.5 1032.6,-1117.17 944.2,-1188.29 1013,-1426.49 1024.56,-1466.53 1015.24,-1487.72 1048,-1513.49 1055.92,-1519.71 1186.08,-1536.19 1251.32,-1544.11"/>
<polygon fill="black" stroke="black" points="1251.24,-1547.62 1261.58,-1545.35 1252.08,-1540.68 1251.24,-1547.62"/>
<text text-anchor="middle" x="1007" y="-1136.79" font-family="Times,serif" font-size="14.00">4</text>
</g>
<!-- 23&#45;&gt;9 -->
<g id="edge92" class="edge">
<title>23&#45;&gt;9</title>
<path fill="none" stroke="black" d="M434,-575.75C434,-592.93 434,-620.03 434,-643.5 434,-950 434,-950 434,-950 434,-1108.54 346.15,-1166.72 421,-1306.49 439.6,-1341.23 483.27,-1358.86 514.65,-1367.35"/>
<polygon fill="black" stroke="black" points="513.81,-1370.74 524.36,-1369.79 515.52,-1363.96 513.81,-1370.74"/>
<text text-anchor="middle" x="439" y="-945.3" font-family="Times,serif" font-size="14.00">3</text>
</g>
<!-- 23&#45;&gt;12 -->
<g id="edge146" class="edge">
<title>23&#45;&gt;12</title>
<path fill="none" stroke="black" d="M408.5,-551.33C371.68,-542.22 308,-519.52 308,-471.5 308,-471.5 308,-471.5 308,-191 308,-151.15 433.08,-123.47 496.72,-111.97"/>
<polygon fill="black" stroke="black" points="497.51,-115.38 506.75,-110.2 496.29,-108.49 497.51,-115.38"/>
<text text-anchor="middle" x="313" y="-336.3" font-family="Times,serif" font-size="14.00">4</text>
</g>
<!-- 23&#45;&gt;19 -->
<g id="edge56" class="edge">
<title>23&#45;&gt;19</title>
<path fill="none" stroke="black" d="M449.52,-542.77C483,-514.05 565.66,-447.98 648,-419.5 707.16,-399.03 892.18,-389.24 971.87,-385.89"/>
<polygon fill="black" stroke="black" points="972.1,-389.38 981.95,-385.48 971.81,-382.39 972.1,-389.38"/>
<text text-anchor="middle" x="580" y="-466.8" font-family="Times,serif" font-size="14.00">0</text>
</g>
<!-- 23&#45;&gt;28 -->
<g id="edge31" class="edge">
<title>23&#45;&gt;28</title>
<path fill="none" stroke="black" d="M460.25,-552.73C555.25,-539.12 881.33,-492.38 990.82,-476.68"/>
<polygon fill="black" stroke="black" points="991.32,-480.15 1000.72,-475.26 990.33,-473.22 991.32,-480.15"/>
<text text-anchor="middle" x="772" y="-510.3" font-family="Times,serif" font-size="14.00">1</text>
</g>
<!-- 23&#45;&gt;29 -->
<g id="edge90" class="edge">
<title>23&#45;&gt;29</title>
<path fill="none" stroke="black" d="M413.63,-569.68C391.12,-583.71 358,-610.04 358,-643.5 358,-863 358,-863 358,-863 358,-1141.23 353.03,-1220.1 255,-1480.49 219.63,-1574.44 168.4,-1577.46 136,-1672.49 81.22,-1833.18 97,-1882.71 97,-2052.48 97,-2287.98 97,-2287.98 97,-2287.98 97,-2319.1 117.43,-2325.66 146,-2337.98 231.59,-2374.9 1692.65,-2373.58 1945.78,-2373.07"/>
<polygon fill="black" stroke="black" points="1945.94,-2376.57 1955.93,-2373.05 1945.92,-2369.57 1945.94,-2376.57"/>
<text text-anchor="middle" x="274" y="-1458.79" font-family="Times,serif" font-size="14.00">2</text>
</g>
<!-- 24&#45;&gt;4 -->
<g id="edge22" class="edge">
<title>24&#45;&gt;4</title>
<path fill="none" stroke="black" d="M2022.49,-1114.88C2019.97,-1135.58 2017,-1165.48 2017,-1191.74 2017,-1332.99 2017,-1332.99 2017,-1332.99 2017,-1409.51 2009,-1428.46 2009,-1504.99 2009,-1680.99 2009,-1680.99 2009,-1680.99 2009,-1808.43 1933,-1830.04 1933,-1957.48 1933,-2196.98 1933,-2196.98 1933,-2196.98 1933,-2262.87 1428.26,-2281.22 1285.31,-2285.1"/>
<polygon fill="black" stroke="black" points="1285.18,-2281.6 1275.28,-2285.36 1285.36,-2288.6 1285.18,-2281.6"/>
<text text-anchor="middle" x="2014" y="-1676.29" font-family="Times,serif" font-size="14.00">2</text>
</g>
<!-- 24&#45;&gt;7 -->
<g id="edge6" class="edge">
<title>24&#45;&gt;7</title>
<path fill="none" stroke="black" d="M2000.29,-1079.62C1935.99,-1060.68 1762.91,-1010.4 1617,-974.5 1580.35,-965.48 1568.18,-972.52 1534,-956.5 1518.65,-949.3 1503.6,-937.83 1491.95,-927.69"/>
<polygon fill="black" stroke="black" points="1494.25,-925.05 1484.47,-920.95 1489.56,-930.25 1494.25,-925.05"/>
<text text-anchor="middle" x="1760" y="-988.8" font-family="Times,serif" font-size="14.00">4</text>
</g>
<!-- 24&#45;&gt;10 -->
<g id="edge71" class="edge">
<title>24&#45;&gt;10</title>
<path fill="none" stroke="black" d="M1999.45,-1092.54C1924.44,-1102.19 1712.46,-1131.86 1652,-1165.99 1647.29,-1168.65 1589.52,-1233.38 1586,-1237.49 1584.1,-1239.71 1326.46,-1565.91 1324,-1567.49 1296.6,-1585.07 829.23,-1692.45 694.86,-1723.08"/>
<polygon fill="black" stroke="black" points="694.02,-1719.68 685.05,-1725.32 695.58,-1726.51 694.02,-1719.68"/>
<text text-anchor="middle" x="1453" y="-1415.29" font-family="Times,serif" font-size="14.00">3</text>
</g>
<!-- 24&#45;&gt;12 -->
<g id="edge145" class="edge">
<title>24&#45;&gt;12</title>
<path fill="none" stroke="black" d="M2052.71,-1084.24C2099.19,-1077.38 2190,-1055.97 2190,-993.5 2190,-993.5 2190,-993.5 2190,-687 2190,-464.25 2133.22,-342.68 1926,-261 1667.86,-159.25 764.17,-115.78 569.95,-107.5"/>
<polygon fill="black" stroke="black" points="570.09,-104 559.96,-107.08 569.8,-111 570.09,-104"/>
<text text-anchor="middle" x="2192" y="-597.3" font-family="Times,serif" font-size="14.00">0</text>
</g>
<!-- 24&#45;&gt;15 -->
<g id="edge140" class="edge">
<title>24&#45;&gt;15</title>
<path fill="none" stroke="black" d="M2023.49,-1061.13C2022.28,-1048.52 2020.83,-1033.39 2019.61,-1020.64"/>
<polygon fill="black" stroke="black" points="2023.08,-1020.22 2018.64,-1010.6 2016.11,-1020.89 2023.08,-1020.22"/>
<text text-anchor="middle" x="2026" y="-1032.3" font-family="Times,serif" font-size="14.00">1</text>
</g>
<!-- 25&#45;&gt;9 -->
<g id="edge147" class="edge">
<title>25&#45;&gt;9</title>
<path fill="none" stroke="black" d="M1150.04,-1459.63C1090.37,-1455.36 942.71,-1443.83 820,-1426.49 735.43,-1414.53 636.99,-1394.82 585.52,-1384.07"/>
<polygon fill="black" stroke="black" points="586.07,-1380.61 575.57,-1381.98 584.63,-1387.46 586.07,-1380.61"/>
<text text-anchor="middle" x="825" y="-1415.29" font-family="Times,serif" font-size="14.00">0</text>
</g>
<!-- 25&#45;&gt;15 -->
<g id="edge4" class="edge">
<title>25&#45;&gt;15</title>
<path fill="none" stroke="black" d="M1202.56,-1456.61C1242.17,-1448.25 1319.79,-1428.58 1377,-1393.49 1461.66,-1341.56 1463.99,-1304.82 1537,-1237.49 1572.55,-1204.71 1580.65,-1195.44 1619,-1165.99 1639.82,-1150 1644.54,-1144.79 1668,-1132.99 1689.47,-1122.19 1696.53,-1123.53 1719,-1114.99 1816.84,-1077.81 1931.07,-1029.98 1985.3,-1007"/>
<polygon fill="black" stroke="black" points="1986.88,-1010.14 1994.72,-1003.01 1984.14,-1003.69 1986.88,-1010.14"/>
<text text-anchor="middle" x="1542" y="-1241.29" font-family="Times,serif" font-size="14.00">2</text>
</g>
<!-- 25&#45;&gt;16 -->
<g id="edge12" class="edge">
<title>25&#45;&gt;16</title>
<path fill="none" stroke="black" d="M1184.76,-1445.09C1187.16,-1439.33 1189.55,-1432.74 1191,-1426.49 1248.57,-1178.14 1195.78,-1106.55 1234,-854.5 1239.95,-815.27 1242.17,-805.37 1254,-767.5 1286.54,-663.36 1289.32,-633.33 1345,-539.5 1396.23,-453.17 1411.81,-429.66 1489,-365.5 1521.1,-338.81 1563.85,-316.71 1593.21,-303.19"/>
<polygon fill="black" stroke="black" points="1594.95,-306.25 1602.62,-298.94 1592.07,-299.87 1594.95,-306.25"/>
<text text-anchor="middle" x="1239" y="-858.3" font-family="Times,serif" font-size="14.00">4</text>
</g>
<!-- 25&#45;&gt;16 -->
<g id="edge68" class="edge">
<title>25&#45;&gt;16</title>
<path fill="none" stroke="black" d="M1191.74,-1447.24C1197.2,-1441.27 1203.03,-1433.98 1207,-1426.49 1221.21,-1399.68 1227.81,-1316.66 1229,-1306.49 1240.68,-1206.37 1234.79,-950.01 1267,-854.5 1277.18,-824.32 1532.99,-432.37 1607.07,-319.17"/>
<polygon fill="black" stroke="black" points="1610.14,-320.88 1612.68,-310.6 1604.28,-317.05 1610.14,-320.88"/>
<text text-anchor="middle" x="1272" y="-858.3" font-family="Times,serif" font-size="14.00">3</text>
</g>
<!-- 25&#45;&gt;23 -->
<g id="edge39" class="edge">
<title>25&#45;&gt;23</title>
<path fill="none" stroke="black" d="M1155.25,-1451.62C1143.91,-1445.63 1130.48,-1437.08 1121,-1426.49 1104.56,-1408.12 1097,-1401.14 1097,-1376.49 1097,-1376.49 1097,-1376.49 1097,-1139.49 1097,-824.23 836.98,-833.3 572,-662.5 530.59,-635.8 485.52,-600.56 458.52,-578.72"/>
<polygon fill="black" stroke="black" points="460.39,-575.72 450.42,-572.13 455.97,-581.15 460.39,-575.72"/>
<text text-anchor="middle" x="1083" y="-988.8" font-family="Times,serif" font-size="14.00">1</text>
</g>
<!-- 26&#45;&gt;3 -->
<g id="edge47" class="edge">
<title>26&#45;&gt;3</title>
<path fill="none" stroke="black" d="M1289.37,-1567.77C1294.76,-1635.77 1314.53,-1885.49 1321.53,-1973.79"/>
<polygon fill="black" stroke="black" points="1318.06,-1974.28 1322.34,-1983.97 1325.04,-1973.73 1318.06,-1974.28"/>
<text text-anchor="middle" x="1313" y="-1780.78" font-family="Times,serif" font-size="14.00">4</text>
</g>
<!-- 26&#45;&gt;4 -->
<g id="edge96" class="edge">
<title>26&#45;&gt;4</title>
<path fill="none" stroke="black" d="M1313.07,-1556.26C1333.7,-1561.74 1363.15,-1571.26 1386,-1585.49 1403.88,-1596.62 1407.21,-1601.76 1420,-1618.49 1542.93,-1779.22 1694.42,-1840.21 1619,-2027.98 1559.76,-2175.47 1361.95,-2251.1 1281.98,-2276.24"/>
<polygon fill="black" stroke="black" points="1280.91,-2272.9 1272.38,-2279.19 1282.97,-2279.59 1280.91,-2272.9"/>
<text text-anchor="middle" x="1644" y="-1911.28" font-family="Times,serif" font-size="14.00">0</text>
</g>
<!-- 26&#45;&gt;8 -->
<g id="edge127" class="edge">
<title>26&#45;&gt;8</title>
<path fill="none" stroke="black" d="M1261.43,-1545.12C1194.76,-1536.67 1025.52,-1515.07 1023,-1513.49 977.06,-1484.66 991.31,-1452.66 956,-1411.49 922.09,-1371.96 869,-1385.07 869,-1332.99 869,-1332.99 869,-1332.99 869,-1191.74 869,-1041.34 917.11,-984.22 841,-854.5 836.07,-846.09 828.22,-839.28 820.1,-833.98"/>
<polygon fill="black" stroke="black" points="821.7,-830.86 811.3,-828.81 818.16,-836.9 821.7,-830.86"/>
<text text-anchor="middle" x="874" y="-1189.04" font-family="Times,serif" font-size="14.00">2</text>
</g>
<!-- 26&#45;&gt;20 -->
<g id="edge29" class="edge">
<title>26&#45;&gt;20</title>
<path fill="none" stroke="black" d="M1304.42,-1535.04C1363.86,-1486.3 1564.84,-1321.06 1575,-1306.49 1593.66,-1279.73 1577.15,-1260.76 1600,-1237.49 1615.67,-1221.53 1626.99,-1229.48 1647,-1219.49 1650.54,-1217.72 1654.16,-1215.73 1657.71,-1213.67"/>
<polygon fill="black" stroke="black" points="1659.59,-1216.62 1666.33,-1208.45 1655.96,-1210.64 1659.59,-1216.62"/>
<text text-anchor="middle" x="1522" y="-1371.79" font-family="Times,serif" font-size="14.00">3</text>
</g>
<!-- 26&#45;&gt;25 -->
<g id="edge25" class="edge">
<title>26&#45;&gt;25</title>
<path fill="none" stroke="black" d="M1270.66,-1535.21C1252.33,-1521.17 1223.24,-1498.9 1202.34,-1482.89"/>
<polygon fill="black" stroke="black" points="1204.29,-1479.98 1194.22,-1476.68 1200.03,-1485.53 1204.29,-1479.98"/>
<text text-anchor="middle" x="1245" y="-1502.29" font-family="Times,serif" font-size="14.00">1</text>
</g>
<!-- 27&#45;&gt;10 -->
<g id="edge124" class="edge">
<title>27&#45;&gt;10</title>
<path fill="none" stroke="black" d="M2095.81,-1826.33C1991.83,-1823.71 1609.38,-1813.14 1295,-1791.98 1066.79,-1776.63 793.44,-1747.88 695.84,-1737.29"/>
<polygon fill="black" stroke="black" points="695.94,-1733.78 685.62,-1736.17 695.18,-1740.74 695.94,-1733.78"/>
<text text-anchor="middle" x="1300" y="-1780.78" font-family="Times,serif" font-size="14.00">2</text>
</g>
<!-- 27&#45;&gt;11 -->
<g id="edge133" class="edge">
<title>27&#45;&gt;11</title>
<path fill="none" stroke="black" d="M2149.42,-1823.58C2171.13,-1819.51 2201.41,-1810.71 2221,-1791.98 2241.39,-1772.49 2245,-1761.44 2245,-1733.24 2245,-1733.24 2245,-1733.24 2245,-1417.99 2245,-1043.34 2159.34,-940.51 1955,-626.5 1887.86,-523.33 1872.07,-489.76 1771,-419.5 1754.32,-407.9 1733.25,-399.43 1715.7,-393.74"/>
<polygon fill="black" stroke="black" points="1716.42,-390.3 1705.83,-390.7 1714.36,-396.99 1716.42,-390.3"/>
<text text-anchor="middle" x="2219" y="-1084.54" font-family="Times,serif" font-size="14.00">4</text>
</g>
<!-- 27&#45;&gt;23 -->
<g id="edge34" class="edge">
<title>27&#45;&gt;23</title>
<path fill="none" stroke="black" d="M2135.81,-1811.85C2149.42,-1794.18 2169,-1763.51 2169,-1733.24 2169,-1733.24 2169,-1733.24 2169,-1330.99 2169,-1164.37 2174.74,-1088.25 2053,-974.5 2024.9,-948.24 2009.07,-954.85 1973,-941.5 1833.03,-889.67 1795.61,-883.66 1654,-836.5 1491.59,-782.4 1451.55,-767.17 1289,-713.5 1169.68,-674.1 1142.29,-655.37 1020,-626.5 816.28,-578.4 564.36,-563.76 471.03,-559.81"/>
<polygon fill="black" stroke="black" points="471.09,-556.31 460.96,-559.4 470.81,-563.3 471.09,-556.31"/>
<text text-anchor="middle" x="2172" y="-1189.04" font-family="Times,serif" font-size="14.00">1</text>
</g>
<!-- 27&#45;&gt;24 -->
<g id="edge119" class="edge">
<title>27&#45;&gt;24</title>
<path fill="none" stroke="black" d="M2114.48,-1810.89C2105.61,-1792.6 2093,-1761.6 2093,-1733.24 2093,-1733.24 2093,-1733.24 2093,-1191.74 2093,-1161.15 2071.83,-1132.56 2053.29,-1113.4"/>
<polygon fill="black" stroke="black" points="2055.67,-1110.83 2046.1,-1106.28 2050.75,-1115.8 2055.67,-1110.83"/>
<text text-anchor="middle" x="2098" y="-1458.79" font-family="Times,serif" font-size="14.00">3</text>
</g>
<!-- 27&#45;&gt;29 -->
<g id="edge114" class="edge">
<title>27&#45;&gt;29</title>
<path fill="none" stroke="black" d="M2123,-1846.24C2123,-1863.41 2123,-1890.52 2123,-1913.98 2123,-2101.98 2123,-2101.98 2123,-2101.98 2123,-2170.11 2117.94,-2190.29 2087,-2250.98 2066.44,-2291.31 2030.04,-2329.63 2006.21,-2352.22"/>
<polygon fill="black" stroke="black" points="2003.59,-2349.88 1998.66,-2359.26 2008.36,-2355.01 2003.59,-2349.88"/>
<text text-anchor="middle" x="2128" y="-2097.28" font-family="Times,serif" font-size="14.00">0</text>
</g>
<!-- 28&#45;&gt;10 -->
<g id="edge77" class="edge">
<title>28&#45;&gt;10</title>
<path fill="none" stroke="black" d="M1003.44,-479.5C902.3,-514.56 510,-658.04 510,-774 510,-950 510,-950 510,-950 510,-950.22 582.36,-1030.59 604,-1043.5 625.01,-1056.02 641.81,-1041.57 656,-1061.5 671.15,-1082.77 645.34,-1505.37 645,-1531.49 644.08,-1600.82 634.31,-1618.98 645,-1687.49 645.5,-1690.72 646.21,-1694.04 647.03,-1697.33"/>
<polygon fill="black" stroke="black" points="643.69,-1698.37 649.79,-1707.03 650.42,-1696.46 643.69,-1698.37"/>
<text text-anchor="middle" x="666" y="-1084.54" font-family="Times,serif" font-size="14.00">1</text>
</g>
<!-- 28&#45;&gt;11 -->
<g id="edge105" class="edge">
<title>28&#45;&gt;11</title>
<path fill="none" stroke="black" d="M1052.08,-463.34C1067.77,-459.7 1088.46,-455.26 1107,-452.5 1197.9,-438.92 1221.66,-444.69 1313,-434.5 1434.7,-420.92 1578.38,-399.97 1644.43,-390.06"/>
<polygon fill="black" stroke="black" points="1645.36,-393.46 1654.73,-388.51 1644.32,-386.53 1645.36,-393.46"/>
<text text-anchor="middle" x="1440" y="-423.3" font-family="Times,serif" font-size="14.00">0</text>
</g>
<!-- 28&#45;&gt;19 -->
<g id="edge3" class="edge">
<title>28&#45;&gt;19</title>
<path fill="none" stroke="black" d="M1009.5,-456.43C1003.03,-450.53 996.44,-442.97 993,-434.5 989.78,-426.57 991.08,-417.74 994,-409.73"/>
<polygon fill="black" stroke="black" points="997.25,-411.03 998.19,-400.48 990.88,-408.14 997.25,-411.03"/>
<text text-anchor="middle" x="998" y="-423.3" font-family="Times,serif" font-size="14.00">3</text>
</g>
<!-- 28&#45;&gt;22 -->
<g id="edge86" class="edge">
<title>28&#45;&gt;22</title>
<path fill="none" stroke="black" d="M1028.05,-488.55C1030.77,-532.53 1038.03,-650.03 1041.33,-703.43"/>
<polygon fill="black" stroke="black" points="1037.84,-703.74 1041.95,-713.5 1044.83,-703.31 1037.84,-703.74"/>
<text text-anchor="middle" x="1041" y="-597.3" font-family="Times,serif" font-size="14.00">2</text>
</g>
<!-- 28&#45;&gt;25 -->
<g id="edge65" class="edge">
<title>28&#45;&gt;25</title>
<path fill="none" stroke="black" d="M1036.85,-487.5C1053.12,-514.83 1085.15,-572.77 1099,-626.5 1104.56,-648.07 1152.95,-1405.04 1159,-1426.49 1159.96,-1429.88 1161.26,-1433.32 1162.73,-1436.66"/>
<polygon fill="black" stroke="black" points="1159.6,-1438.24 1167.16,-1445.66 1165.88,-1435.15 1159.6,-1438.24"/>
<text text-anchor="middle" x="1129" y="-945.3" font-family="Times,serif" font-size="14.00">4</text>
</g>
<!-- 29&#45;&gt;4 -->
<g id="edge64" class="edge">
<title>29&#45;&gt;4</title>
<path fill="none" stroke="black" d="M1956.41,-2369.91C1844.76,-2357 1413.76,-2307.15 1284.71,-2292.23"/>
<polygon fill="black" stroke="black" points="1284.89,-2288.73 1274.56,-2291.06 1284.09,-2295.68 1284.89,-2288.73"/>
<text text-anchor="middle" x="1664" y="-2326.78" font-family="Times,serif" font-size="14.00">2</text>
</g>
<!-- 29&#45;&gt;13 -->
<g id="edge102" class="edge">
<title>29&#45;&gt;13</title>
<path fill="none" stroke="black" d="M1955.83,-2372.97C1773.96,-2372.79 731.08,-2370.35 415,-2337.98 292.73,-2325.46 143,-2410.9 143,-2287.98 143,-2287.98 143,-2287.98 143,-1870.48 143,-1731.95 341.99,-1666.68 424.65,-1645.54"/>
<polygon fill="black" stroke="black" points="425.73,-1648.88 434.59,-1643.07 424.05,-1642.08 425.73,-1648.88"/>
<text text-anchor="middle" x="148" y="-2002.28" font-family="Times,serif" font-size="14.00">0</text>
</g>
<!-- 29&#45;&gt;15 -->
<g id="edge100" class="edge">
<title>29&#45;&gt;15</title>
<path fill="none" stroke="black" d="M2009.89,-2371.14C2083.52,-2365.36 2283,-2344.49 2283,-2287.98 2283,-2287.98 2283,-2287.98 2283,-1417.99 2283,-1337.86 2280.95,-1122.5 2229,-1061.5 2185.11,-1009.95 2102.04,-997.11 2053.95,-994.14"/>
<polygon fill="black" stroke="black" points="2054.12,-990.64 2043.96,-993.63 2053.77,-997.63 2054.12,-990.64"/>
<text text-anchor="middle" x="2288" y="-1676.29" font-family="Times,serif" font-size="14.00">3</text>
</g>
<!-- 29&#45;&gt;23 -->
<g id="edge27" class="edge">
<title>29&#45;&gt;23</title>
<path fill="none" stroke="black" d="M1956.04,-2372.88C1727.64,-2371.95 124.25,-2364.47 83,-2337.98 62.26,-2324.66 59,-2312.63 59,-2287.98 59,-2287.98 59,-2287.98 59,-1591.99 59,-1479.39 245,-1532.58 245,-1419.99 245,-1419.99 245,-1419.99 245,-1243.99 245,-1033.34 320,-986.65 320,-776 320,-776 320,-776 320,-643.5 320,-618.85 325.92,-610.25 344,-593.5 358.98,-579.62 380.07,-571.03 398.07,-565.83"/>
<polygon fill="black" stroke="black" points="399.2,-569.15 407.97,-563.21 397.41,-562.39 399.2,-569.15"/>
<text text-anchor="middle" x="246" y="-1458.79" font-family="Times,serif" font-size="14.00">1</text>
</g>
<!-- 29&#45;&gt;26 -->
<g id="edge15" class="edge">
<title>29&#45;&gt;26</title>
<path fill="none" stroke="black" d="M2005.32,-2363.76C2027.74,-2353.17 2061.19,-2333.53 2077,-2304.98 2088.83,-2283.63 2084.77,-2275.29 2087,-2250.98 2098.61,-2124.48 2076.37,-2072.23 1985,-1983.98 1761.35,-1767.98 1697.73,-1703.33 1410,-1585.49 1381.63,-1573.87 1348.06,-1564.54 1323.33,-1558.45"/>
<polygon fill="black" stroke="black" points="1323.85,-1554.97 1313.31,-1556.04 1322.21,-1561.78 1323.85,-1554.97"/>
<text text-anchor="middle" x="1970" y="-1954.78" font-family="Times,serif" font-size="14.00">4</text>
</g>
</g>
</svg>
