<?xml version="1.0" encoding="UTF-8" standalone="no"?>
<!DOCTYPE svg PUBLIC "-//W3C//DTD SVG 1.1//EN"
 "http://www.w3.org/Graphics/SVG/1.1/DTD/svg11.dtd">
<!-- Generated by graphviz version 2.49.0 (20210829.0051)
 -->
<!-- Pages: 1 -->
<svg width="2430pt" height="2291pt"
 viewBox="0.00 0.00 2430.00 2290.98" xmlns="http://www.w3.org/2000/svg" xmlns:xlink="http://www.w3.org/1999/xlink">
<g id="graph0" class="graph" transform="scale(1 1) rotate(0) translate(4 2286.98)">
<polygon fill="white" stroke="transparent" points="-4,4 -4,-2286.98 2426,-2286.98 2426,4 -4,4"/>
<!-- fake -->
<g id="node1" class="node">
<title>fake</title>
</g>
<!-- 0 -->
<g id="node2" class="node">
<title>0</title>
<ellipse fill="none" stroke="black" cx="2013" cy="-2191.98" rx="27" ry="18"/>
<text text-anchor="middle" x="2013" y="-2188.28" font-family="Times,serif" font-size="14.00">0</text>
</g>
<!-- fake&#45;&gt;0 -->
<g id="edge1" class="edge">
<title>fake&#45;&gt;0</title>
<path fill="none" stroke="black" stroke-width="2" d="M2013,-2246.8C2013,-2238.77 2013,-2229.03 2013,-2220.05"/>
<polygon fill="black" stroke="black" stroke-width="2" points="2016.5,-2220.01 2013,-2210.01 2009.5,-2220.01 2016.5,-2220.01"/>
</g>
<!-- 3 -->
<g id="node5" class="node">
<title>3</title>
<ellipse fill="none" stroke="black" cx="841" cy="-2104.98" rx="27" ry="18"/>
<text text-anchor="middle" x="841" y="-2101.28" font-family="Times,serif" font-size="14.00">3</text>
</g>
<!-- 0&#45;&gt;3 -->
<g id="edge104" class="edge">
<title>0&#45;&gt;3</title>
<path fill="none" stroke="black" d="M1986.1,-2189.72C1901.09,-2185.67 1630.61,-2172.31 1407,-2155.98 1206.84,-2141.37 967.36,-2118.4 877.46,-2109.59"/>
<polygon fill="black" stroke="black" points="877.79,-2106.11 867.5,-2108.61 877.11,-2113.07 877.79,-2106.11"/>
<text text-anchor="middle" x="1412" y="-2144.78" font-family="Times,serif" font-size="14.00">1</text>
</g>
<!-- 5 -->
<g id="node7" class="node">
<title>5</title>
<ellipse fill="none" stroke="black" cx="286" cy="-18" rx="27" ry="18"/>
<text text-anchor="middle" x="286" y="-14.3" font-family="Times,serif" font-size="14.00">5</text>
</g>
<!-- 0&#45;&gt;5 -->
<g id="edge33" class="edge">
<title>0&#45;&gt;5</title>
<path fill="none" stroke="black" d="M1985.81,-2191.2C1830.55,-2192.29 1040.51,-2195.56 397,-2155.98 308.25,-2150.53 0,-2194.9 0,-2105.98 0,-2105.98 0,-2105.98 0,-112.75 0,-81.81 77.14,-57.67 88,-54 142.35,-35.66 208.5,-26.44 248.91,-22.19"/>
<polygon fill="black" stroke="black" points="249.5,-25.65 259.11,-21.17 248.81,-18.69 249.5,-25.65"/>
<text text-anchor="middle" x="5" y="-1126.79" font-family="Times,serif" font-size="14.00">3</text>
</g>
<!-- 16 -->
<g id="node18" class="node">
<title>16</title>
<ellipse fill="none" stroke="black" cx="1217" cy="-956.49" rx="27" ry="18"/>
<text text-anchor="middle" x="1217" y="-952.79" font-family="Times,serif" font-size="14.00">16</text>
</g>
<!-- 0&#45;&gt;16 -->
<g id="edge25" class="edge">
<title>0&#45;&gt;16</title>
<path fill="none" stroke="black" d="M2037.74,-2184.53C2071.26,-2174.12 2127,-2150.17 2127,-2105.98 2127,-2105.98 2127,-2105.98 2127,-1886.48 2127,-1707.51 2036.96,-1681.52 1974,-1513.98 1950.79,-1452.22 1961.22,-1429.29 1926,-1373.49 1825.51,-1214.27 1782.9,-1175.61 1621,-1079.49 1497.9,-1006.4 1327.37,-973.81 1253.51,-962.48"/>
<polygon fill="black" stroke="black" points="1253.74,-958.97 1243.34,-960.95 1252.71,-965.89 1253.74,-958.97"/>
<text text-anchor="middle" x="2019" y="-1579.28" font-family="Times,serif" font-size="14.00">2</text>
</g>
<!-- 19 -->
<g id="node21" class="node">
<title>19</title>
<ellipse fill="none" stroke="black" cx="1667" cy="-113.75" rx="22.96" ry="22.96"/>
<ellipse fill="none" stroke="black" cx="1667" cy="-113.75" rx="27" ry="27"/>
<text text-anchor="middle" x="1667" y="-110.05" font-family="Times,serif" font-size="14.00">19</text>
</g>
<!-- 0&#45;&gt;19 -->
<g id="edge21" class="edge">
<title>0&#45;&gt;19</title>
<path fill="none" stroke="black" d="M2039.97,-2189.88C2119.24,-2185.9 2346,-2169.01 2346,-2105.98 2346,-2105.98 2346,-2105.98 2346,-1346.99 2346,-1270.13 2328,-1251.85 2328,-1174.99 2328,-1174.99 2328,-1174.99 2328,-208.5 2328,-144.95 1842.99,-121.48 1703.88,-116.06"/>
<polygon fill="black" stroke="black" points="1703.86,-112.56 1693.73,-115.67 1703.59,-119.55 1703.86,-112.56"/>
<text text-anchor="middle" x="2333" y="-1170.29" font-family="Times,serif" font-size="14.00">0</text>
</g>
<!-- 21 -->
<g id="node23" class="node">
<title>21</title>
<ellipse fill="none" stroke="black" cx="575" cy="-1391.49" rx="27" ry="18"/>
<text text-anchor="middle" x="575" y="-1387.79" font-family="Times,serif" font-size="14.00">21</text>
</g>
<!-- 0&#45;&gt;21 -->
<g id="edge63" class="edge">
<title>0&#45;&gt;21</title>
<path fill="none" stroke="black" d="M1985.99,-2190.53C1751.94,-2186.52 76,-2156.08 76,-2105.98 76,-2105.98 76,-2105.98 76,-1712.48 76,-1663.61 367.16,-1449.08 411,-1427.49 451.71,-1407.44 503.65,-1398.83 538.05,-1395.16"/>
<polygon fill="black" stroke="black" points="538.51,-1398.63 548.13,-1394.17 537.83,-1391.67 538.51,-1398.63"/>
<text text-anchor="middle" x="81" y="-1796.78" font-family="Times,serif" font-size="14.00">4</text>
</g>
<!-- 1 -->
<g id="node3" class="node">
<title>1</title>
<ellipse fill="none" stroke="black" cx="1418" cy="-1582.98" rx="27" ry="18"/>
<text text-anchor="middle" x="1418" y="-1579.28" font-family="Times,serif" font-size="14.00">1</text>
</g>
<!-- 1&#45;&gt;0 -->
<g id="edge116" class="edge">
<title>1&#45;&gt;0</title>
<path fill="none" stroke="black" d="M1443.17,-1589.52C1524.08,-1608.15 1782.8,-1674.13 1964,-1792.98 1990.02,-1810.05 2013,-1811.87 2013,-1842.98 2013,-2105.98 2013,-2105.98 2013,-2105.98 2013,-2125.23 2013,-2146.93 2013,-2163.59"/>
<polygon fill="black" stroke="black" points="2009.5,-2163.73 2013,-2173.73 2016.5,-2163.73 2009.5,-2163.73"/>
<text text-anchor="middle" x="2018" y="-1883.78" font-family="Times,serif" font-size="14.00">2</text>
</g>
<!-- 8 -->
<g id="node10" class="node">
<title>8</title>
<ellipse fill="none" stroke="black" cx="2071" cy="-782.49" rx="27" ry="18"/>
<text text-anchor="middle" x="2071" y="-778.79" font-family="Times,serif" font-size="14.00">8</text>
</g>
<!-- 1&#45;&gt;8 -->
<g id="edge113" class="edge">
<title>1&#45;&gt;8</title>
<path fill="none" stroke="black" d="M1443.29,-1576.49C1504.51,-1562.31 1663.79,-1520.03 1774,-1442.49 1857.98,-1383.4 1866.32,-1352.05 1926,-1268.49 2013.47,-1146.01 1957.42,-1082.24 2002,-938.49 2016.72,-891.02 2042.01,-838.78 2057.55,-808.69"/>
<polygon fill="black" stroke="black" points="2060.7,-810.22 2062.22,-799.73 2054.49,-806.98 2060.7,-810.22"/>
<text text-anchor="middle" x="1978" y="-1170.29" font-family="Times,serif" font-size="14.00">4</text>
</g>
<!-- 13 -->
<g id="node15" class="node">
<title>13</title>
<ellipse fill="none" stroke="black" cx="1397" cy="-1130.49" rx="27" ry="18"/>
<text text-anchor="middle" x="1397" y="-1126.79" font-family="Times,serif" font-size="14.00">13</text>
</g>
<!-- 1&#45;&gt;13 -->
<g id="edge30" class="edge">
<title>1&#45;&gt;13</title>
<path fill="none" stroke="black" d="M1418,-1564.71C1418,-1545.9 1418,-1514.93 1418,-1488.24 1418,-1488.24 1418,-1488.24 1418,-1216.49 1418,-1196.35 1412.37,-1174.28 1406.95,-1157.69"/>
<polygon fill="black" stroke="black" points="1410.22,-1156.43 1403.64,-1148.12 1403.6,-1158.72 1410.22,-1156.43"/>
<text text-anchor="middle" x="1423" y="-1344.29" font-family="Times,serif" font-size="14.00">0</text>
</g>
<!-- 17 -->
<g id="node19" class="node">
<title>17</title>
<ellipse fill="none" stroke="black" cx="707" cy="-1930.98" rx="27" ry="18"/>
<text text-anchor="middle" x="707" y="-1927.28" font-family="Times,serif" font-size="14.00">17</text>
</g>
<!-- 1&#45;&gt;17 -->
<g id="edge79" class="edge">
<title>1&#45;&gt;17</title>
<path fill="none" stroke="black" d="M1391.06,-1585.9C1298.78,-1593.83 991.47,-1631.73 815,-1792.98 778.29,-1826.53 802.54,-1858.27 769,-1894.98 760.75,-1904.02 749.6,-1911.3 739.04,-1916.83"/>
<polygon fill="black" stroke="black" points="737.45,-1913.71 730,-1921.24 740.52,-1920.01 737.45,-1913.71"/>
<text text-anchor="middle" x="888" y="-1753.28" font-family="Times,serif" font-size="14.00">3</text>
</g>
<!-- 28 -->
<g id="node30" class="node">
<title>28</title>
<ellipse fill="none" stroke="black" cx="918" cy="-1487.24" rx="22.96" ry="22.96"/>
<ellipse fill="none" stroke="black" cx="918" cy="-1487.24" rx="27" ry="27"/>
<text text-anchor="middle" x="918" y="-1483.54" font-family="Times,serif" font-size="14.00">28</text>
</g>
<!-- 1&#45;&gt;28 -->
<g id="edge106" class="edge">
<title>1&#45;&gt;28</title>
<path fill="none" stroke="black" d="M1390.92,-1581.81C1318.49,-1580.55 1115.23,-1571.71 959,-1513.98 955.29,-1512.61 951.56,-1510.88 947.94,-1508.96"/>
<polygon fill="black" stroke="black" points="949.66,-1505.91 939.26,-1503.9 946.14,-1511.96 949.66,-1505.91"/>
<text text-anchor="middle" x="1074" y="-1535.78" font-family="Times,serif" font-size="14.00">1</text>
</g>
<!-- 2 -->
<g id="node4" class="node">
<title>2</title>
<ellipse fill="none" stroke="black" cx="1722" cy="-1756.98" rx="27" ry="18"/>
<text text-anchor="middle" x="1722" y="-1753.28" font-family="Times,serif" font-size="14.00">2</text>
</g>
<!-- 7 -->
<g id="node9" class="node">
<title>7</title>
<ellipse fill="none" stroke="black" cx="1487" cy="-1669.98" rx="27" ry="18"/>
<text text-anchor="middle" x="1487" y="-1666.28" font-family="Times,serif" font-size="14.00">7</text>
</g>
<!-- 2&#45;&gt;7 -->
<g id="edge64" class="edge">
<title>2&#45;&gt;7</title>
<path fill="none" stroke="black" d="M1698.52,-1747.9C1678.23,-1740.88 1648.13,-1730.4 1622,-1720.98 1586.82,-1708.31 1546.64,-1693.37 1519.33,-1683.14"/>
<polygon fill="black" stroke="black" points="1520.48,-1679.84 1509.89,-1679.6 1518.02,-1686.39 1520.48,-1679.84"/>
<text text-anchor="middle" x="1627" y="-1709.78" font-family="Times,serif" font-size="14.00">1</text>
</g>
<!-- 2&#45;&gt;13 -->
<g id="edge28" class="edge">
<title>2&#45;&gt;13</title>
<path fill="none" stroke="black" d="M1715.18,-1739.3C1712.85,-1733.52 1710.27,-1726.98 1708,-1720.98 1649.98,-1567.61 1662.45,-1517.48 1584,-1373.49 1535.65,-1284.76 1455.84,-1194.21 1418.07,-1153.58"/>
<polygon fill="black" stroke="black" points="1420.49,-1151.05 1411.1,-1146.14 1415.38,-1155.83 1420.49,-1151.05"/>
<text text-anchor="middle" x="1622" y="-1431.29" font-family="Times,serif" font-size="14.00">0</text>
</g>
<!-- 18 -->
<g id="node20" class="node">
<title>18</title>
<ellipse fill="none" stroke="black" cx="1215" cy="-209.5" rx="27" ry="18"/>
<text text-anchor="middle" x="1215" y="-205.8" font-family="Times,serif" font-size="14.00">18</text>
</g>
<!-- 2&#45;&gt;18 -->
<g id="edge29" class="edge">
<title>2&#45;&gt;18</title>
<path fill="none" stroke="black" d="M1722,-1738.73C1722,-1721.55 1722,-1694.45 1722,-1670.98 1722,-1670.98 1722,-1670.98 1722,-1433.99 1722,-1376.63 1734,-1362.85 1734,-1305.49 1734,-1305.49 1734,-1305.49 1734,-1172.99 1734,-1080.89 1831.76,-852.31 1804,-764.49 1750.4,-594.89 1694.51,-567.81 1574,-436.99 1483.88,-339.16 1462.01,-306.87 1344,-245.5 1314.65,-230.23 1277.98,-221.11 1251.25,-216.03"/>
<polygon fill="black" stroke="black" points="1251.63,-212.54 1241.17,-214.21 1250.39,-219.43 1251.63,-212.54"/>
<text text-anchor="middle" x="1777" y="-996.29" font-family="Times,serif" font-size="14.00">4</text>
</g>
<!-- 22 -->
<g id="node24" class="node">
<title>22</title>
<ellipse fill="none" stroke="black" cx="1860" cy="-496.74" rx="27" ry="18"/>
<text text-anchor="middle" x="1860" y="-493.04" font-family="Times,serif" font-size="14.00">22</text>
</g>
<!-- 2&#45;&gt;22 -->
<g id="edge10" class="edge">
<title>2&#45;&gt;22</title>
<path fill="none" stroke="black" d="M1733.61,-1740.61C1744.78,-1724.25 1760,-1697.17 1760,-1670.98 1760,-1670.98 1760,-1670.98 1760,-1433.99 1760,-1276.44 1820.76,-1246.55 1862,-1094.49 1865.95,-1079.92 1867.38,-1076.35 1870,-1061.49 1874.19,-1037.71 1873.5,-1031.51 1876,-1007.49 1888.37,-888.68 1902,-859.44 1902,-739.99 1902,-739.99 1902,-739.99 1902,-595.49 1902,-568.66 1888.48,-540.81 1876.78,-521.74"/>
<polygon fill="black" stroke="black" points="1879.6,-519.65 1871.26,-513.12 1873.71,-523.43 1879.6,-519.65"/>
<text text-anchor="middle" x="1861" y="-1126.79" font-family="Times,serif" font-size="14.00">3</text>
</g>
<!-- 29 -->
<g id="node31" class="node">
<title>29</title>
<ellipse fill="none" stroke="black" cx="1667" cy="-18" rx="27" ry="18"/>
<text text-anchor="middle" x="1667" y="-14.3" font-family="Times,serif" font-size="14.00">29</text>
</g>
<!-- 2&#45;&gt;29 -->
<g id="edge133" class="edge">
<title>2&#45;&gt;29</title>
<path fill="none" stroke="black" d="M1747.16,-1750.09C1768.67,-1744.43 1800.01,-1734.73 1825,-1720.98 1899.51,-1680.01 1925.67,-1670.94 1974,-1600.98 2011.35,-1546.93 1992.76,-1520.28 2020,-1460.49 2038.68,-1419.5 2048.43,-1411.88 2072,-1373.49 2111.24,-1309.57 2252,-1162.99 2252,-1087.99 2252,-1087.99 2252,-1087.99 2252,-112.75 2252,-57.03 1832.98,-28.48 1704.2,-21.01"/>
<polygon fill="black" stroke="black" points="1704.23,-17.51 1694.04,-20.43 1703.83,-24.5 1704.23,-17.51"/>
<text text-anchor="middle" x="2257" y="-909.29" font-family="Times,serif" font-size="14.00">2</text>
</g>
<!-- 3&#45;&gt;0 -->
<g id="edge124" class="edge">
<title>3&#45;&gt;0</title>
<path fill="none" stroke="black" d="M868.01,-2107.4C950.37,-2111.78 1205.66,-2125.7 1417,-2140.98 1628.91,-2156.31 1882.82,-2179.08 1976.21,-2187.6"/>
<polygon fill="black" stroke="black" points="1976.01,-2191.1 1986.29,-2188.52 1976.65,-2184.13 1976.01,-2191.1"/>
<text text-anchor="middle" x="1602" y="-2144.78" font-family="Times,serif" font-size="14.00">3</text>
</g>
<!-- 9 -->
<g id="node11" class="node">
<title>9</title>
<ellipse fill="none" stroke="black" cx="649" cy="-596.49" rx="18" ry="18"/>
<ellipse fill="none" stroke="black" cx="649" cy="-596.49" rx="22" ry="22"/>
<text text-anchor="middle" x="649" y="-592.79" font-family="Times,serif" font-size="14.00">9</text>
</g>
<!-- 3&#45;&gt;9 -->
<g id="edge100" class="edge">
<title>3&#45;&gt;9</title>
<path fill="none" stroke="black" d="M813.81,-2104.08C699.85,-2104.24 264.35,-2102.66 214,-2068.98 193.51,-2055.28 190,-2043.63 190,-2018.98 190,-2018.98 190,-2018.98 190,-1538.48 190,-1447.74 266,-1439.73 266,-1348.99 266,-1348.99 266,-1348.99 266,-998.99 266,-897.91 353.96,-908.24 422,-833.49 435.14,-819.05 438.74,-815.68 451,-800.49 496.51,-744.12 496.31,-720.25 548,-669.49 570.45,-647.44 600.18,-627.1 621.56,-613.71"/>
<polygon fill="black" stroke="black" points="623.49,-616.63 630.17,-608.41 619.82,-610.67 623.49,-616.63"/>
<text text-anchor="middle" x="271" y="-1344.29" font-family="Times,serif" font-size="14.00">2</text>
</g>
<!-- 3&#45;&gt;18 -->
<g id="edge8" class="edge">
<title>3&#45;&gt;18</title>
<path fill="none" stroke="black" d="M813.95,-2104.31C706.8,-2105.32 312.25,-2106.38 194,-2068.98 154.02,-2056.34 114,-2060.91 114,-2018.98 114,-2018.98 114,-2018.98 114,-1712.48 114,-1434.93 114,-1365.54 114,-1087.99 114,-1087.99 114,-1087.99 114,-547.99 114,-361.03 258.82,-335.13 437,-278.5 577.75,-233.76 1042.35,-215.92 1177.69,-211.6"/>
<polygon fill="black" stroke="black" points="1178.07,-215.09 1187.95,-211.27 1177.85,-208.09 1178.07,-215.09"/>
<text text-anchor="middle" x="119" y="-1170.29" font-family="Times,serif" font-size="14.00">4</text>
</g>
<!-- 3&#45;&gt;21 -->
<g id="edge98" class="edge">
<title>3&#45;&gt;21</title>
<path fill="none" stroke="black" d="M814.22,-2101.91C715.83,-2093.93 380,-2063.44 380,-2018.98 380,-2018.98 380,-2018.98 380,-1886.48 380,-1823.07 442,-1821.4 442,-1757.98 442,-1757.98 442,-1757.98 442,-1486.24 442,-1438.29 500.46,-1412.71 539.86,-1400.92"/>
<polygon fill="black" stroke="black" points="541,-1404.23 549.67,-1398.14 539.1,-1397.5 541,-1404.23"/>
<text text-anchor="middle" x="447" y="-1753.28" font-family="Times,serif" font-size="14.00">0</text>
</g>
<!-- 27 -->
<g id="node29" class="node">
<title>27</title>
<ellipse fill="none" stroke="black" cx="1910" cy="-2017.98" rx="27" ry="18"/>
<text text-anchor="middle" x="1910" y="-2014.28" font-family="Times,serif" font-size="14.00">27</text>
</g>
<!-- 3&#45;&gt;27 -->
<g id="edge139" class="edge">
<title>3&#45;&gt;27</title>
<path fill="none" stroke="black" d="M868.1,-2104.28C970.91,-2105.08 1346.47,-2105.2 1653,-2068.98 1733.28,-2059.5 1826.06,-2039.06 1875.22,-2027.47"/>
<polygon fill="black" stroke="black" points="1876.11,-2030.85 1885.02,-2025.13 1874.49,-2024.04 1876.11,-2030.85"/>
<text text-anchor="middle" x="1750" y="-2057.78" font-family="Times,serif" font-size="14.00">1</text>
</g>
<!-- 4 -->
<g id="node6" class="node">
<title>4</title>
<ellipse fill="none" stroke="black" cx="1856" cy="-1582.98" rx="27" ry="18"/>
<text text-anchor="middle" x="1856" y="-1579.28" font-family="Times,serif" font-size="14.00">4</text>
</g>
<!-- 4&#45;&gt;2 -->
<g id="edge77" class="edge">
<title>4&#45;&gt;2</title>
<path fill="none" stroke="black" d="M1848.92,-1600.72C1836.69,-1628.2 1809.48,-1683.57 1774,-1720.98 1767.35,-1728 1759.05,-1734.36 1751.05,-1739.68"/>
<polygon fill="black" stroke="black" points="1749.17,-1736.73 1742.57,-1745.02 1752.9,-1742.65 1749.17,-1736.73"/>
<text text-anchor="middle" x="1827" y="-1666.28" font-family="Times,serif" font-size="14.00">1</text>
</g>
<!-- 4&#45;&gt;2 -->
<g id="edge146" class="edge">
<title>4&#45;&gt;2</title>
<path fill="none" stroke="black" d="M1855.78,-1601.08C1854.77,-1622.78 1850.54,-1660.68 1834,-1687.98 1816.65,-1716.62 1782.22,-1734.81 1756.09,-1745.09"/>
<polygon fill="black" stroke="black" points="1754.69,-1741.88 1746.54,-1748.65 1757.13,-1748.44 1754.69,-1741.88"/>
<text text-anchor="middle" x="1853" y="-1666.28" font-family="Times,serif" font-size="14.00">0</text>
</g>
<!-- 4&#45;&gt;19 -->
<g id="edge84" class="edge">
<title>4&#45;&gt;19</title>
<path fill="none" stroke="black" d="M1866.76,-1566.08C1870.37,-1560.25 1874.19,-1553.49 1877,-1546.98 1908.78,-1473.43 1886.59,-1443.25 1926,-1373.49 1983.53,-1271.64 2047.07,-1282.53 2106,-1181.49 2158.55,-1091.39 2176,-1061.79 2176,-957.49 2176,-957.49 2176,-957.49 2176,-547.99 2176,-356.54 2146.51,-271.54 1992,-158.5 1946.89,-125.49 1779.8,-117.38 1704.37,-115.39"/>
<polygon fill="black" stroke="black" points="1704.02,-111.88 1693.93,-115.14 1703.85,-118.88 1704.02,-111.88"/>
<text text-anchor="middle" x="2181" y="-865.79" font-family="Times,serif" font-size="14.00">4</text>
</g>
<!-- 4&#45;&gt;22 -->
<g id="edge148" class="edge">
<title>4&#45;&gt;22</title>
<path fill="none" stroke="black" d="M1859.14,-1564.94C1874.39,-1481.59 1940,-1116.28 1940,-1000.99 1940,-1000.99 1940,-1000.99 1940,-595.49 1940,-561.5 1910.68,-532.85 1887.55,-515.52"/>
<polygon fill="black" stroke="black" points="1889.53,-512.64 1879.37,-509.66 1885.46,-518.33 1889.53,-512.64"/>
<text text-anchor="middle" x="1944" y="-1039.79" font-family="Times,serif" font-size="14.00">3</text>
</g>
<!-- 26 -->
<g id="node28" class="node">
<title>26</title>
<ellipse fill="none" stroke="black" cx="1419" cy="-1043.49" rx="27" ry="18"/>
<text text-anchor="middle" x="1419" y="-1039.79" font-family="Times,serif" font-size="14.00">26</text>
</g>
<!-- 4&#45;&gt;26 -->
<g id="edge4" class="edge">
<title>4&#45;&gt;26</title>
<path fill="none" stroke="black" d="M1845.94,-1565.86C1831,-1542.2 1801.72,-1496.95 1774,-1460.49 1654.66,-1303.53 1495.32,-1127.46 1439.42,-1066.58"/>
<polygon fill="black" stroke="black" points="1441.87,-1064.08 1432.52,-1059.09 1436.72,-1068.82 1441.87,-1064.08"/>
<text text-anchor="middle" x="1668" y="-1300.79" font-family="Times,serif" font-size="14.00">2</text>
</g>
<!-- 10 -->
<g id="node12" class="node">
<title>10</title>
<ellipse fill="none" stroke="black" cx="1276" cy="-869.49" rx="27" ry="18"/>
<text text-anchor="middle" x="1276" y="-865.79" font-family="Times,serif" font-size="14.00">10</text>
</g>
<!-- 5&#45;&gt;10 -->
<g id="edge92" class="edge">
<title>5&#45;&gt;10</title>
<path fill="none" stroke="black" d="M311.95,-23.08C352.53,-29.49 433.46,-42.38 502,-54 980.2,-135.05 1245.74,15.29 1383,-278.5 1399.89,-314.64 1358.88,-596.7 1356,-636.49 1350.73,-709.32 1376.47,-734.12 1346,-800.49 1336.7,-820.76 1318.45,-838.16 1302.92,-850.28"/>
<polygon fill="black" stroke="black" points="1300.57,-847.67 1294.65,-856.46 1304.76,-853.28 1300.57,-847.67"/>
<text text-anchor="middle" x="1383" y="-440.79" font-family="Times,serif" font-size="14.00">2</text>
</g>
<!-- 11 -->
<g id="node13" class="node">
<title>11</title>
<ellipse fill="none" stroke="black" cx="342" cy="-1217.49" rx="27" ry="18"/>
<text text-anchor="middle" x="342" y="-1213.79" font-family="Times,serif" font-size="14.00">11</text>
</g>
<!-- 5&#45;&gt;11 -->
<g id="edge69" class="edge">
<title>5&#45;&gt;11</title>
<path fill="none" stroke="black" d="M270.46,-32.92C253.28,-49.91 228,-80.4 228,-112.75 228,-341 228,-341 228,-341 228,-433.51 206,-455.47 206,-547.99 206,-692.49 206,-692.49 206,-692.49 206,-752.18 228,-765.29 228,-824.99 228,-1087.99 228,-1087.99 228,-1087.99 228,-1139.18 279.26,-1179.5 313.03,-1200.51"/>
<polygon fill="black" stroke="black" points="311.25,-1203.52 321.62,-1205.67 314.85,-1197.52 311.25,-1203.52"/>
<text text-anchor="middle" x="211" y="-640.29" font-family="Times,serif" font-size="14.00">3</text>
</g>
<!-- 5&#45;&gt;11 -->
<g id="edge102" class="edge">
<title>5&#45;&gt;11</title>
<path fill="none" stroke="black" d="M260.8,-24.51C221.98,-34.65 152,-60.22 152,-112.75 152,-1087.99 152,-1087.99 152,-1087.99 152,-1161.69 251.3,-1195.99 306.33,-1209.33"/>
<polygon fill="black" stroke="black" points="305.84,-1212.81 316.38,-1211.66 307.42,-1205.99 305.84,-1212.81"/>
<text text-anchor="middle" x="157" y="-640.29" font-family="Times,serif" font-size="14.00">4</text>
</g>
<!-- 15 -->
<g id="node17" class="node">
<title>15</title>
<ellipse fill="none" stroke="black" cx="1103" cy="-1843.98" rx="27" ry="18"/>
<text text-anchor="middle" x="1103" y="-1840.28" font-family="Times,serif" font-size="14.00">15</text>
</g>
<!-- 5&#45;&gt;15 -->
<g id="edge141" class="edge">
<title>5&#45;&gt;15</title>
<path fill="none" stroke="black" d="M293,-35.62C295.34,-41.4 297.88,-47.95 300,-54 419.29,-395.48 407.87,-494.48 534,-833.49 590.54,-985.45 621.09,-1016.63 683,-1166.49 793.45,-1433.84 809.65,-1505.19 914,-1774.98 919.69,-1789.69 914.9,-1797.88 927,-1807.98 947.74,-1825.31 1021.2,-1835.23 1066.4,-1839.82"/>
<polygon fill="black" stroke="black" points="1066.11,-1843.31 1076.41,-1840.8 1066.79,-1836.34 1066.11,-1843.31"/>
<text text-anchor="middle" x="599" y="-952.79" font-family="Times,serif" font-size="14.00">0</text>
</g>
<!-- 5&#45;&gt;17 -->
<g id="edge125" class="edge">
<title>5&#45;&gt;17</title>
<path fill="none" stroke="black" d="M259.93,-23.14C196.26,-33.99 38,-65.68 38,-112.75 38,-1087.99 38,-1087.99 38,-1087.99 38,-1128.76 272.28,-1741.83 296,-1774.98 344.87,-1843.29 364.96,-1861.53 442,-1894.98 482.14,-1912.41 606.95,-1923.16 669.9,-1927.61"/>
<polygon fill="black" stroke="black" points="669.96,-1931.12 680.18,-1928.32 670.44,-1924.14 669.96,-1931.12"/>
<text text-anchor="middle" x="43" y="-996.29" font-family="Times,serif" font-size="14.00">1</text>
</g>
<!-- 6 -->
<g id="node8" class="node">
<title>6</title>
<ellipse fill="none" stroke="black" cx="636" cy="-691.49" rx="18" ry="18"/>
<ellipse fill="none" stroke="black" cx="636" cy="-691.49" rx="22" ry="22"/>
<text text-anchor="middle" x="636" y="-687.79" font-family="Times,serif" font-size="14.00">6</text>
</g>
<!-- 6&#45;&gt;6 -->
<g id="edge56" class="edge">
<title>6&#45;&gt;6</title>
<path fill="none" stroke="black" d="M656.58,-699.86C666.84,-701.02 676,-698.23 676,-691.49 676,-687.17 672.24,-684.47 666.84,-683.4"/>
<polygon fill="black" stroke="black" points="666.67,-679.89 656.58,-683.12 666.48,-686.89 666.67,-679.89"/>
<text text-anchor="middle" x="681" y="-687.79" font-family="Times,serif" font-size="14.00">2</text>
</g>
<!-- 6&#45;&gt;9 -->
<g id="edge37" class="edge">
<title>6&#45;&gt;9</title>
<path fill="none" stroke="black" d="M638.95,-669.38C640.63,-657.38 642.76,-642.11 644.63,-628.73"/>
<polygon fill="black" stroke="black" points="648.14,-628.9 646.06,-618.51 641.21,-627.93 648.14,-628.9"/>
<text text-anchor="middle" x="649" y="-640.29" font-family="Times,serif" font-size="14.00">3</text>
</g>
<!-- 24 -->
<g id="node26" class="node">
<title>24</title>
<ellipse fill="none" stroke="black" cx="484" cy="-1304.49" rx="27" ry="18"/>
<text text-anchor="middle" x="484" y="-1300.79" font-family="Times,serif" font-size="14.00">24</text>
</g>
<!-- 6&#45;&gt;24 -->
<g id="edge48" class="edge">
<title>6&#45;&gt;24</title>
<path fill="none" stroke="black" d="M623.33,-709.89C618.82,-716.48 613.9,-724.16 610,-731.49 549.61,-844.97 500,-870.44 500,-998.99 500,-1218.49 500,-1218.49 500,-1218.49 500,-1238.2 495.79,-1260.04 491.7,-1276.65"/>
<polygon fill="black" stroke="black" points="488.2,-1276.17 489.06,-1286.73 494.98,-1277.94 488.2,-1276.17"/>
<text text-anchor="middle" x="505" y="-996.29" font-family="Times,serif" font-size="14.00">4</text>
</g>
<!-- 6&#45;&gt;24 -->
<g id="edge137" class="edge">
<title>6&#45;&gt;24</title>
<path fill="none" stroke="black" d="M637,-713.69C638.59,-761.6 638.74,-881.31 607,-974.49 588.21,-1029.65 538,-1027.71 538,-1085.99 538,-1218.49 538,-1218.49 538,-1218.49 538,-1243.13 521.63,-1266.4 506.92,-1282.34"/>
<polygon fill="black" stroke="black" points="504.37,-1279.94 499.91,-1289.55 509.39,-1284.82 504.37,-1279.94"/>
<text text-anchor="middle" x="604" y="-996.29" font-family="Times,serif" font-size="14.00">0</text>
</g>
<!-- 6&#45;&gt;29 -->
<g id="edge74" class="edge">
<title>6&#45;&gt;29</title>
<path fill="none" stroke="black" d="M622.83,-673.65C583.86,-621.67 475.05,-459.53 528,-332.5 595.65,-170.2 647.8,-124.23 809,-54 884.83,-20.97 1473.97,-18.9 1629.47,-18.94"/>
<polygon fill="black" stroke="black" points="1629.9,-22.44 1639.9,-18.95 1629.91,-15.44 1629.9,-22.44"/>
<text text-anchor="middle" x="533" y="-336.3" font-family="Times,serif" font-size="14.00">1</text>
</g>
<!-- 7&#45;&gt;1 -->
<g id="edge86" class="edge">
<title>7&#45;&gt;1</title>
<path fill="none" stroke="black" d="M1466.28,-1657.9C1456.62,-1651.88 1445.62,-1643.69 1438,-1633.98 1432.64,-1627.16 1428.54,-1618.71 1425.49,-1610.71"/>
<polygon fill="black" stroke="black" points="1428.71,-1609.31 1422.17,-1600.98 1422.08,-1611.57 1428.71,-1609.31"/>
<text text-anchor="middle" x="1443" y="-1622.78" font-family="Times,serif" font-size="14.00">1</text>
</g>
<!-- 7&#45;&gt;3 -->
<g id="edge14" class="edge">
<title>7&#45;&gt;3</title>
<path fill="none" stroke="black" d="M1488.61,-1688.22C1490.07,-1705.38 1492,-1732.48 1492,-1755.98 1492,-2018.98 1492,-2018.98 1492,-2018.98 1492,-2081.33 1016.45,-2099.2 878.24,-2103.07"/>
<polygon fill="black" stroke="black" points="878.04,-2099.57 868.14,-2103.35 878.24,-2106.57 878.04,-2099.57"/>
<text text-anchor="middle" x="1497" y="-1883.78" font-family="Times,serif" font-size="14.00">0</text>
</g>
<!-- 7&#45;&gt;4 -->
<g id="edge101" class="edge">
<title>7&#45;&gt;4</title>
<path fill="none" stroke="black" d="M1512.07,-1663.21C1576.37,-1648.4 1747.23,-1609.04 1821.13,-1592.02"/>
<polygon fill="black" stroke="black" points="1821.93,-1595.42 1830.89,-1589.77 1820.36,-1588.6 1821.93,-1595.42"/>
<text text-anchor="middle" x="1698" y="-1622.78" font-family="Times,serif" font-size="14.00">4</text>
</g>
<!-- 7&#45;&gt;15 -->
<g id="edge85" class="edge">
<title>7&#45;&gt;15</title>
<path fill="none" stroke="black" d="M1465.02,-1680.83C1400.18,-1709.87 1209.55,-1795.26 1134.18,-1829.02"/>
<polygon fill="black" stroke="black" points="1132.44,-1825.96 1124.75,-1833.24 1135.3,-1832.35 1132.44,-1825.96"/>
<text text-anchor="middle" x="1338" y="-1753.28" font-family="Times,serif" font-size="14.00">3</text>
</g>
<!-- 25 -->
<g id="node27" class="node">
<title>25</title>
<ellipse fill="none" stroke="black" cx="1805" cy="-392.24" rx="27" ry="18"/>
<text text-anchor="middle" x="1805" y="-388.54" font-family="Times,serif" font-size="14.00">25</text>
</g>
<!-- 7&#45;&gt;25 -->
<g id="edge7" class="edge">
<title>7&#45;&gt;25</title>
<path fill="none" stroke="black" d="M1488.06,-1651.8C1490.75,-1611.95 1499.07,-1510.32 1518,-1427.49 1532.72,-1363.09 1541.74,-1348.31 1565,-1286.49 1588.43,-1224.22 1599.7,-1210.8 1623,-1148.49 1660.36,-1048.57 1670.68,-1023.6 1698,-920.49 1748.15,-731.21 1787.92,-498.36 1800.68,-420.23"/>
<polygon fill="black" stroke="black" points="1804.15,-420.69 1802.3,-410.26 1797.24,-419.57 1804.15,-420.69"/>
<text text-anchor="middle" x="1672" y="-1039.79" font-family="Times,serif" font-size="14.00">2</text>
</g>
<!-- 8&#45;&gt;0 -->
<g id="edge105" class="edge">
<title>8&#45;&gt;0</title>
<path fill="none" stroke="black" d="M2085.18,-798.14C2090.21,-804.05 2095.49,-811.2 2099,-818.49 2107.9,-836.96 2262,-1517.98 2262,-1538.48 2262,-2105.98 2262,-2105.98 2262,-2105.98 2262,-2150.3 2118.95,-2176.27 2049.7,-2186.24"/>
<polygon fill="black" stroke="black" points="2049.06,-2182.8 2039.65,-2187.65 2050.04,-2189.73 2049.06,-2182.8"/>
<text text-anchor="middle" x="2262" y="-1483.54" font-family="Times,serif" font-size="14.00">4</text>
</g>
<!-- 8&#45;&gt;6 -->
<g id="edge119" class="edge">
<title>8&#45;&gt;6</title>
<path fill="none" stroke="black" d="M2044.25,-779.83C1866.79,-768.82 860.8,-706.43 667.96,-694.47"/>
<polygon fill="black" stroke="black" points="668.1,-690.97 657.91,-693.85 667.67,-697.96 668.1,-690.97"/>
<text text-anchor="middle" x="1487" y="-735.29" font-family="Times,serif" font-size="14.00">0</text>
</g>
<!-- 8&#45;&gt;25 -->
<g id="edge11" class="edge">
<title>8&#45;&gt;25</title>
<path fill="none" stroke="black" d="M2079.7,-765.27C2088.24,-747.82 2100,-718.98 2100,-692.49 2100,-692.49 2100,-692.49 2100,-495.74 2100,-441.58 1920.34,-409.53 1841.43,-398.07"/>
<polygon fill="black" stroke="black" points="1841.83,-394.59 1831.44,-396.65 1840.85,-401.52 1841.83,-394.59"/>
<text text-anchor="middle" x="2105" y="-592.79" font-family="Times,serif" font-size="14.00">3</text>
</g>
<!-- 8&#45;&gt;26 -->
<g id="edge94" class="edge">
<title>8&#45;&gt;26</title>
<path fill="none" stroke="black" d="M2048.65,-792.59C1973.17,-823.28 1720.73,-925.65 1511,-1007.49 1491.44,-1015.12 1469.46,-1023.49 1451.89,-1030.13"/>
<polygon fill="black" stroke="black" points="1450.23,-1027.02 1442.11,-1033.82 1452.7,-1033.57 1450.23,-1027.02"/>
<text text-anchor="middle" x="1770" y="-909.29" font-family="Times,serif" font-size="14.00">1</text>
</g>
<!-- 8&#45;&gt;27 -->
<g id="edge5" class="edge">
<title>8&#45;&gt;27</title>
<path fill="none" stroke="black" d="M2067.31,-800.44C2062.31,-824.93 2054,-871.71 2054,-911.99 2054,-1174.99 2054,-1174.99 2054,-1174.99 2054,-1280.18 2058.34,-1308 2086,-1409.49 2102.34,-1469.45 2140,-1476.33 2140,-1538.48 2140,-1714.48 2140,-1714.48 2140,-1714.48 2140,-1848.26 2101.77,-1892.87 2002,-1981.98 1986.3,-1996.01 1964.41,-2004.64 1945.92,-2009.82"/>
<polygon fill="black" stroke="black" points="1944.87,-2006.48 1936.05,-2012.36 1946.61,-2013.26 1944.87,-2006.48"/>
<text text-anchor="middle" x="2091" y="-1387.79" font-family="Times,serif" font-size="14.00">2</text>
</g>
<!-- 9&#45;&gt;5 -->
<g id="edge95" class="edge">
<title>9&#45;&gt;5</title>
<path fill="none" stroke="black" d="M627.02,-595.27C577.76,-593.68 456.97,-583.49 382,-523.49 310.45,-466.22 286,-432.64 286,-341 286,-341 286,-341 286,-112.75 286,-90.44 286,-65.13 286,-46.45"/>
<polygon fill="black" stroke="black" points="289.5,-46.28 286,-36.28 282.5,-46.28 289.5,-46.28"/>
<text text-anchor="middle" x="291" y="-292.8" font-family="Times,serif" font-size="14.00">2</text>
</g>
<!-- 12 -->
<g id="node14" class="node">
<title>12</title>
<ellipse fill="none" stroke="black" cx="717" cy="-496.74" rx="22.96" ry="22.96"/>
<ellipse fill="none" stroke="black" cx="717" cy="-496.74" rx="27" ry="27"/>
<text text-anchor="middle" x="717" y="-493.04" font-family="Times,serif" font-size="14.00">12</text>
</g>
<!-- 9&#45;&gt;12 -->
<g id="edge126" class="edge">
<title>9&#45;&gt;12</title>
<path fill="none" stroke="black" d="M647.4,-574.47C647.54,-563.92 649.2,-551.32 655,-541.49 657.09,-537.96 671.82,-527.5 686.4,-517.7"/>
<polygon fill="black" stroke="black" points="688.48,-520.52 694.87,-512.06 684.6,-514.69 688.48,-520.52"/>
<text text-anchor="middle" x="660" y="-545.29" font-family="Times,serif" font-size="14.00">1</text>
</g>
<!-- 20 -->
<g id="node22" class="node">
<title>20</title>
<ellipse fill="none" stroke="black" cx="1101" cy="-296.5" rx="27" ry="18"/>
<text text-anchor="middle" x="1101" y="-292.8" font-family="Times,serif" font-size="14.00">20</text>
</g>
<!-- 9&#45;&gt;20 -->
<g id="edge42" class="edge">
<title>9&#45;&gt;20</title>
<path fill="none" stroke="black" d="M646.58,-574.52C641.85,-521.83 638.14,-384.44 720,-332.5 761.04,-306.45 889.6,-319.02 938,-314.5 981.46,-310.44 1031.36,-305.14 1064.38,-301.54"/>
<polygon fill="black" stroke="black" points="1064.92,-305.01 1074.48,-300.44 1064.16,-298.05 1064.92,-305.01"/>
<text text-anchor="middle" x="659" y="-440.79" font-family="Times,serif" font-size="14.00">3</text>
</g>
<!-- 9&#45;&gt;20 -->
<g id="edge61" class="edge">
<title>9&#45;&gt;20</title>
<path fill="none" stroke="black" d="M669.91,-588.29C695.22,-578.28 736.49,-557.46 753,-523.49 763.39,-502.1 755.59,-493.63 753,-469.99 752.11,-461.85 749.89,-460.14 749,-451.99 748.27,-445.37 746.62,-443.22 749,-436.99 764.23,-397.15 776.34,-387.29 813,-365.5 893.86,-317.43 1006.39,-303.34 1063.91,-299.21"/>
<polygon fill="black" stroke="black" points="1064.24,-302.69 1073.99,-298.54 1063.79,-295.71 1064.24,-302.69"/>
<text text-anchor="middle" x="754" y="-440.79" font-family="Times,serif" font-size="14.00">0</text>
</g>
<!-- 9&#45;&gt;22 -->
<g id="edge93" class="edge">
<title>9&#45;&gt;22</title>
<path fill="none" stroke="black" d="M671.37,-594.49C740.59,-591.4 957.37,-581.79 1137,-574.49 1346.31,-565.98 1400.38,-584.4 1608,-556.49 1687.23,-545.84 1778.07,-521.61 1826.1,-507.82"/>
<polygon fill="black" stroke="black" points="1827.33,-511.11 1835.96,-504.97 1825.38,-504.39 1827.33,-511.11"/>
<text text-anchor="middle" x="1696" y="-545.29" font-family="Times,serif" font-size="14.00">4</text>
</g>
<!-- 10&#45;&gt;6 -->
<g id="edge45" class="edge">
<title>10&#45;&gt;6</title>
<path fill="none" stroke="black" d="M1251.56,-861.41C1228.94,-854.71 1194.46,-844.13 1165,-833.49 1088.69,-805.93 1073.68,-787.88 996,-764.49 877.44,-728.78 731.52,-705.81 668.03,-696.8"/>
<polygon fill="black" stroke="black" points="668.25,-693.3 657.86,-695.38 667.28,-700.23 668.25,-693.3"/>
<text text-anchor="middle" x="1093" y="-778.79" font-family="Times,serif" font-size="14.00">0</text>
</g>
<!-- 10&#45;&gt;8 -->
<g id="edge136" class="edge">
<title>10&#45;&gt;8</title>
<path fill="none" stroke="black" d="M1302.45,-865.66C1420.35,-853.05 1898.13,-801.97 2034.5,-787.39"/>
<polygon fill="black" stroke="black" points="2034.88,-790.87 2044.45,-786.33 2034.13,-783.91 2034.88,-790.87"/>
<text text-anchor="middle" x="1726" y="-822.29" font-family="Times,serif" font-size="14.00">2</text>
</g>
<!-- 10&#45;&gt;12 -->
<g id="edge52" class="edge">
<title>10&#45;&gt;12</title>
<path fill="none" stroke="black" d="M1257.4,-856.15C1175.84,-802.06 849.37,-585.54 747.51,-517.98"/>
<polygon fill="black" stroke="black" points="749.19,-514.89 738.92,-512.28 745.32,-520.72 749.19,-514.89"/>
<text text-anchor="middle" x="1046" y="-687.79" font-family="Times,serif" font-size="14.00">1</text>
</g>
<!-- 10&#45;&gt;16 -->
<g id="edge134" class="edge">
<title>10&#45;&gt;16</title>
<path fill="none" stroke="black" d="M1274.78,-887.86C1273.38,-898.06 1270.39,-910.8 1264,-920.49 1259.35,-927.53 1252.78,-933.69 1246.02,-938.79"/>
<polygon fill="black" stroke="black" points="1243.73,-936.12 1237.49,-944.68 1247.7,-941.88 1243.73,-936.12"/>
<text text-anchor="middle" x="1275" y="-909.29" font-family="Times,serif" font-size="14.00">4</text>
</g>
<!-- 10&#45;&gt;18 -->
<g id="edge108" class="edge">
<title>10&#45;&gt;18</title>
<path fill="none" stroke="black" d="M1274.65,-851.29C1272.42,-822.69 1267.81,-763.54 1264,-713.49 1248.17,-505.51 1276.06,-448.7 1229,-245.5 1228.3,-242.47 1227.38,-239.36 1226.34,-236.31"/>
<polygon fill="black" stroke="black" points="1229.59,-235 1222.76,-226.9 1223.04,-237.49 1229.59,-235"/>
<text text-anchor="middle" x="1263" y="-545.29" font-family="Times,serif" font-size="14.00">3</text>
</g>
<!-- 11&#45;&gt;13 -->
<g id="edge81" class="edge">
<title>11&#45;&gt;13</title>
<path fill="none" stroke="black" d="M368.61,-1214.34C511.98,-1202.79 1192.29,-1147.98 1359.71,-1134.49"/>
<polygon fill="black" stroke="black" points="1360.3,-1137.96 1369.98,-1133.66 1359.74,-1130.98 1360.3,-1137.96"/>
<text text-anchor="middle" x="938" y="-1170.29" font-family="Times,serif" font-size="14.00">2</text>
</g>
<!-- 11&#45;&gt;17 -->
<g id="edge22" class="edge">
<title>11&#45;&gt;17</title>
<path fill="none" stroke="black" d="M333.4,-1234.78C330.81,-1240.52 328.3,-1247.14 327,-1253.49 325.66,-1260.02 326.72,-1261.83 327,-1268.49 331.67,-1381.33 305.89,-1681.32 369,-1774.98 370.76,-1777.59 467.25,-1824.46 470,-1825.98 521.42,-1854.6 529.07,-1871.44 583,-1894.98 611.65,-1907.49 645.97,-1916.77 671.23,-1922.62"/>
<polygon fill="black" stroke="black" points="670.6,-1926.07 681.12,-1924.85 672.13,-1919.24 670.6,-1926.07"/>
<text text-anchor="middle" x="334" y="-1579.28" font-family="Times,serif" font-size="14.00">0</text>
</g>
<!-- 23 -->
<g id="node25" class="node">
<title>23</title>
<ellipse fill="none" stroke="black" cx="849" cy="-392.24" rx="22.96" ry="22.96"/>
<ellipse fill="none" stroke="black" cx="849" cy="-392.24" rx="27" ry="27"/>
<text text-anchor="middle" x="849" y="-388.54" font-family="Times,serif" font-size="14.00">23</text>
</g>
<!-- 11&#45;&gt;23 -->
<g id="edge71" class="edge">
<title>11&#45;&gt;23</title>
<path fill="none" stroke="black" d="M342,-1199.23C342,-1182.06 342,-1154.95 342,-1131.49 342,-1131.49 342,-1131.49 342,-911.99 342,-846.14 311.17,-828.15 328,-764.49 355.92,-658.86 397.59,-641.36 484,-574.49 552.35,-521.59 570.79,-508.83 648,-469.99 703.99,-441.83 772.93,-417.62 813.79,-404.27"/>
<polygon fill="black" stroke="black" points="815.11,-407.52 823.55,-401.12 812.96,-400.86 815.11,-407.52"/>
<text text-anchor="middle" x="333" y="-822.29" font-family="Times,serif" font-size="14.00">1</text>
</g>
<!-- 11&#45;&gt;24 -->
<g id="edge38" class="edge">
<title>11&#45;&gt;24</title>
<path fill="none" stroke="black" d="M333.95,-1234.99C330.04,-1245.62 327.6,-1259.14 335,-1268.49 348.75,-1285.84 407.71,-1295.43 447.22,-1300.01"/>
<polygon fill="black" stroke="black" points="446.97,-1303.51 457.29,-1301.12 447.74,-1296.55 446.97,-1303.51"/>
<text text-anchor="middle" x="340" y="-1257.29" font-family="Times,serif" font-size="14.00">4</text>
</g>
<!-- 11&#45;&gt;24 -->
<g id="edge143" class="edge">
<title>11&#45;&gt;24</title>
<path fill="none" stroke="black" d="M346.67,-1235.55C350.47,-1246.42 356.9,-1260 367,-1268.49 389.44,-1287.35 421.76,-1296.04 446.75,-1300.05"/>
<polygon fill="black" stroke="black" points="446.57,-1303.56 456.96,-1301.5 447.55,-1296.63 446.57,-1303.56"/>
<text text-anchor="middle" x="372" y="-1257.29" font-family="Times,serif" font-size="14.00">3</text>
</g>
<!-- 12&#45;&gt;9 -->
<g id="edge24" class="edge">
<title>12&#45;&gt;9</title>
<path fill="none" stroke="black" d="M698.5,-516.52C691.64,-523.97 684.07,-532.82 678,-541.49 672.36,-549.56 667,-558.85 662.47,-567.42"/>
<polygon fill="black" stroke="black" points="659.34,-565.86 657.89,-576.35 665.57,-569.05 659.34,-565.86"/>
<text text-anchor="middle" x="683" y="-545.29" font-family="Times,serif" font-size="14.00">4</text>
</g>
<!-- 12&#45;&gt;9 -->
<g id="edge35" class="edge">
<title>12&#45;&gt;9</title>
<path fill="none" stroke="black" d="M707.23,-521.9C702.25,-532.92 695.62,-545.86 688,-556.49 683.55,-562.69 678.09,-568.82 672.68,-574.31"/>
<polygon fill="black" stroke="black" points="670.16,-571.87 665.43,-581.35 675.04,-576.89 670.16,-571.87"/>
<text text-anchor="middle" x="702" y="-545.29" font-family="Times,serif" font-size="14.00">2</text>
</g>
<!-- 12&#45;&gt;13 -->
<g id="edge135" class="edge">
<title>12&#45;&gt;13</title>
<path fill="none" stroke="black" d="M732.42,-518.98C737.11,-525.96 742.07,-533.88 746,-541.49 802.64,-651.11 786.25,-692.52 846,-800.49 885.51,-871.88 995.06,-1054.16 1066,-1094.49 1115.42,-1122.58 1284.38,-1128.16 1359.95,-1129.25"/>
<polygon fill="black" stroke="black" points="1359.93,-1132.75 1369.97,-1129.37 1360.02,-1125.75 1359.93,-1132.75"/>
<text text-anchor="middle" x="870" y="-822.29" font-family="Times,serif" font-size="14.00">0</text>
</g>
<!-- 12&#45;&gt;20 -->
<g id="edge109" class="edge">
<title>12&#45;&gt;20</title>
<path fill="none" stroke="black" d="M710.68,-470.61C703.06,-433.57 695.82,-365.17 736,-332.5 753.48,-318.28 915.57,-316.66 938,-314.5 981.44,-310.3 1031.35,-305.02 1064.37,-301.47"/>
<polygon fill="black" stroke="black" points="1064.91,-304.94 1074.47,-300.39 1064.16,-297.98 1064.91,-304.94"/>
<text text-anchor="middle" x="718" y="-388.54" font-family="Times,serif" font-size="14.00">3</text>
</g>
<!-- 12&#45;&gt;23 -->
<g id="edge53" class="edge">
<title>12&#45;&gt;23</title>
<path fill="none" stroke="black" d="M735.11,-476.71C747.03,-464.68 763.28,-449.15 779,-436.99 790.95,-427.75 804.93,-418.7 817.23,-411.25"/>
<polygon fill="black" stroke="black" points="819.04,-414.25 825.85,-406.13 815.47,-408.23 819.04,-414.25"/>
<text text-anchor="middle" x="784" y="-440.79" font-family="Times,serif" font-size="14.00">1</text>
</g>
<!-- 13&#45;&gt;1 -->
<g id="edge110" class="edge">
<title>13&#45;&gt;1</title>
<path fill="none" stroke="black" d="M1391.62,-1148.22C1386.64,-1165.23 1380,-1192.41 1380,-1216.49 1380,-1488.24 1380,-1488.24 1380,-1488.24 1380,-1513.06 1391.59,-1539.05 1401.96,-1557.36"/>
<polygon fill="black" stroke="black" points="1399.09,-1559.37 1407.21,-1566.18 1405.11,-1555.8 1399.09,-1559.37"/>
<text text-anchor="middle" x="1385" y="-1344.29" font-family="Times,serif" font-size="14.00">4</text>
</g>
<!-- 13&#45;&gt;9 -->
<g id="edge23" class="edge">
<title>13&#45;&gt;9</title>
<path fill="none" stroke="black" d="M1369.87,-1129.08C1296.78,-1127.62 1097.29,-1121.24 1038,-1094.49 962.66,-1060.5 816.78,-903.6 773,-833.49 730.25,-765.03 734.14,-740.08 695,-669.49 686.33,-653.84 675.62,-636.96 666.72,-623.48"/>
<polygon fill="black" stroke="black" points="669.63,-621.54 661.17,-615.16 663.8,-625.42 669.63,-621.54"/>
<text text-anchor="middle" x="818" y="-865.79" font-family="Times,serif" font-size="14.00">0</text>
</g>
<!-- 13&#45;&gt;20 -->
<g id="edge114" class="edge">
<title>13&#45;&gt;20</title>
<path fill="none" stroke="black" d="M1412.05,-1115.42C1425.06,-1102.51 1443.54,-1082.28 1455,-1061.49 1521.02,-941.65 1577.95,-894.72 1536,-764.49 1464.06,-541.13 1213.44,-367.73 1129.01,-314.49"/>
<polygon fill="black" stroke="black" points="1130.8,-311.48 1120.46,-309.15 1127.09,-317.42 1130.8,-311.48"/>
<text text-anchor="middle" x="1534" y="-735.29" font-family="Times,serif" font-size="14.00">1</text>
</g>
<!-- 13&#45;&gt;26 -->
<g id="edge18" class="edge">
<title>13&#45;&gt;26</title>
<path fill="none" stroke="black" d="M1401.35,-1112.69C1404.4,-1100.9 1408.55,-1084.87 1412.06,-1071.31"/>
<polygon fill="black" stroke="black" points="1415.47,-1072.1 1414.59,-1061.54 1408.69,-1070.34 1415.47,-1072.1"/>
<text text-anchor="middle" x="1414" y="-1083.29" font-family="Times,serif" font-size="14.00">3</text>
</g>
<!-- 13&#45;&gt;26 -->
<g id="edge40" class="edge">
<title>13&#45;&gt;26</title>
<path fill="none" stroke="black" d="M1391.8,-1112.41C1389.65,-1102.56 1388.4,-1090.06 1392,-1079.49 1393.49,-1075.12 1395.77,-1070.87 1398.38,-1066.93"/>
<polygon fill="black" stroke="black" points="1401.24,-1068.95 1404.47,-1058.86 1395.65,-1064.74 1401.24,-1068.95"/>
<text text-anchor="middle" x="1397" y="-1083.29" font-family="Times,serif" font-size="14.00">2</text>
</g>
<!-- 14 -->
<g id="node16" class="node">
<title>14</title>
<ellipse fill="none" stroke="black" cx="1422" cy="-392.24" rx="27" ry="18"/>
<text text-anchor="middle" x="1422" y="-388.54" font-family="Times,serif" font-size="14.00">14</text>
</g>
<!-- 14&#45;&gt;10 -->
<g id="edge68" class="edge">
<title>14&#45;&gt;10</title>
<path fill="none" stroke="black" d="M1426.39,-410.36C1441.7,-474.31 1486.3,-702.18 1382,-833.49 1373.05,-844.76 1338.8,-854.73 1311.63,-861.12"/>
<polygon fill="black" stroke="black" points="1310.6,-857.76 1301.63,-863.39 1312.15,-864.59 1310.6,-857.76"/>
<text text-anchor="middle" x="1452" y="-640.29" font-family="Times,serif" font-size="14.00">1</text>
</g>
<!-- 14&#45;&gt;11 -->
<g id="edge130" class="edge">
<title>14&#45;&gt;11</title>
<path fill="none" stroke="black" d="M1395.42,-395.77C1264.92,-408.2 697.73,-462.56 681,-469.99 668.36,-475.6 503.91,-625.15 496,-636.49 458.29,-690.56 386,-846.07 386,-911.99 386,-1131.49 386,-1131.49 386,-1131.49 386,-1154.34 373.3,-1177.17 361.55,-1193.41"/>
<polygon fill="black" stroke="black" points="358.49,-1191.64 355.2,-1201.71 364.06,-1195.89 358.49,-1191.64"/>
<text text-anchor="middle" x="413" y="-822.29" font-family="Times,serif" font-size="14.00">2</text>
</g>
<!-- 14&#45;&gt;18 -->
<g id="edge70" class="edge">
<title>14&#45;&gt;18</title>
<path fill="none" stroke="black" d="M1411.17,-375.71C1400.4,-360.25 1383.46,-335.8 1369,-314.5 1348.31,-284 1352.38,-267.75 1323,-245.5 1302.02,-229.61 1273.53,-220.77 1251.09,-215.95"/>
<polygon fill="black" stroke="black" points="1251.74,-212.51 1241.25,-214.01 1250.38,-219.38 1251.74,-212.51"/>
<text text-anchor="middle" x="1374" y="-292.8" font-family="Times,serif" font-size="14.00">4</text>
</g>
<!-- 14&#45;&gt;20 -->
<g id="edge39" class="edge">
<title>14&#45;&gt;20</title>
<path fill="none" stroke="black" d="M1397.61,-384.12C1340.95,-367.57 1200.3,-326.5 1135.14,-307.47"/>
<polygon fill="black" stroke="black" points="1135.93,-304.05 1125.35,-304.61 1133.97,-310.77 1135.93,-304.05"/>
<text text-anchor="middle" x="1276" y="-336.3" font-family="Times,serif" font-size="14.00">3</text>
</g>
<!-- 14&#45;&gt;29 -->
<g id="edge58" class="edge">
<title>14&#45;&gt;29</title>
<path fill="none" stroke="black" d="M1449.13,-390.12C1514.84,-385.76 1682.29,-364.46 1753,-260.5 1801.78,-188.78 1726.46,-86.31 1687.71,-41.47"/>
<polygon fill="black" stroke="black" points="1690.18,-38.97 1680.94,-33.78 1684.93,-43.6 1690.18,-38.97"/>
<text text-anchor="middle" x="1773" y="-205.8" font-family="Times,serif" font-size="14.00">0</text>
</g>
<!-- 15&#45;&gt;2 -->
<g id="edge19" class="edge">
<title>15&#45;&gt;2</title>
<path fill="none" stroke="black" d="M1130.16,-1842.56C1223.11,-1840.9 1527.88,-1833.58 1622,-1807.98 1648.03,-1800.91 1675.27,-1786.77 1694.74,-1775.34"/>
<polygon fill="black" stroke="black" points="1696.6,-1778.3 1703.37,-1770.14 1692.99,-1772.3 1696.6,-1778.3"/>
<text text-anchor="middle" x="1664" y="-1796.78" font-family="Times,serif" font-size="14.00">3</text>
</g>
<!-- 15&#45;&gt;16 -->
<g id="edge129" class="edge">
<title>15&#45;&gt;16</title>
<path fill="none" stroke="black" d="M1085.12,-1830.16C1066.49,-1815.16 1040,-1788.48 1040,-1757.98 1040,-1757.98 1040,-1757.98 1040,-1625.48 1040,-1590.52 1036.82,-1581.9 1035,-1546.98 1030.42,-1459.03 1027,-1437.06 1027,-1348.99 1027,-1348.99 1027,-1348.99 1027,-1129.49 1027,-1086.16 1136.94,-1009.23 1189.56,-974.88"/>
<polygon fill="black" stroke="black" points="1191.59,-977.74 1198.09,-969.36 1187.79,-971.86 1191.59,-977.74"/>
<text text-anchor="middle" x="1033" y="-1387.79" font-family="Times,serif" font-size="14.00">1</text>
</g>
<!-- 15&#45;&gt;17 -->
<g id="edge127" class="edge">
<title>15&#45;&gt;17</title>
<path fill="none" stroke="black" d="M1076.32,-1847.61C1032.48,-1852.23 942.6,-1862.95 868,-1879.98 822.94,-1890.27 772.21,-1906.89 739.95,-1918.12"/>
<polygon fill="black" stroke="black" points="738.43,-1914.94 730.16,-1921.56 740.75,-1921.55 738.43,-1914.94"/>
<text text-anchor="middle" x="873" y="-1883.78" font-family="Times,serif" font-size="14.00">2</text>
</g>
<!-- 15&#45;&gt;19 -->
<g id="edge41" class="edge">
<title>15&#45;&gt;19</title>
<path fill="none" stroke="black" d="M1130.36,-1842.76C1270.52,-1841.51 1904.63,-1834.41 1988,-1807.98 2013.74,-1799.83 2021.72,-1795.73 2039,-1774.98 2103.67,-1697.37 2083.83,-1656.79 2126,-1564.98 2169.56,-1470.16 2192.36,-1452.01 2232,-1355.49 2264.01,-1277.54 2290,-1259.25 2290,-1174.99 2290,-1174.99 2290,-1174.99 2290,-824.99 2290,-738.15 2214,-731.83 2214,-644.99 2214,-644.99 2214,-644.99 2214,-495.74 2214,-321.7 2179.02,-216.7 2015,-158.5 1906.82,-120.11 1769.27,-114.53 1704.26,-114.26"/>
<polygon fill="black" stroke="black" points="1704.09,-110.76 1694.09,-114.26 1704.09,-117.76 1704.09,-110.76"/>
<text text-anchor="middle" x="2295" y="-996.29" font-family="Times,serif" font-size="14.00">4</text>
</g>
<!-- 15&#45;&gt;22 -->
<g id="edge132" class="edge">
<title>15&#45;&gt;22</title>
<path fill="none" stroke="black" d="M1130.38,-1842.68C1273.34,-1841.01 1928.81,-1832.05 1964,-1807.98 2108.4,-1709.24 2016,-1783.84 2016,-1174.99 2016,-1174.99 2016,-1174.99 2016,-595.49 2016,-539.18 1942.12,-514.08 1896.04,-503.9"/>
<polygon fill="black" stroke="black" points="1896.61,-500.44 1886.11,-501.84 1895.19,-507.3 1896.61,-500.44"/>
<text text-anchor="middle" x="2021" y="-1170.29" font-family="Times,serif" font-size="14.00">0</text>
</g>
<!-- 16&#45;&gt;10 -->
<g id="edge60" class="edge">
<title>16&#45;&gt;10</title>
<path fill="none" stroke="black" d="M1227.82,-939.9C1236.58,-927.28 1249.08,-909.28 1259.15,-894.77"/>
<polygon fill="black" stroke="black" points="1262.22,-896.48 1265.05,-886.27 1256.47,-892.49 1262.22,-896.48"/>
<text text-anchor="middle" x="1255" y="-909.29" font-family="Times,serif" font-size="14.00">2</text>
</g>
<!-- 16&#45;&gt;15 -->
<g id="edge31" class="edge">
<title>16&#45;&gt;15</title>
<path fill="none" stroke="black" d="M1205.7,-972.91C1194.82,-989.3 1180,-1016.41 1180,-1042.49 1180,-1261.99 1180,-1261.99 1180,-1261.99 1180,-1429.78 1078,-1457.69 1078,-1625.48 1078,-1757.98 1078,-1757.98 1078,-1757.98 1078,-1778.36 1084.7,-1800.42 1091.16,-1816.95"/>
<polygon fill="black" stroke="black" points="1088.04,-1818.57 1095.09,-1826.47 1094.51,-1815.89 1088.04,-1818.57"/>
<text text-anchor="middle" x="1165" y="-1387.79" font-family="Times,serif" font-size="14.00">1</text>
</g>
<!-- 16&#45;&gt;18 -->
<g id="edge96" class="edge">
<title>16&#45;&gt;18</title>
<path fill="none" stroke="black" d="M1190.09,-954.16C1166.74,-951.42 1134.21,-943.41 1118,-920.49 1114.15,-915.04 1117.79,-912.15 1118,-905.49 1120.45,-828.04 1120.23,-808.48 1129,-731.49 1150.65,-541.36 1194.17,-314.91 1209.5,-237.77"/>
<polygon fill="black" stroke="black" points="1213.03,-237.99 1211.55,-227.5 1206.16,-236.62 1213.03,-237.99"/>
<text text-anchor="middle" x="1155" y="-592.79" font-family="Times,serif" font-size="14.00">4</text>
</g>
<!-- 16&#45;&gt;19 -->
<g id="edge83" class="edge">
<title>16&#45;&gt;19</title>
<path fill="none" stroke="black" d="M1190.47,-952.98C1167.05,-949.44 1133.39,-940.93 1112,-920.49 1058.29,-869.17 1086.14,-830.46 1052,-764.49 1039.48,-740.29 1027.87,-738.88 1018,-713.49 1013.24,-701.24 939.83,-255.79 948,-245.5 991.27,-190.94 1489.07,-133.8 1630.02,-118.63"/>
<polygon fill="black" stroke="black" points="1630.72,-122.08 1640.29,-117.53 1629.98,-115.12 1630.72,-122.08"/>
<text text-anchor="middle" x="996" y="-545.29" font-family="Times,serif" font-size="14.00">3</text>
</g>
<!-- 16&#45;&gt;24 -->
<g id="edge72" class="edge">
<title>16&#45;&gt;24</title>
<path fill="none" stroke="black" d="M1193.75,-966.07C1175.67,-972.87 1150.05,-982.82 1128,-992.49 1016.24,-1041.52 984.53,-1047.85 881,-1112.49 858.98,-1126.24 857.27,-1135.14 835,-1148.49 724.63,-1214.64 580.98,-1269.21 517.11,-1292.01"/>
<polygon fill="black" stroke="black" points="515.82,-1288.76 507.56,-1295.4 518.16,-1295.36 515.82,-1288.76"/>
<text text-anchor="middle" x="886" y="-1126.79" font-family="Times,serif" font-size="14.00">0</text>
</g>
<!-- 17&#45;&gt;15 -->
<g id="edge9" class="edge">
<title>17&#45;&gt;15</title>
<path fill="none" stroke="black" d="M732.37,-1924.54C800.74,-1909.86 988.95,-1869.47 1067.66,-1852.57"/>
<polygon fill="black" stroke="black" points="1068.54,-1855.96 1077.58,-1850.44 1067.07,-1849.12 1068.54,-1855.96"/>
<text text-anchor="middle" x="934" y="-1883.78" font-family="Times,serif" font-size="14.00">1</text>
</g>
<!-- 17&#45;&gt;21 -->
<g id="edge17" class="edge">
<title>17&#45;&gt;21</title>
<path fill="none" stroke="black" d="M684.79,-1920.34C658.72,-1907.33 619,-1881.52 619,-1844.98 619,-1844.98 619,-1844.98 619,-1486.24 619,-1460.43 605.17,-1434.1 593.02,-1415.94"/>
<polygon fill="black" stroke="black" points="595.86,-1413.89 587.26,-1407.71 590.13,-1417.91 595.86,-1413.89"/>
<text text-anchor="middle" x="624" y="-1666.28" font-family="Times,serif" font-size="14.00">0</text>
</g>
<!-- 17&#45;&gt;21 -->
<g id="edge44" class="edge">
<title>17&#45;&gt;21</title>
<path fill="none" stroke="black" d="M681.16,-1925.62C642.22,-1917.41 573,-1895.67 573,-1844.98 573,-1844.98 573,-1844.98 573,-1486.24 573,-1463.92 573.57,-1438.62 574.11,-1419.93"/>
<polygon fill="black" stroke="black" points="577.61,-1419.86 574.41,-1409.76 570.61,-1419.65 577.61,-1419.86"/>
<text text-anchor="middle" x="578" y="-1666.28" font-family="Times,serif" font-size="14.00">4</text>
</g>
<!-- 17&#45;&gt;26 -->
<g id="edge115" class="edge">
<title>17&#45;&gt;26</title>
<path fill="none" stroke="black" d="M717.36,-1914.02C738.81,-1881.08 789.74,-1803.27 834,-1738.98 860.93,-1699.88 866.27,-1689.01 896,-1651.98 915.11,-1628.18 926.31,-1627.17 942,-1600.98 997.25,-1508.8 960.53,-1460.22 1024,-1373.49 1121.17,-1240.71 1195.02,-1257.81 1318,-1148.49 1318.27,-1148.25 1368.47,-1096.54 1397.99,-1066.13"/>
<polygon fill="black" stroke="black" points="1400.55,-1068.52 1405,-1058.91 1395.53,-1063.64 1400.55,-1068.52"/>
<text text-anchor="middle" x="990" y="-1483.54" font-family="Times,serif" font-size="14.00">2</text>
</g>
<!-- 17&#45;&gt;27 -->
<g id="edge145" class="edge">
<title>17&#45;&gt;27</title>
<path fill="none" stroke="black" d="M733.87,-1932.91C825.97,-1936.18 1137.34,-1948.02 1394,-1966.98 1574.12,-1980.29 1788.91,-2003.46 1873.35,-2012.85"/>
<polygon fill="black" stroke="black" points="1873.12,-2016.35 1883.45,-2013.98 1873.9,-2009.39 1873.12,-2016.35"/>
<text text-anchor="middle" x="1569" y="-1970.78" font-family="Times,serif" font-size="14.00">3</text>
</g>
<!-- 18&#45;&gt;1 -->
<g id="edge120" class="edge">
<title>18&#45;&gt;1</title>
<path fill="none" stroke="black" d="M1229.14,-224.87C1234.4,-230.85 1240.05,-238.12 1244,-245.5 1368.56,-478.19 1374.67,-555.77 1400,-818.49 1415.66,-980.97 1304,-1009.76 1304,-1172.99 1304,-1488.24 1304,-1488.24 1304,-1488.24 1304,-1530.33 1350.95,-1557.01 1384.59,-1570.72"/>
<polygon fill="black" stroke="black" points="1383.51,-1574.05 1394.1,-1574.4 1386.04,-1567.53 1383.51,-1574.05"/>
<text text-anchor="middle" x="1400" y="-909.29" font-family="Times,serif" font-size="14.00">3</text>
</g>
<!-- 18&#45;&gt;7 -->
<g id="edge20" class="edge">
<title>18&#45;&gt;7</title>
<path fill="none" stroke="black" d="M1188.4,-213.68C1123.45,-222.19 962,-248.12 962,-295.5 962,-445.49 962,-445.49 962,-445.49 962,-537.07 955.52,-559.92 957,-651.49 962.59,-998.22 945.11,-1124.03 1142,-1409.49 1226.77,-1532.39 1388.51,-1621.15 1456.11,-1654.48"/>
<polygon fill="black" stroke="black" points="1454.85,-1657.76 1465.38,-1658.99 1457.92,-1651.47 1454.85,-1657.76"/>
<text text-anchor="middle" x="972" y="-952.79" font-family="Times,serif" font-size="14.00">2</text>
</g>
<!-- 18&#45;&gt;11 -->
<g id="edge47" class="edge">
<title>18&#45;&gt;11</title>
<path fill="none" stroke="black" d="M1188.02,-212.35C1045.4,-222.81 381.53,-279.57 271,-436.99 199.11,-539.38 304,-873.88 304,-998.99 304,-1131.49 304,-1131.49 304,-1131.49 304,-1153.58 314.83,-1176.32 324.93,-1192.71"/>
<polygon fill="black" stroke="black" points="322.01,-1194.63 330.39,-1201.12 327.88,-1190.82 322.01,-1194.63"/>
<text text-anchor="middle" x="272" y="-735.29" font-family="Times,serif" font-size="14.00">1</text>
</g>
<!-- 18&#45;&gt;18 -->
<g id="edge111" class="edge">
<title>18&#45;&gt;18</title>
<path fill="none" stroke="black" d="M1239.53,-217.25C1250.51,-217.99 1260,-215.4 1260,-209.5 1260,-205.53 1255.72,-203.06 1249.57,-202.09"/>
<polygon fill="black" stroke="black" points="1249.65,-198.59 1239.53,-201.74 1249.41,-205.59 1249.65,-198.59"/>
<text text-anchor="middle" x="1265" y="-205.8" font-family="Times,serif" font-size="14.00">0</text>
</g>
<!-- 18&#45;&gt;19 -->
<g id="edge46" class="edge">
<title>18&#45;&gt;19</title>
<path fill="none" stroke="black" d="M1242.08,-207.66C1283.78,-205.6 1365.64,-198.43 1430,-173.5 1441.38,-169.09 1441.71,-163.13 1453,-158.5 1512.3,-134.14 1586.61,-122.87 1630.24,-118.03"/>
<polygon fill="black" stroke="black" points="1630.8,-121.49 1640.38,-116.96 1630.07,-114.53 1630.8,-121.49"/>
<text text-anchor="middle" x="1458" y="-162.3" font-family="Times,serif" font-size="14.00">4</text>
</g>
<!-- 19&#45;&gt;5 -->
<g id="edge112" class="edge">
<title>19&#45;&gt;5</title>
<path fill="none" stroke="black" d="M1640.34,-110.94C1468.97,-99.3 523.16,-35.1 323.16,-21.52"/>
<polygon fill="black" stroke="black" points="323.1,-18.01 312.88,-20.83 322.62,-24.99 323.1,-18.01"/>
<text text-anchor="middle" x="1023" y="-57.8" font-family="Times,serif" font-size="14.00">0</text>
</g>
<!-- 19&#45;&gt;12 -->
<g id="edge26" class="edge">
<title>19&#45;&gt;12</title>
<path fill="none" stroke="black" d="M1640.23,-115.39C1549.94,-118.09 1248.84,-131.33 1009,-191.5 945.52,-207.42 931,-217.17 872,-245.5 788.3,-285.69 724.98,-275.8 701,-365.5 700.4,-367.75 699.58,-438.69 702,-451.99 702.59,-455.23 703.38,-458.55 704.28,-461.85"/>
<polygon fill="black" stroke="black" points="700.98,-463.03 707.27,-471.56 707.67,-460.97 700.98,-463.03"/>
<text text-anchor="middle" x="789" y="-292.8" font-family="Times,serif" font-size="14.00">2</text>
</g>
<!-- 19&#45;&gt;13 -->
<g id="edge103" class="edge">
<title>19&#45;&gt;13</title>
<path fill="none" stroke="black" d="M1667,-140.61C1667,-159.44 1667,-185.55 1667,-208.5 1667,-445.49 1667,-445.49 1667,-445.49 1667,-681.87 1728.82,-769 1612,-974.49 1570.41,-1047.65 1478.5,-1095.39 1429.41,-1116.69"/>
<polygon fill="black" stroke="black" points="1427.74,-1113.59 1419.9,-1120.71 1430.47,-1120.04 1427.74,-1113.59"/>
<text text-anchor="middle" x="1684" y="-640.29" font-family="Times,serif" font-size="14.00">3</text>
</g>
<!-- 19&#45;&gt;15 -->
<g id="edge50" class="edge">
<title>19&#45;&gt;15</title>
<path fill="none" stroke="black" d="M1693.78,-117.03C1769.22,-124.19 1978,-149.35 1978,-208.5 1978,-739.99 1978,-739.99 1978,-739.99 1978,-842.85 1910.59,-849.5 1859,-938.49 1814.54,-1015.18 1693.33,-1202.83 1664,-1286.49 1651.37,-1322.51 1608,-1587.31 1608,-1625.48 1608,-1757.98 1608,-1757.98 1608,-1757.98 1608,-1805.46 1256.49,-1832.88 1140,-1840.67"/>
<polygon fill="black" stroke="black" points="1139.54,-1837.19 1129.79,-1841.34 1140,-1844.17 1139.54,-1837.19"/>
<text text-anchor="middle" x="1831" y="-996.29" font-family="Times,serif" font-size="14.00">4</text>
</g>
<!-- 19&#45;&gt;29 -->
<g id="edge76" class="edge">
<title>19&#45;&gt;29</title>
<path fill="none" stroke="black" d="M1667,-86.63C1667,-74.02 1667,-58.89 1667,-46.15"/>
<polygon fill="black" stroke="black" points="1670.5,-46.11 1667,-36.11 1663.5,-46.11 1670.5,-46.11"/>
<text text-anchor="middle" x="1672" y="-57.8" font-family="Times,serif" font-size="14.00">1</text>
</g>
<!-- 20&#45;&gt;3 -->
<g id="edge107" class="edge">
<title>20&#45;&gt;3</title>
<path fill="none" stroke="black" d="M1074.11,-299.42C986.9,-305.72 716.51,-325.69 699,-332.5 590.82,-374.54 378.25,-583.77 300,-669.49 242.93,-732.01 190,-740.33 190,-824.99 190,-1174.99 190,-1174.99 190,-1174.99 190,-1291.33 152,-1317.64 152,-1433.99 152,-1627.48 152,-1627.48 152,-1627.48 152,-1711.06 228,-1715.91 228,-1799.48 228,-2018.98 228,-2018.98 228,-2018.98 228,-2080.89 297.58,-2055.49 358,-2068.98 442.91,-2087.95 706.2,-2099.12 803.96,-2102.71"/>
<polygon fill="black" stroke="black" points="803.85,-2106.21 813.97,-2103.07 804.11,-2099.21 803.85,-2106.21"/>
<text text-anchor="middle" x="195" y="-1213.79" font-family="Times,serif" font-size="14.00">4</text>
</g>
<!-- 20&#45;&gt;15 -->
<g id="edge34" class="edge">
<title>20&#45;&gt;15</title>
<path fill="none" stroke="black" d="M1123.31,-306.77C1153.05,-319.31 1207.13,-342.73 1252,-365.5 1453.49,-467.75 1598,-512.03 1598,-737.99 1598,-913.99 1598,-913.99 1598,-913.99 1598,-1104.89 1561.11,-1150.1 1547,-1340.49 1534.5,-1509.21 1639.82,-1587.41 1536,-1720.98 1486.45,-1784.73 1234.52,-1825.09 1139.41,-1838.25"/>
<polygon fill="black" stroke="black" points="1138.83,-1834.8 1129.4,-1839.62 1139.78,-1841.74 1138.83,-1834.8"/>
<text text-anchor="middle" x="1591" y="-1083.29" font-family="Times,serif" font-size="14.00">3</text>
</g>
<!-- 20&#45;&gt;16 -->
<g id="edge32" class="edge">
<title>20&#45;&gt;16</title>
<path fill="none" stroke="black" d="M1103.79,-314.52C1107.78,-338.14 1115.69,-382.09 1125,-418.99 1142.7,-489.12 1158.12,-503.71 1173,-574.49 1200.46,-705.11 1211.89,-864.79 1215.56,-927.92"/>
<polygon fill="black" stroke="black" points="1212.09,-928.43 1216.14,-938.22 1219.08,-928.04 1212.09,-928.43"/>
<text text-anchor="middle" x="1191" y="-640.29" font-family="Times,serif" font-size="14.00">1</text>
</g>
<!-- 20&#45;&gt;17 -->
<g id="edge62" class="edge">
<title>20&#45;&gt;17</title>
<path fill="none" stroke="black" d="M1101.1,-314.91C1101.18,-385.02 1098.52,-646.01 1055,-713.49 1030.91,-750.83 994.75,-728.27 969,-764.49 860.21,-917.54 947.27,-999.5 901,-1181.49 890.65,-1222.21 883.48,-1231.26 864,-1268.49 850.85,-1293.62 847.07,-1299.84 830,-1322.49 792.29,-1372.5 765.64,-1372.31 736,-1427.49 711.88,-1472.41 707,-1487.5 707,-1538.48 707,-1844.98 707,-1844.98 707,-1844.98 707,-1864.23 707,-1885.93 707,-1902.59"/>
<polygon fill="black" stroke="black" points="703.5,-1902.73 707,-1912.73 710.5,-1902.73 703.5,-1902.73"/>
<text text-anchor="middle" x="919" y="-1126.79" font-family="Times,serif" font-size="14.00">0</text>
</g>
<!-- 20&#45;&gt;18 -->
<g id="edge88" class="edge">
<title>20&#45;&gt;18</title>
<path fill="none" stroke="black" d="M1118.31,-282.59C1137.23,-268.48 1167.72,-245.75 1189.4,-229.58"/>
<polygon fill="black" stroke="black" points="1191.6,-232.31 1197.52,-223.53 1187.41,-226.7 1191.6,-232.31"/>
<text text-anchor="middle" x="1169" y="-249.3" font-family="Times,serif" font-size="14.00">2</text>
</g>
<!-- 21&#45;&gt;2 -->
<g id="edge65" class="edge">
<title>21&#45;&gt;2</title>
<path fill="none" stroke="black" d="M594.53,-1404.06C689.68,-1460.36 1102.83,-1703.61 1167,-1720.98 1216.65,-1734.43 1568.2,-1749.74 1684.64,-1754.5"/>
<polygon fill="black" stroke="black" points="1684.71,-1758 1694.85,-1754.91 1685,-1751.01 1684.71,-1758"/>
<text text-anchor="middle" x="938" y="-1579.28" font-family="Times,serif" font-size="14.00">2</text>
</g>
<!-- 21&#45;&gt;2 -->
<g id="edge123" class="edge">
<title>21&#45;&gt;2</title>
<path fill="none" stroke="black" d="M598.48,-1400.71C632.64,-1412.87 697.89,-1436.74 752,-1460.49 831.49,-1495.37 1019.8,-1606.08 1102,-1633.98 1316.27,-1706.72 1587.76,-1741.45 1685.16,-1752.2"/>
<polygon fill="black" stroke="black" points="1685.04,-1755.7 1695.36,-1753.3 1685.8,-1748.74 1685.04,-1755.7"/>
<text text-anchor="middle" x="1030" y="-1579.28" font-family="Times,serif" font-size="14.00">4</text>
</g>
<!-- 21&#45;&gt;3 -->
<g id="edge138" class="edge">
<title>21&#45;&gt;3</title>
<path fill="none" stroke="black" d="M548.2,-1394.38C498.27,-1399.53 396,-1418.36 396,-1486.24 396,-1714.48 396,-1714.48 396,-1714.48 396,-1776.43 342,-1781.03 342,-1842.98 342,-2018.98 342,-2018.98 342,-2018.98 342,-2073.5 401.12,-2055.75 454,-2068.98 579.43,-2100.37 733.97,-2104.38 803.72,-2104.41"/>
<polygon fill="black" stroke="black" points="803.79,-2107.91 813.78,-2104.39 803.77,-2100.91 803.79,-2107.91"/>
<text text-anchor="middle" x="398" y="-1753.28" font-family="Times,serif" font-size="14.00">3</text>
</g>
<!-- 21&#45;&gt;12 -->
<g id="edge122" class="edge">
<title>21&#45;&gt;12</title>
<path fill="none" stroke="black" d="M575.32,-1373.23C575.61,-1356.06 576,-1328.95 576,-1305.49 576,-1305.49 576,-1305.49 576,-1085.99 576,-1035.99 567.43,-1024.07 561,-974.49 555.01,-928.29 548,-917.07 548,-870.49 548,-870.49 548,-870.49 548,-737.99 548,-677.7 588.07,-670.29 638,-636.49 654.82,-625.1 665.22,-632.42 680,-618.49 703.1,-596.71 711.9,-560.94 715.19,-533.98"/>
<polygon fill="black" stroke="black" points="718.7,-534.06 716.24,-523.76 711.74,-533.35 718.7,-534.06"/>
<text text-anchor="middle" x="566" y="-952.79" font-family="Times,serif" font-size="14.00">1</text>
</g>
<!-- 21&#45;&gt;24 -->
<g id="edge55" class="edge">
<title>21&#45;&gt;24</title>
<path fill="none" stroke="black" d="M559.97,-1376.45C545.48,-1362.92 523.36,-1342.26 506.72,-1326.71"/>
<polygon fill="black" stroke="black" points="508.75,-1323.81 499.05,-1319.54 503.97,-1328.93 508.75,-1323.81"/>
<text text-anchor="middle" x="540" y="-1344.29" font-family="Times,serif" font-size="14.00">0</text>
</g>
<!-- 22&#45;&gt;1 -->
<g id="edge57" class="edge">
<title>22&#45;&gt;1</title>
<path fill="none" stroke="black" d="M1855.98,-514.75C1836.46,-597.06 1750.76,-954.55 1710,-1061.49 1694.57,-1101.98 1686.54,-1110.34 1666,-1148.49 1581.18,-1306.02 1471.96,-1491.25 1432.79,-1557.17"/>
<polygon fill="black" stroke="black" points="1429.64,-1555.63 1427.53,-1566.01 1435.65,-1559.21 1429.64,-1555.63"/>
<text text-anchor="middle" x="1727" y="-1039.79" font-family="Times,serif" font-size="14.00">3</text>
</g>
<!-- 22&#45;&gt;7 -->
<g id="edge151" class="edge">
<title>22&#45;&gt;7</title>
<path fill="none" stroke="black" d="M1860.79,-515.17C1861.96,-542.44 1864,-596.82 1864,-642.99 1864,-913.99 1864,-913.99 1864,-913.99 1864,-1019.72 1862.41,-1049.98 1824,-1148.49 1741.33,-1360.52 1565.38,-1577.31 1506.59,-1646.41"/>
<polygon fill="black" stroke="black" points="1503.86,-1644.22 1500.01,-1654.09 1509.18,-1648.77 1503.86,-1644.22"/>
<text text-anchor="middle" x="1853" y="-1083.29" font-family="Times,serif" font-size="14.00">0</text>
</g>
<!-- 22&#45;&gt;14 -->
<g id="edge97" class="edge">
<title>22&#45;&gt;14</title>
<path fill="none" stroke="black" d="M1834.88,-489.86C1760.72,-472.51 1542.58,-421.46 1457.02,-401.44"/>
<polygon fill="black" stroke="black" points="1457.55,-397.97 1447.02,-399.1 1455.96,-404.79 1457.55,-397.97"/>
<text text-anchor="middle" x="1672" y="-440.79" font-family="Times,serif" font-size="14.00">1</text>
</g>
<!-- 22&#45;&gt;18 -->
<g id="edge43" class="edge">
<title>22&#45;&gt;18</title>
<path fill="none" stroke="black" d="M1862.96,-478.49C1866.62,-450.93 1869.31,-396.89 1841,-365.5 1760.4,-276.1 1373.61,-227.53 1251.81,-214.27"/>
<polygon fill="black" stroke="black" points="1251.84,-210.75 1241.52,-213.16 1251.09,-217.71 1251.84,-210.75"/>
<text text-anchor="middle" x="1823" y="-336.3" font-family="Times,serif" font-size="14.00">4</text>
</g>
<!-- 22&#45;&gt;25 -->
<g id="edge3" class="edge">
<title>22&#45;&gt;25</title>
<path fill="none" stroke="black" d="M1844.87,-481.58C1837.07,-473.56 1827.96,-462.95 1822,-451.99 1816.63,-442.13 1812.8,-430.39 1810.15,-420.01"/>
<polygon fill="black" stroke="black" points="1813.54,-419.15 1807.88,-410.2 1806.72,-420.73 1813.54,-419.15"/>
<text text-anchor="middle" x="1827" y="-440.79" font-family="Times,serif" font-size="14.00">2</text>
</g>
<!-- 23&#45;&gt;7 -->
<g id="edge80" class="edge">
<title>23&#45;&gt;7</title>
<path fill="none" stroke="black" d="M857.42,-417.99C859.22,-424.14 860.9,-430.75 862,-436.99 890.12,-596.38 865.63,-639.68 884,-800.49 897.35,-917.36 901.11,-946.97 928,-1061.49 931.5,-1076.41 933.09,-1079.97 938,-1094.49 938.64,-1096.38 1138.42,-1632.76 1140,-1633.98 1152.17,-1643.36 1363.3,-1659.88 1450.14,-1666.31"/>
<polygon fill="black" stroke="black" points="1450.11,-1669.82 1460.34,-1667.06 1450.62,-1662.84 1450.11,-1669.82"/>
<text text-anchor="middle" x="933" y="-1039.79" font-family="Times,serif" font-size="14.00">2</text>
</g>
<!-- 23&#45;&gt;12 -->
<g id="edge149" class="edge">
<title>23&#45;&gt;12</title>
<path fill="none" stroke="black" d="M831.36,-412.66C819.91,-424.71 804.31,-440.1 789,-451.99 776.64,-461.59 762.03,-470.81 749.21,-478.29"/>
<polygon fill="black" stroke="black" points="747.2,-475.41 740.25,-483.41 750.67,-481.49 747.2,-475.41"/>
<text text-anchor="middle" x="812" y="-440.79" font-family="Times,serif" font-size="14.00">4</text>
</g>
<!-- 23&#45;&gt;13 -->
<g id="edge147" class="edge">
<title>23&#45;&gt;13</title>
<path fill="none" stroke="black" d="M871.29,-407.39C881.51,-414.98 892.9,-425.2 900,-436.99 1016.17,-629.98 902.88,-751.66 1052,-920.49 1142.84,-1023.33 1296.73,-1091.18 1363.94,-1117.36"/>
<polygon fill="black" stroke="black" points="1363,-1120.74 1373.59,-1121.06 1365.51,-1114.21 1363,-1120.74"/>
<text text-anchor="middle" x="987" y="-778.79" font-family="Times,serif" font-size="14.00">1</text>
</g>
<!-- 23&#45;&gt;17 -->
<g id="edge66" class="edge">
<title>23&#45;&gt;17</title>
<path fill="none" stroke="black" d="M841.61,-418.29C807.74,-533.88 669,-1016.86 669,-1172.99 669,-1844.98 669,-1844.98 669,-1844.98 669,-1867.08 679.83,-1889.81 689.93,-1906.2"/>
<polygon fill="black" stroke="black" points="687.01,-1908.13 695.39,-1914.61 692.88,-1904.32 687.01,-1908.13"/>
<text text-anchor="middle" x="674" y="-1170.29" font-family="Times,serif" font-size="14.00">0</text>
</g>
<!-- 23&#45;&gt;28 -->
<g id="edge67" class="edge">
<title>23&#45;&gt;28</title>
<path fill="none" stroke="black" d="M848.31,-419.38C844.87,-551.69 829.85,-1142.95 835,-1181.49 848.45,-1282.03 885.8,-1396.39 905.49,-1452.11"/>
<polygon fill="black" stroke="black" points="902.29,-1453.57 908.95,-1461.81 908.89,-1451.21 902.29,-1453.57"/>
<text text-anchor="middle" x="842" y="-952.79" font-family="Times,serif" font-size="14.00">3</text>
</g>
<!-- 24&#45;&gt;11 -->
<g id="edge82" class="edge">
<title>24&#45;&gt;11</title>
<path fill="none" stroke="black" d="M460.17,-1295.63C443.06,-1289.48 419.79,-1280.03 401,-1268.49 387.87,-1260.42 374.66,-1249.54 364.08,-1239.99"/>
<polygon fill="black" stroke="black" points="366.26,-1237.24 356.54,-1233.01 361.5,-1242.37 366.26,-1237.24"/>
<text text-anchor="middle" x="406" y="-1257.29" font-family="Times,serif" font-size="14.00">4</text>
</g>
<!-- 24&#45;&gt;18 -->
<g id="edge2" class="edge">
<title>24&#45;&gt;18</title>
<path fill="none" stroke="black" d="M471.57,-1288.34C453.99,-1265.34 424,-1219.55 424,-1174.99 424,-1174.99 424,-1174.99 424,-911.99 424,-869.49 430.7,-851.55 404,-818.49 391.75,-803.32 375.17,-816.47 364,-800.49 279.7,-679.87 283.83,-604.28 344,-469.99 347.24,-462.76 407.98,-405.37 462,-365.5 473.31,-357.14 502.63,-336.86 516,-332.5 608.85,-302.21 639.59,-335.35 735,-314.5 822.77,-295.31 837.61,-266.35 925,-245.5 1014.21,-224.21 1122.1,-215.53 1177.76,-212.27"/>
<polygon fill="black" stroke="black" points="1178.06,-215.76 1187.85,-211.71 1177.67,-208.77 1178.06,-215.76"/>
<text text-anchor="middle" x="369" y="-778.79" font-family="Times,serif" font-size="14.00">2</text>
</g>
<!-- 24&#45;&gt;18 -->
<g id="edge27" class="edge">
<title>24&#45;&gt;18</title>
<path fill="none" stroke="black" d="M479.23,-1286.6C472.76,-1262.18 462,-1215.5 462,-1174.99 462,-1174.99 462,-1174.99 462,-911.99 462,-836.42 435.12,-821.08 423,-746.49 411.41,-675.14 416.53,-550.65 420,-541.49 457.08,-443.76 498.39,-435.5 576,-365.5 594.68,-348.64 598.47,-341.4 622,-332.5 695.95,-304.51 722.69,-335.2 799,-314.5 816.8,-309.66 932.27,-250.59 950,-245.5 971.48,-239.32 1110.76,-222.61 1178.34,-214.73"/>
<polygon fill="black" stroke="black" points="1179.01,-218.17 1188.54,-213.54 1178.2,-211.22 1179.01,-218.17"/>
<text text-anchor="middle" x="442" y="-778.79" font-family="Times,serif" font-size="14.00">3</text>
</g>
<!-- 24&#45;&gt;21 -->
<g id="edge150" class="edge">
<title>24&#45;&gt;21</title>
<path fill="none" stroke="black" d="M490.2,-1322.35C494.72,-1332.86 501.68,-1346.12 511,-1355.49 519.91,-1364.45 531.6,-1371.74 542.54,-1377.3"/>
<polygon fill="black" stroke="black" points="541.35,-1380.61 551.88,-1381.74 544.35,-1374.29 541.35,-1380.61"/>
<text text-anchor="middle" x="516" y="-1344.29" font-family="Times,serif" font-size="14.00">0</text>
</g>
<!-- 24&#45;&gt;24 -->
<g id="edge144" class="edge">
<title>24&#45;&gt;24</title>
<path fill="none" stroke="black" d="M508.53,-1312.24C519.51,-1312.98 529,-1310.39 529,-1304.49 529,-1300.52 524.72,-1298.05 518.57,-1297.08"/>
<polygon fill="black" stroke="black" points="518.65,-1293.58 508.53,-1296.74 518.41,-1300.58 518.65,-1293.58"/>
<text text-anchor="middle" x="534" y="-1300.79" font-family="Times,serif" font-size="14.00">1</text>
</g>
<!-- 25&#45;&gt;16 -->
<g id="edge87" class="edge">
<title>25&#45;&gt;16</title>
<path fill="none" stroke="black" d="M1784.43,-404.03C1770.58,-411.95 1752.45,-423.61 1739,-436.99 1706.18,-469.63 1709.51,-487.02 1681,-523.49 1566.47,-669.99 1537.45,-708.24 1400,-833.49 1352.36,-876.89 1338.52,-886.12 1284,-920.49 1272.55,-927.7 1259.45,-934.79 1247.89,-940.67"/>
<polygon fill="black" stroke="black" points="1246,-937.71 1238.62,-945.31 1249.13,-943.97 1246,-937.71"/>
<text text-anchor="middle" x="1568" y="-687.79" font-family="Times,serif" font-size="14.00">3</text>
</g>
<!-- 25&#45;&gt;19 -->
<g id="edge75" class="edge">
<title>25&#45;&gt;19</title>
<path fill="none" stroke="black" d="M1796.78,-374.78C1774.52,-330.17 1712.75,-206.42 1683.18,-147.17"/>
<polygon fill="black" stroke="black" points="1686.15,-145.29 1678.56,-137.9 1679.89,-148.41 1686.15,-145.29"/>
<text text-anchor="middle" x="1744" y="-249.3" font-family="Times,serif" font-size="14.00">2</text>
</g>
<!-- 25&#45;&gt;21 -->
<g id="edge140" class="edge">
<title>25&#45;&gt;21</title>
<path fill="none" stroke="black" d="M1778.02,-394.4C1738.69,-397.13 1664.38,-406.28 1610,-436.99 1444.28,-530.6 1462.29,-627.17 1314,-746.49 1186.26,-849.27 1132.91,-843.89 999,-938.49 948.94,-973.85 937.27,-984.17 892,-1025.49 852.07,-1061.93 841.44,-1070.82 807,-1112.49 783.2,-1141.28 782.05,-1152.09 759,-1181.49 703.31,-1252.53 630.97,-1331.12 595.9,-1368.46"/>
<polygon fill="black" stroke="black" points="593.31,-1366.11 589,-1375.78 598.4,-1370.91 593.31,-1366.11"/>
<text text-anchor="middle" x="1053" y="-909.29" font-family="Times,serif" font-size="14.00">4</text>
</g>
<!-- 25&#45;&gt;22 -->
<g id="edge73" class="edge">
<title>25&#45;&gt;22</title>
<path fill="none" stroke="black" d="M1815.43,-409.2C1820.62,-417.39 1826.88,-427.59 1832,-436.99 1837.78,-447.59 1843.61,-459.58 1848.44,-469.95"/>
<polygon fill="black" stroke="black" points="1845.38,-471.67 1852.74,-479.29 1851.74,-468.75 1845.38,-471.67"/>
<text text-anchor="middle" x="1844" y="-440.79" font-family="Times,serif" font-size="14.00">0</text>
</g>
<!-- 25&#45;&gt;26 -->
<g id="edge12" class="edge">
<title>25&#45;&gt;26</title>
<path fill="none" stroke="black" d="M1792.66,-408.34C1786.45,-416.47 1779.17,-426.88 1774,-436.99 1696.3,-588.98 1732.4,-651 1650,-800.49 1592.93,-904.01 1573.7,-931.68 1483,-1007.49 1473.23,-1015.65 1461.26,-1022.8 1450.33,-1028.48"/>
<polygon fill="black" stroke="black" points="1448.47,-1025.49 1441.07,-1033.07 1451.58,-1031.76 1448.47,-1025.49"/>
<text text-anchor="middle" x="1687" y="-735.29" font-family="Times,serif" font-size="14.00">1</text>
</g>
<!-- 26&#45;&gt;16 -->
<g id="edge36" class="edge">
<title>26&#45;&gt;16</title>
<path fill="none" stroke="black" d="M1391.75,-1041.86C1342.13,-1040.08 1240.14,-1033.29 1218,-1007.49 1212.59,-1001.19 1211.09,-992.62 1211.32,-984.35"/>
<polygon fill="black" stroke="black" points="1214.82,-984.55 1212.38,-974.24 1207.86,-983.82 1214.82,-984.55"/>
<text text-anchor="middle" x="1223" y="-996.29" font-family="Times,serif" font-size="14.00">2</text>
</g>
<!-- 26&#45;&gt;16 -->
<g id="edge91" class="edge">
<title>26&#45;&gt;16</title>
<path fill="none" stroke="black" d="M1391.9,-1042.89C1356.57,-1042.15 1294.21,-1036.39 1251,-1007.49 1241.84,-1001.36 1234.47,-991.85 1228.97,-982.76"/>
<polygon fill="black" stroke="black" points="1232,-981 1224.09,-973.95 1225.88,-984.39 1232,-981"/>
<text text-anchor="middle" x="1256" y="-996.29" font-family="Times,serif" font-size="14.00">4</text>
</g>
<!-- 26&#45;&gt;19 -->
<g id="edge128" class="edge">
<title>26&#45;&gt;19</title>
<path fill="none" stroke="black" d="M1423.63,-1025.46C1425.11,-1019.76 1426.7,-1013.37 1428,-1007.49 1444.91,-930.7 1451.15,-911.62 1460,-833.49 1479.43,-661.98 1477,-618.1 1477,-445.49 1477,-445.49 1477,-445.49 1477,-208.5 1477,-140.94 1574.8,-122.06 1630.06,-116.79"/>
<polygon fill="black" stroke="black" points="1630.51,-120.27 1640.18,-115.93 1629.92,-113.29 1630.51,-120.27"/>
<text text-anchor="middle" x="1481" y="-592.79" font-family="Times,serif" font-size="14.00">3</text>
</g>
<!-- 26&#45;&gt;20 -->
<g id="edge99" class="edge">
<title>26&#45;&gt;20</title>
<path fill="none" stroke="black" d="M1417.39,-1025.24C1414.59,-998.9 1407.75,-947.29 1394,-905.49 1364.3,-815.24 1331.36,-803.18 1300,-713.49 1274.16,-639.59 1292.51,-613.58 1262,-541.49 1224.53,-452.94 1154.35,-361.83 1120.39,-320.44"/>
<polygon fill="black" stroke="black" points="1122.98,-318.08 1113.91,-312.61 1117.59,-322.55 1122.98,-318.08"/>
<text text-anchor="middle" x="1305" y="-687.79" font-family="Times,serif" font-size="14.00">0</text>
</g>
<!-- 26&#45;&gt;23 -->
<g id="edge16" class="edge">
<title>26&#45;&gt;23</title>
<path fill="none" stroke="black" d="M1402.88,-1028.45C1374.32,-1003.61 1312.97,-950.29 1261,-905.49 1251.69,-897.46 1248.19,-896.65 1240,-887.49 1121.43,-754.89 1113.18,-704.82 1015,-556.49 980.13,-503.8 985.18,-479.01 938,-436.99 922.27,-422.98 901.25,-412.37 883.58,-405.11"/>
<polygon fill="black" stroke="black" points="884.76,-401.81 874.17,-401.42 882.21,-408.33 884.76,-401.81"/>
<text text-anchor="middle" x="1135" y="-735.29" font-family="Times,serif" font-size="14.00">1</text>
</g>
<!-- 27&#45;&gt;3 -->
<g id="edge54" class="edge">
<title>27&#45;&gt;3</title>
<path fill="none" stroke="black" d="M1883.6,-2022.91C1819.21,-2032.33 1648.91,-2056.39 1506,-2068.98 1267.38,-2090 979.39,-2099.93 878.27,-2102.94"/>
<polygon fill="black" stroke="black" points="877.86,-2099.45 867.97,-2103.25 878.07,-2106.45 877.86,-2099.45"/>
<text text-anchor="middle" x="1644" y="-2057.78" font-family="Times,serif" font-size="14.00">4</text>
</g>
<!-- 27&#45;&gt;4 -->
<g id="edge117" class="edge">
<title>27&#45;&gt;4</title>
<path fill="none" stroke="black" d="M1922.22,-2001.71C1933.98,-1985.43 1950,-1958.4 1950,-1931.98 1950,-1931.98 1950,-1931.98 1950,-1668.98 1950,-1634.74 1915.25,-1610.71 1888.01,-1597.14"/>
<polygon fill="black" stroke="black" points="1889.29,-1593.88 1878.75,-1592.78 1886.31,-1600.21 1889.29,-1593.88"/>
<text text-anchor="middle" x="1955" y="-1796.78" font-family="Times,serif" font-size="14.00">3</text>
</g>
<!-- 27&#45;&gt;8 -->
<g id="edge121" class="edge">
<title>27&#45;&gt;8</title>
<path fill="none" stroke="black" d="M1936.68,-2014.28C2004.46,-2006.66 2178,-1982.26 2178,-1931.98 2178,-1931.98 2178,-1931.98 2178,-1538.48 2178,-1372.47 2092,-1341 2092,-1174.99 2092,-1174.99 2092,-1174.99 2092,-868.49 2092,-848.35 2086.37,-826.28 2080.95,-809.69"/>
<polygon fill="black" stroke="black" points="2084.22,-808.43 2077.64,-800.12 2077.6,-810.72 2084.22,-808.43"/>
<text text-anchor="middle" x="2161" y="-1387.79" font-family="Times,serif" font-size="14.00">2</text>
</g>
<!-- 27&#45;&gt;14 -->
<g id="edge49" class="edge">
<title>27&#45;&gt;14</title>
<path fill="none" stroke="black" d="M1930.08,-2005.41C1998.15,-1965.87 2216,-1836.57 2216,-1801.48 2216,-1801.48 2216,-1801.48 2216,-1538.48 2216,-1426.48 2219.13,-1398.48 2218,-1286.49 2217.11,-1198.25 2214,-1176.23 2214,-1087.99 2214,-1087.99 2214,-1087.99 2214,-824.99 2214,-786.05 2036.01,-568.53 2008,-541.49 1948.23,-483.78 1931.13,-465.26 1853,-436.99 1780.8,-410.87 1549.63,-398.59 1458.97,-394.69"/>
<polygon fill="black" stroke="black" points="1459.02,-391.18 1448.88,-394.26 1458.73,-398.18 1459.02,-391.18"/>
<text text-anchor="middle" x="2222" y="-1213.79" font-family="Times,serif" font-size="14.00">0</text>
</g>
<!-- 27&#45;&gt;17 -->
<g id="edge6" class="edge">
<title>27&#45;&gt;17</title>
<path fill="none" stroke="black" d="M1883.19,-2015.09C1726.15,-2003.99 926.34,-1947.48 744.03,-1934.6"/>
<polygon fill="black" stroke="black" points="744.1,-1931.1 733.88,-1933.88 743.61,-1938.08 744.1,-1931.1"/>
<text text-anchor="middle" x="1385" y="-1970.78" font-family="Times,serif" font-size="14.00">1</text>
</g>
<!-- 28&#45;&gt;3 -->
<g id="edge59" class="edge">
<title>28&#45;&gt;3</title>
<path fill="none" stroke="black" d="M892.42,-1495.31C856.65,-1506.94 796,-1533.77 796,-1581.98 796,-1714.48 796,-1714.48 796,-1714.48 796,-1789.32 817.76,-1805.72 827,-1879.98 835.79,-1950.59 839.16,-2034.44 840.37,-2076.72"/>
<polygon fill="black" stroke="black" points="836.88,-2076.87 840.64,-2086.77 843.87,-2076.68 836.88,-2076.87"/>
<text text-anchor="middle" x="817" y="-1796.78" font-family="Times,serif" font-size="14.00">4</text>
</g>
<!-- 28&#45;&gt;5 -->
<g id="edge118" class="edge">
<title>28&#45;&gt;5</title>
<path fill="none" stroke="black" d="M904.48,-1464.01C874.9,-1414.66 803.51,-1291.59 759,-1181.49 695.82,-1025.2 706.1,-977.1 649,-818.49 631.86,-770.88 619.25,-762.04 605,-713.49 556.59,-548.52 604.89,-490.88 538,-332.5 478.61,-191.88 446.21,-160.65 337,-54 330.37,-47.53 322.42,-41.45 314.79,-36.22"/>
<polygon fill="black" stroke="black" points="316.36,-33.07 306.08,-30.52 312.53,-38.92 316.36,-33.07"/>
<text text-anchor="middle" x="647" y="-778.79" font-family="Times,serif" font-size="14.00">1</text>
</g>
<!-- 28&#45;&gt;11 -->
<g id="edge51" class="edge">
<title>28&#45;&gt;11</title>
<path fill="none" stroke="black" d="M896.38,-1471.41C890.27,-1467.57 883.51,-1463.63 877,-1460.49 855.36,-1450.03 847.9,-1452.41 826,-1442.49 809.87,-1435.18 564.21,-1293.63 548,-1286.49 489.54,-1260.72 418.11,-1239.25 376.56,-1227.69"/>
<polygon fill="black" stroke="black" points="377.24,-1224.25 366.67,-1224.97 375.38,-1230.99 377.24,-1224.25"/>
<text text-anchor="middle" x="674" y="-1344.29" font-family="Times,serif" font-size="14.00">2</text>
</g>
<!-- 28&#45;&gt;15 -->
<g id="edge131" class="edge">
<title>28&#45;&gt;15</title>
<path fill="none" stroke="black" d="M918,-1514.1C918,-1532.93 918,-1559.04 918,-1581.98 918,-1757.98 918,-1757.98 918,-1757.98 918,-1822.27 1011.38,-1838.11 1065.45,-1841.9"/>
<polygon fill="black" stroke="black" points="1065.51,-1845.41 1075.7,-1842.51 1065.93,-1838.42 1065.51,-1845.41"/>
<text text-anchor="middle" x="923" y="-1666.28" font-family="Times,serif" font-size="14.00">3</text>
</g>
<!-- 28&#45;&gt;21 -->
<g id="edge78" class="edge">
<title>28&#45;&gt;21</title>
<path fill="none" stroke="black" d="M896.65,-1470.8C890.54,-1466.96 883.71,-1463.17 877,-1460.49 839.52,-1445.51 827.09,-1452.52 788,-1442.49 766.35,-1436.93 761.62,-1433.15 740,-1427.49 696.03,-1415.98 644.73,-1405.56 611.15,-1399.14"/>
<polygon fill="black" stroke="black" points="611.37,-1395.62 600.9,-1397.2 610.07,-1402.5 611.37,-1395.62"/>
<text text-anchor="middle" x="793" y="-1431.29" font-family="Times,serif" font-size="14.00">0</text>
</g>
<!-- 29&#45;&gt;0 -->
<g id="edge15" class="edge">
<title>29&#45;&gt;0</title>
<path fill="none" stroke="black" d="M1694.27,-19.03C1801.41,-19.35 2193.34,-22.69 2313,-54 2331.9,-58.95 2412,-88.96 2412,-112.75 2412,-2105.98 2412,-2105.98 2412,-2105.98 2412,-2179.53 2149.4,-2189.69 2050.28,-2190.9"/>
<polygon fill="black" stroke="black" points="2050.08,-2187.4 2040.11,-2191 2050.15,-2194.4 2050.08,-2187.4"/>
<text text-anchor="middle" x="2417" y="-1126.79" font-family="Times,serif" font-size="14.00">2</text>
</g>
<!-- 29&#45;&gt;2 -->
<g id="edge89" class="edge">
<title>29&#45;&gt;2</title>
<path fill="none" stroke="black" d="M1694.08,-18.91C1796.09,-18.81 2156.85,-20.86 2266,-54 2315.32,-68.97 2366,-61.2 2366,-112.75 2366,-1174.99 2366,-1174.99 2366,-1174.99 2366,-1263.54 2143.79,-1391.72 2088,-1460.49 2041.87,-1517.34 2040.7,-1538.84 2002,-1600.98 1968.63,-1654.57 1978.52,-1685.96 1926,-1720.98 1899.22,-1738.84 1810.01,-1748.85 1758.87,-1753.24"/>
<polygon fill="black" stroke="black" points="1758.55,-1749.76 1748.87,-1754.07 1759.13,-1756.73 1758.55,-1749.76"/>
<text text-anchor="middle" x="2371" y="-909.29" font-family="Times,serif" font-size="14.00">3</text>
</g>
<!-- 29&#45;&gt;9 -->
<g id="edge90" class="edge">
<title>29&#45;&gt;9</title>
<path fill="none" stroke="black" d="M1640.02,-19.17C1477.58,-20.3 635.22,-27.44 588,-54 463.19,-124.22 411.16,-211.16 455,-347.5 487.06,-447.19 579.78,-536.55 624.42,-575.22"/>
<polygon fill="black" stroke="black" points="622.29,-578 632.17,-581.84 626.84,-572.68 622.29,-578"/>
<text text-anchor="middle" x="451" y="-292.8" font-family="Times,serif" font-size="14.00">0</text>
</g>
<!-- 29&#45;&gt;17 -->
<g id="edge13" class="edge">
<title>29&#45;&gt;17</title>
<path fill="none" stroke="black" d="M1639.99,-19.3C1480.82,-21.11 668.6,-31.43 560,-54 397.99,-87.67 330.49,-73.97 214,-191.5 154.2,-251.83 76,-463.04 76,-547.99 76,-1087.99 76,-1087.99 76,-1087.99 76,-1128.65 105.4,-1129.83 123,-1166.49 247.85,-1426.57 174.06,-1545.59 349,-1774.98 429.44,-1880.47 596.36,-1915.27 670.34,-1925.81"/>
<polygon fill="black" stroke="black" points="670.18,-1929.32 680.56,-1927.19 671.12,-1922.38 670.18,-1929.32"/>
<text text-anchor="middle" x="81" y="-996.29" font-family="Times,serif" font-size="14.00">4</text>
</g>
<!-- 29&#45;&gt;26 -->
<g id="edge142" class="edge">
<title>29&#45;&gt;26</title>
<path fill="none" stroke="black" d="M1641.69,-24.77C1590.05,-38.05 1473.45,-76.2 1426,-158.5 1395.7,-211.04 1463.74,-224.31 1491,-278.5 1536.09,-368.13 1633.39,-615.46 1612,-713.49 1583.91,-842.19 1482.94,-969.53 1439.31,-1019.91"/>
<polygon fill="black" stroke="black" points="1436.54,-1017.77 1432.58,-1027.6 1441.8,-1022.38 1436.54,-1017.77"/>
<text text-anchor="middle" x="1599" y="-545.29" font-family="Times,serif" font-size="14.00">1</text>
</g>
</g>
</svg>
