<?xml version="1.0" encoding="UTF-8" standalone="no"?>
<!DOCTYPE svg PUBLIC "-//W3C//DTD SVG 1.1//EN"
 "http://www.w3.org/Graphics/SVG/1.1/DTD/svg11.dtd">
<!-- Generated by graphviz version 13.0.1 (20250616.1512)
 -->
<!-- Pages: 1 -->
<svg width="2597pt" height="2385pt"
 viewBox="0.00 0.00 2597.00 2385.00" xmlns="http://www.w3.org/2000/svg" xmlns:xlink="http://www.w3.org/1999/xlink">
<g id="graph0" class="graph" transform="scale(1 1) rotate(0) translate(4 2381.15)">
<polygon fill="white" stroke="none" points="-4,4 -4,-2381.15 2593.48,-2381.15 2593.48,4 -4,4"/>
<!-- fake -->
<g id="node1" class="node">
<title>fake</title>
</g>
<!-- 0 -->
<g id="node2" class="node">
<title>0</title>
<ellipse fill="none" stroke="black" cx="793.82" cy="-2282.15" rx="18" ry="18"/>
<ellipse fill="none" stroke="black" cx="793.82" cy="-2282.15" rx="22" ry="22"/>
<text xml:space="preserve" text-anchor="middle" x="793.82" y="-2277.48" font-family="Times,serif" font-size="14.00">0</text>
</g>
<!-- fake&#45;&gt;0 -->
<g id="edge1" class="edge">
<title>fake&#45;&gt;0</title>
<path fill="none" stroke="black" stroke-width="2" d="M793.82,-2340.76C793.82,-2333.32 793.82,-2324.39 793.82,-2315.8"/>
<polygon fill="black" stroke="black" stroke-width="2" points="797.32,-2317.5 793.82,-2307.5 790.32,-2317.5 797.32,-2317.5"/>
</g>
<!-- 4 -->
<g id="node6" class="node">
<title>4</title>
<ellipse fill="none" stroke="black" cx="1192.82" cy="-2188.9" rx="27" ry="18"/>
<text xml:space="preserve" text-anchor="middle" x="1192.82" y="-2184.23" font-family="Times,serif" font-size="14.00">4</text>
</g>
<!-- 0&#45;&gt;4 -->
<g id="edge29" class="edge">
<title>0&#45;&gt;4</title>
<path fill="none" stroke="black" d="M815.27,-2276.25C880.15,-2261.41 1074.8,-2216.89 1156.31,-2198.26"/>
<polygon fill="black" stroke="black" points="1157.04,-2201.68 1166,-2196.04 1155.48,-2194.86 1157.04,-2201.68"/>
<text xml:space="preserve" text-anchor="middle" x="1033.56" y="-2228.85" font-family="Times,serif" font-size="14.00">1</text>
</g>
<!-- 7 -->
<g id="node9" class="node">
<title>7</title>
<ellipse fill="none" stroke="black" cx="707.82" cy="-414.4" rx="27" ry="18"/>
<text xml:space="preserve" text-anchor="middle" x="707.82" y="-409.73" font-family="Times,serif" font-size="14.00">7</text>
</g>
<!-- 0&#45;&gt;7 -->
<g id="edge110" class="edge">
<title>0&#45;&gt;7</title>
<path fill="none" stroke="black" d="M771.47,-2281.63C678.07,-2283.04 323.82,-2282.27 323.82,-2189.9 323.82,-2189.9 323.82,-2189.9 323.82,-1784.45 323.82,-1721.38 347.82,-1707.65 347.82,-1644.58 347.82,-1644.58 347.82,-1644.58 347.82,-1291.75 347.82,-1188.56 375.74,-1165.24 411.82,-1068.55 433.57,-1010.26 448.03,-999.5 470.82,-941.6 479.43,-919.75 585.42,-556.46 601.82,-539.65 618.61,-522.45 633.66,-536.17 652.82,-521.65 678.41,-502.27 693.14,-467.57 700.81,-443.11"/>
<polygon fill="black" stroke="black" points="704.08,-444.39 703.51,-433.81 697.36,-442.44 704.08,-444.39"/>
<text xml:space="preserve" text-anchor="middle" x="352.32" y="-1332.7" font-family="Times,serif" font-size="14.00">4</text>
</g>
<!-- 10 -->
<g id="node12" class="node">
<title>10</title>
<ellipse fill="none" stroke="black" cx="589.82" cy="-503.65" rx="27" ry="18"/>
<text xml:space="preserve" text-anchor="middle" x="589.82" y="-498.98" font-family="Times,serif" font-size="14.00">10</text>
</g>
<!-- 0&#45;&gt;10 -->
<g id="edge85" class="edge">
<title>0&#45;&gt;10</title>
<path fill="none" stroke="black" d="M771.46,-2281.09C674.74,-2280.62 292.24,-2276.57 177.82,-2242.15 133.16,-2228.72 86.82,-2236.54 86.82,-2189.9 86.82,-2189.9 86.82,-2189.9 86.82,-1149.88 86.82,-990.67 201.08,-985.97 273.82,-844.35 297.3,-798.64 290.58,-780.78 318.82,-737.85 385.9,-635.92 408.21,-608.7 508.82,-539.65 525.9,-527.93 532.81,-529.88 551.82,-521.65 553.6,-520.88 555.42,-520.09 557.26,-519.28"/>
<polygon fill="black" stroke="black" points="558.65,-522.49 566.38,-515.24 555.82,-516.09 558.65,-522.49"/>
<text xml:space="preserve" text-anchor="middle" x="91.32" y="-1377.33" font-family="Times,serif" font-size="14.00">3</text>
</g>
<!-- 11 -->
<g id="node13" class="node">
<title>11</title>
<ellipse fill="none" stroke="black" cx="1912.82" cy="-1096.4" rx="23.85" ry="23.85"/>
<ellipse fill="none" stroke="black" cx="1912.82" cy="-1096.4" rx="27.85" ry="27.85"/>
<text xml:space="preserve" text-anchor="middle" x="1912.82" y="-1091.73" font-family="Times,serif" font-size="14.00">11</text>
</g>
<!-- 0&#45;&gt;11 -->
<g id="edge39" class="edge">
<title>0&#45;&gt;11</title>
<path fill="none" stroke="black" d="M816.26,-2281.05C1006.25,-2279.99 2338.82,-2269.76 2338.82,-2189.9 2338.82,-2189.9 2338.82,-2189.9 2338.82,-1739.83 2338.82,-1686.93 2268.54,-1317.09 2236.82,-1274.75 2236.52,-1274.34 2030.42,-1161.68 1947.14,-1116.16"/>
<polygon fill="black" stroke="black" points="1948.93,-1113.15 1938.48,-1111.42 1945.57,-1119.29 1948.93,-1113.15"/>
<text xml:space="preserve" text-anchor="middle" x="2341.18" y="-1687.53" font-family="Times,serif" font-size="14.00">2</text>
</g>
<!-- 26 -->
<g id="node28" class="node">
<title>26</title>
<ellipse fill="none" stroke="black" cx="2116.82" cy="-987.45" rx="23.85" ry="23.85"/>
<ellipse fill="none" stroke="black" cx="2116.82" cy="-987.45" rx="27.85" ry="27.85"/>
<text xml:space="preserve" text-anchor="middle" x="2116.82" y="-982.78" font-family="Times,serif" font-size="14.00">26</text>
</g>
<!-- 0&#45;&gt;26 -->
<g id="edge131" class="edge">
<title>0&#45;&gt;26</title>
<path fill="none" stroke="black" d="M816.2,-2281.17C1016.23,-2281.13 2489.82,-2277.86 2489.82,-2189.9 2489.82,-2189.9 2489.82,-2189.9 2489.82,-1543.95 2489.82,-1350.09 2453.68,-1282.49 2319.82,-1142.25 2266.83,-1086.73 2192.37,-1035.79 2149.92,-1008.75"/>
<polygon fill="black" stroke="black" points="2151.96,-1005.9 2141.63,-1003.52 2148.22,-1011.82 2151.96,-1005.9"/>
<text xml:space="preserve" text-anchor="middle" x="2494.32" y="-1638.9" font-family="Times,serif" font-size="14.00">0</text>
</g>
<!-- 1 -->
<g id="node3" class="node">
<title>1</title>
<ellipse fill="none" stroke="black" cx="1575.82" cy="-884.35" rx="18" ry="18"/>
<ellipse fill="none" stroke="black" cx="1575.82" cy="-884.35" rx="22" ry="22"/>
<text xml:space="preserve" text-anchor="middle" x="1575.82" y="-879.68" font-family="Times,serif" font-size="14.00">1</text>
</g>
<!-- 1&#45;&gt;1 -->
<g id="edge14" class="edge">
<title>1&#45;&gt;1</title>
<path fill="none" stroke="black" d="M1596.4,-893.2C1606.67,-894.42 1615.82,-891.47 1615.82,-884.35 1615.82,-880.12 1612.6,-877.36 1607.82,-876.08"/>
<polygon fill="black" stroke="black" points="1608.08,-872.59 1597.92,-875.58 1607.73,-879.58 1608.08,-872.59"/>
<text xml:space="preserve" text-anchor="middle" x="1620.32" y="-879.68" font-family="Times,serif" font-size="14.00">3</text>
</g>
<!-- 12 -->
<g id="node14" class="node">
<title>12</title>
<ellipse fill="none" stroke="black" cx="2344.82" cy="-791.1" rx="27" ry="18"/>
<text xml:space="preserve" text-anchor="middle" x="2344.82" y="-786.43" font-family="Times,serif" font-size="14.00">12</text>
</g>
<!-- 1&#45;&gt;12 -->
<g id="edge47" class="edge">
<title>1&#45;&gt;12</title>
<path fill="none" stroke="black" d="M1597.19,-877.82C1642.36,-866.36 1751.06,-840.01 1843.82,-827.1 2015.2,-803.24 2221.95,-795.34 2306.24,-793"/>
<polygon fill="black" stroke="black" points="2306.12,-796.5 2316.02,-792.74 2305.93,-789.5 2306.12,-796.5"/>
<text xml:space="preserve" text-anchor="middle" x="1848.32" y="-831.05" font-family="Times,serif" font-size="14.00">1</text>
</g>
<!-- 14 -->
<g id="node16" class="node">
<title>14</title>
<ellipse fill="none" stroke="black" cx="1580.82" cy="-1292.75" rx="27" ry="18"/>
<text xml:space="preserve" text-anchor="middle" x="1580.82" y="-1288.08" font-family="Times,serif" font-size="14.00">14</text>
</g>
<!-- 1&#45;&gt;14 -->
<g id="edge26" class="edge">
<title>1&#45;&gt;14</title>
<path fill="none" stroke="black" d="M1588.18,-902.77C1592.06,-909.24 1595.85,-916.83 1597.82,-924.35 1608.09,-963.45 1599.06,-974.9 1597.82,-1015.3 1595.04,-1105.88 1587.14,-1212.92 1583.17,-1263.09"/>
<polygon fill="black" stroke="black" points="1579.7,-1262.55 1582.39,-1272.8 1586.68,-1263.11 1579.7,-1262.55"/>
<text xml:space="preserve" text-anchor="middle" x="1600.22" y="-1091.73" font-family="Times,serif" font-size="14.00">0</text>
</g>
<!-- 1&#45;&gt;14 -->
<g id="edge150" class="edge">
<title>1&#45;&gt;14</title>
<path fill="none" stroke="black" d="M1575.92,-906.71C1576.21,-963.61 1577.2,-1123.62 1579.82,-1256.75 1579.86,-1258.81 1579.91,-1260.93 1579.96,-1263.06"/>
<polygon fill="black" stroke="black" points="1576.46,-1262.89 1580.22,-1272.79 1583.45,-1262.7 1576.46,-1262.89"/>
<text xml:space="preserve" text-anchor="middle" x="1582.24" y="-1091.73" font-family="Times,serif" font-size="14.00">4</text>
</g>
<!-- 15 -->
<g id="node17" class="node">
<title>15</title>
<ellipse fill="none" stroke="black" cx="1384.82" cy="-1785.45" rx="27" ry="18"/>
<text xml:space="preserve" text-anchor="middle" x="1384.82" y="-1780.78" font-family="Times,serif" font-size="14.00">15</text>
</g>
<!-- 1&#45;&gt;15 -->
<g id="edge142" class="edge">
<title>1&#45;&gt;15</title>
<path fill="none" stroke="black" d="M1566.25,-904.42C1532.76,-972.97 1422.82,-1214.08 1422.82,-1425.63 1422.82,-1693.2 1422.82,-1693.2 1422.82,-1693.2 1422.82,-1716.87 1411.79,-1741.53 1401.62,-1759.23"/>
<polygon fill="black" stroke="black" points="1398.79,-1757.14 1396.6,-1767.5 1404.78,-1760.77 1398.79,-1757.14"/>
<text xml:space="preserve" text-anchor="middle" x="1434.01" y="-1332.7" font-family="Times,serif" font-size="14.00">2</text>
</g>
<!-- 2 -->
<g id="node4" class="node">
<title>2</title>
<ellipse fill="none" stroke="black" cx="1335.82" cy="-1971.95" rx="27" ry="18"/>
<text xml:space="preserve" text-anchor="middle" x="1335.82" y="-1967.28" font-family="Times,serif" font-size="14.00">2</text>
</g>
<!-- 3 -->
<g id="node5" class="node">
<title>3</title>
<ellipse fill="none" stroke="black" cx="661.82" cy="-1878.7" rx="18" ry="18"/>
<ellipse fill="none" stroke="black" cx="661.82" cy="-1878.7" rx="22" ry="22"/>
<text xml:space="preserve" text-anchor="middle" x="661.82" y="-1874.03" font-family="Times,serif" font-size="14.00">3</text>
</g>
<!-- 2&#45;&gt;3 -->
<g id="edge137" class="edge">
<title>2&#45;&gt;3</title>
<path fill="none" stroke="black" d="M1309.4,-1967.38C1203.86,-1953.09 812.54,-1900.11 695.26,-1884.23"/>
<polygon fill="black" stroke="black" points="695.74,-1880.76 685.36,-1882.89 694.8,-1887.7 695.74,-1880.76"/>
<text xml:space="preserve" text-anchor="middle" x="1063.69" y="-1922.65" font-family="Times,serif" font-size="14.00">2</text>
</g>
<!-- 2&#45;&gt;12 -->
<g id="edge130" class="edge">
<title>2&#45;&gt;12</title>
<path fill="none" stroke="black" d="M1362.71,-1968.25C1461.78,-1957.17 1812.72,-1908.07 2044.82,-1749.45 2099.53,-1712.07 2119.81,-1706.48 2157.82,-1652.2 2240.62,-1533.98 2382.82,-1187.26 2382.82,-1042.93 2382.82,-1042.93 2382.82,-1042.93 2382.82,-883.35 2382.82,-859.68 2371.79,-835.03 2361.62,-817.32"/>
<polygon fill="black" stroke="black" points="2364.78,-815.79 2356.6,-809.06 2358.79,-819.42 2364.78,-815.79"/>
<text xml:space="preserve" text-anchor="middle" x="2303.04" y="-1377.33" font-family="Times,serif" font-size="14.00">4</text>
</g>
<!-- 2&#45;&gt;15 -->
<g id="edge120" class="edge">
<title>2&#45;&gt;15</title>
<path fill="none" stroke="black" d="M1340.34,-1953.93C1348.8,-1922.07 1367.1,-1853.2 1377.39,-1814.43"/>
<polygon fill="black" stroke="black" points="1380.74,-1815.47 1379.92,-1804.9 1373.97,-1813.67 1380.74,-1815.47"/>
<text xml:space="preserve" text-anchor="middle" x="1370.49" y="-1874.03" font-family="Times,serif" font-size="14.00">1</text>
</g>
<!-- 2&#45;&gt;26 -->
<g id="edge64" class="edge">
<title>2&#45;&gt;26</title>
<path fill="none" stroke="black" d="M1361.04,-1964.92C1452.05,-1941.79 1766.37,-1850.04 1922.82,-1652.2 2001.43,-1552.81 2014.54,-1519.81 2055.82,-1400 2107.24,-1250.8 2104.77,-1207.74 2118.82,-1050.55 2119.5,-1042.99 2119.65,-1034.89 2119.52,-1027.12"/>
<polygon fill="black" stroke="black" points="2123.02,-1027.09 2119.18,-1017.21 2116.02,-1027.33 2123.02,-1027.09"/>
<text xml:space="preserve" text-anchor="middle" x="2041.43" y="-1476.43" font-family="Times,serif" font-size="14.00">0</text>
</g>
<!-- 27 -->
<g id="node29" class="node">
<title>27</title>
<ellipse fill="none" stroke="black" cx="1367.82" cy="-2099.65" rx="27" ry="18"/>
<text xml:space="preserve" text-anchor="middle" x="1367.82" y="-2094.98" font-family="Times,serif" font-size="14.00">27</text>
</g>
<!-- 2&#45;&gt;27 -->
<g id="edge104" class="edge">
<title>2&#45;&gt;27</title>
<path fill="none" stroke="black" d="M1332.57,-1990C1329.76,-2008.74 1327.48,-2039.41 1336.82,-2063.65 1338.56,-2068.17 1341.18,-2072.48 1344.16,-2076.44"/>
<polygon fill="black" stroke="black" points="1341.36,-2078.56 1350.56,-2083.81 1346.65,-2073.97 1341.36,-2078.56"/>
<text xml:space="preserve" text-anchor="middle" x="1341.32" y="-2031.13" font-family="Times,serif" font-size="14.00">3</text>
</g>
<!-- 3&#45;&gt;15 -->
<g id="edge125" class="edge">
<title>3&#45;&gt;15</title>
<path fill="none" stroke="black" d="M683.75,-1875.05C761.84,-1865.56 1033.68,-1832.42 1257.82,-1803.45 1287.92,-1799.57 1321.99,-1794.99 1347.27,-1791.57"/>
<polygon fill="black" stroke="black" points="1347.62,-1795.06 1357.06,-1790.24 1346.68,-1788.12 1347.62,-1795.06"/>
<text xml:space="preserve" text-anchor="middle" x="1115.22" y="-1825.4" font-family="Times,serif" font-size="14.00">3</text>
</g>
<!-- 16 -->
<g id="node18" class="node">
<title>16</title>
<ellipse fill="none" stroke="black" cx="906.82" cy="-315.3" rx="23.85" ry="23.85"/>
<ellipse fill="none" stroke="black" cx="906.82" cy="-315.3" rx="27.85" ry="27.85"/>
<text xml:space="preserve" text-anchor="middle" x="906.82" y="-310.63" font-family="Times,serif" font-size="14.00">16</text>
</g>
<!-- 3&#45;&gt;16 -->
<g id="edge31" class="edge">
<title>3&#45;&gt;16</title>
<path fill="none" stroke="black" d="M651.1,-1858.93C623.78,-1810.71 550.11,-1678.21 498.82,-1562.95 371.81,-1277.53 413.67,-1173.49 441.82,-862.35 457.56,-688.4 431.69,-610.51 553.82,-485.65 619.06,-418.96 637.71,-399.36 722.82,-361.15 748.54,-349.61 822.35,-333.41 868.3,-323.97"/>
<polygon fill="black" stroke="black" points="868.75,-327.45 877.85,-322.02 867.35,-320.59 868.75,-327.45"/>
<text xml:space="preserve" text-anchor="middle" x="424.9" y="-1091.73" font-family="Times,serif" font-size="14.00">4</text>
</g>
<!-- 22 -->
<g id="node24" class="node">
<title>22</title>
<ellipse fill="none" stroke="black" cx="1101.82" cy="-503.65" rx="27" ry="18"/>
<text xml:space="preserve" text-anchor="middle" x="1101.82" y="-498.98" font-family="Times,serif" font-size="14.00">22</text>
</g>
<!-- 3&#45;&gt;22 -->
<g id="edge112" class="edge">
<title>3&#45;&gt;22</title>
<path fill="none" stroke="black" d="M663.57,-1856.6C664.68,-1833.82 664.18,-1796.83 652.82,-1767.45 642.06,-1739.59 623.16,-1741.84 611.82,-1714.2 502.56,-1447.97 561.79,-1338.76 660.82,-1068.55 679.42,-1017.81 685.09,-1004.73 714.82,-959.6 722.66,-947.7 1002.7,-620.42 1081.42,-528.47"/>
<polygon fill="black" stroke="black" points="1083.97,-530.88 1087.82,-521 1078.66,-526.32 1083.97,-530.88"/>
<text xml:space="preserve" text-anchor="middle" x="624.54" y="-1194.83" font-family="Times,serif" font-size="14.00">2</text>
</g>
<!-- 3&#45;&gt;26 -->
<g id="edge15" class="edge">
<title>3&#45;&gt;26</title>
<path fill="none" stroke="black" d="M683.95,-1877.5C820.8,-1875.91 1551.98,-1862.14 1738.82,-1749.45 1874.25,-1667.78 2018.15,-1270.3 2078.82,-1124.25 2092.14,-1092.21 2102.36,-1054.01 2108.83,-1026.3"/>
<polygon fill="black" stroke="black" points="2112.23,-1027.12 2111.03,-1016.6 2105.41,-1025.57 2112.23,-1027.12"/>
<text xml:space="preserve" text-anchor="middle" x="1960.63" y="-1421.95" font-family="Times,serif" font-size="14.00">1</text>
</g>
<!-- 3&#45;&gt;27 -->
<g id="edge43" class="edge">
<title>3&#45;&gt;27</title>
<path fill="none" stroke="black" d="M658.9,-1900.91C654.85,-1940.07 652.75,-2023.44 700.82,-2063.65 725.29,-2084.13 1243.1,-2078.28 1274.82,-2081.65 1293.52,-2083.65 1314.11,-2087.26 1331.15,-2090.64"/>
<polygon fill="black" stroke="black" points="1330.33,-2094.05 1340.83,-2092.62 1331.74,-2087.19 1330.33,-2094.05"/>
<text xml:space="preserve" text-anchor="middle" x="666.16" y="-1967.28" font-family="Times,serif" font-size="14.00">0</text>
</g>
<!-- 4&#45;&gt;0 -->
<g id="edge52" class="edge">
<title>4&#45;&gt;0</title>
<path fill="none" stroke="black" d="M1165.97,-2192.25C1121.85,-2196.48 1031.46,-2206.66 956.82,-2224.9 909.74,-2236.41 857.01,-2255.87 824.61,-2268.61"/>
<polygon fill="black" stroke="black" points="823.45,-2265.31 815.45,-2272.25 826.04,-2271.81 823.45,-2265.31"/>
<text xml:space="preserve" text-anchor="middle" x="961.32" y="-2228.85" font-family="Times,serif" font-size="14.00">2</text>
</g>
<!-- 4&#45;&gt;2 -->
<g id="edge19" class="edge">
<title>4&#45;&gt;2</title>
<path fill="none" stroke="black" d="M1203.34,-2172.1C1227.87,-2135.22 1289.07,-2043.22 1318.92,-1998.36"/>
<polygon fill="black" stroke="black" points="1321.83,-2000.31 1324.45,-1990.04 1316,-1996.43 1321.83,-2000.31"/>
<text xml:space="preserve" text-anchor="middle" x="1266.44" y="-2094.98" font-family="Times,serif" font-size="14.00">4</text>
</g>
<!-- 18 -->
<g id="node20" class="node">
<title>18</title>
<ellipse fill="none" stroke="black" cx="2145.82" cy="-2035.8" rx="23.85" ry="23.85"/>
<ellipse fill="none" stroke="black" cx="2145.82" cy="-2035.8" rx="27.85" ry="27.85"/>
<text xml:space="preserve" text-anchor="middle" x="2145.82" y="-2031.13" font-family="Times,serif" font-size="14.00">18</text>
</g>
<!-- 4&#45;&gt;18 -->
<g id="edge38" class="edge">
<title>4&#45;&gt;18</title>
<path fill="none" stroke="black" d="M1219.88,-2187.48C1361.15,-2185.17 2008.95,-2173.51 2045.82,-2152.9 2079.16,-2134.28 2068.48,-2110.21 2093.82,-2081.65 2095.99,-2079.21 2105.85,-2070.63 2116.41,-2061.61"/>
<polygon fill="black" stroke="black" points="2118.38,-2064.53 2123.74,-2055.38 2113.85,-2059.19 2118.38,-2064.53"/>
<text xml:space="preserve" text-anchor="middle" x="2069.34" y="-2139.6" font-family="Times,serif" font-size="14.00">1</text>
</g>
<!-- 4&#45;&gt;18 -->
<g id="edge107" class="edge">
<title>4&#45;&gt;18</title>
<path fill="none" stroke="black" d="M1219.99,-2187.6C1367.97,-2185.83 2071.57,-2176.21 2110.82,-2152.9 2136.88,-2137.43 2144.7,-2102.66 2146.55,-2075.18"/>
<polygon fill="black" stroke="black" points="2150.04,-2075.57 2146.96,-2065.43 2143.05,-2075.28 2150.04,-2075.57"/>
<text xml:space="preserve" text-anchor="middle" x="2133.16" y="-2139.6" font-family="Times,serif" font-size="14.00">0</text>
</g>
<!-- 4&#45;&gt;27 -->
<g id="edge55" class="edge">
<title>4&#45;&gt;27</title>
<path fill="none" stroke="black" d="M1213.93,-2177.38C1244.41,-2162.18 1300.97,-2133.98 1336.38,-2116.33"/>
<polygon fill="black" stroke="black" points="1337.9,-2119.49 1345.28,-2111.89 1334.77,-2113.22 1337.9,-2119.49"/>
<text xml:space="preserve" text-anchor="middle" x="1300.5" y="-2139.6" font-family="Times,serif" font-size="14.00">3</text>
</g>
<!-- 5 -->
<g id="node7" class="node">
<title>5</title>
<ellipse fill="none" stroke="black" cx="822.82" cy="-1692.2" rx="18" ry="18"/>
<ellipse fill="none" stroke="black" cx="822.82" cy="-1692.2" rx="22" ry="22"/>
<text xml:space="preserve" text-anchor="middle" x="822.82" y="-1687.53" font-family="Times,serif" font-size="14.00">5</text>
</g>
<!-- 5&#45;&gt;0 -->
<g id="edge116" class="edge">
<title>5&#45;&gt;0</title>
<path fill="none" stroke="black" d="M801.28,-1698.46C754.42,-1711.05 642.95,-1747.56 586.82,-1821.45 525.57,-1902.1 506.82,-1933.53 506.82,-2034.8 506.82,-2189.9 506.82,-2189.9 506.82,-2189.9 506.82,-2242.64 685,-2268.92 760.57,-2277.7"/>
<polygon fill="black" stroke="black" points="759.95,-2281.15 770.28,-2278.79 760.73,-2274.19 759.95,-2281.15"/>
<text xml:space="preserve" text-anchor="middle" x="517.86" y="-1967.28" font-family="Times,serif" font-size="14.00">4</text>
</g>
<!-- 5&#45;&gt;15 -->
<g id="edge56" class="edge">
<title>5&#45;&gt;15</title>
<path fill="none" stroke="black" d="M845.08,-1693.64C921.8,-1695.4 1174.7,-1703.3 1249.82,-1732.2 1261.75,-1736.79 1261.45,-1743.63 1272.82,-1749.45 1296.76,-1761.71 1325.78,-1770.63 1348.29,-1776.4"/>
<polygon fill="black" stroke="black" points="1347.39,-1779.78 1357.93,-1778.77 1349.06,-1772.98 1347.39,-1779.78"/>
<text xml:space="preserve" text-anchor="middle" x="1277.32" y="-1736.15" font-family="Times,serif" font-size="14.00">2</text>
</g>
<!-- 5&#45;&gt;16 -->
<g id="edge10" class="edge">
<title>5&#45;&gt;16</title>
<path fill="none" stroke="black" d="M816.07,-1670.8C810.61,-1652.47 803.82,-1624.71 803.82,-1599.95 803.82,-1599.95 803.82,-1599.95 803.82,-1425.63 803.82,-1047.11 607.09,-919.45 763.82,-574.9 771.07,-558.97 810.44,-534.94 821.82,-521.65 852.59,-485.72 861.53,-476.03 879.82,-432.4 890.3,-407.42 897.12,-377.64 901.29,-354.49"/>
<polygon fill="black" stroke="black" points="904.7,-355.32 902.92,-344.87 897.79,-354.14 904.7,-355.32"/>
<text xml:space="preserve" text-anchor="middle" x="736.25" y="-982.78" font-family="Times,serif" font-size="14.00">3</text>
</g>
<!-- 19 -->
<g id="node21" class="node">
<title>19</title>
<ellipse fill="none" stroke="black" cx="727.82" cy="-1544.95" rx="27" ry="18"/>
<text xml:space="preserve" text-anchor="middle" x="727.82" y="-1540.28" font-family="Times,serif" font-size="14.00">19</text>
</g>
<!-- 5&#45;&gt;19 -->
<g id="edge66" class="edge">
<title>5&#45;&gt;19</title>
<path fill="none" stroke="black" d="M805.92,-1677.97C797.65,-1670.93 787.98,-1661.76 780.82,-1652.2 762.44,-1627.64 747.51,-1595.72 738.24,-1573.3"/>
<polygon fill="black" stroke="black" points="741.58,-1572.21 734.6,-1564.24 735.08,-1574.82 741.58,-1572.21"/>
<text xml:space="preserve" text-anchor="middle" x="785.32" y="-1638.9" font-family="Times,serif" font-size="14.00">1</text>
</g>
<!-- 21 -->
<g id="node23" class="node">
<title>21</title>
<ellipse fill="none" stroke="black" cx="1164.82" cy="-1598.95" rx="27" ry="18"/>
<text xml:space="preserve" text-anchor="middle" x="1164.82" y="-1594.28" font-family="Times,serif" font-size="14.00">21</text>
</g>
<!-- 5&#45;&gt;21 -->
<g id="edge4" class="edge">
<title>5&#45;&gt;21</title>
<path fill="none" stroke="black" d="M844.95,-1689.51C880.05,-1686.16 950.01,-1676.75 1003.82,-1652.2 1015.45,-1646.9 1015.29,-1640.46 1026.82,-1634.95 1058.97,-1619.59 1098.66,-1610.43 1127.22,-1605.36"/>
<polygon fill="black" stroke="black" points="1127.56,-1608.85 1136.84,-1603.74 1126.4,-1601.95 1127.56,-1608.85"/>
<text xml:space="preserve" text-anchor="middle" x="1031.32" y="-1638.9" font-family="Times,serif" font-size="14.00">0</text>
</g>
<!-- 6 -->
<g id="node8" class="node">
<title>6</title>
<ellipse fill="none" stroke="black" cx="1625.82" cy="-1199.5" rx="18" ry="18"/>
<ellipse fill="none" stroke="black" cx="1625.82" cy="-1199.5" rx="22" ry="22"/>
<text xml:space="preserve" text-anchor="middle" x="1625.82" y="-1194.83" font-family="Times,serif" font-size="14.00">6</text>
</g>
<!-- 6&#45;&gt;11 -->
<g id="edge123" class="edge">
<title>6&#45;&gt;11</title>
<path fill="none" stroke="black" d="M1646.46,-1191.23C1694.62,-1174.27 1814.94,-1131.88 1876.01,-1110.37"/>
<polygon fill="black" stroke="black" points="1877,-1113.73 1885.27,-1107.11 1874.67,-1107.13 1877,-1113.73"/>
<text xml:space="preserve" text-anchor="middle" x="1782.43" y="-1146.2" font-family="Times,serif" font-size="14.00">4</text>
</g>
<!-- 6&#45;&gt;16 -->
<g id="edge121" class="edge">
<title>6&#45;&gt;16</title>
<path fill="none" stroke="black" d="M1622.74,-1177.48C1620.62,-1166.59 1617.19,-1153.3 1611.82,-1142.25 1607.39,-1133.14 1602.23,-1133.38 1597.82,-1124.25 1554.49,-1034.5 1566.59,-1003.61 1544.82,-906.35 1508.49,-744.02 1573.26,-669.93 1469.82,-539.65 1350.03,-388.78 1257,-423.81 1074.82,-361.15 1031.09,-346.11 979.54,-333.01 945.19,-324.92"/>
<polygon fill="black" stroke="black" points="946.24,-321.57 935.71,-322.71 944.66,-328.38 946.24,-321.57"/>
<text xml:space="preserve" text-anchor="middle" x="1537.09" y="-741.8" font-family="Times,serif" font-size="14.00">1</text>
</g>
<!-- 17 -->
<g id="node19" class="node">
<title>17</title>
<ellipse fill="none" stroke="black" cx="1773.82" cy="-107.25" rx="27" ry="18"/>
<text xml:space="preserve" text-anchor="middle" x="1773.82" y="-102.58" font-family="Times,serif" font-size="14.00">17</text>
</g>
<!-- 6&#45;&gt;17 -->
<g id="edge94" class="edge">
<title>6&#45;&gt;17</title>
<path fill="none" stroke="black" d="M1627.66,-1177.47C1628.11,-1171.65 1628.54,-1165.34 1628.82,-1159.5 1635.2,-1027.57 1640.69,-994.26 1633.82,-862.35 1631.15,-811.09 1621.82,-798.81 1621.82,-747.48 1621.82,-747.48 1621.82,-747.48 1621.82,-205.35 1621.82,-151.05 1691.56,-125.76 1736.57,-115.09"/>
<polygon fill="black" stroke="black" points="1737.21,-118.54 1746.22,-112.96 1735.7,-111.7 1737.21,-118.54"/>
<text xml:space="preserve" text-anchor="middle" x="1626.32" y="-652.55" font-family="Times,serif" font-size="14.00">3</text>
</g>
<!-- 6&#45;&gt;27 -->
<g id="edge8" class="edge">
<title>6&#45;&gt;27</title>
<path fill="none" stroke="black" d="M1606.84,-1211.28C1587.12,-1223.7 1557.42,-1246.12 1544.82,-1274.75 1538.38,-1289.4 1542.4,-1294.94 1544.82,-1310.75 1584.38,-1569.01 1711.65,-1600.49 1762.82,-1856.7 1769.72,-1891.24 1782.42,-1906.69 1762.82,-1935.95 1680.92,-2058.27 1488.56,-2088.72 1406.27,-2096.23"/>
<polygon fill="black" stroke="black" points="1406.14,-2092.73 1396.46,-2097.05 1406.72,-2099.7 1406.14,-2092.73"/>
<text xml:space="preserve" text-anchor="middle" x="1692.99" y="-1638.9" font-family="Times,serif" font-size="14.00">2</text>
</g>
<!-- 6&#45;&gt;27 -->
<g id="edge101" class="edge">
<title>6&#45;&gt;27</title>
<path fill="none" stroke="black" d="M1641.52,-1215.23C1679.79,-1251.93 1778.83,-1351.81 1834.82,-1453.25 1950.44,-1662.73 1918.62,-1754.37 1876.82,-1989.95 1870.73,-2024.3 1877.68,-2042.65 1849.82,-2063.65 1814.75,-2090.1 1514.56,-2096.7 1406.44,-2098.23"/>
<polygon fill="black" stroke="black" points="1406.58,-2094.72 1396.62,-2098.36 1406.67,-2101.72 1406.58,-2094.72"/>
<text xml:space="preserve" text-anchor="middle" x="1914.29" y="-1638.9" font-family="Times,serif" font-size="14.00">0</text>
</g>
<!-- 7&#45;&gt;10 -->
<g id="edge24" class="edge">
<title>7&#45;&gt;10</title>
<path fill="none" stroke="black" d="M687.41,-426.56C676.04,-433.06 661.8,-441.67 649.82,-450.4 637.09,-459.68 623.79,-471.06 612.96,-480.83"/>
<polygon fill="black" stroke="black" points="610.63,-478.22 605.62,-487.56 615.36,-483.38 610.63,-478.22"/>
<text xml:space="preserve" text-anchor="middle" x="654.32" y="-454.35" font-family="Times,serif" font-size="14.00">4</text>
</g>
<!-- 7&#45;&gt;10 -->
<g id="edge74" class="edge">
<title>7&#45;&gt;10</title>
<path fill="none" stroke="black" d="M695.73,-430.95C686.48,-442.14 672.95,-457.06 658.82,-467.65 647.96,-475.8 634.92,-482.96 623.12,-488.66"/>
<polygon fill="black" stroke="black" points="621.71,-485.45 614.1,-492.82 624.64,-491.81 621.71,-485.45"/>
<text xml:space="preserve" text-anchor="middle" x="682.42" y="-454.35" font-family="Times,serif" font-size="14.00">2</text>
</g>
<!-- 7&#45;&gt;16 -->
<g id="edge90" class="edge">
<title>7&#45;&gt;16</title>
<path fill="none" stroke="black" d="M715.3,-396.94C721.39,-385.3 731.07,-370.21 743.82,-361.15 780.68,-334.95 832.22,-324.04 867.41,-319.51"/>
<polygon fill="black" stroke="black" points="867.64,-323 877.18,-318.38 866.84,-316.05 867.64,-323"/>
<text xml:space="preserve" text-anchor="middle" x="748.32" y="-365.1" font-family="Times,serif" font-size="14.00">1</text>
</g>
<!-- 7&#45;&gt;21 -->
<g id="edge35" class="edge">
<title>7&#45;&gt;21</title>
<path fill="none" stroke="black" d="M719.6,-430.76C723.64,-436.65 727.89,-443.59 730.82,-450.4 772.96,-548.32 762.56,-579.83 785.82,-683.85 822.11,-846.11 877.64,-885.25 859.82,-1050.55 849.95,-1142.14 808.24,-1169.86 838.82,-1256.75 869.45,-1343.79 888.89,-1361.87 944.82,-1435.25 992.59,-1497.93 1001.7,-1520.08 1067.82,-1562.95 1086.32,-1574.95 1109.47,-1583.5 1128.51,-1589.15"/>
<polygon fill="black" stroke="black" points="1127.44,-1592.48 1138.01,-1591.81 1129.33,-1585.74 1127.44,-1592.48"/>
<text xml:space="preserve" text-anchor="middle" x="867.76" y="-982.78" font-family="Times,serif" font-size="14.00">0</text>
</g>
<!-- 23 -->
<g id="node25" class="node">
<title>23</title>
<ellipse fill="none" stroke="black" cx="630.82" cy="-602.75" rx="27" ry="18"/>
<text xml:space="preserve" text-anchor="middle" x="630.82" y="-598.08" font-family="Times,serif" font-size="14.00">23</text>
</g>
<!-- 7&#45;&gt;23 -->
<g id="edge96" class="edge">
<title>7&#45;&gt;23</title>
<path fill="none" stroke="black" d="M713.77,-432.05C716.64,-442.4 718.86,-455.93 715.82,-467.65 704.55,-511.14 673.18,-553.61 651.87,-578.73"/>
<polygon fill="black" stroke="black" points="649.44,-576.18 645.52,-586.03 654.73,-580.78 649.44,-576.18"/>
<text xml:space="preserve" text-anchor="middle" x="714.51" y="-498.98" font-family="Times,serif" font-size="14.00">3</text>
</g>
<!-- 8 -->
<g id="node10" class="node">
<title>8</title>
<ellipse fill="none" stroke="black" cx="871.82" cy="-107.25" rx="27" ry="18"/>
<text xml:space="preserve" text-anchor="middle" x="871.82" y="-102.58" font-family="Times,serif" font-size="14.00">8</text>
</g>
<!-- 8&#45;&gt;0 -->
<g id="edge145" class="edge">
<title>8&#45;&gt;0</title>
<path fill="none" stroke="black" d="M844.63,-107.77C757.47,-106.65 477.5,-106.39 249.82,-143.25 190.73,-152.82 162.38,-136.4 119.82,-178.5 28.05,-269.3 40.82,-328.93 40.82,-458.03 40.82,-2189.9 40.82,-2189.9 40.82,-2189.9 40.82,-2226.28 69.97,-2228.85 103.82,-2242.15 165.22,-2266.28 630.28,-2277.74 760.2,-2280.49"/>
<polygon fill="black" stroke="black" points="760.12,-2283.98 770.19,-2280.69 760.27,-2276.99 760.12,-2283.98"/>
<text xml:space="preserve" text-anchor="middle" x="45.32" y="-1194.83" font-family="Times,serif" font-size="14.00">2</text>
</g>
<!-- 8&#45;&gt;4 -->
<g id="edge114" class="edge">
<title>8&#45;&gt;4</title>
<path fill="none" stroke="black" d="M844.51,-107.8C709.15,-106.27 116.82,-108.25 116.82,-259.83 116.82,-836.73 116.82,-836.73 116.82,-836.73 116.82,-875.76 112.16,-885.34 110.82,-924.35 107.22,-1029.59 125.31,-1055.2 139.82,-1159.5 200.74,-1597.36 83.29,-1816.4 406.82,-2117.65 427.8,-2137.19 433.56,-2144.08 460.82,-2152.9 526.91,-2174.3 1012.94,-2184.66 1154.34,-2187.25"/>
<polygon fill="black" stroke="black" points="1154.23,-2190.74 1164.29,-2187.42 1154.35,-2183.74 1154.23,-2190.74"/>
<text xml:space="preserve" text-anchor="middle" x="144.32" y="-1146.2" font-family="Times,serif" font-size="14.00">4</text>
</g>
<!-- 13 -->
<g id="node15" class="node">
<title>13</title>
<ellipse fill="none" stroke="black" cx="1474.82" cy="-18" rx="27" ry="18"/>
<text xml:space="preserve" text-anchor="middle" x="1474.82" y="-13.32" font-family="Times,serif" font-size="14.00">13</text>
</g>
<!-- 8&#45;&gt;13 -->
<g id="edge60" class="edge">
<title>8&#45;&gt;13</title>
<path fill="none" stroke="black" d="M898.12,-102.44C994.01,-88.57 1325.14,-40.66 1437.32,-24.43"/>
<polygon fill="black" stroke="black" points="1437.49,-27.94 1446.89,-23.04 1436.49,-21.01 1437.49,-27.94"/>
<text xml:space="preserve" text-anchor="middle" x="1231.83" y="-57.95" font-family="Times,serif" font-size="14.00">3</text>
</g>
<!-- 8&#45;&gt;23 -->
<g id="edge147" class="edge">
<title>8&#45;&gt;23</title>
<path fill="none" stroke="black" d="M844.9,-110.14C738.66,-118.24 351.55,-154.26 292.82,-252.2 250.73,-322.4 284.44,-364.96 330.82,-432.4 395.41,-526.3 530.07,-574.24 594.7,-592.62"/>
<polygon fill="black" stroke="black" points="593.52,-595.92 604.09,-595.21 595.38,-589.18 593.52,-595.92"/>
<text xml:space="preserve" text-anchor="middle" x="299.18" y="-365.1" font-family="Times,serif" font-size="14.00">1</text>
</g>
<!-- 29 -->
<g id="node31" class="node">
<title>29</title>
<ellipse fill="none" stroke="black" cx="1629.82" cy="-1382" rx="27" ry="18"/>
<text xml:space="preserve" text-anchor="middle" x="1629.82" y="-1377.33" font-family="Times,serif" font-size="14.00">29</text>
</g>
<!-- 8&#45;&gt;29 -->
<g id="edge102" class="edge">
<title>8&#45;&gt;29</title>
<path fill="none" stroke="black" d="M898.84,-109.96C980.6,-115.85 1219.82,-138.78 1219.82,-205.35 1219.82,-504.65 1219.82,-504.65 1219.82,-504.65 1219.82,-781.93 1175.42,-873.05 1292.82,-1124.25 1325.11,-1193.34 1343.05,-1208.17 1401.82,-1256.75 1463.75,-1307.93 1549.95,-1348.07 1596.62,-1367.74"/>
<polygon fill="black" stroke="black" points="1595.07,-1370.88 1605.65,-1371.49 1597.75,-1364.42 1595.07,-1370.88"/>
<text xml:space="preserve" text-anchor="middle" x="1216.97" y="-741.8" font-family="Times,serif" font-size="14.00">0</text>
</g>
<!-- 9 -->
<g id="node11" class="node">
<title>9</title>
<ellipse fill="none" stroke="black" cx="1326.82" cy="-701.85" rx="27" ry="18"/>
<text xml:space="preserve" text-anchor="middle" x="1326.82" y="-697.18" font-family="Times,serif" font-size="14.00">9</text>
</g>
<!-- 9&#45;&gt;5 -->
<g id="edge32" class="edge">
<title>9&#45;&gt;5</title>
<path fill="none" stroke="black" d="M1301.73,-709.4C1285.65,-714.73 1265.32,-723.72 1251.82,-737.85 1111.75,-884.41 1168.98,-978.42 1077.82,-1159.5 1062.31,-1190.32 917.82,-1391.13 917.82,-1425.63 917.82,-1599.95 917.82,-1599.95 917.82,-1599.95 917.82,-1636.45 880.89,-1662.91 853.09,-1677.66"/>
<polygon fill="black" stroke="black" points="851.69,-1674.44 844.32,-1682.06 854.83,-1680.7 851.69,-1674.44"/>
<text xml:space="preserve" text-anchor="middle" x="1071.31" y="-1194.83" font-family="Times,serif" font-size="14.00">0</text>
</g>
<!-- 9&#45;&gt;5 -->
<g id="edge37" class="edge">
<title>9&#45;&gt;5</title>
<path fill="none" stroke="black" d="M1320.91,-719.84C1289.8,-808.93 1144.47,-1222.98 1086.82,-1346 1020.32,-1487.94 1028.39,-1547.41 911.82,-1652.2 895.72,-1666.68 873.39,-1676.45 855.13,-1682.58"/>
<polygon fill="black" stroke="black" points="854.32,-1679.17 845.82,-1685.49 856.41,-1685.85 854.32,-1679.17"/>
<text xml:space="preserve" text-anchor="middle" x="1159.51" y="-1194.83" font-family="Times,serif" font-size="14.00">4</text>
</g>
<!-- 9&#45;&gt;8 -->
<g id="edge48" class="edge">
<title>9&#45;&gt;8</title>
<path fill="none" stroke="black" d="M1347.93,-690.24C1374.81,-675.06 1417.82,-644.41 1417.82,-603.75 1417.82,-603.75 1417.82,-603.75 1417.82,-205.35 1417.82,-119.04 1318.22,-161.32 1233.82,-143.25 1117.63,-118.37 976.63,-111.16 910.1,-109.08"/>
<polygon fill="black" stroke="black" points="910.55,-105.59 900.45,-108.8 910.35,-112.59 910.55,-105.59"/>
<text xml:space="preserve" text-anchor="middle" x="1422.32" y="-409.73" font-family="Times,serif" font-size="14.00">3</text>
</g>
<!-- 20 -->
<g id="node22" class="node">
<title>20</title>
<ellipse fill="none" stroke="black" cx="1101.82" cy="-602.75" rx="23.85" ry="23.85"/>
<ellipse fill="none" stroke="black" cx="1101.82" cy="-602.75" rx="27.85" ry="27.85"/>
<text xml:space="preserve" text-anchor="middle" x="1101.82" y="-598.08" font-family="Times,serif" font-size="14.00">20</text>
</g>
<!-- 9&#45;&gt;20 -->
<g id="edge146" class="edge">
<title>9&#45;&gt;20</title>
<path fill="none" stroke="black" d="M1303.16,-692.82C1283.8,-686.08 1255.79,-675.97 1231.82,-665.85 1199.01,-652.01 1162.48,-634.35 1136.52,-621.41"/>
<polygon fill="black" stroke="black" points="1138.29,-618.38 1127.79,-617.03 1135.16,-624.64 1138.29,-618.38"/>
<text xml:space="preserve" text-anchor="middle" x="1236.32" y="-652.55" font-family="Times,serif" font-size="14.00">1</text>
</g>
<!-- 9&#45;&gt;23 -->
<g id="edge84" class="edge">
<title>9&#45;&gt;23</title>
<path fill="none" stroke="black" d="M1300.39,-697.16C1193.59,-682.26 793.69,-626.47 668.52,-609.01"/>
<polygon fill="black" stroke="black" points="669.17,-605.57 658.78,-607.65 668.2,-612.5 669.17,-605.57"/>
<text xml:space="preserve" text-anchor="middle" x="1066.13" y="-652.55" font-family="Times,serif" font-size="14.00">2</text>
</g>
<!-- 10&#45;&gt;7 -->
<g id="edge22" class="edge">
<title>10&#45;&gt;7</title>
<path fill="none" stroke="black" d="M595.41,-485.58C599.89,-474.27 607.19,-459.82 617.82,-450.4 632.82,-437.12 653.43,-428.61 671.14,-423.31"/>
<polygon fill="black" stroke="black" points="671.81,-426.76 680.54,-420.74 669.97,-420 671.81,-426.76"/>
<text xml:space="preserve" text-anchor="middle" x="622.32" y="-454.35" font-family="Times,serif" font-size="14.00">3</text>
</g>
<!-- 10&#45;&gt;8 -->
<g id="edge80" class="edge">
<title>10&#45;&gt;8</title>
<path fill="none" stroke="black" d="M590.99,-485.34C592.3,-474.74 595.04,-461.18 600.82,-450.4 654.15,-350.99 714.45,-362.09 778.82,-269.45 814.15,-218.6 802.65,-194.21 837.82,-143.25 840.91,-138.78 844.58,-134.35 848.35,-130.23"/>
<polygon fill="black" stroke="black" points="850.57,-132.97 855.03,-123.35 845.55,-128.09 850.57,-132.97"/>
<text xml:space="preserve" text-anchor="middle" x="769.75" y="-310.63" font-family="Times,serif" font-size="14.00">4</text>
</g>
<!-- 10&#45;&gt;10 -->
<g id="edge138" class="edge">
<title>10&#45;&gt;10</title>
<path fill="none" stroke="black" d="M614.36,-511.89C625.33,-512.67 634.82,-509.93 634.82,-503.65 634.82,-499.73 631.12,-497.19 625.65,-496.02"/>
<polygon fill="black" stroke="black" points="626.04,-492.54 615.87,-495.5 625.66,-499.53 626.04,-492.54"/>
<text xml:space="preserve" text-anchor="middle" x="639.32" y="-498.98" font-family="Times,serif" font-size="14.00">2</text>
</g>
<!-- 10&#45;&gt;13 -->
<g id="edge82" class="edge">
<title>10&#45;&gt;13</title>
<path fill="none" stroke="black" d="M563.43,-499.44C504.49,-490.89 361.08,-462.17 281.82,-378.4 220.36,-313.44 234.42,-233.64 304.82,-178.5 486.64,-36.09 1254.73,-20.81 1436.26,-19.19"/>
<polygon fill="black" stroke="black" points="1436.1,-22.69 1446.08,-19.11 1436.05,-15.69 1436.1,-22.69"/>
<text xml:space="preserve" text-anchor="middle" x="253.43" y="-256.15" font-family="Times,serif" font-size="14.00">1</text>
</g>
<!-- 28 -->
<g id="node30" class="node">
<title>28</title>
<ellipse fill="none" stroke="black" cx="466.82" cy="-206.35" rx="27" ry="18"/>
<text xml:space="preserve" text-anchor="middle" x="466.82" y="-201.68" font-family="Times,serif" font-size="14.00">28</text>
</g>
<!-- 10&#45;&gt;28 -->
<g id="edge86" class="edge">
<title>10&#45;&gt;28</title>
<path fill="none" stroke="black" d="M580.87,-486.26C577.99,-480.5 574.99,-473.91 572.82,-467.65 540.74,-375.04 578.53,-334.83 525.82,-252.2 518.67,-240.99 507.68,-231.52 497.11,-224.21"/>
<polygon fill="black" stroke="black" points="499.22,-221.41 488.92,-218.94 495.43,-227.3 499.22,-221.41"/>
<text xml:space="preserve" text-anchor="middle" x="562.14" y="-365.1" font-family="Times,serif" font-size="14.00">0</text>
</g>
<!-- 11&#45;&gt;4 -->
<g id="edge63" class="edge">
<title>11&#45;&gt;4</title>
<path fill="none" stroke="black" d="M1927.08,-1120.76C1991.81,-1227.65 2254.82,-1671.68 2254.82,-1829.08 2254.82,-2100.65 2254.82,-2100.65 2254.82,-2100.65 2254.82,-2155.99 2195.63,-2140.02 2141.82,-2152.9 2052.42,-2174.31 1398.48,-2184.98 1231.54,-2187.38"/>
<polygon fill="black" stroke="black" points="1231.62,-2183.88 1221.67,-2187.52 1231.71,-2190.88 1231.62,-2183.88"/>
<text xml:space="preserve" text-anchor="middle" x="2210.16" y="-1638.9" font-family="Times,serif" font-size="14.00">3</text>
</g>
<!-- 11&#45;&gt;9 -->
<g id="edge139" class="edge">
<title>11&#45;&gt;9</title>
<path fill="none" stroke="black" d="M1885.34,-1089.46C1861.36,-1083.14 1826.73,-1071.14 1802.82,-1050.55 1753.38,-1007.98 1772.87,-971.56 1727.82,-924.35 1695.16,-890.12 1500.67,-770.02 1431.82,-737.85 1409.5,-727.42 1383.19,-718.66 1362.49,-712.51"/>
<polygon fill="black" stroke="black" points="1363.66,-709.2 1353.08,-709.79 1361.72,-715.93 1363.66,-709.2"/>
<text xml:space="preserve" text-anchor="middle" x="1710.89" y="-879.68" font-family="Times,serif" font-size="14.00">0</text>
</g>
<!-- 11&#45;&gt;11 -->
<g id="edge33" class="edge">
<title>11&#45;&gt;11</title>
<path fill="none" stroke="black" d="M1939.21,-1106.55C1949.79,-1107.13 1958.67,-1103.74 1958.67,-1096.4 1958.67,-1091.93 1955.37,-1088.93 1950.4,-1087.39"/>
<polygon fill="black" stroke="black" points="1951.02,-1083.94 1940.71,-1086.4 1950.31,-1090.9 1951.02,-1083.94"/>
<text xml:space="preserve" text-anchor="middle" x="1963.17" y="-1091.73" font-family="Times,serif" font-size="14.00">1</text>
</g>
<!-- 24 -->
<g id="node26" class="node">
<title>24</title>
<ellipse fill="none" stroke="black" cx="1854.82" cy="-206.35" rx="23.85" ry="23.85"/>
<ellipse fill="none" stroke="black" cx="1854.82" cy="-206.35" rx="27.85" ry="27.85"/>
<text xml:space="preserve" text-anchor="middle" x="1854.82" y="-201.68" font-family="Times,serif" font-size="14.00">24</text>
</g>
<!-- 11&#45;&gt;24 -->
<g id="edge73" class="edge">
<title>11&#45;&gt;24</title>
<path fill="none" stroke="black" d="M1913,-1068.22C1913.28,-1021.09 1913.82,-921.16 1913.82,-836.73 1913.82,-836.73 1913.82,-836.73 1913.82,-314.3 1913.82,-285.06 1896.71,-256.29 1880.91,-235.97"/>
<polygon fill="black" stroke="black" points="1883.8,-233.97 1874.77,-228.43 1878.37,-238.39 1883.8,-233.97"/>
<text xml:space="preserve" text-anchor="middle" x="1918.32" y="-652.55" font-family="Times,serif" font-size="14.00">4</text>
</g>
<!-- 11&#45;&gt;26 -->
<g id="edge127" class="edge">
<title>11&#45;&gt;26</title>
<path fill="none" stroke="black" d="M1937.43,-1082.5C1973.6,-1063.54 2041.26,-1028.07 2082.36,-1006.52"/>
<polygon fill="black" stroke="black" points="2083.87,-1009.68 2091.11,-1001.94 2080.62,-1003.48 2083.87,-1009.68"/>
<text xml:space="preserve" text-anchor="middle" x="2031.54" y="-1037.25" font-family="Times,serif" font-size="14.00">2</text>
</g>
<!-- 12&#45;&gt;0 -->
<g id="edge119" class="edge">
<title>12&#45;&gt;0</title>
<path fill="none" stroke="black" d="M2371.05,-796.33C2393.23,-800.94 2424.96,-810.05 2447.82,-827.1 2463.22,-838.58 2465.12,-844.76 2472.82,-862.35 2515.97,-960.98 2572.82,-1228.72 2572.82,-1336.38 2572.82,-2189.9 2572.82,-2189.9 2572.82,-2189.9 2572.82,-2295.6 2445.71,-2229.15 2340.82,-2242.15 2033.48,-2280.26 1025.03,-2281.36 827.54,-2281.2"/>
<polygon fill="black" stroke="black" points="827.74,-2277.7 817.73,-2281.19 827.73,-2284.7 827.74,-2277.7"/>
<text xml:space="preserve" text-anchor="middle" x="2577.32" y="-1540.28" font-family="Times,serif" font-size="14.00">4</text>
</g>
<!-- 12&#45;&gt;9 -->
<g id="edge117" class="edge">
<title>12&#45;&gt;9</title>
<path fill="none" stroke="black" d="M2317.8,-787.69C2233.6,-780.17 1968.49,-756.59 1748.82,-737.85 1607.27,-725.78 1438.97,-711.99 1364.95,-705.95"/>
<polygon fill="black" stroke="black" points="1365.25,-702.47 1355,-705.14 1364.68,-709.44 1365.25,-702.47"/>
<text xml:space="preserve" text-anchor="middle" x="1950.02" y="-741.8" font-family="Times,serif" font-size="14.00">0</text>
</g>
<!-- 12&#45;&gt;13 -->
<g id="edge87" class="edge">
<title>12&#45;&gt;13</title>
<path fill="none" stroke="black" d="M2344.82,-772.72C2344.82,-755.11 2344.82,-727.09 2344.82,-702.85 2344.82,-702.85 2344.82,-702.85 2344.82,-106.25 2344.82,-21.42 1681.57,-18.21 1513.28,-18.76"/>
<polygon fill="black" stroke="black" points="1513.31,-15.26 1503.33,-18.8 1513.34,-22.26 1513.31,-15.26"/>
<text xml:space="preserve" text-anchor="middle" x="2349.32" y="-409.73" font-family="Times,serif" font-size="14.00">2</text>
</g>
<!-- 12&#45;&gt;21 -->
<g id="edge141" class="edge">
<title>12&#45;&gt;21</title>
<path fill="none" stroke="black" d="M2337.9,-808.88C2299.38,-901.5 2108.88,-1349.19 1990.82,-1435.25 1806.88,-1569.35 1718.83,-1522.46 1494.82,-1562.95 1390.16,-1581.87 1264.85,-1591.71 1203.09,-1595.72"/>
<polygon fill="black" stroke="black" points="1203.23,-1592.2 1193.47,-1596.33 1203.67,-1599.19 1203.23,-1592.2"/>
<text xml:space="preserve" text-anchor="middle" x="2171.26" y="-1194.83" font-family="Times,serif" font-size="14.00">3</text>
</g>
<!-- 12&#45;&gt;29 -->
<g id="edge57" class="edge">
<title>12&#45;&gt;29</title>
<path fill="none" stroke="black" d="M2320.7,-799.45C2302.1,-805.59 2276.04,-815.25 2254.82,-827.1 2169.66,-874.68 2139.82,-882.67 2079.82,-959.6 2030.92,-1022.3 2057.42,-1060.56 2009.82,-1124.25 1969.14,-1178.69 1947.21,-1182.12 1891.82,-1221.5 1811.19,-1278.83 1709.6,-1336.96 1659.94,-1364.53"/>
<polygon fill="black" stroke="black" points="1658.54,-1361.3 1651.49,-1369.2 1661.93,-1367.43 1658.54,-1361.3"/>
<text xml:space="preserve" text-anchor="middle" x="2042.34" y="-1091.73" font-family="Times,serif" font-size="14.00">1</text>
</g>
<!-- 13&#45;&gt;3 -->
<g id="edge34" class="edge">
<title>13&#45;&gt;3</title>
<path fill="none" stroke="black" d="M1447.39,-18.86C1282.45,-18.17 421.06,-16.43 159.82,-54 -33.37,-81.79 2.82,-64.94 2.82,-106.25 2.82,-460.03 2.82,-460.03 2.82,-460.03 2.82,-553.54 78.82,-562.71 78.82,-656.23 78.82,-836.73 78.82,-836.73 78.82,-836.73 78.82,-934.86 162.82,-942.79 162.82,-1040.93 162.82,-1249.13 162.82,-1249.13 162.82,-1249.13 162.82,-1299.32 282.93,-1546.83 333.82,-1616.95 370.24,-1667.13 389.24,-1671.13 433.82,-1714.2 475.02,-1754.01 481.02,-1769.04 526.82,-1803.45 551.86,-1822.26 560.41,-1823.57 587.82,-1838.7 602.41,-1846.76 618.79,-1855.43 632.42,-1862.54"/>
<polygon fill="black" stroke="black" points="630.41,-1865.44 640.89,-1866.95 633.63,-1859.23 630.41,-1865.44"/>
<text xml:space="preserve" text-anchor="middle" x="126.72" y="-928.3" font-family="Times,serif" font-size="14.00">1</text>
</g>
<!-- 13&#45;&gt;4 -->
<g id="edge21" class="edge">
<title>13&#45;&gt;4</title>
<path fill="none" stroke="black" d="M1501.94,-19.18C1634.53,-20.17 2215.38,-26.07 2393.82,-54 2479.08,-67.34 2580.82,-19.96 2580.82,-106.25 2580.82,-1042.93 2580.82,-1042.93 2580.82,-1042.93 2580.82,-1179.43 2546.69,-1522.95 2502.82,-1652.2 2488.34,-1694.87 2451.82,-1694.77 2451.82,-1739.83 2451.82,-2100.65 2451.82,-2100.65 2451.82,-2100.65 2451.82,-2213.3 2315.64,-2139.29 2203.82,-2152.9 2010.35,-2176.45 1392.44,-2185.48 1231.46,-2187.46"/>
<polygon fill="black" stroke="black" points="1231.72,-2183.96 1221.76,-2187.58 1231.81,-2190.96 1231.72,-2183.96"/>
<text xml:space="preserve" text-anchor="middle" x="2584.98" y="-1091.73" font-family="Times,serif" font-size="14.00">0</text>
</g>
<!-- 13&#45;&gt;5 -->
<g id="edge67" class="edge">
<title>13&#45;&gt;5</title>
<path fill="none" stroke="black" d="M1447.46,-19.19C1249.21,-20.71 40.82,-32.98 40.82,-106.25 40.82,-261.83 40.82,-261.83 40.82,-261.83 40.82,-489.95 160.9,-521.36 232.82,-737.85 294.02,-922.08 257.37,-987.21 346.82,-1159.5 409.25,-1279.73 596.47,-1572.24 705.82,-1652.2 730.89,-1670.53 765.11,-1680.61 790.06,-1685.91"/>
<polygon fill="black" stroke="black" points="789.17,-1689.3 799.66,-1687.78 790.52,-1682.43 789.17,-1689.3"/>
<text xml:space="preserve" text-anchor="middle" x="265.77" y="-831.05" font-family="Times,serif" font-size="14.00">3</text>
</g>
<!-- 13&#45;&gt;12 -->
<g id="edge6" class="edge">
<title>13&#45;&gt;12</title>
<path fill="none" stroke="black" d="M1502.22,-19.03C1642.56,-19.33 2277.38,-22.42 2358.82,-54 2392.42,-67.03 2420.82,-70.21 2420.82,-106.25 2420.82,-702.85 2420.82,-702.85 2420.82,-702.85 2420.82,-732.47 2395.62,-756.91 2374.24,-772.31"/>
<polygon fill="black" stroke="black" points="2372.34,-769.37 2366.04,-777.89 2376.28,-775.16 2372.34,-769.37"/>
<text xml:space="preserve" text-anchor="middle" x="2425.32" y="-409.73" font-family="Times,serif" font-size="14.00">4</text>
</g>
<!-- 13&#45;&gt;21 -->
<g id="edge13" class="edge">
<title>13&#45;&gt;21</title>
<path fill="none" stroke="black" d="M1483.27,-35.6C1496.78,-62.09 1524.12,-115.5 1547.82,-160.5 1596.81,-253.49 1659.82,-263.67 1659.82,-368.78 1659.82,-549.28 1659.82,-549.28 1659.82,-549.28 1659.82,-643.85 1645.29,-689.93 1713.82,-755.1 1742.12,-782.01 1770.88,-746.88 1799.82,-773.1 1818.47,-789.99 1813,-802.23 1816.82,-827.1 1836.41,-954.55 1803.14,-1297.57 1724.82,-1400 1658.2,-1487.13 1315.64,-1566.14 1201.71,-1590.36"/>
<polygon fill="black" stroke="black" points="1201.04,-1586.93 1191.98,-1592.42 1202.49,-1593.78 1201.04,-1586.93"/>
<text xml:space="preserve" text-anchor="middle" x="1819.58" y="-786.43" font-family="Times,serif" font-size="14.00">2</text>
</g>
<!-- 14&#45;&gt;6 -->
<g id="edge89" class="edge">
<title>14&#45;&gt;6</title>
<path fill="none" stroke="black" d="M1599.4,-1279.15C1606.66,-1273.22 1614.31,-1265.53 1618.82,-1256.75 1622.51,-1249.58 1624.56,-1241.23 1625.63,-1233.2"/>
<polygon fill="black" stroke="black" points="1629.11,-1233.6 1626.46,-1223.34 1622.14,-1233.01 1629.11,-1233.6"/>
<text xml:space="preserve" text-anchor="middle" x="1628.82" y="-1243.45" font-family="Times,serif" font-size="14.00">0</text>
</g>
<!-- 14&#45;&gt;6 -->
<g id="edge129" class="edge">
<title>14&#45;&gt;6</title>
<path fill="none" stroke="black" d="M1588.87,-1275.44C1595.11,-1262.78 1603.93,-1244.89 1611.39,-1229.77"/>
<polygon fill="black" stroke="black" points="1614.33,-1231.72 1615.62,-1221.2 1608.06,-1228.62 1614.33,-1231.72"/>
<text xml:space="preserve" text-anchor="middle" x="1610.52" y="-1243.45" font-family="Times,serif" font-size="14.00">4</text>
</g>
<!-- 14&#45;&gt;9 -->
<g id="edge98" class="edge">
<title>14&#45;&gt;9</title>
<path fill="none" stroke="black" d="M1574.88,-1274.96C1559.66,-1231.9 1518.14,-1113.98 1484.82,-1015.3 1443.31,-892.35 1477.74,-836.84 1393.82,-737.85 1385.31,-727.81 1373.19,-720.27 1361.58,-714.8"/>
<polygon fill="black" stroke="black" points="1363.16,-711.67 1352.59,-710.95 1360.4,-718.1 1363.16,-711.67"/>
<text xml:space="preserve" text-anchor="middle" x="1489.32" y="-982.78" font-family="Times,serif" font-size="14.00">2</text>
</g>
<!-- 14&#45;&gt;12 -->
<g id="edge71" class="edge">
<title>14&#45;&gt;12</title>
<path fill="none" stroke="black" d="M1601.12,-1280.28C1636.66,-1259.51 1711.19,-1212.86 1761.82,-1159.5 1808.89,-1109.91 1806.19,-1085.95 1849.82,-1033.3 1931.68,-934.52 1936.71,-883.75 2051.82,-827.1 2095.82,-805.45 2237.85,-796.61 2306.7,-793.53"/>
<polygon fill="black" stroke="black" points="2306.53,-797.04 2316.37,-793.11 2306.23,-790.04 2306.53,-797.04"/>
<text xml:space="preserve" text-anchor="middle" x="1854.32" y="-1037.25" font-family="Times,serif" font-size="14.00">3</text>
</g>
<!-- 14&#45;&gt;27 -->
<g id="edge124" class="edge">
<title>14&#45;&gt;27</title>
<path fill="none" stroke="black" d="M1577.22,-1310.79C1573.34,-1334.33 1570.53,-1376.52 1593.82,-1400 1637.39,-1443.91 1684.36,-1378.35 1731.82,-1418 1768.61,-1448.74 1862.82,-1781.14 1862.82,-1829.08 1862.82,-1972.95 1862.82,-1972.95 1862.82,-1972.95 1862.82,-2018.98 1851.51,-2038.71 1812.82,-2063.65 1779.07,-2085.42 1508.21,-2094.88 1406.35,-2097.7"/>
<polygon fill="black" stroke="black" points="1406.49,-2094.19 1396.59,-2097.96 1406.68,-2101.19 1406.49,-2094.19"/>
<text xml:space="preserve" text-anchor="middle" x="1843.12" y="-1687.53" font-family="Times,serif" font-size="14.00">1</text>
</g>
<!-- 15&#45;&gt;5 -->
<g id="edge12" class="edge">
<title>15&#45;&gt;5</title>
<path fill="none" stroke="black" d="M1367,-1771.55C1357.94,-1764.96 1346.77,-1756.81 1336.82,-1749.45 1326.55,-1741.86 1325.78,-1736.72 1313.82,-1732.2 1229.83,-1700.46 953.19,-1694.55 856.53,-1693.45"/>
<polygon fill="black" stroke="black" points="856.69,-1689.96 846.65,-1693.35 856.62,-1696.95 856.69,-1689.96"/>
<text xml:space="preserve" text-anchor="middle" x="1341.32" y="-1736.15" font-family="Times,serif" font-size="14.00">0</text>
</g>
<!-- 15&#45;&gt;9 -->
<g id="edge81" class="edge">
<title>15&#45;&gt;9</title>
<path fill="none" stroke="black" d="M1409.6,-1777.9C1445,-1766.87 1505.82,-1740.96 1505.82,-1693.2 1505.82,-1693.2 1505.82,-1693.2 1505.82,-1543.95 1505.82,-1502.77 1502.76,-1491.23 1486.82,-1453.25 1483.1,-1444.39 1479.07,-1443.88 1474.82,-1435.25 1452.78,-1390.42 1455.36,-1375.9 1438.82,-1328.75 1422.03,-1280.89 1416.63,-1269.36 1399.82,-1221.5 1390.18,-1194.05 1385.95,-1187.71 1378.82,-1159.5 1374.93,-1144.1 1374.83,-1140.02 1372.82,-1124.25 1351.01,-953.28 1377.51,-906.04 1339.82,-737.85 1339.27,-735.39 1338.58,-732.86 1337.82,-730.35"/>
<polygon fill="black" stroke="black" points="1341.19,-729.39 1334.61,-721.09 1334.58,-731.69 1341.19,-729.39"/>
<text xml:space="preserve" text-anchor="middle" x="1416.98" y="-1243.45" font-family="Times,serif" font-size="14.00">4</text>
</g>
<!-- 15&#45;&gt;11 -->
<g id="edge143" class="edge">
<title>15&#45;&gt;11</title>
<path fill="none" stroke="black" d="M1411.96,-1782.92C1440.98,-1780.11 1487.22,-1772.12 1519.82,-1749.45 1628.43,-1673.95 1795.36,-1375.41 1853.82,-1256.75 1873.77,-1216.27 1890.94,-1167.28 1901.54,-1134.39"/>
<polygon fill="black" stroke="black" points="1904.85,-1135.51 1904.54,-1124.92 1898.18,-1133.39 1904.85,-1135.51"/>
<text xml:space="preserve" text-anchor="middle" x="1770.66" y="-1421.95" font-family="Times,serif" font-size="14.00">2</text>
</g>
<!-- 15&#45;&gt;12 -->
<g id="edge111" class="edge">
<title>15&#45;&gt;12</title>
<path fill="none" stroke="black" d="M1411.75,-1783.66C1471.28,-1781.5 1618.39,-1773.93 1738.82,-1749.45 1790.38,-1738.98 1804.03,-1736.2 1851.82,-1714.2 1925.7,-1680.2 1946.34,-1671.32 2006.82,-1616.95 2114.18,-1520.46 2290.86,-1229.05 2319.82,-1159.5 2340.2,-1110.59 2344.82,-1095.92 2344.82,-1042.93 2344.82,-1042.93 2344.82,-1042.93 2344.82,-883.35 2344.82,-862.5 2344.82,-838.97 2344.82,-821.02"/>
<polygon fill="black" stroke="black" points="2348.32,-821.11 2344.82,-811.11 2341.32,-821.11 2348.32,-821.11"/>
<text xml:space="preserve" text-anchor="middle" x="2261.36" y="-1288.08" font-family="Times,serif" font-size="14.00">1</text>
</g>
<!-- 15&#45;&gt;28 -->
<g id="edge122" class="edge">
<title>15&#45;&gt;28</title>
<path fill="none" stroke="black" d="M1358.14,-1780.98C1331.1,-1777.49 1288.07,-1771.98 1250.82,-1767.45 975.63,-1734.04 860.07,-1817.91 637.82,-1652.2 572.59,-1603.57 564.38,-1579.49 523.82,-1508.95 389.59,-1275.52 332.82,-1203.25 332.82,-933.98 332.82,-933.98 332.82,-933.98 332.82,-745.48 332.82,-573.17 227.53,-524.68 281.82,-361.15 305.46,-289.96 386.99,-242.96 433.54,-221.25"/>
<polygon fill="black" stroke="black" points="434.97,-224.44 442.64,-217.14 432.08,-218.06 434.97,-224.44"/>
<text xml:space="preserve" text-anchor="middle" x="339.36" y="-982.78" font-family="Times,serif" font-size="14.00">3</text>
</g>
<!-- 16&#45;&gt;9 -->
<g id="edge78" class="edge">
<title>16&#45;&gt;9</title>
<path fill="none" stroke="black" d="M933.52,-323.34C994.7,-340.76 1146.46,-391.41 1233.82,-485.65 1284.77,-540.61 1310.54,-627.83 1320.99,-672.48"/>
<polygon fill="black" stroke="black" points="1317.56,-673.16 1323.16,-682.15 1324.39,-671.63 1317.56,-673.16"/>
<text xml:space="preserve" text-anchor="middle" x="1265.49" y="-498.98" font-family="Times,serif" font-size="14.00">1</text>
</g>
<!-- 16&#45;&gt;21 -->
<g id="edge54" class="edge">
<title>16&#45;&gt;21</title>
<path fill="none" stroke="black" d="M930.36,-330.73C940.83,-338.42 952.26,-348.84 958.82,-361.15 1058.27,-547.55 999.82,-623.46 999.82,-834.73 999.82,-1042.93 999.82,-1042.93 999.82,-1042.93 999.82,-1254.63 1111.48,-1493.63 1151.09,-1571.75"/>
<polygon fill="black" stroke="black" points="1147.82,-1573.03 1155.49,-1580.34 1154.05,-1569.84 1147.82,-1573.03"/>
<text xml:space="preserve" text-anchor="middle" x="1004.32" y="-928.3" font-family="Times,serif" font-size="14.00">3</text>
</g>
<!-- 16&#45;&gt;24 -->
<g id="edge118" class="edge">
<title>16&#45;&gt;24</title>
<path fill="none" stroke="black" d="M934.68,-311.16C1069.99,-295.89 1658.52,-229.5 1815.97,-211.73"/>
<polygon fill="black" stroke="black" points="1815.91,-215.26 1825.46,-210.66 1815.13,-208.31 1815.91,-215.26"/>
<text xml:space="preserve" text-anchor="middle" x="1442.08" y="-256.15" font-family="Times,serif" font-size="14.00">4</text>
</g>
<!-- 16&#45;&gt;27 -->
<g id="edge93" class="edge">
<title>16&#45;&gt;27</title>
<path fill="none" stroke="black" d="M879.82,-322.95C853.84,-329.11 813.37,-338.05 777.82,-343.15 636.41,-363.44 576.55,-312.64 460.82,-396.4 313,-503.39 284.07,-562.72 232.82,-737.85 202.29,-842.19 244.29,-1618.49 295.82,-1714.2 345.53,-1806.52 407.33,-1785 483.82,-1856.7 572.54,-1939.88 552.98,-2011.47 662.82,-2063.65 724.27,-2092.85 1207.17,-2074.52 1274.82,-2081.65 1293.52,-2083.63 1314.11,-2087.24 1331.15,-2090.63"/>
<polygon fill="black" stroke="black" points="1330.33,-2094.03 1340.83,-2092.61 1331.74,-2087.17 1330.33,-2094.03"/>
<text xml:space="preserve" text-anchor="middle" x="237.51" y="-1194.83" font-family="Times,serif" font-size="14.00">2</text>
</g>
<!-- 16&#45;&gt;28 -->
<g id="edge148" class="edge">
<title>16&#45;&gt;28</title>
<path fill="none" stroke="black" d="M879.52,-308.5C850.32,-301.65 803.16,-288.69 765.82,-269.45 754.46,-263.6 754.58,-257.2 742.82,-252.2 663.13,-218.29 560.46,-209.86 505.55,-207.87"/>
<polygon fill="black" stroke="black" points="505.88,-204.38 495.78,-207.57 505.67,-211.37 505.88,-204.38"/>
<text xml:space="preserve" text-anchor="middle" x="770.32" y="-256.15" font-family="Times,serif" font-size="14.00">0</text>
</g>
<!-- 17&#45;&gt;9 -->
<g id="edge72" class="edge">
<title>17&#45;&gt;9</title>
<path fill="none" stroke="black" d="M1746.93,-110.66C1705.32,-114.91 1628.01,-125.06 1607.82,-143.25 1425.74,-307.3 1608.26,-495.75 1431.82,-665.85 1413.68,-683.34 1386.57,-692.1 1364.44,-696.48"/>
<polygon fill="black" stroke="black" points="1364.15,-692.98 1354.89,-698.13 1365.34,-699.87 1364.15,-692.98"/>
<text xml:space="preserve" text-anchor="middle" x="1522.38" y="-409.73" font-family="Times,serif" font-size="14.00">4</text>
</g>
<!-- 17&#45;&gt;23 -->
<g id="edge113" class="edge">
<title>17&#45;&gt;23</title>
<path fill="none" stroke="black" d="M1746.71,-109.59C1688.13,-112.78 1545.5,-122.22 1427.82,-143.25 1175.67,-188.31 1076.56,-136.21 869.82,-287.45 770.64,-360.01 797.83,-424.3 722.82,-521.65 709.72,-538.65 705.76,-542.52 689.82,-556.9 679.98,-565.79 668.5,-574.79 658.29,-582.37"/>
<polygon fill="black" stroke="black" points="656.23,-579.54 650.22,-588.26 660.36,-585.19 656.23,-579.54"/>
<text xml:space="preserve" text-anchor="middle" x="807.1" y="-365.1" font-family="Times,serif" font-size="14.00">1</text>
</g>
<!-- 17&#45;&gt;24 -->
<g id="edge99" class="edge">
<title>17&#45;&gt;24</title>
<path fill="none" stroke="black" d="M1783.03,-124.46C1789.41,-135.14 1798.42,-149.17 1807.82,-160.5 1813.27,-167.06 1819.6,-173.66 1825.82,-179.7"/>
<polygon fill="black" stroke="black" points="1823.35,-182.19 1833.03,-186.5 1828.15,-177.1 1823.35,-182.19"/>
<text xml:space="preserve" text-anchor="middle" x="1812.32" y="-147.2" font-family="Times,serif" font-size="14.00">0</text>
</g>
<!-- 17&#45;&gt;26 -->
<g id="edge59" class="edge">
<title>17&#45;&gt;26</title>
<path fill="none" stroke="black" d="M1801.17,-108.52C1896.14,-110.2 2205.82,-122.04 2205.82,-205.35 2205.82,-885.35 2205.82,-885.35 2205.82,-885.35 2205.82,-920.39 2175.33,-949.05 2150.04,-966.8"/>
<polygon fill="black" stroke="black" points="2148.3,-963.75 2141.93,-972.21 2152.19,-969.57 2148.3,-963.75"/>
<text xml:space="preserve" text-anchor="middle" x="2210.32" y="-543.6" font-family="Times,serif" font-size="14.00">3</text>
</g>
<!-- 17&#45;&gt;29 -->
<g id="edge128" class="edge">
<title>17&#45;&gt;29</title>
<path fill="none" stroke="black" d="M1763.44,-124C1752.19,-142.62 1735.82,-174.94 1735.82,-205.35 1735.82,-836.73 1735.82,-836.73 1735.82,-836.73 1735.82,-1038.59 1664.71,-1274.92 1638.98,-1353.83"/>
<polygon fill="black" stroke="black" points="1635.8,-1352.27 1636,-1362.87 1642.45,-1354.47 1635.8,-1352.27"/>
<text xml:space="preserve" text-anchor="middle" x="1740.32" y="-741.8" font-family="Times,serif" font-size="14.00">2</text>
</g>
<!-- 18&#45;&gt;4 -->
<g id="edge49" class="edge">
<title>18&#45;&gt;4</title>
<path fill="none" stroke="black" d="M2138.6,-2063.12C2129.46,-2090.84 2110.78,-2133.14 2077.82,-2152.9 2041.04,-2174.96 1395.97,-2185.16 1231,-2187.41"/>
<polygon fill="black" stroke="black" points="1231.43,-2183.91 1221.48,-2187.54 1231.52,-2190.91 1231.43,-2183.91"/>
<text xml:space="preserve" text-anchor="middle" x="2102.24" y="-2139.6" font-family="Times,serif" font-size="14.00">3</text>
</g>
<!-- 18&#45;&gt;6 -->
<g id="edge9" class="edge">
<title>18&#45;&gt;6</title>
<path fill="none" stroke="black" d="M2151.15,-2008.27C2167.32,-1919.97 2207.38,-1631.62 2081.82,-1453.25 2030.34,-1380.12 1821.61,-1277.87 1740.82,-1239.5 1713.82,-1226.68 1681.45,-1216.09 1657.94,-1209.21"/>
<polygon fill="black" stroke="black" points="1659.21,-1205.93 1648.63,-1206.54 1657.28,-1212.66 1659.21,-1205.93"/>
<text xml:space="preserve" text-anchor="middle" x="2162.6" y="-1638.9" font-family="Times,serif" font-size="14.00">0</text>
</g>
<!-- 18&#45;&gt;18 -->
<g id="edge5" class="edge">
<title>18&#45;&gt;18</title>
<path fill="none" stroke="black" d="M2171.28,-2047.63C2182.27,-2048.6 2191.67,-2044.66 2191.67,-2035.8 2191.67,-2030.27 2188,-2026.65 2182.56,-2024.96"/>
<polygon fill="black" stroke="black" points="2183.06,-2021.49 2172.79,-2024.11 2182.45,-2028.46 2183.06,-2021.49"/>
<text xml:space="preserve" text-anchor="middle" x="2196.17" y="-2031.13" font-family="Times,serif" font-size="14.00">1</text>
</g>
<!-- 18&#45;&gt;24 -->
<g id="edge62" class="edge">
<title>18&#45;&gt;24</title>
<path fill="none" stroke="black" d="M2168.91,-2019.39C2211.69,-1989.62 2303.44,-1919.91 2352.82,-1838.7 2412.93,-1739.85 2496.82,-1454.08 2496.82,-1338.38 2496.82,-1338.38 2496.82,-1338.38 2496.82,-1149.88 2496.82,-1049.42 2525.22,-1023.91 2511.82,-924.35 2508.01,-896.03 2505.43,-888.88 2494.82,-862.35 2437.64,-719.27 2401.12,-694.01 2330.82,-556.9 2262.04,-422.76 2303.97,-340.54 2181.82,-252.2 2136.55,-219.46 1970.53,-210.58 1893.97,-208.2"/>
<polygon fill="black" stroke="black" points="1894.53,-204.71 1884.43,-207.93 1894.33,-211.71 1894.53,-204.71"/>
<text xml:space="preserve" text-anchor="middle" x="2501.32" y="-1146.2" font-family="Times,serif" font-size="14.00">2</text>
</g>
<!-- 18&#45;&gt;29 -->
<g id="edge144" class="edge">
<title>18&#45;&gt;29</title>
<path fill="none" stroke="black" d="M2141.33,-2007.85C2136.81,-1983.87 2128.78,-1948.15 2116.82,-1918.7 2061.94,-1783.54 2037.25,-1753.21 1951.82,-1634.95 1932.97,-1608.86 1787.19,-1434.96 1759.82,-1418 1731.75,-1400.61 1695.05,-1391.75 1667.81,-1387.31"/>
<polygon fill="black" stroke="black" points="1668.67,-1383.9 1658.27,-1385.89 1667.64,-1390.82 1668.67,-1383.9"/>
<text xml:space="preserve" text-anchor="middle" x="2036.64" y="-1736.15" font-family="Times,serif" font-size="14.00">4</text>
</g>
<!-- 19&#45;&gt;4 -->
<g id="edge23" class="edge">
<title>19&#45;&gt;4</title>
<path fill="none" stroke="black" d="M713.1,-1560.34C649.47,-1624.29 406.66,-1887.34 529.82,-2063.65 572.08,-2124.15 598.48,-2134.05 669.82,-2152.9 761.32,-2177.08 1049.35,-2185.08 1154.18,-2187.22"/>
<polygon fill="black" stroke="black" points="1153.89,-2190.72 1163.95,-2187.42 1154.02,-2183.72 1153.89,-2190.72"/>
<text xml:space="preserve" text-anchor="middle" x="516.55" y="-1874.03" font-family="Times,serif" font-size="14.00">4</text>
</g>
<!-- 19&#45;&gt;5 -->
<g id="edge25" class="edge">
<title>19&#45;&gt;5</title>
<path fill="none" stroke="black" d="M723.92,-1563.17C719.83,-1585.77 716.3,-1625.68 734.82,-1652.2 747.48,-1670.33 770.56,-1680.13 789.9,-1685.38"/>
<polygon fill="black" stroke="black" points="789.04,-1688.77 799.58,-1687.68 790.66,-1681.96 789.04,-1688.77"/>
<text xml:space="preserve" text-anchor="middle" x="739.32" y="-1638.9" font-family="Times,serif" font-size="14.00">3</text>
</g>
<!-- 19&#45;&gt;17 -->
<g id="edge115" class="edge">
<title>19&#45;&gt;17</title>
<path fill="none" stroke="black" d="M753.28,-1538.16C843.99,-1517.78 1160.09,-1448.93 1424.82,-1418 1454.47,-1414.54 1667.93,-1416.46 1692.82,-1400 1764.54,-1352.59 1842.43,-1134.95 1858.82,-1050.55 1882.38,-929.3 1864.71,-894.66 1842.82,-773.1 1824.4,-670.78 1774.82,-653.24 1774.82,-549.28 1774.82,-549.28 1774.82,-549.28 1774.82,-413.4 1774.82,-311.66 1774.26,-190.84 1773.98,-136.82"/>
<polygon fill="black" stroke="black" points="1777.48,-136.95 1773.93,-126.97 1770.48,-136.99 1777.48,-136.95"/>
<text xml:space="preserve" text-anchor="middle" x="1861" y="-831.05" font-family="Times,serif" font-size="14.00">1</text>
</g>
<!-- 19&#45;&gt;23 -->
<g id="edge134" class="edge">
<title>19&#45;&gt;23</title>
<path fill="none" stroke="black" d="M726.26,-1526.71C723.17,-1494.53 715.57,-1423.21 703.82,-1364 666.02,-1173.5 622,-1133.47 591.82,-941.6 582.66,-883.35 586.38,-868.05 584.82,-809.1 584.4,-793.11 582.71,-788.96 584.82,-773.1 591.63,-722.05 609.51,-664.56 620.87,-631.41"/>
<polygon fill="black" stroke="black" points="624.1,-632.78 624.09,-622.18 617.49,-630.47 624.1,-632.78"/>
<text xml:space="preserve" text-anchor="middle" x="639.65" y="-1091.73" font-family="Times,serif" font-size="14.00">2</text>
</g>
<!-- 19&#45;&gt;28 -->
<g id="edge58" class="edge">
<title>19&#45;&gt;28</title>
<path fill="none" stroke="black" d="M720.79,-1527.35C718.45,-1521.57 715.91,-1515.02 713.82,-1508.95 686.75,-1430.11 686.17,-1408.47 661.82,-1328.75 552.42,-970.6 491.31,-889.26 419.82,-521.65 399.92,-419.32 380.22,-388.25 406.82,-287.45 412.75,-264.98 428.86,-244.13 442.9,-229.33"/>
<polygon fill="black" stroke="black" points="445.2,-231.99 449.76,-222.43 440.23,-227.05 445.2,-231.99"/>
<text xml:space="preserve" text-anchor="middle" x="523.32" y="-879.68" font-family="Times,serif" font-size="14.00">0</text>
</g>
<!-- 20&#45;&gt;2 -->
<g id="edge69" class="edge">
<title>20&#45;&gt;2</title>
<path fill="none" stroke="black" d="M1095.27,-630.13C1076.34,-707.9 1021.78,-943.27 1003.82,-1142.25 989.17,-1304.66 969.03,-1352.75 1015.82,-1508.95 1074.35,-1704.33 1144.29,-1729.3 1254.82,-1900.7 1265.1,-1916.63 1265.11,-1922.87 1278.82,-1935.95 1286.39,-1943.18 1295.69,-1949.65 1304.57,-1955.01"/>
<polygon fill="black" stroke="black" points="1302.56,-1957.89 1312.98,-1959.81 1306.04,-1951.81 1302.56,-1957.89"/>
<text xml:space="preserve" text-anchor="middle" x="994.52" y="-1288.08" font-family="Times,serif" font-size="14.00">1</text>
</g>
<!-- 20&#45;&gt;5 -->
<g id="edge2" class="edge">
<title>20&#45;&gt;5</title>
<path fill="none" stroke="black" d="M1083.58,-624.28C1057.67,-654.6 1010.62,-714.14 985.82,-773.1 943.28,-874.26 960.99,-908.04 937.82,-1015.3 898.28,-1198.37 841.82,-1238.34 841.82,-1425.63 841.82,-1599.95 841.82,-1599.95 841.82,-1599.95 841.82,-1620.26 837.26,-1642.59 832.6,-1660.08"/>
<polygon fill="black" stroke="black" points="829.33,-1658.77 829.99,-1669.34 836.07,-1660.67 829.33,-1658.77"/>
<text xml:space="preserve" text-anchor="middle" x="906.37" y="-1146.2" font-family="Times,serif" font-size="14.00">4</text>
</g>
<!-- 20&#45;&gt;15 -->
<g id="edge106" class="edge">
<title>20&#45;&gt;15</title>
<path fill="none" stroke="black" d="M1109.8,-629.63C1111.4,-635.79 1112.88,-642.39 1113.82,-648.6 1138.16,-809.87 1091.69,-856.26 1127.82,-1015.3 1188.21,-1281.1 1298.96,-1316.45 1364.82,-1580.95 1379.99,-1641.85 1383.75,-1715.69 1384.62,-1755.55"/>
<polygon fill="black" stroke="black" points="1381.12,-1755.56 1384.78,-1765.5 1388.12,-1755.44 1381.12,-1755.56"/>
<text xml:space="preserve" text-anchor="middle" x="1205.8" y="-1194.83" font-family="Times,serif" font-size="14.00">3</text>
</g>
<!-- 20&#45;&gt;22 -->
<g id="edge7" class="edge">
<title>20&#45;&gt;22</title>
<path fill="none" stroke="black" d="M1101.82,-574.45C1101.82,-561.56 1101.82,-546.19 1101.82,-533.16"/>
<polygon fill="black" stroke="black" points="1105.32,-533.5 1101.82,-523.5 1098.32,-533.5 1105.32,-533.5"/>
<text xml:space="preserve" text-anchor="middle" x="1106.32" y="-543.6" font-family="Times,serif" font-size="14.00">0</text>
</g>
<!-- 25 -->
<g id="node27" class="node">
<title>25</title>
<ellipse fill="none" stroke="black" cx="1250.82" cy="-1481.1" rx="23.85" ry="23.85"/>
<ellipse fill="none" stroke="black" cx="1250.82" cy="-1481.1" rx="27.85" ry="27.85"/>
<text xml:space="preserve" text-anchor="middle" x="1250.82" y="-1476.43" font-family="Times,serif" font-size="14.00">25</text>
</g>
<!-- 20&#45;&gt;25 -->
<g id="edge65" class="edge">
<title>20&#45;&gt;25</title>
<path fill="none" stroke="black" d="M1100.79,-630.97C1099.86,-654.5 1098.41,-689.43 1096.82,-719.85 1086.22,-923.36 1075.05,-973.82 1068.82,-1177.5 1068.23,-1197.05 1061.79,-1203.26 1068.82,-1221.5 1099.54,-1301.22 1150.86,-1292.64 1197.82,-1364 1214.33,-1389.09 1228.21,-1420.16 1237.63,-1443.84"/>
<polygon fill="black" stroke="black" points="1234.33,-1445.01 1241.21,-1453.07 1240.85,-1442.48 1234.33,-1445.01"/>
<text xml:space="preserve" text-anchor="middle" x="1079.69" y="-1037.25" font-family="Times,serif" font-size="14.00">2</text>
</g>
<!-- 21&#45;&gt;2 -->
<g id="edge50" class="edge">
<title>21&#45;&gt;2</title>
<path fill="none" stroke="black" d="M1170.78,-1616.75C1194.25,-1682.86 1279.6,-1922.18 1289.82,-1935.95 1294.48,-1942.24 1300.57,-1947.94 1306.78,-1952.83"/>
<polygon fill="black" stroke="black" points="1304.45,-1955.46 1314.6,-1958.5 1308.56,-1949.79 1304.45,-1955.46"/>
<text xml:space="preserve" text-anchor="middle" x="1242.08" y="-1780.78" font-family="Times,serif" font-size="14.00">3</text>
</g>
<!-- 21&#45;&gt;4 -->
<g id="edge44" class="edge">
<title>21&#45;&gt;4</title>
<path fill="none" stroke="black" d="M1142.01,-1609.2C1036.5,-1651.97 600.82,-1828.61 600.82,-1829.08 600.82,-2100.65 600.82,-2100.65 600.82,-2100.65 600.82,-2156.82 1023.25,-2180.35 1154.43,-2186.31"/>
<polygon fill="black" stroke="black" points="1154.19,-2189.8 1164.34,-2186.75 1154.5,-2182.81 1154.19,-2189.8"/>
<text xml:space="preserve" text-anchor="middle" x="605.32" y="-1874.03" font-family="Times,serif" font-size="14.00">1</text>
</g>
<!-- 21&#45;&gt;9 -->
<g id="edge92" class="edge">
<title>21&#45;&gt;9</title>
<path fill="none" stroke="black" d="M1169.42,-1580.83C1175.05,-1558.34 1183.82,-1517.57 1183.82,-1482.1 1183.82,-1482.1 1183.82,-1482.1 1183.82,-1336.38 1183.82,-1281.04 1216.08,-1274.55 1231.82,-1221.5 1259.83,-1127.13 1307.83,-825.26 1322.46,-731.15"/>
<polygon fill="black" stroke="black" points="1325.88,-731.92 1323.96,-721.5 1318.97,-730.84 1325.88,-731.92"/>
<text xml:space="preserve" text-anchor="middle" x="1254.93" y="-1146.2" font-family="Times,serif" font-size="14.00">0</text>
</g>
<!-- 21&#45;&gt;16 -->
<g id="edge133" class="edge">
<title>21&#45;&gt;16</title>
<path fill="none" stroke="black" d="M1148.21,-1584.33C1141.02,-1578.12 1132.7,-1570.48 1125.82,-1562.95 1031.87,-1460.14 1000.34,-1436.19 939.82,-1310.75 909.23,-1247.35 904.68,-1228.89 892.82,-1159.5 877.04,-1067.08 871.11,-831.37 877.82,-737.85 886.51,-616.83 901.31,-587.99 916.82,-467.65 922.88,-420.67 927.96,-407.98 920.82,-361.15 920.39,-358.33 919.82,-355.44 919.15,-352.56"/>
<polygon fill="black" stroke="black" points="922.57,-351.8 916.58,-343.06 915.81,-353.63 922.57,-351.8"/>
<text xml:space="preserve" text-anchor="middle" x="881.13" y="-928.3" font-family="Times,serif" font-size="14.00">2</text>
</g>
<!-- 21&#45;&gt;25 -->
<g id="edge88" class="edge">
<title>21&#45;&gt;25</title>
<path fill="none" stroke="black" d="M1178.44,-1583C1183.75,-1576.94 1189.77,-1569.77 1194.82,-1562.95 1206.14,-1547.71 1207.08,-1542.61 1217.82,-1526.95 1220.94,-1522.41 1224.31,-1517.67 1227.65,-1513.04"/>
<polygon fill="black" stroke="black" points="1230.44,-1515.15 1233.52,-1505.02 1224.79,-1511.02 1230.44,-1515.15"/>
<text xml:space="preserve" text-anchor="middle" x="1222.32" y="-1540.28" font-family="Times,serif" font-size="14.00">4</text>
</g>
<!-- 22&#45;&gt;4 -->
<g id="edge27" class="edge">
<title>22&#45;&gt;4</title>
<path fill="none" stroke="black" d="M1127.85,-508.98C1209.61,-522.92 1455.82,-567.74 1455.82,-601.75 1455.82,-747.48 1455.82,-747.48 1455.82,-747.48 1455.82,-1015.8 1420.84,-1103.1 1534.82,-1346 1620.03,-1527.6 1735.02,-1505.02 1848.82,-1670.2 2177.52,-2147.31 2076.66,-1969.35 1995.82,-2063.65 1895.14,-2181.11 1377.53,-2188.51 1231.33,-2188.22"/>
<polygon fill="black" stroke="black" points="1231.42,-2184.72 1221.41,-2188.18 1231.39,-2191.72 1231.42,-2184.72"/>
<text xml:space="preserve" text-anchor="middle" x="1539.32" y="-1332.7" font-family="Times,serif" font-size="14.00">3</text>
</g>
<!-- 22&#45;&gt;4 -->
<g id="edge46" class="edge">
<title>22&#45;&gt;4</title>
<path fill="none" stroke="black" d="M1078.61,-513.05C1022.57,-534.25 877.7,-594.69 785.82,-683.85 593.65,-870.35 410.82,-1561.29 410.82,-1829.08 410.82,-2100.65 410.82,-2100.65 410.82,-2100.65 410.82,-2176.29 996.15,-2186.36 1154,-2187.7"/>
<polygon fill="black" stroke="black" points="1153.91,-2191.2 1163.94,-2187.78 1153.96,-2184.2 1153.91,-2191.2"/>
<text xml:space="preserve" text-anchor="middle" x="501.25" y="-1332.7" font-family="Times,serif" font-size="14.00">0</text>
</g>
<!-- 22&#45;&gt;7 -->
<g id="edge20" class="edge">
<title>22&#45;&gt;7</title>
<path fill="none" stroke="black" d="M1074.62,-501.14C1012.3,-497.39 860.91,-486.58 813.82,-467.65 801.97,-462.89 801.9,-456.76 790.82,-450.4 775.44,-441.57 757.38,-433.69 742.05,-427.65"/>
<polygon fill="black" stroke="black" points="743.45,-424.44 732.86,-424.14 740.95,-430.98 743.45,-424.44"/>
<text xml:space="preserve" text-anchor="middle" x="818.32" y="-454.35" font-family="Times,serif" font-size="14.00">4</text>
</g>
<!-- 22&#45;&gt;9 -->
<g id="edge135" class="edge">
<title>22&#45;&gt;9</title>
<path fill="none" stroke="black" d="M1117.63,-518.43C1156.34,-552.19 1256.11,-639.19 1302.48,-679.62"/>
<polygon fill="black" stroke="black" points="1300.02,-682.13 1309.86,-686.06 1304.62,-676.85 1300.02,-682.13"/>
<text xml:space="preserve" text-anchor="middle" x="1248.51" y="-598.08" font-family="Times,serif" font-size="14.00">1</text>
</g>
<!-- 22&#45;&gt;24 -->
<g id="edge3" class="edge">
<title>22&#45;&gt;24</title>
<path fill="none" stroke="black" d="M1124.77,-493.65C1232.29,-451.49 1686.57,-273.33 1818.66,-221.53"/>
<polygon fill="black" stroke="black" points="1819.58,-224.93 1827.61,-218.02 1817.02,-218.41 1819.58,-224.93"/>
<text xml:space="preserve" text-anchor="middle" x="1465.45" y="-365.1" font-family="Times,serif" font-size="14.00">2</text>
</g>
<!-- 23&#45;&gt;0 -->
<g id="edge132" class="edge">
<title>23&#45;&gt;0</title>
<path fill="none" stroke="black" d="M620.77,-619.71C595.35,-660.13 526.57,-769.9 470.82,-862.35 375.22,-1020.89 357.81,-1064.43 259.82,-1221.5 202.25,-1313.79 124.82,-1316.86 124.82,-1425.63 124.82,-2189.9 124.82,-2189.9 124.82,-2189.9 124.82,-2254.76 624.84,-2275.68 760.32,-2280.16"/>
<polygon fill="black" stroke="black" points="759.94,-2283.64 770.05,-2280.47 760.17,-2276.65 759.94,-2283.64"/>
<text xml:space="preserve" text-anchor="middle" x="129.32" y="-1421.95" font-family="Times,serif" font-size="14.00">0</text>
</g>
<!-- 23&#45;&gt;10 -->
<g id="edge140" class="edge">
<title>23&#45;&gt;10</title>
<path fill="none" stroke="black" d="M623.87,-585.28C617.68,-570.63 608.52,-548.93 601.26,-531.74"/>
<polygon fill="black" stroke="black" points="604.52,-530.45 597.4,-522.6 598.07,-533.17 604.52,-530.45"/>
<text xml:space="preserve" text-anchor="middle" x="616.05" y="-543.6" font-family="Times,serif" font-size="14.00">2</text>
</g>
<!-- 23&#45;&gt;16 -->
<g id="edge18" class="edge">
<title>23&#45;&gt;16</title>
<path fill="none" stroke="black" d="M656.37,-596.84C682.74,-590.82 724.1,-578.63 753.82,-556.9 826.21,-504 872.75,-405.52 893.79,-352.44"/>
<polygon fill="black" stroke="black" points="897,-353.83 897.34,-343.24 890.47,-351.31 897,-353.83"/>
<text xml:space="preserve" text-anchor="middle" x="849.09" y="-454.35" font-family="Times,serif" font-size="14.00">4</text>
</g>
<!-- 23&#45;&gt;21 -->
<g id="edge68" class="edge">
<title>23&#45;&gt;21</title>
<path fill="none" stroke="black" d="M634.51,-620.85C638.36,-640.17 643.82,-672.62 643.82,-700.85 643.82,-933.98 643.82,-933.98 643.82,-933.98 643.82,-1180.41 708.11,-1259.46 880.82,-1435.25 939.16,-1494.63 944.46,-1523.63 1017.82,-1562.95 1052.06,-1581.31 1095.88,-1590.14 1126.73,-1594.32"/>
<polygon fill="black" stroke="black" points="1126.02,-1597.76 1136.37,-1595.52 1126.88,-1590.81 1126.02,-1597.76"/>
<text xml:space="preserve" text-anchor="middle" x="668.32" y="-1091.73" font-family="Times,serif" font-size="14.00">1</text>
</g>
<!-- 23&#45;&gt;28 -->
<g id="edge79" class="edge">
<title>23&#45;&gt;28</title>
<path fill="none" stroke="black" d="M605.52,-595.58C583.97,-589.16 553.46,-577.15 533.82,-556.9 446.96,-467.33 455.44,-301.58 462.9,-235.56"/>
<polygon fill="black" stroke="black" points="466.34,-236.28 464.08,-225.93 459.39,-235.43 466.34,-236.28"/>
<text xml:space="preserve" text-anchor="middle" x="475.29" y="-409.73" font-family="Times,serif" font-size="14.00">3</text>
</g>
<!-- 24&#45;&gt;8 -->
<g id="edge151" class="edge">
<title>24&#45;&gt;8</title>
<path fill="none" stroke="black" d="M1827.21,-200.48C1759.86,-188.78 1581.68,-158.91 1431.82,-143.25 1236.41,-122.84 1001.3,-112.86 910.35,-109.55"/>
<polygon fill="black" stroke="black" points="910.62,-106.06 900.5,-109.2 910.37,-113.05 910.62,-106.06"/>
<text xml:space="preserve" text-anchor="middle" x="1576.32" y="-147.2" font-family="Times,serif" font-size="14.00">2</text>
</g>
<!-- 24&#45;&gt;15 -->
<g id="edge11" class="edge">
<title>24&#45;&gt;15</title>
<path fill="none" stroke="black" d="M1879.3,-220.41C1908.04,-237.73 1951.82,-271.19 1951.82,-314.3 1951.82,-836.73 1951.82,-836.73 1951.82,-836.73 1951.82,-965 2009.18,-1000.13 1976.82,-1124.25 1943.16,-1253.37 1780.93,-1553.8 1690.82,-1652.2 1637.92,-1709.98 1615.96,-1718.91 1543.82,-1749.45 1504.42,-1766.14 1456.01,-1775.33 1423.03,-1780.06"/>
<polygon fill="black" stroke="black" points="1422.56,-1776.59 1413.12,-1781.4 1423.5,-1783.53 1422.56,-1776.59"/>
<text xml:space="preserve" text-anchor="middle" x="1988.09" y="-982.78" font-family="Times,serif" font-size="14.00">1</text>
</g>
<!-- 24&#45;&gt;17 -->
<g id="edge45" class="edge">
<title>24&#45;&gt;17</title>
<path fill="none" stroke="black" d="M1842.5,-181.06C1835.78,-169.03 1826.81,-154.67 1816.82,-143.25 1812.08,-137.83 1806.44,-132.59 1800.83,-127.88"/>
<polygon fill="black" stroke="black" points="1803.36,-125.42 1793.35,-121.93 1798.99,-130.9 1803.36,-125.42"/>
<text xml:space="preserve" text-anchor="middle" x="1833.45" y="-147.2" font-family="Times,serif" font-size="14.00">3</text>
</g>
<!-- 24&#45;&gt;17 -->
<g id="edge149" class="edge">
<title>24&#45;&gt;17</title>
<path fill="none" stroke="black" d="M1854.25,-178.14C1852.78,-166.41 1849.36,-153.15 1841.82,-143.25 1833.55,-132.38 1820.94,-124.6 1808.82,-119.17"/>
<polygon fill="black" stroke="black" points="1810.41,-116.04 1799.83,-115.56 1807.8,-122.54 1810.41,-116.04"/>
<text xml:space="preserve" text-anchor="middle" x="1854.79" y="-147.2" font-family="Times,serif" font-size="14.00">4</text>
</g>
<!-- 24&#45;&gt;27 -->
<g id="edge16" class="edge">
<title>24&#45;&gt;27</title>
<path fill="none" stroke="black" d="M1882.6,-210.77C1959.2,-220.98 2167.82,-254.29 2167.82,-314.3 2167.82,-658.23 2167.82,-658.23 2167.82,-658.23 2167.82,-794.68 2306.82,-795.52 2306.82,-931.98 2306.82,-1249.13 2306.82,-1249.13 2306.82,-1249.13 2306.82,-1364.61 2342.31,-1398.44 2308.82,-1508.95 2287.02,-1580.91 2259.56,-1589.01 2218.82,-1652.2 2200.92,-1679.97 2198.7,-1688.6 2177.82,-1714.2 2135.26,-1766.38 2115.78,-1771.33 2070.82,-1821.45 1978.56,-1924.34 1998.35,-1999.73 1875.82,-2063.65 1834.56,-2085.18 1517.46,-2094.98 1406.23,-2097.77"/>
<polygon fill="black" stroke="black" points="1406.34,-2094.27 1396.43,-2098.01 1406.51,-2101.27 1406.34,-2094.27"/>
<text xml:space="preserve" text-anchor="middle" x="2311.32" y="-1146.2" font-family="Times,serif" font-size="14.00">0</text>
</g>
<!-- 25&#45;&gt;2 -->
<g id="edge136" class="edge">
<title>25&#45;&gt;2</title>
<path fill="none" stroke="black" d="M1267.59,-1503.83C1283.12,-1526.16 1303.82,-1562.57 1303.82,-1597.95 1303.82,-1879.7 1303.82,-1879.7 1303.82,-1879.7 1303.82,-1902.5 1312.83,-1926.79 1321.29,-1944.58"/>
<polygon fill="black" stroke="black" points="1318.1,-1946.02 1325.72,-1953.38 1324.35,-1942.88 1318.1,-1946.02"/>
<text xml:space="preserve" text-anchor="middle" x="1308.32" y="-1736.15" font-family="Times,serif" font-size="14.00">0</text>
</g>
<!-- 25&#45;&gt;9 -->
<g id="edge103" class="edge">
<title>25&#45;&gt;9</title>
<path fill="none" stroke="black" d="M1254.65,-1453.29C1266.18,-1371.47 1300.83,-1117.78 1317.82,-906.35 1322.82,-844.19 1325.2,-771.11 1326.2,-731.65"/>
<polygon fill="black" stroke="black" points="1329.7,-731.89 1326.44,-721.81 1322.7,-731.73 1329.7,-731.89"/>
<text xml:space="preserve" text-anchor="middle" x="1306.94" y="-1091.73" font-family="Times,serif" font-size="14.00">3</text>
</g>
<!-- 25&#45;&gt;15 -->
<g id="edge53" class="edge">
<title>25&#45;&gt;15</title>
<path fill="none" stroke="black" d="M1276.25,-1493.37C1290.49,-1500.92 1307.42,-1512.19 1317.82,-1526.95 1376.55,-1610.32 1346.08,-1651.33 1373.82,-1749.45 1374.47,-1751.75 1375.17,-1754.13 1375.88,-1756.51"/>
<polygon fill="black" stroke="black" points="1372.51,-1757.46 1378.81,-1765.98 1379.2,-1755.39 1372.51,-1757.46"/>
<text xml:space="preserve" text-anchor="middle" x="1363.43" y="-1638.9" font-family="Times,serif" font-size="14.00">4</text>
</g>
<!-- 25&#45;&gt;23 -->
<g id="edge70" class="edge">
<title>25&#45;&gt;23</title>
<path fill="none" stroke="black" d="M1228.49,-1464.41C1168.77,-1421.54 1003.08,-1296.45 901.82,-1159.5 883.12,-1134.21 672.73,-676.3 657.82,-648.6 654.46,-642.35 650.63,-635.73 646.94,-629.56"/>
<polygon fill="black" stroke="black" points="649.93,-627.74 641.74,-621.02 643.95,-631.38 649.93,-627.74"/>
<text xml:space="preserve" text-anchor="middle" x="851.37" y="-1037.25" font-family="Times,serif" font-size="14.00">1</text>
</g>
<!-- 25&#45;&gt;29 -->
<g id="edge83" class="edge">
<title>25&#45;&gt;29</title>
<path fill="none" stroke="black" d="M1277.78,-1473.2C1344.69,-1456.05 1518.44,-1411.54 1593.93,-1392.2"/>
<polygon fill="black" stroke="black" points="1594.47,-1395.67 1603.29,-1389.8 1592.73,-1388.89 1594.47,-1395.67"/>
<text xml:space="preserve" text-anchor="middle" x="1489.91" y="-1421.95" font-family="Times,serif" font-size="14.00">2</text>
</g>
<!-- 26&#45;&gt;1 -->
<g id="edge51" class="edge">
<title>26&#45;&gt;1</title>
<path fill="none" stroke="black" d="M2089.63,-980.38C2063.96,-974.72 2024.36,-966.19 1989.82,-959.6 1851.21,-933.17 1815.48,-932.55 1676.82,-906.35 1653.98,-902.04 1628.34,-896.7 1608.61,-892.48"/>
<polygon fill="black" stroke="black" points="1609.44,-889.08 1598.93,-890.4 1607.97,-895.93 1609.44,-889.08"/>
<text xml:space="preserve" text-anchor="middle" x="1891.79" y="-928.3" font-family="Times,serif" font-size="14.00">2</text>
</g>
<!-- 26&#45;&gt;2 -->
<g id="edge76" class="edge">
<title>26&#45;&gt;2</title>
<path fill="none" stroke="black" d="M2130.82,-1011.76C2154.17,-1053.51 2196.9,-1143.94 2179.82,-1221.5 2152.77,-1344.39 1992.68,-1628.21 1900.82,-1714.2 1751.86,-1853.65 1696.54,-1885.52 1498.82,-1935.95 1455.8,-1946.93 1405.8,-1957.32 1372.64,-1963.88"/>
<polygon fill="black" stroke="black" points="1372.28,-1960.39 1363.14,-1965.75 1373.63,-1967.26 1372.28,-1960.39"/>
<text xml:space="preserve" text-anchor="middle" x="2084.16" y="-1476.43" font-family="Times,serif" font-size="14.00">4</text>
</g>
<!-- 26&#45;&gt;15 -->
<g id="edge77" class="edge">
<title>26&#45;&gt;15</title>
<path fill="none" stroke="black" d="M2105.1,-1013.08C2092.06,-1040.37 2070.26,-1085.61 2050.82,-1124.25 2008.84,-1207.72 1998.25,-1228.56 1953.82,-1310.75 1875.25,-1456.12 1849.11,-1488.9 1771.82,-1634.95 1745.23,-1685.2 1761.5,-1717.02 1714.82,-1749.45 1708.88,-1753.58 1508.75,-1772.81 1423.1,-1780.88"/>
<polygon fill="black" stroke="black" points="1422.94,-1777.38 1413.31,-1781.8 1423.59,-1784.35 1422.94,-1777.38"/>
<text xml:space="preserve" text-anchor="middle" x="1928.84" y="-1377.33" font-family="Times,serif" font-size="14.00">3</text>
</g>
<!-- 26&#45;&gt;24 -->
<g id="edge126" class="edge">
<title>26&#45;&gt;24</title>
<path fill="none" stroke="black" d="M2092.97,-973.05C2066.61,-956.27 2027.82,-924.87 2027.82,-885.35 2027.82,-885.35 2027.82,-885.35 2027.82,-314.3 2027.82,-251.73 1944.94,-224.54 1893.91,-213.73"/>
<polygon fill="black" stroke="black" points="1894.59,-210.29 1884.1,-211.78 1893.23,-217.16 1894.59,-210.29"/>
<text xml:space="preserve" text-anchor="middle" x="2032.32" y="-598.08" font-family="Times,serif" font-size="14.00">0</text>
</g>
<!-- 26&#45;&gt;26 -->
<g id="edge100" class="edge">
<title>26&#45;&gt;26</title>
<path fill="none" stroke="black" d="M2143.21,-997.6C2153.79,-998.18 2162.67,-994.79 2162.67,-987.45 2162.67,-982.98 2159.37,-979.97 2154.4,-978.44"/>
<polygon fill="black" stroke="black" points="2155.02,-974.98 2144.71,-977.45 2154.31,-981.95 2155.02,-974.98"/>
<text xml:space="preserve" text-anchor="middle" x="2167.17" y="-982.78" font-family="Times,serif" font-size="14.00">1</text>
</g>
<!-- 27&#45;&gt;2 -->
<g id="edge30" class="edge">
<title>27&#45;&gt;2</title>
<path fill="none" stroke="black" d="M1363.89,-2081.55C1359.64,-2063.28 1352.57,-2033.49 1345.82,-2007.95 1345.22,-2005.66 1344.58,-2003.29 1343.92,-2000.91"/>
<polygon fill="black" stroke="black" points="1347.34,-2000.14 1341.25,-1991.46 1340.6,-2002.04 1347.34,-2000.14"/>
<text xml:space="preserve" text-anchor="middle" x="1363.74" y="-2031.13" font-family="Times,serif" font-size="14.00">3</text>
</g>
<!-- 27&#45;&gt;12 -->
<g id="edge40" class="edge">
<title>27&#45;&gt;12</title>
<path fill="none" stroke="black" d="M1394.98,-2098.82C1508.79,-2099.28 1943.66,-2098.71 1992.82,-2063.65 2087.51,-1996.15 2001.37,-1894.54 2091.82,-1821.45 2127.29,-1792.8 2153.27,-1826.14 2192.82,-1803.45 2285.33,-1750.38 2302.77,-1715.39 2343.82,-1616.95 2368.59,-1557.56 2420.82,-1107.28 2420.82,-1042.93 2420.82,-1042.93 2420.82,-1042.93 2420.82,-883.35 2420.82,-852.64 2395.09,-826.78 2373.57,-810.51"/>
<polygon fill="black" stroke="black" points="2375.79,-807.8 2365.63,-804.82 2371.72,-813.49 2375.79,-807.8"/>
<text xml:space="preserve" text-anchor="middle" x="2384.7" y="-1421.95" font-family="Times,serif" font-size="14.00">0</text>
</g>
<!-- 27&#45;&gt;12 -->
<g id="edge91" class="edge">
<title>27&#45;&gt;12</title>
<path fill="none" stroke="black" d="M1395.16,-2098.69C1512.84,-2098.64 1972.84,-2096.35 2027.82,-2063.65 2092.8,-2025.01 2068.09,-1976.5 2116.82,-1918.7 2205.64,-1813.37 2281.25,-1833.71 2349.82,-1714.2 2413.18,-1603.8 2458.82,-1279.17 2458.82,-1151.88 2458.82,-1151.88 2458.82,-1151.88 2458.82,-883.35 2458.82,-842.29 2413.19,-816.66 2379.66,-803.37"/>
<polygon fill="black" stroke="black" points="2381.29,-800.24 2370.7,-800.02 2378.84,-806.8 2381.29,-800.24"/>
<text xml:space="preserve" text-anchor="middle" x="2436.06" y="-1421.95" font-family="Times,serif" font-size="14.00">4</text>
</g>
<!-- 27&#45;&gt;20 -->
<g id="edge75" class="edge">
<title>27&#45;&gt;20</title>
<path fill="none" stroke="black" d="M1341.8,-2093.7C1323.17,-2090.19 1297.48,-2085.47 1274.82,-2081.65 1149.81,-2060.62 714.82,-2099.72 714.82,-1972.95 714.82,-1972.95 714.82,-1972.95 714.82,-1829.08 714.82,-1743.34 655.3,-1736.14 637.82,-1652.2 616.6,-1550.3 614.97,-1519.55 637.82,-1418 718.12,-1061.14 784.03,-971.63 1009.82,-683.85 1027.12,-661.8 1051.12,-641.14 1070.27,-626.33"/>
<polygon fill="black" stroke="black" points="1072.17,-629.29 1078.03,-620.46 1067.94,-623.71 1072.17,-629.29"/>
<text xml:space="preserve" text-anchor="middle" x="663.36" y="-1332.7" font-family="Times,serif" font-size="14.00">2</text>
</g>
<!-- 27&#45;&gt;25 -->
<g id="edge28" class="edge">
<title>27&#45;&gt;25</title>
<path fill="none" stroke="black" d="M1343.64,-2091.09C1284.59,-2071.89 1137.82,-2019.48 1137.82,-1972.95 1137.82,-1972.95 1137.82,-1972.95 1137.82,-1739.83 1137.82,-1678.46 1173.51,-1671.91 1200.82,-1616.95 1212.68,-1593.1 1217.22,-1587.8 1226.82,-1562.95 1232.28,-1548.84 1237.24,-1532.94 1241.22,-1519"/>
<polygon fill="black" stroke="black" points="1244.48,-1520.34 1243.78,-1509.77 1237.73,-1518.47 1244.48,-1520.34"/>
<text xml:space="preserve" text-anchor="middle" x="1142.32" y="-1780.78" font-family="Times,serif" font-size="14.00">1</text>
</g>
<!-- 28&#45;&gt;1 -->
<g id="edge42" class="edge">
<title>28&#45;&gt;1</title>
<path fill="none" stroke="black" d="M493.27,-210.69C546.65,-217.55 671.02,-234.09 774.82,-252.2 1013.87,-293.91 1090.94,-256.39 1309.82,-361.15 1354.6,-382.58 1355.23,-403.84 1395.82,-432.4 1433.84,-459.14 1453.17,-452.58 1485.82,-485.65 1547.25,-547.87 1583.82,-568.79 1583.82,-656.23 1583.82,-792.1 1583.82,-792.1 1583.82,-792.1 1583.82,-811.74 1581.96,-833.67 1580.03,-851.11"/>
<polygon fill="black" stroke="black" points="1576.58,-850.53 1578.89,-860.87 1583.53,-851.35 1576.58,-850.53"/>
<text xml:space="preserve" text-anchor="middle" x="1558.52" y="-543.6" font-family="Times,serif" font-size="14.00">2</text>
</g>
<!-- 28&#45;&gt;3 -->
<g id="edge95" class="edge">
<title>28&#45;&gt;3</title>
<path fill="none" stroke="black" d="M442.61,-214.81C398.03,-229.05 305.7,-261.02 285.82,-287.45 83.25,-556.78 200.82,-703.92 200.82,-1040.93 200.82,-1249.13 200.82,-1249.13 200.82,-1249.13 200.82,-1351.39 360.21,-1571.35 422.82,-1652.2 489.16,-1737.86 588.61,-1820.53 635.53,-1857.51"/>
<polygon fill="black" stroke="black" points="633.22,-1860.15 643.26,-1863.55 637.54,-1854.63 633.22,-1860.15"/>
<text xml:space="preserve" text-anchor="middle" x="205.32" y="-1037.25" font-family="Times,serif" font-size="14.00">3</text>
</g>
<!-- 28&#45;&gt;5 -->
<g id="edge17" class="edge">
<title>28&#45;&gt;5</title>
<path fill="none" stroke="black" d="M447.75,-219.43C435.83,-227.64 420.73,-239.32 409.82,-252.2 353.31,-318.93 319.16,-345.74 330.82,-432.4 386.93,-849.31 507.88,-927.7 634.82,-1328.75 667.18,-1430.99 662.83,-1460 692.82,-1562.95 704.53,-1603.13 693.94,-1621.92 722.82,-1652.2 740.48,-1670.72 767.97,-1680.6 789.66,-1685.77"/>
<polygon fill="black" stroke="black" points="788.71,-1689.15 799.22,-1687.81 790.17,-1682.3 788.71,-1689.15"/>
<text xml:space="preserve" text-anchor="middle" x="484.83" y="-928.3" font-family="Times,serif" font-size="14.00">0</text>
</g>
<!-- 28&#45;&gt;6 -->
<g id="edge41" class="edge">
<title>28&#45;&gt;6</title>
<path fill="none" stroke="black" d="M493.91,-209.17C546.83,-213.93 665.66,-230.64 744.82,-287.45 891.23,-392.53 847.76,-490.27 960.82,-630.6 1167.13,-886.66 1500.34,-1115.94 1598.06,-1180.47"/>
<polygon fill="black" stroke="black" points="1595.99,-1183.3 1606.27,-1185.87 1599.83,-1177.45 1595.99,-1183.3"/>
<text xml:space="preserve" text-anchor="middle" x="1041.2" y="-697.18" font-family="Times,serif" font-size="14.00">1</text>
</g>
<!-- 28&#45;&gt;23 -->
<g id="edge97" class="edge">
<title>28&#45;&gt;23</title>
<path fill="none" stroke="black" d="M470.4,-224.48C482.62,-282.16 523.62,-468.64 553.82,-521.65 567.08,-544.92 588.6,-566.5 605.52,-581.39"/>
<polygon fill="black" stroke="black" points="602.86,-583.72 612.73,-587.55 607.4,-578.39 602.86,-583.72"/>
<text xml:space="preserve" text-anchor="middle" x="525.09" y="-409.73" font-family="Times,serif" font-size="14.00">4</text>
</g>
<!-- 29&#45;&gt;14 -->
<g id="edge109" class="edge">
<title>29&#45;&gt;14</title>
<path fill="none" stroke="black" d="M1620.61,-1364.59C1613.56,-1352.04 1603.7,-1334.48 1595.56,-1319.99"/>
<polygon fill="black" stroke="black" points="1598.69,-1318.42 1590.74,-1311.41 1592.58,-1321.84 1598.69,-1318.42"/>
<text xml:space="preserve" text-anchor="middle" x="1614.21" y="-1332.7" font-family="Times,serif" font-size="14.00">1</text>
</g>
<!-- 29&#45;&gt;21 -->
<g id="edge108" class="edge">
<title>29&#45;&gt;21</title>
<path fill="none" stroke="black" d="M1608.07,-1393.06C1533.16,-1427.69 1285.68,-1542.09 1196.89,-1583.13"/>
<polygon fill="black" stroke="black" points="1195.61,-1579.87 1188,-1587.24 1198.55,-1586.22 1195.61,-1579.87"/>
<text xml:space="preserve" text-anchor="middle" x="1478.05" y="-1476.43" font-family="Times,serif" font-size="14.00">4</text>
</g>
<!-- 29&#45;&gt;24 -->
<g id="edge36" class="edge">
<title>29&#45;&gt;24</title>
<path fill="none" stroke="black" d="M1638.72,-1364.79C1650.85,-1343.3 1673.8,-1304.62 1697.82,-1274.75 1704.91,-1265.94 1709.84,-1266.36 1715.82,-1256.75 1739.19,-1219.21 1730.93,-1203.33 1736.82,-1159.5 1784.58,-804.52 1835.36,-374.08 1850.39,-245.42"/>
<polygon fill="black" stroke="black" points="1853.84,-246.1 1851.52,-235.77 1846.89,-245.29 1853.84,-246.1"/>
<text xml:space="preserve" text-anchor="middle" x="1790.9" y="-786.43" font-family="Times,serif" font-size="14.00">0</text>
</g>
<!-- 29&#45;&gt;28 -->
<g id="edge105" class="edge">
<title>29&#45;&gt;28</title>
<path fill="none" stroke="black" d="M1603.06,-1378.38C1563.36,-1374.05 1486.77,-1364.05 1423.82,-1346 1323.58,-1317.26 1301.01,-1301.51 1206.82,-1256.75 1177.14,-1242.65 1169.62,-1239.03 1141.82,-1221.5 1133.58,-1216.3 865.15,-1021.74 857.82,-1015.3 739.85,-911.68 420.82,-617.05 420.82,-460.03 420.82,-460.03 420.82,-460.03 420.82,-314.3 420.82,-284.42 436.16,-253.39 449.12,-232.5"/>
<polygon fill="black" stroke="black" points="451.88,-234.67 454.39,-224.38 446.01,-230.86 451.88,-234.67"/>
<text xml:space="preserve" text-anchor="middle" x="645.51" y="-786.43" font-family="Times,serif" font-size="14.00">2</text>
</g>
<!-- 29&#45;&gt;29 -->
<g id="edge61" class="edge">
<title>29&#45;&gt;29</title>
<path fill="none" stroke="black" d="M1654.36,-1390.24C1665.33,-1391.02 1674.82,-1388.28 1674.82,-1382 1674.82,-1378.08 1671.12,-1375.54 1665.65,-1374.37"/>
<polygon fill="black" stroke="black" points="1666.04,-1370.89 1655.87,-1373.85 1665.66,-1377.88 1666.04,-1370.89"/>
<text xml:space="preserve" text-anchor="middle" x="1679.32" y="-1377.33" font-family="Times,serif" font-size="14.00">3</text>
</g>
</g>
</svg>
