<?xml version="1.0" encoding="UTF-8" standalone="no"?>
<!DOCTYPE svg PUBLIC "-//W3C//DTD SVG 1.1//EN"
 "http://www.w3.org/Graphics/SVG/1.1/DTD/svg11.dtd">
<!-- Generated by graphviz version 13.0.1 (20250616.1512)
 -->
<!-- Pages: 1 -->
<svg width="2510pt" height="2354pt"
 viewBox="0.00 0.00 2510.00 2354.00" xmlns="http://www.w3.org/2000/svg" xmlns:xlink="http://www.w3.org/1999/xlink">
<g id="graph0" class="graph" transform="scale(1 1) rotate(0) translate(4 2349.8)">
<polygon fill="white" stroke="none" points="-4,4 -4,-2349.8 2505.92,-2349.8 2505.92,4 -4,4"/>
<!-- fake -->
<g id="node1" class="node">
<title>fake</title>
</g>
<!-- 0 -->
<g id="node2" class="node">
<title>0</title>
<ellipse fill="none" stroke="black" cx="2058.92" cy="-2250.8" rx="18" ry="18"/>
<ellipse fill="none" stroke="black" cx="2058.92" cy="-2250.8" rx="22" ry="22"/>
<text xml:space="preserve" text-anchor="middle" x="2058.92" y="-2246.13" font-family="Times,serif" font-size="14.00">0</text>
</g>
<!-- fake&#45;&gt;0 -->
<g id="edge1" class="edge">
<title>fake&#45;&gt;0</title>
<path fill="none" stroke="black" stroke-width="2" d="M2058.92,-2309.41C2058.92,-2301.97 2058.92,-2293.03 2058.92,-2284.44"/>
<polygon fill="black" stroke="black" stroke-width="2" points="2062.42,-2286.15 2058.92,-2276.15 2055.42,-2286.15 2062.42,-2286.15"/>
</g>
<!-- 6 -->
<g id="node8" class="node">
<title>6</title>
<ellipse fill="none" stroke="black" cx="1949.92" cy="-2157.55" rx="27" ry="18"/>
<text xml:space="preserve" text-anchor="middle" x="1949.92" y="-2152.88" font-family="Times,serif" font-size="14.00">6</text>
</g>
<!-- 0&#45;&gt;6 -->
<g id="edge40" class="edge">
<title>0&#45;&gt;6</title>
<path fill="none" stroke="black" d="M2042.36,-2235.94C2024.41,-2220.92 1995.56,-2196.76 1974.86,-2179.44"/>
<polygon fill="black" stroke="black" points="1977.35,-2176.95 1967.43,-2173.21 1972.85,-2182.32 1977.35,-2176.95"/>
<text xml:space="preserve" text-anchor="middle" x="2015.44" y="-2197.5" font-family="Times,serif" font-size="14.00">1</text>
</g>
<!-- 7 -->
<g id="node9" class="node">
<title>7</title>
<ellipse fill="none" stroke="black" cx="1595.92" cy="-200.5" rx="18" ry="18"/>
<ellipse fill="none" stroke="black" cx="1595.92" cy="-200.5" rx="22" ry="22"/>
<text xml:space="preserve" text-anchor="middle" x="1595.92" y="-195.82" font-family="Times,serif" font-size="14.00">7</text>
</g>
<!-- 0&#45;&gt;7 -->
<g id="edge119" class="edge">
<title>0&#45;&gt;7</title>
<path fill="none" stroke="black" d="M2081.05,-2247.48C2147.52,-2239.88 2340.92,-2213.1 2340.92,-2158.55 2340.92,-2158.55 2340.92,-2158.55 2340.92,-1933.43 2340.92,-1804.91 2454.92,-1796.2 2454.92,-1667.68 2454.92,-1667.68 2454.92,-1667.68 2454.92,-446.33 2454.92,-309.48 2354.49,-287.36 2225.92,-240.5 2171.39,-220.63 1761.58,-229.06 1703.92,-222.5 1678.3,-219.59 1649.66,-213.91 1628.32,-209.19"/>
<polygon fill="black" stroke="black" points="1629.28,-205.82 1618.75,-207.02 1627.74,-212.64 1629.28,-205.82"/>
<text xml:space="preserve" text-anchor="middle" x="2459.42" y="-1260.38" font-family="Times,serif" font-size="14.00">4</text>
</g>
<!-- 12 -->
<g id="node14" class="node">
<title>12</title>
<ellipse fill="none" stroke="black" cx="2038.92" cy="-591.05" rx="23.85" ry="23.85"/>
<ellipse fill="none" stroke="black" cx="2038.92" cy="-591.05" rx="27.85" ry="27.85"/>
<text xml:space="preserve" text-anchor="middle" x="2038.92" y="-586.38" font-family="Times,serif" font-size="14.00">12</text>
</g>
<!-- 0&#45;&gt;12 -->
<g id="edge104" class="edge">
<title>0&#45;&gt;12</title>
<path fill="none" stroke="black" d="M2081.22,-2249.59C2142.43,-2248.58 2311.43,-2242.88 2354.92,-2210.8 2375.48,-2195.63 2378.92,-2184.11 2378.92,-2158.55 2378.92,-2158.55 2378.92,-2158.55 2378.92,-1576.43 2378.92,-1496.86 2408.92,-1479.5 2408.92,-1399.93 2408.92,-1399.93 2408.92,-1399.93 2408.92,-912.28 2408.92,-736.78 2278.72,-723.23 2125.92,-636.9 2108.24,-626.91 2102.01,-628.12 2083.92,-618.9 2080.02,-616.91 2075.99,-614.72 2072.03,-612.48"/>
<polygon fill="black" stroke="black" points="2074.11,-609.64 2063.71,-607.63 2070.59,-615.69 2074.11,-609.64"/>
<text xml:space="preserve" text-anchor="middle" x="2412.18" y="-1438.88" font-family="Times,serif" font-size="14.00">3</text>
</g>
<!-- 14 -->
<g id="node16" class="node">
<title>14</title>
<ellipse fill="none" stroke="black" cx="1950.92" cy="-1443.55" rx="27" ry="18"/>
<text xml:space="preserve" text-anchor="middle" x="1950.92" y="-1438.88" font-family="Times,serif" font-size="14.00">14</text>
</g>
<!-- 0&#45;&gt;14 -->
<g id="edge3" class="edge">
<title>0&#45;&gt;14</title>
<path fill="none" stroke="black" d="M2073.92,-2234.08C2088.65,-2216.94 2108.92,-2188 2108.92,-2158.55 2108.92,-2158.55 2108.92,-2158.55 2108.92,-2022.68 2108.92,-1942.44 2070.92,-1926.42 2070.92,-1846.18 2070.92,-1846.18 2070.92,-1846.18 2070.92,-1531.8 2070.92,-1489.85 2022.34,-1465.96 1987,-1454.14"/>
<polygon fill="black" stroke="black" points="1988.11,-1450.81 1977.52,-1451.16 1986.01,-1457.49 1988.11,-1450.81"/>
<text xml:space="preserve" text-anchor="middle" x="2075.47" y="-1840.5" font-family="Times,serif" font-size="14.00">2</text>
</g>
<!-- 23 -->
<g id="node25" class="node">
<title>23</title>
<ellipse fill="none" stroke="black" cx="1675.92" cy="-967.75" rx="23.85" ry="23.85"/>
<ellipse fill="none" stroke="black" cx="1675.92" cy="-967.75" rx="27.85" ry="27.85"/>
<text xml:space="preserve" text-anchor="middle" x="1675.92" y="-963.08" font-family="Times,serif" font-size="14.00">23</text>
</g>
<!-- 0&#45;&gt;23 -->
<g id="edge17" class="edge">
<title>0&#45;&gt;23</title>
<path fill="none" stroke="black" d="M2081.04,-2247.72C2125.8,-2242.18 2222.92,-2222.74 2222.92,-2158.55 2222.92,-2158.55 2222.92,-2158.55 2222.92,-1576.43 2222.92,-1468.7 2248.8,-1426.51 2189.92,-1336.3 2089.57,-1182.56 1983.95,-1231.38 1837.92,-1120.1 1786.77,-1081.13 1733.38,-1028.56 1702.47,-996.75"/>
<polygon fill="black" stroke="black" points="1705.25,-994.59 1695.78,-989.83 1700.21,-999.45 1705.25,-994.59"/>
<text xml:space="preserve" text-anchor="middle" x="2227.42" y="-1617.38" font-family="Times,serif" font-size="14.00">0</text>
</g>
<!-- 1 -->
<g id="node3" class="node">
<title>1</title>
<ellipse fill="none" stroke="black" cx="1044.92" cy="-1979.05" rx="27" ry="18"/>
<text xml:space="preserve" text-anchor="middle" x="1044.92" y="-1974.38" font-family="Times,serif" font-size="14.00">1</text>
</g>
<!-- 2 -->
<g id="node4" class="node">
<title>2</title>
<ellipse fill="none" stroke="black" cx="666.92" cy="-1889.8" rx="27" ry="18"/>
<text xml:space="preserve" text-anchor="middle" x="666.92" y="-1885.13" font-family="Times,serif" font-size="14.00">2</text>
</g>
<!-- 1&#45;&gt;2 -->
<g id="edge34" class="edge">
<title>1&#45;&gt;2</title>
<path fill="none" stroke="black" d="M1017.71,-1977.17C950.44,-1974.67 778,-1966.13 725.92,-1943.05 711.11,-1936.49 697.38,-1924.83 686.9,-1914.18"/>
<polygon fill="black" stroke="black" points="689.66,-1912 680.27,-1907.09 684.54,-1916.78 689.66,-1912"/>
<text xml:space="preserve" text-anchor="middle" x="730.42" y="-1929.75" font-family="Times,serif" font-size="14.00">4</text>
</g>
<!-- 5 -->
<g id="node7" class="node">
<title>5</title>
<ellipse fill="none" stroke="black" cx="1328.92" cy="-2068.3" rx="27" ry="18"/>
<text xml:space="preserve" text-anchor="middle" x="1328.92" y="-2063.63" font-family="Times,serif" font-size="14.00">5</text>
</g>
<!-- 1&#45;&gt;5 -->
<g id="edge139" class="edge">
<title>1&#45;&gt;5</title>
<path fill="none" stroke="black" d="M1068.67,-1987.85C1086.37,-1994.11 1110.86,-2003.7 1130.92,-2015.05 1142.04,-2021.35 1142.25,-2027.09 1153.92,-2032.3 1198.45,-2052.22 1254.41,-2060.87 1290.89,-2064.59"/>
<polygon fill="black" stroke="black" points="1290.22,-2068.04 1300.5,-2065.49 1290.87,-2061.07 1290.22,-2068.04"/>
<text xml:space="preserve" text-anchor="middle" x="1158.42" y="-2019" font-family="Times,serif" font-size="14.00">0</text>
</g>
<!-- 11 -->
<g id="node13" class="node">
<title>11</title>
<ellipse fill="none" stroke="black" cx="1151.92" cy="-293.75" rx="27" ry="18"/>
<text xml:space="preserve" text-anchor="middle" x="1151.92" y="-289.07" font-family="Times,serif" font-size="14.00">11</text>
</g>
<!-- 1&#45;&gt;11 -->
<g id="edge118" class="edge">
<title>1&#45;&gt;11</title>
<path fill="none" stroke="black" d="M1030.79,-1963.6C981,-1912.48 814.41,-1739.76 772.92,-1675.3 645.48,-1477.34 623.92,-1402.39 623.92,-1166.95 623.92,-1166.95 623.92,-1166.95 623.92,-644.53 623.92,-561.35 637.68,-527.98 700.92,-473.95 828.81,-364.69 1031.52,-316.86 1114.57,-301.09"/>
<polygon fill="black" stroke="black" points="1115.01,-304.57 1124.21,-299.31 1113.74,-297.69 1115.01,-304.57"/>
<text xml:space="preserve" text-anchor="middle" x="628.51" y="-1161.28" font-family="Times,serif" font-size="14.00">2</text>
</g>
<!-- 18 -->
<g id="node20" class="node">
<title>18</title>
<ellipse fill="none" stroke="black" cx="1228.92" cy="-690.15" rx="27" ry="18"/>
<text xml:space="preserve" text-anchor="middle" x="1228.92" y="-685.48" font-family="Times,serif" font-size="14.00">18</text>
</g>
<!-- 1&#45;&gt;18 -->
<g id="edge107" class="edge">
<title>1&#45;&gt;18</title>
<path fill="none" stroke="black" d="M1038.31,-1961.19C1024.2,-1923.37 992.79,-1828.7 997.92,-1747.3 1005.02,-1634.52 1116.39,-779.13 1124.92,-761.4 1138.58,-733.01 1169.99,-714.28 1194.74,-703.35"/>
<polygon fill="black" stroke="black" points="1195.92,-706.65 1203.81,-699.59 1193.23,-700.19 1195.92,-706.65"/>
<text xml:space="preserve" text-anchor="middle" x="1050.16" y="-1349.63" font-family="Times,serif" font-size="14.00">3</text>
</g>
<!-- 26 -->
<g id="node28" class="node">
<title>26</title>
<ellipse fill="none" stroke="black" cx="887.92" cy="-491.95" rx="27" ry="18"/>
<text xml:space="preserve" text-anchor="middle" x="887.92" y="-487.28" font-family="Times,serif" font-size="14.00">26</text>
</g>
<!-- 1&#45;&gt;26 -->
<g id="edge22" class="edge">
<title>1&#45;&gt;26</title>
<path fill="none" stroke="black" d="M1017.61,-1977.31C989.42,-1975.15 945.75,-1967.69 917.92,-1943.05 789.43,-1829.32 827.09,-1748.19 770.92,-1586.05 688.89,-1349.29 737.92,-1273.8 737.92,-1023.23 737.92,-1023.23 737.92,-1023.23 737.92,-590.05 737.92,-536.4 806.38,-510.92 850.8,-500.04"/>
<polygon fill="black" stroke="black" points="851.35,-503.5 860.31,-497.86 849.78,-496.68 851.35,-503.5"/>
<text xml:space="preserve" text-anchor="middle" x="731.33" y="-1260.38" font-family="Times,serif" font-size="14.00">1</text>
</g>
<!-- 2&#45;&gt;2 -->
<g id="edge135" class="edge">
<title>2&#45;&gt;2</title>
<path fill="none" stroke="black" d="M691.45,-1898.04C702.43,-1898.82 711.92,-1896.08 711.92,-1889.8 711.92,-1885.88 708.21,-1883.34 702.75,-1882.17"/>
<polygon fill="black" stroke="black" points="703.13,-1878.69 692.96,-1881.65 702.76,-1885.68 703.13,-1878.69"/>
<text xml:space="preserve" text-anchor="middle" x="716.42" y="-1885.13" font-family="Times,serif" font-size="14.00">0</text>
</g>
<!-- 2&#45;&gt;6 -->
<g id="edge127" class="edge">
<title>2&#45;&gt;6</title>
<path fill="none" stroke="black" d="M673.47,-1907.56C678.52,-1918.73 686.42,-1933.14 696.92,-1943.05 825.91,-2064.83 882.1,-2077.43 1053.92,-2121.55 1137.67,-2143.06 1751,-2153.6 1911.54,-2156.01"/>
<polygon fill="black" stroke="black" points="1911.16,-2159.5 1921.22,-2156.15 1911.27,-2152.5 1911.16,-2159.5"/>
<text xml:space="preserve" text-anchor="middle" x="810" y="-2019" font-family="Times,serif" font-size="14.00">1</text>
</g>
<!-- 17 -->
<g id="node19" class="node">
<title>17</title>
<ellipse fill="none" stroke="black" cx="171.92" cy="-107.25" rx="27" ry="18"/>
<text xml:space="preserve" text-anchor="middle" x="171.92" y="-102.58" font-family="Times,serif" font-size="14.00">17</text>
</g>
<!-- 2&#45;&gt;17 -->
<g id="edge4" class="edge">
<title>2&#45;&gt;17</title>
<path fill="none" stroke="black" d="M645.06,-1878.89C603.54,-1859.61 511.13,-1814.55 440.92,-1764.55 383.56,-1723.71 376.85,-1701.76 342.92,-1640.05 300.69,-1563.26 197.92,-1348.6 197.92,-1310.68 197.92,-1310.68 197.92,-1310.68 197.92,-1110.48 197.92,-1023.22 190.92,-1001.53 190.92,-914.28 190.92,-914.28 190.92,-914.28 190.92,-199.5 190.92,-177.86 185.73,-153.93 180.78,-136.01"/>
<polygon fill="black" stroke="black" points="184.21,-135.25 178.04,-126.64 177.49,-137.22 184.21,-135.25"/>
<text xml:space="preserve" text-anchor="middle" x="200.06" y="-1017.55" font-family="Times,serif" font-size="14.00">3</text>
</g>
<!-- 28 -->
<g id="node30" class="node">
<title>28</title>
<ellipse fill="none" stroke="black" cx="1582.92" cy="-1622.05" rx="27" ry="18"/>
<text xml:space="preserve" text-anchor="middle" x="1582.92" y="-1617.38" font-family="Times,serif" font-size="14.00">28</text>
</g>
<!-- 2&#45;&gt;28 -->
<g id="edge131" class="edge">
<title>2&#45;&gt;28</title>
<path fill="none" stroke="black" d="M693.92,-1886.77C740.66,-1882.88 839.46,-1873 920.92,-1853.8 1041.47,-1825.39 1067.9,-1805.13 1184.92,-1764.55 1320.12,-1717.67 1480.46,-1660.04 1549.05,-1635.29"/>
<polygon fill="black" stroke="black" points="1549.99,-1638.67 1558.21,-1631.99 1547.62,-1632.09 1549.99,-1638.67"/>
<text xml:space="preserve" text-anchor="middle" x="1235.21" y="-1751.25" font-family="Times,serif" font-size="14.00">2</text>
</g>
<!-- 29 -->
<g id="node31" class="node">
<title>29</title>
<ellipse fill="none" stroke="black" cx="622.92" cy="-1800.55" rx="27" ry="18"/>
<text xml:space="preserve" text-anchor="middle" x="622.92" y="-1795.88" font-family="Times,serif" font-size="14.00">29</text>
</g>
<!-- 2&#45;&gt;29 -->
<g id="edge79" class="edge">
<title>2&#45;&gt;29</title>
<path fill="none" stroke="black" d="M658.64,-1872.39C652.31,-1859.84 643.46,-1842.28 636.15,-1827.79"/>
<polygon fill="black" stroke="black" points="639.47,-1826.59 631.84,-1819.24 633.22,-1829.75 639.47,-1826.59"/>
<text xml:space="preserve" text-anchor="middle" x="653.36" y="-1840.5" font-family="Times,serif" font-size="14.00">4</text>
</g>
<!-- 3 -->
<g id="node5" class="node">
<title>3</title>
<ellipse fill="none" stroke="black" cx="1935.92" cy="-1354.3" rx="27" ry="18"/>
<text xml:space="preserve" text-anchor="middle" x="1935.92" y="-1349.63" font-family="Times,serif" font-size="14.00">3</text>
</g>
<!-- 4 -->
<g id="node6" class="node">
<title>4</title>
<ellipse fill="none" stroke="black" cx="1891.92" cy="-1532.8" rx="27" ry="18"/>
<text xml:space="preserve" text-anchor="middle" x="1891.92" y="-1528.13" font-family="Times,serif" font-size="14.00">4</text>
</g>
<!-- 3&#45;&gt;4 -->
<g id="edge68" class="edge">
<title>3&#45;&gt;4</title>
<path fill="none" stroke="black" d="M1927.31,-1371.87C1920.44,-1385.82 1911.14,-1406.49 1905.92,-1425.55 1898.86,-1451.32 1895.31,-1481.62 1893.56,-1503.25"/>
<polygon fill="black" stroke="black" points="1890.08,-1502.85 1892.85,-1513.08 1897.06,-1503.36 1890.08,-1502.85"/>
<text xml:space="preserve" text-anchor="middle" x="1910.42" y="-1438.88" font-family="Times,serif" font-size="14.00">4</text>
</g>
<!-- 3&#45;&gt;7 -->
<g id="edge58" class="edge">
<title>3&#45;&gt;7</title>
<path fill="none" stroke="black" d="M1963.19,-1352.28C1991.68,-1349.89 2036.28,-1342.24 2065.92,-1318.3 2143.45,-1255.67 2154.92,-1212.14 2154.92,-1112.48 2154.92,-1112.48 2154.92,-1112.48 2154.92,-912.28 2154.92,-743.33 2218.92,-706.52 2218.92,-537.58 2218.92,-537.58 2218.92,-537.58 2218.92,-292.75 2218.92,-235 1760.9,-231.92 1703.92,-222.5 1678.48,-218.29 1649.83,-212.68 1628.44,-208.32"/>
<polygon fill="black" stroke="black" points="1629.35,-204.94 1618.85,-206.35 1627.94,-211.79 1629.35,-204.94"/>
<text xml:space="preserve" text-anchor="middle" x="2180.33" y="-774.73" font-family="Times,serif" font-size="14.00">1</text>
</g>
<!-- 3&#45;&gt;12 -->
<g id="edge115" class="edge">
<title>3&#45;&gt;12</title>
<path fill="none" stroke="black" d="M1936.74,-1335.89C1939.58,-1278.82 1950.12,-1092.41 1972.92,-939.9 1982.49,-875.89 1990.66,-860.95 2002.92,-797.4 2014.14,-739.21 2025.73,-671.46 2032.63,-630.18"/>
<polygon fill="black" stroke="black" points="2036.05,-630.95 2034.24,-620.51 2029.15,-629.8 2036.05,-630.95"/>
<text xml:space="preserve" text-anchor="middle" x="1977.42" y="-963.08" font-family="Times,serif" font-size="14.00">0</text>
</g>
<!-- 20 -->
<g id="node22" class="node">
<title>20</title>
<ellipse fill="none" stroke="black" cx="1803.92" cy="-1265.05" rx="27" ry="18"/>
<text xml:space="preserve" text-anchor="middle" x="1803.92" y="-1260.38" font-family="Times,serif" font-size="14.00">20</text>
</g>
<!-- 3&#45;&gt;20 -->
<g id="edge108" class="edge">
<title>3&#45;&gt;20</title>
<path fill="none" stroke="black" d="M1911.38,-1346.43C1893.56,-1340.71 1869.43,-1331.37 1850.92,-1318.3 1840.04,-1310.63 1829.89,-1300 1821.83,-1290.33"/>
<polygon fill="black" stroke="black" points="1824.7,-1288.32 1815.73,-1282.67 1819.22,-1292.68 1824.7,-1288.32"/>
<text xml:space="preserve" text-anchor="middle" x="1855.42" y="-1305" font-family="Times,serif" font-size="14.00">3</text>
</g>
<!-- 3&#45;&gt;23 -->
<g id="edge70" class="edge">
<title>3&#45;&gt;23</title>
<path fill="none" stroke="black" d="M1920.65,-1339.22C1914.28,-1333.05 1906.97,-1325.57 1900.92,-1318.3 1820.25,-1221.46 1806.2,-1192.05 1739.92,-1084.85 1723.33,-1058.03 1706.17,-1026.66 1693.79,-1003.3"/>
<polygon fill="black" stroke="black" points="1696.92,-1001.73 1689.17,-994.51 1690.73,-1004.99 1696.92,-1001.73"/>
<text xml:space="preserve" text-anchor="middle" x="1811.85" y="-1161.28" font-family="Times,serif" font-size="14.00">2</text>
</g>
<!-- 4&#45;&gt;5 -->
<g id="edge31" class="edge">
<title>4&#45;&gt;5</title>
<path fill="none" stroke="black" d="M1880.82,-1549.36C1869.92,-1566.19 1854.92,-1594.23 1854.92,-1621.05 1854.92,-1980.05 1854.92,-1980.05 1854.92,-1980.05 1854.92,-2007.28 1846.19,-2018.16 1822.92,-2032.3 1784.36,-2055.73 1476.98,-2064.27 1367.48,-2066.58"/>
<polygon fill="black" stroke="black" points="1367.47,-2063.08 1357.54,-2066.79 1367.61,-2070.08 1367.47,-2063.08"/>
<text xml:space="preserve" text-anchor="middle" x="1859.42" y="-1795.88" font-family="Times,serif" font-size="14.00">3</text>
</g>
<!-- 4&#45;&gt;6 -->
<g id="edge76" class="edge">
<title>4&#45;&gt;6</title>
<path fill="none" stroke="black" d="M1908.38,-1547.38C1925.53,-1563.14 1949.92,-1590.86 1949.92,-1621.05 1949.92,-2069.3 1949.92,-2069.3 1949.92,-2069.3 1949.92,-2088.81 1949.92,-2110.76 1949.92,-2127.77"/>
<polygon fill="black" stroke="black" points="1946.42,-2127.66 1949.92,-2137.66 1953.42,-2127.66 1946.42,-2127.66"/>
<text xml:space="preserve" text-anchor="middle" x="1954.42" y="-1840.5" font-family="Times,serif" font-size="14.00">1</text>
</g>
<!-- 4&#45;&gt;7 -->
<g id="edge146" class="edge">
<title>4&#45;&gt;7</title>
<path fill="none" stroke="black" d="M1916.02,-1524.53C1969.15,-1507.23 2096.9,-1458.54 2163.92,-1372.3 2307.39,-1187.68 2256.92,-839.16 2256.92,-646.53 2256.92,-646.53 2256.92,-646.53 2256.92,-292.75 2256.92,-195.95 1930.32,-249.74 1703.92,-222.5 1678.32,-219.42 1649.68,-213.75 1628.33,-209.07"/>
<polygon fill="black" stroke="black" points="1629.29,-205.7 1618.77,-206.93 1627.76,-212.53 1629.29,-205.7"/>
<text xml:space="preserve" text-anchor="middle" x="2269.33" y="-863.98" font-family="Times,serif" font-size="14.00">4</text>
</g>
<!-- 4&#45;&gt;14 -->
<g id="edge86" class="edge">
<title>4&#45;&gt;14</title>
<path fill="none" stroke="black" d="M1899.56,-1515.22C1904.73,-1504.65 1912.04,-1490.87 1919.92,-1479.55 1922.68,-1475.58 1925.84,-1471.56 1929.06,-1467.73"/>
<polygon fill="black" stroke="black" points="1931.55,-1470.2 1935.53,-1460.38 1926.29,-1465.58 1931.55,-1470.2"/>
<text xml:space="preserve" text-anchor="middle" x="1924.42" y="-1483.5" font-family="Times,serif" font-size="14.00">0</text>
</g>
<!-- 4&#45;&gt;28 -->
<g id="edge7" class="edge">
<title>4&#45;&gt;28</title>
<path fill="none" stroke="black" d="M1867.49,-1540.69C1843.19,-1547.59 1804.89,-1558.63 1771.92,-1568.8 1748.25,-1576.1 1742.7,-1579.13 1718.92,-1586.05 1685.33,-1595.83 1646.66,-1605.64 1619.16,-1612.38"/>
<polygon fill="black" stroke="black" points="1618.47,-1608.95 1609.58,-1614.71 1620.13,-1615.75 1618.47,-1608.95"/>
<text xml:space="preserve" text-anchor="middle" x="1776.42" y="-1572.75" font-family="Times,serif" font-size="14.00">2</text>
</g>
<!-- 5&#45;&gt;1 -->
<g id="edge62" class="edge">
<title>5&#45;&gt;1</title>
<path fill="none" stroke="black" d="M1301.64,-2066.75C1260.92,-2065.05 1182.54,-2058.33 1121.92,-2032.3 1110.18,-2027.26 1109.4,-2022.37 1098.92,-2015.05 1090.84,-2009.42 1081.92,-2003.51 1073.7,-1998.19"/>
<polygon fill="black" stroke="black" points="1075.7,-1995.32 1065.4,-1992.87 1071.93,-2001.21 1075.7,-1995.32"/>
<text xml:space="preserve" text-anchor="middle" x="1126.42" y="-2019" font-family="Times,serif" font-size="14.00">1</text>
</g>
<!-- 5&#45;&gt;4 -->
<g id="edge43" class="edge">
<title>5&#45;&gt;4</title>
<path fill="none" stroke="black" d="M1356.17,-2066.59C1456.68,-2063.79 1803.03,-2052.76 1847.92,-2032.3 1877.73,-2018.72 1899.92,-2012.82 1899.92,-1980.05 1899.92,-1980.05 1899.92,-1980.05 1899.92,-1621.05 1899.92,-1601.47 1897.89,-1579.51 1895.88,-1562.53"/>
<polygon fill="black" stroke="black" points="1899.36,-1562.13 1894.64,-1552.64 1892.41,-1563 1899.36,-1562.13"/>
<text xml:space="preserve" text-anchor="middle" x="1904.42" y="-1795.88" font-family="Times,serif" font-size="14.00">2</text>
</g>
<!-- 8 -->
<g id="node10" class="node">
<title>8</title>
<ellipse fill="none" stroke="black" cx="977.92" cy="-591.05" rx="18" ry="18"/>
<ellipse fill="none" stroke="black" cx="977.92" cy="-591.05" rx="22" ry="22"/>
<text xml:space="preserve" text-anchor="middle" x="977.92" y="-586.38" font-family="Times,serif" font-size="14.00">8</text>
</g>
<!-- 5&#45;&gt;8 -->
<g id="edge20" class="edge">
<title>5&#45;&gt;8</title>
<path fill="none" stroke="black" d="M1309.02,-2055.55C1305.11,-2053.58 1300.95,-2051.72 1296.92,-2050.3 1255.95,-2035.96 1237.12,-2056.26 1200.92,-2032.3 1081.76,-1953.43 1073.94,-1898.03 1022.92,-1764.55 1011.49,-1734.66 901.92,-1195.93 901.92,-914.28 901.92,-914.28 901.92,-914.28 901.92,-689.15 901.92,-656.37 929.11,-628.07 950.96,-610.61"/>
<polygon fill="black" stroke="black" points="952.86,-613.56 958.7,-604.73 948.62,-607.99 952.86,-613.56"/>
<text xml:space="preserve" text-anchor="middle" x="952.56" y="-1349.63" font-family="Times,serif" font-size="14.00">4</text>
</g>
<!-- 5&#45;&gt;8 -->
<g id="edge73" class="edge">
<title>5&#45;&gt;8</title>
<path fill="none" stroke="black" d="M1308.88,-2055.92C1304.98,-2053.92 1300.87,-2051.95 1296.92,-2050.3 1272,-2039.93 1257.68,-2051.7 1238.92,-2032.3 1122.09,-1911.52 1138.92,-1835.72 1138.92,-1667.68 1138.92,-1667.68 1138.92,-1667.68 1138.92,-1487.18 1138.92,-1179.88 939.92,-1132.32 939.92,-825.03 939.92,-825.03 939.92,-825.03 939.92,-689.15 939.92,-664.52 950.65,-638.65 960.71,-619.8"/>
<polygon fill="black" stroke="black" points="963.71,-621.6 965.57,-611.17 957.61,-618.17 963.71,-621.6"/>
<text xml:space="preserve" text-anchor="middle" x="1132.61" y="-1349.63" font-family="Times,serif" font-size="14.00">3</text>
</g>
<!-- 5&#45;&gt;14 -->
<g id="edge11" class="edge">
<title>5&#45;&gt;14</title>
<path fill="none" stroke="black" d="M1355.86,-2066.56C1412.71,-2064.55 1548.86,-2057.29 1659.92,-2032.3 1728.38,-2016.9 1808.92,-2050.23 1808.92,-1980.05 1808.92,-1980.05 1808.92,-1980.05 1808.92,-1799.55 1808.92,-1671.28 1788.84,-1624.13 1855.92,-1514.8 1864.21,-1501.28 1897.17,-1478.45 1921.96,-1462.5"/>
<polygon fill="black" stroke="black" points="1923.81,-1465.47 1930.37,-1457.15 1920.05,-1459.56 1923.81,-1465.47"/>
<text xml:space="preserve" text-anchor="middle" x="1812.92" y="-1751.25" font-family="Times,serif" font-size="14.00">0</text>
</g>
<!-- 6&#45;&gt;0 -->
<g id="edge78" class="edge">
<title>6&#45;&gt;0</title>
<path fill="none" stroke="black" d="M1957.17,-2175.28C1962.67,-2186.44 1971.13,-2200.85 1981.92,-2210.8 1995.04,-2222.9 2012.61,-2232.18 2027.66,-2238.65"/>
<polygon fill="black" stroke="black" points="2026.09,-2241.79 2036.67,-2242.3 2028.71,-2235.3 2026.09,-2241.79"/>
<text xml:space="preserve" text-anchor="middle" x="1986.42" y="-2197.5" font-family="Times,serif" font-size="14.00">4</text>
</g>
<!-- 6&#45;&gt;1 -->
<g id="edge12" class="edge">
<title>6&#45;&gt;1</title>
<path fill="none" stroke="black" d="M1922.55,-2156.25C1778.17,-2154.54 1110.23,-2145.38 1073.92,-2121.55 1037.91,-2097.93 1037.16,-2042.31 1040.57,-2008.26"/>
<polygon fill="black" stroke="black" points="1044,-2009.06 1041.72,-1998.71 1037.05,-2008.22 1044,-2009.06"/>
<text xml:space="preserve" text-anchor="middle" x="1051.6" y="-2063.63" font-family="Times,serif" font-size="14.00">0</text>
</g>
<!-- 6&#45;&gt;1 -->
<g id="edge45" class="edge">
<title>6&#45;&gt;1</title>
<path fill="none" stroke="black" d="M1922.66,-2155.6C1831.38,-2152 1528.45,-2136.76 1283.92,-2086.3 1201.28,-2069.25 1175.34,-2073.87 1101.92,-2032.3 1088.41,-2024.65 1075.48,-2013.26 1065.35,-2003.06"/>
<polygon fill="black" stroke="black" points="1068.04,-2000.8 1058.6,-1995.97 1062.97,-2005.63 1068.04,-2000.8"/>
<text xml:space="preserve" text-anchor="middle" x="1288.42" y="-2063.63" font-family="Times,serif" font-size="14.00">1</text>
</g>
<!-- 6&#45;&gt;3 -->
<g id="edge121" class="edge">
<title>6&#45;&gt;3</title>
<path fill="none" stroke="black" d="M1960.6,-2140.6C1996.25,-2086.76 2108.92,-1911.41 2108.92,-1846.18 2108.92,-1846.18 2108.92,-1846.18 2108.92,-1442.55 2108.92,-1382.63 2025.16,-1363.86 1974.2,-1357.98"/>
<polygon fill="black" stroke="black" points="1974.76,-1354.52 1964.45,-1356.98 1974.05,-1361.48 1974.76,-1354.52"/>
<text xml:space="preserve" text-anchor="middle" x="2113.42" y="-1751.25" font-family="Times,serif" font-size="14.00">2</text>
</g>
<!-- 6&#45;&gt;5 -->
<g id="edge134" class="edge">
<title>6&#45;&gt;5</title>
<path fill="none" stroke="black" d="M1923.63,-2152.86C1825.64,-2139.09 1481.36,-2090.72 1366.52,-2074.59"/>
<polygon fill="black" stroke="black" points="1367.1,-2071.13 1356.71,-2073.21 1366.13,-2078.06 1367.1,-2071.13"/>
<text xml:space="preserve" text-anchor="middle" x="1699.54" y="-2108.25" font-family="Times,serif" font-size="14.00">3</text>
</g>
<!-- 7&#45;&gt;1 -->
<g id="edge51" class="edge">
<title>7&#45;&gt;1</title>
<path fill="none" stroke="black" d="M1573.71,-203.22C1424.84,-215.04 577.92,-286.89 577.92,-391.85 577.92,-1112.48 577.92,-1112.48 577.92,-1112.48 577.92,-1284.96 624.28,-1419.06 643.92,-1461.55 692.99,-1567.76 900.81,-1780.46 973.92,-1871.8 993.09,-1895.76 1000.05,-1900.18 1016.92,-1925.8 1022.25,-1933.9 1027.45,-1943.12 1031.89,-1951.53"/>
<polygon fill="black" stroke="black" points="1028.7,-1952.97 1036.38,-1960.26 1034.92,-1949.77 1028.7,-1952.97"/>
<text xml:space="preserve" text-anchor="middle" x="582.44" y="-1106.8" font-family="Times,serif" font-size="14.00">1</text>
</g>
<!-- 24 -->
<g id="node26" class="node">
<title>24</title>
<ellipse fill="none" stroke="black" cx="1663.92" cy="-868.65" rx="27" ry="18"/>
<text xml:space="preserve" text-anchor="middle" x="1663.92" y="-863.98" font-family="Times,serif" font-size="14.00">24</text>
</g>
<!-- 7&#45;&gt;24 -->
<g id="edge47" class="edge">
<title>7&#45;&gt;24</title>
<path fill="none" stroke="black" d="M1595.92,-222.89C1595.92,-241.38 1595.92,-268.83 1595.92,-292.75 1595.92,-537.58 1595.92,-537.58 1595.92,-537.58 1595.92,-670.9 1612.72,-704.62 1649.92,-832.65 1650.67,-835.25 1651.55,-837.92 1652.49,-840.58"/>
<polygon fill="black" stroke="black" points="1649.15,-841.66 1656,-849.74 1655.69,-839.15 1649.15,-841.66"/>
<text xml:space="preserve" text-anchor="middle" x="1600.43" y="-531.9" font-family="Times,serif" font-size="14.00">2</text>
</g>
<!-- 7&#45;&gt;24 -->
<g id="edge48" class="edge">
<title>7&#45;&gt;24</title>
<path fill="none" stroke="black" d="M1615.17,-211.62C1639.69,-226.06 1678.92,-255.06 1678.92,-292.75 1678.92,-537.58 1678.92,-537.58 1678.92,-537.58 1678.92,-649.27 1670.24,-782.01 1666.08,-839.16"/>
<polygon fill="black" stroke="black" points="1662.61,-838.74 1665.36,-848.97 1669.59,-839.26 1662.61,-838.74"/>
<text xml:space="preserve" text-anchor="middle" x="1683.42" y="-531.9" font-family="Times,serif" font-size="14.00">3</text>
</g>
<!-- 7&#45;&gt;28 -->
<g id="edge21" class="edge">
<title>7&#45;&gt;28</title>
<path fill="none" stroke="black" d="M1575.98,-210.9C1564.33,-217.49 1550.48,-227.45 1542.92,-240.5 1470.53,-365.4 1514.15,-419.07 1505.92,-563.2 1503.61,-603.56 1502.04,-613.92 1505.92,-654.15 1512.06,-717.84 1615.92,-1155.44 1615.92,-1219.43 1615.92,-1533.8 1615.92,-1533.8 1615.92,-1533.8 1615.92,-1555.53 1606.85,-1578.45 1598.23,-1595.34"/>
<polygon fill="black" stroke="black" points="1595.39,-1593.22 1593.72,-1603.68 1601.55,-1596.55 1595.39,-1593.22"/>
<text xml:space="preserve" text-anchor="middle" x="1564.36" y="-908.6" font-family="Times,serif" font-size="14.00">0</text>
</g>
<!-- 7&#45;&gt;28 -->
<g id="edge66" class="edge">
<title>7&#45;&gt;28</title>
<path fill="none" stroke="black" d="M1590.95,-222.16C1587.65,-236.97 1583.63,-257.46 1581.92,-275.75 1572.23,-379.39 1577.16,-405.97 1581.92,-509.95 1592.56,-742.28 1607.2,-799.59 1631.92,-1030.85 1640.88,-1114.75 1653.92,-1135.05 1653.92,-1219.43 1653.92,-1533.8 1653.92,-1533.8 1653.92,-1533.8 1653.92,-1562.29 1630.86,-1586.65 1611.02,-1602.33"/>
<polygon fill="black" stroke="black" points="1609.08,-1599.41 1603.16,-1608.2 1613.26,-1605.02 1609.08,-1599.41"/>
<text xml:space="preserve" text-anchor="middle" x="1624.07" y="-908.6" font-family="Times,serif" font-size="14.00">4</text>
</g>
<!-- 8&#45;&gt;5 -->
<g id="edge142" class="edge">
<title>8&#45;&gt;5</title>
<path fill="none" stroke="black" d="M977.92,-613.27C977.92,-632.94 977.92,-663.02 977.92,-689.15 977.92,-825.03 977.92,-825.03 977.92,-825.03 977.92,-936.07 1047.45,-945.84 1088.92,-1048.85 1132.58,-1157.33 1139.31,-1186.73 1163.92,-1301.05 1207.69,-1504.41 1181.66,-1561.98 1228.92,-1764.55 1253.17,-1868.51 1297.63,-1987.65 1318.09,-2040.1"/>
<polygon fill="black" stroke="black" points="1314.72,-2041.1 1321.64,-2049.13 1321.24,-2038.54 1314.72,-2041.1"/>
<text xml:space="preserve" text-anchor="middle" x="1182.03" y="-1349.63" font-family="Times,serif" font-size="14.00">1</text>
</g>
<!-- 8&#45;&gt;11 -->
<g id="edge109" class="edge">
<title>8&#45;&gt;11</title>
<path fill="none" stroke="black" d="M1000.02,-588.76C1028.72,-585.82 1078.29,-576.28 1104.92,-545.2 1159.56,-481.42 1159.01,-374.5 1155.07,-323.5"/>
<polygon fill="black" stroke="black" points="1158.56,-323.24 1154.19,-313.59 1151.59,-323.86 1158.56,-323.24"/>
<text xml:space="preserve" text-anchor="middle" x="1154.67" y="-442.65" font-family="Times,serif" font-size="14.00">0</text>
</g>
<!-- 8&#45;&gt;11 -->
<g id="edge113" class="edge">
<title>8&#45;&gt;11</title>
<path fill="none" stroke="black" d="M988.8,-571.58C1018.7,-520.84 1102.16,-379.2 1136.67,-320.62"/>
<polygon fill="black" stroke="black" points="1139.51,-322.7 1141.57,-312.31 1133.48,-319.15 1139.51,-322.7"/>
<text xml:space="preserve" text-anchor="middle" x="1071.42" y="-442.65" font-family="Times,serif" font-size="14.00">4</text>
</g>
<!-- 8&#45;&gt;26 -->
<g id="edge132" class="edge">
<title>8&#45;&gt;26</title>
<path fill="none" stroke="black" d="M963.46,-574.45C948.85,-558.69 926.12,-534.17 909.41,-516.14"/>
<polygon fill="black" stroke="black" points="912.14,-513.94 902.78,-508.99 907.01,-518.7 912.14,-513.94"/>
<text xml:space="preserve" text-anchor="middle" x="940.12" y="-531.9" font-family="Times,serif" font-size="14.00">3</text>
</g>
<!-- 8&#45;&gt;29 -->
<g id="edge8" class="edge">
<title>8&#45;&gt;29</title>
<path fill="none" stroke="black" d="M955.95,-595.15C912.53,-602.65 819.92,-626.05 819.92,-689.15 819.92,-1221.43 819.92,-1221.43 819.92,-1221.43 819.92,-1299.93 812.92,-1319.42 812.92,-1397.93 812.92,-1578.43 812.92,-1578.43 812.92,-1578.43 812.92,-1607.82 806.31,-1616.36 788.92,-1640.05 774.09,-1660.25 767.1,-1663.66 744.92,-1675.3 720.27,-1688.24 706.79,-1676.08 684.92,-1693.3 671.07,-1704.21 649.3,-1745.23 635.58,-1773"/>
<polygon fill="black" stroke="black" points="632.48,-1771.37 631.25,-1781.89 638.77,-1774.43 632.48,-1771.37"/>
<text xml:space="preserve" text-anchor="middle" x="824.42" y="-1215.75" font-family="Times,serif" font-size="14.00">2</text>
</g>
<!-- 9 -->
<g id="node11" class="node">
<title>9</title>
<ellipse fill="none" stroke="black" cx="1425.92" cy="-1711.3" rx="27" ry="18"/>
<text xml:space="preserve" text-anchor="middle" x="1425.92" y="-1706.63" font-family="Times,serif" font-size="14.00">9</text>
</g>
<!-- 9&#45;&gt;0 -->
<g id="edge59" class="edge">
<title>9&#45;&gt;0</title>
<path fill="none" stroke="black" d="M1446.11,-1723.83C1532.57,-1773.39 1871.43,-1969.43 1963.92,-2050.3 1987.44,-2070.87 1993.59,-2077.08 2008.92,-2104.3 2029.6,-2141.04 2043.79,-2187.78 2051.63,-2218.23"/>
<polygon fill="black" stroke="black" points="2048.14,-2218.72 2053.95,-2227.58 2054.93,-2217.03 2048.14,-2218.72"/>
<text xml:space="preserve" text-anchor="middle" x="1895.51" y="-1974.38" font-family="Times,serif" font-size="14.00">4</text>
</g>
<!-- 9&#45;&gt;5 -->
<g id="edge82" class="edge">
<title>9&#45;&gt;5</title>
<path fill="none" stroke="black" d="M1424.02,-1729.66C1422.26,-1747.25 1419.92,-1775.26 1419.92,-1799.55 1419.92,-1980.05 1419.92,-1980.05 1419.92,-1980.05 1419.92,-2013.48 1387.53,-2038.08 1361.4,-2052.48"/>
<polygon fill="black" stroke="black" points="1360.01,-2049.26 1352.75,-2056.98 1363.24,-2055.47 1360.01,-2049.26"/>
<text xml:space="preserve" text-anchor="middle" x="1424.42" y="-1885.13" font-family="Times,serif" font-size="14.00">3</text>
</g>
<!-- 15 -->
<g id="node17" class="node">
<title>15</title>
<ellipse fill="none" stroke="black" cx="1733.92" cy="-392.85" rx="27" ry="18"/>
<text xml:space="preserve" text-anchor="middle" x="1733.92" y="-388.18" font-family="Times,serif" font-size="14.00">15</text>
</g>
<!-- 9&#45;&gt;15 -->
<g id="edge36" class="edge">
<title>9&#45;&gt;15</title>
<path fill="none" stroke="black" d="M1453.07,-1709.06C1498.81,-1705.53 1591.56,-1691.98 1645.92,-1640.05 1664.36,-1622.44 1691.92,-1502.84 1691.92,-1489.18 1691.92,-1489.18 1691.92,-1489.18 1691.92,-1219.43 1691.92,-1081.9 1757.84,-1058.1 1776.92,-921.9 1786.58,-852.92 1808.67,-963.18 1768.92,-473.95 1767.64,-458.18 1769.57,-453.48 1763.92,-438.7 1761.24,-431.7 1757.3,-424.68 1753.15,-418.36"/>
<polygon fill="black" stroke="black" points="1756.11,-416.47 1747.49,-410.31 1750.39,-420.5 1756.11,-416.47"/>
<text xml:space="preserve" text-anchor="middle" x="1741.61" y="-1062.18" font-family="Times,serif" font-size="14.00">2</text>
</g>
<!-- 16 -->
<g id="node18" class="node">
<title>16</title>
<ellipse fill="none" stroke="black" cx="1280.92" cy="-1066.85" rx="27" ry="18"/>
<text xml:space="preserve" text-anchor="middle" x="1280.92" y="-1062.18" font-family="Times,serif" font-size="14.00">16</text>
</g>
<!-- 9&#45;&gt;16 -->
<g id="edge44" class="edge">
<title>9&#45;&gt;16</title>
<path fill="none" stroke="black" d="M1416.39,-1694.28C1402.91,-1670.07 1379.92,-1622.32 1379.92,-1578.43 1379.92,-1578.43 1379.92,-1578.43 1379.92,-1308.68 1379.92,-1286.12 1319.71,-1152.29 1293.2,-1094.45"/>
<polygon fill="black" stroke="black" points="1296.51,-1093.27 1289.15,-1085.64 1290.15,-1096.19 1296.51,-1093.27"/>
<text xml:space="preserve" text-anchor="middle" x="1384.42" y="-1394.25" font-family="Times,serif" font-size="14.00">0</text>
</g>
<!-- 9&#45;&gt;28 -->
<g id="edge41" class="edge">
<title>9&#45;&gt;28</title>
<path fill="none" stroke="black" d="M1446.12,-1699.07C1473.21,-1684.02 1521.5,-1657.18 1552.86,-1639.76"/>
<polygon fill="black" stroke="black" points="1554.43,-1642.89 1561.47,-1634.97 1551.03,-1636.77 1554.43,-1642.89"/>
<text xml:space="preserve" text-anchor="middle" x="1522.98" y="-1662" font-family="Times,serif" font-size="14.00">1</text>
</g>
<!-- 10 -->
<g id="node12" class="node">
<title>10</title>
<ellipse fill="none" stroke="black" cx="586.92" cy="-18" rx="27" ry="18"/>
<text xml:space="preserve" text-anchor="middle" x="586.92" y="-13.32" font-family="Times,serif" font-size="14.00">10</text>
</g>
<!-- 10&#45;&gt;4 -->
<g id="edge101" class="edge">
<title>10&#45;&gt;4</title>
<path fill="none" stroke="black" d="M614.21,-18.82C841.85,-17.51 2416.92,-11.82 2416.92,-106.25 2416.92,-735.78 2416.92,-735.78 2416.92,-735.78 2416.92,-816.84 2370.92,-831.21 2370.92,-912.28 2370.92,-1221.43 2370.92,-1221.43 2370.92,-1221.43 2370.92,-1309.96 2368.25,-1351.25 2299.92,-1407.55 2187.94,-1499.81 2008.36,-1523.63 1930.26,-1529.73"/>
<polygon fill="black" stroke="black" points="1930.29,-1526.22 1920.57,-1530.43 1930.79,-1533.2 1930.29,-1526.22"/>
<text xml:space="preserve" text-anchor="middle" x="2419.52" y="-774.73" font-family="Times,serif" font-size="14.00">2</text>
</g>
<!-- 10&#45;&gt;6 -->
<g id="edge60" class="edge">
<title>10&#45;&gt;6</title>
<path fill="none" stroke="black" d="M614.22,-18.84C804.06,-17.87 1929.36,-13.91 2268.92,-54 2421.44,-72.01 2492.92,-91.66 2492.92,-106.25 2492.92,-1399.93 2492.92,-1399.93 2492.92,-1399.93 2492.92,-1432.48 2409.94,-1647.56 2392.92,-1675.3 2330.34,-1777.27 2274.8,-1771.93 2208.92,-1871.8 2165.14,-1938.17 2180.9,-1971.3 2129.92,-2032.3 2107.95,-2058.59 2102.03,-2065.37 2074.92,-2086.3 2050.74,-2104.97 2042.53,-2106.56 2015.92,-2121.55 2004.61,-2127.92 1992.07,-2134.66 1980.97,-2140.5"/>
<polygon fill="black" stroke="black" points="1979.45,-2137.35 1972.21,-2145.09 1982.7,-2143.55 1979.45,-2137.35"/>
<text xml:space="preserve" text-anchor="middle" x="2497.42" y="-1106.8" font-family="Times,serif" font-size="14.00">0</text>
</g>
<!-- 10&#45;&gt;10 -->
<g id="edge88" class="edge">
<title>10&#45;&gt;10</title>
<path fill="none" stroke="black" d="M611.45,-26.24C622.43,-27.02 631.92,-24.28 631.92,-18 631.92,-14.08 628.21,-11.53 622.75,-10.37"/>
<polygon fill="black" stroke="black" points="623.13,-6.89 612.96,-9.84 622.76,-13.88 623.13,-6.89"/>
<text xml:space="preserve" text-anchor="middle" x="636.42" y="-13.32" font-family="Times,serif" font-size="14.00">4</text>
</g>
<!-- 10&#45;&gt;26 -->
<g id="edge110" class="edge">
<title>10&#45;&gt;26</title>
<path fill="none" stroke="black" d="M599.22,-34.38C611.3,-51.06 627.92,-78.97 627.92,-106.25 627.92,-393.85 627.92,-393.85 627.92,-393.85 627.92,-440.75 778.25,-472.47 850.29,-484.98"/>
<polygon fill="black" stroke="black" points="849.62,-488.41 860.06,-486.63 850.79,-481.51 849.62,-488.41"/>
<text xml:space="preserve" text-anchor="middle" x="632.42" y="-244.45" font-family="Times,serif" font-size="14.00">1</text>
</g>
<!-- 10&#45;&gt;29 -->
<g id="edge91" class="edge">
<title>10&#45;&gt;29</title>
<path fill="none" stroke="black" d="M559.62,-19.75C508.16,-22.78 401.92,-37.36 401.92,-106.25 401.92,-250.12 401.92,-250.12 401.92,-250.12 401.92,-305.29 372.15,-312.6 354.92,-365 330.5,-439.27 311.92,-457.39 311.92,-535.58 311.92,-1310.68 311.92,-1310.68 311.92,-1310.68 311.92,-1418.94 406.62,-1694.22 488.92,-1764.55 515.43,-1787.21 554.9,-1795.43 584.15,-1798.29"/>
<polygon fill="black" stroke="black" points="583.84,-1801.78 594.08,-1799.08 584.39,-1794.8 583.84,-1801.78"/>
<text xml:space="preserve" text-anchor="middle" x="316.42" y="-908.6" font-family="Times,serif" font-size="14.00">3</text>
</g>
<!-- 11&#45;&gt;0 -->
<g id="edge14" class="edge">
<title>11&#45;&gt;0</title>
<path fill="none" stroke="black" d="M1125.21,-297.36C996.76,-309.93 448.62,-363.65 446.92,-365 383.97,-414.72 387.92,-455.36 387.92,-535.58 387.92,-1310.68 387.92,-1310.68 387.92,-1310.68 387.92,-1397.59 385.3,-1431.52 327.92,-1496.8 249.4,-1586.13 90.92,-1502.12 90.92,-1621.05 90.92,-2158.55 90.92,-2158.55 90.92,-2158.55 90.92,-2209.03 1765.23,-2244.02 2025.18,-2249.15"/>
<polygon fill="black" stroke="black" points="2024.9,-2252.65 2034.96,-2249.34 2025.03,-2245.65 2024.9,-2252.65"/>
<text xml:space="preserve" text-anchor="middle" x="392.42" y="-1305" font-family="Times,serif" font-size="14.00">1</text>
</g>
<!-- 11&#45;&gt;0 -->
<g id="edge100" class="edge">
<title>11&#45;&gt;0</title>
<path fill="none" stroke="black" d="M1124.64,-295.39C995.69,-298.67 451.22,-315.37 395.92,-365 337.48,-417.44 349.92,-457.06 349.92,-535.58 349.92,-1310.68 349.92,-1310.68 349.92,-1310.68 349.92,-1354.39 357.73,-1371.56 332.92,-1407.55 250.43,-1527.2 52.92,-1431.1 52.92,-1576.43 52.92,-2158.55 52.92,-2158.55 52.92,-2158.55 52.92,-2302.66 229.19,-2200.31 372.92,-2210.8 711.12,-2235.49 1817.64,-2247.43 2025.2,-2249.48"/>
<polygon fill="black" stroke="black" points="2024.97,-2252.98 2035.01,-2249.58 2025.04,-2245.98 2024.97,-2252.98"/>
<text xml:space="preserve" text-anchor="middle" x="354.48" y="-1305" font-family="Times,serif" font-size="14.00">0</text>
</g>
<!-- 11&#45;&gt;3 -->
<g id="edge114" class="edge">
<title>11&#45;&gt;3</title>
<path fill="none" stroke="black" d="M1178.88,-295.72C1233.87,-298.14 1362.64,-306.07 1467.92,-329.75 1490.85,-334.91 1494.89,-342.29 1517.92,-347 1627.93,-369.5 1659.42,-345.07 1769.92,-365 1884.34,-385.64 1921.47,-378.47 2020.92,-438.7 2039.54,-449.98 2044.5,-454.84 2054.92,-473.95 2131.6,-614.58 2041.58,-1035.38 2017.92,-1193.8 2015.56,-1209.6 2016.69,-1214.16 2010.92,-1229.05 1996.6,-1266.02 1971.55,-1304.47 1954.37,-1328.63"/>
<polygon fill="black" stroke="black" points="1951.68,-1326.38 1948.66,-1336.53 1957.35,-1330.48 1951.68,-1326.38"/>
<text xml:space="preserve" text-anchor="middle" x="2079.79" y="-819.35" font-family="Times,serif" font-size="14.00">3</text>
</g>
<!-- 11&#45;&gt;7 -->
<g id="edge25" class="edge">
<title>11&#45;&gt;7</title>
<path fill="none" stroke="black" d="M1177.13,-286.81C1219.95,-276.78 1309.66,-256.09 1385.92,-240.5 1448.25,-227.76 1521.35,-214.58 1562.79,-207.27"/>
<polygon fill="black" stroke="black" points="1563.37,-210.72 1572.61,-205.55 1562.15,-203.83 1563.37,-210.72"/>
<text xml:space="preserve" text-anchor="middle" x="1390.42" y="-244.45" font-family="Times,serif" font-size="14.00">2</text>
</g>
<!-- 11&#45;&gt;23 -->
<g id="edge123" class="edge">
<title>11&#45;&gt;23</title>
<path fill="none" stroke="black" d="M1161.03,-310.82C1164.11,-316.66 1167.41,-323.4 1169.92,-329.75 1191.36,-383.99 1163.87,-415.53 1205.92,-455.95 1230.32,-479.41 1251.09,-456.21 1279.92,-473.95 1360.99,-523.83 1363.25,-559.68 1418.92,-636.9 1505.43,-756.91 1483.34,-820.34 1590.92,-921.9 1604.85,-935.06 1623.39,-945.43 1639.6,-952.88"/>
<polygon fill="black" stroke="black" points="1637.89,-955.95 1648.45,-956.74 1640.69,-949.54 1637.89,-955.95"/>
<text xml:space="preserve" text-anchor="middle" x="1435.21" y="-640.85" font-family="Times,serif" font-size="14.00">4</text>
</g>
<!-- 12&#45;&gt;6 -->
<g id="edge52" class="edge">
<title>12&#45;&gt;6</title>
<path fill="none" stroke="black" d="M2061.74,-607.41C2112.23,-642.97 2232.19,-736.72 2273.92,-850.65 2334.24,-1015.37 2289.12,-1465.29 2273.92,-1640.05 2272.54,-1655.88 2275.12,-1661.14 2267.92,-1675.3 2232.98,-1744.01 2146.92,-1722.47 2146.92,-1799.55 2146.92,-1935.43 2146.92,-1935.43 2146.92,-1935.43 2146.92,-2042.79 2069.14,-2045.94 1992.92,-2121.55 1987.72,-2126.71 1981.8,-2131.9 1976.07,-2136.64"/>
<polygon fill="black" stroke="black" points="1974.11,-2133.72 1968.5,-2142.71 1978.49,-2139.18 1974.11,-2133.72"/>
<text xml:space="preserve" text-anchor="middle" x="2298.84" y="-1394.25" font-family="Times,serif" font-size="14.00">4</text>
</g>
<!-- 13 -->
<g id="node15" class="node">
<title>13</title>
<ellipse fill="none" stroke="black" cx="1868.92" cy="-491.95" rx="27" ry="18"/>
<text xml:space="preserve" text-anchor="middle" x="1868.92" y="-487.28" font-family="Times,serif" font-size="14.00">13</text>
</g>
<!-- 12&#45;&gt;13 -->
<g id="edge71" class="edge">
<title>12&#45;&gt;13</title>
<path fill="none" stroke="black" d="M2014.92,-576.34C1984.4,-558.91 1931.69,-528.81 1898.65,-509.93"/>
<polygon fill="black" stroke="black" points="1900.81,-507.14 1890.39,-505.22 1897.34,-513.21 1900.81,-507.14"/>
<text xml:space="preserve" text-anchor="middle" x="1963.51" y="-531.9" font-family="Times,serif" font-size="14.00">1</text>
</g>
<!-- 12&#45;&gt;14 -->
<g id="edge150" class="edge">
<title>12&#45;&gt;14</title>
<path fill="none" stroke="black" d="M2056.88,-612.4C2097.51,-659.25 2192.92,-774.47 2192.92,-823.03 2192.92,-1112.48 2192.92,-1112.48 2192.92,-1112.48 2192.92,-1250.25 2204.96,-1320.81 2097.92,-1407.55 2067.24,-1432.41 2021.82,-1440.14 1989.6,-1442.28"/>
<polygon fill="black" stroke="black" points="1989.7,-1438.78 1979.89,-1442.77 1990.05,-1445.77 1989.7,-1438.78"/>
<text xml:space="preserve" text-anchor="middle" x="2197.42" y="-1017.55" font-family="Times,serif" font-size="14.00">2</text>
</g>
<!-- 12&#45;&gt;15 -->
<g id="edge49" class="edge">
<title>12&#45;&gt;15</title>
<path fill="none" stroke="black" d="M2034.99,-563.05C2028.42,-528.4 2011.77,-469.13 1971.92,-438.7 1929.4,-406.24 1905.49,-430.59 1852.92,-420.7 1824.96,-415.44 1793.59,-408.31 1770.07,-402.72"/>
<polygon fill="black" stroke="black" points="1770.89,-399.32 1760.35,-400.39 1769.26,-406.12 1770.89,-399.32"/>
<text xml:space="preserve" text-anchor="middle" x="2024.41" y="-487.28" font-family="Times,serif" font-size="14.00">0</text>
</g>
<!-- 12&#45;&gt;15 -->
<g id="edge105" class="edge">
<title>12&#45;&gt;15</title>
<path fill="none" stroke="black" d="M2042.81,-563.12C2045.07,-538.53 2045.14,-501.85 2030.92,-473.95 2020.75,-454 2015.08,-448.45 1994.92,-438.7 1937.65,-411 1915.57,-431.71 1852.92,-420.7 1824.9,-415.78 1793.53,-408.63 1770.03,-402.95"/>
<polygon fill="black" stroke="black" points="1770.87,-399.55 1760.32,-400.57 1769.2,-406.35 1770.87,-399.55"/>
<text xml:space="preserve" text-anchor="middle" x="2046.19" y="-487.28" font-family="Times,serif" font-size="14.00">3</text>
</g>
<!-- 13&#45;&gt;2 -->
<g id="edge120" class="edge">
<title>13&#45;&gt;2</title>
<path fill="none" stroke="black" d="M1843.91,-499.58C1818.61,-506.37 1778.4,-517.41 1743.92,-527.95 1720.63,-535.07 1715.91,-541.03 1691.92,-545.2 1651.13,-552.3 984.02,-544.82 946.92,-563.2 909.32,-581.83 903.34,-597.88 887.92,-636.9 824.93,-796.23 857.92,-849.9 857.92,-1021.23 857.92,-1221.43 857.92,-1221.43 857.92,-1221.43 857.92,-1299.93 850.92,-1319.42 850.92,-1397.93 850.92,-1578.43 850.92,-1578.43 850.92,-1578.43 850.92,-1594.81 728.03,-1791.7 683.11,-1863.13"/>
<polygon fill="black" stroke="black" points="680.24,-1861.11 677.88,-1871.44 686.17,-1864.84 680.24,-1861.11"/>
<text xml:space="preserve" text-anchor="middle" x="862.42" y="-1215.75" font-family="Times,serif" font-size="14.00">0</text>
</g>
<!-- 13&#45;&gt;5 -->
<g id="edge19" class="edge">
<title>13&#45;&gt;5</title>
<path fill="none" stroke="black" d="M1893.54,-499.88C1989.46,-527.6 2332.92,-633.83 2332.92,-733.78 2332.92,-1221.43 2332.92,-1221.43 2332.92,-1221.43 2332.92,-1316.92 2291.53,-1562.42 2235.92,-1640.05 2188.4,-1706.38 2146.91,-1692 2086.92,-1747.3 1971.62,-1853.59 2021.23,-1966.43 1878.92,-2032.3 1832.8,-2053.65 1484.43,-2063.67 1367.24,-2066.46"/>
<polygon fill="black" stroke="black" points="1367.44,-2062.96 1357.52,-2066.69 1367.6,-2069.95 1367.44,-2062.96"/>
<text xml:space="preserve" text-anchor="middle" x="2331.8" y="-1305" font-family="Times,serif" font-size="14.00">2</text>
</g>
<!-- 13&#45;&gt;7 -->
<g id="edge57" class="edge">
<title>13&#45;&gt;7</title>
<path fill="none" stroke="black" d="M1861.52,-474.45C1840.99,-430.41 1779.13,-308.84 1692.92,-240.5 1673.92,-225.44 1648.35,-215.48 1628.23,-209.4"/>
<polygon fill="black" stroke="black" points="1629.43,-206.1 1618.86,-206.75 1627.53,-212.84 1629.43,-206.1"/>
<text xml:space="preserve" text-anchor="middle" x="1791.63" y="-333.7" font-family="Times,serif" font-size="14.00">1</text>
</g>
<!-- 13&#45;&gt;14 -->
<g id="edge15" class="edge">
<title>13&#45;&gt;14</title>
<path fill="none" stroke="black" d="M1877.58,-509.31C1880.3,-515.06 1883.08,-521.67 1884.92,-527.95 1923.3,-659.22 1887.07,-702.13 1927.92,-832.65 1943.86,-883.58 1969.58,-887.98 1981.92,-939.9 2026.34,-1126.93 2002.26,-1182.48 1971.92,-1372.3 1969.63,-1386.64 1965.21,-1402.15 1961.01,-1414.94"/>
<polygon fill="black" stroke="black" points="1957.71,-1413.78 1957.78,-1424.38 1964.33,-1416.05 1957.71,-1413.78"/>
<text xml:space="preserve" text-anchor="middle" x="1998.21" y="-963.08" font-family="Times,serif" font-size="14.00">4</text>
</g>
<!-- 13&#45;&gt;18 -->
<g id="edge92" class="edge">
<title>13&#45;&gt;18</title>
<path fill="none" stroke="black" d="M1846.4,-502.55C1821.43,-513.16 1779.9,-530.66 1743.92,-545.2 1620.5,-595.08 1593.57,-619.96 1464.92,-654.15 1396.46,-672.34 1314.15,-681.85 1267.05,-686.16"/>
<polygon fill="black" stroke="black" points="1267.02,-682.64 1257.37,-687.01 1267.64,-689.62 1267.02,-682.64"/>
<text xml:space="preserve" text-anchor="middle" x="1703.73" y="-586.38" font-family="Times,serif" font-size="14.00">3</text>
</g>
<!-- 14&#45;&gt;3 -->
<g id="edge46" class="edge">
<title>14&#45;&gt;3</title>
<path fill="none" stroke="black" d="M1947.95,-1425.31C1945.92,-1413.48 1943.17,-1397.51 1940.82,-1383.8"/>
<polygon fill="black" stroke="black" points="1944.28,-1383.26 1939.13,-1374 1937.38,-1384.44 1944.28,-1383.26"/>
<text xml:space="preserve" text-anchor="middle" x="1949.26" y="-1394.25" font-family="Times,serif" font-size="14.00">1</text>
</g>
<!-- 14&#45;&gt;4 -->
<g id="edge133" class="edge">
<title>14&#45;&gt;4</title>
<path fill="none" stroke="black" d="M1945.81,-1461.46C1942.1,-1472.15 1936.43,-1485.96 1928.92,-1496.8 1925.54,-1501.67 1921.4,-1506.4 1917.12,-1510.71"/>
<polygon fill="black" stroke="black" points="1914.89,-1508 1909.99,-1517.4 1919.68,-1513.11 1914.89,-1508"/>
<text xml:space="preserve" text-anchor="middle" x="1942.58" y="-1483.5" font-family="Times,serif" font-size="14.00">3</text>
</g>
<!-- 14&#45;&gt;14 -->
<g id="edge33" class="edge">
<title>14&#45;&gt;14</title>
<path fill="none" stroke="black" d="M1977.26,-1447.72C1987.45,-1447.9 1995.92,-1446.52 1995.92,-1443.55 1995.92,-1441.84 1993.09,-1440.65 1988.73,-1439.99"/>
<polygon fill="black" stroke="black" points="1988.95,-1436.5 1978.78,-1439.47 1988.58,-1443.49 1988.95,-1436.5"/>
<text xml:space="preserve" text-anchor="middle" x="2000.42" y="-1438.88" font-family="Times,serif" font-size="14.00">4</text>
</g>
<!-- 14&#45;&gt;14 -->
<g id="edge81" class="edge">
<title>14&#45;&gt;14</title>
<path fill="none" stroke="black" d="M1975.82,-1450.89C1994.74,-1453.54 2013.92,-1451.09 2013.92,-1443.55 2013.92,-1437.54 2001.74,-1434.77 1987.22,-1435.23"/>
<polygon fill="black" stroke="black" points="1986.99,-1431.74 1977.33,-1436.09 1987.59,-1438.72 1986.99,-1431.74"/>
<text xml:space="preserve" text-anchor="middle" x="2018.42" y="-1438.88" font-family="Times,serif" font-size="14.00">2</text>
</g>
<!-- 14&#45;&gt;28 -->
<g id="edge5" class="edge">
<title>14&#45;&gt;28</title>
<path fill="none" stroke="black" d="M1930.45,-1455.9C1926.65,-1457.87 1922.7,-1459.83 1918.92,-1461.55 1898.56,-1470.82 1892.31,-1470.36 1871.92,-1479.55 1778.67,-1521.58 1760.63,-1542.87 1667.92,-1586.05 1651.11,-1593.88 1632.05,-1601.81 1616.24,-1608.14"/>
<polygon fill="black" stroke="black" points="1615.3,-1604.75 1607.3,-1611.69 1617.88,-1611.26 1615.3,-1604.75"/>
<text xml:space="preserve" text-anchor="middle" x="1804.69" y="-1528.13" font-family="Times,serif" font-size="14.00">0</text>
</g>
<!-- 15&#45;&gt;10 -->
<g id="edge63" class="edge">
<title>15&#45;&gt;10</title>
<path fill="none" stroke="black" d="M1731.65,-374.7C1729.28,-355.32 1725.92,-322.83 1725.92,-294.75 1725.92,-294.75 1725.92,-294.75 1725.92,-106.25 1725.92,-49.8 824.64,-24.74 625.54,-19.89"/>
<polygon fill="black" stroke="black" points="625.82,-16.4 615.74,-19.66 625.65,-23.4 625.82,-16.4"/>
<text xml:space="preserve" text-anchor="middle" x="1730.42" y="-195.82" font-family="Times,serif" font-size="14.00">1</text>
</g>
<!-- 15&#45;&gt;11 -->
<g id="edge141" class="edge">
<title>15&#45;&gt;11</title>
<path fill="none" stroke="black" d="M1707.74,-387.64C1658.85,-379.77 1550.29,-362.23 1458.92,-347 1361.38,-330.75 1246.51,-311.05 1188.86,-301.12"/>
<polygon fill="black" stroke="black" points="1189.72,-297.72 1179.27,-299.47 1188.54,-304.62 1189.72,-297.72"/>
<text xml:space="preserve" text-anchor="middle" x="1463.42" y="-333.7" font-family="Times,serif" font-size="14.00">2</text>
</g>
<!-- 15&#45;&gt;14 -->
<g id="edge9" class="edge">
<title>15&#45;&gt;14</title>
<path fill="none" stroke="black" d="M1759.96,-398.32C1813.41,-409.14 1933.45,-442.48 1968.92,-527.95 2015.17,-639.44 1967.44,-682.03 2002.92,-797.4 2035.73,-904.11 2116.92,-909.59 2116.92,-1021.23 2116.92,-1166.95 2116.92,-1166.95 2116.92,-1166.95 2116.92,-1223.84 2086.12,-1289.85 2068.92,-1318.3 2043.86,-1359.75 2002.95,-1398.73 1976.48,-1421.62"/>
<polygon fill="black" stroke="black" points="1974.28,-1418.9 1968.93,-1428.04 1978.81,-1424.23 1974.28,-1418.9"/>
<text xml:space="preserve" text-anchor="middle" x="2088.25" y="-908.6" font-family="Times,serif" font-size="14.00">0</text>
</g>
<!-- 15&#45;&gt;23 -->
<g id="edge149" class="edge">
<title>15&#45;&gt;23</title>
<path fill="none" stroke="black" d="M1734.23,-411.2C1735.64,-493.27 1740.74,-840.44 1726.92,-886.65 1721.49,-904.79 1710.67,-922.77 1700.39,-937.09"/>
<polygon fill="black" stroke="black" points="1697.86,-934.62 1694.68,-944.73 1703.47,-938.82 1697.86,-934.62"/>
<text xml:space="preserve" text-anchor="middle" x="1740.75" y="-685.48" font-family="Times,serif" font-size="14.00">3</text>
</g>
<!-- 15&#45;&gt;29 -->
<g id="edge97" class="edge">
<title>15&#45;&gt;29</title>
<path fill="none" stroke="black" d="M1706.59,-394.07C1622.11,-395.15 1357.86,-401.47 1142.92,-438.7 1114.31,-443.66 1108.51,-450.95 1079.92,-455.95 979.79,-473.45 951.61,-454.09 851.92,-473.95 775.83,-489.11 737.64,-470.12 685.92,-527.95 650.65,-567.38 661.92,-591.63 661.92,-644.53 661.92,-1023.23 661.92,-1023.23 661.92,-1023.23 661.92,-1086.22 660.92,-1101.96 660.92,-1164.95 660.92,-1399.93 660.92,-1399.93 660.92,-1399.93 660.92,-1493.55 620.56,-1511.16 608.92,-1604.05 606.93,-1619.93 608.22,-1624.07 608.92,-1640.05 610.93,-1686.1 616.21,-1739.41 619.68,-1771.26"/>
<polygon fill="black" stroke="black" points="616.16,-1771.3 620.74,-1780.85 623.12,-1770.53 616.16,-1771.3"/>
<text xml:space="preserve" text-anchor="middle" x="665.79" y="-1106.8" font-family="Times,serif" font-size="14.00">4</text>
</g>
<!-- 16&#45;&gt;2 -->
<g id="edge56" class="edge">
<title>16&#45;&gt;2</title>
<path fill="none" stroke="black" d="M1269.48,-1083.56C1251.14,-1109.3 1214.9,-1162.54 1191.92,-1211.8 1164.67,-1270.21 1100.92,-1422.73 1100.92,-1487.18 1100.92,-1667.68 1100.92,-1667.68 1100.92,-1667.68 1100.92,-1711.73 1112.15,-1734.52 1079.92,-1764.55 1059.39,-1783.69 981.76,-1774.37 954.92,-1782.55 885.09,-1803.84 875.57,-1828.99 806.92,-1853.8 772.85,-1866.12 732.61,-1875.68 704.03,-1881.68"/>
<polygon fill="black" stroke="black" points="703.51,-1878.22 694.42,-1883.65 704.91,-1885.07 703.51,-1878.22"/>
<text xml:space="preserve" text-anchor="middle" x="1105.42" y="-1483.5" font-family="Times,serif" font-size="14.00">4</text>
</g>
<!-- 16&#45;&gt;5 -->
<g id="edge129" class="edge">
<title>16&#45;&gt;5</title>
<path fill="none" stroke="black" d="M1284.39,-1085.04C1289.39,-1109.36 1299.08,-1155.16 1308.92,-1193.8 1322.02,-1245.28 1341.92,-1255.56 1341.92,-1308.68 1341.92,-1578.43 1341.92,-1578.43 1341.92,-1578.43 1341.92,-1657.65 1366.92,-1675.7 1366.92,-1754.93 1366.92,-1980.05 1366.92,-1980.05 1366.92,-1980.05 1366.92,-2002.35 1356.35,-2025.4 1346.36,-2042.2"/>
<polygon fill="black" stroke="black" points="1343.5,-2040.18 1341.13,-2050.51 1349.42,-2043.91 1343.5,-2040.18"/>
<text xml:space="preserve" text-anchor="middle" x="1346.45" y="-1572.75" font-family="Times,serif" font-size="14.00">0</text>
</g>
<!-- 16&#45;&gt;18 -->
<g id="edge93" class="edge">
<title>16&#45;&gt;18</title>
<path fill="none" stroke="black" d="M1266.02,-1051.58C1231.95,-1017.63 1149.63,-927.78 1127.92,-832.65 1116.26,-781.55 1166.9,-734.66 1200.68,-709.79"/>
<polygon fill="black" stroke="black" points="1202.35,-712.9 1208.46,-704.25 1198.29,-707.19 1202.35,-712.9"/>
<text xml:space="preserve" text-anchor="middle" x="1150.22" y="-863.98" font-family="Times,serif" font-size="14.00">3</text>
</g>
<!-- 16&#45;&gt;23 -->
<g id="edge72" class="edge">
<title>16&#45;&gt;23</title>
<path fill="none" stroke="black" d="M1307.83,-1064.22C1353.41,-1060.96 1448.42,-1052.07 1525.92,-1030.85 1566.59,-1019.72 1610.96,-1000.38 1640.81,-986.24"/>
<polygon fill="black" stroke="black" points="1642.26,-989.43 1649.75,-981.94 1639.23,-983.12 1642.26,-989.43"/>
<text xml:space="preserve" text-anchor="middle" x="1581.13" y="-1017.55" font-family="Times,serif" font-size="14.00">2</text>
</g>
<!-- 16&#45;&gt;28 -->
<g id="edge27" class="edge">
<title>16&#45;&gt;28</title>
<path fill="none" stroke="black" d="M1297.56,-1081.46C1304.38,-1087.55 1312.04,-1095.1 1317.92,-1102.85 1361.71,-1160.56 1367.2,-1179.72 1393.92,-1247.05 1422.75,-1319.72 1434.97,-1528.54 1487.92,-1586.05 1502.75,-1602.16 1525.63,-1610.88 1545.23,-1615.58"/>
<polygon fill="black" stroke="black" points="1544.31,-1618.97 1554.82,-1617.61 1545.76,-1612.12 1544.31,-1618.97"/>
<text xml:space="preserve" text-anchor="middle" x="1426.94" y="-1349.63" font-family="Times,serif" font-size="14.00">1</text>
</g>
<!-- 17&#45;&gt;10 -->
<g id="edge130" class="edge">
<title>17&#45;&gt;10</title>
<path fill="none" stroke="black" d="M183.95,-91.01C194.6,-78.73 211.32,-62.21 229.92,-54 286.26,-29.14 468.62,-21.8 548.66,-19.75"/>
<polygon fill="black" stroke="black" points="548.27,-23.26 558.18,-19.52 548.1,-16.26 548.27,-23.26"/>
<text xml:space="preserve" text-anchor="middle" x="234.42" y="-57.95" font-family="Times,serif" font-size="14.00">0</text>
</g>
<!-- 21 -->
<g id="node23" class="node">
<title>21</title>
<ellipse fill="none" stroke="black" cx="483.92" cy="-392.85" rx="23.85" ry="23.85"/>
<ellipse fill="none" stroke="black" cx="483.92" cy="-392.85" rx="27.85" ry="27.85"/>
<text xml:space="preserve" text-anchor="middle" x="483.92" y="-388.18" font-family="Times,serif" font-size="14.00">21</text>
</g>
<!-- 17&#45;&gt;21 -->
<g id="edge39" class="edge">
<title>17&#45;&gt;21</title>
<path fill="none" stroke="black" d="M192.5,-119.36C196.28,-121.35 200.21,-123.39 203.92,-125.25 220.62,-133.64 226.71,-132.38 241.92,-143.25 333.25,-208.54 419.88,-310.55 460.23,-361.19"/>
<polygon fill="black" stroke="black" points="457.33,-363.17 466.28,-368.84 462.83,-358.83 457.33,-363.17"/>
<text xml:space="preserve" text-anchor="middle" x="373.9" y="-244.45" font-family="Times,serif" font-size="14.00">2</text>
</g>
<!-- 27 -->
<g id="node29" class="node">
<title>27</title>
<ellipse fill="none" stroke="black" cx="59.92" cy="-293.75" rx="27" ry="18"/>
<text xml:space="preserve" text-anchor="middle" x="59.92" y="-289.07" font-family="Times,serif" font-size="14.00">27</text>
</g>
<!-- 17&#45;&gt;27 -->
<g id="edge75" class="edge">
<title>17&#45;&gt;27</title>
<path fill="none" stroke="black" d="M144.7,-107.88C112.3,-108.82 58.15,-114.98 22.92,-143.25 -5.18,-165.79 -2.11,-187.38 5.92,-222.5 9.79,-239.46 12.65,-243.71 22.92,-257.75 26.42,-262.53 30.62,-267.21 34.92,-271.51"/>
<polygon fill="black" stroke="black" points="32.36,-273.91 42.04,-278.21 37.15,-268.81 32.36,-273.91"/>
<text xml:space="preserve" text-anchor="middle" x="10.42" y="-195.82" font-family="Times,serif" font-size="14.00">4</text>
</g>
<!-- 17&#45;&gt;27 -->
<g id="edge143" class="edge">
<title>17&#45;&gt;27</title>
<path fill="none" stroke="black" d="M147.35,-114.82C119.38,-123.84 75.41,-143.12 58.92,-178.5 46.3,-205.57 48.87,-240.32 53.13,-264.35"/>
<polygon fill="black" stroke="black" points="49.67,-264.92 55.07,-274.04 56.53,-263.54 49.67,-264.92"/>
<text xml:space="preserve" text-anchor="middle" x="63.42" y="-195.82" font-family="Times,serif" font-size="14.00">1</text>
</g>
<!-- 17&#45;&gt;29 -->
<g id="edge23" class="edge">
<title>17&#45;&gt;29</title>
<path fill="none" stroke="black" d="M188.7,-121.5C194.95,-127.43 201.38,-134.95 204.92,-143.25 299.73,-365.47 186.53,-998.87 259.92,-1229.05 335.67,-1466.63 535.63,-1702.73 601.52,-1776.23"/>
<polygon fill="black" stroke="black" points="598.91,-1778.56 608.21,-1783.64 604.1,-1773.87 598.91,-1778.56"/>
<text xml:space="preserve" text-anchor="middle" x="238.21" y="-963.08" font-family="Times,serif" font-size="14.00">3</text>
</g>
<!-- 18&#45;&gt;7 -->
<g id="edge126" class="edge">
<title>18&#45;&gt;7</title>
<path fill="none" stroke="black" d="M1243.42,-674.7C1271.56,-645.86 1333.91,-578.08 1368.92,-509.95 1407.07,-435.7 1381.97,-403.05 1421.92,-329.75 1446.99,-283.75 1456.3,-270.97 1498.92,-240.5 1518.42,-226.56 1543.62,-216.62 1563.44,-210.27"/>
<polygon fill="black" stroke="black" points="1564.41,-213.63 1572.96,-207.38 1562.38,-206.93 1564.41,-213.63"/>
<text xml:space="preserve" text-anchor="middle" x="1396.45" y="-442.65" font-family="Times,serif" font-size="14.00">3</text>
</g>
<!-- 18&#45;&gt;8 -->
<g id="edge55" class="edge">
<title>18&#45;&gt;8</title>
<path fill="none" stroke="black" d="M1201.93,-686.74C1169.38,-683.05 1113.59,-674.19 1069.92,-654.15 1058.3,-648.82 1057.39,-644.22 1046.92,-636.9 1033.61,-627.6 1018.52,-617.72 1005.86,-609.61"/>
<polygon fill="black" stroke="black" points="1007.89,-606.75 997.58,-604.34 1004.13,-612.66 1007.89,-606.75"/>
<text xml:space="preserve" text-anchor="middle" x="1074.42" y="-640.85" font-family="Times,serif" font-size="14.00">1</text>
</g>
<!-- 18&#45;&gt;12 -->
<g id="edge89" class="edge">
<title>18&#45;&gt;12</title>
<path fill="none" stroke="black" d="M1255.46,-686.55C1311.54,-680.99 1446.2,-667.42 1558.92,-654.15 1722.97,-634.84 1918.11,-608.57 1999.86,-597.41"/>
<polygon fill="black" stroke="black" points="2000.15,-600.91 2009.58,-596.08 1999.2,-593.97 2000.15,-600.91"/>
<text xml:space="preserve" text-anchor="middle" x="1695.37" y="-640.85" font-family="Times,serif" font-size="14.00">4</text>
</g>
<!-- 22 -->
<g id="node24" class="node">
<title>22</title>
<ellipse fill="none" stroke="black" cx="1199.92" cy="-779.4" rx="27" ry="18"/>
<text xml:space="preserve" text-anchor="middle" x="1199.92" y="-774.73" font-family="Times,serif" font-size="14.00">22</text>
</g>
<!-- 18&#45;&gt;22 -->
<g id="edge128" class="edge">
<title>18&#45;&gt;22</title>
<path fill="none" stroke="black" d="M1213.12,-704.92C1207.51,-710.83 1201.86,-718.19 1198.92,-726.15 1196.16,-733.61 1195.41,-742.09 1195.61,-750.01"/>
<polygon fill="black" stroke="black" points="1192.11,-750.21 1196.4,-759.9 1199.09,-749.65 1192.11,-750.21"/>
<text xml:space="preserve" text-anchor="middle" x="1203.42" y="-730.1" font-family="Times,serif" font-size="14.00">0</text>
</g>
<!-- 25 -->
<g id="node27" class="node">
<title>25</title>
<ellipse fill="none" stroke="black" cx="135.92" cy="-200.5" rx="27" ry="18"/>
<text xml:space="preserve" text-anchor="middle" x="135.92" y="-195.82" font-family="Times,serif" font-size="14.00">25</text>
</g>
<!-- 18&#45;&gt;25 -->
<g id="edge10" class="edge">
<title>18&#45;&gt;25</title>
<path fill="none" stroke="black" d="M1228.63,-671.96C1228.34,-652.56 1227.92,-620.04 1227.92,-592.05 1227.92,-592.05 1227.92,-592.05 1227.92,-446.33 1227.92,-368.46 1249.58,-323.3 1187.92,-275.75 1162.43,-256.1 641.01,-260.15 608.92,-257.75 446.02,-245.56 252.89,-218.69 173.17,-207.05"/>
<polygon fill="black" stroke="black" points="174.15,-203.66 163.75,-205.67 173.13,-210.59 174.15,-203.66"/>
<text xml:space="preserve" text-anchor="middle" x="1232.42" y="-442.65" font-family="Times,serif" font-size="14.00">2</text>
</g>
<!-- 19 -->
<g id="node21" class="node">
<title>19</title>
<ellipse fill="none" stroke="black" cx="1445.92" cy="-1165.95" rx="23.85" ry="23.85"/>
<ellipse fill="none" stroke="black" cx="1445.92" cy="-1165.95" rx="27.85" ry="27.85"/>
<text xml:space="preserve" text-anchor="middle" x="1445.92" y="-1161.28" font-family="Times,serif" font-size="14.00">19</text>
</g>
<!-- 19&#45;&gt;2 -->
<g id="edge125" class="edge">
<title>19&#45;&gt;2</title>
<path fill="none" stroke="black" d="M1426.72,-1186.35C1419.54,-1194.01 1411.53,-1203.05 1404.92,-1211.8 1365.69,-1263.71 1359.87,-1279.63 1327.92,-1336.3 1327.1,-1337.76 1110.22,-1763.51 1108.92,-1764.55 1083.84,-1784.62 1069.28,-1772.05 1038.92,-1782.55 1001.75,-1795.41 914.61,-1842.57 876.92,-1853.8 818.32,-1871.27 747.75,-1880.78 705.16,-1885.32"/>
<polygon fill="black" stroke="black" points="705.02,-1881.82 695.43,-1886.32 705.73,-1888.78 705.02,-1881.82"/>
<text xml:space="preserve" text-anchor="middle" x="1240.86" y="-1528.13" font-family="Times,serif" font-size="14.00">4</text>
</g>
<!-- 19&#45;&gt;8 -->
<g id="edge98" class="edge">
<title>19&#45;&gt;8</title>
<path fill="none" stroke="black" d="M1428.71,-1143.88C1356.41,-1055.38 1077.42,-713.85 998.7,-617.49"/>
<polygon fill="black" stroke="black" points="1001.51,-615.4 992.48,-609.87 996.09,-619.83 1001.51,-615.4"/>
<text xml:space="preserve" text-anchor="middle" x="1222.03" y="-863.98" font-family="Times,serif" font-size="14.00">2</text>
</g>
<!-- 19&#45;&gt;15 -->
<g id="edge112" class="edge">
<title>19&#45;&gt;15</title>
<path fill="none" stroke="black" d="M1449.29,-1138.05C1455.37,-1083.22 1465.56,-954.9 1442.92,-850.65 1441.06,-842.1 1436.73,-841.22 1434.92,-832.65 1433.33,-825.15 1433.03,-822.83 1434.92,-815.4 1466.33,-691.77 1479.72,-651.35 1571.92,-563.2 1585.14,-550.56 1594.55,-556.51 1608.92,-545.2 1655.52,-508.53 1696.52,-451.79 1718,-419.2"/>
<polygon fill="black" stroke="black" points="1720.7,-421.48 1723.2,-411.18 1714.83,-417.67 1720.7,-421.48"/>
<text xml:space="preserve" text-anchor="middle" x="1453.56" y="-774.73" font-family="Times,serif" font-size="14.00">1</text>
</g>
<!-- 19&#45;&gt;16 -->
<g id="edge95" class="edge">
<title>19&#45;&gt;16</title>
<path fill="none" stroke="black" d="M1422.73,-1149.98C1402.62,-1137.14 1372.62,-1118.31 1345.92,-1102.85 1334.91,-1096.48 1322.66,-1089.78 1311.79,-1083.98"/>
<polygon fill="black" stroke="black" points="1313.69,-1081.02 1303.22,-1079.43 1310.41,-1087.21 1313.69,-1081.02"/>
<text xml:space="preserve" text-anchor="middle" x="1378.2" y="-1106.8" font-family="Times,serif" font-size="14.00">0</text>
</g>
<!-- 19&#45;&gt;18 -->
<g id="edge53" class="edge">
<title>19&#45;&gt;18</title>
<path fill="none" stroke="black" d="M1437.91,-1139.02C1434.24,-1127.79 1429.67,-1114.56 1424.92,-1102.85 1414.92,-1078.19 1333.31,-910.7 1321.92,-886.65 1295.57,-831.04 1289.43,-816.93 1262.92,-761.4 1256.03,-746.98 1248.27,-730.93 1241.9,-717.82"/>
<polygon fill="black" stroke="black" points="1245.12,-716.42 1237.6,-708.95 1238.82,-719.48 1245.12,-716.42"/>
<text xml:space="preserve" text-anchor="middle" x="1343.03" y="-908.6" font-family="Times,serif" font-size="14.00">3</text>
</g>
<!-- 20&#45;&gt;1 -->
<g id="edge85" class="edge">
<title>20&#45;&gt;1</title>
<path fill="none" stroke="black" d="M1800.07,-1283C1784.39,-1351.25 1724.1,-1605.62 1680.92,-1675.3 1601.33,-1803.73 1567.88,-1839.9 1432.92,-1907.8 1315.32,-1966.97 1155.47,-1976.88 1083.19,-1978.16"/>
<polygon fill="black" stroke="black" points="1083.43,-1974.65 1073.47,-1978.28 1083.52,-1981.65 1083.43,-1974.65"/>
<text xml:space="preserve" text-anchor="middle" x="1716.41" y="-1617.38" font-family="Times,serif" font-size="14.00">4</text>
</g>
<!-- 20&#45;&gt;4 -->
<g id="edge117" class="edge">
<title>20&#45;&gt;4</title>
<path fill="none" stroke="black" d="M1809.51,-1282.94C1824.29,-1327.59 1864.53,-1449.1 1882.74,-1504.1"/>
<polygon fill="black" stroke="black" points="1879.34,-1504.94 1885.8,-1513.34 1885.98,-1502.74 1879.34,-1504.94"/>
<text xml:space="preserve" text-anchor="middle" x="1854.45" y="-1394.25" font-family="Times,serif" font-size="14.00">0</text>
</g>
<!-- 20&#45;&gt;13 -->
<g id="edge103" class="edge">
<title>20&#45;&gt;13</title>
<path fill="none" stroke="black" d="M1795.91,-1247.71C1785.06,-1223.26 1768.51,-1175.98 1781.92,-1138.1 1803.84,-1076.18 1874.92,-1088.92 1874.92,-1023.23 1874.92,-1023.23 1874.92,-1023.23 1874.92,-733.78 1874.92,-657.13 1871.84,-566.8 1870.1,-521.66"/>
<polygon fill="black" stroke="black" points="1873.59,-521.54 1869.7,-511.69 1866.6,-521.82 1873.59,-521.54"/>
<text xml:space="preserve" text-anchor="middle" x="1879.42" y="-863.98" font-family="Times,serif" font-size="14.00">2</text>
</g>
<!-- 20&#45;&gt;19 -->
<g id="edge26" class="edge">
<title>20&#45;&gt;19</title>
<path fill="none" stroke="black" d="M1779.99,-1256.08C1770.92,-1253.13 1760.47,-1249.84 1750.92,-1247.05 1655.52,-1219.25 1542.09,-1190.61 1484.14,-1176.29"/>
<polygon fill="black" stroke="black" points="1485,-1172.9 1474.45,-1173.9 1483.32,-1179.69 1485,-1172.9"/>
<text xml:space="preserve" text-anchor="middle" x="1688.92" y="-1215.75" font-family="Times,serif" font-size="14.00">3</text>
</g>
<!-- 20&#45;&gt;21 -->
<g id="edge18" class="edge">
<title>20&#45;&gt;21</title>
<path fill="none" stroke="black" d="M1811.4,-1247.43C1823.22,-1220.86 1846.52,-1167.02 1862.92,-1120.1 1929.27,-930.25 1932.45,-873.19 1926.92,-672.15 1925.7,-627.85 1937.52,-503.97 1904.92,-473.95 1852.68,-425.85 748.29,-399.54 523.6,-394.68"/>
<polygon fill="black" stroke="black" points="523.69,-391.18 513.62,-394.46 523.54,-398.18 523.69,-391.18"/>
<text xml:space="preserve" text-anchor="middle" x="1932.75" y="-819.35" font-family="Times,serif" font-size="14.00">1</text>
</g>
<!-- 21&#45;&gt;0 -->
<g id="edge99" class="edge">
<title>21&#45;&gt;0</title>
<path fill="none" stroke="black" d="M464.28,-412.7C447.46,-430.96 425.92,-460.32 425.92,-490.95 425.92,-1221.43 425.92,-1221.43 425.92,-1221.43 425.92,-1369.84 483.77,-1454.41 370.92,-1550.8 323.75,-1591.09 296.67,-1574.91 241.92,-1604.05 134.98,-1660.96 14.92,-1633.79 14.92,-1754.93 14.92,-2158.55 14.92,-2158.55 14.92,-2158.55 14.92,-2184.11 17.54,-2196.8 38.92,-2210.8 82.25,-2239.18 1765.95,-2248.39 2025.48,-2249.65"/>
<polygon fill="black" stroke="black" points="2025.22,-2253.15 2035.23,-2249.7 2025.25,-2246.15 2025.22,-2253.15"/>
<text xml:space="preserve" text-anchor="middle" x="443.32" y="-1349.63" font-family="Times,serif" font-size="14.00">4</text>
</g>
<!-- 21&#45;&gt;1 -->
<g id="edge102" class="edge">
<title>21&#45;&gt;1</title>
<path fill="none" stroke="black" d="M498.92,-416.34C515.51,-443.42 539.92,-490.86 539.92,-535.58 539.92,-1112.48 539.92,-1112.48 539.92,-1112.48 539.92,-1199.73 546.92,-1221.42 546.92,-1308.68 546.92,-1489.18 546.92,-1489.18 546.92,-1489.18 546.92,-1546.66 810.54,-1866.88 850.92,-1907.8 868.76,-1925.89 873.01,-1932.06 895.92,-1943.05 931.5,-1960.13 975.94,-1969.18 1007,-1973.76"/>
<polygon fill="black" stroke="black" points="1006.31,-1977.2 1016.69,-1975.1 1007.27,-1970.26 1006.31,-1977.2"/>
<text xml:space="preserve" text-anchor="middle" x="549.06" y="-1215.75" font-family="Times,serif" font-size="14.00">3</text>
</g>
<!-- 21&#45;&gt;5 -->
<g id="edge30" class="edge">
<title>21&#45;&gt;5</title>
<path fill="none" stroke="black" d="M475.55,-419.93C470.07,-439.31 463.92,-466.51 463.92,-490.95 463.92,-1112.48 463.92,-1112.48 463.92,-1112.48 463.92,-1307.43 542.67,-1380.98 446.92,-1550.8 383.65,-1663.01 204.92,-1581.49 204.92,-1710.3 204.92,-1935.43 204.92,-1935.43 204.92,-1935.43 204.92,-1979.89 195,-2004.77 229.92,-2032.3 276.48,-2069 1239.51,-2035.49 1296.92,-2050.3 1297.74,-2050.51 1298.56,-2050.75 1299.39,-2051.01"/>
<polygon fill="black" stroke="black" points="1297.91,-2054.19 1308.48,-2054.76 1300.57,-2047.71 1297.91,-2054.19"/>
<text xml:space="preserve" text-anchor="middle" x="486.63" y="-1260.38" font-family="Times,serif" font-size="14.00">0</text>
</g>
<!-- 21&#45;&gt;10 -->
<g id="edge124" class="edge">
<title>21&#45;&gt;10</title>
<path fill="none" stroke="black" d="M496.35,-367.39C504.97,-348.15 514.92,-320.41 514.92,-294.75 514.92,-294.75 514.92,-294.75 514.92,-106.25 514.92,-77.6 538.3,-53.27 558.42,-37.64"/>
<polygon fill="black" stroke="black" points="560.41,-40.51 566.4,-31.78 556.27,-34.87 560.41,-40.51"/>
<text xml:space="preserve" text-anchor="middle" x="519.42" y="-195.82" font-family="Times,serif" font-size="14.00">1</text>
</g>
<!-- 21&#45;&gt;27 -->
<g id="edge42" class="edge">
<title>21&#45;&gt;27</title>
<path fill="none" stroke="black" d="M456.75,-385.63C383.16,-368.78 179.91,-322.23 96.43,-303.11"/>
<polygon fill="black" stroke="black" points="97.25,-299.71 86.72,-300.89 95.68,-306.53 97.25,-299.71"/>
<text xml:space="preserve" text-anchor="middle" x="289.13" y="-333.7" font-family="Times,serif" font-size="14.00">2</text>
</g>
<!-- 22&#45;&gt;1 -->
<g id="edge65" class="edge">
<title>22&#45;&gt;1</title>
<path fill="none" stroke="black" d="M1202.44,-797.68C1204.38,-811.87 1206.89,-832.51 1207.92,-850.65 1208.82,-866.63 1209.83,-870.77 1207.92,-886.65 1200.98,-944.32 1186.3,-956.28 1176.92,-1013.6 1174.38,-1029.12 1174.58,-1033.14 1173.92,-1048.85 1173.24,-1064.84 1172.59,-1068.91 1173.92,-1084.85 1191.28,-1293.68 1254.23,-1341.42 1245.92,-1550.8 1242.14,-1646.03 1265.62,-1676.6 1228.92,-1764.55 1193.88,-1848.52 1112.67,-1923.14 1070.85,-1957.7"/>
<polygon fill="black" stroke="black" points="1068.79,-1954.86 1063.24,-1963.88 1073.21,-1960.29 1068.79,-1954.86"/>
<text xml:space="preserve" text-anchor="middle" x="1243.38" y="-1394.25" font-family="Times,serif" font-size="14.00">3</text>
</g>
<!-- 22&#45;&gt;2 -->
<g id="edge147" class="edge">
<title>22&#45;&gt;2</title>
<path fill="none" stroke="black" d="M1193.31,-797.28C1165.94,-868.78 1062.92,-1154.14 1062.92,-1397.93 1062.92,-1667.68 1062.92,-1667.68 1062.92,-1667.68 1062.92,-1711.01 1082.75,-1734.1 1051.92,-1764.55 1023.63,-1792.49 912.04,-1771.28 873.92,-1782.55 805.64,-1802.74 733.26,-1845.49 694.79,-1870.17"/>
<polygon fill="black" stroke="black" points="693.06,-1867.12 686.59,-1875.5 696.88,-1872.99 693.06,-1867.12"/>
<text xml:space="preserve" text-anchor="middle" x="1069.36" y="-1349.63" font-family="Times,serif" font-size="14.00">1</text>
</g>
<!-- 22&#45;&gt;18 -->
<g id="edge116" class="edge">
<title>22&#45;&gt;18</title>
<path fill="none" stroke="black" d="M1205.51,-761.58C1209.53,-749.47 1215.06,-732.85 1219.73,-718.8"/>
<polygon fill="black" stroke="black" points="1222.93,-720.25 1222.77,-709.66 1216.29,-718.04 1222.93,-720.25"/>
<text xml:space="preserve" text-anchor="middle" x="1221.51" y="-730.1" font-family="Times,serif" font-size="14.00">2</text>
</g>
<!-- 22&#45;&gt;22 -->
<g id="edge87" class="edge">
<title>22&#45;&gt;22</title>
<path fill="none" stroke="black" d="M1224.45,-787.64C1235.43,-788.42 1244.92,-785.68 1244.92,-779.4 1244.92,-775.48 1241.21,-772.94 1235.75,-771.77"/>
<polygon fill="black" stroke="black" points="1236.13,-768.29 1225.96,-771.25 1235.76,-775.28 1236.13,-768.29"/>
<text xml:space="preserve" text-anchor="middle" x="1249.42" y="-774.73" font-family="Times,serif" font-size="14.00">0</text>
</g>
<!-- 22&#45;&gt;28 -->
<g id="edge138" class="edge">
<title>22&#45;&gt;28</title>
<path fill="none" stroke="black" d="M1216.41,-793.84C1223.1,-799.91 1230.51,-807.48 1235.92,-815.4 1323.69,-943.93 1314.28,-993.53 1371.92,-1138.1 1391.08,-1186.16 1395.62,-1198.29 1412.92,-1247.05 1466.01,-1396.73 1427.18,-1461.66 1525.92,-1586.05 1532.42,-1594.25 1541.41,-1601.01 1550.32,-1606.33"/>
<polygon fill="black" stroke="black" points="1548.44,-1609.29 1558.89,-1611 1551.79,-1603.14 1548.44,-1609.29"/>
<text xml:space="preserve" text-anchor="middle" x="1410.92" y="-1215.75" font-family="Times,serif" font-size="14.00">4</text>
</g>
<!-- 23&#45;&gt;4 -->
<g id="edge145" class="edge">
<title>23&#45;&gt;4</title>
<path fill="none" stroke="black" d="M1680.75,-995.5C1691.19,-1050.6 1718.22,-1180.2 1758.92,-1283.05 1792.7,-1368.42 1848.33,-1462.15 1875.69,-1506.22"/>
<polygon fill="black" stroke="black" points="1872.63,-1507.93 1880.9,-1514.55 1878.56,-1504.22 1872.63,-1507.93"/>
<text xml:space="preserve" text-anchor="middle" x="1763.42" y="-1260.38" font-family="Times,serif" font-size="14.00">3</text>
</g>
<!-- 23&#45;&gt;15 -->
<g id="edge64" class="edge">
<title>23&#45;&gt;15</title>
<path fill="none" stroke="black" d="M1703.05,-960.23C1722.63,-953.96 1747.67,-942.32 1759.92,-921.9 1776.2,-894.74 1760.41,-882.31 1759.92,-850.65 1758.81,-779.74 1754.92,-762.07 1754.92,-691.15 1754.92,-691.15 1754.92,-691.15 1754.92,-490.95 1754.92,-467.24 1748.86,-441 1743.25,-421.77"/>
<polygon fill="black" stroke="black" points="1746.61,-420.78 1740.32,-412.25 1739.92,-422.83 1746.61,-420.78"/>
<text xml:space="preserve" text-anchor="middle" x="1759.5" y="-685.48" font-family="Times,serif" font-size="14.00">0</text>
</g>
<!-- 23&#45;&gt;22 -->
<g id="edge106" class="edge">
<title>23&#45;&gt;22</title>
<path fill="none" stroke="black" d="M1648.97,-959.07C1620.21,-950.68 1573.45,-936.48 1533.92,-921.9 1421,-880.26 1290.54,-821.93 1231.66,-795.04"/>
<polygon fill="black" stroke="black" points="1233.44,-792.01 1222.89,-791.03 1230.53,-798.37 1233.44,-792.01"/>
<text xml:space="preserve" text-anchor="middle" x="1445.6" y="-863.98" font-family="Times,serif" font-size="14.00">2</text>
</g>
<!-- 23&#45;&gt;24 -->
<g id="edge29" class="edge">
<title>23&#45;&gt;24</title>
<path fill="none" stroke="black" d="M1672.57,-939.7C1670.98,-926.81 1669.08,-911.39 1667.46,-898.3"/>
<polygon fill="black" stroke="black" points="1670.96,-898.07 1666.26,-888.58 1664.01,-898.93 1670.96,-898.07"/>
<text xml:space="preserve" text-anchor="middle" x="1674.78" y="-908.6" font-family="Times,serif" font-size="14.00">1</text>
</g>
<!-- 23&#45;&gt;29 -->
<g id="edge83" class="edge">
<title>23&#45;&gt;29</title>
<path fill="none" stroke="black" d="M1647.64,-968.47C1576.01,-968.88 1383.24,-977.09 1244.92,-1048.85 1058.63,-1145.5 926.92,-1188.06 926.92,-1397.93 926.92,-1667.68 926.92,-1667.68 926.92,-1667.68 926.92,-1782.14 743.29,-1798.34 661.46,-1799.88"/>
<polygon fill="black" stroke="black" points="661.64,-1796.37 651.68,-1799.99 661.72,-1803.37 661.64,-1796.37"/>
<text xml:space="preserve" text-anchor="middle" x="931.42" y="-1394.25" font-family="Times,serif" font-size="14.00">4</text>
</g>
<!-- 24&#45;&gt;3 -->
<g id="edge67" class="edge">
<title>24&#45;&gt;3</title>
<path fill="none" stroke="black" d="M1678.37,-883.79C1707.17,-912.6 1772.43,-981.13 1812.92,-1048.85 1869.74,-1143.9 1911.15,-1269.99 1927.82,-1325.29"/>
<polygon fill="black" stroke="black" points="1924.45,-1326.25 1930.65,-1334.83 1931.16,-1324.25 1924.45,-1326.25"/>
<text xml:space="preserve" text-anchor="middle" x="1854.39" y="-1106.8" font-family="Times,serif" font-size="14.00">3</text>
</g>
<!-- 24&#45;&gt;5 -->
<g id="edge37" class="edge">
<title>24&#45;&gt;5</title>
<path fill="none" stroke="black" d="M1636.91,-871.2C1558.71,-877.35 1332.13,-907.21 1244.92,-1048.85 1162.07,-1183.4 1328.92,-1596.92 1328.92,-1754.93 1328.92,-1980.05 1328.92,-1980.05 1328.92,-1980.05 1328.92,-1999.56 1328.92,-2021.51 1328.92,-2038.52"/>
<polygon fill="black" stroke="black" points="1325.42,-2038.41 1328.92,-2048.41 1332.42,-2038.41 1325.42,-2038.41"/>
<text xml:space="preserve" text-anchor="middle" x="1284.61" y="-1483.5" font-family="Times,serif" font-size="14.00">2</text>
</g>
<!-- 24&#45;&gt;13 -->
<g id="edge35" class="edge">
<title>24&#45;&gt;13</title>
<path fill="none" stroke="black" d="M1680.21,-854.07C1709.74,-828.56 1772.19,-770.42 1805.92,-708.15 1845.45,-635.17 1828.57,-606.66 1854.92,-527.95 1855.78,-525.38 1856.72,-522.73 1857.71,-520.09"/>
<polygon fill="black" stroke="black" points="1860.9,-521.54 1861.28,-510.95 1854.38,-518.99 1860.9,-521.54"/>
<text xml:space="preserve" text-anchor="middle" x="1826.62" y="-685.48" font-family="Times,serif" font-size="14.00">0</text>
</g>
<!-- 24&#45;&gt;22 -->
<g id="edge2" class="edge">
<title>24&#45;&gt;22</title>
<path fill="none" stroke="black" d="M1637.73,-863.33C1599.18,-856.92 1524.9,-844.39 1461.92,-832.65 1381.33,-817.64 1287.14,-798.45 1236.54,-788.01"/>
<polygon fill="black" stroke="black" points="1237.52,-784.64 1227.02,-786.04 1236.1,-791.49 1237.52,-784.64"/>
<text xml:space="preserve" text-anchor="middle" x="1466.42" y="-819.35" font-family="Times,serif" font-size="14.00">1</text>
</g>
<!-- 24&#45;&gt;24 -->
<g id="edge136" class="edge">
<title>24&#45;&gt;24</title>
<path fill="none" stroke="black" d="M1688.45,-876.89C1699.43,-877.67 1708.92,-874.93 1708.92,-868.65 1708.92,-864.73 1705.21,-862.19 1699.75,-861.02"/>
<polygon fill="black" stroke="black" points="1700.13,-857.54 1689.96,-860.5 1699.76,-864.53 1700.13,-857.54"/>
<text xml:space="preserve" text-anchor="middle" x="1713.42" y="-863.98" font-family="Times,serif" font-size="14.00">4</text>
</g>
<!-- 25&#45;&gt;2 -->
<g id="edge38" class="edge">
<title>25&#45;&gt;2</title>
<path fill="none" stroke="black" d="M141.02,-218.48C146.03,-236.67 152.92,-266.48 152.92,-292.75 152.92,-914.28 152.92,-914.28 152.92,-914.28 152.92,-1025.73 159.92,-1053.5 159.92,-1164.95 159.92,-1399.93 159.92,-1399.93 159.92,-1399.93 159.92,-1489.11 182.08,-1514.2 234.92,-1586.05 242.4,-1596.23 249.33,-1593.95 256.92,-1604.05 282.8,-1638.53 280.27,-1652.75 294.92,-1693.3 320.21,-1763.33 285.68,-1806.19 342.92,-1853.8 364.48,-1871.74 547.02,-1882.89 628.23,-1887"/>
<polygon fill="black" stroke="black" points="628,-1890.5 638.16,-1887.49 628.34,-1883.5 628,-1890.5"/>
<text xml:space="preserve" text-anchor="middle" x="162.98" y="-1062.18" font-family="Times,serif" font-size="14.00">2</text>
</g>
<!-- 25&#45;&gt;2 -->
<g id="edge137" class="edge">
<title>25&#45;&gt;2</title>
<path fill="none" stroke="black" d="M131.57,-218.53C125.42,-244.14 114.92,-294.17 114.92,-337.38 114.92,-914.28 114.92,-914.28 114.92,-914.28 114.92,-1174.17 96.84,-1246.26 165.92,-1496.8 172.57,-1520.93 171.08,-1528.24 181.92,-1550.8 194.39,-1576.78 204.59,-1579.05 218.92,-1604.05 232.07,-1627 233.78,-1633.63 243.92,-1658.05 273.05,-1728.25 271.71,-1749.26 302.92,-1818.55 310.23,-1834.78 307.12,-1843.92 321.92,-1853.8 371.21,-1886.72 548.76,-1889.7 628.12,-1889.33"/>
<polygon fill="black" stroke="black" points="628.04,-1892.83 638.02,-1889.26 627.99,-1885.83 628.04,-1892.83"/>
<text xml:space="preserve" text-anchor="middle" x="118.11" y="-1062.18" font-family="Times,serif" font-size="14.00">0</text>
</g>
<!-- 25&#45;&gt;3 -->
<g id="edge32" class="edge">
<title>25&#45;&gt;3</title>
<path fill="none" stroke="black" d="M162.77,-203.44C222.22,-207.65 369.46,-217.64 492.92,-222.5 694.13,-230.41 1199.75,-210.75 1398.92,-240.5 1570.27,-266.1 1604.57,-310.41 1773.92,-347 1826.63,-358.39 1842.4,-349.05 1893.92,-365 1965.64,-387.2 1986.54,-392.75 2045.92,-438.7 2118.03,-494.5 2097.68,-545.73 2098.92,-636.9 2102.3,-885.97 2085.99,-949.8 2035.92,-1193.8 2023.76,-1253.06 2023.53,-1275.37 1980.92,-1318.3 1975.48,-1323.78 1969.19,-1329.16 1963.06,-1334.01"/>
<polygon fill="black" stroke="black" points="1961.36,-1330.9 1955.52,-1339.74 1965.6,-1336.47 1961.36,-1330.9"/>
<text xml:space="preserve" text-anchor="middle" x="2103.09" y="-774.73" font-family="Times,serif" font-size="14.00">3</text>
</g>
<!-- 25&#45;&gt;10 -->
<g id="edge151" class="edge">
<title>25&#45;&gt;10</title>
<path fill="none" stroke="black" d="M150.3,-184.74C164.85,-169.78 188,-145.95 207.92,-125.25 238.27,-93.7 236.7,-73.45 275.92,-54 322.95,-30.67 476.19,-22.62 548.49,-20.07"/>
<polygon fill="black" stroke="black" points="548.39,-23.58 558.27,-19.75 548.16,-16.58 548.39,-23.58"/>
<text xml:space="preserve" text-anchor="middle" x="239.81" y="-102.58" font-family="Times,serif" font-size="14.00">1</text>
</g>
<!-- 25&#45;&gt;17 -->
<g id="edge69" class="edge">
<title>25&#45;&gt;17</title>
<path fill="none" stroke="black" d="M142.52,-182.76C147.71,-169.6 155.06,-150.98 161.11,-135.65"/>
<polygon fill="black" stroke="black" points="164.26,-137.18 164.68,-126.6 157.75,-134.62 164.26,-137.18"/>
<text xml:space="preserve" text-anchor="middle" x="161.64" y="-147.2" font-family="Times,serif" font-size="14.00">4</text>
</g>
<!-- 26&#45;&gt;5 -->
<g id="edge140" class="edge">
<title>26&#45;&gt;5</title>
<path fill="none" stroke="black" d="M861.13,-495.53C833.15,-499.22 788.83,-507.93 755.92,-527.95 748.4,-532.52 699.92,-586.45 699.92,-590.05 699.92,-1023.23 699.92,-1023.23 699.92,-1023.23 699.92,-1086.22 698.92,-1101.96 698.92,-1164.95 698.92,-1489.18 698.92,-1489.18 698.92,-1489.18 698.92,-1762.69 337.52,-1605.64 190.92,-1836.55 139.28,-1917.89 147.72,-1992.78 204.92,-2032.3 254.84,-2066.79 1238.17,-2035.15 1296.92,-2050.3 1297.74,-2050.51 1298.56,-2050.75 1299.39,-2051.01"/>
<polygon fill="black" stroke="black" points="1297.91,-2054.18 1308.49,-2054.76 1300.57,-2047.71 1297.91,-2054.18"/>
<text xml:space="preserve" text-anchor="middle" x="703.42" y="-1305" font-family="Times,serif" font-size="14.00">1</text>
</g>
<!-- 26&#45;&gt;9 -->
<g id="edge61" class="edge">
<title>26&#45;&gt;9</title>
<path fill="none" stroke="black" d="M913.23,-498.26C979.88,-513.48 1162.17,-563.35 1264.92,-672.15 1336.51,-747.96 1315.89,-792.14 1359.92,-886.65 1412.45,-999.43 1454.86,-1016.9 1482.92,-1138.1 1518.37,-1291.25 1425.92,-1329.98 1425.92,-1487.18 1425.92,-1623.05 1425.92,-1623.05 1425.92,-1623.05 1425.92,-1642.56 1425.92,-1664.51 1425.92,-1681.52"/>
<polygon fill="black" stroke="black" points="1422.42,-1681.41 1425.92,-1691.41 1429.42,-1681.41 1422.42,-1681.41"/>
<text xml:space="preserve" text-anchor="middle" x="1482.79" y="-1106.8" font-family="Times,serif" font-size="14.00">4</text>
</g>
<!-- 26&#45;&gt;15 -->
<g id="edge77" class="edge">
<title>26&#45;&gt;15</title>
<path fill="none" stroke="black" d="M915.24,-490.36C993.53,-488.4 1225.29,-480.78 1415.92,-455.95 1518.94,-442.53 1638.82,-416.15 1697.62,-402.5"/>
<polygon fill="black" stroke="black" points="1698.13,-405.97 1707.07,-400.29 1696.53,-399.16 1698.13,-405.97"/>
<text xml:space="preserve" text-anchor="middle" x="1525.96" y="-442.65" font-family="Times,serif" font-size="14.00">3</text>
</g>
<!-- 26&#45;&gt;21 -->
<g id="edge13" class="edge">
<title>26&#45;&gt;21</title>
<path fill="none" stroke="black" d="M860.87,-489.47C795.69,-485.63 631.47,-474.4 579.92,-455.95 555.89,-447.35 531.78,-431.72 513.73,-418.3"/>
<polygon fill="black" stroke="black" points="516.15,-415.74 506.08,-412.44 511.89,-421.3 516.15,-415.74"/>
<text xml:space="preserve" text-anchor="middle" x="584.42" y="-442.65" font-family="Times,serif" font-size="14.00">0</text>
</g>
<!-- 26&#45;&gt;22 -->
<g id="edge16" class="edge">
<title>26&#45;&gt;22</title>
<path fill="none" stroke="black" d="M909.65,-503.15C934.84,-515.5 976.96,-537.82 1008.92,-563.2 1044.29,-591.3 1052.2,-600.47 1078.92,-636.9 1110.92,-680.54 1099.81,-704.99 1137.92,-743.4 1146.19,-751.74 1156.86,-758.71 1167.01,-764.18"/>
<polygon fill="black" stroke="black" points="1165.41,-767.29 1175.92,-768.65 1168.55,-761.03 1165.41,-767.29"/>
<text xml:space="preserve" text-anchor="middle" x="1094.48" y="-640.85" font-family="Times,serif" font-size="14.00">2</text>
</g>
<!-- 27&#45;&gt;5 -->
<g id="edge50" class="edge">
<title>27&#45;&gt;5</title>
<path fill="none" stroke="black" d="M62.76,-311.88C65.71,-331.24 69.92,-363.72 69.92,-391.85 69.92,-1023.23 69.92,-1023.23 69.92,-1023.23 69.92,-1261.56 95.21,-1323.2 165.92,-1550.8 194.68,-1643.4 242.92,-1657.97 242.92,-1754.93 242.92,-1980.05 242.92,-1980.05 242.92,-1980.05 242.92,-2097.42 1184.03,-2018.15 1296.92,-2050.3 1297.58,-2050.49 1298.24,-2050.69 1298.91,-2050.91"/>
<polygon fill="black" stroke="black" points="1297.52,-2054.13 1308.1,-2054.75 1300.22,-2047.67 1297.52,-2054.13"/>
<text xml:space="preserve" text-anchor="middle" x="85.23" y="-1215.75" font-family="Times,serif" font-size="14.00">0</text>
</g>
<!-- 27&#45;&gt;6 -->
<g id="edge94" class="edge">
<title>27&#45;&gt;6</title>
<path fill="none" stroke="black" d="M52.12,-311.17C43.83,-330.16 31.92,-362.55 31.92,-391.85 31.92,-1023.23 31.92,-1023.23 31.92,-1023.23 31.92,-1312 128.92,-1376.91 128.92,-1665.68 128.92,-2069.3 128.92,-2069.3 128.92,-2069.3 128.92,-2161.84 1649.15,-2158.12 1911.56,-2156.78"/>
<polygon fill="black" stroke="black" points="1911.27,-2160.28 1921.25,-2156.73 1911.23,-2153.28 1911.27,-2160.28"/>
<text xml:space="preserve" text-anchor="middle" x="68.17" y="-1260.38" font-family="Times,serif" font-size="14.00">3</text>
</g>
<!-- 27&#45;&gt;17 -->
<g id="edge90" class="edge">
<title>27&#45;&gt;17</title>
<path fill="none" stroke="black" d="M61.43,-275.63C64.16,-252.13 71.57,-209.31 90.92,-178.5 104.2,-157.35 125.8,-139.08 143.36,-126.47"/>
<polygon fill="black" stroke="black" points="145.14,-129.49 151.38,-120.93 141.16,-123.74 145.14,-129.49"/>
<text xml:space="preserve" text-anchor="middle" x="95.42" y="-195.82" font-family="Times,serif" font-size="14.00">1</text>
</g>
<!-- 27&#45;&gt;22 -->
<g id="edge84" class="edge">
<title>27&#45;&gt;22</title>
<path fill="none" stroke="black" d="M87.13,-295.84C197.15,-301.18 617.71,-330.43 923.92,-473.95 986.38,-503.23 1002.09,-514.46 1050.92,-563.2 1079.29,-591.52 1080.03,-603.99 1102.92,-636.9 1131.21,-677.58 1163.7,-725.16 1182.98,-753.48"/>
<polygon fill="black" stroke="black" points="1179.85,-755.1 1188.37,-761.4 1185.64,-751.16 1179.85,-755.1"/>
<text xml:space="preserve" text-anchor="middle" x="1036.87" y="-531.9" font-family="Times,serif" font-size="14.00">2</text>
</g>
<!-- 27&#45;&gt;25 -->
<g id="edge122" class="edge">
<title>27&#45;&gt;25</title>
<path fill="none" stroke="black" d="M71.5,-277.45C79.57,-266.92 90.69,-252.69 100.92,-240.5 105.34,-235.23 110.2,-229.68 114.86,-224.46"/>
<polygon fill="black" stroke="black" points="117.27,-227.01 121.37,-217.24 112.08,-222.32 117.27,-227.01"/>
<text xml:space="preserve" text-anchor="middle" x="105.42" y="-244.45" font-family="Times,serif" font-size="14.00">4</text>
</g>
<!-- 28&#45;&gt;4 -->
<g id="edge28" class="edge">
<title>28&#45;&gt;4</title>
<path fill="none" stroke="black" d="M1609.31,-1617.27C1655.55,-1610.51 1749.31,-1596.09 1780.92,-1586.05 1809.35,-1577.02 1839.9,-1562.23 1861.74,-1550.69"/>
<polygon fill="black" stroke="black" points="1863.23,-1553.86 1870.38,-1546.04 1859.92,-1547.69 1863.23,-1553.86"/>
<text xml:space="preserve" text-anchor="middle" x="1829.28" y="-1572.75" font-family="Times,serif" font-size="14.00">1</text>
</g>
<!-- 28&#45;&gt;5 -->
<g id="edge148" class="edge">
<title>28&#45;&gt;5</title>
<path fill="none" stroke="black" d="M1607.38,-1630.5C1639.52,-1641.97 1691.92,-1667.28 1691.92,-1710.3 1691.92,-1980.05 1691.92,-1980.05 1691.92,-1980.05 1691.92,-2046.18 1461.28,-2062.32 1367.69,-2066.15"/>
<polygon fill="black" stroke="black" points="1367.57,-2062.65 1357.71,-2066.53 1367.84,-2069.65 1367.57,-2062.65"/>
<text xml:space="preserve" text-anchor="middle" x="1696.42" y="-1840.5" font-family="Times,serif" font-size="14.00">3</text>
</g>
<!-- 28&#45;&gt;10 -->
<g id="edge80" class="edge">
<title>28&#45;&gt;10</title>
<path fill="none" stroke="black" d="M1581.34,-1603.69C1579.87,-1586.09 1577.92,-1558.08 1577.92,-1533.8 1577.92,-1533.8 1577.92,-1533.8 1577.92,-1219.43 1577.92,-890.71 1434.4,-832.08 1368.92,-509.95 1349.8,-415.93 1351.92,-390.69 1351.92,-294.75 1351.92,-294.75 1351.92,-294.75 1351.92,-106.25 1351.92,-32.32 780.58,-21.01 625.41,-19.3"/>
<polygon fill="black" stroke="black" points="625.69,-15.8 615.66,-19.2 625.62,-22.8 625.69,-15.8"/>
<text xml:space="preserve" text-anchor="middle" x="1488.69" y="-819.35" font-family="Times,serif" font-size="14.00">4</text>
</g>
<!-- 28&#45;&gt;21 -->
<g id="edge96" class="edge">
<title>28&#45;&gt;21</title>
<path fill="none" stroke="black" d="M1570.02,-1605.77C1557.35,-1589.17 1539.92,-1561.33 1539.92,-1533.8 1539.92,-1533.8 1539.92,-1533.8 1539.92,-1219.43 1539.92,-1084.05 1481.28,-1060.06 1418.92,-939.9 1406.3,-915.59 1397.96,-912.13 1387.92,-886.65 1377.62,-860.52 1373.92,-853.11 1373.92,-825.03 1373.92,-825.03 1373.92,-825.03 1373.92,-689.15 1373.92,-507.03 694.06,-417.68 522.74,-398.06"/>
<polygon fill="black" stroke="black" points="523.36,-394.61 513.03,-396.96 522.58,-401.56 523.36,-394.61"/>
<text xml:space="preserve" text-anchor="middle" x="1478.99" y="-1017.55" font-family="Times,serif" font-size="14.00">2</text>
</g>
<!-- 28&#45;&gt;28 -->
<g id="edge144" class="edge">
<title>28&#45;&gt;28</title>
<path fill="none" stroke="black" d="M1607.45,-1630.29C1618.43,-1631.07 1627.92,-1628.33 1627.92,-1622.05 1627.92,-1618.13 1624.21,-1615.59 1618.75,-1614.42"/>
<polygon fill="black" stroke="black" points="1619.13,-1610.94 1608.96,-1613.9 1618.76,-1617.93 1619.13,-1610.94"/>
<text xml:space="preserve" text-anchor="middle" x="1632.42" y="-1617.38" font-family="Times,serif" font-size="14.00">0</text>
</g>
<!-- 29&#45;&gt;9 -->
<g id="edge6" class="edge">
<title>29&#45;&gt;9</title>
<path fill="none" stroke="black" d="M649.63,-1796.65C768.36,-1783.75 1248.41,-1731.59 1387.8,-1716.44"/>
<polygon fill="black" stroke="black" points="1388.03,-1719.94 1397.6,-1715.38 1387.28,-1712.98 1388.03,-1719.94"/>
<text xml:space="preserve" text-anchor="middle" x="1100.84" y="-1751.25" font-family="Times,serif" font-size="14.00">3</text>
</g>
<!-- 29&#45;&gt;10 -->
<g id="edge111" class="edge">
<title>29&#45;&gt;10</title>
<path fill="none" stroke="black" d="M595.85,-1797.67C563.88,-1794.51 509.9,-1786.18 468.92,-1764.55 448.54,-1753.8 444.68,-1747.77 430.92,-1729.3 289.73,-1539.87 273.92,-1457.69 273.92,-1221.43 273.92,-1221.43 273.92,-1221.43 273.92,-535.58 273.92,-408.51 289.92,-377.19 289.92,-250.12 289.92,-250.12 289.92,-250.12 289.92,-106.25 289.92,-52.85 468.89,-29.78 548.97,-22.13"/>
<polygon fill="black" stroke="black" points="548.89,-25.65 558.53,-21.25 548.25,-18.68 548.89,-25.65"/>
<text xml:space="preserve" text-anchor="middle" x="278.42" y="-908.6" font-family="Times,serif" font-size="14.00">2</text>
</g>
<!-- 29&#45;&gt;13 -->
<g id="edge54" class="edge">
<title>29&#45;&gt;13</title>
<path fill="none" stroke="black" d="M625.2,-1782.17C628.74,-1760.08 637.09,-1721.46 654.92,-1693.3 694.42,-1630.92 774.92,-1652.26 774.92,-1578.43 774.92,-1578.43 774.92,-1578.43 774.92,-1397.93 774.92,-1231.36 781.92,-1189.79 781.92,-1023.23 781.92,-1023.23 781.92,-1023.23 781.92,-733.78 781.92,-644.28 809.69,-604.82 888.92,-563.2 910.16,-552.04 1651.6,-506.2 1830.41,-495.29"/>
<polygon fill="black" stroke="black" points="1830.55,-498.79 1840.32,-494.69 1830.12,-491.8 1830.55,-498.79"/>
<text xml:space="preserve" text-anchor="middle" x="785.06" y="-1161.28" font-family="Times,serif" font-size="14.00">1</text>
</g>
<!-- 29&#45;&gt;21 -->
<g id="edge74" class="edge">
<title>29&#45;&gt;21</title>
<path fill="none" stroke="black" d="M596.26,-1796.07C562.47,-1791.05 507.15,-1780.58 494.92,-1764.55 490.27,-1758.46 494.6,-1754.96 494.92,-1747.3 498.03,-1672.05 508.92,-1653.74 508.92,-1578.43 508.92,-1578.43 508.92,-1578.43 508.92,-1308.68 508.92,-1221.42 501.92,-1199.73 501.92,-1112.48 501.92,-1112.48 501.92,-1112.48 501.92,-535.58 501.92,-500.15 496.31,-460.14 491.36,-431.69"/>
<polygon fill="black" stroke="black" points="494.85,-431.34 489.64,-422.12 487.97,-432.58 494.85,-431.34"/>
<text xml:space="preserve" text-anchor="middle" x="506.43" y="-1106.8" font-family="Times,serif" font-size="14.00">0</text>
</g>
<!-- 29&#45;&gt;22 -->
<g id="edge24" class="edge">
<title>29&#45;&gt;22</title>
<path fill="none" stroke="black" d="M649.89,-1798.55C717.51,-1794.45 888.92,-1773.6 888.92,-1667.68 888.92,-1667.68 888.92,-1667.68 888.92,-1397.93 888.92,-1172.4 871.17,-1083.98 1007.92,-904.65 1049.78,-849.76 1123.34,-812.12 1166.23,-793.61"/>
<polygon fill="black" stroke="black" points="1167.44,-796.9 1175.3,-789.8 1164.73,-790.45 1167.44,-796.9"/>
<text xml:space="preserve" text-anchor="middle" x="892.9" y="-1305" font-family="Times,serif" font-size="14.00">4</text>
</g>
</g>
</svg>
