<?xml version="1.0" encoding="UTF-8" standalone="no"?>
<!DOCTYPE svg PUBLIC "-//W3C//DTD SVG 1.1//EN"
 "http://www.w3.org/Graphics/SVG/1.1/DTD/svg11.dtd">
<!-- Generated by graphviz version 13.0.1 (20250616.1512)
 -->
<!-- Pages: 1 -->
<svg width="2422pt" height="2346pt"
 viewBox="0.00 0.00 2422.00 2346.00" xmlns="http://www.w3.org/2000/svg" xmlns:xlink="http://www.w3.org/1999/xlink">
<g id="graph0" class="graph" transform="scale(1 1) rotate(0) translate(4 2341.8)">
<polygon fill="white" stroke="none" points="-4,4 -4,-2341.8 2418.48,-2341.8 2418.48,4 -4,4"/>
<!-- fake -->
<g id="node1" class="node">
<title>fake</title>
</g>
<!-- 0 -->
<g id="node2" class="node">
<title>0</title>
<ellipse fill="none" stroke="black" cx="478" cy="-2246.8" rx="27" ry="18"/>
<text xml:space="preserve" text-anchor="middle" x="478" y="-2242.13" font-family="Times,serif" font-size="14.00">0</text>
</g>
<!-- fake&#45;&gt;0 -->
<g id="edge1" class="edge">
<title>fake&#45;&gt;0</title>
<path fill="none" stroke="black" stroke-width="2" d="M478,-2301.62C478,-2294.03 478,-2284.9 478,-2276.34"/>
<polygon fill="black" stroke="black" stroke-width="2" points="481.5,-2277.86 478,-2267.86 474.5,-2277.86 481.5,-2277.86"/>
</g>
<!-- 13 -->
<g id="node15" class="node">
<title>13</title>
<ellipse fill="none" stroke="black" cx="678" cy="-2157.55" rx="27" ry="18"/>
<text xml:space="preserve" text-anchor="middle" x="678" y="-2152.88" font-family="Times,serif" font-size="14.00">13</text>
</g>
<!-- 0&#45;&gt;13 -->
<g id="edge6" class="edge">
<title>0&#45;&gt;13</title>
<path fill="none" stroke="black" d="M500.17,-2236.13C535.38,-2220.77 604.3,-2190.7 645.23,-2172.85"/>
<polygon fill="black" stroke="black" points="646.58,-2176.08 654.35,-2168.87 643.78,-2169.66 646.58,-2176.08"/>
<text xml:space="preserve" text-anchor="middle" x="600.41" y="-2197.5" font-family="Times,serif" font-size="14.00">4</text>
</g>
<!-- 14 -->
<g id="node16" class="node">
<title>14</title>
<ellipse fill="none" stroke="black" cx="1114" cy="-1622.05" rx="27" ry="18"/>
<text xml:space="preserve" text-anchor="middle" x="1114" y="-1617.38" font-family="Times,serif" font-size="14.00">14</text>
</g>
<!-- 0&#45;&gt;14 -->
<g id="edge117" class="edge">
<title>0&#45;&gt;14</title>
<path fill="none" stroke="black" d="M492.24,-2231.2C557.14,-2164.82 823.81,-1893.71 872,-1871.8 910.81,-1854.16 1031.05,-1882.03 1063,-1853.8 1121.11,-1802.47 1121.22,-1701.17 1117.29,-1651.66"/>
<polygon fill="black" stroke="black" points="1120.78,-1651.39 1116.38,-1641.75 1113.81,-1652.03 1120.78,-1651.39"/>
<text xml:space="preserve" text-anchor="middle" x="806.85" y="-1929.75" font-family="Times,serif" font-size="14.00">3</text>
</g>
<!-- 17 -->
<g id="node19" class="node">
<title>17</title>
<ellipse fill="none" stroke="black" cx="1342" cy="-315.3" rx="23.85" ry="23.85"/>
<ellipse fill="none" stroke="black" cx="1342" cy="-315.3" rx="27.85" ry="27.85"/>
<text xml:space="preserve" text-anchor="middle" x="1342" y="-310.63" font-family="Times,serif" font-size="14.00">17</text>
</g>
<!-- 0&#45;&gt;17 -->
<g id="edge87" class="edge">
<title>0&#45;&gt;17</title>
<path fill="none" stroke="black" d="M505.43,-2245.93C690.14,-2246.71 1755.13,-2249.41 2077,-2210.8 2165.23,-2200.22 2270,-2247.42 2270,-2158.55 2270,-2158.55 2270,-2158.55 2270,-823.03 2270,-613.9 2126.45,-584.2 1942,-485.65 1840.94,-431.66 1496.62,-351.13 1380.56,-324.9"/>
<polygon fill="black" stroke="black" points="1381.43,-321.51 1370.9,-322.72 1379.89,-328.34 1381.43,-321.51"/>
<text xml:space="preserve" text-anchor="middle" x="2274.5" y="-1285.3" font-family="Times,serif" font-size="14.00">2</text>
</g>
<!-- 20 -->
<g id="node22" class="node">
<title>20</title>
<ellipse fill="none" stroke="black" cx="628" cy="-1334.6" rx="27" ry="18"/>
<text xml:space="preserve" text-anchor="middle" x="628" y="-1329.93" font-family="Times,serif" font-size="14.00">20</text>
</g>
<!-- 0&#45;&gt;20 -->
<g id="edge65" class="edge">
<title>0&#45;&gt;20</title>
<path fill="none" stroke="black" d="M450.89,-2244.19C373.99,-2238.87 160,-2218.66 160,-2158.55 160,-2158.55 160,-2158.55 160,-1844.18 160,-1686.8 185.79,-1632.74 290,-1514.8 375.02,-1418.58 524.37,-1365.5 592.42,-1345.27"/>
<polygon fill="black" stroke="black" points="593.3,-1348.65 601.93,-1342.51 591.35,-1341.93 593.3,-1348.65"/>
<text xml:space="preserve" text-anchor="middle" x="166.14" y="-1795.88" font-family="Times,serif" font-size="14.00">0</text>
</g>
<!-- 29 -->
<g id="node31" class="node">
<title>29</title>
<ellipse fill="none" stroke="black" cx="759" cy="-1532.8" rx="27" ry="18"/>
<text xml:space="preserve" text-anchor="middle" x="759" y="-1528.13" font-family="Times,serif" font-size="14.00">29</text>
</g>
<!-- 0&#45;&gt;29 -->
<g id="edge34" class="edge">
<title>0&#45;&gt;29</title>
<path fill="none" stroke="black" d="M487.32,-2229.66C523.42,-2167.02 652.78,-1941.93 667,-1907.8 689.28,-1854.34 679.99,-1835.71 703,-1782.55 710.25,-1765.82 710.39,-1759.44 724,-1747.3 738.55,-1734.33 753.41,-1745.67 764,-1729.3 797.22,-1677.92 781.19,-1602 768.79,-1561.55"/>
<polygon fill="black" stroke="black" points="772.14,-1560.55 765.74,-1552.11 765.48,-1562.7 772.14,-1560.55"/>
<text xml:space="preserve" text-anchor="middle" x="683.62" y="-1885.13" font-family="Times,serif" font-size="14.00">1</text>
</g>
<!-- 1 -->
<g id="node3" class="node">
<title>1</title>
<ellipse fill="none" stroke="black" cx="1524" cy="-2068.3" rx="27" ry="18"/>
<text xml:space="preserve" text-anchor="middle" x="1524" y="-2063.63" font-family="Times,serif" font-size="14.00">1</text>
</g>
<!-- 2 -->
<g id="node4" class="node">
<title>2</title>
<ellipse fill="none" stroke="black" cx="1268" cy="-1979.05" rx="27" ry="18"/>
<text xml:space="preserve" text-anchor="middle" x="1268" y="-1974.38" font-family="Times,serif" font-size="14.00">2</text>
</g>
<!-- 1&#45;&gt;2 -->
<g id="edge118" class="edge">
<title>1&#45;&gt;2</title>
<path fill="none" stroke="black" d="M1499.07,-2061.06C1473.87,-2054.57 1433.91,-2043.76 1400,-2032.3 1365.68,-2020.7 1327.25,-2005.19 1300.75,-1994.09"/>
<polygon fill="black" stroke="black" points="1302.13,-1990.88 1291.56,-1990.22 1299.41,-1997.33 1302.13,-1990.88"/>
<text xml:space="preserve" text-anchor="middle" x="1404.5" y="-2019" font-family="Times,serif" font-size="14.00">2</text>
</g>
<!-- 4 -->
<g id="node6" class="node">
<title>4</title>
<ellipse fill="none" stroke="black" cx="569" cy="-1800.55" rx="27" ry="18"/>
<text xml:space="preserve" text-anchor="middle" x="569" y="-1795.88" font-family="Times,serif" font-size="14.00">4</text>
</g>
<!-- 1&#45;&gt;4 -->
<g id="edge84" class="edge">
<title>1&#45;&gt;4</title>
<path fill="none" stroke="black" d="M1496.93,-2066.7C1390.61,-2064.21 1001.42,-2053.77 880,-2032.3 704.99,-2001.36 599.31,-2055.19 500,-1907.8 479.68,-1877.65 514.38,-1842.13 541.51,-1820.75"/>
<polygon fill="black" stroke="black" points="543.26,-1823.82 549.12,-1814.99 539.04,-1818.24 543.26,-1823.82"/>
<text xml:space="preserve" text-anchor="middle" x="529.88" y="-1929.75" font-family="Times,serif" font-size="14.00">0</text>
</g>
<!-- 21 -->
<g id="node23" class="node">
<title>21</title>
<ellipse fill="none" stroke="black" cx="1051" cy="-868.65" rx="27" ry="18"/>
<text xml:space="preserve" text-anchor="middle" x="1051" y="-863.98" font-family="Times,serif" font-size="14.00">21</text>
</g>
<!-- 1&#45;&gt;21 -->
<g id="edge76" class="edge">
<title>1&#45;&gt;21</title>
<path fill="none" stroke="black" d="M1500.32,-2058.91C1470.47,-2046.63 1423,-2020.72 1423,-1980.05 1423,-1980.05 1423,-1980.05 1423,-1754.93 1423,-1528.82 1353.31,-1480.98 1292,-1263.35 1274.06,-1199.66 1282.57,-1179.84 1258,-1118.4 1216.63,-1014.94 1211.28,-977.54 1127,-904.65 1115.12,-894.38 1099.72,-886.54 1085.9,-880.91"/>
<polygon fill="black" stroke="black" points="1087.25,-877.68 1076.66,-877.41 1084.76,-884.23 1087.25,-877.68"/>
<text xml:space="preserve" text-anchor="middle" x="1381.47" y="-1483.5" font-family="Times,serif" font-size="14.00">3</text>
</g>
<!-- 22 -->
<g id="node24" class="node">
<title>22</title>
<ellipse fill="none" stroke="black" cx="1719" cy="-1800.55" rx="27" ry="18"/>
<text xml:space="preserve" text-anchor="middle" x="1719" y="-1795.88" font-family="Times,serif" font-size="14.00">22</text>
</g>
<!-- 1&#45;&gt;22 -->
<g id="edge115" class="edge">
<title>1&#45;&gt;22</title>
<path fill="none" stroke="black" d="M1550.96,-2065.81C1576.52,-2062.99 1614.41,-2054.97 1638,-2032.3 1695.57,-1976.97 1712.27,-1878.41 1717.08,-1829.99"/>
<polygon fill="black" stroke="black" points="1720.54,-1830.59 1717.93,-1820.33 1713.56,-1829.98 1720.54,-1830.59"/>
<text xml:space="preserve" text-anchor="middle" x="1702.01" y="-1929.75" font-family="Times,serif" font-size="14.00">1</text>
</g>
<!-- 27 -->
<g id="node29" class="node">
<title>27</title>
<ellipse fill="none" stroke="black" cx="894" cy="-1711.3" rx="27" ry="18"/>
<text xml:space="preserve" text-anchor="middle" x="894" y="-1706.63" font-family="Times,serif" font-size="14.00">27</text>
</g>
<!-- 1&#45;&gt;27 -->
<g id="edge70" class="edge">
<title>1&#45;&gt;27</title>
<path fill="none" stroke="black" d="M1496.93,-2066.45C1376.34,-2062.31 894,-2041.89 894,-1980.05 894,-1980.05 894,-1980.05 894,-1799.55 894,-1780.05 894,-1758.1 894,-1741.09"/>
<polygon fill="black" stroke="black" points="897.5,-1741.2 894,-1731.2 890.5,-1741.2 897.5,-1741.2"/>
<text xml:space="preserve" text-anchor="middle" x="898.5" y="-1885.13" font-family="Times,serif" font-size="14.00">4</text>
</g>
<!-- 3 -->
<g id="node5" class="node">
<title>3</title>
<ellipse fill="none" stroke="black" cx="536" cy="-1889.8" rx="27" ry="18"/>
<text xml:space="preserve" text-anchor="middle" x="536" y="-1885.13" font-family="Times,serif" font-size="14.00">3</text>
</g>
<!-- 2&#45;&gt;3 -->
<g id="edge44" class="edge">
<title>2&#45;&gt;3</title>
<path fill="none" stroke="black" d="M1240.73,-1977.9C1136.3,-1977.08 761.88,-1972.16 647,-1943.05 617.72,-1935.64 586.82,-1920.4 565.08,-1908.29"/>
<polygon fill="black" stroke="black" points="566.93,-1905.31 556.51,-1903.39 563.45,-1911.39 566.93,-1905.31"/>
<text xml:space="preserve" text-anchor="middle" x="651.5" y="-1929.75" font-family="Times,serif" font-size="14.00">3</text>
</g>
<!-- 2&#45;&gt;14 -->
<g id="edge36" class="edge">
<title>2&#45;&gt;14</title>
<path fill="none" stroke="black" d="M1272.47,-1960.87C1287.54,-1901.29 1333.41,-1704.6 1295,-1658.05 1277.3,-1636.6 1200.23,-1628.15 1152.55,-1624.93"/>
<polygon fill="black" stroke="black" points="1152.82,-1621.44 1142.62,-1624.31 1152.39,-1628.42 1152.82,-1621.44"/>
<text xml:space="preserve" text-anchor="middle" x="1310.85" y="-1795.88" font-family="Times,serif" font-size="14.00">1</text>
</g>
<!-- 24 -->
<g id="node26" class="node">
<title>24</title>
<ellipse fill="none" stroke="black" cx="1397" cy="-957.9" rx="27" ry="18"/>
<text xml:space="preserve" text-anchor="middle" x="1397" y="-953.23" font-family="Times,serif" font-size="14.00">24</text>
</g>
<!-- 2&#45;&gt;24 -->
<g id="edge22" class="edge">
<title>2&#45;&gt;24</title>
<path fill="none" stroke="black" d="M1294.27,-1973.78C1354.42,-1963.25 1497,-1933.77 1497,-1890.8 1497,-1890.8 1497,-1890.8 1497,-1378.23 1497,-1356.35 1417.47,-1014.8 1411,-993.9 1410.2,-991.32 1409.29,-988.65 1408.33,-986.01"/>
<polygon fill="black" stroke="black" points="1411.67,-984.92 1404.79,-976.85 1405.14,-987.44 1411.67,-984.92"/>
<text xml:space="preserve" text-anchor="middle" x="1501.5" y="-1483.5" font-family="Times,serif" font-size="14.00">0</text>
</g>
<!-- 2&#45;&gt;24 -->
<g id="edge108" class="edge">
<title>2&#45;&gt;24</title>
<path fill="none" stroke="black" d="M1295.11,-1976.44C1372.01,-1971.12 1586,-1950.91 1586,-1890.8 1586,-1890.8 1586,-1890.8 1586,-1576.43 1586,-1511.95 1617,-1499.18 1617,-1434.7 1617,-1434.7 1617,-1434.7 1617,-1288.98 1617,-1187.68 1542.96,-1186.13 1489,-1100.4 1459.82,-1054.05 1458.73,-1038.54 1427,-993.9 1424.24,-990.01 1421.13,-986.04 1418,-982.22"/>
<polygon fill="black" stroke="black" points="1420.9,-980.24 1411.75,-974.9 1415.57,-984.78 1420.9,-980.24"/>
<text xml:space="preserve" text-anchor="middle" x="1615.35" y="-1483.5" font-family="Times,serif" font-size="14.00">4</text>
</g>
<!-- 26 -->
<g id="node28" class="node">
<title>26</title>
<ellipse fill="none" stroke="black" cx="1329" cy="-1235.5" rx="23.85" ry="23.85"/>
<ellipse fill="none" stroke="black" cx="1329" cy="-1235.5" rx="27.85" ry="27.85"/>
<text xml:space="preserve" text-anchor="middle" x="1329" y="-1230.83" font-family="Times,serif" font-size="14.00">26</text>
</g>
<!-- 2&#45;&gt;26 -->
<g id="edge119" class="edge">
<title>2&#45;&gt;26</title>
<path fill="none" stroke="black" d="M1280.67,-1962.75C1285.06,-1956.87 1289.7,-1949.92 1293,-1943.05 1300.06,-1928.38 1299.23,-1923.64 1303,-1907.8 1327.38,-1805.42 1334.6,-1779.7 1348,-1675.3 1369.33,-1509.13 1360.01,-1466.13 1362,-1298.6 1362.09,-1290.94 1364.39,-1288.64 1362,-1281.35 1360.2,-1275.87 1357.44,-1270.5 1354.28,-1265.5"/>
<polygon fill="black" stroke="black" points="1357.33,-1263.75 1348.69,-1257.62 1351.62,-1267.8 1357.33,-1263.75"/>
<text xml:space="preserve" text-anchor="middle" x="1360.47" y="-1617.38" font-family="Times,serif" font-size="14.00">2</text>
</g>
<!-- 3&#45;&gt;4 -->
<g id="edge104" class="edge">
<title>3&#45;&gt;4</title>
<path fill="none" stroke="black" d="M542.36,-1871.98C546.97,-1859.79 553.31,-1843.04 558.64,-1828.93"/>
<polygon fill="black" stroke="black" points="561.86,-1830.33 562.12,-1819.74 555.31,-1827.85 561.86,-1830.33"/>
<text xml:space="preserve" text-anchor="middle" x="559.96" y="-1840.5" font-family="Times,serif" font-size="14.00">1</text>
</g>
<!-- 3&#45;&gt;17 -->
<g id="edge142" class="edge">
<title>3&#45;&gt;17</title>
<path fill="none" stroke="black" d="M555.97,-1877.27C559.88,-1875.27 564.01,-1873.35 568,-1871.8 597.95,-1860.19 606.98,-1862.13 638,-1853.8 694.16,-1838.73 708.03,-1834.32 764,-1818.55 1011.77,-1748.75 1201.07,-1870.89 1315,-1640.05 1322.08,-1625.7 1317.83,-1619.8 1315,-1604.05 1302.19,-1532.86 1118.72,-1059.39 1088,-993.9 1076.25,-968.85 1072.5,-962.83 1057,-939.9 1040.12,-914.93 1024.88,-915.13 1015,-886.65 1005.04,-857.94 946.88,-624.18 1047,-450.4 1099.99,-358.43 1235.11,-329.18 1302.51,-320.16"/>
<polygon fill="black" stroke="black" points="1302.9,-323.64 1312.39,-318.94 1302.03,-316.7 1302.9,-323.64"/>
<text xml:space="preserve" text-anchor="middle" x="1136.32" y="-1087.1" font-family="Times,serif" font-size="14.00">3</text>
</g>
<!-- 18 -->
<g id="node20" class="node">
<title>18</title>
<ellipse fill="none" stroke="black" cx="953" cy="-18" rx="27" ry="18"/>
<text xml:space="preserve" text-anchor="middle" x="953" y="-13.32" font-family="Times,serif" font-size="14.00">18</text>
</g>
<!-- 3&#45;&gt;18 -->
<g id="edge51" class="edge">
<title>3&#45;&gt;18</title>
<path fill="none" stroke="black" d="M513.02,-1879.9C487.8,-1869.03 447.76,-1848.34 424,-1818.55 357.93,-1735.73 383.09,-1689.17 320,-1604.05 264.47,-1529.13 203.35,-1547 166,-1461.55 135,-1390.64 369.7,-157.61 406,-89.25 416.5,-69.47 421.57,-63.16 442,-54 484.71,-34.84 802.91,-23.52 914.48,-20.11"/>
<polygon fill="black" stroke="black" points="914.43,-23.61 924.32,-19.81 914.22,-16.61 914.43,-23.61"/>
<text xml:space="preserve" text-anchor="middle" x="235.55" y="-953.23" font-family="Times,serif" font-size="14.00">4</text>
</g>
<!-- 3&#45;&gt;20 -->
<g id="edge61" class="edge">
<title>3&#45;&gt;20</title>
<path fill="none" stroke="black" d="M534.17,-1871.46C532.26,-1850.38 529.92,-1813.77 533,-1782.55 548.89,-1621.35 599.87,-1432.96 619.85,-1363.31"/>
<polygon fill="black" stroke="black" points="623.16,-1364.47 622.58,-1353.89 616.44,-1362.53 623.16,-1364.47"/>
<text xml:space="preserve" text-anchor="middle" x="565.33" y="-1617.38" font-family="Times,serif" font-size="14.00">0</text>
</g>
<!-- 3&#45;&gt;27 -->
<g id="edge102" class="edge">
<title>3&#45;&gt;27</title>
<path fill="none" stroke="black" d="M557.32,-1878.29C617.89,-1848.43 791.17,-1763 862.62,-1727.77"/>
<polygon fill="black" stroke="black" points="864.01,-1730.99 871.43,-1723.43 860.91,-1724.71 864.01,-1730.99"/>
<text xml:space="preserve" text-anchor="middle" x="755.09" y="-1795.88" font-family="Times,serif" font-size="14.00">2</text>
</g>
<!-- 4&#45;&gt;2 -->
<g id="edge127" class="edge">
<title>4&#45;&gt;2</title>
<path fill="none" stroke="black" d="M579.68,-1817.38C595.13,-1839.48 625.43,-1879.98 658,-1907.8 669.82,-1917.9 674.71,-1917.72 688,-1925.8 700.49,-1933.4 702.07,-1938.63 716,-1943.05 811.82,-1973.51 1120.21,-1977.56 1229.31,-1978.02"/>
<polygon fill="black" stroke="black" points="1229.19,-1981.52 1239.21,-1978.06 1229.22,-1974.52 1229.19,-1981.52"/>
<text xml:space="preserve" text-anchor="middle" x="662.5" y="-1885.13" font-family="Times,serif" font-size="14.00">0</text>
</g>
<!-- 4&#45;&gt;4 -->
<g id="edge91" class="edge">
<title>4&#45;&gt;4</title>
<path fill="none" stroke="black" d="M593.53,-1808.79C604.51,-1809.57 614,-1806.83 614,-1800.55 614,-1796.63 610.29,-1794.09 604.83,-1792.92"/>
<polygon fill="black" stroke="black" points="605.22,-1789.44 595.04,-1792.4 604.84,-1796.43 605.22,-1789.44"/>
<text xml:space="preserve" text-anchor="middle" x="618.5" y="-1795.88" font-family="Times,serif" font-size="14.00">2</text>
</g>
<!-- 9 -->
<g id="node11" class="node">
<title>9</title>
<ellipse fill="none" stroke="black" cx="657" cy="-414.4" rx="27" ry="18"/>
<text xml:space="preserve" text-anchor="middle" x="657" y="-409.73" font-family="Times,serif" font-size="14.00">9</text>
</g>
<!-- 4&#45;&gt;9 -->
<g id="edge14" class="edge">
<title>4&#45;&gt;9</title>
<path fill="none" stroke="black" d="M561.64,-1782.73C544.62,-1743.11 502.27,-1640.5 480,-1550.8 430.44,-1351.19 414,-1298.45 414,-1092.78 414,-1092.78 414,-1092.78 414,-912.28 414,-843.82 411.77,-821.25 445,-761.4 489.64,-681.01 546.67,-697.13 595,-618.9 613.38,-589.15 638.5,-492.05 650.32,-443.52"/>
<polygon fill="black" stroke="black" points="653.67,-444.59 652.61,-434.05 646.86,-442.95 653.67,-444.59"/>
<text xml:space="preserve" text-anchor="middle" x="418.5" y="-1087.1" font-family="Times,serif" font-size="14.00">4</text>
</g>
<!-- 4&#45;&gt;20 -->
<g id="edge77" class="edge">
<title>4&#45;&gt;20</title>
<path fill="none" stroke="black" d="M571.21,-1782.21C580.09,-1712.37 613.29,-1451.25 624.37,-1364.11"/>
<polygon fill="black" stroke="black" points="627.83,-1364.65 625.62,-1354.28 620.89,-1363.76 627.83,-1364.65"/>
<text xml:space="preserve" text-anchor="middle" x="602.58" y="-1572.75" font-family="Times,serif" font-size="14.00">3</text>
</g>
<!-- 4&#45;&gt;27 -->
<g id="edge89" class="edge">
<title>4&#45;&gt;27</title>
<path fill="none" stroke="black" d="M593.21,-1792.21C627.84,-1781.78 693.58,-1762.3 750,-1747.3 786.55,-1737.59 828.6,-1727.49 857.79,-1720.65"/>
<polygon fill="black" stroke="black" points="858.27,-1724.14 867.21,-1718.45 856.68,-1717.32 858.27,-1724.14"/>
<text xml:space="preserve" text-anchor="middle" x="754.5" y="-1751.25" font-family="Times,serif" font-size="14.00">1</text>
</g>
<!-- 5 -->
<g id="node7" class="node">
<title>5</title>
<ellipse fill="none" stroke="black" cx="1839" cy="-414.4" rx="27" ry="18"/>
<text xml:space="preserve" text-anchor="middle" x="1839" y="-409.73" font-family="Times,serif" font-size="14.00">5</text>
</g>
<!-- 5&#45;&gt;1 -->
<g id="edge95" class="edge">
<title>5&#45;&gt;1</title>
<path fill="none" stroke="black" d="M1860.39,-425.66C1914.04,-453.04 2050,-533.4 2050,-644.53 2050,-914.28 2050,-914.28 2050,-914.28 2050,-1230.12 1976,-1305.21 1976,-1621.05 1976,-1801.55 1976,-1801.55 1976,-1801.55 1976,-1917.77 1961.57,-1990.84 1853,-2032.3 1800.73,-2052.27 1637.47,-2062.11 1562.43,-2065.68"/>
<polygon fill="black" stroke="black" points="1562.51,-2062.17 1552.68,-2066.13 1562.83,-2069.17 1562.51,-2062.17"/>
<text xml:space="preserve" text-anchor="middle" x="2028.45" y="-1230.83" font-family="Times,serif" font-size="14.00">2</text>
</g>
<!-- 5&#45;&gt;5 -->
<g id="edge114" class="edge">
<title>5&#45;&gt;5</title>
<path fill="none" stroke="black" d="M1863.53,-422.64C1874.51,-423.42 1884,-420.68 1884,-414.4 1884,-410.48 1880.29,-407.94 1874.83,-406.77"/>
<polygon fill="black" stroke="black" points="1875.22,-403.29 1865.04,-406.25 1874.84,-410.28 1875.22,-403.29"/>
<text xml:space="preserve" text-anchor="middle" x="1888.5" y="-409.73" font-family="Times,serif" font-size="14.00">3</text>
</g>
<!-- 5&#45;&gt;17 -->
<g id="edge37" class="edge">
<title>5&#45;&gt;17</title>
<path fill="none" stroke="black" d="M1814.51,-406.47C1775.8,-395.69 1697.96,-374.73 1631,-361.15 1542.03,-343.11 1436.38,-328.4 1380.74,-321.16"/>
<polygon fill="black" stroke="black" points="1381.51,-317.73 1371.15,-319.92 1380.62,-324.67 1381.51,-317.73"/>
<text xml:space="preserve" text-anchor="middle" x="1710.27" y="-365.1" font-family="Times,serif" font-size="14.00">4</text>
</g>
<!-- 5&#45;&gt;18 -->
<g id="edge7" class="edge">
<title>5&#45;&gt;18</title>
<path fill="none" stroke="black" d="M1851.02,-397.89C1864.05,-379.49 1883,-347.39 1883,-316.3 1883,-316.3 1883,-316.3 1883,-116.1 1883,-25 1167.93,-19 991.83,-18.91"/>
<polygon fill="black" stroke="black" points="991.84,-15.41 981.84,-18.91 991.84,-22.41 991.84,-15.41"/>
<text xml:space="preserve" text-anchor="middle" x="1887.5" y="-211.53" font-family="Times,serif" font-size="14.00">1</text>
</g>
<!-- 19 -->
<g id="node21" class="node">
<title>19</title>
<ellipse fill="none" stroke="black" cx="1822" cy="-315.3" rx="27" ry="18"/>
<text xml:space="preserve" text-anchor="middle" x="1822" y="-310.63" font-family="Times,serif" font-size="14.00">19</text>
</g>
<!-- 5&#45;&gt;19 -->
<g id="edge140" class="edge">
<title>5&#45;&gt;19</title>
<path fill="none" stroke="black" d="M1829.89,-397.16C1827.13,-391.41 1824.44,-384.79 1823,-378.4 1820.56,-367.63 1819.92,-355.53 1820.02,-344.9"/>
<polygon fill="black" stroke="black" points="1823.51,-345.28 1820.34,-335.17 1816.51,-345.05 1823.51,-345.28"/>
<text xml:space="preserve" text-anchor="middle" x="1827.5" y="-365.1" font-family="Times,serif" font-size="14.00">0</text>
</g>
<!-- 6 -->
<g id="node8" class="node">
<title>6</title>
<ellipse fill="none" stroke="black" cx="1618" cy="-216.2" rx="27" ry="18"/>
<text xml:space="preserve" text-anchor="middle" x="1618" y="-211.53" font-family="Times,serif" font-size="14.00">6</text>
</g>
<!-- 8 -->
<g id="node10" class="node">
<title>8</title>
<ellipse fill="none" stroke="black" cx="1618" cy="-507.65" rx="18" ry="18"/>
<ellipse fill="none" stroke="black" cx="1618" cy="-507.65" rx="22" ry="22"/>
<text xml:space="preserve" text-anchor="middle" x="1618" y="-502.98" font-family="Times,serif" font-size="14.00">8</text>
</g>
<!-- 6&#45;&gt;8 -->
<g id="edge63" class="edge">
<title>6&#45;&gt;8</title>
<path fill="none" stroke="black" d="M1618,-234.39C1618,-281.38 1618,-412.54 1618,-474.04"/>
<polygon fill="black" stroke="black" points="1614.5,-473.85 1618,-483.85 1621.5,-473.85 1614.5,-473.85"/>
<text xml:space="preserve" text-anchor="middle" x="1622.5" y="-365.1" font-family="Times,serif" font-size="14.00">2</text>
</g>
<!-- 6&#45;&gt;13 -->
<g id="edge20" class="edge">
<title>6&#45;&gt;13</title>
<path fill="none" stroke="black" d="M1645.15,-218.8C1686.61,-221.86 1767.75,-230.31 1833,-252.2 1963.09,-295.84 2000.38,-308.8 2106,-396.4 2258.18,-522.61 2232,-625.32 2232,-823.03 2232,-1137.4 2232,-1137.4 2232,-1137.4 2232,-1373.04 2187,-1430.04 2187,-1665.68 2187,-2069.3 2187,-2069.3 2187,-2069.3 2187,-2098.28 2173.75,-2108.26 2148,-2121.55 2082.61,-2155.32 942.03,-2156.65 716.54,-2156.58"/>
<polygon fill="black" stroke="black" points="716.84,-2153.08 706.84,-2156.58 716.84,-2160.08 716.84,-2153.08"/>
<text xml:space="preserve" text-anchor="middle" x="2236.15" y="-1176.35" font-family="Times,serif" font-size="14.00">1</text>
</g>
<!-- 16 -->
<g id="node18" class="node">
<title>16</title>
<ellipse fill="none" stroke="black" cx="1242" cy="-117.1" rx="23.85" ry="23.85"/>
<ellipse fill="none" stroke="black" cx="1242" cy="-117.1" rx="27.85" ry="27.85"/>
<text xml:space="preserve" text-anchor="middle" x="1242" y="-112.43" font-family="Times,serif" font-size="14.00">16</text>
</g>
<!-- 6&#45;&gt;16 -->
<g id="edge147" class="edge">
<title>6&#45;&gt;16</title>
<path fill="none" stroke="black" d="M1593.04,-208.75C1528.68,-192.14 1356.81,-147.75 1280,-127.91"/>
<polygon fill="black" stroke="black" points="1280.98,-124.55 1270.42,-125.44 1279.23,-131.33 1280.98,-124.55"/>
<text xml:space="preserve" text-anchor="middle" x="1479.23" y="-166.9" font-family="Times,serif" font-size="14.00">3</text>
</g>
<!-- 6&#45;&gt;24 -->
<g id="edge8" class="edge">
<title>6&#45;&gt;24</title>
<path fill="none" stroke="black" d="M1645.07,-217.72C1693.78,-220.09 1796.78,-231.84 1858,-287.45 1896.65,-322.57 1892.04,-345.14 1902,-396.4 1933.76,-559.87 1739,-567.25 1739,-733.78 1739,-869.65 1739,-869.65 1739,-869.65 1739,-906.72 1708.12,-907.42 1674,-921.9 1631.89,-939.77 1501.29,-950.32 1435.58,-954.62"/>
<polygon fill="black" stroke="black" points="1435.37,-951.13 1425.62,-955.26 1435.82,-958.12 1435.37,-951.13"/>
<text xml:space="preserve" text-anchor="middle" x="1816.99" y="-596.23" font-family="Times,serif" font-size="14.00">4</text>
</g>
<!-- 6&#45;&gt;29 -->
<g id="edge123" class="edge">
<title>6&#45;&gt;29</title>
<path fill="none" stroke="black" d="M1595.58,-226.75C1584.83,-232.52 1572.84,-240.95 1566,-252.2 1392.34,-537.75 1503,-667.32 1503,-1001.53 1503,-1182.03 1503,-1182.03 1503,-1182.03 1503,-1254.23 1521.51,-1485.04 1510,-1496.8 1487.34,-1519.96 959.33,-1512.67 927,-1514.8 882.25,-1517.75 831,-1523.25 796.99,-1527.19"/>
<polygon fill="black" stroke="black" points="796.75,-1523.7 787.22,-1528.34 797.56,-1530.65 796.75,-1523.7"/>
<text xml:space="preserve" text-anchor="middle" x="1503.04" y="-863.98" font-family="Times,serif" font-size="14.00">0</text>
</g>
<!-- 7 -->
<g id="node9" class="node">
<title>7</title>
<ellipse fill="none" stroke="black" cx="838" cy="-779.4" rx="27" ry="18"/>
<text xml:space="preserve" text-anchor="middle" x="838" y="-774.73" font-family="Times,serif" font-size="14.00">7</text>
</g>
<!-- 10 -->
<g id="node12" class="node">
<title>10</title>
<ellipse fill="none" stroke="black" cx="1238" cy="-690.15" rx="27" ry="18"/>
<text xml:space="preserve" text-anchor="middle" x="1238" y="-685.48" font-family="Times,serif" font-size="14.00">10</text>
</g>
<!-- 7&#45;&gt;10 -->
<g id="edge35" class="edge">
<title>7&#45;&gt;10</title>
<path fill="none" stroke="black" d="M863.63,-772.81C932.41,-757.81 1121.24,-716.62 1201.33,-699.15"/>
<polygon fill="black" stroke="black" points="1201.82,-702.63 1210.85,-697.07 1200.33,-695.79 1201.82,-702.63"/>
<text xml:space="preserve" text-anchor="middle" x="1078.33" y="-730.1" font-family="Times,serif" font-size="14.00">4</text>
</g>
<!-- 7&#45;&gt;13 -->
<g id="edge47" class="edge">
<title>7&#45;&gt;13</title>
<path fill="none" stroke="black" d="M810.81,-781.49C744.72,-784.9 571.31,-798.55 438,-850.65 396.66,-866.81 379.75,-868.51 354,-904.65 297.27,-984.28 317.2,-1021.82 302,-1118.4 253.62,-1425.88 176.61,-1527.15 286,-1818.55 300.96,-1858.4 525.92,-2060.8 560,-2086.3 587.94,-2107.21 622.49,-2127.17 646.97,-2140.43"/>
<polygon fill="black" stroke="black" points="645.32,-2143.52 655.79,-2145.15 648.62,-2137.35 645.32,-2143.52"/>
<text xml:space="preserve" text-anchor="middle" x="238.67" y="-1483.5" font-family="Times,serif" font-size="14.00">2</text>
</g>
<!-- 7&#45;&gt;14 -->
<g id="edge107" class="edge">
<title>7&#45;&gt;14</title>
<path fill="none" stroke="black" d="M849.19,-796.3C852.96,-802.13 856.98,-808.89 860,-815.4 901.97,-905.83 899.15,-933.73 928,-1029.15 985.87,-1220.52 988.16,-1272.09 1052,-1461.55 1067.88,-1508.69 1089.51,-1562.4 1102.58,-1593.92"/>
<polygon fill="black" stroke="black" points="1099.32,-1595.19 1106.39,-1603.08 1105.78,-1592.5 1099.32,-1595.19"/>
<text xml:space="preserve" text-anchor="middle" x="977.45" y="-1176.35" font-family="Times,serif" font-size="14.00">3</text>
</g>
<!-- 23 -->
<g id="node25" class="node">
<title>23</title>
<ellipse fill="none" stroke="black" cx="902" cy="-1136.4" rx="27" ry="18"/>
<text xml:space="preserve" text-anchor="middle" x="902" y="-1131.73" font-family="Times,serif" font-size="14.00">23</text>
</g>
<!-- 7&#45;&gt;23 -->
<g id="edge90" class="edge">
<title>7&#45;&gt;23</title>
<path fill="none" stroke="black" d="M841.13,-797.77C851.42,-854.82 884.23,-1036.83 896.92,-1107.23"/>
<polygon fill="black" stroke="black" points="893.43,-1107.57 898.64,-1116.79 900.31,-1106.33 893.43,-1107.57"/>
<text xml:space="preserve" text-anchor="middle" x="877.32" y="-953.23" font-family="Times,serif" font-size="14.00">1</text>
</g>
<!-- 7&#45;&gt;27 -->
<g id="edge83" class="edge">
<title>7&#45;&gt;27</title>
<path fill="none" stroke="black" d="M838.67,-797.53C841.26,-864.12 850.57,-1112.21 854,-1316.6 854.13,-1324.09 853.85,-1578.66 855,-1586.05 860.35,-1620.54 873.43,-1658.61 882.97,-1683.41"/>
<polygon fill="black" stroke="black" points="879.59,-1684.37 886.51,-1692.39 886.1,-1681.81 879.59,-1684.37"/>
<text xml:space="preserve" text-anchor="middle" x="857.46" y="-1230.83" font-family="Times,serif" font-size="14.00">0</text>
</g>
<!-- 8&#45;&gt;1 -->
<g id="edge11" class="edge">
<title>8&#45;&gt;1</title>
<path fill="none" stroke="black" d="M1639.98,-510.83C1681.31,-516.03 1771.3,-532.73 1825,-582.9 1878.48,-632.87 1891,-660.59 1891,-733.78 1891,-1003.53 1891,-1003.53 1891,-1003.53 1891,-1108.11 1936,-1129.92 1936,-1234.5 1936,-1667.68 1936,-1667.68 1936,-1667.68 1936,-1836.69 1969.32,-1939.6 1828,-2032.3 1785.18,-2060.39 1634.48,-2066.02 1562.64,-2067.09"/>
<polygon fill="black" stroke="black" points="1562.88,-2063.59 1552.92,-2067.21 1562.97,-2070.59 1562.88,-2063.59"/>
<text xml:space="preserve" text-anchor="middle" x="1940.5" y="-1285.3" font-family="Times,serif" font-size="14.00">4</text>
</g>
<!-- 8&#45;&gt;5 -->
<g id="edge42" class="edge">
<title>8&#45;&gt;5</title>
<path fill="none" stroke="black" d="M1638.4,-498.23C1676.68,-482.42 1759.61,-448.18 1805.96,-429.04"/>
<polygon fill="black" stroke="black" points="1807.06,-432.38 1814.96,-425.33 1804.38,-425.91 1807.06,-432.38"/>
<text xml:space="preserve" text-anchor="middle" x="1752.79" y="-454.35" font-family="Times,serif" font-size="14.00">0</text>
</g>
<!-- 8&#45;&gt;9 -->
<g id="edge30" class="edge">
<title>8&#45;&gt;9</title>
<path fill="none" stroke="black" d="M1596.12,-504.57C1471.83,-492.77 854.53,-434.16 694.79,-418.99"/>
<polygon fill="black" stroke="black" points="695.47,-415.54 685.18,-418.08 694.81,-422.51 695.47,-415.54"/>
<text xml:space="preserve" text-anchor="middle" x="1199.54" y="-454.35" font-family="Times,serif" font-size="14.00">1</text>
</g>
<!-- 11 -->
<g id="node13" class="node">
<title>11</title>
<ellipse fill="none" stroke="black" cx="683" cy="-1047.15" rx="27" ry="18"/>
<text xml:space="preserve" text-anchor="middle" x="683" y="-1042.48" font-family="Times,serif" font-size="14.00">11</text>
</g>
<!-- 8&#45;&gt;11 -->
<g id="edge55" class="edge">
<title>8&#45;&gt;11</title>
<path fill="none" stroke="black" d="M1610.71,-528.7C1583.17,-604.35 1486.71,-869.11 1479,-886.65 1461.04,-927.5 1469.55,-950.29 1433,-975.9 1374.34,-1017.01 866.76,-1039.21 721.62,-1044.75"/>
<polygon fill="black" stroke="black" points="721.63,-1041.25 711.77,-1045.13 721.89,-1048.25 721.63,-1041.25"/>
<text xml:space="preserve" text-anchor="middle" x="1530.09" y="-774.73" font-family="Times,serif" font-size="14.00">3</text>
</g>
<!-- 8&#45;&gt;20 -->
<g id="edge15" class="edge">
<title>8&#45;&gt;20</title>
<path fill="none" stroke="black" d="M1624.71,-529.1C1626.4,-535.02 1628.01,-541.54 1629,-547.65 1643.13,-634.77 1648.64,-776.98 1639,-832.65 1598.28,-1067.83 1587.57,-1196.15 1372,-1298.6 1319.88,-1323.37 910.61,-1313.43 853,-1316.6 787.29,-1320.22 710.93,-1326.41 666.2,-1330.24"/>
<polygon fill="black" stroke="black" points="666.16,-1326.73 656.5,-1331.08 666.76,-1333.7 666.16,-1326.73"/>
<text xml:space="preserve" text-anchor="middle" x="1631.05" y="-908.6" font-family="Times,serif" font-size="14.00">2</text>
</g>
<!-- 9&#45;&gt;3 -->
<g id="edge81" class="edge">
<title>9&#45;&gt;3</title>
<path fill="none" stroke="black" d="M645.14,-430.83C627.52,-453.41 592.96,-496.38 560,-529.65 466.1,-624.46 393.79,-607.36 333,-726.15 289.55,-811.06 318.23,-844.62 314,-939.9 313.29,-955.89 312.95,-959.94 314,-975.9 319.79,-1064.1 379.92,-1684.79 418,-1764.55 438.95,-1808.45 481.28,-1846.96 509.13,-1869.06"/>
<polygon fill="black" stroke="black" points="506.72,-1871.62 516.77,-1874.98 511.01,-1866.09 506.72,-1871.62"/>
<text xml:space="preserve" text-anchor="middle" x="334.61" y="-1131.73" font-family="Times,serif" font-size="14.00">3</text>
</g>
<!-- 9&#45;&gt;7 -->
<g id="edge52" class="edge">
<title>9&#45;&gt;7</title>
<path fill="none" stroke="black" d="M679.28,-425.07C707.07,-438.82 751,-466.85 751,-506.65 751,-691.15 751,-691.15 751,-691.15 751,-723.49 781.34,-748.06 806.18,-762.76"/>
<polygon fill="black" stroke="black" points="804.29,-765.71 814.72,-767.53 807.7,-759.6 804.29,-765.71"/>
<text xml:space="preserve" text-anchor="middle" x="755.5" y="-596.23" font-family="Times,serif" font-size="14.00">0</text>
</g>
<!-- 9&#45;&gt;7 -->
<g id="edge105" class="edge">
<title>9&#45;&gt;7</title>
<path fill="none" stroke="black" d="M683.46,-419.41C726.03,-427.53 805,-450.2 805,-506.65 805,-691.15 805,-691.15 805,-691.15 805,-712.88 814.06,-735.79 822.69,-752.69"/>
<polygon fill="black" stroke="black" points="819.37,-753.9 827.2,-761.03 825.52,-750.57 819.37,-753.9"/>
<text xml:space="preserve" text-anchor="middle" x="809.5" y="-596.23" font-family="Times,serif" font-size="14.00">2</text>
</g>
<!-- 9&#45;&gt;11 -->
<g id="edge110" class="edge">
<title>9&#45;&gt;11</title>
<path fill="none" stroke="black" d="M667.99,-431.06C679.21,-448.61 695,-478.34 695,-506.65 695,-958.9 695,-958.9 695,-958.9 695,-978.78 691.91,-1000.97 688.86,-1017.99"/>
<polygon fill="black" stroke="black" points="685.5,-1016.9 687.08,-1027.38 692.38,-1018.21 685.5,-1016.9"/>
<text xml:space="preserve" text-anchor="middle" x="699.5" y="-730.1" font-family="Times,serif" font-size="14.00">1</text>
</g>
<!-- 28 -->
<g id="node30" class="node">
<title>28</title>
<ellipse fill="none" stroke="black" cx="594" cy="-315.3" rx="23.85" ry="23.85"/>
<ellipse fill="none" stroke="black" cx="594" cy="-315.3" rx="27.85" ry="27.85"/>
<text xml:space="preserve" text-anchor="middle" x="594" y="-310.63" font-family="Times,serif" font-size="14.00">28</text>
</g>
<!-- 9&#45;&gt;28 -->
<g id="edge26" class="edge">
<title>9&#45;&gt;28</title>
<path fill="none" stroke="black" d="M646.6,-397.37C638.01,-384.13 625.55,-364.92 614.91,-348.52"/>
<polygon fill="black" stroke="black" points="618.1,-347.02 609.72,-340.53 612.23,-350.83 618.1,-347.02"/>
<text xml:space="preserve" text-anchor="middle" x="637.5" y="-365.1" font-family="Times,serif" font-size="14.00">4</text>
</g>
<!-- 10&#45;&gt;14 -->
<g id="edge21" class="edge">
<title>10&#45;&gt;14</title>
<path fill="none" stroke="black" d="M1233.69,-708.18C1224.74,-744.2 1204.05,-830.85 1193,-904.65 1187.11,-944.04 1187.42,-954.15 1185,-993.9 1169.02,-1256.73 1293.44,-1355.64 1166,-1586.05 1161.52,-1594.15 1154.27,-1600.74 1146.59,-1605.91"/>
<polygon fill="black" stroke="black" points="1144.92,-1602.84 1138.11,-1610.96 1148.5,-1608.85 1144.92,-1602.84"/>
<text xml:space="preserve" text-anchor="middle" x="1196.13" y="-1131.73" font-family="Times,serif" font-size="14.00">3</text>
</g>
<!-- 15 -->
<g id="node17" class="node">
<title>15</title>
<ellipse fill="none" stroke="black" cx="1304" cy="-600.9" rx="27" ry="18"/>
<text xml:space="preserve" text-anchor="middle" x="1304" y="-596.23" font-family="Times,serif" font-size="14.00">15</text>
</g>
<!-- 10&#45;&gt;15 -->
<g id="edge68" class="edge">
<title>10&#45;&gt;15</title>
<path fill="none" stroke="black" d="M1249.8,-673.55C1259.75,-660.4 1274.15,-641.36 1285.61,-626.21"/>
<polygon fill="black" stroke="black" points="1288.15,-628.66 1291.39,-618.57 1282.57,-624.44 1288.15,-628.66"/>
<text xml:space="preserve" text-anchor="middle" x="1281.41" y="-640.85" font-family="Times,serif" font-size="14.00">0</text>
</g>
<!-- 10&#45;&gt;24 -->
<g id="edge73" class="edge">
<title>10&#45;&gt;24</title>
<path fill="none" stroke="black" d="M1257.54,-702.82C1266.31,-708.86 1276.18,-716.91 1283,-726.15 1338.22,-801 1303.97,-845.49 1357,-921.9 1360.68,-927.21 1365.34,-932.23 1370.17,-936.72"/>
<polygon fill="black" stroke="black" points="1367.85,-939.35 1377.71,-943.21 1372.41,-934.04 1367.85,-939.35"/>
<text xml:space="preserve" text-anchor="middle" x="1326.71" y="-819.35" font-family="Times,serif" font-size="14.00">4</text>
</g>
<!-- 10&#45;&gt;26 -->
<g id="edge128" class="edge">
<title>10&#45;&gt;26</title>
<path fill="none" stroke="black" d="M1240.75,-708.45C1244.09,-729.49 1249.92,-766.05 1255,-797.4 1274.3,-916.44 1278.7,-946.28 1299,-1065.15 1306.74,-1110.5 1316.03,-1162.61 1322.2,-1196.91"/>
<polygon fill="black" stroke="black" points="1318.68,-1197.12 1323.9,-1206.34 1325.57,-1195.88 1318.68,-1197.12"/>
<text xml:space="preserve" text-anchor="middle" x="1288.37" y="-953.23" font-family="Times,serif" font-size="14.00">2</text>
</g>
<!-- 10&#45;&gt;28 -->
<g id="edge17" class="edge">
<title>10&#45;&gt;28</title>
<path fill="none" stroke="black" d="M1221.54,-675.53C1194.21,-652.84 1137.83,-605.76 1091,-564.9 1042.33,-522.44 1024.92,-516.79 983,-467.65 946.4,-424.74 961.56,-391.47 914,-361.15 868.2,-331.95 708.6,-321.26 633.56,-317.79"/>
<polygon fill="black" stroke="black" points="633.93,-314.3 623.79,-317.36 633.62,-321.3 633.93,-314.3"/>
<text xml:space="preserve" text-anchor="middle" x="1052.02" y="-502.98" font-family="Times,serif" font-size="14.00">1</text>
</g>
<!-- 11&#45;&gt;0 -->
<g id="edge50" class="edge">
<title>11&#45;&gt;0</title>
<path fill="none" stroke="black" d="M657.66,-1053.83C611.8,-1064.01 511.91,-1085.64 427,-1100.4 371.7,-1110.02 348.8,-1087.41 302,-1118.4 263.34,-1144 266.23,-1165.02 248,-1207.65 219.2,-1275.01 76,-1770.92 76,-1844.18 76,-2158.55 76,-2158.55 76,-2158.55 76,-2232.41 338.44,-2243.88 439.22,-2245.56"/>
<polygon fill="black" stroke="black" points="439.12,-2249.06 449.17,-2245.7 439.22,-2242.06 439.12,-2249.06"/>
<text xml:space="preserve" text-anchor="middle" x="119.46" y="-1662" font-family="Times,serif" font-size="14.00">2</text>
</g>
<!-- 11&#45;&gt;9 -->
<g id="edge143" class="edge">
<title>11&#45;&gt;9</title>
<path fill="none" stroke="black" d="M674.92,-1029.54C667.28,-1012.3 657,-984.35 657,-958.9 657,-958.9 657,-958.9 657,-506.65 657,-485.8 657,-462.27 657,-444.32"/>
<polygon fill="black" stroke="black" points="660.5,-444.41 657,-434.41 653.5,-444.41 660.5,-444.41"/>
<text xml:space="preserve" text-anchor="middle" x="661.5" y="-730.1" font-family="Times,serif" font-size="14.00">4</text>
</g>
<!-- 11&#45;&gt;13 -->
<g id="edge25" class="edge">
<title>11&#45;&gt;13</title>
<path fill="none" stroke="black" d="M659.86,-1057.1C577.58,-1089.64 304,-1204.2 304,-1288.98 304,-1489.18 304,-1489.18 304,-1489.18 304,-1570.64 303.34,-1782.09 342,-1853.8 348,-1864.92 354.43,-1863.56 364,-1871.8 474.94,-1967.38 603.13,-2086.42 654.72,-2134.7"/>
<polygon fill="black" stroke="black" points="652.1,-2137.03 661.79,-2141.31 656.88,-2131.92 652.1,-2137.03"/>
<text xml:space="preserve" text-anchor="middle" x="311.04" y="-1617.38" font-family="Times,serif" font-size="14.00">0</text>
</g>
<!-- 11&#45;&gt;20 -->
<g id="edge62" class="edge">
<title>11&#45;&gt;20</title>
<path fill="none" stroke="black" d="M675.55,-1064.63C673.17,-1070.4 670.72,-1076.97 669,-1083.15 647.1,-1161.86 635.41,-1257.95 630.64,-1304.94"/>
<polygon fill="black" stroke="black" points="627.16,-1304.52 629.67,-1314.81 634.13,-1305.2 627.16,-1304.52"/>
<text xml:space="preserve" text-anchor="middle" x="653.14" y="-1176.35" font-family="Times,serif" font-size="14.00">3</text>
</g>
<!-- 11&#45;&gt;24 -->
<g id="edge109" class="edge">
<title>11&#45;&gt;24</title>
<path fill="none" stroke="black" d="M709.95,-1043.57C795.74,-1035.26 1070.08,-1007.84 1296,-975.9 1317.14,-972.91 1340.67,-968.99 1359.7,-965.66"/>
<polygon fill="black" stroke="black" points="1360.17,-969.13 1369.41,-963.95 1358.95,-962.24 1360.17,-969.13"/>
<text xml:space="preserve" text-anchor="middle" x="1149.48" y="-997.85" font-family="Times,serif" font-size="14.00">1</text>
</g>
<!-- 12 -->
<g id="node14" class="node">
<title>12</title>
<ellipse fill="none" stroke="black" cx="302" cy="-216.2" rx="27" ry="18"/>
<text xml:space="preserve" text-anchor="middle" x="302" y="-211.53" font-family="Times,serif" font-size="14.00">12</text>
</g>
<!-- 12&#45;&gt;13 -->
<g id="edge149" class="edge">
<title>12&#45;&gt;13</title>
<path fill="none" stroke="black" d="M275.2,-220C201.29,-228.45 0,-256.75 0,-314.3 0,-1756.93 0,-1756.93 0,-1756.93 0,-2056.61 497.69,-2136.12 640.26,-2152.75"/>
<polygon fill="black" stroke="black" points="639.59,-2156.2 649.92,-2153.84 640.37,-2149.24 639.59,-2156.2"/>
<text xml:space="preserve" text-anchor="middle" x="4.5" y="-1176.35" font-family="Times,serif" font-size="14.00">0</text>
</g>
<!-- 12&#45;&gt;16 -->
<g id="edge24" class="edge">
<title>12&#45;&gt;16</title>
<path fill="none" stroke="black" d="M328.62,-212.45C460.67,-198.81 1045.39,-138.41 1202.84,-122.15"/>
<polygon fill="black" stroke="black" points="1203.17,-125.63 1212.75,-121.12 1202.45,-118.67 1203.17,-125.63"/>
<text xml:space="preserve" text-anchor="middle" x="804.68" y="-166.9" font-family="Times,serif" font-size="14.00">3</text>
</g>
<!-- 12&#45;&gt;18 -->
<g id="edge29" class="edge">
<title>12&#45;&gt;18</title>
<path fill="none" stroke="black" d="M288.53,-200.4C277.47,-187.04 262.87,-166.28 258,-144.95 248.84,-104.86 240.75,-76.76 275,-54 328.24,-18.62 778.19,-18.07 914.21,-18.72"/>
<polygon fill="black" stroke="black" points="914.11,-22.22 924.13,-18.78 914.15,-15.22 914.11,-22.22"/>
<text xml:space="preserve" text-anchor="middle" x="262.5" y="-112.43" font-family="Times,serif" font-size="14.00">4</text>
</g>
<!-- 12&#45;&gt;18 -->
<g id="edge53" class="edge">
<title>12&#45;&gt;18</title>
<path fill="none" stroke="black" d="M297.01,-198.1C288,-163.25 273.97,-84.71 320,-54 369.33,-21.09 784.25,-18.79 914.23,-18.88"/>
<polygon fill="black" stroke="black" points="914.03,-22.38 924.03,-18.89 914.04,-15.38 914.03,-22.38"/>
<text xml:space="preserve" text-anchor="middle" x="298.04" y="-112.43" font-family="Times,serif" font-size="14.00">1</text>
</g>
<!-- 12&#45;&gt;18 -->
<g id="edge71" class="edge">
<title>12&#45;&gt;18</title>
<path fill="none" stroke="black" d="M305.37,-198C313.13,-160.22 333.47,-71.9 357,-54 401.2,-20.37 789.18,-18.52 914.29,-18.81"/>
<polygon fill="black" stroke="black" points="914.03,-22.31 924.04,-18.84 914.06,-15.31 914.03,-22.31"/>
<text xml:space="preserve" text-anchor="middle" x="339.76" y="-112.43" font-family="Times,serif" font-size="14.00">2</text>
</g>
<!-- 13&#45;&gt;1 -->
<g id="edge2" class="edge">
<title>13&#45;&gt;1</title>
<path fill="none" stroke="black" d="M704.72,-2153.8C827.92,-2141.09 1341.41,-2088.13 1485.98,-2073.22"/>
<polygon fill="black" stroke="black" points="1486.18,-2076.72 1495.77,-2072.21 1485.47,-2069.76 1486.18,-2076.72"/>
<text xml:space="preserve" text-anchor="middle" x="1181.27" y="-2108.25" font-family="Times,serif" font-size="14.00">3</text>
</g>
<!-- 13&#45;&gt;9 -->
<g id="edge80" class="edge">
<title>13&#45;&gt;9</title>
<path fill="none" stroke="black" d="M653.35,-2149.48C619.82,-2139.1 558.86,-2117.55 514,-2086.3 275.38,-1920.07 183.02,-1838.11 138,-1550.8 106.29,-1348.41 136.16,-800.85 259,-636.9 353.57,-510.69 542.35,-446.69 621.15,-424.58"/>
<polygon fill="black" stroke="black" points="621.78,-428.03 630.5,-422.02 619.93,-421.28 621.78,-428.03"/>
<text xml:space="preserve" text-anchor="middle" x="131.78" y="-1285.3" font-family="Times,serif" font-size="14.00">1</text>
</g>
<!-- 13&#45;&gt;10 -->
<g id="edge145" class="edge">
<title>13&#45;&gt;10</title>
<path fill="none" stroke="black" d="M705.18,-2155.74C871.81,-2150.52 1750.48,-2118.97 1828,-2032.3 1936.46,-1911.05 1860,-1830.36 1860,-1667.68 1860,-1667.68 1860,-1667.68 1860,-1487.18 1860,-1429.93 1829.18,-1275.76 1731,-1172.4 1602.76,-1037.4 1462.19,-1132.2 1361,-975.9 1337.47,-939.56 1339.01,-926.46 1322,-886.65 1291.63,-815.57 1286.79,-796.61 1255,-726.15 1253.74,-723.36 1252.4,-720.46 1251.03,-717.58"/>
<polygon fill="black" stroke="black" points="1254.3,-716.3 1246.81,-708.81 1247.99,-719.33 1254.3,-716.3"/>
<text xml:space="preserve" text-anchor="middle" x="1862.97" y="-1429.03" font-family="Times,serif" font-size="14.00">4</text>
</g>
<!-- 13&#45;&gt;19 -->
<g id="edge67" class="edge">
<title>13&#45;&gt;19</title>
<path fill="none" stroke="black" d="M705.29,-2156.71C899.27,-2157.72 2063.44,-2162.08 2125,-2121.55 2146.34,-2107.5 2149,-2094.86 2149,-2069.3 2149,-2069.3 2149,-2069.3 2149,-1621.05 2149,-1326.14 2192,-1253.81 2192,-958.9 2192,-958.9 2192,-958.9 2192,-733.78 2192,-604.56 2204.92,-553.48 2127,-450.4 2084.3,-393.91 2060.53,-388 1995,-361.15 1949.79,-342.63 1894.75,-329.92 1859.07,-322.89"/>
<polygon fill="black" stroke="black" points="1860.17,-319.54 1849.69,-321.09 1858.85,-326.41 1860.17,-319.54"/>
<text xml:space="preserve" text-anchor="middle" x="2184.08" y="-1230.83" font-family="Times,serif" font-size="14.00">0</text>
</g>
<!-- 13&#45;&gt;27 -->
<g id="edge57" class="edge">
<title>13&#45;&gt;27</title>
<path fill="none" stroke="black" d="M684.1,-2139.73C698.24,-2101.21 734.98,-2003.9 773,-1925.8 806.98,-1856 853.89,-1777.4 878.11,-1737.89"/>
<polygon fill="black" stroke="black" points="880.98,-1739.91 883.24,-1729.56 875.02,-1736.24 880.98,-1739.91"/>
<text xml:space="preserve" text-anchor="middle" x="777.5" y="-1929.75" font-family="Times,serif" font-size="14.00">2</text>
</g>
<!-- 14&#45;&gt;2 -->
<g id="edge69" class="edge">
<title>14&#45;&gt;2</title>
<path fill="none" stroke="black" d="M1135,-1633.91C1169.16,-1653.24 1233,-1697.11 1233,-1754.93 1233,-1890.8 1233,-1890.8 1233,-1890.8 1233,-1912.7 1242.61,-1935.61 1251.76,-1952.45"/>
<polygon fill="black" stroke="black" points="1248.53,-1953.86 1256.55,-1960.78 1254.6,-1950.37 1248.53,-1953.86"/>
<text xml:space="preserve" text-anchor="middle" x="1237.5" y="-1795.88" font-family="Times,serif" font-size="14.00">0</text>
</g>
<!-- 14&#45;&gt;6 -->
<g id="edge133" class="edge">
<title>14&#45;&gt;6</title>
<path fill="none" stroke="black" d="M1140.21,-1617.09C1223.03,-1604 1476.57,-1559.39 1526,-1496.8 1527.28,-1495.19 1560.88,-906.71 1561,-904.65 1572.28,-718.41 1570.51,-671.5 1587,-485.65 1594.78,-397.98 1607.8,-294.64 1614.21,-245.68"/>
<polygon fill="black" stroke="black" points="1617.66,-246.31 1615.49,-235.94 1610.72,-245.4 1617.66,-246.31"/>
<text xml:space="preserve" text-anchor="middle" x="1565.5" y="-908.6" font-family="Times,serif" font-size="14.00">4</text>
</g>
<!-- 14&#45;&gt;15 -->
<g id="edge23" class="edge">
<title>14&#45;&gt;15</title>
<path fill="none" stroke="black" d="M1119.85,-1604.17C1121.54,-1598.48 1123.16,-1592.06 1124,-1586.05 1126.29,-1569.72 1121.28,-1531.63 1120,-1514.8 1111.18,-1398.87 1116.76,-1100.78 1071,-993.9 1046.62,-936.96 1003.03,-944.91 982,-886.65 976.57,-871.6 979.52,-866.46 982,-850.65 998.12,-747.77 991.01,-694.15 1078,-636.9 1108.19,-617.03 1209.73,-607.72 1265.88,-604"/>
<polygon fill="black" stroke="black" points="1265.86,-607.51 1275.62,-603.39 1265.42,-600.52 1265.86,-607.51"/>
<text xml:space="preserve" text-anchor="middle" x="1100.65" y="-1087.1" font-family="Times,serif" font-size="14.00">1</text>
</g>
<!-- 14&#45;&gt;21 -->
<g id="edge78" class="edge">
<title>14&#45;&gt;21</title>
<path fill="none" stroke="black" d="M1112.47,-1603.98C1106.64,-1538.67 1085.28,-1298.43 1069,-1100.4 1063.02,-1027.71 1056.47,-942.1 1053.17,-898.43"/>
<polygon fill="black" stroke="black" points="1056.66,-898.24 1052.42,-888.53 1049.68,-898.77 1056.66,-898.24"/>
<text xml:space="preserve" text-anchor="middle" x="1087.16" y="-1230.83" font-family="Times,serif" font-size="14.00">2</text>
</g>
<!-- 14&#45;&gt;29 -->
<g id="edge18" class="edge">
<title>14&#45;&gt;29</title>
<path fill="none" stroke="black" d="M1087.3,-1618.36C1046.46,-1613.87 966.24,-1603.57 900,-1586.05 861.9,-1575.98 819.7,-1559.62 791.49,-1547.89"/>
<polygon fill="black" stroke="black" points="793.01,-1544.73 782.43,-1544.07 790.29,-1551.18 793.01,-1544.73"/>
<text xml:space="preserve" text-anchor="middle" x="904.5" y="-1572.75" font-family="Times,serif" font-size="14.00">3</text>
</g>
<!-- 15&#45;&gt;8 -->
<g id="edge130" class="edge">
<title>15&#45;&gt;8</title>
<path fill="none" stroke="black" d="M1328.64,-592.74C1384.99,-576.37 1523.22,-536.2 1586.02,-517.94"/>
<polygon fill="black" stroke="black" points="1586.75,-521.38 1595.38,-515.22 1584.8,-514.65 1586.75,-521.38"/>
<text xml:space="preserve" text-anchor="middle" x="1484.3" y="-551.6" font-family="Times,serif" font-size="14.00">4</text>
</g>
<!-- 15&#45;&gt;10 -->
<g id="edge139" class="edge">
<title>15&#45;&gt;10</title>
<path fill="none" stroke="black" d="M1301.25,-619.17C1298.86,-630.01 1294.56,-643.84 1287,-654.15 1281.99,-660.99 1275.23,-667.01 1268.34,-672.04"/>
<polygon fill="black" stroke="black" points="1266.64,-668.97 1260.27,-677.44 1270.52,-674.79 1266.64,-668.97"/>
<text xml:space="preserve" text-anchor="middle" x="1300.52" y="-640.85" font-family="Times,serif" font-size="14.00">0</text>
</g>
<!-- 15&#45;&gt;16 -->
<g id="edge141" class="edge">
<title>15&#45;&gt;16</title>
<path fill="none" stroke="black" d="M1280.48,-591.69C1249.25,-579.11 1198,-551.87 1198,-508.65 1198,-508.65 1198,-508.65 1198,-215.2 1198,-191.78 1208.75,-167.78 1219.63,-149.5"/>
<polygon fill="black" stroke="black" points="1222.45,-151.59 1224.81,-141.26 1216.53,-147.86 1222.45,-151.59"/>
<text xml:space="preserve" text-anchor="middle" x="1202.5" y="-365.1" font-family="Times,serif" font-size="14.00">1</text>
</g>
<!-- 15&#45;&gt;17 -->
<g id="edge82" class="edge">
<title>15&#45;&gt;17</title>
<path fill="none" stroke="black" d="M1311.69,-583.48C1314.08,-577.72 1316.49,-571.13 1318,-564.9 1335.69,-492.11 1340.43,-404.35 1341.65,-354.97"/>
<polygon fill="black" stroke="black" points="1345.14,-355.16 1341.85,-345.09 1338.15,-355.01 1345.14,-355.16"/>
<text xml:space="preserve" text-anchor="middle" x="1340.53" y="-454.35" font-family="Times,serif" font-size="14.00">3</text>
</g>
<!-- 15&#45;&gt;24 -->
<g id="edge31" class="edge">
<title>15&#45;&gt;24</title>
<path fill="none" stroke="black" d="M1308.44,-618.85C1323.26,-675.42 1371.12,-858.11 1389.61,-928.7"/>
<polygon fill="black" stroke="black" points="1386.21,-929.53 1392.13,-938.31 1392.98,-927.75 1386.21,-929.53"/>
<text xml:space="preserve" text-anchor="middle" x="1359.1" y="-774.73" font-family="Times,serif" font-size="14.00">2</text>
</g>
<!-- 16&#45;&gt;1 -->
<g id="edge146" class="edge">
<title>16&#45;&gt;1</title>
<path fill="none" stroke="black" d="M1270.21,-117.92C1428.78,-117.26 2202,-118.98 2202,-215.2 2202,-460.03 2202,-460.03 2202,-460.03 2202,-558.37 2158.93,-575.84 2139,-672.15 2083.05,-942.53 2065,-1012.87 2065,-1288.98 2065,-1980.05 2065,-1980.05 2065,-1980.05 2065,-2031.03 1685.77,-2057.81 1562.33,-2065.17"/>
<polygon fill="black" stroke="black" points="1562.49,-2061.66 1552.71,-2065.74 1562.9,-2068.64 1562.49,-2061.66"/>
<text xml:space="preserve" text-anchor="middle" x="2075.01" y="-1087.1" font-family="Times,serif" font-size="14.00">4</text>
</g>
<!-- 16&#45;&gt;7 -->
<g id="edge93" class="edge">
<title>16&#45;&gt;7</title>
<path fill="none" stroke="black" d="M1213.72,-118.42C1155.78,-120.72 1029,-134.94 1029,-215.2 1029,-370.78 1029,-370.78 1029,-370.78 1029,-414.56 992.27,-412.13 971,-450.4 912.34,-555.92 865.38,-692.66 846.72,-750.55"/>
<polygon fill="black" stroke="black" points="843.43,-749.33 843.73,-759.92 850.1,-751.46 843.43,-749.33"/>
<text xml:space="preserve" text-anchor="middle" x="975.5" y="-454.35" font-family="Times,serif" font-size="14.00">3</text>
</g>
<!-- 16&#45;&gt;15 -->
<g id="edge132" class="edge">
<title>16&#45;&gt;15</title>
<path fill="none" stroke="black" d="M1214.61,-124.36C1174.63,-135.3 1105,-162 1105,-215.2 1105,-508.65 1105,-508.65 1105,-508.65 1105,-578.52 1207.62,-595.1 1265.48,-598.89"/>
<polygon fill="black" stroke="black" points="1265.06,-602.38 1275.24,-599.43 1265.44,-595.39 1265.06,-602.38"/>
<text xml:space="preserve" text-anchor="middle" x="1109.5" y="-365.1" font-family="Times,serif" font-size="14.00">2</text>
</g>
<!-- 16&#45;&gt;16 -->
<g id="edge45" class="edge">
<title>16&#45;&gt;16</title>
<path fill="none" stroke="black" d="M1268.39,-127.25C1278.97,-127.83 1287.85,-124.44 1287.85,-117.1 1287.85,-112.63 1284.55,-109.62 1279.58,-108.09"/>
<polygon fill="black" stroke="black" points="1280.19,-104.63 1269.89,-107.1 1279.49,-111.6 1280.19,-104.63"/>
<text xml:space="preserve" text-anchor="middle" x="1292.35" y="-112.43" font-family="Times,serif" font-size="14.00">0</text>
</g>
<!-- 16&#45;&gt;18 -->
<g id="edge85" class="edge">
<title>16&#45;&gt;18</title>
<path fill="none" stroke="black" d="M1215.59,-107.23C1163.2,-89.63 1046.18,-50.31 987.68,-30.65"/>
<polygon fill="black" stroke="black" points="988.82,-27.34 978.23,-27.48 986.59,-33.98 988.82,-27.34"/>
<text xml:space="preserve" text-anchor="middle" x="1110.67" y="-57.95" font-family="Times,serif" font-size="14.00">1</text>
</g>
<!-- 17&#45;&gt;1 -->
<g id="edge56" class="edge">
<title>17&#45;&gt;1</title>
<path fill="none" stroke="black" d="M1367.29,-327.23C1384.46,-335.29 1407.19,-347.23 1425,-361.15 1458.77,-387.54 1454.08,-409.01 1490,-432.4 1552.45,-473.07 1581.77,-453.49 1649,-485.65 1721.35,-520.26 1755.22,-517.05 1801,-582.9 1863.33,-672.56 1853,-713.83 1853,-823.03 1853,-1048.15 1853,-1048.15 1853,-1048.15 1853,-1244.04 1814,-1291.29 1814,-1487.18 1814,-1980.05 1814,-1980.05 1814,-1980.05 1814,-2006.15 1639.54,-2044.25 1561.25,-2060.04"/>
<polygon fill="black" stroke="black" points="1560.6,-2056.6 1551.47,-2061.99 1561.97,-2063.46 1560.6,-2056.6"/>
<text xml:space="preserve" text-anchor="middle" x="1851.29" y="-1176.35" font-family="Times,serif" font-size="14.00">1</text>
</g>
<!-- 17&#45;&gt;10 -->
<g id="edge131" class="edge">
<title>17&#45;&gt;10</title>
<path fill="none" stroke="black" d="M1316.76,-327.76C1287.73,-342.88 1244,-372.44 1244,-413.4 1244,-601.9 1244,-601.9 1244,-601.9 1244,-621.45 1242.48,-643.4 1240.97,-660.4"/>
<polygon fill="black" stroke="black" points="1237.5,-660 1240.04,-670.29 1244.46,-660.66 1237.5,-660"/>
<text xml:space="preserve" text-anchor="middle" x="1248.5" y="-502.98" font-family="Times,serif" font-size="14.00">4</text>
</g>
<!-- 17&#45;&gt;15 -->
<g id="edge112" class="edge">
<title>17&#45;&gt;15</title>
<path fill="none" stroke="black" d="M1337.44,-343.22C1332.95,-370.26 1326.03,-413.15 1321,-450.4 1315.31,-492.49 1309.99,-541.43 1306.87,-571.53"/>
<polygon fill="black" stroke="black" points="1303.4,-571.02 1305.86,-581.33 1310.36,-571.74 1303.4,-571.02"/>
<text xml:space="preserve" text-anchor="middle" x="1325.5" y="-454.35" font-family="Times,serif" font-size="14.00">0</text>
</g>
<!-- 17&#45;&gt;16 -->
<g id="edge72" class="edge">
<title>17&#45;&gt;16</title>
<path fill="none" stroke="black" d="M1329.54,-289.85C1311.94,-255.31 1279.71,-192.09 1259.65,-152.73"/>
<polygon fill="black" stroke="black" points="1262.81,-151.22 1255.15,-143.9 1256.57,-154.4 1262.81,-151.22"/>
<text xml:space="preserve" text-anchor="middle" x="1304.8" y="-211.53" font-family="Times,serif" font-size="14.00">2</text>
</g>
<!-- 17&#45;&gt;24 -->
<g id="edge54" class="edge">
<title>17&#45;&gt;24</title>
<path fill="none" stroke="black" d="M1365.96,-329.71C1391.4,-345.93 1428,-375.79 1428,-413.4 1428,-735.78 1428,-735.78 1428,-735.78 1428,-805.64 1412.64,-886.72 1403.54,-928.6"/>
<polygon fill="black" stroke="black" points="1400.13,-927.81 1401.38,-938.34 1406.97,-929.33 1400.13,-927.81"/>
<text xml:space="preserve" text-anchor="middle" x="1432.5" y="-640.85" font-family="Times,serif" font-size="14.00">3</text>
</g>
<!-- 18&#45;&gt;0 -->
<g id="edge94" class="edge">
<title>18&#45;&gt;0</title>
<path fill="none" stroke="black" d="M980.23,-19.47C1172.33,-22.94 2316,-46.56 2316,-116.1 2316,-2158.55 2316,-2158.55 2316,-2158.55 2316,-2222.06 2245.49,-2199.45 2183,-2210.8 2014.34,-2241.44 755.39,-2245.29 516.92,-2245.74"/>
<polygon fill="black" stroke="black" points="516.93,-2242.24 506.93,-2245.76 516.94,-2249.24 516.93,-2242.24"/>
<text xml:space="preserve" text-anchor="middle" x="2320.5" y="-1131.73" font-family="Times,serif" font-size="14.00">0</text>
</g>
<!-- 18&#45;&gt;0 -->
<g id="edge134" class="edge">
<title>18&#45;&gt;0</title>
<path fill="none" stroke="black" d="M980.14,-18.94C1103.45,-18.89 1623.25,-20.74 2048,-54 2601.95,-97.38 2361,-10.97 2361,-116.1 2361,-2158.55 2361,-2158.55 2361,-2158.55 2361,-2210.68 2306.7,-2198.68 2256,-2210.8 2168.57,-2231.71 768.2,-2243.55 516.57,-2245.51"/>
<polygon fill="black" stroke="black" points="516.63,-2242.01 506.65,-2245.59 516.68,-2249.01 516.63,-2242.01"/>
<text xml:space="preserve" text-anchor="middle" x="2365.5" y="-1131.73" font-family="Times,serif" font-size="14.00">3</text>
</g>
<!-- 18&#45;&gt;4 -->
<g id="edge151" class="edge">
<title>18&#45;&gt;4</title>
<path fill="none" stroke="black" d="M925.81,-18.94C837.65,-19.06 560.62,-22.05 478,-54 454.3,-63.16 445.24,-66.99 433,-89.25 344.65,-249.89 376,-728.94 376,-912.28 376,-1092.78 376,-1092.78 376,-1092.78 376,-1341.32 416.67,-1402.88 491,-1640.05 508.93,-1697.27 509.73,-1714.66 543,-1764.55 545.32,-1768.03 547.85,-1771.64 550.39,-1775.16"/>
<polygon fill="black" stroke="black" points="547.35,-1776.93 556.11,-1782.9 552.98,-1772.77 547.35,-1776.93"/>
<text xml:space="preserve" text-anchor="middle" x="380.5" y="-908.6" font-family="Times,serif" font-size="14.00">4</text>
</g>
<!-- 18&#45;&gt;23 -->
<g id="edge3" class="edge">
<title>18&#45;&gt;23</title>
<path fill="none" stroke="black" d="M953,-36.19C953,-55.6 953,-88.12 953,-116.1 953,-316.3 953,-316.3 953,-316.3 953,-398.44 895.8,-405.25 879,-485.65 840.09,-671.88 914,-722.03 914,-912.28 914,-1048.15 914,-1048.15 914,-1048.15 914,-1068.03 910.91,-1090.22 907.86,-1107.24"/>
<polygon fill="black" stroke="black" points="904.5,-1106.15 906.08,-1116.63 911.38,-1107.46 904.5,-1106.15"/>
<text xml:space="preserve" text-anchor="middle" x="873.41" y="-596.23" font-family="Times,serif" font-size="14.00">2</text>
</g>
<!-- 18&#45;&gt;27 -->
<g id="edge13" class="edge">
<title>18&#45;&gt;27</title>
<path fill="none" stroke="black" d="M925.8,-18.38C820.69,-16.72 447,-17.71 447,-116.1 447,-316.3 447,-316.3 447,-316.3 447,-753.89 455.46,-864.94 514,-1298.6 531.71,-1429.79 502.56,-1488.46 592,-1586.05 663.94,-1664.55 792.87,-1694.75 856.45,-1705.26"/>
<polygon fill="black" stroke="black" points="855.61,-1708.67 866.03,-1706.77 856.7,-1701.76 855.61,-1708.67"/>
<text xml:space="preserve" text-anchor="middle" x="469.14" y="-863.98" font-family="Times,serif" font-size="14.00">1</text>
</g>
<!-- 19&#45;&gt;4 -->
<g id="edge46" class="edge">
<title>19&#45;&gt;4</title>
<path fill="none" stroke="black" d="M1798.4,-324.61C1781.41,-331.76 1759.25,-343.71 1746,-361.15 1731.46,-380.29 1732,-389.36 1732,-413.4 1732,-557.28 1732,-557.28 1732,-557.28 1732,-636.92 1701,-654.13 1701,-733.78 1701,-1003.53 1701,-1003.53 1701,-1003.53 1701,-1019.53 1662,-1272.97 1662,-1288.98 1662,-1712.3 1662,-1712.3 1662,-1712.3 1662,-1782.48 1582.05,-1752.03 1513,-1764.55 1329.72,-1797.78 860.51,-1765.76 675,-1782.55 651.88,-1784.64 626.17,-1788.73 605.85,-1792.36"/>
<polygon fill="black" stroke="black" points="605.27,-1788.91 596.07,-1794.16 606.54,-1795.8 605.27,-1788.91"/>
<text xml:space="preserve" text-anchor="middle" x="1702.53" y="-1042.48" font-family="Times,serif" font-size="14.00">2</text>
</g>
<!-- 19&#45;&gt;5 -->
<g id="edge10" class="edge">
<title>19&#45;&gt;5</title>
<path fill="none" stroke="black" d="M1826.15,-333.27C1828.1,-341.63 1830.35,-351.88 1832,-361.15 1833.39,-368.93 1834.63,-377.4 1835.68,-385.22"/>
<polygon fill="black" stroke="black" points="1832.17,-385.42 1836.91,-394.9 1839.12,-384.54 1832.17,-385.42"/>
<text xml:space="preserve" text-anchor="middle" x="1839.22" y="-365.1" font-family="Times,serif" font-size="14.00">1</text>
</g>
<!-- 19&#45;&gt;6 -->
<g id="edge48" class="edge">
<title>19&#45;&gt;6</title>
<path fill="none" stroke="black" d="M1800.55,-304.09C1764.51,-286.94 1691.63,-252.25 1649.67,-232.28"/>
<polygon fill="black" stroke="black" points="1651.36,-229.21 1640.83,-228.07 1648.36,-235.53 1651.36,-229.21"/>
<text xml:space="preserve" text-anchor="middle" x="1730.62" y="-256.15" font-family="Times,serif" font-size="14.00">4</text>
</g>
<!-- 19&#45;&gt;13 -->
<g id="edge120" class="edge">
<title>19&#45;&gt;13</title>
<path fill="none" stroke="black" d="M1843.73,-326.34C1890.08,-348.75 1999.66,-407.1 2064,-485.65 2126.55,-562.02 2153,-590.44 2153,-689.15 2153,-914.28 2153,-914.28 2153,-914.28 2153,-1081.85 2111,-1121.4 2111,-1288.98 2111,-2069.3 2111,-2069.3 2111,-2069.3 2111,-2116.71 2063.71,-2108.95 2018,-2121.55 1889.87,-2156.88 923.32,-2157.03 716.77,-2156.65"/>
<polygon fill="black" stroke="black" points="716.86,-2153.15 706.85,-2156.63 716.85,-2160.15 716.86,-2153.15"/>
<text xml:space="preserve" text-anchor="middle" x="2119.18" y="-1230.83" font-family="Times,serif" font-size="14.00">3</text>
</g>
<!-- 19&#45;&gt;14 -->
<g id="edge97" class="edge">
<title>19&#45;&gt;14</title>
<path fill="none" stroke="black" d="M1816.75,-333.28C1812.08,-349.36 1805.59,-374.26 1803,-396.4 1799.32,-427.85 1798.76,-436.27 1803,-467.65 1807.93,-504.2 1818.01,-511.44 1825,-547.65 1827.99,-563.13 1828.11,-567.16 1829,-582.9 1839.81,-773.98 1835.38,-826.8 1784,-1011.15 1749.37,-1135.41 1700,-1159.98 1700,-1288.98 1700,-1533.8 1700,-1533.8 1700,-1533.8 1700,-1599.38 1626,-1571.74 1562,-1586.05 1552.04,-1588.28 1258.63,-1610.28 1152.14,-1618.22"/>
<polygon fill="black" stroke="black" points="1152.2,-1614.7 1142.49,-1618.94 1152.72,-1621.68 1152.2,-1614.7"/>
<text xml:space="preserve" text-anchor="middle" x="1807.35" y="-953.23" font-family="Times,serif" font-size="14.00">0</text>
</g>
<!-- 20&#45;&gt;0 -->
<g id="edge39" class="edge">
<title>20&#45;&gt;0</title>
<path fill="none" stroke="black" d="M608.68,-1347.57C567.31,-1373.88 468.69,-1440.38 404,-1514.8 319.72,-1611.78 314.4,-1655.54 295,-1782.55 218.57,-2282.89 266.99,-2147.26 276,-2175.55 281.83,-2193.85 284.88,-2200.36 301,-2210.8 342.94,-2237.96 401.33,-2244.86 439.39,-2246.21"/>
<polygon fill="black" stroke="black" points="438.91,-2249.7 448.99,-2246.43 439.08,-2242.7 438.91,-2249.7"/>
<text xml:space="preserve" text-anchor="middle" x="299.5" y="-1795.88" font-family="Times,serif" font-size="14.00">4</text>
</g>
<!-- 20&#45;&gt;11 -->
<g id="edge75" class="edge">
<title>20&#45;&gt;11</title>
<path fill="none" stroke="black" d="M627.26,-1316.18C626.94,-1306.02 626.69,-1292.96 627,-1281.35 628.31,-1232.87 624.68,-1220.18 633,-1172.4 637.29,-1147.74 641.41,-1142.25 649,-1118.4 654.02,-1102.63 653.88,-1098.09 661,-1083.15 662.53,-1079.95 664.28,-1076.68 666.12,-1073.49"/>
<polygon fill="black" stroke="black" points="669.07,-1075.38 671.32,-1065.02 663.1,-1071.71 669.07,-1075.38"/>
<text xml:space="preserve" text-anchor="middle" x="637.5" y="-1176.35" font-family="Times,serif" font-size="14.00">1</text>
</g>
<!-- 20&#45;&gt;14 -->
<g id="edge58" class="edge">
<title>20&#45;&gt;14</title>
<path fill="none" stroke="black" d="M641.52,-1350.44C651.68,-1361.28 666.17,-1376.06 680,-1387.85 690.42,-1396.73 695.6,-1395.9 705,-1405.85 737.93,-1440.69 724.82,-1467.8 763,-1496.8 784.83,-1513.39 796.52,-1504.69 822,-1514.8 888.37,-1541.14 898.82,-1561.85 966,-1586.05 1002.78,-1599.31 1046.53,-1608.94 1076.88,-1614.7"/>
<polygon fill="black" stroke="black" points="1075.86,-1618.07 1086.33,-1616.45 1077.13,-1611.19 1075.86,-1618.07"/>
<text xml:space="preserve" text-anchor="middle" x="767.5" y="-1483.5" font-family="Times,serif" font-size="14.00">3</text>
</g>
<!-- 20&#45;&gt;14 -->
<g id="edge74" class="edge">
<title>20&#45;&gt;14</title>
<path fill="none" stroke="black" d="M652.83,-1342.14C690.68,-1352.63 764.46,-1375.2 822,-1405.85 894.41,-1444.42 912.75,-1457.03 971,-1514.8 999.02,-1542.6 992.61,-1562.13 1024,-1586.05 1039.86,-1598.14 1060.41,-1606.55 1077.87,-1612.09"/>
<polygon fill="black" stroke="black" points="1076.78,-1615.42 1087.37,-1614.9 1078.77,-1608.71 1076.78,-1615.42"/>
<text xml:space="preserve" text-anchor="middle" x="956.79" y="-1483.5" font-family="Times,serif" font-size="14.00">0</text>
</g>
<!-- 20&#45;&gt;26 -->
<g id="edge27" class="edge">
<title>20&#45;&gt;26</title>
<path fill="none" stroke="black" d="M654.18,-1329.57C712.82,-1320.58 859.23,-1298.34 982,-1281.35 1093.59,-1265.91 1225.61,-1249.3 1289.9,-1241.32"/>
<polygon fill="black" stroke="black" points="1290.09,-1244.83 1299.59,-1240.12 1289.23,-1237.88 1290.09,-1244.83"/>
<text xml:space="preserve" text-anchor="middle" x="986.5" y="-1285.3" font-family="Times,serif" font-size="14.00">2</text>
</g>
<!-- 21&#45;&gt;7 -->
<g id="edge41" class="edge">
<title>21&#45;&gt;7</title>
<path fill="none" stroke="black" d="M1028.21,-858.31C990.49,-842.87 914.95,-811.92 871.27,-794.03"/>
<polygon fill="black" stroke="black" points="872.61,-790.8 862.03,-790.25 869.96,-797.27 872.61,-790.8"/>
<text xml:space="preserve" text-anchor="middle" x="968.08" y="-819.35" font-family="Times,serif" font-size="14.00">3</text>
</g>
<!-- 21&#45;&gt;8 -->
<g id="edge49" class="edge">
<title>21&#45;&gt;8</title>
<path fill="none" stroke="black" d="M1078.07,-866.65C1140.05,-864 1290.39,-855.34 1335,-832.65 1417.63,-790.63 1352.27,-711.72 1407,-636.9 1431.09,-603.96 1536.05,-549.09 1588.27,-523.12"/>
<polygon fill="black" stroke="black" points="1589.49,-526.42 1596.91,-518.85 1586.39,-520.14 1589.49,-526.42"/>
<text xml:space="preserve" text-anchor="middle" x="1393.44" y="-685.48" font-family="Times,serif" font-size="14.00">4</text>
</g>
<!-- 21&#45;&gt;10 -->
<g id="edge124" class="edge">
<title>21&#45;&gt;10</title>
<path fill="none" stroke="black" d="M1058.97,-851.42C1073.9,-822.54 1108.68,-761.92 1154,-726.15 1168.21,-714.94 1186.52,-706.75 1202.42,-701.13"/>
<polygon fill="black" stroke="black" points="1203.13,-704.58 1211.53,-698.11 1200.93,-697.93 1203.13,-704.58"/>
<text xml:space="preserve" text-anchor="middle" x="1122.6" y="-774.73" font-family="Times,serif" font-size="14.00">1</text>
</g>
<!-- 21&#45;&gt;18 -->
<g id="edge106" class="edge">
<title>21&#45;&gt;18</title>
<path fill="none" stroke="black" d="M1050.66,-850.37C1050.19,-826.36 1049.38,-781.59 1049,-743.4 1048.96,-739.82 1048.9,-489.11 1048,-485.65 1045.69,-476.8 1042.22,-475.77 1038,-467.65 1015.93,-425.19 991,-418.63 991,-370.78 991,-370.78 991,-370.78 991,-116.1 991,-90.56 979.46,-63.68 969.09,-44.69"/>
<polygon fill="black" stroke="black" points="972.16,-42.99 964.14,-36.06 966.09,-46.48 972.16,-42.99"/>
<text xml:space="preserve" text-anchor="middle" x="1042.5" y="-454.35" font-family="Times,serif" font-size="14.00">0</text>
</g>
<!-- 21&#45;&gt;21 -->
<g id="edge116" class="edge">
<title>21&#45;&gt;21</title>
<path fill="none" stroke="black" d="M1075.53,-876.89C1086.51,-877.67 1096,-874.93 1096,-868.65 1096,-864.73 1092.29,-862.19 1086.83,-861.02"/>
<polygon fill="black" stroke="black" points="1087.22,-857.54 1077.04,-860.5 1086.84,-864.53 1087.22,-857.54"/>
<text xml:space="preserve" text-anchor="middle" x="1100.5" y="-863.98" font-family="Times,serif" font-size="14.00">2</text>
</g>
<!-- 22&#45;&gt;8 -->
<g id="edge79" class="edge">
<title>22&#45;&gt;8</title>
<path fill="none" stroke="black" d="M1735.18,-1785.92C1752.03,-1770.11 1776,-1742.34 1776,-1712.3 1776,-1712.3 1776,-1712.3 1776,-1487.18 1776,-1317.98 1804.98,-887.16 1753,-726.15 1728.16,-649.21 1670.45,-571.79 1639.13,-533.42"/>
<polygon fill="black" stroke="black" points="1642.18,-531.61 1633.1,-526.14 1636.78,-536.07 1642.18,-531.61"/>
<text xml:space="preserve" text-anchor="middle" x="1788.38" y="-1131.73" font-family="Times,serif" font-size="14.00">0</text>
</g>
<!-- 22&#45;&gt;11 -->
<g id="edge99" class="edge">
<title>22&#45;&gt;11</title>
<path fill="none" stroke="black" d="M1691.69,-1798.65C1553.24,-1793.87 932.68,-1770.33 858,-1729.3 674.15,-1628.31 683,-1500.74 683,-1290.98 683,-1290.98 683,-1290.98 683,-1135.4 683,-1115.9 683,-1093.94 683,-1076.94"/>
<polygon fill="black" stroke="black" points="686.5,-1077.05 683,-1067.05 679.5,-1077.05 686.5,-1077.05"/>
<text xml:space="preserve" text-anchor="middle" x="690.72" y="-1429.03" font-family="Times,serif" font-size="14.00">2</text>
</g>
<!-- 22&#45;&gt;15 -->
<g id="edge38" class="edge">
<title>22&#45;&gt;15</title>
<path fill="none" stroke="black" d="M1724.91,-1782.74C1730.49,-1765.34 1738,-1737.26 1738,-1712.3 1738,-1712.3 1738,-1712.3 1738,-1288.98 1738,-1201.67 1707.02,-1184.34 1683,-1100.4 1664.9,-1037.16 1634.84,-872.96 1603,-815.4 1551.14,-721.66 1532.78,-692.16 1441,-636.9 1410.69,-618.65 1371.08,-609.85 1342.25,-605.65"/>
<polygon fill="black" stroke="black" points="1342.87,-602.21 1332.5,-604.37 1341.96,-609.15 1342.87,-602.21"/>
<text xml:space="preserve" text-anchor="middle" x="1722.32" y="-1176.35" font-family="Times,serif" font-size="14.00">1</text>
</g>
<!-- 22&#45;&gt;16 -->
<g id="edge33" class="edge">
<title>22&#45;&gt;16</title>
<path fill="none" stroke="black" d="M1746.19,-1798.42C1796.26,-1794.73 1898,-1779.03 1898,-1712.3 1898,-1712.3 1898,-1712.3 1898,-1288.98 1898,-1186.64 1929.78,-1165.04 1952,-1065.15 1960.79,-1025.65 1962.19,-1015.61 1970,-975.9 1999.62,-825.29 1998.68,-785.79 2036,-636.9 2066.09,-516.85 2118,-494.54 2118,-370.78 2118,-370.78 2118,-370.78 2118,-215.2 2118,-129.84 1452.43,-119.51 1281.58,-118.27"/>
<polygon fill="black" stroke="black" points="1281.69,-114.77 1271.67,-118.2 1281.64,-121.77 1281.69,-114.77"/>
<text xml:space="preserve" text-anchor="middle" x="1981.28" y="-953.23" font-family="Times,serif" font-size="14.00">4</text>
</g>
<!-- 22&#45;&gt;27 -->
<g id="edge16" class="edge">
<title>22&#45;&gt;27</title>
<path fill="none" stroke="black" d="M1692.92,-1794.85C1635.84,-1784.7 1495.48,-1760.62 1377,-1747.3 1212.13,-1728.76 1014.45,-1718.01 932.5,-1714.05"/>
<polygon fill="black" stroke="black" points="932.7,-1710.56 922.55,-1713.58 932.37,-1717.55 932.7,-1710.56"/>
<text xml:space="preserve" text-anchor="middle" x="1504.1" y="-1751.25" font-family="Times,serif" font-size="14.00">3</text>
</g>
<!-- 23&#45;&gt;11 -->
<g id="edge135" class="edge">
<title>23&#45;&gt;11</title>
<path fill="none" stroke="black" d="M879.39,-1126.39C840.7,-1110.98 761.63,-1079.48 716.51,-1061.5"/>
<polygon fill="black" stroke="black" points="717.81,-1058.25 707.22,-1057.8 715.22,-1064.75 717.81,-1058.25"/>
<text xml:space="preserve" text-anchor="middle" x="816.62" y="-1087.1" font-family="Times,serif" font-size="14.00">3</text>
</g>
<!-- 25 -->
<g id="node27" class="node">
<title>25</title>
<ellipse fill="none" stroke="black" cx="785" cy="-1433.7" rx="23.85" ry="23.85"/>
<ellipse fill="none" stroke="black" cx="785" cy="-1433.7" rx="27.85" ry="27.85"/>
<text xml:space="preserve" text-anchor="middle" x="785" y="-1429.03" font-family="Times,serif" font-size="14.00">25</text>
</g>
<!-- 23&#45;&gt;25 -->
<g id="edge28" class="edge">
<title>23&#45;&gt;25</title>
<path fill="none" stroke="black" d="M880.02,-1147.26C857.92,-1158.47 824.9,-1178.98 809,-1207.65 776.33,-1266.57 776.66,-1347.53 780.44,-1394.57"/>
<polygon fill="black" stroke="black" points="776.93,-1394.61 781.32,-1404.25 783.9,-1393.98 776.93,-1394.61"/>
<text xml:space="preserve" text-anchor="middle" x="788.56" y="-1285.3" font-family="Times,serif" font-size="14.00">0</text>
</g>
<!-- 23&#45;&gt;26 -->
<g id="edge125" class="edge">
<title>23&#45;&gt;26</title>
<path fill="none" stroke="black" d="M924.25,-1146.9C957.78,-1161.16 1018.46,-1186.74 1029,-1189.65 1120.42,-1214.89 1231.68,-1226.81 1289.63,-1231.67"/>
<polygon fill="black" stroke="black" points="1289.06,-1235.13 1299.31,-1232.45 1289.63,-1228.16 1289.06,-1235.13"/>
<text xml:space="preserve" text-anchor="middle" x="1033.5" y="-1176.35" font-family="Times,serif" font-size="14.00">4</text>
</g>
<!-- 23&#45;&gt;29 -->
<g id="edge101" class="edge">
<title>23&#45;&gt;29</title>
<path fill="none" stroke="black" d="M898.89,-1154.62C888.1,-1213.49 851.27,-1406.21 822,-1461.55 812.26,-1479.97 796.66,-1497.42 783.41,-1510.32"/>
<polygon fill="black" stroke="black" points="781.12,-1507.67 776.24,-1517.07 785.92,-1512.77 781.12,-1507.67"/>
<text xml:space="preserve" text-anchor="middle" x="869.65" y="-1329.93" font-family="Times,serif" font-size="14.00">2</text>
</g>
<!-- 23&#45;&gt;29 -->
<g id="edge121" class="edge">
<title>23&#45;&gt;29</title>
<path fill="none" stroke="black" d="M902.57,-1154.73C903.53,-1205.17 901.22,-1355.09 846,-1461.55 836.79,-1479.31 833.08,-1483.65 818,-1496.8 809.7,-1504.05 799.69,-1510.63 790.29,-1516.08"/>
<polygon fill="black" stroke="black" points="788.82,-1512.89 781.77,-1520.79 792.21,-1519.01 788.82,-1512.89"/>
<text xml:space="preserve" text-anchor="middle" x="895.08" y="-1329.93" font-family="Times,serif" font-size="14.00">1</text>
</g>
<!-- 24&#45;&gt;0 -->
<g id="edge64" class="edge">
<title>24&#45;&gt;0</title>
<path fill="none" stroke="black" d="M1424.09,-958.98C1531.88,-960.9 1933.72,-983.34 2124,-1207.65 2284.38,-1396.71 2232,-1507 2232,-1754.93 2232,-2158.55 2232,-2158.55 2232,-2158.55 2232,-2247.51 773.77,-2246.78 516.53,-2245.96"/>
<polygon fill="black" stroke="black" points="516.72,-2242.46 506.71,-2245.93 516.7,-2249.46 516.72,-2242.46"/>
<text xml:space="preserve" text-anchor="middle" x="2241.46" y="-1617.38" font-family="Times,serif" font-size="14.00">4</text>
</g>
<!-- 24&#45;&gt;13 -->
<g id="edge150" class="edge">
<title>24&#45;&gt;13</title>
<path fill="none" stroke="black" d="M1424.13,-960.27C1543.84,-967.91 2019,-1015.44 2019,-1288.98 2019,-2069.3 2019,-2069.3 2019,-2069.3 2019,-2094.86 2016.33,-2107.48 1995,-2121.55 1940.34,-2157.63 929.16,-2157.17 716.89,-2156.67"/>
<polygon fill="black" stroke="black" points="716.96,-2153.17 706.95,-2156.64 716.95,-2160.17 716.96,-2153.17"/>
<text xml:space="preserve" text-anchor="middle" x="2023.5" y="-1572.75" font-family="Times,serif" font-size="14.00">1</text>
</g>
<!-- 24&#45;&gt;14 -->
<g id="edge137" class="edge">
<title>24&#45;&gt;14</title>
<path fill="none" stroke="black" d="M1397.4,-976.15C1398.05,-1023.23 1396.82,-1157.51 1366,-1263.35 1354.78,-1301.87 1233.68,-1559.05 1204,-1586.05 1189.18,-1599.54 1168.58,-1608.06 1150.83,-1613.31"/>
<polygon fill="black" stroke="black" points="1150.15,-1609.87 1141.41,-1615.85 1151.97,-1616.63 1150.15,-1609.87"/>
<text xml:space="preserve" text-anchor="middle" x="1363.71" y="-1285.3" font-family="Times,serif" font-size="14.00">0</text>
</g>
<!-- 24&#45;&gt;18 -->
<g id="edge113" class="edge">
<title>24&#45;&gt;18</title>
<path fill="none" stroke="black" d="M1424.11,-955.35C1532.52,-948.81 1929,-921.36 1929,-869.65 1929,-869.65 1929,-869.65 1929,-506.65 1929,-388.08 2035,-380.4 2035,-261.83 2035,-261.83 2035,-261.83 2035,-116.1 2035,0.98 1894.93,-70.36 1779,-54 1623.98,-32.13 1133.39,-22.12 991.68,-19.63"/>
<polygon fill="black" stroke="black" points="991.77,-16.14 981.71,-19.46 991.65,-23.14 991.77,-16.14"/>
<text xml:space="preserve" text-anchor="middle" x="1933.5" y="-502.98" font-family="Times,serif" font-size="14.00">3</text>
</g>
<!-- 24&#45;&gt;21 -->
<g id="edge40" class="edge">
<title>24&#45;&gt;21</title>
<path fill="none" stroke="black" d="M1372.1,-950.22C1334.31,-940.13 1260.18,-920.48 1197,-904.65 1159.72,-895.31 1116.96,-885.12 1087.39,-878.16"/>
<polygon fill="black" stroke="black" points="1088.37,-874.79 1077.83,-875.91 1086.77,-881.61 1088.37,-874.79"/>
<text xml:space="preserve" text-anchor="middle" x="1267.59" y="-908.6" font-family="Times,serif" font-size="14.00">2</text>
</g>
<!-- 25&#45;&gt;2 -->
<g id="edge43" class="edge">
<title>25&#45;&gt;2</title>
<path fill="none" stroke="black" d="M763.27,-1451.75C732.84,-1477.82 682.07,-1530.46 690,-1586.05 695.84,-1626.95 698.51,-1637.87 716,-1675.3 717.65,-1678.83 868.74,-1905.68 872,-1907.8 930.93,-1946.22 1142.41,-1967.68 1229.8,-1975.08"/>
<polygon fill="black" stroke="black" points="1229.27,-1978.55 1239.53,-1975.88 1229.85,-1971.57 1229.27,-1978.55"/>
<text xml:space="preserve" text-anchor="middle" x="755.87" y="-1706.63" font-family="Times,serif" font-size="14.00">4</text>
</g>
<!-- 25&#45;&gt;2 -->
<g id="edge122" class="edge">
<title>25&#45;&gt;2</title>
<path fill="none" stroke="black" d="M759.78,-1446.36C735.62,-1459.18 700.97,-1482.36 688,-1514.8 615.67,-1695.74 621.33,-1832.8 782,-1943.05 818.56,-1968.14 1121.16,-1975.61 1229.56,-1977.49"/>
<polygon fill="black" stroke="black" points="1229.33,-1980.99 1239.39,-1977.66 1229.45,-1973.99 1229.33,-1980.99"/>
<text xml:space="preserve" text-anchor="middle" x="648.75" y="-1706.63" font-family="Times,serif" font-size="14.00">3</text>
</g>
<!-- 25&#45;&gt;11 -->
<g id="edge138" class="edge">
<title>25&#45;&gt;11</title>
<path fill="none" stroke="black" d="M774.01,-1407.64C762.79,-1379.73 747,-1333.01 747,-1290.98 747,-1290.98 747,-1290.98 747,-1135.4 747,-1108.44 726.89,-1084.29 709.21,-1068.27"/>
<polygon fill="black" stroke="black" points="711.85,-1065.92 701.98,-1062.07 707.29,-1071.23 711.85,-1065.92"/>
<text xml:space="preserve" text-anchor="middle" x="751.5" y="-1230.83" font-family="Times,serif" font-size="14.00">0</text>
</g>
<!-- 25&#45;&gt;14 -->
<g id="edge4" class="edge">
<title>25&#45;&gt;14</title>
<path fill="none" stroke="black" d="M807.86,-1449.88C814.01,-1453.8 820.69,-1457.93 827,-1461.55 872.04,-1487.4 890.77,-1481.96 931,-1514.8 962.41,-1540.45 954.16,-1563.71 988,-1586.05 1014.49,-1603.54 1049.63,-1612.37 1076.06,-1616.77"/>
<polygon fill="black" stroke="black" points="1075.27,-1620.19 1085.68,-1618.23 1076.31,-1613.27 1075.27,-1620.19"/>
<text xml:space="preserve" text-anchor="middle" x="962.28" y="-1528.13" font-family="Times,serif" font-size="14.00">2</text>
</g>
<!-- 25&#45;&gt;20 -->
<g id="edge111" class="edge">
<title>25&#45;&gt;20</title>
<path fill="none" stroke="black" d="M762,-1417.75C755.86,-1413.83 749.21,-1409.64 743,-1405.85 729.4,-1397.56 725.65,-1396.06 712,-1387.85 693.47,-1376.71 672.86,-1363.9 656.68,-1353.74"/>
<polygon fill="black" stroke="black" points="658.86,-1350.98 648.53,-1348.61 655.13,-1356.9 658.86,-1350.98"/>
<text xml:space="preserve" text-anchor="middle" x="716.5" y="-1374.55" font-family="Times,serif" font-size="14.00">1</text>
</g>
<!-- 26&#45;&gt;1 -->
<g id="edge59" class="edge">
<title>26&#45;&gt;1</title>
<path fill="none" stroke="black" d="M1350.22,-1254.2C1417.86,-1311.46 1624,-1492.82 1624,-1576.43 1624,-1980.05 1624,-1980.05 1624,-1980.05 1624,-2016.07 1586.72,-2040.63 1557.69,-2054.3"/>
<polygon fill="black" stroke="black" points="1556.55,-2050.97 1548.83,-2058.23 1559.39,-2057.37 1556.55,-2050.97"/>
<text xml:space="preserve" text-anchor="middle" x="1628.5" y="-1662" font-family="Times,serif" font-size="14.00">2</text>
</g>
<!-- 26&#45;&gt;8 -->
<g id="edge98" class="edge">
<title>26&#45;&gt;8</title>
<path fill="none" stroke="black" d="M1354.37,-1223.17C1394.79,-1203.83 1473.68,-1160.61 1517,-1100.4 1582.64,-1009.18 1609.36,-651.69 1616.16,-541.3"/>
<polygon fill="black" stroke="black" points="1619.64,-541.66 1616.75,-531.46 1612.65,-541.24 1619.64,-541.66"/>
<text xml:space="preserve" text-anchor="middle" x="1589.63" y="-863.98" font-family="Times,serif" font-size="14.00">3</text>
</g>
<!-- 26&#45;&gt;16 -->
<g id="edge92" class="edge">
<title>26&#45;&gt;16</title>
<path fill="none" stroke="black" d="M1357.2,-1233.95C1462,-1231.65 1825.03,-1221.43 1865,-1189.65 1994.44,-1086.74 1979.46,-613.12 1950,-450.4 1936.22,-374.31 1937.84,-347.41 1889,-287.45 1771.14,-142.77 1671.09,-199.07 1488,-162.95 1415.01,-148.55 1329.51,-133.33 1280.95,-124.84"/>
<polygon fill="black" stroke="black" points="1281.66,-121.41 1271.21,-123.14 1280.46,-128.31 1281.66,-121.41"/>
<text xml:space="preserve" text-anchor="middle" x="1974.55" y="-685.48" font-family="Times,serif" font-size="14.00">0</text>
</g>
<!-- 26&#45;&gt;23 -->
<g id="edge144" class="edge">
<title>26&#45;&gt;23</title>
<path fill="none" stroke="black" d="M1301.64,-1228.28C1227.45,-1211.41 1022.42,-1164.78 938.51,-1145.7"/>
<polygon fill="black" stroke="black" points="939.51,-1142.34 928.98,-1143.54 937.95,-1149.17 939.51,-1142.34"/>
<text xml:space="preserve" text-anchor="middle" x="1132.8" y="-1176.35" font-family="Times,serif" font-size="14.00">1</text>
</g>
<!-- 26&#45;&gt;25 -->
<g id="edge100" class="edge">
<title>26&#45;&gt;25</title>
<path fill="none" stroke="black" d="M1300.99,-1237.32C1248.86,-1239.61 1134.05,-1248.32 1044,-1281.35 986.84,-1302.32 979.52,-1321.81 927,-1352.6 890.47,-1374.02 848.13,-1397.77 819.25,-1413.8"/>
<polygon fill="black" stroke="black" points="817.63,-1410.7 810.58,-1418.61 821.03,-1416.82 817.63,-1410.7"/>
<text xml:space="preserve" text-anchor="middle" x="983.09" y="-1329.93" font-family="Times,serif" font-size="14.00">4</text>
</g>
<!-- 27&#45;&gt;14 -->
<g id="edge148" class="edge">
<title>27&#45;&gt;14</title>
<path fill="none" stroke="black" d="M916.72,-1701.29C955.66,-1685.85 1035.35,-1654.24 1080.62,-1636.29"/>
<polygon fill="black" stroke="black" points="1081.67,-1639.64 1089.67,-1632.7 1079.09,-1633.13 1081.67,-1639.64"/>
<text xml:space="preserve" text-anchor="middle" x="1028.2" y="-1662" font-family="Times,serif" font-size="14.00">2</text>
</g>
<!-- 27&#45;&gt;15 -->
<g id="edge88" class="edge">
<title>27&#45;&gt;15</title>
<path fill="none" stroke="black" d="M921.3,-1709.71C996.69,-1706.36 1205.22,-1684.92 1252,-1550.8 1263.83,-1516.89 1245.61,-936.5 1229,-904.65 1187.54,-825.17 1047.75,-842 1087,-761.4 1124.47,-684.45 1219.32,-635.99 1270.32,-614.62"/>
<polygon fill="black" stroke="black" points="1271.46,-617.94 1279.4,-610.93 1268.82,-611.46 1271.46,-617.94"/>
<text xml:space="preserve" text-anchor="middle" x="1252.95" y="-1131.73" font-family="Times,serif" font-size="14.00">1</text>
</g>
<!-- 27&#45;&gt;21 -->
<g id="edge136" class="edge">
<title>27&#45;&gt;21</title>
<path fill="none" stroke="black" d="M907.78,-1695.56C940.64,-1659.26 1023.01,-1561.28 1052,-1461.55 1058.91,-1437.78 1052.55,-1430.6 1052,-1405.85 1050.76,-1350.42 1057.12,-1335.23 1044,-1281.35 1033.68,-1238.97 1016.91,-1232.55 1009,-1189.65 1007.61,-1182.11 1008.7,-1180.06 1009,-1172.4 1012.11,-1092.89 1011.11,-1072.59 1023,-993.9 1028.05,-960.49 1037.05,-922.7 1043.48,-897.66"/>
<polygon fill="black" stroke="black" points="1046.79,-898.81 1045.93,-888.25 1040.02,-897.05 1046.79,-898.81"/>
<text xml:space="preserve" text-anchor="middle" x="1052.25" y="-1285.3" font-family="Times,serif" font-size="14.00">3</text>
</g>
<!-- 27&#45;&gt;23 -->
<g id="edge60" class="edge">
<title>27&#45;&gt;23</title>
<path fill="none" stroke="black" d="M891.98,-1693.11C888.62,-1656.38 885.87,-1569.15 927,-1514.8 938.28,-1499.9 954.13,-1512 965,-1496.8 973.4,-1485.05 969.43,-1409.79 969,-1405.85 957.37,-1300.19 949.63,-1273.57 917,-1172.4 916.16,-1169.8 915.2,-1167.13 914.18,-1164.47"/>
<polygon fill="black" stroke="black" points="917.45,-1163.2 910.39,-1155.29 910.98,-1165.87 917.45,-1163.2"/>
<text xml:space="preserve" text-anchor="middle" x="974.81" y="-1429.03" font-family="Times,serif" font-size="14.00">0</text>
</g>
<!-- 27&#45;&gt;24 -->
<g id="edge66" class="edge">
<title>27&#45;&gt;24</title>
<path fill="none" stroke="black" d="M921.15,-1709.2C999.03,-1705.8 1219.23,-1694.58 1245,-1675.3 1368.95,-1582.58 1342.75,-1503.78 1376,-1352.6 1378.14,-1342.86 1392.2,-1003.84 1393,-993.9 1393.17,-991.84 1393.36,-989.72 1393.57,-987.58"/>
<polygon fill="black" stroke="black" points="1397.03,-988.15 1394.62,-977.83 1390.07,-987.4 1397.03,-988.15"/>
<text xml:space="preserve" text-anchor="middle" x="1382.8" y="-1329.93" font-family="Times,serif" font-size="14.00">4</text>
</g>
<!-- 28&#45;&gt;1 -->
<g id="edge86" class="edge">
<title>28&#45;&gt;1</title>
<path fill="none" stroke="black" d="M570.53,-330.84C513.15,-367.31 363.66,-468 270,-582.9 214.6,-650.86 210.03,-677.08 186,-761.4 96.57,-1075.15 76,-1160.93 76,-1487.18 76,-1623.05 76,-1623.05 76,-1623.05 76,-1716.93 91.08,-1750.73 156,-1818.55 241.4,-1907.77 547.02,-2013.01 669,-2032.3 829.57,-2057.7 1340.45,-2065.25 1485.35,-2066.91"/>
<polygon fill="black" stroke="black" points="1485.13,-2070.41 1495.17,-2067.02 1485.21,-2063.41 1485.13,-2070.41"/>
<text xml:space="preserve" text-anchor="middle" x="94.48" y="-1176.35" font-family="Times,serif" font-size="14.00">4</text>
</g>
<!-- 28&#45;&gt;13 -->
<g id="edge9" class="edge">
<title>28&#45;&gt;13</title>
<path fill="none" stroke="black" d="M568.53,-327.74C548.7,-336.69 520.52,-349.54 496,-361.15 463.8,-376.4 453.98,-377.15 424,-396.4 325.75,-459.47 300.18,-483.46 239,-582.9 23.24,-933.55 38,-1075.47 38,-1487.18 38,-1756.93 38,-1756.93 38,-1756.93 38,-1863.37 140.27,-1842.07 224,-1907.8 357.08,-2012.28 378.99,-2066.59 539,-2121.55 573.03,-2133.24 612.96,-2142.89 641.27,-2149.08"/>
<polygon fill="black" stroke="black" points="640.27,-2152.44 650.78,-2151.11 641.74,-2145.6 640.27,-2152.44"/>
<text xml:space="preserve" text-anchor="middle" x="43.95" y="-1230.83" font-family="Times,serif" font-size="14.00">2</text>
</g>
<!-- 28&#45;&gt;24 -->
<g id="edge96" class="edge">
<title>28&#45;&gt;24</title>
<path fill="none" stroke="black" d="M619.73,-326.88C672.94,-349.69 796.95,-407.82 879,-485.65 930.67,-534.66 920.01,-566.28 968,-618.9 1004.04,-658.42 1298.59,-890.66 1342,-921.9 1350.19,-927.79 1359.34,-933.83 1367.79,-939.19"/>
<polygon fill="black" stroke="black" points="1365.68,-941.99 1376.01,-944.32 1369.39,-936.05 1365.68,-941.99"/>
<text xml:space="preserve" text-anchor="middle" x="1010.45" y="-640.85" font-family="Times,serif" font-size="14.00">1</text>
</g>
<!-- 28&#45;&gt;28 -->
<g id="edge129" class="edge">
<title>28&#45;&gt;28</title>
<path fill="none" stroke="black" d="M620.39,-325.45C630.97,-326.03 639.85,-322.64 639.85,-315.3 639.85,-310.83 636.55,-307.82 631.58,-306.29"/>
<polygon fill="black" stroke="black" points="632.19,-302.83 621.89,-305.3 631.49,-309.8 632.19,-302.83"/>
<text xml:space="preserve" text-anchor="middle" x="644.35" y="-310.63" font-family="Times,serif" font-size="14.00">3</text>
</g>
<!-- 28&#45;&gt;29 -->
<g id="edge103" class="edge">
<title>28&#45;&gt;29</title>
<path fill="none" stroke="black" d="M584.76,-342.08C570.07,-385.48 543,-476.16 543,-555.28 543,-1048.15 543,-1048.15 543,-1048.15 543,-1116.68 554.14,-1295.48 592,-1352.6 616.63,-1389.76 646.99,-1372.89 677,-1405.85 695.65,-1426.34 690.27,-1438.09 705,-1461.55 715.14,-1477.7 728.11,-1494.67 738.8,-1507.89"/>
<polygon fill="black" stroke="black" points="736.1,-1510.11 745.15,-1515.62 741.51,-1505.67 736.1,-1510.11"/>
<text xml:space="preserve" text-anchor="middle" x="547.5" y="-908.6" font-family="Times,serif" font-size="14.00">0</text>
</g>
<!-- 29&#45;&gt;0 -->
<g id="edge12" class="edge">
<title>29&#45;&gt;0</title>
<path fill="none" stroke="black" d="M752.66,-1550.66C735.57,-1595.46 686.15,-1720.77 632,-1818.55 608.85,-1860.37 608.27,-1876.68 572,-1907.8 544.05,-1931.79 531.91,-1931.33 497,-1943.05 460.39,-1955.35 445.88,-1942.52 412,-1961.05 337.61,-2001.75 311.59,-2023.47 286,-2104.3 270.83,-2152.21 285.43,-2178.59 324,-2210.8 356.28,-2237.77 405.18,-2244.98 439.18,-2246.44"/>
<polygon fill="black" stroke="black" points="438.94,-2249.93 449.02,-2246.69 439.12,-2242.93 438.94,-2249.93"/>
<text xml:space="preserve" text-anchor="middle" x="608.58" y="-1885.13" font-family="Times,serif" font-size="14.00">3</text>
</g>
<!-- 29&#45;&gt;12 -->
<g id="edge126" class="edge">
<title>29&#45;&gt;12</title>
<path fill="none" stroke="black" d="M734.72,-1524.24C675.41,-1504.1 528,-1443.2 528,-1335.6 528,-1335.6 528,-1335.6 528,-1180.03 528,-937.22 518.81,-874.55 469,-636.9 463.84,-612.28 460.56,-606.56 452,-582.9 405.51,-454.38 340.57,-304.49 314.02,-244.27"/>
<polygon fill="black" stroke="black" points="317.24,-242.89 310,-235.16 310.84,-245.72 317.24,-242.89"/>
<text xml:space="preserve" text-anchor="middle" x="519.27" y="-863.98" font-family="Times,serif" font-size="14.00">2</text>
</g>
<!-- 29&#45;&gt;25 -->
<g id="edge32" class="edge">
<title>29&#45;&gt;25</title>
<path fill="none" stroke="black" d="M765.73,-1515.24C767.92,-1509.47 770.24,-1502.91 772,-1496.8 774.24,-1489.03 776.27,-1480.61 778.02,-1472.56"/>
<polygon fill="black" stroke="black" points="781.4,-1473.49 779.99,-1462.99 774.54,-1472.08 781.4,-1473.49"/>
<text xml:space="preserve" text-anchor="middle" x="780.85" y="-1483.5" font-family="Times,serif" font-size="14.00">1</text>
</g>
<!-- 29&#45;&gt;27 -->
<g id="edge5" class="edge">
<title>29&#45;&gt;27</title>
<path fill="none" stroke="black" d="M774.73,-1547.52C781.18,-1553.64 788.42,-1561.17 794,-1568.8 825.43,-1611.82 814.96,-1634.33 849,-1675.3 853.93,-1681.24 860.03,-1686.8 866.13,-1691.67"/>
<polygon fill="black" stroke="black" points="863.62,-1694.16 873.72,-1697.36 867.82,-1688.56 863.62,-1694.16"/>
<text xml:space="preserve" text-anchor="middle" x="831.1" y="-1617.38" font-family="Times,serif" font-size="14.00">4</text>
</g>
<!-- 29&#45;&gt;29 -->
<g id="edge19" class="edge">
<title>29&#45;&gt;29</title>
<path fill="none" stroke="black" d="M783.53,-1541.04C794.51,-1541.82 804,-1539.08 804,-1532.8 804,-1528.88 800.29,-1526.34 794.83,-1525.17"/>
<polygon fill="black" stroke="black" points="795.22,-1521.69 785.04,-1524.65 794.84,-1528.68 795.22,-1521.69"/>
<text xml:space="preserve" text-anchor="middle" x="808.5" y="-1528.13" font-family="Times,serif" font-size="14.00">0</text>
</g>
</g>
</svg>
