<?xml version="1.0" encoding="UTF-8" standalone="no"?>
<!DOCTYPE svg PUBLIC "-//W3C//DTD SVG 1.1//EN"
 "http://www.w3.org/Graphics/SVG/1.1/DTD/svg11.dtd">
<!-- Generated by graphviz version 2.49.0 (20210829.0051)
 -->
<!-- Pages: 1 -->
<svg width="2420pt" height="2283pt"
 viewBox="0.00 0.00 2420.28 2282.98" xmlns="http://www.w3.org/2000/svg" xmlns:xlink="http://www.w3.org/1999/xlink">
<g id="graph0" class="graph" transform="scale(1 1) rotate(0) translate(4 2278.98)">
<polygon fill="white" stroke="transparent" points="-4,4 -4,-2278.98 2416.28,-2278.98 2416.28,4 -4,4"/>
<!-- fake -->
<g id="node1" class="node">
<title>fake</title>
</g>
<!-- 0 -->
<g id="node2" class="node">
<title>0</title>
<ellipse fill="none" stroke="black" cx="478" cy="-2183.98" rx="27" ry="18"/>
<text text-anchor="middle" x="478" y="-2180.28" font-family="Times,serif" font-size="14.00">0</text>
</g>
<!-- fake&#45;&gt;0 -->
<g id="edge1" class="edge">
<title>fake&#45;&gt;0</title>
<path fill="none" stroke="black" stroke-width="2" d="M478,-2238.8C478,-2230.77 478,-2221.03 478,-2212.05"/>
<polygon fill="black" stroke="black" stroke-width="2" points="481.5,-2212.01 478,-2202.01 474.5,-2212.01 481.5,-2212.01"/>
</g>
<!-- 13 -->
<g id="node15" class="node">
<title>13</title>
<ellipse fill="none" stroke="black" cx="676" cy="-2096.98" rx="27" ry="18"/>
<text text-anchor="middle" x="676" y="-2093.28" font-family="Times,serif" font-size="14.00">13</text>
</g>
<!-- 0&#45;&gt;13 -->
<g id="edge108" class="edge">
<title>0&#45;&gt;13</title>
<path fill="none" stroke="black" d="M500.33,-2173.4C535.55,-2158.28 604.14,-2128.83 644.41,-2111.55"/>
<polygon fill="black" stroke="black" points="645.95,-2114.7 653.75,-2107.53 643.18,-2108.26 645.95,-2114.7"/>
<text text-anchor="middle" x="594" y="-2136.78" font-family="Times,serif" font-size="14.00">4</text>
</g>
<!-- 14 -->
<g id="node16" class="node">
<title>14</title>
<ellipse fill="none" stroke="black" cx="1114" cy="-1574.98" rx="27" ry="18"/>
<text text-anchor="middle" x="1114" y="-1571.28" font-family="Times,serif" font-size="14.00">14</text>
</g>
<!-- 0&#45;&gt;14 -->
<g id="edge31" class="edge">
<title>0&#45;&gt;14</title>
<path fill="none" stroke="black" d="M492.7,-2168.3C558.43,-2102.77 824.33,-1839.3 872,-1817.98 910.92,-1800.58 1030.96,-1828.11 1063,-1799.98 1119.87,-1750.06 1120.46,-1651.11 1116.95,-1603.21"/>
<polygon fill="black" stroke="black" points="1120.42,-1602.67 1116.08,-1593 1113.44,-1603.26 1120.42,-1602.67"/>
<text text-anchor="middle" x="806" y="-1875.78" font-family="Times,serif" font-size="14.00">3</text>
</g>
<!-- 17 -->
<g id="node19" class="node">
<title>17</title>
<ellipse fill="none" stroke="black" cx="1349" cy="-305.24" rx="22.96" ry="22.96"/>
<ellipse fill="none" stroke="black" cx="1349" cy="-305.24" rx="27" ry="27"/>
<text text-anchor="middle" x="1349" y="-301.54" font-family="Times,serif" font-size="14.00">17</text>
</g>
<!-- 0&#45;&gt;17 -->
<g id="edge82" class="edge">
<title>0&#45;&gt;17</title>
<path fill="none" stroke="black" d="M505.21,-2183.07C689.62,-2183.52 1758.69,-2184.55 2082,-2147.98 2170.05,-2138.03 2275,-2186.59 2275,-2097.98 2275,-2097.98 2275,-2097.98 2275,-799.49 2275,-592.86 2130.19,-565.6 1947,-469.99 1845.32,-416.93 1498.56,-338.74 1385.19,-314.03"/>
<polygon fill="black" stroke="black" points="1385.78,-310.58 1375.27,-311.87 1384.3,-317.42 1385.78,-310.58"/>
<text text-anchor="middle" x="2280" y="-1249.29" font-family="Times,serif" font-size="14.00">2</text>
</g>
<!-- 20 -->
<g id="node22" class="node">
<title>20</title>
<ellipse fill="none" stroke="black" cx="625" cy="-1296.49" rx="27" ry="18"/>
<text text-anchor="middle" x="625" y="-1292.79" font-family="Times,serif" font-size="14.00">20</text>
</g>
<!-- 0&#45;&gt;20 -->
<g id="edge111" class="edge">
<title>0&#45;&gt;20</title>
<path fill="none" stroke="black" d="M451.18,-2181.67C391.99,-2178.42 252.09,-2168.72 210,-2147.98 181.81,-2134.1 160,-2129.41 160,-2097.98 160,-2097.98 160,-2097.98 160,-1791.48 160,-1581.18 192.35,-1484.13 366,-1365.49 434.91,-1318.4 534.55,-1303.92 587.92,-1299.46"/>
<polygon fill="black" stroke="black" points="588.25,-1302.95 597.96,-1298.7 587.72,-1295.97 588.25,-1302.95"/>
<text text-anchor="middle" x="167" y="-1745.28" font-family="Times,serif" font-size="14.00">0</text>
</g>
<!-- 29 -->
<g id="node31" class="node">
<title>29</title>
<ellipse fill="none" stroke="black" cx="757" cy="-1487.98" rx="27" ry="18"/>
<text text-anchor="middle" x="757" y="-1484.28" font-family="Times,serif" font-size="14.00">29</text>
</g>
<!-- 0&#45;&gt;29 -->
<g id="edge48" class="edge">
<title>0&#45;&gt;29</title>
<path fill="none" stroke="black" d="M487.82,-2166.98C522.41,-2110.39 638.08,-1919.67 666,-1853.98 688.28,-1801.56 681.5,-1784.13 702,-1730.98 707.87,-1715.78 706.03,-1709.05 718,-1697.98 734.12,-1683.08 751.62,-1698.12 764,-1679.98 798.07,-1630.06 780.12,-1554.49 766.92,-1515.04"/>
<polygon fill="black" stroke="black" points="770.22,-1513.88 763.62,-1505.6 763.62,-1516.19 770.22,-1513.88"/>
<text text-anchor="middle" x="684" y="-1832.28" font-family="Times,serif" font-size="14.00">1</text>
</g>
<!-- 1 -->
<g id="node3" class="node">
<title>1</title>
<ellipse fill="none" stroke="black" cx="1530" cy="-2009.98" rx="27" ry="18"/>
<text text-anchor="middle" x="1530" y="-2006.28" font-family="Times,serif" font-size="14.00">1</text>
</g>
<!-- 2 -->
<g id="node4" class="node">
<title>2</title>
<ellipse fill="none" stroke="black" cx="1271" cy="-1922.98" rx="27" ry="18"/>
<text text-anchor="middle" x="1271" y="-1919.28" font-family="Times,serif" font-size="14.00">2</text>
</g>
<!-- 1&#45;&gt;2 -->
<g id="edge113" class="edge">
<title>1&#45;&gt;2</title>
<path fill="none" stroke="black" d="M1504.91,-2002.62C1479.54,-1996.04 1439.28,-1985.16 1405,-1973.98 1369.68,-1962.47 1329.87,-1947.34 1302.89,-1936.75"/>
<polygon fill="black" stroke="black" points="1304.14,-1933.48 1293.56,-1933.06 1301.57,-1939.99 1304.14,-1933.48"/>
<text text-anchor="middle" x="1410" y="-1962.78" font-family="Times,serif" font-size="14.00">2</text>
</g>
<!-- 4 -->
<g id="node6" class="node">
<title>4</title>
<ellipse fill="none" stroke="black" cx="567" cy="-1748.98" rx="27" ry="18"/>
<text text-anchor="middle" x="567" y="-1745.28" font-family="Times,serif" font-size="14.00">4</text>
</g>
<!-- 1&#45;&gt;4 -->
<g id="edge26" class="edge">
<title>1&#45;&gt;4</title>
<path fill="none" stroke="black" d="M1503.05,-2008.38C1396.27,-2005.87 1002.75,-1995.33 880,-1973.98 704.26,-1943.43 599.66,-1999.87 497,-1853.98 476.11,-1824.3 512.14,-1789.16 539.79,-1768.27"/>
<polygon fill="black" stroke="black" points="542.01,-1770.98 548.03,-1762.26 537.89,-1765.32 542.01,-1770.98"/>
<text text-anchor="middle" x="529" y="-1875.78" font-family="Times,serif" font-size="14.00">0</text>
</g>
<!-- 21 -->
<g id="node23" class="node">
<title>21</title>
<ellipse fill="none" stroke="black" cx="1052" cy="-843.99" rx="27" ry="18"/>
<text text-anchor="middle" x="1052" y="-840.29" font-family="Times,serif" font-size="14.00">21</text>
</g>
<!-- 1&#45;&gt;21 -->
<g id="edge89" class="edge">
<title>1&#45;&gt;21</title>
<path fill="none" stroke="black" d="M1506.32,-2000.99C1476.47,-1989.23 1429,-1964.2 1429,-1923.98 1429,-1923.98 1429,-1923.98 1429,-1747.98 1429,-1509.33 1361.3,-1457.32 1297,-1227.49 1279.72,-1165.72 1288.66,-1146.2 1264,-1086.99 1221.96,-986.04 1214.64,-950.43 1131,-879.99 1117.92,-868.97 1100.82,-860.83 1085.87,-855.18"/>
<polygon fill="black" stroke="black" points="1087.02,-851.87 1076.43,-851.82 1084.68,-858.47 1087.02,-851.87"/>
<text text-anchor="middle" x="1381" y="-1440.78" font-family="Times,serif" font-size="14.00">3</text>
</g>
<!-- 22 -->
<g id="node24" class="node">
<title>22</title>
<ellipse fill="none" stroke="black" cx="1714" cy="-1748.98" rx="27" ry="18"/>
<text text-anchor="middle" x="1714" y="-1745.28" font-family="Times,serif" font-size="14.00">22</text>
</g>
<!-- 1&#45;&gt;22 -->
<g id="edge25" class="edge">
<title>1&#45;&gt;22</title>
<path fill="none" stroke="black" d="M1556.88,-2007.58C1582.33,-2004.83 1619.98,-1996.85 1643,-1973.98 1697.53,-1919.82 1710.25,-1824.06 1713.17,-1777.26"/>
<polygon fill="black" stroke="black" points="1716.68,-1777.17 1713.7,-1767 1709.69,-1776.81 1716.68,-1777.17"/>
<text text-anchor="middle" x="1703" y="-1875.78" font-family="Times,serif" font-size="14.00">1</text>
</g>
<!-- 27 -->
<g id="node29" class="node">
<title>27</title>
<ellipse fill="none" stroke="black" cx="894" cy="-1661.98" rx="27" ry="18"/>
<text text-anchor="middle" x="894" y="-1658.28" font-family="Times,serif" font-size="14.00">27</text>
</g>
<!-- 1&#45;&gt;27 -->
<g id="edge65" class="edge">
<title>1&#45;&gt;27</title>
<path fill="none" stroke="black" d="M1503.08,-2008.27C1382.03,-2004.7 894,-1986.44 894,-1923.98 894,-1923.98 894,-1923.98 894,-1747.98 894,-1728.74 894,-1707.04 894,-1690.38"/>
<polygon fill="black" stroke="black" points="897.5,-1690.24 894,-1680.24 890.5,-1690.24 897.5,-1690.24"/>
<text text-anchor="middle" x="899" y="-1832.28" font-family="Times,serif" font-size="14.00">4</text>
</g>
<!-- 3 -->
<g id="node5" class="node">
<title>3</title>
<ellipse fill="none" stroke="black" cx="533" cy="-1835.98" rx="27" ry="18"/>
<text text-anchor="middle" x="533" y="-1832.28" font-family="Times,serif" font-size="14.00">3</text>
</g>
<!-- 2&#45;&gt;3 -->
<g id="edge63" class="edge">
<title>2&#45;&gt;3</title>
<path fill="none" stroke="black" d="M1243.84,-1921.79C1138.96,-1920.82 760.37,-1915.4 644,-1886.98 614.67,-1879.82 583.51,-1865.08 561.69,-1853.45"/>
<polygon fill="black" stroke="black" points="563.11,-1850.24 552.66,-1848.53 559.76,-1856.39 563.11,-1850.24"/>
<text text-anchor="middle" x="649" y="-1875.78" font-family="Times,serif" font-size="14.00">3</text>
</g>
<!-- 2&#45;&gt;14 -->
<g id="edge52" class="edge">
<title>2&#45;&gt;14</title>
<path fill="none" stroke="black" d="M1275.3,-1904.88C1289.55,-1846.49 1332.22,-1656.09 1295,-1610.98 1277.15,-1589.35 1198.92,-1580.94 1151.34,-1577.78"/>
<polygon fill="black" stroke="black" points="1151.31,-1574.27 1141.11,-1577.15 1150.88,-1581.26 1151.31,-1574.27"/>
<text text-anchor="middle" x="1312" y="-1745.28" font-family="Times,serif" font-size="14.00">1</text>
</g>
<!-- 24 -->
<g id="node26" class="node">
<title>24</title>
<ellipse fill="none" stroke="black" cx="1399" cy="-930.99" rx="27" ry="18"/>
<text text-anchor="middle" x="1399" y="-927.29" font-family="Times,serif" font-size="14.00">24</text>
</g>
<!-- 2&#45;&gt;24 -->
<g id="edge67" class="edge">
<title>2&#45;&gt;24</title>
<path fill="none" stroke="black" d="M1297.38,-1917.97C1357.8,-1908.05 1501,-1879.98 1501,-1836.98 1501,-1836.98 1501,-1836.98 1501,-1338.99 1501,-1317.76 1420.62,-987.16 1414,-966.99 1413.02,-964.01 1411.89,-960.93 1410.69,-957.89"/>
<polygon fill="black" stroke="black" points="1413.86,-956.38 1406.78,-948.5 1407.4,-959.07 1413.86,-956.38"/>
<text text-anchor="middle" x="1506" y="-1440.78" font-family="Times,serif" font-size="14.00">4</text>
</g>
<!-- 2&#45;&gt;24 -->
<g id="edge76" class="edge">
<title>2&#45;&gt;24</title>
<path fill="none" stroke="black" d="M1298.01,-1920.6C1375.15,-1915.92 1591,-1897.41 1591,-1836.98 1591,-1836.98 1591,-1836.98 1591,-1530.48 1591,-1468.04 1621,-1455.68 1621,-1393.24 1621,-1393.24 1621,-1393.24 1621,-1251.99 1621,-1152.73 1547.25,-1152.11 1493,-1068.99 1464,-1024.57 1462.83,-1009.44 1431,-966.99 1427.75,-962.66 1424.06,-958.24 1420.36,-954.06"/>
<polygon fill="black" stroke="black" points="1422.7,-951.44 1413.37,-946.43 1417.54,-956.17 1422.7,-951.44"/>
<text text-anchor="middle" x="1620" y="-1440.78" font-family="Times,serif" font-size="14.00">0</text>
</g>
<!-- 26 -->
<g id="node28" class="node">
<title>26</title>
<ellipse fill="none" stroke="black" cx="1333" cy="-1200.74" rx="22.96" ry="22.96"/>
<ellipse fill="none" stroke="black" cx="1333" cy="-1200.74" rx="27" ry="27"/>
<text text-anchor="middle" x="1333" y="-1197.04" font-family="Times,serif" font-size="14.00">26</text>
</g>
<!-- 2&#45;&gt;26 -->
<g id="edge18" class="edge">
<title>2&#45;&gt;26</title>
<path fill="none" stroke="black" d="M1283.71,-1906.69C1288.1,-1900.82 1292.73,-1893.86 1296,-1886.98 1302.52,-1873.25 1301.59,-1868.8 1305,-1853.98 1328.14,-1753.49 1334.99,-1728.28 1348,-1625.98 1368.51,-1464.66 1362.02,-1423.08 1365,-1260.49 1365.12,-1253.82 1367.07,-1251.82 1365,-1245.49 1363.13,-1239.76 1360.19,-1234.16 1356.83,-1228.98"/>
<polygon fill="black" stroke="black" points="1359.58,-1226.8 1350.91,-1220.71 1353.89,-1230.88 1359.58,-1226.8"/>
<text text-anchor="middle" x="1361" y="-1571.28" font-family="Times,serif" font-size="14.00">2</text>
</g>
<!-- 3&#45;&gt;4 -->
<g id="edge7" class="edge">
<title>3&#45;&gt;4</title>
<path fill="none" stroke="black" d="M539.72,-1818.19C544.54,-1806.12 551.14,-1789.62 556.64,-1775.87"/>
<polygon fill="black" stroke="black" points="559.95,-1777.04 560.41,-1766.45 553.45,-1774.44 559.95,-1777.04"/>
<text text-anchor="middle" x="558" y="-1788.78" font-family="Times,serif" font-size="14.00">1</text>
</g>
<!-- 3&#45;&gt;17 -->
<g id="edge64" class="edge">
<title>3&#45;&gt;17</title>
<path fill="none" stroke="black" d="M552.61,-1823.58C556.63,-1821.53 560.88,-1819.55 565,-1817.98 596.64,-1805.95 606.19,-1808.3 639,-1799.98 694.7,-1785.86 708.55,-1782.04 764,-1766.98 1011.42,-1699.79 1198.11,-1821.68 1314,-1592.98 1321.23,-1578.71 1316.86,-1572.73 1314,-1556.98 1301.5,-1488.07 1123.21,-1029.69 1092,-966.99 1079.47,-941.81 1075.45,-935.81 1059,-912.99 1041.66,-888.94 1026.17,-889.84 1016,-861.99 1005.78,-834.02 957.42,-601.61 1055,-436.99 1109.34,-345.31 1245.99,-317.66 1312.07,-309.53"/>
<polygon fill="black" stroke="black" points="1312.51,-313 1322.05,-308.38 1311.71,-306.04 1312.51,-313"/>
<text text-anchor="middle" x="1140" y="-1057.79" font-family="Times,serif" font-size="14.00">3</text>
</g>
<!-- 18 -->
<g id="node20" class="node">
<title>18</title>
<ellipse fill="none" stroke="black" cx="958" cy="-18" rx="27" ry="18"/>
<text text-anchor="middle" x="958" y="-14.3" font-family="Times,serif" font-size="14.00">18</text>
</g>
<!-- 3&#45;&gt;18 -->
<g id="edge5" class="edge">
<title>3&#45;&gt;18</title>
<path fill="none" stroke="black" d="M510.4,-1825.72C486.46,-1814.87 449.02,-1794.79 426,-1766.98 359.7,-1686.92 386.15,-1639.56 323,-1556.98 266.57,-1483.19 204.29,-1503.63 166,-1418.98 135.02,-1350.51 357.8,-147.78 402,-87 420.13,-62.07 433.4,-62.61 463,-54 548.8,-29.03 820.57,-21.54 920.59,-19.6"/>
<polygon fill="black" stroke="black" points="920.89,-23.1 930.82,-19.41 920.76,-16.1 920.89,-23.1"/>
<text text-anchor="middle" x="233" y="-927.29" font-family="Times,serif" font-size="14.00">4</text>
</g>
<!-- 3&#45;&gt;20 -->
<g id="edge39" class="edge">
<title>3&#45;&gt;20</title>
<path fill="none" stroke="black" d="M526.36,-1818.35C520.2,-1801.43 512,-1774.3 512,-1749.98 512,-1749.98 512,-1749.98 512,-1573.98 512,-1474.08 576,-1367.95 607.67,-1321.55"/>
<polygon fill="black" stroke="black" points="610.72,-1323.29 613.54,-1313.08 604.97,-1319.3 610.72,-1323.29"/>
<text text-anchor="middle" x="517" y="-1571.28" font-family="Times,serif" font-size="14.00">0</text>
</g>
<!-- 3&#45;&gt;27 -->
<g id="edge94" class="edge">
<title>3&#45;&gt;27</title>
<path fill="none" stroke="black" d="M554.5,-1824.74C615.82,-1795.52 791.75,-1711.7 863.24,-1677.64"/>
<polygon fill="black" stroke="black" points="865.09,-1680.64 872.61,-1673.17 862.08,-1674.32 865.09,-1680.64"/>
<text text-anchor="middle" x="755" y="-1745.28" font-family="Times,serif" font-size="14.00">2</text>
</g>
<!-- 4&#45;&gt;2 -->
<g id="edge148" class="edge">
<title>4&#45;&gt;2</title>
<path fill="none" stroke="black" d="M577.64,-1765.6C593.03,-1787.37 623.28,-1827.17 656,-1853.98 658.9,-1856.36 711.4,-1885.92 715,-1886.98 812.65,-1915.74 1125.61,-1920.87 1233.79,-1921.79"/>
<polygon fill="black" stroke="black" points="1233.88,-1925.29 1243.9,-1921.86 1233.93,-1918.29 1233.88,-1925.29"/>
<text text-anchor="middle" x="661" y="-1832.28" font-family="Times,serif" font-size="14.00">0</text>
</g>
<!-- 4&#45;&gt;4 -->
<g id="edge85" class="edge">
<title>4&#45;&gt;4</title>
<path fill="none" stroke="black" d="M591.53,-1756.74C602.51,-1757.47 612,-1754.89 612,-1748.98 612,-1745.02 607.72,-1742.55 601.57,-1741.58"/>
<polygon fill="black" stroke="black" points="601.65,-1738.08 591.53,-1741.23 601.41,-1745.07 601.65,-1738.08"/>
<text text-anchor="middle" x="617" y="-1745.28" font-family="Times,serif" font-size="14.00">2</text>
</g>
<!-- 9 -->
<g id="node11" class="node">
<title>9</title>
<ellipse fill="none" stroke="black" cx="644" cy="-400.99" rx="27" ry="18"/>
<text text-anchor="middle" x="644" y="-397.29" font-family="Times,serif" font-size="14.00">9</text>
</g>
<!-- 4&#45;&gt;9 -->
<g id="edge114" class="edge">
<title>4&#45;&gt;9</title>
<path fill="none" stroke="black" d="M556.12,-1732.13C541.06,-1709.51 513.92,-1666.27 498,-1625.98 492.45,-1611.95 492.89,-1607.8 490,-1592.98 444.32,-1359.03 411,-1300.87 411,-1062.49 411,-1062.49 411,-1062.49 411,-842.99 411,-795.45 412.18,-780.13 436,-738.99 480.73,-661.72 534.74,-676.75 582,-600.99 600.25,-571.74 625.69,-475.75 637.5,-428.6"/>
<polygon fill="black" stroke="black" points="640.92,-429.34 639.94,-418.79 634.13,-427.65 640.92,-429.34"/>
<text text-anchor="middle" x="417" y="-1057.79" font-family="Times,serif" font-size="14.00">4</text>
</g>
<!-- 4&#45;&gt;20 -->
<g id="edge132" class="edge">
<title>4&#45;&gt;20</title>
<path fill="none" stroke="black" d="M569.2,-1730.87C578,-1662.51 610.69,-1408.62 621.5,-1324.65"/>
<polygon fill="black" stroke="black" points="624.99,-1324.98 622.79,-1314.61 618.05,-1324.09 624.99,-1324.98"/>
<text text-anchor="middle" x="601" y="-1527.78" font-family="Times,serif" font-size="14.00">3</text>
</g>
<!-- 4&#45;&gt;27 -->
<g id="edge66" class="edge">
<title>4&#45;&gt;27</title>
<path fill="none" stroke="black" d="M591.23,-1741.01C625.88,-1731.09 691.65,-1712.52 748,-1697.98 785.82,-1688.23 829.38,-1677.9 859.01,-1671.02"/>
<polygon fill="black" stroke="black" points="859.92,-1674.4 868.88,-1668.73 858.34,-1667.58 859.92,-1674.4"/>
<text text-anchor="middle" x="753" y="-1701.78" font-family="Times,serif" font-size="14.00">1</text>
</g>
<!-- 5 -->
<g id="node7" class="node">
<title>5</title>
<ellipse fill="none" stroke="black" cx="1844" cy="-400.99" rx="27" ry="18"/>
<text text-anchor="middle" x="1844" y="-397.29" font-family="Times,serif" font-size="14.00">5</text>
</g>
<!-- 5&#45;&gt;1 -->
<g id="edge86" class="edge">
<title>5&#45;&gt;1</title>
<path fill="none" stroke="black" d="M1865.79,-412.04C1919.7,-438.59 2055,-516.1 2055,-625.49 2055,-801.49 2055,-801.49 2055,-801.49 2055,-1003.79 1990,-1049.69 1990,-1251.99 1990,-1445.48 1990,-1445.48 1990,-1445.48 1990,-1668.63 2060.26,-1776.93 1909,-1940.98 1891.45,-1960.02 1885.29,-1965.01 1861,-1973.98 1807.91,-1993.59 1642.3,-2003.68 1567.42,-2007.34"/>
<polygon fill="black" stroke="black" points="1566.88,-2003.87 1557.06,-2007.84 1567.21,-2010.86 1566.88,-2003.87"/>
<text text-anchor="middle" x="1999" y="-1197.04" font-family="Times,serif" font-size="14.00">2</text>
</g>
<!-- 5&#45;&gt;5 -->
<g id="edge128" class="edge">
<title>5&#45;&gt;5</title>
<path fill="none" stroke="black" d="M1868.53,-408.74C1879.51,-409.48 1889,-406.9 1889,-400.99 1889,-397.02 1884.72,-394.56 1878.57,-393.59"/>
<polygon fill="black" stroke="black" points="1878.65,-390.09 1868.53,-393.24 1878.41,-397.08 1878.65,-390.09"/>
<text text-anchor="middle" x="1894" y="-397.29" font-family="Times,serif" font-size="14.00">3</text>
</g>
<!-- 5&#45;&gt;17 -->
<g id="edge135" class="edge">
<title>5&#45;&gt;17</title>
<path fill="none" stroke="black" d="M1819.37,-393.4C1780.44,-383.13 1702.19,-363.14 1635,-349.99 1546.04,-332.58 1440.37,-317.97 1385.77,-310.87"/>
<polygon fill="black" stroke="black" points="1385.91,-307.36 1375.55,-309.56 1385.02,-314.31 1385.91,-307.36"/>
<text text-anchor="middle" x="1710" y="-353.79" font-family="Times,serif" font-size="14.00">4</text>
</g>
<!-- 5&#45;&gt;18 -->
<g id="edge30" class="edge">
<title>5&#45;&gt;18</title>
<path fill="none" stroke="black" d="M1856.54,-384.81C1869.85,-367.1 1889,-336.39 1889,-306.24 1889,-306.24 1889,-306.24 1889,-112.75 1889,-21.3 1168.8,-18.19 995.28,-18.77"/>
<polygon fill="black" stroke="black" points="995.09,-15.27 985.11,-18.81 995.12,-22.27 995.09,-15.27"/>
<text text-anchor="middle" x="1894" y="-205.8" font-family="Times,serif" font-size="14.00">1</text>
</g>
<!-- 19 -->
<g id="node21" class="node">
<title>19</title>
<ellipse fill="none" stroke="black" cx="1826" cy="-305.24" rx="27" ry="18"/>
<text text-anchor="middle" x="1826" y="-301.54" font-family="Times,serif" font-size="14.00">19</text>
</g>
<!-- 5&#45;&gt;19 -->
<g id="edge16" class="edge">
<title>5&#45;&gt;19</title>
<path fill="none" stroke="black" d="M1834.32,-383.81C1831.39,-378.07 1828.54,-371.43 1827,-364.99 1824.6,-354.94 1823.94,-343.64 1824.02,-333.65"/>
<polygon fill="black" stroke="black" points="1827.53,-333.56 1824.36,-323.46 1820.53,-333.34 1827.53,-333.56"/>
<text text-anchor="middle" x="1832" y="-353.79" font-family="Times,serif" font-size="14.00">0</text>
</g>
<!-- 6 -->
<g id="node8" class="node">
<title>6</title>
<ellipse fill="none" stroke="black" cx="1621" cy="-209.5" rx="27" ry="18"/>
<text text-anchor="middle" x="1621" y="-205.8" font-family="Times,serif" font-size="14.00">6</text>
</g>
<!-- 8 -->
<g id="node10" class="node">
<title>8</title>
<ellipse fill="none" stroke="black" cx="1621" cy="-491.99" rx="18" ry="18"/>
<ellipse fill="none" stroke="black" cx="1621" cy="-491.99" rx="22" ry="22"/>
<text text-anchor="middle" x="1621" y="-488.29" font-family="Times,serif" font-size="14.00">8</text>
</g>
<!-- 6&#45;&gt;8 -->
<g id="edge95" class="edge">
<title>6&#45;&gt;8</title>
<path fill="none" stroke="black" d="M1621,-227.78C1621,-273.91 1621,-400.46 1621,-459.67"/>
<polygon fill="black" stroke="black" points="1617.5,-459.91 1621,-469.91 1624.5,-459.91 1617.5,-459.91"/>
<text text-anchor="middle" x="1626" y="-353.79" font-family="Times,serif" font-size="14.00">2</text>
</g>
<!-- 6&#45;&gt;13 -->
<g id="edge75" class="edge">
<title>6&#45;&gt;13</title>
<path fill="none" stroke="black" d="M1647.66,-213.54C1697.61,-219.45 1803.36,-233 1838,-245.5 1944.69,-283.98 1965.05,-311.37 2053,-382.99 2209.92,-510.78 2237,-597.12 2237,-799.49 2237,-1149.49 2237,-1149.49 2237,-1149.49 2237,-1339.26 2191,-1384.22 2191,-1573.98 2191,-2010.98 2191,-2010.98 2191,-2010.98 2191,-2050.68 2154.82,-2048.93 2117,-2060.98 2048.2,-2082.91 931.76,-2093.75 713.01,-2095.67"/>
<polygon fill="black" stroke="black" points="712.97,-2092.17 703,-2095.76 713.03,-2099.17 712.97,-2092.17"/>
<text text-anchor="middle" x="2242" y="-1144.79" font-family="Times,serif" font-size="14.00">1</text>
</g>
<!-- 16 -->
<g id="node18" class="node">
<title>16</title>
<ellipse fill="none" stroke="black" cx="1253" cy="-113.75" rx="22.96" ry="22.96"/>
<ellipse fill="none" stroke="black" cx="1253" cy="-113.75" rx="27" ry="27"/>
<text text-anchor="middle" x="1253" y="-110.05" font-family="Times,serif" font-size="14.00">16</text>
</g>
<!-- 6&#45;&gt;16 -->
<g id="edge21" class="edge">
<title>6&#45;&gt;16</title>
<path fill="none" stroke="black" d="M1596.28,-202.2C1532.72,-186.01 1363.35,-142.86 1288.93,-123.9"/>
<polygon fill="black" stroke="black" points="1289.63,-120.47 1279.08,-121.39 1287.9,-127.25 1289.63,-120.47"/>
<text text-anchor="middle" x="1486" y="-162.3" font-family="Times,serif" font-size="14.00">3</text>
</g>
<!-- 6&#45;&gt;24 -->
<g id="edge46" class="edge">
<title>6&#45;&gt;24</title>
<path fill="none" stroke="black" d="M1647.98,-210.9C1696.56,-213.04 1799.5,-224.16 1862,-278.5 1900.3,-311.79 1897.55,-333.34 1908,-382.99 1941.72,-543.26 1743,-548.71 1743,-712.49 1743,-844.99 1743,-844.99 1743,-844.99 1743,-880.74 1712.96,-881.16 1680,-894.99 1636.85,-913.1 1502.44,-923.64 1436.4,-927.84"/>
<polygon fill="black" stroke="black" points="1435.79,-924.37 1426.03,-928.49 1436.23,-931.36 1435.79,-924.37"/>
<text text-anchor="middle" x="1823" y="-579.29" font-family="Times,serif" font-size="14.00">4</text>
</g>
<!-- 6&#45;&gt;29 -->
<g id="edge70" class="edge">
<title>6&#45;&gt;29</title>
<path fill="none" stroke="black" d="M1598.86,-219.91C1588.06,-225.69 1575.92,-234.17 1569,-245.5 1399.72,-522.61 1507,-648.77 1507,-973.49 1507,-1149.49 1507,-1149.49 1507,-1149.49 1507,-1230.9 1513.22,-1251.1 1515,-1332.49 1516.16,-1385.58 1551.98,-1413.86 1515,-1451.98 1492.21,-1475.48 958.67,-1467.84 926,-1469.98 880.13,-1472.99 827.47,-1478.64 793.28,-1482.6"/>
<polygon fill="black" stroke="black" points="792.82,-1479.13 783.3,-1483.76 793.64,-1486.08 792.82,-1479.13"/>
<text text-anchor="middle" x="1508" y="-840.29" font-family="Times,serif" font-size="14.00">0</text>
</g>
<!-- 7 -->
<g id="node9" class="node">
<title>7</title>
<ellipse fill="none" stroke="black" cx="841" cy="-756.99" rx="27" ry="18"/>
<text text-anchor="middle" x="841" y="-753.29" font-family="Times,serif" font-size="14.00">7</text>
</g>
<!-- 10 -->
<g id="node12" class="node">
<title>10</title>
<ellipse fill="none" stroke="black" cx="1244" cy="-669.99" rx="27" ry="18"/>
<text text-anchor="middle" x="1244" y="-666.29" font-family="Times,serif" font-size="14.00">10</text>
</g>
<!-- 7&#45;&gt;10 -->
<g id="edge134" class="edge">
<title>7&#45;&gt;10</title>
<path fill="none" stroke="black" d="M866.52,-750.61C935.98,-735.96 1128.61,-695.33 1208.53,-678.47"/>
<polygon fill="black" stroke="black" points="1209.53,-681.84 1218.6,-676.35 1208.09,-674.99 1209.53,-681.84"/>
<text text-anchor="middle" x="1072" y="-709.79" font-family="Times,serif" font-size="14.00">4</text>
</g>
<!-- 7&#45;&gt;13 -->
<g id="edge44" class="edge">
<title>7&#45;&gt;13</title>
<path fill="none" stroke="black" d="M813.9,-758.79C747.2,-761.53 570.67,-773.58 435,-825.99 393.6,-841.99 376.56,-843.71 351,-879.99 296.62,-957.2 317.57,-993.68 303,-1086.99 256.38,-1385.68 179.87,-1484.3 287,-1766.98 301.76,-1805.93 522.19,-2003.67 556,-2027.98 584.96,-2048.81 620.85,-2068.42 645.8,-2081.18"/>
<polygon fill="black" stroke="black" points="644.28,-2084.34 654.79,-2085.73 647.44,-2078.09 644.28,-2084.34"/>
<text text-anchor="middle" x="242" y="-1440.78" font-family="Times,serif" font-size="14.00">2</text>
</g>
<!-- 7&#45;&gt;14 -->
<g id="edge119" class="edge">
<title>7&#45;&gt;14</title>
<path fill="none" stroke="black" d="M851.38,-773.62C855.03,-779.54 858.98,-786.43 862,-792.99 902.52,-881.1 902.21,-907.39 931,-999.99 988.55,-1185.08 989.04,-1235.67 1052,-1418.98 1067.82,-1465.04 1089.58,-1517.4 1102.67,-1547.96"/>
<polygon fill="black" stroke="black" points="1099.58,-1549.64 1106.75,-1557.44 1106.01,-1546.88 1099.58,-1549.64"/>
<text text-anchor="middle" x="981" y="-1144.79" font-family="Times,serif" font-size="14.00">3</text>
</g>
<!-- 23 -->
<g id="node25" class="node">
<title>23</title>
<ellipse fill="none" stroke="black" cx="904" cy="-1104.99" rx="27" ry="18"/>
<text text-anchor="middle" x="904" y="-1101.29" font-family="Times,serif" font-size="14.00">23</text>
</g>
<!-- 7&#45;&gt;23 -->
<g id="edge146" class="edge">
<title>7&#45;&gt;23</title>
<path fill="none" stroke="black" d="M844.14,-775.25C854.35,-831.32 886.63,-1008.61 899.06,-1076.85"/>
<polygon fill="black" stroke="black" points="895.64,-1077.62 900.88,-1086.83 902.53,-1076.37 895.64,-1077.62"/>
<text text-anchor="middle" x="881" y="-927.29" font-family="Times,serif" font-size="14.00">1</text>
</g>
<!-- 7&#45;&gt;27 -->
<g id="edge60" class="edge">
<title>7&#45;&gt;27</title>
<path fill="none" stroke="black" d="M841.63,-775.06C843.99,-840.35 852.34,-1080.54 855,-1278.49 855.22,-1294.49 855.04,-1298.49 855,-1314.49 854.78,-1407.6 854.22,-1430.87 854,-1523.98 853.98,-1530.65 852.95,-1532.4 854,-1538.98 859.45,-1573.07 872.94,-1610.57 882.76,-1634.87"/>
<polygon fill="black" stroke="black" points="879.65,-1636.52 886.7,-1644.43 886.12,-1633.85 879.65,-1636.52"/>
<text text-anchor="middle" x="860" y="-1197.04" font-family="Times,serif" font-size="14.00">0</text>
</g>
<!-- 8&#45;&gt;1 -->
<g id="edge58" class="edge">
<title>8&#45;&gt;1</title>
<path fill="none" stroke="black" d="M1643.1,-494.7C1685.12,-499.06 1777.24,-514.18 1832,-564.99 1884.26,-613.48 1895,-641.21 1895,-712.49 1895,-1062.49 1895,-1062.49 1895,-1062.49 1895,-1127.26 1944,-1134.97 1944,-1199.74 1944,-1619.48 1944,-1619.48 1944,-1619.48 1944,-1784.19 1974.2,-1884.38 1836,-1973.98 1792.47,-2002.21 1639.13,-2007.75 1567.45,-2008.79"/>
<polygon fill="black" stroke="black" points="1567.04,-2005.29 1557.08,-2008.91 1567.12,-2012.29 1567.04,-2005.29"/>
<text text-anchor="middle" x="1949" y="-1249.29" font-family="Times,serif" font-size="14.00">4</text>
</g>
<!-- 8&#45;&gt;5 -->
<g id="edge8" class="edge">
<title>8&#45;&gt;5</title>
<path fill="none" stroke="black" d="M1641.18,-482.94C1680.02,-467.44 1765.42,-433.35 1812.06,-414.74"/>
<polygon fill="black" stroke="black" points="1813.4,-417.97 1821.39,-411.01 1810.81,-411.47 1813.4,-417.97"/>
<text text-anchor="middle" x="1758" y="-440.79" font-family="Times,serif" font-size="14.00">0</text>
</g>
<!-- 8&#45;&gt;9 -->
<g id="edge150" class="edge">
<title>8&#45;&gt;9</title>
<path fill="none" stroke="black" d="M1598.76,-488.97C1472.01,-477.42 840.93,-419.93 680.92,-405.36"/>
<polygon fill="black" stroke="black" points="680.93,-401.84 670.65,-404.42 680.29,-408.81 680.93,-401.84"/>
<text text-anchor="middle" x="1196" y="-440.79" font-family="Times,serif" font-size="14.00">1</text>
</g>
<!-- 11 -->
<g id="node13" class="node">
<title>11</title>
<ellipse fill="none" stroke="black" cx="680" cy="-1017.99" rx="27" ry="18"/>
<text text-anchor="middle" x="680" y="-1014.29" font-family="Times,serif" font-size="14.00">11</text>
</g>
<!-- 8&#45;&gt;11 -->
<g id="edge36" class="edge">
<title>8&#45;&gt;11</title>
<path fill="none" stroke="black" d="M1613.59,-512.82C1584.95,-589.4 1483.12,-861.72 1483,-861.99 1464.55,-902.11 1471.6,-924.29 1435,-948.99 1375,-989.48 860.56,-1010.6 717.04,-1015.74"/>
<polygon fill="black" stroke="black" points="716.85,-1012.24 706.98,-1016.09 717.1,-1019.24 716.85,-1012.24"/>
<text text-anchor="middle" x="1534" y="-753.29" font-family="Times,serif" font-size="14.00">3</text>
</g>
<!-- 8&#45;&gt;20 -->
<g id="edge17" class="edge">
<title>8&#45;&gt;20</title>
<path fill="none" stroke="black" d="M1628.21,-513C1630.09,-519.03 1631.9,-525.71 1633,-531.99 1647.27,-613.44 1652.68,-753.09 1643,-807.99 1602.44,-1037.95 1588.07,-1162.76 1376,-1260.49 1323.6,-1284.64 914.62,-1275.38 857,-1278.49 787.97,-1282.21 707.54,-1288.56 661.8,-1292.35"/>
<polygon fill="black" stroke="black" points="661.45,-1288.87 651.77,-1293.19 662.03,-1295.85 661.45,-1288.87"/>
<text text-anchor="middle" x="1636" y="-883.79" font-family="Times,serif" font-size="14.00">2</text>
</g>
<!-- 9&#45;&gt;3 -->
<g id="edge91" class="edge">
<title>9&#45;&gt;3</title>
<path fill="none" stroke="black" d="M631.38,-417.19C613.08,-439.06 577.86,-480.46 546,-513.99 461.57,-602.86 404.8,-597.37 348,-705.99 304.8,-788.61 321.58,-820.07 314,-912.99 306.71,-1002.36 381.61,-1631.95 420,-1712.98 440.19,-1755.59 480.61,-1793.49 507.23,-1815.35"/>
<polygon fill="black" stroke="black" points="505.36,-1818.33 515.35,-1821.86 509.74,-1812.87 505.36,-1818.33"/>
<text text-anchor="middle" x="333" y="-1101.29" font-family="Times,serif" font-size="14.00">3</text>
</g>
<!-- 9&#45;&gt;7 -->
<g id="edge28" class="edge">
<title>9&#45;&gt;7</title>
<path fill="none" stroke="black" d="M667.97,-409.7C699.79,-421.61 752,-447.74 752,-490.99 752,-670.99 752,-670.99 752,-670.99 752,-703.72 783.87,-727.72 809.47,-741.71"/>
<polygon fill="black" stroke="black" points="808.05,-744.92 818.54,-746.41 811.27,-738.71 808.05,-744.92"/>
<text text-anchor="middle" x="757" y="-579.29" font-family="Times,serif" font-size="14.00">0</text>
</g>
<!-- 9&#45;&gt;7 -->
<g id="edge98" class="edge">
<title>9&#45;&gt;7</title>
<path fill="none" stroke="black" d="M670.8,-403.31C720.73,-407.35 823,-423.84 823,-490.99 823,-670.99 823,-670.99 823,-670.99 823,-690.98 827.82,-713.05 832.47,-729.69"/>
<polygon fill="black" stroke="black" points="829.12,-730.68 835.3,-739.28 835.83,-728.7 829.12,-730.68"/>
<text text-anchor="middle" x="828" y="-579.29" font-family="Times,serif" font-size="14.00">2</text>
</g>
<!-- 9&#45;&gt;11 -->
<g id="edge19" class="edge">
<title>9&#45;&gt;11</title>
<path fill="none" stroke="black" d="M655.2,-417.54C666.4,-434.66 682,-463.44 682,-490.99 682,-931.99 682,-931.99 682,-931.99 682,-951.24 681.48,-972.94 680.97,-989.6"/>
<polygon fill="black" stroke="black" points="677.47,-989.63 680.64,-999.74 684.47,-989.86 677.47,-989.63"/>
<text text-anchor="middle" x="687" y="-709.79" font-family="Times,serif" font-size="14.00">1</text>
</g>
<!-- 28 -->
<g id="node30" class="node">
<title>28</title>
<ellipse fill="none" stroke="black" cx="557" cy="-305.24" rx="22.96" ry="22.96"/>
<ellipse fill="none" stroke="black" cx="557" cy="-305.24" rx="27" ry="27"/>
<text text-anchor="middle" x="557" y="-301.54" font-family="Times,serif" font-size="14.00">28</text>
</g>
<!-- 9&#45;&gt;28 -->
<g id="edge123" class="edge">
<title>9&#45;&gt;28</title>
<path fill="none" stroke="black" d="M630.41,-385.34C617.39,-371.32 597.46,-349.84 581.65,-332.8"/>
<polygon fill="black" stroke="black" points="584.08,-330.28 574.71,-325.33 578.95,-335.04 584.08,-330.28"/>
<text text-anchor="middle" x="616" y="-353.79" font-family="Times,serif" font-size="14.00">4</text>
</g>
<!-- 10&#45;&gt;14 -->
<g id="edge80" class="edge">
<title>10&#45;&gt;14</title>
<path fill="none" stroke="black" d="M1239.41,-687.92C1229.98,-723.3 1208.39,-807.8 1197,-879.99 1190.95,-918.35 1191.56,-928.25 1189,-966.99 1172.23,-1220.86 1290.04,-1316.85 1166,-1538.98 1161.25,-1547.5 1153.45,-1554.34 1145.33,-1559.63"/>
<polygon fill="black" stroke="black" points="1143.38,-1556.72 1136.51,-1564.78 1146.91,-1562.76 1143.38,-1556.72"/>
<text text-anchor="middle" x="1200" y="-1101.29" font-family="Times,serif" font-size="14.00">3</text>
</g>
<!-- 15 -->
<g id="node17" class="node">
<title>15</title>
<ellipse fill="none" stroke="black" cx="1311" cy="-582.99" rx="27" ry="18"/>
<text text-anchor="middle" x="1311" y="-579.29" font-family="Times,serif" font-size="14.00">15</text>
</g>
<!-- 10&#45;&gt;15 -->
<g id="edge47" class="edge">
<title>10&#45;&gt;15</title>
<path fill="none" stroke="black" d="M1255.9,-653.64C1263.6,-643.72 1273.86,-630.57 1283,-618.99 1286.04,-615.15 1289.27,-611.08 1292.42,-607.13"/>
<polygon fill="black" stroke="black" points="1295.18,-609.29 1298.69,-599.29 1289.71,-604.92 1295.18,-609.29"/>
<text text-anchor="middle" x="1288" y="-622.79" font-family="Times,serif" font-size="14.00">0</text>
</g>
<!-- 10&#45;&gt;24 -->
<g id="edge32" class="edge">
<title>10&#45;&gt;24</title>
<path fill="none" stroke="black" d="M1262.08,-683.37C1269.94,-689.46 1278.75,-697.34 1285,-705.99 1338.11,-779.52 1310.78,-820.13 1362,-894.99 1365.52,-900.13 1369.9,-905.1 1374.41,-909.59"/>
<polygon fill="black" stroke="black" points="1372.28,-912.39 1381.98,-916.66 1377.06,-907.28 1372.28,-912.39"/>
<text text-anchor="middle" x="1331" y="-796.79" font-family="Times,serif" font-size="14.00">4</text>
</g>
<!-- 10&#45;&gt;26 -->
<g id="edge129" class="edge">
<title>10&#45;&gt;26</title>
<path fill="none" stroke="black" d="M1245.86,-687.96C1248.17,-708.58 1252.4,-744.4 1257,-774.99 1278.84,-920.09 1311.75,-1091.8 1326.01,-1164.46"/>
<polygon fill="black" stroke="black" points="1322.61,-1165.31 1327.97,-1174.45 1329.47,-1163.96 1322.61,-1165.31"/>
<text text-anchor="middle" x="1291" y="-927.29" font-family="Times,serif" font-size="14.00">2</text>
</g>
<!-- 10&#45;&gt;28 -->
<g id="edge37" class="edge">
<title>10&#45;&gt;28</title>
<path fill="none" stroke="black" d="M1227.35,-655.72C1199.71,-633.6 1142.78,-587.59 1096,-546.99 1048.72,-505.96 1033.56,-498.81 992,-451.99 955,-410.3 966.96,-378.41 919,-349.99 864.66,-317.79 675.1,-309.21 594.13,-306.99"/>
<polygon fill="black" stroke="black" points="593.99,-303.49 583.9,-306.73 593.81,-310.48 593.99,-303.49"/>
<text text-anchor="middle" x="1062" y="-488.29" font-family="Times,serif" font-size="14.00">1</text>
</g>
<!-- 11&#45;&gt;0 -->
<g id="edge51" class="edge">
<title>11&#45;&gt;0</title>
<path fill="none" stroke="black" d="M654.74,-1024.36C609.02,-1033.97 509.48,-1054.49 425,-1068.99 370.98,-1078.27 350.66,-1059.93 303,-1086.99 259.6,-1111.63 254.42,-1129.4 232,-1173.99 224.05,-1189.8 76,-1773.79 76,-1791.48 76,-2097.98 76,-2097.98 76,-2097.98 76,-2172.14 341.19,-2181.91 440.79,-2182.96"/>
<polygon fill="black" stroke="black" points="440.97,-2186.46 451,-2183.05 441.03,-2179.46 440.97,-2186.46"/>
<text text-anchor="middle" x="124" y="-1614.78" font-family="Times,serif" font-size="14.00">2</text>
</g>
<!-- 11&#45;&gt;9 -->
<g id="edge100" class="edge">
<title>11&#45;&gt;9</title>
<path fill="none" stroke="black" d="M669,-1001.53C658.42,-985.1 644,-957.95 644,-931.99 644,-931.99 644,-931.99 644,-490.99 644,-470.26 644,-446.82 644,-429.2"/>
<polygon fill="black" stroke="black" points="647.5,-429.05 644,-419.05 640.5,-429.05 647.5,-429.05"/>
<text text-anchor="middle" x="649" y="-709.79" font-family="Times,serif" font-size="14.00">4</text>
</g>
<!-- 11&#45;&gt;13 -->
<g id="edge147" class="edge">
<title>11&#45;&gt;13</title>
<path fill="none" stroke="black" d="M657.05,-1027.55C575.41,-1058.68 304,-1168.47 304,-1251.99 304,-1445.48 304,-1445.48 304,-1445.48 304,-1524.76 307.57,-1729.57 344,-1799.98 344.3,-1800.56 577.57,-2008.32 652.87,-2075.38"/>
<polygon fill="black" stroke="black" points="650.65,-2078.1 660.45,-2082.13 655.31,-2072.87 650.65,-2078.1"/>
<text text-anchor="middle" x="314" y="-1571.28" font-family="Times,serif" font-size="14.00">0</text>
</g>
<!-- 11&#45;&gt;20 -->
<g id="edge112" class="edge">
<title>11&#45;&gt;20</title>
<path fill="none" stroke="black" d="M672.57,-1035.48C670.2,-1041.24 667.74,-1047.82 666,-1053.99 644.61,-1130.01 632.68,-1222.81 627.74,-1268.05"/>
<polygon fill="black" stroke="black" points="624.23,-1267.92 626.66,-1278.23 631.19,-1268.66 624.23,-1267.92"/>
<text text-anchor="middle" x="651" y="-1144.79" font-family="Times,serif" font-size="14.00">3</text>
</g>
<!-- 11&#45;&gt;24 -->
<g id="edge120" class="edge">
<title>11&#45;&gt;24</title>
<path fill="none" stroke="black" d="M706.71,-1014.67C792.95,-1007.05 1071.72,-981.4 1301,-948.99 1321.68,-946.07 1344.69,-942.11 1363.22,-938.75"/>
<polygon fill="black" stroke="black" points="1364.07,-942.16 1373.28,-936.91 1362.81,-935.27 1364.07,-942.16"/>
<text text-anchor="middle" x="1154" y="-970.79" font-family="Times,serif" font-size="14.00">1</text>
</g>
<!-- 12 -->
<g id="node14" class="node">
<title>12</title>
<ellipse fill="none" stroke="black" cx="294" cy="-209.5" rx="27" ry="18"/>
<text text-anchor="middle" x="294" y="-205.8" font-family="Times,serif" font-size="14.00">12</text>
</g>
<!-- 12&#45;&gt;13 -->
<g id="edge125" class="edge">
<title>12&#45;&gt;13</title>
<path fill="none" stroke="black" d="M267.39,-213.21C195.02,-221.33 0,-248.39 0,-304.24 0,-1706.48 0,-1706.48 0,-1706.48 0,-1760.04 33.91,-1766.87 76,-1799.98 247.24,-1934.72 279.8,-2007.39 491,-2060.98 542.12,-2073.96 602.28,-2084.48 639.78,-2090.49"/>
<polygon fill="black" stroke="black" points="639.31,-2093.96 649.74,-2092.06 640.41,-2087.04 639.31,-2093.96"/>
<text text-anchor="middle" x="5" y="-1144.79" font-family="Times,serif" font-size="14.00">0</text>
</g>
<!-- 12&#45;&gt;16 -->
<g id="edge81" class="edge">
<title>12&#45;&gt;16</title>
<path fill="none" stroke="black" d="M320.65,-205.89C455.35,-192.72 1060.92,-133.53 1216.48,-118.32"/>
<polygon fill="black" stroke="black" points="1216.87,-121.8 1226.48,-117.34 1216.19,-114.83 1216.87,-121.8"/>
<text text-anchor="middle" x="808" y="-162.3" font-family="Times,serif" font-size="14.00">3</text>
</g>
<!-- 12&#45;&gt;18 -->
<g id="edge23" class="edge">
<title>12&#45;&gt;18</title>
<path fill="none" stroke="black" d="M279.47,-194.16C267.74,-181.38 252.35,-161.49 247,-140.5 237.3,-102.45 231.75,-74.89 265,-54 320.62,-19.06 784.44,-18.25 920.58,-18.78"/>
<polygon fill="black" stroke="black" points="920.89,-22.28 930.9,-18.82 920.92,-15.28 920.89,-22.28"/>
<text text-anchor="middle" x="252" y="-110.05" font-family="Times,serif" font-size="14.00">4</text>
</g>
<!-- 12&#45;&gt;18 -->
<g id="edge71" class="edge">
<title>12&#45;&gt;18</title>
<path fill="none" stroke="black" d="M288.99,-191.66C280.07,-157.79 266.27,-82.22 311,-54 362.53,-21.49 790.26,-18.94 920.51,-18.92"/>
<polygon fill="black" stroke="black" points="920.77,-22.42 930.77,-18.93 920.77,-15.42 920.77,-22.42"/>
<text text-anchor="middle" x="291" y="-110.05" font-family="Times,serif" font-size="14.00">1</text>
</g>
<!-- 12&#45;&gt;18 -->
<g id="edge73" class="edge">
<title>12&#45;&gt;18</title>
<path fill="none" stroke="black" d="M297.59,-191.46C305.67,-154.92 326.33,-70.99 349,-54 394.65,-19.79 794.89,-18.37 920.47,-18.78"/>
<polygon fill="black" stroke="black" points="920.72,-22.28 930.74,-18.82 920.75,-15.28 920.72,-22.28"/>
<text text-anchor="middle" x="333" y="-110.05" font-family="Times,serif" font-size="14.00">2</text>
</g>
<!-- 13&#45;&gt;1 -->
<g id="edge130" class="edge">
<title>13&#45;&gt;1</title>
<path fill="none" stroke="black" d="M702.49,-2093.35C826.5,-2081 1349.6,-2028.94 1493.33,-2014.63"/>
<polygon fill="black" stroke="black" points="1493.79,-2018.11 1503.39,-2013.63 1493.09,-2011.14 1493.79,-2018.11"/>
<text text-anchor="middle" x="1160" y="-2049.78" font-family="Times,serif" font-size="14.00">3</text>
</g>
<!-- 13&#45;&gt;9 -->
<g id="edge59" class="edge">
<title>13&#45;&gt;9</title>
<path fill="none" stroke="black" d="M651.3,-2089.3C617.33,-2079.39 555.17,-2058.61 509,-2027.98 271.81,-1870.65 174.46,-1788.27 138,-1505.98 124.02,-1397.77 137.22,-1369.6 137,-1260.49 136.99,-1253.82 136.34,-1252.12 137,-1245.49 144.15,-1173.98 151.73,-1156.75 169,-1086.99 174.68,-1064.06 178.66,-1059.01 184,-1035.99 205.32,-944.16 201.16,-691.01 262,-618.99 359.78,-503.25 535.84,-436.47 609.8,-412.36"/>
<polygon fill="black" stroke="black" points="611.09,-415.62 619.55,-409.24 608.95,-408.95 611.09,-415.62"/>
<text text-anchor="middle" x="142" y="-1249.29" font-family="Times,serif" font-size="14.00">1</text>
</g>
<!-- 13&#45;&gt;10 -->
<g id="edge101" class="edge">
<title>13&#45;&gt;10</title>
<path fill="none" stroke="black" d="M703.14,-2095.26C870.51,-2090.5 1757.61,-2061.28 1836,-1973.98 1941.7,-1856.28 1868,-1777.68 1868,-1619.48 1868,-1619.48 1868,-1619.48 1868,-1391.24 1868,-1265.7 1827.78,-1227.7 1737,-1140.99 1601.88,-1011.94 1467.72,-1103.74 1363,-948.99 1333.31,-905.12 1276.47,-757.63 1253.74,-697.18"/>
<polygon fill="black" stroke="black" points="1256.94,-695.73 1250.15,-687.6 1250.38,-698.19 1256.94,-695.73"/>
<text text-anchor="middle" x="1873" y="-1388.54" font-family="Times,serif" font-size="14.00">4</text>
</g>
<!-- 13&#45;&gt;19 -->
<g id="edge118" class="edge">
<title>13&#45;&gt;19</title>
<path fill="none" stroke="black" d="M703.05,-2096.15C885.92,-2097.14 1937.99,-2101.1 2074,-2060.98 2113.86,-2049.23 2153,-2052.54 2153,-2010.98 2153,-2010.98 2153,-2010.98 2153,-1486.98 2153,-1077.2 2305.51,-947.69 2159,-564.99 2110.57,-438.49 2066.85,-404.85 1943,-349.99 1915.24,-337.7 1882.85,-325.77 1859.2,-317.48"/>
<polygon fill="black" stroke="black" points="1860.23,-314.13 1849.64,-314.16 1857.93,-320.74 1860.23,-314.13"/>
<text text-anchor="middle" x="2188" y="-1197.04" font-family="Times,serif" font-size="14.00">0</text>
</g>
<!-- 13&#45;&gt;27 -->
<g id="edge141" class="edge">
<title>13&#45;&gt;27</title>
<path fill="none" stroke="black" d="M682.31,-2079.37C696.75,-2041.77 733.93,-1947.56 772,-1871.98 806.65,-1803.2 854.23,-1725.77 878.46,-1687.33"/>
<polygon fill="black" stroke="black" points="881.42,-1689.19 883.81,-1678.87 875.51,-1685.44 881.42,-1689.19"/>
<text text-anchor="middle" x="777" y="-1875.78" font-family="Times,serif" font-size="14.00">2</text>
</g>
<!-- 14&#45;&gt;2 -->
<g id="edge53" class="edge">
<title>14&#45;&gt;2</title>
<path fill="none" stroke="black" d="M1135,-1586.42C1169.16,-1605.04 1233,-1647.47 1233,-1704.48 1233,-1836.98 1233,-1836.98 1233,-1836.98 1233,-1859.08 1243.83,-1881.81 1253.93,-1898.2"/>
<polygon fill="black" stroke="black" points="1251.01,-1900.13 1259.39,-1906.61 1256.88,-1896.32 1251.01,-1900.13"/>
<text text-anchor="middle" x="1238" y="-1745.28" font-family="Times,serif" font-size="14.00">0</text>
</g>
<!-- 14&#45;&gt;6 -->
<g id="edge90" class="edge">
<title>14&#45;&gt;6</title>
<path fill="none" stroke="black" d="M1140.24,-1570.11C1223.8,-1557.23 1481.4,-1513.15 1535,-1451.98 1544.78,-1440.83 1538.56,-1433.75 1540,-1418.98 1563.33,-1180.33 1551.08,-1119.43 1564,-879.99 1573.84,-697.67 1573.39,-651.82 1590,-469.99 1597.77,-384.9 1610.89,-284.57 1617.28,-237.47"/>
<polygon fill="black" stroke="black" points="1620.76,-237.85 1618.64,-227.46 1613.82,-236.9 1620.76,-237.85"/>
<text text-anchor="middle" x="1569" y="-883.79" font-family="Times,serif" font-size="14.00">4</text>
</g>
<!-- 14&#45;&gt;15 -->
<g id="edge41" class="edge">
<title>14&#45;&gt;15</title>
<path fill="none" stroke="black" d="M1120.43,-1557.14C1122.29,-1551.46 1124.07,-1545.03 1125,-1538.98 1127.2,-1524.63 1123.12,-1498.6 1121,-1469.98 1112.69,-1358.05 1120.51,-1069.59 1075,-966.99 1049.84,-910.27 1004.84,-920.07 983,-861.99 977.37,-847.02 980.38,-841.78 983,-825.99 999.78,-725.01 997.27,-673.37 1084,-618.99 1114.95,-599.59 1217.84,-590.03 1273.87,-586.17"/>
<polygon fill="black" stroke="black" points="1274.34,-589.64 1284.09,-585.49 1273.88,-582.66 1274.34,-589.64"/>
<text text-anchor="middle" x="1105" y="-1057.79" font-family="Times,serif" font-size="14.00">1</text>
</g>
<!-- 14&#45;&gt;21 -->
<g id="edge78" class="edge">
<title>14&#45;&gt;21</title>
<path fill="none" stroke="black" d="M1112.57,-1556.99C1108.75,-1511.72 1098,-1384.42 1089,-1278.49 1075.97,-1125.21 1060.26,-941.45 1054.37,-872.72"/>
<polygon fill="black" stroke="black" points="1057.83,-872 1053.49,-862.34 1050.85,-872.6 1057.83,-872"/>
<text text-anchor="middle" x="1090" y="-1197.04" font-family="Times,serif" font-size="14.00">2</text>
</g>
<!-- 14&#45;&gt;29 -->
<g id="edge40" class="edge">
<title>14&#45;&gt;29</title>
<path fill="none" stroke="black" d="M1087.55,-1571.21C1046.67,-1566.57 965.87,-1556.06 899,-1538.98 860.26,-1529.09 817.12,-1513.17 788.67,-1501.96"/>
<polygon fill="black" stroke="black" points="789.83,-1498.65 779.25,-1498.2 787.24,-1505.16 789.83,-1498.65"/>
<text text-anchor="middle" x="904" y="-1527.78" font-family="Times,serif" font-size="14.00">3</text>
</g>
<!-- 15&#45;&gt;8 -->
<g id="edge131" class="edge">
<title>15&#45;&gt;8</title>
<path fill="none" stroke="black" d="M1335.33,-575.01C1391.19,-558.97 1528.56,-519.53 1590.2,-501.84"/>
<polygon fill="black" stroke="black" points="1591.46,-505.12 1600.1,-498.99 1589.53,-498.39 1591.46,-505.12"/>
<text text-anchor="middle" x="1490" y="-535.79" font-family="Times,serif" font-size="14.00">4</text>
</g>
<!-- 15&#45;&gt;10 -->
<g id="edge13" class="edge">
<title>15&#45;&gt;10</title>
<path fill="none" stroke="black" d="M1308.01,-601.01C1305.56,-611.32 1301.27,-624.31 1294,-633.99 1288.51,-641.3 1281.05,-647.66 1273.56,-652.87"/>
<polygon fill="black" stroke="black" points="1271.39,-650.11 1264.88,-658.46 1275.18,-655.99 1271.39,-650.11"/>
<text text-anchor="middle" x="1307" y="-622.79" font-family="Times,serif" font-size="14.00">0</text>
</g>
<!-- 15&#45;&gt;16 -->
<g id="edge117" class="edge">
<title>15&#45;&gt;16</title>
<path fill="none" stroke="black" d="M1287.25,-574.22C1255.73,-562.23 1204,-536 1204,-492.99 1204,-492.99 1204,-492.99 1204,-208.5 1204,-184.35 1216.93,-160.28 1229.5,-142.57"/>
<polygon fill="black" stroke="black" points="1232.41,-144.53 1235.59,-134.42 1226.8,-140.34 1232.41,-144.53"/>
<text text-anchor="middle" x="1209" y="-353.79" font-family="Times,serif" font-size="14.00">1</text>
</g>
<!-- 15&#45;&gt;17 -->
<g id="edge62" class="edge">
<title>15&#45;&gt;17</title>
<path fill="none" stroke="black" d="M1318.67,-565.57C1321.07,-559.81 1323.48,-553.22 1325,-546.99 1342.4,-475.87 1347.23,-389.98 1348.54,-342.41"/>
<polygon fill="black" stroke="black" points="1352.05,-342.38 1348.78,-332.3 1345.05,-342.21 1352.05,-342.38"/>
<text text-anchor="middle" x="1348" y="-440.79" font-family="Times,serif" font-size="14.00">3</text>
</g>
<!-- 15&#45;&gt;24 -->
<g id="edge102" class="edge">
<title>15&#45;&gt;24</title>
<path fill="none" stroke="black" d="M1315.29,-600.85C1329.43,-656.45 1374.69,-834.4 1392.09,-902.83"/>
<polygon fill="black" stroke="black" points="1388.78,-904.01 1394.64,-912.83 1395.56,-902.28 1388.78,-904.01"/>
<text text-anchor="middle" x="1364" y="-753.29" font-family="Times,serif" font-size="14.00">2</text>
</g>
<!-- 16&#45;&gt;1 -->
<g id="edge151" class="edge">
<title>16&#45;&gt;1</title>
<path fill="none" stroke="black" d="M1279.76,-114.5C1434.43,-113.39 2207,-112.65 2207,-208.5 2207,-445.49 2207,-445.49 2207,-445.49 2207,-541.58 2163.18,-558.05 2143,-651.99 2086.56,-914.68 2069,-983.3 2069,-1251.99 2069,-1923.98 2069,-1923.98 2069,-1923.98 2069,-1974.85 1689.64,-2000.19 1567.44,-2007.04"/>
<polygon fill="black" stroke="black" points="1566.89,-2003.56 1557.1,-2007.61 1567.28,-2010.55 1566.89,-2003.56"/>
<text text-anchor="middle" x="2080" y="-1057.79" font-family="Times,serif" font-size="14.00">4</text>
</g>
<!-- 16&#45;&gt;7 -->
<g id="edge103" class="edge">
<title>16&#45;&gt;7</title>
<path fill="none" stroke="black" d="M1226.15,-114.37C1167.67,-115.09 1034,-125.78 1034,-208.5 1034,-358.49 1034,-358.49 1034,-358.49 1034,-400.59 1001.32,-400.12 981,-436.99 923.42,-541.46 871.47,-674.3 850.65,-729.79"/>
<polygon fill="black" stroke="black" points="847.34,-728.63 847.13,-739.22 853.9,-731.08 847.34,-728.63"/>
<text text-anchor="middle" x="986" y="-440.79" font-family="Times,serif" font-size="14.00">3</text>
</g>
<!-- 16&#45;&gt;15 -->
<g id="edge136" class="edge">
<title>16&#45;&gt;15</title>
<path fill="none" stroke="black" d="M1226.77,-119.56C1185.49,-128.81 1110,-153.28 1110,-208.5 1110,-492.99 1110,-492.99 1110,-492.99 1110,-563.77 1215.49,-578.71 1273.62,-581.57"/>
<polygon fill="black" stroke="black" points="1273.76,-585.07 1283.89,-581.97 1274.04,-578.08 1273.76,-585.07"/>
<text text-anchor="middle" x="1115" y="-353.79" font-family="Times,serif" font-size="14.00">2</text>
</g>
<!-- 16&#45;&gt;16 -->
<g id="edge12" class="edge">
<title>16&#45;&gt;16</title>
<path fill="none" stroke="black" d="M1278.3,-123.41C1288.83,-124.08 1297.75,-120.86 1297.75,-113.75 1297.75,-109.08 1293.91,-106.09 1288.29,-104.77"/>
<polygon fill="black" stroke="black" points="1288.52,-101.28 1278.3,-104.08 1288.04,-108.27 1288.52,-101.28"/>
<text text-anchor="middle" x="1302.75" y="-110.05" font-family="Times,serif" font-size="14.00">0</text>
</g>
<!-- 16&#45;&gt;18 -->
<g id="edge140" class="edge">
<title>16&#45;&gt;18</title>
<path fill="none" stroke="black" d="M1227.59,-104.67C1174.35,-87.75 1051.08,-48.58 991.48,-29.64"/>
<polygon fill="black" stroke="black" points="992.39,-26.26 981.8,-26.56 990.27,-32.93 992.39,-26.26"/>
<text text-anchor="middle" x="1120" y="-57.8" font-family="Times,serif" font-size="14.00">1</text>
</g>
<!-- 17&#45;&gt;1 -->
<g id="edge33" class="edge">
<title>17&#45;&gt;1</title>
<path fill="none" stroke="black" d="M1373.34,-317C1389.86,-324.9 1411.77,-336.57 1429,-349.99 1462,-375.69 1457.71,-396.54 1493,-418.99 1555.61,-458.83 1584.64,-438.85 1652,-469.99 1724.65,-503.58 1758.71,-499.69 1805,-564.99 1866.74,-652.08 1857,-692.74 1857,-799.49 1857,-1149.49 1857,-1149.49 1857,-1149.49 1857,-1281.08 1822,-1311.9 1822,-1443.48 1822,-1923.98 1822,-1923.98 1822,-1923.98 1822,-1950.42 1643.32,-1987.51 1565.5,-2002.41"/>
<polygon fill="black" stroke="black" points="1564.83,-1998.97 1555.66,-2004.28 1566.13,-2005.85 1564.83,-1998.97"/>
<text text-anchor="middle" x="1862" y="-1144.79" font-family="Times,serif" font-size="14.00">1</text>
</g>
<!-- 17&#45;&gt;10 -->
<g id="edge133" class="edge">
<title>17&#45;&gt;10</title>
<path fill="none" stroke="black" d="M1324.53,-316.5C1295.21,-330.63 1250,-359.04 1250,-399.99 1250,-583.99 1250,-583.99 1250,-583.99 1250,-603.29 1248.44,-624.99 1246.91,-641.63"/>
<polygon fill="black" stroke="black" points="1243.41,-641.47 1245.93,-651.76 1250.38,-642.15 1243.41,-641.47"/>
<text text-anchor="middle" x="1255" y="-488.29" font-family="Times,serif" font-size="14.00">4</text>
</g>
<!-- 17&#45;&gt;15 -->
<g id="edge122" class="edge">
<title>17&#45;&gt;15</title>
<path fill="none" stroke="black" d="M1344.57,-331.75C1340.08,-358.07 1333.09,-400.33 1328,-436.99 1322.31,-477.95 1316.97,-525.6 1313.84,-554.77"/>
<polygon fill="black" stroke="black" points="1310.33,-554.68 1312.76,-565 1317.29,-555.42 1310.33,-554.68"/>
<text text-anchor="middle" x="1333" y="-440.79" font-family="Times,serif" font-size="14.00">0</text>
</g>
<!-- 17&#45;&gt;16 -->
<g id="edge3" class="edge">
<title>17&#45;&gt;16</title>
<path fill="none" stroke="black" d="M1337.23,-281.01C1320.2,-247.39 1288.62,-185.05 1269.34,-147"/>
<polygon fill="black" stroke="black" points="1272.36,-145.22 1264.72,-137.88 1266.11,-148.38 1272.36,-145.22"/>
<text text-anchor="middle" x="1314" y="-205.8" font-family="Times,serif" font-size="14.00">2</text>
</g>
<!-- 17&#45;&gt;24 -->
<g id="edge34" class="edge">
<title>17&#45;&gt;24</title>
<path fill="none" stroke="black" d="M1371.84,-319.26C1396.1,-334.99 1431,-363.88 1431,-399.99 1431,-714.49 1431,-714.49 1431,-714.49 1431,-783.07 1414.95,-862.59 1405.58,-903.17"/>
<polygon fill="black" stroke="black" points="1402.14,-902.54 1403.25,-913.08 1408.95,-904.15 1402.14,-902.54"/>
<text text-anchor="middle" x="1436" y="-622.79" font-family="Times,serif" font-size="14.00">3</text>
</g>
<!-- 18&#45;&gt;0 -->
<g id="edge54" class="edge">
<title>18&#45;&gt;0</title>
<path fill="none" stroke="black" d="M984.92,-19.4C1176.11,-22.39 2321,-43.18 2321,-112.75 2321,-2097.98 2321,-2097.98 2321,-2097.98 2321,-2161.13 2250.26,-2137.42 2188,-2147.98 2018.07,-2176.83 749.78,-2182.14 515.24,-2182.88"/>
<polygon fill="black" stroke="black" points="515.16,-2179.38 505.17,-2182.91 515.18,-2186.38 515.16,-2179.38"/>
<text text-anchor="middle" x="2326" y="-1101.29" font-family="Times,serif" font-size="14.00">3</text>
</g>
<!-- 18&#45;&gt;0 -->
<g id="edge68" class="edge">
<title>18&#45;&gt;0</title>
<path fill="none" stroke="black" d="M985.19,-18.92C1109.88,-18.74 1639.4,-20.14 2072,-54 2570.89,-93.05 2367,-17.79 2367,-112.75 2367,-2097.98 2367,-2097.98 2367,-2097.98 2367,-2149.67 2312.39,-2136.47 2262,-2147.98 2086.33,-2188.13 756.28,-2184.21 515.36,-2183.17"/>
<polygon fill="black" stroke="black" points="515.05,-2179.66 505.03,-2183.12 515.02,-2186.66 515.05,-2179.66"/>
<text text-anchor="middle" x="2372" y="-1101.29" font-family="Times,serif" font-size="14.00">0</text>
</g>
<!-- 18&#45;&gt;4 -->
<g id="edge106" class="edge">
<title>18&#45;&gt;4</title>
<path fill="none" stroke="black" d="M930.95,-20.35C827.1,-25.81 458.07,-47.85 425,-87 367.56,-155.01 373,-797.47 373,-886.49 373,-1062.49 373,-1062.49 373,-1062.49 373,-1303.01 421.67,-1359.64 480,-1592.98 489.67,-1631.68 483.43,-1644.69 502,-1679.98 511.09,-1697.26 517.55,-1698.83 531,-1712.98 535.31,-1717.52 540.03,-1722.26 544.6,-1726.73"/>
<polygon fill="black" stroke="black" points="542.41,-1729.49 552.03,-1733.94 547.28,-1724.46 542.41,-1729.49"/>
<text text-anchor="middle" x="378" y="-883.79" font-family="Times,serif" font-size="14.00">4</text>
</g>
<!-- 18&#45;&gt;23 -->
<g id="edge6" class="edge">
<title>18&#45;&gt;23</title>
<path fill="none" stroke="black" d="M958,-36.28C958,-55.09 958,-86.06 958,-112.75 958,-306.24 958,-306.24 958,-306.24 958,-386.11 900.82,-391.92 884,-469.99 844.89,-651.52 917,-700.8 917,-886.49 917,-1018.99 917,-1018.99 917,-1018.99 917,-1038.59 913.58,-1060.43 910.25,-1077.07"/>
<polygon fill="black" stroke="black" points="906.76,-1076.67 908.11,-1087.17 913.61,-1078.12 906.76,-1076.67"/>
<text text-anchor="middle" x="879" y="-579.29" font-family="Times,serif" font-size="14.00">2</text>
</g>
<!-- 18&#45;&gt;27 -->
<g id="edge72" class="edge">
<title>18&#45;&gt;27</title>
<path fill="none" stroke="black" d="M931.19,-20.97C824.91,-29.12 439,-62.22 439,-112.75 439,-306.24 439,-306.24 439,-306.24 439,-582.23 400.78,-1338.07 590,-1538.98 663.68,-1617.22 794.24,-1646.43 857.55,-1656.36"/>
<polygon fill="black" stroke="black" points="857.07,-1659.83 867.48,-1657.85 858.11,-1652.91 857.07,-1659.83"/>
<text text-anchor="middle" x="445" y="-840.29" font-family="Times,serif" font-size="14.00">1</text>
</g>
<!-- 19&#45;&gt;4 -->
<g id="edge115" class="edge">
<title>19&#45;&gt;4</title>
<path fill="none" stroke="black" d="M1802.15,-314.17C1784.98,-321.05 1762.54,-332.67 1749,-349.99 1734.79,-368.17 1735,-376.92 1735,-399.99 1735,-540.49 1735,-540.49 1735,-540.49 1735,-618.09 1705,-634.89 1705,-712.49 1705,-975.49 1705,-975.49 1705,-975.49 1705,-1037.51 1667,-1189.97 1667,-1251.99 1667,-1662.98 1667,-1662.98 1667,-1662.98 1667,-1737.91 1579.95,-1700.95 1506,-1712.98 1323.47,-1742.7 858.19,-1714.44 674,-1730.98 650.12,-1733.13 623.49,-1737.35 602.78,-1741.05"/>
<polygon fill="black" stroke="black" points="602.03,-1737.63 592.82,-1742.87 603.29,-1744.52 602.03,-1737.63"/>
<text text-anchor="middle" x="1709" y="-1014.29" font-family="Times,serif" font-size="14.00">2</text>
</g>
<!-- 19&#45;&gt;5 -->
<g id="edge137" class="edge">
<title>19&#45;&gt;5</title>
<path fill="none" stroke="black" d="M1830.71,-323.18C1832.84,-331.26 1835.26,-341.08 1837,-349.99 1838.44,-357.36 1839.7,-365.39 1840.74,-372.82"/>
<polygon fill="black" stroke="black" points="1837.27,-373.34 1842.05,-382.79 1844.21,-372.42 1837.27,-373.34"/>
<text text-anchor="middle" x="1845" y="-353.79" font-family="Times,serif" font-size="14.00">1</text>
</g>
<!-- 19&#45;&gt;6 -->
<g id="edge43" class="edge">
<title>19&#45;&gt;6</title>
<path fill="none" stroke="black" d="M1804.45,-294.39C1767.92,-277.68 1693.74,-243.76 1651.76,-224.56"/>
<polygon fill="black" stroke="black" points="1653.12,-221.34 1642.57,-220.36 1650.21,-227.7 1653.12,-221.34"/>
<text text-anchor="middle" x="1735" y="-249.3" font-family="Times,serif" font-size="14.00">4</text>
</g>
<!-- 19&#45;&gt;13 -->
<g id="edge92" class="edge">
<title>19&#45;&gt;13</title>
<path fill="none" stroke="black" d="M1848.16,-315.92C1894.89,-337.32 2004.5,-392.96 2069,-469.99 2131.08,-544.14 2157,-572.29 2157,-668.99 2157,-844.99 2157,-844.99 2157,-844.99 2157,-1026.84 2115,-1070.14 2115,-1251.99 2115,-2010.98 2115,-2010.98 2115,-2010.98 2115,-2055.97 2070.34,-2048.93 2027,-2060.98 1897.5,-2097 917.37,-2096.58 713.19,-2096.1"/>
<polygon fill="black" stroke="black" points="713,-2092.6 702.99,-2096.07 712.98,-2099.6 713,-2092.6"/>
<text text-anchor="middle" x="2123" y="-1197.04" font-family="Times,serif" font-size="14.00">3</text>
</g>
<!-- 19&#45;&gt;14 -->
<g id="edge104" class="edge">
<title>19&#45;&gt;14</title>
<path fill="none" stroke="black" d="M1820.86,-323.12C1816.44,-338.53 1810.42,-362.06 1808,-382.99 1804.48,-413.46 1804.67,-421.51 1808,-451.99 1813.59,-503.12 1827.41,-513.86 1833,-564.99 1853.25,-750.25 1838.66,-802.37 1789,-981.99 1755.51,-1103.12 1705,-1126.32 1705,-1251.99 1705,-1488.98 1705,-1488.98 1705,-1488.98 1705,-1554.22 1630.77,-1525.23 1567,-1538.98 1556.87,-1541.17 1257.74,-1563.38 1151.22,-1571.24"/>
<polygon fill="black" stroke="black" points="1150.66,-1567.77 1140.94,-1572 1151.17,-1574.76 1150.66,-1567.77"/>
<text text-anchor="middle" x="1813" y="-927.29" font-family="Times,serif" font-size="14.00">0</text>
</g>
<!-- 20&#45;&gt;0 -->
<g id="edge138" class="edge">
<title>20&#45;&gt;0</title>
<path fill="none" stroke="black" d="M605.68,-1309.16C564.78,-1334.53 467.98,-1398.24 404,-1469.98 320.44,-1563.67 317.78,-1607.35 296,-1730.98 212.79,-2203.31 267.05,-2087.11 277,-2114.98 283.37,-2132.83 287.76,-2138.21 304,-2147.98 346.17,-2173.36 403.46,-2180.7 440.58,-2182.63"/>
<polygon fill="black" stroke="black" points="440.81,-2186.14 450.95,-2183.05 441.1,-2179.14 440.81,-2186.14"/>
<text text-anchor="middle" x="301" y="-1745.28" font-family="Times,serif" font-size="14.00">4</text>
</g>
<!-- 20&#45;&gt;11 -->
<g id="edge55" class="edge">
<title>20&#45;&gt;11</title>
<path fill="none" stroke="black" d="M619.51,-1278.74C606.86,-1236.74 580.21,-1125.18 628,-1053.99 633.39,-1045.96 641.3,-1039.29 649.34,-1034"/>
<polygon fill="black" stroke="black" points="651.22,-1036.95 657.99,-1028.81 647.62,-1030.95 651.22,-1036.95"/>
<text text-anchor="middle" x="607" y="-1144.79" font-family="Times,serif" font-size="14.00">1</text>
</g>
<!-- 20&#45;&gt;14 -->
<g id="edge79" class="edge">
<title>20&#45;&gt;14</title>
<path fill="none" stroke="black" d="M640.31,-1311.95C651.36,-1322.18 666.77,-1336.06 681,-1347.49 691.68,-1356.06 696.56,-1355.57 706,-1365.49 737.57,-1398.66 725.44,-1424.41 762,-1451.98 783.89,-1468.49 795.43,-1460.1 821,-1469.98 887.94,-1495.86 899.28,-1515.21 967,-1538.98 1003.98,-1551.97 1047.86,-1561.71 1077.99,-1567.58"/>
<polygon fill="black" stroke="black" points="1077.56,-1571.06 1088.04,-1569.5 1078.87,-1564.19 1077.56,-1571.06"/>
<text text-anchor="middle" x="767" y="-1440.78" font-family="Times,serif" font-size="14.00">3</text>
</g>
<!-- 20&#45;&gt;14 -->
<g id="edge87" class="edge">
<title>20&#45;&gt;14</title>
<path fill="none" stroke="black" d="M650,-1303.83C688.11,-1314.02 762.5,-1335.91 821,-1365.49 894.16,-1402.48 914.05,-1413.02 973,-1469.98 1000.42,-1496.48 993.7,-1515.83 1024,-1538.98 1040.15,-1551.32 1061.18,-1559.82 1078.85,-1565.36"/>
<polygon fill="black" stroke="black" points="1078.22,-1568.82 1088.81,-1568.28 1080.19,-1562.1 1078.22,-1568.82"/>
<text text-anchor="middle" x="958" y="-1440.78" font-family="Times,serif" font-size="14.00">0</text>
</g>
<!-- 20&#45;&gt;26 -->
<g id="edge24" class="edge">
<title>20&#45;&gt;26</title>
<path fill="none" stroke="black" d="M651.18,-1291.63C709.83,-1283.03 856.24,-1261.74 979,-1245.49 1094.72,-1230.17 1231.96,-1213.69 1296.29,-1206.06"/>
<polygon fill="black" stroke="black" points="1296.82,-1209.53 1306.34,-1204.87 1295.99,-1202.57 1296.82,-1209.53"/>
<text text-anchor="middle" x="984" y="-1249.29" font-family="Times,serif" font-size="14.00">2</text>
</g>
<!-- 21&#45;&gt;7 -->
<g id="edge9" class="edge">
<title>21&#45;&gt;7</title>
<path fill="none" stroke="black" d="M1029.42,-833.9C991.84,-818.76 916.35,-788.34 873.2,-770.96"/>
<polygon fill="black" stroke="black" points="874.32,-767.64 863.74,-767.15 871.71,-774.13 874.32,-767.64"/>
<text text-anchor="middle" x="965" y="-796.79" font-family="Times,serif" font-size="14.00">3</text>
</g>
<!-- 21&#45;&gt;8 -->
<g id="edge49" class="edge">
<title>21&#45;&gt;8</title>
<path fill="none" stroke="black" d="M1078.93,-841.95C1141.39,-839.18 1294.26,-830.26 1340,-807.99 1420.4,-768.84 1356.27,-691.21 1409,-618.99 1433.18,-585.87 1539.9,-531.76 1592.07,-506.62"/>
<polygon fill="black" stroke="black" points="1593.64,-509.75 1601.15,-502.28 1590.62,-503.44 1593.64,-509.75"/>
<text text-anchor="middle" x="1398" y="-666.29" font-family="Times,serif" font-size="14.00">4</text>
</g>
<!-- 21&#45;&gt;10 -->
<g id="edge97" class="edge">
<title>21&#45;&gt;10</title>
<path fill="none" stroke="black" d="M1060.28,-826.75C1075.43,-798.49 1110.24,-740.05 1155,-705.99 1170.91,-693.89 1191.53,-685.43 1208.92,-679.86"/>
<polygon fill="black" stroke="black" points="1210.16,-683.15 1218.73,-676.91 1208.14,-676.44 1210.16,-683.15"/>
<text text-anchor="middle" x="1125" y="-753.29" font-family="Times,serif" font-size="14.00">1</text>
</g>
<!-- 21&#45;&gt;18 -->
<g id="edge116" class="edge">
<title>21&#45;&gt;18</title>
<path fill="none" stroke="black" d="M1051.47,-825.69C1050.74,-799.7 1049.55,-749.04 1050,-705.99 1051.09,-601.09 1099.95,-564.3 1054,-469.99 1048.31,-458.32 1038.67,-462.46 1031,-451.99 1004.77,-416.2 996,-402.86 996,-358.49 996,-358.49 996,-358.49 996,-112.75 996,-87.92 984.41,-61.93 974.04,-43.63"/>
<polygon fill="black" stroke="black" points="976.91,-41.61 968.79,-34.8 970.89,-45.19 976.91,-41.61"/>
<text text-anchor="middle" x="1036" y="-440.79" font-family="Times,serif" font-size="14.00">0</text>
</g>
<!-- 21&#45;&gt;21 -->
<g id="edge11" class="edge">
<title>21&#45;&gt;21</title>
<path fill="none" stroke="black" d="M1076.53,-851.74C1087.51,-852.48 1097,-849.9 1097,-843.99 1097,-840.02 1092.72,-837.56 1086.57,-836.59"/>
<polygon fill="black" stroke="black" points="1086.65,-833.09 1076.53,-836.24 1086.41,-840.08 1086.65,-833.09"/>
<text text-anchor="middle" x="1102" y="-840.29" font-family="Times,serif" font-size="14.00">2</text>
</g>
<!-- 22&#45;&gt;8 -->
<g id="edge96" class="edge">
<title>22&#45;&gt;8</title>
<path fill="none" stroke="black" d="M1733.13,-1736.14C1753.85,-1721.67 1784,-1695.1 1784,-1662.98 1784,-1662.98 1784,-1662.98 1784,-1391.24 1784,-1238.84 1804.51,-850.79 1757,-705.99 1732.01,-629.84 1673.43,-553.9 1641.93,-516.66"/>
<polygon fill="black" stroke="black" points="1644.43,-514.2 1635.27,-508.89 1639.12,-518.76 1644.43,-514.2"/>
<text text-anchor="middle" x="1794" y="-1101.29" font-family="Times,serif" font-size="14.00">0</text>
</g>
<!-- 22&#45;&gt;11 -->
<g id="edge27" class="edge">
<title>22&#45;&gt;11</title>
<path fill="none" stroke="black" d="M1686.86,-1746.44C1545.18,-1738.31 895.46,-1700.04 858,-1679.98 677.1,-1583.13 680,-1459.18 680,-1253.99 680,-1253.99 680,-1253.99 680,-1103.99 680,-1084.74 680,-1063.05 680,-1046.39"/>
<polygon fill="black" stroke="black" points="683.5,-1046.25 680,-1036.25 676.5,-1046.25 683.5,-1046.25"/>
<text text-anchor="middle" x="690" y="-1388.54" font-family="Times,serif" font-size="14.00">2</text>
</g>
<!-- 22&#45;&gt;15 -->
<g id="edge4" class="edge">
<title>22&#45;&gt;15</title>
<path fill="none" stroke="black" d="M1723.02,-1731.93C1731.53,-1715.23 1743,-1688.09 1743,-1662.98 1743,-1662.98 1743,-1662.98 1743,-1251.99 1743,-1166.93 1711.28,-1150.51 1687,-1068.99 1668.77,-1007.79 1638.5,-848.54 1607,-792.99 1554.87,-701.08 1535.72,-673.16 1445,-618.99 1415.07,-601.12 1376.06,-592.27 1347.86,-587.95"/>
<polygon fill="black" stroke="black" points="1348.01,-584.43 1337.62,-586.5 1347.04,-591.37 1348.01,-584.43"/>
<text text-anchor="middle" x="1728" y="-1144.79" font-family="Times,serif" font-size="14.00">1</text>
</g>
<!-- 22&#45;&gt;16 -->
<g id="edge29" class="edge">
<title>22&#45;&gt;16</title>
<path fill="none" stroke="black" d="M1741.1,-1747.93C1794.03,-1746.24 1906,-1734.25 1906,-1662.98 1906,-1662.98 1906,-1662.98 1906,-1251.99 1906,-1148.88 2017,-904.6 2017,-801.49 2017,-801.49 2017,-801.49 2017,-625.49 2017,-497.98 2122,-486 2122,-358.49 2122,-358.49 2122,-358.49 2122,-208.5 2122,-123.49 1456.2,-115.47 1290.16,-114.79"/>
<polygon fill="black" stroke="black" points="1289.97,-111.29 1279.96,-114.76 1289.95,-118.29 1289.97,-111.29"/>
<text text-anchor="middle" x="2002" y="-927.29" font-family="Times,serif" font-size="14.00">4</text>
</g>
<!-- 22&#45;&gt;27 -->
<g id="edge144" class="edge">
<title>22&#45;&gt;27</title>
<path fill="none" stroke="black" d="M1688.26,-1743.41C1632.58,-1733.66 1496.71,-1710.72 1382,-1697.98 1214.35,-1679.38 1013.15,-1668.58 931.33,-1664.67"/>
<polygon fill="black" stroke="black" points="931.2,-1661.16 921.05,-1664.18 930.87,-1668.15 931.2,-1661.16"/>
<text text-anchor="middle" x="1497" y="-1701.78" font-family="Times,serif" font-size="14.00">3</text>
</g>
<!-- 23&#45;&gt;11 -->
<g id="edge109" class="edge">
<title>23&#45;&gt;11</title>
<path fill="none" stroke="black" d="M880.87,-1095.22C840.78,-1080 758.28,-1048.7 712.46,-1031.31"/>
<polygon fill="black" stroke="black" points="713.59,-1028 703,-1027.72 711.11,-1034.54 713.59,-1028"/>
<text text-anchor="middle" x="811" y="-1057.79" font-family="Times,serif" font-size="14.00">3</text>
</g>
<!-- 25 -->
<g id="node27" class="node">
<title>25</title>
<ellipse fill="none" stroke="black" cx="785" cy="-1392.24" rx="22.96" ry="22.96"/>
<ellipse fill="none" stroke="black" cx="785" cy="-1392.24" rx="27" ry="27"/>
<text text-anchor="middle" x="785" y="-1388.54" font-family="Times,serif" font-size="14.00">25</text>
</g>
<!-- 23&#45;&gt;25 -->
<g id="edge149" class="edge">
<title>23&#45;&gt;25</title>
<path fill="none" stroke="black" d="M881.69,-1115.29C859.23,-1125.93 825.59,-1145.63 809,-1173.99 775.85,-1230.66 776.55,-1309.97 780.48,-1355.42"/>
<polygon fill="black" stroke="black" points="777,-1355.78 781.45,-1365.4 783.97,-1355.11 777,-1355.78"/>
<text text-anchor="middle" x="789" y="-1249.29" font-family="Times,serif" font-size="14.00">0</text>
</g>
<!-- 23&#45;&gt;26 -->
<g id="edge121" class="edge">
<title>23&#45;&gt;26</title>
<path fill="none" stroke="black" d="M926.78,-1114.91C955.88,-1125.99 1007.99,-1144.8 1054,-1155.99 1139.53,-1176.8 1242.31,-1189.94 1296.08,-1195.93"/>
<polygon fill="black" stroke="black" points="1295.84,-1199.43 1306.17,-1197.03 1296.61,-1192.47 1295.84,-1199.43"/>
<text text-anchor="middle" x="1059" y="-1144.79" font-family="Times,serif" font-size="14.00">4</text>
</g>
<!-- 23&#45;&gt;29 -->
<g id="edge93" class="edge">
<title>23&#45;&gt;29</title>
<path fill="none" stroke="black" d="M898.57,-1122.67C896.73,-1128.46 894.72,-1134.99 893,-1140.99 857.86,-1263.69 880.75,-1306.21 821,-1418.98 811.23,-1437.43 795.1,-1454.52 781.48,-1466.95"/>
<polygon fill="black" stroke="black" points="779,-1464.47 773.82,-1473.71 783.63,-1469.72 779,-1464.47"/>
<text text-anchor="middle" x="872" y="-1292.79" font-family="Times,serif" font-size="14.00">2</text>
</g>
<!-- 23&#45;&gt;29 -->
<g id="edge139" class="edge">
<title>23&#45;&gt;29</title>
<path fill="none" stroke="black" d="M904.83,-1123.3C906.45,-1172.95 905.65,-1318.73 848,-1418.98 834.27,-1442.85 808.45,-1460.91 787.81,-1472.4"/>
<polygon fill="black" stroke="black" points="785.94,-1469.43 778.75,-1477.21 789.23,-1475.61 785.94,-1469.43"/>
<text text-anchor="middle" x="900" y="-1292.79" font-family="Times,serif" font-size="14.00">1</text>
</g>
<!-- 24&#45;&gt;0 -->
<g id="edge20" class="edge">
<title>24&#45;&gt;0</title>
<path fill="none" stroke="black" d="M1426.25,-931.69C1534.7,-932.11 1938.88,-949.2 2129,-1173.99 2260,-1328.89 2237,-1414.62 2237,-1617.48 2237,-2097.98 2237,-2097.98 2237,-2097.98 2237,-2187.32 770.26,-2184.38 515.5,-2183.19"/>
<polygon fill="black" stroke="black" points="515.29,-2179.69 505.28,-2183.14 515.26,-2186.69 515.29,-2179.69"/>
<text text-anchor="middle" x="2243" y="-1571.28" font-family="Times,serif" font-size="14.00">4</text>
</g>
<!-- 24&#45;&gt;13 -->
<g id="edge127" class="edge">
<title>24&#45;&gt;13</title>
<path fill="none" stroke="black" d="M1426.03,-932.88C1546.42,-938.38 2028,-977.54 2028,-1251.99 2028,-2010.98 2028,-2010.98 2028,-2010.98 2028,-2035.63 2024.69,-2047.58 2004,-2060.98 1948.41,-2097 922.93,-2096.56 713.26,-2096.09"/>
<polygon fill="black" stroke="black" points="713.08,-2092.59 703.07,-2096.07 713.06,-2099.59 713.08,-2092.59"/>
<text text-anchor="middle" x="2033" y="-1527.78" font-family="Times,serif" font-size="14.00">1</text>
</g>
<!-- 24&#45;&gt;14 -->
<g id="edge10" class="edge">
<title>24&#45;&gt;14</title>
<path fill="none" stroke="black" d="M1399.52,-949.1C1400.46,-995.18 1399.95,-1125.33 1369,-1227.49 1357.64,-1264.97 1233.26,-1512.94 1204,-1538.98 1188.75,-1552.56 1167.64,-1561.14 1149.7,-1566.4"/>
<polygon fill="black" stroke="black" points="1148.59,-1563.08 1139.85,-1569.07 1150.41,-1569.84 1148.59,-1563.08"/>
<text text-anchor="middle" x="1367" y="-1249.29" font-family="Times,serif" font-size="14.00">0</text>
</g>
<!-- 24&#45;&gt;18 -->
<g id="edge22" class="edge">
<title>24&#45;&gt;18</title>
<path fill="none" stroke="black" d="M1425.85,-928.59C1534.13,-922.58 1933,-896.92 1933,-844.99 1933,-844.99 1933,-844.99 1933,-490.99 1933,-375.24 2041,-369.75 2041,-254 2041,-254 2041,-254 2041,-112.75 2041,-0.77 1906.9,-69.46 1796,-54 1638.05,-31.98 1136.88,-22.02 995.47,-19.6"/>
<polygon fill="black" stroke="black" points="995.23,-16.1 985.17,-19.43 995.11,-23.1 995.23,-16.1"/>
<text text-anchor="middle" x="1938" y="-488.29" font-family="Times,serif" font-size="14.00">3</text>
</g>
<!-- 24&#45;&gt;21 -->
<g id="edge77" class="edge">
<title>24&#45;&gt;21</title>
<path fill="none" stroke="black" d="M1374.34,-923.62C1336.91,-913.99 1263.52,-895.23 1201,-879.99 1162.09,-870.51 1117.34,-860.06 1087.13,-853.07"/>
<polygon fill="black" stroke="black" points="1087.61,-849.59 1077.08,-850.75 1086.03,-856.41 1087.61,-849.59"/>
<text text-anchor="middle" x="1266" y="-883.79" font-family="Times,serif" font-size="14.00">2</text>
</g>
<!-- 25&#45;&gt;2 -->
<g id="edge38" class="edge">
<title>25&#45;&gt;2</title>
<path fill="none" stroke="black" d="M763.62,-1408.81C732.69,-1433.4 679.97,-1484.1 688,-1538.98 693.84,-1578.92 696.51,-1589.61 714,-1625.98 717.34,-1632.93 865.5,-1849.85 872,-1853.98 932.04,-1892.2 1146.85,-1912.51 1233.94,-1919.33"/>
<polygon fill="black" stroke="black" points="1233.91,-1922.83 1244.15,-1920.11 1234.44,-1915.85 1233.91,-1922.83"/>
<text text-anchor="middle" x="755" y="-1658.28" font-family="Times,serif" font-size="14.00">4</text>
</g>
<!-- 25&#45;&gt;2 -->
<g id="edge99" class="edge">
<title>25&#45;&gt;2</title>
<path fill="none" stroke="black" d="M760.64,-1403.66C736.37,-1415.62 700.79,-1437.8 687,-1469.98 644.46,-1569.27 663.12,-1608.63 691,-1712.98 713.52,-1797.3 709.01,-1839.14 782,-1886.98 819.46,-1911.54 1125.91,-1919.38 1233.69,-1921.39"/>
<polygon fill="black" stroke="black" points="1233.71,-1924.89 1243.77,-1921.57 1233.84,-1917.89 1233.71,-1924.89"/>
<text text-anchor="middle" x="687" y="-1658.28" font-family="Times,serif" font-size="14.00">3</text>
</g>
<!-- 25&#45;&gt;11 -->
<g id="edge57" class="edge">
<title>25&#45;&gt;11</title>
<path fill="none" stroke="black" d="M774.21,-1367.49C762.98,-1340.55 747,-1295.03 747,-1253.99 747,-1253.99 747,-1253.99 747,-1103.99 747,-1076.66 725.36,-1052.94 706.68,-1037.56"/>
<polygon fill="black" stroke="black" points="708.7,-1034.69 698.66,-1031.29 704.39,-1040.21 708.7,-1034.69"/>
<text text-anchor="middle" x="752" y="-1197.04" font-family="Times,serif" font-size="14.00">0</text>
</g>
<!-- 25&#45;&gt;14 -->
<g id="edge88" class="edge">
<title>25&#45;&gt;14</title>
<path fill="none" stroke="black" d="M807.3,-1407.83C813.3,-1411.59 819.83,-1415.55 826,-1418.98 870.97,-1444.04 889.45,-1438.26 930,-1469.98 961.55,-1494.67 954.3,-1517.32 988,-1538.98 1015.14,-1556.43 1050.99,-1565.3 1077.5,-1569.73"/>
<polygon fill="black" stroke="black" points="1077.11,-1573.21 1087.53,-1571.27 1078.17,-1566.29 1077.11,-1573.21"/>
<text text-anchor="middle" x="964" y="-1484.28" font-family="Times,serif" font-size="14.00">2</text>
</g>
<!-- 25&#45;&gt;20 -->
<g id="edge84" class="edge">
<title>25&#45;&gt;20</title>
<path fill="none" stroke="black" d="M762.6,-1376.82C756.6,-1373.06 750.09,-1369.06 744,-1365.49 729.59,-1357.04 725.56,-1355.69 711,-1347.49 691.7,-1336.62 670.16,-1324.09 653.46,-1314.29"/>
<polygon fill="black" stroke="black" points="655.12,-1311.21 644.72,-1309.16 651.57,-1317.24 655.12,-1311.21"/>
<text text-anchor="middle" x="716" y="-1336.29" font-family="Times,serif" font-size="14.00">1</text>
</g>
<!-- 26&#45;&gt;1 -->
<g id="edge143" class="edge">
<title>26&#45;&gt;1</title>
<path fill="none" stroke="black" d="M1353.81,-1218.36C1421.19,-1272.98 1629,-1448.12 1629,-1530.48 1629,-1923.98 1629,-1923.98 1629,-1923.98 1629,-1959.6 1591.66,-1983.53 1562.84,-1996.69"/>
<polygon fill="black" stroke="black" points="1561.25,-1993.57 1553.46,-2000.75 1564.03,-1999.99 1561.25,-1993.57"/>
<text text-anchor="middle" x="1634" y="-1614.78" font-family="Times,serif" font-size="14.00">2</text>
</g>
<!-- 26&#45;&gt;8 -->
<g id="edge105" class="edge">
<title>26&#45;&gt;8</title>
<path fill="none" stroke="black" d="M1357.32,-1189.26C1397.34,-1170.8 1477.02,-1128.69 1521,-1068.99 1586.04,-980.7 1612.53,-631.09 1619.21,-524.2"/>
<polygon fill="black" stroke="black" points="1622.71,-524.26 1619.83,-514.07 1615.72,-523.84 1622.71,-524.26"/>
<text text-anchor="middle" x="1594" y="-840.29" font-family="Times,serif" font-size="14.00">3</text>
</g>
<!-- 26&#45;&gt;16 -->
<g id="edge74" class="edge">
<title>26&#45;&gt;16</title>
<path fill="none" stroke="black" d="M1359.88,-1199.29C1463.17,-1197.31 1830.73,-1188.07 1871,-1155.99 1996.83,-1055.77 1984.38,-595.15 1955,-436.99 1941.21,-362.78 1942.79,-336.09 1894,-278.5 1774.3,-137.2 1676.85,-193.45 1495,-158.5 1422.11,-144.49 1336.61,-129.33 1289.25,-121.04"/>
<polygon fill="black" stroke="black" points="1289.63,-117.56 1279.18,-119.28 1288.43,-124.45 1289.63,-117.56"/>
<text text-anchor="middle" x="1980" y="-666.29" font-family="Times,serif" font-size="14.00">0</text>
</g>
<!-- 26&#45;&gt;23 -->
<g id="edge15" class="edge">
<title>26&#45;&gt;23</title>
<path fill="none" stroke="black" d="M1306.81,-1194.02C1232.94,-1177.87 1022.88,-1131.97 939.11,-1113.66"/>
<polygon fill="black" stroke="black" points="939.82,-1110.24 929.31,-1111.52 938.33,-1117.08 939.82,-1110.24"/>
<text text-anchor="middle" x="1137" y="-1144.79" font-family="Times,serif" font-size="14.00">1</text>
</g>
<!-- 26&#45;&gt;25 -->
<g id="edge126" class="edge">
<title>26&#45;&gt;25</title>
<path fill="none" stroke="black" d="M1306.15,-1202.3C1253.92,-1204.13 1135.65,-1211.98 1043,-1245.49 987.31,-1265.63 980.48,-1285.22 929,-1314.49 891.11,-1336.03 846.75,-1359.4 817.39,-1374.62"/>
<polygon fill="black" stroke="black" points="815.68,-1371.56 808.41,-1379.26 818.9,-1377.78 815.68,-1371.56"/>
<text text-anchor="middle" x="987" y="-1292.79" font-family="Times,serif" font-size="14.00">4</text>
</g>
<!-- 27&#45;&gt;14 -->
<g id="edge45" class="edge">
<title>27&#45;&gt;14</title>
<path fill="none" stroke="black" d="M916.72,-1652.21C955.91,-1637.06 1036.36,-1605.98 1081.48,-1588.55"/>
<polygon fill="black" stroke="black" points="1083.01,-1591.71 1091.08,-1584.84 1080.49,-1585.18 1083.01,-1591.71"/>
<text text-anchor="middle" x="1023" y="-1614.78" font-family="Times,serif" font-size="14.00">2</text>
</g>
<!-- 27&#45;&gt;15 -->
<g id="edge142" class="edge">
<title>27&#45;&gt;15</title>
<path fill="none" stroke="black" d="M921.11,-1660.66C995.97,-1658.04 1203.28,-1638.71 1252,-1505.98 1253.79,-1501.11 1262.59,-933.95 1234,-879.99 1191.91,-800.56 1048.31,-819.14 1089,-738.99 1128.28,-661.62 1226.35,-615.23 1277.99,-595.38"/>
<polygon fill="black" stroke="black" points="1279.23,-598.65 1287.37,-591.87 1276.78,-592.1 1279.23,-598.65"/>
<text text-anchor="middle" x="1259" y="-1101.29" font-family="Times,serif" font-size="14.00">1</text>
</g>
<!-- 27&#45;&gt;21 -->
<g id="edge56" class="edge">
<title>27&#45;&gt;21</title>
<path fill="none" stroke="black" d="M908.02,-1646.45C941.03,-1611.11 1023.02,-1516.37 1052,-1418.98 1058.78,-1396.2 1052.14,-1389.26 1052,-1365.49 1051.78,-1326.82 1056.35,-1316.78 1051,-1278.49 1042.19,-1215.46 1006.62,-1204.48 1011,-1140.99 1017.88,-1041.21 1037.65,-923.85 1046.99,-871.97"/>
<polygon fill="black" stroke="black" points="1050.47,-872.39 1048.82,-861.92 1043.59,-871.14 1050.47,-872.39"/>
<text text-anchor="middle" x="1053" y="-1249.29" font-family="Times,serif" font-size="14.00">3</text>
</g>
<!-- 27&#45;&gt;23 -->
<g id="edge83" class="edge">
<title>27&#45;&gt;23</title>
<path fill="none" stroke="black" d="M891.98,-1643.92C888.66,-1607.88 885.96,-1522.96 926,-1469.98 937.27,-1455.08 953.07,-1467.14 964,-1451.98 972.45,-1440.27 968.41,-1369.32 968,-1365.49 957.27,-1264.02 952.07,-1237.85 920,-1140.99 919,-1137.98 917.83,-1134.88 916.57,-1131.83"/>
<polygon fill="black" stroke="black" points="919.66,-1130.16 912.41,-1122.43 913.25,-1132.99 919.66,-1130.16"/>
<text text-anchor="middle" x="975" y="-1388.54" font-family="Times,serif" font-size="14.00">0</text>
</g>
<!-- 27&#45;&gt;24 -->
<g id="edge14" class="edge">
<title>27&#45;&gt;24</title>
<path fill="none" stroke="black" d="M920.86,-1659.86C998.44,-1656.42 1219,-1645.02 1245,-1625.98 1366.6,-1536.96 1345,-1461.31 1379,-1314.49 1387.72,-1276.83 1393.4,-1005.56 1396,-966.99 1396.17,-964.44 1396.37,-961.78 1396.58,-959.12"/>
<polygon fill="black" stroke="black" points="1400.07,-959.33 1397.41,-949.07 1393.09,-958.75 1400.07,-959.33"/>
<text text-anchor="middle" x="1389" y="-1292.79" font-family="Times,serif" font-size="14.00">4</text>
</g>
<!-- 28&#45;&gt;1 -->
<g id="edge42" class="edge">
<title>28&#45;&gt;1</title>
<path fill="none" stroke="black" d="M535.72,-321.84C485.58,-359.38 357.95,-459.48 275,-564.99 247.71,-599.71 242.08,-610.49 227,-651.99 213.54,-689.02 217.46,-700.31 210,-738.99 194.92,-817.23 76,-1363.8 76,-1443.48 76,-1575.98 76,-1575.98 76,-1575.98 76,-1668.19 92.66,-1700.93 157,-1766.98 243.49,-1855.78 552.24,-1956.75 675,-1973.98 836.47,-1996.65 1349.65,-2006.18 1492.67,-2008.43"/>
<polygon fill="black" stroke="black" points="1492.65,-2011.93 1502.7,-2008.59 1492.76,-2004.94 1492.65,-2011.93"/>
<text text-anchor="middle" x="133" y="-1144.79" font-family="Times,serif" font-size="14.00">4</text>
</g>
<!-- 28&#45;&gt;13 -->
<g id="edge61" class="edge">
<title>28&#45;&gt;13</title>
<path fill="none" stroke="black" d="M532.81,-316.98C503.36,-330.52 452.65,-355.41 413,-382.99 322.88,-445.69 297.7,-468.14 246,-564.99 57.06,-918.96 38,-1042.25 38,-1443.48 38,-1706.48 38,-1706.48 38,-1706.48 38,-1811.99 141.15,-1788.66 224,-1853.98 354.68,-1957.01 377.61,-2009.95 536,-2060.98 571.15,-2072.31 612.23,-2082.2 640.77,-2088.55"/>
<polygon fill="black" stroke="black" points="640.16,-2092 650.68,-2090.72 641.66,-2085.16 640.16,-2092"/>
<text text-anchor="middle" x="50" y="-1197.04" font-family="Times,serif" font-size="14.00">2</text>
</g>
<!-- 28&#45;&gt;24 -->
<g id="edge69" class="edge">
<title>28&#45;&gt;24</title>
<path fill="none" stroke="black" d="M582.5,-314.03C641.16,-332.92 787.99,-385.93 884,-469.99 936.96,-516.36 924.89,-549.62 973,-600.99 1040.95,-673.55 1290.17,-852.73 1372.45,-911.2"/>
<polygon fill="black" stroke="black" points="1370.58,-914.17 1380.76,-917.1 1374.63,-908.46 1370.58,-914.17"/>
<text text-anchor="middle" x="1013" y="-622.79" font-family="Times,serif" font-size="14.00">1</text>
</g>
<!-- 28&#45;&gt;28 -->
<g id="edge2" class="edge">
<title>28&#45;&gt;28</title>
<path fill="none" stroke="black" d="M582.3,-314.91C592.83,-315.57 601.75,-312.35 601.75,-305.24 601.75,-300.58 597.91,-297.59 592.29,-296.27"/>
<polygon fill="black" stroke="black" points="592.52,-292.78 582.3,-295.58 592.04,-299.76 592.52,-292.78"/>
<text text-anchor="middle" x="606.75" y="-301.54" font-family="Times,serif" font-size="14.00">3</text>
</g>
<!-- 28&#45;&gt;29 -->
<g id="edge110" class="edge">
<title>28&#45;&gt;29</title>
<path fill="none" stroke="black" d="M552.11,-331.56C544.33,-374.12 530,-462.79 530,-538.49 530,-757.99 530,-757.99 530,-757.99 530,-815.31 541,-829.17 541,-886.49 541,-1018.99 541,-1018.99 541,-1018.99 541,-1085.52 551.12,-1259.8 589,-1314.49 614.96,-1351.97 646.38,-1332.64 678,-1365.49 696.61,-1384.82 691.68,-1396.29 706,-1418.98 715.82,-1434.55 728.17,-1451.08 738.26,-1463.95"/>
<polygon fill="black" stroke="black" points="735.56,-1466.17 744.51,-1471.83 741.04,-1461.82 735.56,-1466.17"/>
<text text-anchor="middle" x="546" y="-883.79" font-family="Times,serif" font-size="14.00">0</text>
</g>
<!-- 29&#45;&gt;0 -->
<g id="edge35" class="edge">
<title>29&#45;&gt;0</title>
<path fill="none" stroke="black" d="M751.13,-1505.7C735.2,-1550.08 688.45,-1673.86 631,-1766.98 606.07,-1807.39 605.26,-1823.33 569,-1853.98 543.34,-1875.67 532.83,-1876.24 501,-1886.98 462.77,-1899.9 447.62,-1886 412,-1904.98 337.83,-1944.51 311.37,-1965.86 286,-2045.98 271.4,-2092.1 286.73,-2117.14 324,-2147.98 356.93,-2175.23 406.85,-2182.27 440.87,-2183.61"/>
<polygon fill="black" stroke="black" points="440.79,-2187.11 450.88,-2183.86 440.97,-2180.11 440.79,-2187.11"/>
<text text-anchor="middle" x="607" y="-1832.28" font-family="Times,serif" font-size="14.00">3</text>
</g>
<!-- 29&#45;&gt;12 -->
<g id="edge124" class="edge">
<title>29&#45;&gt;12</title>
<path fill="none" stroke="black" d="M732.61,-1479.97C673.05,-1461.2 525,-1403.84 525,-1297.49 525,-1297.49 525,-1297.49 525,-1147.49 525,-1016.83 488.18,-688.31 445,-564.99 400.8,-438.76 333.54,-293.48 306.2,-235.89"/>
<polygon fill="black" stroke="black" points="309.32,-234.32 301.86,-226.8 303,-237.34 309.32,-234.32"/>
<text text-anchor="middle" x="508" y="-840.29" font-family="Times,serif" font-size="14.00">2</text>
</g>
<!-- 29&#45;&gt;25 -->
<g id="edge50" class="edge">
<title>29&#45;&gt;25</title>
<path fill="none" stroke="black" d="M765.44,-1470.56C768.15,-1464.8 770.97,-1458.21 773,-1451.98 775.42,-1444.55 777.46,-1436.42 779.12,-1428.65"/>
<polygon fill="black" stroke="black" points="782.58,-1429.21 781.1,-1418.72 775.71,-1427.84 782.58,-1429.21"/>
<text text-anchor="middle" x="783" y="-1440.78" font-family="Times,serif" font-size="14.00">1</text>
</g>
<!-- 29&#45;&gt;27 -->
<g id="edge107" class="edge">
<title>29&#45;&gt;27</title>
<path fill="none" stroke="black" d="M772.63,-1502.77C779.07,-1508.9 786.33,-1516.42 792,-1523.98 823.04,-1565.35 814.24,-1586.81 848,-1625.98 853.34,-1632.18 859.95,-1637.99 866.47,-1643.01"/>
<polygon fill="black" stroke="black" points="864.45,-1645.87 874.59,-1648.94 868.58,-1640.22 864.45,-1645.87"/>
<text text-anchor="middle" x="831" y="-1571.28" font-family="Times,serif" font-size="14.00">4</text>
</g>
<!-- 29&#45;&gt;29 -->
<g id="edge145" class="edge">
<title>29&#45;&gt;29</title>
<path fill="none" stroke="black" d="M781.53,-1495.74C792.51,-1496.47 802,-1493.89 802,-1487.98 802,-1484.02 797.72,-1481.55 791.57,-1480.58"/>
<polygon fill="black" stroke="black" points="791.65,-1477.08 781.53,-1480.23 791.41,-1484.07 791.65,-1477.08"/>
<text text-anchor="middle" x="807" y="-1484.28" font-family="Times,serif" font-size="14.00">0</text>
</g>
</g>
</svg>
