<?xml version="1.0" encoding="UTF-8" standalone="no"?>
<!DOCTYPE svg PUBLIC "-//W3C//DTD SVG 1.1//EN"
 "http://www.w3.org/Graphics/SVG/1.1/DTD/svg11.dtd">
<!-- Generated by graphviz version 2.49.0 (20210829.0051)
 -->
<!-- Pages: 1 -->
<svg width="2466pt" height="2464pt"
 viewBox="0.00 0.00 2466.00 2463.97" xmlns="http://www.w3.org/2000/svg" xmlns:xlink="http://www.w3.org/1999/xlink">
<g id="graph0" class="graph" transform="scale(1 1) rotate(0) translate(4 2459.97)">
<polygon fill="white" stroke="transparent" points="-4,4 -4,-2459.97 2462,-2459.97 2462,4 -4,4"/>
<!-- fake -->
<g id="node1" class="node">
<title>fake</title>
</g>
<!-- 29 -->
<g id="node31" class="node">
<title>29</title>
<ellipse fill="none" stroke="black" cx="1164" cy="-2356.22" rx="22.96" ry="22.96"/>
<ellipse fill="none" stroke="black" cx="1164" cy="-2356.22" rx="27" ry="27"/>
<text text-anchor="middle" x="1164" y="-2352.52" font-family="Times,serif" font-size="14.00">29</text>
</g>
<!-- fake&#45;&gt;29 -->
<g id="edge1" class="edge">
<title>fake&#45;&gt;29</title>
<path fill="none" stroke="black" stroke-width="2" d="M1164,-2419.66C1164,-2411.88 1164,-2402.37 1164,-2393.16"/>
<polygon fill="black" stroke="black" stroke-width="2" points="1167.5,-2392.98 1164,-2382.98 1160.5,-2392.98 1167.5,-2392.98"/>
</g>
<!-- 0 -->
<g id="node2" class="node">
<title>0</title>
<ellipse fill="none" stroke="black" cx="686" cy="-2173.47" rx="27" ry="18"/>
<text text-anchor="middle" x="686" y="-2169.77" font-family="Times,serif" font-size="14.00">0</text>
</g>
<!-- 4 -->
<g id="node6" class="node">
<title>4</title>
<ellipse fill="none" stroke="black" cx="1388" cy="-2082.47" rx="18" ry="18"/>
<ellipse fill="none" stroke="black" cx="1388" cy="-2082.47" rx="22" ry="22"/>
<text text-anchor="middle" x="1388" y="-2078.77" font-family="Times,serif" font-size="14.00">4</text>
</g>
<!-- 0&#45;&gt;4 -->
<g id="edge51" class="edge">
<title>0&#45;&gt;4</title>
<path fill="none" stroke="black" d="M712.85,-2171.43C781.23,-2168.52 967.39,-2159.11 1121,-2137.47 1207.13,-2125.34 1307.31,-2102.77 1356.9,-2091.02"/>
<polygon fill="black" stroke="black" points="1357.78,-2094.41 1366.69,-2088.68 1356.15,-2087.6 1357.78,-2094.41"/>
<text text-anchor="middle" x="1214" y="-2126.27" font-family="Times,serif" font-size="14.00">2</text>
</g>
<!-- 5 -->
<g id="node7" class="node">
<title>5</title>
<ellipse fill="none" stroke="black" cx="507" cy="-1722.47" rx="27" ry="18"/>
<text text-anchor="middle" x="507" y="-1718.77" font-family="Times,serif" font-size="14.00">5</text>
</g>
<!-- 0&#45;&gt;5 -->
<g id="edge59" class="edge">
<title>0&#45;&gt;5</title>
<path fill="none" stroke="black" d="M664.93,-2161.95C654.55,-2155.93 642.47,-2147.56 634,-2137.47 617.11,-2117.36 610,-2109.74 610,-2083.47 610,-2083.47 610,-2083.47 610,-1812.47 610,-1774.73 569.91,-1749.44 539.75,-1735.75"/>
<polygon fill="black" stroke="black" points="540.94,-1732.45 530.37,-1731.72 538.17,-1738.88 540.94,-1732.45"/>
<text text-anchor="middle" x="615" y="-1944.27" font-family="Times,serif" font-size="14.00">4</text>
</g>
<!-- 17 -->
<g id="node19" class="node">
<title>17</title>
<ellipse fill="none" stroke="black" cx="1272" cy="-1087.23" rx="22.96" ry="22.96"/>
<ellipse fill="none" stroke="black" cx="1272" cy="-1087.23" rx="27" ry="27"/>
<text text-anchor="middle" x="1272" y="-1083.53" font-family="Times,serif" font-size="14.00">17</text>
</g>
<!-- 0&#45;&gt;17 -->
<g id="edge10" class="edge">
<title>0&#45;&gt;17</title>
<path fill="none" stroke="black" d="M712.94,-2171.35C794.47,-2167.21 1033,-2149.47 1033,-2083.47 1033,-2083.47 1033,-2083.47 1033,-1764.97 1033,-1615.21 1159.79,-1619.84 1212,-1479.47 1258.37,-1354.8 1268.92,-1194.99 1271.31,-1124.45"/>
<polygon fill="black" stroke="black" points="1274.81,-1124.41 1271.62,-1114.31 1267.81,-1124.19 1274.81,-1124.41"/>
<text text-anchor="middle" x="1108" y="-1631.77" font-family="Times,serif" font-size="14.00">0</text>
</g>
<!-- 24 -->
<g id="node26" class="node">
<title>24</title>
<ellipse fill="none" stroke="black" cx="1547" cy="-1452.72" rx="22.96" ry="22.96"/>
<ellipse fill="none" stroke="black" cx="1547" cy="-1452.72" rx="27" ry="27"/>
<text text-anchor="middle" x="1547" y="-1449.02" font-family="Times,serif" font-size="14.00">24</text>
</g>
<!-- 0&#45;&gt;24 -->
<g id="edge129" class="edge">
<title>0&#45;&gt;24</title>
<path fill="none" stroke="black" d="M713.22,-2172.94C787.47,-2173.75 991.67,-2172.65 1047,-2137.47 1070.54,-2122.51 1079,-2111.37 1079,-2083.47 1079,-2083.47 1079,-2083.47 1079,-1946.97 1079,-1867.12 1118.03,-1852.94 1169,-1791.47 1252.48,-1690.8 1294.78,-1686.96 1392,-1599.47 1438.07,-1558.02 1490.33,-1508.3 1520.88,-1478.95"/>
<polygon fill="black" stroke="black" points="1523.38,-1481.4 1528.16,-1471.95 1518.53,-1476.36 1523.38,-1481.4"/>
<text text-anchor="middle" x="1174" y="-1809.77" font-family="Times,serif" font-size="14.00">3</text>
</g>
<!-- 26 -->
<g id="node28" class="node">
<title>26</title>
<ellipse fill="none" stroke="black" cx="2120" cy="-235.74" rx="22.96" ry="22.96"/>
<ellipse fill="none" stroke="black" cx="2120" cy="-235.74" rx="27" ry="27"/>
<text text-anchor="middle" x="2120" y="-232.04" font-family="Times,serif" font-size="14.00">26</text>
</g>
<!-- 0&#45;&gt;26 -->
<g id="edge76" class="edge">
<title>0&#45;&gt;26</title>
<path fill="none" stroke="black" d="M713.13,-2172.43C923.65,-2171.96 2288,-2165.73 2288,-2083.47 2288,-2083.47 2288,-2083.47 2288,-1225.48 2288,-1174.96 2302.3,-1163.9 2310,-1113.98 2314.88,-1082.38 2316.22,-1074.4 2318,-1042.48 2330.04,-826.52 2272,-774.29 2272,-557.99 2272,-557.99 2272,-557.99 2272,-334.49 2272,-279.77 2201.45,-254.24 2156.47,-243.52"/>
<polygon fill="black" stroke="black" points="2157,-240.05 2146.48,-241.28 2155.47,-246.88 2157,-240.05"/>
<text text-anchor="middle" x="2293" y="-1222.78" font-family="Times,serif" font-size="14.00">1</text>
</g>
<!-- 1 -->
<g id="node3" class="node">
<title>1</title>
<ellipse fill="none" stroke="black" cx="1686" cy="-1813.47" rx="18" ry="18"/>
<ellipse fill="none" stroke="black" cx="1686" cy="-1813.47" rx="22" ry="22"/>
<text text-anchor="middle" x="1686" y="-1809.77" font-family="Times,serif" font-size="14.00">1</text>
</g>
<!-- 1&#45;&gt;5 -->
<g id="edge77" class="edge">
<title>1&#45;&gt;5</title>
<path fill="none" stroke="black" d="M1663.99,-1810.33C1584.37,-1802.62 1303.83,-1775.84 1072,-1758.47 872.85,-1743.55 633.87,-1730.26 543.77,-1725.42"/>
<polygon fill="black" stroke="black" points="543.95,-1721.92 533.78,-1724.88 543.58,-1728.91 543.95,-1721.92"/>
<text text-anchor="middle" x="1262" y="-1762.27" font-family="Times,serif" font-size="14.00">1</text>
</g>
<!-- 15 -->
<g id="node17" class="node">
<title>15</title>
<ellipse fill="none" stroke="black" cx="1352" cy="-886.98" rx="27" ry="18"/>
<text text-anchor="middle" x="1352" y="-883.28" font-family="Times,serif" font-size="14.00">15</text>
</g>
<!-- 1&#45;&gt;15 -->
<g id="edge52" class="edge">
<title>1&#45;&gt;15</title>
<path fill="none" stroke="black" d="M1686,-1791.25C1686,-1773.22 1686,-1746.65 1686,-1723.47 1686,-1723.47 1686,-1723.47 1686,-1590.97 1686,-1464.05 1732.81,-1429.58 1704,-1305.98 1676.39,-1187.51 1647.34,-1163.71 1583,-1060.48 1542.19,-995 1540.96,-966.14 1477,-922.98 1450.61,-905.18 1415.29,-896.37 1388.92,-892.05"/>
<polygon fill="black" stroke="black" points="1389.35,-888.57 1378.94,-890.55 1388.31,-895.49 1389.35,-888.57"/>
<text text-anchor="middle" x="1718" y="-1353.28" font-family="Times,serif" font-size="14.00">3</text>
</g>
<!-- 18 -->
<g id="node20" class="node">
<title>18</title>
<ellipse fill="none" stroke="black" cx="1547" cy="-1356.98" rx="27" ry="18"/>
<text text-anchor="middle" x="1547" y="-1353.28" font-family="Times,serif" font-size="14.00">18</text>
</g>
<!-- 1&#45;&gt;18 -->
<g id="edge18" class="edge">
<title>1&#45;&gt;18</title>
<path fill="none" stroke="black" d="M1673.56,-1795C1662.47,-1777.7 1648,-1750.02 1648,-1723.47 1648,-1723.47 1648,-1723.47 1648,-1503.97 1648,-1467.7 1643.66,-1456.45 1624,-1425.98 1611.07,-1405.94 1590.65,-1388.28 1574.08,-1375.99"/>
<polygon fill="black" stroke="black" points="1575.99,-1373.05 1565.83,-1370.06 1571.91,-1378.74 1575.99,-1373.05"/>
<text text-anchor="middle" x="1653" y="-1588.27" font-family="Times,serif" font-size="14.00">4</text>
</g>
<!-- 21 -->
<g id="node23" class="node">
<title>21</title>
<ellipse fill="none" stroke="black" cx="1808" cy="-1548.47" rx="27" ry="18"/>
<text text-anchor="middle" x="1808" y="-1544.77" font-family="Times,serif" font-size="14.00">21</text>
</g>
<!-- 1&#45;&gt;21 -->
<g id="edge109" class="edge">
<title>1&#45;&gt;21</title>
<path fill="none" stroke="black" d="M1705.05,-1802.34C1716.14,-1795.54 1729.56,-1785.61 1738,-1773.47 1788.02,-1701.55 1765.26,-1667.23 1794,-1584.47 1795.02,-1581.54 1796.14,-1578.49 1797.29,-1575.47"/>
<polygon fill="black" stroke="black" points="1800.58,-1576.67 1800.99,-1566.09 1794.07,-1574.11 1800.58,-1576.67"/>
<text text-anchor="middle" x="1780" y="-1675.27" font-family="Times,serif" font-size="14.00">0</text>
</g>
<!-- 25 -->
<g id="node27" class="node">
<title>25</title>
<ellipse fill="none" stroke="black" cx="678" cy="-26.75" rx="27" ry="18"/>
<text text-anchor="middle" x="678" y="-23.05" font-family="Times,serif" font-size="14.00">25</text>
</g>
<!-- 1&#45;&gt;25 -->
<g id="edge100" class="edge">
<title>1&#45;&gt;25</title>
<path fill="none" stroke="black" d="M1707.72,-1809.42C1745.14,-1803.09 1822.14,-1785.18 1868,-1740.47 1897.12,-1712.08 2006,-1442.14 2006,-1401.48 2006,-1401.48 2006,-1401.48 2006,-1033.98 2006,-967.54 1777.57,-553.95 1746,-495.49 1710.82,-430.35 1632.73,-256.56 1576,-208.99 1443.16,-97.61 1380.13,-109.51 1211,-71.5 1028.39,-30.45 802.86,-26.92 715.25,-27.27"/>
<polygon fill="black" stroke="black" points="715,-23.78 705.02,-27.34 715.04,-30.78 715,-23.78"/>
<text text-anchor="middle" x="1978" y="-926.78" font-family="Times,serif" font-size="14.00">2</text>
</g>
<!-- 2 -->
<g id="node4" class="node">
<title>2</title>
<ellipse fill="none" stroke="black" cx="353" cy="-2260.47" rx="27" ry="18"/>
<text text-anchor="middle" x="353" y="-2256.77" font-family="Times,serif" font-size="14.00">2</text>
</g>
<!-- 2&#45;&gt;0 -->
<g id="edge142" class="edge">
<title>2&#45;&gt;0</title>
<path fill="none" stroke="black" d="M377.76,-2253.15C436.4,-2238.18 583.88,-2200.54 651.35,-2183.32"/>
<polygon fill="black" stroke="black" points="652.26,-2186.7 661.08,-2180.83 650.52,-2179.91 652.26,-2186.7"/>
<text text-anchor="middle" x="545" y="-2213.27" font-family="Times,serif" font-size="14.00">0</text>
</g>
<!-- 2&#45;&gt;2 -->
<g id="edge83" class="edge">
<title>2&#45;&gt;2</title>
<path fill="none" stroke="black" d="M377.53,-2268.22C388.51,-2268.96 398,-2266.38 398,-2260.47 398,-2256.5 393.72,-2254.03 387.57,-2253.07"/>
<polygon fill="black" stroke="black" points="387.65,-2249.57 377.53,-2252.72 387.41,-2256.56 387.65,-2249.57"/>
<text text-anchor="middle" x="403" y="-2256.77" font-family="Times,serif" font-size="14.00">2</text>
</g>
<!-- 9 -->
<g id="node11" class="node">
<title>9</title>
<ellipse fill="none" stroke="black" cx="744" cy="-513.49" rx="27" ry="18"/>
<text text-anchor="middle" x="744" y="-509.79" font-family="Times,serif" font-size="14.00">9</text>
</g>
<!-- 2&#45;&gt;9 -->
<g id="edge24" class="edge">
<title>2&#45;&gt;9</title>
<path fill="none" stroke="black" d="M345.09,-2242.96C337.77,-2226.13 328,-2199.08 328,-2174.47 328,-2174.47 328,-2174.47 328,-1764.97 328,-1686.68 290,-1671.26 290,-1592.97 290,-1592.97 290,-1592.97 290,-1312.48 290,-1279.2 365.47,-1056.36 382,-1027.48 446.86,-914.14 509.14,-922.06 588,-817.98 624.59,-769.69 702.31,-604.8 732.07,-540.48"/>
<polygon fill="black" stroke="black" points="735.4,-541.6 736.42,-531.05 729.05,-538.67 735.4,-541.6"/>
<text text-anchor="middle" x="295" y="-1396.78" font-family="Times,serif" font-size="14.00">4</text>
</g>
<!-- 10 -->
<g id="node12" class="node">
<title>10</title>
<ellipse fill="none" stroke="black" cx="1090" cy="-1182.98" rx="27" ry="18"/>
<text text-anchor="middle" x="1090" y="-1179.28" font-family="Times,serif" font-size="14.00">10</text>
</g>
<!-- 2&#45;&gt;10 -->
<g id="edge127" class="edge">
<title>2&#45;&gt;10</title>
<path fill="none" stroke="black" d="M367.11,-2244.83C372.83,-2238.69 379.4,-2231.38 385,-2224.47 482.63,-2103.89 483.9,-2055.51 588,-1940.47 717.75,-1797.09 808.47,-1814.85 915,-1653.47 996.03,-1530.72 964.04,-1475.8 1018,-1338.98 1036.37,-1292.4 1061.8,-1239.88 1077.01,-1209.49"/>
<polygon fill="black" stroke="black" points="1080.2,-1210.94 1081.56,-1200.44 1073.94,-1207.8 1080.2,-1210.94"/>
<text text-anchor="middle" x="882" y="-1718.77" font-family="Times,serif" font-size="14.00">1</text>
</g>
<!-- 23 -->
<g id="node25" class="node">
<title>23</title>
<ellipse fill="none" stroke="black" cx="246" cy="-604.49" rx="27" ry="18"/>
<text text-anchor="middle" x="246" y="-600.79" font-family="Times,serif" font-size="14.00">23</text>
</g>
<!-- 2&#45;&gt;23 -->
<g id="edge107" class="edge">
<title>2&#45;&gt;23</title>
<path fill="none" stroke="black" d="M326.98,-2254.74C307.36,-2250.01 280.85,-2240.97 263,-2224.47 163.14,-2132.19 130,-2084.94 130,-1948.97 130,-1948.97 130,-1948.97 130,-1677.97 130,-1458.41 126,-1403.54 126,-1183.98 126,-1183.98 126,-1183.98 126,-694.49 126,-651.57 176.12,-626.96 211.58,-614.91"/>
<polygon fill="black" stroke="black" points="212.68,-618.23 221.14,-611.84 210.54,-611.57 212.68,-618.23"/>
<text text-anchor="middle" x="134" y="-1449.02" font-family="Times,serif" font-size="14.00">3</text>
</g>
<!-- 3 -->
<g id="node5" class="node">
<title>3</title>
<ellipse fill="none" stroke="black" cx="1338" cy="-335.49" rx="18" ry="18"/>
<ellipse fill="none" stroke="black" cx="1338" cy="-335.49" rx="22" ry="22"/>
<text text-anchor="middle" x="1338" y="-331.79" font-family="Times,serif" font-size="14.00">3</text>
</g>
<!-- 3&#45;&gt;3 -->
<g id="edge54" class="edge">
<title>3&#45;&gt;3</title>
<path fill="none" stroke="black" d="M1358.58,-343.86C1368.84,-345.02 1378,-342.23 1378,-335.49 1378,-331.17 1374.24,-328.47 1368.84,-327.4"/>
<polygon fill="black" stroke="black" points="1368.67,-323.89 1358.58,-327.12 1368.48,-330.89 1368.67,-323.89"/>
<text text-anchor="middle" x="1383" y="-331.79" font-family="Times,serif" font-size="14.00">1</text>
</g>
<!-- 8 -->
<g id="node10" class="node">
<title>8</title>
<ellipse fill="none" stroke="black" cx="1042" cy="-604.49" rx="18" ry="18"/>
<ellipse fill="none" stroke="black" cx="1042" cy="-604.49" rx="22" ry="22"/>
<text text-anchor="middle" x="1042" y="-600.79" font-family="Times,serif" font-size="14.00">8</text>
</g>
<!-- 3&#45;&gt;8 -->
<g id="edge144" class="edge">
<title>3&#45;&gt;8</title>
<path fill="none" stroke="black" d="M1318.73,-346.65C1284.35,-365.55 1211.78,-409.1 1166,-462.49 1132.74,-501.27 1148.71,-527.95 1113,-564.49 1101.42,-576.34 1085.46,-585.54 1071.61,-592.02"/>
<polygon fill="black" stroke="black" points="1070.16,-588.83 1062.43,-596.08 1072.99,-595.24 1070.16,-588.83"/>
<text text-anchor="middle" x="1171" y="-466.29" font-family="Times,serif" font-size="14.00">2</text>
</g>
<!-- 20 -->
<g id="node22" class="node">
<title>20</title>
<ellipse fill="none" stroke="black" cx="1370" cy="-426.49" rx="27" ry="18"/>
<text text-anchor="middle" x="1370" y="-422.79" font-family="Times,serif" font-size="14.00">20</text>
</g>
<!-- 3&#45;&gt;20 -->
<g id="edge130" class="edge">
<title>3&#45;&gt;20</title>
<path fill="none" stroke="black" d="M1332.75,-356.94C1331.08,-367.35 1330.65,-379.99 1335,-390.49 1337.32,-396.08 1341.01,-401.25 1345.15,-405.8"/>
<polygon fill="black" stroke="black" points="1342.76,-408.36 1352.36,-412.84 1347.65,-403.35 1342.76,-408.36"/>
<text text-anchor="middle" x="1340" y="-379.29" font-family="Times,serif" font-size="14.00">3</text>
</g>
<!-- 3&#45;&gt;25 -->
<g id="edge143" class="edge">
<title>3&#45;&gt;25</title>
<path fill="none" stroke="black" d="M1333.15,-313.87C1319.88,-262.61 1277.78,-129.38 1187,-71.5 1147.43,-46.26 825.31,-32.85 714.94,-28.96"/>
<polygon fill="black" stroke="black" points="715.05,-25.46 704.94,-28.61 714.81,-32.46 715.05,-25.46"/>
<text text-anchor="middle" x="1291" y="-179.79" font-family="Times,serif" font-size="14.00">4</text>
</g>
<!-- 3&#45;&gt;26 -->
<g id="edge66" class="edge">
<title>3&#45;&gt;26</title>
<path fill="none" stroke="black" d="M1359.73,-331.77C1467.68,-318.28 1946.47,-258.43 2083.34,-241.32"/>
<polygon fill="black" stroke="black" points="2083.84,-244.79 2093.33,-240.07 2082.97,-237.84 2083.84,-244.79"/>
<text text-anchor="middle" x="1757" y="-284.29" font-family="Times,serif" font-size="14.00">0</text>
</g>
<!-- 4&#45;&gt;4 -->
<g id="edge141" class="edge">
<title>4&#45;&gt;4</title>
<path fill="none" stroke="black" d="M1408.58,-2090.84C1418.84,-2092 1428,-2089.21 1428,-2082.47 1428,-2078.16 1424.24,-2075.46 1418.84,-2074.38"/>
<polygon fill="black" stroke="black" points="1418.67,-2070.88 1408.58,-2074.1 1418.48,-2077.87 1418.67,-2070.88"/>
<text text-anchor="middle" x="1433" y="-2078.77" font-family="Times,serif" font-size="14.00">3</text>
</g>
<!-- 6 -->
<g id="node8" class="node">
<title>6</title>
<ellipse fill="none" stroke="black" cx="1556" cy="-1991.47" rx="27" ry="18"/>
<text text-anchor="middle" x="1556" y="-1987.77" font-family="Times,serif" font-size="14.00">6</text>
</g>
<!-- 4&#45;&gt;6 -->
<g id="edge25" class="edge">
<title>4&#45;&gt;6</title>
<path fill="none" stroke="black" d="M1403.4,-2066.74C1416.52,-2054.83 1436.33,-2038.32 1456,-2027.47 1476.57,-2016.13 1501.51,-2007.39 1521.34,-2001.48"/>
<polygon fill="black" stroke="black" points="1522.55,-2004.78 1531.19,-1998.65 1520.61,-1998.05 1522.55,-2004.78"/>
<text text-anchor="middle" x="1461" y="-2031.27" font-family="Times,serif" font-size="14.00">0</text>
</g>
<!-- 4&#45;&gt;6 -->
<g id="edge44" class="edge">
<title>4&#45;&gt;6</title>
<path fill="none" stroke="black" d="M1407.67,-2071.93C1423.52,-2064.17 1446.31,-2052.85 1466,-2042.47 1486.54,-2031.64 1509.42,-2018.92 1526.97,-2009.02"/>
<polygon fill="black" stroke="black" points="1529.14,-2011.81 1536.12,-2003.84 1525.69,-2005.72 1529.14,-2011.81"/>
<text text-anchor="middle" x="1498" y="-2031.27" font-family="Times,serif" font-size="14.00">4</text>
</g>
<!-- 4&#45;&gt;18 -->
<g id="edge57" class="edge">
<title>4&#45;&gt;18</title>
<path fill="none" stroke="black" d="M1391.08,-2060.37C1405.58,-1962.11 1468.03,-1548.94 1511,-1425.98 1516.23,-1411 1524.36,-1395.29 1531.56,-1382.75"/>
<polygon fill="black" stroke="black" points="1534.75,-1384.23 1536.83,-1373.84 1528.73,-1380.66 1534.75,-1384.23"/>
<text text-anchor="middle" x="1453" y="-1718.77" font-family="Times,serif" font-size="14.00">2</text>
</g>
<!-- 19 -->
<g id="node21" class="node">
<title>19</title>
<ellipse fill="none" stroke="black" cx="1107" cy="-1269.98" rx="27" ry="18"/>
<text text-anchor="middle" x="1107" y="-1266.28" font-family="Times,serif" font-size="14.00">19</text>
</g>
<!-- 4&#45;&gt;19 -->
<g id="edge114" class="edge">
<title>4&#45;&gt;19</title>
<path fill="none" stroke="black" d="M1376.11,-2063.45C1357.4,-2034.56 1320.66,-1975.72 1296,-1922.47 1286.28,-1901.49 1163.92,-1552.2 1156,-1530.47 1121.96,-1437.13 1095.61,-1418.76 1078,-1320.98 1076.82,-1314.41 1075.74,-1312.25 1078,-1305.98 1079.68,-1301.3 1082.29,-1296.81 1085.27,-1292.7"/>
<polygon fill="black" stroke="black" points="1088.08,-1294.79 1091.72,-1284.84 1082.67,-1290.35 1088.08,-1294.79"/>
<text text-anchor="middle" x="1216" y="-1675.27" font-family="Times,serif" font-size="14.00">1</text>
</g>
<!-- 5&#45;&gt;0 -->
<g id="edge45" class="edge">
<title>5&#45;&gt;0</title>
<path fill="none" stroke="black" d="M515.1,-1739.75C523.05,-1757.27 534,-1786.15 534,-1812.47 534,-1948.97 534,-1948.97 534,-1948.97 534,-2037.16 535.32,-2073.48 596,-2137.47 610.21,-2152.46 631.58,-2161.13 649.94,-2166.09"/>
<polygon fill="black" stroke="black" points="649.21,-2169.51 659.76,-2168.48 650.87,-2162.71 649.21,-2169.51"/>
<text text-anchor="middle" x="540" y="-1944.27" font-family="Times,serif" font-size="14.00">3</text>
</g>
<!-- 5&#45;&gt;2 -->
<g id="edge35" class="edge">
<title>5&#45;&gt;2</title>
<path fill="none" stroke="black" d="M481.51,-1728.91C443.92,-1738.6 378,-1762.68 378,-1812.47 378,-2174.47 378,-2174.47 378,-2174.47 378,-2194.85 371.3,-2216.91 364.84,-2233.44"/>
<polygon fill="black" stroke="black" points="361.49,-2232.38 360.91,-2242.96 367.96,-2235.05 361.49,-2232.38"/>
<text text-anchor="middle" x="383" y="-1987.77" font-family="Times,serif" font-size="14.00">2</text>
</g>
<!-- 11 -->
<g id="node13" class="node">
<title>11</title>
<ellipse fill="none" stroke="black" cx="921" cy="-982.73" rx="22.96" ry="22.96"/>
<ellipse fill="none" stroke="black" cx="921" cy="-982.73" rx="27" ry="27"/>
<text text-anchor="middle" x="921" y="-979.03" font-family="Times,serif" font-size="14.00">11</text>
</g>
<!-- 5&#45;&gt;11 -->
<g id="edge99" class="edge">
<title>5&#45;&gt;11</title>
<path fill="none" stroke="black" d="M511.3,-1704.55C537.37,-1602.64 674.93,-1073.36 732,-1027.48 758.68,-1006.03 853.07,-1021.83 885,-1009.48 887.53,-1008.5 890.05,-1007.3 892.51,-1005.96"/>
<polygon fill="black" stroke="black" points="894.45,-1008.88 901.1,-1000.63 890.76,-1002.93 894.45,-1008.88"/>
<text text-anchor="middle" x="616" y="-1353.28" font-family="Times,serif" font-size="14.00">4</text>
</g>
<!-- 28 -->
<g id="node30" class="node">
<title>28</title>
<ellipse fill="none" stroke="black" cx="879" cy="-1635.47" rx="27" ry="18"/>
<text text-anchor="middle" x="879" y="-1631.77" font-family="Times,serif" font-size="14.00">28</text>
</g>
<!-- 5&#45;&gt;28 -->
<g id="edge128" class="edge">
<title>5&#45;&gt;28</title>
<path fill="none" stroke="black" d="M532.28,-1715.7C597.09,-1700.89 769.34,-1661.53 843.85,-1644.5"/>
<polygon fill="black" stroke="black" points="844.72,-1647.89 853.69,-1642.26 843.16,-1641.07 844.72,-1647.89"/>
<text text-anchor="middle" x="721" y="-1675.27" font-family="Times,serif" font-size="14.00">1</text>
</g>
<!-- 5&#45;&gt;29 -->
<g id="edge110" class="edge">
<title>5&#45;&gt;29</title>
<path fill="none" stroke="black" d="M491.95,-1737.67C476.28,-1754.06 454,-1782.62 454,-1812.47 454,-2035.97 454,-2035.97 454,-2035.97 454,-2082.33 446.48,-2103.49 478,-2137.47 658.66,-2332.25 1012.41,-2353.69 1127.13,-2355.36"/>
<polygon fill="black" stroke="black" points="1127.13,-2358.86 1137.17,-2355.46 1127.2,-2351.86 1127.13,-2358.86"/>
<text text-anchor="middle" x="459" y="-2031.27" font-family="Times,serif" font-size="14.00">0</text>
</g>
<!-- 7 -->
<g id="node9" class="node">
<title>7</title>
<ellipse fill="none" stroke="black" cx="1686" cy="-1904.47" rx="27" ry="18"/>
<text text-anchor="middle" x="1686" y="-1900.77" font-family="Times,serif" font-size="14.00">7</text>
</g>
<!-- 6&#45;&gt;7 -->
<g id="edge146" class="edge">
<title>6&#45;&gt;7</title>
<path fill="none" stroke="black" d="M1574.63,-1978.29C1596.73,-1963.84 1633.77,-1939.62 1659.02,-1923.12"/>
<polygon fill="black" stroke="black" points="1660.95,-1926.03 1667.41,-1917.63 1657.12,-1920.17 1660.95,-1926.03"/>
<text text-anchor="middle" x="1633" y="-1944.27" font-family="Times,serif" font-size="14.00">1</text>
</g>
<!-- 6&#45;&gt;15 -->
<g id="edge90" class="edge">
<title>6&#45;&gt;15</title>
<path fill="none" stroke="black" d="M1556.76,-1973.33C1559.44,-1917.16 1569.77,-1733.76 1596,-1584.47 1611.13,-1498.36 1656.1,-1479.09 1641,-1392.98 1621.26,-1280.39 1518.91,-997.23 1432,-922.98 1418.86,-911.76 1401.55,-903.59 1386.4,-897.98"/>
<polygon fill="black" stroke="black" points="1387.41,-894.63 1376.82,-894.66 1385.12,-901.24 1387.41,-894.63"/>
<text text-anchor="middle" x="1649" y="-1449.02" font-family="Times,serif" font-size="14.00">2</text>
</g>
<!-- 6&#45;&gt;19 -->
<g id="edge132" class="edge">
<title>6&#45;&gt;19</title>
<path fill="none" stroke="black" d="M1546.32,-1974.59C1515.68,-1924.57 1421.63,-1772.73 1400,-1758.47 1364.13,-1734.81 1337.93,-1768.08 1305,-1740.47 1294.85,-1731.96 1242.86,-1572.29 1212,-1479.47 1191.31,-1417.25 1199.38,-1395.99 1167,-1338.98 1157.15,-1321.63 1142.35,-1304.8 1129.92,-1292.22"/>
<polygon fill="black" stroke="black" points="1132.13,-1289.48 1122.55,-1284.97 1127.22,-1294.48 1132.13,-1289.48"/>
<text text-anchor="middle" x="1275" y="-1631.77" font-family="Times,serif" font-size="14.00">3</text>
</g>
<!-- 6&#45;&gt;26 -->
<g id="edge49" class="edge">
<title>6&#45;&gt;26</title>
<path fill="none" stroke="black" d="M1582.95,-1989.65C1701.9,-1985.67 2174,-1966.05 2174,-1905.47 2174,-1905.47 2174,-1905.47 2174,-1138.48 2174,-1006.94 2208,-976.02 2208,-844.48 2208,-844.48 2208,-844.48 2208,-694.49 2208,-633.59 2196,-618.89 2196,-557.99 2196,-557.99 2196,-557.99 2196,-334.49 2196,-303.04 2171.18,-275.61 2149.9,-257.88"/>
<polygon fill="black" stroke="black" points="2151.98,-255.06 2141.98,-251.57 2147.62,-260.54 2151.98,-255.06"/>
<text text-anchor="middle" x="2179" y="-1135.78" font-family="Times,serif" font-size="14.00">4</text>
</g>
<!-- 6&#45;&gt;26 -->
<g id="edge139" class="edge">
<title>6&#45;&gt;26</title>
<path fill="none" stroke="black" d="M1583.13,-1989.68C1677.45,-1986.76 1990.68,-1975.74 2089,-1955.47 2146.8,-1943.56 2212,-1964.48 2212,-1905.47 2212,-1905.47 2212,-1905.47 2212,-1138.48 2212,-1009.39 2234,-687.08 2234,-557.99 2234,-557.99 2234,-557.99 2234,-334.49 2234,-292.13 2188.09,-264.17 2154.54,-249.39"/>
<polygon fill="black" stroke="black" points="2155.59,-246.04 2145.02,-245.4 2152.89,-252.49 2155.59,-246.04"/>
<text text-anchor="middle" x="2217" y="-1135.78" font-family="Times,serif" font-size="14.00">0</text>
</g>
<!-- 7&#45;&gt;1 -->
<g id="edge68" class="edge">
<title>7&#45;&gt;1</title>
<path fill="none" stroke="black" d="M1686,-1886.31C1686,-1874.91 1686,-1859.61 1686,-1846.05"/>
<polygon fill="black" stroke="black" points="1689.5,-1845.66 1686,-1835.66 1682.5,-1845.66 1689.5,-1845.66"/>
<text text-anchor="middle" x="1691" y="-1857.27" font-family="Times,serif" font-size="14.00">1</text>
</g>
<!-- 7&#45;&gt;19 -->
<g id="edge5" class="edge">
<title>7&#45;&gt;19</title>
<path fill="none" stroke="black" d="M1665.31,-1892.82C1622.64,-1869.98 1523.77,-1812.49 1463,-1740.47 1405.62,-1672.47 1400.54,-1647.59 1364,-1566.47 1336.9,-1506.31 1348.99,-1483.12 1316,-1425.98 1290.33,-1381.51 1276.81,-1374.76 1240,-1338.98 1223.48,-1322.91 1219.94,-1317.52 1200,-1305.98 1181.61,-1295.33 1159.38,-1286.82 1141.27,-1280.86"/>
<polygon fill="black" stroke="black" points="1142.27,-1277.51 1131.68,-1277.82 1140.15,-1284.18 1142.27,-1277.51"/>
<text text-anchor="middle" x="1383" y="-1588.27" font-family="Times,serif" font-size="14.00">0</text>
</g>
<!-- 7&#45;&gt;19 -->
<g id="edge135" class="edge">
<title>7&#45;&gt;19</title>
<path fill="none" stroke="black" d="M1662.9,-1894.79C1644.27,-1887.77 1617.41,-1877.58 1594,-1868.47 1557,-1854.08 1544.57,-1856.67 1511,-1835.47 1468.45,-1808.61 1472.75,-1781.48 1428,-1758.47 1392.5,-1740.22 1369.87,-1766.96 1340,-1740.47 1266.39,-1675.2 1302.02,-1623.5 1270,-1530.47 1240.61,-1445.07 1256.33,-1411.13 1202,-1338.98 1184.89,-1316.25 1158.01,-1298.02 1137.21,-1286.17"/>
<polygon fill="black" stroke="black" points="1138.87,-1283.09 1128.42,-1281.34 1135.5,-1289.23 1138.87,-1283.09"/>
<text text-anchor="middle" x="1289" y="-1588.27" font-family="Times,serif" font-size="14.00">4</text>
</g>
<!-- 7&#45;&gt;21 -->
<g id="edge2" class="edge">
<title>7&#45;&gt;21</title>
<path fill="none" stroke="black" d="M1713.09,-1903.13C1743.6,-1901.4 1793.17,-1894.41 1826,-1868.47 1847.21,-1851.71 1854,-1841.51 1854,-1814.47 1854,-1814.47 1854,-1814.47 1854,-1634.47 1854,-1611.18 1840.48,-1588.16 1828.09,-1571.96"/>
<polygon fill="black" stroke="black" points="1830.8,-1569.74 1821.8,-1564.15 1825.35,-1574.13 1830.8,-1569.74"/>
<text text-anchor="middle" x="1859" y="-1718.77" font-family="Times,serif" font-size="14.00">3</text>
</g>
<!-- 22 -->
<g id="node24" class="node">
<title>22</title>
<ellipse fill="none" stroke="black" cx="1633" cy="-791.24" rx="22.96" ry="22.96"/>
<ellipse fill="none" stroke="black" cx="1633" cy="-791.24" rx="27" ry="27"/>
<text text-anchor="middle" x="1633" y="-787.54" font-family="Times,serif" font-size="14.00">22</text>
</g>
<!-- 7&#45;&gt;22 -->
<g id="edge42" class="edge">
<title>7&#45;&gt;22</title>
<path fill="none" stroke="black" d="M1712.11,-1899.64C1775.06,-1889.67 1930,-1860.46 1930,-1814.47 1930,-1814.47 1930,-1814.47 1930,-1503.97 1930,-1418.07 1892,-1400.37 1892,-1314.48 1892,-1314.48 1892,-1314.48 1892,-1033.98 1892,-912.38 1737.53,-834.42 1667.18,-805.22"/>
<polygon fill="black" stroke="black" points="1668.42,-801.94 1657.83,-801.42 1665.78,-808.43 1668.42,-801.94"/>
<text text-anchor="middle" x="1904" y="-1353.28" font-family="Times,serif" font-size="14.00">2</text>
</g>
<!-- 8&#45;&gt;7 -->
<g id="edge26" class="edge">
<title>8&#45;&gt;7</title>
<path fill="none" stroke="black" d="M1022.98,-616.06C1010.71,-623.31 994.72,-633.56 982,-644.49 895.57,-718.76 714.99,-940.81 641,-1027.48 628.7,-1041.89 622.85,-1043.72 614,-1060.48 553.73,-1174.57 550.41,-1211.27 532,-1338.98 529.72,-1354.81 529.22,-1359.22 532,-1374.98 550.77,-1481.5 555.38,-1517.53 626,-1599.47 700.12,-1685.47 731.65,-1703.53 839,-1740.47 935.95,-1773.84 970.6,-1729.65 1069,-1758.47 1082.55,-1762.44 1083.49,-1769.38 1097,-1773.47 1176.49,-1797.55 1203.85,-1766.31 1283,-1791.47 1320.56,-1803.41 1323.35,-1820.96 1360,-1835.47 1460.36,-1875.2 1587.73,-1893.15 1649.33,-1899.95"/>
<polygon fill="black" stroke="black" points="1649.03,-1903.44 1659.34,-1901.03 1649.77,-1896.48 1649.03,-1903.44"/>
<text text-anchor="middle" x="551" y="-1266.28" font-family="Times,serif" font-size="14.00">0</text>
</g>
<!-- 8&#45;&gt;9 -->
<g id="edge150" class="edge">
<title>8&#45;&gt;9</title>
<path fill="none" stroke="black" d="M1021.29,-596.81C988.89,-586.4 924.21,-565.83 869,-549.49 838.42,-540.44 803.46,-530.7 778.3,-523.8"/>
<polygon fill="black" stroke="black" points="779.06,-520.38 768.49,-521.12 777.21,-527.13 779.06,-520.38"/>
<text text-anchor="middle" x="921" y="-553.29" font-family="Times,serif" font-size="14.00">2</text>
</g>
<!-- 14 -->
<g id="node16" class="node">
<title>14</title>
<ellipse fill="none" stroke="black" cx="985" cy="-131.24" rx="27" ry="18"/>
<text text-anchor="middle" x="985" y="-127.54" font-family="Times,serif" font-size="14.00">14</text>
</g>
<!-- 8&#45;&gt;14 -->
<g id="edge72" class="edge">
<title>8&#45;&gt;14</title>
<path fill="none" stroke="black" d="M1048.86,-583.25C1054.3,-565.38 1061,-538.5 1061,-514.49 1061,-514.49 1061,-514.49 1061,-234.74 1061,-206.53 1053.61,-198.79 1037,-175.99 1030.03,-166.43 1020.54,-157.64 1011.58,-150.49"/>
<polygon fill="black" stroke="black" points="1013.66,-147.68 1003.58,-144.41 1009.42,-153.25 1013.66,-147.68"/>
<text text-anchor="middle" x="1066" y="-379.29" font-family="Times,serif" font-size="14.00">4</text>
</g>
<!-- 8&#45;&gt;14 -->
<g id="edge145" class="edge">
<title>8&#45;&gt;14</title>
<path fill="none" stroke="black" d="M1025.82,-589.52C1008.97,-573.33 985,-544.95 985,-514.49 985,-514.49 985,-514.49 985,-234.74 985,-209.25 985,-180.19 985,-159.54"/>
<polygon fill="black" stroke="black" points="988.5,-159.29 985,-149.29 981.5,-159.29 988.5,-159.29"/>
<text text-anchor="middle" x="990" y="-379.29" font-family="Times,serif" font-size="14.00">3</text>
</g>
<!-- 8&#45;&gt;18 -->
<g id="edge37" class="edge">
<title>8&#45;&gt;18</title>
<path fill="none" stroke="black" d="M1057.91,-619.87C1074.15,-636.21 1097,-664.52 1097,-694.49 1097,-887.98 1097,-887.98 1097,-887.98 1097,-950.51 1168.53,-1097.68 1207,-1146.98 1254.64,-1208.01 1287.96,-1200.74 1346,-1251.98 1362.73,-1266.74 1364.59,-1272.85 1381,-1287.98 1397.95,-1303.59 1400.56,-1310.33 1421,-1320.98 1425.16,-1323.14 1476.42,-1337.09 1512.26,-1346.71"/>
<polygon fill="black" stroke="black" points="1511.79,-1350.21 1522.36,-1349.41 1513.61,-1343.44 1511.79,-1350.21"/>
<text text-anchor="middle" x="1136" y="-979.03" font-family="Times,serif" font-size="14.00">1</text>
</g>
<!-- 9&#45;&gt;5 -->
<g id="edge126" class="edge">
<title>9&#45;&gt;5</title>
<path fill="none" stroke="black" d="M740.6,-531.64C732.7,-570.45 711.72,-667.78 685,-746.49 641,-876.1 442,-1175.6 442,-1312.48 442,-1636.47 442,-1636.47 442,-1636.47 442,-1663.38 462.8,-1687.04 480.87,-1702.52"/>
<polygon fill="black" stroke="black" points="478.93,-1705.45 488.89,-1709.04 483.34,-1700.02 478.93,-1705.45"/>
<text text-anchor="middle" x="501" y="-1135.78" font-family="Times,serif" font-size="14.00">1</text>
</g>
<!-- 9&#45;&gt;10 -->
<g id="edge85" class="edge">
<title>9&#45;&gt;10</title>
<path fill="none" stroke="black" d="M752.1,-530.77C760.05,-548.28 771,-577.17 771,-603.49 771,-983.73 771,-983.73 771,-983.73 771,-1115.52 969.82,-1162.78 1053.54,-1176.84"/>
<polygon fill="black" stroke="black" points="1053.19,-1180.33 1063.62,-1178.46 1054.31,-1173.42 1053.19,-1180.33"/>
<text text-anchor="middle" x="776" y="-839.78" font-family="Times,serif" font-size="14.00">3</text>
</g>
<!-- 9&#45;&gt;20 -->
<g id="edge71" class="edge">
<title>9&#45;&gt;20</title>
<path fill="none" stroke="black" d="M770.5,-508.89C869.79,-495.41 1219.94,-447.86 1333.88,-432.39"/>
<polygon fill="black" stroke="black" points="1334.4,-435.85 1343.84,-431.04 1333.46,-428.92 1334.4,-435.85"/>
<text text-anchor="middle" x="1099" y="-466.29" font-family="Times,serif" font-size="14.00">4</text>
</g>
<!-- 9&#45;&gt;25 -->
<g id="edge29" class="edge">
<title>9&#45;&gt;25</title>
<path fill="none" stroke="black" d="M725.62,-500.12C706.09,-485.35 678,-458.69 678,-427.49 678,-427.49 678,-427.49 678,-130.24 678,-104.75 678,-75.7 678,-55.05"/>
<polygon fill="black" stroke="black" points="681.5,-54.8 678,-44.8 674.5,-54.8 681.5,-54.8"/>
<text text-anchor="middle" x="683" y="-284.29" font-family="Times,serif" font-size="14.00">0</text>
</g>
<!-- 9&#45;&gt;29 -->
<g id="edge21" class="edge">
<title>9&#45;&gt;29</title>
<path fill="none" stroke="black" d="M726.76,-527.45C630.92,-601.12 168,-978.76 168,-1399.48 168,-2261.47 168,-2261.47 168,-2261.47 168,-2359.76 946.75,-2357.53 1127.05,-2355.69"/>
<polygon fill="black" stroke="black" points="1127.14,-2359.19 1137.1,-2355.58 1127.06,-2352.19 1127.14,-2359.19"/>
<text text-anchor="middle" x="173" y="-1449.02" font-family="Times,serif" font-size="14.00">2</text>
</g>
<!-- 10&#45;&gt;17 -->
<g id="edge3" class="edge">
<title>10&#45;&gt;17</title>
<path fill="none" stroke="black" d="M1110.88,-1171.22C1142.38,-1154.99 1202.34,-1124.11 1239.56,-1104.94"/>
<polygon fill="black" stroke="black" points="1241.22,-1108.02 1248.5,-1100.33 1238.01,-1101.8 1241.22,-1108.02"/>
<text text-anchor="middle" x="1191" y="-1135.78" font-family="Times,serif" font-size="14.00">3</text>
</g>
<!-- 10&#45;&gt;19 -->
<g id="edge92" class="edge">
<title>10&#45;&gt;19</title>
<path fill="none" stroke="black" d="M1095.36,-1200.95C1097.02,-1206.64 1098.74,-1213.04 1100,-1218.98 1101.56,-1226.32 1102.85,-1234.35 1103.89,-1241.78"/>
<polygon fill="black" stroke="black" points="1100.43,-1242.28 1105.19,-1251.75 1107.37,-1241.38 1100.43,-1242.28"/>
<text text-anchor="middle" x="1107" y="-1222.78" font-family="Times,serif" font-size="14.00">4</text>
</g>
<!-- 10&#45;&gt;20 -->
<g id="edge19" class="edge">
<title>10&#45;&gt;20</title>
<path fill="none" stroke="black" d="M1095.9,-1165.22C1109.15,-1127.68 1142.32,-1034.03 1171,-955.98 1242.03,-762.67 1330.49,-530.75 1359.94,-453.75"/>
<polygon fill="black" stroke="black" points="1363.24,-454.93 1363.54,-444.34 1356.7,-452.42 1363.24,-454.93"/>
<text text-anchor="middle" x="1246" y="-787.54" font-family="Times,serif" font-size="14.00">0</text>
</g>
<!-- 10&#45;&gt;24 -->
<g id="edge12" class="edge">
<title>10&#45;&gt;24</title>
<path fill="none" stroke="black" d="M1107.63,-1197.08C1137.77,-1218.91 1201.8,-1262.8 1262,-1287.98 1292.03,-1300.53 1301.79,-1296.73 1333,-1305.98 1354.83,-1312.45 1409.19,-1329.73 1430,-1338.98 1475.09,-1359 1495.38,-1355.09 1527,-1392.98 1532.66,-1399.75 1536.74,-1408.21 1539.68,-1416.58"/>
<polygon fill="black" stroke="black" points="1536.37,-1417.71 1542.63,-1426.25 1543.06,-1415.67 1536.37,-1417.71"/>
<text text-anchor="middle" x="1385" y="-1309.78" font-family="Times,serif" font-size="14.00">1</text>
</g>
<!-- 10&#45;&gt;28 -->
<g id="edge32" class="edge">
<title>10&#45;&gt;28</title>
<path fill="none" stroke="black" d="M1066.16,-1191.73C1037.48,-1201.15 992.79,-1216.14 990,-1218.98 956.46,-1253.02 974.89,-1277.08 956,-1320.98 940.35,-1357.32 914,-1359.91 914,-1399.48 914,-1549.47 914,-1549.47 914,-1549.47 914,-1570.95 904.33,-1593.34 895.15,-1609.74"/>
<polygon fill="black" stroke="black" points="891.96,-1608.27 889.88,-1618.66 897.98,-1611.83 891.96,-1608.27"/>
<text text-anchor="middle" x="919" y="-1396.78" font-family="Times,serif" font-size="14.00">2</text>
</g>
<!-- 11&#45;&gt;0 -->
<g id="edge73" class="edge">
<title>11&#45;&gt;0</title>
<path fill="none" stroke="black" d="M900.25,-999.89C895.39,-1003.3 890.13,-1006.7 885,-1009.48 841.49,-1033.08 815.29,-1020.58 786,-1060.48 644,-1253.87 686,-1351.05 686,-1590.97 686,-2083.47 686,-2083.47 686,-2083.47 686,-2104.2 686,-2127.65 686,-2145.27"/>
<polygon fill="black" stroke="black" points="682.5,-2145.41 686,-2155.41 689.5,-2145.41 682.5,-2145.41"/>
<text text-anchor="middle" x="691" y="-1588.27" font-family="Times,serif" font-size="14.00">0</text>
</g>
<!-- 11&#45;&gt;7 -->
<g id="edge31" class="edge">
<title>11&#45;&gt;7</title>
<path fill="none" stroke="black" d="M899.64,-998.97C875.03,-1016.86 836.63,-1045.92 826,-1060.48 779.62,-1124.01 762,-1146.82 762,-1225.48 762,-1549.47 762,-1549.47 762,-1549.47 762,-1608.06 794.18,-1621.09 843,-1653.47 967.25,-1735.89 1021.39,-1708.39 1167,-1740.47 1212.81,-1750.56 1225.88,-1745.63 1271,-1758.47 1396.82,-1794.27 1419.52,-1828.27 1544,-1868.47 1579.72,-1880.01 1621.54,-1889.89 1650.51,-1896.19"/>
<polygon fill="black" stroke="black" points="1650.05,-1899.67 1660.56,-1898.34 1651.51,-1892.82 1650.05,-1899.67"/>
<text text-anchor="middle" x="767" y="-1449.02" font-family="Times,serif" font-size="14.00">2</text>
</g>
<!-- 11&#45;&gt;8 -->
<g id="edge41" class="edge">
<title>11&#45;&gt;8</title>
<path fill="none" stroke="black" d="M939.58,-963.06C955.2,-945.32 975,-917.1 975,-887.98 975,-887.98 975,-887.98 975,-694.49 975,-665.72 997.62,-640.33 1016.57,-624.11"/>
<polygon fill="black" stroke="black" points="1018.86,-626.77 1024.4,-617.74 1014.43,-621.34 1018.86,-626.77"/>
<text text-anchor="middle" x="980" y="-787.54" font-family="Times,serif" font-size="14.00">4</text>
</g>
<!-- 11&#45;&gt;15 -->
<g id="edge117" class="edge">
<title>11&#45;&gt;15</title>
<path fill="none" stroke="black" d="M946.23,-973.23C984.2,-960.7 1058.45,-937.24 1123,-922.98 1190.22,-908.14 1269.93,-897.5 1315.37,-892.08"/>
<polygon fill="black" stroke="black" points="1315.82,-895.55 1325.34,-890.9 1315,-888.6 1315.82,-895.55"/>
<text text-anchor="middle" x="1128" y="-926.78" font-family="Times,serif" font-size="14.00">1</text>
</g>
<!-- 11&#45;&gt;28 -->
<g id="edge20" class="edge">
<title>11&#45;&gt;28</title>
<path fill="none" stroke="black" d="M912.58,-1008.23C891.48,-1071.9 838,-1248.22 838,-1399.48 838,-1549.47 838,-1549.47 838,-1549.47 838,-1571.87 849.69,-1594.58 860.58,-1610.89"/>
<polygon fill="black" stroke="black" points="857.85,-1613.09 866.48,-1619.24 863.57,-1609.05 857.85,-1613.09"/>
<text text-anchor="middle" x="848" y="-1309.78" font-family="Times,serif" font-size="14.00">3</text>
</g>
<!-- 12 -->
<g id="node14" class="node">
<title>12</title>
<ellipse fill="none" stroke="black" cx="1352" cy="-695.49" rx="27" ry="18"/>
<text text-anchor="middle" x="1352" y="-691.79" font-family="Times,serif" font-size="14.00">12</text>
</g>
<!-- 12&#45;&gt;8 -->
<g id="edge113" class="edge">
<title>12&#45;&gt;8</title>
<path fill="none" stroke="black" d="M1327.67,-687.5C1271.81,-671.47 1134.44,-632.03 1072.8,-614.33"/>
<polygon fill="black" stroke="black" points="1073.47,-610.88 1062.9,-611.49 1071.54,-617.61 1073.47,-610.88"/>
<text text-anchor="middle" x="1229" y="-648.29" font-family="Times,serif" font-size="14.00">2</text>
</g>
<!-- 12&#45;&gt;15 -->
<g id="edge104" class="edge">
<title>12&#45;&gt;15</title>
<path fill="none" stroke="black" d="M1352,-713.74C1352,-746.78 1352,-819.23 1352,-858.83"/>
<polygon fill="black" stroke="black" points="1348.5,-858.83 1352,-868.83 1355.5,-858.83 1348.5,-858.83"/>
<text text-anchor="middle" x="1357" y="-787.54" font-family="Times,serif" font-size="14.00">1</text>
</g>
<!-- 12&#45;&gt;20 -->
<g id="edge102" class="edge">
<title>12&#45;&gt;20</title>
<path fill="none" stroke="black" d="M1352.2,-677.06C1352.6,-649.81 1353.76,-595.47 1357,-549.49 1359.29,-516.91 1363.5,-479.6 1366.51,-454.91"/>
<polygon fill="black" stroke="black" points="1370,-455.18 1367.76,-444.83 1363.06,-454.32 1370,-455.18"/>
<text text-anchor="middle" x="1362" y="-553.29" font-family="Times,serif" font-size="14.00">3</text>
</g>
<!-- 12&#45;&gt;20 -->
<g id="edge112" class="edge">
<title>12&#45;&gt;20</title>
<path fill="none" stroke="black" d="M1359.81,-678.1C1362.21,-672.34 1364.59,-665.74 1366,-659.49 1383.79,-580.48 1374.25,-558.47 1375,-477.49 1375.06,-470.82 1375.47,-469.14 1375,-462.49 1374.82,-459.92 1374.56,-457.25 1374.26,-454.58"/>
<polygon fill="black" stroke="black" points="1377.71,-453.98 1372.93,-444.53 1370.77,-454.9 1377.71,-453.98"/>
<text text-anchor="middle" x="1381" y="-553.29" font-family="Times,serif" font-size="14.00">0</text>
</g>
<!-- 12&#45;&gt;23 -->
<g id="edge147" class="edge">
<title>12&#45;&gt;23</title>
<path fill="none" stroke="black" d="M1325.21,-692.33C1176.73,-680.38 455.35,-622.33 283.02,-608.47"/>
<polygon fill="black" stroke="black" points="283.18,-604.97 272.93,-607.66 282.62,-611.95 283.18,-604.97"/>
<text text-anchor="middle" x="903" y="-648.29" font-family="Times,serif" font-size="14.00">4</text>
</g>
<!-- 13 -->
<g id="node15" class="node">
<title>13</title>
<ellipse fill="none" stroke="black" cx="1825" cy="-131.24" rx="22.96" ry="22.96"/>
<ellipse fill="none" stroke="black" cx="1825" cy="-131.24" rx="27" ry="27"/>
<text text-anchor="middle" x="1825" y="-127.54" font-family="Times,serif" font-size="14.00">13</text>
</g>
<!-- 13&#45;&gt;8 -->
<g id="edge93" class="edge">
<title>13&#45;&gt;8</title>
<path fill="none" stroke="black" d="M1798.77,-136.83C1775.28,-142.27 1741.48,-153.58 1721,-175.99 1683.41,-217.14 1718.59,-252.6 1683,-295.49 1513.79,-499.42 1177.75,-577.9 1073.55,-597.93"/>
<polygon fill="black" stroke="black" points="1072.84,-594.51 1063.66,-599.79 1074.13,-601.39 1072.84,-594.51"/>
<text text-anchor="middle" x="1603" y="-379.29" font-family="Times,serif" font-size="14.00">4</text>
</g>
<!-- 13&#45;&gt;13 -->
<g id="edge111" class="edge">
<title>13&#45;&gt;13</title>
<path fill="none" stroke="black" d="M1850.3,-140.91C1860.83,-141.57 1869.75,-138.35 1869.75,-131.24 1869.75,-126.58 1865.91,-123.59 1860.29,-122.27"/>
<polygon fill="black" stroke="black" points="1860.52,-118.78 1850.3,-121.58 1860.04,-125.76 1860.52,-118.78"/>
<text text-anchor="middle" x="1874.75" y="-127.54" font-family="Times,serif" font-size="14.00">1</text>
</g>
<!-- 13&#45;&gt;15 -->
<g id="edge55" class="edge">
<title>13&#45;&gt;15</title>
<path fill="none" stroke="black" d="M1801.82,-145.25C1775.16,-162.12 1735,-194.25 1735,-234.74 1735,-470.99 1735,-470.99 1735,-470.99 1735,-571.7 1574.66,-799.66 1488,-850.98 1457.36,-869.13 1417.41,-877.96 1388.75,-882.2"/>
<polygon fill="black" stroke="black" points="1388.18,-878.75 1378.74,-883.57 1389.12,-885.68 1388.18,-878.75"/>
<text text-anchor="middle" x="1737" y="-509.79" font-family="Times,serif" font-size="14.00">0</text>
</g>
<!-- 16 -->
<g id="node18" class="node">
<title>16</title>
<ellipse fill="none" stroke="black" cx="1908" cy="-26.75" rx="22.96" ry="22.96"/>
<ellipse fill="none" stroke="black" cx="1908" cy="-26.75" rx="27" ry="27"/>
<text text-anchor="middle" x="1908" y="-23.05" font-family="Times,serif" font-size="14.00">16</text>
</g>
<!-- 13&#45;&gt;16 -->
<g id="edge84" class="edge">
<title>13&#45;&gt;16</title>
<path fill="none" stroke="black" d="M1841.4,-109.99C1853.9,-94.55 1871.28,-73.1 1885.15,-55.97"/>
<polygon fill="black" stroke="black" points="1888.06,-57.93 1891.64,-47.96 1882.62,-53.52 1888.06,-57.93"/>
<text text-anchor="middle" x="1876" y="-75.3" font-family="Times,serif" font-size="14.00">2</text>
</g>
<!-- 13&#45;&gt;20 -->
<g id="edge87" class="edge">
<title>13&#45;&gt;20</title>
<path fill="none" stroke="black" d="M1798.1,-132.92C1756.42,-135 1674.81,-143.32 1615,-175.99 1509.71,-233.51 1420.97,-350.92 1385.98,-401.46"/>
<polygon fill="black" stroke="black" points="1383.02,-399.59 1380.27,-409.82 1388.8,-403.54 1383.02,-399.59"/>
<text text-anchor="middle" x="1489" y="-284.29" font-family="Times,serif" font-size="14.00">3</text>
</g>
<!-- 14&#45;&gt;5 -->
<g id="edge81" class="edge">
<title>14&#45;&gt;5</title>
<path fill="none" stroke="black" d="M958.94,-136.54C897.09,-148.1 740.29,-185.67 656,-280.49 626.58,-313.58 638.25,-332.94 626,-375.49 527.95,-715.98 515.45,-804.39 425,-1146.98 415.78,-1181.89 404,-1189.36 404,-1225.48 404,-1636.47 404,-1636.47 404,-1636.47 404,-1673.29 443.64,-1697.14 473.74,-1709.94"/>
<polygon fill="black" stroke="black" points="472.53,-1713.23 483.11,-1713.71 475.14,-1706.73 472.53,-1713.23"/>
<text text-anchor="middle" x="488" y="-926.78" font-family="Times,serif" font-size="14.00">1</text>
</g>
<!-- 14&#45;&gt;8 -->
<g id="edge80" class="edge">
<title>14&#45;&gt;8</title>
<path fill="none" stroke="black" d="M994.98,-148.25C1006.24,-167.86 1023,-202.48 1023,-234.74 1023,-514.49 1023,-514.49 1023,-514.49 1023,-534.38 1027.59,-556.22 1032.26,-573.29"/>
<polygon fill="black" stroke="black" points="1029,-574.61 1035.14,-583.25 1035.73,-572.67 1029,-574.61"/>
<text text-anchor="middle" x="1028" y="-379.29" font-family="Times,serif" font-size="14.00">0</text>
</g>
<!-- 14&#45;&gt;15 -->
<g id="edge98" class="edge">
<title>14&#45;&gt;15</title>
<path fill="none" stroke="black" d="M975.53,-148.27C953.56,-187 901,-289.35 901,-381.99 901,-605.49 901,-605.49 901,-605.49 901,-630.28 896.61,-642.86 915,-659.49 954.03,-694.76 983.54,-657.01 1032,-677.49 1127.43,-717.81 1130.13,-763.11 1218,-817.98 1251.85,-839.12 1293.09,-859.28 1320.8,-872.08"/>
<polygon fill="black" stroke="black" points="1319.46,-875.31 1330.01,-876.29 1322.37,-868.95 1319.46,-875.31"/>
<text text-anchor="middle" x="906" y="-509.79" font-family="Times,serif" font-size="14.00">4</text>
</g>
<!-- 14&#45;&gt;16 -->
<g id="edge115" class="edge">
<title>14&#45;&gt;16</title>
<path fill="none" stroke="black" d="M1010.58,-125.29C1069.28,-114.09 1218.28,-86.63 1344,-71.5 1542.14,-47.64 1781.08,-34.09 1871.21,-29.52"/>
<polygon fill="black" stroke="black" points="1871.39,-33.01 1881.21,-29.02 1871.04,-26.02 1871.39,-33.01"/>
<text text-anchor="middle" x="1349" y="-75.3" font-family="Times,serif" font-size="14.00">3</text>
</g>
<!-- 14&#45;&gt;25 -->
<g id="edge101" class="edge">
<title>14&#45;&gt;25</title>
<path fill="none" stroke="black" d="M962.72,-120.51C933.99,-108.17 882.35,-86.68 837,-71.5 794.87,-57.38 745.38,-44.3 712.94,-36.19"/>
<polygon fill="black" stroke="black" points="713.59,-32.74 703.04,-33.74 711.9,-39.54 713.59,-32.74"/>
<text text-anchor="middle" x="883" y="-75.3" font-family="Times,serif" font-size="14.00">2</text>
</g>
<!-- 15&#45;&gt;5 -->
<g id="edge4" class="edge">
<title>15&#45;&gt;5</title>
<path fill="none" stroke="black" d="M1325.69,-891.59C1264.85,-901.37 1113.9,-934.28 1038,-1027.48 981.34,-1097.06 989.69,-1130.62 974,-1218.98 944.42,-1385.55 1025.4,-1442.22 963,-1599.47 951.16,-1629.32 943.02,-1637.79 915,-1653.47 851.33,-1689.12 631.6,-1711.02 543.73,-1718.54"/>
<polygon fill="black" stroke="black" points="543.36,-1715.06 533.69,-1719.38 543.95,-1722.03 543.36,-1715.06"/>
<text text-anchor="middle" x="973" y="-1309.78" font-family="Times,serif" font-size="14.00">2</text>
</g>
<!-- 15&#45;&gt;9 -->
<g id="edge8" class="edge">
<title>15&#45;&gt;9</title>
<path fill="none" stroke="black" d="M1325.29,-884.33C1246.07,-879 1014.14,-860.07 953,-817.98 837.05,-738.17 876.93,-656.09 785,-549.49 780.32,-544.06 774.77,-538.75 769.29,-533.97"/>
<polygon fill="black" stroke="black" points="771.34,-531.12 761.42,-527.39 766.85,-536.49 771.34,-531.12"/>
<text text-anchor="middle" x="872" y="-691.79" font-family="Times,serif" font-size="14.00">3</text>
</g>
<!-- 15&#45;&gt;17 -->
<g id="edge28" class="edge">
<title>15&#45;&gt;17</title>
<path fill="none" stroke="black" d="M1331.27,-898.8C1320.97,-904.9 1308.87,-913.25 1300,-922.98 1288.75,-935.33 1286.75,-939.97 1282,-955.98 1272.84,-986.89 1270.77,-1023.63 1270.74,-1050.19"/>
<polygon fill="black" stroke="black" points="1267.24,-1050.22 1270.82,-1060.19 1274.24,-1050.17 1267.24,-1050.22"/>
<text text-anchor="middle" x="1287" y="-979.03" font-family="Times,serif" font-size="14.00">4</text>
</g>
<!-- 15&#45;&gt;17 -->
<g id="edge151" class="edge">
<title>15&#45;&gt;17</title>
<path fill="none" stroke="black" d="M1345.26,-904.68C1332.14,-937.2 1302.94,-1009.56 1285.63,-1052.46"/>
<polygon fill="black" stroke="black" points="1282.31,-1051.34 1281.81,-1061.92 1288.8,-1053.96 1282.31,-1051.34"/>
<text text-anchor="middle" x="1328" y="-979.03" font-family="Times,serif" font-size="14.00">0</text>
</g>
<!-- 15&#45;&gt;22 -->
<g id="edge48" class="edge">
<title>15&#45;&gt;22</title>
<path fill="none" stroke="black" d="M1375.96,-877.99C1425.66,-861.41 1540.18,-823.2 1598.1,-803.88"/>
<polygon fill="black" stroke="black" points="1599.52,-807.1 1607.9,-800.61 1597.3,-800.46 1599.52,-807.1"/>
<text text-anchor="middle" x="1505" y="-839.78" font-family="Times,serif" font-size="14.00">1</text>
</g>
<!-- 16&#45;&gt;4 -->
<g id="edge118" class="edge">
<title>16&#45;&gt;4</title>
<path fill="none" stroke="black" d="M1935.07,-27.73C2036.19,-28.37 2386,-37.31 2386,-130.24 2386,-652.99 2386,-652.99 2386,-652.99 2386,-914.51 2250,-963.96 2250,-1225.48 2250,-1992.47 2250,-1992.47 2250,-1992.47 2250,-2077.5 1577.75,-2081.76 1420.58,-2081.59"/>
<polygon fill="black" stroke="black" points="1420.18,-2078.09 1410.17,-2081.57 1420.17,-2085.09 1420.18,-2078.09"/>
<text text-anchor="middle" x="2276" y="-1083.53" font-family="Times,serif" font-size="14.00">2</text>
</g>
<!-- 16&#45;&gt;8 -->
<g id="edge64" class="edge">
<title>16&#45;&gt;8</title>
<path fill="none" stroke="black" d="M1881.14,-28.94C1808.29,-32.49 1608.46,-44.5 1549,-71.5 1312,-179.09 1264.98,-251.18 1113,-462.49 1084.17,-502.57 1092.95,-521.31 1069,-564.49 1066.47,-569.05 1063.54,-573.75 1060.56,-578.23"/>
<polygon fill="black" stroke="black" points="1057.65,-576.27 1054.86,-586.49 1063.42,-580.24 1057.65,-576.27"/>
<text text-anchor="middle" x="1227" y="-331.79" font-family="Times,serif" font-size="14.00">0</text>
</g>
<!-- 16&#45;&gt;16 -->
<g id="edge121" class="edge">
<title>16&#45;&gt;16</title>
<path fill="none" stroke="black" d="M1933.3,-36.41C1943.83,-37.08 1952.75,-33.86 1952.75,-26.75 1952.75,-22.08 1948.91,-19.09 1943.29,-17.77"/>
<polygon fill="black" stroke="black" points="1943.52,-14.28 1933.3,-17.08 1943.04,-21.27 1943.52,-14.28"/>
<text text-anchor="middle" x="1957.75" y="-23.05" font-family="Times,serif" font-size="14.00">1</text>
</g>
<!-- 16&#45;&gt;18 -->
<g id="edge116" class="edge">
<title>16&#45;&gt;18</title>
<path fill="none" stroke="black" d="M1908,-53.87C1908,-74.58 1908,-104.26 1908,-130.24 1908,-557.99 1908,-557.99 1908,-557.99 1908,-590.16 1756.96,-1083.73 1746,-1113.98 1731.62,-1153.65 1728.23,-1163.95 1708,-1200.98 1675.17,-1261.09 1611.05,-1312.01 1574.42,-1337.82"/>
<polygon fill="black" stroke="black" points="1571.96,-1335.26 1565.73,-1343.83 1575.94,-1341.02 1571.96,-1335.26"/>
<text text-anchor="middle" x="1882" y="-691.79" font-family="Times,serif" font-size="14.00">3</text>
</g>
<!-- 16&#45;&gt;21 -->
<g id="edge16" class="edge">
<title>16&#45;&gt;21</title>
<path fill="none" stroke="black" d="M1934.86,-28.22C2030.39,-30.6 2348,-44.95 2348,-130.24 2348,-470.99 2348,-470.99 2348,-470.99 2348,-642.63 2190.63,-620.63 2097,-764.49 2024.56,-875.78 1968,-901.19 1968,-1033.98 1968,-1453.72 1968,-1453.72 1968,-1453.72 1968,-1510.71 1891.5,-1533.71 1844.3,-1542.48"/>
<polygon fill="black" stroke="black" points="1843.68,-1539.04 1834.42,-1544.19 1844.87,-1545.93 1843.68,-1539.04"/>
<text text-anchor="middle" x="2102" y="-787.54" font-family="Times,serif" font-size="14.00">4</text>
</g>
<!-- 17&#45;&gt;11 -->
<g id="edge9" class="edge">
<title>17&#45;&gt;11</title>
<path fill="none" stroke="black" d="M1246.47,-1078.77C1184.68,-1060.73 1026.91,-1014.66 956.21,-994.01"/>
<polygon fill="black" stroke="black" points="957.01,-990.6 946.43,-991.16 955.05,-997.32 957.01,-990.6"/>
<text text-anchor="middle" x="1122" y="-1031.28" font-family="Times,serif" font-size="14.00">3</text>
</g>
<!-- 17&#45;&gt;18 -->
<g id="edge17" class="edge">
<title>17&#45;&gt;18</title>
<path fill="none" stroke="black" d="M1295.81,-1099.89C1310.57,-1107.77 1329.44,-1119.08 1344,-1131.98 1419.4,-1198.74 1392.86,-1255.06 1469,-1320.98 1472.88,-1324.34 1495.35,-1334.29 1515.18,-1342.72"/>
<polygon fill="black" stroke="black" points="1514.04,-1346.04 1524.61,-1346.71 1516.76,-1339.59 1514.04,-1346.04"/>
<text text-anchor="middle" x="1414" y="-1222.78" font-family="Times,serif" font-size="14.00">2</text>
</g>
<!-- 27 -->
<g id="node29" class="node">
<title>27</title>
<ellipse fill="none" stroke="black" cx="849" cy="-982.73" rx="27" ry="18"/>
<text text-anchor="middle" x="849" y="-979.03" font-family="Times,serif" font-size="14.00">27</text>
</g>
<!-- 17&#45;&gt;27 -->
<g id="edge119" class="edge">
<title>17&#45;&gt;27</title>
<path fill="none" stroke="black" d="M1245.45,-1082.66C1199.96,-1076.3 1104.33,-1061.82 1025,-1042.48 1003.29,-1037.19 998.67,-1032.97 977,-1027.48 936.61,-1017.25 923.26,-1025.97 885,-1009.48 881.03,-1007.77 877.07,-1005.57 873.3,-1003.17"/>
<polygon fill="black" stroke="black" points="875.16,-1000.2 864.95,-997.37 871.17,-1005.95 875.16,-1000.2"/>
<text text-anchor="middle" x="1030" y="-1031.28" font-family="Times,serif" font-size="14.00">1</text>
</g>
<!-- 17&#45;&gt;28 -->
<g id="edge6" class="edge">
<title>17&#45;&gt;28</title>
<path fill="none" stroke="black" d="M1262.08,-1112.48C1239.22,-1167.25 1179.56,-1303.82 1112,-1407.98 1062.42,-1484.41 1043.68,-1499.42 982,-1566.47 967.74,-1581.97 965.14,-1587.24 948,-1599.47 936.53,-1607.66 922.86,-1615.02 910.74,-1620.85"/>
<polygon fill="black" stroke="black" points="909,-1617.8 901.41,-1625.18 911.95,-1624.14 909,-1617.8"/>
<text text-anchor="middle" x="1158" y="-1353.28" font-family="Times,serif" font-size="14.00">0</text>
</g>
<!-- 17&#45;&gt;29 -->
<g id="edge91" class="edge">
<title>17&#45;&gt;29</title>
<path fill="none" stroke="black" d="M1284.95,-1110.91C1318.94,-1170.95 1409.07,-1333.47 1423,-1392.98 1424.52,-1399.47 1423.99,-1401.38 1423,-1407.98 1409.74,-1496.04 1401.92,-1518.89 1364,-1599.47 1334.51,-1662.13 1193,-1790.72 1193,-1859.97 1193,-2261.47 1193,-2261.47 1193,-2261.47 1193,-2282.46 1186.28,-2304.96 1179.32,-2322.65"/>
<polygon fill="black" stroke="black" points="1176.06,-2321.37 1175.46,-2331.95 1182.53,-2324.05 1176.06,-2321.37"/>
<text text-anchor="middle" x="1290" y="-1718.77" font-family="Times,serif" font-size="14.00">4</text>
</g>
<!-- 18&#45;&gt;0 -->
<g id="edge46" class="edge">
<title>18&#45;&gt;0</title>
<path fill="none" stroke="black" d="M1532.09,-1372.31C1519.46,-1385.25 1501.73,-1405.35 1491,-1425.98 1422.32,-1558.01 1450.75,-1611.78 1376,-1740.47 1307.89,-1857.73 1260.44,-1865.04 1179,-1973.47 1126.44,-2043.45 1145.18,-2092.66 1070,-2137.47 1012.17,-2171.95 808.15,-2173.85 723.37,-2173.09"/>
<polygon fill="black" stroke="black" points="723.2,-2169.59 713.17,-2172.98 723.13,-2176.59 723.2,-2169.59"/>
<text text-anchor="middle" x="1370" y="-1762.27" font-family="Times,serif" font-size="14.00">3</text>
</g>
<!-- 18&#45;&gt;13 -->
<g id="edge50" class="edge">
<title>18&#45;&gt;13</title>
<path fill="none" stroke="black" d="M1552.56,-1339.29C1583.01,-1247.97 1730.48,-808.18 1789,-677.49 1795.83,-662.24 1798.06,-658.6 1807,-644.49 1832.44,-604.3 1870,-605.55 1870,-557.99 1870,-557.99 1870,-557.99 1870,-234.74 1870,-208.62 1857.59,-181.67 1845.81,-161.97"/>
<polygon fill="black" stroke="black" points="1848.76,-160.07 1840.49,-153.45 1842.82,-163.79 1848.76,-160.07"/>
<text text-anchor="middle" x="1771" y="-735.29" font-family="Times,serif" font-size="14.00">2</text>
</g>
<!-- 18&#45;&gt;15 -->
<g id="edge122" class="edge">
<title>18&#45;&gt;15</title>
<path fill="none" stroke="black" d="M1525.77,-1345.58C1515.88,-1339.68 1504.81,-1331.39 1498,-1320.98 1448.52,-1245.33 1467.43,-995.89 1414,-922.98 1406.71,-913.04 1395.68,-905.53 1384.94,-900.07"/>
<polygon fill="black" stroke="black" points="1386.22,-896.8 1375.68,-895.78 1383.29,-903.16 1386.22,-896.8"/>
<text text-anchor="middle" x="1465" y="-1135.78" font-family="Times,serif" font-size="14.00">4</text>
</g>
<!-- 18&#45;&gt;17 -->
<g id="edge7" class="edge">
<title>18&#45;&gt;17</title>
<path fill="none" stroke="black" d="M1525.04,-1346.35C1518.93,-1343.81 1512.25,-1341.17 1506,-1338.98 1478.93,-1329.47 1467.46,-1337.49 1444,-1320.98 1362.83,-1263.84 1388.29,-1208.44 1325,-1131.98 1318.27,-1123.84 1309.86,-1116.1 1301.73,-1109.46"/>
<polygon fill="black" stroke="black" points="1303.8,-1106.63 1293.77,-1103.21 1299.47,-1112.14 1303.8,-1106.63"/>
<text text-anchor="middle" x="1382" y="-1222.78" font-family="Times,serif" font-size="14.00">0</text>
</g>
<!-- 18&#45;&gt;19 -->
<g id="edge131" class="edge">
<title>18&#45;&gt;19</title>
<path fill="none" stroke="black" d="M1520.94,-1352.15C1470.36,-1344.68 1360.58,-1328.25 1323,-1320.98 1288.55,-1314.31 1193.59,-1291.77 1141.8,-1279.35"/>
<polygon fill="black" stroke="black" points="1142.59,-1275.94 1132.05,-1277.01 1140.95,-1282.75 1142.59,-1275.94"/>
<text text-anchor="middle" x="1328" y="-1309.78" font-family="Times,serif" font-size="14.00">1</text>
</g>
<!-- 19&#45;&gt;10 -->
<g id="edge11" class="edge">
<title>19&#45;&gt;10</title>
<path fill="none" stroke="black" d="M1097.26,-1252.81C1094.32,-1247.07 1091.48,-1240.43 1090,-1233.98 1088.35,-1226.81 1087.79,-1218.92 1087.79,-1211.56"/>
<polygon fill="black" stroke="black" points="1091.29,-1211.42 1088.1,-1201.32 1084.3,-1211.2 1091.29,-1211.42"/>
<text text-anchor="middle" x="1095" y="-1222.78" font-family="Times,serif" font-size="14.00">2</text>
</g>
<!-- 19&#45;&gt;15 -->
<g id="edge56" class="edge">
<title>19&#45;&gt;15</title>
<path fill="none" stroke="black" d="M1128.26,-1258.59C1169.45,-1237.34 1260.27,-1184.9 1308,-1113.98 1349.54,-1052.24 1353.93,-960.79 1353.24,-915.49"/>
<polygon fill="black" stroke="black" points="1356.73,-915.17 1352.98,-905.26 1349.73,-915.35 1356.73,-915.17"/>
<text text-anchor="middle" x="1338" y="-1083.53" font-family="Times,serif" font-size="14.00">0</text>
</g>
<!-- 19&#45;&gt;25 -->
<g id="edge40" class="edge">
<title>19&#45;&gt;25</title>
<path fill="none" stroke="black" d="M1081.1,-1264.59C1001.43,-1249.66 758.3,-1193.12 641,-1042.48 592.78,-980.55 594.75,-946.35 608,-868.98 612.06,-845.29 619.86,-841.22 626,-817.98 635,-783.93 640,-775.21 640,-739.99 640,-739.99 640,-739.99 640,-130.24 640,-102.39 652.49,-72.79 663.15,-52.6"/>
<polygon fill="black" stroke="black" points="666.26,-54.2 668.02,-43.75 660.13,-50.83 666.26,-54.2"/>
<text text-anchor="middle" x="645" y="-648.29" font-family="Times,serif" font-size="14.00">1</text>
</g>
<!-- 19&#45;&gt;28 -->
<g id="edge136" class="edge">
<title>19&#45;&gt;28</title>
<path fill="none" stroke="black" d="M1084.3,-1279.94C1072.46,-1285.71 1058.66,-1294.33 1050,-1305.98 1002.38,-1369.98 1035.94,-1406.37 1004,-1479.47 978.73,-1537.32 971.38,-1553.61 928,-1599.47 921.91,-1605.91 914.47,-1611.93 907.26,-1617.09"/>
<polygon fill="black" stroke="black" points="905.27,-1614.21 898.98,-1622.74 909.21,-1620 905.27,-1614.21"/>
<text text-anchor="middle" x="1023" y="-1449.02" font-family="Times,serif" font-size="14.00">3</text>
</g>
<!-- 19&#45;&gt;29 -->
<g id="edge22" class="edge">
<title>19&#45;&gt;29</title>
<path fill="none" stroke="black" d="M1107.62,-1288.1C1109.78,-1348.61 1116.96,-1552.18 1118,-1617.47 1119.23,-1694.82 1115.12,-1714.13 1114,-1791.47 1111.1,-1991.85 1144.56,-2230.78 1158.28,-2319.64"/>
<polygon fill="black" stroke="black" points="1154.85,-2320.38 1159.85,-2329.72 1161.77,-2319.3 1154.85,-2320.38"/>
<text text-anchor="middle" x="1119" y="-1809.77" font-family="Times,serif" font-size="14.00">4</text>
</g>
<!-- 20&#45;&gt;3 -->
<g id="edge70" class="edge">
<title>20&#45;&gt;3</title>
<path fill="none" stroke="black" d="M1362.48,-408.89C1359.98,-403.12 1357.25,-396.56 1355,-390.49 1352.14,-382.78 1349.34,-374.34 1346.85,-366.47"/>
<polygon fill="black" stroke="black" points="1350.2,-365.43 1343.9,-356.91 1343.51,-367.5 1350.2,-365.43"/>
<text text-anchor="middle" x="1360" y="-379.29" font-family="Times,serif" font-size="14.00">0</text>
</g>
<!-- 20&#45;&gt;3 -->
<g id="edge148" class="edge">
<title>20&#45;&gt;3</title>
<path fill="none" stroke="black" d="M1370.39,-408.35C1370.11,-398.47 1368.86,-385.97 1365,-375.49 1363.2,-370.59 1360.63,-365.73 1357.79,-361.18"/>
<polygon fill="black" stroke="black" points="1360.66,-359.18 1352.12,-352.91 1354.89,-363.13 1360.66,-359.18"/>
<text text-anchor="middle" x="1373" y="-379.29" font-family="Times,serif" font-size="14.00">1</text>
</g>
<!-- 20&#45;&gt;7 -->
<g id="edge88" class="edge">
<title>20&#45;&gt;7</title>
<path fill="none" stroke="black" d="M1393.74,-435.23C1468.87,-460.56 1705.73,-546.92 1863,-677.49 1892.96,-702.36 1887.82,-720.71 1917,-746.49 1928.65,-756.78 1937.02,-752.57 1947,-764.49 1976.24,-799.4 2009.12,-911.76 2020,-955.98 2048.81,-1073.11 2052,-1104.86 2052,-1225.48 2052,-1814.47 2052,-1814.47 2052,-1814.47 2052,-1881.69 1815.98,-1898.34 1723,-1902.3"/>
<polygon fill="black" stroke="black" points="1722.77,-1898.8 1712.91,-1902.7 1723.04,-1905.8 1722.77,-1898.8"/>
<text text-anchor="middle" x="2056" y="-1179.28" font-family="Times,serif" font-size="14.00">3</text>
</g>
<!-- 20&#45;&gt;21 -->
<g id="edge103" class="edge">
<title>20&#45;&gt;21</title>
<path fill="none" stroke="black" d="M1388.9,-439.4C1427.78,-464.2 1518.92,-523.98 1589,-582.49 1589.19,-582.64 1809.81,-786.49 1835,-835.98 1875.1,-914.77 1854,-945.58 1854,-1033.98 1854,-1227.48 1854,-1227.48 1854,-1227.48 1854,-1354.79 1859.79,-1390 1825,-1512.47 1824.1,-1515.66 1822.91,-1518.9 1821.6,-1522.07"/>
<polygon fill="black" stroke="black" points="1818.39,-1520.66 1817.37,-1531.21 1824.74,-1523.6 1818.39,-1520.66"/>
<text text-anchor="middle" x="1863" y="-979.03" font-family="Times,serif" font-size="14.00">4</text>
</g>
<!-- 20&#45;&gt;29 -->
<g id="edge97" class="edge">
<title>20&#45;&gt;29</title>
<path fill="none" stroke="black" d="M1397.32,-426.94C1461.91,-426.75 1627.51,-432.91 1746,-495.49 1894.4,-573.86 1898.69,-639.78 2011,-764.49 2031.6,-787.36 2034.03,-795.45 2055,-817.98 2161.54,-932.48 2226.47,-928.26 2310,-1060.48 2351.21,-1125.71 2364,-1148.32 2364,-1225.48 2364,-2261.47 2364,-2261.47 2364,-2261.47 2364,-2362.61 2242.53,-2300.4 2142,-2311.47 1776.8,-2351.69 1331,-2355.18 1201.13,-2355.29"/>
<polygon fill="black" stroke="black" points="1200.93,-2351.79 1190.94,-2355.3 1200.94,-2358.79 1200.93,-2351.79"/>
<text text-anchor="middle" x="2369" y="-1396.78" font-family="Times,serif" font-size="14.00">2</text>
</g>
<!-- 21&#45;&gt;7 -->
<g id="edge13" class="edge">
<title>21&#45;&gt;7</title>
<path fill="none" stroke="black" d="M1805.81,-1566.42C1803.12,-1587.01 1798.39,-1622.81 1794,-1653.47 1788.42,-1692.47 1791.02,-1703.65 1777,-1740.47 1757.16,-1792.57 1722.89,-1848.25 1702.55,-1879.18"/>
<polygon fill="black" stroke="black" points="1699.58,-1877.32 1696.96,-1887.58 1705.41,-1881.2 1699.58,-1877.32"/>
<text text-anchor="middle" x="1792" y="-1718.77" font-family="Times,serif" font-size="14.00">3</text>
</g>
<!-- 21&#45;&gt;16 -->
<g id="edge106" class="edge">
<title>21&#45;&gt;16</title>
<path fill="none" stroke="black" d="M1821.99,-1533.06C1854.04,-1498.45 1930,-1406.71 1930,-1314.48 1930,-1314.48 1930,-1314.48 1930,-1033.98 1930,-984.52 1914.98,-971.94 1922,-922.98 1939.73,-799.22 2001,-778.02 2001,-652.99 2001,-652.99 2001,-652.99 2001,-130.24 2001,-93.11 1967.11,-63.46 1940.25,-45.79"/>
<polygon fill="black" stroke="black" points="1941.8,-42.63 1931.47,-40.26 1938.07,-48.55 1941.8,-42.63"/>
<text text-anchor="middle" x="1983" y="-787.54" font-family="Times,serif" font-size="14.00">0</text>
</g>
<!-- 21&#45;&gt;18 -->
<g id="edge38" class="edge">
<title>21&#45;&gt;18</title>
<path fill="none" stroke="black" d="M1797.93,-1531.73C1777.13,-1500.51 1726.31,-1430.52 1666,-1392.98 1640.72,-1377.24 1608.04,-1368.29 1583.33,-1363.39"/>
<polygon fill="black" stroke="black" points="1583.74,-1359.91 1573.27,-1361.53 1582.46,-1366.79 1583.74,-1359.91"/>
<text text-anchor="middle" x="1762" y="-1449.02" font-family="Times,serif" font-size="14.00">1</text>
</g>
<!-- 21&#45;&gt;19 -->
<g id="edge53" class="edge">
<title>21&#45;&gt;19</title>
<path fill="none" stroke="black" d="M1781.46,-1544.97C1728.11,-1539.18 1604.98,-1521.97 1511,-1479.47 1413.67,-1435.46 1412.12,-1385.57 1316,-1338.98 1289.8,-1326.27 1279.99,-1331.91 1253,-1320.98 1239.92,-1315.67 1238.06,-1311.34 1225,-1305.98 1197.97,-1294.86 1166.14,-1285.64 1142.36,-1279.45"/>
<polygon fill="black" stroke="black" points="1142.93,-1275.98 1132.37,-1276.91 1141.2,-1282.77 1142.93,-1275.98"/>
<text text-anchor="middle" x="1414" y="-1396.78" font-family="Times,serif" font-size="14.00">4</text>
</g>
<!-- 21&#45;&gt;24 -->
<g id="edge120" class="edge">
<title>21&#45;&gt;24</title>
<path fill="none" stroke="black" d="M1789.56,-1535.32C1771.01,-1523.69 1741.19,-1506.62 1713,-1497.47 1659.61,-1480.15 1640.69,-1498.82 1588,-1479.47 1584.29,-1478.11 1580.56,-1476.38 1576.94,-1474.46"/>
<polygon fill="black" stroke="black" points="1578.66,-1471.41 1568.25,-1469.41 1575.14,-1477.46 1578.66,-1471.41"/>
<text text-anchor="middle" x="1753" y="-1501.27" font-family="Times,serif" font-size="14.00">2</text>
</g>
<!-- 22&#45;&gt;1 -->
<g id="edge65" class="edge">
<title>22&#45;&gt;1</title>
<path fill="none" stroke="black" d="M1638.9,-817.38C1656.69,-894.66 1709.66,-1135.77 1727,-1338.98 1728.36,-1354.92 1727.19,-1358.98 1727,-1374.98 1726.33,-1432.32 1724,-1446.62 1724,-1503.97 1724,-1723.47 1724,-1723.47 1724,-1723.47 1724,-1745.87 1713.7,-1769.08 1703.82,-1786.17"/>
<polygon fill="black" stroke="black" points="1700.65,-1784.64 1698.44,-1795 1706.63,-1788.28 1700.65,-1784.64"/>
<text text-anchor="middle" x="1730" y="-1309.78" font-family="Times,serif" font-size="14.00">2</text>
</g>
<!-- 22&#45;&gt;12 -->
<g id="edge123" class="edge">
<title>22&#45;&gt;12</title>
<path fill="none" stroke="black" d="M1615.64,-770.69C1602.74,-757.46 1583.98,-740.76 1564,-731.49 1506.95,-705.01 1433.09,-698.23 1389.31,-696.68"/>
<polygon fill="black" stroke="black" points="1389.21,-693.18 1379.12,-696.4 1389.02,-700.18 1389.21,-693.18"/>
<text text-anchor="middle" x="1592" y="-735.29" font-family="Times,serif" font-size="14.00">0</text>
</g>
<!-- 22&#45;&gt;17 -->
<g id="edge125" class="edge">
<title>22&#45;&gt;17</title>
<path fill="none" stroke="black" d="M1612.33,-809.07C1551.13,-858.91 1370.7,-1005.85 1300.45,-1063.06"/>
<polygon fill="black" stroke="black" points="1297.99,-1060.55 1292.44,-1069.58 1302.41,-1065.98 1297.99,-1060.55"/>
<text text-anchor="middle" x="1474" y="-926.78" font-family="Times,serif" font-size="14.00">4</text>
</g>
<!-- 22&#45;&gt;18 -->
<g id="edge137" class="edge">
<title>22&#45;&gt;18</title>
<path fill="none" stroke="black" d="M1621.76,-815.67C1593.29,-877.41 1521.08,-1050.21 1528,-1200.98 1529.78,-1239.76 1531.12,-1249.45 1536,-1287.98 1537.71,-1301.46 1540.07,-1316.38 1542.17,-1328.8"/>
<polygon fill="black" stroke="black" points="1538.77,-1329.71 1543.92,-1338.98 1545.67,-1328.53 1538.77,-1329.71"/>
<text text-anchor="middle" x="1545" y="-1083.53" font-family="Times,serif" font-size="14.00">3</text>
</g>
<!-- 22&#45;&gt;21 -->
<g id="edge78" class="edge">
<title>22&#45;&gt;21</title>
<path fill="none" stroke="black" d="M1651.5,-810.82C1686.87,-847.99 1762.5,-935.82 1784,-1027.48 1827.17,-1211.51 1815.82,-1441.94 1810.22,-1520.1"/>
<polygon fill="black" stroke="black" points="1806.73,-1519.87 1809.47,-1530.1 1813.71,-1520.39 1806.73,-1519.87"/>
<text text-anchor="middle" x="1814" y="-1179.28" font-family="Times,serif" font-size="14.00">1</text>
</g>
<!-- 23&#45;&gt;2 -->
<g id="edge43" class="edge">
<title>23&#45;&gt;2</title>
<path fill="none" stroke="black" d="M236.4,-621.59C226.97,-638.96 214,-667.72 214,-694.49 214,-1035.98 214,-1035.98 214,-1035.98 214,-1198.41 252,-1237.04 252,-1399.48 252,-2174.47 252,-2174.47 252,-2174.47 252,-2210.61 290.32,-2234.48 319.75,-2247.48"/>
<polygon fill="black" stroke="black" points="318.74,-2250.85 329.32,-2251.47 321.44,-2244.39 318.74,-2250.85"/>
<text text-anchor="middle" x="257" y="-1449.02" font-family="Times,serif" font-size="14.00">4</text>
</g>
<!-- 23&#45;&gt;2 -->
<g id="edge95" class="edge">
<title>23&#45;&gt;2</title>
<path fill="none" stroke="black" d="M219.06,-607.44C171.13,-612.54 76,-630.69 76,-694.49 76,-2174.47 76,-2174.47 76,-2174.47 76,-2224.2 241.2,-2247.81 316.45,-2255.99"/>
<polygon fill="black" stroke="black" points="316.13,-2259.48 326.44,-2257.04 316.86,-2252.52 316.13,-2259.48"/>
<text text-anchor="middle" x="81" y="-1449.02" font-family="Times,serif" font-size="14.00">2</text>
</g>
<!-- 23&#45;&gt;5 -->
<g id="edge74" class="edge">
<title>23&#45;&gt;5</title>
<path fill="none" stroke="black" d="M255.6,-621.59C265.03,-638.96 278,-667.72 278,-694.49 278,-887.98 278,-887.98 278,-887.98 278,-1118.65 366,-1168.81 366,-1399.48 366,-1636.47 366,-1636.47 366,-1636.47 366,-1661.12 371.26,-1670.46 390,-1686.47 396.42,-1691.95 440.13,-1704.16 472.26,-1712.6"/>
<polygon fill="black" stroke="black" points="471.66,-1716.07 482.22,-1715.2 473.42,-1709.29 471.66,-1716.07"/>
<text text-anchor="middle" x="344" y="-1179.28" font-family="Times,serif" font-size="14.00">3</text>
</g>
<!-- 23&#45;&gt;11 -->
<g id="edge94" class="edge">
<title>23&#45;&gt;11</title>
<path fill="none" stroke="black" d="M270.67,-612.01C350.54,-633.92 607.19,-710.65 785,-835.98 831.87,-869.02 875.04,-920.35 899.67,-952.45"/>
<polygon fill="black" stroke="black" points="896.99,-954.71 905.81,-960.57 902.57,-950.48 896.99,-954.71"/>
<text text-anchor="middle" x="764" y="-787.54" font-family="Times,serif" font-size="14.00">1</text>
</g>
<!-- 23&#45;&gt;28 -->
<g id="edge63" class="edge">
<title>23&#45;&gt;28</title>
<path fill="none" stroke="black" d="M266.69,-616.27C290.98,-630.6 328,-658.35 328,-694.49 328,-931.48 328,-931.48 328,-931.48 328,-986.34 357.15,-993.57 382,-1042.48 418.11,-1113.56 420.81,-1135.3 466,-1200.98 495.1,-1243.27 502.79,-1254.83 542,-1287.98 575.06,-1315.93 592.86,-1309.96 625,-1338.98 719.48,-1424.28 719.13,-1467.35 799,-1566.47 811.07,-1581.45 812.66,-1586.65 827,-1599.47 834.27,-1605.97 842.82,-1612.21 850.86,-1617.57"/>
<polygon fill="black" stroke="black" points="849.01,-1620.54 859.31,-1623.02 852.8,-1614.66 849.01,-1620.54"/>
<text text-anchor="middle" x="438" y="-1135.78" font-family="Times,serif" font-size="14.00">0</text>
</g>
<!-- 24&#45;&gt;7 -->
<g id="edge23" class="edge">
<title>24&#45;&gt;7</title>
<path fill="none" stroke="black" d="M1545.73,-1479.58C1544.91,-1498.4 1544,-1524.51 1544,-1547.47 1544,-1679.97 1544,-1679.97 1544,-1679.97 1544,-1766.81 1621.32,-1847.19 1661.85,-1883.36"/>
<polygon fill="black" stroke="black" points="1659.6,-1886.04 1669.43,-1889.99 1664.21,-1880.77 1659.6,-1886.04"/>
<text text-anchor="middle" x="1549" y="-1675.27" font-family="Times,serif" font-size="14.00">0</text>
</g>
<!-- 24&#45;&gt;11 -->
<g id="edge62" class="edge">
<title>24&#45;&gt;11</title>
<path fill="none" stroke="black" d="M1523.7,-1439.37C1499.12,-1426.65 1459.03,-1406.79 1423,-1392.98 1346.78,-1363.75 1133.62,-1340.34 1071,-1287.98 984.99,-1216.04 943.94,-1082.81 928.56,-1019.26"/>
<polygon fill="black" stroke="black" points="931.92,-1018.25 926.22,-1009.31 925.1,-1019.85 931.92,-1018.25"/>
<text text-anchor="middle" x="1026" y="-1222.78" font-family="Times,serif" font-size="14.00">4</text>
</g>
<!-- 24&#45;&gt;12 -->
<g id="edge67" class="edge">
<title>24&#45;&gt;12</title>
<path fill="none" stroke="black" d="M1560.63,-1429.49C1568.9,-1414.65 1578.68,-1394.37 1583,-1374.98 1586.48,-1359.36 1583.83,-1354.95 1583,-1338.98 1580.55,-1292.12 1576.87,-1280.64 1572,-1233.98 1553.46,-1056.19 1602.53,-991.28 1514,-835.98 1481.97,-779.8 1418.5,-735.48 1381.22,-712.9"/>
<polygon fill="black" stroke="black" points="1382.73,-709.72 1372.34,-707.63 1379.16,-715.74 1382.73,-709.72"/>
<text text-anchor="middle" x="1574" y="-1083.53" font-family="Times,serif" font-size="14.00">2</text>
</g>
<!-- 24&#45;&gt;16 -->
<g id="edge96" class="edge">
<title>24&#45;&gt;16</title>
<path fill="none" stroke="black" d="M1566.77,-1434.6C1574.36,-1427.11 1582.52,-1417.79 1588,-1407.98 1595.42,-1394.71 1593.16,-1389.69 1597,-1374.98 1639.25,-1212.99 1667.32,-1175.6 1688,-1009.48 1702.8,-890.62 1689,-859.76 1689,-739.99 1689,-739.99 1689,-739.99 1689,-512.49 1689,-453.89 1658.83,-445.63 1639,-390.49 1605.43,-297.11 1523.04,-259.28 1577,-175.99 1643.43,-73.45 1799.32,-41.19 1870.89,-31.58"/>
<polygon fill="black" stroke="black" points="1871.74,-35 1881.22,-30.27 1870.86,-28.05 1871.74,-35"/>
<text text-anchor="middle" x="1694" y="-735.29" font-family="Times,serif" font-size="14.00">1</text>
</g>
<!-- 24&#45;&gt;18 -->
<g id="edge27" class="edge">
<title>24&#45;&gt;18</title>
<path fill="none" stroke="black" d="M1550.93,-1426C1552.04,-1415.73 1552.77,-1403.8 1552,-1392.98 1551.82,-1390.4 1551.56,-1387.73 1551.26,-1385.07"/>
<polygon fill="black" stroke="black" points="1554.71,-1384.47 1549.93,-1375.01 1547.77,-1385.39 1554.71,-1384.47"/>
<text text-anchor="middle" x="1557" y="-1396.78" font-family="Times,serif" font-size="14.00">3</text>
</g>
<!-- 25&#45;&gt;0 -->
<g id="edge108" class="edge">
<title>25&#45;&gt;0</title>
<path fill="none" stroke="black" d="M651,-28.93C524.9,-34.79 0,-63.21 0,-130.24 0,-1140.48 0,-1140.48 0,-1140.48 0,-1278.81 122.49,-1268.09 182,-1392.98 222.91,-1478.82 200.68,-1512.01 238,-1599.47 289.41,-1719.95 457.74,-2004.19 542,-2104.47 556.39,-2121.6 560.56,-2126.42 580,-2137.47 602.01,-2149.98 629.15,-2158.84 650.47,-2164.51"/>
<polygon fill="black" stroke="black" points="649.86,-2167.97 660.41,-2167.04 651.58,-2161.19 649.86,-2167.97"/>
<text text-anchor="middle" x="6" y="-1135.78" font-family="Times,serif" font-size="14.00">2</text>
</g>
<!-- 25&#45;&gt;6 -->
<g id="edge105" class="edge">
<title>25&#45;&gt;6</title>
<path fill="none" stroke="black" d="M651.15,-28.72C609.5,-31.2 527.81,-40.04 467,-71.5 433,-89.09 404,-91.96 404,-130.24 404,-1035.98 404,-1035.98 404,-1035.98 404,-1201.03 328,-1234.43 328,-1399.48 328,-1592.97 328,-1592.97 328,-1592.97 328,-1684.28 383.39,-1714.76 471,-1740.47 623.21,-1785.14 1030.59,-1747.51 1183,-1791.47 1219.85,-1802.1 1445.15,-1928.02 1526.63,-1973.89"/>
<polygon fill="black" stroke="black" points="1525.4,-1977.21 1535.83,-1979.07 1528.84,-1971.12 1525.4,-1977.21"/>
<text text-anchor="middle" x="409" y="-1031.28" font-family="Times,serif" font-size="14.00">1</text>
</g>
<!-- 25&#45;&gt;8 -->
<g id="edge86" class="edge">
<title>25&#45;&gt;8</title>
<path fill="none" stroke="black" d="M688.53,-43.36C722.93,-94.58 834.38,-262.67 915,-408.49 952.32,-475.98 942.17,-504.79 991,-564.49 997.78,-572.77 1006.64,-580.33 1015.08,-586.53"/>
<polygon fill="black" stroke="black" points="1013.08,-589.4 1023.28,-592.27 1017.09,-583.67 1013.08,-589.4"/>
<text text-anchor="middle" x="889" y="-331.79" font-family="Times,serif" font-size="14.00">0</text>
</g>
<!-- 25&#45;&gt;25 -->
<g id="edge79" class="edge">
<title>25&#45;&gt;25</title>
<path fill="none" stroke="black" d="M701.15,-36.21C712.7,-37.52 723,-34.37 723,-26.75 723,-21.51 718.13,-18.38 711.34,-17.37"/>
<polygon fill="black" stroke="black" points="711.18,-13.86 701.15,-17.29 711.13,-20.86 711.18,-13.86"/>
<text text-anchor="middle" x="728" y="-23.05" font-family="Times,serif" font-size="14.00">3</text>
</g>
<!-- 25&#45;&gt;28 -->
<g id="edge124" class="edge">
<title>25&#45;&gt;28</title>
<path fill="none" stroke="black" d="M650.66,-28.08C591.11,-30.4 455,-45.03 455,-130.24 455,-652.99 455,-652.99 455,-652.99 455,-776.38 480,-806.1 480,-929.48 480,-1140.48 480,-1140.48 480,-1140.48 480,-1176.27 490.73,-1183.93 498,-1218.98 512.33,-1288.03 492.4,-1313.53 527,-1374.98 601.53,-1507.35 774.59,-1591.32 846.63,-1621.69"/>
<polygon fill="black" stroke="black" points="845.52,-1625.02 856.1,-1625.62 848.21,-1618.55 845.52,-1625.02"/>
<text text-anchor="middle" x="481" y="-839.78" font-family="Times,serif" font-size="14.00">4</text>
</g>
<!-- 26&#45;&gt;7 -->
<g id="edge30" class="edge">
<title>26&#45;&gt;7</title>
<path fill="none" stroke="black" d="M2120,-262.88C2120,-282.56 2120,-310.22 2120,-334.49 2120,-605.49 2120,-605.49 2120,-605.49 2120,-819.57 2090,-872.15 2090,-1086.23 2090,-1814.47 2090,-1814.47 2090,-1814.47 2090,-1889.14 1823.49,-1901.23 1723.39,-1903.13"/>
<polygon fill="black" stroke="black" points="1723.08,-1899.64 1713.13,-1903.3 1723.19,-1906.64 1723.08,-1899.64"/>
<text text-anchor="middle" x="2095" y="-1083.53" font-family="Times,serif" font-size="14.00">2</text>
</g>
<!-- 26&#45;&gt;7 -->
<g id="edge61" class="edge">
<title>26&#45;&gt;7</title>
<path fill="none" stroke="black" d="M2133.93,-258.71C2144.78,-277.93 2158,-306.99 2158,-334.49 2158,-605.49 2158,-605.49 2158,-605.49 2158,-842.57 2136,-901.39 2136,-1138.48 2136,-1814.47 2136,-1814.47 2136,-1814.47 2136,-1898.38 1831.07,-1904.46 1723.23,-1903.98"/>
<polygon fill="black" stroke="black" points="1723.16,-1900.48 1713.14,-1903.91 1723.11,-1907.48 1723.16,-1900.48"/>
<text text-anchor="middle" x="2141" y="-1083.53" font-family="Times,serif" font-size="14.00">0</text>
</g>
<!-- 26&#45;&gt;11 -->
<g id="edge47" class="edge">
<title>26&#45;&gt;11</title>
<path fill="none" stroke="black" d="M2094.81,-245.32C1987.62,-282.56 1575,-433.86 1575,-555.99 1575,-696.49 1575,-696.49 1575,-696.49 1575,-712.69 1455.37,-872.27 1388,-904.98 1368.51,-914.45 1063.97,-960.44 957.45,-976.32"/>
<polygon fill="black" stroke="black" points="956.86,-972.87 947.48,-977.81 957.89,-979.8 956.86,-972.87"/>
<text text-anchor="middle" x="1580" y="-600.79" font-family="Times,serif" font-size="14.00">1</text>
</g>
<!-- 26&#45;&gt;13 -->
<g id="edge14" class="edge">
<title>26&#45;&gt;13</title>
<path fill="none" stroke="black" d="M2093.95,-229.47C2060.55,-222.37 2001.09,-208.58 1952,-190.99 1918.94,-179.15 1882.73,-161.95 1857.46,-149.22"/>
<polygon fill="black" stroke="black" points="1858.84,-146 1848.35,-144.58 1855.67,-152.24 1858.84,-146"/>
<text text-anchor="middle" x="1957" y="-179.79" font-family="Times,serif" font-size="14.00">4</text>
</g>
<!-- 26&#45;&gt;14 -->
<g id="edge140" class="edge">
<title>26&#45;&gt;14</title>
<path fill="none" stroke="black" d="M2093.34,-232.33C1942.49,-218.71 1196.51,-151.34 1021.7,-135.56"/>
<polygon fill="black" stroke="black" points="1021.99,-132.07 1011.71,-134.66 1021.36,-139.04 1021.99,-132.07"/>
<text text-anchor="middle" x="1625" y="-179.79" font-family="Times,serif" font-size="14.00">3</text>
</g>
<!-- 27&#45;&gt;0 -->
<g id="edge58" class="edge">
<title>27&#45;&gt;0</title>
<path fill="none" stroke="black" d="M823.5,-988.81C789.11,-996.2 730.62,-1010.86 717,-1027.48 637.06,-1125.07 648,-1464.82 648,-1590.97 648,-2083.47 648,-2083.47 648,-2083.47 648,-2106.72 659.1,-2130.84 669.3,-2148.09"/>
<polygon fill="black" stroke="black" points="666.55,-2150.29 674.8,-2156.93 672.49,-2146.59 666.55,-2150.29"/>
<text text-anchor="middle" x="653" y="-1588.27" font-family="Times,serif" font-size="14.00">0</text>
</g>
<!-- 27&#45;&gt;5 -->
<g id="edge149" class="edge">
<title>27&#45;&gt;5</title>
<path fill="none" stroke="black" d="M823.69,-989.78C801.41,-995.08 768.08,-1002.92 739,-1009.48 702.18,-1017.78 683.7,-1001.84 656,-1027.48 611.65,-1068.52 599.2,-1231.39 578,-1287.98 541.02,-1386.69 480,-1398.55 480,-1503.97 480,-1636.47 480,-1636.47 480,-1636.47 480,-1657.12 487.32,-1679.31 494.34,-1695.84"/>
<polygon fill="black" stroke="black" points="491.32,-1697.65 498.61,-1705.34 497.7,-1694.79 491.32,-1697.65"/>
<text text-anchor="middle" x="559" y="-1353.28" font-family="Times,serif" font-size="14.00">2</text>
</g>
<!-- 27&#45;&gt;14 -->
<g id="edge36" class="edge">
<title>27&#45;&gt;14</title>
<path fill="none" stroke="black" d="M849.53,-964.62C851,-915.91 855,-772.29 855,-652.99 855,-652.99 855,-652.99 855,-334.49 855,-257.46 922.56,-186.39 960.27,-152.72"/>
<polygon fill="black" stroke="black" points="963.04,-154.94 968.27,-145.73 958.44,-149.67 963.04,-154.94"/>
<text text-anchor="middle" x="860" y="-553.29" font-family="Times,serif" font-size="14.00">1</text>
</g>
<!-- 27&#45;&gt;17 -->
<g id="edge133" class="edge">
<title>27&#45;&gt;17</title>
<path fill="none" stroke="black" d="M864.83,-997.67C870.78,-1002.16 877.84,-1006.7 885,-1009.48 947.6,-1033.77 971.29,-1006.27 1035,-1027.48 1047.66,-1031.69 1048.53,-1037.73 1061,-1042.48 1119.78,-1064.87 1192.37,-1076.72 1235.27,-1082.22"/>
<polygon fill="black" stroke="black" points="1234.9,-1085.7 1245.25,-1083.45 1235.76,-1078.75 1234.9,-1085.7"/>
<text text-anchor="middle" x="1066" y="-1031.28" font-family="Times,serif" font-size="14.00">3</text>
</g>
<!-- 27&#45;&gt;20 -->
<g id="edge134" class="edge">
<title>27&#45;&gt;20</title>
<path fill="none" stroke="black" d="M864.94,-967.59C893.87,-941.08 955.13,-880.88 989,-817.98 1027.05,-747.33 988.4,-706.77 1039,-644.49 1049.78,-631.22 1059.33,-636.76 1073,-626.49 1103.66,-603.45 1108.63,-594.1 1133,-564.49 1168.1,-521.84 1157.96,-493 1204,-462.49 1242.88,-436.72 1297.18,-429.44 1332.95,-427.63"/>
<polygon fill="black" stroke="black" points="1333.11,-431.13 1342.97,-427.25 1332.84,-424.14 1333.11,-431.13"/>
<text text-anchor="middle" x="1023" y="-691.79" font-family="Times,serif" font-size="14.00">4</text>
</g>
<!-- 28&#45;&gt;1 -->
<g id="edge33" class="edge">
<title>28&#45;&gt;1</title>
<path fill="none" stroke="black" d="M904.38,-1642.58C972.89,-1659.01 1167.43,-1705.29 1330,-1740.47 1449.43,-1766.31 1592.05,-1794.29 1654.31,-1806.36"/>
<polygon fill="black" stroke="black" points="1653.8,-1809.83 1664.29,-1808.29 1655.13,-1802.96 1653.8,-1809.83"/>
<text text-anchor="middle" x="1335" y="-1718.77" font-family="Times,serif" font-size="14.00">4</text>
</g>
<!-- 28&#45;&gt;11 -->
<g id="edge39" class="edge">
<title>28&#45;&gt;11</title>
<path fill="none" stroke="black" d="M862.12,-1621.04C855.26,-1614.98 847.63,-1607.4 842,-1599.47 815.62,-1562.33 800,-1551.53 800,-1505.97 800,-1505.97 800,-1505.97 800,-1225.48 800,-1139.72 861.64,-1053.22 896.93,-1010.73"/>
<polygon fill="black" stroke="black" points="899.62,-1012.98 903.41,-1003.08 894.28,-1008.46 899.62,-1012.98"/>
<text text-anchor="middle" x="805" y="-1309.78" font-family="Times,serif" font-size="14.00">2</text>
</g>
<!-- 28&#45;&gt;15 -->
<g id="edge138" class="edge">
<title>28&#45;&gt;15</title>
<path fill="none" stroke="black" d="M903.33,-1627.06C922.11,-1620.88 948.44,-1611.21 970,-1599.47 1118.78,-1518.48 1165.79,-1501.88 1278,-1374.98 1388.47,-1250.03 1345.7,-1175.36 1363,-1009.48 1366.99,-971.2 1374.74,-960.68 1367,-922.98 1366.37,-919.91 1365.46,-916.77 1364.39,-913.7"/>
<polygon fill="black" stroke="black" points="1367.58,-912.25 1360.6,-904.27 1361.08,-914.86 1367.58,-912.25"/>
<text text-anchor="middle" x="1352" y="-1266.28" font-family="Times,serif" font-size="14.00">0</text>
</g>
<!-- 28&#45;&gt;20 -->
<g id="edge34" class="edge">
<title>28&#45;&gt;20</title>
<path fill="none" stroke="black" d="M878.03,-1617.22C877.16,-1600.05 876,-1572.95 876,-1549.47 876,-1549.47 876,-1549.47 876,-1399.48 876,-1229.37 896.42,-1182.7 966,-1027.48 1012.32,-924.15 1047.48,-911.73 1111,-817.98 1159.36,-746.62 1305.16,-525.78 1353.92,-451.87"/>
<polygon fill="black" stroke="black" points="1357.04,-453.49 1359.63,-443.22 1351.2,-449.64 1357.04,-453.49"/>
<text text-anchor="middle" x="971" y="-1031.28" font-family="Times,serif" font-size="14.00">1</text>
</g>
<!-- 28&#45;&gt;21 -->
<g id="edge15" class="edge">
<title>28&#45;&gt;21</title>
<path fill="none" stroke="black" d="M905.59,-1632.1C944.36,-1628.67 1018.69,-1622.22 1082,-1617.47 1202.81,-1608.42 1233.31,-1610.11 1354,-1599.47 1509.6,-1585.76 1694.55,-1563.55 1771.55,-1554.03"/>
<polygon fill="black" stroke="black" points="1772.19,-1557.48 1781.68,-1552.78 1771.33,-1550.53 1772.19,-1557.48"/>
<text text-anchor="middle" x="1508" y="-1588.27" font-family="Times,serif" font-size="14.00">3</text>
</g>
<!-- 29&#45;&gt;2 -->
<g id="edge82" class="edge">
<title>29&#45;&gt;2</title>
<path fill="none" stroke="black" d="M1137.16,-2355.14C1023.14,-2354.56 578.73,-2349.83 445,-2311.47 421.34,-2304.69 396.97,-2291.09 379.26,-2279.79"/>
<polygon fill="black" stroke="black" points="380.93,-2276.7 370.65,-2274.14 377.09,-2282.55 380.93,-2276.7"/>
<text text-anchor="middle" x="450" y="-2300.27" font-family="Times,serif" font-size="14.00">3</text>
</g>
<!-- 29&#45;&gt;13 -->
<g id="edge75" class="edge">
<title>29&#45;&gt;13</title>
<path fill="none" stroke="black" d="M1190.87,-2355.02C1337.9,-2353.8 2046.34,-2346.19 2262,-2311.47 2330.55,-2300.44 2410,-2330.9 2410,-2261.47 2410,-2261.47 2410,-2261.47 2410,-1033.98 2410,-779.84 2310,-725.12 2310,-470.99 2310,-470.99 2310,-470.99 2310,-334.49 2310,-284.86 2167.03,-213.76 2156,-208.99 2054.67,-165.14 1924.57,-144.38 1861.94,-136.39"/>
<polygon fill="black" stroke="black" points="1862.12,-132.89 1851.77,-135.13 1861.26,-139.84 1862.12,-132.89"/>
<text text-anchor="middle" x="2415" y="-1266.28" font-family="Times,serif" font-size="14.00">2</text>
</g>
<!-- 29&#45;&gt;16 -->
<g id="edge69" class="edge">
<title>29&#45;&gt;16</title>
<path fill="none" stroke="black" d="M1190.86,-2355.49C1344.39,-2356.84 2111.92,-2360.99 2342,-2311.47 2392.92,-2300.51 2448,-2313.56 2448,-2261.47 2448,-2261.47 2448,-2261.47 2448,-130.24 2448,-80.6 2400.03,-87.39 2353,-71.5 2277.58,-46.01 2037.38,-33.28 1944.84,-29.23"/>
<polygon fill="black" stroke="black" points="1944.96,-25.73 1934.82,-28.8 1944.66,-32.72 1944.96,-25.73"/>
<text text-anchor="middle" x="2453" y="-1222.78" font-family="Times,serif" font-size="14.00">0</text>
</g>
<!-- 29&#45;&gt;20 -->
<g id="edge60" class="edge">
<title>29&#45;&gt;20</title>
<path fill="none" stroke="black" d="M1190.73,-2354.51C1364.45,-2349.69 2326,-2320.39 2326,-2261.47 2326,-2261.47 2326,-2261.47 2326,-1225.48 2326,-1193.29 1997.61,-787.4 1975,-764.49 1965.88,-755.25 1961.45,-755.39 1952,-746.49 1922.2,-718.42 1920.54,-705.82 1891,-677.49 1842.65,-631.13 1830.16,-618.99 1774,-582.49 1663.21,-510.48 1628.71,-499.95 1502,-462.49 1469.28,-452.81 1431.64,-442.96 1404.95,-436.18"/>
<polygon fill="black" stroke="black" points="1405.48,-432.71 1394.93,-433.65 1403.77,-439.49 1405.48,-432.71"/>
<text text-anchor="middle" x="2331" y="-1396.78" font-family="Times,serif" font-size="14.00">1</text>
</g>
<!-- 29&#45;&gt;23 -->
<g id="edge89" class="edge">
<title>29&#45;&gt;23</title>
<path fill="none" stroke="black" d="M1136.95,-2355.28C996.5,-2355.43 349.34,-2353.78 154,-2311.47 95.92,-2298.89 30,-2320.89 30,-2261.47 30,-2261.47 30,-2261.47 30,-1503.97 30,-1342.38 38,-1302.07 38,-1140.48 38,-1140.48 38,-1140.48 38,-694.49 38,-621.12 148.73,-607.44 208.61,-605.4"/>
<polygon fill="black" stroke="black" points="208.9,-608.89 218.81,-605.15 208.72,-601.89 208.9,-608.89"/>
<text text-anchor="middle" x="35" y="-1501.27" font-family="Times,serif" font-size="14.00">4</text>
</g>
</g>
</svg>
