<?xml version="1.0" encoding="UTF-8" standalone="no"?>
<!DOCTYPE svg PUBLIC "-//W3C//DTD SVG 1.1//EN"
 "http://www.w3.org/Graphics/SVG/1.1/DTD/svg11.dtd">
<!-- Generated by graphviz version 2.49.0 (20210829.0051)
 -->
<!-- Pages: 1 -->
<svg width="2744pt" height="2308pt"
 viewBox="0.00 0.00 2743.79 2308.48" xmlns="http://www.w3.org/2000/svg" xmlns:xlink="http://www.w3.org/1999/xlink">
<g id="graph0" class="graph" transform="scale(1 1) rotate(0) translate(4 2304.48)">
<polygon fill="white" stroke="transparent" points="-4,4 -4,-2304.48 2739.79,-2304.48 2739.79,4 -4,4"/>
<!-- fake -->
<g id="node1" class="node">
<title>fake</title>
</g>
<!-- 0 -->
<g id="node2" class="node">
<title>0</title>
<ellipse fill="none" stroke="black" cx="2058.69" cy="-2205.48" rx="18" ry="18"/>
<ellipse fill="none" stroke="black" cx="2058.69" cy="-2205.48" rx="22" ry="22"/>
<text text-anchor="middle" x="2058.69" y="-2201.78" font-family="Times,serif" font-size="14.00">0</text>
</g>
<!-- fake&#45;&gt;0 -->
<g id="edge1" class="edge">
<title>fake&#45;&gt;0</title>
<path fill="none" stroke="black" stroke-width="2" d="M2058.69,-2264.46C2058.69,-2256.63 2058.69,-2247.09 2058.69,-2238.02"/>
<polygon fill="black" stroke="black" stroke-width="2" points="2062.19,-2237.72 2058.69,-2227.72 2055.19,-2237.72 2062.19,-2237.72"/>
</g>
<!-- 6 -->
<g id="node8" class="node">
<title>6</title>
<ellipse fill="none" stroke="black" cx="1948.69" cy="-2110.48" rx="18" ry="18"/>
<ellipse fill="none" stroke="black" cx="1948.69" cy="-2110.48" rx="22" ry="22"/>
<text text-anchor="middle" x="1948.69" y="-2106.78" font-family="Times,serif" font-size="14.00">6</text>
</g>
<!-- 0&#45;&gt;6 -->
<g id="edge24" class="edge">
<title>0&#45;&gt;6</title>
<path fill="none" stroke="black" d="M2041.98,-2190.36C2023.62,-2174.83 1993.97,-2149.76 1973.02,-2132.05"/>
<polygon fill="black" stroke="black" points="1975.09,-2129.22 1965.19,-2125.43 1970.57,-2134.56 1975.09,-2129.22"/>
<text text-anchor="middle" x="2015.69" y="-2154.28" font-family="Times,serif" font-size="14.00">1</text>
</g>
<!-- 7 -->
<g id="node9" class="node">
<title>7</title>
<ellipse fill="none" stroke="black" cx="1594.69" cy="-192" rx="27" ry="18"/>
<text text-anchor="middle" x="1594.69" y="-188.3" font-family="Times,serif" font-size="14.00">7</text>
</g>
<!-- 0&#45;&gt;7 -->
<g id="edge76" class="edge">
<title>0&#45;&gt;7</title>
<path fill="none" stroke="black" d="M2080.82,-2202.03C2147.3,-2194.04 2340.69,-2166.12 2340.69,-2111.48 2340.69,-2111.48 2340.69,-2111.48 2340.69,-1887.98 2340.69,-1762.21 2454.69,-1754.75 2454.69,-1628.98 2454.69,-1628.98 2454.69,-1628.98 2454.69,-408.5 2454.69,-281.68 2352.4,-272.6 2233.69,-228 2178.53,-207.28 1762.35,-215.55 1703.69,-210 1679.11,-207.67 1651.65,-203.38 1630.44,-199.69"/>
<polygon fill="black" stroke="black" points="1631.02,-196.24 1620.57,-197.94 1629.8,-203.13 1631.02,-196.24"/>
<text text-anchor="middle" x="2459.69" y="-1197.79" font-family="Times,serif" font-size="14.00">4</text>
</g>
<!-- 12 -->
<g id="node14" class="node">
<title>12</title>
<ellipse fill="none" stroke="black" cx="2037.69" cy="-557.5" rx="27" ry="18"/>
<text text-anchor="middle" x="2037.69" y="-553.8" font-family="Times,serif" font-size="14.00">12</text>
</g>
<!-- 0&#45;&gt;12 -->
<g id="edge16" class="edge">
<title>0&#45;&gt;12</title>
<path fill="none" stroke="black" d="M2081.01,-2204.29C2142.28,-2203.35 2311.4,-2197.83 2354.69,-2165.48 2375.73,-2149.76 2378.69,-2137.74 2378.69,-2111.48 2378.69,-2111.48 2378.69,-2111.48 2378.69,-1522.48 2378.69,-1437.21 2408.69,-1418.26 2408.69,-1332.99 2408.69,-1332.99 2408.69,-1332.99 2408.69,-878.49 2408.69,-734.67 2327.9,-702.31 2205.69,-626.5 2162.49,-599.7 2106.91,-579.64 2071.78,-568.49"/>
<polygon fill="black" stroke="black" points="2072.59,-565.08 2062,-565.45 2070.51,-571.76 2072.59,-565.08"/>
<text text-anchor="middle" x="2411.69" y="-1380.54" font-family="Times,serif" font-size="14.00">3</text>
</g>
<!-- 14 -->
<g id="node16" class="node">
<title>14</title>
<ellipse fill="none" stroke="black" cx="1954.69" cy="-1384.24" rx="22.96" ry="22.96"/>
<ellipse fill="none" stroke="black" cx="1954.69" cy="-1384.24" rx="27" ry="27"/>
<text text-anchor="middle" x="1954.69" y="-1380.54" font-family="Times,serif" font-size="14.00">14</text>
</g>
<!-- 0&#45;&gt;14 -->
<g id="edge9" class="edge">
<title>0&#45;&gt;14</title>
<path fill="none" stroke="black" d="M2073.42,-2188.73C2088.17,-2171.26 2108.69,-2141.54 2108.69,-2111.48 2108.69,-2111.48 2108.69,-2111.48 2108.69,-1974.98 2108.69,-1896.69 2070.69,-1881.27 2070.69,-1802.98 2070.69,-1802.98 2070.69,-1802.98 2070.69,-1478.98 2070.69,-1436.92 2023.97,-1410.49 1989.83,-1396.79"/>
<polygon fill="black" stroke="black" points="1990.74,-1393.39 1980.15,-1393.1 1988.25,-1399.93 1990.74,-1393.39"/>
<text text-anchor="middle" x="2076.69" y="-1798.28" font-family="Times,serif" font-size="14.00">2</text>
</g>
<!-- 23 -->
<g id="node25" class="node">
<title>23</title>
<ellipse fill="none" stroke="black" cx="1674.69" cy="-922.99" rx="27" ry="18"/>
<text text-anchor="middle" x="1674.69" y="-919.29" font-family="Times,serif" font-size="14.00">23</text>
</g>
<!-- 0&#45;&gt;23 -->
<g id="edge48" class="edge">
<title>0&#45;&gt;23</title>
<path fill="none" stroke="black" d="M2080.47,-2202.26C2125.08,-2196.38 2222.69,-2176.12 2222.69,-2111.48 2222.69,-2111.48 2222.69,-2111.48 2222.69,-1522.48 2222.69,-1409.35 2250.21,-1364.11 2186.69,-1270.49 2090.34,-1128.48 1990.92,-1178.81 1851.69,-1078.49 1833.81,-1065.61 1830.88,-1060.43 1814.69,-1045.49 1789.4,-1022.14 1784.53,-1014.73 1758.69,-991.99 1739.49,-975.11 1716.94,-956.93 1700.03,-943.62"/>
<polygon fill="black" stroke="black" points="1701.79,-940.55 1691.76,-937.14 1697.47,-946.06 1701.79,-940.55"/>
<text text-anchor="middle" x="2227.69" y="-1572.03" font-family="Times,serif" font-size="14.00">0</text>
</g>
<!-- 1 -->
<g id="node3" class="node">
<title>1</title>
<ellipse fill="none" stroke="black" cx="1044.69" cy="-1932.48" rx="27" ry="18"/>
<text text-anchor="middle" x="1044.69" y="-1928.78" font-family="Times,serif" font-size="14.00">1</text>
</g>
<!-- 2 -->
<g id="node4" class="node">
<title>2</title>
<ellipse fill="none" stroke="black" cx="663.69" cy="-1845.48" rx="27" ry="18"/>
<text text-anchor="middle" x="663.69" y="-1841.78" font-family="Times,serif" font-size="14.00">2</text>
</g>
<!-- 1&#45;&gt;2 -->
<g id="edge30" class="edge">
<title>1&#45;&gt;2</title>
<path fill="none" stroke="black" d="M1017.75,-1930.57C950.27,-1927.99 775.65,-1919.22 722.69,-1896.48 708,-1890.17 694.2,-1878.91 683.66,-1868.67"/>
<polygon fill="black" stroke="black" points="686.09,-1866.15 676.58,-1861.48 681.1,-1871.06 686.09,-1866.15"/>
<text text-anchor="middle" x="727.69" y="-1885.28" font-family="Times,serif" font-size="14.00">4</text>
</g>
<!-- 5 -->
<g id="node7" class="node">
<title>5</title>
<ellipse fill="none" stroke="black" cx="1328.69" cy="-2019.48" rx="27" ry="18"/>
<text text-anchor="middle" x="1328.69" y="-2015.78" font-family="Times,serif" font-size="14.00">5</text>
</g>
<!-- 1&#45;&gt;5 -->
<g id="edge129" class="edge">
<title>1&#45;&gt;5</title>
<path fill="none" stroke="black" d="M1067.95,-1941.71C1085.34,-1948.18 1109.49,-1957.86 1129.69,-1968.48 1140.49,-1974.16 1141.39,-1978.87 1152.69,-1983.48 1198.51,-2002.16 1255.22,-2011.13 1291.67,-2015.25"/>
<polygon fill="black" stroke="black" points="1291.52,-2018.76 1301.84,-2016.34 1292.27,-2011.8 1291.52,-2018.76"/>
<text text-anchor="middle" x="1157.69" y="-1972.28" font-family="Times,serif" font-size="14.00">0</text>
</g>
<!-- 11 -->
<g id="node13" class="node">
<title>11</title>
<ellipse fill="none" stroke="black" cx="1149.69" cy="-279" rx="27" ry="18"/>
<text text-anchor="middle" x="1149.69" y="-275.3" font-family="Times,serif" font-size="14.00">11</text>
</g>
<!-- 1&#45;&gt;11 -->
<g id="edge124" class="edge">
<title>1&#45;&gt;11</title>
<path fill="none" stroke="black" d="M1028.76,-1917.85C983.18,-1878.22 850.31,-1757.98 768.69,-1635.48 688.61,-1515.31 667.26,-1480.17 634.69,-1339.49 607.86,-1223.61 626.69,-1190.93 626.69,-1071.99 626.69,-1071.99 626.69,-1071.99 626.69,-600 626.69,-519.44 642.13,-489.23 701.69,-435 823.8,-323.81 1029.74,-291.7 1113.06,-283.01"/>
<polygon fill="black" stroke="black" points="1113.46,-286.49 1123.06,-282.02 1112.77,-279.52 1113.46,-286.49"/>
<text text-anchor="middle" x="631.69" y="-1110.79" font-family="Times,serif" font-size="14.00">2</text>
</g>
<!-- 18 -->
<g id="node20" class="node">
<title>18</title>
<ellipse fill="none" stroke="black" cx="1229.69" cy="-644.5" rx="27" ry="18"/>
<text text-anchor="middle" x="1229.69" y="-640.8" font-family="Times,serif" font-size="14.00">18</text>
</g>
<!-- 1&#45;&gt;18 -->
<g id="edge137" class="edge">
<title>1&#45;&gt;18</title>
<path fill="none" stroke="black" d="M1037.9,-1914.86C1023.57,-1878.02 991.92,-1786.48 996.69,-1707.48 1023.55,-1262.98 902.36,-1100.48 1122.69,-713.5 1138.55,-685.63 1171,-667.46 1196.03,-656.98"/>
<polygon fill="black" stroke="black" points="1197.55,-660.14 1205.55,-653.2 1194.97,-653.63 1197.55,-660.14"/>
<text text-anchor="middle" x="995.69" y="-1284.79" font-family="Times,serif" font-size="14.00">3</text>
</g>
<!-- 26 -->
<g id="node28" class="node">
<title>26</title>
<ellipse fill="none" stroke="black" cx="868.69" cy="-461.75" rx="27" ry="18"/>
<text text-anchor="middle" x="868.69" y="-458.05" font-family="Times,serif" font-size="14.00">26</text>
</g>
<!-- 1&#45;&gt;26 -->
<g id="edge51" class="edge">
<title>1&#45;&gt;26</title>
<path fill="none" stroke="black" d="M1017.7,-1930.96C989.07,-1929.02 944.13,-1921.76 915.69,-1896.48 773.42,-1770.01 790.56,-1685.66 758.69,-1497.98 726.96,-1311.16 740.69,-1261.49 740.69,-1071.99 740.69,-1071.99 740.69,-1071.99 740.69,-556.5 740.69,-510.1 796.11,-484.17 834.01,-471.86"/>
<polygon fill="black" stroke="black" points="835.17,-475.17 843.7,-468.88 833.12,-468.48 835.17,-475.17"/>
<text text-anchor="middle" x="744.69" y="-1197.79" font-family="Times,serif" font-size="14.00">1</text>
</g>
<!-- 2&#45;&gt;2 -->
<g id="edge8" class="edge">
<title>2&#45;&gt;2</title>
<path fill="none" stroke="black" d="M688.22,-1853.23C699.2,-1853.97 708.69,-1851.39 708.69,-1845.48 708.69,-1841.51 704.4,-1839.04 698.26,-1838.07"/>
<polygon fill="black" stroke="black" points="698.34,-1834.57 688.22,-1837.73 698.09,-1841.57 698.34,-1834.57"/>
<text text-anchor="middle" x="713.69" y="-1841.78" font-family="Times,serif" font-size="14.00">0</text>
</g>
<!-- 2&#45;&gt;6 -->
<g id="edge101" class="edge">
<title>2&#45;&gt;6</title>
<path fill="none" stroke="black" d="M671.29,-1862.99C676.84,-1873.63 685.22,-1887.16 695.69,-1896.48 827.51,-2013.86 881.6,-2027.07 1052.69,-2070.48 1221.1,-2113.22 1776.88,-2111.08 1916.6,-2109.83"/>
<polygon fill="black" stroke="black" points="1916.69,-2113.33 1926.66,-2109.73 1916.62,-2106.33 1916.69,-2113.33"/>
<text text-anchor="middle" x="810.69" y="-1972.28" font-family="Times,serif" font-size="14.00">1</text>
</g>
<!-- 17 -->
<g id="node19" class="node">
<title>17</title>
<ellipse fill="none" stroke="black" cx="172.69" cy="-105" rx="27" ry="18"/>
<text text-anchor="middle" x="172.69" y="-101.3" font-family="Times,serif" font-size="14.00">17</text>
</g>
<!-- 2&#45;&gt;17 -->
<g id="edge35" class="edge">
<title>2&#45;&gt;17</title>
<path fill="none" stroke="black" d="M639.31,-1837.33C589.95,-1822.05 476.13,-1782.61 396.69,-1722.48 304.99,-1653.07 194.69,-1361 194.69,-1245.99 194.69,-1245.99 194.69,-1245.99 194.69,-1069.99 194.69,-985.76 192.69,-964.72 192.69,-880.49 192.69,-880.49 192.69,-880.49 192.69,-191 192.69,-170.91 187.33,-148.85 182.16,-132.24"/>
<polygon fill="black" stroke="black" points="185.46,-131.07 179.02,-122.66 178.81,-133.25 185.46,-131.07"/>
<text text-anchor="middle" x="198.69" y="-962.79" font-family="Times,serif" font-size="14.00">3</text>
</g>
<!-- 28 -->
<g id="node30" class="node">
<title>28</title>
<ellipse fill="none" stroke="black" cx="1585.69" cy="-1575.73" rx="22.96" ry="22.96"/>
<ellipse fill="none" stroke="black" cx="1585.69" cy="-1575.73" rx="27" ry="27"/>
<text text-anchor="middle" x="1585.69" y="-1572.03" font-family="Times,serif" font-size="14.00">28</text>
</g>
<!-- 2&#45;&gt;28 -->
<g id="edge27" class="edge">
<title>2&#45;&gt;28</title>
<path fill="none" stroke="black" d="M690.4,-1842.4C737.15,-1838.42 836.6,-1828.38 918.69,-1809.48 1047.74,-1779.77 1433.72,-1634.56 1551.31,-1589.85"/>
<polygon fill="black" stroke="black" points="1552.79,-1593.03 1560.89,-1586.21 1550.3,-1586.49 1552.79,-1593.03"/>
<text text-anchor="middle" x="1231.69" y="-1711.28" font-family="Times,serif" font-size="14.00">2</text>
</g>
<!-- 29 -->
<g id="node31" class="node">
<title>29</title>
<ellipse fill="none" stroke="black" cx="620.69" cy="-1758.48" rx="27" ry="18"/>
<text text-anchor="middle" x="620.69" y="-1754.78" font-family="Times,serif" font-size="14.00">29</text>
</g>
<!-- 2&#45;&gt;29 -->
<g id="edge37" class="edge">
<title>2&#45;&gt;29</title>
<path fill="none" stroke="black" d="M655.4,-1828.09C649.21,-1815.86 640.64,-1798.92 633.57,-1784.94"/>
<polygon fill="black" stroke="black" points="636.59,-1783.16 628.95,-1775.82 630.34,-1786.32 636.59,-1783.16"/>
<text text-anchor="middle" x="650.69" y="-1798.28" font-family="Times,serif" font-size="14.00">4</text>
</g>
<!-- 3 -->
<g id="node5" class="node">
<title>3</title>
<ellipse fill="none" stroke="black" cx="1935.69" cy="-1288.49" rx="27" ry="18"/>
<text text-anchor="middle" x="1935.69" y="-1284.79" font-family="Times,serif" font-size="14.00">3</text>
</g>
<!-- 4 -->
<g id="node6" class="node">
<title>4</title>
<ellipse fill="none" stroke="black" cx="1889.69" cy="-1479.98" rx="27" ry="18"/>
<text text-anchor="middle" x="1889.69" y="-1476.28" font-family="Times,serif" font-size="14.00">4</text>
</g>
<!-- 3&#45;&gt;4 -->
<g id="edge32" class="edge">
<title>3&#45;&gt;4</title>
<path fill="none" stroke="black" d="M1927.97,-1305.9C1921.89,-1319.46 1913.64,-1339.35 1908.69,-1357.49 1900.02,-1389.24 1894.9,-1426.82 1892.2,-1451.68"/>
<polygon fill="black" stroke="black" points="1888.7,-1451.52 1891.16,-1461.83 1895.66,-1452.24 1888.7,-1451.52"/>
<text text-anchor="middle" x="1913.69" y="-1380.54" font-family="Times,serif" font-size="14.00">4</text>
</g>
<!-- 3&#45;&gt;7 -->
<g id="edge80" class="edge">
<title>3&#45;&gt;7</title>
<path fill="none" stroke="black" d="M1962.57,-1286.32C1990.94,-1283.82 2035.63,-1276.08 2065.69,-1252.49 2136.68,-1196.77 2158.69,-1162.23 2158.69,-1071.99 2158.69,-1071.99 2158.69,-1071.99 2158.69,-791.49 2158.69,-684.56 2218.69,-665.43 2218.69,-558.5 2218.69,-558.5 2218.69,-558.5 2218.69,-278 2218.69,-220.28 1760.82,-218.23 1703.69,-210 1679.25,-206.48 1651.79,-202.2 1630.54,-198.81"/>
<polygon fill="black" stroke="black" points="1631.08,-195.35 1620.65,-197.22 1629.97,-202.26 1631.08,-195.35"/>
<text text-anchor="middle" x="2175.69" y="-736.54" font-family="Times,serif" font-size="14.00">1</text>
</g>
<!-- 3&#45;&gt;12 -->
<g id="edge94" class="edge">
<title>3&#45;&gt;12</title>
<path fill="none" stroke="black" d="M1937.18,-1270.35C1942.83,-1205.78 1963.2,-977.17 1974.69,-904.99 1984.55,-843.01 1993.11,-828.68 2004.69,-766.99 2016.86,-702.16 2028.23,-625.42 2033.91,-585.57"/>
<polygon fill="black" stroke="black" points="2037.39,-585.97 2035.32,-575.58 2030.45,-584.99 2037.39,-585.97"/>
<text text-anchor="middle" x="1979.69" y="-919.29" font-family="Times,serif" font-size="14.00">0</text>
</g>
<!-- 20 -->
<g id="node22" class="node">
<title>20</title>
<ellipse fill="none" stroke="black" cx="1806.69" cy="-1201.49" rx="27" ry="18"/>
<text text-anchor="middle" x="1806.69" y="-1197.79" font-family="Times,serif" font-size="14.00">20</text>
</g>
<!-- 3&#45;&gt;20 -->
<g id="edge139" class="edge">
<title>3&#45;&gt;20</title>
<path fill="none" stroke="black" d="M1911.41,-1280.33C1894.07,-1274.5 1870.72,-1265.17 1852.69,-1252.49 1842.24,-1245.14 1832.4,-1235.06 1824.53,-1225.88"/>
<polygon fill="black" stroke="black" points="1827.2,-1223.62 1818.14,-1218.13 1821.8,-1228.07 1827.2,-1223.62"/>
<text text-anchor="middle" x="1857.69" y="-1241.29" font-family="Times,serif" font-size="14.00">3</text>
</g>
<!-- 3&#45;&gt;23 -->
<g id="edge69" class="edge">
<title>3&#45;&gt;23</title>
<path fill="none" stroke="black" d="M1920.62,-1273.24C1914.27,-1267.04 1906.93,-1259.58 1900.69,-1252.49 1862.28,-1208.84 1772.44,-1094.19 1740.69,-1045.49 1729.45,-1028.25 1703.66,-979.61 1687.85,-949.36"/>
<polygon fill="black" stroke="black" points="1690.83,-947.49 1683.1,-940.25 1684.62,-950.73 1690.83,-947.49"/>
<text text-anchor="middle" x="1809.69" y="-1110.79" font-family="Times,serif" font-size="14.00">2</text>
</g>
<!-- 4&#45;&gt;5 -->
<g id="edge60" class="edge">
<title>4&#45;&gt;5</title>
<path fill="none" stroke="black" d="M1879.18,-1496.83C1868.25,-1514.89 1852.69,-1545.69 1852.69,-1574.73 1852.69,-1933.48 1852.69,-1933.48 1852.69,-1933.48 1852.69,-1959.86 1843.37,-1970 1820.69,-1983.48 1781.91,-2006.53 1473.59,-2015.35 1365.76,-2017.75"/>
<polygon fill="black" stroke="black" points="1365.6,-2014.25 1355.67,-2017.96 1365.75,-2021.25 1365.6,-2014.25"/>
<text text-anchor="middle" x="1857.69" y="-1754.78" font-family="Times,serif" font-size="14.00">3</text>
</g>
<!-- 4&#45;&gt;6 -->
<g id="edge91" class="edge">
<title>4&#45;&gt;6</title>
<path fill="none" stroke="black" d="M1905.5,-1494.85C1922.98,-1511.79 1948.69,-1542.23 1948.69,-1574.73 1948.69,-2020.48 1948.69,-2020.48 1948.69,-2020.48 1948.69,-2039.49 1948.69,-2060.79 1948.69,-2077.78"/>
<polygon fill="black" stroke="black" points="1945.19,-2078.26 1948.69,-2088.26 1952.19,-2078.26 1945.19,-2078.26"/>
<text text-anchor="middle" x="1953.69" y="-1798.28" font-family="Times,serif" font-size="14.00">1</text>
</g>
<!-- 4&#45;&gt;7 -->
<g id="edge105" class="edge">
<title>4&#45;&gt;7</title>
<path fill="none" stroke="black" d="M1913.51,-1471.43C1945.36,-1460.72 2002.89,-1439.25 2046.69,-1410.98 2104.71,-1373.53 2119.98,-1361.53 2161.69,-1306.49 2300.55,-1123.22 2256.69,-702.53 2256.69,-645.5 2256.69,-645.5 2256.69,-645.5 2256.69,-278 2256.69,-179.95 1971.57,-237.01 1703.69,-210 1679.12,-207.52 1651.66,-203.23 1630.45,-199.58"/>
<polygon fill="black" stroke="black" points="1631.03,-196.13 1620.57,-197.85 1629.82,-203.02 1631.03,-196.13"/>
<text text-anchor="middle" x="2267.69" y="-832.29" font-family="Times,serif" font-size="14.00">4</text>
</g>
<!-- 4&#45;&gt;14 -->
<g id="edge111" class="edge">
<title>4&#45;&gt;14</title>
<path fill="none" stroke="black" d="M1899.47,-1463.02C1905.65,-1453.1 1913.92,-1440.15 1921.69,-1428.98 1925.1,-1424.08 1928.82,-1418.95 1932.5,-1414"/>
<polygon fill="black" stroke="black" points="1935.37,-1416.01 1938.58,-1405.91 1929.77,-1411.8 1935.37,-1416.01"/>
<text text-anchor="middle" x="1926.69" y="-1432.78" font-family="Times,serif" font-size="14.00">0</text>
</g>
<!-- 4&#45;&gt;28 -->
<g id="edge17" class="edge">
<title>4&#45;&gt;28</title>
<path fill="none" stroke="black" d="M1865.09,-1487.64C1840.19,-1494.45 1800.63,-1505.5 1766.69,-1515.98 1746.54,-1522.2 1741.72,-1524.42 1721.69,-1530.98 1687.37,-1542.22 1648.09,-1554.83 1620.59,-1563.61"/>
<polygon fill="black" stroke="black" points="1619.49,-1560.29 1611.03,-1566.67 1621.62,-1566.96 1619.49,-1560.29"/>
<text text-anchor="middle" x="1771.69" y="-1519.78" font-family="Times,serif" font-size="14.00">2</text>
</g>
<!-- 5&#45;&gt;1 -->
<g id="edge132" class="edge">
<title>5&#45;&gt;1</title>
<path fill="none" stroke="black" d="M1301.5,-2017.66C1260.48,-2015.62 1180.94,-2008.47 1118.69,-1983.48 1107.71,-1979.07 1106.49,-1975.12 1096.69,-1968.48 1088.48,-1962.92 1079.54,-1956.89 1071.41,-1951.42"/>
<polygon fill="black" stroke="black" points="1073.25,-1948.44 1063,-1945.76 1069.34,-1954.25 1073.25,-1948.44"/>
<text text-anchor="middle" x="1123.69" y="-1972.28" font-family="Times,serif" font-size="14.00">1</text>
</g>
<!-- 5&#45;&gt;4 -->
<g id="edge55" class="edge">
<title>5&#45;&gt;4</title>
<path fill="none" stroke="black" d="M1355.68,-2018.14C1458.55,-2016.66 1822.46,-2009.59 1866.69,-1983.48 1889.41,-1970.07 1898.69,-1959.86 1898.69,-1933.48 1898.69,-1933.48 1898.69,-1933.48 1898.69,-1574.73 1898.69,-1552.32 1896.11,-1527.02 1893.71,-1508.36"/>
<polygon fill="black" stroke="black" points="1897.15,-1507.66 1892.34,-1498.21 1890.21,-1508.59 1897.15,-1507.66"/>
<text text-anchor="middle" x="1903.69" y="-1754.78" font-family="Times,serif" font-size="14.00">2</text>
</g>
<!-- 8 -->
<g id="node10" class="node">
<title>8</title>
<ellipse fill="none" stroke="black" cx="976.69" cy="-557.5" rx="27" ry="18"/>
<text text-anchor="middle" x="976.69" y="-553.8" font-family="Times,serif" font-size="14.00">8</text>
</g>
<!-- 5&#45;&gt;8 -->
<g id="edge96" class="edge">
<title>5&#45;&gt;8</title>
<path fill="none" stroke="black" d="M1309.14,-2006.9C1305.12,-2004.87 1300.84,-2002.94 1296.69,-2001.48 1255.72,-1987.13 1237.06,-2007.18 1200.69,-1983.48 1082.84,-1906.69 1076.89,-1851.86 1021.69,-1722.48 1002.54,-1677.59 900.69,-1068.05 900.69,-880.49 900.69,-880.49 900.69,-880.49 900.69,-643.5 900.69,-618.85 908.57,-612.14 924.69,-593.5 931.01,-586.18 939.21,-579.73 947.22,-574.42"/>
<polygon fill="black" stroke="black" points="949.1,-577.37 955.74,-569.12 945.4,-571.43 949.1,-577.37"/>
<text text-anchor="middle" x="951.69" y="-1284.79" font-family="Times,serif" font-size="14.00">3</text>
</g>
<!-- 5&#45;&gt;8 -->
<g id="edge143" class="edge">
<title>5&#45;&gt;8</title>
<path fill="none" stroke="black" d="M1315.33,-2003.81C1272.08,-1954.76 1138.69,-1790.37 1138.69,-1628.98 1138.69,-1628.98 1138.69,-1628.98 1138.69,-1435.48 1138.69,-1321.04 1117.74,-1293.36 1085.69,-1183.49 1033.81,-1005.67 938.69,-978.73 938.69,-793.49 938.69,-793.49 938.69,-793.49 938.69,-643.5 938.69,-621.4 949.52,-598.67 959.62,-582.28"/>
<polygon fill="black" stroke="black" points="962.57,-584.16 965.08,-573.87 956.7,-580.35 962.57,-584.16"/>
<text text-anchor="middle" x="1129.69" y="-1284.79" font-family="Times,serif" font-size="14.00">4</text>
</g>
<!-- 5&#45;&gt;14 -->
<g id="edge40" class="edge">
<title>5&#45;&gt;14</title>
<path fill="none" stroke="black" d="M1355.87,-2017.74C1413.23,-2015.72 1550.58,-2008.47 1662.69,-1983.48 1728.81,-1968.74 1806.69,-2001.23 1806.69,-1933.48 1806.69,-1933.48 1806.69,-1933.48 1806.69,-1757.48 1806.69,-1624.5 1783.9,-1575.18 1853.69,-1461.98 1863.7,-1445.75 1907.59,-1422.63 1922.69,-1410.98 1923.85,-1410.09 1925.04,-1409.16 1926.23,-1408.23"/>
<polygon fill="black" stroke="black" points="1928.46,-1410.93 1934.13,-1401.98 1924.12,-1405.44 1928.46,-1410.93"/>
<text text-anchor="middle" x="1811.69" y="-1711.28" font-family="Times,serif" font-size="14.00">0</text>
</g>
<!-- 6&#45;&gt;0 -->
<g id="edge113" class="edge">
<title>6&#45;&gt;0</title>
<path fill="none" stroke="black" d="M1957.97,-2130.75C1964.08,-2141.94 1972.94,-2155.71 1983.69,-2165.48 1996.79,-2177.38 2014.19,-2186.72 2028.93,-2193.28"/>
<polygon fill="black" stroke="black" points="2027.59,-2196.51 2038.16,-2197.18 2030.31,-2190.06 2027.59,-2196.51"/>
<text text-anchor="middle" x="1988.69" y="-2154.28" font-family="Times,serif" font-size="14.00">4</text>
</g>
<!-- 6&#45;&gt;1 -->
<g id="edge109" class="edge">
<title>6&#45;&gt;1</title>
<path fill="none" stroke="black" d="M1926.73,-2109.11C1794.54,-2106.81 1109.06,-2093.8 1071.69,-2070.48 1036.24,-2048.36 1036.29,-1993.93 1040.1,-1960.72"/>
<polygon fill="black" stroke="black" points="1043.58,-1961.13 1041.43,-1950.75 1036.64,-1960.2 1043.58,-1961.13"/>
<text text-anchor="middle" x="1050.69" y="-2015.78" font-family="Times,serif" font-size="14.00">1</text>
</g>
<!-- 6&#45;&gt;1 -->
<g id="edge115" class="edge">
<title>6&#45;&gt;1</title>
<path fill="none" stroke="black" d="M1926.62,-2108.55C1842.26,-2104.71 1532.37,-2087.78 1282.69,-2037.48 1199.56,-2020.73 1173.6,-2025.05 1099.69,-1983.48 1086.91,-1976.29 1074.64,-1965.63 1064.94,-1956"/>
<polygon fill="black" stroke="black" points="1067.23,-1953.33 1057.76,-1948.59 1062.2,-1958.2 1067.23,-1953.33"/>
<text text-anchor="middle" x="1287.69" y="-2015.78" font-family="Times,serif" font-size="14.00">0</text>
</g>
<!-- 6&#45;&gt;3 -->
<g id="edge130" class="edge">
<title>6&#45;&gt;3</title>
<path fill="none" stroke="black" d="M1959.69,-2090.9C1995.83,-2029.5 2108.69,-1835.24 2108.69,-1802.98 2108.69,-1802.98 2108.69,-1802.98 2108.69,-1383.24 2108.69,-1321.71 2023.07,-1300.36 1972.3,-1293.1"/>
<polygon fill="black" stroke="black" points="1972.71,-1289.62 1962.34,-1291.79 1971.8,-1296.56 1972.71,-1289.62"/>
<text text-anchor="middle" x="2113.69" y="-1711.28" font-family="Times,serif" font-size="14.00">2</text>
</g>
<!-- 6&#45;&gt;5 -->
<g id="edge7" class="edge">
<title>6&#45;&gt;5</title>
<path fill="none" stroke="black" d="M1926.99,-2106.36C1835.43,-2093.22 1480.19,-2042.23 1364.98,-2025.69"/>
<polygon fill="black" stroke="black" points="1365.31,-2022.2 1354.91,-2024.24 1364.31,-2029.13 1365.31,-2022.2"/>
<text text-anchor="middle" x="1681.69" y="-2059.28" font-family="Times,serif" font-size="14.00">3</text>
</g>
<!-- 7&#45;&gt;1 -->
<g id="edge68" class="edge">
<title>7&#45;&gt;1</title>
<path fill="none" stroke="black" d="M1567.83,-194.63C1407.21,-204.75 580.69,-261.83 580.69,-365 580.69,-1071.99 580.69,-1071.99 580.69,-1071.99 580.69,-1224.62 573.88,-1271.42 635.69,-1410.98 689.83,-1533.23 931.37,-1773.84 1010.69,-1881.48 1016.72,-1889.67 1023.06,-1898.83 1028.61,-1907.05"/>
<polygon fill="black" stroke="black" points="1025.8,-1909.14 1034.27,-1915.5 1031.62,-1905.25 1025.8,-1909.14"/>
<text text-anchor="middle" x="585.69" y="-1067.29" font-family="Times,serif" font-size="14.00">1</text>
</g>
<!-- 24 -->
<g id="node26" class="node">
<title>24</title>
<ellipse fill="none" stroke="black" cx="1663.69" cy="-835.99" rx="27" ry="18"/>
<text text-anchor="middle" x="1663.69" y="-832.29" font-family="Times,serif" font-size="14.00">24</text>
</g>
<!-- 7&#45;&gt;24 -->
<g id="edge59" class="edge">
<title>7&#45;&gt;24</title>
<path fill="none" stroke="black" d="M1594.69,-210.26C1594.69,-227.43 1594.69,-254.54 1594.69,-278 1594.69,-515 1594.69,-515 1594.69,-515 1594.69,-643.91 1611.07,-676.68 1648.69,-799.99 1649.6,-802.99 1650.7,-806.09 1651.87,-809.13"/>
<polygon fill="black" stroke="black" points="1648.7,-810.63 1655.76,-818.53 1655.17,-807.96 1648.7,-810.63"/>
<text text-anchor="middle" x="1600.69" y="-510.3" font-family="Times,serif" font-size="14.00">2</text>
</g>
<!-- 7&#45;&gt;24 -->
<g id="edge71" class="edge">
<title>7&#45;&gt;24</title>
<path fill="none" stroke="black" d="M1616.32,-203.16C1641.21,-216.52 1678.69,-242.52 1678.69,-278 1678.69,-515 1678.69,-515 1678.69,-515 1678.69,-623.71 1669.94,-752.97 1665.81,-808.01"/>
<polygon fill="black" stroke="black" points="1662.32,-807.77 1665.05,-818.01 1669.3,-808.3 1662.32,-807.77"/>
<text text-anchor="middle" x="1683.69" y="-510.3" font-family="Times,serif" font-size="14.00">3</text>
</g>
<!-- 7&#45;&gt;28 -->
<g id="edge4" class="edge">
<title>7&#45;&gt;28</title>
<path fill="none" stroke="black" d="M1572.4,-202.18C1561.32,-207.93 1548.81,-216.46 1541.69,-228 1468.5,-346.66 1512.93,-400.32 1504.69,-539.5 1502.88,-570.11 1501.55,-577.99 1504.69,-608.5 1504.89,-610.43 1618.69,-1155.04 1618.69,-1156.99 1618.69,-1480.98 1618.69,-1480.98 1618.69,-1480.98 1618.69,-1502.38 1610.94,-1525.05 1602.96,-1542.74"/>
<polygon fill="black" stroke="black" points="1599.68,-1541.48 1598.54,-1552.01 1606,-1544.49 1599.68,-1541.48"/>
<text text-anchor="middle" x="1567.69" y="-875.79" font-family="Times,serif" font-size="14.00">0</text>
</g>
<!-- 7&#45;&gt;28 -->
<g id="edge31" class="edge">
<title>7&#45;&gt;28</title>
<path fill="none" stroke="black" d="M1590.21,-209.9C1586.83,-223.57 1582.48,-243.37 1580.69,-261 1570.44,-361.59 1575.77,-387.51 1580.69,-488.5 1584.47,-566.11 1589.94,-585.18 1597.69,-662.5 1611.57,-800.97 1612.42,-835.9 1629.69,-973.99 1639.89,-1055.57 1656.69,-1074.78 1656.69,-1156.99 1656.69,-1480.98 1656.69,-1480.98 1656.69,-1480.98 1656.69,-1510.05 1634.73,-1535.79 1615.23,-1552.9"/>
<polygon fill="black" stroke="black" points="1612.8,-1550.37 1607.38,-1559.47 1617.29,-1555.74 1612.8,-1550.37"/>
<text text-anchor="middle" x="1624.69" y="-875.79" font-family="Times,serif" font-size="14.00">4</text>
</g>
<!-- 8&#45;&gt;5 -->
<g id="edge127" class="edge">
<title>8&#45;&gt;5</title>
<path fill="none" stroke="black" d="M976.69,-575.75C976.69,-592.93 976.69,-620.03 976.69,-643.5 976.69,-793.49 976.69,-793.49 976.69,-793.49 976.69,-859.42 1072.97,-1003.21 1099.69,-1063.49 1133.81,-1140.48 1153.13,-1156.08 1174.69,-1237.49 1230.22,-1447.14 1181.71,-1510.75 1228.69,-1722.48 1251.43,-1825 1296.97,-1941.74 1317.81,-1992.56"/>
<polygon fill="black" stroke="black" points="1314.59,-1993.92 1321.64,-2001.82 1321.06,-1991.25 1314.59,-1993.92"/>
<text text-anchor="middle" x="1195.69" y="-1284.79" font-family="Times,serif" font-size="14.00">1</text>
</g>
<!-- 8&#45;&gt;11 -->
<g id="edge83" class="edge">
<title>8&#45;&gt;11</title>
<path fill="none" stroke="black" d="M1003.76,-556.79C1032.54,-555.55 1077.34,-548.92 1102.69,-521.5 1158.08,-461.57 1156.97,-356.59 1152.84,-307.17"/>
<polygon fill="black" stroke="black" points="1156.3,-306.59 1151.88,-296.96 1149.33,-307.24 1156.3,-306.59"/>
<text text-anchor="middle" x="1156.69" y="-405.8" font-family="Times,serif" font-size="14.00">0</text>
</g>
<!-- 8&#45;&gt;11 -->
<g id="edge117" class="edge">
<title>8&#45;&gt;11</title>
<path fill="none" stroke="black" d="M986.74,-540.44C1015.77,-494.03 1099.89,-359.58 1134.52,-304.24"/>
<polygon fill="black" stroke="black" points="1137.49,-306.09 1139.83,-295.76 1131.56,-302.38 1137.49,-306.09"/>
<text text-anchor="middle" x="1078.69" y="-405.8" font-family="Times,serif" font-size="14.00">4</text>
</g>
<!-- 8&#45;&gt;26 -->
<g id="edge112" class="edge">
<title>8&#45;&gt;26</title>
<path fill="none" stroke="black" d="M960.75,-542.66C942.73,-527.02 913.19,-501.37 892.44,-483.36"/>
<polygon fill="black" stroke="black" points="894.54,-480.55 884.69,-476.64 889.95,-485.84 894.54,-480.55"/>
<text text-anchor="middle" x="940.69" y="-510.3" font-family="Times,serif" font-size="14.00">3</text>
</g>
<!-- 8&#45;&gt;29 -->
<g id="edge18" class="edge">
<title>8&#45;&gt;29</title>
<path fill="none" stroke="black" d="M950.21,-561.27C906.66,-567.46 824.69,-586.65 824.69,-643.5 824.69,-1158.99 824.69,-1158.99 824.69,-1158.99 824.69,-1235.69 810.69,-1254.29 810.69,-1330.99 810.69,-1524.48 810.69,-1524.48 810.69,-1524.48 810.69,-1560.75 808.16,-1573.25 786.69,-1602.48 771.36,-1623.34 761.92,-1624.06 738.69,-1635.48 715.22,-1647.01 703.15,-1637.2 682.69,-1653.48 669,-1664.37 646.92,-1705.03 633.13,-1732.17"/>
<polygon fill="black" stroke="black" points="629.99,-1730.63 628.63,-1741.13 636.25,-1733.77 629.99,-1730.63"/>
<text text-anchor="middle" x="829.69" y="-1154.29" font-family="Times,serif" font-size="14.00">2</text>
</g>
<!-- 9 -->
<g id="node11" class="node">
<title>9</title>
<ellipse fill="none" stroke="black" cx="1428.69" cy="-1671.48" rx="27" ry="18"/>
<text text-anchor="middle" x="1428.69" y="-1667.78" font-family="Times,serif" font-size="14.00">9</text>
</g>
<!-- 9&#45;&gt;0 -->
<g id="edge23" class="edge">
<title>9&#45;&gt;0</title>
<path fill="none" stroke="black" d="M1448.71,-1683.69C1534.48,-1731.89 1870.61,-1922.55 1962.69,-2001.48 1986.62,-2022 1993.17,-2028.04 2008.69,-2055.48 2030.29,-2093.68 2044.48,-2142.68 2052.05,-2173.85"/>
<polygon fill="black" stroke="black" points="2048.67,-2174.75 2054.36,-2183.69 2055.48,-2173.15 2048.67,-2174.75"/>
<text text-anchor="middle" x="1897.69" y="-1928.78" font-family="Times,serif" font-size="14.00">4</text>
</g>
<!-- 9&#45;&gt;5 -->
<g id="edge108" class="edge">
<title>9&#45;&gt;5</title>
<path fill="none" stroke="black" d="M1426.11,-1689.69C1423.77,-1706.83 1420.69,-1733.91 1420.69,-1757.48 1420.69,-1933.48 1420.69,-1933.48 1420.69,-1933.48 1420.69,-1967.13 1387.07,-1991.16 1360.48,-2004.9"/>
<polygon fill="black" stroke="black" points="1358.87,-2001.79 1351.43,-2009.33 1361.95,-2008.08 1358.87,-2001.79"/>
<text text-anchor="middle" x="1425.69" y="-1841.78" font-family="Times,serif" font-size="14.00">3</text>
</g>
<!-- 15 -->
<g id="node17" class="node">
<title>15</title>
<ellipse fill="none" stroke="black" cx="1733.69" cy="-366" rx="27" ry="18"/>
<text text-anchor="middle" x="1733.69" y="-362.3" font-family="Times,serif" font-size="14.00">15</text>
</g>
<!-- 9&#45;&gt;15 -->
<g id="edge46" class="edge">
<title>9&#45;&gt;15</title>
<path fill="none" stroke="black" d="M1455.7,-1670.13C1502.11,-1668.02 1597.05,-1656.84 1649.69,-1602.48 1702.56,-1547.87 1694.69,-1513.49 1694.69,-1437.48 1694.69,-1437.48 1694.69,-1437.48 1694.69,-1156.99 1694.69,-1031.32 1759.81,-1011.24 1778.69,-886.99 1791.07,-805.5 1823.31,-897.51 1768.69,-435 1766.93,-420.11 1768.1,-415.55 1761.69,-402 1759.69,-397.77 1757.08,-393.6 1754.27,-389.69"/>
<polygon fill="black" stroke="black" points="1756.86,-387.32 1747.92,-381.63 1751.36,-391.65 1756.86,-387.32"/>
<text text-anchor="middle" x="1749.69" y="-1015.04" font-family="Times,serif" font-size="14.00">2</text>
</g>
<!-- 16 -->
<g id="node18" class="node">
<title>16</title>
<ellipse fill="none" stroke="black" cx="1281.69" cy="-1018.74" rx="22.96" ry="22.96"/>
<ellipse fill="none" stroke="black" cx="1281.69" cy="-1018.74" rx="27" ry="27"/>
<text text-anchor="middle" x="1281.69" y="-1015.04" font-family="Times,serif" font-size="14.00">16</text>
</g>
<!-- 9&#45;&gt;16 -->
<g id="edge26" class="edge">
<title>9&#45;&gt;16</title>
<path fill="none" stroke="black" d="M1420.04,-1654.36C1406.71,-1628 1382.69,-1573.65 1382.69,-1524.48 1382.69,-1524.48 1382.69,-1524.48 1382.69,-1243.99 1382.69,-1223.61 1326.54,-1108.96 1297.97,-1051.94"/>
<polygon fill="black" stroke="black" points="1301.09,-1050.34 1293.47,-1042.98 1294.83,-1053.49 1301.09,-1050.34"/>
<text text-anchor="middle" x="1387.69" y="-1328.29" font-family="Times,serif" font-size="14.00">0</text>
</g>
<!-- 9&#45;&gt;28 -->
<g id="edge104" class="edge">
<title>9&#45;&gt;28</title>
<path fill="none" stroke="black" d="M1448.26,-1658.8C1474.81,-1642.94 1522.58,-1614.41 1554.22,-1595.52"/>
<polygon fill="black" stroke="black" points="1556.29,-1598.37 1563.08,-1590.23 1552.7,-1592.36 1556.29,-1598.37"/>
<text text-anchor="middle" x="1517.69" y="-1624.28" font-family="Times,serif" font-size="14.00">1</text>
</g>
<!-- 10 -->
<g id="node12" class="node">
<title>10</title>
<ellipse fill="none" stroke="black" cx="578.69" cy="-18" rx="27" ry="18"/>
<text text-anchor="middle" x="578.69" y="-14.3" font-family="Times,serif" font-size="14.00">10</text>
</g>
<!-- 10&#45;&gt;4 -->
<g id="edge102" class="edge">
<title>10&#45;&gt;4</title>
<path fill="none" stroke="black" d="M605.74,-19.52C833.07,-23.95 2416.69,-56.56 2416.69,-104 2416.69,-689 2416.69,-689 2416.69,-689 2416.69,-775.66 2370.69,-791.83 2370.69,-878.49 2370.69,-1158.99 2370.69,-1158.99 2370.69,-1158.99 2370.69,-1245.03 2366.51,-1284.07 2300.69,-1339.49 2186.86,-1435.31 2004.1,-1466.31 1926.48,-1475.47"/>
<polygon fill="black" stroke="black" points="1925.78,-1472.02 1916.24,-1476.62 1926.57,-1478.98 1925.78,-1472.02"/>
<text text-anchor="middle" x="2419.69" y="-736.54" font-family="Times,serif" font-size="14.00">2</text>
</g>
<!-- 10&#45;&gt;6 -->
<g id="edge44" class="edge">
<title>10&#45;&gt;6</title>
<path fill="none" stroke="black" d="M605.89,-19.19C748.68,-20.31 1426.23,-26.85 1979.69,-54 3294.71,-118.5 2492.69,-43.91 2492.69,-104 2492.69,-1332.99 2492.69,-1332.99 2492.69,-1332.99 2492.69,-1368.39 2410.94,-1605.15 2392.69,-1635.48 2331.75,-1736.75 2286.57,-1738.58 2208.69,-1827.48 2129.93,-1917.38 2118.26,-1946.55 2040.69,-2037.48 2027.82,-2052.56 2025.88,-2057.75 2010.69,-2070.48 2000.25,-2079.22 1987.71,-2087.47 1976.64,-2094.11"/>
<polygon fill="black" stroke="black" points="1974.64,-2091.22 1967.77,-2099.28 1978.17,-2097.27 1974.64,-2091.22"/>
<text text-anchor="middle" x="2497.69" y="-1067.29" font-family="Times,serif" font-size="14.00">0</text>
</g>
<!-- 10&#45;&gt;10 -->
<g id="edge54" class="edge">
<title>10&#45;&gt;10</title>
<path fill="none" stroke="black" d="M603.22,-25.75C614.2,-26.49 623.69,-23.91 623.69,-18 623.69,-14.03 619.4,-11.56 613.26,-10.59"/>
<polygon fill="black" stroke="black" points="613.34,-7.09 603.22,-10.25 613.09,-14.09 613.34,-7.09"/>
<text text-anchor="middle" x="628.69" y="-14.3" font-family="Times,serif" font-size="14.00">4</text>
</g>
<!-- 10&#45;&gt;26 -->
<g id="edge21" class="edge">
<title>10&#45;&gt;26</title>
<path fill="none" stroke="black" d="M594.01,-33.05C609.35,-48.72 630.69,-75.63 630.69,-104 630.69,-367 630.69,-367 630.69,-367 630.69,-409.89 766.19,-441.43 832.71,-454.33"/>
<polygon fill="black" stroke="black" points="832.29,-457.81 842.77,-456.24 833.59,-450.93 832.29,-457.81"/>
<text text-anchor="middle" x="635.69" y="-231.8" font-family="Times,serif" font-size="14.00">1</text>
</g>
<!-- 10&#45;&gt;29 -->
<g id="edge119" class="edge">
<title>10&#45;&gt;29</title>
<path fill="none" stroke="black" d="M552.04,-21.71C508.2,-27.81 425.69,-46.87 425.69,-104 425.69,-236.5 425.69,-236.5 425.69,-236.5 425.69,-291.95 392.61,-297.51 369.69,-348 337.74,-418.38 314.69,-435.7 314.69,-513 314.69,-880.49 314.69,-880.49 314.69,-880.49 314.69,-1306.88 316.9,-1283.43 329.69,-1339.49 370.65,-1519.01 349.06,-1601.28 487.69,-1722.48 514.18,-1745.64 554.26,-1753.74 583.49,-1756.43"/>
<polygon fill="black" stroke="black" points="583.5,-1759.94 593.73,-1757.2 584.02,-1752.96 583.5,-1759.94"/>
<text text-anchor="middle" x="320.69" y="-875.79" font-family="Times,serif" font-size="14.00">3</text>
</g>
<!-- 11&#45;&gt;0 -->
<g id="edge47" class="edge">
<title>11&#45;&gt;0</title>
<path fill="none" stroke="black" d="M1122.9,-282.52C995.3,-294.52 455.15,-345.46 451.69,-348 388.65,-394.24 390.69,-434.81 390.69,-513 390.69,-1071.99 390.69,-1071.99 390.69,-1071.99 390.69,-1133.03 376.69,-1375 330.69,-1443.98 255.88,-1556.17 88.69,-1492.14 88.69,-1626.98 88.69,-2111.48 88.69,-2111.48 88.69,-2111.48 88.69,-2212.74 1771.45,-2206.27 2026.47,-2204.7"/>
<polygon fill="black" stroke="black" points="2026.59,-2208.2 2036.56,-2204.64 2026.54,-2201.2 2026.59,-2208.2"/>
<text text-anchor="middle" x="385.69" y="-1241.29" font-family="Times,serif" font-size="14.00">1</text>
</g>
<!-- 11&#45;&gt;0 -->
<g id="edge77" class="edge">
<title>11&#45;&gt;0</title>
<path fill="none" stroke="black" d="M1122.72,-280.71C996.47,-284.27 467.56,-301.87 411.69,-348 351.63,-397.58 352.69,-435.12 352.69,-513 352.69,-967.49 352.69,-967.49 352.69,-967.49 352.69,-1284.69 333.43,-1333.25 329.69,-1339.49 253.39,-1466.64 50.69,-1374.19 50.69,-1522.48 50.69,-2111.48 50.69,-2111.48 50.69,-2111.48 50.69,-2190.76 142.08,-2155.23 220.69,-2165.48 406.35,-2189.68 1795.87,-2202.28 2026.34,-2204.22"/>
<polygon fill="black" stroke="black" points="2026.4,-2207.72 2036.43,-2204.3 2026.46,-2200.72 2026.4,-2207.72"/>
<text text-anchor="middle" x="350.69" y="-1241.29" font-family="Times,serif" font-size="14.00">0</text>
</g>
<!-- 11&#45;&gt;3 -->
<g id="edge29" class="edge">
<title>11&#45;&gt;3</title>
<path fill="none" stroke="black" d="M1176.66,-281.32C1231.68,-284.39 1360.61,-293.42 1466.69,-315 1489.42,-319.63 1493.87,-325.82 1516.69,-330 1738.82,-370.71 1817.08,-302.25 2019.69,-402 2040.06,-412.03 2047.69,-415.13 2058.69,-435 2133.92,-570.9 2030.49,-978.18 2012.69,-1132.49 2011,-1147.16 2013.47,-1151.51 2008.69,-1165.49 1996.07,-1202.35 1971.26,-1240.13 1954.09,-1263.69"/>
<polygon fill="black" stroke="black" points="1951.08,-1261.87 1947.93,-1271.99 1956.7,-1266.05 1951.08,-1261.87"/>
<text text-anchor="middle" x="2074.69" y="-788.79" font-family="Times,serif" font-size="14.00">3</text>
</g>
<!-- 11&#45;&gt;7 -->
<g id="edge36" class="edge">
<title>11&#45;&gt;7</title>
<path fill="none" stroke="black" d="M1175.01,-272.11C1217.57,-262.32 1306.19,-242.33 1381.69,-228 1443.46,-216.28 1515.76,-204.89 1558.25,-198.43"/>
<polygon fill="black" stroke="black" points="1559.02,-201.85 1568.38,-196.89 1557.97,-194.93 1559.02,-201.85"/>
<text text-anchor="middle" x="1386.69" y="-231.8" font-family="Times,serif" font-size="14.00">2</text>
</g>
<!-- 11&#45;&gt;23 -->
<g id="edge79" class="edge">
<title>11&#45;&gt;23</title>
<path fill="none" stroke="black" d="M1159.16,-296.1C1162.4,-301.94 1165.91,-308.67 1168.69,-315 1187.97,-358.88 1168.28,-384.7 1203.69,-417 1228.7,-439.81 1248.65,-417.61 1277.69,-435 1358.84,-483.58 1363.94,-517.09 1419.69,-593.5 1508.8,-715.63 1478.01,-787.31 1591.69,-886.99 1605.42,-899.03 1623.89,-907.37 1639.92,-912.88"/>
<polygon fill="black" stroke="black" points="1638.93,-916.24 1649.53,-915.95 1641.07,-909.57 1638.93,-916.24"/>
<text text-anchor="middle" x="1435.69" y="-597.3" font-family="Times,serif" font-size="14.00">4</text>
</g>
<!-- 12&#45;&gt;6 -->
<g id="edge62" class="edge">
<title>12&#45;&gt;6</title>
<path fill="none" stroke="black" d="M2059.42,-568.5C2072.83,-575 2090.19,-584.01 2104.69,-593.5 2206.73,-660.29 2294.69,-669.53 2294.69,-791.49 2294.69,-1158.99 2294.69,-1158.99 2294.69,-1158.99 2294.69,-1802.35 2291.79,-1588.9 2267.69,-1635.48 2238.5,-1691.91 2207.01,-1688.35 2170.69,-1740.48 2166.95,-1745.85 2066.76,-1944.7 2063.69,-1950.48 2042.99,-1989.49 2040.1,-2000.68 2015.69,-2037.48 2005.37,-2053.04 2002.26,-2056.68 1989.69,-2070.48 1984.32,-2076.37 1978.24,-2082.45 1972.43,-2087.99"/>
<polygon fill="black" stroke="black" points="1969.68,-2085.78 1964.78,-2095.17 1974.47,-2090.88 1969.68,-2085.78"/>
<text text-anchor="middle" x="2298.69" y="-1328.29" font-family="Times,serif" font-size="14.00">4</text>
</g>
<!-- 13 -->
<g id="node15" class="node">
<title>13</title>
<ellipse fill="none" stroke="black" cx="1868.69" cy="-461.75" rx="22.96" ry="22.96"/>
<ellipse fill="none" stroke="black" cx="1868.69" cy="-461.75" rx="27" ry="27"/>
<text text-anchor="middle" x="1868.69" y="-458.05" font-family="Times,serif" font-size="14.00">13</text>
</g>
<!-- 12&#45;&gt;13 -->
<g id="edge92" class="edge">
<title>12&#45;&gt;13</title>
<path fill="none" stroke="black" d="M2017.64,-545.37C1988.79,-529.37 1935.26,-499.67 1900.84,-480.58"/>
<polygon fill="black" stroke="black" points="1902.12,-477.29 1891.68,-475.5 1898.72,-483.41 1902.12,-477.29"/>
<text text-anchor="middle" x="1978.69" y="-510.3" font-family="Times,serif" font-size="14.00">1</text>
</g>
<!-- 12&#45;&gt;14 -->
<g id="edge6" class="edge">
<title>12&#45;&gt;14</title>
<path fill="none" stroke="black" d="M2055.31,-571.54C2096.71,-603.82 2196.69,-692.08 2196.69,-791.49 2196.69,-1071.99 2196.69,-1071.99 2196.69,-1071.99 2196.69,-1198.76 2194.21,-1257.3 2097.69,-1339.49 2067.68,-1365.04 2022.96,-1375.67 1991.54,-1380.09"/>
<polygon fill="black" stroke="black" points="1990.92,-1376.65 1981.44,-1381.37 1991.79,-1383.59 1990.92,-1376.65"/>
<text text-anchor="middle" x="2201.69" y="-962.79" font-family="Times,serif" font-size="14.00">2</text>
</g>
<!-- 12&#45;&gt;15 -->
<g id="edge33" class="edge">
<title>12&#45;&gt;15</title>
<path fill="none" stroke="black" d="M2032.75,-539.56C2021.81,-503.24 1994.68,-419.71 1971.69,-402 1970.69,-401.23 1836.35,-381.79 1769.97,-372.22"/>
<polygon fill="black" stroke="black" points="1770.33,-368.74 1759.93,-370.78 1769.33,-375.67 1770.33,-368.74"/>
<text text-anchor="middle" x="2021.69" y="-458.05" font-family="Times,serif" font-size="14.00">0</text>
</g>
<!-- 12&#45;&gt;15 -->
<g id="edge134" class="edge">
<title>12&#45;&gt;15</title>
<path fill="none" stroke="black" d="M2040.94,-539.6C2044.79,-514.98 2048.6,-468.55 2030.69,-435 2020.15,-415.27 2013.1,-411.15 1992.69,-402 1935.44,-376.33 1914.85,-392.44 1852.69,-384 1824.95,-380.24 1793.6,-375.75 1770.05,-372.33"/>
<polygon fill="black" stroke="black" points="1770.54,-368.86 1760.14,-370.89 1769.53,-375.79 1770.54,-368.86"/>
<text text-anchor="middle" x="2049.69" y="-458.05" font-family="Times,serif" font-size="14.00">3</text>
</g>
<!-- 13&#45;&gt;2 -->
<g id="edge34" class="edge">
<title>13&#45;&gt;2</title>
<path fill="none" stroke="black" d="M1843.69,-471.55C1798.83,-487.28 1707.88,-518.84 1692.69,-521.5 1610.36,-535.89 1017.52,-506.59 940.69,-539.5 872.52,-568.69 862.69,-612.84 862.69,-687 862.69,-1158.99 862.69,-1158.99 862.69,-1158.99 862.69,-1235.69 848.69,-1254.29 848.69,-1330.99 848.69,-1524.48 848.69,-1524.48 848.69,-1524.48 848.69,-1558.11 724.69,-1751.16 679.72,-1820.06"/>
<polygon fill="black" stroke="black" points="676.71,-1818.28 674.16,-1828.56 682.57,-1822.11 676.71,-1818.28"/>
<text text-anchor="middle" x="867.69" y="-1154.29" font-family="Times,serif" font-size="14.00">0</text>
</g>
<!-- 13&#45;&gt;5 -->
<g id="edge65" class="edge">
<title>13&#45;&gt;5</title>
<path fill="none" stroke="black" d="M1894.63,-469.22C1992.35,-494.35 2332.69,-588.91 2332.69,-687 2332.69,-1158.99 2332.69,-1158.99 2332.69,-1158.99 2332.69,-1259.82 2294.61,-1519.94 2236.69,-1602.48 2189.95,-1669.09 2147.77,-1653.71 2086.69,-1707.48 1973.96,-1806.72 2022.16,-1909.09 1891.69,-1983.48 1846.22,-2009.41 1484.02,-2016.44 1365.84,-2018.05"/>
<polygon fill="black" stroke="black" points="1365.77,-2014.55 1355.82,-2018.19 1365.86,-2021.55 1365.77,-2014.55"/>
<text text-anchor="middle" x="2332.69" y="-1241.29" font-family="Times,serif" font-size="14.00">2</text>
</g>
<!-- 13&#45;&gt;7 -->
<g id="edge42" class="edge">
<title>13&#45;&gt;7</title>
<path fill="none" stroke="black" d="M1857.04,-437.36C1832.76,-390.9 1772.32,-286.45 1692.69,-228 1674.21,-214.44 1649.97,-205.72 1630.23,-200.38"/>
<polygon fill="black" stroke="black" points="1630.92,-196.94 1620.36,-197.88 1629.2,-203.73 1630.92,-196.94"/>
<text text-anchor="middle" x="1794.69" y="-318.8" font-family="Times,serif" font-size="14.00">1</text>
</g>
<!-- 13&#45;&gt;14 -->
<g id="edge140" class="edge">
<title>13&#45;&gt;14</title>
<path fill="none" stroke="black" d="M1878.93,-486.52C1881.41,-492.92 1883.86,-499.9 1885.69,-506.5 1920.94,-634.04 1896.25,-673.69 1935.69,-799.99 1951.04,-849.15 1973.53,-854.72 1984.69,-904.99 2020.77,-1067.64 1982.04,-1268.47 1963.47,-1348.22"/>
<polygon fill="black" stroke="black" points="1960,-1347.68 1961.1,-1358.22 1966.81,-1349.29 1960,-1347.68"/>
<text text-anchor="middle" x="1996.69" y="-919.29" font-family="Times,serif" font-size="14.00">4</text>
</g>
<!-- 13&#45;&gt;18 -->
<g id="edge70" class="edge">
<title>13&#45;&gt;18</title>
<path fill="none" stroke="black" d="M1845.17,-475.04C1820.36,-487.71 1779.94,-507.53 1743.69,-521.5 1620.11,-569.12 1587.82,-579.08 1458.69,-608.5 1391.57,-623.79 1311.83,-634.28 1266.35,-639.55"/>
<polygon fill="black" stroke="black" points="1265.91,-636.08 1256.37,-640.69 1266.7,-643.03 1265.91,-636.08"/>
<text text-anchor="middle" x="1700.69" y="-553.8" font-family="Times,serif" font-size="14.00">3</text>
</g>
<!-- 14&#45;&gt;3 -->
<g id="edge66" class="edge">
<title>14&#45;&gt;3</title>
<path fill="none" stroke="black" d="M1949.5,-1357.62C1946.92,-1344.91 1943.81,-1329.56 1941.19,-1316.65"/>
<polygon fill="black" stroke="black" points="1944.55,-1315.6 1939.13,-1306.49 1937.69,-1316.99 1944.55,-1315.6"/>
<text text-anchor="middle" x="1951.69" y="-1328.29" font-family="Times,serif" font-size="14.00">1</text>
</g>
<!-- 14&#45;&gt;4 -->
<g id="edge5" class="edge">
<title>14&#45;&gt;4</title>
<path fill="none" stroke="black" d="M1948.49,-1410.39C1945,-1421.37 1939.87,-1433.99 1932.69,-1443.98 1928.29,-1450.11 1922.55,-1455.77 1916.71,-1460.67"/>
<polygon fill="black" stroke="black" points="1914.52,-1457.94 1908.79,-1466.85 1918.83,-1463.45 1914.52,-1457.94"/>
<text text-anchor="middle" x="1946.69" y="-1432.78" font-family="Times,serif" font-size="14.00">3</text>
</g>
<!-- 14&#45;&gt;14 -->
<g id="edge84" class="edge">
<title>14&#45;&gt;14</title>
<path fill="none" stroke="black" d="M1981.33,-1389.1C1991.26,-1389.26 1999.44,-1387.64 1999.44,-1384.24 1999.44,-1382.11 1996.24,-1380.68 1991.42,-1379.94"/>
<polygon fill="black" stroke="black" points="1991.52,-1376.44 1981.33,-1379.37 1991.12,-1383.43 1991.52,-1376.44"/>
<text text-anchor="middle" x="2004.44" y="-1380.54" font-family="Times,serif" font-size="14.00">2</text>
</g>
<!-- 14&#45;&gt;14 -->
<g id="edge149" class="edge">
<title>14&#45;&gt;14</title>
<path fill="none" stroke="black" d="M1980.14,-1392.89C1998.77,-1395.8 2017.44,-1392.92 2017.44,-1384.24 2017.44,-1377.18 2005.11,-1373.95 1990.5,-1374.56"/>
<polygon fill="black" stroke="black" points="1989.75,-1371.11 1980.14,-1375.59 1990.44,-1378.08 1989.75,-1371.11"/>
<text text-anchor="middle" x="2022.44" y="-1380.54" font-family="Times,serif" font-size="14.00">4</text>
</g>
<!-- 14&#45;&gt;28 -->
<g id="edge144" class="edge">
<title>14&#45;&gt;28</title>
<path fill="none" stroke="black" d="M1935.08,-1402.61C1931.13,-1405.64 1926.9,-1408.58 1922.69,-1410.98 1902.9,-1422.27 1895.63,-1420 1874.69,-1428.98 1843.82,-1442.23 1836.76,-1447.02 1806.69,-1461.98 1770.84,-1479.82 1670.49,-1531.22 1618.24,-1558.02"/>
<polygon fill="black" stroke="black" points="1616.37,-1555.05 1609.07,-1562.73 1619.57,-1561.28 1616.37,-1555.05"/>
<text text-anchor="middle" x="1811.69" y="-1476.28" font-family="Times,serif" font-size="14.00">0</text>
</g>
<!-- 15&#45;&gt;10 -->
<g id="edge81" class="edge">
<title>15&#45;&gt;10</title>
<path fill="none" stroke="black" d="M1731.11,-347.79C1728.77,-330.65 1725.69,-303.57 1725.69,-280 1725.69,-280 1725.69,-280 1725.69,-104 1725.69,-46.99 812.5,-24.04 615.75,-19.76"/>
<polygon fill="black" stroke="black" points="615.7,-16.26 605.63,-19.54 615.55,-23.26 615.7,-16.26"/>
<text text-anchor="middle" x="1730.69" y="-188.3" font-family="Times,serif" font-size="14.00">1</text>
</g>
<!-- 15&#45;&gt;11 -->
<g id="edge43" class="edge">
<title>15&#45;&gt;11</title>
<path fill="none" stroke="black" d="M1707.29,-361.98C1657.98,-356.28 1548.56,-343.28 1456.69,-330 1358.33,-315.78 1242.72,-296.16 1185.5,-286.26"/>
<polygon fill="black" stroke="black" points="1185.97,-282.79 1175.52,-284.53 1184.77,-289.68 1185.97,-282.79"/>
<text text-anchor="middle" x="1461.69" y="-318.8" font-family="Times,serif" font-size="14.00">2</text>
</g>
<!-- 15&#45;&gt;14 -->
<g id="edge38" class="edge">
<title>15&#45;&gt;14</title>
<path fill="none" stroke="black" d="M1760.29,-370.2C1800.8,-376.29 1878.56,-392.94 1928.69,-435 2044.64,-532.3 1961.1,-622.03 2004.69,-766.99 2031.94,-857.61 2075.72,-866.72 2096.69,-958.99 2125.72,-1086.77 2135.26,-1139.62 2068.69,-1252.49 2044.56,-1293.39 2006.9,-1333.51 1981.54,-1358.3"/>
<polygon fill="black" stroke="black" points="1978.86,-1356.02 1974.09,-1365.48 1983.72,-1361.06 1978.86,-1356.02"/>
<text text-anchor="middle" x="2074.69" y="-875.79" font-family="Times,serif" font-size="14.00">0</text>
</g>
<!-- 15&#45;&gt;23 -->
<g id="edge142" class="edge">
<title>15&#45;&gt;23</title>
<path fill="none" stroke="black" d="M1734.12,-384.18C1736.1,-465.41 1743.46,-809.01 1727.69,-853.99 1721.51,-871.6 1708.78,-888.19 1697.34,-900.57"/>
<polygon fill="black" stroke="black" points="1694.53,-898.45 1690.1,-908.07 1699.56,-903.31 1694.53,-898.45"/>
<text text-anchor="middle" x="1742.69" y="-640.8" font-family="Times,serif" font-size="14.00">3</text>
</g>
<!-- 15&#45;&gt;29 -->
<g id="edge146" class="edge">
<title>15&#45;&gt;29</title>
<path fill="none" stroke="black" d="M1706.55,-366.87C1622.62,-366.84 1360.04,-369.54 1145.69,-402 1118.08,-406.18 1112.27,-412.66 1084.69,-417 973.77,-434.47 941.02,-405.47 832.69,-435 763.75,-453.79 733.65,-450.96 688.69,-506.5 661.69,-539.84 664.69,-557.09 664.69,-600 664.69,-1071.99 664.69,-1071.99 664.69,-1071.99 664.69,-1285.55 620.87,-1335.9 606.69,-1548.98 605.11,-1572.71 605.62,-1578.73 606.69,-1602.48 608.71,-1647.39 614.02,-1699.4 617.49,-1730.31"/>
<polygon fill="black" stroke="black" points="614.02,-1730.77 618.63,-1740.31 620.97,-1729.98 614.02,-1730.77"/>
<text text-anchor="middle" x="669.69" y="-1067.29" font-family="Times,serif" font-size="14.00">4</text>
</g>
<!-- 16&#45;&gt;2 -->
<g id="edge64" class="edge">
<title>16&#45;&gt;2</title>
<path fill="none" stroke="black" d="M1266.88,-1041.2C1249.86,-1066.51 1221.81,-1110.24 1202.69,-1150.49 1173.82,-1211.24 1100.69,-1368.22 1100.69,-1435.48 1100.69,-1628.98 1100.69,-1628.98 1100.69,-1628.98 1100.69,-1671.57 1111.03,-1693.64 1079.69,-1722.48 1058.22,-1742.23 977.63,-1732.12 949.69,-1740.48 881.32,-1760.95 871.88,-1785.43 804.69,-1809.48 769.69,-1822.01 728.25,-1831.71 699.39,-1837.69"/>
<polygon fill="black" stroke="black" points="698.46,-1834.31 689.36,-1839.72 699.85,-1841.17 698.46,-1834.31"/>
<text text-anchor="middle" x="1105.69" y="-1432.78" font-family="Times,serif" font-size="14.00">4</text>
</g>
<!-- 16&#45;&gt;5 -->
<g id="edge106" class="edge">
<title>16&#45;&gt;5</title>
<path fill="none" stroke="black" d="M1289.54,-1044.74C1306.43,-1098.9 1344.69,-1223.82 1344.69,-1243.99 1344.69,-1524.48 1344.69,-1524.48 1344.69,-1524.48 1344.69,-1609.27 1366.69,-1629.19 1366.69,-1713.98 1366.69,-1933.48 1366.69,-1933.48 1366.69,-1933.48 1366.69,-1955.57 1355.86,-1978.31 1345.76,-1994.7"/>
<polygon fill="black" stroke="black" points="1342.81,-1992.81 1340.3,-2003.11 1348.68,-1996.63 1342.81,-1992.81"/>
<text text-anchor="middle" x="1350.69" y="-1519.78" font-family="Times,serif" font-size="14.00">0</text>
</g>
<!-- 16&#45;&gt;18 -->
<g id="edge122" class="edge">
<title>16&#45;&gt;18</title>
<path fill="none" stroke="black" d="M1261.79,-1000.85C1224.27,-967.31 1145.04,-887.87 1125.69,-799.99 1113.31,-743.81 1168.38,-691.1 1203.11,-664.17"/>
<polygon fill="black" stroke="black" points="1205.57,-666.7 1211.45,-657.89 1201.36,-661.11 1205.57,-666.7"/>
<text text-anchor="middle" x="1150.69" y="-832.29" font-family="Times,serif" font-size="14.00">3</text>
</g>
<!-- 16&#45;&gt;23 -->
<g id="edge74" class="edge">
<title>16&#45;&gt;23</title>
<path fill="none" stroke="black" d="M1308.27,-1014.54C1354.28,-1008.68 1451.53,-994.87 1531.69,-973.99 1570.62,-963.85 1614.08,-947.98 1642.76,-936.84"/>
<polygon fill="black" stroke="black" points="1644.22,-940.03 1652.26,-933.12 1641.67,-933.51 1644.22,-940.03"/>
<text text-anchor="middle" x="1584.69" y="-962.79" font-family="Times,serif" font-size="14.00">2</text>
</g>
<!-- 16&#45;&gt;28 -->
<g id="edge88" class="edge">
<title>16&#45;&gt;28</title>
<path fill="none" stroke="black" d="M1299.87,-1038.76C1306.68,-1046.24 1314.32,-1055.04 1320.69,-1063.49 1358.71,-1113.88 1371.27,-1125.7 1396.69,-1183.49 1428.9,-1256.71 1439.05,-1469.89 1490.69,-1530.98 1505.73,-1548.78 1529.56,-1559.73 1549.59,-1566.22"/>
<polygon fill="black" stroke="black" points="1548.77,-1569.63 1559.36,-1569.14 1550.78,-1562.92 1548.77,-1569.63"/>
<text text-anchor="middle" x="1431.69" y="-1284.79" font-family="Times,serif" font-size="14.00">1</text>
</g>
<!-- 17&#45;&gt;10 -->
<g id="edge151" class="edge">
<title>17&#45;&gt;10</title>
<path fill="none" stroke="black" d="M185.57,-88.96C196.54,-77.27 213.4,-61.77 231.69,-54 286.78,-30.59 463.73,-22.47 541.47,-19.98"/>
<polygon fill="black" stroke="black" points="541.87,-23.47 551.76,-19.66 541.65,-16.47 541.87,-23.47"/>
<text text-anchor="middle" x="236.69" y="-57.8" font-family="Times,serif" font-size="14.00">0</text>
</g>
<!-- 21 -->
<g id="node23" class="node">
<title>21</title>
<ellipse fill="none" stroke="black" cx="487.69" cy="-366" rx="27" ry="18"/>
<text text-anchor="middle" x="487.69" y="-362.3" font-family="Times,serif" font-size="14.00">21</text>
</g>
<!-- 17&#45;&gt;21 -->
<g id="edge138" class="edge">
<title>17&#45;&gt;21</title>
<path fill="none" stroke="black" d="M192.9,-116.99C196.79,-119.04 200.85,-121.12 204.69,-123 222.19,-131.58 228.42,-130.25 244.69,-141 337.34,-202.2 428.78,-298.88 467.89,-342.43"/>
<polygon fill="black" stroke="black" points="465.52,-345.03 474.79,-350.16 470.74,-340.37 465.52,-345.03"/>
<text text-anchor="middle" x="374.69" y="-231.8" font-family="Times,serif" font-size="14.00">2</text>
</g>
<!-- 27 -->
<g id="node29" class="node">
<title>27</title>
<ellipse fill="none" stroke="black" cx="61.69" cy="-279" rx="27" ry="18"/>
<text text-anchor="middle" x="61.69" y="-275.3" font-family="Times,serif" font-size="14.00">27</text>
</g>
<!-- 17&#45;&gt;27 -->
<g id="edge75" class="edge">
<title>17&#45;&gt;27</title>
<path fill="none" stroke="black" d="M145.53,-105.88C113.14,-107.07 58.87,-113.48 22.69,-141 -2.54,-160.19 -3.14,-179.29 4.69,-210 9.51,-228.91 23.52,-245.76 36.45,-257.96"/>
<polygon fill="black" stroke="black" points="34.47,-260.88 44.26,-264.93 39.13,-255.66 34.47,-260.88"/>
<text text-anchor="middle" x="9.69" y="-188.3" font-family="Times,serif" font-size="14.00">4</text>
</g>
<!-- 17&#45;&gt;27 -->
<g id="edge128" class="edge">
<title>17&#45;&gt;27</title>
<path fill="none" stroke="black" d="M147.68,-112.6C120.26,-121.39 77.99,-139.96 61.69,-174 50.1,-198.21 51.97,-229.38 55.58,-251.25"/>
<polygon fill="black" stroke="black" points="52.15,-251.99 57.43,-261.18 59.03,-250.7 52.15,-251.99"/>
<text text-anchor="middle" x="66.69" y="-188.3" font-family="Times,serif" font-size="14.00">1</text>
</g>
<!-- 17&#45;&gt;29 -->
<g id="edge10" class="edge">
<title>17&#45;&gt;29</title>
<path fill="none" stroke="black" d="M189.97,-119.16C196.4,-125.08 203.02,-132.62 206.69,-141 260.02,-262.98 238.69,-606.11 238.69,-739.24 238.69,-880.49 238.69,-880.49 238.69,-880.49 238.69,-1007.44 219.17,-1044.53 257.69,-1165.49 335.89,-1411.05 536.59,-1659.28 600.69,-1734.51"/>
<polygon fill="black" stroke="black" points="598.31,-1737.11 607.48,-1742.42 603.63,-1732.55 598.31,-1737.11"/>
<text text-anchor="middle" x="243.69" y="-919.29" font-family="Times,serif" font-size="14.00">3</text>
</g>
<!-- 18&#45;&gt;7 -->
<g id="edge39" class="edge">
<title>18&#45;&gt;7</title>
<path fill="none" stroke="black" d="M1245.73,-629.85C1274.19,-604.78 1333.53,-548.44 1365.69,-488.5 1403.45,-418.1 1373.05,-384.36 1412.69,-315 1439.51,-268.06 1452.23,-257.25 1497.69,-228 1516.58,-215.85 1540.25,-207.2 1559.48,-201.54"/>
<polygon fill="black" stroke="black" points="1560.67,-204.84 1569.36,-198.78 1558.79,-198.1 1560.67,-204.84"/>
<text text-anchor="middle" x="1393.69" y="-405.8" font-family="Times,serif" font-size="14.00">3</text>
</g>
<!-- 18&#45;&gt;8 -->
<g id="edge120" class="edge">
<title>18&#45;&gt;8</title>
<path fill="none" stroke="black" d="M1203.11,-640.81C1170.09,-636.8 1112.51,-627.58 1066.69,-608.5 1055.42,-603.8 1054.22,-599.66 1043.69,-593.5 1031.8,-586.54 1018.4,-579.4 1006.73,-573.4"/>
<polygon fill="black" stroke="black" points="1008.3,-570.28 997.79,-568.86 1005.12,-576.52 1008.3,-570.28"/>
<text text-anchor="middle" x="1071.69" y="-597.3" font-family="Times,serif" font-size="14.00">1</text>
</g>
<!-- 18&#45;&gt;12 -->
<g id="edge56" class="edge">
<title>18&#45;&gt;12</title>
<path fill="none" stroke="black" d="M1256.11,-640.72C1375.26,-628.18 1862.72,-576.9 2000.98,-562.36"/>
<polygon fill="black" stroke="black" points="2001.48,-565.82 2011.06,-561.3 2000.75,-558.86 2001.48,-565.82"/>
<text text-anchor="middle" x="1687.69" y="-597.3" font-family="Times,serif" font-size="14.00">4</text>
</g>
<!-- 22 -->
<g id="node24" class="node">
<title>22</title>
<ellipse fill="none" stroke="black" cx="1199.69" cy="-740.24" rx="22.96" ry="22.96"/>
<ellipse fill="none" stroke="black" cx="1199.69" cy="-740.24" rx="27" ry="27"/>
<text text-anchor="middle" x="1199.69" y="-736.54" font-family="Times,serif" font-size="14.00">22</text>
</g>
<!-- 18&#45;&gt;22 -->
<g id="edge136" class="edge">
<title>18&#45;&gt;22</title>
<path fill="none" stroke="black" d="M1214.48,-659.38C1209.06,-665.3 1203.59,-672.65 1200.69,-680.5 1198.06,-687.6 1196.87,-695.52 1196.51,-703.2"/>
<polygon fill="black" stroke="black" points="1193.01,-703.39 1196.47,-713.4 1200.01,-703.41 1193.01,-703.39"/>
<text text-anchor="middle" x="1205.69" y="-684.3" font-family="Times,serif" font-size="14.00">0</text>
</g>
<!-- 25 -->
<g id="node27" class="node">
<title>25</title>
<ellipse fill="none" stroke="black" cx="137.69" cy="-192" rx="27" ry="18"/>
<text text-anchor="middle" x="137.69" y="-188.3" font-family="Times,serif" font-size="14.00">25</text>
</g>
<!-- 18&#45;&gt;25 -->
<g id="edge20" class="edge">
<title>18&#45;&gt;25</title>
<path fill="none" stroke="black" d="M1228.4,-626.25C1227.23,-609.09 1225.69,-581.99 1225.69,-558.5 1225.69,-558.5 1225.69,-558.5 1225.69,-408.5 1225.69,-340.58 1239.47,-302.49 1185.69,-261 1160.43,-241.51 643.52,-245.17 611.69,-243 447.94,-231.81 253.39,-207.95 174.07,-197.76"/>
<polygon fill="black" stroke="black" points="174.46,-194.28 164.09,-196.48 173.57,-201.23 174.46,-194.28"/>
<text text-anchor="middle" x="1230.69" y="-405.8" font-family="Times,serif" font-size="14.00">2</text>
</g>
<!-- 19 -->
<g id="node21" class="node">
<title>19</title>
<ellipse fill="none" stroke="black" cx="1449.69" cy="-1114.49" rx="27" ry="18"/>
<text text-anchor="middle" x="1449.69" y="-1110.79" font-family="Times,serif" font-size="14.00">19</text>
</g>
<!-- 19&#45;&gt;2 -->
<g id="edge19" class="edge">
<title>19&#45;&gt;2</title>
<path fill="none" stroke="black" d="M1430.46,-1127.68C1421.66,-1133.84 1411.48,-1141.84 1403.69,-1150.49 1361.9,-1196.86 1360.62,-1215.71 1330.69,-1270.49 1317.27,-1295.04 1130.68,-1705.19 1108.69,-1722.48 1081.06,-1744.2 1065.03,-1729.36 1031.69,-1740.48 959.38,-1764.59 947.74,-1787.74 874.69,-1809.48 815.14,-1827.2 743.3,-1836.71 700.67,-1841.17"/>
<polygon fill="black" stroke="black" points="700.08,-1837.71 690.48,-1842.2 700.79,-1844.67 700.08,-1837.71"/>
<text text-anchor="middle" x="1245.69" y="-1476.28" font-family="Times,serif" font-size="14.00">4</text>
</g>
<!-- 19&#45;&gt;8 -->
<g id="edge150" class="edge">
<title>19&#45;&gt;8</title>
<path fill="none" stroke="black" d="M1436.5,-1098.7C1424.28,-1084.98 1405.65,-1063.94 1389.69,-1045.49 1236.36,-868.24 1054.62,-651.63 995.96,-581.54"/>
<polygon fill="black" stroke="black" points="998.53,-579.16 989.43,-573.74 993.16,-583.65 998.53,-579.16"/>
<text text-anchor="middle" x="1230.69" y="-832.29" font-family="Times,serif" font-size="14.00">2</text>
</g>
<!-- 19&#45;&gt;15 -->
<g id="edge87" class="edge">
<title>19&#45;&gt;15</title>
<path fill="none" stroke="black" d="M1451.61,-1096.21C1456.22,-1050.25 1465.91,-921.38 1442.69,-817.99 1440.77,-809.45 1436.51,-808.56 1434.69,-799.99 1433.3,-793.47 1433.18,-791.49 1434.69,-784.99 1442.67,-750.53 1451.88,-744.07 1469.69,-713.5 1516.85,-632.54 1526.14,-609.25 1588.69,-539.5 1596.9,-530.34 1601.14,-530.33 1609.69,-521.5 1651.46,-478.36 1693.93,-422.2 1716.71,-390.85"/>
<polygon fill="black" stroke="black" points="1719.59,-392.85 1722.6,-382.69 1713.91,-388.75 1719.59,-392.85"/>
<text text-anchor="middle" x="1474.69" y="-736.54" font-family="Times,serif" font-size="14.00">1</text>
</g>
<!-- 19&#45;&gt;16 -->
<g id="edge121" class="edge">
<title>19&#45;&gt;16</title>
<path fill="none" stroke="black" d="M1429.42,-1102.18C1400.71,-1086.15 1347.88,-1056.68 1313.79,-1037.66"/>
<polygon fill="black" stroke="black" points="1315.15,-1034.4 1304.71,-1032.59 1311.74,-1040.52 1315.15,-1034.4"/>
<text text-anchor="middle" x="1390.69" y="-1067.29" font-family="Times,serif" font-size="14.00">0</text>
</g>
<!-- 19&#45;&gt;18 -->
<g id="edge72" class="edge">
<title>19&#45;&gt;18</title>
<path fill="none" stroke="black" d="M1443.01,-1096.68C1439.04,-1086.91 1433.79,-1074.41 1428.69,-1063.49 1384.37,-968.57 1364.41,-949.19 1320.69,-853.99 1292.56,-792.76 1291.44,-774.9 1263.69,-713.5 1257.23,-699.22 1249.45,-683.55 1242.96,-670.86"/>
<polygon fill="black" stroke="black" points="1245.99,-669.1 1238.3,-661.81 1239.77,-672.3 1245.99,-669.1"/>
<text text-anchor="middle" x="1341.69" y="-875.79" font-family="Times,serif" font-size="14.00">3</text>
</g>
<!-- 20&#45;&gt;1 -->
<g id="edge53" class="edge">
<title>20&#45;&gt;1</title>
<path fill="none" stroke="black" d="M1803.17,-1219.47C1788.29,-1290.26 1729.26,-1561.67 1683.69,-1635.48 1604.86,-1763.16 1569.34,-1797.27 1434.69,-1863.48 1315.6,-1922.04 1154.29,-1930.95 1082.2,-1931.79"/>
<polygon fill="black" stroke="black" points="1081.79,-1928.29 1071.82,-1931.86 1081.84,-1935.29 1081.79,-1928.29"/>
<text text-anchor="middle" x="1724.69" y="-1572.03" font-family="Times,serif" font-size="14.00">4</text>
</g>
<!-- 20&#45;&gt;4 -->
<g id="edge28" class="edge">
<title>20&#45;&gt;4</title>
<path fill="none" stroke="black" d="M1811.79,-1219.5C1825.79,-1266.12 1864.85,-1396.22 1881.74,-1452.49"/>
<polygon fill="black" stroke="black" points="1878.39,-1453.53 1884.62,-1462.1 1885.1,-1451.52 1878.39,-1453.53"/>
<text text-anchor="middle" x="1852.69" y="-1328.29" font-family="Times,serif" font-size="14.00">0</text>
</g>
<!-- 20&#45;&gt;13 -->
<g id="edge103" class="edge">
<title>20&#45;&gt;13</title>
<path fill="none" stroke="black" d="M1798.18,-1184.37C1788.42,-1163.7 1774.96,-1126.9 1784.69,-1096.49 1806.15,-1029.42 1876.69,-1037.91 1876.69,-967.49 1876.69,-967.49 1876.69,-967.49 1876.69,-687 1876.69,-620.6 1873.14,-543.21 1870.77,-498.9"/>
<polygon fill="black" stroke="black" points="1874.25,-498.43 1870.21,-488.63 1867.26,-498.81 1874.25,-498.43"/>
<text text-anchor="middle" x="1881.69" y="-832.29" font-family="Times,serif" font-size="14.00">2</text>
</g>
<!-- 20&#45;&gt;19 -->
<g id="edge58" class="edge">
<title>20&#45;&gt;19</title>
<path fill="none" stroke="black" d="M1783.28,-1192.3C1774.38,-1189.33 1764.12,-1186.08 1754.69,-1183.49 1658.4,-1157.08 1542.92,-1133.5 1485.61,-1122.33"/>
<polygon fill="black" stroke="black" points="1486.09,-1118.85 1475.6,-1120.39 1484.75,-1125.73 1486.09,-1118.85"/>
<text text-anchor="middle" x="1685.69" y="-1154.29" font-family="Times,serif" font-size="14.00">3</text>
</g>
<!-- 20&#45;&gt;21 -->
<g id="edge2" class="edge">
<title>20&#45;&gt;21</title>
<path fill="none" stroke="black" d="M1818.11,-1184.83C1833.81,-1162.45 1861.71,-1119.48 1875.69,-1078.49 1953.28,-850.97 1949.9,-778.1 1920.69,-539.5 1914.98,-492.86 1938.96,-467.14 1904.69,-435 1852.88,-386.4 743.48,-370.17 524.89,-367.44"/>
<polygon fill="black" stroke="black" points="524.92,-363.94 514.88,-367.31 524.84,-370.94 524.92,-363.94"/>
<text text-anchor="middle" x="1944.69" y="-788.79" font-family="Times,serif" font-size="14.00">1</text>
</g>
<!-- 21&#45;&gt;0 -->
<g id="edge100" class="edge">
<title>21&#45;&gt;0</title>
<path fill="none" stroke="black" d="M471.88,-380.86C454.4,-397.8 428.69,-428.25 428.69,-460.75 428.69,-1071.99 428.69,-1071.99 428.69,-1071.99 428.69,-1156.33 482.68,-1407.63 368.69,-1497.98 316.14,-1539.64 285.51,-1516.79 226.69,-1548.98 121.34,-1606.65 12.69,-1593.88 12.69,-1713.98 12.69,-2111.48 12.69,-2111.48 12.69,-2111.48 12.69,-2137.74 14.81,-2150.96 36.69,-2165.48 79.95,-2194.19 1770.42,-2203.14 2026.36,-2204.34"/>
<polygon fill="black" stroke="black" points="2026.48,-2207.84 2036.49,-2204.38 2026.51,-2200.84 2026.48,-2207.84"/>
<text text-anchor="middle" x="446.69" y="-1284.79" font-family="Times,serif" font-size="14.00">4</text>
</g>
<!-- 21&#45;&gt;1 -->
<g id="edge126" class="edge">
<title>21&#45;&gt;1</title>
<path fill="none" stroke="black" d="M498.03,-382.9C513.97,-408.96 542.69,-462.89 542.69,-513 542.69,-1071.99 542.69,-1071.99 542.69,-1071.99 542.69,-1148.44 544.69,-1167.54 544.69,-1243.99 544.69,-1437.48 544.69,-1437.48 544.69,-1437.48 544.69,-1495.5 804.15,-1824.03 846.69,-1863.48 866.21,-1881.59 872.25,-1885.92 896.69,-1896.48 933.01,-1912.17 977.51,-1921.48 1008.18,-1926.51"/>
<polygon fill="black" stroke="black" points="1007.99,-1930.02 1018.41,-1928.11 1009.07,-1923.11 1007.99,-1930.02"/>
<text text-anchor="middle" x="549.69" y="-1154.29" font-family="Times,serif" font-size="14.00">3</text>
</g>
<!-- 21&#45;&gt;5 -->
<g id="edge93" class="edge">
<title>21&#45;&gt;5</title>
<path fill="none" stroke="black" d="M481.61,-383.68C475.41,-402.24 466.69,-433.23 466.69,-460.75 466.69,-1071.99 466.69,-1071.99 466.69,-1071.99 466.69,-1148.44 468.69,-1167.54 468.69,-1243.99 468.69,-1437.48 468.69,-1437.48 468.69,-1437.48 468.69,-1594.65 202.69,-1513.32 202.69,-1670.48 202.69,-1889.98 202.69,-1889.98 202.69,-1889.98 202.69,-1933.11 194.57,-1957.1 228.69,-1983.48 275.63,-2019.78 1239.23,-1986.65 1296.69,-2001.48 1297.92,-2001.8 1299.16,-2002.17 1300.4,-2002.59"/>
<polygon fill="black" stroke="black" points="1299.08,-2005.84 1309.66,-2006.51 1301.81,-1999.39 1299.08,-2005.84"/>
<text text-anchor="middle" x="473.69" y="-1197.79" font-family="Times,serif" font-size="14.00">0</text>
</g>
<!-- 21&#45;&gt;10 -->
<g id="edge99" class="edge">
<title>21&#45;&gt;10</title>
<path fill="none" stroke="black" d="M499.91,-349.72C511.67,-333.44 527.69,-306.42 527.69,-280 527.69,-280 527.69,-280 527.69,-104 527.69,-79.97 542.87,-56.86 556.66,-40.82"/>
<polygon fill="black" stroke="black" points="559.53,-42.86 563.66,-33.11 554.35,-38.16 559.53,-42.86"/>
<text text-anchor="middle" x="532.69" y="-188.3" font-family="Times,serif" font-size="14.00">1</text>
</g>
<!-- 21&#45;&gt;27 -->
<g id="edge85" class="edge">
<title>21&#45;&gt;27</title>
<path fill="none" stroke="black" d="M462,-359.87C389.11,-345.33 180.9,-303.79 97.18,-287.08"/>
<polygon fill="black" stroke="black" points="97.63,-283.6 87.14,-285.08 96.26,-290.47 97.63,-283.6"/>
<text text-anchor="middle" x="305.69" y="-318.8" font-family="Times,serif" font-size="14.00">2</text>
</g>
<!-- 22&#45;&gt;1 -->
<g id="edge52" class="edge">
<title>22&#45;&gt;1</title>
<path fill="none" stroke="black" d="M1202.64,-767.14C1204.19,-782 1205.92,-801.02 1206.69,-817.99 1207.42,-833.98 1208.98,-838.16 1206.69,-853.99 1199.73,-902.15 1183.38,-910.95 1175.69,-958.99 1173.37,-973.48 1174.91,-977.32 1174.69,-991.99 1174.33,-1015.77 1172.02,-1021.86 1174.69,-1045.49 1180.06,-1093.06 1189.34,-1103.54 1198.69,-1150.49 1229.21,-1303.71 1259.66,-1341.96 1251.69,-1497.98 1246.57,-1598.15 1268.85,-1630.57 1228.69,-1722.48 1192.56,-1805.16 1111.31,-1878.37 1069.93,-1911.98"/>
<polygon fill="black" stroke="black" points="1067.59,-1909.36 1061.98,-1918.35 1071.97,-1914.83 1067.59,-1909.36"/>
<text text-anchor="middle" x="1248.69" y="-1328.29" font-family="Times,serif" font-size="14.00">3</text>
</g>
<!-- 22&#45;&gt;2 -->
<g id="edge135" class="edge">
<title>22&#45;&gt;2</title>
<path fill="none" stroke="black" d="M1189.95,-765.21C1158.65,-844.46 1062.69,-1105.78 1062.69,-1330.99 1062.69,-1628.98 1062.69,-1628.98 1062.69,-1628.98 1062.69,-1670.82 1081.56,-1693.18 1051.69,-1722.48 1022.52,-1751.1 907.92,-1729.04 868.69,-1740.48 800.77,-1760.29 728.6,-1802.54 690.65,-1826.65"/>
<polygon fill="black" stroke="black" points="688.72,-1823.73 682.2,-1832.08 692.5,-1829.62 688.72,-1823.73"/>
<text text-anchor="middle" x="1070.69" y="-1284.79" font-family="Times,serif" font-size="14.00">1</text>
</g>
<!-- 22&#45;&gt;18 -->
<g id="edge14" class="edge">
<title>22&#45;&gt;18</title>
<path fill="none" stroke="black" d="M1207.57,-714.61C1211.78,-701.47 1216.95,-685.29 1221.24,-671.89"/>
<polygon fill="black" stroke="black" points="1224.6,-672.87 1224.32,-662.28 1217.94,-670.74 1224.6,-672.87"/>
<text text-anchor="middle" x="1223.69" y="-684.3" font-family="Times,serif" font-size="14.00">2</text>
</g>
<!-- 22&#45;&gt;22 -->
<g id="edge78" class="edge">
<title>22&#45;&gt;22</title>
<path fill="none" stroke="black" d="M1224.99,-749.91C1235.51,-750.57 1244.44,-747.35 1244.44,-740.24 1244.44,-735.58 1240.59,-732.59 1234.98,-731.27"/>
<polygon fill="black" stroke="black" points="1235.21,-727.78 1224.99,-730.58 1234.72,-734.76 1235.21,-727.78"/>
<text text-anchor="middle" x="1249.44" y="-736.54" font-family="Times,serif" font-size="14.00">0</text>
</g>
<!-- 22&#45;&gt;28 -->
<g id="edge147" class="edge">
<title>22&#45;&gt;28</title>
<path fill="none" stroke="black" d="M1217.1,-760.99C1223.07,-768.26 1229.53,-776.74 1234.69,-784.99 1311.18,-907.39 1309.55,-949.19 1373.69,-1078.49 1429.87,-1191.75 1504.69,-1204.56 1504.69,-1330.99 1504.69,-1480.98 1504.69,-1480.98 1504.69,-1480.98 1504.69,-1512.64 1531.47,-1538.89 1554.23,-1555.48"/>
<polygon fill="black" stroke="black" points="1552.48,-1558.53 1562.69,-1561.36 1556.48,-1552.78 1552.48,-1558.53"/>
<text text-anchor="middle" x="1437.69" y="-1154.29" font-family="Times,serif" font-size="14.00">4</text>
</g>
<!-- 23&#45;&gt;4 -->
<g id="edge133" class="edge">
<title>23&#45;&gt;4</title>
<path fill="none" stroke="black" d="M1679.12,-940.94C1685.3,-964.46 1696.98,-1008.31 1707.69,-1045.49 1730.06,-1123.17 1731.64,-1144.04 1760.69,-1219.49 1794.48,-1307.25 1807.26,-1327.57 1850.69,-1410.98 1858.27,-1425.55 1867.38,-1441.5 1874.88,-1454.29"/>
<polygon fill="black" stroke="black" points="1871.91,-1456.15 1880.02,-1462.98 1877.94,-1452.59 1871.91,-1456.15"/>
<text text-anchor="middle" x="1765.69" y="-1197.79" font-family="Times,serif" font-size="14.00">3</text>
</g>
<!-- 23&#45;&gt;15 -->
<g id="edge49" class="edge">
<title>23&#45;&gt;15</title>
<path fill="none" stroke="black" d="M1701.4,-918.98C1721.43,-915.16 1747.55,-906.52 1760.69,-886.99 1777.8,-861.55 1761.11,-848.66 1760.69,-817.99 1759.35,-721.97 1754.69,-698.03 1754.69,-602 1754.69,-602 1754.69,-602 1754.69,-460.75 1754.69,-437.53 1748.48,-411.84 1742.81,-393.23"/>
<polygon fill="black" stroke="black" points="1746.14,-392.14 1739.76,-383.68 1739.47,-394.27 1746.14,-392.14"/>
<text text-anchor="middle" x="1760.69" y="-640.8" font-family="Times,serif" font-size="14.00">0</text>
</g>
<!-- 23&#45;&gt;22 -->
<g id="edge110" class="edge">
<title>23&#45;&gt;22</title>
<path fill="none" stroke="black" d="M1649.1,-916.99C1620.56,-911.11 1573.21,-900.42 1533.69,-886.99 1420.19,-848.45 1291.76,-787.13 1232.66,-757.86"/>
<polygon fill="black" stroke="black" points="1233.96,-754.59 1223.44,-753.27 1230.84,-760.86 1233.96,-754.59"/>
<text text-anchor="middle" x="1450.69" y="-832.29" font-family="Times,serif" font-size="14.00">2</text>
</g>
<!-- 23&#45;&gt;24 -->
<g id="edge13" class="edge">
<title>23&#45;&gt;24</title>
<path fill="none" stroke="black" d="M1672.46,-904.79C1670.96,-893.15 1668.94,-877.54 1667.21,-864.23"/>
<polygon fill="black" stroke="black" points="1670.67,-863.64 1665.91,-854.17 1663.72,-864.53 1670.67,-863.64"/>
<text text-anchor="middle" x="1675.69" y="-875.79" font-family="Times,serif" font-size="14.00">1</text>
</g>
<!-- 23&#45;&gt;29 -->
<g id="edge86" class="edge">
<title>23&#45;&gt;29</title>
<path fill="none" stroke="black" d="M1647.97,-926.16C1565.74,-933.17 1317.65,-956.76 1245.69,-991.99 1045.22,-1090.13 924.69,-1160.33 924.69,-1330.99 924.69,-1628.98 924.69,-1628.98 924.69,-1628.98 924.69,-1743.45 739.55,-1757.52 658.23,-1758.17"/>
<polygon fill="black" stroke="black" points="657.93,-1754.67 647.93,-1758.19 657.94,-1761.67 657.93,-1754.67"/>
<text text-anchor="middle" x="929.69" y="-1328.29" font-family="Times,serif" font-size="14.00">4</text>
</g>
<!-- 24&#45;&gt;3 -->
<g id="edge90" class="edge">
<title>24&#45;&gt;3</title>
<path fill="none" stroke="black" d="M1678.21,-851.53C1700.88,-874.3 1746.01,-919.8 1783.69,-958.99 1797.63,-973.5 1803.81,-975.07 1814.69,-991.99 1873.15,-1082.92 1912.76,-1206.78 1928.31,-1260.64"/>
<polygon fill="black" stroke="black" points="1925,-1261.79 1931.1,-1270.45 1931.73,-1259.87 1925,-1261.79"/>
<text text-anchor="middle" x="1866.69" y="-1067.29" font-family="Times,serif" font-size="14.00">3</text>
</g>
<!-- 24&#45;&gt;5 -->
<g id="edge82" class="edge">
<title>24&#45;&gt;5</title>
<path fill="none" stroke="black" d="M1636.48,-837.1C1558.74,-839.07 1335.49,-856.75 1245.69,-991.99 1201.02,-1059.26 1328.69,-1633.23 1328.69,-1713.98 1328.69,-1933.48 1328.69,-1933.48 1328.69,-1933.48 1328.69,-1952.73 1328.69,-1974.43 1328.69,-1991.08"/>
<polygon fill="black" stroke="black" points="1325.19,-1991.22 1328.69,-2001.22 1332.19,-1991.22 1325.19,-1991.22"/>
<text text-anchor="middle" x="1291.69" y="-1432.78" font-family="Times,serif" font-size="14.00">2</text>
</g>
<!-- 24&#45;&gt;13 -->
<g id="edge63" class="edge">
<title>24&#45;&gt;13</title>
<path fill="none" stroke="black" d="M1678.92,-820.79C1707.85,-793.05 1771,-728.55 1806.69,-662.5 1841.17,-598.67 1832.97,-575.71 1854.69,-506.5 1855.61,-503.55 1856.58,-500.49 1857.55,-497.42"/>
<polygon fill="black" stroke="black" points="1860.94,-498.31 1860.64,-487.72 1854.27,-496.18 1860.94,-498.31"/>
<text text-anchor="middle" x="1828.69" y="-640.8" font-family="Times,serif" font-size="14.00">0</text>
</g>
<!-- 24&#45;&gt;22 -->
<g id="edge141" class="edge">
<title>24&#45;&gt;22</title>
<path fill="none" stroke="black" d="M1637.46,-830.87C1598.86,-824.71 1524.53,-812.47 1461.69,-799.99 1380.42,-783.85 1285.69,-761.8 1235.38,-749.83"/>
<polygon fill="black" stroke="black" points="1236.17,-746.42 1225.63,-747.5 1234.54,-753.23 1236.17,-746.42"/>
<text text-anchor="middle" x="1466.69" y="-788.79" font-family="Times,serif" font-size="14.00">1</text>
</g>
<!-- 24&#45;&gt;24 -->
<g id="edge97" class="edge">
<title>24&#45;&gt;24</title>
<path fill="none" stroke="black" d="M1688.22,-843.74C1699.2,-844.48 1708.69,-841.9 1708.69,-835.99 1708.69,-832.02 1704.4,-829.56 1698.26,-828.59"/>
<polygon fill="black" stroke="black" points="1698.34,-825.09 1688.22,-828.24 1698.09,-832.08 1698.34,-825.09"/>
<text text-anchor="middle" x="1713.69" y="-832.29" font-family="Times,serif" font-size="14.00">4</text>
</g>
<!-- 25&#45;&gt;2 -->
<g id="edge12" class="edge">
<title>25&#45;&gt;2</title>
<path fill="none" stroke="black" d="M143.07,-209.74C148.05,-226.74 154.69,-253.92 154.69,-278 154.69,-880.49 154.69,-880.49 154.69,-880.49 154.69,-964.72 156.69,-985.76 156.69,-1069.99 156.69,-1245.99 156.69,-1245.99 156.69,-1245.99 156.69,-1320.69 166.85,-1339.55 188.69,-1410.98 205.63,-1466.4 209.48,-1481.53 239.69,-1530.98 245.12,-1539.87 249.5,-1539.96 254.69,-1548.98 279.32,-1591.83 276.97,-1606.63 292.69,-1653.48 315.76,-1722.25 284.75,-1763.3 340.69,-1809.48 362.39,-1827.39 546.5,-1838.65 626.65,-1842.74"/>
<polygon fill="black" stroke="black" points="626.63,-1846.24 636.8,-1843.25 626.98,-1839.25 626.63,-1846.24"/>
<text text-anchor="middle" x="161.69" y="-1015.04" font-family="Times,serif" font-size="14.00">0</text>
</g>
<!-- 25&#45;&gt;2 -->
<g id="edge131" class="edge">
<title>25&#45;&gt;2</title>
<path fill="none" stroke="black" d="M136.58,-210.21C131.5,-290.62 110.69,-637.35 110.69,-921.99 110.69,-1071.99 110.69,-1071.99 110.69,-1071.99 110.69,-1224.84 129.69,-1263.19 168.69,-1410.98 171.44,-1421.42 295.93,-1766.79 300.69,-1776.48 308.35,-1792.08 306.9,-1800.35 321.69,-1809.48 371.89,-1840.47 548.52,-1844.47 626.37,-1844.68"/>
<polygon fill="black" stroke="black" points="626.67,-1848.18 636.67,-1844.69 626.68,-1841.18 626.67,-1848.18"/>
<text text-anchor="middle" x="115.69" y="-1015.04" font-family="Times,serif" font-size="14.00">2</text>
</g>
<!-- 25&#45;&gt;3 -->
<g id="edge15" class="edge">
<title>25&#45;&gt;3</title>
<path fill="none" stroke="black" d="M164.46,-194.48C225.15,-197.77 377.84,-205.76 505.69,-210 703.4,-216.56 1199.83,-200.22 1395.69,-228 1569.25,-252.62 1604.54,-296.94 1776.69,-330 1843.5,-342.83 1863.19,-329.62 1928.69,-348 1984.22,-363.58 1998.62,-370.12 2046.69,-402 2285.04,-560.06 2093.19,-763.47 2045.69,-1045.49 2032.53,-1123.64 2043.64,-1149.38 2006.69,-1219.49 1998.11,-1235.77 1994.69,-1239.46 1981.69,-1252.49 1975.81,-1258.38 1968.91,-1264.13 1962.26,-1269.21"/>
<polygon fill="black" stroke="black" points="1960.05,-1266.49 1954.09,-1275.25 1964.21,-1272.12 1960.05,-1266.49"/>
<text text-anchor="middle" x="2149.69" y="-736.54" font-family="Times,serif" font-size="14.00">3</text>
</g>
<!-- 25&#45;&gt;10 -->
<g id="edge22" class="edge">
<title>25&#45;&gt;10</title>
<path fill="none" stroke="black" d="M152.68,-176.7C167.07,-162.97 189.4,-141.61 208.69,-123 240.36,-92.45 239.95,-72.89 279.69,-54 325.26,-32.33 472.18,-23.44 541.65,-20.38"/>
<polygon fill="black" stroke="black" points="541.87,-23.87 551.71,-19.95 541.57,-16.88 541.87,-23.87"/>
<text text-anchor="middle" x="244.69" y="-101.3" font-family="Times,serif" font-size="14.00">1</text>
</g>
<!-- 25&#45;&gt;17 -->
<g id="edge114" class="edge">
<title>25&#45;&gt;17</title>
<path fill="none" stroke="black" d="M144.6,-174.21C149.57,-162.14 156.37,-145.64 162.03,-131.89"/>
<polygon fill="black" stroke="black" points="165.34,-133.05 165.91,-122.47 158.86,-130.38 165.34,-133.05"/>
<text text-anchor="middle" x="162.69" y="-144.8" font-family="Times,serif" font-size="14.00">4</text>
</g>
<!-- 26&#45;&gt;5 -->
<g id="edge125" class="edge">
<title>26&#45;&gt;5</title>
<path fill="none" stroke="black" d="M843.22,-468.63C818.22,-475.18 779.74,-487.45 750.69,-506.5 724.93,-523.39 702.69,-525.69 702.69,-556.5 702.69,-1071.99 702.69,-1071.99 702.69,-1071.99 702.69,-1148.48 696.69,-1167.5 696.69,-1243.99 696.69,-1437.48 696.69,-1437.48 696.69,-1437.48 696.69,-1521.02 667.75,-1545.48 606.69,-1602.48 457.24,-1741.98 299.03,-1622.37 188.69,-1794.48 143.78,-1864.53 144.56,-1944.72 203.69,-1983.48 254.48,-2016.78 1237.88,-1986.31 1296.69,-2001.48 1297.92,-2001.8 1299.16,-2002.17 1300.4,-2002.59"/>
<polygon fill="black" stroke="black" points="1299.08,-2005.84 1309.66,-2006.51 1301.81,-1999.39 1299.08,-2005.84"/>
<text text-anchor="middle" x="701.69" y="-1241.29" font-family="Times,serif" font-size="14.00">1</text>
</g>
<!-- 26&#45;&gt;9 -->
<g id="edge98" class="edge">
<title>26&#45;&gt;9</title>
<path fill="none" stroke="black" d="M892.99,-470.01C970.48,-493.58 1209.82,-569.68 1265.69,-626.5 1342.27,-704.38 1312.63,-754.94 1358.69,-853.99 1409.99,-964.31 1456.62,-978.35 1485.69,-1096.49 1522.19,-1244.84 1428.69,-1282.7 1428.69,-1435.48 1428.69,-1576.73 1428.69,-1576.73 1428.69,-1576.73 1428.69,-1599.04 1428.69,-1624.35 1428.69,-1643.03"/>
<polygon fill="black" stroke="black" points="1425.19,-1643.2 1428.69,-1653.2 1432.19,-1643.2 1425.19,-1643.2"/>
<text text-anchor="middle" x="1486.69" y="-1067.29" font-family="Times,serif" font-size="14.00">4</text>
</g>
<!-- 26&#45;&gt;15 -->
<g id="edge95" class="edge">
<title>26&#45;&gt;15</title>
<path fill="none" stroke="black" d="M895.44,-459.26C974.25,-454.74 1212.28,-440.03 1408.69,-417 1514.06,-404.64 1637.72,-383.88 1697.58,-373.42"/>
<polygon fill="black" stroke="black" points="1698.41,-376.83 1707.66,-371.66 1697.2,-369.94 1698.41,-376.83"/>
<text text-anchor="middle" x="1521.69" y="-405.8" font-family="Times,serif" font-size="14.00">3</text>
</g>
<!-- 26&#45;&gt;21 -->
<g id="edge50" class="edge">
<title>26&#45;&gt;21</title>
<path fill="none" stroke="black" d="M841.47,-459.64C789.66,-456.88 673.78,-447.53 581.69,-417 558.08,-409.18 533.32,-395.76 515.15,-384.8"/>
<polygon fill="black" stroke="black" points="516.63,-381.6 506.28,-379.33 512.95,-387.56 516.63,-381.6"/>
<text text-anchor="middle" x="586.69" y="-405.8" font-family="Times,serif" font-size="14.00">0</text>
</g>
<!-- 26&#45;&gt;22 -->
<g id="edge107" class="edge">
<title>26&#45;&gt;22</title>
<path fill="none" stroke="black" d="M890.49,-472.59C919.42,-486.04 971.64,-511.7 1012.69,-539.5 1043.5,-560.36 1052.79,-564.96 1076.69,-593.5 1110.31,-633.65 1100.07,-657.1 1135.69,-695.5 1144.93,-705.46 1156.84,-714.37 1167.88,-721.51"/>
<polygon fill="black" stroke="black" points="1166.13,-724.55 1176.47,-726.84 1169.82,-718.6 1166.13,-724.55"/>
<text text-anchor="middle" x="1093.69" y="-597.3" font-family="Times,serif" font-size="14.00">2</text>
</g>
<!-- 27&#45;&gt;5 -->
<g id="edge45" class="edge">
<title>27&#45;&gt;5</title>
<path fill="none" stroke="black" d="M62.65,-297.25C63.53,-314.42 64.69,-341.52 64.69,-365 64.69,-967.49 64.69,-967.49 64.69,-967.49 64.69,-1056.85 83.21,-1077.66 99.69,-1165.49 111.47,-1228.28 114.6,-1243.95 127.69,-1306.49 137.43,-1353.03 138.8,-1364.94 150.69,-1410.98 168.25,-1478.99 240.69,-1643.74 240.69,-1713.98 240.69,-1933.48 240.69,-1933.48 240.69,-1933.48 240.69,-2051.06 1183.57,-1969.4 1296.69,-2001.48 1297.91,-2001.83 1299.15,-2002.23 1300.38,-2002.67"/>
<polygon fill="black" stroke="black" points="1299.04,-2005.9 1309.61,-2006.67 1301.83,-1999.48 1299.04,-2005.9"/>
<text text-anchor="middle" x="104.69" y="-1154.29" font-family="Times,serif" font-size="14.00">0</text>
</g>
<!-- 27&#45;&gt;6 -->
<g id="edge123" class="edge">
<title>27&#45;&gt;6</title>
<path fill="none" stroke="black" d="M50.81,-295.81C40.53,-312.31 26.69,-339.31 26.69,-365 26.69,-967.49 26.69,-967.49 26.69,-967.49 26.69,-1263.95 126.69,-1330.52 126.69,-1626.98 126.69,-2020.48 126.69,-2020.48 126.69,-2020.48 126.69,-2113.81 1671.86,-2110.72 1916.3,-2109.65"/>
<polygon fill="black" stroke="black" points="1916.65,-2113.15 1926.63,-2109.6 1916.62,-2106.15 1916.65,-2113.15"/>
<text text-anchor="middle" x="61.69" y="-1197.79" font-family="Times,serif" font-size="14.00">3</text>
</g>
<!-- 27&#45;&gt;17 -->
<g id="edge3" class="edge">
<title>27&#45;&gt;17</title>
<path fill="none" stroke="black" d="M63.51,-260.89C66.49,-239.17 73.96,-201.25 91.69,-174 105.16,-153.29 126.84,-135.57 144.39,-123.41"/>
<polygon fill="black" stroke="black" points="146.75,-126.04 153.12,-117.57 142.86,-120.22 146.75,-126.04"/>
<text text-anchor="middle" x="96.69" y="-188.3" font-family="Times,serif" font-size="14.00">1</text>
</g>
<!-- 27&#45;&gt;22 -->
<g id="edge89" class="edge">
<title>27&#45;&gt;22</title>
<path fill="none" stroke="black" d="M88.93,-280.36C197.22,-282.7 605.81,-300.5 904.69,-435 1007.48,-481.26 1032.08,-505.63 1102.69,-593.5 1132.8,-630.97 1162.72,-677.76 1181.2,-708.06"/>
<polygon fill="black" stroke="black" points="1178.38,-710.16 1186.56,-716.91 1184.37,-706.54 1178.38,-710.16"/>
<text text-anchor="middle" x="1045.69" y="-510.3" font-family="Times,serif" font-size="14.00">2</text>
</g>
<!-- 27&#45;&gt;25 -->
<g id="edge116" class="edge">
<title>27&#45;&gt;25</title>
<path fill="none" stroke="black" d="M73.06,-262.19C80.55,-252.1 90.77,-238.92 100.69,-228 105.06,-223.19 109.97,-218.26 114.75,-213.67"/>
<polygon fill="black" stroke="black" points="117.17,-216.2 122.06,-206.81 112.37,-211.1 117.17,-216.2"/>
<text text-anchor="middle" x="105.69" y="-231.8" font-family="Times,serif" font-size="14.00">4</text>
</g>
<!-- 28&#45;&gt;4 -->
<g id="edge11" class="edge">
<title>28&#45;&gt;4</title>
<path fill="none" stroke="black" d="M1611.74,-1569.5C1656.9,-1560.32 1747.82,-1541.32 1778.69,-1530.98 1806.97,-1521.51 1837.8,-1507.29 1859.78,-1496.43"/>
<polygon fill="black" stroke="black" points="1861.54,-1499.47 1868.91,-1491.86 1858.41,-1493.21 1861.54,-1499.47"/>
<text text-anchor="middle" x="1821.69" y="-1519.78" font-family="Times,serif" font-size="14.00">1</text>
</g>
<!-- 28&#45;&gt;5 -->
<g id="edge25" class="edge">
<title>28&#45;&gt;5</title>
<path fill="none" stroke="black" d="M1610.7,-1585.49C1642.88,-1598.56 1694.69,-1626.43 1694.69,-1670.48 1694.69,-1933.48 1694.69,-1933.48 1694.69,-1933.48 1694.69,-2000.53 1458.67,-2014.71 1365.69,-2017.69"/>
<polygon fill="black" stroke="black" points="1365.49,-2014.19 1355.6,-2017.99 1365.7,-2021.19 1365.49,-2014.19"/>
<text text-anchor="middle" x="1699.69" y="-1798.28" font-family="Times,serif" font-size="14.00">3</text>
</g>
<!-- 28&#45;&gt;10 -->
<g id="edge41" class="edge">
<title>28&#45;&gt;10</title>
<path fill="none" stroke="black" d="M1583.57,-1548.89C1582.21,-1530.07 1580.69,-1503.97 1580.69,-1480.98 1580.69,-1480.98 1580.69,-1480.98 1580.69,-1156.99 1580.69,-984.71 1528.36,-947.69 1471.69,-784.99 1400.7,-581.2 1240.48,-283.39 1215.69,-261 1031.48,-94.67 721.38,-38.43 615.45,-23.55"/>
<polygon fill="black" stroke="black" points="615.65,-20.04 605.27,-22.16 614.7,-26.98 615.65,-20.04"/>
<text text-anchor="middle" x="1482.69" y="-788.79" font-family="Times,serif" font-size="14.00">4</text>
</g>
<!-- 28&#45;&gt;21 -->
<g id="edge148" class="edge">
<title>28&#45;&gt;21</title>
<path fill="none" stroke="black" d="M1569.92,-1554C1557.65,-1535.78 1542.69,-1508.02 1542.69,-1480.98 1542.69,-1480.98 1542.69,-1480.98 1542.69,-1156.99 1542.69,-1005.52 1443.87,-994.25 1386.69,-853.99 1376.27,-828.43 1372.69,-821.09 1372.69,-793.49 1372.69,-793.49 1372.69,-793.49 1372.69,-643.5 1372.69,-462.86 692.47,-386.43 524.73,-370.34"/>
<polygon fill="black" stroke="black" points="524.94,-366.84 514.66,-369.38 524.28,-373.81 524.94,-366.84"/>
<text text-anchor="middle" x="1467.69" y="-962.79" font-family="Times,serif" font-size="14.00">2</text>
</g>
<!-- 28&#45;&gt;28 -->
<g id="edge61" class="edge">
<title>28&#45;&gt;28</title>
<path fill="none" stroke="black" d="M1610.99,-1585.4C1621.51,-1586.06 1630.44,-1582.84 1630.44,-1575.73 1630.44,-1571.07 1626.59,-1568.08 1620.98,-1566.76"/>
<polygon fill="black" stroke="black" points="1621.21,-1563.27 1610.99,-1566.07 1620.72,-1570.25 1621.21,-1563.27"/>
<text text-anchor="middle" x="1635.44" y="-1572.03" font-family="Times,serif" font-size="14.00">0</text>
</g>
<!-- 29&#45;&gt;9 -->
<g id="edge67" class="edge">
<title>29&#45;&gt;9</title>
<path fill="none" stroke="black" d="M647.11,-1754.7C766.26,-1742.17 1253.72,-1690.89 1391.98,-1676.34"/>
<polygon fill="black" stroke="black" points="1392.48,-1679.81 1402.06,-1675.28 1391.75,-1672.85 1392.48,-1679.81"/>
<text text-anchor="middle" x="1078.69" y="-1711.28" font-family="Times,serif" font-size="14.00">3</text>
</g>
<!-- 29&#45;&gt;10 -->
<g id="edge118" class="edge">
<title>29&#45;&gt;10</title>
<path fill="none" stroke="black" d="M593.62,-1755.85C544.75,-1752.42 444.28,-1743.03 416.69,-1722.48 347.67,-1671.07 384.31,-1616.3 330.69,-1548.98 322.82,-1539.1 316.01,-1541.28 308.69,-1530.98 275.76,-1484.69 274.62,-1466.91 264.69,-1410.98 260.53,-1387.57 264.39,-1381.26 264.69,-1357.49 267.36,-1145.44 276.69,-1092.56 276.69,-880.49 276.69,-880.49 276.69,-880.49 276.69,-513 276.69,-300.36 252.56,-195.05 411.69,-54 430.63,-37.21 498.71,-27.24 541.88,-22.46"/>
<polygon fill="black" stroke="black" points="542.43,-25.93 552.01,-21.39 541.7,-18.96 542.43,-25.93"/>
<text text-anchor="middle" x="281.69" y="-875.79" font-family="Times,serif" font-size="14.00">2</text>
</g>
<!-- 29&#45;&gt;13 -->
<g id="edge73" class="edge">
<title>29&#45;&gt;13</title>
<path fill="none" stroke="black" d="M623.59,-1740.25C627.77,-1718.75 636.89,-1681.4 653.69,-1653.48 693.91,-1586.65 772.69,-1602.48 772.69,-1524.48 772.69,-1524.48 772.69,-1524.48 772.69,-1330.99 772.69,-1215.71 786.69,-1187.27 786.69,-1071.99 786.69,-1071.99 786.69,-1071.99 786.69,-687 786.69,-608.04 814.46,-573.55 885.69,-539.5 907.49,-529.07 1656.15,-477.29 1831.99,-465.25"/>
<polygon fill="black" stroke="black" points="1832.3,-468.74 1842.03,-464.56 1831.82,-461.75 1832.3,-468.74"/>
<text text-anchor="middle" x="791.69" y="-1110.79" font-family="Times,serif" font-size="14.00">1</text>
</g>
<!-- 29&#45;&gt;21 -->
<g id="edge57" class="edge">
<title>29&#45;&gt;21</title>
<path fill="none" stroke="black" d="M594.32,-1754.04C560.56,-1749.04 504.95,-1738.55 492.69,-1722.48 488.64,-1717.18 492.43,-1714.14 492.69,-1707.48 495.8,-1625.97 506.69,-1606.05 506.69,-1524.48 506.69,-1524.48 506.69,-1524.48 506.69,-1243.99 506.69,-1167.54 504.69,-1148.44 504.69,-1071.99 504.69,-1071.99 504.69,-1071.99 504.69,-513 504.69,-471.18 497.72,-423.07 492.71,-393.87"/>
<polygon fill="black" stroke="black" points="496.15,-393.25 490.97,-384.01 489.26,-394.46 496.15,-393.25"/>
<text text-anchor="middle" x="510.69" y="-1067.29" font-family="Times,serif" font-size="14.00">0</text>
</g>
<!-- 29&#45;&gt;22 -->
<g id="edge145" class="edge">
<title>29&#45;&gt;22</title>
<path fill="none" stroke="black" d="M647.66,-1756.76C715.28,-1753.36 886.69,-1734.37 886.69,-1628.98 886.69,-1628.98 886.69,-1628.98 886.69,-1330.99 886.69,-1117.84 881.34,-1028.82 1025.69,-871.99 1064.91,-829.38 1075.69,-818.82 1122.69,-784.99 1136.61,-774.97 1153.02,-765.38 1167.11,-757.74"/>
<polygon fill="black" stroke="black" points="1168.8,-760.81 1175.98,-753.02 1165.51,-754.63 1168.8,-760.81"/>
<text text-anchor="middle" x="892.69" y="-1241.29" font-family="Times,serif" font-size="14.00">4</text>
</g>
</g>
</svg>
