<?xml version="1.0" encoding="UTF-8" standalone="no"?>
<!DOCTYPE svg PUBLIC "-//W3C//DTD SVG 1.1//EN"
 "http://www.w3.org/Graphics/SVG/1.1/DTD/svg11.dtd">
<!-- Generated by graphviz version 2.49.0 (20210829.0051)
 -->
<!-- Pages: 1 -->
<svg width="2739pt" height="2291pt"
 viewBox="0.00 0.00 2739.33 2290.98" xmlns="http://www.w3.org/2000/svg" xmlns:xlink="http://www.w3.org/1999/xlink">
<g id="graph0" class="graph" transform="scale(1 1) rotate(0) translate(4 2286.98)">
<polygon fill="white" stroke="transparent" points="-4,4 -4,-2286.98 2735.33,-2286.98 2735.33,4 -4,4"/>
<!-- fake -->
<g id="node1" class="node">
<title>fake</title>
</g>
<!-- 0 -->
<g id="node2" class="node">
<title>0</title>
<ellipse fill="none" stroke="black" cx="2059.75" cy="-2187.98" rx="18" ry="18"/>
<ellipse fill="none" stroke="black" cx="2059.75" cy="-2187.98" rx="22" ry="22"/>
<text text-anchor="middle" x="2059.75" y="-2184.28" font-family="Times,serif" font-size="14.00">0</text>
</g>
<!-- fake&#45;&gt;0 -->
<g id="edge1" class="edge">
<title>fake&#45;&gt;0</title>
<path fill="none" stroke="black" stroke-width="2" d="M2059.75,-2246.97C2059.75,-2239.14 2059.75,-2229.59 2059.75,-2220.52"/>
<polygon fill="black" stroke="black" stroke-width="2" points="2063.25,-2220.23 2059.75,-2210.23 2056.25,-2220.23 2063.25,-2220.23"/>
</g>
<!-- 6 -->
<g id="node8" class="node">
<title>6</title>
<ellipse fill="none" stroke="black" cx="1949.75" cy="-2096.98" rx="27" ry="18"/>
<text text-anchor="middle" x="1949.75" y="-2093.28" font-family="Times,serif" font-size="14.00">6</text>
</g>
<!-- 0&#45;&gt;6 -->
<g id="edge24" class="edge">
<title>0&#45;&gt;6</title>
<path fill="none" stroke="black" d="M2043.05,-2173.47C2024.69,-2158.61 1995.03,-2134.62 1974.09,-2117.67"/>
<polygon fill="black" stroke="black" points="1976.23,-2114.91 1966.26,-2111.34 1971.83,-2120.35 1976.23,-2114.91"/>
<text text-anchor="middle" x="2016.75" y="-2136.78" font-family="Times,serif" font-size="14.00">1</text>
</g>
<!-- 7 -->
<g id="node9" class="node">
<title>7</title>
<ellipse fill="none" stroke="black" cx="1595.75" cy="-196" rx="18" ry="18"/>
<ellipse fill="none" stroke="black" cx="1595.75" cy="-196" rx="22" ry="22"/>
<text text-anchor="middle" x="1595.75" y="-192.3" font-family="Times,serif" font-size="14.00">7</text>
</g>
<!-- 0&#45;&gt;7 -->
<g id="edge76" class="edge">
<title>0&#45;&gt;7</title>
<path fill="none" stroke="black" d="M2081.88,-2184.82C2148.36,-2177.73 2341.75,-2152.4 2341.75,-2097.98 2341.75,-2097.98 2341.75,-2097.98 2341.75,-1878.48 2341.75,-1752.72 2455.75,-1745.25 2455.75,-1619.48 2455.75,-1619.48 2455.75,-1619.48 2455.75,-434 2455.75,-298.44 2352.49,-278.45 2223.75,-236 2168.95,-217.93 1762.09,-224.48 1704.75,-218 1678.26,-215.01 1648.56,-209.11 1626.87,-204.33"/>
<polygon fill="black" stroke="black" points="1627.43,-200.87 1616.91,-202.09 1625.9,-207.7 1627.43,-200.87"/>
<text text-anchor="middle" x="2460.75" y="-1223.28" font-family="Times,serif" font-size="14.00">4</text>
</g>
<!-- 12 -->
<g id="node14" class="node">
<title>12</title>
<ellipse fill="none" stroke="black" cx="2038.75" cy="-574.24" rx="22.96" ry="22.96"/>
<ellipse fill="none" stroke="black" cx="2038.75" cy="-574.24" rx="27" ry="27"/>
<text text-anchor="middle" x="2038.75" y="-570.54" font-family="Times,serif" font-size="14.00">12</text>
</g>
<!-- 0&#45;&gt;12 -->
<g id="edge16" class="edge">
<title>0&#45;&gt;12</title>
<path fill="none" stroke="black" d="M2082.03,-2186.73C2143.17,-2185.62 2312,-2179.69 2355.75,-2147.98 2375.71,-2133.52 2379.75,-2122.63 2379.75,-2097.98 2379.75,-2097.98 2379.75,-2097.98 2379.75,-1530.48 2379.75,-1452.89 2409.75,-1436.08 2409.75,-1358.48 2409.75,-1358.48 2409.75,-1358.48 2409.75,-886.49 2409.75,-748.06 2324.36,-721.68 2204.75,-651.99 2155.04,-623.02 2137.49,-626.18 2085.75,-600.99 2080.96,-598.66 2075.96,-596.08 2071.09,-593.48"/>
<polygon fill="black" stroke="black" points="2072.41,-590.22 2061.95,-588.53 2069.07,-596.37 2072.41,-590.22"/>
<text text-anchor="middle" x="2412.75" y="-1397.28" font-family="Times,serif" font-size="14.00">3</text>
</g>
<!-- 14 -->
<g id="node16" class="node">
<title>14</title>
<ellipse fill="none" stroke="black" cx="1955.75" cy="-1400.98" rx="27" ry="18"/>
<text text-anchor="middle" x="1955.75" y="-1397.28" font-family="Times,serif" font-size="14.00">14</text>
</g>
<!-- 0&#45;&gt;14 -->
<g id="edge9" class="edge">
<title>0&#45;&gt;14</title>
<path fill="none" stroke="black" d="M2074.76,-2171.72C2089.48,-2155.05 2109.75,-2126.87 2109.75,-2097.98 2109.75,-2097.98 2109.75,-2097.98 2109.75,-1965.48 2109.75,-1887.2 2071.75,-1871.77 2071.75,-1793.48 2071.75,-1793.48 2071.75,-1793.48 2071.75,-1486.98 2071.75,-1446.19 2024.51,-1422.85 1990.32,-1411.3"/>
<polygon fill="black" stroke="black" points="1991.23,-1407.91 1980.64,-1408.21 1989.11,-1414.58 1991.23,-1407.91"/>
<text text-anchor="middle" x="2077.75" y="-1788.78" font-family="Times,serif" font-size="14.00">2</text>
</g>
<!-- 23 -->
<g id="node25" class="node">
<title>23</title>
<ellipse fill="none" stroke="black" cx="1675.75" cy="-939.74" rx="22.96" ry="22.96"/>
<ellipse fill="none" stroke="black" cx="1675.75" cy="-939.74" rx="27" ry="27"/>
<text text-anchor="middle" x="1675.75" y="-936.04" font-family="Times,serif" font-size="14.00">23</text>
</g>
<!-- 0&#45;&gt;23 -->
<g id="edge48" class="edge">
<title>0&#45;&gt;23</title>
<path fill="none" stroke="black" d="M2081.87,-2185.15C2126.64,-2180.1 2223.75,-2161.8 2223.75,-2097.98 2223.75,-2097.98 2223.75,-2097.98 2223.75,-1530.48 2223.75,-1425.23 2248.82,-1383.77 2190.75,-1295.98 2091.16,-1145.41 1988.66,-1192.81 1842.75,-1086.49 1790,-1048.05 1733.84,-996.56 1701.94,-966.19"/>
<polygon fill="black" stroke="black" points="1704.02,-963.33 1694.37,-958.95 1699.18,-968.39 1704.02,-963.33"/>
<text text-anchor="middle" x="2228.75" y="-1571.28" font-family="Times,serif" font-size="14.00">0</text>
</g>
<!-- 1 -->
<g id="node3" class="node">
<title>1</title>
<ellipse fill="none" stroke="black" cx="1045.75" cy="-1922.98" rx="27" ry="18"/>
<text text-anchor="middle" x="1045.75" y="-1919.28" font-family="Times,serif" font-size="14.00">1</text>
</g>
<!-- 2 -->
<g id="node4" class="node">
<title>2</title>
<ellipse fill="none" stroke="black" cx="664.75" cy="-1835.98" rx="27" ry="18"/>
<text text-anchor="middle" x="664.75" y="-1832.28" font-family="Times,serif" font-size="14.00">2</text>
</g>
<!-- 1&#45;&gt;2 -->
<g id="edge30" class="edge">
<title>1&#45;&gt;2</title>
<path fill="none" stroke="black" d="M1018.81,-1921.08C951.34,-1918.49 776.71,-1909.73 723.75,-1886.98 709.06,-1880.67 695.27,-1869.41 684.72,-1859.18"/>
<polygon fill="black" stroke="black" points="687.16,-1856.66 677.65,-1851.99 682.17,-1861.57 687.16,-1856.66"/>
<text text-anchor="middle" x="728.75" y="-1875.78" font-family="Times,serif" font-size="14.00">4</text>
</g>
<!-- 5 -->
<g id="node7" class="node">
<title>5</title>
<ellipse fill="none" stroke="black" cx="1329.75" cy="-2009.98" rx="27" ry="18"/>
<text text-anchor="middle" x="1329.75" y="-2006.28" font-family="Times,serif" font-size="14.00">5</text>
</g>
<!-- 1&#45;&gt;5 -->
<g id="edge129" class="edge">
<title>1&#45;&gt;5</title>
<path fill="none" stroke="black" d="M1069.01,-1932.21C1086.4,-1938.68 1110.56,-1948.36 1130.75,-1958.98 1141.55,-1964.67 1142.45,-1969.38 1153.75,-1973.98 1199.57,-1992.66 1256.28,-2001.64 1292.73,-2005.76"/>
<polygon fill="black" stroke="black" points="1292.59,-2009.26 1302.9,-2006.84 1293.33,-2002.3 1292.59,-2009.26"/>
<text text-anchor="middle" x="1158.75" y="-1962.78" font-family="Times,serif" font-size="14.00">0</text>
</g>
<!-- 11 -->
<g id="node13" class="node">
<title>11</title>
<ellipse fill="none" stroke="black" cx="1150.75" cy="-287" rx="27" ry="18"/>
<text text-anchor="middle" x="1150.75" y="-283.3" font-family="Times,serif" font-size="14.00">11</text>
</g>
<!-- 1&#45;&gt;11 -->
<g id="edge124" class="edge">
<title>1&#45;&gt;11</title>
<path fill="none" stroke="black" d="M1031.19,-1907.46C980.64,-1856.89 813.47,-1688.22 769.75,-1625.98 694.8,-1519.28 668.16,-1491.29 635.75,-1364.98 604.26,-1242.25 627.75,-1206.7 627.75,-1079.99 627.75,-1079.99 627.75,-1079.99 627.75,-625.49 627.75,-544.94 643.12,-514.65 702.75,-460.5 826.56,-348.05 1031.54,-305.9 1114.36,-292.93"/>
<polygon fill="black" stroke="black" points="1114.94,-296.39 1124.31,-291.43 1113.89,-289.46 1114.94,-296.39"/>
<text text-anchor="middle" x="632.75" y="-1127.54" font-family="Times,serif" font-size="14.00">2</text>
</g>
<!-- 18 -->
<g id="node20" class="node">
<title>18</title>
<ellipse fill="none" stroke="black" cx="1228.75" cy="-669.99" rx="27" ry="18"/>
<text text-anchor="middle" x="1228.75" y="-666.29" font-family="Times,serif" font-size="14.00">18</text>
</g>
<!-- 1&#45;&gt;18 -->
<g id="edge137" class="edge">
<title>1&#45;&gt;18</title>
<path fill="none" stroke="black" d="M1038.9,-1905.36C1024.45,-1868.51 992.57,-1776.96 997.75,-1697.98 1004.47,-1595.67 1113.3,-761.75 1124.75,-738.99 1138.88,-710.92 1170.6,-692.78 1195.32,-682.36"/>
<polygon fill="black" stroke="black" points="1196.74,-685.56 1204.74,-678.61 1194.15,-679.05 1196.74,-685.56"/>
<text text-anchor="middle" x="1050.75" y="-1310.28" font-family="Times,serif" font-size="14.00">3</text>
</g>
<!-- 26 -->
<g id="node28" class="node">
<title>26</title>
<ellipse fill="none" stroke="black" cx="840.75" cy="-478.5" rx="27" ry="18"/>
<text text-anchor="middle" x="840.75" y="-474.8" font-family="Times,serif" font-size="14.00">26</text>
</g>
<!-- 1&#45;&gt;26 -->
<g id="edge51" class="edge">
<title>1&#45;&gt;26</title>
<path fill="none" stroke="black" d="M1018.9,-1920.83C991.66,-1918.31 949.78,-1910.54 922.75,-1886.98 795.39,-1775.97 828.36,-1697.45 769.75,-1538.98 698.86,-1347.3 741.75,-1284.37 741.75,-1079.99 741.75,-1079.99 741.75,-1079.99 741.75,-573.24 741.75,-535.44 780.29,-508.32 809.27,-493.26"/>
<polygon fill="black" stroke="black" points="810.88,-496.37 818.29,-488.8 807.77,-490.1 810.88,-496.37"/>
<text text-anchor="middle" x="741.75" y="-1223.28" font-family="Times,serif" font-size="14.00">1</text>
</g>
<!-- 2&#45;&gt;2 -->
<g id="edge8" class="edge">
<title>2&#45;&gt;2</title>
<path fill="none" stroke="black" d="M689.29,-1843.74C700.26,-1844.47 709.75,-1841.89 709.75,-1835.98 709.75,-1832.02 705.47,-1829.55 699.33,-1828.58"/>
<polygon fill="black" stroke="black" points="699.4,-1825.08 689.29,-1828.23 699.16,-1832.07 699.4,-1825.08"/>
<text text-anchor="middle" x="714.75" y="-1832.28" font-family="Times,serif" font-size="14.00">0</text>
</g>
<!-- 2&#45;&gt;6 -->
<g id="edge101" class="edge">
<title>2&#45;&gt;6</title>
<path fill="none" stroke="black" d="M672.36,-1853.5C677.91,-1864.13 686.29,-1877.66 696.75,-1886.98 828.22,-2004.17 881.98,-2017.96 1052.75,-2060.98 1136.87,-2082.18 1753.1,-2092.98 1912.3,-2095.44"/>
<polygon fill="black" stroke="black" points="1912.49,-2098.94 1922.54,-2095.59 1912.59,-2091.94 1912.49,-2098.94"/>
<text text-anchor="middle" x="811.75" y="-1962.78" font-family="Times,serif" font-size="14.00">1</text>
</g>
<!-- 17 -->
<g id="node19" class="node">
<title>17</title>
<ellipse fill="none" stroke="black" cx="166.75" cy="-105" rx="27" ry="18"/>
<text text-anchor="middle" x="166.75" y="-101.3" font-family="Times,serif" font-size="14.00">17</text>
</g>
<!-- 2&#45;&gt;17 -->
<g id="edge35" class="edge">
<title>2&#45;&gt;17</title>
<path fill="none" stroke="black" d="M640.19,-1827.98C590.48,-1812.95 475.95,-1773.95 396.75,-1712.98 311.34,-1647.22 195.75,-1379.28 195.75,-1271.48 195.75,-1271.48 195.75,-1271.48 195.75,-1077.99 195.75,-993.76 193.75,-972.72 193.75,-888.49 193.75,-888.49 193.75,-888.49 193.75,-195 193.75,-173 186.11,-149.2 178.95,-131.76"/>
<polygon fill="black" stroke="black" points="182.03,-130.07 174.85,-122.28 175.61,-132.85 182.03,-130.07"/>
<text text-anchor="middle" x="200.75" y="-988.29" font-family="Times,serif" font-size="14.00">3</text>
</g>
<!-- 28 -->
<g id="node30" class="node">
<title>28</title>
<ellipse fill="none" stroke="black" cx="1584.75" cy="-1574.98" rx="27" ry="18"/>
<text text-anchor="middle" x="1584.75" y="-1571.28" font-family="Times,serif" font-size="14.00">28</text>
</g>
<!-- 2&#45;&gt;28 -->
<g id="edge27" class="edge">
<title>2&#45;&gt;28</title>
<path fill="none" stroke="black" d="M691.73,-1833.06C739.44,-1829.29 841.59,-1819.52 925.75,-1799.98 990.23,-1785.02 1427.02,-1631.6 1551.63,-1587.68"/>
<polygon fill="black" stroke="black" points="1553.12,-1590.86 1561.38,-1584.24 1550.79,-1584.26 1553.12,-1590.86"/>
<text text-anchor="middle" x="1238.75" y="-1701.78" font-family="Times,serif" font-size="14.00">2</text>
</g>
<!-- 29 -->
<g id="node31" class="node">
<title>29</title>
<ellipse fill="none" stroke="black" cx="621.75" cy="-1748.98" rx="27" ry="18"/>
<text text-anchor="middle" x="621.75" y="-1745.28" font-family="Times,serif" font-size="14.00">29</text>
</g>
<!-- 2&#45;&gt;29 -->
<g id="edge37" class="edge">
<title>2&#45;&gt;29</title>
<path fill="none" stroke="black" d="M656.46,-1818.59C650.28,-1806.37 641.71,-1789.43 634.63,-1775.44"/>
<polygon fill="black" stroke="black" points="637.66,-1773.67 630.02,-1766.32 631.41,-1776.83 637.66,-1773.67"/>
<text text-anchor="middle" x="651.75" y="-1788.78" font-family="Times,serif" font-size="14.00">4</text>
</g>
<!-- 3 -->
<g id="node5" class="node">
<title>3</title>
<ellipse fill="none" stroke="black" cx="1936.75" cy="-1313.98" rx="27" ry="18"/>
<text text-anchor="middle" x="1936.75" y="-1310.28" font-family="Times,serif" font-size="14.00">3</text>
</g>
<!-- 4 -->
<g id="node6" class="node">
<title>4</title>
<ellipse fill="none" stroke="black" cx="1895.75" cy="-1487.98" rx="27" ry="18"/>
<text text-anchor="middle" x="1895.75" y="-1484.28" font-family="Times,serif" font-size="14.00">4</text>
</g>
<!-- 3&#45;&gt;4 -->
<g id="edge32" class="edge">
<title>3&#45;&gt;4</title>
<path fill="none" stroke="black" d="M1928.93,-1331.37C1922.79,-1344.91 1914.51,-1364.8 1909.75,-1382.98 1903.08,-1408.5 1899.48,-1438.41 1897.61,-1459.59"/>
<polygon fill="black" stroke="black" points="1894.1,-1459.55 1896.78,-1469.8 1901.07,-1460.12 1894.1,-1459.55"/>
<text text-anchor="middle" x="1914.75" y="-1397.28" font-family="Times,serif" font-size="14.00">4</text>
</g>
<!-- 3&#45;&gt;7 -->
<g id="edge80" class="edge">
<title>3&#45;&gt;7</title>
<path fill="none" stroke="black" d="M1963.6,-1311.78C1991.95,-1309.24 2036.62,-1301.48 2066.75,-1277.98 2143.42,-1218.2 2159.75,-1177.21 2159.75,-1079.99 2159.75,-1079.99 2159.75,-1079.99 2159.75,-799.49 2159.75,-696.32 2219.75,-678.42 2219.75,-575.24 2219.75,-575.24 2219.75,-575.24 2219.75,-286 2219.75,-228.28 1761.73,-227.24 1704.75,-218 1678.6,-213.76 1649.09,-208.01 1627.38,-203.61"/>
<polygon fill="black" stroke="black" points="1627.9,-200.14 1617.4,-201.56 1626.5,-207 1627.9,-200.14"/>
<text text-anchor="middle" x="2171.75" y="-753.29" font-family="Times,serif" font-size="14.00">1</text>
</g>
<!-- 3&#45;&gt;12 -->
<g id="edge94" class="edge">
<title>3&#45;&gt;12</title>
<path fill="none" stroke="black" d="M1937.71,-1295.74C1940.96,-1240.06 1952.66,-1060.16 1975.75,-912.99 1985.48,-850.98 1993.97,-836.64 2005.75,-774.99 2016.69,-717.79 2027.29,-650.96 2033.41,-610.92"/>
<polygon fill="black" stroke="black" points="2036.9,-611.27 2034.94,-600.86 2029.98,-610.22 2036.9,-611.27"/>
<text text-anchor="middle" x="1980.75" y="-936.04" font-family="Times,serif" font-size="14.00">0</text>
</g>
<!-- 20 -->
<g id="node22" class="node">
<title>20</title>
<ellipse fill="none" stroke="black" cx="1807.75" cy="-1226.98" rx="27" ry="18"/>
<text text-anchor="middle" x="1807.75" y="-1223.28" font-family="Times,serif" font-size="14.00">20</text>
</g>
<!-- 3&#45;&gt;20 -->
<g id="edge139" class="edge">
<title>3&#45;&gt;20</title>
<path fill="none" stroke="black" d="M1912.47,-1305.82C1895.14,-1300 1871.79,-1290.67 1853.75,-1277.98 1843.31,-1270.64 1833.47,-1260.56 1825.59,-1251.37"/>
<polygon fill="black" stroke="black" points="1828.27,-1249.12 1819.21,-1243.63 1822.87,-1253.57 1828.27,-1249.12"/>
<text text-anchor="middle" x="1858.75" y="-1266.78" font-family="Times,serif" font-size="14.00">3</text>
</g>
<!-- 3&#45;&gt;23 -->
<g id="edge69" class="edge">
<title>3&#45;&gt;23</title>
<path fill="none" stroke="black" d="M1921.55,-1298.86C1915.18,-1292.68 1907.86,-1285.2 1901.75,-1277.98 1822.61,-1184.45 1808.33,-1156.35 1741.75,-1053.49 1724.42,-1026.71 1706.22,-995.33 1693.33,-972.48"/>
<polygon fill="black" stroke="black" points="1696.27,-970.57 1688.32,-963.56 1690.16,-973.99 1696.27,-970.57"/>
<text text-anchor="middle" x="1813.75" y="-1127.54" font-family="Times,serif" font-size="14.00">2</text>
</g>
<!-- 4&#45;&gt;5 -->
<g id="edge60" class="edge">
<title>4&#45;&gt;5</title>
<path fill="none" stroke="black" d="M1882.92,-1504.16C1870.57,-1520.36 1853.75,-1547.32 1853.75,-1573.98 1853.75,-1923.98 1853.75,-1923.98 1853.75,-1923.98 1853.75,-1950.37 1844.43,-1960.5 1821.75,-1973.98 1782.97,-1997.03 1474.65,-2005.85 1366.83,-2008.25"/>
<polygon fill="black" stroke="black" points="1366.66,-2004.75 1356.74,-2008.47 1366.81,-2011.75 1366.66,-2004.75"/>
<text text-anchor="middle" x="1858.75" y="-1745.28" font-family="Times,serif" font-size="14.00">3</text>
</g>
<!-- 4&#45;&gt;6 -->
<g id="edge91" class="edge">
<title>4&#45;&gt;6</title>
<path fill="none" stroke="black" d="M1911.66,-1502.92C1927.59,-1518.49 1949.75,-1545.31 1949.75,-1573.98 1949.75,-2010.98 1949.75,-2010.98 1949.75,-2010.98 1949.75,-2030.23 1949.75,-2051.93 1949.75,-2068.59"/>
<polygon fill="black" stroke="black" points="1946.25,-2068.73 1949.75,-2078.73 1953.25,-2068.73 1946.25,-2068.73"/>
<text text-anchor="middle" x="1954.75" y="-1788.78" font-family="Times,serif" font-size="14.00">1</text>
</g>
<!-- 4&#45;&gt;7 -->
<g id="edge105" class="edge">
<title>4&#45;&gt;7</title>
<path fill="none" stroke="black" d="M1920.04,-1479.55C1972.33,-1462.31 2096.32,-1414.66 2163.75,-1331.98 2262.58,-1210.83 2257.75,-1149.34 2257.75,-992.99 2257.75,-992.99 2257.75,-992.99 2257.75,-286 2257.75,-192.97 1941.73,-246.28 1704.75,-218 1678.44,-214.86 1648.95,-209.04 1627.28,-204.31"/>
<polygon fill="black" stroke="black" points="1627.85,-200.85 1617.33,-202.1 1626.33,-207.69 1627.85,-200.85"/>
<text text-anchor="middle" x="2262.75" y="-840.29" font-family="Times,serif" font-size="14.00">4</text>
</g>
<!-- 4&#45;&gt;14 -->
<g id="edge111" class="edge">
<title>4&#45;&gt;14</title>
<path fill="none" stroke="black" d="M1903.25,-1470.59C1908.19,-1460.5 1915.13,-1447.54 1922.75,-1436.98 1926.05,-1432.41 1929.91,-1427.82 1933.8,-1423.53"/>
<polygon fill="black" stroke="black" points="1936.38,-1425.89 1940.71,-1416.22 1931.3,-1421.08 1936.38,-1425.89"/>
<text text-anchor="middle" x="1927.75" y="-1440.78" font-family="Times,serif" font-size="14.00">0</text>
</g>
<!-- 4&#45;&gt;28 -->
<g id="edge17" class="edge">
<title>4&#45;&gt;28</title>
<path fill="none" stroke="black" d="M1870.83,-1495.49C1845.16,-1502.27 1804.02,-1513.38 1768.75,-1523.98 1748.16,-1530.18 1743.41,-1533 1722.75,-1538.98 1687.86,-1549.08 1647.56,-1559.12 1619.55,-1565.84"/>
<polygon fill="black" stroke="black" points="1618.74,-1562.44 1609.82,-1568.16 1620.36,-1569.25 1618.74,-1562.44"/>
<text text-anchor="middle" x="1773.75" y="-1527.78" font-family="Times,serif" font-size="14.00">2</text>
</g>
<!-- 5&#45;&gt;1 -->
<g id="edge132" class="edge">
<title>5&#45;&gt;1</title>
<path fill="none" stroke="black" d="M1302.57,-2008.17C1261.55,-2006.12 1182.01,-1998.98 1119.75,-1973.98 1108.77,-1969.57 1107.55,-1965.62 1097.75,-1958.98 1089.55,-1953.43 1080.6,-1947.39 1072.48,-1941.93"/>
<polygon fill="black" stroke="black" points="1074.31,-1938.94 1064.06,-1936.27 1070.41,-1944.75 1074.31,-1938.94"/>
<text text-anchor="middle" x="1124.75" y="-1962.78" font-family="Times,serif" font-size="14.00">1</text>
</g>
<!-- 5&#45;&gt;4 -->
<g id="edge55" class="edge">
<title>5&#45;&gt;4</title>
<path fill="none" stroke="black" d="M1356.75,-2008.64C1459.62,-2007.16 1823.52,-2000.09 1867.75,-1973.98 1890.47,-1960.57 1899.75,-1950.37 1899.75,-1923.98 1899.75,-1923.98 1899.75,-1923.98 1899.75,-1573.98 1899.75,-1554.72 1898.72,-1533.02 1897.7,-1516.37"/>
<polygon fill="black" stroke="black" points="1901.18,-1515.98 1897.04,-1506.23 1894.19,-1516.43 1901.18,-1515.98"/>
<text text-anchor="middle" x="1904.75" y="-1745.28" font-family="Times,serif" font-size="14.00">2</text>
</g>
<!-- 8 -->
<g id="node10" class="node">
<title>8</title>
<ellipse fill="none" stroke="black" cx="977.75" cy="-574.24" rx="18" ry="18"/>
<ellipse fill="none" stroke="black" cx="977.75" cy="-574.24" rx="22" ry="22"/>
<text text-anchor="middle" x="977.75" y="-570.54" font-family="Times,serif" font-size="14.00">8</text>
</g>
<!-- 5&#45;&gt;8 -->
<g id="edge96" class="edge">
<title>5&#45;&gt;8</title>
<path fill="none" stroke="black" d="M1310.21,-1997.41C1306.19,-1995.37 1301.91,-1993.44 1297.75,-1991.98 1256.78,-1977.64 1238.12,-1997.68 1201.75,-1973.98 1123.38,-1922.92 974.75,-1713.03 974.75,-1619.48 974.75,-1619.48 974.75,-1619.48 974.75,-1443.48 974.75,-1194.7 901.75,-1137.28 901.75,-888.49 901.75,-888.49 901.75,-888.49 901.75,-668.99 901.75,-636.81 929.12,-609.49 951.01,-592.79"/>
<polygon fill="black" stroke="black" points="953.33,-595.43 959.36,-586.72 949.21,-589.77 953.33,-595.43"/>
<text text-anchor="middle" x="974.75" y="-1310.28" font-family="Times,serif" font-size="14.00">3</text>
</g>
<!-- 5&#45;&gt;8 -->
<g id="edge143" class="edge">
<title>5&#45;&gt;8</title>
<path fill="none" stroke="black" d="M1316.39,-1994.32C1273.15,-1945.26 1139.75,-1780.87 1139.75,-1619.48 1139.75,-1619.48 1139.75,-1619.48 1139.75,-1443.48 1139.75,-1144.63 939.75,-1100.35 939.75,-801.49 939.75,-801.49 939.75,-801.49 939.75,-668.99 939.75,-645.06 950.52,-620.05 960.59,-601.89"/>
<polygon fill="black" stroke="black" points="963.72,-603.46 965.73,-593.05 957.67,-599.93 963.72,-603.46"/>
<text text-anchor="middle" x="1134.75" y="-1310.28" font-family="Times,serif" font-size="14.00">4</text>
</g>
<!-- 5&#45;&gt;14 -->
<g id="edge40" class="edge">
<title>5&#45;&gt;14</title>
<path fill="none" stroke="black" d="M1356.93,-2008.25C1414.29,-2006.23 1551.65,-1998.97 1663.75,-1973.98 1729.88,-1959.25 1807.75,-1991.73 1807.75,-1923.98 1807.75,-1923.98 1807.75,-1923.98 1807.75,-1747.98 1807.75,-1622.29 1789.8,-1574.42 1859.75,-1469.98 1868.61,-1456.76 1902.27,-1434.43 1927.24,-1418.99"/>
<polygon fill="black" stroke="black" points="1929.29,-1421.84 1935.99,-1413.64 1925.63,-1415.87 1929.29,-1421.84"/>
<text text-anchor="middle" x="1812.75" y="-1701.78" font-family="Times,serif" font-size="14.00">0</text>
</g>
<!-- 6&#45;&gt;0 -->
<g id="edge113" class="edge">
<title>6&#45;&gt;0</title>
<path fill="none" stroke="black" d="M1957.39,-2114.46C1962.95,-2125.08 1971.33,-2138.61 1981.75,-2147.98 1995.51,-2160.36 2013.91,-2169.81 2029.39,-2176.3"/>
<polygon fill="black" stroke="black" points="2028.47,-2179.71 2039.06,-2180.15 2031.06,-2173.2 2028.47,-2179.71"/>
<text text-anchor="middle" x="1986.75" y="-2136.78" font-family="Times,serif" font-size="14.00">4</text>
</g>
<!-- 6&#45;&gt;1 -->
<g id="edge109" class="edge">
<title>6&#45;&gt;1</title>
<path fill="none" stroke="black" d="M1922.38,-2095.65C1777.94,-2093.78 1109.69,-2083.92 1072.75,-2060.98 1037.26,-2038.94 1037.32,-1984.49 1041.15,-1951.25"/>
<polygon fill="black" stroke="black" points="1044.63,-1951.65 1042.48,-1941.27 1037.69,-1950.72 1044.63,-1951.65"/>
<text text-anchor="middle" x="1051.75" y="-2006.28" font-family="Times,serif" font-size="14.00">1</text>
</g>
<!-- 6&#45;&gt;1 -->
<g id="edge115" class="edge">
<title>6&#45;&gt;1</title>
<path fill="none" stroke="black" d="M1922.84,-2095.05C1832.02,-2091.51 1528.87,-2076.57 1283.75,-2027.98 1200.57,-2011.5 1174.66,-2015.56 1100.75,-1973.98 1087.97,-1966.8 1075.7,-1956.14 1066.01,-1946.51"/>
<polygon fill="black" stroke="black" points="1068.3,-1943.84 1058.82,-1939.09 1063.27,-1948.71 1068.3,-1943.84"/>
<text text-anchor="middle" x="1288.75" y="-2006.28" font-family="Times,serif" font-size="14.00">0</text>
</g>
<!-- 6&#45;&gt;3 -->
<g id="edge130" class="edge">
<title>6&#45;&gt;3</title>
<path fill="none" stroke="black" d="M1960.75,-2080.11C1996.9,-2027.31 2109.75,-1857.35 2109.75,-1793.48 2109.75,-1793.48 2109.75,-1793.48 2109.75,-1399.98 2109.75,-1339.87 2024.58,-1322.27 1973.76,-1317.12"/>
<polygon fill="black" stroke="black" points="1974.06,-1313.63 1963.79,-1316.22 1973.43,-1320.6 1974.06,-1313.63"/>
<text text-anchor="middle" x="2114.75" y="-1701.78" font-family="Times,serif" font-size="14.00">2</text>
</g>
<!-- 6&#45;&gt;5 -->
<g id="edge7" class="edge">
<title>6&#45;&gt;5</title>
<path fill="none" stroke="black" d="M1923.51,-2092.39C1825.28,-2078.92 1479.17,-2031.47 1365.92,-2015.94"/>
<polygon fill="black" stroke="black" points="1366.39,-2012.47 1356.01,-2014.58 1365.44,-2019.41 1366.39,-2012.47"/>
<text text-anchor="middle" x="1682.75" y="-2049.78" font-family="Times,serif" font-size="14.00">3</text>
</g>
<!-- 7&#45;&gt;1 -->
<g id="edge68" class="edge">
<title>7&#45;&gt;1</title>
<path fill="none" stroke="black" d="M1573.63,-198.61C1425.34,-209.69 581.75,-277.29 581.75,-381.75 581.75,-1079.99 581.75,-1079.99 581.75,-1079.99 581.75,-1192.15 609.03,-1362.08 636.75,-1418.98 687.66,-1523.45 901,-1728.19 974.75,-1817.98 994.23,-1841.69 1000.65,-1846.52 1017.75,-1871.98 1023.02,-1879.82 1028.23,-1888.71 1032.7,-1896.81"/>
<polygon fill="black" stroke="black" points="1029.73,-1898.69 1037.56,-1905.83 1035.89,-1895.37 1029.73,-1898.69"/>
<text text-anchor="middle" x="587.75" y="-1075.29" font-family="Times,serif" font-size="14.00">1</text>
</g>
<!-- 24 -->
<g id="node26" class="node">
<title>24</title>
<ellipse fill="none" stroke="black" cx="1664.75" cy="-843.99" rx="27" ry="18"/>
<text text-anchor="middle" x="1664.75" y="-840.29" font-family="Times,serif" font-size="14.00">24</text>
</g>
<!-- 7&#45;&gt;24 -->
<g id="edge59" class="edge">
<title>7&#45;&gt;24</title>
<path fill="none" stroke="black" d="M1595.75,-218.22C1595.75,-236.25 1595.75,-262.82 1595.75,-286 1595.75,-523 1595.75,-523 1595.75,-523 1595.75,-651.91 1611.92,-684.75 1649.75,-807.99 1650.68,-810.99 1651.77,-814.08 1652.94,-817.13"/>
<polygon fill="black" stroke="black" points="1649.78,-818.63 1656.84,-826.53 1656.24,-815.95 1649.78,-818.63"/>
<text text-anchor="middle" x="1601.75" y="-518.3" font-family="Times,serif" font-size="14.00">2</text>
</g>
<!-- 7&#45;&gt;24 -->
<g id="edge71" class="edge">
<title>7&#45;&gt;24</title>
<path fill="none" stroke="black" d="M1615.24,-206.69C1640.05,-220.56 1679.75,-248.61 1679.75,-286 1679.75,-523 1679.75,-523 1679.75,-523 1679.75,-631.71 1671.01,-760.97 1666.87,-816.01"/>
<polygon fill="black" stroke="black" points="1663.38,-815.77 1666.11,-826.01 1670.36,-816.3 1663.38,-815.77"/>
<text text-anchor="middle" x="1684.75" y="-518.3" font-family="Times,serif" font-size="14.00">3</text>
</g>
<!-- 7&#45;&gt;28 -->
<g id="edge4" class="edge">
<title>7&#45;&gt;28</title>
<path fill="none" stroke="black" d="M1575.89,-205.78C1563.64,-212.29 1548.78,-222.39 1540.75,-236 1469.97,-355.99 1513.54,-408.4 1505.75,-547.5 1503.6,-585.88 1501.82,-595.75 1505.75,-633.99 1512.12,-695.91 1619.75,-1120.24 1619.75,-1182.48 1619.75,-1488.98 1619.75,-1488.98 1619.75,-1488.98 1619.75,-1510.46 1610.08,-1532.85 1600.9,-1549.25"/>
<polygon fill="black" stroke="black" points="1597.71,-1547.78 1595.64,-1558.17 1603.74,-1551.34 1597.71,-1547.78"/>
<text text-anchor="middle" x="1567.75" y="-883.79" font-family="Times,serif" font-size="14.00">0</text>
</g>
<!-- 7&#45;&gt;28 -->
<g id="edge31" class="edge">
<title>7&#45;&gt;28</title>
<path fill="none" stroke="black" d="M1590.65,-217.64C1587.38,-231.95 1583.44,-251.51 1581.75,-269 1572.06,-369.64 1576.95,-395.5 1581.75,-496.5 1592.43,-720.81 1602.09,-776.63 1629.75,-999.49 1639.89,-1081.14 1657.75,-1100.21 1657.75,-1182.48 1657.75,-1488.98 1657.75,-1488.98 1657.75,-1488.98 1657.75,-1517.71 1633.47,-1541.57 1612.91,-1556.63"/>
<polygon fill="black" stroke="black" points="1610.91,-1553.76 1604.7,-1562.34 1614.91,-1559.5 1610.91,-1553.76"/>
<text text-anchor="middle" x="1621.75" y="-883.79" font-family="Times,serif" font-size="14.00">4</text>
</g>
<!-- 8&#45;&gt;5 -->
<g id="edge127" class="edge">
<title>8&#45;&gt;5</title>
<path fill="none" stroke="black" d="M977.75,-596.47C977.75,-615.47 977.75,-644.09 977.75,-668.99 977.75,-801.49 977.75,-801.49 977.75,-801.49 977.75,-910.67 1052.59,-916.78 1094.75,-1017.49 1138.81,-1122.73 1145.47,-1151.51 1169.75,-1262.98 1212.71,-1460.13 1183.92,-1516.49 1229.75,-1712.98 1253.61,-1815.25 1298.57,-1932.12 1319.08,-1983.02"/>
<polygon fill="black" stroke="black" points="1315.84,-1984.35 1322.84,-1992.3 1322.32,-1981.72 1315.84,-1984.35"/>
<text text-anchor="middle" x="1188.75" y="-1310.28" font-family="Times,serif" font-size="14.00">1</text>
</g>
<!-- 8&#45;&gt;11 -->
<g id="edge83" class="edge">
<title>8&#45;&gt;11</title>
<path fill="none" stroke="black" d="M1000.13,-572.02C1028.63,-569.21 1077.36,-559.94 1103.75,-529.5 1157.09,-468 1157.06,-364.22 1153.56,-315.2"/>
<polygon fill="black" stroke="black" points="1157.04,-314.74 1152.73,-305.06 1150.06,-315.31 1157.04,-314.74"/>
<text text-anchor="middle" x="1153.75" y="-431.3" font-family="Times,serif" font-size="14.00">0</text>
</g>
<!-- 8&#45;&gt;11 -->
<g id="edge117" class="edge">
<title>8&#45;&gt;11</title>
<path fill="none" stroke="black" d="M988.84,-554.97C1018.86,-505.46 1101.78,-368.75 1135.85,-312.58"/>
<polygon fill="black" stroke="black" points="1138.87,-314.34 1141.06,-303.98 1132.88,-310.71 1138.87,-314.34"/>
<text text-anchor="middle" x="1069.75" y="-431.3" font-family="Times,serif" font-size="14.00">4</text>
</g>
<!-- 8&#45;&gt;26 -->
<g id="edge112" class="edge">
<title>8&#45;&gt;26</title>
<path fill="none" stroke="black" d="M959.84,-560.99C936.28,-544.87 894.68,-516.4 867.41,-497.74"/>
<polygon fill="black" stroke="black" points="869.34,-494.81 859.11,-492.05 865.38,-500.59 869.34,-494.81"/>
<text text-anchor="middle" x="918.75" y="-518.3" font-family="Times,serif" font-size="14.00">3</text>
</g>
<!-- 8&#45;&gt;29 -->
<g id="edge18" class="edge">
<title>8&#45;&gt;29</title>
<path fill="none" stroke="black" d="M955.98,-578.38C913.95,-585.79 825.75,-608.53 825.75,-668.99 825.75,-1079.99 825.75,-1079.99 825.75,-1079.99 825.75,-1203.03 811.75,-1233.44 811.75,-1356.48 811.75,-1532.48 811.75,-1532.48 811.75,-1532.48 811.75,-1561.41 805.79,-1570.37 787.75,-1592.98 771.62,-1613.23 762.99,-1614.57 739.75,-1625.98 716.29,-1637.51 704.21,-1627.71 683.75,-1643.98 670.07,-1654.87 647.98,-1695.54 634.2,-1722.68"/>
<polygon fill="black" stroke="black" points="631.06,-1721.13 629.69,-1731.64 637.31,-1724.27 631.06,-1721.13"/>
<text text-anchor="middle" x="827.75" y="-1179.78" font-family="Times,serif" font-size="14.00">2</text>
</g>
<!-- 9 -->
<g id="node11" class="node">
<title>9</title>
<ellipse fill="none" stroke="black" cx="1429.75" cy="-1661.98" rx="27" ry="18"/>
<text text-anchor="middle" x="1429.75" y="-1658.28" font-family="Times,serif" font-size="14.00">9</text>
</g>
<!-- 9&#45;&gt;0 -->
<g id="edge23" class="edge">
<title>9&#45;&gt;0</title>
<path fill="none" stroke="black" d="M1449.78,-1674.2C1535.54,-1722.39 1871.68,-1913.05 1963.75,-1991.98 1987.69,-2012.5 1994,-2018.67 2009.75,-2045.98 2030.3,-2081.61 2044.56,-2127.1 2052.45,-2156.63"/>
<polygon fill="black" stroke="black" points="2049.07,-2157.56 2054.97,-2166.37 2055.85,-2155.81 2049.07,-2157.56"/>
<text text-anchor="middle" x="1898.75" y="-1919.28" font-family="Times,serif" font-size="14.00">4</text>
</g>
<!-- 9&#45;&gt;5 -->
<g id="edge108" class="edge">
<title>9&#45;&gt;5</title>
<path fill="none" stroke="black" d="M1427.18,-1680.2C1424.84,-1697.33 1421.75,-1724.42 1421.75,-1747.98 1421.75,-1923.98 1421.75,-1923.98 1421.75,-1923.98 1421.75,-1957.64 1388.13,-1981.66 1361.54,-1995.41"/>
<polygon fill="black" stroke="black" points="1359.94,-1992.29 1352.5,-1999.84 1363.02,-1998.58 1359.94,-1992.29"/>
<text text-anchor="middle" x="1426.75" y="-1832.28" font-family="Times,serif" font-size="14.00">3</text>
</g>
<!-- 15 -->
<g id="node17" class="node">
<title>15</title>
<ellipse fill="none" stroke="black" cx="1734.75" cy="-382.75" rx="27" ry="18"/>
<text text-anchor="middle" x="1734.75" y="-379.05" font-family="Times,serif" font-size="14.00">15</text>
</g>
<!-- 9&#45;&gt;15 -->
<g id="edge46" class="edge">
<title>9&#45;&gt;15</title>
<path fill="none" stroke="black" d="M1456.77,-1660.01C1502.28,-1656.94 1594.57,-1644.33 1648.75,-1592.98 1664.94,-1577.64 1695.75,-1460.53 1695.75,-1445.48 1695.75,-1445.48 1695.75,-1445.48 1695.75,-1182.48 1695.75,-1049.37 1760.9,-1026.77 1779.75,-894.99 1790.01,-823.33 1809.93,-911.37 1769.75,-460.5 1768.44,-445.72 1770.2,-441.3 1764.75,-427.5 1762.03,-420.59 1758.05,-413.69 1753.87,-407.49"/>
<polygon fill="black" stroke="black" points="1756.41,-405.03 1747.72,-398.97 1750.73,-409.13 1756.41,-405.03"/>
<text text-anchor="middle" x="1745.75" y="-1031.79" font-family="Times,serif" font-size="14.00">2</text>
</g>
<!-- 16 -->
<g id="node18" class="node">
<title>16</title>
<ellipse fill="none" stroke="black" cx="1282.75" cy="-1035.49" rx="27" ry="18"/>
<text text-anchor="middle" x="1282.75" y="-1031.79" font-family="Times,serif" font-size="14.00">16</text>
</g>
<!-- 9&#45;&gt;16 -->
<g id="edge26" class="edge">
<title>9&#45;&gt;16</title>
<path fill="none" stroke="black" d="M1420,-1645.01C1406.5,-1621.34 1383.75,-1575.14 1383.75,-1532.48 1383.75,-1532.48 1383.75,-1532.48 1383.75,-1269.48 1383.75,-1247.44 1322.11,-1117.64 1295.14,-1061.9"/>
<polygon fill="black" stroke="black" points="1298.19,-1060.17 1290.68,-1052.7 1291.89,-1063.22 1298.19,-1060.17"/>
<text text-anchor="middle" x="1388.75" y="-1353.78" font-family="Times,serif" font-size="14.00">0</text>
</g>
<!-- 9&#45;&gt;28 -->
<g id="edge104" class="edge">
<title>9&#45;&gt;28</title>
<path fill="none" stroke="black" d="M1450.02,-1649.87C1476.94,-1635.11 1524.68,-1608.93 1555.5,-1592.02"/>
<polygon fill="black" stroke="black" points="1557.4,-1594.98 1564.49,-1587.1 1554.03,-1588.84 1557.4,-1594.98"/>
<text text-anchor="middle" x="1521.75" y="-1614.78" font-family="Times,serif" font-size="14.00">1</text>
</g>
<!-- 10 -->
<g id="node12" class="node">
<title>10</title>
<ellipse fill="none" stroke="black" cx="589.75" cy="-18" rx="27" ry="18"/>
<text text-anchor="middle" x="589.75" y="-14.3" font-family="Times,serif" font-size="14.00">10</text>
</g>
<!-- 10&#45;&gt;4 -->
<g id="edge102" class="edge">
<title>10&#45;&gt;4</title>
<path fill="none" stroke="black" d="M617.01,-19.53C844.41,-24.03 2417.75,-56.84 2417.75,-104 2417.75,-714.49 2417.75,-714.49 2417.75,-714.49 2417.75,-793.62 2371.75,-807.36 2371.75,-886.49 2371.75,-1184.48 2371.75,-1184.48 2371.75,-1184.48 2371.75,-1270.53 2368.92,-1311.2 2301.75,-1364.98 2188.72,-1455.5 2009.62,-1478.94 1932.77,-1484.95"/>
<polygon fill="black" stroke="black" points="1932.34,-1481.47 1922.62,-1485.69 1932.85,-1488.45 1932.34,-1481.47"/>
<text text-anchor="middle" x="2420.75" y="-753.29" font-family="Times,serif" font-size="14.00">2</text>
</g>
<!-- 10&#45;&gt;6 -->
<g id="edge44" class="edge">
<title>10&#45;&gt;6</title>
<path fill="none" stroke="black" d="M616.82,-19.19C758.9,-20.3 1433.06,-26.82 1983.75,-54 3280.95,-118.02 2493.75,-44.3 2493.75,-104 2493.75,-1358.48 2493.75,-1358.48 2493.75,-1358.48 2493.75,-1390.22 2410.63,-1599.12 2393.75,-1625.98 2330.88,-1726.06 2286.98,-1728.51 2209.75,-1817.98 2132.55,-1907.42 2124.9,-1939.37 2046.75,-2027.98 2033.03,-2043.54 2030.35,-2048.55 2013.75,-2060.98 2003.56,-2068.62 1991.5,-2075.65 1980.62,-2081.39"/>
<polygon fill="black" stroke="black" points="1978.75,-2078.41 1971.43,-2086.07 1981.93,-2084.65 1978.75,-2078.41"/>
<text text-anchor="middle" x="2498.75" y="-1075.29" font-family="Times,serif" font-size="14.00">0</text>
</g>
<!-- 10&#45;&gt;10 -->
<g id="edge54" class="edge">
<title>10&#45;&gt;10</title>
<path fill="none" stroke="black" d="M614.29,-25.75C625.26,-26.49 634.75,-23.91 634.75,-18 634.75,-14.03 630.47,-11.56 624.33,-10.59"/>
<polygon fill="black" stroke="black" points="624.4,-7.09 614.29,-10.25 624.16,-14.09 624.4,-7.09"/>
<text text-anchor="middle" x="639.75" y="-14.3" font-family="Times,serif" font-size="14.00">4</text>
</g>
<!-- 10&#45;&gt;26 -->
<g id="edge21" class="edge">
<title>10&#45;&gt;26</title>
<path fill="none" stroke="black" d="M602.58,-34.18C614.94,-50.38 631.75,-77.33 631.75,-104 631.75,-383.75 631.75,-383.75 631.75,-383.75 631.75,-458.03 743.02,-473.82 803.18,-476.93"/>
<polygon fill="black" stroke="black" points="803.29,-480.44 813.43,-477.37 803.59,-473.45 803.29,-480.44"/>
<text text-anchor="middle" x="636.75" y="-239.8" font-family="Times,serif" font-size="14.00">1</text>
</g>
<!-- 10&#45;&gt;29 -->
<g id="edge119" class="edge">
<title>10&#45;&gt;29</title>
<path fill="none" stroke="black" d="M562.75,-19.58C511.85,-22.27 406.75,-36.04 406.75,-104 406.75,-244.5 406.75,-244.5 406.75,-244.5 406.75,-296.71 386.1,-306.41 369.75,-356 345.6,-429.28 315.75,-443.84 315.75,-521 315.75,-888.49 315.75,-888.49 315.75,-888.49 315.75,-1379.15 317.36,-1310.66 330.75,-1364.98 371.43,-1529.9 358.94,-1603.43 488.75,-1712.98 515.57,-1735.61 555.42,-1743.8 584.51,-1746.66"/>
<polygon fill="black" stroke="black" points="584.45,-1750.17 594.7,-1747.49 585.02,-1743.19 584.45,-1750.17"/>
<text text-anchor="middle" x="321.75" y="-883.79" font-family="Times,serif" font-size="14.00">3</text>
</g>
<!-- 11&#45;&gt;0 -->
<g id="edge47" class="edge">
<title>11&#45;&gt;0</title>
<path fill="none" stroke="black" d="M1123.96,-290.51C996.35,-302.5 456.16,-353.38 452.75,-356 390.84,-403.74 391.75,-442.81 391.75,-521 391.75,-992.99 391.75,-992.99 391.75,-992.99 391.75,-1085.17 403.76,-1353.97 330.75,-1451.98 253.14,-1556.19 89.75,-1487.55 89.75,-1617.48 89.75,-2097.98 89.75,-2097.98 89.75,-2097.98 89.75,-2148.61 1772.51,-2181.68 2027.53,-2186.4"/>
<polygon fill="black" stroke="black" points="2027.57,-2189.9 2037.63,-2186.59 2027.7,-2182.9 2027.57,-2189.9"/>
<text text-anchor="middle" x="390.75" y="-1266.78" font-family="Times,serif" font-size="14.00">1</text>
</g>
<!-- 11&#45;&gt;0 -->
<g id="edge77" class="edge">
<title>11&#45;&gt;0</title>
<path fill="none" stroke="black" d="M1123.8,-288.62C996.37,-291.76 458.3,-307.85 402.75,-356 373.85,-381.05 353.75,-482.75 353.75,-521 353.75,-992.99 353.75,-992.99 353.75,-992.99 353.75,-1313.34 334.5,-1359.05 330.75,-1364.98 253.8,-1486.9 51.75,-1386.31 51.75,-1530.48 51.75,-2097.98 51.75,-2097.98 51.75,-2097.98 51.75,-2241.93 228.15,-2138.06 371.75,-2147.98 711.3,-2171.45 1823.8,-2184.43 2027.55,-2186.64"/>
<polygon fill="black" stroke="black" points="2027.57,-2190.14 2037.61,-2186.75 2027.65,-2183.14 2027.57,-2190.14"/>
<text text-anchor="middle" x="351.75" y="-1266.78" font-family="Times,serif" font-size="14.00">0</text>
</g>
<!-- 11&#45;&gt;3 -->
<g id="edge29" class="edge">
<title>11&#45;&gt;3</title>
<path fill="none" stroke="black" d="M1177.56,-289.34C1232.23,-292.43 1360.35,-301.52 1465.75,-323 1488.49,-327.63 1492.93,-333.82 1515.75,-338 1627.51,-358.45 1658.85,-336.33 1770.75,-356 1885,-376.08 1920.51,-370.9 2021.75,-427.5 2040.7,-438.09 2047.14,-441.56 2057.75,-460.5 2133.66,-595.91 2042.66,-1004.6 2018.75,-1157.98 2016.45,-1172.8 2017.32,-1177.06 2011.75,-1190.98 1997.11,-1227.63 1971.8,-1265.73 1954.67,-1289.4"/>
<polygon fill="black" stroke="black" points="1951.65,-1287.6 1948.55,-1297.73 1957.29,-1291.74 1951.65,-1287.6"/>
<text text-anchor="middle" x="2081.75" y="-796.79" font-family="Times,serif" font-size="14.00">3</text>
</g>
<!-- 11&#45;&gt;7 -->
<g id="edge36" class="edge">
<title>11&#45;&gt;7</title>
<path fill="none" stroke="black" d="M1176.1,-280.38C1219.12,-270.89 1309.26,-251.24 1385.75,-236 1448.98,-223.4 1523.19,-209.93 1564.3,-202.58"/>
<polygon fill="black" stroke="black" points="1565.02,-206 1574.25,-200.8 1563.8,-199.11 1565.02,-206"/>
<text text-anchor="middle" x="1390.75" y="-239.8" font-family="Times,serif" font-size="14.00">2</text>
</g>
<!-- 11&#45;&gt;23 -->
<g id="edge79" class="edge">
<title>11&#45;&gt;23</title>
<path fill="none" stroke="black" d="M1159.81,-304.09C1162.89,-309.94 1166.2,-316.66 1168.75,-323 1189.52,-374.43 1164.49,-404.35 1204.75,-442.5 1229.33,-465.78 1249.77,-443.01 1278.75,-460.5 1359.23,-509.06 1362.4,-543.77 1418.75,-618.99 1505.7,-735.04 1486.33,-796.5 1592.75,-894.99 1606.71,-907.91 1625.21,-918.15 1641.19,-925.46"/>
<polygon fill="black" stroke="black" points="1640.19,-928.84 1650.76,-929.63 1642.99,-922.42 1640.19,-928.84"/>
<text text-anchor="middle" x="1434.75" y="-622.79" font-family="Times,serif" font-size="14.00">4</text>
</g>
<!-- 12&#45;&gt;6 -->
<g id="edge62" class="edge">
<title>12&#45;&gt;6</title>
<path fill="none" stroke="black" d="M2060.87,-589.35C2073.44,-597.61 2089.29,-608.46 2102.75,-618.99 2195.25,-691.37 2295.75,-682.05 2295.75,-799.49 2295.75,-1184.48 2295.75,-1184.48 2295.75,-1184.48 2295.75,-1798.71 2288.89,-1587.88 2269.75,-1625.98 2241.11,-1683.03 2207.4,-1678.03 2171.75,-1730.98 2138.11,-1780.97 2140.52,-1799.52 2114.75,-1853.98 2077.08,-1933.63 2070.69,-1956.09 2019.75,-2027.98 2008.8,-2043.45 2006.17,-2047.6 1992.75,-2060.98 1987.32,-2066.41 1981.1,-2071.85 1975.11,-2076.77"/>
<polygon fill="black" stroke="black" points="1972.8,-2074.13 1967.18,-2083.1 1977.17,-2079.6 1972.8,-2074.13"/>
<text text-anchor="middle" x="2299.75" y="-1353.78" font-family="Times,serif" font-size="14.00">4</text>
</g>
<!-- 13 -->
<g id="node15" class="node">
<title>13</title>
<ellipse fill="none" stroke="black" cx="1869.75" cy="-478.5" rx="27" ry="18"/>
<text text-anchor="middle" x="1869.75" y="-474.8" font-family="Times,serif" font-size="14.00">13</text>
</g>
<!-- 12&#45;&gt;13 -->
<g id="edge92" class="edge">
<title>12&#45;&gt;13</title>
<path fill="none" stroke="black" d="M2015.61,-560.41C1985.2,-543.54 1931.79,-513.91 1898.73,-495.57"/>
<polygon fill="black" stroke="black" points="1900.42,-492.51 1889.98,-490.72 1897.03,-498.63 1900.42,-492.51"/>
<text text-anchor="middle" x="1964.75" y="-518.3" font-family="Times,serif" font-size="14.00">1</text>
</g>
<!-- 12&#45;&gt;14 -->
<g id="edge6" class="edge">
<title>12&#45;&gt;14</title>
<path fill="none" stroke="black" d="M2057.52,-593.91C2085.8,-622.85 2139.65,-681.26 2173.75,-738.99 2188.47,-763.9 2197.75,-770.56 2197.75,-799.49 2197.75,-1079.99 2197.75,-1079.99 2197.75,-1079.99 2197.75,-1214.08 2203.28,-1280.99 2098.75,-1364.98 2068.68,-1389.15 2024.36,-1396.99 1993.05,-1399.35"/>
<polygon fill="black" stroke="black" points="1992.74,-1395.86 1982.96,-1399.95 1993.16,-1402.85 1992.74,-1395.86"/>
<text text-anchor="middle" x="2202.75" y="-988.29" font-family="Times,serif" font-size="14.00">2</text>
</g>
<!-- 12&#45;&gt;15 -->
<g id="edge33" class="edge">
<title>12&#45;&gt;15</title>
<path fill="none" stroke="black" d="M2034.75,-547.51C2028.12,-514.17 2011.51,-456.83 1972.75,-427.5 1930.1,-395.22 1906.36,-419.16 1853.75,-409.5 1825.32,-404.27 1793.31,-397.28 1769.65,-391.9"/>
<polygon fill="black" stroke="black" points="1770.26,-388.45 1759.74,-389.63 1768.7,-395.28 1770.26,-388.45"/>
<text text-anchor="middle" x="2024.75" y="-474.8" font-family="Times,serif" font-size="14.00">0</text>
</g>
<!-- 12&#45;&gt;15 -->
<g id="edge134" class="edge">
<title>12&#45;&gt;15</title>
<path fill="none" stroke="black" d="M2043.39,-547.81C2046.45,-523.77 2047.55,-487.48 2032.75,-460.5 2022,-440.88 2015.17,-436.64 1994.75,-427.5 1937.1,-401.68 1916.02,-420.19 1853.75,-409.5 1825.26,-404.6 1793.25,-397.59 1769.61,-392.12"/>
<polygon fill="black" stroke="black" points="1770.24,-388.67 1759.7,-389.8 1768.65,-395.49 1770.24,-388.67"/>
<text text-anchor="middle" x="2048.75" y="-474.8" font-family="Times,serif" font-size="14.00">3</text>
</g>
<!-- 13&#45;&gt;2 -->
<g id="edge34" class="edge">
<title>13&#45;&gt;2</title>
<path fill="none" stroke="black" d="M1845.3,-486.24C1820.08,-493.22 1779.63,-504.49 1744.75,-514.5 1722.04,-521.01 1717.1,-525.85 1693.75,-529.5 1652.74,-535.91 984.09,-529.35 946.75,-547.5 872.93,-583.38 863.75,-630.4 863.75,-712.49 863.75,-1079.99 863.75,-1079.99 863.75,-1079.99 863.75,-1203.03 849.75,-1233.44 849.75,-1356.48 849.75,-1532.48 849.75,-1532.48 849.75,-1532.48 849.75,-1548.65 725.18,-1741.97 680.48,-1810.83"/>
<polygon fill="black" stroke="black" points="677.48,-1809.03 674.96,-1819.32 683.35,-1812.84 677.48,-1809.03"/>
<text text-anchor="middle" x="865.75" y="-1179.78" font-family="Times,serif" font-size="14.00">0</text>
</g>
<!-- 13&#45;&gt;5 -->
<g id="edge65" class="edge">
<title>13&#45;&gt;5</title>
<path fill="none" stroke="black" d="M1894.37,-486.05C1990.3,-512.3 2333.75,-613.22 2333.75,-712.49 2333.75,-1184.48 2333.75,-1184.48 2333.75,-1184.48 2333.75,-1370.99 2347.78,-1442.39 2237.75,-1592.98 2189.75,-1658.69 2148.83,-1644.21 2087.75,-1697.98 1975.02,-1797.23 2023.23,-1899.59 1892.75,-1973.98 1847.28,-1999.91 1485.09,-2006.94 1366.9,-2008.56"/>
<polygon fill="black" stroke="black" points="1366.84,-2005.06 1356.89,-2008.69 1366.93,-2012.06 1366.84,-2005.06"/>
<text text-anchor="middle" x="2338.75" y="-1266.78" font-family="Times,serif" font-size="14.00">2</text>
</g>
<!-- 13&#45;&gt;7 -->
<g id="edge42" class="edge">
<title>13&#45;&gt;7</title>
<path fill="none" stroke="black" d="M1861.9,-460.96C1840.7,-417.97 1778.19,-301.51 1693.75,-236 1673.95,-220.64 1647.31,-210.55 1626.8,-204.49"/>
<polygon fill="black" stroke="black" points="1627.57,-201.07 1617,-201.76 1625.69,-207.82 1627.57,-201.07"/>
<text text-anchor="middle" x="1792.75" y="-326.8" font-family="Times,serif" font-size="14.00">1</text>
</g>
<!-- 13&#45;&gt;14 -->
<g id="edge140" class="edge">
<title>13&#45;&gt;14</title>
<path fill="none" stroke="black" d="M1878.95,-495.81C1881.84,-501.56 1884.79,-508.17 1886.75,-514.5 1925.79,-640.49 1889.81,-682.61 1930.75,-807.99 1947.11,-858.07 1973.17,-861.84 1985.75,-912.99 2030.27,-1093.9 1998.8,-1147.51 1972.75,-1331.98 1970.8,-1345.82 1967.18,-1360.93 1963.78,-1373.38"/>
<polygon fill="black" stroke="black" points="1960.37,-1372.56 1961.02,-1383.13 1967.11,-1374.46 1960.37,-1372.56"/>
<text text-anchor="middle" x="2002.75" y="-936.04" font-family="Times,serif" font-size="14.00">4</text>
</g>
<!-- 13&#45;&gt;18 -->
<g id="edge70" class="edge">
<title>13&#45;&gt;18</title>
<path fill="none" stroke="black" d="M1847.23,-488.68C1822.25,-498.82 1780.72,-515.57 1744.75,-529.5 1621.28,-577.31 1593.97,-600.91 1465.75,-633.99 1396.11,-651.96 1312.42,-661.62 1265.43,-666"/>
<polygon fill="black" stroke="black" points="1265.07,-662.52 1255.42,-666.91 1265.7,-669.49 1265.07,-662.52"/>
<text text-anchor="middle" x="1701.75" y="-570.54" font-family="Times,serif" font-size="14.00">3</text>
</g>
<!-- 14&#45;&gt;3 -->
<g id="edge66" class="edge">
<title>14&#45;&gt;3</title>
<path fill="none" stroke="black" d="M1951.91,-1382.78C1949.29,-1371.07 1945.77,-1355.33 1942.78,-1341.96"/>
<polygon fill="black" stroke="black" points="1946.13,-1340.86 1940.53,-1331.87 1939.29,-1342.39 1946.13,-1340.86"/>
<text text-anchor="middle" x="1952.75" y="-1353.78" font-family="Times,serif" font-size="14.00">1</text>
</g>
<!-- 14&#45;&gt;4 -->
<g id="edge5" class="edge">
<title>14&#45;&gt;4</title>
<path fill="none" stroke="black" d="M1950.39,-1418.64C1946.65,-1428.82 1941.03,-1441.8 1933.75,-1451.98 1929.92,-1457.35 1925.16,-1462.52 1920.31,-1467.16"/>
<polygon fill="black" stroke="black" points="1917.83,-1464.68 1912.75,-1473.98 1922.52,-1469.88 1917.83,-1464.68"/>
<text text-anchor="middle" x="1947.75" y="-1440.78" font-family="Times,serif" font-size="14.00">3</text>
</g>
<!-- 14&#45;&gt;14 -->
<g id="edge84" class="edge">
<title>14&#45;&gt;14</title>
<path fill="none" stroke="black" d="M1982.55,-1404.91C1992.53,-1405.04 2000.75,-1403.73 2000.75,-1400.98 2000.75,-1399.27 1997.54,-1398.11 1992.7,-1397.52"/>
<polygon fill="black" stroke="black" points="1992.7,-1394.01 1982.55,-1397.06 1992.38,-1401.01 1992.7,-1394.01"/>
<text text-anchor="middle" x="2005.75" y="-1397.28" font-family="Times,serif" font-size="14.00">2</text>
</g>
<!-- 14&#45;&gt;14 -->
<g id="edge149" class="edge">
<title>14&#45;&gt;14</title>
<path fill="none" stroke="black" d="M1980.98,-1407.93C1999.79,-1410.35 2018.75,-1408.04 2018.75,-1400.98 2018.75,-1395.2 2006,-1392.6 1991.03,-1393.19"/>
<polygon fill="black" stroke="black" points="1990.65,-1389.71 1980.98,-1394.04 1991.24,-1396.69 1990.65,-1389.71"/>
<text text-anchor="middle" x="2023.75" y="-1397.28" font-family="Times,serif" font-size="14.00">4</text>
</g>
<!-- 14&#45;&gt;28 -->
<g id="edge144" class="edge">
<title>14&#45;&gt;28</title>
<path fill="none" stroke="black" d="M1935.64,-1413.18C1931.74,-1415.2 1927.65,-1417.23 1923.75,-1418.98 1902.98,-1428.35 1896.64,-1427.88 1875.75,-1436.98 1782.84,-1477.5 1764.19,-1497.37 1671.75,-1538.98 1654.05,-1546.95 1633.96,-1555.09 1617.55,-1561.52"/>
<polygon fill="black" stroke="black" points="1615.92,-1558.39 1607.87,-1565.27 1618.45,-1564.92 1615.92,-1558.39"/>
<text text-anchor="middle" x="1811.75" y="-1484.28" font-family="Times,serif" font-size="14.00">0</text>
</g>
<!-- 15&#45;&gt;10 -->
<g id="edge81" class="edge">
<title>15&#45;&gt;10</title>
<path fill="none" stroke="black" d="M1732.4,-364.51C1730.04,-345.73 1726.75,-314.79 1726.75,-288 1726.75,-288 1726.75,-288 1726.75,-104 1726.75,-47.51 822.5,-24.17 626.81,-19.79"/>
<polygon fill="black" stroke="black" points="626.81,-16.29 616.74,-19.56 626.66,-23.28 626.81,-16.29"/>
<text text-anchor="middle" x="1731.75" y="-192.3" font-family="Times,serif" font-size="14.00">1</text>
</g>
<!-- 15&#45;&gt;11 -->
<g id="edge43" class="edge">
<title>15&#45;&gt;11</title>
<path fill="none" stroke="black" d="M1708.59,-377.71C1659.17,-370.06 1548.7,-352.91 1455.75,-338 1358.49,-322.4 1243.89,-303.46 1186.82,-294"/>
<polygon fill="black" stroke="black" points="1187.29,-290.53 1176.86,-292.34 1186.15,-297.43 1187.29,-290.53"/>
<text text-anchor="middle" x="1460.75" y="-326.8" font-family="Times,serif" font-size="14.00">2</text>
</g>
<!-- 15&#45;&gt;14 -->
<g id="edge38" class="edge">
<title>15&#45;&gt;14</title>
<path fill="none" stroke="black" d="M1760.83,-387.84C1814.34,-397.91 1934.5,-429.54 1969.75,-514.5 2014.55,-622.45 1973.95,-662.53 2005.75,-774.99 2033.42,-872.85 2076.86,-884.96 2097.75,-984.49 2124.67,-1112.73 2138.26,-1166.28 2069.75,-1277.98 2045,-1318.34 2005.43,-1356.86 1980.03,-1379.46"/>
<polygon fill="black" stroke="black" points="1977.53,-1377 1972.31,-1386.22 1982.14,-1382.26 1977.53,-1377"/>
<text text-anchor="middle" x="2068.75" y="-883.79" font-family="Times,serif" font-size="14.00">0</text>
</g>
<!-- 15&#45;&gt;23 -->
<g id="edge142" class="edge">
<title>15&#45;&gt;23</title>
<path fill="none" stroke="black" d="M1735.13,-400.86C1736.81,-481.04 1742.95,-817.44 1728.75,-861.99 1722.97,-880.13 1711.32,-897.8 1700.41,-911.61"/>
<polygon fill="black" stroke="black" points="1697.42,-909.73 1693.77,-919.67 1702.83,-914.17 1697.42,-909.73"/>
<text text-anchor="middle" x="1743.75" y="-666.29" font-family="Times,serif" font-size="14.00">3</text>
</g>
<!-- 15&#45;&gt;29 -->
<g id="edge146" class="edge">
<title>15&#45;&gt;29</title>
<path fill="none" stroke="black" d="M1707.69,-384.21C1623.4,-385.96 1358.28,-393.95 1141.75,-427.5 1113.31,-431.9 1107.21,-438.2 1078.75,-442.5 958.08,-460.69 922.93,-430.03 804.75,-460.5 750.08,-474.59 724.92,-470.32 689.75,-514.5 658.32,-553.98 665.75,-575.02 665.75,-625.49 665.75,-1079.99 665.75,-1079.99 665.75,-1079.99 665.75,-1207.35 651.61,-1238.61 635.75,-1364.98 625.02,-1450.55 613.99,-1470.97 607.75,-1556.98 606.6,-1572.94 607.03,-1577 607.75,-1592.98 609.78,-1637.89 615.08,-1689.9 618.55,-1720.81"/>
<polygon fill="black" stroke="black" points="615.08,-1721.28 619.69,-1730.82 622.04,-1720.48 615.08,-1721.28"/>
<text text-anchor="middle" x="670.75" y="-1075.29" font-family="Times,serif" font-size="14.00">4</text>
</g>
<!-- 16&#45;&gt;2 -->
<g id="edge64" class="edge">
<title>16&#45;&gt;2</title>
<path fill="none" stroke="black" d="M1271.71,-1052.21C1254.32,-1077.44 1220.26,-1128.9 1197.75,-1175.98 1170.52,-1232.96 1101.75,-1380.33 1101.75,-1443.48 1101.75,-1619.48 1101.75,-1619.48 1101.75,-1619.48 1101.75,-1662.07 1112.13,-1684.18 1080.75,-1712.98 1058.95,-1733 977.09,-1722.41 948.75,-1730.98 881.6,-1751.31 872.74,-1776.12 806.75,-1799.98 771.56,-1812.71 729.82,-1822.39 700.74,-1828.3"/>
<polygon fill="black" stroke="black" points="699.76,-1824.93 690.63,-1830.31 701.12,-1831.79 699.76,-1824.93"/>
<text text-anchor="middle" x="1106.75" y="-1440.78" font-family="Times,serif" font-size="14.00">4</text>
</g>
<!-- 16&#45;&gt;5 -->
<g id="edge106" class="edge">
<title>16&#45;&gt;5</title>
<path fill="none" stroke="black" d="M1286.46,-1053.47C1291.68,-1077.04 1301.7,-1120.94 1311.75,-1157.98 1325.33,-1207.98 1345.75,-1217.68 1345.75,-1269.48 1345.75,-1532.48 1345.75,-1532.48 1345.75,-1532.48 1345.75,-1609.55 1367.75,-1627.42 1367.75,-1704.48 1367.75,-1923.98 1367.75,-1923.98 1367.75,-1923.98 1367.75,-1946.08 1356.92,-1968.81 1346.82,-1985.2"/>
<polygon fill="black" stroke="black" points="1343.87,-1983.32 1341.36,-1993.61 1349.74,-1987.13 1343.87,-1983.32"/>
<text text-anchor="middle" x="1351.75" y="-1527.78" font-family="Times,serif" font-size="14.00">0</text>
</g>
<!-- 16&#45;&gt;18 -->
<g id="edge122" class="edge">
<title>16&#45;&gt;18</title>
<path fill="none" stroke="black" d="M1267.1,-1020.59C1231.79,-987.89 1147.4,-901.72 1126.75,-807.99 1115.63,-757.48 1167.01,-712.21 1200.89,-688.48"/>
<polygon fill="black" stroke="black" points="1203.18,-691.15 1209.49,-682.64 1199.25,-685.36 1203.18,-691.15"/>
<text text-anchor="middle" x="1150.75" y="-840.29" font-family="Times,serif" font-size="14.00">3</text>
</g>
<!-- 16&#45;&gt;23 -->
<g id="edge74" class="edge">
<title>16&#45;&gt;23</title>
<path fill="none" stroke="black" d="M1309.63,-1032.73C1355.17,-1029.29 1450.1,-1020.13 1527.75,-999.49 1568.44,-988.67 1613.09,-969.93 1642.59,-956.53"/>
<polygon fill="black" stroke="black" points="1644.37,-959.56 1651.99,-952.2 1641.44,-953.2 1644.37,-959.56"/>
<text text-anchor="middle" x="1578.75" y="-988.29" font-family="Times,serif" font-size="14.00">2</text>
</g>
<!-- 16&#45;&gt;28 -->
<g id="edge88" class="edge">
<title>16&#45;&gt;28</title>
<path fill="none" stroke="black" d="M1299.87,-1049.68C1307.15,-1055.82 1315.41,-1063.52 1321.75,-1071.49 1365.23,-1126.12 1371.13,-1144.44 1397.75,-1208.98 1426.83,-1279.47 1440.1,-1482.89 1491.75,-1538.98 1506.41,-1554.91 1529.04,-1563.63 1548.3,-1568.38"/>
<polygon fill="black" stroke="black" points="1547.78,-1571.85 1558.3,-1570.58 1549.28,-1565.01 1547.78,-1571.85"/>
<text text-anchor="middle" x="1432.75" y="-1310.28" font-family="Times,serif" font-size="14.00">1</text>
</g>
<!-- 17&#45;&gt;10 -->
<g id="edge151" class="edge">
<title>17&#45;&gt;10</title>
<path fill="none" stroke="black" d="M181,-89.42C193.47,-77.67 212.67,-61.86 232.75,-54 290.34,-31.46 473.4,-22.83 552.63,-20.09"/>
<polygon fill="black" stroke="black" points="552.77,-23.59 562.65,-19.76 552.54,-16.59 552.77,-23.59"/>
<text text-anchor="middle" x="237.75" y="-57.8" font-family="Times,serif" font-size="14.00">0</text>
</g>
<!-- 21 -->
<g id="node23" class="node">
<title>21</title>
<ellipse fill="none" stroke="black" cx="488.75" cy="-382.75" rx="22.96" ry="22.96"/>
<ellipse fill="none" stroke="black" cx="488.75" cy="-382.75" rx="27" ry="27"/>
<text text-anchor="middle" x="488.75" y="-379.05" font-family="Times,serif" font-size="14.00">21</text>
</g>
<!-- 17&#45;&gt;21 -->
<g id="edge138" class="edge">
<title>17&#45;&gt;21</title>
<path fill="none" stroke="black" d="M187.19,-116.94C191.31,-119.03 195.64,-121.14 199.75,-123 219.76,-132.04 227.35,-129.03 245.75,-141 339.39,-201.93 426.63,-303.31 466.31,-352.79"/>
<polygon fill="black" stroke="black" points="463.75,-355.2 472.71,-360.84 469.22,-350.84 463.75,-355.2"/>
<text text-anchor="middle" x="379.75" y="-239.8" font-family="Times,serif" font-size="14.00">2</text>
</g>
<!-- 27 -->
<g id="node29" class="node">
<title>27</title>
<ellipse fill="none" stroke="black" cx="62.75" cy="-287" rx="27" ry="18"/>
<text text-anchor="middle" x="62.75" y="-283.3" font-family="Times,serif" font-size="14.00">27</text>
</g>
<!-- 17&#45;&gt;27 -->
<g id="edge75" class="edge">
<title>17&#45;&gt;27</title>
<path fill="none" stroke="black" d="M139.74,-106.28C108.74,-107.93 57.79,-114.82 23.75,-141 -4.1,-162.43 -2.93,-183.94 5.75,-218 10.58,-236.91 24.59,-253.76 37.51,-265.96"/>
<polygon fill="black" stroke="black" points="35.53,-268.88 45.33,-272.93 40.19,-263.66 35.53,-268.88"/>
<text text-anchor="middle" x="10.75" y="-192.3" font-family="Times,serif" font-size="14.00">4</text>
</g>
<!-- 17&#45;&gt;27 -->
<g id="edge128" class="edge">
<title>17&#45;&gt;27</title>
<path fill="none" stroke="black" d="M142.55,-113.2C116.48,-122.46 76.62,-141.36 60.75,-174 47.78,-200.7 50.99,-235.37 55.69,-259.02"/>
<polygon fill="black" stroke="black" points="52.33,-260.03 57.91,-269.04 59.17,-258.52 52.33,-260.03"/>
<text text-anchor="middle" x="65.75" y="-192.3" font-family="Times,serif" font-size="14.00">1</text>
</g>
<!-- 17&#45;&gt;29 -->
<g id="edge10" class="edge">
<title>17&#45;&gt;29</title>
<path fill="none" stroke="black" d="M184.71,-118.47C192.54,-124.57 201.37,-132.45 207.75,-141 223.46,-162.05 231.75,-168.74 231.75,-195 231.75,-479.5 231.75,-479.5 231.75,-479.5 231.75,-637.71 209.84,-1040.2 257.75,-1190.98 332.2,-1425.26 534.39,-1654.93 600.51,-1725.77"/>
<polygon fill="black" stroke="black" points="598.14,-1728.35 607.54,-1733.24 603.24,-1723.56 598.14,-1728.35"/>
<text text-anchor="middle" x="234.75" y="-936.04" font-family="Times,serif" font-size="14.00">3</text>
</g>
<!-- 18&#45;&gt;7 -->
<g id="edge39" class="edge">
<title>18&#45;&gt;7</title>
<path fill="none" stroke="black" d="M1243.78,-654.75C1272.29,-626.94 1334.56,-562.33 1369.75,-496.5 1407.76,-425.39 1384.05,-393.73 1422.75,-323 1447.12,-278.47 1455.46,-265.52 1496.75,-236 1517.32,-221.3 1544.2,-211.17 1564.76,-204.92"/>
<polygon fill="black" stroke="black" points="1565.94,-208.23 1574.57,-202.09 1564,-201.5 1565.94,-208.23"/>
<text text-anchor="middle" x="1398.75" y="-431.3" font-family="Times,serif" font-size="14.00">3</text>
</g>
<!-- 18&#45;&gt;8 -->
<g id="edge120" class="edge">
<title>18&#45;&gt;8</title>
<path fill="none" stroke="black" d="M1202.1,-666.15C1169.6,-662.03 1113.47,-652.72 1068.75,-633.99 1057.5,-629.28 1056,-625.63 1045.75,-618.99 1032.2,-610.21 1017.09,-600.48 1004.56,-592.44"/>
<polygon fill="black" stroke="black" points="1006.26,-589.37 995.96,-586.91 1002.48,-595.26 1006.26,-589.37"/>
<text text-anchor="middle" x="1073.75" y="-622.79" font-family="Times,serif" font-size="14.00">1</text>
</g>
<!-- 18&#45;&gt;12 -->
<g id="edge56" class="edge">
<title>18&#45;&gt;12</title>
<path fill="none" stroke="black" d="M1255.29,-666.32C1311.36,-660.65 1445.99,-646.87 1558.75,-633.99 1724.4,-615.07 1921.89,-590.15 2002.15,-579.93"/>
<polygon fill="black" stroke="black" points="2002.76,-583.38 2012.23,-578.64 2001.87,-576.44 2002.76,-583.38"/>
<text text-anchor="middle" x="1682.75" y="-622.79" font-family="Times,serif" font-size="14.00">4</text>
</g>
<!-- 22 -->
<g id="node24" class="node">
<title>22</title>
<ellipse fill="none" stroke="black" cx="1198.75" cy="-756.99" rx="27" ry="18"/>
<text text-anchor="middle" x="1198.75" y="-753.29" font-family="Times,serif" font-size="14.00">22</text>
</g>
<!-- 18&#45;&gt;22 -->
<g id="edge136" class="edge">
<title>18&#45;&gt;22</title>
<path fill="none" stroke="black" d="M1212.96,-684.76C1207.35,-690.67 1201.7,-698.04 1198.75,-705.99 1196.13,-713.07 1195.29,-721.12 1195.33,-728.65"/>
<polygon fill="black" stroke="black" points="1191.84,-729.01 1195.86,-738.81 1198.83,-728.64 1191.84,-729.01"/>
<text text-anchor="middle" x="1203.75" y="-709.79" font-family="Times,serif" font-size="14.00">0</text>
</g>
<!-- 25 -->
<g id="node27" class="node">
<title>25</title>
<ellipse fill="none" stroke="black" cx="138.75" cy="-196" rx="27" ry="18"/>
<text text-anchor="middle" x="138.75" y="-192.3" font-family="Times,serif" font-size="14.00">25</text>
</g>
<!-- 18&#45;&gt;25 -->
<g id="edge20" class="edge">
<title>18&#45;&gt;25</title>
<path fill="none" stroke="black" d="M1228.16,-651.72C1227.57,-632.91 1226.75,-601.94 1226.75,-575.24 1226.75,-575.24 1226.75,-575.24 1226.75,-434 1226.75,-358.54 1246.5,-315.09 1186.75,-269 1161.49,-249.51 644.58,-253.31 612.75,-251 448.71,-239.1 253.95,-213.17 174.83,-202.14"/>
<polygon fill="black" stroke="black" points="175.28,-198.66 164.89,-200.74 174.31,-205.6 175.28,-198.66"/>
<text text-anchor="middle" x="1231.75" y="-431.3" font-family="Times,serif" font-size="14.00">2</text>
</g>
<!-- 19 -->
<g id="node21" class="node">
<title>19</title>
<ellipse fill="none" stroke="black" cx="1450.75" cy="-1131.24" rx="22.96" ry="22.96"/>
<ellipse fill="none" stroke="black" cx="1450.75" cy="-1131.24" rx="27" ry="27"/>
<text text-anchor="middle" x="1450.75" y="-1127.54" font-family="Times,serif" font-size="14.00">19</text>
</g>
<!-- 19&#45;&gt;2 -->
<g id="edge19" class="edge">
<title>19&#45;&gt;2</title>
<path fill="none" stroke="black" d="M1430.86,-1149.57C1422.62,-1157.24 1413.25,-1166.63 1405.75,-1175.98 1366.55,-1224.86 1363.1,-1241.73 1331.75,-1295.98 1287.78,-1372.09 1279.13,-1392.43 1237.75,-1469.98 1180.3,-1577.68 1206.56,-1638.63 1109.75,-1712.98 1081.2,-1734.92 1064.92,-1719.61 1030.75,-1730.98 959.21,-1754.81 947.98,-1778.31 875.75,-1799.98 816.25,-1817.85 744.39,-1827.31 701.75,-1831.72"/>
<polygon fill="black" stroke="black" points="701.17,-1828.26 691.56,-1832.74 701.86,-1835.23 701.17,-1828.26"/>
<text text-anchor="middle" x="1242.75" y="-1484.28" font-family="Times,serif" font-size="14.00">4</text>
</g>
<!-- 19&#45;&gt;8 -->
<g id="edge150" class="edge">
<title>19&#45;&gt;8</title>
<path fill="none" stroke="black" d="M1433.64,-1110.16C1360.81,-1024.7 1076.81,-691.47 998.09,-599.1"/>
<polygon fill="black" stroke="black" points="1000.68,-596.75 991.53,-591.41 995.35,-601.29 1000.68,-596.75"/>
<text text-anchor="middle" x="1225.75" y="-840.29" font-family="Times,serif" font-size="14.00">2</text>
</g>
<!-- 19&#45;&gt;15 -->
<g id="edge87" class="edge">
<title>19&#45;&gt;15</title>
<path fill="none" stroke="black" d="M1453.89,-1104.49C1459.55,-1051.45 1468.7,-926.5 1443.75,-825.99 1441.6,-817.31 1436.81,-816.7 1434.75,-807.99 1433.22,-801.5 1433.08,-799.44 1434.75,-792.99 1466.21,-672.07 1480.08,-632.4 1571.75,-547.5 1585.76,-534.52 1595.55,-541.04 1610.75,-529.5 1656.76,-494.58 1697.46,-439.88 1718.85,-408.36"/>
<polygon fill="black" stroke="black" points="1721.96,-410.01 1724.61,-399.75 1716.14,-406.12 1721.96,-410.01"/>
<text text-anchor="middle" x="1454.75" y="-753.29" font-family="Times,serif" font-size="14.00">1</text>
</g>
<!-- 19&#45;&gt;16 -->
<g id="edge121" class="edge">
<title>19&#45;&gt;16</title>
<path fill="none" stroke="black" d="M1428.06,-1116.64C1407.7,-1104.54 1376.93,-1086.48 1349.75,-1071.49 1337.69,-1064.84 1324.26,-1057.76 1312.61,-1051.72"/>
<polygon fill="black" stroke="black" points="1314.2,-1048.6 1303.71,-1047.12 1310.99,-1054.82 1314.2,-1048.6"/>
<text text-anchor="middle" x="1380.75" y="-1075.29" font-family="Times,serif" font-size="14.00">0</text>
</g>
<!-- 19&#45;&gt;18 -->
<g id="edge72" class="edge">
<title>19&#45;&gt;18</title>
<path fill="none" stroke="black" d="M1442.78,-1105.66C1439.13,-1095.03 1434.54,-1082.52 1429.75,-1071.49 1388.03,-975.4 1368.4,-955.79 1321.75,-861.99 1294.76,-807.7 1289.42,-793.44 1262.75,-738.99 1255.81,-724.82 1247.94,-709.06 1241.52,-696.28"/>
<polygon fill="black" stroke="black" points="1244.56,-694.53 1236.94,-687.17 1238.3,-697.67 1244.56,-694.53"/>
<text text-anchor="middle" x="1343.75" y="-883.79" font-family="Times,serif" font-size="14.00">3</text>
</g>
<!-- 20&#45;&gt;1 -->
<g id="edge53" class="edge">
<title>20&#45;&gt;1</title>
<path fill="none" stroke="black" d="M1803.78,-1244.94C1787.84,-1312.03 1727.42,-1558.62 1684.75,-1625.98 1604.47,-1752.75 1570.41,-1787.77 1435.75,-1853.98 1316.66,-1912.54 1155.35,-1921.45 1083.26,-1922.29"/>
<polygon fill="black" stroke="black" points="1082.86,-1918.79 1072.88,-1922.36 1082.91,-1925.79 1082.86,-1918.79"/>
<text text-anchor="middle" x="1720.75" y="-1571.28" font-family="Times,serif" font-size="14.00">4</text>
</g>
<!-- 20&#45;&gt;4 -->
<g id="edge28" class="edge">
<title>20&#45;&gt;4</title>
<path fill="none" stroke="black" d="M1813.43,-1244.7C1828.31,-1288.5 1868.52,-1406.84 1886.66,-1460.22"/>
<polygon fill="black" stroke="black" points="1883.45,-1461.65 1889.98,-1469.99 1890.08,-1459.4 1883.45,-1461.65"/>
<text text-anchor="middle" x="1859.75" y="-1353.78" font-family="Times,serif" font-size="14.00">0</text>
</g>
<!-- 20&#45;&gt;13 -->
<g id="edge103" class="edge">
<title>20&#45;&gt;13</title>
<path fill="none" stroke="black" d="M1799.46,-1209.42C1788.71,-1185.61 1772.78,-1140.6 1785.75,-1104.49 1807.48,-1044.03 1877.75,-1057.23 1877.75,-992.99 1877.75,-992.99 1877.75,-992.99 1877.75,-712.49 1877.75,-638.05 1873.63,-550.32 1871.3,-506.81"/>
<polygon fill="black" stroke="black" points="1874.79,-506.53 1870.75,-496.73 1867.8,-506.91 1874.79,-506.53"/>
<text text-anchor="middle" x="1882.75" y="-840.29" font-family="Times,serif" font-size="14.00">2</text>
</g>
<!-- 20&#45;&gt;19 -->
<g id="edge58" class="edge">
<title>20&#45;&gt;19</title>
<path fill="none" stroke="black" d="M1784.31,-1217.93C1775.41,-1214.98 1765.15,-1211.7 1755.75,-1208.98 1659.21,-1181.09 1543.84,-1153.64 1486.61,-1140.41"/>
<polygon fill="black" stroke="black" points="1487.15,-1136.94 1476.62,-1138.11 1485.58,-1143.76 1487.15,-1136.94"/>
<text text-anchor="middle" x="1694.75" y="-1179.78" font-family="Times,serif" font-size="14.00">3</text>
</g>
<!-- 20&#45;&gt;21 -->
<g id="edge2" class="edge">
<title>20&#45;&gt;21</title>
<path fill="none" stroke="black" d="M1815.5,-1209.49C1827.45,-1183.64 1850.71,-1131.85 1866.75,-1086.49 1931.82,-902.53 1937.21,-846.98 1929.75,-651.99 1928.12,-609.14 1937.48,-489.35 1905.75,-460.5 1853.19,-412.68 744.32,-388.71 525.91,-384.45"/>
<polygon fill="black" stroke="black" points="525.69,-380.94 515.62,-384.25 525.55,-387.94 525.69,-380.94"/>
<text text-anchor="middle" x="1937.75" y="-796.79" font-family="Times,serif" font-size="14.00">1</text>
</g>
<!-- 21&#45;&gt;0 -->
<g id="edge100" class="edge">
<title>21&#45;&gt;0</title>
<path fill="none" stroke="black" d="M469.11,-401.42C451.94,-418.88 429.75,-447.3 429.75,-477.5 429.75,-1079.99 429.75,-1079.99 429.75,-1079.99 429.75,-1125.11 477.42,-1399.65 369.75,-1505.98 240.86,-1633.28 13.75,-1523.33 13.75,-1704.48 13.75,-2097.98 13.75,-2097.98 13.75,-2097.98 13.75,-2122.63 17.02,-2134.66 37.75,-2147.98 81.43,-2176.06 1771.55,-2185.55 2027.44,-2186.83"/>
<polygon fill="black" stroke="black" points="2027.55,-2190.33 2037.57,-2186.88 2027.58,-2183.33 2027.55,-2190.33"/>
<text text-anchor="middle" x="444.75" y="-1310.28" font-family="Times,serif" font-size="14.00">4</text>
</g>
<!-- 21&#45;&gt;1 -->
<g id="edge126" class="edge">
<title>21&#45;&gt;1</title>
<path fill="none" stroke="black" d="M503.49,-405.5C519.78,-431.7 543.75,-477.61 543.75,-521 543.75,-1079.99 543.75,-1079.99 543.75,-1079.99 543.75,-1164.21 545.75,-1185.26 545.75,-1269.48 545.75,-1445.48 545.75,-1445.48 545.75,-1445.48 545.75,-1502.53 815.07,-1815.03 856.75,-1853.98 875.4,-1871.41 880.52,-1876.42 903.75,-1886.98 937.82,-1902.48 979.73,-1911.73 1009.16,-1916.8"/>
<polygon fill="black" stroke="black" points="1008.97,-1920.31 1019.4,-1918.48 1010.1,-1913.41 1008.97,-1920.31"/>
<text text-anchor="middle" x="550.75" y="-1179.78" font-family="Times,serif" font-size="14.00">3</text>
</g>
<!-- 21&#45;&gt;5 -->
<g id="edge93" class="edge">
<title>21&#45;&gt;5</title>
<path fill="none" stroke="black" d="M480.09,-408.48C474.31,-427.19 467.75,-453.64 467.75,-477.5 467.75,-1079.99 467.75,-1079.99 467.75,-1079.99 467.75,-1164.21 469.75,-1185.26 469.75,-1269.48 469.75,-1445.48 469.75,-1445.48 469.75,-1445.48 469.75,-1610.49 203.75,-1539.48 203.75,-1704.48 203.75,-1880.48 203.75,-1880.48 203.75,-1880.48 203.75,-1923.62 195.63,-1947.6 229.75,-1973.98 276.7,-2010.28 1240.3,-1977.15 1297.75,-1991.98 1298.99,-1992.3 1300.23,-1992.68 1301.46,-1993.1"/>
<polygon fill="black" stroke="black" points="1300.15,-1996.34 1310.72,-1997.02 1302.88,-1989.89 1300.15,-1996.34"/>
<text text-anchor="middle" x="474.75" y="-1223.28" font-family="Times,serif" font-size="14.00">0</text>
</g>
<!-- 21&#45;&gt;10 -->
<g id="edge99" class="edge">
<title>21&#45;&gt;10</title>
<path fill="none" stroke="black" d="M500.61,-358.52C509,-339.93 518.75,-312.95 518.75,-288 518.75,-288 518.75,-288 518.75,-104 518.75,-75.74 542.16,-51.9 562.1,-36.73"/>
<polygon fill="black" stroke="black" points="564.29,-39.47 570.35,-30.78 560.2,-33.79 564.29,-39.47"/>
<text text-anchor="middle" x="523.75" y="-192.3" font-family="Times,serif" font-size="14.00">1</text>
</g>
<!-- 21&#45;&gt;27 -->
<g id="edge85" class="edge">
<title>21&#45;&gt;27</title>
<path fill="none" stroke="black" d="M462.75,-376.02C389.55,-359.92 181.71,-314.18 98.17,-295.79"/>
<polygon fill="black" stroke="black" points="98.67,-292.32 88.15,-293.59 97.17,-299.16 98.67,-292.32"/>
<text text-anchor="middle" x="293.75" y="-326.8" font-family="Times,serif" font-size="14.00">2</text>
</g>
<!-- 22&#45;&gt;1 -->
<g id="edge52" class="edge">
<title>22&#45;&gt;1</title>
<path fill="none" stroke="black" d="M1201.63,-774.98C1203.81,-788.7 1206.6,-808.52 1207.75,-825.99 1213.43,-912.09 1183.5,-931.55 1175.75,-1017.49 1174.32,-1033.42 1174.23,-1037.56 1175.75,-1053.49 1182.45,-1123.55 1193.49,-1139.68 1205.75,-1208.98 1228.97,-1340.26 1253.53,-1372.8 1247.75,-1505.98 1243.75,-1598.24 1266.08,-1628.08 1229.75,-1712.98 1194.26,-1795.94 1112.72,-1869.03 1071.14,-1902.54"/>
<polygon fill="black" stroke="black" points="1068.79,-1899.93 1063.14,-1908.89 1073.15,-1905.41 1068.79,-1899.93"/>
<text text-anchor="middle" x="1244.75" y="-1353.78" font-family="Times,serif" font-size="14.00">3</text>
</g>
<!-- 22&#45;&gt;2 -->
<g id="edge135" class="edge">
<title>22&#45;&gt;2</title>
<path fill="none" stroke="black" d="M1192.06,-774.82C1164.82,-844.84 1063.75,-1120.55 1063.75,-1356.48 1063.75,-1619.48 1063.75,-1619.48 1063.75,-1619.48 1063.75,-1661.33 1082.62,-1683.68 1052.75,-1712.98 1023.59,-1741.6 908.98,-1719.54 869.75,-1730.98 801.83,-1750.79 729.67,-1793.04 691.71,-1817.15"/>
<polygon fill="black" stroke="black" points="689.79,-1814.23 683.26,-1822.58 693.57,-1820.12 689.79,-1814.23"/>
<text text-anchor="middle" x="1070.75" y="-1310.28" font-family="Times,serif" font-size="14.00">1</text>
</g>
<!-- 22&#45;&gt;18 -->
<g id="edge14" class="edge">
<title>22&#45;&gt;18</title>
<path fill="none" stroke="black" d="M1204.68,-739.2C1208.87,-727.32 1214.58,-711.16 1219.38,-697.55"/>
<polygon fill="black" stroke="black" points="1222.81,-698.35 1222.84,-687.75 1216.21,-696.02 1222.81,-698.35"/>
<text text-anchor="middle" x="1220.75" y="-709.79" font-family="Times,serif" font-size="14.00">2</text>
</g>
<!-- 22&#45;&gt;22 -->
<g id="edge78" class="edge">
<title>22&#45;&gt;22</title>
<path fill="none" stroke="black" d="M1223.29,-764.74C1234.26,-765.48 1243.75,-762.9 1243.75,-756.99 1243.75,-753.02 1239.47,-750.56 1233.33,-749.59"/>
<polygon fill="black" stroke="black" points="1233.4,-746.09 1223.29,-749.24 1233.16,-753.08 1233.4,-746.09"/>
<text text-anchor="middle" x="1248.75" y="-753.29" font-family="Times,serif" font-size="14.00">0</text>
</g>
<!-- 22&#45;&gt;28 -->
<g id="edge147" class="edge">
<title>22&#45;&gt;28</title>
<path fill="none" stroke="black" d="M1215.56,-771.48C1222.41,-777.55 1230.04,-785.12 1235.75,-792.99 1320.52,-909.81 1312.36,-956.34 1374.75,-1086.49 1389.17,-1116.56 1505.75,-1323.14 1505.75,-1356.48 1505.75,-1488.98 1505.75,-1488.98 1505.75,-1488.98 1505.75,-1513.63 1513.39,-1520.55 1529.75,-1538.98 1536.61,-1546.71 1545.57,-1553.38 1554.26,-1558.76"/>
<polygon fill="black" stroke="black" points="1552.72,-1561.91 1563.13,-1563.89 1556.23,-1555.85 1552.72,-1561.91"/>
<text text-anchor="middle" x="1435.75" y="-1179.78" font-family="Times,serif" font-size="14.00">4</text>
</g>
<!-- 23&#45;&gt;4 -->
<g id="edge133" class="edge">
<title>23&#45;&gt;4</title>
<path fill="none" stroke="black" d="M1680.9,-966.24C1692.05,-1019.35 1720.8,-1145.2 1761.75,-1244.98 1796.07,-1328.59 1852.35,-1420.06 1879.75,-1462.64"/>
<polygon fill="black" stroke="black" points="1876.92,-1464.71 1885.3,-1471.2 1882.8,-1460.91 1876.92,-1464.71"/>
<text text-anchor="middle" x="1766.75" y="-1223.28" font-family="Times,serif" font-size="14.00">3</text>
</g>
<!-- 23&#45;&gt;15 -->
<g id="edge49" class="edge">
<title>23&#45;&gt;15</title>
<path fill="none" stroke="black" d="M1701.84,-933.24C1722.07,-927.45 1748.79,-916.13 1761.75,-894.99 1777.79,-868.85 1762.22,-856.66 1761.75,-825.99 1760.42,-737.74 1755.75,-715.75 1755.75,-627.49 1755.75,-627.49 1755.75,-627.49 1755.75,-477.5 1755.75,-454.28 1749.54,-428.59 1743.88,-409.98"/>
<polygon fill="black" stroke="black" points="1747.2,-408.89 1740.83,-400.43 1740.54,-411.02 1747.2,-408.89"/>
<text text-anchor="middle" x="1761.75" y="-666.29" font-family="Times,serif" font-size="14.00">0</text>
</g>
<!-- 23&#45;&gt;22 -->
<g id="edge110" class="edge">
<title>23&#45;&gt;22</title>
<path fill="none" stroke="black" d="M1650.06,-931.49C1621.63,-923.31 1574.57,-909.25 1534.75,-894.99 1420.99,-854.24 1289.07,-797.64 1230.07,-771.82"/>
<polygon fill="black" stroke="black" points="1231.47,-768.62 1220.91,-767.8 1228.66,-775.03 1231.47,-768.62"/>
<text text-anchor="middle" x="1451.75" y="-840.29" font-family="Times,serif" font-size="14.00">2</text>
</g>
<!-- 23&#45;&gt;24 -->
<g id="edge13" class="edge">
<title>23&#45;&gt;24</title>
<path fill="none" stroke="black" d="M1672.75,-913.12C1671.26,-900.42 1669.46,-885.07 1667.94,-872.16"/>
<polygon fill="black" stroke="black" points="1671.39,-871.52 1666.75,-862 1664.44,-872.34 1671.39,-871.52"/>
<text text-anchor="middle" x="1675.75" y="-883.79" font-family="Times,serif" font-size="14.00">1</text>
</g>
<!-- 23&#45;&gt;29 -->
<g id="edge86" class="edge">
<title>23&#45;&gt;29</title>
<path fill="none" stroke="black" d="M1649.01,-940.41C1579.02,-940.6 1386.21,-947.88 1246.75,-1017.49 1061.1,-1110.16 925.75,-1148.99 925.75,-1356.48 925.75,-1619.48 925.75,-1619.48 925.75,-1619.48 925.75,-1733.96 740.61,-1748.02 659.3,-1748.68"/>
<polygon fill="black" stroke="black" points="658.99,-1745.18 649,-1748.69 659,-1752.18 658.99,-1745.18"/>
<text text-anchor="middle" x="930.75" y="-1353.78" font-family="Times,serif" font-size="14.00">4</text>
</g>
<!-- 24&#45;&gt;3 -->
<g id="edge90" class="edge">
<title>24&#45;&gt;3</title>
<path fill="none" stroke="black" d="M1680.35,-859.32C1710.04,-887.29 1775.35,-952.16 1815.75,-1017.49 1872.61,-1109.43 1913.06,-1232.75 1929.1,-1286.31"/>
<polygon fill="black" stroke="black" points="1925.79,-1287.46 1931.98,-1296.06 1932.51,-1285.48 1925.79,-1287.46"/>
<text text-anchor="middle" x="1857.75" y="-1075.29" font-family="Times,serif" font-size="14.00">3</text>
</g>
<!-- 24&#45;&gt;5 -->
<g id="edge82" class="edge">
<title>24&#45;&gt;5</title>
<path fill="none" stroke="black" d="M1637.89,-846.16C1560.07,-851.17 1334.52,-877.7 1246.75,-1017.49 1164.99,-1147.72 1329.75,-1550.71 1329.75,-1704.48 1329.75,-1923.98 1329.75,-1923.98 1329.75,-1923.98 1329.75,-1943.23 1329.75,-1964.93 1329.75,-1981.59"/>
<polygon fill="black" stroke="black" points="1326.25,-1981.73 1329.75,-1991.73 1333.25,-1981.73 1326.25,-1981.73"/>
<text text-anchor="middle" x="1286.75" y="-1440.78" font-family="Times,serif" font-size="14.00">2</text>
</g>
<!-- 24&#45;&gt;13 -->
<g id="edge63" class="edge">
<title>24&#45;&gt;13</title>
<path fill="none" stroke="black" d="M1681.63,-829.52C1711.55,-804.72 1773.94,-748.79 1807.75,-687.99 1846.64,-618.07 1830.19,-590.31 1855.75,-514.5 1856.75,-511.55 1857.85,-508.5 1859,-505.47"/>
<polygon fill="black" stroke="black" points="1862.28,-506.68 1862.68,-496.09 1855.77,-504.12 1862.28,-506.68"/>
<text text-anchor="middle" x="1829.75" y="-666.29" font-family="Times,serif" font-size="14.00">0</text>
</g>
<!-- 24&#45;&gt;22 -->
<g id="edge141" class="edge">
<title>24&#45;&gt;22</title>
<path fill="none" stroke="black" d="M1638.77,-838.66C1600.14,-832.18 1525.27,-819.5 1461.75,-807.99 1380.42,-793.25 1285.16,-774.86 1234.58,-765"/>
<polygon fill="black" stroke="black" points="1234.97,-761.51 1224.49,-763.04 1233.63,-768.39 1234.97,-761.51"/>
<text text-anchor="middle" x="1466.75" y="-796.79" font-family="Times,serif" font-size="14.00">1</text>
</g>
<!-- 24&#45;&gt;24 -->
<g id="edge97" class="edge">
<title>24&#45;&gt;24</title>
<path fill="none" stroke="black" d="M1689.29,-851.74C1700.26,-852.48 1709.75,-849.9 1709.75,-843.99 1709.75,-840.02 1705.47,-837.56 1699.33,-836.59"/>
<polygon fill="black" stroke="black" points="1699.4,-833.09 1689.29,-836.24 1699.16,-840.08 1699.4,-833.09"/>
<text text-anchor="middle" x="1714.75" y="-840.29" font-family="Times,serif" font-size="14.00">4</text>
</g>
<!-- 25&#45;&gt;2 -->
<g id="edge12" class="edge">
<title>25&#45;&gt;2</title>
<path fill="none" stroke="black" d="M143.95,-213.88C148.95,-231.65 155.75,-260.52 155.75,-286 155.75,-888.49 155.75,-888.49 155.75,-888.49 155.75,-972.72 157.75,-993.76 157.75,-1077.99 157.75,-1271.48 157.75,-1271.48 157.75,-1271.48 157.75,-1395.96 175.5,-1432.98 240.75,-1538.98 246.21,-1547.85 250.28,-1548.12 255.75,-1556.98 277.93,-1592.88 279.08,-1604.42 293.75,-1643.98 318.98,-1712 285.81,-1753.8 341.75,-1799.98 363.45,-1817.9 547.56,-1829.15 627.72,-1833.24"/>
<polygon fill="black" stroke="black" points="627.7,-1836.74 637.86,-1833.75 628.05,-1829.75 627.7,-1836.74"/>
<text text-anchor="middle" x="162.75" y="-1031.79" font-family="Times,serif" font-size="14.00">0</text>
</g>
<!-- 25&#45;&gt;2 -->
<g id="edge131" class="edge">
<title>25&#45;&gt;2</title>
<path fill="none" stroke="black" d="M134.3,-214.02C128.14,-239.1 117.75,-287.58 117.75,-329.5 117.75,-801.49 117.75,-801.49 117.75,-801.49 117.75,-1116.56 69.72,-1217.66 196.75,-1505.98 217.83,-1553.82 229.52,-1562.78 249.75,-1610.98 278.1,-1678.5 271.82,-1700.61 302.75,-1766.98 310,-1782.53 308.26,-1790.82 322.75,-1799.98 372.62,-1831.52 549.43,-1835.22 627.38,-1835.27"/>
<polygon fill="black" stroke="black" points="627.7,-1838.77 637.7,-1835.26 627.69,-1831.77 627.7,-1838.77"/>
<text text-anchor="middle" x="116.75" y="-1031.79" font-family="Times,serif" font-size="14.00">2</text>
</g>
<!-- 25&#45;&gt;3 -->
<g id="edge15" class="edge">
<title>25&#45;&gt;3</title>
<path fill="none" stroke="black" d="M165.68,-198.94C225.3,-203.14 372.95,-213.14 496.75,-218 697.31,-225.88 1201.09,-207.45 1399.75,-236 1570.72,-260.57 1605.75,-302.36 1774.75,-338 1827.09,-349.04 1842.53,-340.58 1893.75,-356 1966.01,-377.75 1986.24,-383.79 2047.75,-427.5 2095.14,-461.16 2092.88,-489.78 2099.75,-547.5 2131.99,-818.31 2096.18,-891.59 2037.75,-1157.98 2025.18,-1215.29 2024.59,-1236.85 1982.75,-1277.98 1976.82,-1283.82 1969.9,-1289.55 1963.25,-1294.63"/>
<polygon fill="black" stroke="black" points="1961.04,-1291.91 1955.08,-1300.67 1965.2,-1297.54 1961.04,-1291.91"/>
<text text-anchor="middle" x="2117.75" y="-753.29" font-family="Times,serif" font-size="14.00">3</text>
</g>
<!-- 25&#45;&gt;10 -->
<g id="edge22" class="edge">
<title>25&#45;&gt;10</title>
<path fill="none" stroke="black" d="M151.67,-179.87C180.38,-146.63 249.43,-69.03 280.75,-54 327.98,-31.34 481.14,-22.92 552.51,-20.18"/>
<polygon fill="black" stroke="black" points="552.97,-23.66 562.83,-19.8 552.71,-16.67 552.97,-23.66"/>
<text text-anchor="middle" x="243.75" y="-101.3" font-family="Times,serif" font-size="14.00">1</text>
</g>
<!-- 25&#45;&gt;17 -->
<g id="edge114" class="edge">
<title>25&#45;&gt;17</title>
<path fill="none" stroke="black" d="M144.02,-178.26C148.09,-165.33 153.79,-147.2 158.47,-132.33"/>
<polygon fill="black" stroke="black" points="161.85,-133.25 161.51,-122.67 155.17,-131.15 161.85,-133.25"/>
<text text-anchor="middle" x="160.75" y="-144.8" font-family="Times,serif" font-size="14.00">4</text>
</g>
<!-- 26&#45;&gt;5 -->
<g id="edge125" class="edge">
<title>26&#45;&gt;5</title>
<path fill="none" stroke="black" d="M815.31,-484.75C775.69,-494.58 703.75,-519.78 703.75,-573.24 703.75,-1079.99 703.75,-1079.99 703.75,-1079.99 703.75,-1164.25 697.75,-1185.22 697.75,-1269.48 697.75,-1445.48 697.75,-1445.48 697.75,-1445.48 697.75,-1717.04 336.32,-1556.38 189.75,-1784.98 144.84,-1855.04 145.63,-1935.22 204.75,-1973.98 255.54,-2007.28 1238.95,-1976.82 1297.75,-1991.98 1298.99,-1992.3 1300.23,-1992.68 1301.46,-1993.1"/>
<polygon fill="black" stroke="black" points="1300.15,-1996.34 1310.72,-1997.01 1302.88,-1989.89 1300.15,-1996.34"/>
<text text-anchor="middle" x="702.75" y="-1266.78" font-family="Times,serif" font-size="14.00">1</text>
</g>
<!-- 26&#45;&gt;9 -->
<g id="edge98" class="edge">
<title>26&#45;&gt;9</title>
<path fill="none" stroke="black" d="M867.22,-482.82C940.71,-493.42 1149.44,-533.01 1264.75,-651.99 1336.05,-725.55 1314.86,-769.91 1359.75,-861.99 1413.07,-971.35 1457.69,-986.35 1486.75,-1104.49 1523.25,-1252.84 1429.75,-1290.7 1429.75,-1443.48 1429.75,-1575.98 1429.75,-1575.98 1429.75,-1575.98 1429.75,-1595.23 1429.75,-1616.93 1429.75,-1633.59"/>
<polygon fill="black" stroke="black" points="1426.25,-1633.73 1429.75,-1643.73 1433.25,-1633.73 1426.25,-1633.73"/>
<text text-anchor="middle" x="1487.75" y="-1075.29" font-family="Times,serif" font-size="14.00">4</text>
</g>
<!-- 26&#45;&gt;15 -->
<g id="edge95" class="edge">
<title>26&#45;&gt;15</title>
<path fill="none" stroke="black" d="M867.9,-477.03C950.67,-475.36 1207.07,-468.31 1417.75,-442.5 1521,-429.85 1641.4,-404.6 1699.64,-391.72"/>
<polygon fill="black" stroke="black" points="1700.44,-395.12 1709.44,-389.53 1698.92,-388.29 1700.44,-395.12"/>
<text text-anchor="middle" x="1519.75" y="-431.3" font-family="Times,serif" font-size="14.00">3</text>
</g>
<!-- 26&#45;&gt;21 -->
<g id="edge50" class="edge">
<title>26&#45;&gt;21</title>
<path fill="none" stroke="black" d="M813.5,-477.51C765.45,-476.73 663.13,-471.46 582.75,-442.5 559.26,-434.03 535.43,-419.05 517.64,-406.34"/>
<polygon fill="black" stroke="black" points="519.56,-403.4 509.43,-400.32 515.42,-409.05 519.56,-403.4"/>
<text text-anchor="middle" x="587.75" y="-431.3" font-family="Times,serif" font-size="14.00">0</text>
</g>
<!-- 26&#45;&gt;22 -->
<g id="edge107" class="edge">
<title>26&#45;&gt;22</title>
<path fill="none" stroke="black" d="M865.38,-485.97C899.55,-495.71 962.39,-516.36 1008.75,-547.5 1045.67,-572.29 1051.99,-583.48 1078.75,-618.99 1110.15,-660.64 1099.82,-684.17 1136.75,-720.99 1145.42,-729.63 1156.66,-736.82 1167.18,-742.39"/>
<polygon fill="black" stroke="black" points="1165.65,-745.54 1176.16,-746.87 1168.77,-739.28 1165.65,-745.54"/>
<text text-anchor="middle" x="1093.75" y="-622.79" font-family="Times,serif" font-size="14.00">2</text>
</g>
<!-- 27&#45;&gt;5 -->
<g id="edge45" class="edge">
<title>27&#45;&gt;5</title>
<path fill="none" stroke="black" d="M63.64,-305.27C64.52,-324.08 65.75,-355.04 65.75,-381.75 65.75,-992.99 65.75,-992.99 65.75,-992.99 65.75,-1082.06 81.79,-1103.18 96.75,-1190.98 107.46,-1253.8 108.82,-1269.8 122.75,-1331.98 131.5,-1371.01 134.26,-1380.68 145.75,-1418.98 155.37,-1451.04 241.75,-1671.02 241.75,-1704.48 241.75,-1923.98 241.75,-1923.98 241.75,-1923.98 241.75,-2041.56 1184.64,-1959.91 1297.75,-1991.98 1298.98,-1992.33 1300.21,-1992.73 1301.44,-1993.17"/>
<polygon fill="black" stroke="black" points="1300.11,-1996.41 1310.68,-1997.18 1302.9,-1989.99 1300.11,-1996.41"/>
<text text-anchor="middle" x="101.75" y="-1179.78" font-family="Times,serif" font-size="14.00">0</text>
</g>
<!-- 27&#45;&gt;6 -->
<g id="edge123" class="edge">
<title>27&#45;&gt;6</title>
<path fill="none" stroke="black" d="M52.82,-303.92C42.47,-322.05 27.75,-352.91 27.75,-381.75 27.75,-992.99 27.75,-992.99 27.75,-992.99 27.75,-1274.08 127.75,-1336.39 127.75,-1617.48 127.75,-2010.98 127.75,-2010.98 127.75,-2010.98 127.75,-2103.71 1653.35,-2097.91 1912.54,-2096.26"/>
<polygon fill="black" stroke="black" points="1912.61,-2099.76 1922.58,-2096.19 1912.56,-2092.76 1912.61,-2099.76"/>
<text text-anchor="middle" x="65.75" y="-1223.28" font-family="Times,serif" font-size="14.00">3</text>
</g>
<!-- 27&#45;&gt;17 -->
<g id="edge3" class="edge">
<title>27&#45;&gt;17</title>
<path fill="none" stroke="black" d="M64.33,-268.9C67.1,-245.88 74.4,-204.3 92.75,-174 104.65,-154.36 123.88,-136.94 139.75,-124.65"/>
<polygon fill="black" stroke="black" points="142.24,-127.16 148.16,-118.37 138.05,-121.55 142.24,-127.16"/>
<text text-anchor="middle" x="97.75" y="-192.3" font-family="Times,serif" font-size="14.00">1</text>
</g>
<!-- 27&#45;&gt;22 -->
<g id="edge89" class="edge">
<title>27&#45;&gt;22</title>
<path fill="none" stroke="black" d="M89.04,-291.81C133.19,-298.21 225.06,-311.56 302.75,-323 646.57,-373.62 787.37,-321.96 1051.75,-547.5 1114.74,-601.23 1164.12,-687.66 1186.18,-730.39"/>
<polygon fill="black" stroke="black" points="1183.18,-732.21 1190.84,-739.54 1189.42,-729.04 1183.18,-732.21"/>
<text text-anchor="middle" x="1034.75" y="-518.3" font-family="Times,serif" font-size="14.00">2</text>
</g>
<!-- 27&#45;&gt;25 -->
<g id="edge116" class="edge">
<title>27&#45;&gt;25</title>
<path fill="none" stroke="black" d="M74.33,-270.37C81.9,-260.36 92.13,-247.18 101.75,-236 106.58,-230.39 111.97,-224.52 117.1,-219.08"/>
<polygon fill="black" stroke="black" points="119.97,-221.15 124.35,-211.5 114.91,-216.31 119.97,-221.15"/>
<text text-anchor="middle" x="106.75" y="-239.8" font-family="Times,serif" font-size="14.00">4</text>
</g>
<!-- 28&#45;&gt;4 -->
<g id="edge11" class="edge">
<title>28&#45;&gt;4</title>
<path fill="none" stroke="black" d="M1611.21,-1571.25C1649.3,-1566.86 1721.53,-1556.88 1780.75,-1538.98 1810.66,-1529.95 1843.17,-1515.33 1865.97,-1504.23"/>
<polygon fill="black" stroke="black" points="1867.7,-1507.28 1875.11,-1499.71 1864.6,-1501.01 1867.7,-1507.28"/>
<text text-anchor="middle" x="1824.75" y="-1527.78" font-family="Times,serif" font-size="14.00">1</text>
</g>
<!-- 28&#45;&gt;5 -->
<g id="edge25" class="edge">
<title>28&#45;&gt;5</title>
<path fill="none" stroke="black" d="M1609.39,-1582.82C1642.09,-1593.56 1695.75,-1617.78 1695.75,-1660.98 1695.75,-1923.98 1695.75,-1923.98 1695.75,-1923.98 1695.75,-1991.04 1459.73,-2005.21 1366.76,-2008.19"/>
<polygon fill="black" stroke="black" points="1366.56,-2004.7 1356.67,-2008.49 1366.77,-2011.7 1366.56,-2004.7"/>
<text text-anchor="middle" x="1700.75" y="-1788.78" font-family="Times,serif" font-size="14.00">3</text>
</g>
<!-- 28&#45;&gt;10 -->
<g id="edge41" class="edge">
<title>28&#45;&gt;10</title>
<path fill="none" stroke="black" d="M1583.79,-1556.73C1582.91,-1539.57 1581.75,-1512.46 1581.75,-1488.98 1581.75,-1488.98 1581.75,-1488.98 1581.75,-1182.48 1581.75,-863.37 1435.88,-808.68 1369.75,-496.5 1350.48,-405.51 1351.75,-381.01 1351.75,-288 1351.75,-288 1351.75,-288 1351.75,-104 1351.75,-30.23 780.37,-20.48 627.17,-19.2"/>
<polygon fill="black" stroke="black" points="626.9,-15.69 616.87,-19.12 626.85,-22.69 626.9,-15.69"/>
<text text-anchor="middle" x="1491.75" y="-796.79" font-family="Times,serif" font-size="14.00">4</text>
</g>
<!-- 28&#45;&gt;21 -->
<g id="edge148" class="edge">
<title>28&#45;&gt;21</title>
<path fill="none" stroke="black" d="M1572.23,-1558.75C1560.17,-1542.51 1543.75,-1515.53 1543.75,-1488.98 1543.75,-1488.98 1543.75,-1488.98 1543.75,-1182.48 1543.75,-1128.91 1517.69,-1120.8 1496.75,-1071.49 1486.56,-1047.48 1484.86,-1041.09 1473.75,-1017.49 1451.5,-970.19 1445.67,-958.39 1419.75,-912.99 1406.49,-889.75 1398.02,-886.7 1387.75,-861.99 1377.16,-836.51 1373.75,-829.09 1373.75,-801.49 1373.75,-801.49 1373.75,-801.49 1373.75,-668.99 1373.75,-487.84 693.53,-405.08 525.8,-387.43"/>
<polygon fill="black" stroke="black" points="526.03,-383.93 515.72,-386.38 525.31,-390.89 526.03,-383.93"/>
<text text-anchor="middle" x="1470.75" y="-988.29" font-family="Times,serif" font-size="14.00">2</text>
</g>
<!-- 28&#45;&gt;28 -->
<g id="edge61" class="edge">
<title>28&#45;&gt;28</title>
<path fill="none" stroke="black" d="M1609.29,-1582.74C1620.26,-1583.47 1629.75,-1580.89 1629.75,-1574.98 1629.75,-1571.02 1625.47,-1568.55 1619.33,-1567.58"/>
<polygon fill="black" stroke="black" points="1619.4,-1564.08 1609.29,-1567.23 1619.16,-1571.07 1619.4,-1564.08"/>
<text text-anchor="middle" x="1634.75" y="-1571.28" font-family="Times,serif" font-size="14.00">0</text>
</g>
<!-- 29&#45;&gt;9 -->
<g id="edge67" class="edge">
<title>29&#45;&gt;9</title>
<path fill="none" stroke="black" d="M648.18,-1745.2C767.33,-1732.67 1254.78,-1681.39 1393.04,-1666.85"/>
<polygon fill="black" stroke="black" points="1393.54,-1670.31 1403.12,-1665.79 1392.81,-1663.35 1393.54,-1670.31"/>
<text text-anchor="middle" x="1079.75" y="-1701.78" font-family="Times,serif" font-size="14.00">3</text>
</g>
<!-- 29&#45;&gt;10 -->
<g id="edge118" class="edge">
<title>29&#45;&gt;10</title>
<path fill="none" stroke="black" d="M594.77,-1746.24C546.03,-1742.62 445.79,-1732.93 417.75,-1712.98 353.25,-1667.08 382.42,-1617.82 331.75,-1556.98 323.67,-1547.28 317.11,-1549.25 309.75,-1538.98 276.57,-1492.69 274.92,-1475.03 264.75,-1418.98 243.71,-1302.95 277.75,-1006.41 277.75,-888.49 277.75,-888.49 277.75,-888.49 277.75,-521 277.75,-442.69 358.48,-85.93 392.75,-54 415.41,-32.89 502.09,-24.21 552.6,-20.88"/>
<polygon fill="black" stroke="black" points="553.03,-24.36 562.8,-20.25 552.6,-17.37 553.03,-24.36"/>
<text text-anchor="middle" x="282.75" y="-883.79" font-family="Times,serif" font-size="14.00">2</text>
</g>
<!-- 29&#45;&gt;13 -->
<g id="edge73" class="edge">
<title>29&#45;&gt;13</title>
<path fill="none" stroke="black" d="M624.26,-1730.93C628.07,-1709.28 636.85,-1671.43 654.75,-1643.98 694.36,-1583.28 773.75,-1604.96 773.75,-1532.48 773.75,-1532.48 773.75,-1532.48 773.75,-1356.48 773.75,-1233.44 787.75,-1203.03 787.75,-1079.99 787.75,-1079.99 787.75,-1079.99 787.75,-712.49 787.75,-628.09 808.71,-589.77 881.75,-547.5 902.76,-535.34 1655.92,-491.69 1832.83,-481.59"/>
<polygon fill="black" stroke="black" points="1833.15,-485.08 1842.94,-481.02 1832.75,-478.09 1833.15,-485.08"/>
<text text-anchor="middle" x="792.75" y="-1127.54" font-family="Times,serif" font-size="14.00">1</text>
</g>
<!-- 29&#45;&gt;21 -->
<g id="edge57" class="edge">
<title>29&#45;&gt;21</title>
<path fill="none" stroke="black" d="M595.38,-1744.54C561.62,-1739.54 506.02,-1729.05 493.75,-1712.98 489.71,-1707.68 493.47,-1704.64 493.75,-1697.98 496.87,-1624.23 507.75,-1606.3 507.75,-1532.48 507.75,-1532.48 507.75,-1532.48 507.75,-1269.48 507.75,-1185.26 505.75,-1164.21 505.75,-1079.99 505.75,-1079.99 505.75,-1079.99 505.75,-521 505.75,-486.19 500.3,-446.79 495.57,-419.16"/>
<polygon fill="black" stroke="black" points="499,-418.42 493.81,-409.18 492.1,-419.64 499,-418.42"/>
<text text-anchor="middle" x="511.75" y="-1075.29" font-family="Times,serif" font-size="14.00">0</text>
</g>
<!-- 29&#45;&gt;22 -->
<g id="edge145" class="edge">
<title>29&#45;&gt;22</title>
<path fill="none" stroke="black" d="M648.72,-1747.26C716.35,-1743.87 887.75,-1724.88 887.75,-1619.48 887.75,-1619.48 887.75,-1619.48 887.75,-1356.48 887.75,-1138.1 873.36,-1052.12 1007.75,-879.99 1050.21,-825.61 1124.11,-788.49 1166.46,-770.5"/>
<polygon fill="black" stroke="black" points="1167.86,-773.71 1175.76,-766.64 1165.18,-767.24 1167.86,-773.71"/>
<text text-anchor="middle" x="892.75" y="-1266.78" font-family="Times,serif" font-size="14.00">4</text>
</g>
</g>
</svg>
