<?xml version="1.0" encoding="UTF-8" standalone="no"?>
<!DOCTYPE svg PUBLIC "-//W3C//DTD SVG 1.1//EN"
 "http://www.w3.org/Graphics/SVG/1.1/DTD/svg11.dtd">
<!-- Generated by graphviz version 2.49.0 (20210829.0051)
 -->
<!-- Pages: 1 -->
<svg width="2846pt" height="2221pt"
 viewBox="0.00 0.00 2846.28 2221.48" xmlns="http://www.w3.org/2000/svg" xmlns:xlink="http://www.w3.org/1999/xlink">
<g id="graph0" class="graph" transform="scale(1 1) rotate(0) translate(4 2217.48)">
<polygon fill="white" stroke="transparent" points="-4,4 -4,-2217.48 2842.28,-2217.48 2842.28,4 -4,4"/>
<!-- fake -->
<g id="node1" class="node">
<title>fake</title>
</g>
<!-- 29 -->
<g id="node31" class="node">
<title>29</title>
<ellipse fill="none" stroke="black" cx="2600" cy="-2113.73" rx="22.96" ry="22.96"/>
<ellipse fill="none" stroke="black" cx="2600" cy="-2113.73" rx="27" ry="27"/>
<text text-anchor="middle" x="2600" y="-2110.03" font-family="Times,serif" font-size="14.00">29</text>
</g>
<!-- fake&#45;&gt;29 -->
<g id="edge1" class="edge">
<title>fake&#45;&gt;29</title>
<path fill="none" stroke="black" stroke-width="2" d="M2600,-2177.18C2600,-2169.39 2600,-2159.89 2600,-2150.67"/>
<polygon fill="black" stroke="black" stroke-width="2" points="2603.5,-2150.49 2600,-2140.49 2596.5,-2150.49 2603.5,-2150.49"/>
</g>
<!-- 0 -->
<g id="node2" class="node">
<title>0</title>
<ellipse fill="none" stroke="black" cx="987" cy="-1313.98" rx="27" ry="18"/>
<text text-anchor="middle" x="987" y="-1310.28" font-family="Times,serif" font-size="14.00">0</text>
</g>
<!-- 0&#45;&gt;0 -->
<g id="edge147" class="edge">
<title>0&#45;&gt;0</title>
<path fill="none" stroke="black" d="M1011.53,-1321.74C1022.51,-1322.47 1032,-1319.89 1032,-1313.98 1032,-1310.02 1027.72,-1307.55 1021.57,-1306.58"/>
<polygon fill="black" stroke="black" points="1021.65,-1303.08 1011.53,-1306.23 1021.41,-1310.07 1021.65,-1303.08"/>
<text text-anchor="middle" x="1037" y="-1310.28" font-family="Times,serif" font-size="14.00">0</text>
</g>
<!-- 2 -->
<g id="node4" class="node">
<title>2</title>
<ellipse fill="none" stroke="black" cx="866" cy="-1574.98" rx="27" ry="18"/>
<text text-anchor="middle" x="866" y="-1571.28" font-family="Times,serif" font-size="14.00">2</text>
</g>
<!-- 0&#45;&gt;2 -->
<g id="edge16" class="edge">
<title>0&#45;&gt;2</title>
<path fill="none" stroke="black" d="M959.88,-1316.66C936.67,-1319.64 904.34,-1327.82 887,-1349.98 841.89,-1407.66 851.58,-1500.99 860.01,-1546.82"/>
<polygon fill="black" stroke="black" points="856.62,-1547.75 861.98,-1556.89 863.49,-1546.4 856.62,-1547.75"/>
<text text-anchor="middle" x="860" y="-1440.78" font-family="Times,serif" font-size="14.00">4</text>
</g>
<!-- 17 -->
<g id="node19" class="node">
<title>17</title>
<ellipse fill="none" stroke="black" cx="1088" cy="-1122.49" rx="27" ry="18"/>
<text text-anchor="middle" x="1088" y="-1118.79" font-family="Times,serif" font-size="14.00">17</text>
</g>
<!-- 0&#45;&gt;17 -->
<g id="edge27" class="edge">
<title>0&#45;&gt;17</title>
<path fill="none" stroke="black" d="M1002.34,-1298.95C1008.37,-1292.91 1015.02,-1285.5 1020,-1277.98 1047.61,-1236.32 1068.61,-1181.61 1079.56,-1149.72"/>
<polygon fill="black" stroke="black" points="1082.88,-1150.8 1082.75,-1140.21 1076.25,-1148.57 1082.88,-1150.8"/>
<text text-anchor="middle" x="1069" y="-1214.54" font-family="Times,serif" font-size="14.00">3</text>
</g>
<!-- 20 -->
<g id="node22" class="node">
<title>20</title>
<ellipse fill="none" stroke="black" cx="769" cy="-122.5" rx="27" ry="18"/>
<text text-anchor="middle" x="769" y="-118.8" font-family="Times,serif" font-size="14.00">20</text>
</g>
<!-- 0&#45;&gt;20 -->
<g id="edge87" class="edge">
<title>0&#45;&gt;20</title>
<path fill="none" stroke="black" d="M982.36,-1296.11C975.59,-1272.31 962.02,-1227.73 946,-1191.49 942.3,-1183.12 938.35,-1182.33 936,-1173.49 833.63,-789.07 984.2,-671.72 924,-278.5 915.4,-222.34 923.87,-194.59 880,-158.5 858.8,-141.05 828.83,-132.26 805.37,-127.86"/>
<polygon fill="black" stroke="black" points="805.88,-124.4 795.44,-126.18 804.71,-131.3 805.88,-124.4"/>
<text text-anchor="middle" x="920" y="-727.29" font-family="Times,serif" font-size="14.00">1</text>
</g>
<!-- 28 -->
<g id="node30" class="node">
<title>28</title>
<ellipse fill="none" stroke="black" cx="910" cy="-1218.24" rx="22.96" ry="22.96"/>
<ellipse fill="none" stroke="black" cx="910" cy="-1218.24" rx="27" ry="27"/>
<text text-anchor="middle" x="910" y="-1214.54" font-family="Times,serif" font-size="14.00">28</text>
</g>
<!-- 0&#45;&gt;28 -->
<g id="edge61" class="edge">
<title>0&#45;&gt;28</title>
<path fill="none" stroke="black" d="M968.5,-1300.77C960.06,-1294.6 950.34,-1286.6 943,-1277.98 936.36,-1270.18 930.4,-1260.84 925.43,-1251.93"/>
<polygon fill="black" stroke="black" points="928.41,-1250.07 920.63,-1242.88 922.23,-1253.36 928.41,-1250.07"/>
<text text-anchor="middle" x="948" y="-1266.78" font-family="Times,serif" font-size="14.00">2</text>
</g>
<!-- 1 -->
<g id="node3" class="node">
<title>1</title>
<ellipse fill="none" stroke="black" cx="866" cy="-1661.98" rx="27" ry="18"/>
<text text-anchor="middle" x="866" y="-1658.28" font-family="Times,serif" font-size="14.00">1</text>
</g>
<!-- 1&#45;&gt;2 -->
<g id="edge7" class="edge">
<title>1&#45;&gt;2</title>
<path fill="none" stroke="black" d="M866,-1643.78C866,-1632.15 866,-1616.53 866,-1603.22"/>
<polygon fill="black" stroke="black" points="869.5,-1603.16 866,-1593.16 862.5,-1603.16 869.5,-1603.16"/>
<text text-anchor="middle" x="871" y="-1614.78" font-family="Times,serif" font-size="14.00">1</text>
</g>
<!-- 14 -->
<g id="node16" class="node">
<title>14</title>
<ellipse fill="none" stroke="black" cx="667" cy="-861.49" rx="27" ry="18"/>
<text text-anchor="middle" x="667" y="-857.79" font-family="Times,serif" font-size="14.00">14</text>
</g>
<!-- 1&#45;&gt;14 -->
<g id="edge69" class="edge">
<title>1&#45;&gt;14</title>
<path fill="none" stroke="black" d="M844.38,-1650.95C806.98,-1632.78 729.29,-1591.41 678,-1538.98 602.35,-1461.67 588.96,-1432.89 550,-1331.98 513.56,-1237.6 517.49,-1202.65 542,-1104.49 563.56,-1018.15 620.97,-927.97 649.87,-886.26"/>
<polygon fill="black" stroke="black" points="652.87,-888.07 655.75,-877.88 647.14,-884.06 652.87,-888.07"/>
<text text-anchor="middle" x="537" y="-1266.78" font-family="Times,serif" font-size="14.00">4</text>
</g>
<!-- 21 -->
<g id="node23" class="node">
<title>21</title>
<ellipse fill="none" stroke="black" cx="1675" cy="-948.49" rx="27" ry="18"/>
<text text-anchor="middle" x="1675" y="-944.79" font-family="Times,serif" font-size="14.00">21</text>
</g>
<!-- 1&#45;&gt;21 -->
<g id="edge35" class="edge">
<title>1&#45;&gt;21</title>
<path fill="none" stroke="black" d="M892.53,-1657.3C918.02,-1653.79 957.63,-1648.4 992,-1643.98 1131.9,-1626.01 1525.21,-1645.22 1618,-1538.98 1696.77,-1448.8 1650,-1391.22 1650,-1271.48 1650,-1271.48 1650,-1271.48 1650,-1034.49 1650,-1014.11 1656.7,-992.05 1663.16,-975.52"/>
<polygon fill="black" stroke="black" points="1666.51,-976.58 1667.09,-966 1660.04,-973.91 1666.51,-976.58"/>
<text text-anchor="middle" x="1659" y="-1310.28" font-family="Times,serif" font-size="14.00">2</text>
</g>
<!-- 1&#45;&gt;21 -->
<g id="edge85" class="edge">
<title>1&#45;&gt;21</title>
<path fill="none" stroke="black" d="M891.99,-1656.79C917.41,-1652.86 957.27,-1647.11 992,-1643.98 1120.86,-1632.37 1454.43,-1647 1572,-1592.98 1606.44,-1577.16 1611.2,-1565.78 1638,-1538.98 1651.4,-1525.58 1657.02,-1523.17 1665,-1505.98 1675.27,-1483.84 1671.71,-1476.17 1675,-1451.98 1698.99,-1275.82 1702.21,-1231.11 1710,-1053.49 1710.7,-1037.5 1713.77,-1033.04 1710,-1017.49 1706.29,-1002.17 1698.49,-986.43 1691.2,-973.96"/>
<polygon fill="black" stroke="black" points="1693.99,-971.82 1685.79,-965.12 1688.02,-975.48 1693.99,-971.82"/>
<text text-anchor="middle" x="1700" y="-1310.28" font-family="Times,serif" font-size="14.00">0</text>
</g>
<!-- 24 -->
<g id="node26" class="node">
<title>24</title>
<ellipse fill="none" stroke="black" cx="589" cy="-600.49" rx="27" ry="18"/>
<text text-anchor="middle" x="589" y="-596.79" font-family="Times,serif" font-size="14.00">24</text>
</g>
<!-- 1&#45;&gt;24 -->
<g id="edge129" class="edge">
<title>1&#45;&gt;24</title>
<path fill="none" stroke="black" d="M839.09,-1659.17C775.16,-1653.42 612.83,-1630.15 523,-1538.98 452.83,-1467.78 459.27,-1428.96 435,-1331.98 399.25,-1189.17 345.27,-783.84 438,-669.49 466.8,-633.97 518.1,-616.34 552.82,-608.08"/>
<polygon fill="black" stroke="black" points="554.02,-611.4 563.02,-605.8 552.5,-604.56 554.02,-611.4"/>
<text text-anchor="middle" x="407" y="-1118.79" font-family="Times,serif" font-size="14.00">3</text>
</g>
<!-- 2&#45;&gt;2 -->
<g id="edge94" class="edge">
<title>2&#45;&gt;2</title>
<path fill="none" stroke="black" d="M890.53,-1582.74C901.51,-1583.47 911,-1580.89 911,-1574.98 911,-1571.02 906.72,-1568.55 900.57,-1567.58"/>
<polygon fill="black" stroke="black" points="900.65,-1564.08 890.53,-1567.23 900.41,-1571.07 900.65,-1564.08"/>
<text text-anchor="middle" x="916" y="-1571.28" font-family="Times,serif" font-size="14.00">4</text>
</g>
<!-- 16 -->
<g id="node18" class="node">
<title>16</title>
<ellipse fill="none" stroke="black" cx="1363" cy="-1487.98" rx="27" ry="18"/>
<text text-anchor="middle" x="1363" y="-1484.28" font-family="Times,serif" font-size="14.00">16</text>
</g>
<!-- 2&#45;&gt;16 -->
<g id="edge96" class="edge">
<title>2&#45;&gt;16</title>
<path fill="none" stroke="black" d="M892.02,-1569.53C974.8,-1555.38 1232.19,-1511.36 1327.25,-1495.1"/>
<polygon fill="black" stroke="black" points="1327.97,-1498.53 1337.24,-1493.39 1326.79,-1491.63 1327.97,-1498.53"/>
<text text-anchor="middle" x="1150" y="-1527.78" font-family="Times,serif" font-size="14.00">1</text>
</g>
<!-- 2&#45;&gt;20 -->
<g id="edge8" class="edge">
<title>2&#45;&gt;20</title>
<path fill="none" stroke="black" d="M841.05,-1568.09C774.12,-1550.74 591.1,-1492.83 524,-1364.98 483.56,-1287.94 350,-688.5 350,-601.49 350,-601.49 350,-601.49 350,-208.5 350,-130.98 628.89,-123.37 731.61,-123.2"/>
<polygon fill="black" stroke="black" points="731.83,-126.7 741.83,-123.2 731.83,-119.7 731.83,-126.7"/>
<text text-anchor="middle" x="404" y="-857.79" font-family="Times,serif" font-size="14.00">2</text>
</g>
<!-- 25 -->
<g id="node27" class="node">
<title>25</title>
<ellipse fill="none" stroke="black" cx="2075" cy="-209.5" rx="27" ry="18"/>
<text text-anchor="middle" x="2075" y="-205.8" font-family="Times,serif" font-size="14.00">25</text>
</g>
<!-- 2&#45;&gt;25 -->
<g id="edge47" class="edge">
<title>2&#45;&gt;25</title>
<path fill="none" stroke="black" d="M892.91,-1573.05C1085.27,-1566.3 2244,-1524.15 2244,-1488.98 2244,-1488.98 2244,-1488.98 2244,-1164.99 2244,-1090.66 2257.66,-1073.09 2268,-999.49 2274.89,-950.46 2328,-607.49 2328,-557.99 2328,-557.99 2328,-557.99 2328,-299.5 2328,-196.19 2205.38,-259.01 2107,-227.5 2105.95,-227.16 2104.9,-226.79 2103.84,-226.39"/>
<polygon fill="black" stroke="black" points="2105.05,-223.1 2094.49,-222.25 2102.21,-229.5 2105.05,-223.1"/>
<text text-anchor="middle" x="2288" y="-901.29" font-family="Times,serif" font-size="14.00">3</text>
</g>
<!-- 26 -->
<g id="node28" class="node">
<title>26</title>
<ellipse fill="none" stroke="black" cx="710" cy="-687.49" rx="27" ry="18"/>
<text text-anchor="middle" x="710" y="-683.79" font-family="Times,serif" font-size="14.00">26</text>
</g>
<!-- 2&#45;&gt;26 -->
<g id="edge21" class="edge">
<title>2&#45;&gt;26</title>
<path fill="none" stroke="black" d="M849.12,-1560.71C833.16,-1547.71 809.03,-1526.87 791,-1505.98 652.04,-1345.05 588.46,-1297.33 561,-1086.49 545.02,-963.82 539.76,-920.15 597,-810.49 618.82,-768.69 658.79,-730.57 684.87,-708.44"/>
<polygon fill="black" stroke="black" points="687.36,-710.92 692.81,-701.84 682.89,-705.54 687.36,-710.92"/>
<text text-anchor="middle" x="575" y="-1118.79" font-family="Times,serif" font-size="14.00">0</text>
</g>
<!-- 3 -->
<g id="node5" class="node">
<title>3</title>
<ellipse fill="none" stroke="black" cx="1946" cy="-1748.98" rx="27" ry="18"/>
<text text-anchor="middle" x="1946" y="-1745.28" font-family="Times,serif" font-size="14.00">3</text>
</g>
<!-- 3&#45;&gt;1 -->
<g id="edge118" class="edge">
<title>3&#45;&gt;1</title>
<path fill="none" stroke="black" d="M1918.83,-1746.96C1803.92,-1742.45 1346.5,-1722.62 973,-1679.98 949.18,-1677.26 922.55,-1673.04 901.82,-1669.48"/>
<polygon fill="black" stroke="black" points="902.31,-1666.01 891.86,-1667.74 901.11,-1672.91 902.31,-1666.01"/>
<text text-anchor="middle" x="1326" y="-1701.78" font-family="Times,serif" font-size="14.00">2</text>
</g>
<!-- 9 -->
<g id="node11" class="node">
<title>9</title>
<ellipse fill="none" stroke="black" cx="1418" cy="-300.5" rx="18" ry="18"/>
<ellipse fill="none" stroke="black" cx="1418" cy="-300.5" rx="22" ry="22"/>
<text text-anchor="middle" x="1418" y="-296.8" font-family="Times,serif" font-size="14.00">9</text>
</g>
<!-- 3&#45;&gt;9 -->
<g id="edge28" class="edge">
<title>3&#45;&gt;9</title>
<path fill="none" stroke="black" d="M1969.45,-1739.92C1999,-1728.08 2046,-1702.97 2046,-1662.98 2046,-1662.98 2046,-1662.98 2046,-1164.99 2046,-963.73 1760.81,-1126.7 1639,-966.49 1624.23,-947.06 1632.38,-936.66 1629,-912.49 1614,-805.05 1627.59,-775.8 1606,-669.49 1585.18,-566.93 1584.73,-537.07 1535,-444.99 1509.28,-397.37 1466.78,-350.31 1440.7,-323.68"/>
<polygon fill="black" stroke="black" points="1443.01,-321.05 1433.49,-316.41 1438.04,-325.98 1443.01,-321.05"/>
<text text-anchor="middle" x="1936" y="-1031.79" font-family="Times,serif" font-size="14.00">1</text>
</g>
<!-- 12 -->
<g id="node14" class="node">
<title>12</title>
<ellipse fill="none" stroke="black" cx="1241" cy="-1400.98" rx="27" ry="18"/>
<text text-anchor="middle" x="1241" y="-1397.28" font-family="Times,serif" font-size="14.00">12</text>
</g>
<!-- 3&#45;&gt;12 -->
<g id="edge29" class="edge">
<title>3&#45;&gt;12</title>
<path fill="none" stroke="black" d="M1919.22,-1746.57C1875.27,-1743.68 1785.51,-1735.36 1713,-1712.98 1510.71,-1650.56 1442.79,-1646 1284,-1505.98 1262.55,-1487.07 1259.26,-1478.68 1249,-1451.98 1246.26,-1444.84 1244.45,-1436.78 1243.27,-1429.25"/>
<polygon fill="black" stroke="black" points="1246.71,-1428.58 1241.97,-1419.11 1239.77,-1429.47 1246.71,-1428.58"/>
<text text-anchor="middle" x="1401" y="-1571.28" font-family="Times,serif" font-size="14.00">0</text>
</g>
<!-- 19 -->
<g id="node21" class="node">
<title>19</title>
<ellipse fill="none" stroke="black" cx="2215" cy="-504.74" rx="22.96" ry="22.96"/>
<ellipse fill="none" stroke="black" cx="2215" cy="-504.74" rx="27" ry="27"/>
<text text-anchor="middle" x="2215" y="-501.04" font-family="Times,serif" font-size="14.00">19</text>
</g>
<!-- 3&#45;&gt;19 -->
<g id="edge70" class="edge">
<title>3&#45;&gt;19</title>
<path fill="none" stroke="black" d="M1972.69,-1746.03C2018.77,-1742.19 2110.75,-1732.29 2136,-1712.98 2155.58,-1698.01 2160,-1687.63 2160,-1662.98 2160,-1662.98 2160,-1662.98 2160,-1443.48 2160,-1262.52 2172,-1217.45 2172,-1036.49 2172,-1036.49 2172,-1036.49 2172,-729.99 2172,-661.73 2191.45,-583.84 2204.19,-540.16"/>
<polygon fill="black" stroke="black" points="2207.62,-540.91 2207.11,-530.33 2200.91,-538.92 2207.62,-540.91"/>
<text text-anchor="middle" x="2177" y="-1118.79" font-family="Times,serif" font-size="14.00">4</text>
</g>
<!-- 23 -->
<g id="node25" class="node">
<title>23</title>
<ellipse fill="none" stroke="black" cx="769" cy="-26.75" rx="22.96" ry="22.96"/>
<ellipse fill="none" stroke="black" cx="769" cy="-26.75" rx="27" ry="27"/>
<text text-anchor="middle" x="769" y="-23.05" font-family="Times,serif" font-size="14.00">23</text>
</g>
<!-- 3&#45;&gt;23 -->
<g id="edge17" class="edge">
<title>3&#45;&gt;23</title>
<path fill="none" stroke="black" d="M1971.96,-1744.01C2011.93,-1736.25 2084,-1715.04 2084,-1662.98 2084,-1662.98 2084,-1662.98 2084,-1164.99 2084,-1069.14 2092,-1045.33 2092,-949.49 2092,-949.49 2092,-949.49 2092,-642.99 2092,-564.96 2081.63,-538.21 2032,-477.99 1912.63,-333.15 1826.45,-364.19 1670,-260.5 1605.83,-217.96 1599.32,-191.97 1530,-158.5 1449.02,-119.39 1422.43,-125.54 1335,-104.5 1263.98,-87.41 1246.17,-82.76 1174,-71.5 1039.08,-50.43 877.29,-36.25 805.91,-30.56"/>
<polygon fill="black" stroke="black" points="805.89,-27.05 795.65,-29.75 805.34,-34.03 805.89,-27.05"/>
<text text-anchor="middle" x="2097" y="-901.29" font-family="Times,serif" font-size="14.00">3</text>
</g>
<!-- 4 -->
<g id="node6" class="node">
<title>4</title>
<ellipse fill="none" stroke="black" cx="1306" cy="-1035.49" rx="27" ry="18"/>
<text text-anchor="middle" x="1306" y="-1031.79" font-family="Times,serif" font-size="14.00">4</text>
</g>
<!-- 4&#45;&gt;3 -->
<g id="edge112" class="edge">
<title>4&#45;&gt;3</title>
<path fill="none" stroke="black" d="M1319.79,-1051.36C1370.83,-1106.48 1553.76,-1304.44 1702,-1469.98 1786.26,-1564.08 1885.08,-1677.69 1926.35,-1725.29"/>
<polygon fill="black" stroke="black" points="1923.95,-1727.86 1933.14,-1733.13 1929.24,-1723.28 1923.95,-1727.86"/>
<text text-anchor="middle" x="1661" y="-1397.28" font-family="Times,serif" font-size="14.00">3</text>
</g>
<!-- 13 -->
<g id="node15" class="node">
<title>13</title>
<ellipse fill="none" stroke="black" cx="1461" cy="-209.5" rx="27" ry="18"/>
<text text-anchor="middle" x="1461" y="-205.8" font-family="Times,serif" font-size="14.00">13</text>
</g>
<!-- 4&#45;&gt;13 -->
<g id="edge53" class="edge">
<title>4&#45;&gt;13</title>
<path fill="none" stroke="black" d="M1321.72,-1020.38C1327.55,-1014.43 1333.76,-1007.12 1338,-999.49 1380.36,-923.22 1365.3,-893.86 1391,-810.49 1425.89,-697.33 1476,-676.4 1476,-557.99 1476,-557.99 1476,-557.99 1476,-299.5 1476,-278.47 1471.88,-255.04 1467.96,-237.5"/>
<polygon fill="black" stroke="black" points="1471.28,-236.35 1465.58,-227.42 1464.47,-237.95 1471.28,-236.35"/>
<text text-anchor="middle" x="1472" y="-640.29" font-family="Times,serif" font-size="14.00">2</text>
</g>
<!-- 4&#45;&gt;16 -->
<g id="edge117" class="edge">
<title>4&#45;&gt;16</title>
<path fill="none" stroke="black" d="M1309.68,-1053.53C1310.84,-1059.22 1312.06,-1065.61 1313,-1071.49 1336.31,-1217.26 1354.12,-1393.38 1360.47,-1459.84"/>
<polygon fill="black" stroke="black" points="1357,-1460.27 1361.42,-1469.9 1363.96,-1459.61 1357,-1460.27"/>
<text text-anchor="middle" x="1346" y="-1266.78" font-family="Times,serif" font-size="14.00">1</text>
</g>
<!-- 4&#45;&gt;17 -->
<g id="edge113" class="edge">
<title>4&#45;&gt;17</title>
<path fill="none" stroke="black" d="M1282.4,-1044.56C1264.77,-1050.95 1240.31,-1060.59 1220,-1071.49 1209.57,-1077.08 1208.64,-1081.31 1198,-1086.49 1174.05,-1098.15 1145.31,-1107.14 1123.21,-1113.09"/>
<polygon fill="black" stroke="black" points="1122.05,-1109.77 1113.26,-1115.68 1123.82,-1116.55 1122.05,-1109.77"/>
<text text-anchor="middle" x="1225" y="-1075.29" font-family="Times,serif" font-size="14.00">0</text>
</g>
<!-- 4&#45;&gt;21 -->
<g id="edge39" class="edge">
<title>4&#45;&gt;21</title>
<path fill="none" stroke="black" d="M1330.25,-1027.24C1365.3,-1016.93 1432.25,-997.77 1490,-984.49 1541.54,-972.63 1601.82,-961.78 1639.22,-955.4"/>
<polygon fill="black" stroke="black" points="1639.85,-958.84 1649.13,-953.72 1638.69,-951.94 1639.85,-958.84"/>
<text text-anchor="middle" x="1495" y="-988.29" font-family="Times,serif" font-size="14.00">4</text>
</g>
<!-- 5 -->
<g id="node7" class="node">
<title>5</title>
<ellipse fill="none" stroke="black" cx="2438" cy="-2013.98" rx="18" ry="18"/>
<ellipse fill="none" stroke="black" cx="2438" cy="-2013.98" rx="22" ry="22"/>
<text text-anchor="middle" x="2438" y="-2010.28" font-family="Times,serif" font-size="14.00">5</text>
</g>
<!-- 8 -->
<g id="node10" class="node">
<title>8</title>
<ellipse fill="none" stroke="black" cx="371" cy="-1922.98" rx="27" ry="18"/>
<text text-anchor="middle" x="371" y="-1919.28" font-family="Times,serif" font-size="14.00">8</text>
</g>
<!-- 5&#45;&gt;8 -->
<g id="edge107" class="edge">
<title>5&#45;&gt;8</title>
<path fill="none" stroke="black" d="M2415.77,-2012.95C2278.5,-2012.61 1532.27,-2009.18 925,-1973.98 729.52,-1962.65 496.17,-1937.91 407.56,-1928.1"/>
<polygon fill="black" stroke="black" points="407.8,-1924.61 397.48,-1926.98 407.03,-1931.57 407.8,-1924.61"/>
<text text-anchor="middle" x="930" y="-1962.78" font-family="Times,serif" font-size="14.00">1</text>
</g>
<!-- 5&#45;&gt;12 -->
<g id="edge68" class="edge">
<title>5&#45;&gt;12</title>
<path fill="none" stroke="black" d="M2415.8,-2012.86C2230.57,-2011.7 949,-2000.87 949,-1923.98 949,-1923.98 949,-1923.98 949,-1486.98 949,-1434.48 1125.26,-1412.25 1203.89,-1404.95"/>
<polygon fill="black" stroke="black" points="1204.66,-1408.39 1214.31,-1404.01 1204.04,-1401.42 1204.66,-1408.39"/>
<text text-anchor="middle" x="954" y="-1701.78" font-family="Times,serif" font-size="14.00">2</text>
</g>
<!-- 18 -->
<g id="node20" class="node">
<title>18</title>
<ellipse fill="none" stroke="black" cx="2122" cy="-300.5" rx="27" ry="18"/>
<text text-anchor="middle" x="2122" y="-296.8" font-family="Times,serif" font-size="14.00">18</text>
</g>
<!-- 5&#45;&gt;18 -->
<g id="edge144" class="edge">
<title>5&#45;&gt;18</title>
<path fill="none" stroke="black" d="M2451.29,-1996.36C2463.59,-1979.25 2480,-1951.32 2480,-1923.98 2480,-1923.98 2480,-1923.98 2480,-642.99 2480,-601.2 2489.9,-586.24 2470,-549.49 2398.07,-416.67 2330.98,-419.11 2202,-340.5 2186.63,-331.13 2168.69,-322.21 2153.69,-315.27"/>
<polygon fill="black" stroke="black" points="2154.87,-311.97 2144.32,-311.02 2151.97,-318.34 2154.87,-311.97"/>
<text text-anchor="middle" x="2485" y="-1162.29" font-family="Times,serif" font-size="14.00">0</text>
</g>
<!-- 5&#45;&gt;20 -->
<g id="edge131" class="edge">
<title>5&#45;&gt;20</title>
<path fill="none" stroke="black" d="M2415.87,-2013C2202.68,-2013.12 516.42,-2012.81 297,-1973.98 229.87,-1962.11 152,-1992.15 152,-1923.98 152,-1923.98 152,-1923.98 152,-1791.48 152,-1707.76 95.72,-1702.62 62,-1625.98 27.84,-1548.34 0,-1530.31 0,-1445.48 0,-1445.48 0,-1445.48 0,-816.99 0,-706.37 79.53,-430.38 144,-340.5 182.24,-287.18 361.23,-163.75 375,-158.5 439.6,-133.84 646.39,-126.32 731.68,-124.23"/>
<polygon fill="black" stroke="black" points="732.02,-127.72 741.93,-123.99 731.85,-120.72 732.02,-127.72"/>
<text text-anchor="middle" x="5" y="-1075.29" font-family="Times,serif" font-size="14.00">3</text>
</g>
<!-- 5&#45;&gt;25 -->
<g id="edge149" class="edge">
<title>5&#45;&gt;25</title>
<path fill="none" stroke="black" d="M2459.37,-2008.29C2495.32,-1998.99 2564,-1974.6 2564,-1923.98 2564,-1923.98 2564,-1923.98 2564,-1164.99 2564,-1088.46 2556,-1069.51 2556,-992.99 2556,-992.99 2556,-992.99 2556,-729.99 2556,-501.93 2592.49,-344.4 2387,-245.5 2330.82,-218.45 2166.99,-244.5 2107,-227.5 2105.77,-227.15 2104.54,-226.75 2103.31,-226.31"/>
<polygon fill="black" stroke="black" points="2104.64,-223.07 2094.08,-222.3 2101.86,-229.49 2104.64,-223.07"/>
<text text-anchor="middle" x="2569" y="-1118.79" font-family="Times,serif" font-size="14.00">4</text>
</g>
<!-- 6 -->
<g id="node8" class="node">
<title>6</title>
<ellipse fill="none" stroke="black" cx="736" cy="-209.5" rx="27" ry="18"/>
<text text-anchor="middle" x="736" y="-205.8" font-family="Times,serif" font-size="14.00">6</text>
</g>
<!-- 6&#45;&gt;0 -->
<g id="edge126" class="edge">
<title>6&#45;&gt;0</title>
<path fill="none" stroke="black" d="M739.67,-227.47C743.19,-245.31 748,-274.24 748,-299.5 748,-453.49 748,-453.49 748,-453.49 748,-548.62 677.92,-550.61 637,-636.49 612.63,-687.63 607.77,-701.53 594,-756.49 590.5,-770.47 581.84,-806.66 586,-825.49 595.37,-867.88 691.52,-1075.55 737,-1140.49 754.68,-1165.74 764.73,-1167.43 784,-1191.49 813.26,-1228 805.44,-1251.48 844,-1277.98 875.47,-1299.61 918.9,-1307.92 949.63,-1311.08"/>
<polygon fill="black" stroke="black" points="949.65,-1314.6 959.92,-1312 950.27,-1307.63 949.65,-1314.6"/>
<text text-anchor="middle" x="599" y="-770.79" font-family="Times,serif" font-size="14.00">0</text>
</g>
<!-- 6&#45;&gt;6 -->
<g id="edge10" class="edge">
<title>6&#45;&gt;6</title>
<path fill="none" stroke="black" d="M762.79,-213.42C772.78,-213.55 781,-212.24 781,-209.5 781,-207.78 777.79,-206.62 772.94,-206.03"/>
<polygon fill="black" stroke="black" points="772.94,-202.53 762.79,-205.57 772.63,-209.52 772.94,-202.53"/>
<text text-anchor="middle" x="786" y="-205.8" font-family="Times,serif" font-size="14.00">2</text>
</g>
<!-- 6&#45;&gt;6 -->
<g id="edge74" class="edge">
<title>6&#45;&gt;6</title>
<path fill="none" stroke="black" d="M761.23,-216.44C780.04,-218.87 799,-216.55 799,-209.5 799,-203.71 786.24,-201.11 771.27,-201.7"/>
<polygon fill="black" stroke="black" points="770.9,-198.22 761.23,-202.55 771.49,-205.2 770.9,-198.22"/>
<text text-anchor="middle" x="804" y="-205.8" font-family="Times,serif" font-size="14.00">4</text>
</g>
<!-- 6&#45;&gt;20 -->
<g id="edge115" class="edge">
<title>6&#45;&gt;20</title>
<path fill="none" stroke="black" d="M733.41,-191.24C732.62,-181.32 732.87,-168.82 737,-158.5 738.97,-153.56 741.99,-148.88 745.39,-144.65"/>
<polygon fill="black" stroke="black" points="748.11,-146.87 752.25,-137.12 742.93,-142.16 748.11,-146.87"/>
<text text-anchor="middle" x="742" y="-162.3" font-family="Times,serif" font-size="14.00">3</text>
</g>
<!-- 6&#45;&gt;24 -->
<g id="edge20" class="edge">
<title>6&#45;&gt;24</title>
<path fill="none" stroke="black" d="M729.71,-227.15C706.7,-288.02 627.06,-498.78 598.93,-573.21"/>
<polygon fill="black" stroke="black" points="595.58,-572.18 595.32,-582.77 602.13,-574.66 595.58,-572.18"/>
<text text-anchor="middle" x="680" y="-396.54" font-family="Times,serif" font-size="14.00">1</text>
</g>
<!-- 7 -->
<g id="node9" class="node">
<title>7</title>
<ellipse fill="none" stroke="black" cx="710" cy="-774.49" rx="27" ry="18"/>
<text text-anchor="middle" x="710" y="-770.79" font-family="Times,serif" font-size="14.00">7</text>
</g>
<!-- 7&#45;&gt;1 -->
<g id="edge54" class="edge">
<title>7&#45;&gt;1</title>
<path fill="none" stroke="black" d="M685.54,-782.57C670.41,-788.05 651.54,-797 639,-810.49 570.41,-884.24 496.49,-1145.17 510,-1244.98 533.48,-1418.36 551.95,-1490.85 694,-1592.98 736.42,-1623.48 794.39,-1642.68 831.02,-1652.62"/>
<polygon fill="black" stroke="black" points="830.19,-1656.03 840.75,-1655.19 831.97,-1649.26 830.19,-1656.03"/>
<text text-anchor="middle" x="515" y="-1214.54" font-family="Times,serif" font-size="14.00">4</text>
</g>
<!-- 7&#45;&gt;12 -->
<g id="edge57" class="edge">
<title>7&#45;&gt;12</title>
<path fill="none" stroke="black" d="M711.06,-792.64C716.43,-878.56 741.05,-1258.91 757,-1277.98 815.11,-1347.49 1101.2,-1384.85 1204.07,-1396.2"/>
<polygon fill="black" stroke="black" points="1203.97,-1399.71 1214.28,-1397.31 1204.72,-1392.75 1203.97,-1399.71"/>
<text text-anchor="middle" x="738" y="-1075.29" font-family="Times,serif" font-size="14.00">2</text>
</g>
<!-- 7&#45;&gt;14 -->
<g id="edge137" class="edge">
<title>7&#45;&gt;14</title>
<path fill="none" stroke="black" d="M693.81,-789.02C687.66,-794.99 681.14,-802.47 677,-810.49 673.43,-817.41 671.13,-825.48 669.65,-833.09"/>
<polygon fill="black" stroke="black" points="666.18,-832.62 668.1,-843.04 673.1,-833.7 666.18,-832.62"/>
<text text-anchor="middle" x="682" y="-814.29" font-family="Times,serif" font-size="14.00">1</text>
</g>
<!-- 7&#45;&gt;17 -->
<g id="edge76" class="edge">
<title>7&#45;&gt;17</title>
<path fill="none" stroke="black" d="M733.13,-784.22C746.33,-790.09 762.5,-798.89 774,-810.49 872.02,-909.31 810.62,-1003.01 922,-1086.49 959.43,-1114.54 1014.31,-1121.26 1050.58,-1122.31"/>
<polygon fill="black" stroke="black" points="1050.69,-1125.82 1060.74,-1122.48 1050.8,-1118.82 1050.69,-1125.82"/>
<text text-anchor="middle" x="851" y="-944.79" font-family="Times,serif" font-size="14.00">0</text>
</g>
<!-- 7&#45;&gt;26 -->
<g id="edge9" class="edge">
<title>7&#45;&gt;26</title>
<path fill="none" stroke="black" d="M710,-756.29C710,-744.65 710,-729.04 710,-715.72"/>
<polygon fill="black" stroke="black" points="713.5,-715.66 710,-705.66 706.5,-715.66 713.5,-715.66"/>
<text text-anchor="middle" x="715" y="-727.29" font-family="Times,serif" font-size="14.00">3</text>
</g>
<!-- 8&#45;&gt;8 -->
<g id="edge102" class="edge">
<title>8&#45;&gt;8</title>
<path fill="none" stroke="black" d="M395.53,-1930.74C406.51,-1931.47 416,-1928.89 416,-1922.98 416,-1919.02 411.72,-1916.55 405.57,-1915.58"/>
<polygon fill="black" stroke="black" points="405.65,-1912.08 395.53,-1915.23 405.41,-1919.07 405.65,-1912.08"/>
<text text-anchor="middle" x="421" y="-1919.28" font-family="Times,serif" font-size="14.00">4</text>
</g>
<!-- 10 -->
<g id="node12" class="node">
<title>10</title>
<ellipse fill="none" stroke="black" cx="1604" cy="-1835.98" rx="27" ry="18"/>
<text text-anchor="middle" x="1604" y="-1832.28" font-family="Times,serif" font-size="14.00">10</text>
</g>
<!-- 8&#45;&gt;10 -->
<g id="edge71" class="edge">
<title>8&#45;&gt;10</title>
<path fill="none" stroke="black" d="M397.81,-1920.76C485.05,-1916.74 768.67,-1903.22 1003,-1886.98 1216.97,-1872.16 1473.34,-1849.04 1567.24,-1840.4"/>
<polygon fill="black" stroke="black" points="1567.73,-1843.87 1577.36,-1839.46 1567.08,-1836.9 1567.73,-1843.87"/>
<text text-anchor="middle" x="1207" y="-1875.78" font-family="Times,serif" font-size="14.00">0</text>
</g>
<!-- 8&#45;&gt;12 -->
<g id="edge3" class="edge">
<title>8&#45;&gt;12</title>
<path fill="none" stroke="black" d="M398.05,-1920.33C503.16,-1913.36 882.52,-1882.73 963,-1799.98 1019.8,-1741.58 995,-1700.96 995,-1619.48 995,-1619.48 995,-1619.48 995,-1486.98 995,-1443.14 1136.33,-1416.93 1204.74,-1406.81"/>
<polygon fill="black" stroke="black" points="1205.28,-1410.27 1214.67,-1405.38 1204.28,-1403.34 1205.28,-1410.27"/>
<text text-anchor="middle" x="1004" y="-1658.28" font-family="Times,serif" font-size="14.00">1</text>
</g>
<!-- 8&#45;&gt;17 -->
<g id="edge15" class="edge">
<title>8&#45;&gt;17</title>
<path fill="none" stroke="black" d="M377.24,-1905.21C390.03,-1869.31 418,-1782.11 418,-1706.48 418,-1706.48 418,-1706.48 418,-1530.48 418,-1436.35 591.5,-1240.28 672,-1191.49 735.75,-1152.85 961.47,-1132.65 1051.01,-1126"/>
<polygon fill="black" stroke="black" points="1051.52,-1129.48 1061.24,-1125.26 1051.01,-1122.49 1051.52,-1129.48"/>
<text text-anchor="middle" x="423" y="-1527.78" font-family="Times,serif" font-size="14.00">2</text>
</g>
<!-- 8&#45;&gt;24 -->
<g id="edge23" class="edge">
<title>8&#45;&gt;24</title>
<path fill="none" stroke="black" d="M366.69,-1904.9C342.45,-1806.33 226.92,-1300.57 302,-897.49 326.54,-765.74 333.95,-698.02 453,-636.49 484.63,-620.14 524.44,-611.05 552.8,-606.26"/>
<polygon fill="black" stroke="black" points="553.37,-609.72 562.69,-604.69 552.27,-602.8 553.37,-609.72"/>
<text text-anchor="middle" x="284" y="-1266.78" font-family="Times,serif" font-size="14.00">3</text>
</g>
<!-- 9&#45;&gt;13 -->
<g id="edge48" class="edge">
<title>9&#45;&gt;13</title>
<path fill="none" stroke="black" d="M1414.43,-278.56C1413.61,-268.14 1414.13,-255.64 1419,-245.5 1422.14,-238.94 1427.17,-233.18 1432.66,-228.31"/>
<polygon fill="black" stroke="black" points="1435.19,-230.78 1440.89,-221.85 1430.86,-225.28 1435.19,-230.78"/>
<text text-anchor="middle" x="1424" y="-249.3" font-family="Times,serif" font-size="14.00">4</text>
</g>
<!-- 9&#45;&gt;13 -->
<g id="edge145" class="edge">
<title>9&#45;&gt;13</title>
<path fill="none" stroke="black" d="M1427.33,-280.18C1433.59,-267.22 1441.91,-250.01 1448.71,-235.94"/>
<polygon fill="black" stroke="black" points="1451.93,-237.31 1453.13,-226.79 1445.63,-234.27 1451.93,-237.31"/>
<text text-anchor="middle" x="1449" y="-249.3" font-family="Times,serif" font-size="14.00">0</text>
</g>
<!-- 9&#45;&gt;16 -->
<g id="edge49" class="edge">
<title>9&#45;&gt;16</title>
<path fill="none" stroke="black" d="M1412.01,-321.89C1406.77,-341.53 1400,-372.15 1400,-399.24 1400,-557.99 1400,-557.99 1400,-557.99 1400,-720.01 1445.44,-755.37 1485,-912.49 1493.08,-944.58 1498.24,-951.9 1504,-984.49 1510.75,-1022.73 1510.22,-1032.7 1512,-1071.49 1512.92,-1091.48 1513.61,-1235.96 1511,-1244.98 1485.15,-1334.39 1416.81,-1423.67 1382.8,-1464.29"/>
<polygon fill="black" stroke="black" points="1380.09,-1462.09 1376.29,-1471.98 1385.43,-1466.61 1380.09,-1462.09"/>
<text text-anchor="middle" x="1490" y="-901.29" font-family="Times,serif" font-size="14.00">3</text>
</g>
<!-- 9&#45;&gt;17 -->
<g id="edge127" class="edge">
<title>9&#45;&gt;17</title>
<path fill="none" stroke="black" d="M1395.89,-303.4C1353.21,-307.54 1261.77,-318.75 1240,-340.5 1079.55,-500.79 1183.75,-618.65 1154,-843.49 1141.66,-936.78 1145.42,-961.21 1127,-1053.49 1124.02,-1068.4 1125.12,-1073.06 1118,-1086.49 1115.64,-1090.94 1112.63,-1095.32 1109.43,-1099.39"/>
<polygon fill="black" stroke="black" points="1106.56,-1097.36 1102.74,-1107.24 1111.89,-1101.9 1106.56,-1097.36"/>
<text text-anchor="middle" x="1165" y="-727.29" font-family="Times,serif" font-size="14.00">1</text>
</g>
<!-- 9&#45;&gt;25 -->
<g id="edge72" class="edge">
<title>9&#45;&gt;25</title>
<path fill="none" stroke="black" d="M1439.86,-296.53C1535.5,-283.58 1917.69,-231.81 2038.32,-215.46"/>
<polygon fill="black" stroke="black" points="2039.07,-218.89 2048.51,-214.08 2038.13,-211.96 2039.07,-218.89"/>
<text text-anchor="middle" x="1811" y="-249.3" font-family="Times,serif" font-size="14.00">2</text>
</g>
<!-- 10&#45;&gt;3 -->
<g id="edge93" class="edge">
<title>10&#45;&gt;3</title>
<path fill="none" stroke="black" d="M1628.87,-1828.8C1688.96,-1813.87 1842.17,-1775.79 1911.27,-1758.62"/>
<polygon fill="black" stroke="black" points="1912.36,-1761.95 1921.22,-1756.14 1910.67,-1755.16 1912.36,-1761.95"/>
<text text-anchor="middle" x="1801" y="-1788.78" font-family="Times,serif" font-size="14.00">3</text>
</g>
<!-- 10&#45;&gt;6 -->
<g id="edge138" class="edge">
<title>10&#45;&gt;6</title>
<path fill="none" stroke="black" d="M1577.28,-1833.39C1504.68,-1828.99 1297.71,-1815.9 1126,-1799.98 782.91,-1768.18 499.33,-1867.68 396,-1538.98 378.29,-1482.66 308.18,-530.06 336,-477.99 415.94,-328.36 620.74,-247.8 702.02,-220.89"/>
<polygon fill="black" stroke="black" points="703.32,-224.14 711.75,-217.72 701.16,-217.48 703.32,-224.14"/>
<text text-anchor="middle" x="357" y="-1031.79" font-family="Times,serif" font-size="14.00">4</text>
</g>
<!-- 10&#45;&gt;17 -->
<g id="edge91" class="edge">
<title>10&#45;&gt;17</title>
<path fill="none" stroke="black" d="M1577.06,-1833.1C1429.87,-1822.28 723.67,-1763.72 564,-1625.98 527.71,-1594.68 517.67,-1570.55 529,-1523.98 536.72,-1492.26 639.66,-1284.74 664,-1262.98 676.11,-1252.16 921.47,-1163.24 937,-1158.49 975.96,-1146.58 1021.65,-1136.52 1052.48,-1130.28"/>
<polygon fill="black" stroke="black" points="1053.21,-1133.7 1062.33,-1128.31 1051.84,-1126.84 1053.21,-1133.7"/>
<text text-anchor="middle" x="556" y="-1484.28" font-family="Times,serif" font-size="14.00">2</text>
</g>
<!-- 10&#45;&gt;21 -->
<g id="edge12" class="edge">
<title>10&#45;&gt;21</title>
<path fill="none" stroke="black" d="M1631.04,-1834.06C1748.18,-1829.7 2206,-1808.89 2206,-1749.98 2206,-1749.98 2206,-1749.98 2206,-1164.99 2206,-1112.27 2181,-1093.3 2133,-1071.49 1984.05,-1003.8 1790.2,-967.67 1711.04,-954.9"/>
<polygon fill="black" stroke="black" points="1711.52,-951.43 1701.09,-953.32 1710.42,-958.34 1711.52,-951.43"/>
<text text-anchor="middle" x="2211" y="-1397.28" font-family="Times,serif" font-size="14.00">0</text>
</g>
<!-- 10&#45;&gt;23 -->
<g id="edge135" class="edge">
<title>10&#45;&gt;23</title>
<path fill="none" stroke="black" d="M1576.9,-1834.48C1445.69,-1831.98 875.53,-1820.12 699,-1799.98 621.23,-1791.11 597.97,-1797.75 526,-1766.98 464.76,-1740.81 447.37,-1730.52 404,-1679.98 370.9,-1641.41 198,-1322.32 198,-1271.48 198,-1271.48 198,-1271.48 198,-990.99 198,-798.51 190,-750.47 190,-557.99 190,-557.99 190,-557.99 190,-121.5 190,-66.34 604.72,-37.4 732.18,-29.8"/>
<polygon fill="black" stroke="black" points="732.46,-33.29 742.23,-29.21 732.05,-26.3 732.46,-33.29"/>
<text text-anchor="middle" x="203" y="-944.79" font-family="Times,serif" font-size="14.00">1</text>
</g>
<!-- 11 -->
<g id="node13" class="node">
<title>11</title>
<ellipse fill="none" stroke="black" cx="1722" cy="-26.75" rx="27" ry="18"/>
<text text-anchor="middle" x="1722" y="-23.05" font-family="Times,serif" font-size="14.00">11</text>
</g>
<!-- 11&#45;&gt;0 -->
<g id="edge40" class="edge">
<title>11&#45;&gt;0</title>
<path fill="none" stroke="black" d="M1708.71,-42.7C1696.49,-57.36 1678.96,-80.87 1670,-104.5 1622.64,-229.32 1612,-265.73 1612,-399.24 1612,-557.99 1612,-557.99 1612,-557.99 1612,-707.11 1567.35,-739.48 1516,-879.49 1511.61,-891.45 1473.65,-972.28 1470,-984.49 1445.61,-1066.12 1472.7,-1095.68 1438,-1173.49 1413.84,-1227.66 1407.13,-1249.7 1355,-1277.98 1340.57,-1285.81 1114.04,-1303.49 1023.74,-1310.27"/>
<polygon fill="black" stroke="black" points="1023.39,-1306.79 1013.68,-1311.02 1023.91,-1313.77 1023.39,-1306.79"/>
<text text-anchor="middle" x="1606" y="-683.79" font-family="Times,serif" font-size="14.00">1</text>
</g>
<!-- 11&#45;&gt;3 -->
<g id="edge98" class="edge">
<title>11&#45;&gt;3</title>
<path fill="none" stroke="black" d="M1749.1,-27.51C1903.95,-26.51 2670,-26.35 2670,-121.5 2670,-254 2670,-254 2670,-254 2670,-454.39 2442,-442.59 2442,-642.99 2442,-1662.98 2442,-1662.98 2442,-1662.98 2442,-1709.53 2098.32,-1737.48 1983.12,-1745.54"/>
<polygon fill="black" stroke="black" points="1982.75,-1742.06 1973.02,-1746.24 1983.24,-1749.04 1982.75,-1742.06"/>
<text text-anchor="middle" x="2447" y="-901.29" font-family="Times,serif" font-size="14.00">3</text>
</g>
<!-- 11&#45;&gt;5 -->
<g id="edge90" class="edge">
<title>11&#45;&gt;5</title>
<path fill="none" stroke="black" d="M1748.92,-28.17C1879.23,-30.35 2445.4,-41.43 2619,-71.5 2694.5,-84.57 2784,-44.87 2784,-121.5 2784,-349 2784,-349 2784,-349 2784,-469.54 2682.91,-467.73 2646,-582.49 2578.31,-792.96 2602,-856.9 2602,-1077.99 2602,-1923.98 2602,-1923.98 2602,-1923.98 2602,-1983.31 2518.06,-2003.3 2470.28,-2009.88"/>
<polygon fill="black" stroke="black" points="2469.61,-2006.44 2460.12,-2011.15 2470.48,-2013.38 2469.61,-2006.44"/>
<text text-anchor="middle" x="2607" y="-1031.79" font-family="Times,serif" font-size="14.00">2</text>
</g>
<!-- 11&#45;&gt;17 -->
<g id="edge100" class="edge">
<title>11&#45;&gt;17</title>
<path fill="none" stroke="black" d="M1694.64,-28.04C1638.61,-30.23 1516,-43.89 1516,-121.5 1516,-401.24 1516,-401.24 1516,-401.24 1516,-634.71 1543.1,-788.09 1482,-912.49 1427.8,-1022.82 1384.6,-1050.7 1267,-1086.49 1223.38,-1099.76 1210.73,-1095.63 1166,-1104.49 1151.92,-1107.28 1136.46,-1110.59 1123.04,-1113.55"/>
<polygon fill="black" stroke="black" points="1122.24,-1110.14 1113.24,-1115.73 1123.76,-1116.98 1122.24,-1110.14"/>
<text text-anchor="middle" x="1526" y="-596.79" font-family="Times,serif" font-size="14.00">0</text>
</g>
<!-- 11&#45;&gt;21 -->
<g id="edge130" class="edge">
<title>11&#45;&gt;21</title>
<path fill="none" stroke="black" d="M1722,-45.03C1722,-63.84 1722,-94.8 1722,-121.5 1722,-349 1722,-349 1722,-349 1722,-474.46 1711.45,-789.43 1687,-912.49 1686.42,-915.38 1685.67,-918.36 1684.82,-921.31"/>
<polygon fill="black" stroke="black" points="1681.43,-920.41 1681.67,-931 1688.09,-922.57 1681.43,-920.41"/>
<text text-anchor="middle" x="1725" y="-501.04" font-family="Times,serif" font-size="14.00">4</text>
</g>
<!-- 12&#45;&gt;0 -->
<g id="edge88" class="edge">
<title>12&#45;&gt;0</title>
<path fill="none" stroke="black" d="M1217.1,-1391.99C1171.6,-1376.76 1072.43,-1343.57 1020.4,-1326.16"/>
<polygon fill="black" stroke="black" points="1021.24,-1322.75 1010.65,-1322.9 1019.02,-1329.39 1021.24,-1322.75"/>
<text text-anchor="middle" x="1135" y="-1353.78" font-family="Times,serif" font-size="14.00">4</text>
</g>
<!-- 12&#45;&gt;3 -->
<g id="edge101" class="edge">
<title>12&#45;&gt;3</title>
<path fill="none" stroke="black" d="M1250.13,-1418.32C1263.84,-1441.34 1291.89,-1483.04 1327,-1505.98 1469.37,-1599.04 1562.04,-1504.92 1695,-1610.98 1735.43,-1643.23 1709,-1682.8 1751,-1712.98 1775.72,-1730.75 1859.49,-1740.68 1908.82,-1745.12"/>
<polygon fill="black" stroke="black" points="1908.83,-1748.63 1919.09,-1746.01 1909.43,-1741.66 1908.83,-1748.63"/>
<text text-anchor="middle" x="1675" y="-1571.28" font-family="Times,serif" font-size="14.00">2</text>
</g>
<!-- 12&#45;&gt;4 -->
<g id="edge33" class="edge">
<title>12&#45;&gt;4</title>
<path fill="none" stroke="black" d="M1244.05,-1382.94C1254.43,-1324.86 1288.49,-1134.4 1301.18,-1063.44"/>
<polygon fill="black" stroke="black" points="1304.64,-1063.96 1302.96,-1053.5 1297.75,-1062.72 1304.64,-1063.96"/>
<text text-anchor="middle" x="1284" y="-1214.54" font-family="Times,serif" font-size="14.00">3</text>
</g>
<!-- 12&#45;&gt;12 -->
<g id="edge150" class="edge">
<title>12&#45;&gt;12</title>
<path fill="none" stroke="black" d="M1265.53,-1408.74C1276.51,-1409.47 1286,-1406.89 1286,-1400.98 1286,-1397.02 1281.72,-1394.55 1275.57,-1393.58"/>
<polygon fill="black" stroke="black" points="1275.65,-1390.08 1265.53,-1393.23 1275.41,-1397.07 1275.65,-1390.08"/>
<text text-anchor="middle" x="1291" y="-1397.28" font-family="Times,serif" font-size="14.00">0</text>
</g>
<!-- 12&#45;&gt;21 -->
<g id="edge79" class="edge">
<title>12&#45;&gt;21</title>
<path fill="none" stroke="black" d="M1267.62,-1397.35C1326.99,-1390.01 1470.9,-1363.83 1546,-1277.98 1579.5,-1239.69 1574,-1217.86 1574,-1166.99 1574,-1166.99 1574,-1166.99 1574,-1034.49 1574,-998.35 1612.32,-974.48 1641.75,-961.48"/>
<polygon fill="black" stroke="black" points="1643.44,-964.57 1651.32,-957.49 1640.74,-958.11 1643.44,-964.57"/>
<text text-anchor="middle" x="1580" y="-1162.29" font-family="Times,serif" font-size="14.00">1</text>
</g>
<!-- 13&#45;&gt;5 -->
<g id="edge46" class="edge">
<title>13&#45;&gt;5</title>
<path fill="none" stroke="black" d="M1487.63,-212.87C1569.49,-220.18 1812.39,-242.11 1820,-245.5 1897.02,-279.79 1899.26,-315.03 1960,-373.5 2046.16,-456.42 2286.45,-648.59 2338,-756.49 2362.73,-808.25 2396,-1212.12 2396,-1269.48 2396,-1923.98 2396,-1923.98 2396,-1923.98 2396,-1947.26 2407.9,-1970.97 2419.03,-1988.06"/>
<polygon fill="black" stroke="black" points="2416.17,-1990.09 2424.71,-1996.36 2421.95,-1986.13 2416.17,-1990.09"/>
<text text-anchor="middle" x="2393" y="-1118.79" font-family="Times,serif" font-size="14.00">4</text>
</g>
<!-- 13&#45;&gt;23 -->
<g id="edge142" class="edge">
<title>13&#45;&gt;23</title>
<path fill="none" stroke="black" d="M1440.5,-197.4C1390.35,-170.8 1256.84,-103.27 1137,-71.5 1018.64,-40.11 872.88,-31.21 805.87,-28.71"/>
<polygon fill="black" stroke="black" points="805.92,-25.21 795.81,-28.36 805.68,-32.21 805.92,-25.21"/>
<text text-anchor="middle" x="1326" y="-118.8" font-family="Times,serif" font-size="14.00">2</text>
</g>
<!-- 13&#45;&gt;24 -->
<g id="edge114" class="edge">
<title>13&#45;&gt;24</title>
<path fill="none" stroke="black" d="M1437.95,-219.16C1384.46,-239.37 1247.96,-291.65 1136,-340.5 936.33,-427.6 701.31,-543.48 619.15,-584.4"/>
<polygon fill="black" stroke="black" points="617.29,-581.42 609.9,-589.02 620.42,-587.69 617.29,-581.42"/>
<text text-anchor="middle" x="1066" y="-396.54" font-family="Times,serif" font-size="14.00">3</text>
</g>
<!-- 13&#45;&gt;29 -->
<g id="edge80" class="edge">
<title>13&#45;&gt;29</title>
<path fill="none" stroke="black" d="M1487.63,-213.13C1526.09,-216.85 1599.43,-223.61 1662,-227.5 2029.72,-250.32 2165.62,-178.16 2478,-373.5 2750.41,-543.84 2640,-756.71 2640,-1077.99 2640,-2014.98 2640,-2014.98 2640,-2014.98 2640,-2038.67 2629.82,-2063.34 2619.72,-2081.97"/>
<polygon fill="black" stroke="black" points="2616.57,-2080.44 2614.67,-2090.86 2622.65,-2083.9 2616.57,-2080.44"/>
<text text-anchor="middle" x="2645" y="-1162.29" font-family="Times,serif" font-size="14.00">0</text>
</g>
<!-- 13&#45;&gt;29 -->
<g id="edge148" class="edge">
<title>13&#45;&gt;29</title>
<path fill="none" stroke="black" d="M1487.63,-213.19C1526.08,-216.98 1599.42,-223.84 1662,-227.5 1907.93,-241.88 1971.87,-212.48 2216,-245.5 2278.07,-253.89 2294.54,-256.03 2353,-278.5 2539.93,-350.33 2708,-355.73 2708,-555.99 2708,-731.99 2708,-731.99 2708,-731.99 2708,-809.59 2678,-826.39 2678,-903.99 2678,-2014.98 2678,-2014.98 2678,-2014.98 2678,-2046.94 2652.21,-2074.46 2630.29,-2092.09"/>
<polygon fill="black" stroke="black" points="2627.94,-2089.48 2622.14,-2098.35 2632.21,-2095.03 2627.94,-2089.48"/>
<text text-anchor="middle" x="2683" y="-1162.29" font-family="Times,serif" font-size="14.00">1</text>
</g>
<!-- 14&#45;&gt;2 -->
<g id="edge128" class="edge">
<title>14&#45;&gt;2</title>
<path fill="none" stroke="black" d="M664.29,-879.66C657.91,-923.62 643.88,-1043.61 664,-1140.49 703.26,-1329.53 735.96,-1374.45 837,-1538.98 839.6,-1543.22 842.67,-1547.48 845.83,-1551.51"/>
<polygon fill="black" stroke="black" points="843.24,-1553.87 852.31,-1559.36 848.64,-1549.42 843.24,-1553.87"/>
<text text-anchor="middle" x="694" y="-1214.54" font-family="Times,serif" font-size="14.00">0</text>
</g>
<!-- 14&#45;&gt;7 -->
<g id="edge4" class="edge">
<title>14&#45;&gt;7</title>
<path fill="none" stroke="black" d="M653.01,-845.57C645.21,-835.38 638.29,-821.72 645,-810.49 651.85,-799.03 663.88,-791.1 675.75,-785.73"/>
<polygon fill="black" stroke="black" points="677.16,-788.93 685.13,-781.94 674.55,-782.44 677.16,-788.93"/>
<text text-anchor="middle" x="650" y="-814.29" font-family="Times,serif" font-size="14.00">4</text>
</g>
<!-- 14&#45;&gt;7 -->
<g id="edge31" class="edge">
<title>14&#45;&gt;7</title>
<path fill="none" stroke="black" d="M677.05,-844.7C680.67,-838.77 684.68,-831.91 688,-825.49 691.98,-817.79 695.93,-809.21 699.35,-801.37"/>
<polygon fill="black" stroke="black" points="702.67,-802.52 703.38,-791.94 696.23,-799.77 702.67,-802.52"/>
<text text-anchor="middle" x="701" y="-814.29" font-family="Times,serif" font-size="14.00">1</text>
</g>
<!-- 14&#45;&gt;25 -->
<g id="edge44" class="edge">
<title>14&#45;&gt;25</title>
<path fill="none" stroke="black" d="M694.16,-859.13C755,-856.11 906.86,-848.68 1034,-843.49 1259.73,-834.26 1317.74,-852.81 1542,-825.49 1649.29,-812.41 1780,-883.57 1780,-775.49 1780,-775.49 1780,-775.49 1780,-642.99 1780,-538.99 1836.12,-525.32 1870,-426.99 1897.26,-347.89 1859.47,-303.26 1920,-245.5 1936.75,-229.51 1998.19,-219.44 2038.51,-214.4"/>
<polygon fill="black" stroke="black" points="2039,-217.86 2048.51,-213.2 2038.16,-210.91 2039,-217.86"/>
<text text-anchor="middle" x="1807" y="-553.29" font-family="Times,serif" font-size="14.00">3</text>
</g>
<!-- 14&#45;&gt;28 -->
<g id="edge30" class="edge">
<title>14&#45;&gt;28</title>
<path fill="none" stroke="black" d="M668.09,-879.62C671.31,-919.09 683.47,-1018.27 727,-1086.49 763.34,-1143.44 834.15,-1183.13 876.24,-1202.88"/>
<polygon fill="black" stroke="black" points="874.97,-1206.15 885.52,-1207.13 877.89,-1199.79 874.97,-1206.15"/>
<text text-anchor="middle" x="714" y="-1031.79" font-family="Times,serif" font-size="14.00">2</text>
</g>
<!-- 15 -->
<g id="node17" class="node">
<title>15</title>
<ellipse fill="none" stroke="black" cx="2075" cy="-122.5" rx="27" ry="18"/>
<text text-anchor="middle" x="2075" y="-118.8" font-family="Times,serif" font-size="14.00">15</text>
</g>
<!-- 15&#45;&gt;0 -->
<g id="edge24" class="edge">
<title>15&#45;&gt;0</title>
<path fill="none" stroke="black" d="M2048.1,-124.12C1993.64,-125.93 1872.9,-132.79 1842,-158.5 1759.13,-227.44 1818,-535.19 1818,-642.99 1818,-1219.24 1818,-1219.24 1818,-1219.24 1818,-1293.5 1562.71,-1268.86 1489,-1277.98 1477.47,-1279.41 1138.06,-1302.66 1023.99,-1310.46"/>
<polygon fill="black" stroke="black" points="1023.72,-1306.97 1013.98,-1311.14 1024.19,-1313.95 1023.72,-1306.97"/>
<text text-anchor="middle" x="1823" y="-727.29" font-family="Times,serif" font-size="14.00">1</text>
</g>
<!-- 15&#45;&gt;11 -->
<g id="edge108" class="edge">
<title>15&#45;&gt;11</title>
<path fill="none" stroke="black" d="M2050.46,-114.98C1988.91,-98.63 1827.85,-55.86 1756.68,-36.96"/>
<polygon fill="black" stroke="black" points="1757.41,-33.53 1746.85,-34.35 1755.62,-40.3 1757.41,-33.53"/>
<text text-anchor="middle" x="1946" y="-75.3" font-family="Times,serif" font-size="14.00">0</text>
</g>
<!-- 15&#45;&gt;17 -->
<g id="edge64" class="edge">
<title>15&#45;&gt;17</title>
<path fill="none" stroke="black" d="M2047.67,-123.51C1983.59,-124.06 1825.89,-128.5 1784,-158.5 1763.96,-172.85 1760,-183.85 1760,-208.5 1760,-349 1760,-349 1760,-349 1760,-483.45 1751.75,-517.1 1756,-651.49 1759.56,-763.88 1772,-791.54 1772,-903.99 1772,-1036.49 1772,-1036.49 1772,-1036.49 1772,-1104.24 1233.09,-1095.03 1166,-1104.49 1151.67,-1106.51 1136.06,-1109.71 1122.59,-1112.79"/>
<polygon fill="black" stroke="black" points="1121.7,-1109.4 1112.77,-1115.1 1123.31,-1116.22 1121.7,-1109.4"/>
<text text-anchor="middle" x="1761" y="-640.29" font-family="Times,serif" font-size="14.00">3</text>
</g>
<!-- 15&#45;&gt;18 -->
<g id="edge62" class="edge">
<title>15&#45;&gt;18</title>
<path fill="none" stroke="black" d="M2085.59,-139.22C2093.98,-152.54 2105.23,-172.45 2111,-191.5 2119.08,-218.16 2121.5,-250.04 2122.09,-272.22"/>
<polygon fill="black" stroke="black" points="2118.6,-272.32 2122.26,-282.26 2125.6,-272.21 2118.6,-272.32"/>
<text text-anchor="middle" x="2124" y="-205.8" font-family="Times,serif" font-size="14.00">2</text>
</g>
<!-- 15&#45;&gt;29 -->
<g id="edge26" class="edge">
<title>15&#45;&gt;29</title>
<path fill="none" stroke="black" d="M2102.14,-124.13C2204.69,-128.16 2570.4,-157.7 2722,-373.5 2925.2,-662.73 2800,-811.51 2800,-1164.99 2800,-2014.98 2800,-2014.98 2800,-2014.98 2800,-2086.66 2695.04,-2105.78 2637.19,-2110.88"/>
<polygon fill="black" stroke="black" points="2636.67,-2107.41 2626.97,-2111.68 2637.22,-2114.39 2636.67,-2107.41"/>
<text text-anchor="middle" x="2806" y="-1118.79" font-family="Times,serif" font-size="14.00">4</text>
</g>
<!-- 16&#45;&gt;12 -->
<g id="edge132" class="edge">
<title>16&#45;&gt;12</title>
<path fill="none" stroke="black" d="M1346.18,-1473.89C1332.78,-1463.59 1313.44,-1449.02 1296,-1436.98 1287.36,-1431.02 1277.76,-1424.78 1269.02,-1419.25"/>
<polygon fill="black" stroke="black" points="1270.65,-1416.14 1260.32,-1413.79 1266.93,-1422.07 1270.65,-1416.14"/>
<text text-anchor="middle" x="1322" y="-1440.78" font-family="Times,serif" font-size="14.00">2</text>
</g>
<!-- 16&#45;&gt;15 -->
<g id="edge41" class="edge">
<title>16&#45;&gt;15</title>
<path fill="none" stroke="black" d="M1389.86,-1485.22C1492.73,-1478.13 1856,-1449.7 1856,-1401.98 1856,-1401.98 1856,-1401.98 1856,-208.5 1856,-169.75 1976.64,-141.69 2038.84,-129.8"/>
<polygon fill="black" stroke="black" points="2039.83,-133.18 2049.02,-127.9 2038.55,-126.3 2039.83,-133.18"/>
<text text-anchor="middle" x="1861" y="-814.29" font-family="Times,serif" font-size="14.00">4</text>
</g>
<!-- 16&#45;&gt;17 -->
<g id="edge84" class="edge">
<title>16&#45;&gt;17</title>
<path fill="none" stroke="black" d="M1355.06,-1470.57C1344.63,-1449.59 1325.27,-1412.45 1305,-1382.98 1240.61,-1289.38 1149.61,-1189.06 1109,-1145.62"/>
<polygon fill="black" stroke="black" points="1111.41,-1143.08 1102.02,-1138.19 1106.31,-1147.88 1111.41,-1143.08"/>
<text text-anchor="middle" x="1272" y="-1310.28" font-family="Times,serif" font-size="14.00">1</text>
</g>
<!-- 16&#45;&gt;18 -->
<g id="edge42" class="edge">
<title>16&#45;&gt;18</title>
<path fill="none" stroke="black" d="M1390.17,-1486.51C1481.71,-1484.7 1778.28,-1477 1870,-1451.98 1917.94,-1438.91 1970,-1451.67 1970,-1401.98 1970,-1401.98 1970,-1401.98 1970,-1164.99 1970,-1011.7 1989.52,-625.28 2032,-477.99 2048.73,-419.99 2084.82,-358.57 2105.86,-325.67"/>
<polygon fill="black" stroke="black" points="2108.87,-327.47 2111.37,-317.18 2102.99,-323.66 2108.87,-327.47"/>
<text text-anchor="middle" x="1985" y="-901.29" font-family="Times,serif" font-size="14.00">3</text>
</g>
<!-- 16&#45;&gt;28 -->
<g id="edge60" class="edge">
<title>16&#45;&gt;28</title>
<path fill="none" stroke="black" d="M1336.48,-1484.31C1264.74,-1475.73 1064.64,-1442.59 951,-1331.98 930.1,-1311.65 919.8,-1279.83 914.75,-1255.18"/>
<polygon fill="black" stroke="black" points="918.15,-1254.3 912.9,-1245.1 911.27,-1255.57 918.15,-1254.3"/>
<text text-anchor="middle" x="995" y="-1353.78" font-family="Times,serif" font-size="14.00">0</text>
</g>
<!-- 17&#45;&gt;4 -->
<g id="edge34" class="edge">
<title>17&#45;&gt;4</title>
<path fill="none" stroke="black" d="M1114.19,-1117.88C1143.56,-1113.21 1192.16,-1103.56 1231,-1086.49 1232.35,-1085.89 1258.26,-1068.57 1279.25,-1054.47"/>
<polygon fill="black" stroke="black" points="1281.22,-1057.37 1287.57,-1048.89 1277.32,-1051.56 1281.22,-1057.37"/>
<text text-anchor="middle" x="1258" y="-1075.29" font-family="Times,serif" font-size="14.00">1</text>
</g>
<!-- 17&#45;&gt;6 -->
<g id="edge124" class="edge">
<title>17&#45;&gt;6</title>
<path fill="none" stroke="black" d="M1066.98,-1110.93C1056.6,-1104.9 1044.52,-1096.53 1036,-1086.49 1007.98,-1053.46 874,-775.29 874,-731.99 874,-731.99 874,-731.99 874,-451.49 874,-416.27 874.17,-405.74 860,-373.5 834.92,-316.42 786.03,-261.07 757.71,-231.85"/>
<polygon fill="black" stroke="black" points="760.15,-229.34 750.64,-224.66 755.15,-234.24 760.15,-229.34"/>
<text text-anchor="middle" x="879" y="-683.79" font-family="Times,serif" font-size="14.00">0</text>
</g>
<!-- 17&#45;&gt;9 -->
<g id="edge104" class="edge">
<title>17&#45;&gt;9</title>
<path fill="none" stroke="black" d="M1095.68,-1105.07C1098.07,-1099.31 1100.48,-1092.72 1102,-1086.49 1127.74,-981.06 1113.35,-951.27 1126,-843.49 1152.36,-618.94 1042.78,-501.01 1202,-340.5 1227.22,-315.07 1331.86,-305.96 1385.69,-302.91"/>
<polygon fill="black" stroke="black" points="1385.94,-306.4 1395.74,-302.38 1385.57,-299.41 1385.94,-306.4"/>
<text text-anchor="middle" x="1135" y="-727.29" font-family="Times,serif" font-size="14.00">3</text>
</g>
<!-- 17&#45;&gt;9 -->
<g id="edge136" class="edge">
<title>17&#45;&gt;9</title>
<path fill="none" stroke="black" d="M1108.23,-1110.5C1117.57,-1104.51 1128.1,-1096.31 1135,-1086.49 1143.81,-1073.95 1140.8,-1068.23 1145,-1053.49 1196.48,-872.77 1254,-832.9 1254,-644.99 1254,-644.99 1254,-644.99 1254,-399.24 1254,-338.38 1338.37,-314.54 1386.08,-305.92"/>
<polygon fill="black" stroke="black" points="1386.94,-309.33 1396.22,-304.22 1385.78,-302.43 1386.94,-309.33"/>
<text text-anchor="middle" x="1255" y="-727.29" font-family="Times,serif" font-size="14.00">4</text>
</g>
<!-- 17&#45;&gt;20 -->
<g id="edge65" class="edge">
<title>17&#45;&gt;20</title>
<path fill="none" stroke="black" d="M1080.63,-1104.99C1078.26,-1099.22 1075.79,-1092.65 1074,-1086.49 1006.14,-853.31 1028.94,-785.81 973,-549.49 962.59,-505.51 891.58,-191.77 861,-158.5 846.49,-142.71 824.11,-133.99 805.06,-129.2"/>
<polygon fill="black" stroke="black" points="805.69,-125.76 795.17,-126.98 804.16,-132.59 805.69,-125.76"/>
<text text-anchor="middle" x="1000" y="-640.29" font-family="Times,serif" font-size="14.00">2</text>
</g>
<!-- 18&#45;&gt;2 -->
<g id="edge119" class="edge">
<title>18&#45;&gt;2</title>
<path fill="none" stroke="black" d="M2118.08,-318.43C2098.03,-406.46 2008,-820.98 2008,-1164.99 2008,-1488.98 2008,-1488.98 2008,-1488.98 2008,-1517.37 1098.79,-1562.77 902.9,-1572.23"/>
<polygon fill="black" stroke="black" points="902.64,-1568.73 892.82,-1572.71 902.98,-1575.73 902.64,-1568.73"/>
<text text-anchor="middle" x="2025" y="-944.79" font-family="Times,serif" font-size="14.00">1</text>
</g>
<!-- 18&#45;&gt;5 -->
<g id="edge58" class="edge">
<title>18&#45;&gt;5</title>
<path fill="none" stroke="black" d="M2149.07,-301.02C2224.06,-301.41 2433.35,-314.5 2500,-444.99 2557.73,-558.02 2518,-603.07 2518,-729.99 2518,-1923.98 2518,-1923.98 2518,-1923.98 2518,-1956.22 2488.61,-1982.08 2465.45,-1997.45"/>
<polygon fill="black" stroke="black" points="2463.54,-1994.51 2456.96,-2002.81 2467.28,-2000.43 2463.54,-1994.51"/>
<text text-anchor="middle" x="2523" y="-1162.29" font-family="Times,serif" font-size="14.00">3</text>
</g>
<!-- 18&#45;&gt;6 -->
<g id="edge75" class="edge">
<title>18&#45;&gt;6</title>
<path fill="none" stroke="black" d="M2095.14,-298.25C2000.25,-293.79 1671.83,-278 1401,-260.5 1161.33,-245.01 873.43,-221.79 772.83,-213.54"/>
<polygon fill="black" stroke="black" points="772.85,-210.03 762.59,-212.7 772.27,-217 772.85,-210.03"/>
<text text-anchor="middle" x="1406" y="-249.3" font-family="Times,serif" font-size="14.00">0</text>
</g>
<!-- 18&#45;&gt;13 -->
<g id="edge18" class="edge">
<title>18&#45;&gt;13</title>
<path fill="none" stroke="black" d="M2097.73,-292.4C2056.47,-280.63 1969.84,-257.21 1895,-245.5 1792.39,-229.43 1765.53,-235.87 1662,-227.5 1604.64,-222.85 1538.11,-217.17 1497.81,-213.69"/>
<polygon fill="black" stroke="black" points="1497.92,-210.19 1487.66,-212.81 1497.32,-217.16 1497.92,-210.19"/>
<text text-anchor="middle" x="1976" y="-249.3" font-family="Times,serif" font-size="14.00">2</text>
</g>
<!-- 18&#45;&gt;25 -->
<g id="edge82" class="edge">
<title>18&#45;&gt;25</title>
<path fill="none" stroke="black" d="M2113.38,-283.17C2106.36,-269.87 2096.32,-250.87 2088.27,-235.63"/>
<polygon fill="black" stroke="black" points="2091.33,-233.92 2083.57,-226.72 2085.14,-237.19 2091.33,-233.92"/>
<text text-anchor="middle" x="2107" y="-249.3" font-family="Times,serif" font-size="14.00">4</text>
</g>
<!-- 19&#45;&gt;6 -->
<g id="edge14" class="edge">
<title>19&#45;&gt;6</title>
<path fill="none" stroke="black" d="M2188.07,-501.58C2059.99,-490.9 1500.2,-439.4 1057,-322.5 949.05,-294.02 825.39,-246.48 768.16,-223.6"/>
<polygon fill="black" stroke="black" points="769.17,-220.23 758.59,-219.75 766.56,-226.73 769.17,-220.23"/>
<text text-anchor="middle" x="1193" y="-344.3" font-family="Times,serif" font-size="14.00">2</text>
</g>
<!-- 19&#45;&gt;10 -->
<g id="edge45" class="edge">
<title>19&#45;&gt;10</title>
<path fill="none" stroke="black" d="M2233.5,-524.35C2246.51,-538.84 2262.83,-560.17 2270,-582.49 2274.89,-597.72 2270.2,-602.49 2270,-618.49 2269.93,-624.41 2247.86,-889.39 2268,-999.49 2281.87,-1075.33 2320,-1087.89 2320,-1164.99 2320,-1749.98 2320,-1749.98 2320,-1749.98 2320,-1818.98 1788.89,-1832.18 1641.52,-1834.51"/>
<polygon fill="black" stroke="black" points="1641.14,-1831.02 1631.19,-1834.67 1641.25,-1838.02 1641.14,-1831.02"/>
<text text-anchor="middle" x="2325" y="-1162.29" font-family="Times,serif" font-size="14.00">1</text>
</g>
<!-- 19&#45;&gt;18 -->
<g id="edge22" class="edge">
<title>19&#45;&gt;18</title>
<path fill="none" stroke="black" d="M2215.96,-477.89C2215.98,-443.57 2211.53,-382.39 2183,-340.5 2175.76,-329.86 2164.56,-321.5 2153.72,-315.29"/>
<polygon fill="black" stroke="black" points="2155.28,-312.15 2144.8,-310.58 2152.01,-318.34 2155.28,-312.15"/>
<text text-anchor="middle" x="2218" y="-396.54" font-family="Times,serif" font-size="14.00">0</text>
</g>
<!-- 19&#45;&gt;18 -->
<g id="edge105" class="edge">
<title>19&#45;&gt;18</title>
<path fill="none" stroke="black" d="M2204.15,-480.14C2186.57,-441.91 2152,-366.73 2133.82,-327.19"/>
<polygon fill="black" stroke="black" points="2136.93,-325.58 2129.57,-317.95 2130.57,-328.5 2136.93,-325.58"/>
<text text-anchor="middle" x="2185" y="-396.54" font-family="Times,serif" font-size="14.00">3</text>
</g>
<!-- 19&#45;&gt;26 -->
<g id="edge11" class="edge">
<title>19&#45;&gt;26</title>
<path fill="none" stroke="black" d="M2190.74,-516.2C2123.35,-544.64 1927.58,-623.15 1756,-651.49 1557.76,-684.23 1052.44,-655.53 852,-669.49 815.82,-672.01 774.7,-677.19 746.06,-681.17"/>
<polygon fill="black" stroke="black" points="745.51,-677.71 736.1,-682.58 746.49,-684.64 745.51,-677.71"/>
<text text-anchor="middle" x="2021" y="-596.79" font-family="Times,serif" font-size="14.00">4</text>
</g>
<!-- 20&#45;&gt;0 -->
<g id="edge2" class="edge">
<title>20&#45;&gt;0</title>
<path fill="none" stroke="black" d="M785.86,-136.8C800.13,-149.21 819.55,-169.13 828,-191.5 850.07,-249.93 801.76,-829.47 851,-1140.49 858.44,-1187.46 846.26,-1206.36 874,-1244.98 893.66,-1272.36 928.07,-1290.73 953.77,-1301.41"/>
<polygon fill="black" stroke="black" points="952.56,-1304.69 963.14,-1305.13 955.14,-1298.19 952.56,-1304.69"/>
<text text-anchor="middle" x="833" y="-727.29" font-family="Times,serif" font-size="14.00">2</text>
</g>
<!-- 20&#45;&gt;6 -->
<g id="edge121" class="edge">
<title>20&#45;&gt;6</title>
<path fill="none" stroke="black" d="M762.49,-140.25C757.84,-152.24 751.49,-168.6 746.17,-182.3"/>
<polygon fill="black" stroke="black" points="742.88,-181.11 742.52,-191.7 749.4,-183.65 742.88,-181.11"/>
<text text-anchor="middle" x="760" y="-162.3" font-family="Times,serif" font-size="14.00">0</text>
</g>
<!-- 20&#45;&gt;17 -->
<g id="edge109" class="edge">
<title>20&#45;&gt;17</title>
<path fill="none" stroke="black" d="M795.94,-125.46C840.92,-129.25 928.69,-138.97 952,-158.5 1058.87,-248.02 1064,-312.08 1064,-451.49 1064,-818.99 1064,-818.99 1064,-818.99 1064,-920.8 1077.68,-1041.28 1084.38,-1094.23"/>
<polygon fill="black" stroke="black" points="1080.95,-1095 1085.7,-1104.47 1087.89,-1094.1 1080.95,-1095"/>
<text text-anchor="middle" x="1069" y="-640.29" font-family="Times,serif" font-size="14.00">3</text>
</g>
<!-- 20&#45;&gt;23 -->
<g id="edge38" class="edge">
<title>20&#45;&gt;23</title>
<path fill="none" stroke="black" d="M769,-104.3C769,-93.01 769,-77.82 769,-63.95"/>
<polygon fill="black" stroke="black" points="772.5,-63.68 769,-53.68 765.5,-63.68 772.5,-63.68"/>
<text text-anchor="middle" x="774" y="-75.3" font-family="Times,serif" font-size="14.00">4</text>
</g>
<!-- 20&#45;&gt;26 -->
<g id="edge19" class="edge">
<title>20&#45;&gt;26</title>
<path fill="none" stroke="black" d="M742.97,-127.79C703.74,-135.92 634,-157.53 634,-208.5 634,-453.49 634,-453.49 634,-453.49 634,-532.64 674.12,-619.78 696.06,-661.51"/>
<polygon fill="black" stroke="black" points="693.03,-663.25 700.83,-670.41 699.2,-659.94 693.03,-663.25"/>
<text text-anchor="middle" x="639" y="-396.54" font-family="Times,serif" font-size="14.00">1</text>
</g>
<!-- 21&#45;&gt;0 -->
<g id="edge78" class="edge">
<title>21&#45;&gt;0</title>
<path fill="none" stroke="black" d="M1648.49,-952.36C1623.57,-956.18 1586.27,-964.91 1560,-984.49 1520.02,-1014.28 1498,-1028.13 1498,-1077.99 1498,-1219.24 1498,-1219.24 1498,-1219.24 1498,-1248.97 1490.99,-1261.88 1466,-1277.98 1461.35,-1280.98 1135.43,-1303.05 1023.93,-1310.52"/>
<polygon fill="black" stroke="black" points="1023.57,-1307.04 1013.82,-1311.2 1024.04,-1314.02 1023.57,-1307.04"/>
<text text-anchor="middle" x="1503" y="-1118.79" font-family="Times,serif" font-size="14.00">2</text>
</g>
<!-- 21&#45;&gt;14 -->
<g id="edge110" class="edge">
<title>21&#45;&gt;14</title>
<path fill="none" stroke="black" d="M1651.26,-939.61C1615.18,-928.02 1544.13,-906.76 1482,-897.49 1404.63,-885.94 853.72,-868.25 704.3,-863.63"/>
<polygon fill="black" stroke="black" points="704.35,-860.13 694.25,-863.32 704.14,-867.12 704.35,-860.13"/>
<text text-anchor="middle" x="1557" y="-901.29" font-family="Times,serif" font-size="14.00">3</text>
</g>
<!-- 21&#45;&gt;21 -->
<g id="edge122" class="edge">
<title>21&#45;&gt;21</title>
<path fill="none" stroke="black" d="M1699.53,-956.24C1710.51,-956.98 1720,-954.39 1720,-948.49 1720,-944.52 1715.72,-942.05 1709.57,-941.08"/>
<polygon fill="black" stroke="black" points="1709.65,-937.58 1699.53,-940.74 1709.41,-944.58 1709.65,-937.58"/>
<text text-anchor="middle" x="1725" y="-944.79" font-family="Times,serif" font-size="14.00">0</text>
</g>
<!-- 21&#45;&gt;25 -->
<g id="edge52" class="edge">
<title>21&#45;&gt;25</title>
<path fill="none" stroke="black" d="M1702.01,-946.59C1784.02,-943.64 2029.19,-933.3 2106,-912.49 2155.5,-899.08 2210,-913.77 2210,-862.49 2210,-862.49 2210,-862.49 2210,-729.99 2210,-626.82 2270,-608.91 2270,-505.74 2270,-505.74 2270,-505.74 2270,-299.5 2270,-220.3 2178.24,-262.1 2107,-227.5 2106.16,-227.09 2105.31,-226.67 2104.45,-226.24"/>
<polygon fill="black" stroke="black" points="2105.7,-222.95 2095.2,-221.51 2102.51,-229.18 2105.7,-222.95"/>
<text text-anchor="middle" x="2261" y="-596.79" font-family="Times,serif" font-size="14.00">4</text>
</g>
<!-- 21&#45;&gt;26 -->
<g id="edge25" class="edge">
<title>21&#45;&gt;26</title>
<path fill="none" stroke="black" d="M1661.5,-932.65C1640.93,-910.74 1599.72,-869.55 1558,-843.49 1438.99,-769.16 1403.03,-753.65 1266,-723.49 1176.07,-703.69 943.78,-712.97 852,-705.49 815.85,-702.54 774.73,-697.42 746.07,-693.57"/>
<polygon fill="black" stroke="black" points="746.49,-690.1 736.11,-692.22 745.55,-697.03 746.49,-690.1"/>
<text text-anchor="middle" x="1533" y="-814.29" font-family="Times,serif" font-size="14.00">1</text>
</g>
<!-- 22 -->
<g id="node24" class="node">
<title>22</title>
<ellipse fill="none" stroke="black" cx="1335" cy="-504.74" rx="27" ry="18"/>
<text text-anchor="middle" x="1335" y="-501.04" font-family="Times,serif" font-size="14.00">22</text>
</g>
<!-- 22&#45;&gt;4 -->
<g id="edge125" class="edge">
<title>22&#45;&gt;4</title>
<path fill="none" stroke="black" d="M1331.76,-522.95C1328.51,-541.7 1324,-572.61 1324,-599.49 1324,-731.99 1324,-731.99 1324,-731.99 1324,-850.88 1347.73,-883.41 1322,-999.49 1321.31,-1002.58 1320.33,-1005.74 1319.19,-1008.82"/>
<polygon fill="black" stroke="black" points="1315.86,-1007.68 1315.14,-1018.25 1322.3,-1010.44 1315.86,-1007.68"/>
<text text-anchor="middle" x="1332" y="-770.79" font-family="Times,serif" font-size="14.00">4</text>
</g>
<!-- 22&#45;&gt;10 -->
<g id="edge141" class="edge">
<title>22&#45;&gt;10</title>
<path fill="none" stroke="black" d="M1352.31,-518.99C1379.31,-540.59 1431.21,-586.08 1459,-636.49 1500.84,-712.39 1482.77,-742.28 1507,-825.49 1539.19,-936 1566.59,-958.39 1588,-1071.49 1611.6,-1196.14 1604,-1229.62 1604,-1356.48 1604,-1749.98 1604,-1749.98 1604,-1749.98 1604,-1769.23 1604,-1790.93 1604,-1807.59"/>
<polygon fill="black" stroke="black" points="1600.5,-1807.73 1604,-1817.73 1607.5,-1807.73 1600.5,-1807.73"/>
<text text-anchor="middle" x="1608" y="-1162.29" font-family="Times,serif" font-size="14.00">2</text>
</g>
<!-- 22&#45;&gt;20 -->
<g id="edge97" class="edge">
<title>22&#45;&gt;20</title>
<path fill="none" stroke="black" d="M1318.46,-490.34C1282.84,-461.22 1196.79,-389.36 1131,-322.5 1063.58,-253.98 1073.95,-205.33 990,-158.5 959.15,-141.29 860.59,-130.86 806.1,-126.27"/>
<polygon fill="black" stroke="black" points="806.07,-122.76 795.82,-125.43 805.5,-129.73 806.07,-122.76"/>
<text text-anchor="middle" x="1136" y="-296.8" font-family="Times,serif" font-size="14.00">0</text>
</g>
<!-- 27 -->
<g id="node29" class="node">
<title>27</title>
<ellipse fill="none" stroke="black" cx="1667" cy="-400.24" rx="22.96" ry="22.96"/>
<ellipse fill="none" stroke="black" cx="1667" cy="-400.24" rx="27" ry="27"/>
<text text-anchor="middle" x="1667" y="-396.54" font-family="Times,serif" font-size="14.00">27</text>
</g>
<!-- 22&#45;&gt;27 -->
<g id="edge103" class="edge">
<title>22&#45;&gt;27</title>
<path fill="none" stroke="black" d="M1359.14,-496.29C1417.05,-478.41 1564.04,-433.03 1631.8,-412.11"/>
<polygon fill="black" stroke="black" points="1633.07,-415.38 1641.59,-409.09 1631,-408.69 1633.07,-415.38"/>
<text text-anchor="middle" x="1526" y="-448.79" font-family="Times,serif" font-size="14.00">3</text>
</g>
<!-- 22&#45;&gt;28 -->
<g id="edge106" class="edge">
<title>22&#45;&gt;28</title>
<path fill="none" stroke="black" d="M1339.16,-522.53C1357.68,-598.54 1429.97,-910.5 1392,-999.49 1357.1,-1081.29 1331.13,-1104.04 1250,-1140.49 1194.84,-1165.27 1176.93,-1159.93 1118,-1173.49 1085.7,-1180.92 996.32,-1199.46 945.87,-1209.86"/>
<polygon fill="black" stroke="black" points="945.11,-1206.44 936.03,-1211.89 946.53,-1213.3 945.11,-1206.44"/>
<text text-anchor="middle" x="1407" y="-857.79" font-family="Times,serif" font-size="14.00">1</text>
</g>
<!-- 23&#45;&gt;0 -->
<g id="edge51" class="edge">
<title>23&#45;&gt;0</title>
<path fill="none" stroke="black" d="M794.35,-35.83C846.73,-54.03 966.33,-103.64 1018,-191.5 1076.61,-291.15 1026,-335.88 1026,-451.49 1026,-731.99 1026,-731.99 1026,-731.99 1026,-859.72 1001.32,-890.03 993,-1017.49 985.45,-1133.03 993.19,-1162.27 989,-1277.98 988.91,-1280.54 988.79,-1283.2 988.66,-1285.86"/>
<polygon fill="black" stroke="black" points="985.16,-1285.73 988.12,-1295.9 992.15,-1286.1 985.16,-1285.73"/>
<text text-anchor="middle" x="1031" y="-683.79" font-family="Times,serif" font-size="14.00">0</text>
</g>
<!-- 23&#45;&gt;0 -->
<g id="edge95" class="edge">
<title>23&#45;&gt;0</title>
<path fill="none" stroke="black" d="M742.33,-29.43C660.37,-35.08 414,-55.84 353,-104.5 309.01,-139.59 315.23,-171.77 323,-227.5 383.85,-664.17 481.27,-764.17 711,-1140.49 752.07,-1207.76 752.25,-1243.26 823,-1277.98 863.74,-1297.98 915.67,-1306.6 950.06,-1310.29"/>
<polygon fill="black" stroke="black" points="949.84,-1313.78 960.14,-1311.28 950.53,-1306.81 949.84,-1313.78"/>
<text text-anchor="middle" x="459" y="-683.79" font-family="Times,serif" font-size="14.00">4</text>
</g>
<!-- 23&#45;&gt;4 -->
<g id="edge36" class="edge">
<title>23&#45;&gt;4</title>
<path fill="none" stroke="black" d="M796.17,-28.28C861.48,-30.1 1024.92,-37.96 1066,-71.5 1141.8,-133.38 1114.27,-184.37 1141,-278.5 1159.42,-343.35 1157.85,-361.07 1172,-426.99 1220.26,-651.8 1280.92,-922.84 1299.99,-1007.74"/>
<polygon fill="black" stroke="black" points="1296.59,-1008.6 1302.2,-1017.59 1303.42,-1007.07 1296.59,-1008.6"/>
<text text-anchor="middle" x="1207" y="-553.29" font-family="Times,serif" font-size="14.00">1</text>
</g>
<!-- 23&#45;&gt;8 -->
<g id="edge81" class="edge">
<title>23&#45;&gt;8</title>
<path fill="none" stroke="black" d="M742.1,-28.71C618.85,-33.48 114,-56.95 114,-121.5 114,-1445.48 114,-1445.48 114,-1445.48 114,-1529.21 164.19,-1537.32 204,-1610.98 261.33,-1717.07 329.18,-1843.79 357.52,-1896.77"/>
<polygon fill="black" stroke="black" points="354.53,-1898.61 362.34,-1905.78 360.71,-1895.31 354.53,-1898.61"/>
<text text-anchor="middle" x="119" y="-988.29" font-family="Times,serif" font-size="14.00">3</text>
</g>
<!-- 23&#45;&gt;8 -->
<g id="edge92" class="edge">
<title>23&#45;&gt;8</title>
<path fill="none" stroke="black" d="M742.08,-28.14C605.97,-30.46 0,-45.09 0,-121.5 0,-644.99 0,-644.99 0,-644.99 0,-723.28 38,-738.7 38,-816.99 38,-1445.48 38,-1445.48 38,-1445.48 38,-1555.01 277.37,-1821.34 350.22,-1899.85"/>
<polygon fill="black" stroke="black" points="347.74,-1902.33 357.12,-1907.26 352.86,-1897.56 347.74,-1902.33"/>
<text text-anchor="middle" x="43" y="-988.29" font-family="Times,serif" font-size="14.00">2</text>
</g>
<!-- 24&#45;&gt;5 -->
<g id="edge111" class="edge">
<title>24&#45;&gt;5</title>
<path fill="none" stroke="black" d="M562.08,-602.65C515.63,-605.99 419.68,-619 360,-669.49 349.01,-678.78 195.72,-859.8 176,-930.49 120.97,-1127.71 168.31,-1190.54 174,-1331.98 177.56,-1420.42 190,-1441.98 190,-1530.48 190,-1793.48 190,-1793.48 190,-1793.48 190,-2043.59 473.26,-1960.54 723,-1973.98 1401.37,-2010.51 2232.47,-2012.91 2405.52,-2013"/>
<polygon fill="black" stroke="black" points="2405.74,-2016.5 2415.74,-2013 2405.74,-2009.5 2405.74,-2016.5"/>
<text text-anchor="middle" x="179" y="-1310.28" font-family="Times,serif" font-size="14.00">2</text>
</g>
<!-- 24&#45;&gt;19 -->
<g id="edge73" class="edge">
<title>24&#45;&gt;19</title>
<path fill="none" stroke="black" d="M615.97,-599.12C771.83,-596.92 1558.73,-584.99 1800,-564.49 1940.63,-552.54 2106.39,-524.97 2178.47,-512.31"/>
<polygon fill="black" stroke="black" points="2179.18,-515.74 2188.41,-510.56 2177.96,-508.85 2179.18,-515.74"/>
<text text-anchor="middle" x="1931" y="-553.29" font-family="Times,serif" font-size="14.00">0</text>
</g>
<!-- 24&#45;&gt;20 -->
<g id="edge133" class="edge">
<title>24&#45;&gt;20</title>
<path fill="none" stroke="black" d="M588.71,-582.21C588.41,-563.4 588,-532.43 588,-505.74 588,-505.74 588,-505.74 588,-208.5 588,-145.52 678.89,-129.11 731.85,-124.9"/>
<polygon fill="black" stroke="black" points="732.17,-128.39 741.9,-124.21 731.69,-121.4 732.17,-128.39"/>
<text text-anchor="middle" x="593" y="-344.3" font-family="Times,serif" font-size="14.00">4</text>
</g>
<!-- 24&#45;&gt;22 -->
<g id="edge116" class="edge">
<title>24&#45;&gt;22</title>
<path fill="none" stroke="black" d="M615.55,-596.15C728.4,-581.97 1168.38,-526.68 1298.54,-510.32"/>
<polygon fill="black" stroke="black" points="1299.28,-513.76 1308.77,-509.04 1298.41,-506.81 1299.28,-513.76"/>
<text text-anchor="middle" x="990" y="-553.29" font-family="Times,serif" font-size="14.00">3</text>
</g>
<!-- 24&#45;&gt;23 -->
<g id="edge123" class="edge">
<title>24&#45;&gt;23</title>
<path fill="none" stroke="black" d="M575.77,-584.71C516.03,-517.21 276.93,-238.04 336,-158.5 384.4,-93.33 637.04,-48.14 732.46,-33.17"/>
<polygon fill="black" stroke="black" points="733.16,-36.6 742.51,-31.61 732.09,-29.68 733.16,-36.6"/>
<text text-anchor="middle" x="382" y="-296.8" font-family="Times,serif" font-size="14.00">1</text>
</g>
<!-- 25&#45;&gt;2 -->
<g id="edge6" class="edge">
<title>25&#45;&gt;2</title>
<path fill="none" stroke="black" d="M2094.09,-222.26C2098.22,-224.34 2102.65,-226.23 2107,-227.5 2132.15,-234.79 2324.2,-226.28 2342,-245.5 2454.65,-367.11 2355.25,-453.24 2342,-618.49 2337.99,-668.52 2324,-679.79 2324,-729.99 2324,-862.49 2324,-862.49 2324,-862.49 2324,-879.45 2282,-1148.02 2282,-1164.99 2282,-1488.98 2282,-1488.98 2282,-1488.98 2282,-1513.63 2278.73,-1525.65 2258,-1538.98 2236.62,-1552.73 1368.41,-1556.28 1343,-1556.98 1178.9,-1561.52 983.13,-1569.22 902.98,-1572.47"/>
<polygon fill="black" stroke="black" points="902.74,-1568.97 892.89,-1572.87 903.03,-1575.97 902.74,-1568.97"/>
<text text-anchor="middle" x="2325" y="-901.29" font-family="Times,serif" font-size="14.00">2</text>
</g>
<!-- 25&#45;&gt;10 -->
<g id="edge66" class="edge">
<title>25&#45;&gt;10</title>
<path fill="none" stroke="black" d="M2094.08,-222.28C2098.21,-224.36 2102.65,-226.25 2107,-227.5 2161.82,-243.22 2311.69,-220.61 2363,-245.5 2380.83,-254.15 2383.71,-260.98 2393,-278.5 2468.93,-421.68 2404,-480.92 2404,-642.99 2404,-1079.99 2404,-1079.99 2404,-1079.99 2404,-1166.65 2358,-1182.82 2358,-1269.48 2358,-1749.98 2358,-1749.98 2358,-1749.98 2358,-1805.31 2298.13,-1788.53 2244,-1799.98 2127.62,-1824.62 1759.25,-1832.52 1640.96,-1834.45"/>
<polygon fill="black" stroke="black" points="1640.89,-1830.95 1630.94,-1834.61 1641,-1837.95 1640.89,-1830.95"/>
<text text-anchor="middle" x="2409" y="-1031.79" font-family="Times,serif" font-size="14.00">1</text>
</g>
<!-- 25&#45;&gt;12 -->
<g id="edge55" class="edge">
<title>25&#45;&gt;12</title>
<path fill="none" stroke="black" d="M2064.48,-226.4C2031.46,-277.93 1932,-445.87 1932,-599.49 1932,-1314.98 1932,-1314.98 1932,-1314.98 1932,-1348.26 1420.57,-1387.19 1277.69,-1397.42"/>
<polygon fill="black" stroke="black" points="1277.39,-1393.93 1267.66,-1398.13 1277.89,-1400.91 1277.39,-1393.93"/>
<text text-anchor="middle" x="1937" y="-814.29" font-family="Times,serif" font-size="14.00">4</text>
</g>
<!-- 25&#45;&gt;15 -->
<g id="edge56" class="edge">
<title>25&#45;&gt;15</title>
<path fill="none" stroke="black" d="M2075,-191.29C2075,-179.66 2075,-164.04 2075,-150.73"/>
<polygon fill="black" stroke="black" points="2078.5,-150.67 2075,-140.67 2071.5,-150.67 2078.5,-150.67"/>
<text text-anchor="middle" x="2080" y="-162.3" font-family="Times,serif" font-size="14.00">3</text>
</g>
<!-- 25&#45;&gt;28 -->
<g id="edge140" class="edge">
<title>25&#45;&gt;28</title>
<path fill="none" stroke="black" d="M2049.46,-215.68C2031.65,-220.54 2008.55,-229.53 1994,-245.5 1871.28,-380.12 1894,-460.82 1894,-642.99 1894,-1123.49 1894,-1123.49 1894,-1123.49 1894,-1244.65 1746.47,-1160.49 1626,-1173.49 1365.17,-1201.63 1296.58,-1161.11 1036,-1191.49 1005.2,-1195.08 970.74,-1202.35 945.65,-1208.25"/>
<polygon fill="black" stroke="black" points="944.76,-1204.87 935.85,-1210.6 946.39,-1211.67 944.76,-1204.87"/>
<text text-anchor="middle" x="1899" y="-727.29" font-family="Times,serif" font-size="14.00">0</text>
</g>
<!-- 26&#45;&gt;4 -->
<g id="edge32" class="edge">
<title>26&#45;&gt;4</title>
<path fill="none" stroke="black" d="M732.34,-697.86C748.27,-704.67 770.13,-714.27 789,-723.49 801.68,-729.68 804.51,-731.91 817,-738.49 975.01,-821.73 1027.74,-822.51 1170,-930.49 1209.03,-960.11 1216.8,-970.09 1256,-999.49 1263.43,-1005.06 1271.64,-1010.92 1279.22,-1016.22"/>
<polygon fill="black" stroke="black" points="1277.53,-1019.31 1287.74,-1022.13 1281.52,-1013.56 1277.53,-1019.31"/>
<text text-anchor="middle" x="1101" y="-857.79" font-family="Times,serif" font-size="14.00">0</text>
</g>
<!-- 26&#45;&gt;4 -->
<g id="edge99" class="edge">
<title>26&#45;&gt;4</title>
<path fill="none" stroke="black" d="M735.71,-693.4C764.12,-699.18 811.01,-709.75 850,-723.49 970.04,-765.77 1003.67,-773.55 1110,-843.49 1158.38,-875.31 1165.45,-890.15 1207,-930.49 1235.07,-957.74 1265.93,-990.67 1285.61,-1012.07"/>
<polygon fill="black" stroke="black" points="1283.24,-1014.66 1292.58,-1019.67 1288.4,-1009.93 1283.24,-1014.66"/>
<text text-anchor="middle" x="1162" y="-857.79" font-family="Times,serif" font-size="14.00">1</text>
</g>
<!-- 26&#45;&gt;17 -->
<g id="edge77" class="edge">
<title>26&#45;&gt;17</title>
<path fill="none" stroke="black" d="M721.66,-703.79C742.72,-731.48 788.42,-791.86 826,-843.49 903.87,-950.47 893.7,-1005.06 998,-1086.49 1014.02,-1098.99 1035.04,-1107.5 1052.74,-1113"/>
<polygon fill="black" stroke="black" points="1052.14,-1116.47 1062.72,-1115.89 1054.09,-1109.74 1052.14,-1116.47"/>
<text text-anchor="middle" x="875" y="-901.29" font-family="Times,serif" font-size="14.00">3</text>
</g>
<!-- 26&#45;&gt;24 -->
<g id="edge151" class="edge">
<title>26&#45;&gt;24</title>
<path fill="none" stroke="black" d="M691.94,-673.86C682.43,-667.21 670.58,-658.92 660,-651.49 645.12,-641.04 628.51,-629.34 615.09,-619.89"/>
<polygon fill="black" stroke="black" points="616.98,-616.94 606.79,-614.04 612.95,-622.66 616.98,-616.94"/>
<text text-anchor="middle" x="665" y="-640.29" font-family="Times,serif" font-size="14.00">2</text>
</g>
<!-- 26&#45;&gt;29 -->
<g id="edge37" class="edge">
<title>26&#45;&gt;29</title>
<path fill="none" stroke="black" d="M687.95,-697.93C620.84,-728.02 418.82,-828.92 340,-984.49 263.09,-1136.3 322.17,-1196.67 297,-1364.98 285.93,-1439 266,-1455.65 266,-1530.48 266,-1706.48 266,-1706.48 266,-1706.48 266,-1784.77 228,-1800.2 228,-1878.48 228,-2014.98 228,-2014.98 228,-2014.98 228,-2134.26 642.96,-2061.56 762,-2068.98 1486.19,-2114.15 2373.56,-2113.6 2563.25,-2112.91"/>
<polygon fill="black" stroke="black" points="2563.27,-2116.41 2573.25,-2112.87 2563.24,-2109.41 2563.27,-2116.41"/>
<text text-anchor="middle" x="299" y="-1397.28" font-family="Times,serif" font-size="14.00">4</text>
</g>
<!-- 27&#45;&gt;3 -->
<g id="edge86" class="edge">
<title>27&#45;&gt;3</title>
<path fill="none" stroke="black" d="M1693.85,-402.75C1773.35,-408.8 2008.08,-438.68 2106,-582.49 2173.44,-681.54 2122,-1001.66 2122,-1121.49 2122,-1662.98 2122,-1662.98 2122,-1662.98 2122,-1687.63 2117.25,-1697.58 2098,-1712.98 2065.37,-1739.09 2016.86,-1746.44 1983.46,-1748.16"/>
<polygon fill="black" stroke="black" points="1983.05,-1744.67 1973.19,-1748.54 1983.31,-1751.67 1983.05,-1744.67"/>
<text text-anchor="middle" x="2129" y="-1075.29" font-family="Times,serif" font-size="14.00">3</text>
</g>
<!-- 27&#45;&gt;9 -->
<g id="edge134" class="edge">
<title>27&#45;&gt;9</title>
<path fill="none" stroke="black" d="M1645.18,-384.41C1625.1,-371.31 1594.1,-352.49 1565,-340.5 1526.57,-324.66 1479.81,-313.55 1449.5,-307.34"/>
<polygon fill="black" stroke="black" points="1450,-303.87 1439.51,-305.35 1448.63,-310.74 1450,-303.87"/>
<text text-anchor="middle" x="1600" y="-344.3" font-family="Times,serif" font-size="14.00">2</text>
</g>
<!-- 27&#45;&gt;11 -->
<g id="edge43" class="edge">
<title>27&#45;&gt;11</title>
<path fill="none" stroke="black" d="M1673.82,-374.14C1678.55,-354.51 1684,-326.47 1684,-301.5 1684,-301.5 1684,-301.5 1684,-121.5 1684,-96.67 1695.59,-70.68 1705.96,-52.37"/>
<polygon fill="black" stroke="black" points="1709.11,-53.94 1711.21,-43.55 1703.09,-50.36 1709.11,-53.94"/>
<text text-anchor="middle" x="1689" y="-205.8" font-family="Times,serif" font-size="14.00">0</text>
</g>
<!-- 27&#45;&gt;18 -->
<g id="edge67" class="edge">
<title>27&#45;&gt;18</title>
<path fill="none" stroke="black" d="M1693.1,-393.64C1770.48,-377.01 1998.73,-327.98 2086.79,-309.06"/>
<polygon fill="black" stroke="black" points="2087.53,-312.48 2096.57,-306.96 2086.06,-305.64 2087.53,-312.48"/>
<text text-anchor="middle" x="1941" y="-344.3" font-family="Times,serif" font-size="14.00">1</text>
</g>
<!-- 27&#45;&gt;21 -->
<g id="edge120" class="edge">
<title>27&#45;&gt;21</title>
<path fill="none" stroke="black" d="M1666.6,-427.36C1666.33,-448.07 1666,-477.76 1666,-503.74 1666,-731.99 1666,-731.99 1666,-731.99 1666,-799.73 1670.49,-879.35 1673.13,-920.23"/>
<polygon fill="black" stroke="black" points="1669.66,-920.71 1673.8,-930.46 1676.64,-920.25 1669.66,-920.71"/>
<text text-anchor="middle" x="1671" y="-683.79" font-family="Times,serif" font-size="14.00">4</text>
</g>
<!-- 28&#45;&gt;2 -->
<g id="edge83" class="edge">
<title>28&#45;&gt;2</title>
<path fill="none" stroke="black" d="M887.73,-1233.18C864.99,-1249.33 833,-1278.23 833,-1312.98 833,-1488.98 833,-1488.98 833,-1488.98 833,-1510.29 842.12,-1532.69 850.77,-1549.14"/>
<polygon fill="black" stroke="black" points="847.83,-1551.04 855.74,-1558.08 853.95,-1547.64 847.83,-1551.04"/>
<text text-anchor="middle" x="838" y="-1397.28" font-family="Times,serif" font-size="14.00">1</text>
</g>
<!-- 28&#45;&gt;4 -->
<g id="edge146" class="edge">
<title>28&#45;&gt;4</title>
<path fill="none" stroke="black" d="M936.23,-1212.5C998.16,-1200.34 1156.3,-1163.4 1264,-1086.49 1273.89,-1079.43 1282.86,-1069.51 1289.95,-1060.37"/>
<polygon fill="black" stroke="black" points="1292.78,-1062.43 1295.9,-1052.3 1287.15,-1058.27 1292.78,-1062.43"/>
<text text-anchor="middle" x="1241" y="-1118.79" font-family="Times,serif" font-size="14.00">3</text>
</g>
<!-- 28&#45;&gt;7 -->
<g id="edge50" class="edge">
<title>28&#45;&gt;7</title>
<path fill="none" stroke="black" d="M896.01,-1195.39C891.89,-1188.52 887.53,-1180.81 884,-1173.49 808.96,-1018.05 840.79,-954.73 746,-810.49 742.63,-805.35 738.38,-800.4 734,-795.9"/>
<polygon fill="black" stroke="black" points="736.27,-793.23 726.63,-788.84 731.43,-798.28 736.27,-793.23"/>
<text text-anchor="middle" x="831" y="-988.29" font-family="Times,serif" font-size="14.00">2</text>
</g>
<!-- 28&#45;&gt;17 -->
<g id="edge89" class="edge">
<title>28&#45;&gt;17</title>
<path fill="none" stroke="black" d="M923,-1194.72C931.25,-1182.32 943,-1167.63 957,-1158.49 985.49,-1139.88 1023.57,-1131.13 1051.32,-1127.03"/>
<polygon fill="black" stroke="black" points="1051.97,-1130.48 1061.42,-1125.68 1051.04,-1123.54 1051.97,-1130.48"/>
<text text-anchor="middle" x="962" y="-1162.29" font-family="Times,serif" font-size="14.00">0</text>
</g>
<!-- 28&#45;&gt;29 -->
<g id="edge59" class="edge">
<title>28&#45;&gt;29</title>
<path fill="none" stroke="black" d="M886.25,-1231.19C848.18,-1251.32 772.89,-1295.21 725,-1349.98 562.48,-1535.88 454,-1588.06 454,-1834.98 454,-2014.98 454,-2014.98 454,-2014.98 454,-2070.02 2279.17,-2106.68 2563.07,-2112.05"/>
<polygon fill="black" stroke="black" points="2563.19,-2115.55 2573.26,-2112.24 2563.32,-2108.55 2563.19,-2115.55"/>
<text text-anchor="middle" x="492" y="-1658.28" font-family="Times,serif" font-size="14.00">4</text>
</g>
<!-- 29&#45;&gt;5 -->
<g id="edge143" class="edge">
<title>29&#45;&gt;5</title>
<path fill="none" stroke="black" d="M2577.47,-2099.14C2548.2,-2081.47 2497.09,-2050.64 2465.54,-2031.6"/>
<polygon fill="black" stroke="black" points="2467.18,-2028.5 2456.81,-2026.33 2463.57,-2034.5 2467.18,-2028.5"/>
<text text-anchor="middle" x="2529" y="-2057.78" font-family="Times,serif" font-size="14.00">0</text>
</g>
<!-- 29&#45;&gt;6 -->
<g id="edge13" class="edge">
<title>29&#45;&gt;6</title>
<path fill="none" stroke="black" d="M2572.86,-2112.82C2311.69,-2113.59 250.66,-2118.1 132,-2068.98 100.05,-2055.76 76,-2049.56 76,-2014.98 76,-2014.98 76,-2014.98 76,-729.99 76,-713.21 166.91,-459.1 176,-444.99 233.98,-355.02 254.52,-326.86 350,-278.5 466.92,-219.27 626.41,-210.67 698.23,-210.05"/>
<polygon fill="black" stroke="black" points="698.59,-213.54 708.58,-210.01 698.56,-206.54 698.59,-213.54"/>
<text text-anchor="middle" x="81" y="-1162.29" font-family="Times,serif" font-size="14.00">2</text>
</g>
<!-- 29&#45;&gt;19 -->
<g id="edge63" class="edge">
<title>29&#45;&gt;19</title>
<path fill="none" stroke="black" d="M2626.39,-2109.1C2672.29,-2101.13 2762,-2077.56 2762,-2014.98 2762,-2014.98 2762,-2014.98 2762,-1356.48 2762,-1233.55 2754,-1202.93 2754,-1079.99 2754,-1079.99 2754,-1079.99 2754,-903.99 2754,-653.01 2371.3,-542.23 2250.84,-513.58"/>
<polygon fill="black" stroke="black" points="2251.53,-510.14 2241,-511.28 2249.94,-516.96 2251.53,-510.14"/>
<text text-anchor="middle" x="2767" y="-1310.28" font-family="Times,serif" font-size="14.00">3</text>
</g>
<!-- 29&#45;&gt;23 -->
<g id="edge5" class="edge">
<title>29&#45;&gt;23</title>
<path fill="none" stroke="black" d="M2625.17,-2104.32C2659.29,-2091.13 2716,-2062.12 2716,-2014.98 2716,-2014.98 2716,-2014.98 2716,-903.99 2716,-826.39 2746,-809.59 2746,-731.99 2746,-731.99 2746,-731.99 2746,-555.99 2746,-439.31 2681.54,-425.1 2626,-322.5 2610,-292.95 2594,-287.6 2594,-254 2594,-254 2594,-254 2594,-121.5 2594,-75.02 1064.29,-35.07 805.86,-28.65"/>
<polygon fill="black" stroke="black" points="805.94,-25.15 795.86,-28.4 805.77,-32.15 805.94,-25.15"/>
<text text-anchor="middle" x="2721" y="-1075.29" font-family="Times,serif" font-size="14.00">4</text>
</g>
<!-- 29&#45;&gt;26 -->
<g id="edge139" class="edge">
<title>29&#45;&gt;26</title>
<path fill="none" stroke="black" d="M2573.03,-2112.83C2327.7,-2113.63 486.03,-2117.97 247,-2068.98 184.5,-2056.18 114,-2078.78 114,-2014.98 114,-2014.98 114,-2014.98 114,-1704.48 114,-1504.55 236,-1471.42 236,-1271.48 236,-1271.48 236,-1271.48 236,-990.99 236,-783.4 563.03,-711.96 673.81,-693.72"/>
<polygon fill="black" stroke="black" points="674.52,-697.15 683.84,-692.11 673.41,-690.24 674.52,-697.15"/>
<text text-anchor="middle" x="226" y="-1397.28" font-family="Times,serif" font-size="14.00">1</text>
</g>
</g>
</svg>
