<?xml version="1.0" encoding="UTF-8" standalone="no"?>
<!DOCTYPE svg PUBLIC "-//W3C//DTD SVG 1.1//EN"
 "http://www.w3.org/Graphics/SVG/1.1/DTD/svg11.dtd">
<!-- Generated by graphviz version 13.0.1 (20250616.1512)
 -->
<!-- Pages: 1 -->
<svg width="2417pt" height="2591pt"
 viewBox="0.00 0.00 2417.00 2591.00" xmlns="http://www.w3.org/2000/svg" xmlns:xlink="http://www.w3.org/1999/xlink">
<g id="graph0" class="graph" transform="scale(1 1) rotate(0) translate(4 2587.4)">
<polygon fill="white" stroke="none" points="-4,4 -4,-2587.4 2413,-2587.4 2413,4 -4,4"/>
<!-- fake -->
<g id="node1" class="node">
<title>fake</title>
</g>
<!-- 29 -->
<g id="node31" class="node">
<title>29</title>
<ellipse fill="none" stroke="black" cx="1965" cy="-2492.4" rx="27" ry="18"/>
<text xml:space="preserve" text-anchor="middle" x="1965" y="-2487.73" font-family="Times,serif" font-size="14.00">29</text>
</g>
<!-- fake&#45;&gt;29 -->
<g id="edge1" class="edge">
<title>fake&#45;&gt;29</title>
<path fill="none" stroke="black" stroke-width="2" d="M1965,-2547.22C1965,-2539.63 1965,-2530.51 1965,-2521.94"/>
<polygon fill="black" stroke="black" stroke-width="2" points="1968.5,-2523.46 1965,-2513.46 1961.5,-2523.46 1968.5,-2523.46"/>
</g>
<!-- 0 -->
<g id="node2" class="node">
<title>0</title>
<ellipse fill="none" stroke="black" cx="1497" cy="-2216.65" rx="27" ry="18"/>
<text xml:space="preserve" text-anchor="middle" x="1497" y="-2211.98" font-family="Times,serif" font-size="14.00">0</text>
</g>
<!-- 3 -->
<g id="node5" class="node">
<title>3</title>
<ellipse fill="none" stroke="black" cx="1326" cy="-2127.4" rx="27" ry="18"/>
<text xml:space="preserve" text-anchor="middle" x="1326" y="-2122.73" font-family="Times,serif" font-size="14.00">3</text>
</g>
<!-- 0&#45;&gt;3 -->
<g id="edge123" class="edge">
<title>0&#45;&gt;3</title>
<path fill="none" stroke="black" d="M1471.3,-2210.86C1447.76,-2205.73 1412.5,-2196.17 1385,-2180.65 1377.23,-2176.27 1362.06,-2162.79 1349.05,-2150.62"/>
<polygon fill="black" stroke="black" points="1351.68,-2148.29 1342.01,-2143.96 1346.87,-2153.38 1351.68,-2148.29"/>
<text xml:space="preserve" text-anchor="middle" x="1389.5" y="-2167.35" font-family="Times,serif" font-size="14.00">3</text>
</g>
<!-- 4 -->
<g id="node6" class="node">
<title>4</title>
<ellipse fill="none" stroke="black" cx="1245" cy="-2399.15" rx="18" ry="18"/>
<ellipse fill="none" stroke="black" cx="1245" cy="-2399.15" rx="22" ry="22"/>
<text xml:space="preserve" text-anchor="middle" x="1245" y="-2394.48" font-family="Times,serif" font-size="14.00">4</text>
</g>
<!-- 0&#45;&gt;4 -->
<g id="edge111" class="edge">
<title>0&#45;&gt;4</title>
<path fill="none" stroke="black" d="M1478.96,-2230.57C1435.27,-2261.87 1323.56,-2341.88 1271.92,-2378.87"/>
<polygon fill="black" stroke="black" points="1270.04,-2375.91 1263.95,-2384.58 1274.12,-2381.6 1270.04,-2375.91"/>
<text xml:space="preserve" text-anchor="middle" x="1400.55" y="-2301.23" font-family="Times,serif" font-size="14.00">0</text>
</g>
<!-- 8 -->
<g id="node10" class="node">
<title>8</title>
<ellipse fill="none" stroke="black" cx="787" cy="-860.65" rx="27" ry="18"/>
<text xml:space="preserve" text-anchor="middle" x="787" y="-855.98" font-family="Times,serif" font-size="14.00">8</text>
</g>
<!-- 0&#45;&gt;8 -->
<g id="edge91" class="edge">
<title>0&#45;&gt;8</title>
<path fill="none" stroke="black" d="M1470.26,-2212.68C1375.33,-2201.61 1056.26,-2159.86 984,-2091.4 944.73,-2054.2 949,-2028.92 949,-1974.83 949,-1974.83 949,-1974.83 949,-1819.25 949,-1803.51 861.36,-1566.19 858,-1550.8 803.05,-1298.88 790.34,-985.62 787.66,-890.4"/>
<polygon fill="black" stroke="black" points="791.16,-890.34 787.4,-880.44 784.16,-890.53 791.16,-890.34"/>
<text xml:space="preserve" text-anchor="middle" x="862.5" y="-1518.28" font-family="Times,serif" font-size="14.00">2</text>
</g>
<!-- 22 -->
<g id="node24" class="node">
<title>22</title>
<ellipse fill="none" stroke="black" cx="1034" cy="-771.4" rx="27" ry="18"/>
<text xml:space="preserve" text-anchor="middle" x="1034" y="-766.73" font-family="Times,serif" font-size="14.00">22</text>
</g>
<!-- 0&#45;&gt;22 -->
<g id="edge51" class="edge">
<title>0&#45;&gt;22</title>
<path fill="none" stroke="black" d="M1494.25,-2198.34C1483.17,-2133.64 1436.23,-1902.86 1312,-1767 1217.93,-1664.13 1169.37,-1665 1044,-1604.05 1023.51,-1594.09 1012.7,-1601.55 996,-1586.05 954.14,-1547.22 942,-1526.58 942,-1469.48 942,-1469.48 942,-1469.48 942,-1191.73 942,-1040.91 999.48,-866.53 1023.57,-800.06"/>
<polygon fill="black" stroke="black" points="1026.85,-801.3 1027.01,-790.7 1020.28,-798.88 1026.85,-801.3"/>
<text xml:space="preserve" text-anchor="middle" x="946.58" y="-1463.8" font-family="Times,serif" font-size="14.00">4</text>
</g>
<!-- 26 -->
<g id="node28" class="node">
<title>26</title>
<ellipse fill="none" stroke="black" cx="1286" cy="-1622.05" rx="27" ry="18"/>
<text xml:space="preserve" text-anchor="middle" x="1286" y="-1617.38" font-family="Times,serif" font-size="14.00">26</text>
</g>
<!-- 0&#45;&gt;26 -->
<g id="edge150" class="edge">
<title>0&#45;&gt;26</title>
<path fill="none" stroke="black" d="M1502.91,-2198.84C1508.49,-2181.44 1516,-2153.36 1516,-2128.4 1516,-2128.4 1516,-2128.4 1516,-1972.83 1516,-1971.61 1362.87,-1658.9 1362,-1658.05 1350.77,-1647.08 1335.47,-1639.13 1321.54,-1633.61"/>
<polygon fill="black" stroke="black" points="1322.79,-1630.34 1312.19,-1630.21 1320.39,-1636.92 1322.79,-1630.34"/>
<text xml:space="preserve" text-anchor="middle" x="1507.4" y="-1914.68" font-family="Times,serif" font-size="14.00">1</text>
</g>
<!-- 1 -->
<g id="node3" class="node">
<title>1</title>
<ellipse fill="none" stroke="black" cx="1709" cy="-1330.6" rx="18" ry="18"/>
<ellipse fill="none" stroke="black" cx="1709" cy="-1330.6" rx="22" ry="22"/>
<text xml:space="preserve" text-anchor="middle" x="1709" y="-1325.93" font-family="Times,serif" font-size="14.00">1</text>
</g>
<!-- 1&#45;&gt;0 -->
<g id="edge138" class="edge">
<title>1&#45;&gt;0</title>
<path fill="none" stroke="black" d="M1717.5,-1351.13C1734.49,-1391.12 1772.49,-1485.55 1790,-1568.8 1813.91,-1682.49 1840.84,-1994.35 1777,-2091.4 1734.37,-2156.21 1698.46,-2150.45 1627,-2180.65 1596.62,-2193.49 1560.23,-2202.81 1533.69,-2208.59"/>
<polygon fill="black" stroke="black" points="1533.15,-2205.13 1524.08,-2210.61 1534.59,-2211.98 1533.15,-2205.13"/>
<text xml:space="preserve" text-anchor="middle" x="1819.16" y="-1770.95" font-family="Times,serif" font-size="14.00">1</text>
</g>
<!-- 11 -->
<g id="node13" class="node">
<title>11</title>
<ellipse fill="none" stroke="black" cx="1677" cy="-384.85" rx="23.85" ry="23.85"/>
<ellipse fill="none" stroke="black" cx="1677" cy="-384.85" rx="27.85" ry="27.85"/>
<text xml:space="preserve" text-anchor="middle" x="1677" y="-380.18" font-family="Times,serif" font-size="14.00">11</text>
</g>
<!-- 1&#45;&gt;11 -->
<g id="edge133" class="edge">
<title>1&#45;&gt;11</title>
<path fill="none" stroke="black" d="M1724.01,-1313.93C1746.82,-1288.2 1786.62,-1234.78 1777,-1184.1 1765.69,-1124.52 1740.2,-1116.34 1727,-1057.15 1666.26,-784.85 1726.36,-706.9 1687,-430.7 1686.67,-428.36 1686.27,-425.95 1685.84,-423.53"/>
<polygon fill="black" stroke="black" points="1689.29,-422.9 1683.91,-413.77 1682.42,-424.26 1689.29,-422.9"/>
<text xml:space="preserve" text-anchor="middle" x="1704.81" y="-855.98" font-family="Times,serif" font-size="14.00">2</text>
</g>
<!-- 14 -->
<g id="node16" class="node">
<title>14</title>
<ellipse fill="none" stroke="black" cx="575" cy="-18" rx="27" ry="18"/>
<text xml:space="preserve" text-anchor="middle" x="575" y="-13.32" font-family="Times,serif" font-size="14.00">14</text>
</g>
<!-- 1&#45;&gt;14 -->
<g id="edge68" class="edge">
<title>1&#45;&gt;14</title>
<path fill="none" stroke="black" d="M1688.13,-1322.23C1621.88,-1297.48 1416.81,-1210.26 1350,-1057.15 1275.59,-886.62 1350,-824.58 1350,-638.53 1350,-638.53 1350,-638.53 1350,-383.85 1350,-316.55 1395.83,-286.01 1355,-232.5 1261.6,-110.1 755.68,-40.71 612.67,-23.35"/>
<polygon fill="black" stroke="black" points="613.34,-19.91 602.99,-22.19 612.5,-26.86 613.34,-19.91"/>
<text xml:space="preserve" text-anchor="middle" x="1354" y="-677.48" font-family="Times,serif" font-size="14.00">3</text>
</g>
<!-- 20 -->
<g id="node22" class="node">
<title>20</title>
<ellipse fill="none" stroke="black" cx="1685" cy="-1237.35" rx="27" ry="18"/>
<text xml:space="preserve" text-anchor="middle" x="1685" y="-1232.68" font-family="Times,serif" font-size="14.00">20</text>
</g>
<!-- 1&#45;&gt;20 -->
<g id="edge67" class="edge">
<title>1&#45;&gt;20</title>
<path fill="none" stroke="black" d="M1698.77,-1310.62C1695.82,-1304.4 1692.89,-1297.35 1691,-1290.6 1688.87,-1283.01 1687.5,-1274.6 1686.61,-1266.78"/>
<polygon fill="black" stroke="black" points="1690.12,-1266.71 1685.74,-1257.07 1683.14,-1267.34 1690.12,-1266.71"/>
<text xml:space="preserve" text-anchor="middle" x="1695.5" y="-1277.3" font-family="Times,serif" font-size="14.00">0</text>
</g>
<!-- 1&#45;&gt;20 -->
<g id="edge122" class="edge">
<title>1&#45;&gt;20</title>
<path fill="none" stroke="black" d="M1706.84,-1308.23C1705.45,-1297.61 1703.27,-1284.66 1700,-1273.35 1699.24,-1270.73 1698.33,-1268.04 1697.35,-1265.37"/>
<polygon fill="black" stroke="black" points="1700.62,-1264.12 1693.6,-1256.18 1694.14,-1266.76 1700.62,-1264.12"/>
<text xml:space="preserve" text-anchor="middle" x="1708.44" y="-1277.3" font-family="Times,serif" font-size="14.00">4</text>
</g>
<!-- 2 -->
<g id="node4" class="node">
<title>2</title>
<ellipse fill="none" stroke="black" cx="873" cy="-2305.9" rx="27" ry="18"/>
<text xml:space="preserve" text-anchor="middle" x="873" y="-2301.23" font-family="Times,serif" font-size="14.00">2</text>
</g>
<!-- 2&#45;&gt;0 -->
<g id="edge146" class="edge">
<title>2&#45;&gt;0</title>
<path fill="none" stroke="black" d="M899.41,-2301.21C997.88,-2287.44 1343.82,-2239.07 1459.22,-2222.94"/>
<polygon fill="black" stroke="black" points="1459.66,-2226.41 1469.08,-2221.56 1458.69,-2219.48 1459.66,-2226.41"/>
<text xml:space="preserve" text-anchor="middle" x="1245.39" y="-2256.6" font-family="Times,serif" font-size="14.00">1</text>
</g>
<!-- 2&#45;&gt;2 -->
<g id="edge96" class="edge">
<title>2&#45;&gt;2</title>
<path fill="none" stroke="black" d="M897.53,-2314.14C908.51,-2314.93 918,-2312.18 918,-2305.9 918,-2301.98 914.29,-2299.44 908.83,-2298.27"/>
<polygon fill="black" stroke="black" points="909.22,-2294.79 899.04,-2297.75 908.84,-2301.78 909.22,-2294.79"/>
<text xml:space="preserve" text-anchor="middle" x="922.5" y="-2301.23" font-family="Times,serif" font-size="14.00">3</text>
</g>
<!-- 7 -->
<g id="node9" class="node">
<title>7</title>
<ellipse fill="none" stroke="black" cx="1469" cy="-949.9" rx="27" ry="18"/>
<text xml:space="preserve" text-anchor="middle" x="1469" y="-945.23" font-family="Times,serif" font-size="14.00">7</text>
</g>
<!-- 2&#45;&gt;7 -->
<g id="edge4" class="edge">
<title>2&#45;&gt;7</title>
<path fill="none" stroke="black" d="M861.6,-2289.39C850.41,-2272.59 835,-2244.59 835,-2217.65 835,-2217.65 835,-2217.65 835,-2081.78 835,-1987.3 1372.71,-1688.62 1380,-1675.3 1482.85,-1487.34 1402,-1407.98 1402,-1193.73 1402,-1193.73 1402,-1193.73 1402,-1038.15 1402,-1010.58 1423.31,-986.35 1441.89,-970.47"/>
<polygon fill="black" stroke="black" points="1443.93,-973.32 1449.51,-964.32 1439.54,-967.88 1443.93,-973.32"/>
<text xml:space="preserve" text-anchor="middle" x="1416.78" y="-1617.38" font-family="Times,serif" font-size="14.00">0</text>
</g>
<!-- 2&#45;&gt;8 -->
<g id="edge21" class="edge">
<title>2&#45;&gt;8</title>
<path fill="none" stroke="black" d="M850,-2295.78C821.89,-2282.92 778,-2256.62 778,-2217.65 778,-2217.65 778,-2217.65 778,-1665.68 778,-1612.43 753.36,-1603.22 744,-1550.8 715.35,-1390.3 713.85,-1345.89 734,-1184.1 747.62,-1074.75 771.09,-945.69 781.61,-889.8"/>
<polygon fill="black" stroke="black" points="785.01,-890.68 783.43,-880.2 778.13,-889.37 785.01,-890.68"/>
<text xml:space="preserve" text-anchor="middle" x="758.82" y="-1572.75" font-family="Times,serif" font-size="14.00">2</text>
</g>
<!-- 2&#45;&gt;11 -->
<g id="edge85" class="edge">
<title>2&#45;&gt;11</title>
<path fill="none" stroke="black" d="M900.12,-2303.79C1036.5,-2297.67 1646.3,-2263.92 1785,-2145.4 1854.55,-2085.97 1968,-1868.11 1968,-1776.63 1968,-1776.63 1968,-1776.63 1968,-1576.43 1968,-1415.92 1946.89,-1376.45 1914,-1219.35 1876.82,-1041.72 1770.25,-598.86 1702,-430.7 1700.43,-426.84 1698.6,-422.89 1696.66,-419.02"/>
<polygon fill="black" stroke="black" points="1699.86,-417.57 1692.07,-410.39 1693.68,-420.86 1699.86,-417.57"/>
<text xml:space="preserve" text-anchor="middle" x="1948.51" y="-1325.93" font-family="Times,serif" font-size="14.00">4</text>
</g>
<!-- 3&#45;&gt;0 -->
<g id="edge128" class="edge">
<title>3&#45;&gt;0</title>
<path fill="none" stroke="black" d="M1347.95,-2138.54C1361.53,-2145.09 1379.15,-2154.1 1394,-2163.4 1404.83,-2170.19 1405.96,-2174.22 1417,-2180.65 1431.51,-2189.11 1448.44,-2196.81 1462.98,-2202.81"/>
<polygon fill="black" stroke="black" points="1461.56,-2206.01 1472.15,-2206.49 1464.17,-2199.52 1461.56,-2206.01"/>
<text xml:space="preserve" text-anchor="middle" x="1421.5" y="-2167.35" font-family="Times,serif" font-size="14.00">1</text>
</g>
<!-- 3&#45;&gt;1 -->
<g id="edge95" class="edge">
<title>3&#45;&gt;1</title>
<path fill="none" stroke="black" d="M1343.87,-2113.38C1380.3,-2086.07 1464.11,-2019.36 1516,-1947.2 1546.59,-1904.67 1545.85,-1888.41 1561,-1838.25 1615.3,-1658.49 1677.5,-1441.88 1700.16,-1362.59"/>
<polygon fill="black" stroke="black" points="1703.41,-1363.95 1702.8,-1353.37 1696.68,-1362.02 1703.41,-1363.95"/>
<text xml:space="preserve" text-anchor="middle" x="1608.19" y="-1716.48" font-family="Times,serif" font-size="14.00">2</text>
</g>
<!-- 9 -->
<g id="node11" class="node">
<title>9</title>
<ellipse fill="none" stroke="black" cx="549" cy="-1423.85" rx="27" ry="18"/>
<text xml:space="preserve" text-anchor="middle" x="549" y="-1419.18" font-family="Times,serif" font-size="14.00">9</text>
</g>
<!-- 3&#45;&gt;9 -->
<g id="edge3" class="edge">
<title>3&#45;&gt;9</title>
<path fill="none" stroke="black" d="M1299.03,-2124.02C1225,-2117.39 1023.33,-2098.76 1011,-2091.4 876.13,-2010.98 625.55,-1564.67 563.28,-1451.13"/>
<polygon fill="black" stroke="black" points="566.45,-1449.63 558.58,-1442.54 560.31,-1452.99 566.45,-1449.63"/>
<text xml:space="preserve" text-anchor="middle" x="763.04" y="-1770.95" font-family="Times,serif" font-size="14.00">3</text>
</g>
<!-- 17 -->
<g id="node19" class="node">
<title>17</title>
<ellipse fill="none" stroke="black" cx="1681" cy="-2028.3" rx="23.85" ry="23.85"/>
<ellipse fill="none" stroke="black" cx="1681" cy="-2028.3" rx="27.85" ry="27.85"/>
<text xml:space="preserve" text-anchor="middle" x="1681" y="-2023.63" font-family="Times,serif" font-size="14.00">17</text>
</g>
<!-- 3&#45;&gt;17 -->
<g id="edge135" class="edge">
<title>3&#45;&gt;17</title>
<path fill="none" stroke="black" d="M1350.68,-2119.65C1411.73,-2102.96 1570.12,-2059.63 1643.13,-2039.66"/>
<polygon fill="black" stroke="black" points="1643.9,-2043.08 1652.62,-2037.07 1642.05,-2036.33 1643.9,-2043.08"/>
<text xml:space="preserve" text-anchor="middle" x="1518.64" y="-2078.1" font-family="Times,serif" font-size="14.00">0</text>
</g>
<!-- 3&#45;&gt;29 -->
<g id="edge108" class="edge">
<title>3&#45;&gt;29</title>
<path fill="none" stroke="black" d="M1334,-2145.04C1339.98,-2156.16 1349,-2170.56 1360,-2180.65 1397.51,-2215.07 1415.88,-2211.1 1461,-2234.65 1639.29,-2327.72 1854.88,-2436.2 1933.98,-2475.87"/>
<polygon fill="black" stroke="black" points="1931.94,-2478.76 1942.44,-2480.11 1935.07,-2472.5 1931.94,-2478.76"/>
<text xml:space="preserve" text-anchor="middle" x="1636.23" y="-2301.23" font-family="Times,serif" font-size="14.00">4</text>
</g>
<!-- 4&#45;&gt;2 -->
<g id="edge90" class="edge">
<title>4&#45;&gt;2</title>
<path fill="none" stroke="black" d="M1223.66,-2392.92C1162.43,-2377.9 985.62,-2334.53 909.06,-2315.75"/>
<polygon fill="black" stroke="black" points="910.1,-2312.4 899.56,-2313.42 908.44,-2319.2 910.1,-2312.4"/>
<text xml:space="preserve" text-anchor="middle" x="1085.77" y="-2345.85" font-family="Times,serif" font-size="14.00">3</text>
</g>
<!-- 10 -->
<g id="node12" class="node">
<title>10</title>
<ellipse fill="none" stroke="black" cx="657" cy="-1820.25" rx="27" ry="18"/>
<text xml:space="preserve" text-anchor="middle" x="657" y="-1815.58" font-family="Times,serif" font-size="14.00">10</text>
</g>
<!-- 4&#45;&gt;10 -->
<g id="edge38" class="edge">
<title>4&#45;&gt;10</title>
<path fill="none" stroke="black" d="M1222.67,-2397.09C1115.26,-2391.7 657,-2365.27 657,-2306.9 657,-2306.9 657,-2306.9 657,-1918.35 657,-1895.29 657,-1869.14 657,-1849.8"/>
<polygon fill="black" stroke="black" points="660.5,-1849.96 657,-1839.96 653.5,-1849.96 660.5,-1849.96"/>
<text xml:space="preserve" text-anchor="middle" x="661.5" y="-2122.73" font-family="Times,serif" font-size="14.00">1</text>
</g>
<!-- 19 -->
<g id="node21" class="node">
<title>19</title>
<ellipse fill="none" stroke="black" cx="994" cy="-384.85" rx="27" ry="18"/>
<text xml:space="preserve" text-anchor="middle" x="994" y="-380.18" font-family="Times,serif" font-size="14.00">19</text>
</g>
<!-- 4&#45;&gt;19 -->
<g id="edge110" class="edge">
<title>4&#45;&gt;19</title>
<path fill="none" stroke="black" d="M1267.2,-2397.81C1382.04,-2395.94 1906.12,-2385.99 1973,-2359.15 2079.38,-2316.48 2317,-2089.45 2317,-1974.83 2317,-1974.83 2317,-1974.83 2317,-1378.23 2317,-1316.88 2282.09,-1162.69 2250,-1110.4 2237.78,-1090.49 2229.34,-1089.62 2211,-1075.15 2142.15,-1020.84 1642.16,-659.56 1560,-628.9 1493.78,-604.19 1468.59,-634.59 1402,-610.9 1289.58,-570.9 1281.15,-522.37 1176,-465.95 1125.75,-438.99 1064.57,-413.47 1027.48,-398.76"/>
<polygon fill="black" stroke="black" points="1029.24,-395.69 1018.65,-395.28 1026.67,-402.2 1029.24,-395.69"/>
<text xml:space="preserve" text-anchor="middle" x="2321.5" y="-1374.55" font-family="Times,serif" font-size="14.00">0</text>
</g>
<!-- 24 -->
<g id="node26" class="node">
<title>24</title>
<ellipse fill="none" stroke="black" cx="2024" cy="-1138.25" rx="23.85" ry="23.85"/>
<ellipse fill="none" stroke="black" cx="2024" cy="-1138.25" rx="27.85" ry="27.85"/>
<text xml:space="preserve" text-anchor="middle" x="2024" y="-1133.58" font-family="Times,serif" font-size="14.00">24</text>
</g>
<!-- 4&#45;&gt;24 -->
<g id="edge139" class="edge">
<title>4&#45;&gt;24</title>
<path fill="none" stroke="black" d="M1267.3,-2397.63C1361.19,-2395.28 1724.62,-2384.7 1836,-2359.15 1901.8,-2344.06 1953,-2329.79 1953,-2262.28 1953,-2262.28 1953,-2262.28 1953,-2081.78 1953,-1940.25 2044,-1918.15 2044,-1776.63 2044,-1776.63 2044,-1776.63 2044,-1576.43 2044,-1489.17 2051,-1467.48 2051,-1380.23 2051,-1380.23 2051,-1380.23 2051,-1236.35 2051,-1215.49 2045.14,-1192.99 2038.88,-1174.91"/>
<polygon fill="black" stroke="black" points="2042.23,-1173.88 2035.5,-1165.7 2035.66,-1176.29 2042.23,-1173.88"/>
<text xml:space="preserve" text-anchor="middle" x="2048.5" y="-1770.95" font-family="Times,serif" font-size="14.00">4</text>
</g>
<!-- 27 -->
<g id="node29" class="node">
<title>27</title>
<ellipse fill="none" stroke="black" cx="2105" cy="-1919.35" rx="23.85" ry="23.85"/>
<ellipse fill="none" stroke="black" cx="2105" cy="-1919.35" rx="27.85" ry="27.85"/>
<text xml:space="preserve" text-anchor="middle" x="2105" y="-1914.68" font-family="Times,serif" font-size="14.00">27</text>
</g>
<!-- 4&#45;&gt;27 -->
<g id="edge116" class="edge">
<title>4&#45;&gt;27</title>
<path fill="none" stroke="black" d="M1267.31,-2398.36C1381.52,-2399.23 1897.6,-2400.81 1954,-2359.15 1967.43,-2349.23 1961.94,-2339.82 1967,-2323.9 2001.81,-2214.38 1994.88,-2182.22 2034,-2074.15 2049.27,-2031.98 2071.54,-1985.47 2087.06,-1954.75"/>
<polygon fill="black" stroke="black" points="2090.13,-1956.43 2091.55,-1945.93 2083.9,-1953.25 2090.13,-1956.43"/>
<text xml:space="preserve" text-anchor="middle" x="2011.22" y="-2167.35" font-family="Times,serif" font-size="14.00">2</text>
</g>
<!-- 5 -->
<g id="node7" class="node">
<title>5</title>
<ellipse fill="none" stroke="black" cx="1237" cy="-285.75" rx="27" ry="18"/>
<text xml:space="preserve" text-anchor="middle" x="1237" y="-281.07" font-family="Times,serif" font-size="14.00">5</text>
</g>
<!-- 5&#45;&gt;0 -->
<g id="edge52" class="edge">
<title>5&#45;&gt;0</title>
<path fill="none" stroke="black" d="M1262.72,-291.5C1317.07,-301.43 1447.7,-324.61 1558,-339 1598.52,-344.29 1708.54,-332.18 1741,-357 1781.97,-388.34 1766.34,-416.5 1781,-465.95 1823.15,-608.14 1826.37,-645.69 1863,-789.4 1870.96,-820.63 1881,-827.42 1881,-859.65 1881,-995.53 1881,-995.53 1881,-995.53 1881,-1254.62 1930,-1317.33 1930,-1576.43 1930,-1776.63 1930,-1776.63 1930,-1776.63 1930,-1824.66 1828.03,-2039.72 1796,-2091.4 1780.27,-2116.79 1779.78,-2127.34 1756,-2145.4 1720.99,-2172 1596.8,-2197.57 1533.98,-2209.16"/>
<polygon fill="black" stroke="black" points="1533.7,-2205.66 1524.49,-2210.89 1534.95,-2212.54 1533.7,-2205.66"/>
<text xml:space="preserve" text-anchor="middle" x="1905.32" y="-1232.68" font-family="Times,serif" font-size="14.00">1</text>
</g>
<!-- 5&#45;&gt;4 -->
<g id="edge106" class="edge">
<title>5&#45;&gt;4</title>
<path fill="none" stroke="black" d="M1209.62,-286.11C1121.98,-284.86 841.43,-286.95 624,-357 436.67,-417.35 378.05,-481.39 305,-664.15 263.25,-768.6 283.34,-803.09 264,-913.9 173.84,-1430.4 124.97,-1393.14 163,-1550.8 167.17,-1568.1 228.26,-1677.28 236,-1693.3 316,-1858.98 379,-1897.8 379,-2081.78 379,-2306.9 379,-2306.9 379,-2306.9 379,-2340.3 402.35,-2345.89 433,-2359.15 505.2,-2390.4 1067.67,-2396.8 1211.56,-2397.94"/>
<polygon fill="black" stroke="black" points="1211.15,-2401.43 1221.17,-2398.01 1211.2,-2394.43 1211.15,-2401.43"/>
<text xml:space="preserve" text-anchor="middle" x="184.86" y="-1325.93" font-family="Times,serif" font-size="14.00">0</text>
</g>
<!-- 5&#45;&gt;22 -->
<g id="edge70" class="edge">
<title>5&#45;&gt;22</title>
<path fill="none" stroke="black" d="M1229.94,-303.58C1199.9,-375.14 1082.63,-654.53 1045.41,-743.22"/>
<polygon fill="black" stroke="black" points="1042.22,-741.78 1041.57,-752.36 1048.67,-744.49 1042.22,-741.78"/>
<text xml:space="preserve" text-anchor="middle" x="1134.2" y="-543.6" font-family="Times,serif" font-size="14.00">3</text>
</g>
<!-- 25 -->
<g id="node27" class="node">
<title>25</title>
<ellipse fill="none" stroke="black" cx="1174" cy="-1522.95" rx="23.85" ry="23.85"/>
<ellipse fill="none" stroke="black" cx="1174" cy="-1522.95" rx="27.85" ry="27.85"/>
<text xml:space="preserve" text-anchor="middle" x="1174" y="-1518.28" font-family="Times,serif" font-size="14.00">25</text>
</g>
<!-- 5&#45;&gt;25 -->
<g id="edge10" class="edge">
<title>5&#45;&gt;25</title>
<path fill="none" stroke="black" d="M1235.28,-303.81C1228.76,-369.08 1205.17,-609.18 1191,-807.4 1178.8,-978.03 1170,-1020.66 1170,-1191.73 1170,-1424.85 1170,-1424.85 1170,-1424.85 1170,-1444.14 1170.8,-1465.56 1171.68,-1483.36"/>
<polygon fill="black" stroke="black" points="1168.18,-1483.45 1172.2,-1493.25 1175.17,-1483.08 1168.18,-1483.45"/>
<text xml:space="preserve" text-anchor="middle" x="1188.55" y="-900.6" font-family="Times,serif" font-size="14.00">4</text>
</g>
<!-- 5&#45;&gt;29 -->
<g id="edge48" class="edge">
<title>5&#45;&gt;29</title>
<path fill="none" stroke="black" d="M1263.75,-290.03C1313.2,-296.11 1422.22,-309.62 1514,-321.75 1569.6,-329.1 1583.44,-331.38 1639,-339 1697.66,-347.05 1718.22,-330.17 1771,-357 1850.46,-397.39 1981.18,-588.3 2049,-646.15 2144.54,-727.64 2206.3,-706.47 2281,-807.4 2387.37,-951.13 2400,-1012.91 2400,-1191.73 2400,-2400.15 2400,-2400.15 2400,-2400.15 2400,-2480.77 2110.21,-2490.58 2003.68,-2491.46"/>
<polygon fill="black" stroke="black" points="2003.7,-2487.96 1993.72,-2491.52 2003.74,-2494.96 2003.7,-2487.96"/>
<text xml:space="preserve" text-anchor="middle" x="2404.5" y="-1374.55" font-family="Times,serif" font-size="14.00">2</text>
</g>
<!-- 6 -->
<g id="node8" class="node">
<title>6</title>
<ellipse fill="none" stroke="black" cx="970" cy="-682.15" rx="27" ry="18"/>
<text xml:space="preserve" text-anchor="middle" x="970" y="-677.48" font-family="Times,serif" font-size="14.00">6</text>
</g>
<!-- 6&#45;&gt;1 -->
<g id="edge69" class="edge">
<title>6&#45;&gt;1</title>
<path fill="none" stroke="black" d="M994.68,-690.17C1088.74,-717.07 1421.42,-813.46 1461,-842.65 1523.7,-888.88 1533,-913.6 1562,-985.9 1598.14,-1076.01 1553.02,-1115.32 1598,-1201.35 1620.21,-1243.84 1659.06,-1284.15 1684.41,-1307.88"/>
<polygon fill="black" stroke="black" points="1681.92,-1310.34 1691.65,-1314.53 1686.65,-1305.19 1681.92,-1310.34"/>
<text xml:space="preserve" text-anchor="middle" x="1572.6" y="-989.85" font-family="Times,serif" font-size="14.00">4</text>
</g>
<!-- 12 -->
<g id="node14" class="node">
<title>12</title>
<ellipse fill="none" stroke="black" cx="531" cy="-107.25" rx="27" ry="18"/>
<text xml:space="preserve" text-anchor="middle" x="531" y="-102.58" font-family="Times,serif" font-size="14.00">12</text>
</g>
<!-- 6&#45;&gt;12 -->
<g id="edge2" class="edge">
<title>6&#45;&gt;12</title>
<path fill="none" stroke="black" d="M943.12,-679.64C894.06,-676.4 792.49,-667.27 765,-646.15 632.23,-544.17 672.24,-458.35 608,-303.75 578.78,-233.43 578,-213.25 548,-143.25 546.86,-140.59 545.62,-137.84 544.36,-135.1"/>
<polygon fill="black" stroke="black" points="547.58,-133.72 540.11,-126.2 541.26,-136.73 547.58,-133.72"/>
<text xml:space="preserve" text-anchor="middle" x="646.34" y="-380.18" font-family="Times,serif" font-size="14.00">1</text>
</g>
<!-- 16 -->
<g id="node18" class="node">
<title>16</title>
<ellipse fill="none" stroke="black" cx="1622" cy="-285.75" rx="27" ry="18"/>
<text xml:space="preserve" text-anchor="middle" x="1622" y="-281.07" font-family="Times,serif" font-size="14.00">16</text>
</g>
<!-- 6&#45;&gt;16 -->
<g id="edge49" class="edge">
<title>6&#45;&gt;16</title>
<path fill="none" stroke="black" d="M980.08,-665.18C994.39,-643.27 1022.17,-603.38 1052,-574.9 1206.37,-427.56 1259.81,-395.67 1460,-321.75 1501.29,-306.5 1551.07,-296.98 1584.46,-291.79"/>
<polygon fill="black" stroke="black" points="1584.68,-295.29 1594.05,-290.35 1583.64,-288.37 1584.68,-295.29"/>
<text xml:space="preserve" text-anchor="middle" x="1178.96" y="-489.13" font-family="Times,serif" font-size="14.00">2</text>
</g>
<!-- 6&#45;&gt;22 -->
<g id="edge26" class="edge">
<title>6&#45;&gt;22</title>
<path fill="none" stroke="black" d="M966.61,-700.36C965.42,-711.19 965.67,-725.02 972,-735.4 978.23,-745.61 988.6,-753.1 999.1,-758.47"/>
<polygon fill="black" stroke="black" points="997.56,-761.62 1008.11,-762.54 1000.43,-755.24 997.56,-761.62"/>
<text xml:space="preserve" text-anchor="middle" x="976.5" y="-722.1" font-family="Times,serif" font-size="14.00">0</text>
</g>
<!-- 23 -->
<g id="node25" class="node">
<title>23</title>
<ellipse fill="none" stroke="black" cx="433" cy="-592.9" rx="27" ry="18"/>
<text xml:space="preserve" text-anchor="middle" x="433" y="-588.23" font-family="Times,serif" font-size="14.00">23</text>
</g>
<!-- 6&#45;&gt;23 -->
<g id="edge12" class="edge">
<title>6&#45;&gt;23</title>
<path fill="none" stroke="black" d="M943.07,-678.52C892.78,-673.45 781.23,-661.46 688,-646.15 609.56,-633.27 518.53,-613.42 469.24,-602.26"/>
<polygon fill="black" stroke="black" points="470.22,-598.9 459.69,-600.09 468.66,-605.72 470.22,-598.9"/>
<text xml:space="preserve" text-anchor="middle" x="692.5" y="-632.85" font-family="Times,serif" font-size="14.00">3</text>
</g>
<!-- 7&#45;&gt;0 -->
<g id="edge136" class="edge">
<title>7&#45;&gt;0</title>
<path fill="none" stroke="black" d="M1472.42,-968.16C1484.14,-1028.23 1522.59,-1233.91 1535,-1405.85 1545.99,-1558.18 1543.52,-1598.6 1517,-1749 1505.71,-1813.02 1493.75,-1827.23 1484,-1891.5 1465.83,-2011.31 1468.45,-2042.31 1464,-2163.4 1463.72,-2171.07 1461.17,-2173.53 1464,-2180.65 1465.92,-2185.5 1468.87,-2190.07 1472.23,-2194.2"/>
<polygon fill="black" stroke="black" points="1469.58,-2196.48 1478.97,-2201.39 1474.69,-2191.7 1469.58,-2196.48"/>
<text xml:space="preserve" text-anchor="middle" x="1545" y="-1572.75" font-family="Times,serif" font-size="14.00">2</text>
</g>
<!-- 7&#45;&gt;3 -->
<g id="edge87" class="edge">
<title>7&#45;&gt;3</title>
<path fill="none" stroke="black" d="M1460.14,-967.09C1451.61,-984.22 1440,-1012.29 1440,-1038.15 1440,-1193.73 1440,-1193.73 1440,-1193.73 1440,-1319.53 1512,-1341.67 1512,-1467.48 1512,-1667.68 1512,-1667.68 1512,-1667.68 1512,-1759.38 1382.73,-2017 1339.73,-2100.16"/>
<polygon fill="black" stroke="black" points="1336.67,-2098.45 1335.17,-2108.94 1342.89,-2101.67 1336.67,-2098.45"/>
<text xml:space="preserve" text-anchor="middle" x="1516.5" y="-1518.28" font-family="Times,serif" font-size="14.00">4</text>
</g>
<!-- 7&#45;&gt;8 -->
<g id="edge37" class="edge">
<title>7&#45;&gt;8</title>
<path fill="none" stroke="black" d="M1442.42,-946.38C1386.91,-941.05 1254.63,-927.95 1144,-913.9 1027.29,-899.08 889.68,-877.88 824.65,-867.64"/>
<polygon fill="black" stroke="black" points="825.3,-864.2 814.87,-866.1 824.2,-871.12 825.3,-864.2"/>
<text xml:space="preserve" text-anchor="middle" x="1148.5" y="-900.6" font-family="Times,serif" font-size="14.00">3</text>
</g>
<!-- 7&#45;&gt;17 -->
<g id="edge8" class="edge">
<title>7&#45;&gt;17</title>
<path fill="none" stroke="black" d="M1479.63,-966.51C1487.14,-977.17 1497.66,-991.44 1508,-1003.15 1637.72,-1150.05 1749.19,-1128.31 1826,-1308.6 1932.23,-1557.93 1761.46,-1889.66 1700.97,-1994.26"/>
<polygon fill="black" stroke="black" points="1698.1,-1992.24 1696.07,-2002.64 1704.14,-1995.78 1698.1,-1992.24"/>
<text xml:space="preserve" text-anchor="middle" x="1864.43" y="-1463.8" font-family="Times,serif" font-size="14.00">0</text>
</g>
<!-- 18 -->
<g id="node20" class="node">
<title>18</title>
<ellipse fill="none" stroke="black" cx="1425" cy="-860.65" rx="27" ry="18"/>
<text xml:space="preserve" text-anchor="middle" x="1425" y="-855.98" font-family="Times,serif" font-size="14.00">18</text>
</g>
<!-- 7&#45;&gt;18 -->
<g id="edge43" class="edge">
<title>7&#45;&gt;18</title>
<path fill="none" stroke="black" d="M1460.72,-932.49C1454.39,-919.94 1445.54,-902.38 1438.23,-887.89"/>
<polygon fill="black" stroke="black" points="1441.55,-886.69 1433.92,-879.34 1435.3,-889.85 1441.55,-886.69"/>
<text xml:space="preserve" text-anchor="middle" x="1455.44" y="-900.6" font-family="Times,serif" font-size="14.00">1</text>
</g>
<!-- 8&#45;&gt;3 -->
<g id="edge61" class="edge">
<title>8&#45;&gt;3</title>
<path fill="none" stroke="black" d="M794.57,-878.1C796.95,-883.86 799.38,-890.45 801,-896.65 878.99,-1195.65 813.28,-1286.99 891,-1586.05 912.77,-1669.82 932.98,-1685.82 963,-1767 1015.85,-1909.93 956.43,-1994.46 1074,-2091.4 1090.19,-2104.76 1221.28,-2117.58 1287.71,-2123.29"/>
<polygon fill="black" stroke="black" points="1287.17,-2126.76 1297.43,-2124.12 1287.76,-2119.79 1287.17,-2126.76"/>
<text xml:space="preserve" text-anchor="middle" x="871.3" y="-1463.8" font-family="Times,serif" font-size="14.00">0</text>
</g>
<!-- 8&#45;&gt;9 -->
<g id="edge112" class="edge">
<title>8&#45;&gt;9</title>
<path fill="none" stroke="black" d="M764.69,-871.42C753.34,-877.34 740.06,-885.84 731,-896.65 665.24,-975.15 677.69,-1013.36 645,-1110.4 604.18,-1231.56 617.99,-1269.76 569,-1387.85 567.74,-1390.88 566.28,-1393.98 564.72,-1397.01"/>
<polygon fill="black" stroke="black" points="561.75,-1395.13 559.97,-1405.58 567.88,-1398.52 561.75,-1395.13"/>
<text xml:space="preserve" text-anchor="middle" x="649.5" y="-1133.58" font-family="Times,serif" font-size="14.00">1</text>
</g>
<!-- 8&#45;&gt;14 -->
<g id="edge29" class="edge">
<title>8&#45;&gt;14</title>
<path fill="none" stroke="black" d="M760.68,-856.04C736.28,-851.71 699.82,-842.65 673,-824.65 516.86,-719.85 496,-628.38 496,-440.33 496,-440.33 496,-440.33 496,-240.12 496,-180.1 548.44,-182.33 567,-125.25 575.21,-99.99 576.73,-69.63 576.48,-47.85"/>
<polygon fill="black" stroke="black" points="579.98,-47.83 576.21,-37.93 572.98,-48.02 579.98,-47.83"/>
<text xml:space="preserve" text-anchor="middle" x="500.51" y="-434.65" font-family="Times,serif" font-size="14.00">2</text>
</g>
<!-- 8&#45;&gt;19 -->
<g id="edge57" class="edge">
<title>8&#45;&gt;19</title>
<path fill="none" stroke="black" d="M787,-842.27C787,-824.66 787,-796.64 787,-772.4 787,-772.4 787,-772.4 787,-492.8 787,-417.71 895.83,-395.29 955.67,-388.63"/>
<polygon fill="black" stroke="black" points="955.83,-392.13 965.43,-387.65 955.13,-385.17 955.83,-392.13"/>
<text xml:space="preserve" text-anchor="middle" x="791.5" y="-632.85" font-family="Times,serif" font-size="14.00">4</text>
</g>
<!-- 8&#45;&gt;25 -->
<g id="edge46" class="edge">
<title>8&#45;&gt;25</title>
<path fill="none" stroke="black" d="M813.24,-866.15C832.99,-870.75 859.54,-879.74 877,-896.65 907.96,-926.65 899.71,-945.59 915,-985.9 955.84,-1093.57 1003.6,-1390.95 1080,-1477.1 1094.74,-1493.73 1116.99,-1504.73 1136.14,-1511.67"/>
<polygon fill="black" stroke="black" points="1134.95,-1514.96 1145.54,-1514.82 1137.17,-1508.32 1134.95,-1514.96"/>
<text xml:space="preserve" text-anchor="middle" x="978.43" y="-1188.05" font-family="Times,serif" font-size="14.00">3</text>
</g>
<!-- 9&#45;&gt;1 -->
<g id="edge19" class="edge">
<title>9&#45;&gt;1</title>
<path fill="none" stroke="black" d="M575.97,-1420.73C730.69,-1408.56 1504.72,-1347.67 1675.59,-1334.23"/>
<polygon fill="black" stroke="black" points="1675.84,-1337.72 1685.54,-1333.45 1675.29,-1330.74 1675.84,-1337.72"/>
<text xml:space="preserve" text-anchor="middle" x="1202.95" y="-1374.55" font-family="Times,serif" font-size="14.00">4</text>
</g>
<!-- 9&#45;&gt;4 -->
<g id="edge44" class="edge">
<title>9&#45;&gt;4</title>
<path fill="none" stroke="black" d="M532.18,-1438.46C499.23,-1466.07 426.07,-1532.17 388,-1604.05 326.41,-1720.35 332.89,-1760.87 317,-1891.5 310.69,-1943.36 326.76,-2323.57 365,-2359.15 396.54,-2388.51 1054.61,-2396.4 1211.59,-2397.87"/>
<polygon fill="black" stroke="black" points="1211.28,-2401.37 1221.31,-2397.96 1211.34,-2394.37 1211.28,-2401.37"/>
<text xml:space="preserve" text-anchor="middle" x="321.5" y="-1914.68" font-family="Times,serif" font-size="14.00">3</text>
</g>
<!-- 9&#45;&gt;6 -->
<g id="edge144" class="edge">
<title>9&#45;&gt;6</title>
<path fill="none" stroke="black" d="M546.07,-1405.81C545.23,-1400.12 544.42,-1393.73 544,-1387.85 541.5,-1352.72 542.62,-1343.8 544,-1308.6 550.73,-1136.6 540.27,-1076.28 634,-931.9 661.3,-889.85 665.49,-875.92 703,-842.65 778.02,-776.11 884.7,-722.18 937.63,-697.57"/>
<polygon fill="black" stroke="black" points="938.78,-700.9 946.4,-693.54 935.85,-694.54 938.78,-700.9"/>
<text xml:space="preserve" text-anchor="middle" x="588.37" y="-1034.48" font-family="Times,serif" font-size="14.00">0</text>
</g>
<!-- 9&#45;&gt;9 -->
<g id="edge55" class="edge">
<title>9&#45;&gt;9</title>
<path fill="none" stroke="black" d="M573.53,-1432.09C584.51,-1432.87 594,-1430.13 594,-1423.85 594,-1419.93 590.29,-1417.39 584.83,-1416.22"/>
<polygon fill="black" stroke="black" points="585.22,-1412.74 575.04,-1415.7 584.84,-1419.73 585.22,-1412.74"/>
<text xml:space="preserve" text-anchor="middle" x="598.5" y="-1419.18" font-family="Times,serif" font-size="14.00">2</text>
</g>
<!-- 21 -->
<g id="node23" class="node">
<title>21</title>
<ellipse fill="none" stroke="black" cx="939" cy="-196.5" rx="27" ry="18"/>
<text xml:space="preserve" text-anchor="middle" x="939" y="-191.82" font-family="Times,serif" font-size="14.00">21</text>
</g>
<!-- 9&#45;&gt;21 -->
<g id="edge148" class="edge">
<title>9&#45;&gt;21</title>
<path fill="none" stroke="black" d="M543.64,-1405.96C526.02,-1348.87 471,-1157.67 471,-995.53 471,-995.53 471,-995.53 471,-725.78 471,-630.79 556.36,-640.21 602,-556.9 630.61,-504.68 612.41,-479.18 647,-430.7 720.05,-328.32 849.91,-247.27 908.65,-213.95"/>
<polygon fill="black" stroke="black" points="910.1,-217.15 917.11,-209.21 906.68,-211.05 910.1,-217.15"/>
<text xml:space="preserve" text-anchor="middle" x="475.5" y="-811.35" font-family="Times,serif" font-size="14.00">1</text>
</g>
<!-- 10&#45;&gt;2 -->
<g id="edge36" class="edge">
<title>10&#45;&gt;2</title>
<path fill="none" stroke="black" d="M667.38,-1837.01C678.63,-1855.63 695,-1887.94 695,-1918.35 695,-2217.65 695,-2217.65 695,-2217.65 695,-2279.41 782.44,-2297.46 834.75,-2302.73"/>
<polygon fill="black" stroke="black" points="834.19,-2306.19 844.46,-2303.59 834.8,-2299.22 834.19,-2306.19"/>
<text xml:space="preserve" text-anchor="middle" x="699.5" y="-2078.1" font-family="Times,serif" font-size="14.00">0</text>
</g>
<!-- 10&#45;&gt;8 -->
<g id="edge34" class="edge">
<title>10&#45;&gt;8</title>
<path fill="none" stroke="black" d="M634.46,-1809.73C611.95,-1798.8 578.76,-1778.51 565,-1749 458.8,-1521.31 492.06,-1429.91 544,-1184.1 570.42,-1059.09 603.36,-1032.6 682,-931.9 694.84,-915.46 696.34,-909.2 713,-896.65 724.97,-887.63 739.64,-880.1 752.75,-874.37"/>
<polygon fill="black" stroke="black" points="754.02,-877.63 761.91,-870.56 751.33,-871.17 754.02,-877.63"/>
<text xml:space="preserve" text-anchor="middle" x="521.72" y="-1325.93" font-family="Times,serif" font-size="14.00">3</text>
</g>
<!-- 10&#45;&gt;9 -->
<g id="edge33" class="edge">
<title>10&#45;&gt;9</title>
<path fill="none" stroke="black" d="M635.57,-1808.99C625.62,-1803.12 614.57,-1794.82 608,-1784.25 541.15,-1676.83 542.76,-1517.75 546.65,-1453.41"/>
<polygon fill="black" stroke="black" points="550.12,-1453.91 547.31,-1443.7 543.14,-1453.44 550.12,-1453.91"/>
<text xml:space="preserve" text-anchor="middle" x="560.48" y="-1617.38" font-family="Times,serif" font-size="14.00">4</text>
</g>
<!-- 13 -->
<g id="node15" class="node">
<title>13</title>
<ellipse fill="none" stroke="black" cx="461" cy="-1721.15" rx="23.85" ry="23.85"/>
<ellipse fill="none" stroke="black" cx="461" cy="-1721.15" rx="27.85" ry="27.85"/>
<text xml:space="preserve" text-anchor="middle" x="461" y="-1716.48" font-family="Times,serif" font-size="14.00">13</text>
</g>
<!-- 10&#45;&gt;13 -->
<g id="edge6" class="edge">
<title>10&#45;&gt;13</title>
<path fill="none" stroke="black" d="M630.96,-1814.86C595.28,-1808.51 533.42,-1796.22 514,-1784.25 501.74,-1776.7 490.87,-1765.37 482.21,-1754.44"/>
<polygon fill="black" stroke="black" points="485.18,-1752.57 476.39,-1746.66 479.58,-1756.76 485.18,-1752.57"/>
<text xml:space="preserve" text-anchor="middle" x="518.5" y="-1770.95" font-family="Times,serif" font-size="14.00">2</text>
</g>
<!-- 10&#45;&gt;29 -->
<g id="edge11" class="edge">
<title>10&#45;&gt;29</title>
<path fill="none" stroke="black" d="M636.95,-1832.68C562.07,-1877.01 303,-2045.85 303,-2260.28 303,-2400.15 303,-2400.15 303,-2400.15 303,-2484.25 1677.56,-2490.86 1926.56,-2491.36"/>
<polygon fill="black" stroke="black" points="1926.36,-2494.86 1936.37,-2491.38 1926.37,-2487.86 1926.36,-2494.86"/>
<text xml:space="preserve" text-anchor="middle" x="324.27" y="-2167.35" font-family="Times,serif" font-size="14.00">1</text>
</g>
<!-- 11&#45;&gt;1 -->
<g id="edge23" class="edge">
<title>11&#45;&gt;1</title>
<path fill="none" stroke="black" d="M1674.63,-413.08C1672.95,-434.68 1671,-465.65 1671,-492.8 1671,-727.78 1671,-727.78 1671,-727.78 1671,-874.69 1682.9,-911.12 1699,-1057.15 1706.97,-1129.46 1716.1,-1146.77 1721,-1219.35 1723.14,-1251 1721.98,-1259.28 1717,-1290.6 1716.65,-1292.8 1716.26,-1295.07 1715.85,-1297.35"/>
<polygon fill="black" stroke="black" points="1712.42,-1296.65 1713.95,-1307.13 1719.29,-1297.98 1712.42,-1296.65"/>
<text xml:space="preserve" text-anchor="middle" x="1681.98" y="-855.98" font-family="Times,serif" font-size="14.00">1</text>
</g>
<!-- 11&#45;&gt;11 -->
<g id="edge50" class="edge">
<title>11&#45;&gt;11</title>
<path fill="none" stroke="black" d="M1703.39,-395C1713.97,-395.58 1722.85,-392.19 1722.85,-384.85 1722.85,-380.38 1719.55,-377.37 1714.58,-375.84"/>
<polygon fill="black" stroke="black" points="1715.19,-372.38 1704.89,-374.85 1714.49,-379.35 1715.19,-372.38"/>
<text xml:space="preserve" text-anchor="middle" x="1727.35" y="-380.18" font-family="Times,serif" font-size="14.00">4</text>
</g>
<!-- 11&#45;&gt;16 -->
<g id="edge132" class="edge">
<title>11&#45;&gt;16</title>
<path fill="none" stroke="black" d="M1663.69,-360.35C1655.52,-345.93 1645.06,-327.47 1636.67,-312.64"/>
<polygon fill="black" stroke="black" points="1639.95,-311.34 1631.98,-304.37 1633.86,-314.79 1639.95,-311.34"/>
<text xml:space="preserve" text-anchor="middle" x="1655.65" y="-325.7" font-family="Times,serif" font-size="14.00">0</text>
</g>
<!-- 11&#45;&gt;18 -->
<g id="edge56" class="edge">
<title>11&#45;&gt;18</title>
<path fill="none" stroke="black" d="M1664.24,-409.84C1621.48,-490.23 1483.47,-749.71 1438.97,-833.38"/>
<polygon fill="black" stroke="black" points="1435.99,-831.53 1434.39,-842.01 1442.17,-834.82 1435.99,-831.53"/>
<text xml:space="preserve" text-anchor="middle" x="1551.9" y="-632.85" font-family="Times,serif" font-size="14.00">2</text>
</g>
<!-- 28 -->
<g id="node30" class="node">
<title>28</title>
<ellipse fill="none" stroke="black" cx="1010" cy="-493.8" rx="23.85" ry="23.85"/>
<ellipse fill="none" stroke="black" cx="1010" cy="-493.8" rx="27.85" ry="27.85"/>
<text xml:space="preserve" text-anchor="middle" x="1010" y="-489.13" font-family="Times,serif" font-size="14.00">28</text>
</g>
<!-- 11&#45;&gt;28 -->
<g id="edge130" class="edge">
<title>11&#45;&gt;28</title>
<path fill="none" stroke="black" d="M1649.06,-387.37C1563.92,-392.5 1300.73,-411.95 1090,-465.95 1075.7,-469.62 1060.26,-474.56 1046.79,-479.2"/>
<polygon fill="black" stroke="black" points="1045.71,-475.87 1037.44,-482.49 1048.04,-482.47 1045.71,-475.87"/>
<text xml:space="preserve" text-anchor="middle" x="1253.49" y="-434.65" font-family="Times,serif" font-size="14.00">3</text>
</g>
<!-- 12&#45;&gt;3 -->
<g id="edge142" class="edge">
<title>12&#45;&gt;3</title>
<path fill="none" stroke="black" d="M532.84,-125.59C542.41,-215.19 586.43,-622.48 599,-646.15 661.12,-763.11 737.05,-741.9 823,-842.65 841.41,-864.23 844.16,-871.37 857,-896.65 926.03,-1032.54 904,-1083.94 904,-1236.35 904,-1469.48 904,-1469.48 904,-1469.48 904,-1662.9 1088,-1670.45 1088,-1863.88 1088,-2029.3 1088,-2029.3 1088,-2029.3 1088,-2114.34 1219.87,-2126.58 1287.29,-2127.28"/>
<polygon fill="black" stroke="black" points="1287.18,-2130.78 1297.18,-2127.3 1287.19,-2123.78 1287.18,-2130.78"/>
<text xml:space="preserve" text-anchor="middle" x="911.84" y="-1079.1" font-family="Times,serif" font-size="14.00">4</text>
</g>
<!-- 12&#45;&gt;4 -->
<g id="edge114" class="edge">
<title>12&#45;&gt;4</title>
<path fill="none" stroke="black" d="M503.85,-108.23C412.5,-108.9 122,-117.18 122,-195.5 122,-440.33 122,-440.33 122,-440.33 122,-607.71 84,-647.64 84,-815.03 84,-1084.78 84,-1084.78 84,-1084.78 84,-1406.86 122.8,-1486.43 186,-1802.25 201.15,-1877.97 219,-1895.61 219,-1972.83 219,-2306.9 219,-2306.9 219,-2306.9 219,-2340.3 242.3,-2346.01 273,-2359.15 360.67,-2396.69 1050.27,-2398.35 1211.41,-2398.22"/>
<polygon fill="black" stroke="black" points="1211.4,-2401.72 1221.39,-2398.21 1211.39,-2394.72 1211.4,-2401.72"/>
<text xml:space="preserve" text-anchor="middle" x="93.16" y="-1232.68" font-family="Times,serif" font-size="14.00">3</text>
</g>
<!-- 12&#45;&gt;9 -->
<g id="edge125" class="edge">
<title>12&#45;&gt;9</title>
<path fill="none" stroke="black" d="M503.72,-108.83C418.04,-111.36 160,-124.87 160,-195.5 160,-440.33 160,-440.33 160,-440.33 160,-585.33 132.58,-956.82 184,-1092.4 349.46,-1528.62 353.44,-1339.78 429,-1387.85 453.97,-1403.74 486.4,-1412.63 511.25,-1417.48"/>
<polygon fill="black" stroke="black" points="510.48,-1420.89 520.94,-1419.22 511.71,-1414 510.48,-1420.89"/>
<text xml:space="preserve" text-anchor="middle" x="157.3" y="-766.73" font-family="Times,serif" font-size="14.00">2</text>
</g>
<!-- 12&#45;&gt;14 -->
<g id="edge78" class="edge">
<title>12&#45;&gt;14</title>
<path fill="none" stroke="black" d="M539.28,-89.84C545.61,-77.29 554.46,-59.73 561.77,-45.24"/>
<polygon fill="black" stroke="black" points="564.7,-47.19 566.08,-36.69 558.45,-44.04 564.7,-47.19"/>
<text xml:space="preserve" text-anchor="middle" x="561.44" y="-57.95" font-family="Times,serif" font-size="14.00">1</text>
</g>
<!-- 12&#45;&gt;23 -->
<g id="edge147" class="edge">
<title>12&#45;&gt;23</title>
<path fill="none" stroke="black" d="M506.37,-115.46C473.66,-126.73 420,-151.87 420,-195.5 420,-494.8 420,-494.8 420,-494.8 420,-518.07 423.71,-544.2 427.17,-563.49"/>
<polygon fill="black" stroke="black" points="423.73,-564.14 429.03,-573.32 430.61,-562.84 423.73,-564.14"/>
<text xml:space="preserve" text-anchor="middle" x="424.5" y="-325.7" font-family="Times,serif" font-size="14.00">0</text>
</g>
<!-- 13&#45;&gt;3 -->
<g id="edge115" class="edge">
<title>13&#45;&gt;3</title>
<path fill="none" stroke="black" d="M470.92,-1747.6C476.46,-1759.64 484.24,-1773.66 494,-1784.25 579.68,-1877.24 853.56,-2049.89 973,-2091.4 1030.27,-2111.31 1208.26,-2121.3 1287.39,-2124.85"/>
<polygon fill="black" stroke="black" points="1287.11,-2128.34 1297.26,-2125.28 1287.42,-2121.35 1287.11,-2128.34"/>
<text xml:space="preserve" text-anchor="middle" x="708.79" y="-1914.68" font-family="Times,serif" font-size="14.00">0</text>
</g>
<!-- 13&#45;&gt;4 -->
<g id="edge137" class="edge">
<title>13&#45;&gt;4</title>
<path fill="none" stroke="black" d="M458.42,-1749.33C456.79,-1768.78 455,-1795.61 455,-1819.25 455,-2306.9 455,-2306.9 455,-2306.9 455,-2384.28 1060.81,-2396.12 1211.42,-2397.86"/>
<polygon fill="black" stroke="black" points="1211.08,-2401.36 1221.12,-2397.97 1211.15,-2394.36 1211.08,-2401.36"/>
<text xml:space="preserve" text-anchor="middle" x="459.5" y="-2078.1" font-family="Times,serif" font-size="14.00">3</text>
</g>
<!-- 13&#45;&gt;10 -->
<g id="edge79" class="edge">
<title>13&#45;&gt;10</title>
<path fill="none" stroke="black" d="M483.45,-1738.25C495.26,-1746.75 509.95,-1757.39 523,-1767 533.29,-1774.58 534.63,-1778.42 546,-1784.25 569.57,-1796.36 598.12,-1805.25 620.36,-1811.04"/>
<polygon fill="black" stroke="black" points="619.34,-1814.39 629.89,-1813.42 621.04,-1807.6 619.34,-1814.39"/>
<text xml:space="preserve" text-anchor="middle" x="550.5" y="-1770.95" font-family="Times,serif" font-size="14.00">1</text>
</g>
<!-- 13&#45;&gt;23 -->
<g id="edge71" class="edge">
<title>13&#45;&gt;23</title>
<path fill="none" stroke="black" d="M449.58,-1695.3C422.77,-1634.58 358,-1473.27 358,-1331.6 358,-1331.6 358,-1331.6 358,-1191.73 358,-1063.8 395,-1034.2 395,-906.28 395,-906.28 395,-906.28 395,-681.15 395,-658.85 405.57,-635.81 415.55,-619.01"/>
<polygon fill="black" stroke="black" points="418.42,-621.02 420.79,-610.7 412.5,-617.29 418.42,-621.02"/>
<text xml:space="preserve" text-anchor="middle" x="368.12" y="-1133.58" font-family="Times,serif" font-size="14.00">4</text>
</g>
<!-- 13&#45;&gt;26 -->
<g id="edge45" class="edge">
<title>13&#45;&gt;26</title>
<path fill="none" stroke="black" d="M488.92,-1716.87C612.12,-1702.37 1107.19,-1644.1 1248.29,-1627.49"/>
<polygon fill="black" stroke="black" points="1248.31,-1631.01 1257.84,-1626.37 1247.49,-1624.06 1248.31,-1631.01"/>
<text xml:space="preserve" text-anchor="middle" x="976.16" y="-1662" font-family="Times,serif" font-size="14.00">2</text>
</g>
<!-- 14&#45;&gt;4 -->
<g id="edge80" class="edge">
<title>14&#45;&gt;4</title>
<path fill="none" stroke="black" d="M547.7,-19.65C446.23,-22.21 94.24,-32.59 49,-54 20.22,-67.62 0,-74.41 0,-106.25 0,-817.03 0,-817.03 0,-817.03 0,-1044.87 9,-1101.76 9,-1329.6 9,-1469.48 9,-1469.48 9,-1469.48 9,-1614.69 100.82,-1628.36 144,-1767 171.64,-1855.74 181,-1879.88 181,-1972.83 181,-2306.9 181,-2306.9 181,-2306.9 181,-2339.67 202.99,-2346 233,-2359.15 324.22,-2399.14 1046.73,-2398.9 1211.59,-2398.31"/>
<polygon fill="black" stroke="black" points="1211.4,-2401.81 1221.39,-2398.27 1211.37,-2394.81 1211.4,-2401.81"/>
<text xml:space="preserve" text-anchor="middle" x="12.37" y="-1188.05" font-family="Times,serif" font-size="14.00">2</text>
</g>
<!-- 14&#45;&gt;7 -->
<g id="edge131" class="edge">
<title>14&#45;&gt;7</title>
<path fill="none" stroke="black" d="M602.11,-19.2C752.97,-20.44 1483.7,-27.77 1523,-54 1544.26,-68.19 1547,-80.7 1547,-106.25 1547,-727.78 1547,-727.78 1547,-727.78 1547,-802.14 1507.28,-882.97 1484.53,-923.17"/>
<polygon fill="black" stroke="black" points="1481.61,-921.23 1479.64,-931.63 1487.67,-924.73 1481.61,-921.23"/>
<text xml:space="preserve" text-anchor="middle" x="1551.5" y="-489.13" font-family="Times,serif" font-size="14.00">1</text>
</g>
<!-- 14&#45;&gt;10 -->
<g id="edge84" class="edge">
<title>14&#45;&gt;10</title>
<path fill="none" stroke="black" d="M547.9,-20.92C444.97,-28.56 84,-58.74 84,-106.25 84,-440.33 84,-440.33 84,-440.33 84,-461.26 215.68,-771.19 226,-789.4 387.49,-1074.31 669,-1050.73 669,-1378.23 669,-1523.95 669,-1523.95 669,-1523.95 669,-1621.81 662.34,-1737.75 658.94,-1790.52"/>
<polygon fill="black" stroke="black" points="655.45,-1790.24 658.29,-1800.44 662.44,-1790.7 655.45,-1790.24"/>
<text xml:space="preserve" text-anchor="middle" x="323.11" y="-900.6" font-family="Times,serif" font-size="14.00">3</text>
</g>
<!-- 14&#45;&gt;12 -->
<g id="edge72" class="edge">
<title>14&#45;&gt;12</title>
<path fill="none" stroke="black" d="M554.42,-30.25C545.86,-36.12 536.81,-44.14 532,-54 528.52,-61.15 527.3,-69.53 527.21,-77.46"/>
<polygon fill="black" stroke="black" points="523.71,-77.6 527.71,-87.42 530.7,-77.25 523.71,-77.6"/>
<text xml:space="preserve" text-anchor="middle" x="536.5" y="-57.95" font-family="Times,serif" font-size="14.00">4</text>
</g>
<!-- 14&#45;&gt;13 -->
<g id="edge127" class="edge">
<title>14&#45;&gt;13</title>
<path fill="none" stroke="black" d="M547.87,-19.28C448.68,-20.52 109.45,-26.74 70,-54 48.98,-68.53 46,-80.7 46,-106.25 46,-1084.78 46,-1084.78 46,-1084.78 46,-1225.27 134.8,-1237.93 181,-1370.6 208.05,-1448.26 177.2,-1482.5 223,-1550.8 249.9,-1590.92 368.53,-1665.09 427.5,-1700.44"/>
<polygon fill="black" stroke="black" points="425.42,-1703.27 435.8,-1705.39 429.01,-1697.26 425.42,-1703.27"/>
<text xml:space="preserve" text-anchor="middle" x="50.5" y="-855.98" font-family="Times,serif" font-size="14.00">0</text>
</g>
<!-- 15 -->
<g id="node17" class="node">
<title>15</title>
<ellipse fill="none" stroke="black" cx="2012" cy="-1039.15" rx="27" ry="18"/>
<text xml:space="preserve" text-anchor="middle" x="2012" y="-1034.48" font-family="Times,serif" font-size="14.00">15</text>
</g>
<!-- 15&#45;&gt;7 -->
<g id="edge73" class="edge">
<title>15&#45;&gt;7</title>
<path fill="none" stroke="black" d="M1985,-1036.19C1887.36,-1029.1 1558.1,-1005.07 1553,-1003.15 1541.04,-998.65 1540.67,-992.93 1530,-985.9 1520.31,-979.52 1509.41,-973.06 1499.54,-967.45"/>
<polygon fill="black" stroke="black" points="1501.47,-964.52 1491.03,-962.69 1498.05,-970.63 1501.47,-964.52"/>
<text xml:space="preserve" text-anchor="middle" x="1557.5" y="-989.85" font-family="Times,serif" font-size="14.00">0</text>
</g>
<!-- 15&#45;&gt;16 -->
<g id="edge83" class="edge">
<title>15&#45;&gt;16</title>
<path fill="none" stroke="black" d="M2011.69,-1020.77C2009.2,-935.37 1986.94,-556.37 1788,-357 1752.34,-321.27 1695.71,-302.67 1658.7,-293.81"/>
<polygon fill="black" stroke="black" points="1659.89,-290.49 1649.36,-291.69 1658.34,-297.31 1659.89,-290.49"/>
<text xml:space="preserve" text-anchor="middle" x="1970.04" y="-677.48" font-family="Times,serif" font-size="14.00">4</text>
</g>
<!-- 15&#45;&gt;21 -->
<g id="edge20" class="edge">
<title>15&#45;&gt;21</title>
<path fill="none" stroke="black" d="M2028.75,-1024.64C2046.19,-1008.93 2071,-981.26 2071,-950.9 2071,-950.9 2071,-950.9 2071,-547.28 2071,-437.63 2066.6,-375.44 1971,-321.75 1795.62,-223.26 1143.14,-202.08 977.45,-198.25"/>
<polygon fill="black" stroke="black" points="977.53,-194.76 967.46,-198.03 977.38,-201.75 977.53,-194.76"/>
<text xml:space="preserve" text-anchor="middle" x="2075.5" y="-632.85" font-family="Times,serif" font-size="14.00">1</text>
</g>
<!-- 15&#45;&gt;25 -->
<g id="edge27" class="edge">
<title>15&#45;&gt;25</title>
<path fill="none" stroke="black" d="M1985.41,-1043.6C1932.51,-1051.07 1811,-1071.31 1716,-1110.4 1559.54,-1174.77 1520.16,-1199.32 1391,-1308.6 1315.35,-1372.61 1320.14,-1412.5 1245,-1477.1 1233.86,-1486.68 1220.48,-1495.67 1208.36,-1503.05"/>
<polygon fill="black" stroke="black" points="1206.69,-1499.97 1199.86,-1508.07 1210.25,-1506 1206.69,-1499.97"/>
<text xml:space="preserve" text-anchor="middle" x="1436.57" y="-1277.3" font-family="Times,serif" font-size="14.00">2</text>
</g>
<!-- 15&#45;&gt;27 -->
<g id="edge42" class="edge">
<title>15&#45;&gt;27</title>
<path fill="none" stroke="black" d="M2025.19,-1055.28C2055.4,-1091.55 2127,-1187.39 2127,-1280.98 2127,-1821.25 2127,-1821.25 2127,-1821.25 2127,-1841.63 2122.34,-1863.82 2117.3,-1881.84"/>
<polygon fill="black" stroke="black" points="2113.99,-1880.71 2114.51,-1891.3 2120.7,-1882.7 2113.99,-1880.71"/>
<text xml:space="preserve" text-anchor="middle" x="2131.5" y="-1463.8" font-family="Times,serif" font-size="14.00">3</text>
</g>
<!-- 16&#45;&gt;4 -->
<g id="edge25" class="edge">
<title>16&#45;&gt;4</title>
<path fill="none" stroke="black" d="M1648.2,-290.74C1677.62,-295.76 1726.41,-305.72 1766,-321.75 1907.65,-379.12 1935.14,-421.44 2032,-539.65 2061.1,-575.16 2063.89,-587.63 2084,-628.9 2134.47,-732.45 2238.39,-1001.52 2276,-1110.4 2292.48,-1158.1 2295.51,-1170.45 2308,-1219.35 2335.92,-1328.7 2362,-1354.62 2362,-1467.48 2362,-1776.63 2362,-1776.63 2362,-1776.63 2362,-2080.51 2297.53,-2280.5 2004,-2359.15 1864.18,-2396.62 1406.44,-2398.51 1278.49,-2398.29"/>
<polygon fill="black" stroke="black" points="1278.69,-2394.79 1268.68,-2398.26 1278.67,-2401.79 1278.69,-2394.79"/>
<text xml:space="preserve" text-anchor="middle" x="2352.81" y="-1325.93" font-family="Times,serif" font-size="14.00">2</text>
</g>
<!-- 16&#45;&gt;14 -->
<g id="edge74" class="edge">
<title>16&#45;&gt;14</title>
<path fill="none" stroke="black" d="M1623.58,-267.56C1626.56,-223.66 1627.54,-107.14 1561,-54 1523.38,-23.96 791.3,-19.69 613.61,-19.09"/>
<polygon fill="black" stroke="black" points="613.78,-15.59 603.77,-19.06 613.76,-22.59 613.78,-15.59"/>
<text xml:space="preserve" text-anchor="middle" x="1621.85" y="-147.2" font-family="Times,serif" font-size="14.00">4</text>
</g>
<!-- 16&#45;&gt;16 -->
<g id="edge119" class="edge">
<title>16&#45;&gt;16</title>
<path fill="none" stroke="black" d="M1646.53,-293.99C1657.51,-294.77 1667,-292.03 1667,-285.75 1667,-281.83 1663.29,-279.28 1657.83,-278.12"/>
<polygon fill="black" stroke="black" points="1658.22,-274.64 1648.04,-277.59 1657.84,-281.63 1658.22,-274.64"/>
<text xml:space="preserve" text-anchor="middle" x="1671.5" y="-281.07" font-family="Times,serif" font-size="14.00">1</text>
</g>
<!-- 16&#45;&gt;20 -->
<g id="edge99" class="edge">
<title>16&#45;&gt;20</title>
<path fill="none" stroke="black" d="M1622.23,-304.13C1622.75,-345.98 1624,-455.68 1624,-547.28 1624,-817.03 1624,-817.03 1624,-817.03 1624,-965.89 1662.11,-1141.41 1678.09,-1208.44"/>
<polygon fill="black" stroke="black" points="1674.61,-1208.94 1680.36,-1217.84 1681.41,-1207.29 1674.61,-1208.94"/>
<text xml:space="preserve" text-anchor="middle" x="1628.5" y="-766.73" font-family="Times,serif" font-size="14.00">0</text>
</g>
<!-- 16&#45;&gt;21 -->
<g id="edge126" class="edge">
<title>16&#45;&gt;21</title>
<path fill="none" stroke="black" d="M1595.64,-281.38C1490.43,-267.94 1100.26,-218.1 976.75,-202.32"/>
<polygon fill="black" stroke="black" points="977.51,-198.89 967.15,-201.1 976.62,-205.83 977.51,-198.89"/>
<text xml:space="preserve" text-anchor="middle" x="1346.17" y="-236.45" font-family="Times,serif" font-size="14.00">3</text>
</g>
<!-- 17&#45;&gt;0 -->
<g id="edge41" class="edge">
<title>17&#45;&gt;0</title>
<path fill="none" stroke="black" d="M1661.76,-2048.79C1627.48,-2083.5 1556.01,-2155.89 1519.51,-2192.86"/>
<polygon fill="black" stroke="black" points="1517.04,-2190.38 1512.5,-2199.95 1522.02,-2195.3 1517.04,-2190.38"/>
<text xml:space="preserve" text-anchor="middle" x="1605.73" y="-2122.73" font-family="Times,serif" font-size="14.00">1</text>
</g>
<!-- 17&#45;&gt;1 -->
<g id="edge18" class="edge">
<title>17&#45;&gt;1</title>
<path fill="none" stroke="black" d="M1671.64,-2002C1669.72,-1995.7 1667.98,-1988.9 1667,-1982.45 1665.67,-1973.71 1656.1,-2057.91 1668,-1802.25 1675.69,-1636.99 1696.72,-1439.96 1705.29,-1363.83"/>
<polygon fill="black" stroke="black" points="1708.73,-1364.51 1706.38,-1354.17 1701.78,-1363.72 1708.73,-1364.51"/>
<text xml:space="preserve" text-anchor="middle" x="1681.53" y="-1662" font-family="Times,serif" font-size="14.00">0</text>
</g>
<!-- 17&#45;&gt;4 -->
<g id="edge102" class="edge">
<title>17&#45;&gt;4</title>
<path fill="none" stroke="black" d="M1700.62,-2048.57C1717.1,-2066.9 1738,-2096.11 1738,-2126.4 1738,-2306.9 1738,-2306.9 1738,-2306.9 1738,-2345.37 1704.86,-2345.25 1669,-2359.15 1597.91,-2386.72 1366.05,-2395.19 1278.7,-2397.43"/>
<polygon fill="black" stroke="black" points="1278.79,-2393.93 1268.88,-2397.67 1278.96,-2400.93 1278.79,-2393.93"/>
<text xml:space="preserve" text-anchor="middle" x="1742.5" y="-2211.98" font-family="Times,serif" font-size="14.00">4</text>
</g>
<!-- 17&#45;&gt;14 -->
<g id="edge121" class="edge">
<title>17&#45;&gt;14</title>
<path fill="none" stroke="black" d="M1686.6,-2000.77C1701.67,-1930.11 1744.98,-1731.65 1790,-1568.8 1798.21,-1539.12 1957,-1070.95 1957,-1040.15 1957,-1040.15 1957,-1040.15 1957,-815.03 1957,-589.7 2109,-556.7 2109,-331.38 2109,-331.38 2109,-331.38 2109,-106.25 2109,-28.99 852.17,-20.11 613.78,-19.12"/>
<polygon fill="black" stroke="black" points="613.8,-15.62 603.79,-19.08 613.78,-22.62 613.8,-15.62"/>
<text xml:space="preserve" text-anchor="middle" x="1961.5" y="-989.85" font-family="Times,serif" font-size="14.00">3</text>
</g>
<!-- 17&#45;&gt;27 -->
<g id="edge28" class="edge">
<title>17&#45;&gt;27</title>
<path fill="none" stroke="black" d="M1708.17,-2020.45C1781.22,-2002.02 1982.06,-1951.36 2066.65,-1930.03"/>
<polygon fill="black" stroke="black" points="2067.48,-1933.43 2076.32,-1927.59 2065.76,-1926.64 2067.48,-1933.43"/>
<text xml:space="preserve" text-anchor="middle" x="1922.89" y="-1969.15" font-family="Times,serif" font-size="14.00">2</text>
</g>
<!-- 18&#45;&gt;4 -->
<g id="edge105" class="edge">
<title>18&#45;&gt;4</title>
<path fill="none" stroke="black" d="M1404.1,-872.61C1393.66,-878.75 1381.31,-887.1 1372,-896.65 1340.27,-929.21 1337,-942.98 1322,-985.9 1237.59,-1227.45 1394.03,-1372 1211,-1550.8 1198.54,-1562.98 919.15,-1600.97 902,-1604.05 848.82,-1613.6 459.04,-1652.18 424,-1693.3 343.41,-1787.9 417,-1848.56 417,-1972.83 417,-2306.9 417,-2306.9 417,-2306.9 417,-2352.39 461.47,-2345.96 505,-2359.15 639.78,-2400 1085.27,-2399.51 1211.43,-2398.51"/>
<polygon fill="black" stroke="black" points="1211.14,-2402.01 1221.11,-2398.42 1211.08,-2395.01 1211.14,-2402.01"/>
<text xml:space="preserve" text-anchor="middle" x="906.5" y="-1617.38" font-family="Times,serif" font-size="14.00">2</text>
</g>
<!-- 18&#45;&gt;5 -->
<g id="edge113" class="edge">
<title>18&#45;&gt;5</title>
<path fill="none" stroke="black" d="M1420.32,-842.64C1414.47,-821.59 1404,-784.7 1394,-753.4 1381.23,-713.4 1384.74,-700.08 1363,-664.15 1329.71,-609.12 1275,-613.59 1275,-549.28 1275,-549.28 1275,-549.28 1275,-383.85 1275,-358.31 1263.46,-331.43 1253.09,-312.44"/>
<polygon fill="black" stroke="black" points="1256.16,-310.74 1248.14,-303.81 1250.09,-314.23 1256.16,-310.74"/>
<text xml:space="preserve" text-anchor="middle" x="1311.73" y="-588.23" font-family="Times,serif" font-size="14.00">4</text>
</g>
<!-- 18&#45;&gt;10 -->
<g id="edge149" class="edge">
<title>18&#45;&gt;10</title>
<path fill="none" stroke="black" d="M1408.01,-874.76C1389.96,-890.31 1364,-918.04 1364,-948.9 1364,-1084.78 1364,-1084.78 1364,-1084.78 1364,-1128.98 1308.8,-1434.24 1298,-1477.1 1289.55,-1510.64 1298.43,-1527.36 1273,-1550.8 1254.97,-1567.42 866.77,-1646.79 845,-1658.05 775.29,-1694.09 709.41,-1760.69 677.34,-1795.95"/>
<polygon fill="black" stroke="black" points="675.02,-1793.29 670.94,-1803.07 680.23,-1797.97 675.02,-1793.29"/>
<text xml:space="preserve" text-anchor="middle" x="1334.53" y="-1325.93" font-family="Times,serif" font-size="14.00">3</text>
</g>
<!-- 18&#45;&gt;15 -->
<g id="edge53" class="edge">
<title>18&#45;&gt;15</title>
<path fill="none" stroke="black" d="M1450.23,-867.79C1477.43,-874.51 1521.94,-885.77 1560,-896.65 1716.79,-941.49 1901.92,-1001.78 1977.38,-1026.67"/>
<polygon fill="black" stroke="black" points="1976.09,-1029.92 1986.68,-1029.74 1978.28,-1023.28 1976.09,-1029.92"/>
<text xml:space="preserve" text-anchor="middle" x="1798.09" y="-945.23" font-family="Times,serif" font-size="14.00">0</text>
</g>
<!-- 18&#45;&gt;22 -->
<g id="edge129" class="edge">
<title>18&#45;&gt;22</title>
<path fill="none" stroke="black" d="M1397.95,-857.54C1352.57,-853.61 1258.49,-843.78 1181,-824.65 1140.89,-814.75 1096.4,-798.1 1066.98,-786.26"/>
<polygon fill="black" stroke="black" points="1068.47,-783.09 1057.89,-782.55 1065.83,-789.57 1068.47,-783.09"/>
<text xml:space="preserve" text-anchor="middle" x="1185.5" y="-811.35" font-family="Times,serif" font-size="14.00">1</text>
</g>
<!-- 19&#45;&gt;2 -->
<g id="edge86" class="edge">
<title>19&#45;&gt;2</title>
<path fill="none" stroke="black" d="M967.31,-388.6C888.29,-397.48 661,-428.59 661,-492.8 661,-638.53 661,-638.53 661,-638.53 661,-763.08 689.32,-791.62 713,-913.9 717.34,-936.32 873,-1697.32 873,-1720.15 873,-2217.65 873,-2217.65 873,-2217.65 873,-2237.16 873,-2259.11 873,-2276.12"/>
<polygon fill="black" stroke="black" points="869.5,-2276.01 873,-2286.01 876.5,-2276.01 869.5,-2276.01"/>
<text xml:space="preserve" text-anchor="middle" x="806.17" y="-1325.93" font-family="Times,serif" font-size="14.00">3</text>
</g>
<!-- 19&#45;&gt;5 -->
<g id="edge97" class="edge">
<title>19&#45;&gt;5</title>
<path fill="none" stroke="black" d="M1014.65,-373.07C1040.32,-359.93 1085.66,-337.52 1126,-321.75 1150.84,-312.04 1179.57,-303.04 1201.58,-296.6"/>
<polygon fill="black" stroke="black" points="1202.33,-300.02 1210.97,-293.89 1200.39,-293.3 1202.33,-300.02"/>
<text xml:space="preserve" text-anchor="middle" x="1130.5" y="-325.7" font-family="Times,serif" font-size="14.00">1</text>
</g>
<!-- 19&#45;&gt;19 -->
<g id="edge16" class="edge">
<title>19&#45;&gt;19</title>
<path fill="none" stroke="black" d="M1017.15,-394.76C1028.7,-396.13 1039,-392.83 1039,-384.85 1039,-379.61 1034.56,-376.39 1028.25,-375.18"/>
<polygon fill="black" stroke="black" points="1028.74,-371.69 1018.67,-374.97 1028.59,-378.69 1028.74,-371.69"/>
<text xml:space="preserve" text-anchor="middle" x="1043.5" y="-380.18" font-family="Times,serif" font-size="14.00">2</text>
</g>
<!-- 19&#45;&gt;26 -->
<g id="edge93" class="edge">
<title>19&#45;&gt;26</title>
<path fill="none" stroke="black" d="M1013.26,-397.99C1025.34,-406.23 1040.7,-417.92 1052,-430.7 1083.15,-465.91 1071.41,-489.82 1106,-521.65 1119.46,-534.03 1133.3,-524.15 1143,-539.65 1147.07,-546.15 1143.45,-549.25 1143,-556.9 1129.87,-780.39 1112.69,-835.12 1084,-1057.15 1063.94,-1212.36 1045.92,-1249.73 1035,-1405.85 1033.88,-1421.81 1029.73,-1426.74 1035,-1441.85 1068.45,-1537.75 1190.14,-1589.92 1250.94,-1610.52"/>
<polygon fill="black" stroke="black" points="1249.52,-1613.73 1260.11,-1613.52 1251.7,-1607.08 1249.52,-1613.73"/>
<text xml:space="preserve" text-anchor="middle" x="1097.96" y="-989.85" font-family="Times,serif" font-size="14.00">0</text>
</g>
<!-- 19&#45;&gt;28 -->
<g id="edge117" class="edge">
<title>19&#45;&gt;28</title>
<path fill="none" stroke="black" d="M996.58,-403.12C998.66,-417.01 1001.66,-437.06 1004.3,-454.68"/>
<polygon fill="black" stroke="black" points="1000.8,-454.94 1005.74,-464.32 1007.72,-453.91 1000.8,-454.94"/>
<text xml:space="preserve" text-anchor="middle" x="1007.46" y="-434.65" font-family="Times,serif" font-size="14.00">4</text>
</g>
<!-- 20&#45;&gt;0 -->
<g id="edge54" class="edge">
<title>20&#45;&gt;0</title>
<path fill="none" stroke="black" d="M1700.92,-1252.06C1714.55,-1265 1733.04,-1285.78 1740,-1308.6 1783.67,-1451.85 1778.62,-1835.65 1749,-1982.45 1730.4,-2074.64 1690.27,-2090.38 1614,-2145.4 1585.88,-2165.69 1551.68,-2185.74 1527.53,-2199.19"/>
<polygon fill="black" stroke="black" points="1525.92,-2196.09 1518.85,-2203.98 1529.3,-2202.22 1525.92,-2196.09"/>
<text xml:space="preserve" text-anchor="middle" x="1776.23" y="-1716.48" font-family="Times,serif" font-size="14.00">3</text>
</g>
<!-- 20&#45;&gt;10 -->
<g id="edge60" class="edge">
<title>20&#45;&gt;10</title>
<path fill="none" stroke="black" d="M1680.5,-1255.45C1670.64,-1291.41 1645.08,-1376.91 1609,-1441.85 1579.31,-1495.3 1569.41,-1508.78 1525,-1550.8 1521.82,-1553.81 1398.94,-1638.13 1395,-1640.05 1203.56,-1733.39 1146.09,-1738.86 938,-1784.25 852.31,-1802.95 749.58,-1812.58 695.18,-1816.71"/>
<polygon fill="black" stroke="black" points="695.23,-1813.19 685.52,-1817.42 695.75,-1820.18 695.23,-1813.19"/>
<text xml:space="preserve" text-anchor="middle" x="1580.9" y="-1518.28" font-family="Times,serif" font-size="14.00">1</text>
</g>
<!-- 20&#45;&gt;18 -->
<g id="edge92" class="edge">
<title>20&#45;&gt;18</title>
<path fill="none" stroke="black" d="M1659.43,-1230.97C1643.07,-1226.11 1622.93,-1217.21 1612,-1201.35 1557.46,-1122.24 1640.92,-1069.76 1594,-985.9 1563.46,-931.32 1497.83,-894.05 1457.94,-875.43"/>
<polygon fill="black" stroke="black" points="1459.6,-872.34 1449.04,-871.4 1456.71,-878.71 1459.6,-872.34"/>
<text xml:space="preserve" text-anchor="middle" x="1613.46" y="-1034.48" font-family="Times,serif" font-size="14.00">2</text>
</g>
<!-- 20&#45;&gt;24 -->
<g id="edge118" class="edge">
<title>20&#45;&gt;24</title>
<path fill="none" stroke="black" d="M1709.65,-1229.29C1768.25,-1212.51 1916.18,-1170.13 1986.18,-1150.09"/>
<polygon fill="black" stroke="black" points="1987.01,-1153.49 1995.66,-1147.37 1985.08,-1146.76 1987.01,-1153.49"/>
<text xml:space="preserve" text-anchor="middle" x="1869.16" y="-1188.05" font-family="Times,serif" font-size="14.00">4</text>
</g>
<!-- 20&#45;&gt;29 -->
<g id="edge39" class="edge">
<title>20&#45;&gt;29</title>
<path fill="none" stroke="black" d="M1705.93,-1249.12C1716.81,-1255.32 1729.9,-1263.77 1740,-1273.35 1849.33,-1377.06 1892,-1425.74 1892,-1576.43 1892,-1776.63 1892,-1776.63 1892,-1776.63 1892,-2026.81 2180,-2010.1 2180,-2260.28 2180,-2400.15 2180,-2400.15 2180,-2400.15 2180,-2475.96 2065.34,-2489.71 2003.49,-2491.62"/>
<polygon fill="black" stroke="black" points="2003.67,-2488.11 1993.74,-2491.82 2003.81,-2495.11 2003.67,-2488.11"/>
<text xml:space="preserve" text-anchor="middle" x="1913.47" y="-1860.2" font-family="Times,serif" font-size="14.00">0</text>
</g>
<!-- 21&#45;&gt;1 -->
<g id="edge47" class="edge">
<title>21&#45;&gt;1</title>
<path fill="none" stroke="black" d="M965.79,-199.54C1031.91,-204.63 1208.18,-218.48 1355,-232.5 1391.71,-236 1650.18,-255.61 1685,-267.75 1755.03,-292.16 1784.51,-295.53 1826,-357 1885.38,-444.97 1869,-485.77 1869,-591.9 1869,-727.78 1869,-727.78 1869,-727.78 1869,-954.34 1761.78,-1213.27 1722.88,-1299.74"/>
<polygon fill="black" stroke="black" points="1719.75,-1298.18 1718.8,-1308.73 1726.13,-1301.07 1719.75,-1298.18"/>
<text xml:space="preserve" text-anchor="middle" x="1872.98" y="-766.73" font-family="Times,serif" font-size="14.00">0</text>
</g>
<!-- 21&#45;&gt;4 -->
<g id="edge81" class="edge">
<title>21&#45;&gt;4</title>
<path fill="none" stroke="black" d="M911.79,-198.33C817.32,-201.65 504.74,-216.38 421,-267.75 302.87,-340.21 122,-676.44 122,-815.03 122,-1084.78 122,-1084.78 122,-1084.78 122,-1292.22 107.48,-1347.35 148,-1550.8 161.11,-1616.63 179.07,-1628.91 198,-1693.3 212.04,-1741.06 213.49,-1753.59 224,-1802.25 240.3,-1877.73 257,-1895.61 257,-1972.83 257,-2306.9 257,-2306.9 257,-2306.9 257,-2354.7 305,-2346.15 351,-2359.15 434.88,-2382.86 1058.74,-2394.98 1211.38,-2397.6"/>
<polygon fill="black" stroke="black" points="1211.15,-2401.1 1221.21,-2397.77 1211.27,-2394.1 1211.15,-2401.1"/>
<text xml:space="preserve" text-anchor="middle" x="124.01" y="-1277.3" font-family="Times,serif" font-size="14.00">2</text>
</g>
<!-- 21&#45;&gt;12 -->
<g id="edge77" class="edge">
<title>21&#45;&gt;12</title>
<path fill="none" stroke="black" d="M913.48,-190.04C843.64,-175.11 649.2,-133.53 567.69,-116.1"/>
<polygon fill="black" stroke="black" points="568.5,-112.69 557.99,-114.02 567.04,-119.54 568.5,-112.69"/>
<text xml:space="preserve" text-anchor="middle" x="776.04" y="-147.2" font-family="Times,serif" font-size="14.00">4</text>
</g>
<!-- 21&#45;&gt;13 -->
<g id="edge143" class="edge">
<title>21&#45;&gt;13</title>
<path fill="none" stroke="black" d="M912.34,-200.28C814.53,-210.99 477.06,-252.41 398,-321.75 353,-361.22 373.3,-392.41 351,-447.95 318.37,-529.22 298.05,-544.98 273,-628.9 177.99,-947.19 191.7,-1038.6 181,-1370.6 178.42,-1450.67 148.4,-1479.54 185,-1550.8 205.99,-1591.66 310.03,-1652.67 350,-1675.3 373.52,-1688.62 401.78,-1699.98 423.9,-1707.93"/>
<polygon fill="black" stroke="black" points="422.52,-1711.16 433.11,-1711.17 424.83,-1704.55 422.52,-1711.16"/>
<text xml:space="preserve" text-anchor="middle" x="207.02" y="-945.23" font-family="Times,serif" font-size="14.00">1</text>
</g>
<!-- 21&#45;&gt;27 -->
<g id="edge62" class="edge">
<title>21&#45;&gt;27</title>
<path fill="none" stroke="black" d="M966.3,-197.95C1059.87,-199.69 1376.13,-207.18 1636,-232.5 1744.62,-243.08 1773.19,-241.03 1879,-267.75 1990.96,-296.02 2040.97,-275.73 2123,-357 2159.75,-393.41 2147.88,-416.79 2164,-465.95 2207.8,-599.56 2311.88,-936.45 2335,-1075.15 2344.22,-1130.48 2349.97,-1146.77 2337,-1201.35 2306.39,-1330.19 2203,-1335.05 2203,-1467.48 2203,-1821.25 2203,-1821.25 2203,-1821.25 2203,-1857.73 2168.32,-1885.17 2140.22,-1901.42"/>
<polygon fill="black" stroke="black" points="2138.65,-1898.29 2131.56,-1906.17 2142.01,-1904.42 2138.65,-1898.29"/>
<text xml:space="preserve" text-anchor="middle" x="2336.19" y="-1034.48" font-family="Times,serif" font-size="14.00">3</text>
</g>
<!-- 22&#45;&gt;6 -->
<g id="edge103" class="edge">
<title>22&#45;&gt;6</title>
<path fill="none" stroke="black" d="M1020.95,-755.34C1015.83,-749.26 1010,-742.11 1005,-735.4 998.62,-726.85 992.01,-717.21 986.27,-708.56"/>
<polygon fill="black" stroke="black" points="989.24,-706.7 980.84,-700.25 983.38,-710.54 989.24,-706.7"/>
<text xml:space="preserve" text-anchor="middle" x="1009.5" y="-722.1" font-family="Times,serif" font-size="14.00">0</text>
</g>
<!-- 22&#45;&gt;9 -->
<g id="edge35" class="edge">
<title>22&#45;&gt;9</title>
<path fill="none" stroke="black" d="M1006.72,-773.33C953.36,-776.32 833.26,-789 751,-842.65 558.03,-968.53 546.89,-1295.07 548.12,-1394.02"/>
<polygon fill="black" stroke="black" points="544.62,-1393.98 548.31,-1403.92 551.62,-1393.85 544.62,-1393.98"/>
<text xml:space="preserve" text-anchor="middle" x="595.83" y="-1079.1" font-family="Times,serif" font-size="14.00">1</text>
</g>
<!-- 22&#45;&gt;11 -->
<g id="edge120" class="edge">
<title>22&#45;&gt;11</title>
<path fill="none" stroke="black" d="M1055.32,-759.74C1104.15,-735.11 1227.43,-671.71 1326,-610.9 1361.88,-588.76 1369.81,-581.57 1404,-556.9 1458.56,-517.54 1468.17,-501.96 1525,-465.95 1563.6,-441.49 1610.43,-417.63 1641.82,-402.4"/>
<polygon fill="black" stroke="black" points="1642.98,-405.72 1650.47,-398.23 1639.94,-399.42 1642.98,-405.72"/>
<text xml:space="preserve" text-anchor="middle" x="1383.77" y="-588.23" font-family="Times,serif" font-size="14.00">3</text>
</g>
<!-- 22&#45;&gt;18 -->
<g id="edge22" class="edge">
<title>22&#45;&gt;18</title>
<path fill="none" stroke="black" d="M1059.55,-778.1C1126.98,-793.15 1309.91,-833.97 1388.41,-851.49"/>
<polygon fill="black" stroke="black" points="1387.65,-854.9 1398.17,-853.66 1389.17,-848.07 1387.65,-854.9"/>
<text xml:space="preserve" text-anchor="middle" x="1269.02" y="-811.35" font-family="Times,serif" font-size="14.00">2</text>
</g>
<!-- 22&#45;&gt;26 -->
<g id="edge58" class="edge">
<title>22&#45;&gt;26</title>
<path fill="none" stroke="black" d="M1035.94,-789.83C1038.67,-816.53 1043.09,-869.19 1041,-913.9 1029.29,-1164.32 950.48,-1233.58 1010,-1477.1 1022.08,-1526.51 1006.17,-1553.21 1045,-1586.05 1048.85,-1589.31 1181.15,-1607.2 1248.06,-1616.06"/>
<polygon fill="black" stroke="black" points="1247.48,-1619.52 1257.86,-1617.36 1248.4,-1612.58 1247.48,-1619.52"/>
<text xml:space="preserve" text-anchor="middle" x="1005.59" y="-1188.05" font-family="Times,serif" font-size="14.00">4</text>
</g>
<!-- 23&#45;&gt;9 -->
<g id="edge101" class="edge">
<title>23&#45;&gt;9</title>
<path fill="none" stroke="black" d="M433,-611.28C433,-628.89 433,-656.92 433,-681.15 433,-995.53 433,-995.53 433,-995.53 433,-1154.33 347.89,-1211.11 420,-1352.6 437.79,-1387.51 480.69,-1405.82 512.15,-1414.88"/>
<polygon fill="black" stroke="black" points="511.13,-1418.23 521.69,-1417.43 512.93,-1411.47 511.13,-1418.23"/>
<text xml:space="preserve" text-anchor="middle" x="437.5" y="-989.85" font-family="Times,serif" font-size="14.00">3</text>
</g>
<!-- 23&#45;&gt;12 -->
<g id="edge151" class="edge">
<title>23&#45;&gt;12</title>
<path fill="none" stroke="black" d="M408.21,-585.2C371.25,-573.54 306,-545.73 306,-494.8 306,-494.8 306,-494.8 306,-195.5 306,-155.76 429.54,-127.01 493.54,-114.78"/>
<polygon fill="black" stroke="black" points="494.07,-118.24 503.26,-112.97 492.79,-111.36 494.07,-118.24"/>
<text xml:space="preserve" text-anchor="middle" x="310.5" y="-325.7" font-family="Times,serif" font-size="14.00">4</text>
</g>
<!-- 23&#45;&gt;19 -->
<g id="edge134" class="edge">
<title>23&#45;&gt;19</title>
<path fill="none" stroke="black" d="M446.87,-577.18C478.7,-544.45 560.85,-465.82 647,-430.7 702.31,-408.15 877.41,-393.78 955.62,-388.33"/>
<polygon fill="black" stroke="black" points="955.62,-391.84 965.36,-387.66 955.14,-384.85 955.62,-391.84"/>
<text xml:space="preserve" text-anchor="middle" x="583.45" y="-489.13" font-family="Times,serif" font-size="14.00">0</text>
</g>
<!-- 23&#45;&gt;28 -->
<g id="edge109" class="edge">
<title>23&#45;&gt;28</title>
<path fill="none" stroke="black" d="M458.91,-587.54C550.84,-572.07 861.69,-519.76 971.33,-501.31"/>
<polygon fill="black" stroke="black" points="971.72,-504.79 981,-499.68 970.56,-497.89 971.72,-504.79"/>
<text xml:space="preserve" text-anchor="middle" x="743.3" y="-543.6" font-family="Times,serif" font-size="14.00">1</text>
</g>
<!-- 23&#45;&gt;29 -->
<g id="edge40" class="edge">
<title>23&#45;&gt;29</title>
<path fill="none" stroke="black" d="M413.03,-605.26C390.51,-619.73 357,-647 357,-681.15 357,-906.28 357,-906.28 357,-906.28 357,-1051.18 303.42,-1413.2 258,-1550.8 223.95,-1653.96 176.75,-1663.43 144,-1767 95.45,-1920.55 98,-1965.37 98,-2126.4 98,-2400.15 98,-2400.15 98,-2400.15 98,-2478.05 186.95,-2444.94 264,-2456.4 433.16,-2481.58 1688.43,-2489.85 1926.19,-2491.2"/>
<polygon fill="black" stroke="black" points="1926.13,-2494.7 1936.15,-2491.25 1926.17,-2487.7 1926.13,-2494.7"/>
<text xml:space="preserve" text-anchor="middle" x="278.22" y="-1518.28" font-family="Times,serif" font-size="14.00">2</text>
</g>
<!-- 24&#45;&gt;4 -->
<g id="edge30" class="edge">
<title>24&#45;&gt;4</title>
<path fill="none" stroke="black" d="M2019.34,-1165.95C2016.34,-1185.4 2013,-1212.43 2013,-1236.35 2013,-1380.23 2013,-1380.23 2013,-1380.23 2013,-1467.48 2006,-1489.17 2006,-1576.43 2006,-1776.63 2006,-1776.63 2006,-1776.63 2006,-1918.15 1915,-1940.25 1915,-2081.78 1915,-2306.9 1915,-2306.9 1915,-2306.9 1915,-2371.86 1414.23,-2392.7 1278.56,-2397.16"/>
<polygon fill="black" stroke="black" points="1278.69,-2393.65 1268.8,-2397.47 1278.91,-2400.65 1278.69,-2393.65"/>
<text xml:space="preserve" text-anchor="middle" x="2010.5" y="-1770.95" font-family="Times,serif" font-size="14.00">2</text>
</g>
<!-- 24&#45;&gt;7 -->
<g id="edge94" class="edge">
<title>24&#45;&gt;7</title>
<path fill="none" stroke="black" d="M1997.21,-1129.14C1931.85,-1109.47 1758.9,-1058.14 1613,-1021.15 1577.67,-1012.19 1565.77,-1019.1 1533,-1003.15 1517.58,-995.65 1502.61,-983.76 1491.03,-973.22"/>
<polygon fill="black" stroke="black" points="1493.65,-970.88 1483.98,-966.55 1488.84,-975.97 1493.65,-970.88"/>
<text xml:space="preserve" text-anchor="middle" x="1749.89" y="-1034.48" font-family="Times,serif" font-size="14.00">4</text>
</g>
<!-- 24&#45;&gt;10 -->
<g id="edge32" class="edge">
<title>24&#45;&gt;10</title>
<path fill="none" stroke="black" d="M1996.25,-1140.81C1932.11,-1145.31 1769.87,-1161.95 1649,-1219.35 1614.14,-1235.91 1607.51,-1245.31 1581,-1273.35 1576.72,-1277.88 1327.17,-1636.56 1322,-1640.05 1236.85,-1697.58 1196.42,-1667.32 1097,-1693.3 945.27,-1732.95 765.97,-1786.33 691.79,-1808.7"/>
<polygon fill="black" stroke="black" points="691.23,-1805.21 682.67,-1811.45 693.25,-1811.91 691.23,-1805.21"/>
<text xml:space="preserve" text-anchor="middle" x="1453.7" y="-1463.8" font-family="Times,serif" font-size="14.00">3</text>
</g>
<!-- 24&#45;&gt;12 -->
<g id="edge15" class="edge">
<title>24&#45;&gt;12</title>
<path fill="none" stroke="black" d="M2051.68,-1133.39C2097.71,-1125.24 2185,-1101.68 2185,-1040.15 2185,-1040.15 2185,-1040.15 2185,-725.78 2185,-480.96 2114.82,-333.5 1879,-267.75 1375.17,-127.29 731.74,-110.49 569.47,-108.51"/>
<polygon fill="black" stroke="black" points="569.75,-105.01 559.71,-108.4 569.67,-112.01 569.75,-105.01"/>
<text xml:space="preserve" text-anchor="middle" x="2186.58" y="-632.85" font-family="Times,serif" font-size="14.00">0</text>
</g>
<!-- 24&#45;&gt;15 -->
<g id="edge64" class="edge">
<title>24&#45;&gt;15</title>
<path fill="none" stroke="black" d="M2020.66,-1110.2C2019.06,-1097.31 2017.16,-1081.89 2015.54,-1068.8"/>
<polygon fill="black" stroke="black" points="2019.04,-1068.57 2014.34,-1059.08 2012.09,-1069.43 2019.04,-1068.57"/>
<text xml:space="preserve" text-anchor="middle" x="2022.86" y="-1079.1" font-family="Times,serif" font-size="14.00">1</text>
</g>
<!-- 25&#45;&gt;9 -->
<g id="edge17" class="edge">
<title>25&#45;&gt;9</title>
<path fill="none" stroke="black" d="M1145.96,-1519.24C1084.65,-1513.15 934.11,-1497.33 809,-1477.1 728.84,-1464.14 635.73,-1444.24 585.56,-1433.11"/>
<polygon fill="black" stroke="black" points="586.35,-1429.7 575.82,-1430.94 584.82,-1436.54 586.35,-1429.7"/>
<text xml:space="preserve" text-anchor="middle" x="813.5" y="-1463.8" font-family="Times,serif" font-size="14.00">0</text>
</g>
<!-- 25&#45;&gt;15 -->
<g id="edge9" class="edge">
<title>25&#45;&gt;15</title>
<path fill="none" stroke="black" d="M1201.01,-1515.14C1241.19,-1504.16 1317.98,-1479.86 1374,-1441.85 1459.46,-1383.87 1455.32,-1340.25 1534,-1273.35 1587.67,-1227.72 1602.15,-1215.92 1665,-1184.1 1686.45,-1173.24 1693.6,-1174.81 1716,-1166.1 1812.91,-1128.43 1925.41,-1078.94 1979.58,-1054.74"/>
<polygon fill="black" stroke="black" points="1980.84,-1058.01 1988.54,-1050.73 1977.98,-1051.62 1980.84,-1058.01"/>
<text xml:space="preserve" text-anchor="middle" x="1538.5" y="-1277.3" font-family="Times,serif" font-size="14.00">2</text>
</g>
<!-- 25&#45;&gt;16 -->
<g id="edge14" class="edge">
<title>25&#45;&gt;16</title>
<path fill="none" stroke="black" d="M1181.15,-1496.02C1182.63,-1489.86 1184.03,-1483.28 1185,-1477.1 1247.86,-1076.15 1151,-941.08 1326,-574.9 1376.27,-469.72 1383.54,-432.92 1472,-357 1505.97,-327.85 1554.08,-308.18 1586.58,-297.23"/>
<polygon fill="black" stroke="black" points="1587.51,-300.61 1595.94,-294.19 1585.34,-293.96 1587.51,-300.61"/>
<text xml:space="preserve" text-anchor="middle" x="1227.84" y="-900.6" font-family="Times,serif" font-size="14.00">4</text>
</g>
<!-- 25&#45;&gt;16 -->
<g id="edge82" class="edge">
<title>25&#45;&gt;16</title>
<path fill="none" stroke="black" d="M1189.01,-1499.39C1193.08,-1492.47 1197.14,-1484.68 1200,-1477.1 1205.64,-1462.16 1204.6,-1457.64 1207,-1441.85 1225.33,-1321.4 1226.93,-1012.39 1265,-896.65 1307.16,-768.47 1540.44,-410.28 1605.28,-311.98"/>
<polygon fill="black" stroke="black" points="1608.09,-314.08 1610.68,-303.81 1602.25,-310.22 1608.09,-314.08"/>
<text xml:space="preserve" text-anchor="middle" x="1269.5" y="-900.6" font-family="Times,serif" font-size="14.00">3</text>
</g>
<!-- 25&#45;&gt;23 -->
<g id="edge124" class="edge">
<title>25&#45;&gt;23</title>
<path fill="none" stroke="black" d="M1150.43,-1507.22C1126.83,-1490.45 1094,-1460.67 1094,-1424.85 1094,-1424.85 1094,-1424.85 1094,-1191.73 1094,-872.72 836.89,-876.41 571,-700.15 529.74,-672.8 484.82,-636.99 457.79,-614.71"/>
<polygon fill="black" stroke="black" points="460.11,-612.09 450.18,-608.4 455.64,-617.48 460.11,-612.09"/>
<text xml:space="preserve" text-anchor="middle" x="1078.22" y="-1034.48" font-family="Times,serif" font-size="14.00">1</text>
</g>
<!-- 26&#45;&gt;3 -->
<g id="edge65" class="edge">
<title>26&#45;&gt;3</title>
<path fill="none" stroke="black" d="M1287.37,-1640.31C1293.25,-1714.28 1316.36,-2005.08 1323.73,-2097.82"/>
<polygon fill="black" stroke="black" points="1320.22,-2097.88 1324.5,-2107.57 1327.2,-2097.32 1320.22,-2097.88"/>
<text xml:space="preserve" text-anchor="middle" x="1310.21" y="-1860.2" font-family="Times,serif" font-size="14.00">4</text>
</g>
<!-- 26&#45;&gt;4 -->
<g id="edge7" class="edge">
<title>26&#45;&gt;4</title>
<path fill="none" stroke="black" d="M1311.42,-1628.41C1331.48,-1633.55 1359.42,-1642.83 1380,-1658.05 1395.87,-1669.79 1396.21,-1676.78 1407,-1693.3 1527.78,-1878.37 1693.6,-1939.24 1614,-2145.4 1556.82,-2293.5 1355.63,-2366.25 1276.91,-2389.55"/>
<polygon fill="black" stroke="black" points="1276.31,-2386.08 1267.67,-2392.21 1278.25,-2392.81 1276.31,-2386.08"/>
<text xml:space="preserve" text-anchor="middle" x="1639.33" y="-2023.63" font-family="Times,serif" font-size="14.00">0</text>
</g>
<!-- 26&#45;&gt;8 -->
<g id="edge145" class="edge">
<title>26&#45;&gt;8</title>
<path fill="none" stroke="black" d="M1259.56,-1617.59C1192.36,-1608.8 1020.31,-1586.27 1020,-1586.05 967.83,-1549.84 983.98,-1515.29 953,-1459.85 926.03,-1411.59 907.46,-1405.06 890,-1352.6 857.81,-1255.86 891.84,-983.84 839,-896.65 834.2,-888.73 826.85,-882.21 819.17,-877.04"/>
<polygon fill="black" stroke="black" points="821.11,-874.12 810.73,-871.97 817.51,-880.12 821.11,-874.12"/>
<text xml:space="preserve" text-anchor="middle" x="880.5" y="-1232.68" font-family="Times,serif" font-size="14.00">2</text>
</g>
<!-- 26&#45;&gt;20 -->
<g id="edge75" class="edge">
<title>26&#45;&gt;20</title>
<path fill="none" stroke="black" d="M1300.48,-1606.64C1329.1,-1578.22 1395.09,-1513.1 1452,-1459.85 1503.99,-1411.21 1532.49,-1412.49 1571,-1352.6 1590.97,-1321.54 1570.59,-1300.15 1596,-1273.35 1611.68,-1256.82 1622.81,-1263.72 1644,-1255.35 1646.63,-1254.31 1649.36,-1253.22 1652.09,-1252.11"/>
<polygon fill="black" stroke="black" points="1653.18,-1255.45 1661.1,-1248.42 1650.52,-1248.97 1653.18,-1255.45"/>
<text xml:space="preserve" text-anchor="middle" x="1526.86" y="-1419.18" font-family="Times,serif" font-size="14.00">3</text>
</g>
<!-- 26&#45;&gt;25 -->
<g id="edge98" class="edge">
<title>26&#45;&gt;25</title>
<path fill="none" stroke="black" d="M1269.95,-1607.14C1252.59,-1592.09 1224.55,-1567.77 1203.25,-1549.31"/>
<polygon fill="black" stroke="black" points="1205.58,-1546.69 1195.73,-1542.79 1200.99,-1551.98 1205.58,-1546.69"/>
<text xml:space="preserve" text-anchor="middle" x="1247.83" y="-1572.75" font-family="Times,serif" font-size="14.00">1</text>
</g>
<!-- 27&#45;&gt;10 -->
<g id="edge140" class="edge">
<title>27&#45;&gt;10</title>
<path fill="none" stroke="black" d="M2076.82,-1917.04C1973.28,-1912.17 1604.08,-1894.33 1300,-1873.5 1070.22,-1857.77 794.69,-1833.6 695.18,-1824.7"/>
<polygon fill="black" stroke="black" points="695.71,-1821.23 685.44,-1823.82 695.09,-1828.2 695.71,-1821.23"/>
<text xml:space="preserve" text-anchor="middle" x="1304.5" y="-1860.2" font-family="Times,serif" font-size="14.00">2</text>
</g>
<!-- 27&#45;&gt;11 -->
<g id="edge31" class="edge">
<title>27&#45;&gt;11</title>
<path fill="none" stroke="black" d="M2132.56,-1913.37C2157.38,-1907.6 2193.48,-1895.88 2217,-1873.5 2235.51,-1855.89 2241,-1846.81 2241,-1821.25 2241,-1821.25 2241,-1821.25 2241,-1467.48 2241,-1091.93 2176.18,-983.76 1979,-664.15 1905.25,-544.62 1877.9,-515.59 1766,-430.7 1749.9,-418.49 1729.98,-408.09 1713.06,-400.38"/>
<polygon fill="black" stroke="black" points="1714.92,-397.38 1704.36,-396.55 1712.1,-403.79 1714.92,-397.38"/>
<text xml:space="preserve" text-anchor="middle" x="2221.93" y="-1133.58" font-family="Times,serif" font-size="14.00">4</text>
</g>
<!-- 27&#45;&gt;23 -->
<g id="edge76" class="edge">
<title>27&#45;&gt;23</title>
<path fill="none" stroke="black" d="M2125.31,-1899.63C2142.72,-1881.46 2165,-1852.17 2165,-1821.25 2165,-1821.25 2165,-1821.25 2165,-1378.23 2165,-1211.22 2170.88,-1134.24 2048,-1021.15 2002.97,-979.71 1065.41,-678.83 1006,-664.15 808.85,-615.45 564.83,-599.83 471.64,-595.44"/>
<polygon fill="black" stroke="black" points="471.93,-591.95 461.78,-594.99 471.61,-598.94 471.93,-591.95"/>
<text xml:space="preserve" text-anchor="middle" x="2167.87" y="-1232.68" font-family="Times,serif" font-size="14.00">1</text>
</g>
<!-- 27&#45;&gt;24 -->
<g id="edge88" class="edge">
<title>27&#45;&gt;24</title>
<path fill="none" stroke="black" d="M2098.31,-1892.17C2093.92,-1872.74 2089,-1845.51 2089,-1821.25 2089,-1821.25 2089,-1821.25 2089,-1665.68 2089,-1538.81 2089,-1507.09 2089,-1380.23 2089,-1380.23 2089,-1380.23 2089,-1236.35 2089,-1208.56 2070.38,-1182.7 2053.07,-1164.67"/>
<polygon fill="black" stroke="black" points="2055.93,-1162.57 2046.36,-1158.02 2051,-1167.54 2055.93,-1162.57"/>
<text xml:space="preserve" text-anchor="middle" x="2093.5" y="-1518.28" font-family="Times,serif" font-size="14.00">3</text>
</g>
<!-- 27&#45;&gt;29 -->
<g id="edge24" class="edge">
<title>27&#45;&gt;29</title>
<path fill="none" stroke="black" d="M2105,-1947.61C2105,-1969.22 2105,-2000.2 2105,-2027.3 2105,-2217.65 2105,-2217.65 2105,-2217.65 2105,-2282.55 2097.68,-2300.94 2069,-2359.15 2047.87,-2402.05 2011.24,-2444.16 1987.57,-2468.95"/>
<polygon fill="black" stroke="black" points="1985.29,-2466.27 1980.84,-2475.89 1990.32,-2471.15 1985.29,-2466.27"/>
<text xml:space="preserve" text-anchor="middle" x="2109.5" y="-2211.98" font-family="Times,serif" font-size="14.00">0</text>
</g>
<!-- 28&#45;&gt;10 -->
<g id="edge5" class="edge">
<title>28&#45;&gt;10</title>
<path fill="none" stroke="black" d="M984.12,-504.86C881.53,-545.54 509,-701.09 509,-815.03 509,-995.53 509,-995.53 509,-995.53 509,-1051.94 543.61,-1061.8 591,-1092.4 615.46,-1108.2 636.46,-1087.15 654,-1110.4 670.52,-1132.3 643.34,-1576.62 643,-1604.05 641.99,-1684.14 627.85,-1705.61 643,-1784.25 643.51,-1786.91 644.22,-1789.62 645.06,-1792.3"/>
<polygon fill="black" stroke="black" points="641.7,-1793.32 648.45,-1801.49 648.27,-1790.9 641.7,-1793.32"/>
<text xml:space="preserve" text-anchor="middle" x="663.7" y="-1133.58" font-family="Times,serif" font-size="14.00">1</text>
</g>
<!-- 28&#45;&gt;11 -->
<g id="edge141" class="edge">
<title>28&#45;&gt;11</title>
<path fill="none" stroke="black" d="M1035.9,-482.5C1051.36,-476.75 1071.53,-469.96 1090,-465.95 1165.11,-449.62 1185.75,-457.64 1262,-447.95 1400.91,-430.3 1565.19,-404.14 1638.42,-392.21"/>
<polygon fill="black" stroke="black" points="1638.58,-395.73 1647.88,-390.66 1637.45,-388.82 1638.58,-395.73"/>
<text xml:space="preserve" text-anchor="middle" x="1392.21" y="-434.65" font-family="Times,serif" font-size="14.00">0</text>
</g>
<!-- 28&#45;&gt;19 -->
<g id="edge107" class="edge">
<title>28&#45;&gt;19</title>
<path fill="none" stroke="black" d="M991.98,-472.31C986.74,-465.1 981.71,-456.63 979,-447.95 975.47,-436.63 977.5,-423.94 981.07,-413"/>
<polygon fill="black" stroke="black" points="984.29,-414.36 984.62,-403.77 977.76,-411.84 984.29,-414.36"/>
<text xml:space="preserve" text-anchor="middle" x="983.5" y="-434.65" font-family="Times,serif" font-size="14.00">3</text>
</g>
<!-- 28&#45;&gt;22 -->
<g id="edge104" class="edge">
<title>28&#45;&gt;22</title>
<path fill="none" stroke="black" d="M1012.35,-521.82C1016.9,-574.05 1026.86,-688.42 1031.51,-741.84"/>
<polygon fill="black" stroke="black" points="1028.01,-741.99 1032.37,-751.65 1034.99,-741.39 1028.01,-741.99"/>
<text xml:space="preserve" text-anchor="middle" x="1027.61" y="-632.85" font-family="Times,serif" font-size="14.00">2</text>
</g>
<!-- 28&#45;&gt;25 -->
<g id="edge13" class="edge">
<title>28&#45;&gt;25</title>
<path fill="none" stroke="black" d="M1023.55,-518.57C1041.04,-550.54 1070.92,-609.67 1085,-664.15 1099.72,-721.13 1132,-1132.88 1132,-1191.73 1132,-1424.85 1132,-1424.85 1132,-1424.85 1132,-1447.84 1142.04,-1471.55 1152.3,-1489.79"/>
<polygon fill="black" stroke="black" points="1149.23,-1491.48 1157.35,-1498.28 1155.24,-1487.9 1149.23,-1491.48"/>
<text xml:space="preserve" text-anchor="middle" x="1124.54" y="-989.85" font-family="Times,serif" font-size="14.00">4</text>
</g>
<!-- 29&#45;&gt;4 -->
<g id="edge89" class="edge">
<title>29&#45;&gt;4</title>
<path fill="none" stroke="black" d="M1938.52,-2488.05C1827.66,-2474 1400.92,-2419.91 1278.19,-2404.36"/>
<polygon fill="black" stroke="black" points="1278.83,-2400.91 1268.47,-2403.13 1277.95,-2407.86 1278.83,-2400.91"/>
<text xml:space="preserve" text-anchor="middle" x="1673.99" y="-2443.1" font-family="Times,serif" font-size="14.00">2</text>
</g>
<!-- 29&#45;&gt;13 -->
<g id="edge63" class="edge">
<title>29&#45;&gt;13</title>
<path fill="none" stroke="black" d="M1937.83,-2491.52C1711.18,-2492.28 143,-2494.18 143,-2400.15 143,-2400.15 143,-2400.15 143,-2260.28 143,-2128.7 106.17,-2081.88 167,-1965.2 225.73,-1852.56 361.51,-1772.26 425.9,-1739.08"/>
<polygon fill="black" stroke="black" points="427.28,-1742.31 434.62,-1734.66 424.12,-1736.06 427.28,-1742.31"/>
<text xml:space="preserve" text-anchor="middle" x="139.55" y="-2122.73" font-family="Times,serif" font-size="14.00">0</text>
</g>
<!-- 29&#45;&gt;15 -->
<g id="edge66" class="edge">
<title>29&#45;&gt;15</title>
<path fill="none" stroke="black" d="M1992.04,-2489.38C2068.21,-2482.92 2279,-2459.69 2279,-2400.15 2279,-2400.15 2279,-2400.15 2279,-1467.48 2279,-1387.16 2274.9,-1171.7 2223,-1110.4 2179.88,-1059.47 2098.8,-1045.29 2050.67,-1041.45"/>
<polygon fill="black" stroke="black" points="2050.91,-1037.96 2040.7,-1040.78 2050.44,-1044.94 2050.91,-1037.96"/>
<text xml:space="preserve" text-anchor="middle" x="2283.5" y="-1770.95" font-family="Times,serif" font-size="14.00">3</text>
</g>
<!-- 29&#45;&gt;23 -->
<g id="edge59" class="edge">
<title>29&#45;&gt;23</title>
<path fill="none" stroke="black" d="M1937.61,-2491.53C1714,-2492.46 194.41,-2497.25 108,-2456.4 78.29,-2442.36 60,-2433.02 60,-2400.15 60,-2400.15 60,-2400.15 60,-1665.68 60,-1546.91 162.12,-1552.22 206,-1441.85 310.27,-1179.62 319,-1099.23 319,-817.03 319,-817.03 319,-817.03 319,-681.15 319,-641.07 363.99,-616.91 397.44,-604.49"/>
<polygon fill="black" stroke="black" points="398.54,-607.82 406.83,-601.22 396.24,-601.21 398.54,-607.82"/>
<text xml:space="preserve" text-anchor="middle" x="178.96" y="-1518.28" font-family="Times,serif" font-size="14.00">1</text>
</g>
<!-- 29&#45;&gt;26 -->
<g id="edge100" class="edge">
<title>29&#45;&gt;26</title>
<path fill="none" stroke="black" d="M1987.14,-2481.63C2009.37,-2470.5 2042.5,-2450.04 2058,-2421.15 2112.76,-2319.13 2077.73,-2263.78 2020,-2163.4 1964.67,-2067.21 2261.06,-2298.24 1562,-1767 1493.5,-1714.95 1479.64,-1695.12 1402,-1658.05 1376.67,-1645.96 1346.22,-1636.96 1322.88,-1631.12"/>
<polygon fill="black" stroke="black" points="1323.73,-1627.72 1313.19,-1628.78 1322.09,-1634.53 1323.73,-1627.72"/>
<text xml:space="preserve" text-anchor="middle" x="1991.76" y="-2078.1" font-family="Times,serif" font-size="14.00">4</text>
</g>
</g>
</svg>
