<?xml version="1.0" encoding="UTF-8" standalone="no"?>
<!DOCTYPE svg PUBLIC "-//W3C//DTD SVG 1.1//EN"
 "http://www.w3.org/Graphics/SVG/1.1/DTD/svg11.dtd">
<!-- Generated by graphviz version 2.49.0 (20210829.0051)
 -->
<!-- Pages: 1 -->
<svg width="2604pt" height="2322pt"
 viewBox="0.00 0.00 2604.10 2322.47" xmlns="http://www.w3.org/2000/svg" xmlns:xlink="http://www.w3.org/1999/xlink">
<g id="graph0" class="graph" transform="scale(1 1) rotate(0) translate(4 2318.47)">
<polygon fill="white" stroke="transparent" points="-4,4 -4,-2318.47 2600.1,-2318.47 2600.1,4 -4,4"/>
<!-- fake -->
<g id="node1" class="node">
<title>fake</title>
</g>
<!-- 0 -->
<g id="node2" class="node">
<title>0</title>
<ellipse fill="none" stroke="black" cx="794.1" cy="-2219.47" rx="18" ry="18"/>
<ellipse fill="none" stroke="black" cx="794.1" cy="-2219.47" rx="22" ry="22"/>
<text text-anchor="middle" x="794.1" y="-2215.77" font-family="Times,serif" font-size="14.00">0</text>
</g>
<!-- fake&#45;&gt;0 -->
<g id="edge1" class="edge">
<title>fake&#45;&gt;0</title>
<path fill="none" stroke="black" stroke-width="2" d="M794.1,-2278.45C794.1,-2270.63 794.1,-2261.08 794.1,-2252.01"/>
<polygon fill="black" stroke="black" stroke-width="2" points="797.6,-2251.72 794.1,-2241.72 790.6,-2251.72 797.6,-2251.72"/>
</g>
<!-- 4 -->
<g id="node6" class="node">
<title>4</title>
<ellipse fill="none" stroke="black" cx="1196.1" cy="-2128.47" rx="27" ry="18"/>
<text text-anchor="middle" x="1196.1" y="-2124.77" font-family="Times,serif" font-size="14.00">4</text>
</g>
<!-- 0&#45;&gt;4 -->
<g id="edge56" class="edge">
<title>0&#45;&gt;4</title>
<path fill="none" stroke="black" d="M815.85,-2215.86C857.81,-2210.62 952.71,-2197.71 1031.1,-2179.47 1077.47,-2168.68 1129.91,-2152 1162.98,-2140.91"/>
<polygon fill="black" stroke="black" points="1164.24,-2144.18 1172.59,-2137.66 1162,-2137.55 1164.24,-2144.18"/>
<text text-anchor="middle" x="1091.1" y="-2168.27" font-family="Times,serif" font-size="14.00">1</text>
</g>
<!-- 7 -->
<g id="node9" class="node">
<title>7</title>
<ellipse fill="none" stroke="black" cx="710.1" cy="-400.99" rx="27" ry="18"/>
<text text-anchor="middle" x="710.1" y="-397.29" font-family="Times,serif" font-size="14.00">7</text>
</g>
<!-- 0&#45;&gt;7 -->
<g id="edge143" class="edge">
<title>0&#45;&gt;7</title>
<path fill="none" stroke="black" d="M771.84,-2219.03C678.83,-2220.79 326.1,-2221.38 326.1,-2129.47 326.1,-2129.47 326.1,-2129.47 326.1,-1732.98 326.1,-1671.38 350.1,-1658.07 350.1,-1596.48 350.1,-1596.48 350.1,-1596.48 350.1,-1251.48 350.1,-1151.87 372.23,-1127.91 408.1,-1034.98 430.14,-977.87 447.19,-968.85 471.1,-912.49 542.33,-744.61 474.52,-653.31 603.1,-523.99 620.34,-506.65 635.56,-520.7 655.1,-505.99 680.4,-486.94 695.23,-452.82 702.99,-428.86"/>
<polygon fill="black" stroke="black" points="706.43,-429.57 705.98,-418.98 699.73,-427.54 706.43,-429.57"/>
<text text-anchor="middle" x="355.1" y="-1292.28" font-family="Times,serif" font-size="14.00">4</text>
</g>
<!-- 10 -->
<g id="node12" class="node">
<title>10</title>
<ellipse fill="none" stroke="black" cx="591.1" cy="-487.99" rx="27" ry="18"/>
<text text-anchor="middle" x="591.1" y="-484.29" font-family="Times,serif" font-size="14.00">10</text>
</g>
<!-- 0&#45;&gt;10 -->
<g id="edge38" class="edge">
<title>0&#45;&gt;10</title>
<path fill="none" stroke="black" d="M771.99,-2218.14C677.21,-2216.57 305.04,-2208.63 192.1,-2179.47 142.44,-2166.65 88.1,-2180.76 88.1,-2129.47 88.1,-2129.47 88.1,-2129.47 88.1,-1112.98 88.1,-957.32 203.83,-955.35 276.1,-817.49 298.94,-773.91 291.72,-756.36 319.1,-715.49 385.82,-615.88 409.67,-590.98 509.1,-523.99 526.28,-512.42 533.05,-514.13 552.1,-505.99 554.62,-504.91 557.23,-503.79 559.86,-502.66"/>
<polygon fill="black" stroke="black" points="561.48,-505.77 569.26,-498.58 558.69,-499.35 561.48,-505.77"/>
<text text-anchor="middle" x="93.1" y="-1335.78" font-family="Times,serif" font-size="14.00">3</text>
</g>
<!-- 11 -->
<g id="node13" class="node">
<title>11</title>
<ellipse fill="none" stroke="black" cx="1918.1" cy="-1061.73" rx="22.96" ry="22.96"/>
<ellipse fill="none" stroke="black" cx="1918.1" cy="-1061.73" rx="27" ry="27"/>
<text text-anchor="middle" x="1918.1" y="-1058.03" font-family="Times,serif" font-size="14.00">11</text>
</g>
<!-- 0&#45;&gt;11 -->
<g id="edge123" class="edge">
<title>0&#45;&gt;11</title>
<path fill="none" stroke="black" d="M816.34,-2218.4C1006.08,-2217.68 2346.1,-2209.72 2346.1,-2129.47 2346.1,-2129.47 2346.1,-2129.47 2346.1,-1689.48 2346.1,-1637.62 2273.65,-1275.64 2242.1,-1234.48 2240.85,-1232.85 2032.18,-1122.83 1950.42,-1079.76"/>
<polygon fill="black" stroke="black" points="1952.03,-1076.65 1941.55,-1075.08 1948.77,-1082.84 1952.03,-1076.65"/>
<text text-anchor="middle" x="2348.1" y="-1639.28" font-family="Times,serif" font-size="14.00">2</text>
</g>
<!-- 26 -->
<g id="node28" class="node">
<title>26</title>
<ellipse fill="none" stroke="black" cx="2123.1" cy="-957.24" rx="22.96" ry="22.96"/>
<ellipse fill="none" stroke="black" cx="2123.1" cy="-957.24" rx="27" ry="27"/>
<text text-anchor="middle" x="2123.1" y="-953.54" font-family="Times,serif" font-size="14.00">26</text>
</g>
<!-- 0&#45;&gt;26 -->
<g id="edge95" class="edge">
<title>0&#45;&gt;26</title>
<path fill="none" stroke="black" d="M816.27,-2218.52C1016,-2218.8 2498.1,-2217.88 2498.1,-2129.47 2498.1,-2129.47 2498.1,-2129.47 2498.1,-1689.48 2498.1,-1419.45 2517.54,-1297.91 2327.1,-1106.48 2272.87,-1051.97 2197.05,-1002.49 2154.77,-976.78"/>
<polygon fill="black" stroke="black" points="2156.4,-973.68 2146.03,-971.52 2152.79,-979.68 2156.4,-973.68"/>
<text text-anchor="middle" x="2503.1" y="-1591.78" font-family="Times,serif" font-size="14.00">0</text>
</g>
<!-- 1 -->
<g id="node3" class="node">
<title>1</title>
<ellipse fill="none" stroke="black" cx="1579.1" cy="-857.49" rx="18" ry="18"/>
<ellipse fill="none" stroke="black" cx="1579.1" cy="-857.49" rx="22" ry="22"/>
<text text-anchor="middle" x="1579.1" y="-853.79" font-family="Times,serif" font-size="14.00">1</text>
</g>
<!-- 1&#45;&gt;1 -->
<g id="edge120" class="edge">
<title>1&#45;&gt;1</title>
<path fill="none" stroke="black" d="M1599.68,-865.86C1609.94,-867.02 1619.1,-864.23 1619.1,-857.49 1619.1,-853.17 1615.34,-850.47 1609.94,-849.4"/>
<polygon fill="black" stroke="black" points="1609.77,-845.89 1599.68,-849.12 1609.58,-852.89 1609.77,-845.89"/>
<text text-anchor="middle" x="1624.1" y="-853.79" font-family="Times,serif" font-size="14.00">3</text>
</g>
<!-- 12 -->
<g id="node14" class="node">
<title>12</title>
<ellipse fill="none" stroke="black" cx="2351.1" cy="-766.49" rx="27" ry="18"/>
<text text-anchor="middle" x="2351.1" y="-762.79" font-family="Times,serif" font-size="14.00">12</text>
</g>
<!-- 1&#45;&gt;12 -->
<g id="edge71" class="edge">
<title>1&#45;&gt;12</title>
<path fill="none" stroke="black" d="M1600.58,-852.04C1621.22,-847.77 1653.28,-841.15 1681.1,-835.49 1753.95,-820.66 1771.41,-812.41 1845.1,-802.49 2019.59,-779 2230.19,-770.85 2314.04,-768.41"/>
<polygon fill="black" stroke="black" points="2314.2,-771.91 2324.09,-768.13 2314,-764.91 2314.2,-771.91"/>
<text text-anchor="middle" x="1850.1" y="-806.29" font-family="Times,serif" font-size="14.00">1</text>
</g>
<!-- 14 -->
<g id="node16" class="node">
<title>14</title>
<ellipse fill="none" stroke="black" cx="1585.1" cy="-1252.48" rx="27" ry="18"/>
<text text-anchor="middle" x="1585.1" y="-1248.78" font-family="Times,serif" font-size="14.00">14</text>
</g>
<!-- 1&#45;&gt;14 -->
<g id="edge68" class="edge">
<title>1&#45;&gt;14</title>
<path fill="none" stroke="black" d="M1592.31,-875.38C1596.63,-881.91 1600.89,-889.69 1603.1,-897.49 1620.43,-958.73 1598,-1152.17 1588.75,-1224.15"/>
<polygon fill="black" stroke="black" points="1585.25,-1223.87 1587.43,-1234.24 1592.19,-1224.77 1585.25,-1223.87"/>
<text text-anchor="middle" x="1612.1" y="-1058.03" font-family="Times,serif" font-size="14.00">4</text>
</g>
<!-- 1&#45;&gt;14 -->
<g id="edge97" class="edge">
<title>1&#45;&gt;14</title>
<path fill="none" stroke="black" d="M1579.43,-879.92C1580.44,-946.5 1583.54,-1149.74 1584.68,-1223.97"/>
<polygon fill="black" stroke="black" points="1581.18,-1224.4 1584.84,-1234.34 1588.18,-1224.29 1581.18,-1224.4"/>
<text text-anchor="middle" x="1587.1" y="-1058.03" font-family="Times,serif" font-size="14.00">0</text>
</g>
<!-- 15 -->
<g id="node17" class="node">
<title>15</title>
<ellipse fill="none" stroke="black" cx="1391.1" cy="-1733.98" rx="27" ry="18"/>
<text text-anchor="middle" x="1391.1" y="-1730.28" font-family="Times,serif" font-size="14.00">15</text>
</g>
<!-- 1&#45;&gt;15 -->
<g id="edge116" class="edge">
<title>1&#45;&gt;15</title>
<path fill="none" stroke="black" d="M1568.79,-877.04C1534.9,-939.8 1429.1,-1150.77 1429.1,-1338.48 1429.1,-1643.98 1429.1,-1643.98 1429.1,-1643.98 1429.1,-1667.22 1418,-1691.34 1407.79,-1708.6"/>
<polygon fill="black" stroke="black" points="1404.61,-1707.09 1402.29,-1717.43 1410.55,-1710.79 1404.61,-1707.09"/>
<text text-anchor="middle" x="1436.1" y="-1292.28" font-family="Times,serif" font-size="14.00">2</text>
</g>
<!-- 2 -->
<g id="node4" class="node">
<title>2</title>
<ellipse fill="none" stroke="black" cx="1340.1" cy="-1915.98" rx="27" ry="18"/>
<text text-anchor="middle" x="1340.1" y="-1912.28" font-family="Times,serif" font-size="14.00">2</text>
</g>
<!-- 3 -->
<g id="node5" class="node">
<title>3</title>
<ellipse fill="none" stroke="black" cx="663.1" cy="-1824.98" rx="18" ry="18"/>
<ellipse fill="none" stroke="black" cx="663.1" cy="-1824.98" rx="22" ry="22"/>
<text text-anchor="middle" x="663.1" y="-1821.28" font-family="Times,serif" font-size="14.00">3</text>
</g>
<!-- 2&#45;&gt;3 -->
<g id="edge69" class="edge">
<title>2&#45;&gt;3</title>
<path fill="none" stroke="black" d="M1313.56,-1911.49C1207,-1897.48 810.42,-1845.34 694.88,-1830.15"/>
<polygon fill="black" stroke="black" points="695.27,-1826.67 684.9,-1828.84 694.36,-1833.62 695.27,-1826.67"/>
<text text-anchor="middle" x="1068.1" y="-1868.78" font-family="Times,serif" font-size="14.00">2</text>
</g>
<!-- 2&#45;&gt;12 -->
<g id="edge51" class="edge">
<title>2&#45;&gt;12</title>
<path fill="none" stroke="black" d="M1366.65,-1912.39C1465.31,-1901.72 1817.16,-1854.02 2052.1,-1697.98 2107.04,-1661.49 2127.71,-1656.61 2166.1,-1602.98 2247.98,-1488.58 2389.1,-1151.17 2389.1,-1010.48 2389.1,-1010.48 2389.1,-1010.48 2389.1,-856.49 2389.1,-833.24 2378,-809.12 2367.79,-791.87"/>
<polygon fill="black" stroke="black" points="2370.55,-789.67 2362.29,-783.03 2364.61,-793.37 2370.55,-789.67"/>
<text text-anchor="middle" x="2311.1" y="-1335.78" font-family="Times,serif" font-size="14.00">4</text>
</g>
<!-- 2&#45;&gt;15 -->
<g id="edge150" class="edge">
<title>2&#45;&gt;15</title>
<path fill="none" stroke="black" d="M1344.9,-1898.04C1353.8,-1866.6 1372.96,-1799.01 1383.59,-1761.47"/>
<polygon fill="black" stroke="black" points="1386.99,-1762.31 1386.35,-1751.73 1380.26,-1760.4 1386.99,-1762.31"/>
<text text-anchor="middle" x="1376.1" y="-1821.28" font-family="Times,serif" font-size="14.00">1</text>
</g>
<!-- 2&#45;&gt;26 -->
<g id="edge23" class="edge">
<title>2&#45;&gt;26</title>
<path fill="none" stroke="black" d="M1365.24,-1909.1C1456,-1886.58 1769.86,-1797.1 1931.1,-1602.98 2010.25,-1507.68 2022.17,-1474.4 2063.1,-1357.48 2113.92,-1212.3 2111.26,-1170.18 2125.1,-1016.98 2125.77,-1009.58 2125.89,-1001.63 2125.73,-994.04"/>
<polygon fill="black" stroke="black" points="2129.23,-993.87 2125.36,-984.01 2122.23,-994.14 2129.23,-993.87"/>
<text text-anchor="middle" x="2049.1" y="-1431.53" font-family="Times,serif" font-size="14.00">0</text>
</g>
<!-- 27 -->
<g id="node29" class="node">
<title>27</title>
<ellipse fill="none" stroke="black" cx="1373.1" cy="-2041.47" rx="27" ry="18"/>
<text text-anchor="middle" x="1373.1" y="-2037.77" font-family="Times,serif" font-size="14.00">27</text>
</g>
<!-- 2&#45;&gt;27 -->
<g id="edge61" class="edge">
<title>2&#45;&gt;27</title>
<path fill="none" stroke="black" d="M1336.5,-1933.98C1333.41,-1952.32 1330.8,-1982.05 1340.1,-2005.47 1342.18,-2010.71 1345.46,-2015.62 1349.15,-2020.01"/>
<polygon fill="black" stroke="black" points="1346.67,-2022.48 1356.1,-2027.31 1351.74,-2017.65 1346.67,-2022.48"/>
<text text-anchor="middle" x="1345.1" y="-1975.02" font-family="Times,serif" font-size="14.00">3</text>
</g>
<!-- 3&#45;&gt;15 -->
<g id="edge79" class="edge">
<title>3&#45;&gt;15</title>
<path fill="none" stroke="black" d="M684.9,-1821.46C763.17,-1812.41 1037.23,-1780.53 1263.1,-1751.98 1293.98,-1748.07 1329.02,-1743.4 1354.63,-1739.94"/>
<polygon fill="black" stroke="black" points="1355.19,-1743.4 1364.63,-1738.59 1354.26,-1736.46 1355.19,-1743.4"/>
<text text-anchor="middle" x="1120.1" y="-1773.78" font-family="Times,serif" font-size="14.00">3</text>
</g>
<!-- 16 -->
<g id="node18" class="node">
<title>16</title>
<ellipse fill="none" stroke="black" cx="910.1" cy="-305.24" rx="22.96" ry="22.96"/>
<ellipse fill="none" stroke="black" cx="910.1" cy="-305.24" rx="27" ry="27"/>
<text text-anchor="middle" x="910.1" y="-301.54" font-family="Times,serif" font-size="14.00">16</text>
</g>
<!-- 3&#45;&gt;16 -->
<g id="edge141" class="edge">
<title>3&#45;&gt;16</title>
<path fill="none" stroke="black" d="M650.3,-1807.06C629.31,-1778.77 587.1,-1719.57 559.1,-1664.98 499.42,-1548.61 477.19,-1519.02 453.1,-1390.48 390.68,-1057.37 396.71,-956.46 482.1,-628.49 523.56,-469.24 574.49,-413.99 726.1,-349.99 726.97,-349.63 821.3,-327.27 874.53,-314.66"/>
<polygon fill="black" stroke="black" points="875.36,-318.06 884.28,-312.35 873.74,-311.25 875.36,-318.06"/>
<text text-anchor="middle" x="418.1" y="-1058.03" font-family="Times,serif" font-size="14.00">4</text>
</g>
<!-- 22 -->
<g id="node24" class="node">
<title>22</title>
<ellipse fill="none" stroke="black" cx="1106.1" cy="-487.99" rx="27" ry="18"/>
<text text-anchor="middle" x="1106.1" y="-484.29" font-family="Times,serif" font-size="14.00">22</text>
</g>
<!-- 3&#45;&gt;22 -->
<g id="edge89" class="edge">
<title>3&#45;&gt;22</title>
<path fill="none" stroke="black" d="M666.76,-1802.87C669.62,-1779.84 670.86,-1742.7 655.1,-1715.98 634.06,-1680.3 596.8,-1701.41 577.1,-1664.98 509.81,-1540.59 618.32,-1167.73 667.1,-1034.98 684.79,-986.84 687.94,-973.37 716.1,-930.49 719.97,-924.59 1006.8,-600.98 1086.02,-511.63"/>
<polygon fill="black" stroke="black" points="1088.81,-513.77 1092.82,-503.96 1083.57,-509.12 1088.81,-513.77"/>
<text text-anchor="middle" x="638.1" y="-1157.78" font-family="Times,serif" font-size="14.00">2</text>
</g>
<!-- 3&#45;&gt;26 -->
<g id="edge124" class="edge">
<title>3&#45;&gt;26</title>
<path fill="none" stroke="black" d="M685.22,-1823.71C822.02,-1821.76 1553.08,-1806.32 1743.1,-1697.98 1877.92,-1621.1 2022.29,-1230.84 2084.1,-1088.48 2097.5,-1057.6 2099.63,-1049.29 2109.1,-1016.98 2111.31,-1009.43 2113.43,-1001.25 2115.32,-993.47"/>
<polygon fill="black" stroke="black" points="2118.77,-994.08 2117.66,-983.54 2111.96,-992.47 2118.77,-994.08"/>
<text text-anchor="middle" x="1965.1" y="-1379.28" font-family="Times,serif" font-size="14.00">1</text>
</g>
<!-- 3&#45;&gt;27 -->
<g id="edge112" class="edge">
<title>3&#45;&gt;27</title>
<path fill="none" stroke="black" d="M660.47,-1846.99C656.98,-1885.39 656,-1966.49 703.1,-2005.47 727.76,-2025.89 1247.26,-2020.11 1279.1,-2023.47 1298.68,-2025.54 1320.31,-2029.34 1337.88,-2032.83"/>
<polygon fill="black" stroke="black" points="1337.21,-2036.27 1347.71,-2034.83 1338.61,-2029.41 1337.21,-2036.27"/>
<text text-anchor="middle" x="670.1" y="-1912.28" font-family="Times,serif" font-size="14.00">0</text>
</g>
<!-- 4&#45;&gt;0 -->
<g id="edge27" class="edge">
<title>4&#45;&gt;0</title>
<path fill="none" stroke="black" d="M1170.53,-2134.28C1136.39,-2140.78 1074.07,-2152.88 1021.1,-2164.47 950.76,-2179.87 868.66,-2199.92 825.04,-2210.74"/>
<polygon fill="black" stroke="black" points="824.18,-2207.34 815.32,-2213.15 825.87,-2214.14 824.18,-2207.34"/>
<text text-anchor="middle" x="1026.1" y="-2168.27" font-family="Times,serif" font-size="14.00">2</text>
</g>
<!-- 4&#45;&gt;2 -->
<g id="edge88" class="edge">
<title>4&#45;&gt;2</title>
<path fill="none" stroke="black" d="M1206.92,-2111.65C1231.95,-2075.07 1293.95,-1984.43 1323.68,-1940.97"/>
<polygon fill="black" stroke="black" points="1326.59,-1942.92 1329.35,-1932.69 1320.81,-1938.97 1326.59,-1942.92"/>
<text text-anchor="middle" x="1270.1" y="-2037.77" font-family="Times,serif" font-size="14.00">4</text>
</g>
<!-- 18 -->
<g id="node20" class="node">
<title>18</title>
<ellipse fill="none" stroke="black" cx="2152.1" cy="-1978.72" rx="22.96" ry="22.96"/>
<ellipse fill="none" stroke="black" cx="2152.1" cy="-1978.72" rx="27" ry="27"/>
<text text-anchor="middle" x="2152.1" y="-1975.02" font-family="Times,serif" font-size="14.00">18</text>
</g>
<!-- 4&#45;&gt;18 -->
<g id="edge70" class="edge">
<title>4&#45;&gt;18</title>
<path fill="none" stroke="black" d="M1223.25,-2127.04C1364.98,-2124.7 2014.94,-2112.87 2052.1,-2092.47 2084.85,-2074.5 2074.92,-2051.07 2100.1,-2023.47 2101.26,-2022.2 2112.22,-2012.95 2123.78,-2003.28"/>
<polygon fill="black" stroke="black" points="2126.34,-2005.71 2131.77,-1996.62 2121.85,-2000.34 2126.34,-2005.71"/>
<text text-anchor="middle" x="2075.1" y="-2081.27" font-family="Times,serif" font-size="14.00">0</text>
</g>
<!-- 4&#45;&gt;18 -->
<g id="edge137" class="edge">
<title>4&#45;&gt;18</title>
<path fill="none" stroke="black" d="M1223.34,-2127.38C1373.27,-2126.78 2092.59,-2122.34 2128.1,-2092.47 2149.9,-2074.13 2154.88,-2041.31 2155,-2015.8"/>
<polygon fill="black" stroke="black" points="2158.5,-2015.65 2154.8,-2005.72 2151.5,-2015.79 2158.5,-2015.65"/>
<text text-anchor="middle" x="2145.1" y="-2081.27" font-family="Times,serif" font-size="14.00">1</text>
</g>
<!-- 4&#45;&gt;27 -->
<g id="edge45" class="edge">
<title>4&#45;&gt;27</title>
<path fill="none" stroke="black" d="M1217.45,-2117.22C1248.54,-2102.29 1306.47,-2074.47 1342.22,-2057.3"/>
<polygon fill="black" stroke="black" points="1344.17,-2060.25 1351.67,-2052.76 1341.14,-2053.94 1344.17,-2060.25"/>
<text text-anchor="middle" x="1300.1" y="-2081.27" font-family="Times,serif" font-size="14.00">3</text>
</g>
<!-- 5 -->
<g id="node7" class="node">
<title>5</title>
<ellipse fill="none" stroke="black" cx="825.1" cy="-1642.98" rx="18" ry="18"/>
<ellipse fill="none" stroke="black" cx="825.1" cy="-1642.98" rx="22" ry="22"/>
<text text-anchor="middle" x="825.1" y="-1639.28" font-family="Times,serif" font-size="14.00">5</text>
</g>
<!-- 5&#45;&gt;0 -->
<g id="edge122" class="edge">
<title>5&#45;&gt;0</title>
<path fill="none" stroke="black" d="M803.68,-1649C767.63,-1658.15 693.56,-1679.98 640.1,-1715.98 532.19,-1788.63 509.1,-1847.64 509.1,-1977.72 509.1,-2129.47 509.1,-2129.47 509.1,-2129.47 509.1,-2181.97 687.49,-2207.11 762,-2215.32"/>
<polygon fill="black" stroke="black" points="761.89,-2218.82 772.21,-2216.41 762.64,-2211.86 761.89,-2218.82"/>
<text text-anchor="middle" x="519.1" y="-1912.28" font-family="Times,serif" font-size="14.00">4</text>
</g>
<!-- 5&#45;&gt;15 -->
<g id="edge29" class="edge">
<title>5&#45;&gt;15</title>
<path fill="none" stroke="black" d="M847.07,-1644.58C923.44,-1646.9 1176.8,-1656.47 1253.1,-1682.98 1264.63,-1686.98 1265.04,-1692.81 1276.1,-1697.98 1301.8,-1709.97 1332.62,-1719.09 1355.88,-1725.01"/>
<polygon fill="black" stroke="black" points="1355.12,-1728.43 1365.67,-1727.43 1356.8,-1721.63 1355.12,-1728.43"/>
<text text-anchor="middle" x="1281.1" y="-1686.78" font-family="Times,serif" font-size="14.00">2</text>
</g>
<!-- 5&#45;&gt;16 -->
<g id="edge118" class="edge">
<title>5&#45;&gt;16</title>
<path fill="none" stroke="black" d="M818.24,-1621.74C812.8,-1603.86 806.1,-1576.99 806.1,-1552.98 806.1,-1552.98 806.1,-1552.98 806.1,-1381.98 806.1,-1014.84 605.61,-888.16 764.1,-556.99 771.65,-541.21 812.38,-518.99 824.1,-505.99 855.38,-471.29 864.38,-461.8 883.1,-418.99 893.86,-394.36 900.75,-364.75 904.87,-342.05"/>
<polygon fill="black" stroke="black" points="908.32,-342.6 906.57,-332.15 901.42,-341.41 908.32,-342.6"/>
<text text-anchor="middle" x="738.1" y="-953.54" font-family="Times,serif" font-size="14.00">3</text>
</g>
<!-- 19 -->
<g id="node21" class="node">
<title>19</title>
<ellipse fill="none" stroke="black" cx="730.1" cy="-1497.98" rx="27" ry="18"/>
<text text-anchor="middle" x="730.1" y="-1494.28" font-family="Times,serif" font-size="14.00">19</text>
</g>
<!-- 5&#45;&gt;19 -->
<g id="edge132" class="edge">
<title>5&#45;&gt;19</title>
<path fill="none" stroke="black" d="M807.77,-1628.81C799.31,-1621.78 789.41,-1612.61 782.1,-1602.98 763.69,-1578.71 748.92,-1546.92 739.89,-1524.9"/>
<polygon fill="black" stroke="black" points="743.11,-1523.53 736.15,-1515.54 736.61,-1526.12 743.11,-1523.53"/>
<text text-anchor="middle" x="787.1" y="-1591.78" font-family="Times,serif" font-size="14.00">1</text>
</g>
<!-- 21 -->
<g id="node23" class="node">
<title>21</title>
<ellipse fill="none" stroke="black" cx="1167.1" cy="-1551.98" rx="27" ry="18"/>
<text text-anchor="middle" x="1167.1" y="-1548.28" font-family="Times,serif" font-size="14.00">21</text>
</g>
<!-- 5&#45;&gt;21 -->
<g id="edge117" class="edge">
<title>5&#45;&gt;21</title>
<path fill="none" stroke="black" d="M846.92,-1638.5C889.7,-1631.51 983.05,-1615.37 1013.1,-1602.98 1024.38,-1598.32 1024.95,-1592.95 1036.1,-1587.98 1066.85,-1574.26 1104.12,-1564.95 1131.04,-1559.4"/>
<polygon fill="black" stroke="black" points="1132.04,-1562.77 1141.17,-1557.38 1130.68,-1555.9 1132.04,-1562.77"/>
<text text-anchor="middle" x="1041.1" y="-1591.78" font-family="Times,serif" font-size="14.00">0</text>
</g>
<!-- 6 -->
<g id="node8" class="node">
<title>6</title>
<ellipse fill="none" stroke="black" cx="1630.1" cy="-1161.48" rx="18" ry="18"/>
<ellipse fill="none" stroke="black" cx="1630.1" cy="-1161.48" rx="22" ry="22"/>
<text text-anchor="middle" x="1630.1" y="-1157.78" font-family="Times,serif" font-size="14.00">6</text>
</g>
<!-- 6&#45;&gt;11 -->
<g id="edge46" class="edge">
<title>6&#45;&gt;11</title>
<path fill="none" stroke="black" d="M1650.81,-1153.45C1699.68,-1136.86 1822.6,-1095.14 1883.21,-1074.57"/>
<polygon fill="black" stroke="black" points="1884.38,-1077.87 1892.73,-1071.34 1882.14,-1071.24 1884.38,-1077.87"/>
<text text-anchor="middle" x="1787.1" y="-1110.28" font-family="Times,serif" font-size="14.00">4</text>
</g>
<!-- 6&#45;&gt;16 -->
<g id="edge82" class="edge">
<title>6&#45;&gt;16</title>
<path fill="none" stroke="black" d="M1626.57,-1139.6C1624.37,-1129.31 1621,-1116.91 1616.1,-1106.48 1611.9,-1097.55 1607.31,-1097.4 1603.1,-1088.48 1562.07,-1001.64 1570.24,-972.95 1548.1,-879.49 1510.87,-722.36 1574.35,-649.78 1473.1,-523.99 1352.3,-373.92 1259.21,-409.86 1076.1,-349.99 1031.81,-335.51 979.71,-322.4 945.86,-314.39"/>
<polygon fill="black" stroke="black" points="946.5,-310.95 935.96,-312.07 944.9,-317.76 946.5,-310.95"/>
<text text-anchor="middle" x="1539.1" y="-719.29" font-family="Times,serif" font-size="14.00">1</text>
</g>
<!-- 17 -->
<g id="node19" class="node">
<title>17</title>
<ellipse fill="none" stroke="black" cx="1779.1" cy="-105" rx="27" ry="18"/>
<text text-anchor="middle" x="1779.1" y="-101.3" font-family="Times,serif" font-size="14.00">17</text>
</g>
<!-- 6&#45;&gt;17 -->
<g id="edge44" class="edge">
<title>6&#45;&gt;17</title>
<path fill="none" stroke="black" d="M1631.27,-1139.43C1631.57,-1133.62 1631.87,-1127.31 1632.1,-1121.48 1632.52,-1110.77 1651.14,-360.53 1653.1,-349.99 1671.1,-253.11 1666.74,-218.88 1727.1,-141 1733.02,-133.36 1741.1,-126.8 1749.12,-121.5"/>
<polygon fill="black" stroke="black" points="1751,-124.46 1757.7,-116.25 1747.34,-118.49 1751,-124.46"/>
<text text-anchor="middle" x="1649.1" y="-632.29" font-family="Times,serif" font-size="14.00">3</text>
</g>
<!-- 6&#45;&gt;27 -->
<g id="edge24" class="edge">
<title>6&#45;&gt;27</title>
<path fill="none" stroke="black" d="M1611.13,-1172.79C1591.43,-1184.7 1561.74,-1206.33 1549.1,-1234.48 1542.54,-1249.08 1546.54,-1254.69 1549.1,-1270.48 1590.14,-1523.41 1718.32,-1552.02 1770.1,-1802.98 1777.01,-1836.49 1789.23,-1851.6 1770.1,-1879.98 1687.07,-2003.09 1491.92,-2031.79 1410.16,-2038.46"/>
<polygon fill="black" stroke="black" points="1409.79,-2034.98 1400.08,-2039.22 1410.31,-2041.96 1409.79,-2034.98"/>
<text text-anchor="middle" x="1699.1" y="-1591.78" font-family="Times,serif" font-size="14.00">0</text>
</g>
<!-- 6&#45;&gt;27 -->
<g id="edge133" class="edge">
<title>6&#45;&gt;27</title>
<path fill="none" stroke="black" d="M1646.03,-1176.69C1684.87,-1212.13 1785.38,-1308.75 1842.1,-1408.48 1957.91,-1612.11 1927.3,-1703.92 1883.1,-1933.98 1876.69,-1967.33 1883.32,-1985.16 1856.1,-2005.47 1820.64,-2031.93 1516.95,-2038.54 1410.1,-2040.06"/>
<polygon fill="black" stroke="black" points="1410.05,-2036.56 1400.1,-2040.19 1410.15,-2043.55 1410.05,-2036.56"/>
<text text-anchor="middle" x="1922.1" y="-1591.78" font-family="Times,serif" font-size="14.00">2</text>
</g>
<!-- 7&#45;&gt;10 -->
<g id="edge39" class="edge">
<title>7&#45;&gt;10</title>
<path fill="none" stroke="black" d="M689.66,-413.05C678.07,-419.58 663.45,-428.26 651.1,-436.99 638.39,-445.97 625.02,-456.95 614.13,-466.32"/>
<polygon fill="black" stroke="black" points="611.58,-463.91 606.35,-473.12 616.18,-469.18 611.58,-463.91"/>
<text text-anchor="middle" x="656.1" y="-440.79" font-family="Times,serif" font-size="14.00">2</text>
</g>
<!-- 7&#45;&gt;10 -->
<g id="edge53" class="edge">
<title>7&#45;&gt;10</title>
<path fill="none" stroke="black" d="M697.5,-417.32C688.22,-427.96 674.85,-441.97 661.1,-451.99 649.37,-460.53 635.25,-468.04 622.77,-473.89"/>
<polygon fill="black" stroke="black" points="621.28,-470.72 613.61,-478.03 624.17,-477.1 621.28,-470.72"/>
<text text-anchor="middle" x="684.1" y="-440.79" font-family="Times,serif" font-size="14.00">4</text>
</g>
<!-- 7&#45;&gt;16 -->
<g id="edge3" class="edge">
<title>7&#45;&gt;16</title>
<path fill="none" stroke="black" d="M717.57,-383.25C723.32,-372.23 732.27,-358.36 744.1,-349.99 782.74,-322.66 837.33,-312.4 873.2,-308.55"/>
<polygon fill="black" stroke="black" points="873.63,-312.03 883.25,-307.59 872.96,-305.06 873.63,-312.03"/>
<text text-anchor="middle" x="749.1" y="-353.79" font-family="Times,serif" font-size="14.00">1</text>
</g>
<!-- 7&#45;&gt;21 -->
<g id="edge103" class="edge">
<title>7&#45;&gt;21</title>
<path fill="none" stroke="black" d="M722.37,-417.3C726.6,-423.18 731.03,-430.13 734.1,-436.99 776.05,-530.76 767.38,-561.08 789.1,-661.49 823.04,-818.4 863.79,-856.8 853.1,-1016.98 847.18,-1105.61 811.99,-1132.56 841.1,-1216.48 870.77,-1302.03 891.49,-1319.01 947.1,-1390.48 995.06,-1452.12 1004.38,-1473.77 1070.1,-1515.98 1089,-1528.11 1112.67,-1536.76 1131.89,-1542.42"/>
<polygon fill="black" stroke="black" points="1131.2,-1545.86 1141.78,-1545.19 1133.09,-1539.12 1131.2,-1545.86"/>
<text text-anchor="middle" x="860.1" y="-953.54" font-family="Times,serif" font-size="14.00">0</text>
</g>
<!-- 23 -->
<g id="node25" class="node">
<title>23</title>
<ellipse fill="none" stroke="black" cx="632.1" cy="-583.74" rx="27" ry="18"/>
<text text-anchor="middle" x="632.1" y="-580.04" font-family="Times,serif" font-size="14.00">23</text>
</g>
<!-- 7&#45;&gt;23 -->
<g id="edge90" class="edge">
<title>7&#45;&gt;23</title>
<path fill="none" stroke="black" d="M716.78,-418.81C719.76,-428.58 722.01,-441.08 719.1,-451.99 707.61,-495.07 675.3,-536.46 653.46,-560.74"/>
<polygon fill="black" stroke="black" points="650.7,-558.57 646.5,-568.3 655.85,-563.32 650.7,-558.57"/>
<text text-anchor="middle" x="718.1" y="-484.29" font-family="Times,serif" font-size="14.00">3</text>
</g>
<!-- 8 -->
<g id="node10" class="node">
<title>8</title>
<ellipse fill="none" stroke="black" cx="1030.1" cy="-105" rx="27" ry="18"/>
<text text-anchor="middle" x="1030.1" y="-101.3" font-family="Times,serif" font-size="14.00">8</text>
</g>
<!-- 8&#45;&gt;0 -->
<g id="edge73" class="edge">
<title>8&#45;&gt;0</title>
<path fill="none" stroke="black" d="M1002.69,-106.14C857.96,-107.1 186.65,-114.77 118.1,-174 71.01,-214.68 42.1,-381.27 42.1,-443.49 42.1,-2129.47 42.1,-2129.47 42.1,-2129.47 42.1,-2165.22 71.69,-2166.76 105.1,-2179.47 166.84,-2202.97 633.68,-2214.93 761.71,-2217.79"/>
<polygon fill="black" stroke="black" points="761.95,-2221.29 772.02,-2218.01 762.1,-2214.3 761.95,-2221.29"/>
<text text-anchor="middle" x="47.1" y="-1157.78" font-family="Times,serif" font-size="14.00">2</text>
</g>
<!-- 8&#45;&gt;4 -->
<g id="edge81" class="edge">
<title>8&#45;&gt;4</title>
<path fill="none" stroke="black" d="M1003.07,-106.44C922.37,-108.01 676.24,-114.78 474.1,-141 399.07,-150.73 379.53,-152.13 307.1,-174 220.11,-200.27 118.1,-161.12 118.1,-252 118.1,-810.99 118.1,-810.99 118.1,-810.99 118.1,-849.52 113.43,-858.97 112.1,-897.49 108.62,-997.75 126.11,-1022.13 140.1,-1121.48 200.57,-1550.93 86.12,-1770.04 409.1,-2059.47 430.04,-2078.24 436.21,-2084.21 463.1,-2092.47 529.79,-2112.96 1018.99,-2124.01 1158.85,-2126.78"/>
<polygon fill="black" stroke="black" points="1158.99,-2130.28 1169.06,-2126.97 1159.13,-2123.28 1158.99,-2130.28"/>
<text text-anchor="middle" x="145.1" y="-1110.28" font-family="Times,serif" font-size="14.00">4</text>
</g>
<!-- 13 -->
<g id="node15" class="node">
<title>13</title>
<ellipse fill="none" stroke="black" cx="1266.1" cy="-18" rx="27" ry="18"/>
<text text-anchor="middle" x="1266.1" y="-14.3" font-family="Times,serif" font-size="14.00">13</text>
</g>
<!-- 8&#45;&gt;13 -->
<g id="edge125" class="edge">
<title>8&#45;&gt;13</title>
<path fill="none" stroke="black" d="M1053.59,-95.54C1095.82,-80.33 1184.67,-48.33 1233.03,-30.91"/>
<polygon fill="black" stroke="black" points="1234.48,-34.11 1242.7,-27.43 1232.11,-27.52 1234.48,-34.11"/>
<text text-anchor="middle" x="1168.1" y="-57.8" font-family="Times,serif" font-size="14.00">3</text>
</g>
<!-- 8&#45;&gt;23 -->
<g id="edge60" class="edge">
<title>8&#45;&gt;23</title>
<path fill="none" stroke="black" d="M1002.86,-106.15C878.78,-107.52 369.95,-120.77 294.1,-245.5 253.08,-312.94 284.61,-355.94 332.1,-418.99 400.24,-509.46 533.54,-556.05 596.96,-573.9"/>
<polygon fill="black" stroke="black" points="596.31,-577.35 606.88,-576.62 598.16,-570.6 596.31,-577.35"/>
<text text-anchor="middle" x="300.1" y="-353.79" font-family="Times,serif" font-size="14.00">1</text>
</g>
<!-- 29 -->
<g id="node31" class="node">
<title>29</title>
<ellipse fill="none" stroke="black" cx="1636.1" cy="-1339.48" rx="27" ry="18"/>
<text text-anchor="middle" x="1636.1" y="-1335.78" font-family="Times,serif" font-size="14.00">29</text>
</g>
<!-- 8&#45;&gt;29 -->
<g id="edge26" class="edge">
<title>8&#45;&gt;29</title>
<path fill="none" stroke="black" d="M1056.93,-107C1109.96,-110.57 1223.1,-126.74 1223.1,-199.75 1223.1,-488.99 1223.1,-488.99 1223.1,-488.99 1223.1,-757.29 1176.96,-847.1 1294.1,-1088.48 1358.19,-1220.56 1530.26,-1298.66 1602.96,-1326.66"/>
<polygon fill="black" stroke="black" points="1601.94,-1330.02 1612.53,-1330.28 1604.42,-1323.47 1601.94,-1330.02"/>
<text text-anchor="middle" x="1221.1" y="-719.29" font-family="Times,serif" font-size="14.00">0</text>
</g>
<!-- 9 -->
<g id="node11" class="node">
<title>9</title>
<ellipse fill="none" stroke="black" cx="1333.1" cy="-679.49" rx="27" ry="18"/>
<text text-anchor="middle" x="1333.1" y="-675.79" font-family="Times,serif" font-size="14.00">9</text>
</g>
<!-- 9&#45;&gt;5 -->
<g id="edge102" class="edge">
<title>9&#45;&gt;5</title>
<path fill="none" stroke="black" d="M1308.22,-686.56C1291.37,-691.78 1269.62,-700.84 1255.1,-715.49 1185.74,-785.44 1122.4,-1034 1077.1,-1121.48 1061.56,-1151.49 920.1,-1348.19 920.1,-1381.98 920.1,-1552.98 920.1,-1552.98 920.1,-1552.98 920.1,-1571.92 879.35,-1604.22 851.23,-1624.26"/>
<polygon fill="black" stroke="black" points="849.14,-1621.45 842.97,-1630.06 853.16,-1627.18 849.14,-1621.45"/>
<text text-anchor="middle" x="1071.1" y="-1157.78" font-family="Times,serif" font-size="14.00">0</text>
</g>
<!-- 9&#45;&gt;5 -->
<g id="edge146" class="edge">
<title>9&#45;&gt;5</title>
<path fill="none" stroke="black" d="M1326.39,-697.22C1324.07,-703 1321.47,-709.53 1319.1,-715.49 1215.37,-976.57 1209.98,-1050.84 1087.1,-1303.48 1027.07,-1426.9 1011.43,-1458.7 931.1,-1569.98 919.67,-1585.81 917.69,-1591.22 902.1,-1602.98 887.18,-1614.23 880.78,-1612.54 864.1,-1620.98 860.5,-1622.8 856.73,-1624.76 853.02,-1626.72"/>
<polygon fill="black" stroke="black" points="851.2,-1623.72 844.04,-1631.52 854.51,-1629.89 851.2,-1623.72"/>
<text text-anchor="middle" x="1167.1" y="-1157.78" font-family="Times,serif" font-size="14.00">4</text>
</g>
<!-- 9&#45;&gt;8 -->
<g id="edge147" class="edge">
<title>9&#45;&gt;8</title>
<path fill="none" stroke="black" d="M1353.95,-668C1379.98,-653.27 1421.1,-623.8 1421.1,-584.74 1421.1,-584.74 1421.1,-584.74 1421.1,-199.75 1421.1,-127.43 1164.96,-110.76 1067.31,-107.04"/>
<polygon fill="black" stroke="black" points="1067.4,-103.54 1057.28,-106.68 1067.15,-110.53 1067.4,-103.54"/>
<text text-anchor="middle" x="1426.1" y="-397.29" font-family="Times,serif" font-size="14.00">3</text>
</g>
<!-- 20 -->
<g id="node22" class="node">
<title>20</title>
<ellipse fill="none" stroke="black" cx="1106.1" cy="-583.74" rx="22.96" ry="22.96"/>
<ellipse fill="none" stroke="black" cx="1106.1" cy="-583.74" rx="27" ry="27"/>
<text text-anchor="middle" x="1106.1" y="-580.04" font-family="Times,serif" font-size="14.00">20</text>
</g>
<!-- 9&#45;&gt;20 -->
<g id="edge98" class="edge">
<title>9&#45;&gt;20</title>
<path fill="none" stroke="black" d="M1309.38,-670.51C1289.62,-663.73 1260.82,-653.52 1236.1,-643.49 1202.58,-629.89 1164.99,-612.68 1138.88,-600.41"/>
<polygon fill="black" stroke="black" points="1140.35,-597.24 1129.82,-596.13 1137.36,-603.57 1140.35,-597.24"/>
<text text-anchor="middle" x="1241.1" y="-632.29" font-family="Times,serif" font-size="14.00">1</text>
</g>
<!-- 9&#45;&gt;23 -->
<g id="edge58" class="edge">
<title>9&#45;&gt;23</title>
<path fill="none" stroke="black" d="M1306.9,-674.98C1199.54,-660.63 793.11,-606.27 668.59,-589.62"/>
<polygon fill="black" stroke="black" points="668.81,-586.12 658.43,-588.26 667.88,-593.06 668.81,-586.12"/>
<text text-anchor="middle" x="1071.1" y="-632.29" font-family="Times,serif" font-size="14.00">2</text>
</g>
<!-- 10&#45;&gt;7 -->
<g id="edge130" class="edge">
<title>10&#45;&gt;7</title>
<path fill="none" stroke="black" d="M597.05,-470.17C601.61,-459.41 608.87,-445.85 619.1,-436.99 634.86,-423.34 656.52,-414.72 674.76,-409.46"/>
<polygon fill="black" stroke="black" points="675.72,-412.82 684.48,-406.86 673.92,-406.06 675.72,-412.82"/>
<text text-anchor="middle" x="624.1" y="-440.79" font-family="Times,serif" font-size="14.00">3</text>
</g>
<!-- 10&#45;&gt;8 -->
<g id="edge5" class="edge">
<title>10&#45;&gt;8</title>
<path fill="none" stroke="black" d="M592.62,-469.81C594.13,-459.68 597.13,-446.94 603.1,-436.99 663.92,-335.62 730.37,-354.47 802.1,-260.5 838.03,-213.41 814.24,-177.23 861.1,-141 881.35,-125.34 949.89,-114.99 993.21,-109.84"/>
<polygon fill="black" stroke="black" points="993.84,-113.29 1003.37,-108.67 993.04,-106.34 993.84,-113.29"/>
<text text-anchor="middle" x="792.1" y="-301.54" font-family="Times,serif" font-size="14.00">4</text>
</g>
<!-- 10&#45;&gt;10 -->
<g id="edge111" class="edge">
<title>10&#45;&gt;10</title>
<path fill="none" stroke="black" d="M615.63,-495.74C626.61,-496.48 636.1,-493.9 636.1,-487.99 636.1,-484.02 631.81,-481.56 625.67,-480.59"/>
<polygon fill="black" stroke="black" points="625.75,-477.09 615.63,-480.24 625.5,-484.08 625.75,-477.09"/>
<text text-anchor="middle" x="641.1" y="-484.29" font-family="Times,serif" font-size="14.00">2</text>
</g>
<!-- 10&#45;&gt;13 -->
<g id="edge36" class="edge">
<title>10&#45;&gt;13</title>
<path fill="none" stroke="black" d="M564.68,-484.03C505.67,-476.01 362.15,-448.55 283.1,-364.99 224.3,-302.84 239.56,-226.52 307.1,-174 455.3,-58.75 1071.04,-26.73 1229.03,-20.34"/>
<polygon fill="black" stroke="black" points="1229.33,-23.83 1239.18,-19.94 1229.05,-16.84 1229.33,-23.83"/>
<text text-anchor="middle" x="258.1" y="-249.3" font-family="Times,serif" font-size="14.00">1</text>
</g>
<!-- 28 -->
<g id="node30" class="node">
<title>28</title>
<ellipse fill="none" stroke="black" cx="468.1" cy="-200.75" rx="27" ry="18"/>
<text text-anchor="middle" x="468.1" y="-197.05" font-family="Times,serif" font-size="14.00">28</text>
</g>
<!-- 10&#45;&gt;28 -->
<g id="edge2" class="edge">
<title>10&#45;&gt;28</title>
<path fill="none" stroke="black" d="M581.76,-471.01C578.66,-465.17 575.41,-458.42 573.1,-451.99 541.35,-363.59 579.39,-324.18 528.1,-245.5 520.6,-233.99 508.95,-224.49 497.91,-217.31"/>
<polygon fill="black" stroke="black" points="499.63,-214.26 489.27,-212.06 496,-220.24 499.63,-214.26"/>
<text text-anchor="middle" x="564.1" y="-353.79" font-family="Times,serif" font-size="14.00">0</text>
</g>
<!-- 11&#45;&gt;4 -->
<g id="edge12" class="edge">
<title>11&#45;&gt;4</title>
<path fill="none" stroke="black" d="M1932.27,-1084.9C1966.65,-1139.07 2056.37,-1282.88 2121.1,-1408.48 2201.34,-1564.17 2262.1,-1601.33 2262.1,-1776.48 2262.1,-2042.47 2262.1,-2042.47 2262.1,-2042.47 2262.1,-2095.37 2205.54,-2080.15 2154.1,-2092.47 2063.53,-2114.16 1398.95,-2124.68 1233.38,-2126.98"/>
<polygon fill="black" stroke="black" points="1233.16,-2123.48 1223.21,-2127.12 1233.25,-2130.48 1233.16,-2123.48"/>
<text text-anchor="middle" x="2234.1" y="-1591.78" font-family="Times,serif" font-size="14.00">3</text>
</g>
<!-- 11&#45;&gt;9 -->
<g id="edge54" class="edge">
<title>11&#45;&gt;9</title>
<path fill="none" stroke="black" d="M1892.31,-1054.1C1870.11,-1047.44 1838.11,-1035.49 1815.1,-1016.98 1764.3,-976.15 1776.76,-942.99 1730.1,-897.49 1680.59,-849.22 1462.23,-728 1435.1,-715.49 1413.14,-705.36 1387.37,-696.54 1367.23,-690.29"/>
<polygon fill="black" stroke="black" points="1368.13,-686.9 1357.54,-687.35 1366.09,-693.6 1368.13,-686.9"/>
<text text-anchor="middle" x="1712.1" y="-853.79" font-family="Times,serif" font-size="14.00">0</text>
</g>
<!-- 11&#45;&gt;11 -->
<g id="edge101" class="edge">
<title>11&#45;&gt;11</title>
<path fill="none" stroke="black" d="M1943.4,-1071.4C1953.92,-1072.06 1962.85,-1068.84 1962.85,-1061.73 1962.85,-1057.07 1959,-1054.08 1953.39,-1052.76"/>
<polygon fill="black" stroke="black" points="1953.62,-1049.27 1943.4,-1052.07 1953.13,-1056.25 1953.62,-1049.27"/>
<text text-anchor="middle" x="1967.85" y="-1058.03" font-family="Times,serif" font-size="14.00">1</text>
</g>
<!-- 24 -->
<g id="node26" class="node">
<title>24</title>
<ellipse fill="none" stroke="black" cx="1861.1" cy="-200.75" rx="22.96" ry="22.96"/>
<ellipse fill="none" stroke="black" cx="1861.1" cy="-200.75" rx="27" ry="27"/>
<text text-anchor="middle" x="1861.1" y="-197.05" font-family="Times,serif" font-size="14.00">24</text>
</g>
<!-- 11&#45;&gt;24 -->
<g id="edge104" class="edge">
<title>11&#45;&gt;24</title>
<path fill="none" stroke="black" d="M1917.93,-1034.85C1917.64,-989.49 1917.1,-892.72 1917.1,-810.99 1917.1,-810.99 1917.1,-810.99 1917.1,-304.24 1917.1,-276.03 1900.56,-248.21 1885.46,-228.69"/>
<polygon fill="black" stroke="black" points="1888.13,-226.43 1879.13,-220.86 1882.69,-230.83 1888.13,-226.43"/>
<text text-anchor="middle" x="1922.1" y="-632.29" font-family="Times,serif" font-size="14.00">4</text>
</g>
<!-- 11&#45;&gt;26 -->
<g id="edge63" class="edge">
<title>11&#45;&gt;26</title>
<path fill="none" stroke="black" d="M1941.61,-1048.97C1978.2,-1030.68 2048.86,-995.35 2090.4,-974.59"/>
<polygon fill="black" stroke="black" points="2092.16,-977.62 2099.54,-970.01 2089.03,-971.36 2092.16,-977.62"/>
<text text-anchor="middle" x="2037.1" y="-1005.78" font-family="Times,serif" font-size="14.00">2</text>
</g>
<!-- 12&#45;&gt;0 -->
<g id="edge86" class="edge">
<title>12&#45;&gt;0</title>
<path fill="none" stroke="black" d="M2377.09,-771.64C2399.47,-776.22 2431.76,-785.35 2455.1,-802.49 2469.72,-813.22 2471.68,-818.94 2479.1,-835.49 2521.86,-930.84 2579.1,-1190.48 2579.1,-1294.98 2579.1,-2129.47 2579.1,-2129.47 2579.1,-2129.47 2579.1,-2220.81 1068.46,-2219.42 826.59,-2218.61"/>
<polygon fill="black" stroke="black" points="826.36,-2215.11 816.34,-2218.57 826.33,-2222.11 826.36,-2215.11"/>
<text text-anchor="middle" x="2584.1" y="-1494.28" font-family="Times,serif" font-size="14.00">4</text>
</g>
<!-- 12&#45;&gt;9 -->
<g id="edge37" class="edge">
<title>12&#45;&gt;9</title>
<path fill="none" stroke="black" d="M2324.37,-763.24C2240.49,-756.17 1974.99,-733.83 1755.1,-715.49 1612.65,-703.61 1443.15,-689.58 1369.86,-683.53"/>
<polygon fill="black" stroke="black" points="1370.01,-680.03 1359.76,-682.69 1369.44,-687 1370.01,-680.03"/>
<text text-anchor="middle" x="1923.1" y="-719.29" font-family="Times,serif" font-size="14.00">0</text>
</g>
<!-- 12&#45;&gt;13 -->
<g id="edge18" class="edge">
<title>12&#45;&gt;13</title>
<path fill="none" stroke="black" d="M2351.1,-748.23C2351.1,-731.06 2351.1,-703.95 2351.1,-680.49 2351.1,-680.49 2351.1,-680.49 2351.1,-104 2351.1,-50.25 1493.69,-24.89 1303.26,-19.92"/>
<polygon fill="black" stroke="black" points="1303.28,-16.42 1293.19,-19.66 1303.1,-23.42 1303.28,-16.42"/>
<text text-anchor="middle" x="2356.1" y="-397.29" font-family="Times,serif" font-size="14.00">2</text>
</g>
<!-- 12&#45;&gt;21 -->
<g id="edge91" class="edge">
<title>12&#45;&gt;21</title>
<path fill="none" stroke="black" d="M2344.05,-784.04C2305.27,-874.41 2115.31,-1307.23 2000.1,-1390.48 1815.09,-1524.16 1726.85,-1476.13 1502.1,-1515.98 1394.87,-1534.99 1266.37,-1544.86 1204.29,-1548.83"/>
<polygon fill="black" stroke="black" points="1203.97,-1545.34 1194.2,-1549.46 1204.4,-1552.33 1203.97,-1545.34"/>
<text text-anchor="middle" x="2178.1" y="-1157.78" font-family="Times,serif" font-size="14.00">3</text>
</g>
<!-- 12&#45;&gt;29 -->
<g id="edge14" class="edge">
<title>12&#45;&gt;29</title>
<path fill="none" stroke="black" d="M2327.03,-774.92C2308.45,-781.11 2282.4,-790.78 2261.1,-802.49 2176.96,-848.73 2147.62,-855.96 2087.1,-930.49 2038.45,-990.39 2062.43,-1027.53 2015.1,-1088.48 1973.8,-1141.66 1952.4,-1145.08 1897.1,-1183.48 1816.37,-1239.53 1714.76,-1296.17 1665.53,-1322.8"/>
<polygon fill="black" stroke="black" points="1663.82,-1319.74 1656.68,-1327.56 1667.14,-1325.9 1663.82,-1319.74"/>
<text text-anchor="middle" x="2048.1" y="-1058.03" font-family="Times,serif" font-size="14.00">1</text>
</g>
<!-- 13&#45;&gt;3 -->
<g id="edge59" class="edge">
<title>13&#45;&gt;3</title>
<path fill="none" stroke="black" d="M1238.72,-19.12C1090.49,-19.87 382.7,-24.96 166.1,-54 -39.84,-81.61 4.1,-60.35 4.1,-104 4.1,-445.49 4.1,-445.49 4.1,-445.49 4.1,-536.23 80.1,-544.25 80.1,-634.99 80.1,-810.99 80.1,-810.99 80.1,-810.99 80.1,-906.37 164.1,-913.1 164.1,-1008.48 164.1,-1209.98 164.1,-1209.98 164.1,-1209.98 164.1,-1282.54 202.88,-1291.97 234.1,-1357.48 279.16,-1452.05 274.02,-1485.59 336.1,-1569.98 406.35,-1665.47 434.97,-1682.6 531.1,-1751.98 564.42,-1776.03 606.68,-1797.73 634.28,-1810.87"/>
<polygon fill="black" stroke="black" points="632.86,-1814.07 643.4,-1815.15 635.84,-1807.73 632.86,-1814.07"/>
<text text-anchor="middle" x="129.1" y="-901.29" font-family="Times,serif" font-size="14.00">1</text>
</g>
<!-- 13&#45;&gt;4 -->
<g id="edge85" class="edge">
<title>13&#45;&gt;4</title>
<path fill="none" stroke="black" d="M1293.08,-19.28C1481.03,-21.4 2587.1,-36.71 2587.1,-104 2587.1,-1010.48 2587.1,-1010.48 2587.1,-1010.48 2587.1,-1143.2 2555.55,-1477.58 2512.1,-1602.98 2497.41,-1645.36 2460.1,-1644.62 2460.1,-1689.48 2460.1,-2042.47 2460.1,-2042.47 2460.1,-2042.47 2460.1,-2154.91 2323.77,-2079.38 2212.1,-2092.47 2016.97,-2115.35 1392.81,-2124.91 1233.43,-2127.01"/>
<polygon fill="black" stroke="black" points="1233.15,-2123.51 1223.19,-2127.14 1233.24,-2130.51 1233.15,-2123.51"/>
<text text-anchor="middle" x="2591.1" y="-1058.03" font-family="Times,serif" font-size="14.00">0</text>
</g>
<!-- 13&#45;&gt;5 -->
<g id="edge13" class="edge">
<title>13&#45;&gt;5</title>
<path fill="none" stroke="black" d="M1239.11,-19.42C1059.31,-22.38 42.1,-41.86 42.1,-104 42.1,-254 42.1,-254 42.1,-254 42.1,-475.98 160.19,-505.82 233.1,-715.49 295.11,-893.81 255.13,-963.23 358.1,-1121.48 430.38,-1232.58 603.25,-1524.54 710.1,-1602.98 734.93,-1621.21 768.88,-1631.33 793.45,-1636.66"/>
<polygon fill="black" stroke="black" points="792.86,-1640.12 803.35,-1638.67 794.25,-1633.25 792.86,-1640.12"/>
<text text-anchor="middle" x="267.1" y="-806.29" font-family="Times,serif" font-size="14.00">3</text>
</g>
<!-- 13&#45;&gt;12 -->
<g id="edge34" class="edge">
<title>13&#45;&gt;12</title>
<path fill="none" stroke="black" d="M1293.35,-19.04C1401.07,-19.44 1807.45,-23.03 2140.1,-54 2449.03,-82.76 2427.1,-76.35 2427.1,-104 2427.1,-680.49 2427.1,-680.49 2427.1,-680.49 2427.1,-709.89 2401.51,-733.79 2380.03,-748.67"/>
<polygon fill="black" stroke="black" points="2377.9,-745.88 2371.46,-754.3 2381.74,-751.73 2377.9,-745.88"/>
<text text-anchor="middle" x="2432.1" y="-397.29" font-family="Times,serif" font-size="14.00">4</text>
</g>
<!-- 13&#45;&gt;21 -->
<g id="edge99" class="edge">
<title>13&#45;&gt;21</title>
<path fill="none" stroke="black" d="M1286.83,-29.78C1352.92,-65.31 1559.72,-185.95 1653.1,-349.99 1738.01,-499.15 1599.71,-607.18 1719.1,-730.49 1746.56,-758.86 1777.26,-721.52 1806.1,-748.49 1829.02,-769.92 1823.69,-786.21 1821.1,-817.49 1801.03,-1059.97 1880.64,-1165.55 1731.1,-1357.48 1663.15,-1444.68 1316,-1521.06 1202.82,-1543.98"/>
<polygon fill="black" stroke="black" points="1202.04,-1540.57 1192.92,-1545.97 1203.42,-1547.43 1202.04,-1540.57"/>
<text text-anchor="middle" x="1828.1" y="-762.79" font-family="Times,serif" font-size="14.00">2</text>
</g>
<!-- 14&#45;&gt;6 -->
<g id="edge4" class="edge">
<title>14&#45;&gt;6</title>
<path fill="none" stroke="black" d="M1603.81,-1239.32C1611.39,-1233.37 1619.44,-1225.54 1624.1,-1216.48 1627.7,-1209.48 1629.59,-1201.31 1630.5,-1193.47"/>
<polygon fill="black" stroke="black" points="1633.99,-1193.71 1631.2,-1183.49 1627.01,-1193.22 1633.99,-1193.71"/>
<text text-anchor="middle" x="1633.1" y="-1205.28" font-family="Times,serif" font-size="14.00">0</text>
</g>
<!-- 14&#45;&gt;6 -->
<g id="edge57" class="edge">
<title>14&#45;&gt;6</title>
<path fill="none" stroke="black" d="M1593.35,-1235.16C1599.64,-1222.72 1608.44,-1205.31 1615.86,-1190.64"/>
<polygon fill="black" stroke="black" points="1619.1,-1191.98 1620.49,-1181.48 1612.86,-1188.83 1619.1,-1191.98"/>
<text text-anchor="middle" x="1615.1" y="-1205.28" font-family="Times,serif" font-size="14.00">4</text>
</g>
<!-- 14&#45;&gt;9 -->
<g id="edge75" class="edge">
<title>14&#45;&gt;9</title>
<path fill="none" stroke="black" d="M1579.06,-1234.92C1563.79,-1192.99 1522.49,-1079.2 1489.1,-983.98 1447.35,-864.95 1478.38,-811.95 1397.1,-715.49 1388.81,-705.65 1377.02,-698.11 1365.82,-692.59"/>
<polygon fill="black" stroke="black" points="1367.19,-689.37 1356.64,-688.43 1364.3,-695.75 1367.19,-689.37"/>
<text text-anchor="middle" x="1494.1" y="-953.54" font-family="Times,serif" font-size="14.00">2</text>
</g>
<!-- 14&#45;&gt;12 -->
<g id="edge17" class="edge">
<title>14&#45;&gt;12</title>
<path fill="none" stroke="black" d="M1605.14,-1240.36C1640.62,-1220.02 1715.6,-1174.04 1767.1,-1121.48 1813.07,-1074.55 1811.31,-1051.84 1854.1,-1001.98 1936.07,-906.47 1941.75,-857.2 2055.1,-802.49 2099.98,-780.83 2244.89,-771.95 2313.9,-768.88"/>
<polygon fill="black" stroke="black" points="2314.06,-772.37 2323.9,-768.45 2313.76,-765.38 2314.06,-772.37"/>
<text text-anchor="middle" x="1859.1" y="-1005.78" font-family="Times,serif" font-size="14.00">3</text>
</g>
<!-- 14&#45;&gt;27 -->
<g id="edge41" class="edge">
<title>14&#45;&gt;27</title>
<path fill="none" stroke="black" d="M1581.93,-1270.61C1578.73,-1293.78 1577.09,-1334.82 1600.1,-1357.48 1644.8,-1401.5 1691.82,-1335.42 1740.1,-1375.48 1758.12,-1390.43 1870.1,-1753.06 1870.1,-1776.48 1870.1,-1916.98 1870.1,-1916.98 1870.1,-1916.98 1870.1,-1962.15 1858.2,-1981.2 1820.1,-2005.47 1785.9,-2027.26 1511.22,-2036.77 1410.2,-2039.55"/>
<polygon fill="black" stroke="black" points="1410.05,-2036.05 1400.15,-2039.82 1410.24,-2043.05 1410.05,-2036.05"/>
<text text-anchor="middle" x="1845.1" y="-1639.28" font-family="Times,serif" font-size="14.00">1</text>
</g>
<!-- 15&#45;&gt;5 -->
<g id="edge78" class="edge">
<title>15&#45;&gt;5</title>
<path fill="none" stroke="black" d="M1373.21,-1720.21C1352.89,-1705.76 1322.14,-1684.06 1319.1,-1682.98 1233.57,-1652.44 953.15,-1645.75 857.45,-1644.34"/>
<polygon fill="black" stroke="black" points="857.27,-1640.83 847.22,-1644.2 857.18,-1647.83 857.27,-1640.83"/>
<text text-anchor="middle" x="1345.1" y="-1686.78" font-family="Times,serif" font-size="14.00">0</text>
</g>
<!-- 15&#45;&gt;9 -->
<g id="edge7" class="edge">
<title>15&#45;&gt;9</title>
<path fill="none" stroke="black" d="M1416.08,-1726.84C1451.77,-1716.41 1513.1,-1691.56 1513.1,-1643.98 1513.1,-1643.98 1513.1,-1643.98 1513.1,-1496.98 1513.1,-1456.55 1507.5,-1445.86 1492.1,-1408.48 1488.53,-1399.81 1485.23,-1398.9 1481.1,-1390.48 1475.67,-1379.43 1405.86,-1195.2 1402.1,-1183.48 1388.74,-1141.91 1384.55,-1131.5 1377.1,-1088.48 1348.71,-924.54 1379.45,-878.29 1345.1,-715.49 1344.49,-712.6 1343.71,-709.62 1342.85,-706.68"/>
<polygon fill="black" stroke="black" points="1346.11,-705.41 1339.68,-696.99 1339.46,-707.58 1346.11,-705.41"/>
<text text-anchor="middle" x="1419.1" y="-1205.28" font-family="Times,serif" font-size="14.00">4</text>
</g>
<!-- 15&#45;&gt;11 -->
<g id="edge72" class="edge">
<title>15&#45;&gt;11</title>
<path fill="none" stroke="black" d="M1417.85,-1731.47C1447,-1728.67 1493.91,-1720.71 1527.1,-1697.98 1634.33,-1624.54 1801.14,-1332.81 1859.1,-1216.48 1878.83,-1176.88 1896.26,-1128.97 1906.97,-1097.27"/>
<polygon fill="black" stroke="black" points="1910.36,-1098.18 1910.2,-1087.58 1903.72,-1095.96 1910.36,-1098.18"/>
<text text-anchor="middle" x="1775.1" y="-1379.28" font-family="Times,serif" font-size="14.00">2</text>
</g>
<!-- 15&#45;&gt;12 -->
<g id="edge138" class="edge">
<title>15&#45;&gt;12</title>
<path fill="none" stroke="black" d="M1418.29,-1732.03C1477.73,-1729.58 1623.48,-1721.48 1743.1,-1697.98 1793.6,-1688.05 1806.97,-1685.67 1854.1,-1664.98 1929.47,-1631.88 1950.82,-1623.81 2013.1,-1569.98 2123.63,-1474.42 2306.16,-1171.08 2327.1,-1121.48 2346.73,-1074.98 2351.1,-1060.96 2351.1,-1010.48 2351.1,-1010.48 2351.1,-1010.48 2351.1,-856.49 2351.1,-835.76 2351.1,-812.31 2351.1,-794.69"/>
<polygon fill="black" stroke="black" points="2354.6,-794.55 2351.1,-784.55 2347.6,-794.55 2354.6,-794.55"/>
<text text-anchor="middle" x="2268.1" y="-1248.78" font-family="Times,serif" font-size="14.00">1</text>
</g>
<!-- 15&#45;&gt;28 -->
<g id="edge76" class="edge">
<title>15&#45;&gt;28</title>
<path fill="none" stroke="black" d="M1364.92,-1729.53C1337.92,-1726 1294.59,-1720.42 1257.1,-1715.98 980.25,-1683.17 864.24,-1768.75 640.1,-1602.98 512.51,-1508.61 333.1,-1116.92 333.1,-958.24 333.1,-958.24 333.1,-958.24 333.1,-721.99 333.1,-555.17 228.69,-507.69 283.1,-349.99 307.35,-279.71 389.5,-234.8 435.75,-214.45"/>
<polygon fill="black" stroke="black" points="437.23,-217.63 445.05,-210.48 434.48,-211.19 437.23,-217.63"/>
<text text-anchor="middle" x="340.1" y="-953.54" font-family="Times,serif" font-size="14.00">3</text>
</g>
<!-- 16&#45;&gt;9 -->
<g id="edge30" class="edge">
<title>16&#45;&gt;9</title>
<path fill="none" stroke="black" d="M936.18,-312.82C996.71,-329.32 1148.33,-377.86 1237.1,-469.99 1288.31,-523.15 1315.67,-608.53 1326.89,-651.68"/>
<polygon fill="black" stroke="black" points="1323.51,-652.6 1329.33,-661.45 1330.3,-650.9 1323.51,-652.6"/>
<text text-anchor="middle" x="1270.1" y="-484.29" font-family="Times,serif" font-size="14.00">1</text>
</g>
<!-- 16&#45;&gt;21 -->
<g id="edge6" class="edge">
<title>16&#45;&gt;21</title>
<path fill="none" stroke="black" d="M932.79,-319.65C943.46,-327.18 955.31,-337.57 962.1,-349.99 1060.28,-529.73 1003.1,-604.18 1003.1,-808.99 1003.1,-1010.48 1003.1,-1010.48 1003.1,-1010.48 1003.1,-1216.95 1114.03,-1449.4 1153.42,-1525.44"/>
<polygon fill="black" stroke="black" points="1150.54,-1527.48 1158.28,-1534.72 1156.74,-1524.23 1150.54,-1527.48"/>
<text text-anchor="middle" x="1008.1" y="-901.29" font-family="Times,serif" font-size="14.00">3</text>
</g>
<!-- 16&#45;&gt;24 -->
<g id="edge43" class="edge">
<title>16&#45;&gt;24</title>
<path fill="none" stroke="black" d="M936.78,-301.37C1070.71,-286.93 1669.49,-222.4 1824.41,-205.7"/>
<polygon fill="black" stroke="black" points="1824.81,-209.18 1834.38,-204.63 1824.06,-202.22 1824.81,-209.18"/>
<text text-anchor="middle" x="1447.1" y="-249.3" font-family="Times,serif" font-size="14.00">4</text>
</g>
<!-- 16&#45;&gt;27 -->
<g id="edge67" class="edge">
<title>16&#45;&gt;27</title>
<path fill="none" stroke="black" d="M884.34,-313.55C862.39,-319.49 829.93,-327.57 801.1,-331.99 692.3,-348.7 660.78,-322.9 554.1,-349.99 344.55,-403.2 295.58,-508.52 233.1,-715.49 202.54,-816.72 246.96,-1572.42 298.1,-1664.98 348.4,-1756.01 410.21,-1732.94 487.1,-1802.98 575.9,-1883.86 557.32,-1954.51 666.1,-2005.47 727.8,-2034.38 1211.33,-2016.39 1279.1,-2023.47 1298.68,-2025.52 1320.31,-2029.32 1337.88,-2032.81"/>
<polygon fill="black" stroke="black" points="1337.21,-2036.25 1347.71,-2034.82 1338.61,-2029.39 1337.21,-2036.25"/>
<text text-anchor="middle" x="240.1" y="-1157.78" font-family="Times,serif" font-size="14.00">2</text>
</g>
<!-- 16&#45;&gt;28 -->
<g id="edge62" class="edge">
<title>16&#45;&gt;28</title>
<path fill="none" stroke="black" d="M884.63,-297.02C859.44,-289.44 820.14,-276.41 788.1,-260.5 777.17,-255.07 776.51,-249.82 765.1,-245.5 676.08,-211.78 562.92,-203.9 505.36,-202.16"/>
<polygon fill="black" stroke="black" points="505.37,-198.66 495.28,-201.9 505.19,-205.66 505.37,-198.66"/>
<text text-anchor="middle" x="793.1" y="-249.3" font-family="Times,serif" font-size="14.00">0</text>
</g>
<!-- 17&#45;&gt;9 -->
<g id="edge139" class="edge">
<title>17&#45;&gt;9</title>
<path fill="none" stroke="black" d="M1752.56,-108.39C1711.04,-112.64 1633.39,-122.82 1613.1,-141 1485.91,-254.94 1563.2,-350.28 1493.1,-505.99 1464.34,-569.87 1430.26,-626.34 1410.1,-643.49 1397.56,-654.15 1381.23,-662.19 1366.84,-667.86"/>
<polygon fill="black" stroke="black" points="1365.42,-664.65 1357.26,-671.4 1367.85,-671.21 1365.42,-664.65"/>
<text text-anchor="middle" x="1530.1" y="-397.29" font-family="Times,serif" font-size="14.00">4</text>
</g>
<!-- 17&#45;&gt;23 -->
<g id="edge140" class="edge">
<title>17&#45;&gt;23</title>
<path fill="none" stroke="black" d="M1752.29,-107.4C1693.68,-110.74 1549.87,-120.47 1431.1,-141 1179.84,-184.42 1081.69,-130.43 874.1,-278.5 776.09,-348.4 804.12,-413.47 727.1,-505.99 707.51,-529.52 679.8,-550.92 659.36,-565.11"/>
<polygon fill="black" stroke="black" points="657.39,-562.22 651.09,-570.73 661.33,-568 657.39,-562.22"/>
<text text-anchor="middle" x="814.1" y="-353.79" font-family="Times,serif" font-size="14.00">1</text>
</g>
<!-- 17&#45;&gt;24 -->
<g id="edge19" class="edge">
<title>17&#45;&gt;24</title>
<path fill="none" stroke="black" d="M1804.9,-110.7C1822.33,-115.31 1844.24,-124.2 1856.1,-141 1860.79,-147.64 1863.05,-155.82 1863.93,-163.95"/>
<polygon fill="black" stroke="black" points="1860.45,-164.25 1864.4,-174.08 1867.44,-163.93 1860.45,-164.25"/>
<text text-anchor="middle" x="1867.1" y="-144.8" font-family="Times,serif" font-size="14.00">0</text>
</g>
<!-- 17&#45;&gt;26 -->
<g id="edge50" class="edge">
<title>17&#45;&gt;26</title>
<path fill="none" stroke="black" d="M1806.18,-106.05C1900.98,-106.96 2212.1,-116.29 2212.1,-199.75 2212.1,-858.49 2212.1,-858.49 2212.1,-858.49 2212.1,-893.39 2180.69,-921.32 2155.19,-938.24"/>
<polygon fill="black" stroke="black" points="2153.06,-935.45 2146.48,-943.76 2156.8,-941.37 2153.06,-935.45"/>
<text text-anchor="middle" x="2217.1" y="-527.79" font-family="Times,serif" font-size="14.00">3</text>
</g>
<!-- 17&#45;&gt;29 -->
<g id="edge106" class="edge">
<title>17&#45;&gt;29</title>
<path fill="none" stroke="black" d="M1768.31,-121.8C1757.08,-139.83 1741.1,-170.6 1741.1,-199.75 1741.1,-810.99 1741.1,-810.99 1741.1,-810.99 1741.1,-1006.74 1670.68,-1235.63 1645.18,-1312.11"/>
<polygon fill="black" stroke="black" points="1641.77,-1311.27 1641.89,-1321.87 1648.4,-1313.51 1641.77,-1311.27"/>
<text text-anchor="middle" x="1746.1" y="-719.29" font-family="Times,serif" font-size="14.00">2</text>
</g>
<!-- 18&#45;&gt;4 -->
<g id="edge148" class="edge">
<title>18&#45;&gt;4</title>
<path fill="none" stroke="black" d="M2144.91,-2004.57C2135.66,-2031.49 2116.77,-2073.17 2084.1,-2092.47 2046.97,-2114.41 1397.31,-2124.73 1233.41,-2126.99"/>
<polygon fill="black" stroke="black" points="1233.28,-2123.49 1223.32,-2127.12 1233.37,-2130.49 1233.28,-2123.49"/>
<text text-anchor="middle" x="2106.1" y="-2081.27" font-family="Times,serif" font-size="14.00">3</text>
</g>
<!-- 18&#45;&gt;6 -->
<g id="edge74" class="edge">
<title>18&#45;&gt;6</title>
<path fill="none" stroke="black" d="M2157.61,-1952.38C2174.83,-1866.19 2219.13,-1580.2 2091.1,-1408.48 2037.54,-1336.65 1826.43,-1239.08 1745.1,-1201.48 1717.59,-1188.76 1684.72,-1178.03 1661.18,-1171.07"/>
<polygon fill="black" stroke="black" points="1661.97,-1167.65 1651.39,-1168.23 1660.02,-1174.37 1661.97,-1167.65"/>
<text text-anchor="middle" x="2173.1" y="-1591.78" font-family="Times,serif" font-size="14.00">0</text>
</g>
<!-- 18&#45;&gt;18 -->
<g id="edge119" class="edge">
<title>18&#45;&gt;18</title>
<path fill="none" stroke="black" d="M2176.49,-1990.17C2187.41,-1991.26 2196.85,-1987.44 2196.85,-1978.72 2196.85,-1973 2192.78,-1969.39 2186.9,-1967.9"/>
<polygon fill="black" stroke="black" points="2186.68,-1964.38 2176.49,-1967.28 2186.27,-1971.36 2186.68,-1964.38"/>
<text text-anchor="middle" x="2201.85" y="-1975.02" font-family="Times,serif" font-size="14.00">1</text>
</g>
<!-- 18&#45;&gt;24 -->
<g id="edge31" class="edge">
<title>18&#45;&gt;24</title>
<path fill="none" stroke="black" d="M2174.27,-1963.35C2216.78,-1934.65 2309.96,-1865.98 2360.1,-1784.98 2419.57,-1688.89 2503.1,-1409.98 2503.1,-1296.98 2503.1,-1296.98 2503.1,-1296.98 2503.1,-1112.98 2503.1,-1016.97 2530.91,-992.64 2518.1,-897.49 2514.29,-869.17 2511.87,-861.95 2501.1,-835.49 2444.34,-696 2407.64,-672.04 2337.1,-538.99 2268.57,-409.74 2307.41,-330.14 2188.1,-245.5 2142.14,-212.89 1973.68,-204.56 1898.16,-202.45"/>
<polygon fill="black" stroke="black" points="1898.23,-198.96 1888.14,-202.2 1898.05,-205.95 1898.23,-198.96"/>
<text text-anchor="middle" x="2508.1" y="-1110.28" font-family="Times,serif" font-size="14.00">2</text>
</g>
<!-- 18&#45;&gt;29 -->
<g id="edge107" class="edge">
<title>18&#45;&gt;29</title>
<path fill="none" stroke="black" d="M2147.92,-1951.98C2143.62,-1928.68 2135.88,-1893.72 2124.1,-1864.98 2069.84,-1732.59 2044.93,-1703.19 1960.1,-1587.98 1941.23,-1562.35 1795.27,-1392.05 1768.1,-1375.48 1738.84,-1357.64 1700.54,-1348.79 1672.74,-1344.46"/>
<polygon fill="black" stroke="black" points="1673.03,-1340.97 1662.64,-1343.01 1672.04,-1347.9 1673.03,-1340.97"/>
<text text-anchor="middle" x="2043.1" y="-1686.78" font-family="Times,serif" font-size="14.00">4</text>
</g>
<!-- 19&#45;&gt;4 -->
<g id="edge100" class="edge">
<title>19&#45;&gt;4</title>
<path fill="none" stroke="black" d="M715,-1513.29C673.34,-1553.9 556.92,-1675.2 512.1,-1802.98 482.15,-1888.36 480.75,-1931.67 533.1,-2005.47 575.48,-2065.23 602,-2074.83 673.1,-2092.47 765.34,-2115.35 1055.19,-2124.19 1158.81,-2126.68"/>
<polygon fill="black" stroke="black" points="1159.01,-2130.18 1169.09,-2126.92 1159.18,-2123.18 1159.01,-2130.18"/>
<text text-anchor="middle" x="517.1" y="-1821.28" font-family="Times,serif" font-size="14.00">4</text>
</g>
<!-- 19&#45;&gt;5 -->
<g id="edge84" class="edge">
<title>19&#45;&gt;5</title>
<path fill="none" stroke="black" d="M726.09,-1515.82C721.86,-1537.93 718.03,-1576.99 736.1,-1602.98 749.22,-1621.85 773.59,-1631.68 793.51,-1636.75"/>
<polygon fill="black" stroke="black" points="792.91,-1640.2 803.44,-1638.98 794.45,-1633.37 792.91,-1640.2"/>
<text text-anchor="middle" x="741.1" y="-1591.78" font-family="Times,serif" font-size="14.00">3</text>
</g>
<!-- 19&#45;&gt;17 -->
<g id="edge33" class="edge">
<title>19&#45;&gt;17</title>
<path fill="none" stroke="black" d="M755.33,-1491.43C845.91,-1471.75 1163.44,-1404.92 1429.1,-1375.48 1459.09,-1372.16 1674.91,-1374.1 1700.1,-1357.48 1770.19,-1311.22 1847.47,-1099.31 1864.1,-1016.98 1906.36,-807.7 1841.81,-750.95 1816.1,-538.99 1797.59,-386.46 1785.11,-202.58 1780.78,-133.77"/>
<polygon fill="black" stroke="black" points="1784.25,-133.13 1780.14,-123.37 1777.27,-133.57 1784.25,-133.13"/>
<text text-anchor="middle" x="1877.1" y="-806.29" font-family="Times,serif" font-size="14.00">1</text>
</g>
<!-- 19&#45;&gt;23 -->
<g id="edge110" class="edge">
<title>19&#45;&gt;23</title>
<path fill="none" stroke="black" d="M728.53,-1479.91C725.46,-1448.39 717.91,-1379.01 706.1,-1321.48 668.16,-1136.75 624.27,-1098.48 593.1,-912.49 583.68,-856.27 586.88,-841.46 585.1,-784.49 584.6,-768.5 582.87,-764.33 585.1,-748.49 592.09,-698.8 610.45,-643.06 622.05,-611.11"/>
<polygon fill="black" stroke="black" points="625.37,-612.2 625.55,-601.61 618.81,-609.78 625.37,-612.2"/>
<text text-anchor="middle" x="642.1" y="-1058.03" font-family="Times,serif" font-size="14.00">2</text>
</g>
<!-- 19&#45;&gt;28 -->
<g id="edge131" class="edge">
<title>19&#45;&gt;28</title>
<path fill="none" stroke="black" d="M723.75,-1480.29C721.59,-1474.51 719.19,-1467.97 717.1,-1461.98 660.64,-1300.48 524.15,-894.97 477.1,-730.49 448.84,-631.72 442.5,-606.67 422.1,-505.99 401.98,-406.71 380.84,-376.06 408.1,-278.5 414.2,-256.64 430.39,-236.62 444.41,-222.5"/>
<polygon fill="black" stroke="black" points="447.12,-224.75 451.9,-215.3 442.27,-219.71 447.12,-224.75"/>
<text text-anchor="middle" x="528.1" y="-853.79" font-family="Times,serif" font-size="14.00">0</text>
</g>
<!-- 20&#45;&gt;2 -->
<g id="edge93" class="edge">
<title>20&#45;&gt;2</title>
<path fill="none" stroke="black" d="M1099.8,-609.77C1081.3,-684.56 1027.21,-913.22 1007.1,-1106.48 993.2,-1240.01 1002.43,-1274.24 1001.1,-1408.48 1000.86,-1432.25 994.16,-1439.23 1001.1,-1461.98 1061.27,-1659.23 1143.58,-1676.82 1260.1,-1846.98 1270.2,-1861.73 1270.1,-1867.71 1283.1,-1879.98 1291.02,-1887.45 1300.78,-1894.14 1309.97,-1899.62"/>
<polygon fill="black" stroke="black" points="1308.47,-1902.79 1318.89,-1904.69 1311.92,-1896.7 1308.47,-1902.79"/>
<text text-anchor="middle" x="1005.1" y="-1248.78" font-family="Times,serif" font-size="14.00">1</text>
</g>
<!-- 20&#45;&gt;5 -->
<g id="edge149" class="edge">
<title>20&#45;&gt;5</title>
<path fill="none" stroke="black" d="M1087.92,-604.22C1061.85,-633.3 1014.21,-690.83 989.1,-748.49 946.45,-846.42 964.42,-879.74 941.1,-983.98 901.35,-1161.66 844.1,-1199.91 844.1,-1381.98 844.1,-1552.98 844.1,-1552.98 844.1,-1552.98 844.1,-1572.86 839.5,-1594.71 834.83,-1611.78"/>
<polygon fill="black" stroke="black" points="831.37,-1611.16 831.96,-1621.74 838.1,-1613.1 831.37,-1611.16"/>
<text text-anchor="middle" x="911.1" y="-1110.28" font-family="Times,serif" font-size="14.00">4</text>
</g>
<!-- 20&#45;&gt;15 -->
<g id="edge64" class="edge">
<title>20&#45;&gt;15</title>
<path fill="none" stroke="black" d="M1114.64,-609.47C1116.43,-615.61 1118.08,-622.23 1119.1,-628.49 1144.49,-784.52 1095.87,-829.87 1131.1,-983.98 1190.5,-1243.8 1300.35,-1276.74 1370.1,-1533.98 1386.27,-1593.64 1390.11,-1666.5 1390.94,-1705.39"/>
<polygon fill="black" stroke="black" points="1387.45,-1705.93 1391.11,-1715.87 1394.45,-1705.81 1387.45,-1705.93"/>
<text text-anchor="middle" x="1208.1" y="-1157.78" font-family="Times,serif" font-size="14.00">3</text>
</g>
<!-- 20&#45;&gt;22 -->
<g id="edge121" class="edge">
<title>20&#45;&gt;22</title>
<path fill="none" stroke="black" d="M1106.1,-556.63C1106.1,-544.01 1106.1,-528.89 1106.1,-516.14"/>
<polygon fill="black" stroke="black" points="1109.6,-516.1 1106.1,-506.1 1102.6,-516.1 1109.6,-516.1"/>
<text text-anchor="middle" x="1111.1" y="-527.79" font-family="Times,serif" font-size="14.00">0</text>
</g>
<!-- 25 -->
<g id="node27" class="node">
<title>25</title>
<ellipse fill="none" stroke="black" cx="1253.1" cy="-1435.23" rx="22.96" ry="22.96"/>
<ellipse fill="none" stroke="black" cx="1253.1" cy="-1435.23" rx="27" ry="27"/>
<text text-anchor="middle" x="1253.1" y="-1431.53" font-family="Times,serif" font-size="14.00">25</text>
</g>
<!-- 20&#45;&gt;25 -->
<g id="edge35" class="edge">
<title>20&#45;&gt;25</title>
<path fill="none" stroke="black" d="M1105.17,-610.72C1104.3,-633.58 1102.87,-667.76 1101.1,-697.49 1089.4,-894.13 1075.44,-942.63 1068.1,-1139.48 1067.37,-1159.02 1060.82,-1165.33 1068.1,-1183.48 1099.7,-1262.25 1152.08,-1251.49 1200.1,-1321.48 1217.01,-1346.14 1231.12,-1377.04 1240.51,-1400.26"/>
<polygon fill="black" stroke="black" points="1237.31,-1401.69 1244.24,-1409.7 1243.82,-1399.11 1237.31,-1401.69"/>
<text text-anchor="middle" x="1081.1" y="-1005.78" font-family="Times,serif" font-size="14.00">2</text>
</g>
<!-- 21&#45;&gt;2 -->
<g id="edge151" class="edge">
<title>21&#45;&gt;2</title>
<path fill="none" stroke="black" d="M1173.6,-1569.9C1199.18,-1636.45 1291.57,-1876.62 1294.1,-1879.98 1299.02,-1886.51 1305.48,-1892.44 1311.99,-1897.48"/>
<polygon fill="black" stroke="black" points="1310,-1900.36 1320.16,-1903.37 1314.09,-1894.68 1310,-1900.36"/>
<text text-anchor="middle" x="1248.1" y="-1730.28" font-family="Times,serif" font-size="14.00">3</text>
</g>
<!-- 21&#45;&gt;4 -->
<g id="edge113" class="edge">
<title>21&#45;&gt;4</title>
<path fill="none" stroke="black" d="M1144.85,-1562.32C1120.61,-1572.45 1080.68,-1589.06 1046.1,-1602.98 1021.58,-1612.84 603.1,-1750.04 603.1,-1776.48 603.1,-2042.47 603.1,-2042.47 603.1,-2042.47 603.1,-2098.87 1028.8,-2120.72 1158.83,-2126.08"/>
<polygon fill="black" stroke="black" points="1158.94,-2129.58 1169.08,-2126.49 1159.23,-2122.59 1158.94,-2129.58"/>
<text text-anchor="middle" x="608.1" y="-1821.28" font-family="Times,serif" font-size="14.00">1</text>
</g>
<!-- 21&#45;&gt;9 -->
<g id="edge8" class="edge">
<title>21&#45;&gt;9</title>
<path fill="none" stroke="black" d="M1171.7,-1534.01C1177.32,-1511.75 1186.1,-1471.36 1186.1,-1436.23 1186.1,-1436.23 1186.1,-1436.23 1186.1,-1294.98 1186.1,-1241.03 1218.14,-1235.02 1234.1,-1183.48 1296.8,-980.99 1284.87,-923.42 1326.1,-715.49 1326.6,-712.93 1327.13,-710.28 1327.66,-707.62"/>
<polygon fill="black" stroke="black" points="1331.14,-708.07 1329.67,-697.58 1324.28,-706.7 1331.14,-708.07"/>
<text text-anchor="middle" x="1260.1" y="-1110.28" font-family="Times,serif" font-size="14.00">0</text>
</g>
<!-- 21&#45;&gt;16 -->
<g id="edge109" class="edge">
<title>21&#45;&gt;16</title>
<path fill="none" stroke="black" d="M1150.54,-1537.3C1143.36,-1531.08 1135.03,-1523.45 1128.1,-1515.98 1034.46,-1415.01 1001.28,-1393.34 939.1,-1270.48 907.97,-1208.98 907.06,-1189.53 896.1,-1121.48 867.39,-943.21 867.51,-895.54 881.1,-715.49 890.01,-597.37 906.84,-569.58 921.1,-451.99 926.56,-406.97 931.09,-394.8 924.1,-349.99 923.59,-346.76 922.89,-343.44 922.07,-340.15"/>
<polygon fill="black" stroke="black" points="925.41,-339.11 919.31,-330.45 918.68,-341.02 925.41,-339.11"/>
<text text-anchor="middle" x="878.1" y="-901.29" font-family="Times,serif" font-size="14.00">2</text>
</g>
<!-- 21&#45;&gt;25 -->
<g id="edge48" class="edge">
<title>21&#45;&gt;25</title>
<path fill="none" stroke="black" d="M1180.72,-1536.02C1186.03,-1529.96 1192.04,-1522.79 1197.1,-1515.98 1208.42,-1500.73 1209.26,-1495.57 1220.1,-1479.98 1223.51,-1475.07 1227.23,-1469.94 1230.9,-1464.99"/>
<polygon fill="black" stroke="black" points="1233.77,-1467 1236.98,-1456.9 1228.18,-1462.79 1233.77,-1467"/>
<text text-anchor="middle" x="1225.1" y="-1494.28" font-family="Times,serif" font-size="14.00">4</text>
</g>
<!-- 22&#45;&gt;4 -->
<g id="edge115" class="edge">
<title>22&#45;&gt;4</title>
<path fill="none" stroke="black" d="M1132.05,-493.09C1213.58,-506.3 1459.1,-548.9 1459.1,-582.74 1459.1,-723.99 1459.1,-723.99 1459.1,-723.99 1459.1,-983.92 1420.91,-1071.46 1538.1,-1303.48 1627.85,-1481.19 1739.31,-1458.31 1854.1,-1620.98 2192.05,-2099.89 2082.51,-1911.97 2002.1,-2005.47 1900.59,-2123.5 1378.32,-2128.77 1233.42,-2127.91"/>
<polygon fill="black" stroke="black" points="1233.29,-2124.41 1223.26,-2127.84 1233.24,-2131.41 1233.29,-2124.41"/>
<text text-anchor="middle" x="1543.1" y="-1292.28" font-family="Times,serif" font-size="14.00">0</text>
</g>
<!-- 22&#45;&gt;4 -->
<g id="edge134" class="edge">
<title>22&#45;&gt;4</title>
<path fill="none" stroke="black" d="M1082.48,-497.08C1026.14,-517.29 881.67,-574.72 789.1,-661.49 598.32,-840.31 413.1,-1514.99 413.1,-1776.48 413.1,-2042.47 413.1,-2042.47 413.1,-2042.47 413.1,-2118.41 1002.7,-2126.56 1158.64,-2127.39"/>
<polygon fill="black" stroke="black" points="1158.67,-2130.89 1168.69,-2127.44 1158.71,-2123.89 1158.67,-2130.89"/>
<text text-anchor="middle" x="505.1" y="-1292.28" font-family="Times,serif" font-size="14.00">3</text>
</g>
<!-- 22&#45;&gt;7 -->
<g id="edge96" class="edge">
<title>22&#45;&gt;7</title>
<path fill="none" stroke="black" d="M1078.86,-487.74C1026.47,-488.31 908.75,-485.37 817.1,-451.99 805.63,-447.82 804.89,-442.7 794.1,-436.99 777.67,-428.31 758.61,-420.22 742.81,-414.01"/>
<polygon fill="black" stroke="black" points="744.03,-410.73 733.44,-410.39 741.51,-417.26 744.03,-410.73"/>
<text text-anchor="middle" x="822.1" y="-440.79" font-family="Times,serif" font-size="14.00">4</text>
</g>
<!-- 22&#45;&gt;9 -->
<g id="edge9" class="edge">
<title>22&#45;&gt;9</title>
<path fill="none" stroke="black" d="M1122.28,-502.5C1161.63,-535.35 1262.55,-619.59 1309.02,-658.39"/>
<polygon fill="black" stroke="black" points="1306.85,-661.14 1316.77,-664.86 1311.34,-655.76 1306.85,-661.14"/>
<text text-anchor="middle" x="1254.1" y="-580.04" font-family="Times,serif" font-size="14.00">1</text>
</g>
<!-- 22&#45;&gt;24 -->
<g id="edge129" class="edge">
<title>22&#45;&gt;24</title>
<path fill="none" stroke="black" d="M1129.11,-478.3C1237.49,-437.35 1697.29,-263.64 1826.94,-214.65"/>
<polygon fill="black" stroke="black" points="1828.27,-217.89 1836.39,-211.08 1825.8,-211.34 1828.27,-217.89"/>
<text text-anchor="middle" x="1471.1" y="-353.79" font-family="Times,serif" font-size="14.00">2</text>
</g>
<!-- 23&#45;&gt;0 -->
<g id="edge47" class="edge">
<title>23&#45;&gt;0</title>
<path fill="none" stroke="black" d="M621.76,-600.48C595.96,-639.84 526.78,-745.84 471.1,-835.49 375.9,-988.74 359.57,-1031.66 262.1,-1183.48 204.32,-1273.47 126.1,-1275.04 126.1,-1381.98 126.1,-2129.47 126.1,-2129.47 126.1,-2129.47 126.1,-2194.4 628.39,-2213.65 761.86,-2217.61"/>
<polygon fill="black" stroke="black" points="761.78,-2221.11 771.87,-2217.9 761.98,-2214.12 761.78,-2221.11"/>
<text text-anchor="middle" x="131.1" y="-1379.28" font-family="Times,serif" font-size="14.00">0</text>
</g>
<!-- 23&#45;&gt;10 -->
<g id="edge114" class="edge">
<title>23&#45;&gt;10</title>
<path fill="none" stroke="black" d="M624.77,-565.98C618.59,-551.85 609.64,-531.39 602.52,-515.11"/>
<polygon fill="black" stroke="black" points="605.58,-513.37 598.36,-505.61 599.16,-516.17 605.58,-513.37"/>
<text text-anchor="middle" x="618.1" y="-527.79" font-family="Times,serif" font-size="14.00">2</text>
</g>
<!-- 23&#45;&gt;16 -->
<g id="edge92" class="edge">
<title>23&#45;&gt;16</title>
<path fill="none" stroke="black" d="M657.74,-577.98C684.22,-572.13 725.84,-560.26 756.1,-538.99 828.52,-488.08 876.02,-391.27 897.27,-340.02"/>
<polygon fill="black" stroke="black" points="900.53,-341.29 901.05,-330.7 894.05,-338.65 900.53,-341.29"/>
<text text-anchor="middle" x="852.1" y="-440.79" font-family="Times,serif" font-size="14.00">4</text>
</g>
<!-- 23&#45;&gt;21 -->
<g id="edge135" class="edge">
<title>23&#45;&gt;21</title>
<path fill="none" stroke="black" d="M635.86,-601.58C639.7,-620.27 645.1,-651.38 645.1,-678.49 645.1,-905.99 645.1,-905.99 645.1,-905.99 645.1,-1145.9 714.2,-1220.1 883.1,-1390.48 941.23,-1449.12 947.15,-1477.28 1020.1,-1515.98 1054.82,-1534.39 1099.26,-1543.24 1130.14,-1547.41"/>
<polygon fill="black" stroke="black" points="1130.1,-1550.94 1140.46,-1548.7 1130.97,-1543.99 1130.1,-1550.94"/>
<text text-anchor="middle" x="671.1" y="-1058.03" font-family="Times,serif" font-size="14.00">1</text>
</g>
<!-- 23&#45;&gt;28 -->
<g id="edge136" class="edge">
<title>23&#45;&gt;28</title>
<path fill="none" stroke="black" d="M611.31,-572.16C588.6,-559.52 552.83,-536.23 533.1,-505.99 475.13,-417.15 467.85,-285.55 467.6,-229.09"/>
<polygon fill="black" stroke="black" points="471.1,-228.85 467.63,-218.84 464.1,-228.82 471.1,-228.85"/>
<text text-anchor="middle" x="499.1" y="-397.29" font-family="Times,serif" font-size="14.00">3</text>
</g>
<!-- 24&#45;&gt;8 -->
<g id="edge80" class="edge">
<title>24&#45;&gt;8</title>
<path fill="none" stroke="black" d="M1834.73,-195.64C1767.99,-185.33 1586.82,-158.01 1435.1,-141 1300.01,-125.86 1138.93,-113.69 1067.45,-108.59"/>
<polygon fill="black" stroke="black" points="1067.38,-105.08 1057.16,-107.86 1066.89,-112.06 1067.38,-105.08"/>
<text text-anchor="middle" x="1557.1" y="-144.8" font-family="Times,serif" font-size="14.00">2</text>
</g>
<!-- 24&#45;&gt;15 -->
<g id="edge77" class="edge">
<title>24&#45;&gt;15</title>
<path fill="none" stroke="black" d="M1884.82,-214.2C1912.66,-230.72 1955.1,-262.72 1955.1,-304.24 1955.1,-810.99 1955.1,-810.99 1955.1,-810.99 1955.1,-934.9 2013.02,-968.49 1982.1,-1088.48 1949.51,-1214.94 1787.33,-1507.62 1698.1,-1602.98 1644.69,-1660.05 1622.28,-1667.99 1550.1,-1697.98 1509.94,-1714.66 1460.62,-1723.93 1427.66,-1728.67"/>
<polygon fill="black" stroke="black" points="1427,-1725.23 1417.57,-1730.06 1427.95,-1732.17 1427,-1725.23"/>
<text text-anchor="middle" x="1992.1" y="-953.54" font-family="Times,serif" font-size="14.00">1</text>
</g>
<!-- 24&#45;&gt;17 -->
<g id="edge66" class="edge">
<title>24&#45;&gt;17</title>
<path fill="none" stroke="black" d="M1848.61,-176.77C1841.85,-165.38 1832.89,-151.8 1823.1,-141 1817.87,-135.23 1811.63,-129.66 1805.51,-124.73"/>
<polygon fill="black" stroke="black" points="1807.41,-121.77 1797.36,-118.43 1803.13,-127.31 1807.41,-121.77"/>
<text text-anchor="middle" x="1839.1" y="-144.8" font-family="Times,serif" font-size="14.00">4</text>
</g>
<!-- 24&#45;&gt;17 -->
<g id="edge144" class="edge">
<title>24&#45;&gt;17</title>
<path fill="none" stroke="black" d="M1840.44,-183.38C1831.25,-175.59 1820.6,-165.84 1812.1,-156 1805.41,-148.26 1798.98,-139.08 1793.61,-130.71"/>
<polygon fill="black" stroke="black" points="1796.48,-128.7 1788.23,-122.06 1790.54,-132.4 1796.48,-128.7"/>
<text text-anchor="middle" x="1817.1" y="-144.8" font-family="Times,serif" font-size="14.00">3</text>
</g>
<!-- 24&#45;&gt;27 -->
<g id="edge126" class="edge">
<title>24&#45;&gt;27</title>
<path fill="none" stroke="black" d="M1887.78,-204.67C1963.48,-213.7 2174.1,-244.21 2174.1,-304.24 2174.1,-636.99 2174.1,-636.99 2174.1,-636.99 2174.1,-770.77 2313.1,-770.2 2313.1,-903.99 2313.1,-1209.98 2313.1,-1209.98 2313.1,-1209.98 2313.1,-1321.98 2343.1,-1353.8 2314.1,-1461.98 2295.93,-1529.75 2282.75,-1545.09 2243.1,-1602.98 2222.12,-1633.61 2212.87,-1638.24 2187.1,-1664.98 2140.64,-1713.17 2125.23,-1721.46 2079.1,-1769.98 2065.64,-1784.13 2062.78,-1788.13 2050.1,-1802.98 1974.16,-1891.9 1986.17,-1952.15 1882.1,-2005.47 1840.47,-2026.8 1521.04,-2036.76 1410.56,-2039.59"/>
<polygon fill="black" stroke="black" points="1410.14,-2036.1 1400.23,-2039.85 1410.32,-2043.1 1410.14,-2036.1"/>
<text text-anchor="middle" x="2318.1" y="-1110.28" font-family="Times,serif" font-size="14.00">0</text>
</g>
<!-- 25&#45;&gt;2 -->
<g id="edge49" class="edge">
<title>25&#45;&gt;2</title>
<path fill="none" stroke="black" d="M1269.6,-1456.4C1285.8,-1478.29 1308.1,-1514.97 1308.1,-1550.98 1308.1,-1825.98 1308.1,-1825.98 1308.1,-1825.98 1308.1,-1848.56 1317.33,-1872.56 1325.88,-1889.95"/>
<polygon fill="black" stroke="black" points="1322.79,-1891.59 1330.5,-1898.87 1329.01,-1888.38 1322.79,-1891.59"/>
<text text-anchor="middle" x="1313.1" y="-1686.78" font-family="Times,serif" font-size="14.00">0</text>
</g>
<!-- 25&#45;&gt;9 -->
<g id="edge15" class="edge">
<title>25&#45;&gt;9</title>
<path fill="none" stroke="black" d="M1256.82,-1408.57C1268.11,-1329.76 1302.41,-1084.1 1321.1,-879.49 1326.69,-818.31 1330.29,-746.31 1331.98,-707.9"/>
<polygon fill="black" stroke="black" points="1335.49,-707.69 1332.42,-697.55 1328.5,-707.39 1335.49,-707.69"/>
<text text-anchor="middle" x="1309.1" y="-1058.03" font-family="Times,serif" font-size="14.00">3</text>
</g>
<!-- 25&#45;&gt;15 -->
<g id="edge16" class="edge">
<title>25&#45;&gt;15</title>
<path fill="none" stroke="black" d="M1277.85,-1446.29C1292.75,-1453.55 1310.94,-1464.76 1322.1,-1479.98 1381.4,-1560.82 1352.17,-1601.68 1380.1,-1697.98 1380.91,-1700.79 1381.79,-1703.71 1382.68,-1706.63"/>
<polygon fill="black" stroke="black" points="1379.37,-1707.78 1385.69,-1716.29 1386.06,-1705.7 1379.37,-1707.78"/>
<text text-anchor="middle" x="1369.1" y="-1591.78" font-family="Times,serif" font-size="14.00">4</text>
</g>
<!-- 25&#45;&gt;23 -->
<g id="edge94" class="edge">
<title>25&#45;&gt;23</title>
<path fill="none" stroke="black" d="M1231.33,-1419.26C1172.34,-1377.82 1007.01,-1255.73 905.1,-1121.48 809.44,-995.46 817.91,-943.97 747.1,-802.49 708.31,-724.99 701.45,-704.1 659.1,-628.49 655.58,-622.21 651.6,-615.55 647.8,-609.36"/>
<polygon fill="black" stroke="black" points="650.69,-607.39 642.43,-600.75 644.75,-611.09 650.69,-607.39"/>
<text text-anchor="middle" x="844.1" y="-1005.78" font-family="Times,serif" font-size="14.00">1</text>
</g>
<!-- 25&#45;&gt;29 -->
<g id="edge52" class="edge">
<title>25&#45;&gt;29</title>
<path fill="none" stroke="black" d="M1279.12,-1427.86C1346.18,-1411.44 1524.91,-1367.7 1601.01,-1349.07"/>
<polygon fill="black" stroke="black" points="1602.16,-1352.39 1611.04,-1346.61 1600.5,-1345.59 1602.16,-1352.39"/>
<text text-anchor="middle" x="1495.1" y="-1379.28" font-family="Times,serif" font-size="14.00">2</text>
</g>
<!-- 26&#45;&gt;1 -->
<g id="edge25" class="edge">
<title>26&#45;&gt;1</title>
<path fill="none" stroke="black" d="M2096.78,-950.35C2071.92,-944.87 2033.57,-936.66 2000.1,-930.49 1858.9,-904.44 1822.34,-905.3 1681.1,-879.49 1657.32,-875.14 1630.56,-869.61 1610.41,-865.31"/>
<polygon fill="black" stroke="black" points="1611.05,-861.87 1600.53,-863.19 1609.58,-868.71 1611.05,-861.87"/>
<text text-anchor="middle" x="1894.1" y="-901.29" font-family="Times,serif" font-size="14.00">2</text>
</g>
<!-- 26&#45;&gt;2 -->
<g id="edge32" class="edge">
<title>26&#45;&gt;2</title>
<path fill="none" stroke="black" d="M2137.05,-980.4C2160.59,-1020.55 2204.05,-1108.12 2187.1,-1183.48 2159.93,-1304.24 1999.12,-1582.2 1907.1,-1664.98 1879.35,-1689.94 1668.89,-1826.54 1622.1,-1846.98 1571.41,-1869.11 1555.82,-1866.8 1502.1,-1879.98 1458.85,-1890.59 1408.69,-1901.16 1375.78,-1907.86"/>
<polygon fill="black" stroke="black" points="1374.84,-1904.48 1365.73,-1909.9 1376.23,-1911.34 1374.84,-1904.48"/>
<text text-anchor="middle" x="2092.1" y="-1431.53" font-family="Times,serif" font-size="14.00">4</text>
</g>
<!-- 26&#45;&gt;15 -->
<g id="edge65" class="edge">
<title>26&#45;&gt;15</title>
<path fill="none" stroke="black" d="M2111.62,-981.4C2098.61,-1007.52 2076.66,-1051.23 2057.1,-1088.48 2014.28,-1170 2002.9,-1190.03 1958.1,-1270.48 1879.06,-1412.38 1854.19,-1445.01 1777.1,-1587.98 1751.06,-1636.26 1766.29,-1666.87 1721.1,-1697.98 1715.1,-1702.11 1512.48,-1721.57 1427.76,-1729.55"/>
<polygon fill="black" stroke="black" points="1427.43,-1726.06 1417.8,-1730.49 1428.08,-1733.03 1427.43,-1726.06"/>
<text text-anchor="middle" x="1934.1" y="-1335.78" font-family="Times,serif" font-size="14.00">3</text>
</g>
<!-- 26&#45;&gt;24 -->
<g id="edge42" class="edge">
<title>26&#45;&gt;24</title>
<path fill="none" stroke="black" d="M2099.41,-944.24C2072.15,-928.56 2031.1,-898.34 2031.1,-858.49 2031.1,-858.49 2031.1,-858.49 2031.1,-304.24 2031.1,-242.47 1947.75,-216.95 1897.78,-207.2"/>
<polygon fill="black" stroke="black" points="1898.13,-203.71 1887.66,-205.36 1896.87,-210.6 1898.13,-203.71"/>
<text text-anchor="middle" x="2036.1" y="-580.04" font-family="Times,serif" font-size="14.00">0</text>
</g>
<!-- 26&#45;&gt;26 -->
<g id="edge21" class="edge">
<title>26&#45;&gt;26</title>
<path fill="none" stroke="black" d="M2148.4,-966.9C2158.92,-967.57 2167.85,-964.35 2167.85,-957.24 2167.85,-952.57 2164,-949.58 2158.39,-948.26"/>
<polygon fill="black" stroke="black" points="2158.62,-944.77 2148.4,-947.57 2158.13,-951.75 2158.62,-944.77"/>
<text text-anchor="middle" x="2172.85" y="-953.54" font-family="Times,serif" font-size="14.00">1</text>
</g>
<!-- 27&#45;&gt;2 -->
<g id="edge20" class="edge">
<title>27&#45;&gt;2</title>
<path fill="none" stroke="black" d="M1369.19,-2023.43C1365.01,-2005.55 1358.04,-1976.67 1351.1,-1951.98 1350.31,-1949.16 1349.44,-1946.23 1348.56,-1943.31"/>
<polygon fill="black" stroke="black" points="1351.87,-1942.16 1345.57,-1933.65 1345.19,-1944.24 1351.87,-1942.16"/>
<text text-anchor="middle" x="1369.1" y="-1975.02" font-family="Times,serif" font-size="14.00">3</text>
</g>
<!-- 27&#45;&gt;12 -->
<g id="edge127" class="edge">
<title>27&#45;&gt;12</title>
<path fill="none" stroke="black" d="M1400.29,-2040.62C1514.23,-2041.02 1949.61,-2040.24 1999.1,-2005.47 2092.13,-1940.09 2010.17,-1840.84 2099.1,-1769.98 2134.76,-1741.56 2160.41,-1774.42 2200.1,-1751.98 2290.85,-1700.66 2307.35,-1665.94 2348.1,-1569.98 2370.39,-1517.47 2427.1,-1119.77 2427.1,-1062.73 2427.1,-1062.73 2427.1,-1062.73 2427.1,-856.49 2427.1,-825.81 2400.67,-800.37 2378.98,-784.65"/>
<polygon fill="black" stroke="black" points="2380.89,-781.71 2370.67,-778.92 2376.91,-787.48 2380.89,-781.71"/>
<text text-anchor="middle" x="2391.1" y="-1379.28" font-family="Times,serif" font-size="14.00">4</text>
</g>
<!-- 27&#45;&gt;12 -->
<g id="edge145" class="edge">
<title>27&#45;&gt;12</title>
<path fill="none" stroke="black" d="M1400.41,-2040.47C1518.01,-2040.29 1977.73,-2037.51 2033.1,-2005.47 2097.49,-1968.21 2075.15,-1921 2124.1,-1864.98 2213.89,-1762.2 2288.38,-1782.89 2357.1,-1664.98 2388.46,-1611.17 2465.1,-1177.26 2465.1,-1114.98 2465.1,-1114.98 2465.1,-1114.98 2465.1,-856.49 2465.1,-815.47 2418.67,-790.56 2385.07,-777.9"/>
<polygon fill="black" stroke="black" points="2386.15,-774.57 2375.55,-774.51 2383.8,-781.16 2386.15,-774.57"/>
<text text-anchor="middle" x="2430.1" y="-1379.28" font-family="Times,serif" font-size="14.00">0</text>
</g>
<!-- 27&#45;&gt;20 -->
<g id="edge40" class="edge">
<title>27&#45;&gt;20</title>
<path fill="none" stroke="black" d="M1347.2,-2035.6C1328.33,-2032.1 1302.16,-2027.33 1279.1,-2023.47 1153.73,-2002.5 717.1,-2044.09 717.1,-1916.98 717.1,-1916.98 717.1,-1916.98 717.1,-1776.48 717.1,-1692.11 657.59,-1685.51 640.1,-1602.98 619.14,-1504.06 617.99,-1474.14 640.1,-1375.48 687.92,-1162.08 748.79,-1124.3 850.1,-930.49 898.56,-837.78 936.7,-751.87 1013.1,-661.49 1031.46,-639.76 1056.54,-619.48 1076.02,-605.22"/>
<polygon fill="black" stroke="black" points="1078.18,-607.98 1084.26,-599.31 1074.1,-602.29 1078.18,-607.98"/>
<text text-anchor="middle" x="668.1" y="-1292.28" font-family="Times,serif" font-size="14.00">2</text>
</g>
<!-- 27&#45;&gt;25 -->
<g id="edge55" class="edge">
<title>27&#45;&gt;25</title>
<path fill="none" stroke="black" d="M1348.71,-2033.15C1289.14,-2014.55 1141.1,-1963.63 1141.1,-1916.98 1141.1,-1916.98 1141.1,-1916.98 1141.1,-1689.48 1141.1,-1629.64 1175.94,-1623.29 1203.1,-1569.98 1215.28,-1546.07 1220.34,-1540.97 1230.1,-1515.98 1235.71,-1501.61 1240.65,-1485.32 1244.49,-1471.22"/>
<polygon fill="black" stroke="black" points="1247.92,-1471.97 1247.1,-1461.4 1241.15,-1470.17 1247.92,-1471.97"/>
<text text-anchor="middle" x="1146.1" y="-1730.28" font-family="Times,serif" font-size="14.00">1</text>
</g>
<!-- 28&#45;&gt;1 -->
<g id="edge10" class="edge">
<title>28&#45;&gt;1</title>
<path fill="none" stroke="black" d="M494.71,-204.65C550.92,-210.92 685.81,-226.68 798.1,-245.5 1028.44,-284.09 1101.61,-250.9 1313.1,-349.99 1357.47,-370.78 1358.29,-391.87 1399.1,-418.99 1480.32,-472.98 1588.1,-432.96 1588.1,-530.49 1588.1,-680.49 1588.1,-680.49 1588.1,-680.49 1588.1,-731.23 1584.32,-790.09 1581.66,-825.26"/>
<polygon fill="black" stroke="black" points="1578.16,-825.13 1580.88,-835.37 1585.14,-825.67 1578.16,-825.13"/>
<text text-anchor="middle" x="1593.1" y="-527.79" font-family="Times,serif" font-size="14.00">2</text>
</g>
<!-- 28&#45;&gt;3 -->
<g id="edge87" class="edge">
<title>28&#45;&gt;3</title>
<path fill="none" stroke="black" d="M443.72,-208.91C399.35,-222.45 308.1,-252.74 288.1,-278.5 87.74,-536.52 202.1,-681.8 202.1,-1008.48 202.1,-1209.98 202.1,-1209.98 202.1,-1209.98 202.1,-1310.5 363.86,-1524.04 426.1,-1602.98 492.67,-1687.4 591.92,-1768.94 637.96,-1804.85"/>
<polygon fill="black" stroke="black" points="635.87,-1807.66 645.92,-1811.01 640.16,-1802.12 635.87,-1807.66"/>
<text text-anchor="middle" x="207.1" y="-1005.78" font-family="Times,serif" font-size="14.00">3</text>
</g>
<!-- 28&#45;&gt;5 -->
<g id="edge128" class="edge">
<title>28&#45;&gt;5</title>
<path fill="none" stroke="black" d="M449.21,-213.78C437.58,-221.81 422.88,-233.13 412.1,-245.5 356.28,-309.49 320.52,-334.87 332.1,-418.99 346.23,-521.65 365.21,-544.26 395.1,-643.49 426.88,-749 434.34,-775.61 471.1,-879.49 536.1,-1063.19 567.16,-1103.72 629.1,-1288.48 662.52,-1388.18 661.99,-1415.84 694.1,-1515.98 706.63,-1555.06 696.5,-1573.52 725.1,-1602.98 743.36,-1621.79 771.76,-1631.7 793.64,-1636.82"/>
<polygon fill="black" stroke="black" points="792.96,-1640.25 803.47,-1638.9 794.41,-1633.41 792.96,-1640.25"/>
<text text-anchor="middle" x="488.1" y="-901.29" font-family="Times,serif" font-size="14.00">0</text>
</g>
<!-- 28&#45;&gt;6 -->
<g id="edge108" class="edge">
<title>28&#45;&gt;6</title>
<path fill="none" stroke="black" d="M495.33,-202.52C550.33,-205.35 676.47,-218.45 759.1,-278.5 899.2,-380.3 852.44,-477.27 963.1,-610.49 1171.43,-861.3 1506.51,-1082.5 1603.19,-1143.72"/>
<polygon fill="black" stroke="black" points="1601.46,-1146.77 1611.79,-1149.15 1605.19,-1140.85 1601.46,-1146.77"/>
<text text-anchor="middle" x="1045.1" y="-675.79" font-family="Times,serif" font-size="14.00">1</text>
</g>
<!-- 28&#45;&gt;23 -->
<g id="edge22" class="edge">
<title>28&#45;&gt;23</title>
<path fill="none" stroke="black" d="M473.69,-218.74C476.32,-226.82 479.44,-236.64 482.1,-245.5 516.65,-360.66 494.3,-402.26 555.1,-505.99 568.3,-528.52 589.73,-549.12 606.63,-563.29"/>
<polygon fill="black" stroke="black" points="604.54,-566.1 614.5,-569.71 608.96,-560.68 604.54,-566.1"/>
<text text-anchor="middle" x="522.1" y="-397.29" font-family="Times,serif" font-size="14.00">4</text>
</g>
<!-- 29&#45;&gt;14 -->
<g id="edge28" class="edge">
<title>29&#45;&gt;14</title>
<path fill="none" stroke="black" d="M1626.51,-1322.49C1619.03,-1310.03 1608.51,-1292.49 1599.94,-1278.22"/>
<polygon fill="black" stroke="black" points="1602.79,-1276.17 1594.65,-1269.4 1596.79,-1279.77 1602.79,-1276.17"/>
<text text-anchor="middle" x="1618.1" y="-1292.28" font-family="Times,serif" font-size="14.00">1</text>
</g>
<!-- 29&#45;&gt;21 -->
<g id="edge142" class="edge">
<title>29&#45;&gt;21</title>
<path fill="none" stroke="black" d="M1614.38,-1350.23C1538.69,-1384.2 1286.4,-1497.43 1198.01,-1537.1"/>
<polygon fill="black" stroke="black" points="1196.47,-1533.96 1188.78,-1541.25 1199.33,-1540.34 1196.47,-1533.96"/>
<text text-anchor="middle" x="1483.1" y="-1431.53" font-family="Times,serif" font-size="14.00">4</text>
</g>
<!-- 29&#45;&gt;24 -->
<g id="edge105" class="edge">
<title>29&#45;&gt;24</title>
<path fill="none" stroke="black" d="M1644.91,-1322.24C1656.7,-1301.13 1678.83,-1263.52 1702.1,-1234.48 1709.17,-1225.65 1714.02,-1226.02 1720.1,-1216.48 1743.38,-1179.92 1735.87,-1164.37 1742.1,-1121.48 1792.04,-777.78 1842.31,-360.27 1856.89,-237.38"/>
<polygon fill="black" stroke="black" points="1860.38,-237.73 1858.08,-227.39 1853.43,-236.91 1860.38,-237.73"/>
<text text-anchor="middle" x="1797.1" y="-762.79" font-family="Times,serif" font-size="14.00">0</text>
</g>
<!-- 29&#45;&gt;28 -->
<g id="edge83" class="edge">
<title>29&#45;&gt;28</title>
<path fill="none" stroke="black" d="M1609.51,-1335.91C1569.25,-1331.61 1490.69,-1321.58 1426.1,-1303.48 1326.05,-1275.44 1304,-1258.8 1209.1,-1216.48 1178.78,-1202.96 1170.61,-1200.47 1142.1,-1183.48 1113.07,-1166.18 1107.87,-1158.72 1080.1,-1139.48 978.67,-1069.21 942.28,-1066.01 850.1,-983.98 692.98,-844.18 422.1,-555.48 422.1,-445.49 422.1,-445.49 422.1,-445.49 422.1,-304.24 422.1,-275.32 437.53,-245.51 450.52,-225.55"/>
<polygon fill="black" stroke="black" points="453.53,-227.35 456.25,-217.11 447.74,-223.42 453.53,-227.35"/>
<text text-anchor="middle" x="653.1" y="-762.79" font-family="Times,serif" font-size="14.00">2</text>
</g>
<!-- 29&#45;&gt;29 -->
<g id="edge11" class="edge">
<title>29&#45;&gt;29</title>
<path fill="none" stroke="black" d="M1660.63,-1347.23C1671.61,-1347.97 1681.1,-1345.39 1681.1,-1339.48 1681.1,-1335.51 1676.81,-1333.04 1670.67,-1332.07"/>
<polygon fill="black" stroke="black" points="1670.75,-1328.57 1660.63,-1331.73 1670.5,-1335.57 1670.75,-1328.57"/>
<text text-anchor="middle" x="1686.1" y="-1335.78" font-family="Times,serif" font-size="14.00">3</text>
</g>
</g>
</svg>
