<?xml version="1.0" encoding="UTF-8" standalone="no"?>
<!DOCTYPE svg PUBLIC "-//W3C//DTD SVG 1.1//EN"
 "http://www.w3.org/Graphics/SVG/1.1/DTD/svg11.dtd">
<!-- Generated by graphviz version 2.49.0 (20210829.0051)
 -->
<!-- Pages: 1 -->
<svg width="2594pt" height="2482pt"
 viewBox="0.00 0.00 2594.00 2482.48" xmlns="http://www.w3.org/2000/svg" xmlns:xlink="http://www.w3.org/1999/xlink">
<g id="graph0" class="graph" transform="scale(1 1) rotate(0) translate(4 2478.48)">
<polygon fill="white" stroke="transparent" points="-4,4 -4,-2478.48 2590,-2478.48 2590,4 -4,4"/>
<!-- fake -->
<g id="node1" class="node">
<title>fake</title>
</g>
<!-- 0 -->
<g id="node2" class="node">
<title>0</title>
<ellipse fill="none" stroke="black" cx="1942" cy="-2383.48" rx="27" ry="18"/>
<text text-anchor="middle" x="1942" y="-2379.78" font-family="Times,serif" font-size="14.00">0</text>
</g>
<!-- fake&#45;&gt;0 -->
<g id="edge1" class="edge">
<title>fake&#45;&gt;0</title>
<path fill="none" stroke="black" stroke-width="2" d="M1942,-2438.29C1942,-2430.27 1942,-2420.53 1942,-2411.55"/>
<polygon fill="black" stroke="black" stroke-width="2" points="1945.5,-2411.51 1942,-2401.51 1938.5,-2411.51 1945.5,-2411.51"/>
</g>
<!-- 1 -->
<g id="node3" class="node">
<title>1</title>
<ellipse fill="none" stroke="black" cx="1620" cy="-2296.48" rx="27" ry="18"/>
<text text-anchor="middle" x="1620" y="-2292.78" font-family="Times,serif" font-size="14.00">1</text>
</g>
<!-- 0&#45;&gt;1 -->
<g id="edge57" class="edge">
<title>0&#45;&gt;1</title>
<path fill="none" stroke="black" d="M1917.27,-2375.95C1860.37,-2360.93 1720.09,-2323.9 1654.65,-2306.63"/>
<polygon fill="black" stroke="black" points="1655.38,-2303.2 1644.82,-2304.03 1653.59,-2309.97 1655.38,-2303.2"/>
<text text-anchor="middle" x="1805" y="-2336.28" font-family="Times,serif" font-size="14.00">2</text>
</g>
<!-- 6 -->
<g id="node8" class="node">
<title>6</title>
<ellipse fill="none" stroke="black" cx="489" cy="-122.5" rx="27" ry="18"/>
<text text-anchor="middle" x="489" y="-118.8" font-family="Times,serif" font-size="14.00">6</text>
</g>
<!-- 0&#45;&gt;6 -->
<g id="edge44" class="edge">
<title>0&#45;&gt;6</title>
<path fill="none" stroke="black" d="M1914.94,-2382.51C1690.72,-2382.73 146.46,-2382.95 56,-2347.48 24.94,-2335.3 0,-2330.85 0,-2297.48 0,-2297.48 0,-2297.48 0,-1261.48 0,-1192.12 27.69,-1179.31 51,-1113.98 64.84,-1075.18 64.48,-1063.79 83,-1026.98 138.78,-916.16 236,-917.56 236,-793.49 236,-793.49 236,-793.49 236,-208.5 236,-163.43 382.06,-137.78 452.23,-128.05"/>
<polygon fill="black" stroke="black" points="452.96,-131.48 462.4,-126.68 452.02,-124.55 452.96,-131.48"/>
<text text-anchor="middle" x="5" y="-1258.78" font-family="Times,serif" font-size="14.00">4</text>
</g>
<!-- 7 -->
<g id="node9" class="node">
<title>7</title>
<ellipse fill="none" stroke="black" cx="1912" cy="-1218.98" rx="27" ry="18"/>
<text text-anchor="middle" x="1912" y="-1215.28" font-family="Times,serif" font-size="14.00">7</text>
</g>
<!-- 0&#45;&gt;7 -->
<g id="edge26" class="edge">
<title>0&#45;&gt;7</title>
<path fill="none" stroke="black" d="M1968.78,-2380.17C2039.18,-2373.37 2224,-2350.47 2224,-2297.48 2224,-2297.48 2224,-2297.48 2224,-2156.98 2224,-2144.05 2001.4,-1264.82 1993,-1254.98 1986.36,-1247.21 1964.63,-1238.03 1945.35,-1231.02"/>
<polygon fill="black" stroke="black" points="1946.47,-1227.7 1935.87,-1227.67 1944.13,-1234.3 1946.47,-1227.7"/>
<text text-anchor="middle" x="2140" y="-1788.78" font-family="Times,serif" font-size="14.00">1</text>
</g>
<!-- 9 -->
<g id="node11" class="node">
<title>9</title>
<ellipse fill="none" stroke="black" cx="2142" cy="-1218.98" rx="27" ry="18"/>
<text text-anchor="middle" x="2142" y="-1215.28" font-family="Times,serif" font-size="14.00">9</text>
</g>
<!-- 0&#45;&gt;9 -->
<g id="edge128" class="edge">
<title>0&#45;&gt;9</title>
<path fill="none" stroke="black" d="M1969.22,-2382.45C2058.69,-2381.65 2338,-2373.07 2338,-2297.48 2338,-2297.48 2338,-2297.48 2338,-1982.98 2338,-1708.68 2334.84,-1629.27 2232,-1374.98 2212.12,-1325.84 2178.84,-1273.45 2158.8,-1243.91"/>
<polygon fill="black" stroke="black" points="2161.58,-1241.77 2153.03,-1235.5 2155.8,-1245.73 2161.58,-1241.77"/>
<text text-anchor="middle" x="2340" y="-1788.78" font-family="Times,serif" font-size="14.00">3</text>
</g>
<!-- 11 -->
<g id="node13" class="node">
<title>11</title>
<ellipse fill="none" stroke="black" cx="645" cy="-209.5" rx="27" ry="18"/>
<text text-anchor="middle" x="645" y="-205.8" font-family="Times,serif" font-size="14.00">11</text>
</g>
<!-- 0&#45;&gt;11 -->
<g id="edge18" class="edge">
<title>0&#45;&gt;11</title>
<path fill="none" stroke="black" d="M1914.56,-2382.71C1762.85,-2383.79 1011.34,-2386.84 399,-2347.48 244.38,-2337.54 54,-2452.42 54,-2297.48 54,-2297.48 54,-2297.48 54,-1704.48 54,-1579.79 55.57,-1542.57 107,-1428.98 164.09,-1302.89 238.35,-1307.89 298,-1182.98 445.44,-874.25 343.98,-747.34 488,-436.99 525.79,-355.55 592.54,-271.81 625.48,-232.89"/>
<polygon fill="black" stroke="black" points="628.15,-235.17 631.98,-225.29 622.82,-230.62 628.15,-235.17"/>
<text text-anchor="middle" x="226" y="-1302.28" font-family="Times,serif" font-size="14.00">0</text>
</g>
<!-- 3 -->
<g id="node5" class="node">
<title>3</title>
<ellipse fill="none" stroke="black" cx="1660" cy="-2205.48" rx="18" ry="18"/>
<ellipse fill="none" stroke="black" cx="1660" cy="-2205.48" rx="22" ry="22"/>
<text text-anchor="middle" x="1660" y="-2201.78" font-family="Times,serif" font-size="14.00">3</text>
</g>
<!-- 1&#45;&gt;3 -->
<g id="edge19" class="edge">
<title>1&#45;&gt;3</title>
<path fill="none" stroke="black" d="M1633.61,-2280.73C1638.45,-2274.8 1643.55,-2267.68 1647,-2260.48 1650.45,-2253.28 1653.02,-2245.1 1654.93,-2237.31"/>
<polygon fill="black" stroke="black" points="1658.38,-2237.95 1657.07,-2227.43 1651.54,-2236.46 1658.38,-2237.95"/>
<text text-anchor="middle" x="1657" y="-2249.28" font-family="Times,serif" font-size="14.00">4</text>
</g>
<!-- 10 -->
<g id="node12" class="node">
<title>10</title>
<ellipse fill="none" stroke="black" cx="820" cy="-844.74" rx="22.96" ry="22.96"/>
<ellipse fill="none" stroke="black" cx="820" cy="-844.74" rx="27" ry="27"/>
<text text-anchor="middle" x="820" y="-841.04" font-family="Times,serif" font-size="14.00">10</text>
</g>
<!-- 1&#45;&gt;10 -->
<g id="edge3" class="edge">
<title>1&#45;&gt;10</title>
<path fill="none" stroke="black" d="M1592.98,-2295.56C1453.19,-2295.85 815.37,-2295.21 735,-2260.48 703.55,-2246.89 680,-2240.74 680,-2206.48 680,-2206.48 680,-2206.48 680,-1930.73 680,-1682.25 694.16,-1619.01 741,-1374.98 765.82,-1245.69 820,-1221.14 820,-1089.48 820,-1089.48 820,-1089.48 820,-948.24 820,-926.21 820,-901.53 820,-881.91"/>
<polygon fill="black" stroke="black" points="823.5,-881.86 820,-871.86 816.5,-881.86 823.5,-881.86"/>
<text text-anchor="middle" x="714" y="-1567.28" font-family="Times,serif" font-size="14.00">3</text>
</g>
<!-- 12 -->
<g id="node14" class="node">
<title>12</title>
<ellipse fill="none" stroke="black" cx="1038" cy="-574.99" rx="27" ry="18"/>
<text text-anchor="middle" x="1038" y="-571.29" font-family="Times,serif" font-size="14.00">12</text>
</g>
<!-- 1&#45;&gt;12 -->
<g id="edge41" class="edge">
<title>1&#45;&gt;12</title>
<path fill="none" stroke="black" d="M1592.79,-2295.28C1400.78,-2293.79 256.48,-2283.95 230,-2260.48 172.14,-2209.2 129,-1649.3 129,-1571.98 129,-1571.98 129,-1571.98 129,-1435.48 129,-1369.27 96.51,-1353.2 108,-1287.98 124.55,-1194.05 263.17,-987.45 333,-922.49 519.48,-749.01 576.07,-701.87 814,-610.99 876.77,-587.02 955.43,-579.45 1000.87,-577.08"/>
<polygon fill="black" stroke="black" points="1001.04,-580.57 1010.87,-576.61 1000.71,-573.58 1001.04,-580.57"/>
<text text-anchor="middle" x="134" y="-1432.78" font-family="Times,serif" font-size="14.00">0</text>
</g>
<!-- 13 -->
<g id="node15" class="node">
<title>13</title>
<ellipse fill="none" stroke="black" cx="674" cy="-949.24" rx="22.96" ry="22.96"/>
<ellipse fill="none" stroke="black" cx="674" cy="-949.24" rx="27" ry="27"/>
<text text-anchor="middle" x="674" y="-945.54" font-family="Times,serif" font-size="14.00">13</text>
</g>
<!-- 1&#45;&gt;13 -->
<g id="edge31" class="edge">
<title>1&#45;&gt;13</title>
<path fill="none" stroke="black" d="M1592.83,-2295.1C1441.58,-2292.88 708.83,-2281.12 666,-2260.48 451.49,-2157.12 399.7,-2077.28 317,-1853.98 299.05,-1805.53 278,-1854.47 344,-1610.98 391.21,-1436.82 445.35,-1408.31 502,-1236.98 524.4,-1169.23 522,-1150.04 540,-1080.98 546.28,-1056.88 542.13,-1048.31 555,-1026.98 566.04,-1008.68 572.58,-1006.37 590,-993.98 605.54,-982.94 624.23,-972.92 640.03,-965.27"/>
<polygon fill="black" stroke="black" points="641.9,-968.26 649.45,-960.83 638.91,-961.93 641.9,-968.26"/>
<text text-anchor="middle" x="349" y="-1614.78" font-family="Times,serif" font-size="14.00">1</text>
</g>
<!-- 19 -->
<g id="node21" class="node">
<title>19</title>
<ellipse fill="none" stroke="black" cx="2256" cy="-209.5" rx="27" ry="18"/>
<text text-anchor="middle" x="2256" y="-205.8" font-family="Times,serif" font-size="14.00">19</text>
</g>
<!-- 1&#45;&gt;19 -->
<g id="edge140" class="edge">
<title>1&#45;&gt;19</title>
<path fill="none" stroke="black" d="M1646.88,-2293.35C1693.4,-2289.31 1791.77,-2279.21 1873,-2260.48 2061.33,-2217.05 2108.37,-2175.91 2251,-2045.48 2492.26,-1824.85 2492,-1677.42 2492,-1350.48 2492,-1350.48 2492,-1350.48 2492,-1174.48 2492,-1121.8 2416,-759.17 2416,-706.49 2416,-706.49 2416,-706.49 2416,-530.49 2416,-463.66 2365.48,-294.46 2320,-245.5 2311.25,-236.07 2299.37,-228.62 2288.22,-223.05"/>
<polygon fill="black" stroke="black" points="2289.65,-219.86 2279.11,-218.82 2286.7,-226.21 2289.65,-219.86"/>
<text text-anchor="middle" x="2497" y="-1258.78" font-family="Times,serif" font-size="14.00">2</text>
</g>
<!-- 2 -->
<g id="node4" class="node">
<title>2</title>
<ellipse fill="none" stroke="black" cx="2005" cy="-296.5" rx="27" ry="18"/>
<text text-anchor="middle" x="2005" y="-292.8" font-family="Times,serif" font-size="14.00">2</text>
</g>
<!-- 2&#45;&gt;1 -->
<g id="edge55" class="edge">
<title>2&#45;&gt;1</title>
<path fill="none" stroke="black" d="M2027.18,-307.01C2040.53,-313.26 2057.5,-322.18 2071,-332.5 2086.99,-344.71 2091.3,-348.45 2102,-365.5 2207.18,-533.11 2374.74,-1006.27 2410,-1200.98 2447.94,-1410.47 2438.59,-1469.6 2406,-1679.98 2391.43,-1774.05 2404.25,-1808.08 2351,-1886.98 2214.24,-2089.62 2134.13,-2111.37 1919,-2227.48 1832.78,-2274.02 1715.99,-2288.79 1657.15,-2293.41"/>
<polygon fill="black" stroke="black" points="1656.58,-2289.94 1646.86,-2294.16 1657.09,-2296.93 1656.58,-2289.94"/>
<text text-anchor="middle" x="2433" y="-1302.28" font-family="Times,serif" font-size="14.00">2</text>
</g>
<!-- 2&#45;&gt;11 -->
<g id="edge125" class="edge">
<title>2&#45;&gt;11</title>
<path fill="none" stroke="black" d="M1978.14,-293.82C1807.92,-283.18 880.08,-225.19 682.15,-212.82"/>
<polygon fill="black" stroke="black" points="682.18,-209.31 671.98,-212.18 681.74,-216.3 682.18,-209.31"/>
<text text-anchor="middle" x="1412" y="-249.3" font-family="Times,serif" font-size="14.00">1</text>
</g>
<!-- 2&#45;&gt;19 -->
<g id="edge121" class="edge">
<title>2&#45;&gt;19</title>
<path fill="none" stroke="black" d="M2025.82,-284.51C2047.4,-273.47 2082.35,-256.54 2114,-245.5 2149.33,-233.16 2191.05,-223.43 2220.09,-217.39"/>
<polygon fill="black" stroke="black" points="2221.08,-220.76 2230.18,-215.33 2219.69,-213.9 2221.08,-220.76"/>
<text text-anchor="middle" x="2119" y="-249.3" font-family="Times,serif" font-size="14.00">3</text>
</g>
<!-- 22 -->
<g id="node24" class="node">
<title>22</title>
<ellipse fill="none" stroke="black" cx="1917" cy="-1131.98" rx="27" ry="18"/>
<text text-anchor="middle" x="1917" y="-1128.28" font-family="Times,serif" font-size="14.00">22</text>
</g>
<!-- 2&#45;&gt;22 -->
<g id="edge116" class="edge">
<title>2&#45;&gt;22</title>
<path fill="none" stroke="black" d="M2017.93,-312.46C2039.47,-339.14 2079.62,-397.26 2072,-451.99 2048.67,-619.48 2004.77,-652.93 1968,-817.99 1944.7,-922.56 1927.36,-1049.01 1920.37,-1103.65"/>
<polygon fill="black" stroke="black" points="1916.86,-1103.53 1919.08,-1113.89 1923.81,-1104.41 1916.86,-1103.53"/>
<text text-anchor="middle" x="2006" y="-701.79" font-family="Times,serif" font-size="14.00">4</text>
</g>
<!-- 25 -->
<g id="node27" class="node">
<title>25</title>
<ellipse fill="none" stroke="black" cx="1172" cy="-1661.98" rx="27" ry="18"/>
<text text-anchor="middle" x="1172" y="-1658.28" font-family="Times,serif" font-size="14.00">25</text>
</g>
<!-- 2&#45;&gt;25 -->
<g id="edge72" class="edge">
<title>2&#45;&gt;25</title>
<path fill="none" stroke="black" d="M1977.76,-297.67C1870.77,-298.57 1479.31,-303.78 1359,-332.5 1323.58,-340.95 1310.14,-340.14 1284,-365.5 1141.35,-503.9 1150.33,-587.38 1129,-784.99 1123.61,-834.92 1153.79,-842.68 1172,-889.49 1203.86,-971.36 1210.43,-993.77 1221,-1080.98 1235.32,-1199.15 1208,-1229.45 1208,-1348.48 1208,-1571.98 1208,-1571.98 1208,-1571.98 1208,-1595.05 1197.48,-1619.18 1187.82,-1636.49"/>
<polygon fill="black" stroke="black" points="1184.66,-1634.96 1182.61,-1645.35 1190.69,-1638.51 1184.66,-1634.96"/>
<text text-anchor="middle" x="1216" y="-997.78" font-family="Times,serif" font-size="14.00">0</text>
</g>
<!-- 3&#45;&gt;1 -->
<g id="edge122" class="edge">
<title>3&#45;&gt;1</title>
<path fill="none" stroke="black" d="M1647.82,-2224.23C1643.71,-2230.72 1639.32,-2238.26 1636,-2245.48 1632.61,-2252.85 1629.65,-2261.14 1627.22,-2268.82"/>
<polygon fill="black" stroke="black" points="1623.86,-2267.85 1624.35,-2278.43 1630.56,-2269.85 1623.86,-2267.85"/>
<text text-anchor="middle" x="1641" y="-2249.28" font-family="Times,serif" font-size="14.00">2</text>
</g>
<!-- 3&#45;&gt;9 -->
<g id="edge36" class="edge">
<title>3&#45;&gt;9</title>
<path fill="none" stroke="black" d="M1676.78,-2190.82C1709.41,-2164.03 1783.29,-2102.23 1841,-2045.48 1908.86,-1978.75 1927.67,-1962.95 1985,-1886.98 2076.6,-1765.61 2131.63,-1742.38 2160,-1592.98 2184.24,-1465.3 2159.48,-1308.87 2147.6,-1247"/>
<polygon fill="black" stroke="black" points="2150.98,-1246.04 2145.61,-1236.91 2144.11,-1247.4 2150.98,-1246.04"/>
<text text-anchor="middle" x="2132" y="-1701.78" font-family="Times,serif" font-size="14.00">1</text>
</g>
<!-- 3&#45;&gt;13 -->
<g id="edge66" class="edge">
<title>3&#45;&gt;13</title>
<path fill="none" stroke="black" d="M1638.08,-2202.64C1485.02,-2189.29 578.28,-2101.59 437,-1886.98 281.97,-1651.49 554,-1545.43 554,-1263.48 554,-1263.48 554,-1263.48 554,-1087.48 554,-1033.8 606.68,-991 642.24,-968.23"/>
<polygon fill="black" stroke="black" points="644.21,-971.12 650.86,-962.88 640.52,-965.18 644.21,-971.12"/>
<text text-anchor="middle" x="466" y="-1567.28" font-family="Times,serif" font-size="14.00">3</text>
</g>
<!-- 3&#45;&gt;22 -->
<g id="edge134" class="edge">
<title>3&#45;&gt;22</title>
<path fill="none" stroke="black" d="M1667.54,-2184.68C1687.31,-2131.84 1740.98,-1982.76 1767,-1853.98 1788.51,-1747.57 1776.9,-1718.5 1792,-1610.98 1808.89,-1490.72 1815.11,-1460.85 1840,-1341.98 1853.26,-1278.68 1850.78,-1260.54 1876,-1200.98 1882.49,-1185.66 1891.97,-1169.67 1900.19,-1157.05"/>
<polygon fill="black" stroke="black" points="1903.24,-1158.77 1905.88,-1148.51 1897.42,-1154.89 1903.24,-1158.77"/>
<text text-anchor="middle" x="1792" y="-1658.28" font-family="Times,serif" font-size="14.00">0</text>
</g>
<!-- 27 -->
<g id="node29" class="node">
<title>27</title>
<ellipse fill="none" stroke="black" cx="1220" cy="-2114.48" rx="27" ry="18"/>
<text text-anchor="middle" x="1220" y="-2110.78" font-family="Times,serif" font-size="14.00">27</text>
</g>
<!-- 3&#45;&gt;27 -->
<g id="edge7" class="edge">
<title>3&#45;&gt;27</title>
<path fill="none" stroke="black" d="M1638.48,-2200.13C1567.93,-2185.86 1343.18,-2140.4 1255.5,-2122.66"/>
<polygon fill="black" stroke="black" points="1256.01,-2119.19 1245.51,-2120.64 1254.62,-2126.05 1256.01,-2119.19"/>
<text text-anchor="middle" x="1472" y="-2154.28" font-family="Times,serif" font-size="14.00">4</text>
</g>
<!-- 4 -->
<g id="node6" class="node">
<title>4</title>
<ellipse fill="none" stroke="black" cx="1031" cy="-1570.98" rx="18" ry="18"/>
<ellipse fill="none" stroke="black" cx="1031" cy="-1570.98" rx="22" ry="22"/>
<text text-anchor="middle" x="1031" y="-1567.28" font-family="Times,serif" font-size="14.00">4</text>
</g>
<!-- 4&#45;&gt;0 -->
<g id="edge68" class="edge">
<title>4&#45;&gt;0</title>
<path fill="none" stroke="black" d="M1026.63,-1592.67C1013.23,-1655.86 973.2,-1842.75 966,-1853.98 912.07,-1938.15 876.8,-1945.56 788,-1991.48 573.33,-2102.48 479.4,-2033.36 268,-2150.48 216.02,-2179.28 151.47,-2217.03 192,-2260.48 252.57,-2325.42 1655.93,-2373.31 1904.53,-2381.3"/>
<polygon fill="black" stroke="black" points="1904.74,-2384.81 1914.85,-2381.63 1904.96,-2377.81 1904.74,-2384.81"/>
<text text-anchor="middle" x="823" y="-1980.28" font-family="Times,serif" font-size="14.00">0</text>
</g>
<!-- 4&#45;&gt;3 -->
<g id="edge150" class="edge">
<title>4&#45;&gt;3</title>
<path fill="none" stroke="black" d="M1038.86,-1591.58C1043.85,-1602.48 1051.06,-1615.85 1060,-1625.98 1087.41,-1657.06 1099,-1661.33 1136,-1679.98 1369.72,-1797.81 1641,-1721.24 1641,-1982.98 1641,-2115.48 1641,-2115.48 1641,-2115.48 1641,-2135.37 1645.59,-2157.22 1650.26,-2174.29"/>
<polygon fill="black" stroke="black" points="1647,-2175.6 1653.14,-2184.24 1653.73,-2173.66 1647,-2175.6"/>
<text text-anchor="middle" x="1628" y="-1875.78" font-family="Times,serif" font-size="14.00">4</text>
</g>
<!-- 4&#45;&gt;13 -->
<g id="edge8" class="edge">
<title>4&#45;&gt;13</title>
<path fill="none" stroke="black" d="M1020.69,-1551.45C995.53,-1506.26 928.87,-1386.89 872,-1287.98 806.88,-1174.72 727.92,-1041.13 692.62,-981.59"/>
<polygon fill="black" stroke="black" points="695.45,-979.5 687.34,-972.69 689.43,-983.08 695.45,-979.5"/>
<text text-anchor="middle" x="867" y="-1258.78" font-family="Times,serif" font-size="14.00">1</text>
</g>
<!-- 15 -->
<g id="node17" class="node">
<title>15</title>
<ellipse fill="none" stroke="black" cx="1481" cy="-1479.98" rx="27" ry="18"/>
<text text-anchor="middle" x="1481" y="-1476.28" font-family="Times,serif" font-size="14.00">15</text>
</g>
<!-- 4&#45;&gt;15 -->
<g id="edge63" class="edge">
<title>4&#45;&gt;15</title>
<path fill="none" stroke="black" d="M1049.05,-1557.73C1054.6,-1554.44 1060.87,-1551.19 1067,-1548.98 1200.26,-1501.03 1369.92,-1486.69 1443.81,-1482.57"/>
<polygon fill="black" stroke="black" points="1444.2,-1486.05 1454,-1482.03 1443.83,-1479.06 1444.2,-1486.05"/>
<text text-anchor="middle" x="1183" y="-1519.78" font-family="Times,serif" font-size="14.00">2</text>
</g>
<!-- 28 -->
<g id="node30" class="node">
<title>28</title>
<ellipse fill="none" stroke="black" cx="793" cy="-1931.73" rx="22.96" ry="22.96"/>
<ellipse fill="none" stroke="black" cx="793" cy="-1931.73" rx="27" ry="27"/>
<text text-anchor="middle" x="793" y="-1928.03" font-family="Times,serif" font-size="14.00">28</text>
</g>
<!-- 4&#45;&gt;28 -->
<g id="edge113" class="edge">
<title>4&#45;&gt;28</title>
<path fill="none" stroke="black" d="M1011.38,-1581.32C998.47,-1588.18 981.83,-1598.47 970,-1610.98 886.62,-1699.16 829.03,-1834.07 805.23,-1896.65"/>
<polygon fill="black" stroke="black" points="801.94,-1895.47 801.71,-1906.06 808.5,-1897.92 801.94,-1895.47"/>
<text text-anchor="middle" x="888" y="-1745.28" font-family="Times,serif" font-size="14.00">3</text>
</g>
<!-- 5 -->
<g id="node7" class="node">
<title>5</title>
<ellipse fill="none" stroke="black" cx="1028" cy="-2027.48" rx="27" ry="18"/>
<text text-anchor="middle" x="1028" y="-2023.78" font-family="Times,serif" font-size="14.00">5</text>
</g>
<!-- 5&#45;&gt;1 -->
<g id="edge70" class="edge">
<title>5&#45;&gt;1</title>
<path fill="none" stroke="black" d="M1044.97,-2041.71C1072.8,-2062.95 1130.39,-2105.05 1184,-2132.48 1326.92,-2205.6 1510.58,-2263.39 1585.68,-2285.61"/>
<polygon fill="black" stroke="black" points="1584.97,-2289.05 1595.55,-2288.51 1586.94,-2282.33 1584.97,-2289.05"/>
<text text-anchor="middle" x="1255" y="-2154.28" font-family="Times,serif" font-size="14.00">4</text>
</g>
<!-- 17 -->
<g id="node19" class="node">
<title>17</title>
<ellipse fill="none" stroke="black" cx="986" cy="-1044.98" rx="27" ry="18"/>
<text text-anchor="middle" x="986" y="-1041.28" font-family="Times,serif" font-size="14.00">17</text>
</g>
<!-- 5&#45;&gt;17 -->
<g id="edge32" class="edge">
<title>5&#45;&gt;17</title>
<path fill="none" stroke="black" d="M1025.8,-2009.32C1015.45,-1926.87 972,-1562.99 972,-1263.48 972,-1263.48 972,-1263.48 972,-1130.98 972,-1111.35 975.68,-1089.51 979.27,-1072.88"/>
<polygon fill="black" stroke="black" points="982.76,-1073.31 981.57,-1062.78 975.93,-1071.75 982.76,-1073.31"/>
<text text-anchor="middle" x="987" y="-1519.78" font-family="Times,serif" font-size="14.00">3</text>
</g>
<!-- 5&#45;&gt;19 -->
<g id="edge56" class="edge">
<title>5&#45;&gt;19</title>
<path fill="none" stroke="black" d="M1054.19,-2022.35C1141.72,-2007.88 1430.91,-1954.87 1649,-1853.98 1665.32,-1846.43 1907.97,-1691.24 1922,-1679.98 1991.22,-1624.42 2003.07,-1602.98 2055,-1530.98 2110.25,-1454.38 2136.21,-1442.17 2177,-1356.98 2289.59,-1121.84 2340,-1054.2 2340,-793.49 2340,-793.49 2340,-793.49 2340,-617.49 2340,-539.2 2302,-523.78 2302,-445.49 2302,-445.49 2302,-445.49 2302,-295.5 2302,-272.21 2288.48,-249.18 2276.09,-232.98"/>
<polygon fill="black" stroke="black" points="2278.8,-230.76 2269.8,-225.17 2273.35,-235.15 2278.8,-230.76"/>
<text text-anchor="middle" x="2295" y="-1128.28" font-family="Times,serif" font-size="14.00">2</text>
</g>
<!-- 5&#45;&gt;25 -->
<g id="edge141" class="edge">
<title>5&#45;&gt;25</title>
<path fill="none" stroke="black" d="M1053.72,-2021.68C1094.64,-2012.4 1170,-1987.83 1170,-1932.73 1170,-1932.73 1170,-1932.73 1170,-1747.98 1170,-1728.73 1170.52,-1707.03 1171.03,-1690.38"/>
<polygon fill="black" stroke="black" points="1174.53,-1690.35 1171.36,-1680.24 1167.53,-1690.12 1174.53,-1690.35"/>
<text text-anchor="middle" x="1175" y="-1832.28" font-family="Times,serif" font-size="14.00">0</text>
</g>
<!-- 5&#45;&gt;28 -->
<g id="edge132" class="edge">
<title>5&#45;&gt;28</title>
<path fill="none" stroke="black" d="M1005.37,-2017.17C980.72,-2007.06 940.12,-1990.48 905,-1976.48 878.99,-1966.11 849.48,-1954.6 827.29,-1945.98"/>
<polygon fill="black" stroke="black" points="828.54,-1942.72 817.95,-1942.36 826.01,-1949.24 828.54,-1942.72"/>
<text text-anchor="middle" x="948" y="-1980.28" font-family="Times,serif" font-size="14.00">1</text>
</g>
<!-- 6&#45;&gt;1 -->
<g id="edge79" class="edge">
<title>6&#45;&gt;1</title>
<path fill="none" stroke="black" d="M463.07,-128.08C405.88,-138.91 274,-168.26 274,-208.5 274,-845.74 274,-845.74 274,-845.74 274,-907.13 274.47,-935.86 228,-975.98 196.46,-1003.21 172.92,-974.68 136,-993.98 117.34,-1003.74 110.92,-1007.91 102,-1026.98 -78.07,-1412.03 130,-1557.91 130,-1982.98 130,-2158.98 130,-2158.98 130,-2158.98 130,-2218.11 162.67,-2234.95 216,-2260.48 279.36,-2290.81 1366.7,-2294.9 1582.82,-2295.41"/>
<polygon fill="black" stroke="black" points="1583.01,-2298.91 1593.02,-2295.43 1583.02,-2291.91 1583.01,-2298.91"/>
<text text-anchor="middle" x="47" y="-1215.28" font-family="Times,serif" font-size="14.00">0</text>
</g>
<!-- 6&#45;&gt;4 -->
<g id="edge131" class="edge">
<title>6&#45;&gt;4</title>
<path fill="none" stroke="black" d="M490.18,-140.48C493.38,-188.21 502,-327.56 502,-443.49 502,-749.99 502,-749.99 502,-749.99 502,-987.13 568.24,-1054.76 720,-1236.98 775.53,-1303.66 912.86,-1472.54 977,-1530.98 985.42,-1538.66 995.36,-1546.2 1004.4,-1552.58"/>
<polygon fill="black" stroke="black" points="1002.49,-1555.51 1012.71,-1558.3 1006.46,-1549.75 1002.49,-1555.51"/>
<text text-anchor="middle" x="515" y="-841.04" font-family="Times,serif" font-size="14.00">3</text>
</g>
<!-- 18 -->
<g id="node20" class="node">
<title>18</title>
<ellipse fill="none" stroke="black" cx="645" cy="-26.75" rx="22.96" ry="22.96"/>
<ellipse fill="none" stroke="black" cx="645" cy="-26.75" rx="27" ry="27"/>
<text text-anchor="middle" x="645" y="-23.05" font-family="Times,serif" font-size="14.00">18</text>
</g>
<!-- 6&#45;&gt;18 -->
<g id="edge39" class="edge">
<title>6&#45;&gt;18</title>
<path fill="none" stroke="black" d="M508.44,-109.81C534.76,-94 582.03,-65.59 613.46,-46.7"/>
<polygon fill="black" stroke="black" points="615.5,-49.56 622.27,-41.41 611.9,-43.56 615.5,-49.56"/>
<text text-anchor="middle" x="577" y="-75.3" font-family="Times,serif" font-size="14.00">4</text>
</g>
<!-- 24 -->
<g id="node26" class="node">
<title>24</title>
<ellipse fill="none" stroke="black" cx="635" cy="-1835.98" rx="27" ry="18"/>
<text text-anchor="middle" x="635" y="-1832.28" font-family="Times,serif" font-size="14.00">24</text>
</g>
<!-- 6&#45;&gt;24 -->
<g id="edge22" class="edge">
<title>6&#45;&gt;24</title>
<path fill="none" stroke="black" d="M471.12,-136.32C452.49,-151.32 426,-178 426,-208.5 426,-793.49 426,-793.49 426,-793.49 426,-966.61 409.46,-1011.21 431,-1182.98 439.02,-1246.95 447.97,-1261.81 465,-1323.98 489.38,-1413 526,-1430.19 526,-1522.48 526,-1749.98 526,-1749.98 526,-1749.98 526,-1788.59 569.04,-1812.24 601.03,-1824.48"/>
<polygon fill="black" stroke="black" points="599.94,-1827.82 610.54,-1827.92 602.32,-1821.23 599.94,-1827.82"/>
<text text-anchor="middle" x="426" y="-997.78" font-family="Times,serif" font-size="14.00">2</text>
</g>
<!-- 29 -->
<g id="node31" class="node">
<title>29</title>
<ellipse fill="none" stroke="black" cx="1917" cy="-1305.98" rx="27" ry="18"/>
<text text-anchor="middle" x="1917" y="-1302.28" font-family="Times,serif" font-size="14.00">29</text>
</g>
<!-- 6&#45;&gt;29 -->
<g id="edge109" class="edge">
<title>6&#45;&gt;29</title>
<path fill="none" stroke="black" d="M515.44,-126.46C587.54,-134.54 783.12,-156.5 797,-158.5 1210.8,-217.89 1348.18,-266.71 1649,-556.99 1878.28,-778.23 1755.81,-941.91 1876,-1236.98 1882.28,-1252.39 1891.75,-1268.39 1900.01,-1280.99"/>
<polygon fill="black" stroke="black" points="1897.26,-1283.17 1905.75,-1289.51 1903.06,-1279.26 1897.26,-1283.17"/>
<text text-anchor="middle" x="1767" y="-701.79" font-family="Times,serif" font-size="14.00">1</text>
</g>
<!-- 7&#45;&gt;0 -->
<g id="edge88" class="edge">
<title>7&#45;&gt;0</title>
<path fill="none" stroke="black" d="M1938,-1224.19C1959.12,-1228.72 1988.64,-1237.75 2009,-1254.98 2030.88,-1273.49 2262,-1675.83 2262,-1704.48 2262,-2297.48 2262,-2297.48 2262,-2297.48 2262,-2355.43 2063.5,-2374.82 1979.18,-2380.45"/>
<polygon fill="black" stroke="black" points="1978.76,-2376.97 1969.01,-2381.1 1979.21,-2383.95 1978.76,-2376.97"/>
<text text-anchor="middle" x="2267" y="-1788.78" font-family="Times,serif" font-size="14.00">2</text>
</g>
<!-- 8 -->
<g id="node10" class="node">
<title>8</title>
<ellipse fill="none" stroke="black" cx="1679" cy="-1748.98" rx="27" ry="18"/>
<text text-anchor="middle" x="1679" y="-1745.28" font-family="Times,serif" font-size="14.00">8</text>
</g>
<!-- 7&#45;&gt;8 -->
<g id="edge14" class="edge">
<title>7&#45;&gt;8</title>
<path fill="none" stroke="black" d="M1899.98,-1235.2C1882.99,-1258.29 1854,-1304.18 1854,-1348.48 1854,-1524.48 1854,-1524.48 1854,-1524.48 1854,-1598.89 1837.85,-1621.39 1792,-1679.98 1771.32,-1706.41 1737.29,-1724.86 1711.97,-1735.81"/>
<polygon fill="black" stroke="black" points="1710.29,-1732.72 1702.39,-1739.78 1712.97,-1739.19 1710.29,-1732.72"/>
<text text-anchor="middle" x="1859" y="-1476.28" font-family="Times,serif" font-size="14.00">3</text>
</g>
<!-- 7&#45;&gt;12 -->
<g id="edge98" class="edge">
<title>7&#45;&gt;12</title>
<path fill="none" stroke="black" d="M1894.66,-1205.15C1861.33,-1180.62 1789.23,-1128.25 1762,-1113.98 1704.82,-1084.03 1675.49,-1104.43 1626,-1062.98 1563.21,-1010.4 1565.52,-979.22 1532,-904.49 1509.19,-853.64 1526.12,-830.54 1494,-784.99 1453.72,-727.87 1424.37,-731.44 1363,-697.99 1289.86,-658.13 1275.52,-638.78 1197,-610.99 1156.01,-596.48 1106.86,-586.77 1074.16,-581.33"/>
<polygon fill="black" stroke="black" points="1074.59,-577.86 1064.16,-579.72 1073.47,-584.77 1074.59,-577.86"/>
<text text-anchor="middle" x="1537" y="-893.29" font-family="Times,serif" font-size="14.00">0</text>
</g>
<!-- 21 -->
<g id="node23" class="node">
<title>21</title>
<ellipse fill="none" stroke="black" cx="1227" cy="-661.99" rx="27" ry="18"/>
<text text-anchor="middle" x="1227" y="-658.29" font-family="Times,serif" font-size="14.00">21</text>
</g>
<!-- 7&#45;&gt;21 -->
<g id="edge130" class="edge">
<title>7&#45;&gt;21</title>
<path fill="none" stroke="black" d="M1885.13,-1216.75C1802.52,-1212.49 1554,-1196.04 1490,-1149.98 1447.3,-1119.25 1285.19,-784.71 1239.22,-688.64"/>
<polygon fill="black" stroke="black" points="1242.25,-686.88 1234.78,-679.37 1235.94,-689.9 1242.25,-686.88"/>
<text text-anchor="middle" x="1387" y="-945.54" font-family="Times,serif" font-size="14.00">1</text>
</g>
<!-- 7&#45;&gt;22 -->
<g id="edge27" class="edge">
<title>7&#45;&gt;22</title>
<path fill="none" stroke="black" d="M1918.43,-1201.14C1920.29,-1195.46 1922.07,-1189.03 1923,-1182.98 1924.14,-1175.58 1923.84,-1167.54 1922.94,-1160.11"/>
<polygon fill="black" stroke="black" points="1926.39,-1159.47 1921.36,-1150.15 1919.47,-1160.57 1926.39,-1159.47"/>
<text text-anchor="middle" x="1928" y="-1171.78" font-family="Times,serif" font-size="14.00">4</text>
</g>
<!-- 8&#45;&gt;1 -->
<g id="edge4" class="edge">
<title>8&#45;&gt;1</title>
<path fill="none" stroke="black" d="M1693.38,-1764.59C1744.77,-1818.63 1912.64,-2012.04 1842,-2165.48 1807.78,-2239.8 1708.86,-2274.33 1655.35,-2287.95"/>
<polygon fill="black" stroke="black" points="1654.49,-2284.56 1645.6,-2290.33 1656.15,-2291.36 1654.49,-2284.56"/>
<text text-anchor="middle" x="1860" y="-2023.78" font-family="Times,serif" font-size="14.00">3</text>
</g>
<!-- 8&#45;&gt;2 -->
<g id="edge91" class="edge">
<title>8&#45;&gt;2</title>
<path fill="none" stroke="black" d="M1669,-1732.08C1655.42,-1711.01 1629.87,-1673.11 1604,-1643.98 1540.28,-1572.26 1500.1,-1576.52 1445,-1497.98 1372.8,-1395.08 1370.79,-1357.78 1336,-1236.98 1307.57,-1138.26 1307.67,-1111.26 1298,-1008.98 1297.37,-1002.28 1285.31,-530.51 1287,-523.99 1300.8,-470.75 1323.68,-456.76 1375,-436.99 1591.36,-353.67 1869.64,-313.9 1968.32,-301.72"/>
<polygon fill="black" stroke="black" points="1968.87,-305.18 1978.38,-300.5 1968.03,-298.23 1968.87,-305.18"/>
<text text-anchor="middle" x="1308" y="-1041.28" font-family="Times,serif" font-size="14.00">1</text>
</g>
<!-- 8&#45;&gt;8 -->
<g id="edge20" class="edge">
<title>8&#45;&gt;8</title>
<path fill="none" stroke="black" d="M1703.53,-1756.74C1714.51,-1757.47 1724,-1754.89 1724,-1748.98 1724,-1745.02 1719.72,-1742.55 1713.57,-1741.58"/>
<polygon fill="black" stroke="black" points="1713.65,-1738.08 1703.53,-1741.23 1713.41,-1745.07 1713.65,-1738.08"/>
<text text-anchor="middle" x="1729" y="-1745.28" font-family="Times,serif" font-size="14.00">2</text>
</g>
<!-- 14 -->
<g id="node16" class="node">
<title>14</title>
<ellipse fill="none" stroke="black" cx="1746" cy="-487.99" rx="27" ry="18"/>
<text text-anchor="middle" x="1746" y="-484.29" font-family="Times,serif" font-size="14.00">14</text>
</g>
<!-- 8&#45;&gt;14 -->
<g id="edge94" class="edge">
<title>8&#45;&gt;14</title>
<path fill="none" stroke="black" d="M1683.75,-1731.2C1688.14,-1714.17 1694,-1686.96 1694,-1662.98 1694,-1662.98 1694,-1662.98 1694,-1522.48 1694,-1400.8 1721.97,-1097.51 1728,-975.98 1736.67,-801.17 1743.08,-590.86 1745.22,-516.59"/>
<polygon fill="black" stroke="black" points="1748.73,-516.35 1745.52,-506.25 1741.73,-516.15 1748.73,-516.35"/>
<text text-anchor="middle" x="1723" y="-1128.28" font-family="Times,serif" font-size="14.00">0</text>
</g>
<!-- 8&#45;&gt;25 -->
<g id="edge48" class="edge">
<title>8&#45;&gt;25</title>
<path fill="none" stroke="black" d="M1653.16,-1743.65C1569.34,-1729.6 1304.85,-1685.26 1207.99,-1669.02"/>
<polygon fill="black" stroke="black" points="1208.53,-1665.56 1198.09,-1667.36 1207.37,-1672.46 1208.53,-1665.56"/>
<text text-anchor="middle" x="1461" y="-1701.78" font-family="Times,serif" font-size="14.00">4</text>
</g>
<!-- 9&#45;&gt;2 -->
<g id="edge89" class="edge">
<title>9&#45;&gt;2</title>
<path fill="none" stroke="black" d="M2148.43,-1201.14C2150.29,-1195.46 2152.07,-1189.03 2153,-1182.98 2154.01,-1176.39 2153.01,-1174.65 2153,-1167.98 2152.47,-920.4 2192.08,-853.86 2144,-610.99 2122.02,-499.93 2126.19,-466.98 2076,-365.5 2066.04,-345.36 2047.55,-327.95 2031.94,-315.79"/>
<polygon fill="black" stroke="black" points="2033.74,-312.77 2023.63,-309.59 2029.55,-318.38 2033.74,-312.77"/>
<text text-anchor="middle" x="2170" y="-745.29" font-family="Times,serif" font-size="14.00">1</text>
</g>
<!-- 9&#45;&gt;19 -->
<g id="edge17" class="edge">
<title>9&#45;&gt;19</title>
<path fill="none" stroke="black" d="M2155.16,-1202.89C2159.6,-1197.04 2164.15,-1190.05 2167,-1182.98 2276.34,-912.44 2256,-824.29 2256,-532.49 2256,-532.49 2256,-532.49 2256,-295.5 2256,-276.25 2256,-254.55 2256,-237.89"/>
<polygon fill="black" stroke="black" points="2259.5,-237.75 2256,-227.75 2252.5,-237.75 2259.5,-237.75"/>
<text text-anchor="middle" x="2262" y="-701.79" font-family="Times,serif" font-size="14.00">3</text>
</g>
<!-- 26 -->
<g id="node28" class="node">
<title>26</title>
<ellipse fill="none" stroke="black" cx="1944" cy="-392.24" rx="22.96" ry="22.96"/>
<ellipse fill="none" stroke="black" cx="1944" cy="-392.24" rx="27" ry="27"/>
<text text-anchor="middle" x="1944" y="-388.54" font-family="Times,serif" font-size="14.00">26</text>
</g>
<!-- 9&#45;&gt;26 -->
<g id="edge115" class="edge">
<title>9&#45;&gt;26</title>
<path fill="none" stroke="black" d="M2141.26,-1200.76C2138.94,-1151.75 2130.74,-1007.44 2110,-889.49 2101.01,-838.37 2021.19,-481.2 1994,-436.99 1988.81,-428.55 1981.47,-420.85 1974.01,-414.34"/>
<polygon fill="black" stroke="black" points="1975.92,-411.38 1965.96,-407.76 1971.49,-416.8 1975.92,-411.38"/>
<text text-anchor="middle" x="2095" y="-788.79" font-family="Times,serif" font-size="14.00">4</text>
</g>
<!-- 9&#45;&gt;27 -->
<g id="edge126" class="edge">
<title>9&#45;&gt;27</title>
<path fill="none" stroke="black" d="M2133.91,-1236.28C2107.66,-1288.86 2021.9,-1458.37 1941,-1592.98 1823.23,-1788.95 1758.42,-1816.77 1579,-1958.48 1492.31,-2026.96 1420.75,-2072.35 1406,-2078.48 1356.91,-2098.89 1295.58,-2107.48 1257.09,-2111.04"/>
<polygon fill="black" stroke="black" points="1256.53,-2107.58 1246.86,-2111.92 1257.13,-2114.55 1256.53,-2107.58"/>
<text text-anchor="middle" x="1913" y="-1658.28" font-family="Times,serif" font-size="14.00">0</text>
</g>
<!-- 9&#45;&gt;29 -->
<g id="edge95" class="edge">
<title>9&#45;&gt;29</title>
<path fill="none" stroke="black" d="M2118.89,-1228.71C2078.71,-1243.89 1995.85,-1275.2 1949.75,-1292.61"/>
<polygon fill="black" stroke="black" points="1948.35,-1289.4 1940.23,-1296.21 1950.82,-1295.95 1948.35,-1289.4"/>
<text text-anchor="middle" x="2047" y="-1258.78" font-family="Times,serif" font-size="14.00">2</text>
</g>
<!-- 10&#45;&gt;10 -->
<g id="edge85" class="edge">
<title>10&#45;&gt;10</title>
<path fill="none" stroke="black" d="M845.3,-854.4C855.83,-855.07 864.75,-851.85 864.75,-844.74 864.75,-840.07 860.91,-837.08 855.29,-835.77"/>
<polygon fill="black" stroke="black" points="855.52,-832.27 845.3,-835.08 855.04,-839.26 855.52,-832.27"/>
<text text-anchor="middle" x="869.75" y="-841.04" font-family="Times,serif" font-size="14.00">3</text>
</g>
<!-- 16 -->
<g id="node18" class="node">
<title>16</title>
<ellipse fill="none" stroke="black" cx="1359" cy="-748.99" rx="27" ry="18"/>
<text text-anchor="middle" x="1359" y="-745.29" font-family="Times,serif" font-size="14.00">16</text>
</g>
<!-- 10&#45;&gt;16 -->
<g id="edge96" class="edge">
<title>10&#45;&gt;16</title>
<path fill="none" stroke="black" d="M846.58,-840.4C925.94,-830.44 1156.17,-801.49 1164,-799.99 1221.2,-789.07 1286.54,-771.18 1325.2,-760.03"/>
<polygon fill="black" stroke="black" points="1326.27,-763.36 1334.9,-757.21 1324.32,-756.64 1326.27,-763.36"/>
<text text-anchor="middle" x="1234" y="-788.79" font-family="Times,serif" font-size="14.00">4</text>
</g>
<!-- 10&#45;&gt;24 -->
<g id="edge84" class="edge">
<title>10&#45;&gt;24</title>
<path fill="none" stroke="black" d="M798.53,-860.73C788.94,-868.37 778.2,-878.39 771,-889.49 635.1,-1098.79 640,-1185.93 640,-1435.48 640,-1749.98 640,-1749.98 640,-1749.98 640,-1769.26 638.7,-1790.96 637.43,-1807.61"/>
<polygon fill="black" stroke="black" points="633.93,-1807.5 636.61,-1817.74 640.9,-1808.06 633.93,-1807.5"/>
<text text-anchor="middle" x="646" y="-1345.78" font-family="Times,serif" font-size="14.00">2</text>
</g>
<!-- 10&#45;&gt;27 -->
<g id="edge90" class="edge">
<title>10&#45;&gt;27</title>
<path fill="none" stroke="black" d="M833.5,-868.06C844.43,-888.26 858,-919.2 858,-948.24 858,-1089.48 858,-1089.48 858,-1089.48 858,-1169.83 862.81,-1189.81 868,-1269.98 869.55,-1294 869.39,-1300.06 872,-1323.98 875.37,-1354.92 952,-1847.36 952,-1878.48 952,-2028.48 952,-2028.48 952,-2028.48 952,-2076.4 1109.65,-2100.81 1183.12,-2109.59"/>
<polygon fill="black" stroke="black" points="1182.99,-2113.1 1193.32,-2110.77 1183.79,-2106.14 1182.99,-2113.1"/>
<text text-anchor="middle" x="903" y="-1476.28" font-family="Times,serif" font-size="14.00">0</text>
</g>
<!-- 10&#45;&gt;28 -->
<g id="edge78" class="edge">
<title>10&#45;&gt;28</title>
<path fill="none" stroke="black" d="M811.33,-870.54C809.39,-876.68 807.47,-883.28 806,-889.49 768.17,-1049.48 761.7,-1091.07 749,-1254.98 730.03,-1499.8 771.3,-1794.94 787.14,-1895.33"/>
<polygon fill="black" stroke="black" points="783.69,-1895.93 788.73,-1905.25 790.61,-1894.82 783.69,-1895.93"/>
<text text-anchor="middle" x="750" y="-1389.28" font-family="Times,serif" font-size="14.00">1</text>
</g>
<!-- 11&#45;&gt;1 -->
<g id="edge52" class="edge">
<title>11&#45;&gt;1</title>
<path fill="none" stroke="black" d="M635.52,-226.41C627.96,-239.83 617.72,-259.8 612,-278.5 567.21,-424.8 552,-464.49 552,-617.49 552,-749.99 552,-749.99 552,-749.99 552,-787.77 518.64,-784.58 501,-817.99 452.86,-909.19 219.04,-1595.69 206,-1697.98 178.41,-1914.31 298.7,-1961.44 434,-2132.48 470.66,-2178.82 476.59,-2196.65 527,-2227.48 569.09,-2253.22 584.36,-2252.2 633,-2260.48 820.75,-2292.44 1425.87,-2295.29 1582.63,-2295.48"/>
<polygon fill="black" stroke="black" points="1582.71,-2298.98 1592.72,-2295.49 1582.72,-2291.98 1582.71,-2298.98"/>
<text text-anchor="middle" x="345" y="-1258.78" font-family="Times,serif" font-size="14.00">3</text>
</g>
<!-- 11&#45;&gt;6 -->
<g id="edge45" class="edge">
<title>11&#45;&gt;6</title>
<path fill="none" stroke="black" d="M624.61,-197.38C597.51,-182.62 549.46,-156.44 518.44,-139.54"/>
<polygon fill="black" stroke="black" points="519.86,-136.32 509.4,-134.61 516.51,-142.47 519.86,-136.32"/>
<text text-anchor="middle" x="582" y="-162.3" font-family="Times,serif" font-size="14.00">2</text>
</g>
<!-- 11&#45;&gt;7 -->
<g id="edge10" class="edge">
<title>11&#45;&gt;7</title>
<path fill="none" stroke="black" d="M670.78,-215.11C703.91,-221.2 763.08,-232.68 813,-245.5 962.92,-283.99 995.79,-310.14 1146,-347.5 1425.35,-416.97 1523.19,-343.97 1782,-469.99 1859,-507.49 1906,-531.85 1906,-617.49 1906,-793.49 1906,-793.49 1906,-793.49 1906,-936.37 1886.56,-971.22 1881,-1113.98 1880.38,-1129.97 1877.6,-1134.35 1881,-1149.98 1884.25,-1164.94 1891.08,-1180.54 1897.51,-1193.03"/>
<polygon fill="black" stroke="black" points="1894.46,-1194.75 1902.28,-1201.91 1900.63,-1191.44 1894.46,-1194.75"/>
<text text-anchor="middle" x="1911" y="-701.79" font-family="Times,serif" font-size="14.00">4</text>
</g>
<!-- 11&#45;&gt;13 -->
<g id="edge111" class="edge">
<title>11&#45;&gt;13</title>
<path fill="none" stroke="black" d="M654.02,-226.55C662.53,-243.25 674,-270.39 674,-295.5 674,-845.74 674,-845.74 674,-845.74 674,-867.76 674,-892.45 674,-912.07"/>
<polygon fill="black" stroke="black" points="670.5,-912.12 674,-922.12 677.5,-912.12 670.5,-912.12"/>
<text text-anchor="middle" x="679" y="-571.29" font-family="Times,serif" font-size="14.00">1</text>
</g>
<!-- 11&#45;&gt;18 -->
<g id="edge54" class="edge">
<title>11&#45;&gt;18</title>
<path fill="none" stroke="black" d="M645,-191.49C645,-162.49 645,-102.86 645,-64.12"/>
<polygon fill="black" stroke="black" points="648.5,-63.8 645,-53.8 641.5,-63.8 648.5,-63.8"/>
<text text-anchor="middle" x="650" y="-118.8" font-family="Times,serif" font-size="14.00">0</text>
</g>
<!-- 12&#45;&gt;6 -->
<g id="edge73" class="edge">
<title>12&#45;&gt;6</title>
<path fill="none" stroke="black" d="M1017.79,-562.72C958.96,-529.36 784.1,-426.49 660,-314.5 599.13,-259.56 537.31,-184.78 507.43,-147.16"/>
<polygon fill="black" stroke="black" points="509.82,-144.54 500.88,-138.86 504.33,-148.88 509.82,-144.54"/>
<text text-anchor="middle" x="704" y="-336.3" font-family="Times,serif" font-size="14.00">0</text>
</g>
<!-- 12&#45;&gt;10 -->
<g id="edge76" class="edge">
<title>12&#45;&gt;10</title>
<path fill="none" stroke="black" d="M1025.69,-591.11C990.51,-634.32 889.06,-758.92 843.11,-815.36"/>
<polygon fill="black" stroke="black" points="840.34,-813.21 836.74,-823.17 845.77,-817.63 840.34,-813.21"/>
<text text-anchor="middle" x="942" y="-701.79" font-family="Times,serif" font-size="14.00">3</text>
</g>
<!-- 12&#45;&gt;12 -->
<g id="edge107" class="edge">
<title>12&#45;&gt;12</title>
<path fill="none" stroke="black" d="M1062.53,-582.74C1073.51,-583.48 1083,-580.9 1083,-574.99 1083,-571.02 1078.72,-568.56 1072.57,-567.59"/>
<polygon fill="black" stroke="black" points="1072.65,-564.09 1062.53,-567.24 1072.41,-571.08 1072.65,-564.09"/>
<text text-anchor="middle" x="1088" y="-571.29" font-family="Times,serif" font-size="14.00">2</text>
</g>
<!-- 12&#45;&gt;21 -->
<g id="edge53" class="edge">
<title>12&#45;&gt;21</title>
<path fill="none" stroke="black" d="M1059.72,-585.76C1093.26,-600.84 1157.8,-629.87 1196.16,-647.12"/>
<polygon fill="black" stroke="black" points="1194.76,-650.33 1205.32,-651.24 1197.63,-643.95 1194.76,-650.33"/>
<text text-anchor="middle" x="1149" y="-614.79" font-family="Times,serif" font-size="14.00">4</text>
</g>
<!-- 23 -->
<g id="node25" class="node">
<title>23</title>
<ellipse fill="none" stroke="black" cx="1609" cy="-1392.98" rx="27" ry="18"/>
<text text-anchor="middle" x="1609" y="-1389.28" font-family="Times,serif" font-size="14.00">23</text>
</g>
<!-- 12&#45;&gt;23 -->
<g id="edge86" class="edge">
<title>12&#45;&gt;23</title>
<path fill="none" stroke="black" d="M1047.4,-592.03C1093.19,-669.68 1298.93,-1013.44 1502,-1269.98 1530.59,-1306.1 1566.31,-1345.86 1588.39,-1369.86"/>
<polygon fill="black" stroke="black" points="1585.97,-1372.4 1595.32,-1377.37 1591.11,-1367.65 1585.97,-1372.4"/>
<text text-anchor="middle" x="1316" y="-997.78" font-family="Times,serif" font-size="14.00">1</text>
</g>
<!-- 13&#45;&gt;0 -->
<g id="edge136" class="edge">
<title>13&#45;&gt;0</title>
<path fill="none" stroke="black" d="M648,-957.26C625.09,-964.23 591.49,-976.43 566,-993.98 522.49,-1023.94 514.17,-1036.93 485,-1080.98 453.56,-1128.47 298.73,-1496.77 276,-1548.98 274.69,-1551.99 92,-1979.71 92,-1982.98 92,-2297.48 92,-2297.48 92,-2297.48 92,-2344.58 1642.67,-2376.68 1904.63,-2381.77"/>
<polygon fill="black" stroke="black" points="1904.71,-2385.27 1914.77,-2381.97 1904.84,-2378.27 1904.71,-2385.27"/>
<text text-anchor="middle" x="241" y="-1658.28" font-family="Times,serif" font-size="14.00">1</text>
</g>
<!-- 13&#45;&gt;8 -->
<g id="edge16" class="edge">
<title>13&#45;&gt;8</title>
<path fill="none" stroke="black" d="M676.93,-975.86C687.59,-1059.26 730.85,-1327.42 862,-1497.98 1016.95,-1699.5 1139.78,-1681.35 1392,-1712.98 1481.88,-1724.26 1587.67,-1737.03 1642.26,-1743.59"/>
<polygon fill="black" stroke="black" points="1642.14,-1747.1 1652.48,-1744.81 1642.97,-1740.14 1642.14,-1747.1"/>
<text text-anchor="middle" x="785" y="-1345.78" font-family="Times,serif" font-size="14.00">4</text>
</g>
<!-- 13&#45;&gt;10 -->
<g id="edge123" class="edge">
<title>13&#45;&gt;10</title>
<path fill="none" stroke="black" d="M690.97,-928.37C702.09,-916.15 717.4,-900.73 733,-889.49 749.28,-877.75 769.17,-867.49 785.82,-859.87"/>
<polygon fill="black" stroke="black" points="787.48,-862.96 795.19,-855.69 784.64,-856.56 787.48,-862.96"/>
<text text-anchor="middle" x="738" y="-893.29" font-family="Times,serif" font-size="14.00">0</text>
</g>
<!-- 13&#45;&gt;11 -->
<g id="edge38" class="edge">
<title>13&#45;&gt;11</title>
<path fill="none" stroke="black" d="M652.42,-932.77C629.96,-914.69 598,-882.51 598,-845.74 598,-845.74 598,-845.74 598,-443.49 598,-367.25 622.48,-279.69 636.11,-236.87"/>
<polygon fill="black" stroke="black" points="639.48,-237.81 639.24,-227.22 632.82,-235.65 639.48,-237.81"/>
<text text-anchor="middle" x="603" y="-571.29" font-family="Times,serif" font-size="14.00">2</text>
</g>
<!-- 13&#45;&gt;24 -->
<g id="edge119" class="edge">
<title>13&#45;&gt;24</title>
<path fill="none" stroke="black" d="M665.58,-974.68C652.28,-1014.57 626.81,-1096.42 616,-1167.98 592.45,-1323.89 602,-1364.81 602,-1522.48 602,-1749.98 602,-1749.98 602,-1749.98 602,-1771.29 611.12,-1793.69 619.77,-1810.14"/>
<polygon fill="black" stroke="black" points="616.83,-1812.04 624.74,-1819.08 622.95,-1808.64 616.83,-1812.04"/>
<text text-anchor="middle" x="606" y="-1389.28" font-family="Times,serif" font-size="14.00">3</text>
</g>
<!-- 14&#45;&gt;7 -->
<g id="edge43" class="edge">
<title>14&#45;&gt;7</title>
<path fill="none" stroke="black" d="M1767.81,-498.93C1802.9,-515.63 1868,-549.86 1868,-573.99 1868,-793.49 1868,-793.49 1868,-793.49 1868,-940.86 1933.95,-967.85 1953,-1113.98 1955.07,-1129.85 1956.58,-1134.39 1953,-1149.98 1949.35,-1165.87 1945.32,-1168.97 1937,-1182.98 1934.77,-1186.74 1932.25,-1190.61 1929.7,-1194.34"/>
<polygon fill="black" stroke="black" points="1926.71,-1192.5 1923.78,-1202.68 1932.42,-1196.55 1926.71,-1192.5"/>
<text text-anchor="middle" x="1880" y="-841.04" font-family="Times,serif" font-size="14.00">3</text>
</g>
<!-- 20 -->
<g id="node22" class="node">
<title>20</title>
<ellipse fill="none" stroke="black" cx="1613" cy="-574.99" rx="27" ry="18"/>
<text text-anchor="middle" x="1613" y="-571.29" font-family="Times,serif" font-size="14.00">20</text>
</g>
<!-- 14&#45;&gt;20 -->
<g id="edge135" class="edge">
<title>14&#45;&gt;20</title>
<path fill="none" stroke="black" d="M1721.04,-495.34C1702.28,-500.9 1676.57,-510.26 1657,-523.99 1646.85,-531.11 1637.49,-541.03 1630.03,-550.17"/>
<polygon fill="black" stroke="black" points="1627.14,-548.19 1623.75,-558.23 1632.66,-552.49 1627.14,-548.19"/>
<text text-anchor="middle" x="1662" y="-527.79" font-family="Times,serif" font-size="14.00">0</text>
</g>
<!-- 14&#45;&gt;22 -->
<g id="edge108" class="edge">
<title>14&#45;&gt;22</title>
<path fill="none" stroke="black" d="M1753.1,-505.69C1762.78,-528.94 1780.12,-572.54 1791,-610.99 1851.13,-823.58 1825.47,-888.01 1900,-1095.98 1901.14,-1099.16 1902.48,-1102.44 1903.91,-1105.64"/>
<polygon fill="black" stroke="black" points="1900.85,-1107.38 1908.29,-1114.92 1907.18,-1104.38 1900.85,-1107.38"/>
<text text-anchor="middle" x="1836" y="-788.79" font-family="Times,serif" font-size="14.00">1</text>
</g>
<!-- 14&#45;&gt;25 -->
<g id="edge11" class="edge">
<title>14&#45;&gt;25</title>
<path fill="none" stroke="black" d="M1721.42,-496.18C1693.99,-504.32 1651.45,-517.3 1636,-523.99 1541.94,-564.76 1488.52,-554.23 1439,-643.99 1431.27,-658 1434.71,-664.58 1439,-679.99 1448.46,-713.99 1480,-712.7 1480,-747.99 1480,-897.99 1480,-897.99 1480,-897.99 1480,-1058.88 1336.67,-1443.56 1277,-1592.98 1270.88,-1608.31 1272.22,-1614.9 1260,-1625.98 1245.34,-1639.28 1225.01,-1647.81 1207.58,-1653.12"/>
<polygon fill="black" stroke="black" points="1206.41,-1649.81 1197.72,-1655.88 1208.3,-1656.55 1206.41,-1649.81"/>
<text text-anchor="middle" x="1455" y="-1084.78" font-family="Times,serif" font-size="14.00">4</text>
</g>
<!-- 14&#45;&gt;26 -->
<g id="edge24" class="edge">
<title>14&#45;&gt;26</title>
<path fill="none" stroke="black" d="M1767.57,-476.78C1802.08,-460.44 1869.99,-428.28 1910.75,-408.99"/>
<polygon fill="black" stroke="black" points="1912.46,-412.05 1920,-404.61 1909.47,-405.72 1912.46,-412.05"/>
<text text-anchor="middle" x="1855" y="-440.79" font-family="Times,serif" font-size="14.00">2</text>
</g>
<!-- 15&#45;&gt;1 -->
<g id="edge12" class="edge">
<title>15&#45;&gt;1</title>
<path fill="none" stroke="black" d="M1486.83,-1497.57C1499.2,-1534.32 1527,-1625.65 1527,-1704.48 1527,-1880.48 1527,-1880.48 1527,-1880.48 1527,-1885.47 1593.18,-2177.35 1613.88,-2268.55"/>
<polygon fill="black" stroke="black" points="1610.49,-2269.43 1616.12,-2278.41 1617.32,-2267.88 1610.49,-2269.43"/>
<text text-anchor="middle" x="1533" y="-1875.78" font-family="Times,serif" font-size="14.00">2</text>
</g>
<!-- 15&#45;&gt;9 -->
<g id="edge102" class="edge">
<title>15&#45;&gt;9</title>
<path fill="none" stroke="black" d="M1505.59,-1472.47C1576.44,-1453.36 1786.58,-1394.36 1953,-1323.98 2012.94,-1298.63 2078.59,-1259.78 2114.58,-1237.43"/>
<polygon fill="black" stroke="black" points="2116.45,-1240.4 2123.07,-1232.13 2112.74,-1234.46 2116.45,-1240.4"/>
<text text-anchor="middle" x="1910" y="-1345.78" font-family="Times,serif" font-size="14.00">0</text>
</g>
<!-- 15&#45;&gt;13 -->
<g id="edge148" class="edge">
<title>15&#45;&gt;13</title>
<path fill="none" stroke="black" d="M1460.91,-1467.7C1450.16,-1461.3 1436.91,-1452.81 1426,-1443.98 1367.85,-1396.94 1360.16,-1377.59 1308,-1323.98 1276.05,-1291.15 1061.81,-1049.66 1022,-1026.98 919.9,-968.81 777.75,-954.71 711.18,-951.31"/>
<polygon fill="black" stroke="black" points="710.93,-947.79 700.78,-950.83 710.61,-954.79 710.93,-947.79"/>
<text text-anchor="middle" x="1233" y="-1215.28" font-family="Times,serif" font-size="14.00">3</text>
</g>
<!-- 15&#45;&gt;20 -->
<g id="edge80" class="edge">
<title>15&#45;&gt;20</title>
<path fill="none" stroke="black" d="M1492.71,-1463.61C1502.92,-1450.01 1517.93,-1429.52 1530,-1410.98 1554.46,-1373.43 1564.23,-1365.55 1581,-1323.98 1633.05,-1195 1632,-916.07 1632,-897.99 1632,-897.99 1632,-897.99 1632,-660.99 1632,-640.96 1626.91,-618.89 1622,-602.26"/>
<polygon fill="black" stroke="black" points="1625.33,-601.18 1619.01,-592.68 1618.65,-603.27 1625.33,-601.18"/>
<text text-anchor="middle" x="1633" y="-1041.28" font-family="Times,serif" font-size="14.00">1</text>
</g>
<!-- 15&#45;&gt;23 -->
<g id="edge142" class="edge">
<title>15&#45;&gt;23</title>
<path fill="none" stroke="black" d="M1495.75,-1464.79C1507.24,-1454.16 1523.89,-1439.68 1540,-1428.98 1551.74,-1421.19 1565.45,-1413.9 1577.55,-1408.02"/>
<polygon fill="black" stroke="black" points="1579.29,-1411.06 1586.83,-1403.61 1576.29,-1404.74 1579.29,-1411.06"/>
<text text-anchor="middle" x="1545" y="-1432.78" font-family="Times,serif" font-size="14.00">4</text>
</g>
<!-- 16&#45;&gt;15 -->
<g id="edge101" class="edge">
<title>16&#45;&gt;15</title>
<path fill="none" stroke="black" d="M1369.78,-765.89C1373.39,-771.71 1377.21,-778.48 1380,-784.99 1404.98,-843.26 1404.45,-860.55 1418,-922.49 1428.06,-968.45 1429.33,-980.27 1435,-1026.98 1457.4,-1211.51 1424.98,-1262.92 1467,-1443.98 1467.7,-1447.01 1468.63,-1450.12 1469.66,-1453.17"/>
<polygon fill="black" stroke="black" points="1466.42,-1454.48 1473.24,-1462.58 1472.96,-1451.99 1466.42,-1454.48"/>
<text text-anchor="middle" x="1449" y="-1128.28" font-family="Times,serif" font-size="14.00">2</text>
</g>
<!-- 16&#45;&gt;16 -->
<g id="edge146" class="edge">
<title>16&#45;&gt;16</title>
<path fill="none" stroke="black" d="M1383.53,-756.74C1394.51,-757.48 1404,-754.9 1404,-748.99 1404,-745.02 1399.72,-742.56 1393.57,-741.59"/>
<polygon fill="black" stroke="black" points="1393.65,-738.09 1383.53,-741.24 1393.41,-745.08 1393.65,-738.09"/>
<text text-anchor="middle" x="1409" y="-745.29" font-family="Times,serif" font-size="14.00">4</text>
</g>
<!-- 16&#45;&gt;21 -->
<g id="edge15" class="edge">
<title>16&#45;&gt;21</title>
<path fill="none" stroke="black" d="M1340.09,-735.81C1317.64,-721.36 1280.03,-697.14 1254.4,-680.64"/>
<polygon fill="black" stroke="black" points="1256.18,-677.62 1245.88,-675.15 1252.39,-683.5 1256.18,-677.62"/>
<text text-anchor="middle" x="1306" y="-701.79" font-family="Times,serif" font-size="14.00">3</text>
</g>
<!-- 16&#45;&gt;25 -->
<g id="edge29" class="edge">
<title>16&#45;&gt;25</title>
<path fill="none" stroke="black" d="M1352.02,-766.48C1334.45,-808.82 1288.31,-925.23 1268,-1026.98 1241.87,-1157.9 1288.14,-1510.02 1222,-1625.98 1217.47,-1633.92 1210.32,-1640.48 1202.83,-1645.7"/>
<polygon fill="black" stroke="black" points="1200.64,-1642.93 1194.01,-1651.2 1204.34,-1648.87 1200.64,-1642.93"/>
<text text-anchor="middle" x="1265" y="-1215.28" font-family="Times,serif" font-size="14.00">1</text>
</g>
<!-- 16&#45;&gt;26 -->
<g id="edge13" class="edge">
<title>16&#45;&gt;26</title>
<path fill="none" stroke="black" d="M1354.31,-731.07C1342.07,-682.82 1314.76,-543.34 1385,-469.99 1456.87,-394.94 1793.54,-391.58 1906.75,-392.62"/>
<polygon fill="black" stroke="black" points="1906.96,-396.12 1916.99,-392.74 1907.03,-389.13 1906.96,-396.12"/>
<text text-anchor="middle" x="1349" y="-571.29" font-family="Times,serif" font-size="14.00">0</text>
</g>
<!-- 17&#45;&gt;1 -->
<g id="edge106" class="edge">
<title>17&#45;&gt;1</title>
<path fill="none" stroke="black" d="M970.68,-1060.03C955.34,-1075.71 934,-1102.61 934,-1130.98 934,-1263.48 934,-1263.48 934,-1263.48 934,-1353.94 903.37,-1372.67 889,-1461.98 858.85,-1649.34 881.59,-1700.22 848,-1886.98 842.18,-1919.34 850.98,-1934.03 829,-1958.48 814.04,-1975.11 797.07,-1959.95 782,-1976.48 766.46,-1993.54 768,-2003.4 768,-2026.48 768,-2206.48 768,-2206.48 768,-2206.48 768,-2289.61 1417.93,-2295.42 1582.49,-2295.56"/>
<polygon fill="black" stroke="black" points="1582.62,-2299.06 1592.62,-2295.56 1582.62,-2292.06 1582.62,-2299.06"/>
<text text-anchor="middle" x="876" y="-1658.28" font-family="Times,serif" font-size="14.00">2</text>
</g>
<!-- 17&#45;&gt;11 -->
<g id="edge103" class="edge">
<title>17&#45;&gt;11</title>
<path fill="none" stroke="black" d="M978.56,-1027.34C946.05,-954.29 818,-663.78 818,-619.49 818,-619.49 818,-619.49 818,-295.5 818,-235.39 732.83,-217.78 682.01,-212.63"/>
<polygon fill="black" stroke="black" points="682.3,-209.14 672.03,-211.73 681.68,-216.11 682.3,-209.14"/>
<text text-anchor="middle" x="824" y="-614.79" font-family="Times,serif" font-size="14.00">0</text>
</g>
<!-- 17&#45;&gt;13 -->
<g id="edge138" class="edge">
<title>17&#45;&gt;13</title>
<path fill="none" stroke="black" d="M961.78,-1036.71C907.01,-1020.25 773.44,-980.11 709.39,-960.87"/>
<polygon fill="black" stroke="black" points="710.31,-957.49 699.73,-957.97 708.3,-964.2 710.31,-957.49"/>
<text text-anchor="middle" x="873" y="-997.78" font-family="Times,serif" font-size="14.00">3</text>
</g>
<!-- 17&#45;&gt;22 -->
<g id="edge59" class="edge">
<title>17&#45;&gt;22</title>
<path fill="none" stroke="black" d="M1012.13,-1049.95C1075.87,-1059.49 1244.46,-1083.77 1386,-1095.98 1552.68,-1110.37 1595.21,-1100.86 1762,-1113.98 1802.73,-1117.19 1849.32,-1122.52 1880.69,-1126.36"/>
<polygon fill="black" stroke="black" points="1880.36,-1129.85 1890.72,-1127.6 1881.22,-1122.9 1880.36,-1129.85"/>
<text text-anchor="middle" x="1391" y="-1084.78" font-family="Times,serif" font-size="14.00">4</text>
</g>
<!-- 17&#45;&gt;27 -->
<g id="edge58" class="edge">
<title>17&#45;&gt;27</title>
<path fill="none" stroke="black" d="M988.69,-1062.97C1002.1,-1146.81 1062.6,-1516.89 1103,-1625.98 1139.97,-1725.81 1220,-1728.53 1220,-1834.98 1220,-2028.48 1220,-2028.48 1220,-2028.48 1220,-2047.73 1220,-2069.43 1220,-2086.08"/>
<polygon fill="black" stroke="black" points="1216.5,-2086.22 1220,-2096.22 1223.5,-2086.22 1216.5,-2086.22"/>
<text text-anchor="middle" x="1098" y="-1567.28" font-family="Times,serif" font-size="14.00">1</text>
</g>
<!-- 18&#45;&gt;0 -->
<g id="edge46" class="edge">
<title>18&#45;&gt;0</title>
<path fill="none" stroke="black" d="M671.79,-27.84C883,-28.6 2276.35,-35 2459,-71.5 2528.07,-85.3 2576,-105.1 2576,-121.5 2576,-2297.48 2576,-2297.48 2576,-2297.48 2576,-2357.73 2509.05,-2335.51 2450,-2347.48 2276.55,-2382.63 2063.73,-2384.21 1979.18,-2383.23"/>
<polygon fill="black" stroke="black" points="1979.09,-2379.73 1969.04,-2383.09 1979,-2386.72 1979.09,-2379.73"/>
<text text-anchor="middle" x="2581" y="-1215.28" font-family="Times,serif" font-size="14.00">4</text>
</g>
<!-- 18&#45;&gt;5 -->
<g id="edge124" class="edge">
<title>18&#45;&gt;5</title>
<path fill="none" stroke="black" d="M617.95,-27.33C524.02,-26.31 212.91,-26.46 126,-71.5 100.23,-84.85 84,-92.47 84,-121.5 84,-845.74 84,-845.74 84,-845.74 84,-1072.28 168,-1121.94 168,-1348.48 168,-1619.48 168,-1619.48 168,-1619.48 168,-1768.93 278.86,-1780.51 409,-1853.98 579.44,-1950.21 642.01,-1929.45 832,-1976.48 888.64,-1990.5 954.32,-2007.38 993.45,-2017.51"/>
<polygon fill="black" stroke="black" points="992.72,-2020.93 1003.28,-2020.05 994.47,-2014.16 992.72,-2020.93"/>
<text text-anchor="middle" x="121" y="-1041.28" font-family="Times,serif" font-size="14.00">0</text>
</g>
<!-- 18&#45;&gt;8 -->
<g id="edge34" class="edge">
<title>18&#45;&gt;8</title>
<path fill="none" stroke="black" d="M671.98,-27.71C860.74,-27.54 1986,-28.41 2325,-71.5 2546.87,-99.69 2492,-76.19 2492,-121.5 2492,-706.49 2492,-706.49 2492,-706.49 2492,-799.17 2428.86,-804.45 2392,-889.49 2356.37,-971.7 2356.35,-995.66 2329,-1080.98 2302.14,-1164.78 2308.9,-1191.05 2270,-1269.98 2210.02,-1391.68 2164.95,-1404.1 2067,-1497.98 1956.76,-1603.65 1939.83,-1653.96 1799,-1712.98 1771.33,-1724.58 1738.55,-1733.86 1714.25,-1739.94"/>
<polygon fill="black" stroke="black" points="1713.27,-1736.58 1704.39,-1742.35 1714.93,-1743.38 1713.27,-1736.58"/>
<text text-anchor="middle" x="2397" y="-893.29" font-family="Times,serif" font-size="14.00">3</text>
</g>
<!-- 18&#45;&gt;25 -->
<g id="edge137" class="edge">
<title>18&#45;&gt;25</title>
<path fill="none" stroke="black" d="M671.74,-29.68C758.74,-37.56 1034.58,-75.58 1146,-245.5 1187.82,-309.27 1019.09,-482.67 1002,-556.99 978.95,-657.19 1133.04,-893.33 1154,-993.98 1186.15,-1148.39 1170,-1190.77 1170,-1348.48 1170,-1524.48 1170,-1524.48 1170,-1524.48 1170,-1562.35 1170.78,-1606.13 1171.36,-1633.68"/>
<polygon fill="black" stroke="black" points="1167.87,-1633.83 1171.59,-1643.75 1174.87,-1633.67 1167.87,-1633.83"/>
<text text-anchor="middle" x="1112" y="-841.04" font-family="Times,serif" font-size="14.00">2</text>
</g>
<!-- 18&#45;&gt;28 -->
<g id="edge64" class="edge">
<title>18&#45;&gt;28</title>
<path fill="none" stroke="black" d="M618.19,-28.56C520.19,-31.74 185.02,-44.49 146,-71.5 125.73,-85.52 122,-96.85 122,-121.5 122,-793.49 122,-793.49 122,-793.49 122,-992.9 157.05,-1040.31 190,-1236.98 192.46,-1251.69 192.32,-1255.54 196,-1269.98 210.35,-1326.34 324.9,-1720.62 360,-1766.98 401.75,-1822.12 425.87,-1825.77 489,-1853.98 580.46,-1894.86 697.54,-1916.63 756.13,-1925.64"/>
<polygon fill="black" stroke="black" points="755.96,-1929.15 766.37,-1927.17 757,-1922.23 755.96,-1929.15"/>
<text text-anchor="middle" x="148" y="-997.78" font-family="Times,serif" font-size="14.00">1</text>
</g>
<!-- 19&#45;&gt;0 -->
<g id="edge28" class="edge">
<title>19&#45;&gt;0</title>
<path fill="none" stroke="black" d="M2280.58,-217.25C2298.07,-222.87 2321.46,-232.13 2339,-245.5 2353.85,-256.81 2355.48,-262.43 2365,-278.5 2425.53,-380.69 2454,-411.71 2454,-530.49 2454,-706.49 2454,-706.49 2454,-706.49 2454,-994.25 2538,-1060.72 2538,-1348.48 2538,-2297.48 2538,-2297.48 2538,-2297.48 2538,-2354.16 2110.15,-2375.81 1979.46,-2381.1"/>
<polygon fill="black" stroke="black" points="1979.01,-2377.62 1969.16,-2381.51 1979.29,-2384.61 1979.01,-2377.62"/>
<text text-anchor="middle" x="2542" y="-1302.28" font-family="Times,serif" font-size="14.00">0</text>
</g>
<!-- 19&#45;&gt;3 -->
<g id="edge71" class="edge">
<title>19&#45;&gt;3</title>
<path fill="none" stroke="black" d="M2275.81,-222.2C2284.74,-228.26 2294.86,-236.31 2302,-245.5 2311.78,-258.07 2310.97,-263.38 2316,-278.5 2334.21,-333.22 2378,-472.82 2378,-530.49 2378,-706.49 2378,-706.49 2378,-706.49 2378,-795.13 2405.82,-815.93 2402,-904.49 2401.07,-926.09 2340.94,-1659.19 2335,-1679.98 2318.57,-1737.51 2313.64,-1755.18 2274,-1799.98 2186.31,-1899.09 1890.11,-2059.09 1780,-2132.48 1757.84,-2147.25 1752.76,-2151.66 1730,-2165.48 1716.41,-2173.73 1701.01,-2182.39 1688.12,-2189.44"/>
<polygon fill="black" stroke="black" points="1686.35,-2186.42 1679.24,-2194.27 1689.69,-2192.57 1686.35,-2186.42"/>
<text text-anchor="middle" x="2382" y="-1215.28" font-family="Times,serif" font-size="14.00">3</text>
</g>
<!-- 19&#45;&gt;7 -->
<g id="edge82" class="edge">
<title>19&#45;&gt;7</title>
<path fill="none" stroke="black" d="M2250.6,-227.32C2228.58,-296.11 2143.98,-562.86 2084,-784.99 2057.3,-883.86 2062.38,-911.84 2030,-1008.98 2003.37,-1088.87 2005.78,-1115.81 1955,-1182.98 1950.45,-1189 1944.66,-1194.62 1938.81,-1199.51"/>
<polygon fill="black" stroke="black" points="1936.61,-1196.78 1930.91,-1205.7 1940.93,-1202.29 1936.61,-1196.78"/>
<text text-anchor="middle" x="2112" y="-701.79" font-family="Times,serif" font-size="14.00">1</text>
</g>
<!-- 19&#45;&gt;13 -->
<g id="edge2" class="edge">
<title>19&#45;&gt;13</title>
<path fill="none" stroke="black" d="M2236.8,-222.55C2226.8,-229.04 2214.5,-237.37 2204,-245.5 2111.99,-316.69 2101.96,-350.4 2008,-418.99 1631.25,-694.04 1514.58,-762.61 1061,-871.49 933.03,-902.21 779.15,-930.05 710.34,-942.03"/>
<polygon fill="black" stroke="black" points="709.69,-938.59 700.43,-943.74 710.89,-945.48 709.69,-938.59"/>
<text text-anchor="middle" x="1818" y="-571.29" font-family="Times,serif" font-size="14.00">2</text>
</g>
<!-- 19&#45;&gt;16 -->
<g id="edge61" class="edge">
<title>19&#45;&gt;16</title>
<path fill="none" stroke="black" d="M2229.3,-212.73C2176.88,-217.98 2057.9,-234.17 1969,-278.5 1777.74,-373.85 1736.66,-414.92 1577,-556.99 1521.99,-605.94 1522.25,-632.48 1466,-679.99 1441.72,-700.5 1410.8,-719.5 1388.44,-732.18"/>
<polygon fill="black" stroke="black" points="1386.46,-729.28 1379.43,-737.21 1389.87,-735.39 1386.46,-729.28"/>
<text text-anchor="middle" x="1680" y="-484.29" font-family="Times,serif" font-size="14.00">4</text>
</g>
<!-- 20&#45;&gt;6 -->
<g id="edge99" class="edge">
<title>20&#45;&gt;6</title>
<path fill="none" stroke="black" d="M1586.62,-570.82C1550.81,-566.09 1485.05,-555.89 1431,-538.99 1339.64,-510.44 1309.57,-510.73 1234,-451.99 1141.9,-380.41 1171.08,-307.05 1072,-245.5 978.72,-187.54 638.9,-141.77 525.86,-127.86"/>
<polygon fill="black" stroke="black" points="525.99,-124.35 515.64,-126.62 525.14,-131.3 525.99,-124.35"/>
<text text-anchor="middle" x="1162" y="-336.3" font-family="Times,serif" font-size="14.00">4</text>
</g>
<!-- 20&#45;&gt;8 -->
<g id="edge25" class="edge">
<title>20&#45;&gt;8</title>
<path fill="none" stroke="black" d="M1634.61,-586.1C1645.68,-592.11 1658.74,-600.6 1668,-610.99 1678.84,-623.16 1680.32,-628.11 1684,-643.99 1754.08,-946.19 1686.33,-1031.76 1687,-1341.98 1687.01,-1348.65 1687.22,-1350.32 1687,-1356.98 1685.44,-1403.73 1681.64,-1415.24 1680,-1461.98 1676.67,-1556.99 1677.76,-1669.85 1678.52,-1720.73"/>
<polygon fill="black" stroke="black" points="1675.03,-1720.95 1678.68,-1730.89 1682.03,-1720.84 1675.03,-1720.95"/>
<text text-anchor="middle" x="1699" y="-1171.78" font-family="Times,serif" font-size="14.00">1</text>
</g>
<!-- 20&#45;&gt;14 -->
<g id="edge35" class="edge">
<title>20&#45;&gt;14</title>
<path fill="none" stroke="black" d="M1631.77,-561.99C1654.32,-547.58 1692.34,-523.29 1718.27,-506.72"/>
<polygon fill="black" stroke="black" points="1720.35,-509.54 1726.89,-501.2 1716.58,-503.64 1720.35,-509.54"/>
<text text-anchor="middle" x="1692" y="-527.79" font-family="Times,serif" font-size="14.00">0</text>
</g>
<!-- 20&#45;&gt;15 -->
<g id="edge83" class="edge">
<title>20&#45;&gt;15</title>
<path fill="none" stroke="black" d="M1606.99,-592.68C1601.42,-609.64 1594,-636.8 1594,-660.99 1594,-897.99 1594,-897.99 1594,-897.99 1594,-1049.24 1595.43,-1089.03 1564,-1236.98 1546.79,-1318 1510.61,-1409.39 1492.23,-1453.06"/>
<polygon fill="black" stroke="black" points="1488.97,-1451.79 1488.28,-1462.37 1495.41,-1454.53 1488.97,-1451.79"/>
<text text-anchor="middle" x="1597" y="-1041.28" font-family="Times,serif" font-size="14.00">2</text>
</g>
<!-- 20&#45;&gt;16 -->
<g id="edge21" class="edge">
<title>20&#45;&gt;16</title>
<path fill="none" stroke="black" d="M1591.14,-585.77C1576.88,-592.39 1558.01,-601.61 1542,-610.99 1481.08,-646.7 1416.44,-698.95 1382.68,-727.5"/>
<polygon fill="black" stroke="black" points="1380.13,-725.07 1374.79,-734.22 1384.67,-730.4 1380.13,-725.07"/>
<text text-anchor="middle" x="1495" y="-658.29" font-family="Times,serif" font-size="14.00">3</text>
</g>
<!-- 21&#45;&gt;12 -->
<g id="edge104" class="edge">
<title>21&#45;&gt;12</title>
<path fill="none" stroke="black" d="M1211.29,-647.17C1197.92,-636.03 1177.8,-620.69 1158,-610.99 1131.06,-597.8 1098.22,-588.64 1073.71,-583.02"/>
<polygon fill="black" stroke="black" points="1074.27,-579.56 1063.75,-580.82 1072.77,-586.4 1074.27,-579.56"/>
<text text-anchor="middle" x="1188" y="-614.79" font-family="Times,serif" font-size="14.00">3</text>
</g>
<!-- 21&#45;&gt;13 -->
<g id="edge110" class="edge">
<title>21&#45;&gt;13</title>
<path fill="none" stroke="black" d="M1210.58,-676.34C1196.16,-687.49 1174.22,-703.11 1153,-712.99 998.42,-784.96 930.85,-731.34 784,-817.99 743.46,-841.91 710.83,-886.38 691.94,-916.64"/>
<polygon fill="black" stroke="black" points="688.73,-915.17 686.52,-925.53 694.71,-918.81 688.73,-915.17"/>
<text text-anchor="middle" x="855" y="-788.79" font-family="Times,serif" font-size="14.00">1</text>
</g>
<!-- 21&#45;&gt;16 -->
<g id="edge149" class="edge">
<title>21&#45;&gt;16</title>
<path fill="none" stroke="black" d="M1251.68,-669.4C1270.22,-674.98 1295.65,-684.35 1315,-697.99 1325.13,-705.13 1334.49,-715.06 1341.95,-724.19"/>
<polygon fill="black" stroke="black" points="1339.33,-726.51 1348.24,-732.24 1344.84,-722.2 1339.33,-726.51"/>
<text text-anchor="middle" x="1337" y="-701.79" font-family="Times,serif" font-size="14.00">0</text>
</g>
<!-- 21&#45;&gt;20 -->
<g id="edge133" class="edge">
<title>21&#45;&gt;20</title>
<path fill="none" stroke="black" d="M1251.87,-654.89C1291.56,-645.21 1371.72,-625.91 1440,-610.99 1487.34,-600.65 1542.21,-589.73 1577.24,-582.89"/>
<polygon fill="black" stroke="black" points="1578.3,-586.25 1587.45,-580.91 1576.96,-579.38 1578.3,-586.25"/>
<text text-anchor="middle" x="1445" y="-614.79" font-family="Times,serif" font-size="14.00">2</text>
</g>
<!-- 21&#45;&gt;29 -->
<g id="edge77" class="edge">
<title>21&#45;&gt;29</title>
<path fill="none" stroke="black" d="M1221.84,-679.89C1214.75,-703.36 1201.75,-747.23 1192,-784.99 1100.46,-1139.68 1135.31,-986.12 1144,-1008.98 1155.41,-1039 1168.03,-1041.61 1192,-1062.98 1402.82,-1250.95 1764.28,-1293.64 1880.13,-1302.7"/>
<polygon fill="black" stroke="black" points="1880.01,-1306.2 1890.25,-1303.45 1880.53,-1299.22 1880.01,-1306.2"/>
<text text-anchor="middle" x="1149" y="-997.78" font-family="Times,serif" font-size="14.00">4</text>
</g>
<!-- 22&#45;&gt;1 -->
<g id="edge23" class="edge">
<title>22&#45;&gt;1</title>
<path fill="none" stroke="black" d="M1931.61,-1147.22C1952.52,-1168.54 1990.48,-1210.97 2009,-1254.98 2047.91,-1347.48 2052,-1604.14 2052,-1704.48 2052,-1880.48 2052,-1880.48 2052,-1880.48 2052,-2064.77 1981.63,-2130.37 1825,-2227.48 1798.14,-2244.14 1791.56,-2249.28 1762,-2260.48 1727,-2273.74 1685.23,-2283.33 1656.09,-2289.09"/>
<polygon fill="black" stroke="black" points="1655.12,-2285.71 1645.96,-2291.03 1656.44,-2292.58 1655.12,-2285.71"/>
<text text-anchor="middle" x="2057" y="-1701.78" font-family="Times,serif" font-size="14.00">3</text>
</g>
<!-- 22&#45;&gt;7 -->
<g id="edge74" class="edge">
<title>22&#45;&gt;7</title>
<path fill="none" stroke="black" d="M1914.07,-1150.02C1913.23,-1155.71 1912.42,-1162.11 1912,-1167.98 1911.48,-1175.31 1911.3,-1183.26 1911.3,-1190.62"/>
<polygon fill="black" stroke="black" points="1907.8,-1190.87 1911.4,-1200.84 1914.8,-1190.8 1907.8,-1190.87"/>
<text text-anchor="middle" x="1917" y="-1171.78" font-family="Times,serif" font-size="14.00">0</text>
</g>
<!-- 22&#45;&gt;8 -->
<g id="edge92" class="edge">
<title>22&#45;&gt;8</title>
<path fill="none" stroke="black" d="M1892.47,-1139.83C1876.69,-1145.28 1856.66,-1154.31 1843,-1167.98 1812.8,-1198.23 1815.5,-1214.43 1802,-1254.98 1736.35,-1452.14 1797.86,-1525.62 1708,-1712.98 1705.85,-1717.46 1703.01,-1721.85 1699.94,-1725.93"/>
<polygon fill="black" stroke="black" points="1697.13,-1723.84 1693.48,-1733.78 1702.53,-1728.29 1697.13,-1723.84"/>
<text text-anchor="middle" x="1772" y="-1432.78" font-family="Times,serif" font-size="14.00">2</text>
</g>
<!-- 22&#45;&gt;17 -->
<g id="edge100" class="edge">
<title>22&#45;&gt;17</title>
<path fill="none" stroke="black" d="M1890.73,-1127.49C1859.94,-1123.54 1807.36,-1117.23 1762,-1113.98 1525.58,-1097.05 1464.37,-1123.97 1229,-1095.98 1153.85,-1087.05 1067.38,-1066.82 1020.54,-1055.02"/>
<polygon fill="black" stroke="black" points="1021.17,-1051.56 1010.61,-1052.49 1019.44,-1058.35 1021.17,-1051.56"/>
<text text-anchor="middle" x="1234" y="-1084.78" font-family="Times,serif" font-size="14.00">1</text>
</g>
<!-- 22&#45;&gt;18 -->
<g id="edge145" class="edge">
<title>22&#45;&gt;18</title>
<path fill="none" stroke="black" d="M1926.04,-1114.59C1956.68,-1059.34 2060.19,-875.27 2158,-730.99 2219.05,-640.93 2454,-449.8 2454,-341 2454,-341 2454,-341 2454,-121.5 2454,-29.46 940.79,-27.36 682.33,-27.67"/>
<polygon fill="black" stroke="black" points="681.97,-24.17 671.98,-27.68 681.98,-31.17 681.97,-24.17"/>
<text text-anchor="middle" x="2320" y="-571.29" font-family="Times,serif" font-size="14.00">4</text>
</g>
<!-- 23&#45;&gt;0 -->
<g id="edge6" class="edge">
<title>23&#45;&gt;0</title>
<path fill="none" stroke="black" d="M1622.39,-1408.83C1653.35,-1443.38 1731.88,-1532.26 1792,-1610.98 1911.16,-1767.02 1942,-1830.15 1942,-2026.48 1942,-2297.48 1942,-2297.48 1942,-2297.48 1942,-2316.73 1942,-2338.43 1942,-2355.08"/>
<polygon fill="black" stroke="black" points="1938.5,-2355.22 1942,-2365.22 1945.5,-2355.22 1938.5,-2355.22"/>
<text text-anchor="middle" x="1938" y="-1875.78" font-family="Times,serif" font-size="14.00">2</text>
</g>
<!-- 23&#45;&gt;1 -->
<g id="edge151" class="edge">
<title>23&#45;&gt;1</title>
<path fill="none" stroke="black" d="M1607.86,-1411.11C1604.84,-1457.36 1596.7,-1588.63 1594,-1697.98 1589.71,-1872.07 1717,-1895.84 1717,-2069.98 1717,-2206.48 1717,-2206.48 1717,-2206.48 1717,-2242.41 1680.41,-2267.78 1652.18,-2282"/>
<polygon fill="black" stroke="black" points="1650.5,-2278.93 1642.99,-2286.4 1653.52,-2285.24 1650.5,-2278.93"/>
<text text-anchor="middle" x="1640" y="-1832.28" font-family="Times,serif" font-size="14.00">0</text>
</g>
<!-- 23&#45;&gt;20 -->
<g id="edge42" class="edge">
<title>23&#45;&gt;20</title>
<path fill="none" stroke="black" d="M1612.84,-1374.85C1619.14,-1346.36 1631.79,-1287.36 1640,-1236.98 1671.78,-1042 1670,-991.05 1670,-793.49 1670,-793.49 1670,-793.49 1670,-660.99 1670,-635.8 1652.51,-612.44 1636.91,-596.61"/>
<polygon fill="black" stroke="black" points="1639.12,-593.87 1629.49,-589.46 1634.27,-598.92 1639.12,-593.87"/>
<text text-anchor="middle" x="1673" y="-997.78" font-family="Times,serif" font-size="14.00">3</text>
</g>
<!-- 23&#45;&gt;28 -->
<g id="edge117" class="edge">
<title>23&#45;&gt;28</title>
<path fill="none" stroke="black" d="M1600.83,-1410.17C1580.32,-1449.86 1523.49,-1554.01 1457,-1625.98 1387.57,-1701.14 1365.12,-1718.53 1275,-1766.98 1233.85,-1789.11 931.82,-1886.41 827.96,-1919.59"/>
<polygon fill="black" stroke="black" points="826.72,-1916.32 818.26,-1922.69 828.85,-1922.98 826.72,-1916.32"/>
<text text-anchor="middle" x="1445" y="-1658.28" font-family="Times,serif" font-size="14.00">1</text>
</g>
<!-- 23&#45;&gt;29 -->
<g id="edge5" class="edge">
<title>23&#45;&gt;29</title>
<path fill="none" stroke="black" d="M1633.43,-1385.24C1688.01,-1370.18 1820.01,-1333.75 1882.76,-1316.43"/>
<polygon fill="black" stroke="black" points="1883.86,-1319.76 1892.57,-1313.73 1882,-1313.01 1883.86,-1319.76"/>
<text text-anchor="middle" x="1786" y="-1345.78" font-family="Times,serif" font-size="14.00">4</text>
</g>
<!-- 24&#45;&gt;8 -->
<g id="edge47" class="edge">
<title>24&#45;&gt;8</title>
<path fill="none" stroke="black" d="M658.1,-1826.37C690.89,-1814.58 753.07,-1793.89 808,-1784.98 972.32,-1758.34 1497.45,-1751.64 1641.91,-1750.28"/>
<polygon fill="black" stroke="black" points="1642.06,-1753.78 1652.03,-1750.19 1642,-1746.78 1642.06,-1753.78"/>
<text text-anchor="middle" x="813" y="-1788.78" font-family="Times,serif" font-size="14.00">1</text>
</g>
<!-- 24&#45;&gt;12 -->
<g id="edge87" class="edge">
<title>24&#45;&gt;12</title>
<path fill="none" stroke="black" d="M615.6,-1823.21C594.58,-1808.8 564,-1782.29 564,-1749.98 564,-1749.98 564,-1749.98 564,-1522.48 564,-1300.54 444.69,-1241.4 502,-1026.98 569.24,-775.45 898.89,-629.21 1005.02,-588.07"/>
<polygon fill="black" stroke="black" points="1006.48,-591.26 1014.57,-584.42 1003.98,-584.72 1006.48,-591.26"/>
<text text-anchor="middle" x="506" y="-1215.28" font-family="Times,serif" font-size="14.00">4</text>
</g>
<!-- 24&#45;&gt;17 -->
<g id="edge81" class="edge">
<title>24&#45;&gt;17</title>
<path fill="none" stroke="black" d="M644.42,-1818.86C647.65,-1813.01 651.17,-1806.29 654,-1799.98 759.26,-1565.08 758.39,-1495.54 850,-1254.98 879.67,-1177.08 864.24,-1142.94 920,-1080.98 928.88,-1071.12 941.21,-1063.55 952.81,-1058.01"/>
<polygon fill="black" stroke="black" points="954.55,-1061.07 962.29,-1053.84 951.73,-1054.66 954.55,-1061.07"/>
<text text-anchor="middle" x="794" y="-1432.78" font-family="Times,serif" font-size="14.00">2</text>
</g>
<!-- 24&#45;&gt;18 -->
<g id="edge118" class="edge">
<title>24&#45;&gt;18</title>
<path fill="none" stroke="black" d="M610.9,-1827.59C583.45,-1818.98 541.64,-1805.29 536,-1799.98 524.39,-1789.07 527.17,-1782.05 522,-1766.98 489.45,-1672.15 497.95,-1643.32 464,-1548.98 343.45,-1214.04 198,-1149.47 198,-793.49 198,-793.49 198,-793.49 198,-121.5 198,-37.95 500.89,-28.42 608.01,-27.67"/>
<polygon fill="black" stroke="black" points="608.06,-31.17 618.04,-27.62 608.03,-24.17 608.06,-31.17"/>
<text text-anchor="middle" x="219" y="-945.54" font-family="Times,serif" font-size="14.00">0</text>
</g>
<!-- 24&#45;&gt;29 -->
<g id="edge112" class="edge">
<title>24&#45;&gt;29</title>
<path fill="none" stroke="black" d="M661.9,-1833.21C762.35,-1826.61 1124.98,-1802.89 1424,-1784.98 1494.87,-1780.74 1676.98,-1793.1 1743,-1766.98 1766.18,-1757.82 1766.26,-1746.2 1786,-1730.98 1817.06,-1707.04 1831.62,-1709 1858,-1679.98 1881.53,-1654.1 1938,-1526.34 1938,-1524.48 1938,-1524.48 1938,-1524.48 1938,-1391.98 1938,-1371.84 1932.37,-1349.78 1926.95,-1333.18"/>
<polygon fill="black" stroke="black" points="1930.22,-1331.93 1923.64,-1323.62 1923.6,-1334.21 1930.22,-1331.93"/>
<text text-anchor="middle" x="1932" y="-1567.28" font-family="Times,serif" font-size="14.00">3</text>
</g>
<!-- 25&#45;&gt;4 -->
<g id="edge62" class="edge">
<title>25&#45;&gt;4</title>
<path fill="none" stroke="black" d="M1152.98,-1648.98C1128.43,-1633.48 1085.56,-1606.42 1057.73,-1588.86"/>
<polygon fill="black" stroke="black" points="1059.59,-1585.89 1049.27,-1583.51 1055.86,-1591.81 1059.59,-1585.89"/>
<text text-anchor="middle" x="1120" y="-1614.78" font-family="Times,serif" font-size="14.00">0</text>
</g>
<!-- 25&#45;&gt;4 -->
<g id="edge114" class="edge">
<title>25&#45;&gt;4</title>
<path fill="none" stroke="black" d="M1147.06,-1654.94C1127.64,-1649.45 1100.61,-1640.05 1080,-1625.98 1068.64,-1618.24 1058.11,-1607.34 1049.73,-1597.37"/>
<polygon fill="black" stroke="black" points="1052.24,-1594.9 1043.24,-1589.3 1046.78,-1599.28 1052.24,-1594.9"/>
<text text-anchor="middle" x="1085" y="-1614.78" font-family="Times,serif" font-size="14.00">4</text>
</g>
<!-- 25&#45;&gt;16 -->
<g id="edge139" class="edge">
<title>25&#45;&gt;16</title>
<path fill="none" stroke="black" d="M1195.79,-1653.13C1210.06,-1647.44 1227.76,-1638.52 1240,-1625.98 1251.39,-1614.32 1250.68,-1608.39 1256,-1592.98 1278.91,-1526.68 1382.51,-1045.74 1390,-975.98 1397.77,-903.57 1378.38,-818.56 1366.84,-776.43"/>
<polygon fill="black" stroke="black" points="1370.17,-775.36 1364.1,-766.68 1363.43,-777.25 1370.17,-775.36"/>
<text text-anchor="middle" x="1352" y="-1215.28" font-family="Times,serif" font-size="14.00">2</text>
</g>
<!-- 25&#45;&gt;17 -->
<g id="edge65" class="edge">
<title>25&#45;&gt;17</title>
<path fill="none" stroke="black" d="M1166.56,-1644.3C1164.73,-1638.52 1162.71,-1631.99 1161,-1625.98 1143.84,-1565.86 1051.98,-1135.29 1021,-1080.98 1018.13,-1075.95 1014.33,-1071.13 1010.31,-1066.77"/>
<polygon fill="black" stroke="black" points="1012.52,-1064.03 1002.96,-1059.47 1007.58,-1069 1012.52,-1064.03"/>
<text text-anchor="middle" x="1103" y="-1345.78" font-family="Times,serif" font-size="14.00">3</text>
</g>
<!-- 25&#45;&gt;28 -->
<g id="edge67" class="edge">
<title>25&#45;&gt;28</title>
<path fill="none" stroke="black" d="M1149.55,-1672.29C1091.83,-1697.14 936.06,-1770.18 840,-1871.98 831.33,-1881.17 822.51,-1891.79 814.88,-1901.46"/>
<polygon fill="black" stroke="black" points="811.89,-1899.61 808.52,-1909.65 817.42,-1903.9 811.89,-1899.61"/>
<text text-anchor="middle" x="946" y="-1788.78" font-family="Times,serif" font-size="14.00">1</text>
</g>
<!-- 26&#45;&gt;1 -->
<g id="edge33" class="edge">
<title>26&#45;&gt;1</title>
<path fill="none" stroke="black" d="M1967.91,-404.87C1981.8,-412.52 1998.89,-423.6 2011,-436.99 2103.66,-539.46 2089.03,-591.07 2154,-712.99 2260.74,-913.32 2320.86,-950.54 2386,-1167.98 2424.21,-1295.54 2412.1,-1640.33 2371,-1766.98 2324.37,-1910.66 2000.49,-2149.69 1871,-2227.48 1802.21,-2268.8 1707.93,-2285.53 1656.73,-2291.89"/>
<polygon fill="black" stroke="black" points="1656.31,-2288.41 1646.79,-2293.06 1657.13,-2295.36 1656.31,-2288.41"/>
<text text-anchor="middle" x="2413" y="-1345.78" font-family="Times,serif" font-size="14.00">2</text>
</g>
<!-- 26&#45;&gt;2 -->
<g id="edge147" class="edge">
<title>26&#45;&gt;2</title>
<path fill="none" stroke="black" d="M1958.15,-369.5C1967.42,-355.26 1979.55,-336.62 1989.14,-321.87"/>
<polygon fill="black" stroke="black" points="1992.22,-323.56 1994.74,-313.27 1986.35,-319.74 1992.22,-323.56"/>
<text text-anchor="middle" x="1986" y="-336.3" font-family="Times,serif" font-size="14.00">3</text>
</g>
<!-- 26&#45;&gt;4 -->
<g id="edge37" class="edge">
<title>26&#45;&gt;4</title>
<path fill="none" stroke="black" d="M1917.15,-393.71C1822.35,-395.62 1503.9,-404.37 1408,-436.99 1382.44,-445.69 1377.79,-452.77 1357,-469.99 1336.42,-487.03 1207.96,-623.34 1191,-643.99 1143.04,-702.39 1117.61,-712.58 1096,-784.99 1094.09,-791.38 1095.91,-793.33 1096,-799.99 1097.87,-931.58 1105.51,-964.39 1104,-1095.98 1102.67,-1212.01 1116.93,-1242.51 1098,-1356.98 1086.81,-1424.68 1059.06,-1500.59 1043.01,-1540.99"/>
<polygon fill="black" stroke="black" points="1039.68,-1539.89 1039.19,-1550.47 1046.17,-1542.5 1039.68,-1539.89"/>
<text text-anchor="middle" x="1109" y="-997.78" font-family="Times,serif" font-size="14.00">0</text>
</g>
<!-- 26&#45;&gt;17 -->
<g id="edge75" class="edge">
<title>26&#45;&gt;17</title>
<path fill="none" stroke="black" d="M1917.02,-392.88C1811.11,-391.78 1424.07,-391.06 1312,-436.99 1290.87,-445.65 1000,-681.66 1000,-704.49 1000,-950.24 1000,-950.24 1000,-950.24 1000,-973.04 995.9,-998.63 992.13,-1017.3"/>
<polygon fill="black" stroke="black" points="988.69,-1016.65 990.05,-1027.16 995.54,-1018.1 988.69,-1016.65"/>
<text text-anchor="middle" x="1005" y="-701.79" font-family="Times,serif" font-size="14.00">4</text>
</g>
<!-- 26&#45;&gt;26 -->
<g id="edge30" class="edge">
<title>26&#45;&gt;26</title>
<path fill="none" stroke="black" d="M1969.3,-401.91C1979.83,-402.57 1988.75,-399.35 1988.75,-392.24 1988.75,-387.58 1984.91,-384.59 1979.29,-383.27"/>
<polygon fill="black" stroke="black" points="1979.52,-379.78 1969.3,-382.58 1979.04,-386.76 1979.52,-379.78"/>
<text text-anchor="middle" x="1993.75" y="-388.54" font-family="Times,serif" font-size="14.00">1</text>
</g>
<!-- 27&#45;&gt;5 -->
<g id="edge9" class="edge">
<title>27&#45;&gt;5</title>
<path fill="none" stroke="black" d="M1197.98,-2103.73C1163.92,-2088.65 1098.36,-2059.63 1059.37,-2042.37"/>
<polygon fill="black" stroke="black" points="1060.62,-2039.1 1050.06,-2038.25 1057.79,-2045.5 1060.62,-2039.1"/>
<text text-anchor="middle" x="1141" y="-2067.28" font-family="Times,serif" font-size="14.00">0</text>
</g>
<!-- 27&#45;&gt;15 -->
<g id="edge144" class="edge">
<title>27&#45;&gt;15</title>
<path fill="none" stroke="black" d="M1246.02,-2109.24C1304.84,-2098.91 1443,-2070.22 1443,-2028.48 1443,-2028.48 1443,-2028.48 1443,-1569.98 1443,-1546.74 1454.1,-1522.62 1464.3,-1505.36"/>
<polygon fill="black" stroke="black" points="1467.49,-1506.87 1469.8,-1496.53 1461.55,-1503.17 1467.49,-1506.87"/>
<text text-anchor="middle" x="1448" y="-1788.78" font-family="Times,serif" font-size="14.00">1</text>
</g>
<!-- 27&#45;&gt;18 -->
<g id="edge50" class="edge">
<title>27&#45;&gt;18</title>
<path fill="none" stroke="black" d="M1246.88,-2111.34C1348.28,-2102.09 1713.69,-2057.85 1947,-1886.98 1963.73,-1874.73 2165.95,-1610.54 2177,-1592.98 2280.54,-1428.46 2266.52,-1364.91 2371,-1200.98 2431.76,-1105.66 2530,-1115.52 2530,-1002.48 2530,-1002.48 2530,-1002.48 2530,-121.5 2530,-89.96 2512.74,-90.03 2405,-71.5 2229.87,-41.38 920.58,-29.88 682.19,-28.02"/>
<polygon fill="black" stroke="black" points="681.99,-24.52 671.96,-27.95 681.94,-31.52 681.99,-24.52"/>
<text text-anchor="middle" x="2509" y="-1084.78" font-family="Times,serif" font-size="14.00">4</text>
</g>
<!-- 27&#45;&gt;24 -->
<g id="edge49" class="edge">
<title>27&#45;&gt;24</title>
<path fill="none" stroke="black" d="M1192.85,-2112.27C1127.43,-2109.05 962.73,-2099.09 912,-2078.48 794.38,-2030.69 692.25,-1911.28 652.6,-1860.47"/>
<polygon fill="black" stroke="black" points="655.23,-1858.15 646.35,-1852.37 649.68,-1862.42 655.23,-1858.15"/>
<text text-anchor="middle" x="779" y="-1980.28" font-family="Times,serif" font-size="14.00">3</text>
</g>
<!-- 27&#45;&gt;28 -->
<g id="edge93" class="edge">
<title>27&#45;&gt;28</title>
<path fill="none" stroke="black" d="M1193.08,-2112.55C1131.43,-2110.04 981.96,-2101.68 938,-2078.48 884.53,-2050.26 891.83,-2018.12 848,-1976.48 840.02,-1968.9 830.84,-1961.23 822.29,-1954.48"/>
<polygon fill="black" stroke="black" points="824.4,-1951.68 814.35,-1948.32 820.11,-1957.21 824.4,-1951.68"/>
<text text-anchor="middle" x="903" y="-2023.78" font-family="Times,serif" font-size="14.00">2</text>
</g>
<!-- 28&#45;&gt;1 -->
<g id="edge97" class="edge">
<title>28&#45;&gt;1</title>
<path fill="none" stroke="black" d="M772.72,-1949.48C754.3,-1966.69 730,-1995.3 730,-2026.48 730,-2206.48 730,-2206.48 730,-2206.48 730,-2232.74 732.27,-2245.73 754,-2260.48 788.72,-2284.05 1420.77,-2293.12 1582.54,-2295.06"/>
<polygon fill="black" stroke="black" points="1582.89,-2298.57 1592.93,-2295.19 1582.97,-2291.57 1582.89,-2298.57"/>
<text text-anchor="middle" x="735" y="-2110.78" font-family="Times,serif" font-size="14.00">0</text>
</g>
<!-- 28&#45;&gt;6 -->
<g id="edge105" class="edge">
<title>28&#45;&gt;6</title>
<path fill="none" stroke="black" d="M769.8,-1918.1C745.31,-1905.15 705.29,-1885.11 669,-1871.98 638.79,-1861.06 628.14,-1867.51 599,-1853.98 561.42,-1836.53 549.76,-1831.62 523,-1799.98 512.47,-1787.54 513.09,-1782.1 507,-1766.98 468.91,-1672.47 472.94,-1643.95 436,-1548.98 380.77,-1407 326.29,-1385.88 294,-1236.98 290.61,-1221.35 293.63,-1216.98 294,-1200.98 295.78,-1123.59 284.61,-1102.42 302,-1026.98 307.55,-1002.93 317.31,-999.75 324,-975.98 346.2,-897.12 350,-875.42 350,-793.49 350,-793.49 350,-793.49 350,-208.5 350,-160.25 411.69,-138.57 452.88,-129.46"/>
<polygon fill="black" stroke="black" points="453.77,-132.85 462.86,-127.41 452.36,-125.99 453.77,-132.85"/>
<text text-anchor="middle" x="307" y="-1041.28" font-family="Times,serif" font-size="14.00">1</text>
</g>
<!-- 28&#45;&gt;18 -->
<g id="edge127" class="edge">
<title>28&#45;&gt;18</title>
<path fill="none" stroke="black" d="M767.03,-1925.05C709.77,-1912.19 574.65,-1879.96 536,-1853.98 453.62,-1798.62 441.67,-1768.11 396,-1679.98 302.2,-1498.98 160,-997.35 160,-793.49 160,-793.49 160,-793.49 160,-121.5 160,-30.32 494.62,-25.93 607.97,-27.06"/>
<polygon fill="black" stroke="black" points="608.19,-30.56 618.23,-27.18 608.28,-23.56 608.19,-30.56"/>
<text text-anchor="middle" x="192" y="-997.78" font-family="Times,serif" font-size="14.00">3</text>
</g>
<!-- 28&#45;&gt;20 -->
<g id="edge60" class="edge">
<title>28&#45;&gt;20</title>
<path fill="none" stroke="black" d="M816.28,-1918.39C903.1,-1872.03 1206.76,-1706.83 1280,-1625.98 1512.32,-1369.54 1556,-1244.01 1556,-897.99 1556,-897.99 1556,-897.99 1556,-660.99 1556,-635.8 1573.49,-612.44 1589.09,-596.61"/>
<polygon fill="black" stroke="black" points="1591.73,-598.92 1596.51,-589.46 1586.88,-593.87 1591.73,-598.92"/>
<text text-anchor="middle" x="1523" y="-1258.78" font-family="Times,serif" font-size="14.00">4</text>
</g>
<!-- 28&#45;&gt;24 -->
<g id="edge143" class="edge">
<title>28&#45;&gt;24</title>
<path fill="none" stroke="black" d="M773.05,-1913.34C758.04,-1900.81 736.6,-1884.05 716,-1871.98 700.82,-1863.09 682.96,-1855.14 667.88,-1849.06"/>
<polygon fill="black" stroke="black" points="669.01,-1845.75 658.42,-1845.35 666.45,-1852.26 669.01,-1845.75"/>
<text text-anchor="middle" x="744" y="-1875.78" font-family="Times,serif" font-size="14.00">2</text>
</g>
<!-- 29&#45;&gt;7 -->
<g id="edge40" class="edge">
<title>29&#45;&gt;7</title>
<path fill="none" stroke="black" d="M1907.26,-1288.82C1904.32,-1283.08 1901.48,-1276.44 1900,-1269.98 1898.22,-1262.24 1899.13,-1253.84 1901.07,-1246.17"/>
<polygon fill="black" stroke="black" points="1904.41,-1247.22 1904.08,-1236.63 1897.73,-1245.12 1904.41,-1247.22"/>
<text text-anchor="middle" x="1905" y="-1258.78" font-family="Times,serif" font-size="14.00">1</text>
</g>
<!-- 29&#45;&gt;8 -->
<g id="edge69" class="edge">
<title>29&#45;&gt;8</title>
<path fill="none" stroke="black" d="M1909.09,-1323.5C1901.77,-1340.32 1892,-1367.37 1892,-1391.98 1892,-1524.48 1892,-1524.48 1892,-1524.48 1892,-1598.89 1879.34,-1624.3 1830,-1679.98 1825.21,-1685.39 1780.53,-1709.89 1774,-1712.98 1754.17,-1722.39 1731.08,-1730.94 1712.63,-1737.24"/>
<polygon fill="black" stroke="black" points="1711.28,-1734.01 1702.91,-1740.5 1713.5,-1740.64 1711.28,-1734.01"/>
<text text-anchor="middle" x="1897" y="-1519.78" font-family="Times,serif" font-size="14.00">0</text>
</g>
<!-- 29&#45;&gt;9 -->
<g id="edge129" class="edge">
<title>29&#45;&gt;9</title>
<path fill="none" stroke="black" d="M1934.65,-1292.14C1951.24,-1280.68 1977.16,-1264.32 2002,-1254.98 2042.23,-1239.87 2055.63,-1248.62 2097,-1236.98 2101.16,-1235.81 2105.48,-1234.42 2109.72,-1232.95"/>
<polygon fill="black" stroke="black" points="2111.18,-1236.14 2119.36,-1229.41 2108.77,-1229.57 2111.18,-1236.14"/>
<text text-anchor="middle" x="2007" y="-1258.78" font-family="Times,serif" font-size="14.00">2</text>
</g>
<!-- 29&#45;&gt;26 -->
<g id="edge51" class="edge">
<title>29&#45;&gt;26</title>
<path fill="none" stroke="black" d="M1923.55,-1288.11C1927.48,-1278.32 1932.73,-1265.82 1938,-1254.98 1942,-1246.75 1944.72,-1245.53 1948,-1236.98 1962.22,-1199.94 1963.53,-1189.41 1968,-1149.98 1990.25,-953.85 1944,-903.89 1944,-706.49 1944,-706.49 1944,-706.49 1944,-486.99 1944,-467.99 1944,-446.82 1944,-429.41"/>
<polygon fill="black" stroke="black" points="1947.5,-429.11 1944,-419.11 1940.5,-429.11 1947.5,-429.11"/>
<text text-anchor="middle" x="1960" y="-841.04" font-family="Times,serif" font-size="14.00">3</text>
</g>
<!-- 29&#45;&gt;26 -->
<g id="edge120" class="edge">
<title>29&#45;&gt;26</title>
<path fill="none" stroke="black" d="M1931.18,-1290.35C1942.91,-1277.38 1959.05,-1257.39 1968,-1236.98 1983.76,-1201.05 1978.61,-1188.97 1983,-1149.98 2005.06,-954.11 1982,-903.6 1982,-706.49 1982,-706.49 1982,-706.49 1982,-486.99 1982,-464.71 1972.67,-441.48 1963.25,-423.73"/>
<polygon fill="black" stroke="black" points="1966.29,-422 1958.37,-414.97 1960.18,-425.41 1966.29,-422"/>
<text text-anchor="middle" x="1992" y="-841.04" font-family="Times,serif" font-size="14.00">4</text>
</g>
</g>
</svg>
