<?xml version="1.0" encoding="UTF-8" standalone="no"?>
<!DOCTYPE svg PUBLIC "-//W3C//DTD SVG 1.1//EN"
 "http://www.w3.org/Graphics/SVG/1.1/DTD/svg11.dtd">
<!-- Generated by graphviz version 13.0.1 (20250616.1512)
 -->
<!-- Pages: 1 -->
<svg width="410pt" height="490pt"
 viewBox="0.00 0.00 410.00 490.00" xmlns="http://www.w3.org/2000/svg" xmlns:xlink="http://www.w3.org/1999/xlink">
<g id="graph0" class="graph" transform="scale(1 1) rotate(0) translate(4 486)">
<polygon fill="white" stroke="none" points="-4,4 -4,-486 406,-486 406,4 -4,4"/>
<!-- fake -->
<g id="node1" class="node">
<title>fake</title>
</g>
<!-- 4 -->
<g id="node6" class="node">
<title>4</title>
<ellipse fill="none" stroke="black" cx="226" cy="-391" rx="27" ry="18"/>
<text xml:space="preserve" text-anchor="middle" x="226" y="-386.32" font-family="Times,serif" font-size="14.00">4</text>
</g>
<!-- fake&#45;&gt;4 -->
<g id="edge1" class="edge">
<title>fake&#45;&gt;4</title>
<path fill="none" stroke="black" stroke-width="2" d="M226,-445.81C226,-438.23 226,-429.1 226,-420.54"/>
<polygon fill="black" stroke="black" stroke-width="2" points="229.5,-422.06 226,-412.06 222.5,-422.06 229.5,-422.06"/>
</g>
<!-- 0 -->
<g id="node2" class="node">
<title>0</title>
<ellipse fill="none" stroke="black" cx="27" cy="-204.5" rx="27" ry="18"/>
<text xml:space="preserve" text-anchor="middle" x="27" y="-199.82" font-family="Times,serif" font-size="14.00">0</text>
</g>
<!-- 0&#45;&gt;0 -->
<g id="edge9" class="edge">
<title>0&#45;&gt;0</title>
<path fill="none" stroke="black" d="M53.35,-208.67C63.53,-208.85 72,-207.46 72,-204.5 72,-202.79 69.17,-201.6 64.81,-200.94"/>
<polygon fill="black" stroke="black" points="65.03,-197.45 54.86,-200.41 64.66,-204.44 65.03,-197.45"/>
<text xml:space="preserve" text-anchor="middle" x="76.5" y="-199.82" font-family="Times,serif" font-size="14.00">4</text>
</g>
<!-- 0&#45;&gt;0 -->
<g id="edge25" class="edge">
<title>0&#45;&gt;0</title>
<path fill="none" stroke="black" d="M51.9,-211.83C70.82,-214.48 90,-212.04 90,-204.5 90,-198.49 77.82,-195.72 63.3,-196.18"/>
<polygon fill="black" stroke="black" points="63.07,-192.69 53.41,-197.04 63.67,-199.66 63.07,-192.69"/>
<text xml:space="preserve" text-anchor="middle" x="94.5" y="-199.82" font-family="Times,serif" font-size="14.00">2</text>
</g>
<!-- 2 -->
<g id="node4" class="node">
<title>2</title>
<ellipse fill="none" stroke="black" cx="207" cy="-115.25" rx="27" ry="18"/>
<text xml:space="preserve" text-anchor="middle" x="207" y="-110.58" font-family="Times,serif" font-size="14.00">2</text>
</g>
<!-- 0&#45;&gt;2 -->
<g id="edge8" class="edge">
<title>0&#45;&gt;2</title>
<path fill="none" stroke="black" d="M40.17,-188.66C51.31,-176.95 68.26,-161.01 86,-151.25 112.13,-136.87 144.77,-127.87 169.56,-122.61"/>
<polygon fill="black" stroke="black" points="170.08,-126.08 179.2,-120.68 168.71,-119.21 170.08,-126.08"/>
<text xml:space="preserve" text-anchor="middle" x="90.5" y="-155.2" font-family="Times,serif" font-size="14.00">0</text>
</g>
<!-- 3 -->
<g id="node5" class="node">
<title>3</title>
<ellipse fill="none" stroke="black" cx="239" cy="-22" rx="18" ry="18"/>
<ellipse fill="none" stroke="black" cx="239" cy="-22" rx="22" ry="22"/>
<text xml:space="preserve" text-anchor="middle" x="239" y="-17.32" font-family="Times,serif" font-size="14.00">3</text>
</g>
<!-- 0&#45;&gt;3 -->
<g id="edge5" class="edge">
<title>0&#45;&gt;3</title>
<path fill="none" stroke="black" d="M34.75,-187.27C40.47,-176.33 48.99,-161.98 59,-151.25 104.69,-102.26 171.78,-60.44 209.83,-38.8"/>
<polygon fill="black" stroke="black" points="211.42,-41.92 218.43,-33.98 207.99,-35.82 211.42,-41.92"/>
<text xml:space="preserve" text-anchor="middle" x="123.9" y="-110.58" font-family="Times,serif" font-size="14.00">1</text>
</g>
<!-- 0&#45;&gt;4 -->
<g id="edge16" class="edge">
<title>0&#45;&gt;4</title>
<path fill="none" stroke="black" d="M34.26,-221.88C47.51,-251.57 74.9,-311.92 82,-319.75 111,-351.73 157.77,-370.75 190.1,-380.78"/>
<polygon fill="black" stroke="black" points="188.84,-384.06 199.42,-383.52 190.82,-377.34 188.84,-384.06"/>
<text xml:space="preserve" text-anchor="middle" x="86.5" y="-293.07" font-family="Times,serif" font-size="14.00">3</text>
</g>
<!-- 1 -->
<g id="node3" class="node">
<title>1</title>
<ellipse fill="none" stroke="black" cx="122" cy="-297.75" rx="18" ry="18"/>
<ellipse fill="none" stroke="black" cx="122" cy="-297.75" rx="22" ry="22"/>
<text xml:space="preserve" text-anchor="middle" x="122" y="-293.07" font-family="Times,serif" font-size="14.00">1</text>
</g>
<!-- 1&#45;&gt;0 -->
<g id="edge6" class="edge">
<title>1&#45;&gt;0</title>
<path fill="none" stroke="black" d="M112.98,-277.39C106.85,-265.71 97.89,-251.08 87,-240.5 79,-232.72 68.94,-226 59.36,-220.57"/>
<polygon fill="black" stroke="black" points="61.08,-217.53 50.61,-215.93 57.8,-223.71 61.08,-217.53"/>
<text xml:space="preserve" text-anchor="middle" x="105.36" y="-244.45" font-family="Times,serif" font-size="14.00">1</text>
</g>
<!-- 1&#45;&gt;1 -->
<g id="edge3" class="edge">
<title>1&#45;&gt;1</title>
<path fill="none" stroke="black" d="M143.81,-302.24C153.56,-302.66 162,-301.17 162,-297.75 162,-295.83 159.33,-294.51 155.26,-293.81"/>
<polygon fill="black" stroke="black" points="155.47,-290.31 145.32,-293.33 155.14,-297.3 155.47,-290.31"/>
<text xml:space="preserve" text-anchor="middle" x="166.5" y="-293.07" font-family="Times,serif" font-size="14.00">4</text>
</g>
<!-- 1&#45;&gt;1 -->
<g id="edge13" class="edge">
<title>1&#45;&gt;1</title>
<path fill="none" stroke="black" d="M143.11,-305.42C161.1,-308.81 180,-306.25 180,-297.75 180,-291.04 168.23,-288.04 154.43,-288.73"/>
<polygon fill="black" stroke="black" points="154.13,-285.24 144.62,-289.9 154.96,-292.19 154.13,-285.24"/>
<text xml:space="preserve" text-anchor="middle" x="184.5" y="-293.07" font-family="Times,serif" font-size="14.00">0</text>
</g>
<!-- 1&#45;&gt;2 -->
<g id="edge11" class="edge">
<title>1&#45;&gt;2</title>
<path fill="none" stroke="black" d="M126.18,-275.99C132.86,-246.36 148.03,-191.1 175,-151.25 177.88,-146.99 181.26,-142.73 184.72,-138.72"/>
<polygon fill="black" stroke="black" points="187.11,-141.3 191.26,-131.55 181.93,-136.58 187.11,-141.3"/>
<text xml:space="preserve" text-anchor="middle" x="159.17" y="-199.82" font-family="Times,serif" font-size="14.00">2</text>
</g>
<!-- 1&#45;&gt;2 -->
<g id="edge12" class="edge">
<title>1&#45;&gt;2</title>
<path fill="none" stroke="black" d="M133.65,-279.01C137.93,-272.39 142.76,-264.77 147,-257.75 156.31,-242.33 159.36,-238.81 167,-222.5 179.19,-196.48 190.47,-165.63 197.92,-143.9"/>
<polygon fill="black" stroke="black" points="201.19,-145.17 201.07,-134.58 194.55,-142.93 201.19,-145.17"/>
<text xml:space="preserve" text-anchor="middle" x="186.46" y="-199.82" font-family="Times,serif" font-size="14.00">3</text>
</g>
<!-- 2&#45;&gt;0 -->
<g id="edge23" class="edge">
<title>2&#45;&gt;0</title>
<path fill="none" stroke="black" d="M183.44,-124.39C165.83,-130.82 141.38,-140.48 121,-151.25 108.74,-157.73 106.96,-161.48 95,-168.5 83.34,-175.34 70.2,-182.28 58.59,-188.15"/>
<polygon fill="black" stroke="black" points="57.2,-184.94 49.81,-192.54 60.32,-191.2 57.2,-184.94"/>
<text xml:space="preserve" text-anchor="middle" x="125.5" y="-155.2" font-family="Times,serif" font-size="14.00">0</text>
</g>
<!-- 2&#45;&gt;2 -->
<g id="edge10" class="edge">
<title>2&#45;&gt;2</title>
<path fill="none" stroke="black" d="M233.35,-119.42C243.53,-119.6 252,-118.21 252,-115.25 252,-113.54 249.17,-112.35 244.81,-111.69"/>
<polygon fill="black" stroke="black" points="245.03,-108.2 234.86,-111.16 244.66,-115.19 245.03,-108.2"/>
<text xml:space="preserve" text-anchor="middle" x="256.5" y="-110.58" font-family="Times,serif" font-size="14.00">3</text>
</g>
<!-- 2&#45;&gt;2 -->
<g id="edge19" class="edge">
<title>2&#45;&gt;2</title>
<path fill="none" stroke="black" d="M231.9,-122.58C250.82,-125.23 270,-122.79 270,-115.25 270,-109.24 257.82,-106.47 243.3,-106.93"/>
<polygon fill="black" stroke="black" points="243.07,-103.44 233.41,-107.79 243.67,-110.41 243.07,-103.44"/>
<text xml:space="preserve" text-anchor="middle" x="274.5" y="-110.58" font-family="Times,serif" font-size="14.00">4</text>
</g>
<!-- 2&#45;&gt;3 -->
<g id="edge24" class="edge">
<title>2&#45;&gt;3</title>
<path fill="none" stroke="black" d="M204.62,-97.28C203.81,-86.81 203.95,-73.27 208,-62 209.91,-56.68 212.87,-51.54 216.21,-46.83"/>
<polygon fill="black" stroke="black" points="218.93,-49.03 222.45,-39.03 213.47,-44.65 218.93,-49.03"/>
<text xml:space="preserve" text-anchor="middle" x="212.5" y="-65.95" font-family="Times,serif" font-size="14.00">2</text>
</g>
<!-- 2&#45;&gt;4 -->
<g id="edge26" class="edge">
<title>2&#45;&gt;4</title>
<path fill="none" stroke="black" d="M222.98,-129.89C229.1,-135.88 235.65,-143.35 240,-151.25 247.79,-165.42 246.69,-170.5 249,-186.5 259.71,-260.62 273.86,-283.68 251,-355 249.84,-358.63 248.15,-362.2 246.18,-365.59"/>
<polygon fill="black" stroke="black" points="243.29,-363.62 240.58,-373.86 249.09,-367.54 243.29,-363.62"/>
<text xml:space="preserve" text-anchor="middle" x="265.41" y="-244.45" font-family="Times,serif" font-size="14.00">1</text>
</g>
<!-- 3&#45;&gt;2 -->
<g id="edge2" class="edge">
<title>3&#45;&gt;2</title>
<path fill="none" stroke="black" d="M231.94,-43.13C227.42,-56.01 221.51,-72.88 216.57,-86.95"/>
<polygon fill="black" stroke="black" points="213.38,-85.49 213.37,-96.09 219.98,-87.81 213.38,-85.49"/>
<text xml:space="preserve" text-anchor="middle" x="229.42" y="-65.95" font-family="Times,serif" font-size="14.00">3</text>
</g>
<!-- 3&#45;&gt;3 -->
<g id="edge14" class="edge">
<title>3&#45;&gt;3</title>
<path fill="none" stroke="black" d="M260.81,-26.49C270.56,-26.91 279,-25.42 279,-22 279,-20.08 276.33,-18.76 272.26,-18.06"/>
<polygon fill="black" stroke="black" points="272.47,-14.56 262.32,-17.58 272.14,-21.55 272.47,-14.56"/>
<text xml:space="preserve" text-anchor="middle" x="283.5" y="-17.32" font-family="Times,serif" font-size="14.00">0</text>
</g>
<!-- 3&#45;&gt;3 -->
<g id="edge18" class="edge">
<title>3&#45;&gt;3</title>
<path fill="none" stroke="black" d="M260.11,-29.67C278.1,-33.06 297,-30.5 297,-22 297,-15.29 285.23,-12.29 271.43,-12.98"/>
<polygon fill="black" stroke="black" points="271.13,-9.49 261.62,-14.15 271.96,-16.44 271.13,-9.49"/>
<text xml:space="preserve" text-anchor="middle" x="301.5" y="-17.32" font-family="Times,serif" font-size="14.00">2</text>
</g>
<!-- 3&#45;&gt;4 -->
<g id="edge17" class="edge">
<title>3&#45;&gt;4</title>
<path fill="none" stroke="black" d="M260.02,-29.82C291.69,-41.57 348,-68.84 348,-114.25 348,-298.75 348,-298.75 348,-298.75 348,-342.26 297.63,-367.53 261.63,-380.03"/>
<polygon fill="black" stroke="black" points="260.84,-376.61 252.42,-383.04 263.01,-383.26 260.84,-376.61"/>
<text xml:space="preserve" text-anchor="middle" x="352.5" y="-199.82" font-family="Times,serif" font-size="14.00">1</text>
</g>
<!-- 3&#45;&gt;4 -->
<g id="edge22" class="edge">
<title>3&#45;&gt;4</title>
<path fill="none" stroke="black" d="M261.06,-25.75C303.65,-32.43 393,-53.65 393,-114.25 393,-298.75 393,-298.75 393,-298.75 393,-357.17 313.33,-378.42 264.04,-385.98"/>
<polygon fill="black" stroke="black" points="263.75,-382.48 254.33,-387.33 264.72,-389.42 263.75,-382.48"/>
<text xml:space="preserve" text-anchor="middle" x="397.5" y="-199.82" font-family="Times,serif" font-size="14.00">4</text>
</g>
<!-- 4&#45;&gt;0 -->
<g id="edge21" class="edge">
<title>4&#45;&gt;0</title>
<path fill="none" stroke="black" d="M198.91,-388.72C157.43,-385.12 79.44,-371.43 46,-319.75 29.46,-294.19 25.84,-258.9 25.64,-234.33"/>
<polygon fill="black" stroke="black" points="29.14,-234.45 25.77,-224.4 22.14,-234.36 29.14,-234.45"/>
<text xml:space="preserve" text-anchor="middle" x="50.5" y="-293.07" font-family="Times,serif" font-size="14.00">2</text>
</g>
<!-- 4&#45;&gt;1 -->
<g id="edge4" class="edge">
<title>4&#45;&gt;1</title>
<path fill="none" stroke="black" d="M202.8,-381.36C189,-375.43 171.75,-366.53 159,-355 150.53,-347.34 143.14,-337.34 137.23,-327.9"/>
<polygon fill="black" stroke="black" points="140.28,-326.16 132.2,-319.31 134.24,-329.71 140.28,-326.16"/>
<text xml:space="preserve" text-anchor="middle" x="163.5" y="-341.7" font-family="Times,serif" font-size="14.00">0</text>
</g>
<!-- 4&#45;&gt;1 -->
<g id="edge20" class="edge">
<title>4&#45;&gt;1</title>
<path fill="none" stroke="black" d="M210.85,-376.12C199.21,-365.52 182.69,-350.59 168,-337.75 161.39,-331.97 154.17,-325.79 147.45,-320.1"/>
<polygon fill="black" stroke="black" points="149.76,-317.47 139.87,-313.69 145.25,-322.81 149.76,-317.47"/>
<text xml:space="preserve" text-anchor="middle" x="191.78" y="-341.7" font-family="Times,serif" font-size="14.00">4</text>
</g>
<!-- 4&#45;&gt;2 -->
<g id="edge7" class="edge">
<title>4&#45;&gt;2</title>
<path fill="none" stroke="black" d="M224.81,-372.88C221.64,-327.18 212.95,-201.99 209,-145.09"/>
<polygon fill="black" stroke="black" points="212.5,-144.96 208.32,-135.23 205.52,-145.45 212.5,-144.96"/>
<text xml:space="preserve" text-anchor="middle" x="221.22" y="-244.45" font-family="Times,serif" font-size="14.00">1</text>
</g>
<!-- 4&#45;&gt;2 -->
<g id="edge15" class="edge">
<title>4&#45;&gt;2</title>
<path fill="none" stroke="black" d="M232.43,-373.16C234.29,-367.48 236.07,-361.04 237,-355 238.16,-347.42 237.19,-345.41 237,-337.75 234.99,-254.68 246.04,-231.36 224,-151.25 223.23,-148.46 222.24,-145.62 221.13,-142.83"/>
<polygon fill="black" stroke="black" points="224.38,-141.52 217.05,-133.87 218.01,-144.42 224.38,-141.52"/>
<text xml:space="preserve" text-anchor="middle" x="242.53" y="-244.45" font-family="Times,serif" font-size="14.00">3</text>
</g>
</g>
</svg>
