<?xml version="1.0" encoding="UTF-8" standalone="no"?>
<!DOCTYPE svg PUBLIC "-//W3C//DTD SVG 1.1//EN"
 "http://www.w3.org/Graphics/SVG/1.1/DTD/svg11.dtd">
<!-- Generated by graphviz version 13.0.1 (20250616.1512)
 -->
<!-- Pages: 1 -->
<svg width="340pt" height="490pt"
 viewBox="0.00 0.00 340.00 490.00" xmlns="http://www.w3.org/2000/svg" xmlns:xlink="http://www.w3.org/1999/xlink">
<g id="graph0" class="graph" transform="scale(1 1) rotate(0) translate(4 486)">
<polygon fill="white" stroke="none" points="-4,4 -4,-486 336.42,-486 336.42,4 -4,4"/>
<!-- fake -->
<g id="node1" class="node">
<title>fake</title>
</g>
<!-- 4 -->
<g id="node6" class="node">
<title>4</title>
<ellipse fill="none" stroke="black" cx="183.42" cy="-387" rx="18" ry="18"/>
<ellipse fill="none" stroke="black" cx="183.42" cy="-387" rx="22" ry="22"/>
<text xml:space="preserve" text-anchor="middle" x="183.42" y="-382.32" font-family="Times,serif" font-size="14.00">4</text>
</g>
<!-- fake&#45;&gt;4 -->
<g id="edge1" class="edge">
<title>fake&#45;&gt;4</title>
<path fill="none" stroke="black" stroke-width="2" d="M183.42,-445.6C183.42,-438.17 183.42,-429.23 183.42,-420.64"/>
<polygon fill="black" stroke="black" stroke-width="2" points="186.92,-422.34 183.42,-412.34 179.92,-422.34 186.92,-422.34"/>
</g>
<!-- 0 -->
<g id="node2" class="node">
<title>0</title>
<ellipse fill="none" stroke="black" cx="145.42" cy="-204.5" rx="27" ry="18"/>
<text xml:space="preserve" text-anchor="middle" x="145.42" y="-199.82" font-family="Times,serif" font-size="14.00">0</text>
</g>
<!-- 1 -->
<g id="node3" class="node">
<title>1</title>
<ellipse fill="none" stroke="black" cx="144.42" cy="-115.25" rx="27" ry="18"/>
<text xml:space="preserve" text-anchor="middle" x="144.42" y="-110.58" font-family="Times,serif" font-size="14.00">1</text>
</g>
<!-- 0&#45;&gt;1 -->
<g id="edge10" class="edge">
<title>0&#45;&gt;1</title>
<path fill="none" stroke="black" d="M137.39,-187.16C134.97,-181.4 132.63,-174.8 131.42,-168.5 129.83,-160.26 130.95,-151.38 133.08,-143.32"/>
<polygon fill="black" stroke="black" points="136.33,-144.65 136.11,-134.06 129.67,-142.48 136.33,-144.65"/>
<text xml:space="preserve" text-anchor="middle" x="135.92" y="-155.2" font-family="Times,serif" font-size="14.00">4</text>
</g>
<!-- 2 -->
<g id="node4" class="node">
<title>2</title>
<ellipse fill="none" stroke="black" cx="105.42" cy="-293.75" rx="27" ry="18"/>
<text xml:space="preserve" text-anchor="middle" x="105.42" y="-289.07" font-family="Times,serif" font-size="14.00">2</text>
</g>
<!-- 0&#45;&gt;2 -->
<g id="edge6" class="edge">
<title>0&#45;&gt;2</title>
<path fill="none" stroke="black" d="M119.75,-211.11C104,-216.02 85.06,-224.9 75.42,-240.5 69.33,-250.34 74.11,-261.44 81.5,-270.86"/>
<polygon fill="black" stroke="black" points="78.8,-273.1 88.1,-278.17 83.99,-268.4 78.8,-273.1"/>
<text xml:space="preserve" text-anchor="middle" x="79.92" y="-244.45" font-family="Times,serif" font-size="14.00">3</text>
</g>
<!-- 0&#45;&gt;2 -->
<g id="edge26" class="edge">
<title>0&#45;&gt;2</title>
<path fill="none" stroke="black" d="M127.04,-218.06C119.93,-223.98 112.52,-231.68 108.42,-240.5 105.06,-247.72 103.65,-256.12 103.25,-264.05"/>
<polygon fill="black" stroke="black" points="99.75,-264 103.28,-273.99 106.75,-263.98 99.75,-264"/>
<text xml:space="preserve" text-anchor="middle" x="112.92" y="-244.45" font-family="Times,serif" font-size="14.00">0</text>
</g>
<!-- 3 -->
<g id="node5" class="node">
<title>3</title>
<ellipse fill="none" stroke="black" cx="167.42" cy="-22" rx="18" ry="18"/>
<ellipse fill="none" stroke="black" cx="167.42" cy="-22" rx="22" ry="22"/>
<text xml:space="preserve" text-anchor="middle" x="167.42" y="-17.32" font-family="Times,serif" font-size="14.00">3</text>
</g>
<!-- 0&#45;&gt;3 -->
<g id="edge3" class="edge">
<title>0&#45;&gt;3</title>
<path fill="none" stroke="black" d="M159.07,-188.77C163.92,-182.85 169.02,-175.72 172.42,-168.5 179.26,-153.97 178.63,-149.22 180.42,-133.25 183.94,-101.77 183.65,-93.24 178.42,-62 178,-59.52 177.49,-56.97 176.91,-54.42"/>
<polygon fill="black" stroke="black" points="180.35,-53.73 174.47,-44.92 173.57,-55.48 180.35,-53.73"/>
<text xml:space="preserve" text-anchor="middle" x="187.26" y="-110.58" font-family="Times,serif" font-size="14.00">1</text>
</g>
<!-- 0&#45;&gt;4 -->
<g id="edge12" class="edge">
<title>0&#45;&gt;4</title>
<path fill="none" stroke="black" d="M153.22,-222C155.75,-227.76 158.42,-234.34 160.42,-240.5 172.64,-278.13 178.49,-323.4 181.2,-353.35"/>
<polygon fill="black" stroke="black" points="177.71,-353.61 182.03,-363.29 184.69,-353.03 177.71,-353.61"/>
<text xml:space="preserve" text-anchor="middle" x="180.53" y="-289.07" font-family="Times,serif" font-size="14.00">2</text>
</g>
<!-- 1&#45;&gt;0 -->
<g id="edge8" class="edge">
<title>1&#45;&gt;0</title>
<path fill="none" stroke="black" d="M144.61,-133.45C144.75,-145.27 144.93,-161.25 145.09,-174.96"/>
<polygon fill="black" stroke="black" points="141.59,-174.79 145.2,-184.75 148.59,-174.71 141.59,-174.79"/>
<text xml:space="preserve" text-anchor="middle" x="149.51" y="-155.2" font-family="Times,serif" font-size="14.00">4</text>
</g>
<!-- 1&#45;&gt;0 -->
<g id="edge16" class="edge">
<title>1&#45;&gt;0</title>
<path fill="none" stroke="black" d="M152.45,-132.59C154.87,-138.35 157.2,-144.95 158.42,-151.25 160,-159.49 158.88,-168.37 156.75,-176.43"/>
<polygon fill="black" stroke="black" points="153.51,-175.1 153.73,-185.69 160.16,-177.27 153.51,-175.1"/>
<text xml:space="preserve" text-anchor="middle" x="163.66" y="-155.2" font-family="Times,serif" font-size="14.00">0</text>
</g>
<!-- 1&#45;&gt;3 -->
<g id="edge5" class="edge">
<title>1&#45;&gt;3</title>
<path fill="none" stroke="black" d="M130.44,-99.58C122.21,-89.09 114.48,-74.65 120.42,-62 124.56,-53.17 131.8,-45.65 139.37,-39.64"/>
<polygon fill="black" stroke="black" points="140.92,-42.83 147.01,-34.17 136.84,-37.14 140.92,-42.83"/>
<text xml:space="preserve" text-anchor="middle" x="124.92" y="-65.95" font-family="Times,serif" font-size="14.00">1</text>
</g>
<!-- 1&#45;&gt;3 -->
<g id="edge22" class="edge">
<title>1&#45;&gt;3</title>
<path fill="none" stroke="black" d="M146.1,-97.12C147.34,-86.82 149.36,-73.53 152.42,-62 153.19,-59.08 154.11,-56.07 155.11,-53.09"/>
<polygon fill="black" stroke="black" points="158.29,-54.58 158.43,-43.99 151.72,-52.19 158.29,-54.58"/>
<text xml:space="preserve" text-anchor="middle" x="156.92" y="-65.95" font-family="Times,serif" font-size="14.00">2</text>
</g>
<!-- 1&#45;&gt;4 -->
<g id="edge17" class="edge">
<title>1&#45;&gt;4</title>
<path fill="none" stroke="black" d="M158.49,-130.95C163.51,-136.87 168.81,-144.01 172.42,-151.25 179.63,-165.72 178.69,-170.56 181.42,-186.5 192.21,-249.47 191.06,-265.9 193.42,-329.75 193.7,-337.41 194.38,-339.39 193.42,-347 193.1,-349.48 192.68,-352.03 192.19,-354.57"/>
<polygon fill="black" stroke="black" points="188.84,-353.54 190.03,-364.07 195.66,-355.1 188.84,-353.54"/>
<text xml:space="preserve" text-anchor="middle" x="195.01" y="-244.45" font-family="Times,serif" font-size="14.00">3</text>
</g>
<!-- 2&#45;&gt;0 -->
<g id="edge19" class="edge">
<title>2&#45;&gt;0</title>
<path fill="none" stroke="black" d="M112.94,-276.34C118.6,-263.99 126.49,-246.79 133.07,-232.43"/>
<polygon fill="black" stroke="black" points="136.17,-234.06 137.16,-223.51 129.81,-231.14 136.17,-234.06"/>
<text xml:space="preserve" text-anchor="middle" x="133.5" y="-244.45" font-family="Times,serif" font-size="14.00">0</text>
</g>
<!-- 2&#45;&gt;0 -->
<g id="edge25" class="edge">
<title>2&#45;&gt;0</title>
<path fill="none" stroke="black" d="M123.79,-280.19C130.91,-274.27 138.32,-266.57 142.42,-257.75 145.78,-250.53 147.19,-242.13 147.59,-234.2"/>
<polygon fill="black" stroke="black" points="151.09,-234.25 147.55,-224.26 144.09,-234.27 151.09,-234.25"/>
<text xml:space="preserve" text-anchor="middle" x="151.43" y="-244.45" font-family="Times,serif" font-size="14.00">3</text>
</g>
<!-- 2&#45;&gt;1 -->
<g id="edge24" class="edge">
<title>2&#45;&gt;1</title>
<path fill="none" stroke="black" d="M79.37,-288.32C61.45,-283.82 38.73,-274.95 26.42,-257.75 -1.22,-219.16 -11.83,-187.83 18.42,-151.25 45.52,-118.47 72.3,-147.39 112.42,-133.25 113.05,-133.03 113.68,-132.79 114.32,-132.55"/>
<polygon fill="black" stroke="black" points="115.44,-135.88 123.14,-128.61 112.58,-129.49 115.44,-135.88"/>
<text xml:space="preserve" text-anchor="middle" x="10.3" y="-199.82" font-family="Times,serif" font-size="14.00">4</text>
</g>
<!-- 2&#45;&gt;2 -->
<g id="edge15" class="edge">
<title>2&#45;&gt;2</title>
<path fill="none" stroke="black" d="M129.95,-301.99C140.92,-302.77 150.42,-300.03 150.42,-293.75 150.42,-289.83 146.71,-287.28 141.25,-286.12"/>
<polygon fill="black" stroke="black" points="141.63,-282.64 131.46,-285.59 141.26,-289.63 141.63,-282.64"/>
<text xml:space="preserve" text-anchor="middle" x="154.92" y="-289.07" font-family="Times,serif" font-size="14.00">1</text>
</g>
<!-- 2&#45;&gt;3 -->
<g id="edge21" class="edge">
<title>2&#45;&gt;3</title>
<path fill="none" stroke="black" d="M86.79,-280.3C79.64,-274.4 72.26,-266.68 68.42,-257.75 33.55,-176.78 48.24,-133.05 100.42,-62 109.32,-49.88 123.21,-40.91 136.04,-34.65"/>
<polygon fill="black" stroke="black" points="137.34,-37.9 145.05,-30.64 134.5,-31.51 137.34,-37.9"/>
<text xml:space="preserve" text-anchor="middle" x="57.15" y="-155.2" font-family="Times,serif" font-size="14.00">2</text>
</g>
<!-- 3&#45;&gt;0 -->
<g id="edge23" class="edge">
<title>3&#45;&gt;0</title>
<path fill="none" stroke="black" d="M148.24,-33.58C137.16,-40.48 123.63,-50.35 114.42,-62 103.85,-75.35 102.82,-80.57 99.42,-97.25 96.22,-112.93 94.84,-117.92 99.42,-133.25 104.51,-150.34 115.24,-167.13 125.05,-180.01"/>
<polygon fill="black" stroke="black" points="122.03,-181.83 131,-187.47 127.5,-177.47 122.03,-181.83"/>
<text xml:space="preserve" text-anchor="middle" x="103.92" y="-110.58" font-family="Times,serif" font-size="14.00">1</text>
</g>
<!-- 3&#45;&gt;1 -->
<g id="edge9" class="edge">
<title>3&#45;&gt;1</title>
<path fill="none" stroke="black" d="M166.87,-44.43C166.16,-55.07 164.64,-68.02 161.42,-79.25 160.62,-82.03 159.61,-84.87 158.49,-87.66"/>
<polygon fill="black" stroke="black" points="155.37,-86.06 154.39,-96.61 161.74,-88.97 155.37,-86.06"/>
<text xml:space="preserve" text-anchor="middle" x="169.44" y="-65.95" font-family="Times,serif" font-size="14.00">3</text>
</g>
<!-- 3&#45;&gt;3 -->
<g id="edge11" class="edge">
<title>3&#45;&gt;3</title>
<path fill="none" stroke="black" d="M189.22,-26.49C198.98,-26.91 207.42,-25.42 207.42,-22 207.42,-20.08 204.75,-18.76 200.68,-18.06"/>
<polygon fill="black" stroke="black" points="200.89,-14.56 190.74,-17.58 200.56,-21.55 200.89,-14.56"/>
<text xml:space="preserve" text-anchor="middle" x="211.92" y="-17.32" font-family="Times,serif" font-size="14.00">0</text>
</g>
<!-- 3&#45;&gt;3 -->
<g id="edge14" class="edge">
<title>3&#45;&gt;3</title>
<path fill="none" stroke="black" d="M188.53,-29.67C206.51,-33.06 225.42,-30.5 225.42,-22 225.42,-15.29 213.65,-12.29 199.85,-12.98"/>
<polygon fill="black" stroke="black" points="199.55,-9.49 190.03,-14.15 200.38,-16.44 199.55,-9.49"/>
<text xml:space="preserve" text-anchor="middle" x="229.92" y="-17.32" font-family="Times,serif" font-size="14.00">2</text>
</g>
<!-- 3&#45;&gt;4 -->
<g id="edge18" class="edge">
<title>3&#45;&gt;4</title>
<path fill="none" stroke="black" d="M189.44,-25.6C232.44,-32.04 323.42,-52.91 323.42,-114.25 323.42,-294.75 323.42,-294.75 323.42,-294.75 323.42,-345.56 257.9,-369.55 216.51,-379.65"/>
<polygon fill="black" stroke="black" points="215.75,-376.23 206.77,-381.85 217.29,-383.06 215.75,-376.23"/>
<text xml:space="preserve" text-anchor="middle" x="327.92" y="-199.82" font-family="Times,serif" font-size="14.00">4</text>
</g>
<!-- 4&#45;&gt;2 -->
<g id="edge2" class="edge">
<title>4&#45;&gt;2</title>
<path fill="none" stroke="black" d="M161.38,-385.03C136.07,-382.6 95.58,-374.38 76.42,-347 69.84,-337.6 74.36,-326.56 81.62,-317.06"/>
<polygon fill="black" stroke="black" points="84.15,-319.48 88.14,-309.66 78.9,-314.85 84.15,-319.48"/>
<text xml:space="preserve" text-anchor="middle" x="80.92" y="-333.7" font-family="Times,serif" font-size="14.00">2</text>
</g>
<!-- 4&#45;&gt;2 -->
<g id="edge4" class="edge">
<title>4&#45;&gt;2</title>
<path fill="none" stroke="black" d="M161.99,-381.09C144.39,-375.83 120.46,-365.61 108.42,-347 103.97,-340.13 102.28,-331.63 101.96,-323.5"/>
<polygon fill="black" stroke="black" points="105.46,-323.69 102.26,-313.59 98.46,-323.48 105.46,-323.69"/>
<text xml:space="preserve" text-anchor="middle" x="112.92" y="-333.7" font-family="Times,serif" font-size="14.00">1</text>
</g>
<!-- 4&#45;&gt;2 -->
<g id="edge7" class="edge">
<title>4&#45;&gt;2</title>
<path fill="none" stroke="black" d="M166.6,-372.43C158.26,-365.3 148.32,-356.15 140.42,-347 133.44,-338.92 126.69,-329.39 121.01,-320.7"/>
<polygon fill="black" stroke="black" points="124,-318.88 115.69,-312.3 118.08,-322.62 124,-318.88"/>
<text xml:space="preserve" text-anchor="middle" x="144.92" y="-333.7" font-family="Times,serif" font-size="14.00">4</text>
</g>
<!-- 4&#45;&gt;2 -->
<g id="edge20" class="edge">
<title>4&#45;&gt;2</title>
<path fill="none" stroke="black" d="M173.93,-366.63C167.83,-355.22 159.21,-340.89 149.42,-329.75 144.51,-324.17 138.63,-318.81 132.79,-314.04"/>
<polygon fill="black" stroke="black" points="135.04,-311.36 124.99,-308 130.75,-316.89 135.04,-311.36"/>
<text xml:space="preserve" text-anchor="middle" x="165.88" y="-333.7" font-family="Times,serif" font-size="14.00">0</text>
</g>
<!-- 4&#45;&gt;3 -->
<g id="edge13" class="edge">
<title>4&#45;&gt;3</title>
<path fill="none" stroke="black" d="M203.56,-377.53C231.45,-364.3 278.42,-335.91 278.42,-294.75 278.42,-294.75 278.42,-294.75 278.42,-114.25 278.42,-72.9 231.88,-46.84 199.07,-33.61"/>
<polygon fill="black" stroke="black" points="200.56,-30.43 189.97,-30.15 198.07,-36.97 200.56,-30.43"/>
<text xml:space="preserve" text-anchor="middle" x="282.92" y="-199.82" font-family="Times,serif" font-size="14.00">3</text>
</g>
</g>
</svg>
