<?xml version="1.0" encoding="UTF-8" standalone="no"?>
<!DOCTYPE svg PUBLIC "-//W3C//DTD SVG 1.1//EN"
 "http://www.w3.org/Graphics/SVG/1.1/DTD/svg11.dtd">
<!-- Generated by graphviz version 13.0.1 (20250616.1512)
 -->
<!-- Pages: 1 -->
<svg width="359pt" height="393pt"
 viewBox="0.00 0.00 359.00 393.00" xmlns="http://www.w3.org/2000/svg" xmlns:xlink="http://www.w3.org/1999/xlink">
<g id="graph0" class="graph" transform="scale(1 1) rotate(0) translate(4 388.75)">
<polygon fill="white" stroke="none" points="-4,4 -4,-388.75 355,-388.75 355,4 -4,4"/>
<!-- fake -->
<g id="node1" class="node">
<title>fake</title>
</g>
<!-- 0 -->
<g id="node2" class="node">
<title>0</title>
<ellipse fill="none" stroke="black" cx="159" cy="-289.75" rx="18" ry="18"/>
<ellipse fill="none" stroke="black" cx="159" cy="-289.75" rx="22" ry="22"/>
<text xml:space="preserve" text-anchor="middle" x="159" y="-285.07" font-family="Times,serif" font-size="14.00">0</text>
</g>
<!-- fake&#45;&gt;0 -->
<g id="edge1" class="edge">
<title>fake&#45;&gt;0</title>
<path fill="none" stroke="black" stroke-width="2" d="M159,-348.35C159,-340.92 159,-331.98 159,-323.39"/>
<polygon fill="black" stroke="black" stroke-width="2" points="162.5,-325.09 159,-315.09 155.5,-325.09 162.5,-325.09"/>
</g>
<!-- 0&#45;&gt;0 -->
<g id="edge23" class="edge">
<title>0&#45;&gt;0</title>
<path fill="none" stroke="black" d="M179.99,-297.16C190.09,-298.07 199,-295.6 199,-289.75 199,-286.27 195.86,-283.99 191.19,-282.9"/>
<polygon fill="black" stroke="black" points="191.66,-279.42 181.5,-282.42 191.31,-286.41 191.66,-279.42"/>
<text xml:space="preserve" text-anchor="middle" x="203.5" y="-285.07" font-family="Times,serif" font-size="14.00">3</text>
</g>
<!-- 2 -->
<g id="node4" class="node">
<title>2</title>
<ellipse fill="none" stroke="black" cx="191" cy="-196.5" rx="27" ry="18"/>
<text xml:space="preserve" text-anchor="middle" x="191" y="-191.82" font-family="Times,serif" font-size="14.00">2</text>
</g>
<!-- 0&#45;&gt;2 -->
<g id="edge13" class="edge">
<title>0&#45;&gt;2</title>
<path fill="none" stroke="black" d="M166.1,-268.5C170.61,-255.66 176.49,-238.88 181.41,-224.86"/>
<polygon fill="black" stroke="black" points="184.59,-226.36 184.6,-215.76 177.98,-224.04 184.59,-226.36"/>
<text xml:space="preserve" text-anchor="middle" x="182.37" y="-236.45" font-family="Times,serif" font-size="14.00">1</text>
</g>
<!-- 0&#45;&gt;2 -->
<g id="edge18" class="edge">
<title>0&#45;&gt;2</title>
<path fill="none" stroke="black" d="M174.85,-274.38C181.16,-267.61 187.7,-258.99 191,-249.75 193.68,-242.26 194.52,-233.78 194.47,-225.85"/>
<polygon fill="black" stroke="black" points="197.98,-225.77 193.92,-215.98 190.99,-226.16 197.98,-225.77"/>
<text xml:space="preserve" text-anchor="middle" x="198.75" y="-236.45" font-family="Times,serif" font-size="14.00">4</text>
</g>
<!-- 0&#45;&gt;2 -->
<g id="edge25" class="edge">
<title>0&#45;&gt;2</title>
<path fill="none" stroke="black" d="M178.08,-278.87C188.72,-272.21 201,-262.35 207,-249.75 210.96,-241.44 209.61,-231.92 206.42,-223.31"/>
<polygon fill="black" stroke="black" points="209.68,-222 202.29,-214.41 203.33,-224.95 209.68,-222"/>
<text xml:space="preserve" text-anchor="middle" x="213.94" y="-236.45" font-family="Times,serif" font-size="14.00">0</text>
</g>
<!-- 4 -->
<g id="node6" class="node">
<title>4</title>
<ellipse fill="none" stroke="black" cx="126" cy="-107.25" rx="27" ry="18"/>
<text xml:space="preserve" text-anchor="middle" x="126" y="-102.58" font-family="Times,serif" font-size="14.00">4</text>
</g>
<!-- 0&#45;&gt;4 -->
<g id="edge16" class="edge">
<title>0&#45;&gt;4</title>
<path fill="none" stroke="black" d="M155.15,-267.69C149.22,-235.27 137.85,-173.09 131.2,-136.7"/>
<polygon fill="black" stroke="black" points="134.65,-136.12 129.41,-126.92 127.77,-137.38 134.65,-136.12"/>
<text xml:space="preserve" text-anchor="middle" x="149.74" y="-191.82" font-family="Times,serif" font-size="14.00">2</text>
</g>
<!-- 1 -->
<g id="node3" class="node">
<title>1</title>
<ellipse fill="none" stroke="black" cx="27" cy="-107.25" rx="27" ry="18"/>
<text xml:space="preserve" text-anchor="middle" x="27" y="-102.58" font-family="Times,serif" font-size="14.00">1</text>
</g>
<!-- 1&#45;&gt;0 -->
<g id="edge10" class="edge">
<title>1&#45;&gt;0</title>
<path fill="none" stroke="black" d="M25.08,-125.63C22.81,-155.76 23.06,-217.53 58,-249.75 76.97,-267.25 104.65,-277.2 126.24,-282.66"/>
<polygon fill="black" stroke="black" points="125.2,-286.01 135.73,-284.85 126.77,-279.19 125.2,-286.01"/>
<text xml:space="preserve" text-anchor="middle" x="39.5" y="-191.82" font-family="Times,serif" font-size="14.00">4</text>
</g>
<!-- 1&#45;&gt;0 -->
<g id="edge20" class="edge">
<title>1&#45;&gt;0</title>
<path fill="none" stroke="black" d="M38.48,-123.95C61.16,-154.96 111.92,-224.37 139.78,-262.47"/>
<polygon fill="black" stroke="black" points="136.72,-264.22 145.45,-270.22 142.37,-260.08 136.72,-264.22"/>
<text xml:space="preserve" text-anchor="middle" x="108.45" y="-191.82" font-family="Times,serif" font-size="14.00">0</text>
</g>
<!-- 1&#45;&gt;0 -->
<g id="edge26" class="edge">
<title>1&#45;&gt;0</title>
<path fill="none" stroke="black" d="M20.28,-124.9C12.69,-146.21 2.67,-184.02 13,-214.5 28.51,-260.26 87.76,-277.99 125.84,-284.73"/>
<polygon fill="black" stroke="black" points="124.99,-288.14 135.42,-286.26 126.09,-281.23 124.99,-288.14"/>
<text xml:space="preserve" text-anchor="middle" x="17.5" y="-191.82" font-family="Times,serif" font-size="14.00">3</text>
</g>
<!-- 1&#45;&gt;1 -->
<g id="edge22" class="edge">
<title>1&#45;&gt;1</title>
<path fill="none" stroke="black" d="M51.53,-115.49C62.51,-116.27 72,-113.53 72,-107.25 72,-103.33 68.29,-100.78 62.83,-99.62"/>
<polygon fill="black" stroke="black" points="63.22,-96.14 53.04,-99.09 62.84,-103.13 63.22,-96.14"/>
<text xml:space="preserve" text-anchor="middle" x="76.5" y="-102.58" font-family="Times,serif" font-size="14.00">1</text>
</g>
<!-- 1&#45;&gt;2 -->
<g id="edge7" class="edge">
<title>1&#45;&gt;2</title>
<path fill="none" stroke="black" d="M47.6,-119.21C75.98,-134.31 127.3,-161.61 160.24,-179.13"/>
<polygon fill="black" stroke="black" points="158.42,-182.13 168.89,-183.74 161.71,-175.95 158.42,-182.13"/>
<text xml:space="preserve" text-anchor="middle" x="128.19" y="-147.2" font-family="Times,serif" font-size="14.00">2</text>
</g>
<!-- 2&#45;&gt;0 -->
<g id="edge8" class="edge">
<title>2&#45;&gt;0</title>
<path fill="none" stroke="black" d="M174.76,-211.21C168.97,-217.1 163.12,-224.48 160,-232.5 157.12,-239.9 155.97,-248.27 155.74,-256.25"/>
<polygon fill="black" stroke="black" points="152.23,-256.07 155.93,-265.99 159.23,-255.93 152.23,-256.07"/>
<text xml:space="preserve" text-anchor="middle" x="164.5" y="-236.45" font-family="Times,serif" font-size="14.00">1</text>
</g>
<!-- 2&#45;&gt;1 -->
<g id="edge17" class="edge">
<title>2&#45;&gt;1</title>
<path fill="none" stroke="black" d="M178.71,-180.26C168.62,-168.64 153.35,-153.02 137,-143.25 124.35,-135.7 89.96,-125.28 62.97,-117.77"/>
<polygon fill="black" stroke="black" points="63.96,-114.42 53.39,-115.15 62.12,-121.17 63.96,-114.42"/>
<text xml:space="preserve" text-anchor="middle" x="162.8" y="-147.2" font-family="Times,serif" font-size="14.00">3</text>
</g>
<!-- 2&#45;&gt;2 -->
<g id="edge5" class="edge">
<title>2&#45;&gt;2</title>
<path fill="none" stroke="black" d="M217.35,-200.67C227.53,-200.85 236,-199.46 236,-196.5 236,-194.79 233.17,-193.6 228.81,-192.94"/>
<polygon fill="black" stroke="black" points="229.03,-189.45 218.86,-192.41 228.66,-196.44 229.03,-189.45"/>
<text xml:space="preserve" text-anchor="middle" x="240.5" y="-191.82" font-family="Times,serif" font-size="14.00">0</text>
</g>
<!-- 2&#45;&gt;2 -->
<g id="edge6" class="edge">
<title>2&#45;&gt;2</title>
<path fill="none" stroke="black" d="M215.9,-203.83C234.82,-206.48 254,-204.04 254,-196.5 254,-190.49 241.82,-187.72 227.3,-188.18"/>
<polygon fill="black" stroke="black" points="227.07,-184.69 217.41,-189.04 227.67,-191.66 227.07,-184.69"/>
<text xml:space="preserve" text-anchor="middle" x="258.5" y="-191.82" font-family="Times,serif" font-size="14.00">2</text>
</g>
<!-- 2&#45;&gt;4 -->
<g id="edge24" class="edge">
<title>2&#45;&gt;4</title>
<path fill="none" stroke="black" d="M186.16,-178.4C182.57,-167.63 176.91,-153.8 169,-143.25 164.68,-137.49 159.22,-132.1 153.64,-127.37"/>
<polygon fill="black" stroke="black" points="156.15,-124.89 146.13,-121.44 151.81,-130.38 156.15,-124.89"/>
<text xml:space="preserve" text-anchor="middle" x="182.98" y="-147.2" font-family="Times,serif" font-size="14.00">4</text>
</g>
<!-- 3 -->
<g id="node5" class="node">
<title>3</title>
<ellipse fill="none" stroke="black" cx="297" cy="-18" rx="27" ry="18"/>
<text xml:space="preserve" text-anchor="middle" x="297" y="-13.32" font-family="Times,serif" font-size="14.00">3</text>
</g>
<!-- 3&#45;&gt;0 -->
<g id="edge21" class="edge">
<title>3&#45;&gt;0</title>
<path fill="none" stroke="black" d="M310.08,-34C314.39,-39.85 318.67,-46.85 321,-54 325.85,-68.9 321.78,-73.58 322,-89.25 322.23,-105.25 325.42,-109.62 322,-125.25 312.67,-167.89 310.02,-181.89 281,-214.5 255.64,-242.99 216.72,-264.04 189.68,-276.32"/>
<polygon fill="black" stroke="black" points="188.39,-273.06 180.63,-280.28 191.2,-279.47 188.39,-273.06"/>
<text xml:space="preserve" text-anchor="middle" x="322.36" y="-147.2" font-family="Times,serif" font-size="14.00">1</text>
</g>
<!-- 3&#45;&gt;2 -->
<g id="edge2" class="edge">
<title>3&#45;&gt;2</title>
<path fill="none" stroke="black" d="M295.72,-36.39C293.42,-58.49 287.11,-97.12 270,-125.25 257.29,-146.16 236.39,-164.34 219.28,-176.96"/>
<polygon fill="black" stroke="black" points="217.6,-173.87 211.48,-182.51 221.66,-179.57 217.6,-173.87"/>
<text xml:space="preserve" text-anchor="middle" x="289.65" y="-102.58" font-family="Times,serif" font-size="14.00">3</text>
</g>
<!-- 3&#45;&gt;2 -->
<g id="edge15" class="edge">
<title>3&#45;&gt;2</title>
<path fill="none" stroke="black" d="M302.27,-35.92C303.79,-41.61 305.24,-48.02 306,-54 310,-85.61 312.47,-96.86 298,-125.25 283.34,-154.01 250.87,-172.75 225.52,-183.58"/>
<polygon fill="black" stroke="black" points="224.54,-180.2 216.57,-187.18 227.15,-186.69 224.54,-180.2"/>
<text xml:space="preserve" text-anchor="middle" x="313.51" y="-102.58" font-family="Times,serif" font-size="14.00">2</text>
</g>
<!-- 3&#45;&gt;3 -->
<g id="edge4" class="edge">
<title>3&#45;&gt;3</title>
<path fill="none" stroke="black" d="M321.53,-26.24C332.51,-27.02 342,-24.28 342,-18 342,-14.08 338.29,-11.53 332.83,-10.37"/>
<polygon fill="black" stroke="black" points="333.22,-6.89 323.04,-9.84 332.84,-13.88 333.22,-6.89"/>
<text xml:space="preserve" text-anchor="middle" x="346.5" y="-13.32" font-family="Times,serif" font-size="14.00">4</text>
</g>
<!-- 3&#45;&gt;4 -->
<g id="edge3" class="edge">
<title>3&#45;&gt;4</title>
<path fill="none" stroke="black" d="M275.86,-29.79C246.02,-45.01 191.36,-72.9 156.95,-90.46"/>
<polygon fill="black" stroke="black" points="155.63,-87.2 148.32,-94.86 158.81,-93.44 155.63,-87.2"/>
<text xml:space="preserve" text-anchor="middle" x="231.32" y="-57.95" font-family="Times,serif" font-size="14.00">0</text>
</g>
<!-- 4&#45;&gt;3 -->
<g id="edge12" class="edge">
<title>4&#45;&gt;3</title>
<path fill="none" stroke="black" d="M139.11,-90.99C149.84,-79.36 165.99,-63.74 183,-54 206.98,-40.27 236.94,-31.35 260.12,-25.95"/>
<polygon fill="black" stroke="black" points="260.74,-29.39 269.76,-23.83 259.24,-22.56 260.74,-29.39"/>
<text xml:space="preserve" text-anchor="middle" x="187.5" y="-57.95" font-family="Times,serif" font-size="14.00">0</text>
</g>
<!-- 4&#45;&gt;4 -->
<g id="edge9" class="edge">
<title>4&#45;&gt;4</title>
<path fill="none" stroke="black" d="M153.24,-109.34C163.02,-109.38 171,-108.69 171,-107.25 171,-106.44 168.48,-105.87 164.53,-105.53"/>
<polygon fill="black" stroke="black" points="164.86,-102.04 154.75,-105.21 164.63,-109.03 164.86,-102.04"/>
<text xml:space="preserve" text-anchor="middle" x="175.5" y="-102.58" font-family="Times,serif" font-size="14.00">3</text>
</g>
<!-- 4&#45;&gt;4 -->
<g id="edge11" class="edge">
<title>4&#45;&gt;4</title>
<path fill="none" stroke="black" d="M152.87,-111.05C171.13,-112.15 189,-110.89 189,-107.25 189,-104.38 177.87,-102.99 164.21,-103.07"/>
<polygon fill="black" stroke="black" points="164.26,-99.57 154.38,-103.4 164.5,-106.56 164.26,-99.57"/>
<text xml:space="preserve" text-anchor="middle" x="193.5" y="-102.58" font-family="Times,serif" font-size="14.00">2</text>
</g>
<!-- 4&#45;&gt;4 -->
<g id="edge14" class="edge">
<title>4&#45;&gt;4</title>
<path fill="none" stroke="black" d="M152.13,-112.19C178.19,-115.01 207,-113.36 207,-107.25 207,-102.02 185.91,-100.06 163.51,-101.37"/>
<polygon fill="black" stroke="black" points="163.32,-97.87 153.64,-102.18 163.89,-104.85 163.32,-97.87"/>
<text xml:space="preserve" text-anchor="middle" x="211.5" y="-102.58" font-family="Times,serif" font-size="14.00">1</text>
</g>
<!-- 4&#45;&gt;4 -->
<g id="edge19" class="edge">
<title>4&#45;&gt;4</title>
<path fill="none" stroke="black" d="M151.86,-113.04C185.12,-117.85 225,-115.92 225,-107.25 225,-99.53 193.37,-97.15 162.95,-100.12"/>
<polygon fill="black" stroke="black" points="162.87,-96.6 153.36,-101.28 163.71,-103.55 162.87,-96.6"/>
<text xml:space="preserve" text-anchor="middle" x="229.5" y="-102.58" font-family="Times,serif" font-size="14.00">4</text>
</g>
</g>
</svg>
