<?xml version="1.0" encoding="UTF-8" standalone="no"?>
<!DOCTYPE svg PUBLIC "-//W3C//DTD SVG 1.1//EN"
 "http://www.w3.org/Graphics/SVG/1.1/DTD/svg11.dtd">
<!-- Generated by graphviz version 13.0.1 (20250616.1512)
 -->
<!-- Pages: 1 -->
<svg width="380pt" height="490pt"
 viewBox="0.00 0.00 380.00 490.00" xmlns="http://www.w3.org/2000/svg" xmlns:xlink="http://www.w3.org/1999/xlink">
<g id="graph0" class="graph" transform="scale(1 1) rotate(0) translate(4 486)">
<polygon fill="white" stroke="none" points="-4,4 -4,-486 375.82,-486 375.82,4 -4,4"/>
<!-- fake -->
<g id="node1" class="node">
<title>fake</title>
</g>
<!-- 0 -->
<g id="node2" class="node">
<title>0</title>
<ellipse fill="none" stroke="black" cx="161.82" cy="-391" rx="27" ry="18"/>
<text xml:space="preserve" text-anchor="middle" x="161.82" y="-386.32" font-family="Times,serif" font-size="14.00">0</text>
</g>
<!-- fake&#45;&gt;0 -->
<g id="edge1" class="edge">
<title>fake&#45;&gt;0</title>
<path fill="none" stroke="black" stroke-width="2" d="M161.82,-445.81C161.82,-438.23 161.82,-429.1 161.82,-420.54"/>
<polygon fill="black" stroke="black" stroke-width="2" points="165.32,-422.06 161.82,-412.06 158.32,-422.06 165.32,-422.06"/>
</g>
<!-- 1 -->
<g id="node3" class="node">
<title>1</title>
<ellipse fill="none" stroke="black" cx="79.82" cy="-204.5" rx="27" ry="18"/>
<text xml:space="preserve" text-anchor="middle" x="79.82" y="-199.82" font-family="Times,serif" font-size="14.00">1</text>
</g>
<!-- 0&#45;&gt;1 -->
<g id="edge17" class="edge">
<title>0&#45;&gt;1</title>
<path fill="none" stroke="black" d="M134.59,-389.83C103.96,-388.26 54.27,-381.41 21.82,-355 8.33,-344.02 8.69,-336.71 4.82,-319.75 -3.21,-284.63 -2.44,-267.14 21.82,-240.5 29.01,-232.6 38.4,-225.9 47.52,-220.55"/>
<polygon fill="black" stroke="black" points="49.13,-223.65 56.24,-215.8 45.79,-217.5 49.13,-223.65"/>
<text xml:space="preserve" text-anchor="middle" x="9.32" y="-293.07" font-family="Times,serif" font-size="14.00">3</text>
</g>
<!-- 0&#45;&gt;1 -->
<g id="edge23" class="edge">
<title>0&#45;&gt;1</title>
<path fill="none" stroke="black" d="M138.16,-381.58C113.81,-371.36 77.77,-351.44 65.82,-319.75 55.15,-291.47 61.98,-256.73 69.35,-233.03"/>
<polygon fill="black" stroke="black" points="72.58,-234.39 72.45,-223.79 65.95,-232.15 72.58,-234.39"/>
<text xml:space="preserve" text-anchor="middle" x="70.32" y="-293.07" font-family="Times,serif" font-size="14.00">1</text>
</g>
<!-- 2 -->
<g id="node4" class="node">
<title>2</title>
<ellipse fill="none" stroke="black" cx="196.82" cy="-115.25" rx="27" ry="18"/>
<text xml:space="preserve" text-anchor="middle" x="196.82" y="-110.58" font-family="Times,serif" font-size="14.00">2</text>
</g>
<!-- 0&#45;&gt;2 -->
<g id="edge7" class="edge">
<title>0&#45;&gt;2</title>
<path fill="none" stroke="black" d="M177.05,-375.8C189.91,-362.68 207.39,-341.92 214.82,-319.75 234.97,-259.58 218.16,-184.11 206.21,-144.12"/>
<polygon fill="black" stroke="black" points="209.55,-143.08 203.23,-134.58 202.87,-145.17 209.55,-143.08"/>
<text xml:space="preserve" text-anchor="middle" x="228.7" y="-244.45" font-family="Times,serif" font-size="14.00">2</text>
</g>
<!-- 3 -->
<g id="node5" class="node">
<title>3</title>
<ellipse fill="none" stroke="black" cx="129.82" cy="-297.75" rx="18" ry="18"/>
<ellipse fill="none" stroke="black" cx="129.82" cy="-297.75" rx="22" ry="22"/>
<text xml:space="preserve" text-anchor="middle" x="129.82" y="-293.07" font-family="Times,serif" font-size="14.00">3</text>
</g>
<!-- 0&#45;&gt;3 -->
<g id="edge12" class="edge">
<title>0&#45;&gt;3</title>
<path fill="none" stroke="black" d="M145.58,-376.29C139.79,-370.4 133.94,-363.02 130.82,-355 127.94,-347.6 126.78,-339.23 126.55,-331.25"/>
<polygon fill="black" stroke="black" points="130.05,-331.57 126.75,-321.51 123.05,-331.43 130.05,-331.57"/>
<text xml:space="preserve" text-anchor="middle" x="135.32" y="-341.7" font-family="Times,serif" font-size="14.00">4</text>
</g>
<!-- 0&#45;&gt;3 -->
<g id="edge20" class="edge">
<title>0&#45;&gt;3</title>
<path fill="none" stroke="black" d="M155.95,-373.26C151.66,-361.05 145.73,-344.13 140.6,-329.51"/>
<polygon fill="black" stroke="black" points="143.99,-328.59 137.38,-320.31 137.39,-330.91 143.99,-328.59"/>
<text xml:space="preserve" text-anchor="middle" x="153.18" y="-341.7" font-family="Times,serif" font-size="14.00">0</text>
</g>
<!-- 1&#45;&gt;0 -->
<g id="edge6" class="edge">
<title>1&#45;&gt;0</title>
<path fill="none" stroke="black" d="M77.95,-222.62C76.16,-245.75 75.53,-287.75 89.82,-319.75 99.16,-340.68 117.85,-358.61 133.84,-371.12"/>
<polygon fill="black" stroke="black" points="131.53,-373.77 141.64,-376.94 135.72,-368.15 131.53,-373.77"/>
<text xml:space="preserve" text-anchor="middle" x="94.32" y="-293.07" font-family="Times,serif" font-size="14.00">1</text>
</g>
<!-- 1&#45;&gt;1 -->
<g id="edge2" class="edge">
<title>1&#45;&gt;1</title>
<path fill="none" stroke="black" d="M106.16,-208.67C116.35,-208.85 124.82,-207.46 124.82,-204.5 124.82,-202.79 121.99,-201.6 117.63,-200.94"/>
<polygon fill="black" stroke="black" points="117.85,-197.45 107.68,-200.41 117.48,-204.44 117.85,-197.45"/>
<text xml:space="preserve" text-anchor="middle" x="129.32" y="-199.82" font-family="Times,serif" font-size="14.00">4</text>
</g>
<!-- 1&#45;&gt;1 -->
<g id="edge21" class="edge">
<title>1&#45;&gt;1</title>
<path fill="none" stroke="black" d="M104.72,-211.83C123.64,-214.48 142.82,-212.04 142.82,-204.5 142.82,-198.49 130.64,-195.72 116.12,-196.18"/>
<polygon fill="black" stroke="black" points="115.89,-192.69 106.23,-197.04 116.49,-199.66 115.89,-192.69"/>
<text xml:space="preserve" text-anchor="middle" x="147.32" y="-199.82" font-family="Times,serif" font-size="14.00">3</text>
</g>
<!-- 1&#45;&gt;2 -->
<g id="edge4" class="edge">
<title>1&#45;&gt;2</title>
<path fill="none" stroke="black" d="M102.86,-194.86C117.43,-188.76 136.2,-179.7 150.82,-168.5 161.04,-160.68 170.71,-150.32 178.53,-140.89"/>
<polygon fill="black" stroke="black" points="181.26,-143.09 184.74,-133.08 175.78,-138.73 181.26,-143.09"/>
<text xml:space="preserve" text-anchor="middle" x="173.52" y="-155.2" font-family="Times,serif" font-size="14.00">0</text>
</g>
<!-- 4 -->
<g id="node6" class="node">
<title>4</title>
<ellipse fill="none" stroke="black" cx="196.82" cy="-22" rx="18" ry="18"/>
<ellipse fill="none" stroke="black" cx="196.82" cy="-22" rx="22" ry="22"/>
<text xml:space="preserve" text-anchor="middle" x="196.82" y="-17.32" font-family="Times,serif" font-size="14.00">4</text>
</g>
<!-- 1&#45;&gt;4 -->
<g id="edge18" class="edge">
<title>1&#45;&gt;4</title>
<path fill="none" stroke="black" d="M82.47,-186.1C86.47,-164 95.59,-125.36 113.82,-97.25 128.42,-74.73 151.59,-54.81 169.74,-41.28"/>
<polygon fill="black" stroke="black" points="171.42,-44.39 177.48,-35.69 167.32,-38.71 171.42,-44.39"/>
<text xml:space="preserve" text-anchor="middle" x="118.32" y="-110.58" font-family="Times,serif" font-size="14.00">2</text>
</g>
<!-- 2&#45;&gt;0 -->
<g id="edge25" class="edge">
<title>2&#45;&gt;0</title>
<path fill="none" stroke="black" d="M210.89,-130.95C215.91,-136.87 221.21,-144.01 224.82,-151.25 258.26,-218.35 252.69,-247.46 232.82,-319.75 228.15,-336.71 226.54,-341.89 214.82,-355 208.56,-361.99 200.61,-368.2 192.78,-373.38"/>
<polygon fill="black" stroke="black" points="191.04,-370.34 184.36,-378.57 194.71,-376.31 191.04,-370.34"/>
<text xml:space="preserve" text-anchor="middle" x="253.18" y="-244.45" font-family="Times,serif" font-size="14.00">3</text>
</g>
<!-- 2&#45;&gt;1 -->
<g id="edge16" class="edge">
<title>2&#45;&gt;1</title>
<path fill="none" stroke="black" d="M177.05,-127.94C166.39,-134.47 153.13,-142.94 141.82,-151.25 128.84,-160.78 115.08,-172.23 103.82,-181.98"/>
<polygon fill="black" stroke="black" points="101.75,-179.14 96.54,-188.37 106.36,-184.41 101.75,-179.14"/>
<text xml:space="preserve" text-anchor="middle" x="146.32" y="-155.2" font-family="Times,serif" font-size="14.00">0</text>
</g>
<!-- 2&#45;&gt;2 -->
<g id="edge8" class="edge">
<title>2&#45;&gt;2</title>
<path fill="none" stroke="black" d="M223.16,-119.42C233.35,-119.6 241.82,-118.21 241.82,-115.25 241.82,-113.54 238.99,-112.35 234.63,-111.69"/>
<polygon fill="black" stroke="black" points="234.85,-108.2 224.68,-111.16 234.48,-115.19 234.85,-108.2"/>
<text xml:space="preserve" text-anchor="middle" x="246.32" y="-110.58" font-family="Times,serif" font-size="14.00">2</text>
</g>
<!-- 2&#45;&gt;2 -->
<g id="edge19" class="edge">
<title>2&#45;&gt;2</title>
<path fill="none" stroke="black" d="M221.72,-122.58C240.64,-125.23 259.82,-122.79 259.82,-115.25 259.82,-109.24 247.64,-106.47 233.12,-106.93"/>
<polygon fill="black" stroke="black" points="232.89,-103.44 223.23,-107.79 233.49,-110.41 232.89,-103.44"/>
<text xml:space="preserve" text-anchor="middle" x="264.32" y="-110.58" font-family="Times,serif" font-size="14.00">4</text>
</g>
<!-- 2&#45;&gt;4 -->
<g id="edge26" class="edge">
<title>2&#45;&gt;4</title>
<path fill="none" stroke="black" d="M196.82,-97.09C196.82,-85.39 196.82,-69.54 196.82,-55.5"/>
<polygon fill="black" stroke="black" points="200.32,-55.78 196.82,-45.78 193.32,-55.78 200.32,-55.78"/>
<text xml:space="preserve" text-anchor="middle" x="201.32" y="-65.95" font-family="Times,serif" font-size="14.00">1</text>
</g>
<!-- 3&#45;&gt;1 -->
<g id="edge11" class="edge">
<title>3&#45;&gt;1</title>
<path fill="none" stroke="black" d="M119.46,-277.84C112.18,-264.57 102.36,-246.64 94.31,-231.95"/>
<polygon fill="black" stroke="black" points="97.43,-230.35 89.55,-223.26 91.29,-233.71 97.43,-230.35"/>
<text xml:space="preserve" text-anchor="middle" x="112.31" y="-244.45" font-family="Times,serif" font-size="14.00">2</text>
</g>
<!-- 3&#45;&gt;1 -->
<g id="edge13" class="edge">
<title>3&#45;&gt;1</title>
<path fill="none" stroke="black" d="M129.86,-275.3C129.04,-264.29 126.72,-251.02 120.82,-240.5 117.47,-234.54 112.7,-229.13 107.58,-224.45"/>
<polygon fill="black" stroke="black" points="109.97,-221.87 100.02,-218.23 105.52,-227.28 109.97,-221.87"/>
<text xml:space="preserve" text-anchor="middle" x="131.41" y="-244.45" font-family="Times,serif" font-size="14.00">3</text>
</g>
<!-- 3&#45;&gt;2 -->
<g id="edge9" class="edge">
<title>3&#45;&gt;2</title>
<path fill="none" stroke="black" d="M141.33,-278.44C150.14,-263.77 162.06,-242.42 169.82,-222.5 179.79,-196.91 187.09,-166.42 191.57,-144.67"/>
<polygon fill="black" stroke="black" points="194.97,-145.56 193.48,-135.07 188.1,-144.2 194.97,-145.56"/>
<text xml:space="preserve" text-anchor="middle" x="185.77" y="-199.82" font-family="Times,serif" font-size="14.00">1</text>
</g>
<!-- 3&#45;&gt;3 -->
<g id="edge3" class="edge">
<title>3&#45;&gt;3</title>
<path fill="none" stroke="black" d="M151.62,-302.24C161.38,-302.66 169.82,-301.17 169.82,-297.75 169.82,-295.83 167.15,-294.51 163.08,-293.81"/>
<polygon fill="black" stroke="black" points="163.29,-290.31 153.14,-293.33 162.96,-297.3 163.29,-290.31"/>
<text xml:space="preserve" text-anchor="middle" x="174.32" y="-293.07" font-family="Times,serif" font-size="14.00">4</text>
</g>
<!-- 3&#45;&gt;3 -->
<g id="edge15" class="edge">
<title>3&#45;&gt;3</title>
<path fill="none" stroke="black" d="M150.93,-305.42C168.91,-308.81 187.82,-306.25 187.82,-297.75 187.82,-291.04 176.05,-288.04 162.25,-288.73"/>
<polygon fill="black" stroke="black" points="161.95,-285.24 152.43,-289.9 162.78,-292.19 161.95,-285.24"/>
<text xml:space="preserve" text-anchor="middle" x="192.32" y="-293.07" font-family="Times,serif" font-size="14.00">0</text>
</g>
<!-- 4&#45;&gt;0 -->
<g id="edge22" class="edge">
<title>4&#45;&gt;0</title>
<path fill="none" stroke="black" d="M218.17,-28.51C252.91,-38.9 317.82,-64.92 317.82,-114.25 317.82,-298.75 317.82,-298.75 317.82,-298.75 317.82,-353.42 245.56,-375.94 199.39,-384.75"/>
<polygon fill="black" stroke="black" points="199.01,-381.26 189.77,-386.44 200.23,-388.16 199.01,-381.26"/>
<text xml:space="preserve" text-anchor="middle" x="322.32" y="-199.82" font-family="Times,serif" font-size="14.00">1</text>
</g>
<!-- 4&#45;&gt;0 -->
<g id="edge24" class="edge">
<title>4&#45;&gt;0</title>
<path fill="none" stroke="black" d="M218.86,-24.94C264.02,-30.25 362.82,-49.3 362.82,-114.25 362.82,-298.75 362.82,-298.75 362.82,-298.75 362.82,-369.38 258.64,-385.61 200.28,-389.16"/>
<polygon fill="black" stroke="black" points="200.25,-385.65 190.44,-389.65 200.6,-392.65 200.25,-385.65"/>
<text xml:space="preserve" text-anchor="middle" x="367.32" y="-199.82" font-family="Times,serif" font-size="14.00">4</text>
</g>
<!-- 4&#45;&gt;1 -->
<g id="edge10" class="edge">
<title>4&#45;&gt;1</title>
<path fill="none" stroke="black" d="M185.08,-41.11C164.16,-73.38 120.39,-140.91 96.4,-177.91"/>
<polygon fill="black" stroke="black" points="93.53,-175.92 91.02,-186.21 99.4,-179.72 93.53,-175.92"/>
<text xml:space="preserve" text-anchor="middle" x="152.53" y="-110.58" font-family="Times,serif" font-size="14.00">3</text>
</g>
<!-- 4&#45;&gt;4 -->
<g id="edge5" class="edge">
<title>4&#45;&gt;4</title>
<path fill="none" stroke="black" d="M218.62,-26.49C228.38,-26.91 236.82,-25.42 236.82,-22 236.82,-20.08 234.15,-18.76 230.08,-18.06"/>
<polygon fill="black" stroke="black" points="230.29,-14.56 220.14,-17.58 229.96,-21.55 230.29,-14.56"/>
<text xml:space="preserve" text-anchor="middle" x="241.32" y="-17.32" font-family="Times,serif" font-size="14.00">0</text>
</g>
<!-- 4&#45;&gt;4 -->
<g id="edge14" class="edge">
<title>4&#45;&gt;4</title>
<path fill="none" stroke="black" d="M217.93,-29.67C235.91,-33.06 254.82,-30.5 254.82,-22 254.82,-15.29 243.05,-12.29 229.25,-12.98"/>
<polygon fill="black" stroke="black" points="228.95,-9.49 219.43,-14.15 229.78,-16.44 228.95,-9.49"/>
<text xml:space="preserve" text-anchor="middle" x="259.32" y="-17.32" font-family="Times,serif" font-size="14.00">2</text>
</g>
</g>
</svg>
