<?xml version="1.0" encoding="UTF-8" standalone="no"?>
<!DOCTYPE svg PUBLIC "-//W3C//DTD SVG 1.1//EN"
 "http://www.w3.org/Graphics/SVG/1.1/DTD/svg11.dtd">
<!-- Generated by graphviz version 13.0.1 (20250616.1512)
 -->
<!-- Pages: 1 -->
<svg width="410pt" height="490pt"
 viewBox="0.00 0.00 410.00 490.00" xmlns="http://www.w3.org/2000/svg" xmlns:xlink="http://www.w3.org/1999/xlink">
<g id="graph0" class="graph" transform="scale(1 1) rotate(0) translate(4 486)">
<polygon fill="white" stroke="none" points="-4,4 -4,-486 406,-486 406,4 -4,4"/>
<!-- fake -->
<g id="node1" class="node">
<title>fake</title>
</g>
<!-- 4 -->
<g id="node6" class="node">
<title>4</title>
<ellipse fill="none" stroke="black" cx="226" cy="-391" rx="27" ry="18"/>
<text xml:space="preserve" text-anchor="middle" x="226" y="-386.32" font-family="Times,serif" font-size="14.00">4</text>
</g>
<!-- fake&#45;&gt;4 -->
<g id="edge1" class="edge">
<title>fake&#45;&gt;4</title>
<path fill="none" stroke="black" stroke-width="2" d="M226,-445.81C226,-438.23 226,-429.1 226,-420.54"/>
<polygon fill="black" stroke="black" stroke-width="2" points="229.5,-422.06 226,-412.06 222.5,-422.06 229.5,-422.06"/>
</g>
<!-- 0 -->
<g id="node2" class="node">
<title>0</title>
<ellipse fill="none" stroke="black" cx="27" cy="-204.5" rx="27" ry="18"/>
<text xml:space="preserve" text-anchor="middle" x="27" y="-199.82" font-family="Times,serif" font-size="14.00">0</text>
</g>
<!-- 0&#45;&gt;0 -->
<g id="edge9" class="edge">
<title>0&#45;&gt;0</title>
<path fill="none" stroke="black" d="M53.35,-208.67C63.53,-208.85 72,-207.46 72,-204.5 72,-202.79 69.17,-201.6 64.81,-200.94"/>
<polygon fill="black" stroke="black" points="65.03,-197.45 54.86,-200.41 64.66,-204.44 65.03,-197.45"/>
<text xml:space="preserve" text-anchor="middle" x="76.5" y="-199.82" font-family="Times,serif" font-size="14.00">2</text>
</g>
<!-- 0&#45;&gt;0 -->
<g id="edge24" class="edge">
<title>0&#45;&gt;0</title>
<path fill="none" stroke="black" d="M51.9,-211.83C70.82,-214.48 90,-212.04 90,-204.5 90,-198.49 77.82,-195.72 63.3,-196.18"/>
<polygon fill="black" stroke="black" points="63.07,-192.69 53.41,-197.04 63.67,-199.66 63.07,-192.69"/>
<text xml:space="preserve" text-anchor="middle" x="94.5" y="-199.82" font-family="Times,serif" font-size="14.00">4</text>
</g>
<!-- 2 -->
<g id="node4" class="node">
<title>2</title>
<ellipse fill="none" stroke="black" cx="207" cy="-111.25" rx="18" ry="18"/>
<ellipse fill="none" stroke="black" cx="207" cy="-111.25" rx="22" ry="22"/>
<text xml:space="preserve" text-anchor="middle" x="207" y="-106.58" font-family="Times,serif" font-size="14.00">2</text>
</g>
<!-- 0&#45;&gt;2 -->
<g id="edge18" class="edge">
<title>0&#45;&gt;2</title>
<path fill="none" stroke="black" d="M38.68,-188.19C48.33,-176.52 62.99,-160.89 79,-151.25 108.65,-133.41 147.13,-123.12 174.13,-117.64"/>
<polygon fill="black" stroke="black" points="174.64,-121.11 183.81,-115.8 173.33,-114.23 174.64,-121.11"/>
<text xml:space="preserve" text-anchor="middle" x="83.5" y="-155.2" font-family="Times,serif" font-size="14.00">0</text>
</g>
<!-- 3 -->
<g id="node5" class="node">
<title>3</title>
<ellipse fill="none" stroke="black" cx="239" cy="-18" rx="27" ry="18"/>
<text xml:space="preserve" text-anchor="middle" x="239" y="-13.32" font-family="Times,serif" font-size="14.00">3</text>
</g>
<!-- 0&#45;&gt;3 -->
<g id="edge11" class="edge">
<title>0&#45;&gt;3</title>
<path fill="none" stroke="black" d="M33.24,-186.74C37.86,-175.84 44.91,-161.75 54,-151.25 98.95,-99.33 168.23,-56.9 208.03,-35.04"/>
<polygon fill="black" stroke="black" points="209.48,-38.24 216.62,-30.4 206.15,-32.08 209.48,-38.24"/>
<text xml:space="preserve" text-anchor="middle" x="124.89" y="-106.58" font-family="Times,serif" font-size="14.00">1</text>
</g>
<!-- 0&#45;&gt;4 -->
<g id="edge15" class="edge">
<title>0&#45;&gt;4</title>
<path fill="none" stroke="black" d="M31.75,-222.37C39.18,-246.33 55.53,-290.56 82,-319.75 111,-351.73 157.77,-370.75 190.1,-380.78"/>
<polygon fill="black" stroke="black" points="188.84,-384.06 199.42,-383.52 190.82,-377.34 188.84,-384.06"/>
<text xml:space="preserve" text-anchor="middle" x="86.5" y="-293.07" font-family="Times,serif" font-size="14.00">3</text>
</g>
<!-- 1 -->
<g id="node3" class="node">
<title>1</title>
<ellipse fill="none" stroke="black" cx="122" cy="-297.75" rx="18" ry="18"/>
<ellipse fill="none" stroke="black" cx="122" cy="-297.75" rx="22" ry="22"/>
<text xml:space="preserve" text-anchor="middle" x="122" y="-293.07" font-family="Times,serif" font-size="14.00">1</text>
</g>
<!-- 1&#45;&gt;0 -->
<g id="edge13" class="edge">
<title>1&#45;&gt;0</title>
<path fill="none" stroke="black" d="M112.98,-277.39C106.85,-265.71 97.89,-251.08 87,-240.5 79,-232.72 68.94,-226 59.36,-220.57"/>
<polygon fill="black" stroke="black" points="61.08,-217.53 50.61,-215.93 57.8,-223.71 61.08,-217.53"/>
<text xml:space="preserve" text-anchor="middle" x="105.36" y="-244.45" font-family="Times,serif" font-size="14.00">1</text>
</g>
<!-- 1&#45;&gt;1 -->
<g id="edge3" class="edge">
<title>1&#45;&gt;1</title>
<path fill="none" stroke="black" d="M143.81,-302.24C153.56,-302.66 162,-301.17 162,-297.75 162,-295.83 159.33,-294.51 155.26,-293.81"/>
<polygon fill="black" stroke="black" points="155.47,-290.31 145.32,-293.33 155.14,-297.3 155.47,-290.31"/>
<text xml:space="preserve" text-anchor="middle" x="166.5" y="-293.07" font-family="Times,serif" font-size="14.00">0</text>
</g>
<!-- 1&#45;&gt;1 -->
<g id="edge19" class="edge">
<title>1&#45;&gt;1</title>
<path fill="none" stroke="black" d="M143.11,-305.42C161.1,-308.81 180,-306.25 180,-297.75 180,-291.04 168.23,-288.04 154.43,-288.73"/>
<polygon fill="black" stroke="black" points="154.13,-285.24 144.62,-289.9 154.96,-292.19 154.13,-285.24"/>
<text xml:space="preserve" text-anchor="middle" x="184.5" y="-293.07" font-family="Times,serif" font-size="14.00">4</text>
</g>
<!-- 1&#45;&gt;2 -->
<g id="edge5" class="edge">
<title>1&#45;&gt;2</title>
<path fill="none" stroke="black" d="M126.47,-276.19C133.51,-246.79 149.1,-191.81 175,-151.25 178.02,-146.52 181.54,-141.71 185.11,-137.16"/>
<polygon fill="black" stroke="black" points="187.79,-139.41 191.42,-129.46 182.38,-134.97 187.79,-139.41"/>
<text xml:space="preserve" text-anchor="middle" x="159.77" y="-199.82" font-family="Times,serif" font-size="14.00">3</text>
</g>
<!-- 1&#45;&gt;2 -->
<g id="edge22" class="edge">
<title>1&#45;&gt;2</title>
<path fill="none" stroke="black" d="M134.26,-279.11C138.73,-272.5 143.72,-264.86 148,-257.75 157.17,-242.5 159.72,-238.74 167,-222.5 178.7,-196.39 189.6,-165.73 197.06,-143.38"/>
<polygon fill="black" stroke="black" points="200.36,-144.55 200.16,-133.95 193.72,-142.36 200.36,-144.55"/>
<text xml:space="preserve" text-anchor="middle" x="185.79" y="-199.82" font-family="Times,serif" font-size="14.00">2</text>
</g>
<!-- 2&#45;&gt;0 -->
<g id="edge12" class="edge">
<title>2&#45;&gt;0</title>
<path fill="none" stroke="black" d="M186.93,-120.7C169.33,-128.26 143.17,-139.88 121,-151.25 107.31,-158.27 104.41,-160.98 91,-168.5 80.15,-174.59 68.2,-181.16 57.59,-186.94"/>
<polygon fill="black" stroke="black" points="55.97,-183.84 48.86,-191.7 59.31,-189.99 55.97,-183.84"/>
<text xml:space="preserve" text-anchor="middle" x="125.5" y="-155.2" font-family="Times,serif" font-size="14.00">0</text>
</g>
<!-- 2&#45;&gt;2 -->
<g id="edge7" class="edge">
<title>2&#45;&gt;2</title>
<path fill="none" stroke="black" d="M228.81,-115.74C238.56,-116.16 247,-114.67 247,-111.25 247,-109.33 244.33,-108.01 240.26,-107.31"/>
<polygon fill="black" stroke="black" points="240.47,-103.81 230.32,-106.83 240.14,-110.8 240.47,-103.81"/>
<text xml:space="preserve" text-anchor="middle" x="251.5" y="-106.58" font-family="Times,serif" font-size="14.00">3</text>
</g>
<!-- 2&#45;&gt;2 -->
<g id="edge14" class="edge">
<title>2&#45;&gt;2</title>
<path fill="none" stroke="black" d="M228.11,-118.92C246.1,-122.31 265,-119.75 265,-111.25 265,-104.54 253.23,-101.54 239.43,-102.23"/>
<polygon fill="black" stroke="black" points="239.13,-98.74 229.62,-103.4 239.96,-105.69 239.13,-98.74"/>
<text xml:space="preserve" text-anchor="middle" x="269.5" y="-106.58" font-family="Times,serif" font-size="14.00">4</text>
</g>
<!-- 2&#45;&gt;3 -->
<g id="edge17" class="edge">
<title>2&#45;&gt;3</title>
<path fill="none" stroke="black" d="M203.96,-89.01C203.25,-78.18 203.71,-65.01 208,-54 209.76,-49.49 212.38,-45.18 215.36,-41.23"/>
<polygon fill="black" stroke="black" points="217.85,-43.7 221.77,-33.85 212.57,-39.11 217.85,-43.7"/>
<text xml:space="preserve" text-anchor="middle" x="212.5" y="-57.95" font-family="Times,serif" font-size="14.00">2</text>
</g>
<!-- 2&#45;&gt;4 -->
<g id="edge6" class="edge">
<title>2&#45;&gt;4</title>
<path fill="none" stroke="black" d="M228.25,-117.54C245.03,-122.96 267.33,-133.22 278,-151.25 324.11,-229.19 320.55,-275.07 278,-355 273.61,-363.24 266.33,-369.89 258.58,-375.09"/>
<polygon fill="black" stroke="black" points="256.84,-372.04 250,-380.14 260.4,-378.08 256.84,-372.04"/>
<text xml:space="preserve" text-anchor="middle" x="315.76" y="-244.45" font-family="Times,serif" font-size="14.00">1</text>
</g>
<!-- 3&#45;&gt;2 -->
<g id="edge26" class="edge">
<title>3&#45;&gt;2</title>
<path fill="none" stroke="black" d="M233.1,-35.83C228.82,-48.02 222.92,-64.84 217.81,-79.41"/>
<polygon fill="black" stroke="black" points="214.61,-77.98 214.6,-88.57 221.21,-80.29 214.61,-77.98"/>
<text xml:space="preserve" text-anchor="middle" x="230.37" y="-57.95" font-family="Times,serif" font-size="14.00">3</text>
</g>
<!-- 3&#45;&gt;3 -->
<g id="edge2" class="edge">
<title>3&#45;&gt;3</title>
<path fill="none" stroke="black" d="M265.35,-22.17C275.53,-22.35 284,-20.96 284,-18 284,-16.29 281.17,-15.1 276.81,-14.44"/>
<polygon fill="black" stroke="black" points="277.03,-10.95 266.86,-13.91 276.66,-17.94 277.03,-10.95"/>
<text xml:space="preserve" text-anchor="middle" x="288.5" y="-13.32" font-family="Times,serif" font-size="14.00">2</text>
</g>
<!-- 3&#45;&gt;3 -->
<g id="edge25" class="edge">
<title>3&#45;&gt;3</title>
<path fill="none" stroke="black" d="M263.9,-25.33C282.82,-27.98 302,-25.54 302,-18 302,-11.99 289.82,-9.22 275.3,-9.68"/>
<polygon fill="black" stroke="black" points="275.07,-6.19 265.41,-10.54 275.67,-13.16 275.07,-6.19"/>
<text xml:space="preserve" text-anchor="middle" x="306.5" y="-13.32" font-family="Times,serif" font-size="14.00">0</text>
</g>
<!-- 3&#45;&gt;4 -->
<g id="edge10" class="edge">
<title>3&#45;&gt;4</title>
<path fill="none" stroke="black" d="M262.92,-26.91C295.01,-39.21 348,-66.2 348,-110.25 348,-298.75 348,-298.75 348,-298.75 348,-342.26 297.63,-367.53 261.63,-380.03"/>
<polygon fill="black" stroke="black" points="260.84,-376.61 252.42,-383.04 263.01,-383.26 260.84,-376.61"/>
<text xml:space="preserve" text-anchor="middle" x="352.5" y="-199.82" font-family="Times,serif" font-size="14.00">4</text>
</g>
<!-- 3&#45;&gt;4 -->
<g id="edge21" class="edge">
<title>3&#45;&gt;4</title>
<path fill="none" stroke="black" d="M265.47,-22.47C309.5,-29.88 393,-51.67 393,-110.25 393,-298.75 393,-298.75 393,-298.75 393,-357.17 313.33,-378.42 264.04,-385.98"/>
<polygon fill="black" stroke="black" points="263.75,-382.48 254.33,-387.33 264.72,-389.42 263.75,-382.48"/>
<text xml:space="preserve" text-anchor="middle" x="397.5" y="-199.82" font-family="Times,serif" font-size="14.00">1</text>
</g>
<!-- 4&#45;&gt;0 -->
<g id="edge4" class="edge">
<title>4&#45;&gt;0</title>
<path fill="none" stroke="black" d="M199.23,-387.28C157.76,-382.59 80.52,-371.84 59,-355 22.91,-326.76 20.95,-268.62 23.49,-233.75"/>
<polygon fill="black" stroke="black" points="26.96,-234.26 24.39,-223.98 19.99,-233.61 26.96,-234.26"/>
<text xml:space="preserve" text-anchor="middle" x="37.88" y="-293.07" font-family="Times,serif" font-size="14.00">2</text>
</g>
<!-- 4&#45;&gt;1 -->
<g id="edge8" class="edge">
<title>4&#45;&gt;1</title>
<path fill="none" stroke="black" d="M202.8,-381.36C189,-375.43 171.75,-366.53 159,-355 150.53,-347.34 143.14,-337.34 137.23,-327.9"/>
<polygon fill="black" stroke="black" points="140.28,-326.16 132.2,-319.31 134.24,-329.71 140.28,-326.16"/>
<text xml:space="preserve" text-anchor="middle" x="163.5" y="-341.7" font-family="Times,serif" font-size="14.00">4</text>
</g>
<!-- 4&#45;&gt;1 -->
<g id="edge20" class="edge">
<title>4&#45;&gt;1</title>
<path fill="none" stroke="black" d="M210.85,-376.12C199.21,-365.52 182.69,-350.59 168,-337.75 161.39,-331.97 154.17,-325.79 147.45,-320.1"/>
<polygon fill="black" stroke="black" points="149.76,-317.47 139.87,-313.69 145.25,-322.81 149.76,-317.47"/>
<text xml:space="preserve" text-anchor="middle" x="191.78" y="-341.7" font-family="Times,serif" font-size="14.00">0</text>
</g>
<!-- 4&#45;&gt;2 -->
<g id="edge16" class="edge">
<title>4&#45;&gt;2</title>
<path fill="none" stroke="black" d="M224.81,-372.63C221.7,-327.07 213.25,-203.64 209.21,-144.58"/>
<polygon fill="black" stroke="black" points="212.72,-144.58 208.55,-134.85 205.74,-145.06 212.72,-144.58"/>
<text xml:space="preserve" text-anchor="middle" x="221.44" y="-244.45" font-family="Times,serif" font-size="14.00">1</text>
</g>
<!-- 4&#45;&gt;2 -->
<g id="edge23" class="edge">
<title>4&#45;&gt;2</title>
<path fill="none" stroke="black" d="M232.43,-373.16C234.29,-367.48 236.07,-361.04 237,-355 238.16,-347.42 237.19,-345.41 237,-337.75 234.99,-254.68 244.39,-231.8 224,-151.25 223.2,-148.1 222.17,-144.87 221.02,-141.69"/>
<polygon fill="black" stroke="black" points="224.35,-140.59 217.33,-132.65 217.87,-143.23 224.35,-140.59"/>
<text xml:space="preserve" text-anchor="middle" x="241.97" y="-244.45" font-family="Times,serif" font-size="14.00">3</text>
</g>
</g>
</svg>
