<?xml version="1.0" encoding="UTF-8" standalone="no"?>
<!DOCTYPE svg PUBLIC "-//W3C//DTD SVG 1.1//EN"
 "http://www.w3.org/Graphics/SVG/1.1/DTD/svg11.dtd">
<!-- Generated by graphviz version 13.0.1 (20250616.1512)
 -->
<!-- Pages: 1 -->
<svg width="202pt" height="117pt"
 viewBox="0.00 0.00 202.00 117.00" xmlns="http://www.w3.org/2000/svg" xmlns:xlink="http://www.w3.org/1999/xlink">
<g id="graph0" class="graph" transform="scale(1 1) rotate(0) translate(4 113)">
<polygon fill="white" stroke="none" points="-4,4 -4,-113 198.27,-113 198.27,4 -4,4"/>
<!-- fake -->
<g id="node1" class="node">
<title>fake</title>
</g>
<!-- 0 -->
<g id="node2" class="node">
<title>0</title>
<ellipse fill="none" stroke="black" cx="32.27" cy="-18" rx="27" ry="18"/>
<text xml:space="preserve" text-anchor="middle" x="32.27" y="-13.32" font-family="Times,serif" font-size="14.00">0</text>
</g>
<!-- fake&#45;&gt;0 -->
<g id="edge1" class="edge">
<title>fake&#45;&gt;0</title>
<path fill="none" stroke="black" stroke-width="2" d="M32.27,-72.81C32.27,-65.23 32.27,-56.1 32.27,-47.54"/>
<polygon fill="black" stroke="black" stroke-width="2" points="35.77,-49.06 32.27,-39.06 28.77,-49.06 35.77,-49.06"/>
</g>
<!-- 0&#45;&gt;0 -->
<g id="edge2" class="edge">
<title>0&#45;&gt;0</title>
<path fill="none" stroke="black" d="M59.51,-19.5C69.29,-19.53 77.27,-19.03 77.27,-18 77.27,-17.42 74.74,-17.01 70.79,-16.76"/>
<polygon fill="black" stroke="black" points="71.1,-13.27 61.02,-16.54 70.94,-20.27 71.1,-13.27"/>
<text xml:space="preserve" text-anchor="middle" x="81.77" y="-13.32" font-family="Times,serif" font-size="14.00">2</text>
</g>
<!-- 0&#45;&gt;0 -->
<g id="edge3" class="edge">
<title>0&#45;&gt;0</title>
<path fill="none" stroke="black" d="M59.47,-20.74C77.61,-21.51 95.27,-20.59 95.27,-18 95.27,-15.95 84.27,-14.95 70.72,-15"/>
<polygon fill="black" stroke="black" points="70.89,-11.5 60.98,-15.23 71.06,-18.49 70.89,-11.5"/>
<text xml:space="preserve" text-anchor="middle" x="99.77" y="-13.32" font-family="Times,serif" font-size="14.00">4</text>
</g>
<!-- 0&#45;&gt;0 -->
<g id="edge4" class="edge">
<title>0&#45;&gt;0</title>
<path fill="none" stroke="black" d="M59.24,-21.61C85.07,-23.54 113.27,-22.34 113.27,-18 113.27,-14.29 92.63,-12.87 70.49,-13.75"/>
<polygon fill="black" stroke="black" points="70.53,-10.24 60.75,-14.31 70.93,-17.23 70.53,-10.24"/>
<text xml:space="preserve" text-anchor="middle" x="117.77" y="-13.32" font-family="Times,serif" font-size="14.00">0</text>
</g>
<!-- 0&#45;&gt;0 -->
<g id="edge5" class="edge">
<title>0&#45;&gt;0</title>
<path fill="none" stroke="black" d="M58.88,-22.23C91.99,-25.58 131.27,-24.17 131.27,-18 131.27,-12.53 100.38,-10.8 70.3,-12.81"/>
<polygon fill="black" stroke="black" points="70.06,-9.32 60.39,-13.64 70.64,-16.3 70.06,-9.32"/>
<text xml:space="preserve" text-anchor="middle" x="135.77" y="-13.32" font-family="Times,serif" font-size="14.00">3</text>
</g>
<!-- 0&#45;&gt;0 -->
<g id="edge6" class="edge">
<title>0&#45;&gt;0</title>
<path fill="none" stroke="black" d="M58.71,-22.71C98.76,-27.62 149.27,-26.05 149.27,-18 149.27,-10.68 107.43,-8.72 69.71,-12.12"/>
<polygon fill="black" stroke="black" points="69.79,-8.59 60.22,-13.13 70.53,-15.55 69.79,-8.59"/>
<text xml:space="preserve" text-anchor="middle" x="153.77" y="-13.32" font-family="Times,serif" font-size="14.00">1</text>
</g>
</g>
</svg>
