<?xml version="1.0" encoding="UTF-8" standalone="no"?>
<!DOCTYPE svg PUBLIC "-//W3C//DTD SVG 1.1//EN"
 "http://www.w3.org/Graphics/SVG/1.1/DTD/svg11.dtd">
<!-- Generated by graphviz version 13.0.1 (20250616.1512)
 -->
<!-- Pages: 1 -->
<svg width="273pt" height="498pt"
 viewBox="0.00 0.00 273.00 498.00" xmlns="http://www.w3.org/2000/svg" xmlns:xlink="http://www.w3.org/1999/xlink">
<g id="graph0" class="graph" transform="scale(1 1) rotate(0) translate(4 494)">
<polygon fill="white" stroke="none" points="-4,4 -4,-494 268.56,-494 268.56,4 -4,4"/>
<!-- fake -->
<g id="node1" class="node">
<title>fake</title>
</g>
<!-- 0 -->
<g id="node2" class="node">
<title>0</title>
<ellipse fill="none" stroke="black" cx="129.56" cy="-395" rx="18" ry="18"/>
<ellipse fill="none" stroke="black" cx="129.56" cy="-395" rx="22" ry="22"/>
<text xml:space="preserve" text-anchor="middle" x="129.56" y="-390.32" font-family="Times,serif" font-size="14.00">0</text>
</g>
<!-- fake&#45;&gt;0 -->
<g id="edge1" class="edge">
<title>fake&#45;&gt;0</title>
<path fill="none" stroke="black" stroke-width="2" d="M129.56,-453.6C129.56,-446.17 129.56,-437.23 129.56,-428.64"/>
<polygon fill="black" stroke="black" stroke-width="2" points="133.06,-430.34 129.56,-420.34 126.06,-430.34 133.06,-430.34"/>
</g>
<!-- 1 -->
<g id="node3" class="node">
<title>1</title>
<ellipse fill="none" stroke="black" cx="79.56" cy="-297.75" rx="18" ry="18"/>
<ellipse fill="none" stroke="black" cx="79.56" cy="-297.75" rx="22" ry="22"/>
<text xml:space="preserve" text-anchor="middle" x="79.56" y="-293.07" font-family="Times,serif" font-size="14.00">1</text>
</g>
<!-- 0&#45;&gt;1 -->
<g id="edge9" class="edge">
<title>0&#45;&gt;1</title>
<path fill="none" stroke="black" d="M107.85,-389.89C89.05,-385.06 62.99,-375.01 50.56,-355 43.92,-344.32 49.01,-331.94 56.68,-321.52"/>
<polygon fill="black" stroke="black" points="59.14,-324.04 62.87,-314.12 53.77,-319.55 59.14,-324.04"/>
<text xml:space="preserve" text-anchor="middle" x="55.06" y="-341.7" font-family="Times,serif" font-size="14.00">4</text>
</g>
<!-- 0&#45;&gt;1 -->
<g id="edge16" class="edge">
<title>0&#45;&gt;1</title>
<path fill="none" stroke="black" d="M110.63,-383.59C100.4,-376.88 88.65,-367.13 82.56,-355 78.93,-347.78 77.33,-339.36 76.83,-331.26"/>
<polygon fill="black" stroke="black" points="80.33,-331.32 76.78,-321.33 73.33,-331.35 80.33,-331.32"/>
<text xml:space="preserve" text-anchor="middle" x="87.06" y="-341.7" font-family="Times,serif" font-size="14.00">1</text>
</g>
<!-- 0&#45;&gt;1 -->
<g id="edge20" class="edge">
<title>0&#45;&gt;1</title>
<path fill="none" stroke="black" d="M119.68,-375.18C112.6,-361.7 102.94,-343.29 94.87,-327.92"/>
<polygon fill="black" stroke="black" points="98.04,-326.42 90.29,-319.2 91.84,-329.68 98.04,-326.42"/>
<text xml:space="preserve" text-anchor="middle" x="113.54" y="-341.7" font-family="Times,serif" font-size="14.00">0</text>
</g>
<!-- 0&#45;&gt;1 -->
<g id="edge23" class="edge">
<title>0&#45;&gt;1</title>
<path fill="none" stroke="black" d="M129.86,-372.66C129.21,-361.69 127.13,-348.41 121.56,-337.75 117.69,-330.35 111.85,-323.62 105.74,-317.9"/>
<polygon fill="black" stroke="black" points="108.43,-315.6 98.56,-311.76 103.88,-320.92 108.43,-315.6"/>
<text xml:space="preserve" text-anchor="middle" x="131.75" y="-341.7" font-family="Times,serif" font-size="14.00">2</text>
</g>
<!-- 4 -->
<g id="node6" class="node">
<title>4</title>
<ellipse fill="none" stroke="black" cx="144.56" cy="-115.25" rx="27" ry="18"/>
<text xml:space="preserve" text-anchor="middle" x="144.56" y="-110.58" font-family="Times,serif" font-size="14.00">4</text>
</g>
<!-- 0&#45;&gt;4 -->
<g id="edge6" class="edge">
<title>0&#45;&gt;4</title>
<path fill="none" stroke="black" d="M150.02,-385.74C162.76,-379.4 178.1,-369.28 185.56,-355 227.47,-274.73 223.48,-233.48 185.56,-151.25 182.69,-145.04 178.13,-139.53 173.06,-134.82"/>
<polygon fill="black" stroke="black" points="175.42,-132.22 165.46,-128.62 171,-137.65 175.42,-132.22"/>
<text xml:space="preserve" text-anchor="middle" x="220.01" y="-244.45" font-family="Times,serif" font-size="14.00">3</text>
</g>
<!-- 1&#45;&gt;1 -->
<g id="edge25" class="edge">
<title>1&#45;&gt;1</title>
<path fill="none" stroke="black" d="M100.14,-306.6C110.4,-307.82 119.56,-304.87 119.56,-297.75 119.56,-293.52 116.33,-290.76 111.56,-289.48"/>
<polygon fill="black" stroke="black" points="111.81,-285.98 101.65,-288.98 111.46,-292.98 111.81,-285.98"/>
<text xml:space="preserve" text-anchor="middle" x="124.06" y="-293.07" font-family="Times,serif" font-size="14.00">1</text>
</g>
<!-- 2 -->
<g id="node4" class="node">
<title>2</title>
<ellipse fill="none" stroke="black" cx="51.56" cy="-204.5" rx="27" ry="18"/>
<text xml:space="preserve" text-anchor="middle" x="51.56" y="-199.82" font-family="Times,serif" font-size="14.00">2</text>
</g>
<!-- 1&#45;&gt;2 -->
<g id="edge2" class="edge">
<title>1&#45;&gt;2</title>
<path fill="none" stroke="black" d="M58.48,-290.14C43.57,-284.24 24.67,-273.97 15.56,-257.75 9.42,-246.83 15.84,-235.3 24.87,-225.86"/>
<polygon fill="black" stroke="black" points="27.12,-228.54 32.11,-219.2 22.38,-223.39 27.12,-228.54"/>
<text xml:space="preserve" text-anchor="middle" x="20.06" y="-244.45" font-family="Times,serif" font-size="14.00">3</text>
</g>
<!-- 1&#45;&gt;2 -->
<g id="edge18" class="edge">
<title>1&#45;&gt;2</title>
<path fill="none" stroke="black" d="M64.05,-281.47C58.33,-274.79 52.53,-266.48 49.56,-257.75 46.99,-250.22 46.42,-241.72 46.78,-233.79"/>
<polygon fill="black" stroke="black" points="50.25,-234.22 47.74,-223.92 43.28,-233.53 50.25,-234.22"/>
<text xml:space="preserve" text-anchor="middle" x="54.06" y="-244.45" font-family="Times,serif" font-size="14.00">0</text>
</g>
<!-- 3 -->
<g id="node5" class="node">
<title>3</title>
<ellipse fill="none" stroke="black" cx="93.56" cy="-22" rx="18" ry="18"/>
<ellipse fill="none" stroke="black" cx="93.56" cy="-22" rx="22" ry="22"/>
<text xml:space="preserve" text-anchor="middle" x="93.56" y="-17.32" font-family="Times,serif" font-size="14.00">3</text>
</g>
<!-- 1&#45;&gt;3 -->
<g id="edge22" class="edge">
<title>1&#45;&gt;3</title>
<path fill="none" stroke="black" d="M59.44,-288.3C40.81,-280.02 15.16,-267.29 9.56,-257.75 5.67,-251.14 9.21,-248.16 9.56,-240.5 13.18,-160.53 -14.79,-125.8 33.56,-62 41.35,-51.72 52.69,-43.36 63.42,-37.06"/>
<polygon fill="black" stroke="black" points="64.93,-40.22 72.05,-32.37 61.59,-34.07 64.93,-40.22"/>
<text xml:space="preserve" text-anchor="middle" x="10.7" y="-155.2" font-family="Times,serif" font-size="14.00">4</text>
</g>
<!-- 1&#45;&gt;4 -->
<g id="edge4" class="edge">
<title>1&#45;&gt;4</title>
<path fill="none" stroke="black" d="M88.25,-277.4C90.98,-271.16 93.97,-264.19 96.56,-257.75 112.35,-218.52 116.38,-208.69 129.56,-168.5 132.13,-160.67 134.69,-152.1 136.95,-144.2"/>
<polygon fill="black" stroke="black" points="140.27,-145.32 139.6,-134.75 133.53,-143.43 140.27,-145.32"/>
<text xml:space="preserve" text-anchor="middle" x="127.78" y="-199.82" font-family="Times,serif" font-size="14.00">2</text>
</g>
<!-- 2&#45;&gt;0 -->
<g id="edge7" class="edge">
<title>2&#45;&gt;0</title>
<path fill="none" stroke="black" d="M31.36,-216.81C22.98,-222.69 14.15,-230.7 9.56,-240.5 -12.96,-288.57 7.74,-315.82 43.56,-355 57.69,-370.46 79.13,-380.2 97.07,-386.08"/>
<polygon fill="black" stroke="black" points="95.93,-389.39 106.52,-388.9 97.94,-382.69 95.93,-389.39"/>
<text xml:space="preserve" text-anchor="middle" x="19.08" y="-293.07" font-family="Times,serif" font-size="14.00">2</text>
</g>
<!-- 2&#45;&gt;1 -->
<g id="edge11" class="edge">
<title>2&#45;&gt;1</title>
<path fill="none" stroke="black" d="M56.81,-222.63C60.52,-234.69 65.58,-251.19 69.99,-265.56"/>
<polygon fill="black" stroke="black" points="66.62,-266.52 72.9,-275.05 73.31,-264.46 66.62,-266.52"/>
<text xml:space="preserve" text-anchor="middle" x="71.73" y="-244.45" font-family="Times,serif" font-size="14.00">3</text>
</g>
<!-- 2&#45;&gt;1 -->
<g id="edge24" class="edge">
<title>2&#45;&gt;1</title>
<path fill="none" stroke="black" d="M67.14,-219.7C72.47,-225.56 77.77,-232.78 80.56,-240.5 83.25,-247.97 84.13,-256.37 84.08,-264.35"/>
<polygon fill="black" stroke="black" points="80.6,-263.9 83.53,-274.08 87.59,-264.3 80.6,-263.9"/>
<text xml:space="preserve" text-anchor="middle" x="88.34" y="-244.45" font-family="Times,serif" font-size="14.00">0</text>
</g>
<!-- 2&#45;&gt;3 -->
<g id="edge26" class="edge">
<title>2&#45;&gt;3</title>
<path fill="none" stroke="black" d="M43.5,-187.17C34.21,-166.2 21.24,-128.76 29.56,-97.25 35.33,-75.38 52.36,-56.2 67.4,-42.82"/>
<polygon fill="black" stroke="black" points="69.38,-45.73 74.77,-36.61 64.87,-40.38 69.38,-45.73"/>
<text xml:space="preserve" text-anchor="middle" x="34.06" y="-110.58" font-family="Times,serif" font-size="14.00">4</text>
</g>
<!-- 2&#45;&gt;4 -->
<g id="edge3" class="edge">
<title>2&#45;&gt;4</title>
<path fill="none" stroke="black" d="M61.55,-187.76C68.99,-176.76 79.86,-162.16 91.56,-151.25 98.47,-144.8 106.71,-138.74 114.6,-133.54"/>
<polygon fill="black" stroke="black" points="116.4,-136.54 123,-128.24 112.67,-130.61 116.4,-136.54"/>
<text xml:space="preserve" text-anchor="middle" x="96.06" y="-155.2" font-family="Times,serif" font-size="14.00">1</text>
</g>
<!-- 3&#45;&gt;0 -->
<g id="edge13" class="edge">
<title>3&#45;&gt;0</title>
<path fill="none" stroke="black" d="M115.74,-25.22C160.11,-31 255.56,-50.82 255.56,-114.25 255.56,-298.75 255.56,-298.75 255.56,-298.75 255.56,-345.72 199.15,-372.48 161.82,-385.04"/>
<polygon fill="black" stroke="black" points="160.85,-381.68 152.37,-388.04 162.96,-388.35 160.85,-381.68"/>
<text xml:space="preserve" text-anchor="middle" x="260.06" y="-199.82" font-family="Times,serif" font-size="14.00">3</text>
</g>
<!-- 3&#45;&gt;2 -->
<g id="edge5" class="edge">
<title>3&#45;&gt;2</title>
<path fill="none" stroke="black" d="M78.91,-38.89C67.12,-52.99 51.69,-74.79 46.56,-97.25 40.65,-123.1 42.94,-153.39 46.1,-175"/>
<polygon fill="black" stroke="black" points="42.64,-175.52 47.7,-184.83 49.54,-174.39 42.64,-175.52"/>
<text xml:space="preserve" text-anchor="middle" x="51.06" y="-110.58" font-family="Times,serif" font-size="14.00">0</text>
</g>
<!-- 3&#45;&gt;2 -->
<g id="edge21" class="edge">
<title>3&#45;&gt;2</title>
<path fill="none" stroke="black" d="M88.69,-43.92C81.11,-76.5 66.48,-139.38 58.02,-175.72"/>
<polygon fill="black" stroke="black" points="54.71,-174.51 55.85,-185.04 61.53,-176.1 54.71,-174.51"/>
<text xml:space="preserve" text-anchor="middle" x="80.54" y="-110.58" font-family="Times,serif" font-size="14.00">4</text>
</g>
<!-- 3&#45;&gt;4 -->
<g id="edge15" class="edge">
<title>3&#45;&gt;4</title>
<path fill="none" stroke="black" d="M112.85,-32.88C123.64,-39.53 136.18,-49.39 142.56,-62 146.15,-69.1 147.52,-77.46 147.76,-85.39"/>
<polygon fill="black" stroke="black" points="144.26,-85.26 147.46,-95.36 151.26,-85.47 144.26,-85.26"/>
<text xml:space="preserve" text-anchor="middle" x="151.71" y="-65.95" font-family="Times,serif" font-size="14.00">1</text>
</g>
<!-- 3&#45;&gt;4 -->
<g id="edge17" class="edge">
<title>3&#45;&gt;4</title>
<path fill="none" stroke="black" d="M97.9,-43.98C100.75,-54.98 105.15,-68.39 111.56,-79.25 114.21,-83.74 117.53,-88.12 121.03,-92.18"/>
<polygon fill="black" stroke="black" points="118.38,-94.48 127.78,-99.37 123.48,-89.68 118.38,-94.48"/>
<text xml:space="preserve" text-anchor="middle" x="116.06" y="-65.95" font-family="Times,serif" font-size="14.00">2</text>
</g>
<!-- 4&#45;&gt;0 -->
<g id="edge10" class="edge">
<title>4&#45;&gt;0</title>
<path fill="none" stroke="black" d="M145.75,-133.69C146.08,-139.29 146.39,-145.53 146.56,-151.25 146.78,-158.91 146.68,-160.83 146.56,-168.5 145.22,-251.42 153.24,-273.04 140.56,-355 140.17,-357.49 139.68,-360.04 139.12,-362.59"/>
<polygon fill="black" stroke="black" points="135.77,-361.54 136.7,-372.09 142.56,-363.27 135.77,-361.54"/>
<text xml:space="preserve" text-anchor="middle" x="152.25" y="-244.45" font-family="Times,serif" font-size="14.00">4</text>
</g>
<!-- 4&#45;&gt;2 -->
<g id="edge8" class="edge">
<title>4&#45;&gt;2</title>
<path fill="none" stroke="black" d="M133.16,-131.77C124.77,-142.67 112.76,-157.24 100.56,-168.5 94.22,-174.35 86.88,-180.07 79.84,-185.12"/>
<polygon fill="black" stroke="black" points="78.01,-182.13 71.79,-190.7 82,-187.88 78.01,-182.13"/>
<text xml:space="preserve" text-anchor="middle" x="120.72" y="-155.2" font-family="Times,serif" font-size="14.00">1</text>
</g>
<!-- 4&#45;&gt;3 -->
<g id="edge12" class="edge">
<title>4&#45;&gt;3</title>
<path fill="none" stroke="black" d="M137.71,-97.41C133.26,-86.98 127.08,-73.45 120.56,-62 118.17,-57.81 115.47,-53.51 112.71,-49.35"/>
<polygon fill="black" stroke="black" points="115.73,-47.56 107.18,-41.3 109.96,-51.52 115.73,-47.56"/>
<text xml:space="preserve" text-anchor="middle" x="133.8" y="-65.95" font-family="Times,serif" font-size="14.00">3</text>
</g>
<!-- 4&#45;&gt;4 -->
<g id="edge14" class="edge">
<title>4&#45;&gt;4</title>
<path fill="none" stroke="black" d="M170.9,-119.42C181.09,-119.6 189.56,-118.21 189.56,-115.25 189.56,-113.54 186.73,-112.35 182.37,-111.69"/>
<polygon fill="black" stroke="black" points="182.59,-108.2 172.42,-111.16 182.22,-115.19 182.59,-108.2"/>
<text xml:space="preserve" text-anchor="middle" x="194.06" y="-110.58" font-family="Times,serif" font-size="14.00">0</text>
</g>
<!-- 4&#45;&gt;4 -->
<g id="edge19" class="edge">
<title>4&#45;&gt;4</title>
<path fill="none" stroke="black" d="M169.46,-122.58C188.38,-125.23 207.56,-122.79 207.56,-115.25 207.56,-109.24 195.38,-106.47 180.86,-106.93"/>
<polygon fill="black" stroke="black" points="180.63,-103.44 170.97,-107.79 181.23,-110.41 180.63,-103.44"/>
<text xml:space="preserve" text-anchor="middle" x="212.06" y="-110.58" font-family="Times,serif" font-size="14.00">2</text>
</g>
</g>
</svg>
