<?xml version="1.0" encoding="UTF-8" standalone="no"?>
<!DOCTYPE svg PUBLIC "-//W3C//DTD SVG 1.1//EN"
 "http://www.w3.org/Graphics/SVG/1.1/DTD/svg11.dtd">
<!-- Generated by graphviz version 13.0.1 (20250616.1512)
 -->
<!-- Pages: 1 -->
<svg width="423pt" height="393pt"
 viewBox="0.00 0.00 423.00 393.00" xmlns="http://www.w3.org/2000/svg" xmlns:xlink="http://www.w3.org/1999/xlink">
<g id="graph0" class="graph" transform="scale(1 1) rotate(0) translate(4 388.75)">
<polygon fill="white" stroke="none" points="-4,4 -4,-388.75 418.63,-388.75 418.63,4 -4,4"/>
<!-- fake -->
<g id="node1" class="node">
<title>fake</title>
</g>
<!-- 4 -->
<g id="node6" class="node">
<title>4</title>
<ellipse fill="none" stroke="black" cx="299" cy="-289.75" rx="18" ry="18"/>
<ellipse fill="none" stroke="black" cx="299" cy="-289.75" rx="22" ry="22"/>
<text xml:space="preserve" text-anchor="middle" x="299" y="-285.07" font-family="Times,serif" font-size="14.00">4</text>
</g>
<!-- fake&#45;&gt;4 -->
<g id="edge1" class="edge">
<title>fake&#45;&gt;4</title>
<path fill="none" stroke="black" stroke-width="2" d="M299,-348.35C299,-340.92 299,-331.98 299,-323.39"/>
<polygon fill="black" stroke="black" stroke-width="2" points="302.5,-325.09 299,-315.09 295.5,-325.09 302.5,-325.09"/>
</g>
<!-- 0 -->
<g id="node2" class="node">
<title>0</title>
<ellipse fill="none" stroke="black" cx="206" cy="-196.5" rx="27" ry="18"/>
<text xml:space="preserve" text-anchor="middle" x="206" y="-191.82" font-family="Times,serif" font-size="14.00">0</text>
</g>
<!-- 0&#45;&gt;0 -->
<g id="edge9" class="edge">
<title>0&#45;&gt;0</title>
<path fill="none" stroke="black" d="M232.35,-200.67C242.53,-200.85 251,-199.46 251,-196.5 251,-194.79 248.17,-193.6 243.81,-192.94"/>
<polygon fill="black" stroke="black" points="244.03,-189.45 233.86,-192.41 243.66,-196.44 244.03,-189.45"/>
<text xml:space="preserve" text-anchor="middle" x="255.5" y="-191.82" font-family="Times,serif" font-size="14.00">0</text>
</g>
<!-- 0&#45;&gt;0 -->
<g id="edge11" class="edge">
<title>0&#45;&gt;0</title>
<path fill="none" stroke="black" d="M230.9,-203.83C249.82,-206.48 269,-204.04 269,-196.5 269,-190.49 256.82,-187.72 242.3,-188.18"/>
<polygon fill="black" stroke="black" points="242.07,-184.69 232.41,-189.04 242.67,-191.66 242.07,-184.69"/>
<text xml:space="preserve" text-anchor="middle" x="273.5" y="-191.82" font-family="Times,serif" font-size="14.00">2</text>
</g>
<!-- 2 -->
<g id="node4" class="node">
<title>2</title>
<ellipse fill="none" stroke="black" cx="323" cy="-107.25" rx="27" ry="18"/>
<text xml:space="preserve" text-anchor="middle" x="323" y="-102.58" font-family="Times,serif" font-size="14.00">2</text>
</g>
<!-- 0&#45;&gt;2 -->
<g id="edge6" class="edge">
<title>0&#45;&gt;2</title>
<path fill="none" stroke="black" d="M229.04,-186.86C243.61,-180.76 262.38,-171.7 277,-160.5 287.22,-152.68 296.9,-142.32 304.72,-132.89"/>
<polygon fill="black" stroke="black" points="307.44,-135.09 310.92,-125.08 301.96,-130.73 307.44,-135.09"/>
<text xml:space="preserve" text-anchor="middle" x="299.7" y="-147.2" font-family="Times,serif" font-size="14.00">3</text>
</g>
<!-- 3 -->
<g id="node5" class="node">
<title>3</title>
<ellipse fill="none" stroke="black" cx="27" cy="-107.25" rx="27" ry="18"/>
<text xml:space="preserve" text-anchor="middle" x="27" y="-102.58" font-family="Times,serif" font-size="14.00">3</text>
</g>
<!-- 0&#45;&gt;3 -->
<g id="edge24" class="edge">
<title>0&#45;&gt;3</title>
<path fill="none" stroke="black" d="M184.76,-185.15C153.49,-169.91 94.85,-141.32 58.54,-123.62"/>
<polygon fill="black" stroke="black" points="60.37,-120.62 49.85,-119.39 57.3,-126.91 60.37,-120.62"/>
<text xml:space="preserve" text-anchor="middle" x="137.03" y="-147.2" font-family="Times,serif" font-size="14.00">4</text>
</g>
<!-- 0&#45;&gt;4 -->
<g id="edge25" class="edge">
<title>0&#45;&gt;4</title>
<path fill="none" stroke="black" d="M221.8,-211.21C228.99,-217.56 237.54,-225.29 245,-232.5 255.8,-242.94 267.38,-254.89 277.03,-265.09"/>
<polygon fill="black" stroke="black" points="274.2,-267.18 283.6,-272.07 279.29,-262.39 274.2,-267.18"/>
<text xml:space="preserve" text-anchor="middle" x="266.19" y="-236.45" font-family="Times,serif" font-size="14.00">1</text>
</g>
<!-- 1 -->
<g id="node3" class="node">
<title>1</title>
<ellipse fill="none" stroke="black" cx="198" cy="-18" rx="27" ry="18"/>
<text xml:space="preserve" text-anchor="middle" x="198" y="-13.32" font-family="Times,serif" font-size="14.00">1</text>
</g>
<!-- 1&#45;&gt;0 -->
<g id="edge14" class="edge">
<title>1&#45;&gt;0</title>
<path fill="none" stroke="black" d="M198.78,-36.31C200.16,-66.68 203.02,-129.82 204.7,-166.8"/>
<polygon fill="black" stroke="black" points="201.2,-166.91 205.15,-176.74 208.19,-166.59 201.2,-166.91"/>
<text xml:space="preserve" text-anchor="middle" x="207.3" y="-102.58" font-family="Times,serif" font-size="14.00">2</text>
</g>
<!-- 1&#45;&gt;0 -->
<g id="edge23" class="edge">
<title>1&#45;&gt;0</title>
<path fill="none" stroke="black" d="M206.96,-35.28C209.71,-41.03 212.43,-47.64 214,-54 225.38,-99.98 225.79,-113.78 218,-160.5 217.6,-162.88 217.07,-165.31 216.44,-167.73"/>
<polygon fill="black" stroke="black" points="213.1,-166.67 213.47,-177.26 219.78,-168.75 213.1,-166.67"/>
<text xml:space="preserve" text-anchor="middle" x="227.78" y="-102.58" font-family="Times,serif" font-size="14.00">3</text>
</g>
<!-- 1&#45;&gt;1 -->
<g id="edge18" class="edge">
<title>1&#45;&gt;1</title>
<path fill="none" stroke="black" d="M222.53,-26.24C233.51,-27.02 243,-24.28 243,-18 243,-14.08 239.29,-11.53 233.83,-10.37"/>
<polygon fill="black" stroke="black" points="234.22,-6.89 224.04,-9.84 233.84,-13.88 234.22,-6.89"/>
<text xml:space="preserve" text-anchor="middle" x="247.5" y="-13.32" font-family="Times,serif" font-size="14.00">4</text>
</g>
<!-- 1&#45;&gt;3 -->
<g id="edge12" class="edge">
<title>1&#45;&gt;3</title>
<path fill="none" stroke="black" d="M174.78,-27.62C157.68,-34.22 134.02,-43.88 114,-54 93.81,-64.2 72,-77.31 55.26,-87.84"/>
<polygon fill="black" stroke="black" points="53.39,-84.88 46.83,-93.21 57.15,-90.79 53.39,-84.88"/>
<text xml:space="preserve" text-anchor="middle" x="118.5" y="-57.95" font-family="Times,serif" font-size="14.00">0</text>
</g>
<!-- 1&#45;&gt;4 -->
<g id="edge3" class="edge">
<title>1&#45;&gt;4</title>
<path fill="none" stroke="black" d="M225.23,-20.02C267.88,-23.26 349.35,-36.43 386,-89.25 427.47,-149.01 396.75,-190.9 354,-249.75 347.21,-259.1 337.48,-267.04 328.08,-273.26"/>
<polygon fill="black" stroke="black" points="326.53,-270.11 319.84,-278.32 330.2,-276.07 326.53,-270.11"/>
<text xml:space="preserve" text-anchor="middle" x="410.13" y="-147.2" font-family="Times,serif" font-size="14.00">1</text>
</g>
<!-- 2&#45;&gt;0 -->
<g id="edge13" class="edge">
<title>2&#45;&gt;0</title>
<path fill="none" stroke="black" d="M303.23,-119.94C292.57,-126.47 279.31,-134.94 268,-143.25 255.02,-152.78 241.26,-164.23 230.01,-173.98"/>
<polygon fill="black" stroke="black" points="227.93,-171.14 222.72,-180.37 232.55,-176.41 227.93,-171.14"/>
<text xml:space="preserve" text-anchor="middle" x="272.5" y="-147.2" font-family="Times,serif" font-size="14.00">2</text>
</g>
<!-- 2&#45;&gt;2 -->
<g id="edge22" class="edge">
<title>2&#45;&gt;2</title>
<path fill="none" stroke="black" d="M347.53,-115.49C358.51,-116.27 368,-113.53 368,-107.25 368,-103.33 364.29,-100.78 358.83,-99.62"/>
<polygon fill="black" stroke="black" points="359.22,-96.14 349.04,-99.09 358.84,-103.13 359.22,-96.14"/>
<text xml:space="preserve" text-anchor="middle" x="372.5" y="-102.58" font-family="Times,serif" font-size="14.00">1</text>
</g>
<!-- 2&#45;&gt;4 -->
<g id="edge16" class="edge">
<title>2&#45;&gt;4</title>
<path fill="none" stroke="black" d="M320.72,-125.43C316.72,-155.47 308.41,-218.01 303.3,-256.39"/>
<polygon fill="black" stroke="black" points="299.85,-255.82 302,-266.19 306.79,-256.74 299.85,-255.82"/>
<text xml:space="preserve" text-anchor="middle" x="317.89" y="-191.82" font-family="Times,serif" font-size="14.00">3</text>
</g>
<!-- 2&#45;&gt;4 -->
<g id="edge21" class="edge">
<title>2&#45;&gt;4</title>
<path fill="none" stroke="black" d="M327.68,-125.21C329.04,-130.9 330.33,-137.3 331,-143.25 336.34,-190.58 334.66,-204.76 319,-249.75 317.84,-253.09 316.44,-256.51 314.92,-259.86"/>
<polygon fill="black" stroke="black" points="311.79,-258.3 310.52,-268.82 318.07,-261.38 311.79,-258.3"/>
<text xml:space="preserve" text-anchor="middle" x="338.24" y="-191.82" font-family="Times,serif" font-size="14.00">4</text>
</g>
<!-- 2&#45;&gt;4 -->
<g id="edge26" class="edge">
<title>2&#45;&gt;4</title>
<path fill="none" stroke="black" d="M335.54,-123.33C339.67,-129.18 343.77,-136.18 346,-143.25 355.51,-173.46 351.77,-183.19 347,-214.5 344.53,-230.72 344.31,-235.6 336,-249.75 332.55,-255.63 328.06,-261.33 323.4,-266.47"/>
<polygon fill="black" stroke="black" points="321.07,-263.84 316.61,-273.45 326.09,-268.72 321.07,-263.84"/>
<text xml:space="preserve" text-anchor="middle" x="356.33" y="-191.82" font-family="Times,serif" font-size="14.00">0</text>
</g>
<!-- 3&#45;&gt;1 -->
<g id="edge17" class="edge">
<title>3&#45;&gt;1</title>
<path fill="none" stroke="black" d="M51.4,-99.28C71.26,-93.16 99.7,-83.35 123,-71.25 140.28,-62.28 158.22,-49.9 172.22,-39.45"/>
<polygon fill="black" stroke="black" points="174.19,-42.35 180.03,-33.5 169.95,-36.78 174.19,-42.35"/>
<text xml:space="preserve" text-anchor="middle" x="155.47" y="-57.95" font-family="Times,serif" font-size="14.00">0</text>
</g>
<!-- 3&#45;&gt;3 -->
<g id="edge2" class="edge">
<title>3&#45;&gt;3</title>
<path fill="none" stroke="black" d="M54.24,-109.34C64.02,-109.38 72,-108.69 72,-107.25 72,-106.44 69.48,-105.87 65.53,-105.53"/>
<polygon fill="black" stroke="black" points="65.86,-102.04 55.75,-105.21 65.63,-109.03 65.86,-102.04"/>
<text xml:space="preserve" text-anchor="middle" x="76.5" y="-102.58" font-family="Times,serif" font-size="14.00">1</text>
</g>
<!-- 3&#45;&gt;3 -->
<g id="edge4" class="edge">
<title>3&#45;&gt;3</title>
<path fill="none" stroke="black" d="M53.87,-111.05C72.13,-112.15 90,-110.89 90,-107.25 90,-104.38 78.87,-102.99 65.21,-103.07"/>
<polygon fill="black" stroke="black" points="65.26,-99.57 55.38,-103.4 65.5,-106.56 65.26,-99.57"/>
<text xml:space="preserve" text-anchor="middle" x="94.5" y="-102.58" font-family="Times,serif" font-size="14.00">2</text>
</g>
<!-- 3&#45;&gt;3 -->
<g id="edge19" class="edge">
<title>3&#45;&gt;3</title>
<path fill="none" stroke="black" d="M53.13,-112.19C79.19,-115.01 108,-113.36 108,-107.25 108,-102.02 86.91,-100.06 64.51,-101.37"/>
<polygon fill="black" stroke="black" points="64.32,-97.87 54.64,-102.18 64.89,-104.85 64.32,-97.87"/>
<text xml:space="preserve" text-anchor="middle" x="112.5" y="-102.58" font-family="Times,serif" font-size="14.00">4</text>
</g>
<!-- 3&#45;&gt;3 -->
<g id="edge20" class="edge">
<title>3&#45;&gt;3</title>
<path fill="none" stroke="black" d="M52.86,-113.04C86.12,-117.85 126,-115.92 126,-107.25 126,-99.53 94.37,-97.15 63.95,-100.12"/>
<polygon fill="black" stroke="black" points="63.87,-96.6 54.36,-101.28 64.71,-103.55 63.87,-96.6"/>
<text xml:space="preserve" text-anchor="middle" x="130.5" y="-102.58" font-family="Times,serif" font-size="14.00">3</text>
</g>
<!-- 4&#45;&gt;0 -->
<g id="edge5" class="edge">
<title>4&#45;&gt;0</title>
<path fill="none" stroke="black" d="M294.73,-267.77C291.49,-256.23 286.01,-242.31 277,-232.5 267.27,-221.9 253.62,-214.12 240.89,-208.62"/>
<polygon fill="black" stroke="black" points="242.51,-205.5 231.93,-205.08 239.94,-212.01 242.51,-205.5"/>
<text xml:space="preserve" text-anchor="middle" x="292.24" y="-236.45" font-family="Times,serif" font-size="14.00">0</text>
</g>
<!-- 4&#45;&gt;0 -->
<g id="edge8" class="edge">
<title>4&#45;&gt;0</title>
<path fill="none" stroke="black" d="M276.9,-286.61C254.27,-283.1 220.18,-273.89 204,-249.75 199.33,-242.78 198.29,-234.03 198.87,-225.7"/>
<polygon fill="black" stroke="black" points="202.32,-226.32 200.34,-215.92 195.39,-225.29 202.32,-226.32"/>
<text xml:space="preserve" text-anchor="middle" x="208.5" y="-236.45" font-family="Times,serif" font-size="14.00">1</text>
</g>
<!-- 4&#45;&gt;0 -->
<g id="edge15" class="edge">
<title>4&#45;&gt;0</title>
<path fill="none" stroke="black" d="M279.05,-279.66C265.69,-272.84 248.34,-262.51 236,-249.75 228.86,-242.37 222.79,-232.98 218.02,-224.19"/>
<polygon fill="black" stroke="black" points="221.16,-222.66 213.53,-215.31 214.91,-225.81 221.16,-222.66"/>
<text xml:space="preserve" text-anchor="middle" x="240.5" y="-236.45" font-family="Times,serif" font-size="14.00">4</text>
</g>
<!-- 4&#45;&gt;3 -->
<g id="edge7" class="edge">
<title>4&#45;&gt;3</title>
<path fill="none" stroke="black" d="M277.73,-283.1C256.02,-276.81 221.8,-265.43 195,-249.75 136.93,-215.78 79.12,-161.43 48.78,-130.92"/>
<polygon fill="black" stroke="black" points="51.54,-128.74 42.04,-124.07 46.55,-133.65 51.54,-128.74"/>
<text xml:space="preserve" text-anchor="middle" x="146.99" y="-191.82" font-family="Times,serif" font-size="14.00">2</text>
</g>
<!-- 4&#45;&gt;4 -->
<g id="edge10" class="edge">
<title>4&#45;&gt;4</title>
<path fill="none" stroke="black" d="M319.99,-297.16C330.09,-298.07 339,-295.6 339,-289.75 339,-286.27 335.86,-283.99 331.19,-282.9"/>
<polygon fill="black" stroke="black" points="331.66,-279.42 321.5,-282.42 331.31,-286.41 331.66,-279.42"/>
<text xml:space="preserve" text-anchor="middle" x="343.5" y="-285.07" font-family="Times,serif" font-size="14.00">3</text>
</g>
</g>
</svg>
