<?xml version="1.0" encoding="UTF-8" standalone="no"?>
<!DOCTYPE svg PUBLIC "-//W3C//DTD SVG 1.1//EN"
 "http://www.w3.org/Graphics/SVG/1.1/DTD/svg11.dtd">
<!-- Generated by graphviz version 13.0.1 (20250616.1512)
 -->
<!-- Pages: 1 -->
<svg width="380pt" height="490pt"
 viewBox="0.00 0.00 380.00 490.00" xmlns="http://www.w3.org/2000/svg" xmlns:xlink="http://www.w3.org/1999/xlink">
<g id="graph0" class="graph" transform="scale(1 1) rotate(0) translate(4 486)">
<polygon fill="white" stroke="none" points="-4,4 -4,-486 375.78,-486 375.78,4 -4,4"/>
<!-- fake -->
<g id="node1" class="node">
<title>fake</title>
</g>
<!-- 0 -->
<g id="node2" class="node">
<title>0</title>
<ellipse fill="none" stroke="black" cx="161.78" cy="-391" rx="27" ry="18"/>
<text xml:space="preserve" text-anchor="middle" x="161.78" y="-386.32" font-family="Times,serif" font-size="14.00">0</text>
</g>
<!-- fake&#45;&gt;0 -->
<g id="edge1" class="edge">
<title>fake&#45;&gt;0</title>
<path fill="none" stroke="black" stroke-width="2" d="M161.78,-445.81C161.78,-438.23 161.78,-429.1 161.78,-420.54"/>
<polygon fill="black" stroke="black" stroke-width="2" points="165.28,-422.06 161.78,-412.06 158.28,-422.06 165.28,-422.06"/>
</g>
<!-- 1 -->
<g id="node3" class="node">
<title>1</title>
<ellipse fill="none" stroke="black" cx="84.78" cy="-200.5" rx="18" ry="18"/>
<ellipse fill="none" stroke="black" cx="84.78" cy="-200.5" rx="22" ry="22"/>
<text xml:space="preserve" text-anchor="middle" x="84.78" y="-195.82" font-family="Times,serif" font-size="14.00">1</text>
</g>
<!-- 0&#45;&gt;1 -->
<g id="edge2" class="edge">
<title>0&#45;&gt;1</title>
<path fill="none" stroke="black" d="M134.55,-389.83C103.92,-388.26 54.23,-381.41 21.78,-355 8.29,-344.02 8.66,-336.71 4.78,-319.75 -3.24,-284.63 -2.32,-267.27 21.78,-240.5 30.88,-230.4 43.2,-221.99 54.53,-215.6"/>
<polygon fill="black" stroke="black" points="56,-218.79 63.2,-211.02 52.72,-212.6 56,-218.79"/>
<text xml:space="preserve" text-anchor="middle" x="9.28" y="-293.07" font-family="Times,serif" font-size="14.00">1</text>
</g>
<!-- 0&#45;&gt;1 -->
<g id="edge4" class="edge">
<title>0&#45;&gt;1</title>
<path fill="none" stroke="black" d="M135.61,-385.91C114.79,-381.45 86.04,-372.49 66.78,-355 53.91,-343.31 53.66,-336.71 49.78,-319.75 45.43,-300.69 45.51,-294.83 49.78,-275.75 53.37,-259.73 60.82,-243.09 67.92,-229.64"/>
<polygon fill="black" stroke="black" points="70.96,-231.37 72.74,-220.92 64.84,-227.98 70.96,-231.37"/>
<text xml:space="preserve" text-anchor="middle" x="54.28" y="-293.07" font-family="Times,serif" font-size="14.00">3</text>
</g>
<!-- 2 -->
<g id="node4" class="node">
<title>2</title>
<ellipse fill="none" stroke="black" cx="196.78" cy="-107.25" rx="27" ry="18"/>
<text xml:space="preserve" text-anchor="middle" x="196.78" y="-102.58" font-family="Times,serif" font-size="14.00">2</text>
</g>
<!-- 0&#45;&gt;2 -->
<g id="edge12" class="edge">
<title>0&#45;&gt;2</title>
<path fill="none" stroke="black" d="M177.01,-375.8C189.88,-362.68 207.36,-341.92 214.78,-319.75 235.92,-256.64 218.28,-177.32 206.05,-136.06"/>
<polygon fill="black" stroke="black" points="209.45,-135.21 203.15,-126.69 202.76,-137.28 209.45,-135.21"/>
<text xml:space="preserve" text-anchor="middle" x="229.13" y="-244.45" font-family="Times,serif" font-size="14.00">2</text>
</g>
<!-- 3 -->
<g id="node5" class="node">
<title>3</title>
<ellipse fill="none" stroke="black" cx="129.78" cy="-297.75" rx="18" ry="18"/>
<ellipse fill="none" stroke="black" cx="129.78" cy="-297.75" rx="22" ry="22"/>
<text xml:space="preserve" text-anchor="middle" x="129.78" y="-293.07" font-family="Times,serif" font-size="14.00">3</text>
</g>
<!-- 0&#45;&gt;3 -->
<g id="edge3" class="edge">
<title>0&#45;&gt;3</title>
<path fill="none" stroke="black" d="M145.54,-376.29C139.76,-370.4 133.91,-363.02 130.78,-355 127.9,-347.6 126.75,-339.23 126.52,-331.25"/>
<polygon fill="black" stroke="black" points="130.01,-331.57 126.72,-321.51 123.02,-331.43 130.01,-331.57"/>
<text xml:space="preserve" text-anchor="middle" x="135.28" y="-341.7" font-family="Times,serif" font-size="14.00">4</text>
</g>
<!-- 0&#45;&gt;3 -->
<g id="edge10" class="edge">
<title>0&#45;&gt;3</title>
<path fill="none" stroke="black" d="M155.92,-373.26C151.63,-361.05 145.7,-344.13 140.57,-329.51"/>
<polygon fill="black" stroke="black" points="143.96,-328.59 137.35,-320.31 137.35,-330.91 143.96,-328.59"/>
<text xml:space="preserve" text-anchor="middle" x="153.15" y="-341.7" font-family="Times,serif" font-size="14.00">0</text>
</g>
<!-- 1&#45;&gt;0 -->
<g id="edge11" class="edge">
<title>1&#45;&gt;0</title>
<path fill="none" stroke="black" d="M81.42,-222.53C78.45,-246.94 76.43,-287.92 89.78,-319.75 98.65,-340.88 117.35,-358.81 133.47,-371.27"/>
<polygon fill="black" stroke="black" points="131.22,-373.96 141.35,-377.05 135.36,-368.31 131.22,-373.96"/>
<text xml:space="preserve" text-anchor="middle" x="94.28" y="-293.07" font-family="Times,serif" font-size="14.00">1</text>
</g>
<!-- 1&#45;&gt;1 -->
<g id="edge5" class="edge">
<title>1&#45;&gt;1</title>
<path fill="none" stroke="black" d="M106.59,-204.99C116.35,-205.41 124.78,-203.92 124.78,-200.5 124.78,-198.58 122.11,-197.26 118.04,-196.56"/>
<polygon fill="black" stroke="black" points="118.26,-193.06 108.1,-196.08 117.93,-200.05 118.26,-193.06"/>
<text xml:space="preserve" text-anchor="middle" x="129.28" y="-195.82" font-family="Times,serif" font-size="14.00">3</text>
</g>
<!-- 1&#45;&gt;1 -->
<g id="edge24" class="edge">
<title>1&#45;&gt;1</title>
<path fill="none" stroke="black" d="M105.9,-208.17C123.88,-211.56 142.78,-209 142.78,-200.5 142.78,-193.79 131.01,-190.79 117.21,-191.48"/>
<polygon fill="black" stroke="black" points="116.92,-187.99 107.4,-192.65 117.75,-194.94 116.92,-187.99"/>
<text xml:space="preserve" text-anchor="middle" x="147.28" y="-195.82" font-family="Times,serif" font-size="14.00">4</text>
</g>
<!-- 1&#45;&gt;2 -->
<g id="edge22" class="edge">
<title>1&#45;&gt;2</title>
<path fill="none" stroke="black" d="M104.61,-189.9C118.3,-182.78 136.53,-172.29 150.78,-160.5 160.7,-152.29 170.33,-141.87 178.19,-132.5"/>
<polygon fill="black" stroke="black" points="180.88,-134.74 184.46,-124.77 175.44,-130.34 180.88,-134.74"/>
<text xml:space="preserve" text-anchor="middle" x="173.18" y="-147.2" font-family="Times,serif" font-size="14.00">0</text>
</g>
<!-- 4 -->
<g id="node6" class="node">
<title>4</title>
<ellipse fill="none" stroke="black" cx="196.78" cy="-18" rx="27" ry="18"/>
<text xml:space="preserve" text-anchor="middle" x="196.78" y="-13.32" font-family="Times,serif" font-size="14.00">4</text>
</g>
<!-- 1&#45;&gt;4 -->
<g id="edge25" class="edge">
<title>1&#45;&gt;4</title>
<path fill="none" stroke="black" d="M87.29,-178.55C90.85,-155.24 99.03,-117.17 116.78,-89.25 130.01,-68.46 151.15,-50.27 168.38,-37.61"/>
<polygon fill="black" stroke="black" points="170.11,-40.68 176.24,-32.04 166.06,-34.97 170.11,-40.68"/>
<text xml:space="preserve" text-anchor="middle" x="121.28" y="-102.58" font-family="Times,serif" font-size="14.00">2</text>
</g>
<!-- 2&#45;&gt;0 -->
<g id="edge13" class="edge">
<title>2&#45;&gt;0</title>
<path fill="none" stroke="black" d="M210.86,-122.95C215.88,-128.87 221.17,-136.01 224.78,-143.25 259.81,-213.53 254.21,-244.2 232.78,-319.75 227.99,-336.67 226.51,-341.89 214.78,-355 208.53,-361.99 200.58,-368.2 192.75,-373.38"/>
<polygon fill="black" stroke="black" points="191,-370.34 184.32,-378.57 194.67,-376.31 191,-370.34"/>
<text xml:space="preserve" text-anchor="middle" x="254.1" y="-244.45" font-family="Times,serif" font-size="14.00">3</text>
</g>
<!-- 2&#45;&gt;1 -->
<g id="edge8" class="edge">
<title>2&#45;&gt;1</title>
<path fill="none" stroke="black" d="M176.75,-119.59C166.01,-126.02 152.76,-134.5 141.78,-143.25 129.64,-152.93 117.24,-164.87 107.12,-175.26"/>
<polygon fill="black" stroke="black" points="104.63,-172.8 100.25,-182.44 109.69,-177.63 104.63,-172.8"/>
<text xml:space="preserve" text-anchor="middle" x="146.28" y="-147.2" font-family="Times,serif" font-size="14.00">0</text>
</g>
<!-- 2&#45;&gt;2 -->
<g id="edge16" class="edge">
<title>2&#45;&gt;2</title>
<path fill="none" stroke="black" d="M223.13,-111.42C233.32,-111.6 241.78,-110.21 241.78,-107.25 241.78,-105.54 238.95,-104.35 234.6,-103.69"/>
<polygon fill="black" stroke="black" points="234.81,-100.2 224.64,-103.16 234.44,-107.19 234.81,-100.2"/>
<text xml:space="preserve" text-anchor="middle" x="246.28" y="-102.58" font-family="Times,serif" font-size="14.00">4</text>
</g>
<!-- 2&#45;&gt;2 -->
<g id="edge17" class="edge">
<title>2&#45;&gt;2</title>
<path fill="none" stroke="black" d="M221.69,-114.58C240.6,-117.23 259.78,-114.79 259.78,-107.25 259.78,-101.24 247.6,-98.47 233.08,-98.93"/>
<polygon fill="black" stroke="black" points="232.86,-95.44 223.19,-99.79 233.46,-102.41 232.86,-95.44"/>
<text xml:space="preserve" text-anchor="middle" x="264.28" y="-102.58" font-family="Times,serif" font-size="14.00">2</text>
</g>
<!-- 2&#45;&gt;4 -->
<g id="edge9" class="edge">
<title>2&#45;&gt;4</title>
<path fill="none" stroke="black" d="M196.78,-89.01C196.78,-77.18 196.78,-61.2 196.78,-47.5"/>
<polygon fill="black" stroke="black" points="200.28,-47.72 196.78,-37.72 193.28,-47.72 200.28,-47.72"/>
<text xml:space="preserve" text-anchor="middle" x="201.28" y="-57.95" font-family="Times,serif" font-size="14.00">1</text>
</g>
<!-- 3&#45;&gt;1 -->
<g id="edge14" class="edge">
<title>3&#45;&gt;1</title>
<path fill="none" stroke="black" d="M120.68,-277.47C114.4,-264.18 105.92,-246.24 98.79,-231.14"/>
<polygon fill="black" stroke="black" points="101.96,-229.66 94.52,-222.12 95.63,-232.65 101.96,-229.66"/>
<text xml:space="preserve" text-anchor="middle" x="115.81" y="-244.45" font-family="Times,serif" font-size="14.00">2</text>
</g>
<!-- 3&#45;&gt;1 -->
<g id="edge20" class="edge">
<title>3&#45;&gt;1</title>
<path fill="none" stroke="black" d="M130.82,-275.53C130.56,-264.59 128.95,-251.31 123.78,-240.5 120.59,-233.81 115.76,-227.6 110.57,-222.19"/>
<polygon fill="black" stroke="black" points="113.09,-219.75 103.42,-215.43 108.28,-224.84 113.09,-219.75"/>
<text xml:space="preserve" text-anchor="middle" x="133.38" y="-244.45" font-family="Times,serif" font-size="14.00">3</text>
</g>
<!-- 3&#45;&gt;2 -->
<g id="edge15" class="edge">
<title>3&#45;&gt;2</title>
<path fill="none" stroke="black" d="M141.39,-278.47C150.25,-263.82 162.19,-242.48 169.78,-222.5 180.57,-194.11 187.95,-160.06 192.23,-136.55"/>
<polygon fill="black" stroke="black" points="195.66,-137.26 193.93,-126.8 188.77,-136.05 195.66,-137.26"/>
<text xml:space="preserve" text-anchor="middle" x="187.43" y="-195.82" font-family="Times,serif" font-size="14.00">1</text>
</g>
<!-- 3&#45;&gt;3 -->
<g id="edge6" class="edge">
<title>3&#45;&gt;3</title>
<path fill="none" stroke="black" d="M151.59,-302.24C161.35,-302.66 169.78,-301.17 169.78,-297.75 169.78,-295.83 167.11,-294.51 163.04,-293.81"/>
<polygon fill="black" stroke="black" points="163.26,-290.31 153.1,-293.33 162.93,-297.3 163.26,-290.31"/>
<text xml:space="preserve" text-anchor="middle" x="174.28" y="-293.07" font-family="Times,serif" font-size="14.00">0</text>
</g>
<!-- 3&#45;&gt;3 -->
<g id="edge26" class="edge">
<title>3&#45;&gt;3</title>
<path fill="none" stroke="black" d="M150.9,-305.42C168.88,-308.81 187.78,-306.25 187.78,-297.75 187.78,-291.04 176.01,-288.04 162.21,-288.73"/>
<polygon fill="black" stroke="black" points="161.92,-285.24 152.4,-289.9 162.75,-292.19 161.92,-285.24"/>
<text xml:space="preserve" text-anchor="middle" x="192.28" y="-293.07" font-family="Times,serif" font-size="14.00">4</text>
</g>
<!-- 4&#45;&gt;0 -->
<g id="edge7" class="edge">
<title>4&#45;&gt;0</title>
<path fill="none" stroke="black" d="M222.15,-25.09C257.63,-35.3 317.78,-59.5 317.78,-106.25 317.78,-298.75 317.78,-298.75 317.78,-298.75 317.78,-353.42 245.52,-375.94 199.36,-384.75"/>
<polygon fill="black" stroke="black" points="198.98,-381.26 189.74,-386.44 200.19,-388.16 198.98,-381.26"/>
<text xml:space="preserve" text-anchor="middle" x="322.28" y="-195.82" font-family="Times,serif" font-size="14.00">1</text>
</g>
<!-- 4&#45;&gt;0 -->
<g id="edge21" class="edge">
<title>4&#45;&gt;0</title>
<path fill="none" stroke="black" d="M223.82,-21.03C270.86,-26.2 362.78,-44.23 362.78,-106.25 362.78,-298.75 362.78,-298.75 362.78,-298.75 362.78,-369.38 258.61,-385.61 200.25,-389.16"/>
<polygon fill="black" stroke="black" points="200.22,-385.65 190.4,-389.65 200.57,-392.65 200.22,-385.65"/>
<text xml:space="preserve" text-anchor="middle" x="367.28" y="-195.82" font-family="Times,serif" font-size="14.00">4</text>
</g>
<!-- 4&#45;&gt;1 -->
<g id="edge23" class="edge">
<title>4&#45;&gt;1</title>
<path fill="none" stroke="black" d="M186.49,-34.84C177.3,-49.03 163.52,-70.45 151.78,-89.25 134.48,-116.97 115.14,-148.9 101.7,-171.24"/>
<polygon fill="black" stroke="black" points="98.72,-169.41 96.58,-179.78 104.72,-173.01 98.72,-169.41"/>
<text xml:space="preserve" text-anchor="middle" x="156.28" y="-102.58" font-family="Times,serif" font-size="14.00">3</text>
</g>
<!-- 4&#45;&gt;4 -->
<g id="edge18" class="edge">
<title>4&#45;&gt;4</title>
<path fill="none" stroke="black" d="M223.13,-22.17C233.32,-22.35 241.78,-20.96 241.78,-18 241.78,-16.29 238.95,-15.1 234.6,-14.44"/>
<polygon fill="black" stroke="black" points="234.81,-10.95 224.64,-13.91 234.44,-17.94 234.81,-10.95"/>
<text xml:space="preserve" text-anchor="middle" x="246.28" y="-13.32" font-family="Times,serif" font-size="14.00">2</text>
</g>
<!-- 4&#45;&gt;4 -->
<g id="edge19" class="edge">
<title>4&#45;&gt;4</title>
<path fill="none" stroke="black" d="M221.69,-25.33C240.6,-27.98 259.78,-25.54 259.78,-18 259.78,-11.99 247.6,-9.22 233.08,-9.68"/>
<polygon fill="black" stroke="black" points="232.86,-6.19 223.19,-10.54 233.46,-13.16 232.86,-6.19"/>
<text xml:space="preserve" text-anchor="middle" x="264.28" y="-13.32" font-family="Times,serif" font-size="14.00">0</text>
</g>
</g>
</svg>
