<?xml version="1.0" encoding="UTF-8" standalone="no"?>
<!DOCTYPE svg PUBLIC "-//W3C//DTD SVG 1.1//EN"
 "http://www.w3.org/Graphics/SVG/1.1/DTD/svg11.dtd">
<!-- Generated by graphviz version 13.0.1 (20250616.1512)
 -->
<!-- Pages: 1 -->
<svg width="340pt" height="498pt"
 viewBox="0.00 0.00 340.00 498.00" xmlns="http://www.w3.org/2000/svg" xmlns:xlink="http://www.w3.org/1999/xlink">
<g id="graph0" class="graph" transform="scale(1 1) rotate(0) translate(4 494)">
<polygon fill="white" stroke="none" points="-4,4 -4,-494 336.37,-494 336.37,4 -4,4"/>
<!-- fake -->
<g id="node1" class="node">
<title>fake</title>
</g>
<!-- 4 -->
<g id="node6" class="node">
<title>4</title>
<ellipse fill="none" stroke="black" cx="183.37" cy="-395" rx="18" ry="18"/>
<ellipse fill="none" stroke="black" cx="183.37" cy="-395" rx="22" ry="22"/>
<text xml:space="preserve" text-anchor="middle" x="183.37" y="-390.32" font-family="Times,serif" font-size="14.00">4</text>
</g>
<!-- fake&#45;&gt;4 -->
<g id="edge1" class="edge">
<title>fake&#45;&gt;4</title>
<path fill="none" stroke="black" stroke-width="2" d="M183.37,-453.6C183.37,-446.17 183.37,-437.23 183.37,-428.64"/>
<polygon fill="black" stroke="black" stroke-width="2" points="186.87,-430.34 183.37,-420.34 179.87,-430.34 186.87,-430.34"/>
</g>
<!-- 0 -->
<g id="node2" class="node">
<title>0</title>
<ellipse fill="none" stroke="black" cx="145.37" cy="-204.5" rx="27" ry="18"/>
<text xml:space="preserve" text-anchor="middle" x="145.37" y="-199.82" font-family="Times,serif" font-size="14.00">0</text>
</g>
<!-- 1 -->
<g id="node3" class="node">
<title>1</title>
<ellipse fill="none" stroke="black" cx="149.37" cy="-111.25" rx="18" ry="18"/>
<ellipse fill="none" stroke="black" cx="149.37" cy="-111.25" rx="22" ry="22"/>
<text xml:space="preserve" text-anchor="middle" x="149.37" y="-106.58" font-family="Times,serif" font-size="14.00">1</text>
</g>
<!-- 0&#45;&gt;1 -->
<g id="edge21" class="edge">
<title>0&#45;&gt;1</title>
<path fill="none" stroke="black" d="M138.55,-187.07C135.13,-176.8 132.14,-163.28 134.37,-151.25 134.9,-148.38 135.64,-145.45 136.5,-142.54"/>
<polygon fill="black" stroke="black" points="139.8,-143.7 139.79,-133.11 133.19,-141.4 139.8,-143.7"/>
<text xml:space="preserve" text-anchor="middle" x="138.87" y="-155.2" font-family="Times,serif" font-size="14.00">4</text>
</g>
<!-- 2 -->
<g id="node4" class="node">
<title>2</title>
<ellipse fill="none" stroke="black" cx="107.37" cy="-297.75" rx="18" ry="18"/>
<ellipse fill="none" stroke="black" cx="107.37" cy="-297.75" rx="22" ry="22"/>
<text xml:space="preserve" text-anchor="middle" x="107.37" y="-293.07" font-family="Times,serif" font-size="14.00">2</text>
</g>
<!-- 0&#45;&gt;2 -->
<g id="edge19" class="edge">
<title>0&#45;&gt;2</title>
<path fill="none" stroke="black" d="M120.06,-211.21C104.53,-216.16 85.86,-225.05 76.37,-240.5 69.69,-251.38 75.18,-263.77 83.3,-274.16"/>
<polygon fill="black" stroke="black" points="80.6,-276.39 89.86,-281.54 85.83,-271.74 80.6,-276.39"/>
<text xml:space="preserve" text-anchor="middle" x="80.87" y="-244.45" font-family="Times,serif" font-size="14.00">0</text>
</g>
<!-- 0&#45;&gt;2 -->
<g id="edge22" class="edge">
<title>0&#45;&gt;2</title>
<path fill="none" stroke="black" d="M128.17,-218.7C121.74,-224.62 115.11,-232.15 111.37,-240.5 108.12,-247.76 106.53,-256.09 105.87,-264.06"/>
<polygon fill="black" stroke="black" points="102.38,-263.72 105.55,-273.83 109.38,-263.95 102.38,-263.72"/>
<text xml:space="preserve" text-anchor="middle" x="115.87" y="-244.45" font-family="Times,serif" font-size="14.00">3</text>
</g>
<!-- 3 -->
<g id="node5" class="node">
<title>3</title>
<ellipse fill="none" stroke="black" cx="167.37" cy="-18" rx="27" ry="18"/>
<text xml:space="preserve" text-anchor="middle" x="167.37" y="-13.32" font-family="Times,serif" font-size="14.00">3</text>
</g>
<!-- 0&#45;&gt;3 -->
<g id="edge12" class="edge">
<title>0&#45;&gt;3</title>
<path fill="none" stroke="black" d="M160.28,-189.02C165.52,-183.13 170.95,-175.96 174.37,-168.5 192.44,-129.13 184.01,-77.64 175.92,-46.51"/>
<polygon fill="black" stroke="black" points="179.36,-45.8 173.31,-37.1 172.62,-47.67 179.36,-45.8"/>
<text xml:space="preserve" text-anchor="middle" x="189.61" y="-106.58" font-family="Times,serif" font-size="14.00">1</text>
</g>
<!-- 0&#45;&gt;4 -->
<g id="edge24" class="edge">
<title>0&#45;&gt;4</title>
<path fill="none" stroke="black" d="M152.8,-221.98C155.17,-227.75 157.63,-234.33 159.37,-240.5 170.91,-281.48 177.34,-330.28 180.58,-361.67"/>
<polygon fill="black" stroke="black" points="177.06,-361.69 181.52,-371.3 184.03,-361 177.06,-361.69"/>
<text xml:space="preserve" text-anchor="middle" x="179.77" y="-293.07" font-family="Times,serif" font-size="14.00">2</text>
</g>
<!-- 1&#45;&gt;0 -->
<g id="edge7" class="edge">
<title>1&#45;&gt;0</title>
<path fill="none" stroke="black" d="M148.44,-133.51C147.9,-145.82 147.21,-161.47 146.63,-174.85"/>
<polygon fill="black" stroke="black" points="143.13,-174.68 146.19,-184.82 150.12,-174.99 143.13,-174.68"/>
<text xml:space="preserve" text-anchor="middle" x="152.11" y="-155.2" font-family="Times,serif" font-size="14.00">4</text>
</g>
<!-- 1&#45;&gt;0 -->
<g id="edge13" class="edge">
<title>1&#45;&gt;0</title>
<path fill="none" stroke="black" d="M157.18,-132.31C160.39,-143.06 162.83,-156.51 160.37,-168.5 159.82,-171.18 159.06,-173.9 158.16,-176.59"/>
<polygon fill="black" stroke="black" points="154.94,-175.22 154.52,-185.8 161.45,-177.79 154.94,-175.22"/>
<text xml:space="preserve" text-anchor="middle" x="165.87" y="-155.2" font-family="Times,serif" font-size="14.00">0</text>
</g>
<!-- 1&#45;&gt;3 -->
<g id="edge9" class="edge">
<title>1&#45;&gt;3</title>
<path fill="none" stroke="black" d="M133.5,-95.49C123.33,-84.17 113.27,-68.14 120.37,-54 124.07,-46.62 130.15,-40.41 136.72,-35.36"/>
<polygon fill="black" stroke="black" points="138.25,-38.55 144.56,-30.04 134.32,-32.76 138.25,-38.55"/>
<text xml:space="preserve" text-anchor="middle" x="124.87" y="-57.95" font-family="Times,serif" font-size="14.00">2</text>
</g>
<!-- 1&#45;&gt;3 -->
<g id="edge15" class="edge">
<title>1&#45;&gt;3</title>
<path fill="none" stroke="black" d="M148.76,-88.9C148.89,-78.28 149.73,-65.33 152.37,-54 152.99,-51.34 153.8,-48.62 154.73,-45.94"/>
<polygon fill="black" stroke="black" points="157.94,-47.32 158.4,-36.74 151.44,-44.72 157.94,-47.32"/>
<text xml:space="preserve" text-anchor="middle" x="156.87" y="-57.95" font-family="Times,serif" font-size="14.00">1</text>
</g>
<!-- 1&#45;&gt;4 -->
<g id="edge3" class="edge">
<title>1&#45;&gt;4</title>
<path fill="none" stroke="black" d="M162.3,-129.35C166.71,-135.9 171.3,-143.64 174.37,-151.25 180.34,-166.07 179.19,-170.68 181.37,-186.5 190.58,-253.27 190.2,-270.39 192.37,-337.75 192.62,-345.41 193.24,-347.38 192.37,-355 192.1,-357.37 191.74,-359.81 191.32,-362.26"/>
<polygon fill="black" stroke="black" points="187.9,-361.53 189.32,-372.02 194.75,-362.93 187.9,-361.53"/>
<text xml:space="preserve" text-anchor="middle" x="193.69" y="-244.45" font-family="Times,serif" font-size="14.00">3</text>
</g>
<!-- 2&#45;&gt;0 -->
<g id="edge17" class="edge">
<title>2&#45;&gt;0</title>
<path fill="none" stroke="black" d="M115.61,-276.95C121.04,-263.92 128.21,-246.69 134.16,-232.42"/>
<polygon fill="black" stroke="black" points="137.22,-234.18 137.83,-223.6 130.76,-231.49 137.22,-234.18"/>
<text xml:space="preserve" text-anchor="middle" x="134.27" y="-244.45" font-family="Times,serif" font-size="14.00">3</text>
</g>
<!-- 2&#45;&gt;0 -->
<g id="edge18" class="edge">
<title>2&#45;&gt;0</title>
<path fill="none" stroke="black" d="M124.05,-282.9C131.01,-276.11 138.38,-267.33 142.37,-257.75 145.43,-250.4 146.75,-241.95 147.15,-234.03"/>
<polygon fill="black" stroke="black" points="150.65,-234.13 147.18,-224.12 143.65,-234.11 150.65,-234.13"/>
<text xml:space="preserve" text-anchor="middle" x="151.02" y="-244.45" font-family="Times,serif" font-size="14.00">0</text>
</g>
<!-- 2&#45;&gt;1 -->
<g id="edge26" class="edge">
<title>2&#45;&gt;1</title>
<path fill="none" stroke="black" d="M85.56,-292.52C66.59,-287.61 40.05,-277.51 26.37,-257.75 -0.66,-218.73 -12.2,-187.56 18.37,-151.25 48.58,-115.36 79.46,-152.22 122.37,-133.25 122.84,-133.04 123.32,-132.82 123.79,-132.59"/>
<polygon fill="black" stroke="black" points="125.35,-135.74 132.05,-127.53 121.7,-129.77 125.35,-135.74"/>
<text xml:space="preserve" text-anchor="middle" x="10.46" y="-199.82" font-family="Times,serif" font-size="14.00">4</text>
</g>
<!-- 2&#45;&gt;2 -->
<g id="edge25" class="edge">
<title>2&#45;&gt;2</title>
<path fill="none" stroke="black" d="M127.95,-306.6C138.21,-307.82 147.37,-304.87 147.37,-297.75 147.37,-293.52 144.14,-290.76 139.37,-289.48"/>
<polygon fill="black" stroke="black" points="139.62,-285.98 129.46,-288.98 139.27,-292.98 139.62,-285.98"/>
<text xml:space="preserve" text-anchor="middle" x="151.87" y="-293.07" font-family="Times,serif" font-size="14.00">1</text>
</g>
<!-- 2&#45;&gt;3 -->
<g id="edge11" class="edge">
<title>2&#45;&gt;3</title>
<path fill="none" stroke="black" d="M89.81,-283.98C81.97,-277.18 73.57,-268.08 69.37,-257.75 57.63,-228.87 0.79,-199.32 105.37,-54 112.3,-44.37 122.75,-37.04 133.11,-31.64"/>
<polygon fill="black" stroke="black" points="134.36,-34.92 141.93,-27.51 131.39,-28.58 134.36,-34.92"/>
<text xml:space="preserve" text-anchor="middle" x="55.04" y="-155.2" font-family="Times,serif" font-size="14.00">2</text>
</g>
<!-- 3&#45;&gt;0 -->
<g id="edge8" class="edge">
<title>3&#45;&gt;0</title>
<path fill="none" stroke="black" d="M144.92,-28.38C133.94,-34.15 121.56,-42.63 114.37,-54 105.91,-67.37 110.48,-73.47 109.37,-89.25 107.99,-108.76 104.78,-114.24 109.37,-133.25 113.17,-149.02 121.16,-165.22 128.64,-178.09"/>
<polygon fill="black" stroke="black" points="125.47,-179.61 133.66,-186.33 131.44,-175.97 125.47,-179.61"/>
<text xml:space="preserve" text-anchor="middle" x="113.87" y="-106.58" font-family="Times,serif" font-size="14.00">1</text>
</g>
<!-- 3&#45;&gt;1 -->
<g id="edge23" class="edge">
<title>3&#45;&gt;1</title>
<path fill="none" stroke="black" d="M166.21,-36.07C165.31,-46.34 163.8,-59.63 161.37,-71.25 160.82,-73.88 160.17,-76.59 159.46,-79.3"/>
<polygon fill="black" stroke="black" points="156.14,-78.16 156.73,-88.74 162.87,-80.1 156.14,-78.16"/>
<text xml:space="preserve" text-anchor="middle" x="168.73" y="-57.95" font-family="Times,serif" font-size="14.00">3</text>
</g>
<!-- 3&#45;&gt;3 -->
<g id="edge2" class="edge">
<title>3&#45;&gt;3</title>
<path fill="none" stroke="black" d="M193.72,-22.17C203.9,-22.35 212.37,-20.96 212.37,-18 212.37,-16.29 209.54,-15.1 205.18,-14.44"/>
<polygon fill="black" stroke="black" points="205.4,-10.95 195.23,-13.91 205.03,-17.94 205.4,-10.95"/>
<text xml:space="preserve" text-anchor="middle" x="216.87" y="-13.32" font-family="Times,serif" font-size="14.00">2</text>
</g>
<!-- 3&#45;&gt;3 -->
<g id="edge4" class="edge">
<title>3&#45;&gt;3</title>
<path fill="none" stroke="black" d="M192.27,-25.33C211.19,-27.98 230.37,-25.54 230.37,-18 230.37,-11.99 218.19,-9.22 203.67,-9.68"/>
<polygon fill="black" stroke="black" points="203.44,-6.19 193.78,-10.54 204.04,-13.16 203.44,-6.19"/>
<text xml:space="preserve" text-anchor="middle" x="234.87" y="-13.32" font-family="Times,serif" font-size="14.00">0</text>
</g>
<!-- 3&#45;&gt;4 -->
<g id="edge20" class="edge">
<title>3&#45;&gt;4</title>
<path fill="none" stroke="black" d="M193.83,-22.29C238.34,-29.47 323.37,-50.95 323.37,-110.25 323.37,-298.75 323.37,-298.75 323.37,-298.75 323.37,-350.48 257.23,-376.1 215.87,-387.06"/>
<polygon fill="black" stroke="black" points="215.27,-383.6 206.41,-389.41 216.96,-390.4 215.27,-383.6"/>
<text xml:space="preserve" text-anchor="middle" x="327.87" y="-199.82" font-family="Times,serif" font-size="14.00">4</text>
</g>
<!-- 4&#45;&gt;2 -->
<g id="edge5" class="edge">
<title>4&#45;&gt;2</title>
<path fill="none" stroke="black" d="M161.33,-393.03C136.02,-390.6 95.53,-382.38 76.37,-355 68.88,-344.29 74.74,-331.6 83.3,-320.99"/>
<polygon fill="black" stroke="black" points="85.73,-323.52 89.87,-313.77 80.55,-318.81 85.73,-323.52"/>
<text xml:space="preserve" text-anchor="middle" x="80.87" y="-341.7" font-family="Times,serif" font-size="14.00">4</text>
</g>
<!-- 4&#45;&gt;2 -->
<g id="edge10" class="edge">
<title>4&#45;&gt;2</title>
<path fill="none" stroke="black" d="M161.76,-389.21C144.03,-384.02 120.04,-373.84 108.37,-355 104,-347.95 102.42,-339.38 102.26,-331.08"/>
<polygon fill="black" stroke="black" points="105.75,-331.39 102.76,-321.22 98.76,-331.03 105.75,-331.39"/>
<text xml:space="preserve" text-anchor="middle" x="112.87" y="-341.7" font-family="Times,serif" font-size="14.00">2</text>
</g>
<!-- 4&#45;&gt;2 -->
<g id="edge14" class="edge">
<title>4&#45;&gt;2</title>
<path fill="none" stroke="black" d="M166.31,-380.62C157.92,-373.54 148,-364.39 140.37,-355 133.63,-346.7 127.37,-336.87 122.15,-327.76"/>
<polygon fill="black" stroke="black" points="125.35,-326.32 117.47,-319.24 119.22,-329.69 125.35,-326.32"/>
<text xml:space="preserve" text-anchor="middle" x="144.87" y="-341.7" font-family="Times,serif" font-size="14.00">0</text>
</g>
<!-- 4&#45;&gt;2 -->
<g id="edge16" class="edge">
<title>4&#45;&gt;2</title>
<path fill="none" stroke="black" d="M173.57,-374.9C167.35,-363.58 158.73,-349.26 149.37,-337.75 144.31,-331.53 138.27,-325.36 132.37,-319.82"/>
<polygon fill="black" stroke="black" points="134.85,-317.35 125.08,-313.25 130.16,-322.54 134.85,-317.35"/>
<text xml:space="preserve" text-anchor="middle" x="165.49" y="-341.7" font-family="Times,serif" font-size="14.00">1</text>
</g>
<!-- 4&#45;&gt;3 -->
<g id="edge6" class="edge">
<title>4&#45;&gt;3</title>
<path fill="none" stroke="black" d="M203.05,-385.15C230.88,-371.13 278.37,-341.02 278.37,-298.75 278.37,-298.75 278.37,-298.75 278.37,-110.25 278.37,-70.13 234.56,-44.41 201.99,-30.82"/>
<polygon fill="black" stroke="black" points="203.45,-27.64 192.86,-27.23 200.89,-34.15 203.45,-27.64"/>
<text xml:space="preserve" text-anchor="middle" x="282.87" y="-199.82" font-family="Times,serif" font-size="14.00">3</text>
</g>
</g>
</svg>
