<?xml version="1.0" encoding="UTF-8" standalone="no"?>
<!DOCTYPE svg PUBLIC "-//W3C//DTD SVG 1.1//EN"
 "http://www.w3.org/Graphics/SVG/1.1/DTD/svg11.dtd">
<!-- Generated by graphviz version 2.49.0 (20210829.0051)
 -->
<!-- Pages: 1 -->
<svg width="402pt" height="386pt"
 viewBox="0.00 0.00 401.56 386.00" xmlns="http://www.w3.org/2000/svg" xmlns:xlink="http://www.w3.org/1999/xlink">
<g id="graph0" class="graph" transform="scale(1 1) rotate(0) translate(4 382)">
<polygon fill="white" stroke="transparent" points="-4,4 -4,-382 397.56,-382 397.56,4 -4,4"/>
<!-- fake -->
<g id="node1" class="node">
<title>fake</title>
</g>
<!-- 3 -->
<g id="node5" class="node">
<title>3</title>
<ellipse fill="none" stroke="black" cx="315.56" cy="-287" rx="27" ry="18"/>
<text text-anchor="middle" x="315.56" y="-283.3" font-family="Times,serif" font-size="14.00">3</text>
</g>
<!-- fake&#45;&gt;3 -->
<g id="edge1" class="edge">
<title>fake&#45;&gt;3</title>
<path fill="none" stroke="black" stroke-width="2" d="M315.56,-341.81C315.56,-333.79 315.56,-324.05 315.56,-315.07"/>
<polygon fill="black" stroke="black" stroke-width="2" points="319.06,-315.03 315.56,-305.03 312.06,-315.03 319.06,-315.03"/>
</g>
<!-- 0 -->
<g id="node2" class="node">
<title>0</title>
<ellipse fill="none" stroke="black" cx="153.56" cy="-196" rx="18" ry="18"/>
<ellipse fill="none" stroke="black" cx="153.56" cy="-196" rx="22" ry="22"/>
<text text-anchor="middle" x="153.56" y="-192.3" font-family="Times,serif" font-size="14.00">0</text>
</g>
<!-- 1 -->
<g id="node3" class="node">
<title>1</title>
<ellipse fill="none" stroke="black" cx="174.56" cy="-18" rx="27" ry="18"/>
<text text-anchor="middle" x="174.56" y="-14.3" font-family="Times,serif" font-size="14.00">1</text>
</g>
<!-- 0&#45;&gt;1 -->
<g id="edge16" class="edge">
<title>0&#45;&gt;1</title>
<path fill="none" stroke="black" d="M131.24,-193.5C103.08,-190.56 54.47,-181.83 22.56,-156 -2.08,-136.06 -3.27,-117.71 4.56,-87 8.69,-70.81 9.25,-64.1 22.56,-54 55.75,-28.82 103.95,-21.27 137.12,-19.25"/>
<polygon fill="black" stroke="black" points="137.51,-22.73 147.33,-18.77 137.18,-15.74 137.51,-22.73"/>
<text text-anchor="middle" x="9.56" y="-101.3" font-family="Times,serif" font-size="14.00">0</text>
</g>
<!-- 0&#45;&gt;1 -->
<g id="edge17" class="edge">
<title>0&#45;&gt;1</title>
<path fill="none" stroke="black" d="M132.54,-189.48C113.89,-183.71 86.84,-173.06 68.56,-156 45.39,-134.38 42.73,-117.71 50.56,-87 54.69,-70.81 55.73,-64.7 68.56,-54 88.22,-37.6 115.81,-28.81 137.91,-24.14"/>
<polygon fill="black" stroke="black" points="138.79,-27.53 147.95,-22.21 137.47,-20.66 138.79,-27.53"/>
<text text-anchor="middle" x="55.56" y="-101.3" font-family="Times,serif" font-size="14.00">1</text>
</g>
<!-- 0&#45;&gt;1 -->
<g id="edge19" class="edge">
<title>0&#45;&gt;1</title>
<path fill="none" stroke="black" d="M142.52,-176.62C131.02,-155.11 115.78,-118.41 124.56,-87 129.44,-69.52 141.31,-53.03 152.25,-40.67"/>
<polygon fill="black" stroke="black" points="154.98,-42.88 159.23,-33.18 149.85,-38.11 154.98,-42.88"/>
<text text-anchor="middle" x="129.56" y="-101.3" font-family="Times,serif" font-size="14.00">3</text>
</g>
<!-- 2 -->
<g id="node4" class="node">
<title>2</title>
<ellipse fill="none" stroke="black" cx="244.56" cy="-105" rx="27" ry="18"/>
<text text-anchor="middle" x="244.56" y="-101.3" font-family="Times,serif" font-size="14.00">2</text>
</g>
<!-- 0&#45;&gt;2 -->
<g id="edge20" class="edge">
<title>0&#45;&gt;2</title>
<path fill="none" stroke="black" d="M162.45,-175.7C168.21,-164.63 176.51,-150.99 186.56,-141 194.46,-133.14 204.45,-126.31 213.91,-120.82"/>
<polygon fill="black" stroke="black" points="215.65,-123.86 222.73,-115.97 212.28,-117.72 215.65,-123.86"/>
<text text-anchor="middle" x="191.56" y="-144.8" font-family="Times,serif" font-size="14.00">2</text>
</g>
<!-- 0&#45;&gt;3 -->
<g id="edge11" class="edge">
<title>0&#45;&gt;3</title>
<path fill="none" stroke="black" d="M164.8,-214.91C173.08,-226.73 185.34,-241.7 199.56,-251 223.75,-266.82 255.38,-275.74 279.5,-280.61"/>
<polygon fill="black" stroke="black" points="278.86,-284.05 289.33,-282.45 280.15,-277.17 278.86,-284.05"/>
<text text-anchor="middle" x="204.56" y="-239.8" font-family="Times,serif" font-size="14.00">4</text>
</g>
<!-- 1&#45;&gt;0 -->
<g id="edge3" class="edge">
<title>1&#45;&gt;0</title>
<path fill="none" stroke="black" d="M164.68,-34.76C156.95,-48.1 146.8,-68.03 142.56,-87 135.87,-116.93 138.36,-125.62 142.56,-156 142.98,-159.04 143.58,-162.17 144.28,-165.28"/>
<polygon fill="black" stroke="black" points="140.89,-166.17 146.78,-174.98 147.67,-164.43 140.89,-166.17"/>
<text text-anchor="middle" x="147.56" y="-101.3" font-family="Times,serif" font-size="14.00">0</text>
</g>
<!-- 1&#45;&gt;0 -->
<g id="edge5" class="edge">
<title>1&#45;&gt;0</title>
<path fill="none" stroke="black" d="M172.51,-36.17C168.98,-65.74 161.72,-126.64 157.28,-163.85"/>
<polygon fill="black" stroke="black" points="153.76,-163.78 156.05,-174.12 160.71,-164.6 153.76,-163.78"/>
<text text-anchor="middle" x="170.56" y="-101.3" font-family="Times,serif" font-size="14.00">3</text>
</g>
<!-- 1&#45;&gt;1 -->
<g id="edge4" class="edge">
<title>1&#45;&gt;1</title>
<path fill="none" stroke="black" d="M201.35,-20.62C211.34,-20.71 219.56,-19.83 219.56,-18 219.56,-16.85 216.35,-16.08 211.5,-15.69"/>
<polygon fill="black" stroke="black" points="211.46,-12.19 201.35,-15.38 211.24,-19.18 211.46,-12.19"/>
<text text-anchor="middle" x="224.56" y="-14.3" font-family="Times,serif" font-size="14.00">1</text>
</g>
<!-- 1&#45;&gt;1 -->
<g id="edge6" class="edge">
<title>1&#45;&gt;1</title>
<path fill="none" stroke="black" d="M200.77,-22.71C219.26,-24.19 237.56,-22.62 237.56,-18 237.56,-14.25 225.48,-12.5 211.03,-12.78"/>
<polygon fill="black" stroke="black" points="210.59,-9.3 200.77,-13.29 210.94,-16.29 210.59,-9.3"/>
<text text-anchor="middle" x="242.56" y="-14.3" font-family="Times,serif" font-size="14.00">2</text>
</g>
<!-- 1&#45;&gt;1 -->
<g id="edge10" class="edge">
<title>1&#45;&gt;1</title>
<path fill="none" stroke="black" d="M200.27,-24.14C226.44,-27.76 255.56,-25.71 255.56,-18 255.56,-11.28 233.46,-8.86 210.47,-10.74"/>
<polygon fill="black" stroke="black" points="209.83,-7.29 200.27,-11.86 210.59,-14.25 209.83,-7.29"/>
<text text-anchor="middle" x="260.56" y="-14.3" font-family="Times,serif" font-size="14.00">4</text>
</g>
<!-- 2&#45;&gt;0 -->
<g id="edge13" class="edge">
<title>2&#45;&gt;0</title>
<path fill="none" stroke="black" d="M231.33,-120.78C222.09,-130.91 209.35,-144.55 197.56,-156 191.38,-162 184.5,-168.28 178.04,-174.01"/>
<polygon fill="black" stroke="black" points="175.39,-171.68 170.18,-180.9 180.01,-176.94 175.39,-171.68"/>
<text text-anchor="middle" x="216.56" y="-144.8" font-family="Times,serif" font-size="14.00">2</text>
</g>
<!-- 2&#45;&gt;1 -->
<g id="edge9" class="edge">
<title>2&#45;&gt;1</title>
<path fill="none" stroke="black" d="M232.05,-88.8C221.29,-75.75 205.64,-56.74 193.38,-41.85"/>
<polygon fill="black" stroke="black" points="196.02,-39.56 186.97,-34.06 190.62,-44.01 196.02,-39.56"/>
<text text-anchor="middle" x="218.56" y="-57.8" font-family="Times,serif" font-size="14.00">4</text>
</g>
<!-- 2&#45;&gt;3 -->
<g id="edge2" class="edge">
<title>2&#45;&gt;3</title>
<path fill="none" stroke="black" d="M249.83,-122.9C256.87,-145.01 270.02,-184.83 283.56,-218 289.41,-232.34 296.72,-248.01 302.87,-260.69"/>
<polygon fill="black" stroke="black" points="299.76,-262.29 307.31,-269.73 306.05,-259.21 299.76,-262.29"/>
<text text-anchor="middle" x="288.56" y="-192.3" font-family="Times,serif" font-size="14.00">0</text>
</g>
<!-- 2&#45;&gt;3 -->
<g id="edge7" class="edge">
<title>2&#45;&gt;3</title>
<path fill="none" stroke="black" d="M256.62,-121.16C261.37,-127.25 266.82,-134.39 271.56,-141 281.84,-155.32 286.84,-157.7 293.56,-174 304.9,-201.52 310.51,-235.3 313.21,-258.53"/>
<polygon fill="black" stroke="black" points="309.75,-259.12 314.28,-268.7 316.71,-258.39 309.75,-259.12"/>
<text text-anchor="middle" x="310.56" y="-192.3" font-family="Times,serif" font-size="14.00">1</text>
</g>
<!-- 2&#45;&gt;3 -->
<g id="edge8" class="edge">
<title>2&#45;&gt;3</title>
<path fill="none" stroke="black" d="M264.7,-117.24C283.03,-128.77 308.8,-148.59 319.56,-174 324.56,-185.8 327.5,-227.74 324.56,-251 324.22,-253.71 323.73,-256.51 323.16,-259.29"/>
<polygon fill="black" stroke="black" points="319.74,-258.54 320.83,-269.08 326.55,-260.16 319.74,-258.54"/>
<text text-anchor="middle" x="329.56" y="-192.3" font-family="Times,serif" font-size="14.00">3</text>
</g>
<!-- 3&#45;&gt;0 -->
<g id="edge18" class="edge">
<title>3&#45;&gt;0</title>
<path fill="none" stroke="black" d="M289.19,-282.95C251.7,-278.09 185.61,-267.43 168.56,-251 162.28,-244.95 158.56,-236.53 156.38,-228.12"/>
<polygon fill="black" stroke="black" points="159.76,-227.19 154.41,-218.05 152.89,-228.54 159.76,-227.19"/>
<text text-anchor="middle" x="173.56" y="-239.8" font-family="Times,serif" font-size="14.00">0</text>
</g>
<!-- 3&#45;&gt;1 -->
<g id="edge14" class="edge">
<title>3&#45;&gt;1</title>
<path fill="none" stroke="black" d="M328.21,-270.95C332.35,-265.1 336.43,-258.11 338.56,-251 348.37,-218.21 348.48,-206.75 338.56,-174 325.09,-129.52 313.71,-119.57 280.56,-87 258.18,-65.01 227.58,-46.31 205.01,-34.11"/>
<polygon fill="black" stroke="black" points="206.36,-30.87 195.88,-29.3 203.09,-37.06 206.36,-30.87"/>
<text text-anchor="middle" x="336.56" y="-144.8" font-family="Times,serif" font-size="14.00">3</text>
</g>
<!-- 3&#45;&gt;1 -->
<g id="edge15" class="edge">
<title>3&#45;&gt;1</title>
<path fill="none" stroke="black" d="M334.01,-273.85C341.44,-267.91 349.25,-260.07 353.56,-251 374.59,-206.72 366.2,-185.46 345.56,-141 323.06,-92.53 309.7,-79.17 262.56,-54 245.1,-44.68 224.6,-36.38 207.79,-30.21"/>
<polygon fill="black" stroke="black" points="208.95,-26.91 198.36,-26.83 206.59,-33.5 208.95,-26.91"/>
<text text-anchor="middle" x="356.56" y="-144.8" font-family="Times,serif" font-size="14.00">1</text>
</g>
<!-- 3&#45;&gt;1 -->
<g id="edge21" class="edge">
<title>3&#45;&gt;1</title>
<path fill="none" stroke="black" d="M338.1,-276.97C349.58,-271.22 362.73,-262.65 370.56,-251 412.05,-189.3 387.04,-142.49 337.56,-87 304.36,-49.77 247.52,-32.39 210.5,-24.68"/>
<polygon fill="black" stroke="black" points="211.1,-21.23 200.62,-22.75 209.76,-28.1 211.1,-21.23"/>
<text text-anchor="middle" x="388.56" y="-144.8" font-family="Times,serif" font-size="14.00">4</text>
</g>
<!-- 3&#45;&gt;2 -->
<g id="edge12" class="edge">
<title>3&#45;&gt;2</title>
<path fill="none" stroke="black" d="M298.22,-273.05C283.22,-260.73 262.42,-240.74 252.56,-218 240.84,-190.98 240.17,-156.85 241.58,-133.41"/>
<polygon fill="black" stroke="black" points="245.1,-133.38 242.38,-123.14 238.12,-132.84 245.1,-133.38"/>
<text text-anchor="middle" x="257.56" y="-192.3" font-family="Times,serif" font-size="14.00">2</text>
</g>
</g>
</svg>
