<?xml version="1.0" encoding="UTF-8" standalone="no"?>
<!DOCTYPE svg PUBLIC "-//W3C//DTD SVG 1.1//EN"
 "http://www.w3.org/Graphics/SVG/1.1/DTD/svg11.dtd">
<!-- Generated by graphviz version 2.49.0 (20210829.0051)
 -->
<!-- Pages: 1 -->
<svg width="273pt" height="386pt"
 viewBox="0.00 0.00 272.87 386.00" xmlns="http://www.w3.org/2000/svg" xmlns:xlink="http://www.w3.org/1999/xlink">
<g id="graph0" class="graph" transform="scale(1 1) rotate(0) translate(4 382)">
<polygon fill="white" stroke="transparent" points="-4,4 -4,-382 268.87,-382 268.87,4 -4,4"/>
<!-- fake -->
<g id="node1" class="node">
<title>fake</title>
</g>
<!-- 0 -->
<g id="node2" class="node">
<title>0</title>
<ellipse fill="none" stroke="black" cx="140.87" cy="-287" rx="27" ry="18"/>
<text text-anchor="middle" x="140.87" y="-283.3" font-family="Times,serif" font-size="14.00">0</text>
</g>
<!-- fake&#45;&gt;0 -->
<g id="edge1" class="edge">
<title>fake&#45;&gt;0</title>
<path fill="none" stroke="black" stroke-width="2" d="M140.87,-341.81C140.87,-333.79 140.87,-324.05 140.87,-315.07"/>
<polygon fill="black" stroke="black" stroke-width="2" points="144.37,-315.03 140.87,-305.03 137.37,-315.03 144.37,-315.03"/>
</g>
<!-- 1 -->
<g id="node3" class="node">
<title>1</title>
<ellipse fill="none" stroke="black" cx="168.87" cy="-200" rx="27" ry="18"/>
<text text-anchor="middle" x="168.87" y="-196.3" font-family="Times,serif" font-size="14.00">1</text>
</g>
<!-- 0&#45;&gt;1 -->
<g id="edge9" class="edge">
<title>0&#45;&gt;1</title>
<path fill="none" stroke="black" d="M129.29,-270.28C123.38,-260.22 118.47,-247.04 123.87,-236 127.34,-228.91 133.01,-222.84 139.18,-217.84"/>
<polygon fill="black" stroke="black" points="141.65,-220.37 147.74,-211.7 137.57,-214.69 141.65,-220.37"/>
<text text-anchor="middle" x="128.87" y="-239.8" font-family="Times,serif" font-size="14.00">2</text>
</g>
<!-- 2 -->
<g id="node4" class="node">
<title>2</title>
<ellipse fill="none" stroke="black" cx="153.87" cy="-18" rx="27" ry="18"/>
<text text-anchor="middle" x="153.87" y="-14.3" font-family="Times,serif" font-size="14.00">2</text>
</g>
<!-- 0&#45;&gt;2 -->
<g id="edge15" class="edge">
<title>0&#45;&gt;2</title>
<path fill="none" stroke="black" d="M113.8,-285.58C86.82,-283.64 46.15,-276.33 22.87,-251 -8.28,-217.11 0.56,-194.83 4.87,-149 8.88,-106.21 -6.38,-85.49 22.87,-54 46.73,-28.31 87.17,-20.67 116.82,-18.76"/>
<polygon fill="black" stroke="black" points="116.98,-22.26 126.81,-18.31 116.66,-15.27 116.98,-22.26"/>
<text text-anchor="middle" x="9.87" y="-152.8" font-family="Times,serif" font-size="14.00">1</text>
</g>
<!-- 0&#45;&gt;2 -->
<g id="edge17" class="edge">
<title>0&#45;&gt;2</title>
<path fill="none" stroke="black" d="M115.09,-281.21C97.23,-276.54 74.33,-267.6 60.87,-251 31.88,-215.24 38.56,-194.83 42.87,-149 46.88,-106.21 33.21,-86.89 60.87,-54 74.95,-37.24 97.92,-28.5 117.51,-23.94"/>
<polygon fill="black" stroke="black" points="118.28,-27.36 127.38,-21.92 116.88,-20.5 118.28,-27.36"/>
<text text-anchor="middle" x="47.87" y="-152.8" font-family="Times,serif" font-size="14.00">3</text>
</g>
<!-- 0&#45;&gt;2 -->
<g id="edge20" class="edge">
<title>0&#45;&gt;2</title>
<path fill="none" stroke="black" d="M127.68,-271.03C123.35,-265.19 119.09,-258.18 116.87,-251 114.89,-244.63 116.32,-242.64 116.87,-236 122.52,-166.94 138.72,-86.86 147.7,-46.01"/>
<polygon fill="black" stroke="black" points="151.16,-46.55 149.92,-36.03 144.33,-45.03 151.16,-46.55"/>
<text text-anchor="middle" x="131.87" y="-152.8" font-family="Times,serif" font-size="14.00">4</text>
</g>
<!-- 3 -->
<g id="node5" class="node">
<title>3</title>
<ellipse fill="none" stroke="black" cx="219.87" cy="-109" rx="18" ry="18"/>
<ellipse fill="none" stroke="black" cx="219.87" cy="-109" rx="22" ry="22"/>
<text text-anchor="middle" x="219.87" y="-105.3" font-family="Times,serif" font-size="14.00">3</text>
</g>
<!-- 0&#45;&gt;3 -->
<g id="edge5" class="edge">
<title>0&#45;&gt;3</title>
<path fill="none" stroke="black" d="M159.76,-273.82C168.38,-267.66 178.33,-259.66 185.87,-251 196.98,-238.23 199.38,-234.01 204.87,-218 213.41,-193.07 217.1,-163.31 218.69,-141.36"/>
<polygon fill="black" stroke="black" points="222.19,-141.45 219.31,-131.26 215.2,-141.02 222.19,-141.45"/>
<text text-anchor="middle" x="217.87" y="-196.3" font-family="Times,serif" font-size="14.00">0</text>
</g>
<!-- 1&#45;&gt;0 -->
<g id="edge7" class="edge">
<title>1&#45;&gt;0</title>
<path fill="none" stroke="black" d="M154.42,-215.4C149.47,-221.28 144.52,-228.47 141.87,-236 139.36,-243.12 138.44,-251.18 138.32,-258.71"/>
<polygon fill="black" stroke="black" points="134.82,-258.96 138.6,-268.86 141.82,-258.77 134.82,-258.96"/>
<text text-anchor="middle" x="146.87" y="-239.8" font-family="Times,serif" font-size="14.00">0</text>
</g>
<!-- 1&#45;&gt;0 -->
<g id="edge10" class="edge">
<title>1&#45;&gt;0</title>
<path fill="none" stroke="black" d="M163.35,-217.76C159.44,-229.62 154.11,-245.79 149.63,-259.4"/>
<polygon fill="black" stroke="black" points="146.2,-258.61 146.4,-269.21 152.85,-260.8 146.2,-258.61"/>
<text text-anchor="middle" x="160.87" y="-239.8" font-family="Times,serif" font-size="14.00">3</text>
</g>
<!-- 1&#45;&gt;0 -->
<g id="edge16" class="edge">
<title>1&#45;&gt;0</title>
<path fill="none" stroke="black" d="M172.19,-218.16C173.39,-228.05 173.64,-240.55 169.87,-251 168.18,-255.67 165.57,-260.16 162.6,-264.28"/>
<polygon fill="black" stroke="black" points="159.79,-262.19 156.15,-272.14 165.2,-266.63 159.79,-262.19"/>
<text text-anchor="middle" x="176.87" y="-239.8" font-family="Times,serif" font-size="14.00">1</text>
</g>
<!-- 1&#45;&gt;2 -->
<g id="edge6" class="edge">
<title>1&#45;&gt;2</title>
<path fill="none" stroke="black" d="M165.27,-182.11C159.9,-155.13 150.54,-100.62 151.87,-54 151.94,-51.44 152.04,-48.79 152.16,-46.13"/>
<polygon fill="black" stroke="black" points="155.66,-46.25 152.7,-36.08 148.67,-45.88 155.66,-46.25"/>
<text text-anchor="middle" x="160.87" y="-105.3" font-family="Times,serif" font-size="14.00">4</text>
</g>
<!-- 1&#45;&gt;3 -->
<g id="edge18" class="edge">
<title>1&#45;&gt;3</title>
<path fill="none" stroke="black" d="M167.48,-181.88C167.39,-171.78 168.59,-159.04 173.87,-149 178.28,-140.61 185.32,-133.27 192.59,-127.29"/>
<polygon fill="black" stroke="black" points="195.18,-129.73 201.07,-120.92 190.98,-124.13 195.18,-129.73"/>
<text text-anchor="middle" x="178.87" y="-152.8" font-family="Times,serif" font-size="14.00">2</text>
</g>
<!-- 2&#45;&gt;2 -->
<g id="edge2" class="edge">
<title>2&#45;&gt;2</title>
<path fill="none" stroke="black" d="M180.66,-20.62C190.65,-20.71 198.87,-19.83 198.87,-18 198.87,-16.85 195.66,-16.08 190.81,-15.69"/>
<polygon fill="black" stroke="black" points="190.76,-12.19 180.66,-15.38 190.55,-19.18 190.76,-12.19"/>
<text text-anchor="middle" x="203.87" y="-14.3" font-family="Times,serif" font-size="14.00">2</text>
</g>
<!-- 2&#45;&gt;2 -->
<g id="edge3" class="edge">
<title>2&#45;&gt;2</title>
<path fill="none" stroke="black" d="M180.08,-22.71C198.56,-24.19 216.87,-22.62 216.87,-18 216.87,-14.25 204.78,-12.5 190.34,-12.78"/>
<polygon fill="black" stroke="black" points="189.89,-9.3 180.08,-13.29 190.24,-16.29 189.89,-9.3"/>
<text text-anchor="middle" x="221.87" y="-14.3" font-family="Times,serif" font-size="14.00">4</text>
</g>
<!-- 2&#45;&gt;2 -->
<g id="edge19" class="edge">
<title>2&#45;&gt;2</title>
<path fill="none" stroke="black" d="M179.58,-24.14C205.74,-27.76 234.87,-25.71 234.87,-18 234.87,-11.28 212.77,-8.86 189.78,-10.74"/>
<polygon fill="black" stroke="black" points="189.14,-7.29 179.58,-11.86 189.9,-14.25 189.14,-7.29"/>
<text text-anchor="middle" x="239.87" y="-14.3" font-family="Times,serif" font-size="14.00">1</text>
</g>
<!-- 2&#45;&gt;3 -->
<g id="edge4" class="edge">
<title>2&#45;&gt;3</title>
<path fill="none" stroke="black" d="M164.23,-35.02C170.79,-44.96 179.57,-57.9 187.87,-69 191.5,-73.85 195.5,-78.93 199.41,-83.76"/>
<polygon fill="black" stroke="black" points="196.77,-86.06 205.83,-91.56 202.18,-81.61 196.77,-86.06"/>
<text text-anchor="middle" x="192.87" y="-57.8" font-family="Times,serif" font-size="14.00">0</text>
</g>
<!-- 2&#45;&gt;3 -->
<g id="edge13" class="edge">
<title>2&#45;&gt;3</title>
<path fill="none" stroke="black" d="M172.86,-30.82C181.41,-36.9 191.08,-44.94 197.87,-54 203.23,-61.16 207.52,-69.82 210.82,-78.08"/>
<polygon fill="black" stroke="black" points="207.54,-79.3 214.27,-87.49 214.12,-76.89 207.54,-79.3"/>
<text text-anchor="middle" x="210.87" y="-57.8" font-family="Times,serif" font-size="14.00">3</text>
</g>
<!-- 3&#45;&gt;0 -->
<g id="edge12" class="edge">
<title>3&#45;&gt;0</title>
<path fill="none" stroke="black" d="M226.65,-130.02C228.38,-136.05 230,-142.73 230.87,-149 235.08,-179.43 236.85,-188.95 226.87,-218 221.14,-234.67 217.87,-239.09 204.87,-251 195.55,-259.53 183.77,-266.73 172.87,-272.34"/>
<polygon fill="black" stroke="black" points="171.06,-269.33 163.6,-276.85 174.12,-275.62 171.06,-269.33"/>
<text text-anchor="middle" x="238.87" y="-196.3" font-family="Times,serif" font-size="14.00">4</text>
</g>
<!-- 3&#45;&gt;1 -->
<g id="edge21" class="edge">
<title>3&#45;&gt;1</title>
<path fill="none" stroke="black" d="M209.34,-128.37C201.82,-141.49 191.62,-159.29 183.34,-173.75"/>
<polygon fill="black" stroke="black" points="180.16,-172.26 178.22,-182.68 186.23,-175.74 180.16,-172.26"/>
<text text-anchor="middle" x="201.87" y="-152.8" font-family="Times,serif" font-size="14.00">2</text>
</g>
<!-- 3&#45;&gt;2 -->
<g id="edge8" class="edge">
<title>3&#45;&gt;2</title>
<path fill="none" stroke="black" d="M199.88,-99.35C187.26,-92.84 171.73,-82.69 162.87,-69 158.58,-62.38 156.19,-54.29 154.9,-46.56"/>
<polygon fill="black" stroke="black" points="158.35,-45.95 153.73,-36.42 151.4,-46.75 158.35,-45.95"/>
<text text-anchor="middle" x="167.87" y="-57.8" font-family="Times,serif" font-size="14.00">0</text>
</g>
<!-- 3&#45;&gt;2 -->
<g id="edge11" class="edge">
<title>3&#45;&gt;2</title>
<path fill="none" stroke="black" d="M230.03,-89.49C234.61,-78.43 237.65,-64.54 230.87,-54 221.67,-39.72 205.07,-31.2 189.63,-26.15"/>
<polygon fill="black" stroke="black" points="190.31,-22.7 179.74,-23.3 188.38,-29.43 190.31,-22.7"/>
<text text-anchor="middle" x="238.87" y="-57.8" font-family="Times,serif" font-size="14.00">3</text>
</g>
<!-- 3&#45;&gt;2 -->
<g id="edge14" class="edge">
<title>3&#45;&gt;2</title>
<path fill="none" stroke="black" d="M235.81,-93.67C246.32,-82.45 256.66,-66.66 247.87,-54 235.03,-35.53 211.22,-26.78 190.77,-22.66"/>
<polygon fill="black" stroke="black" points="191.21,-19.18 180.76,-20.94 190.03,-26.08 191.21,-19.18"/>
<text text-anchor="middle" x="255.87" y="-57.8" font-family="Times,serif" font-size="14.00">1</text>
</g>
</g>
</svg>
