<?xml version="1.0" encoding="UTF-8" standalone="no"?>
<!DOCTYPE svg PUBLIC "-//W3C//DTD SVG 1.1//EN"
 "http://www.w3.org/Graphics/SVG/1.1/DTD/svg11.dtd">
<!-- Generated by graphviz version 13.0.1 (20250616.1512)
 -->
<!-- Pages: 1 -->
<svg width="2583pt" height="2552pt"
 viewBox="0.00 0.00 2583.00 2552.00" xmlns="http://www.w3.org/2000/svg" xmlns:xlink="http://www.w3.org/1999/xlink">
<g id="graph0" class="graph" transform="scale(1 1) rotate(0) translate(4 2548)">
<polygon fill="white" stroke="none" points="-4,4 -4,-2548 2579,-2548 2579,4 -4,4"/>
<!-- fake -->
<g id="node1" class="node">
<title>fake</title>
</g>
<!-- 0 -->
<g id="node2" class="node">
<title>0</title>
<ellipse fill="none" stroke="black" cx="1941" cy="-2453" rx="27" ry="18"/>
<text xml:space="preserve" text-anchor="middle" x="1941" y="-2448.33" font-family="Times,serif" font-size="14.00">0</text>
</g>
<!-- fake&#45;&gt;0 -->
<g id="edge1" class="edge">
<title>fake&#45;&gt;0</title>
<path fill="none" stroke="black" stroke-width="2" d="M1941,-2507.82C1941,-2500.23 1941,-2491.1 1941,-2482.54"/>
<polygon fill="black" stroke="black" stroke-width="2" points="1944.5,-2484.06 1941,-2474.06 1937.5,-2484.06 1944.5,-2484.06"/>
</g>
<!-- 1 -->
<g id="node3" class="node">
<title>1</title>
<ellipse fill="none" stroke="black" cx="1611" cy="-2363.75" rx="27" ry="18"/>
<text xml:space="preserve" text-anchor="middle" x="1611" y="-2359.08" font-family="Times,serif" font-size="14.00">1</text>
</g>
<!-- 0&#45;&gt;1 -->
<g id="edge57" class="edge">
<title>0&#45;&gt;1</title>
<path fill="none" stroke="black" d="M1916.2,-2445.45C1858.24,-2430.12 1713.78,-2391.93 1646.51,-2374.14"/>
<polygon fill="black" stroke="black" points="1647.67,-2370.83 1637.1,-2371.66 1645.88,-2377.59 1647.67,-2370.83"/>
<text xml:space="preserve" text-anchor="middle" x="1810.06" y="-2403.7" font-family="Times,serif" font-size="14.00">2</text>
</g>
<!-- 6 -->
<g id="node8" class="node">
<title>6</title>
<ellipse fill="none" stroke="black" cx="486" cy="-126.95" rx="27" ry="18"/>
<text xml:space="preserve" text-anchor="middle" x="486" y="-122.28" font-family="Times,serif" font-size="14.00">6</text>
</g>
<!-- 0&#45;&gt;6 -->
<g id="edge34" class="edge">
<title>0&#45;&gt;6</title>
<path fill="none" stroke="black" d="M1913.73,-2452C1689.41,-2451.94 154.74,-2450.3 64,-2417 29.53,-2404.35 0,-2401.47 0,-2364.75 0,-2364.75 0,-2364.75 0,-1300.68 0,-1230.83 21.45,-1215.91 44,-1149.8 57.76,-1109.48 59.75,-1098.56 79,-1060.55 136.86,-946.31 233,-945.09 233,-817.03 233,-817.03 233,-817.03 233,-215.2 233,-184.55 251.3,-178 278,-162.95 306.41,-146.94 395.99,-136.26 447.85,-131.25"/>
<polygon fill="black" stroke="black" points="448.11,-134.74 457.74,-130.32 447.45,-127.77 448.11,-134.74"/>
<text xml:space="preserve" text-anchor="middle" x="4.5" y="-1297" font-family="Times,serif" font-size="14.00">4</text>
</g>
<!-- 7 -->
<g id="node9" class="node">
<title>7</title>
<ellipse fill="none" stroke="black" cx="1906" cy="-1257.05" rx="27" ry="18"/>
<text xml:space="preserve" text-anchor="middle" x="1906" y="-1252.38" font-family="Times,serif" font-size="14.00">7</text>
</g>
<!-- 0&#45;&gt;7 -->
<g id="edge25" class="edge">
<title>0&#45;&gt;7</title>
<path fill="none" stroke="black" d="M1967.87,-2449.28C2037.07,-2441.52 2216,-2416.47 2216,-2364.75 2216,-2364.75 2216,-2364.75 2216,-2220.88 2216,-2214.24 1989.27,-1298.14 1985,-1293.05 1981.71,-1289.13 1959.47,-1279.45 1939.43,-1271.26"/>
<polygon fill="black" stroke="black" points="1940.94,-1268.09 1930.36,-1267.59 1938.32,-1274.58 1940.94,-1268.09"/>
<text xml:space="preserve" text-anchor="middle" x="2130.37" y="-1840.5" font-family="Times,serif" font-size="14.00">1</text>
</g>
<!-- 9 -->
<g id="node11" class="node">
<title>9</title>
<ellipse fill="none" stroke="black" cx="2133" cy="-1257.05" rx="27" ry="18"/>
<text xml:space="preserve" text-anchor="middle" x="2133" y="-1252.38" font-family="Times,serif" font-size="14.00">9</text>
</g>
<!-- 0&#45;&gt;9 -->
<g id="edge47" class="edge">
<title>0&#45;&gt;9</title>
<path fill="none" stroke="black" d="M1968.35,-2451.72C2056.9,-2450.07 2330,-2438.98 2330,-2364.75 2330,-2364.75 2330,-2364.75 2330,-2042.38 2330,-1760.56 2319.98,-1681.79 2222,-1417.55 2200.44,-1359.41 2191.61,-1345.8 2159,-1293.05 2156.8,-1289.5 2154.34,-1285.84 2151.83,-1282.3"/>
<polygon fill="black" stroke="black" points="2154.88,-1280.54 2146.13,-1274.55 2149.24,-1284.68 2154.88,-1280.54"/>
<text xml:space="preserve" text-anchor="middle" x="2330.91" y="-1840.5" font-family="Times,serif" font-size="14.00">3</text>
</g>
<!-- 11 -->
<g id="node13" class="node">
<title>11</title>
<ellipse fill="none" stroke="black" cx="646" cy="-216.2" rx="27" ry="18"/>
<text xml:space="preserve" text-anchor="middle" x="646" y="-211.53" font-family="Times,serif" font-size="14.00">11</text>
</g>
<!-- 0&#45;&gt;11 -->
<g id="edge6" class="edge">
<title>0&#45;&gt;11</title>
<path fill="none" stroke="black" d="M1913.78,-2451.99C1705.13,-2451.81 362.86,-2449.37 186,-2417 123.53,-2405.57 53,-2428.26 53,-2364.75 53,-2364.75 53,-2364.75 53,-1754.93 53,-1626.72 55.03,-1588.76 107,-1471.55 163.53,-1344.06 232.88,-1345.42 296,-1221.05 357.99,-1098.9 385,-1062.96 385,-925.98 385,-925.98 385,-925.98 385,-725.78 385,-595.57 427.3,-567.13 485,-450.4 531.36,-356.61 547,-334.18 612,-252.2 615.38,-247.94 619.19,-243.62 623.02,-239.54"/>
<polygon fill="black" stroke="black" points="625.24,-242.28 629.69,-232.67 620.22,-237.4 625.24,-242.28"/>
<text xml:space="preserve" text-anchor="middle" x="220.88" y="-1341.63" font-family="Times,serif" font-size="14.00">0</text>
</g>
<!-- 3 -->
<g id="node5" class="node">
<title>3</title>
<ellipse fill="none" stroke="black" cx="1652" cy="-2270.5" rx="18" ry="18"/>
<ellipse fill="none" stroke="black" cx="1652" cy="-2270.5" rx="22" ry="22"/>
<text xml:space="preserve" text-anchor="middle" x="1652" y="-2265.83" font-family="Times,serif" font-size="14.00">3</text>
</g>
<!-- 1&#45;&gt;3 -->
<g id="edge148" class="edge">
<title>1&#45;&gt;3</title>
<path fill="none" stroke="black" d="M1624.58,-2347.99C1629.42,-2342.06 1634.52,-2334.94 1638,-2327.75 1641.63,-2320.24 1644.38,-2311.69 1646.44,-2303.57"/>
<polygon fill="black" stroke="black" points="1649.81,-2304.52 1648.57,-2294 1642.98,-2302.99 1649.81,-2304.52"/>
<text xml:space="preserve" text-anchor="middle" x="1648.74" y="-2314.45" font-family="Times,serif" font-size="14.00">4</text>
</g>
<!-- 10 -->
<g id="node12" class="node">
<title>10</title>
<ellipse fill="none" stroke="black" cx="816" cy="-870.5" rx="23.85" ry="23.85"/>
<ellipse fill="none" stroke="black" cx="816" cy="-870.5" rx="27.85" ry="27.85"/>
<text xml:space="preserve" text-anchor="middle" x="816" y="-865.83" font-family="Times,serif" font-size="14.00">10</text>
</g>
<!-- 1&#45;&gt;10 -->
<g id="edge44" class="edge">
<title>1&#45;&gt;10</title>
<path fill="none" stroke="black" d="M1583.68,-2362.89C1443.78,-2363.41 811.05,-2363.76 732,-2327.75 700.74,-2313.51 679,-2305.85 679,-2271.5 679,-2271.5 679,-2271.5 679,-1987.9 679,-1733.15 689.66,-1668.05 736,-1417.55 760.58,-1284.66 816,-1259.33 816,-1124.18 816,-1124.18 816,-1124.18 816,-978.45 816,-955.79 816,-930.43 816,-910.09"/>
<polygon fill="black" stroke="black" points="819.5,-910.27 816,-900.27 812.5,-910.27 819.5,-910.27"/>
<text xml:space="preserve" text-anchor="middle" x="708.81" y="-1613.38" font-family="Times,serif" font-size="14.00">3</text>
</g>
<!-- 12 -->
<g id="node14" class="node">
<title>12</title>
<ellipse fill="none" stroke="black" cx="1034" cy="-592.9" rx="27" ry="18"/>
<text xml:space="preserve" text-anchor="middle" x="1034" y="-588.23" font-family="Times,serif" font-size="14.00">12</text>
</g>
<!-- 1&#45;&gt;12 -->
<g id="edge41" class="edge">
<title>1&#45;&gt;12</title>
<path fill="none" stroke="black" d="M1583.65,-2362.54C1391.83,-2361.02 255.36,-2351.01 229,-2327.75 173.37,-2278.68 129,-1741.86 129,-1667.68 129,-1667.68 129,-1667.68 129,-1479.18 129,-1411.48 99.56,-1395.48 108,-1328.3 110.02,-1312.26 111.42,-1308.23 117,-1293.05 164.75,-1163.15 193.41,-1136.36 276,-1025.3 300.71,-992.08 303.44,-980.6 333,-951.6 504.57,-783.25 544.22,-719.14 767,-628.9 843.74,-597.82 942.09,-592.99 995.42,-592.97"/>
<polygon fill="black" stroke="black" points="995.18,-596.47 1005.21,-593.03 995.23,-589.47 995.18,-596.47"/>
<text xml:space="preserve" text-anchor="middle" x="133.5" y="-1475.5" font-family="Times,serif" font-size="14.00">0</text>
</g>
<!-- 13 -->
<g id="node15" class="node">
<title>13</title>
<ellipse fill="none" stroke="black" cx="671" cy="-979.45" rx="23.85" ry="23.85"/>
<ellipse fill="none" stroke="black" cx="671" cy="-979.45" rx="27.85" ry="27.85"/>
<text xml:space="preserve" text-anchor="middle" x="671" y="-974.78" font-family="Times,serif" font-size="14.00">13</text>
</g>
<!-- 1&#45;&gt;13 -->
<g id="edge74" class="edge">
<title>1&#45;&gt;13</title>
<path fill="none" stroke="black" d="M1584.05,-2362.37C1434.05,-2360.18 707.32,-2348.54 665,-2327.75 446.91,-2220.65 397.72,-2136.26 315,-1907.8 296.93,-1857.89 274.19,-1919.47 343,-1658.05 389.75,-1480.47 442.24,-1450.02 498,-1275.05 520.26,-1205.21 518.36,-1185.7 536,-1114.55 541.97,-1090.49 537.89,-1082.18 550,-1060.55 560.64,-1041.56 566.54,-1038.3 584,-1025.3 599.66,-1013.65 618.77,-1003.43 635.1,-995.7"/>
<polygon fill="black" stroke="black" points="636.35,-998.97 643.98,-991.62 633.43,-992.61 636.35,-998.97"/>
<text xml:space="preserve" text-anchor="middle" x="347.5" y="-1662" font-family="Times,serif" font-size="14.00">1</text>
</g>
<!-- 19 -->
<g id="node21" class="node">
<title>19</title>
<ellipse fill="none" stroke="black" cx="2248" cy="-216.2" rx="27" ry="18"/>
<text xml:space="preserve" text-anchor="middle" x="2248" y="-211.53" font-family="Times,serif" font-size="14.00">19</text>
</g>
<!-- 1&#45;&gt;19 -->
<g id="edge29" class="edge">
<title>1&#45;&gt;19</title>
<path fill="none" stroke="black" d="M1638.09,-2361.4C1688.64,-2358.44 1800.47,-2349.79 1892,-2327.75 2122.01,-2272.38 2180.11,-2204.54 2324,-2016.75 2408,-1907.13 2415.13,-1864.76 2442,-1729.3 2495.19,-1461.13 2483.98,-1387.22 2464,-1114.55 2451.3,-941.26 2407,-901.53 2407,-727.78 2407,-727.78 2407,-727.78 2407,-547.28 2407,-478.39 2357.64,-303.8 2312,-252.2 2303.88,-243.02 2292.76,-235.78 2282.06,-230.33"/>
<polygon fill="black" stroke="black" points="2283.55,-227.16 2273.01,-226.1 2280.59,-233.5 2283.55,-227.16"/>
<text xml:space="preserve" text-anchor="middle" x="2482.23" y="-1297" font-family="Times,serif" font-size="14.00">2</text>
</g>
<!-- 2 -->
<g id="node4" class="node">
<title>2</title>
<ellipse fill="none" stroke="black" cx="2047" cy="-305.45" rx="27" ry="18"/>
<text xml:space="preserve" text-anchor="middle" x="2047" y="-300.78" font-family="Times,serif" font-size="14.00">2</text>
</g>
<!-- 2&#45;&gt;1 -->
<g id="edge144" class="edge">
<title>2&#45;&gt;1</title>
<path fill="none" stroke="black" d="M2065.47,-319.08C2073.61,-325.21 2082.92,-333.07 2090,-341.45 2101.63,-355.21 2102.47,-360.34 2110,-376.7 2245.11,-670.25 2256.87,-753.3 2357,-1060.55 2369.8,-1099.83 2374,-1109.48 2383,-1149.8 2391.74,-1188.99 2391.87,-1199.23 2397,-1239.05 2437.07,-1550.29 2485.8,-1663.62 2343,-1943.05 2289.06,-2048.6 2044.36,-2236.29 1940,-2292.5 1902.91,-2312.48 1892.69,-2316.82 1852,-2327.75 1781.99,-2346.57 1697.64,-2355.88 1649.58,-2359.98"/>
<polygon fill="black" stroke="black" points="1649.36,-2356.49 1639.68,-2360.79 1649.93,-2363.46 1649.36,-2356.49"/>
<text xml:space="preserve" text-anchor="middle" x="2418.99" y="-1341.63" font-family="Times,serif" font-size="14.00">2</text>
</g>
<!-- 2&#45;&gt;11 -->
<g id="edge133" class="edge">
<title>2&#45;&gt;11</title>
<path fill="none" stroke="black" d="M2019.95,-302.77C1846.27,-291.95 888.43,-232.3 684.28,-219.58"/>
<polygon fill="black" stroke="black" points="684.7,-216.1 674.5,-218.98 684.26,-223.09 684.7,-216.1"/>
<text xml:space="preserve" text-anchor="middle" x="1476.48" y="-256.15" font-family="Times,serif" font-size="14.00">1</text>
</g>
<!-- 2&#45;&gt;19 -->
<g id="edge80" class="edge">
<title>2&#45;&gt;19</title>
<path fill="none" stroke="black" d="M2057.65,-288.81C2066.54,-276.97 2080.26,-261.25 2096,-252.2 2131.33,-231.88 2177.66,-223.36 2209.84,-219.78"/>
<polygon fill="black" stroke="black" points="2209.9,-223.29 2219.51,-218.82 2209.21,-216.33 2209.9,-223.29"/>
<text xml:space="preserve" text-anchor="middle" x="2100.5" y="-256.15" font-family="Times,serif" font-size="14.00">3</text>
</g>
<!-- 22 -->
<g id="node24" class="node">
<title>22</title>
<ellipse fill="none" stroke="black" cx="1911" cy="-1167.8" rx="27" ry="18"/>
<text xml:space="preserve" text-anchor="middle" x="1911" y="-1163.13" font-family="Times,serif" font-size="14.00">22</text>
</g>
<!-- 2&#45;&gt;22 -->
<g id="edge102" class="edge">
<title>2&#45;&gt;22</title>
<path fill="none" stroke="black" d="M2051.65,-323.43C2059.09,-352.85 2072.14,-415.19 2065,-467.65 2041.68,-639.03 1997.36,-673.56 1961,-842.65 1937.75,-950.79 1921,-1081.45 1914.27,-1138.19"/>
<polygon fill="black" stroke="black" points="1910.81,-1137.61 1913.12,-1147.95 1917.76,-1138.42 1910.81,-1137.61"/>
<text xml:space="preserve" text-anchor="middle" x="1999.9" y="-722.1" font-family="Times,serif" font-size="14.00">4</text>
</g>
<!-- 25 -->
<g id="node27" class="node">
<title>25</title>
<ellipse fill="none" stroke="black" cx="1166" cy="-1711.3" rx="27" ry="18"/>
<text xml:space="preserve" text-anchor="middle" x="1166" y="-1706.63" font-family="Times,serif" font-size="14.00">25</text>
</g>
<!-- 2&#45;&gt;25 -->
<g id="edge62" class="edge">
<title>2&#45;&gt;25</title>
<path fill="none" stroke="black" d="M2019.69,-306.42C1907.69,-306.53 1483.43,-309.1 1354,-341.45 1318.27,-350.38 1305.11,-350.72 1279,-376.7 1191.02,-464.27 1197.91,-511.03 1159,-628.9 1133.66,-705.67 1131.81,-726.94 1124,-807.4 1119,-858.9 1146.08,-868.2 1165,-916.35 1171.05,-931.76 1172.59,-935.65 1177,-951.6 1196.75,-1023 1204.18,-1040.89 1212,-1114.55 1224.93,-1236.34 1202,-1267.46 1202,-1389.93 1202,-1619.05 1202,-1619.05 1202,-1619.05 1202,-1642.4 1191.68,-1666.91 1182.09,-1684.64"/>
<polygon fill="black" stroke="black" points="1179.27,-1682.51 1177.36,-1692.93 1185.35,-1685.98 1179.27,-1682.51"/>
<text xml:space="preserve" text-anchor="middle" x="1205.75" y="-1029.25" font-family="Times,serif" font-size="14.00">0</text>
</g>
<!-- 3&#45;&gt;1 -->
<g id="edge15" class="edge">
<title>3&#45;&gt;1</title>
<path fill="none" stroke="black" d="M1640.46,-2289.35C1636.52,-2295.85 1632.29,-2303.37 1629,-2310.5 1625.39,-2318.32 1622.1,-2327.07 1619.35,-2335.15"/>
<polygon fill="black" stroke="black" points="1616.07,-2333.91 1616.31,-2344.51 1622.73,-2336.08 1616.07,-2333.91"/>
<text xml:space="preserve" text-anchor="middle" x="1633.5" y="-2314.45" font-family="Times,serif" font-size="14.00">2</text>
</g>
<!-- 3&#45;&gt;9 -->
<g id="edge38" class="edge">
<title>3&#45;&gt;9</title>
<path fill="none" stroke="black" d="M1669.45,-2256.5C1704.48,-2230.04 1785.12,-2167.22 1845,-2106 1910.18,-2039.38 1923.42,-2019.31 1977,-1943.05 2056.96,-1829.25 2080.25,-1801.37 2139,-1675.3 2201.49,-1541.22 2160.48,-1355.58 2141.32,-1285.93"/>
<polygon fill="black" stroke="black" points="2144.74,-1285.17 2138.65,-1276.5 2138,-1287.07 2144.74,-1285.17"/>
<text xml:space="preserve" text-anchor="middle" x="2108.26" y="-1751.25" font-family="Times,serif" font-size="14.00">1</text>
</g>
<!-- 3&#45;&gt;13 -->
<g id="edge27" class="edge">
<title>3&#45;&gt;13</title>
<path fill="none" stroke="black" d="M1630.16,-2267.49C1477.67,-2252.92 574.39,-2158.04 435,-1943.05 277.69,-1700.42 550,-1591.84 550,-1302.68 550,-1302.68 550,-1302.68 550,-1122.18 550,-1068.21 601.38,-1024.4 637.18,-1000.42"/>
<polygon fill="black" stroke="black" points="639.04,-1003.38 645.53,-995.01 635.24,-997.51 639.04,-1003.38"/>
<text xml:space="preserve" text-anchor="middle" x="461.37" y="-1613.38" font-family="Times,serif" font-size="14.00">3</text>
</g>
<!-- 3&#45;&gt;22 -->
<g id="edge122" class="edge">
<title>3&#45;&gt;22</title>
<path fill="none" stroke="black" d="M1659.75,-2249.48C1680.35,-2195.36 1736.68,-2041.2 1763,-1907.8 1784.58,-1798.44 1771.32,-1768.55 1786,-1658.05 1802.38,-1534.74 1808.76,-1504.11 1834,-1382.3 1847.32,-1318.02 1845.03,-1299.76 1870,-1239.05 1876.4,-1223.49 1885.72,-1207.2 1893.86,-1194.23"/>
<polygon fill="black" stroke="black" points="1896.77,-1196.18 1899.24,-1185.88 1890.88,-1192.39 1896.77,-1196.18"/>
<text xml:space="preserve" text-anchor="middle" x="1786.41" y="-1706.63" font-family="Times,serif" font-size="14.00">0</text>
</g>
<!-- 27 -->
<g id="node29" class="node">
<title>27</title>
<ellipse fill="none" stroke="black" cx="1216" cy="-2177.25" rx="27" ry="18"/>
<text xml:space="preserve" text-anchor="middle" x="1216" y="-2172.58" font-family="Times,serif" font-size="14.00">27</text>
</g>
<!-- 3&#45;&gt;27 -->
<g id="edge66" class="edge">
<title>3&#45;&gt;27</title>
<path fill="none" stroke="black" d="M1630.38,-2264.98C1560.57,-2250.37 1340.65,-2204.34 1252.79,-2185.95"/>
<polygon fill="black" stroke="black" points="1253.77,-2182.58 1243.26,-2183.96 1252.33,-2189.43 1253.77,-2182.58"/>
<text xml:space="preserve" text-anchor="middle" x="1464.6" y="-2217.2" font-family="Times,serif" font-size="14.00">4</text>
</g>
<!-- 4 -->
<g id="node6" class="node">
<title>4</title>
<ellipse fill="none" stroke="black" cx="1026" cy="-1618.05" rx="18" ry="18"/>
<ellipse fill="none" stroke="black" cx="1026" cy="-1618.05" rx="22" ry="22"/>
<text xml:space="preserve" text-anchor="middle" x="1026" y="-1613.38" font-family="Times,serif" font-size="14.00">4</text>
</g>
<!-- 4&#45;&gt;0 -->
<g id="edge58" class="edge">
<title>4&#45;&gt;0</title>
<path fill="none" stroke="black" d="M1021.94,-1639.77C1009.32,-1704 971.14,-1896.17 964,-1907.8 910.72,-1994.56 875.78,-2003.99 786,-2052 573,-2165.91 476.07,-2092.28 267,-2213.25 214.13,-2243.84 149.37,-2283.06 191,-2327.75 311.64,-2457.26 1655.96,-2454.02 1902.34,-2452.33"/>
<polygon fill="black" stroke="black" points="1902.06,-2455.83 1912.04,-2452.26 1902.01,-2448.83 1902.06,-2455.83"/>
<text xml:space="preserve" text-anchor="middle" x="822.83" y="-2038.7" font-family="Times,serif" font-size="14.00">0</text>
</g>
<!-- 4&#45;&gt;3 -->
<g id="edge97" class="edge">
<title>4&#45;&gt;3</title>
<path fill="none" stroke="black" d="M1032.77,-1639.25C1037.28,-1650.67 1044.03,-1664.73 1053,-1675.3 1080.03,-1707.18 1092.69,-1710.45 1130,-1729.3 1365.01,-1848.08 1633,-1779.06 1633,-2042.38 1633,-2178.25 1633,-2178.25 1633,-2178.25 1633,-2198.56 1637.57,-2220.89 1642.22,-2238.38"/>
<polygon fill="black" stroke="black" points="1638.75,-2238.97 1644.84,-2247.64 1645.49,-2237.07 1638.75,-2238.97"/>
<text xml:space="preserve" text-anchor="middle" x="1618.64" y="-1929.75" font-family="Times,serif" font-size="14.00">4</text>
</g>
<!-- 4&#45;&gt;13 -->
<g id="edge134" class="edge">
<title>4&#45;&gt;13</title>
<path fill="none" stroke="black" d="M1015.74,-1598.08C990.71,-1551.84 924.43,-1429.66 868,-1328.3 803.54,-1212.51 725.63,-1075.92 690.21,-1013.99"/>
<polygon fill="black" stroke="black" points="693.25,-1012.26 685.25,-1005.32 687.18,-1015.74 693.25,-1012.26"/>
<text xml:space="preserve" text-anchor="middle" x="861.66" y="-1297" font-family="Times,serif" font-size="14.00">1</text>
</g>
<!-- 15 -->
<g id="node17" class="node">
<title>15</title>
<ellipse fill="none" stroke="black" cx="1476" cy="-1524.8" rx="27" ry="18"/>
<text xml:space="preserve" text-anchor="middle" x="1476" y="-1520.13" font-family="Times,serif" font-size="14.00">15</text>
</g>
<!-- 4&#45;&gt;15 -->
<g id="edge142" class="edge">
<title>4&#45;&gt;15</title>
<path fill="none" stroke="black" d="M1044.06,-1604.82C1049.61,-1601.53 1055.88,-1598.27 1062,-1596.05 1194.54,-1547.96 1363.11,-1532.44 1437.62,-1527.72"/>
<polygon fill="black" stroke="black" points="1437.47,-1531.24 1447.24,-1527.15 1437.05,-1524.25 1437.47,-1531.24"/>
<text xml:space="preserve" text-anchor="middle" x="1188.24" y="-1564.75" font-family="Times,serif" font-size="14.00">2</text>
</g>
<!-- 28 -->
<g id="node30" class="node">
<title>28</title>
<ellipse fill="none" stroke="black" cx="786" cy="-1988.9" rx="23.85" ry="23.85"/>
<ellipse fill="none" stroke="black" cx="786" cy="-1988.9" rx="27.85" ry="27.85"/>
<text xml:space="preserve" text-anchor="middle" x="786" y="-1984.23" font-family="Times,serif" font-size="14.00">28</text>
</g>
<!-- 4&#45;&gt;28 -->
<g id="edge73" class="edge">
<title>4&#45;&gt;28</title>
<path fill="none" stroke="black" d="M1006.4,-1628.58C993.73,-1635.45 977.51,-1645.69 966,-1658.05 881.53,-1748.78 823.29,-1886.54 798.88,-1951.53"/>
<polygon fill="black" stroke="black" points="795.7,-1950.05 795.51,-1960.64 802.26,-1952.48 795.7,-1950.05"/>
<text xml:space="preserve" text-anchor="middle" x="881.43" y="-1795.88" font-family="Times,serif" font-size="14.00">3</text>
</g>
<!-- 5 -->
<g id="node7" class="node">
<title>5</title>
<ellipse fill="none" stroke="black" cx="1026" cy="-2088" rx="27" ry="18"/>
<text xml:space="preserve" text-anchor="middle" x="1026" y="-2083.33" font-family="Times,serif" font-size="14.00">5</text>
</g>
<!-- 5&#45;&gt;1 -->
<g id="edge50" class="edge">
<title>5&#45;&gt;1</title>
<path fill="none" stroke="black" d="M1042.68,-2102.56C1070.04,-2124.31 1126.76,-2167.39 1180,-2195.25 1320.72,-2268.91 1501.35,-2328.76 1576.16,-2352.15"/>
<polygon fill="black" stroke="black" points="1574.79,-2355.39 1585.38,-2355.01 1576.87,-2348.71 1574.79,-2355.39"/>
<text xml:space="preserve" text-anchor="middle" x="1254.18" y="-2217.2" font-family="Times,serif" font-size="14.00">4</text>
</g>
<!-- 17 -->
<g id="node19" class="node">
<title>17</title>
<ellipse fill="none" stroke="black" cx="981" cy="-1078.55" rx="27" ry="18"/>
<text xml:space="preserve" text-anchor="middle" x="981" y="-1073.88" font-family="Times,serif" font-size="14.00">17</text>
</g>
<!-- 5&#45;&gt;17 -->
<g id="edge135" class="edge">
<title>5&#45;&gt;17</title>
<path fill="none" stroke="black" d="M1024.65,-2069.88C1020.63,-2018.39 1008.44,-1860.41 1000,-1729.3 984.57,-1489.47 981.66,-1199.02 981.12,-1108.14"/>
<polygon fill="black" stroke="black" points="984.62,-1108.39 981.07,-1098.41 977.62,-1108.42 984.62,-1108.39"/>
<text xml:space="preserve" text-anchor="middle" x="996.48" y="-1564.75" font-family="Times,serif" font-size="14.00">3</text>
</g>
<!-- 5&#45;&gt;19 -->
<g id="edge96" class="edge">
<title>5&#45;&gt;19</title>
<path fill="none" stroke="black" d="M1050.44,-2080.2C1075.65,-2073.17 1116.08,-2061.87 1151,-2052 1369.46,-1990.27 1435.52,-2004.31 1641,-1907.8 1775.6,-1844.58 1811.31,-1826.33 1924,-1729.3 2004.72,-1659.81 2169.83,-1416.66 2178,-1399.55 2293.38,-1158.02 2331,-1084.71 2331,-817.03 2331,-817.03 2331,-817.03 2331,-636.53 2331,-556.28 2293,-540.27 2293,-460.03 2293,-460.03 2293,-460.03 2293,-304.45 2293,-281.08 2280.09,-257.72 2268.11,-241.06"/>
<polygon fill="black" stroke="black" points="2271.02,-239.11 2262.18,-233.28 2265.45,-243.36 2271.02,-239.11"/>
<text xml:space="preserve" text-anchor="middle" x="2292.16" y="-1163.13" font-family="Times,serif" font-size="14.00">2</text>
</g>
<!-- 5&#45;&gt;25 -->
<g id="edge131" class="edge">
<title>5&#45;&gt;25</title>
<path fill="none" stroke="black" d="M1051.68,-2081.53C1092.09,-2071.25 1166,-2044.92 1166,-1989.9 1166,-1989.9 1166,-1989.9 1166,-1799.55 1166,-1780.05 1166,-1758.1 1166,-1741.09"/>
<polygon fill="black" stroke="black" points="1169.5,-1741.2 1166,-1731.2 1162.5,-1741.2 1169.5,-1741.2"/>
<text xml:space="preserve" text-anchor="middle" x="1170.5" y="-1885.13" font-family="Times,serif" font-size="14.00">0</text>
</g>
<!-- 5&#45;&gt;28 -->
<g id="edge143" class="edge">
<title>5&#45;&gt;28</title>
<path fill="none" stroke="black" d="M1004.08,-2077.29C979.74,-2066.58 939.25,-2048.99 904,-2034.75 876.81,-2023.77 845.81,-2012.01 822.4,-2003.29"/>
<polygon fill="black" stroke="black" points="823.91,-2000.12 813.32,-1999.92 821.48,-2006.68 823.91,-2000.12"/>
<text xml:space="preserve" text-anchor="middle" x="948.95" y="-2038.7" font-family="Times,serif" font-size="14.00">1</text>
</g>
<!-- 6&#45;&gt;1 -->
<g id="edge111" class="edge">
<title>6&#45;&gt;1</title>
<path fill="none" stroke="black" d="M458.77,-127.08C400.92,-126.78 271,-135.04 271,-215.2 271,-817.03 271,-817.03 271,-817.03 271,-904.14 286.31,-946.43 224,-1007.3 197.62,-1033.07 176.16,-1009.17 143,-1025.3 120.78,-1036.11 111.28,-1038.57 100,-1060.55 -99.35,-1448.93 129,-1605.82 129,-2042.38 129,-2222.88 129,-2222.88 129,-2222.88 129,-2282.88 160.17,-2301.26 214,-2327.75 276.56,-2358.54 1353.45,-2362.26 1572.36,-2362.7"/>
<polygon fill="black" stroke="black" points="1572.32,-2366.2 1582.33,-2362.71 1572.33,-2359.2 1572.32,-2366.2"/>
<text xml:space="preserve" text-anchor="middle" x="36.73" y="-1252.38" font-family="Times,serif" font-size="14.00">0</text>
</g>
<!-- 6&#45;&gt;4 -->
<g id="edge56" class="edge">
<title>6&#45;&gt;4</title>
<path fill="none" stroke="black" d="M487.15,-145.12C490.34,-194.01 499,-338.17 499,-458.03 499,-772.4 499,-772.4 499,-772.4 499,-1016.08 560.56,-1089.05 718,-1275.05 834.34,-1412.5 863.5,-1446.99 987,-1578.05 992,-1583.36 997.47,-1588.96 1002.7,-1594.2"/>
<polygon fill="black" stroke="black" points="999.97,-1596.43 1009.53,-1601 1004.91,-1591.47 999.97,-1596.43"/>
<text xml:space="preserve" text-anchor="middle" x="510.75" y="-865.83" font-family="Times,serif" font-size="14.00">3</text>
</g>
<!-- 18 -->
<g id="node20" class="node">
<title>18</title>
<ellipse fill="none" stroke="black" cx="646" cy="-27.85" rx="23.85" ry="23.85"/>
<ellipse fill="none" stroke="black" cx="646" cy="-27.85" rx="27.85" ry="27.85"/>
<text xml:space="preserve" text-anchor="middle" x="646" y="-23.18" font-family="Times,serif" font-size="14.00">18</text>
</g>
<!-- 6&#45;&gt;18 -->
<g id="edge22" class="edge">
<title>6&#45;&gt;18</title>
<path fill="none" stroke="black" d="M505.62,-114.04C532.31,-97.84 580.45,-68.63 612.82,-48.99"/>
<polygon fill="black" stroke="black" points="614.29,-52.19 621.02,-44.01 610.66,-46.2 614.29,-52.19"/>
<text xml:space="preserve" text-anchor="middle" x="575.3" y="-77.65" font-family="Times,serif" font-size="14.00">4</text>
</g>
<!-- 24 -->
<g id="node26" class="node">
<title>24</title>
<ellipse fill="none" stroke="black" cx="634" cy="-1889.8" rx="27" ry="18"/>
<text xml:space="preserve" text-anchor="middle" x="634" y="-1885.13" font-family="Times,serif" font-size="14.00">24</text>
</g>
<!-- 6&#45;&gt;24 -->
<g id="edge55" class="edge">
<title>6&#45;&gt;24</title>
<path fill="none" stroke="black" d="M468.45,-140.94C449.81,-156.38 423,-184 423,-215.2 423,-925.98 423,-925.98 423,-925.98 423,-1057.15 413.29,-1090.82 429,-1221.05 436.81,-1285.82 444.26,-1301.25 461,-1364.3 485.37,-1456.07 524,-1473.48 524,-1568.43 524,-1801.55 524,-1801.55 524,-1801.55 524,-1840.53 566.93,-1864.86 599.15,-1877.63"/>
<polygon fill="black" stroke="black" points="597.58,-1880.78 608.17,-1880.99 600.02,-1874.22 597.58,-1880.78"/>
<text xml:space="preserve" text-anchor="middle" x="425.74" y="-1029.25" font-family="Times,serif" font-size="14.00">2</text>
</g>
<!-- 29 -->
<g id="node31" class="node">
<title>29</title>
<ellipse fill="none" stroke="black" cx="1910" cy="-1346.3" rx="27" ry="18"/>
<text xml:space="preserve" text-anchor="middle" x="1910" y="-1341.63" font-family="Times,serif" font-size="14.00">29</text>
</g>
<!-- 6&#45;&gt;29 -->
<g id="edge115" class="edge">
<title>6&#45;&gt;29</title>
<path fill="none" stroke="black" d="M512.76,-130.88C582.52,-138.55 766.49,-158.85 794,-162.95 1208.83,-224.72 1341.92,-282.92 1643,-574.9 1877.83,-802.64 1752.09,-969.92 1870,-1275.05 1876.03,-1290.65 1885.11,-1306.95 1893.1,-1319.91"/>
<polygon fill="black" stroke="black" points="1890.07,-1321.67 1898.38,-1328.24 1895.98,-1317.92 1890.07,-1321.67"/>
<text xml:space="preserve" text-anchor="middle" x="1764.14" y="-722.1" font-family="Times,serif" font-size="14.00">1</text>
</g>
<!-- 7&#45;&gt;0 -->
<g id="edge132" class="edge">
<title>7&#45;&gt;0</title>
<path fill="none" stroke="black" d="M1931.94,-1262.42C1952.62,-1267.03 1981.29,-1276.07 2001,-1293.05 2023.16,-1312.15 2254,-1725.67 2254,-1754.93 2254,-2364.75 2254,-2364.75 2254,-2364.75 2254,-2421.2 2062.73,-2442.71 1979.23,-2449.42"/>
<polygon fill="black" stroke="black" points="1979.17,-2445.91 1969.47,-2450.17 1979.71,-2452.89 1979.17,-2445.91"/>
<text xml:space="preserve" text-anchor="middle" x="2258.5" y="-1840.5" font-family="Times,serif" font-size="14.00">2</text>
</g>
<!-- 8 -->
<g id="node10" class="node">
<title>8</title>
<ellipse fill="none" stroke="black" cx="1672" cy="-1800.55" rx="27" ry="18"/>
<text xml:space="preserve" text-anchor="middle" x="1672" y="-1795.88" font-family="Times,serif" font-size="14.00">8</text>
</g>
<!-- 7&#45;&gt;8 -->
<g id="edge79" class="edge">
<title>7&#45;&gt;8</title>
<path fill="none" stroke="black" d="M1894.26,-1273.33C1877.32,-1296.96 1848,-1344.41 1848,-1389.93 1848,-1570.43 1848,-1570.43 1848,-1570.43 1848,-1646.39 1830.48,-1668.46 1785,-1729.3 1764.79,-1756.34 1730.83,-1775.4 1705.41,-1786.78"/>
<polygon fill="black" stroke="black" points="1704.31,-1783.44 1696.49,-1790.59 1707.06,-1789.88 1704.31,-1783.44"/>
<text xml:space="preserve" text-anchor="middle" x="1852.5" y="-1520.13" font-family="Times,serif" font-size="14.00">3</text>
</g>
<!-- 7&#45;&gt;12 -->
<g id="edge88" class="edge">
<title>7&#45;&gt;12</title>
<path fill="none" stroke="black" d="M1888.26,-1243.11C1851.62,-1216.45 1769.88,-1157.27 1756,-1149.8 1698.47,-1118.86 1668.38,-1139.32 1619,-1096.55 1556.13,-1042.1 1559.91,-1009.98 1527,-933.6 1503.77,-879.69 1521.64,-855.51 1488,-807.4 1447.63,-749.66 1418.18,-753.08 1357,-718.15 1285.95,-677.59 1272.59,-657.68 1196,-628.9 1154.8,-613.42 1105,-603.94 1071.58,-598.82"/>
<polygon fill="black" stroke="black" points="1072.39,-595.4 1061.98,-597.41 1071.37,-602.33 1072.39,-595.4"/>
<text xml:space="preserve" text-anchor="middle" x="1531.5" y="-920.3" font-family="Times,serif" font-size="14.00">0</text>
</g>
<!-- 21 -->
<g id="node23" class="node">
<title>21</title>
<ellipse fill="none" stroke="black" cx="1222" cy="-682.15" rx="27" ry="18"/>
<text xml:space="preserve" text-anchor="middle" x="1222" y="-677.48" font-family="Times,serif" font-size="14.00">21</text>
</g>
<!-- 7&#45;&gt;21 -->
<g id="edge32" class="edge">
<title>7&#45;&gt;21</title>
<path fill="none" stroke="black" d="M1878.92,-1254.68C1796.28,-1250.03 1549.11,-1232.42 1486,-1185.8 1400.1,-1122.34 1270.47,-806.18 1232.69,-710.58"/>
<polygon fill="black" stroke="black" points="1236.01,-709.48 1229.1,-701.45 1229.5,-712.04 1236.01,-709.48"/>
<text xml:space="preserve" text-anchor="middle" x="1369" y="-974.78" font-family="Times,serif" font-size="14.00">1</text>
</g>
<!-- 7&#45;&gt;22 -->
<g id="edge9" class="edge">
<title>7&#45;&gt;22</title>
<path fill="none" stroke="black" d="M1911.85,-1239.17C1913.54,-1233.48 1915.16,-1227.06 1916,-1221.05 1917.09,-1213.26 1916.88,-1204.78 1916.12,-1196.97"/>
<polygon fill="black" stroke="black" points="1919.62,-1196.74 1914.83,-1187.29 1912.68,-1197.66 1919.62,-1196.74"/>
<text xml:space="preserve" text-anchor="middle" x="1921.25" y="-1207.75" font-family="Times,serif" font-size="14.00">4</text>
</g>
<!-- 8&#45;&gt;1 -->
<g id="edge113" class="edge">
<title>8&#45;&gt;1</title>
<path fill="none" stroke="black" d="M1686.26,-1815.91C1738.94,-1870.76 1915.78,-2071.96 1841,-2230.5 1805.04,-2306.73 1702.98,-2341.56 1647.68,-2355.22"/>
<polygon fill="black" stroke="black" points="1647.04,-2351.77 1638.11,-2357.47 1648.64,-2358.59 1647.04,-2351.77"/>
<text xml:space="preserve" text-anchor="middle" x="1860.07" y="-2083.33" font-family="Times,serif" font-size="14.00">3</text>
</g>
<!-- 8&#45;&gt;2 -->
<g id="edge98" class="edge">
<title>8&#45;&gt;2</title>
<path fill="none" stroke="black" d="M1662.16,-1783.34C1648.79,-1761.85 1623.61,-1723.16 1598,-1693.3 1534.86,-1619.69 1494.61,-1622.95 1440,-1542.8 1367.65,-1436.63 1363.45,-1399.37 1331,-1275.05 1304.7,-1174.3 1310.59,-1146.33 1302,-1042.55 1299.69,-1014.69 1275.18,-566.77 1282,-539.65 1295.29,-486.82 1315.6,-471.07 1366,-450.4 1598.54,-355.05 1902.73,-319.62 2008.66,-309.68"/>
<polygon fill="black" stroke="black" points="2008.86,-313.18 2018.5,-308.78 2008.22,-306.21 2008.86,-313.18"/>
<text xml:space="preserve" text-anchor="middle" x="1310.27" y="-1073.88" font-family="Times,serif" font-size="14.00">1</text>
</g>
<!-- 8&#45;&gt;8 -->
<g id="edge54" class="edge">
<title>8&#45;&gt;8</title>
<path fill="none" stroke="black" d="M1696.53,-1808.79C1707.51,-1809.57 1717,-1806.83 1717,-1800.55 1717,-1796.63 1713.29,-1794.09 1707.83,-1792.92"/>
<polygon fill="black" stroke="black" points="1708.22,-1789.44 1698.04,-1792.4 1707.84,-1796.43 1708.22,-1789.44"/>
<text xml:space="preserve" text-anchor="middle" x="1721.5" y="-1795.88" font-family="Times,serif" font-size="14.00">2</text>
</g>
<!-- 14 -->
<g id="node16" class="node">
<title>14</title>
<ellipse fill="none" stroke="black" cx="1740" cy="-503.65" rx="27" ry="18"/>
<text xml:space="preserve" text-anchor="middle" x="1740" y="-498.98" font-family="Times,serif" font-size="14.00">14</text>
</g>
<!-- 8&#45;&gt;14 -->
<g id="edge18" class="edge">
<title>8&#45;&gt;14</title>
<path fill="none" stroke="black" d="M1676.97,-1782.67C1681.67,-1765.21 1688,-1737.1 1688,-1712.3 1688,-1712.3 1688,-1712.3 1688,-1568.43 1688,-1505.98 1716.98,-1069.68 1720,-1007.3 1728.74,-826.79 1736.42,-609.68 1739.04,-533.08"/>
<polygon fill="black" stroke="black" points="1742.52,-533.64 1739.37,-523.53 1735.53,-533.41 1742.52,-533.64"/>
<text xml:space="preserve" text-anchor="middle" x="1715.91" y="-1163.13" font-family="Times,serif" font-size="14.00">0</text>
</g>
<!-- 8&#45;&gt;25 -->
<g id="edge150" class="edge">
<title>8&#45;&gt;25</title>
<path fill="none" stroke="black" d="M1645.86,-1795.05C1562.23,-1780.62 1300.98,-1735.58 1203.32,-1718.74"/>
<polygon fill="black" stroke="black" points="1203.92,-1715.29 1193.47,-1717.04 1202.73,-1722.19 1203.92,-1715.29"/>
<text xml:space="preserve" text-anchor="middle" x="1468.82" y="-1751.25" font-family="Times,serif" font-size="14.00">4</text>
</g>
<!-- 9&#45;&gt;2 -->
<g id="edge67" class="edge">
<title>9&#45;&gt;2</title>
<path fill="none" stroke="black" d="M2139.43,-1239.21C2141.29,-1233.53 2143.07,-1227.1 2144,-1221.05 2177.9,-1000.13 2150.2,-941.58 2144,-718.15 2142.9,-678.38 2143.64,-668.13 2137,-628.9 2115.14,-499.76 2125.57,-460.98 2072,-341.45 2070.39,-337.87 2068.39,-334.28 2066.23,-330.84"/>
<polygon fill="black" stroke="black" points="2069.31,-329.14 2060.74,-322.91 2063.55,-333.12 2069.31,-329.14"/>
<text xml:space="preserve" text-anchor="middle" x="2151.35" y="-766.73" font-family="Times,serif" font-size="14.00">1</text>
</g>
<!-- 9&#45;&gt;19 -->
<g id="edge121" class="edge">
<title>9&#45;&gt;19</title>
<path fill="none" stroke="black" d="M2146.61,-1241C2151.22,-1235.15 2155.97,-1228.15 2159,-1221.05 2165.24,-1206.44 2162.53,-1201.5 2165,-1185.8 2209.35,-903.97 2248,-834.57 2248,-549.28 2248,-549.28 2248,-549.28 2248,-304.45 2248,-284.95 2248,-262.99 2248,-245.99"/>
<polygon fill="black" stroke="black" points="2251.5,-246.1 2248,-236.1 2244.5,-246.1 2251.5,-246.1"/>
<text xml:space="preserve" text-anchor="middle" x="2246.66" y="-722.1" font-family="Times,serif" font-size="14.00">3</text>
</g>
<!-- 26 -->
<g id="node28" class="node">
<title>26</title>
<ellipse fill="none" stroke="black" cx="1937" cy="-404.55" rx="23.85" ry="23.85"/>
<ellipse fill="none" stroke="black" cx="1937" cy="-404.55" rx="27.85" ry="27.85"/>
<text xml:space="preserve" text-anchor="middle" x="1937" y="-399.88" font-family="Times,serif" font-size="14.00">26</text>
</g>
<!-- 9&#45;&gt;26 -->
<g id="edge23" class="edge">
<title>9&#45;&gt;26</title>
<path fill="none" stroke="black" d="M2131.84,-1238.88C2128.68,-1192.52 2119.6,-1060.96 2111,-951.6 2109.77,-935.93 2110.65,-931.85 2108,-916.35 2103.49,-889.99 2000.91,-473.25 1987,-450.4 1982.03,-442.24 1975.12,-434.71 1968.02,-428.24"/>
<polygon fill="black" stroke="black" points="1970.74,-425.96 1960.86,-422.14 1966.2,-431.29 1970.74,-425.96"/>
<text xml:space="preserve" text-anchor="middle" x="2090.68" y="-811.35" font-family="Times,serif" font-size="14.00">4</text>
</g>
<!-- 9&#45;&gt;27 -->
<g id="edge118" class="edge">
<title>9&#45;&gt;27</title>
<path fill="none" stroke="black" d="M2125.95,-1274.54C2102.65,-1328.47 2025.01,-1504 1944,-1640.05 1789.09,-1900.21 1694.42,-1931.48 1447,-2106 1424.48,-2121.89 1421.4,-2130.56 1396,-2141.25 1349.53,-2160.81 1291.68,-2169.57 1254.3,-2173.4"/>
<polygon fill="black" stroke="black" points="1254.06,-2169.91 1244.43,-2174.33 1254.72,-2176.87 1254.06,-2169.91"/>
<text xml:space="preserve" text-anchor="middle" x="1915.38" y="-1706.63" font-family="Times,serif" font-size="14.00">0</text>
</g>
<!-- 9&#45;&gt;29 -->
<g id="edge20" class="edge">
<title>9&#45;&gt;29</title>
<path fill="none" stroke="black" d="M2110.1,-1267.01C2070.61,-1282.46 1989.52,-1314.19 1943.62,-1332.15"/>
<polygon fill="black" stroke="black" points="1942.47,-1328.84 1934.43,-1335.74 1945.02,-1335.36 1942.47,-1328.84"/>
<text xml:space="preserve" text-anchor="middle" x="2045.97" y="-1297" font-family="Times,serif" font-size="14.00">2</text>
</g>
<!-- 10&#45;&gt;10 -->
<g id="edge48" class="edge">
<title>10&#45;&gt;10</title>
<path fill="none" stroke="black" d="M842.39,-880.65C852.97,-881.23 861.85,-877.84 861.85,-870.5 861.85,-866.03 858.55,-863.02 853.58,-861.49"/>
<polygon fill="black" stroke="black" points="854.19,-858.03 843.89,-860.5 853.49,-865 854.19,-858.03"/>
<text xml:space="preserve" text-anchor="middle" x="866.35" y="-865.83" font-family="Times,serif" font-size="14.00">3</text>
</g>
<!-- 16 -->
<g id="node18" class="node">
<title>16</title>
<ellipse fill="none" stroke="black" cx="1354" cy="-771.4" rx="27" ry="18"/>
<text xml:space="preserve" text-anchor="middle" x="1354" y="-766.73" font-family="Times,serif" font-size="14.00">16</text>
</g>
<!-- 10&#45;&gt;16 -->
<g id="edge147" class="edge">
<title>10&#45;&gt;16</title>
<path fill="none" stroke="black" d="M843.84,-865.9C924.02,-855.52 1150.27,-826.18 1158,-824.65 1214.94,-813.38 1279.82,-794.96 1318.8,-783.27"/>
<polygon fill="black" stroke="black" points="1319.79,-786.63 1328.34,-780.38 1317.76,-779.93 1319.79,-786.63"/>
<text xml:space="preserve" text-anchor="middle" x="1233.13" y="-811.35" font-family="Times,serif" font-size="14.00">4</text>
</g>
<!-- 10&#45;&gt;24 -->
<g id="edge129" class="edge">
<title>10&#45;&gt;24</title>
<path fill="none" stroke="black" d="M793.96,-887.32C784.49,-895.11 774,-905.23 767,-916.35 609.64,-1166.38 638,-1273 638,-1568.43 638,-1801.55 638,-1801.55 638,-1801.55 638,-1821.08 636.99,-1843.03 635.98,-1860.03"/>
<polygon fill="black" stroke="black" points="632.5,-1859.72 635.36,-1869.92 639.48,-1860.16 632.5,-1859.72"/>
<text xml:space="preserve" text-anchor="middle" x="640.67" y="-1386.25" font-family="Times,serif" font-size="14.00">2</text>
</g>
<!-- 10&#45;&gt;27 -->
<g id="edge127" class="edge">
<title>10&#45;&gt;27</title>
<path fill="none" stroke="black" d="M829.72,-895.28C840.6,-916.41 854,-948.5 854,-978.45 854,-1124.18 854,-1124.18 854,-1124.18 854,-1207.02 858.72,-1227.63 864,-1310.3 865.53,-1334.32 865.39,-1340.38 868,-1364.3 874.92,-1427.82 950,-1869.54 950,-1933.43 950,-2089 950,-2089 950,-2089 950,-2136.52 1105.19,-2162.35 1178.5,-2171.9"/>
<polygon fill="black" stroke="black" points="1177.66,-2175.33 1188.02,-2173.11 1178.54,-2168.38 1177.66,-2175.33"/>
<text xml:space="preserve" text-anchor="middle" x="899.43" y="-1520.13" font-family="Times,serif" font-size="14.00">0</text>
</g>
<!-- 10&#45;&gt;28 -->
<g id="edge83" class="edge">
<title>10&#45;&gt;28</title>
<path fill="none" stroke="black" d="M807.18,-897.41C805.29,-903.57 803.43,-910.15 802,-916.35 764,-1081.36 757.7,-1124.2 745,-1293.05 726.17,-1543.39 764.9,-1845.01 780.17,-1949.83"/>
<polygon fill="black" stroke="black" points="776.68,-1950.17 781.61,-1959.56 783.61,-1949.15 776.68,-1950.17"/>
<text xml:space="preserve" text-anchor="middle" x="744.53" y="-1430.88" font-family="Times,serif" font-size="14.00">1</text>
</g>
<!-- 11&#45;&gt;1 -->
<g id="edge14" class="edge">
<title>11&#45;&gt;1</title>
<path fill="none" stroke="black" d="M635.69,-233.32C632.13,-239.17 628.22,-245.89 625,-252.2 617.27,-267.37 615.04,-271.19 610,-287.45 563.36,-437.88 549,-479.03 549,-636.53 549,-772.4 549,-772.4 549,-772.4 549,-811.25 514.82,-808.13 497,-842.65 474.19,-886.83 232.97,-1645.59 219,-1693.3 212.03,-1717.1 208.14,-1722.71 205,-1747.3 176.77,-1968.7 295.82,-2018.42 432,-2195.25 495.93,-2278.27 524.02,-2308.41 627,-2327.75 813.05,-2362.7 1413.69,-2363.38 1572.3,-2362.92"/>
<polygon fill="black" stroke="black" points="1572.28,-2366.42 1582.27,-2362.89 1572.25,-2359.42 1572.28,-2366.42"/>
<text xml:space="preserve" text-anchor="middle" x="350.17" y="-1297" font-family="Times,serif" font-size="14.00">3</text>
</g>
<!-- 11&#45;&gt;6 -->
<g id="edge86" class="edge">
<title>11&#45;&gt;6</title>
<path fill="none" stroke="black" d="M625.41,-203.97C597.69,-188.86 548.16,-161.85 516.22,-144.43"/>
<polygon fill="black" stroke="black" points="518.29,-141.57 507.84,-139.86 514.94,-147.72 518.29,-141.57"/>
<text xml:space="preserve" text-anchor="middle" x="584.83" y="-166.9" font-family="Times,serif" font-size="14.00">2</text>
</g>
<!-- 11&#45;&gt;7 -->
<g id="edge60" class="edge">
<title>11&#45;&gt;7</title>
<path fill="none" stroke="black" d="M670.35,-224.46C756.39,-250.08 1045.93,-335.88 1140,-358.7 1420.12,-426.65 1511,-372.26 1776,-485.65 1855.54,-519.68 1899,-550.01 1899,-636.53 1899,-817.03 1899,-817.03 1899,-817.03 1899,-965.31 1880.34,-1001.61 1875,-1149.8 1874.42,-1165.79 1871.7,-1170.15 1875,-1185.8 1878.22,-1201.09 1884.99,-1217.1 1891.38,-1229.97"/>
<polygon fill="black" stroke="black" points="1888.16,-1231.36 1895.88,-1238.62 1894.37,-1228.13 1888.16,-1231.36"/>
<text xml:space="preserve" text-anchor="middle" x="1903.5" y="-722.1" font-family="Times,serif" font-size="14.00">4</text>
</g>
<!-- 11&#45;&gt;13 -->
<g id="edge11" class="edge">
<title>11&#45;&gt;13</title>
<path fill="none" stroke="black" d="M653.77,-233.85C661.11,-251.11 671,-279.08 671,-304.45 671,-871.5 671,-871.5 671,-871.5 671,-894.16 671,-919.53 671,-939.86"/>
<polygon fill="black" stroke="black" points="667.5,-939.68 671,-949.68 674.5,-939.68 667.5,-939.68"/>
<text xml:space="preserve" text-anchor="middle" x="675.5" y="-588.23" font-family="Times,serif" font-size="14.00">1</text>
</g>
<!-- 11&#45;&gt;18 -->
<g id="edge46" class="edge">
<title>11&#45;&gt;18</title>
<path fill="none" stroke="black" d="M646,-198C646,-168.54 646,-107.73 646,-67.62"/>
<polygon fill="black" stroke="black" points="649.5,-67.66 646,-57.66 642.5,-67.66 649.5,-67.66"/>
<text xml:space="preserve" text-anchor="middle" x="650.5" y="-122.28" font-family="Times,serif" font-size="14.00">0</text>
</g>
<!-- 12&#45;&gt;6 -->
<g id="edge149" class="edge">
<title>12&#45;&gt;6</title>
<path fill="none" stroke="black" d="M1012.1,-582.14C963.36,-559.82 843.41,-501.61 757,-432.4 705.7,-391.31 700.86,-372.4 657,-323.45 601.8,-261.84 537.9,-188.14 506.11,-151.31"/>
<polygon fill="black" stroke="black" points="508.92,-149.2 499.74,-143.92 503.62,-153.78 508.92,-149.2"/>
<text xml:space="preserve" text-anchor="middle" x="690.71" y="-345.4" font-family="Times,serif" font-size="14.00">0</text>
</g>
<!-- 12&#45;&gt;10 -->
<g id="edge39" class="edge">
<title>12&#45;&gt;10</title>
<path fill="none" stroke="black" d="M1021.95,-609.13C987.16,-653.12 886.03,-780.97 839.69,-839.55"/>
<polygon fill="black" stroke="black" points="837.14,-837.13 833.68,-847.15 842.63,-841.47 837.14,-837.13"/>
<text xml:space="preserve" text-anchor="middle" x="939.55" y="-722.1" font-family="Times,serif" font-size="14.00">3</text>
</g>
<!-- 12&#45;&gt;12 -->
<g id="edge2" class="edge">
<title>12&#45;&gt;12</title>
<path fill="none" stroke="black" d="M1058.53,-601.14C1069.51,-601.92 1079,-599.18 1079,-592.9 1079,-588.98 1075.29,-586.44 1069.83,-585.27"/>
<polygon fill="black" stroke="black" points="1070.22,-581.79 1060.04,-584.75 1069.84,-588.78 1070.22,-581.79"/>
<text xml:space="preserve" text-anchor="middle" x="1083.5" y="-588.23" font-family="Times,serif" font-size="14.00">2</text>
</g>
<!-- 12&#45;&gt;21 -->
<g id="edge4" class="edge">
<title>12&#45;&gt;21</title>
<path fill="none" stroke="black" d="M1055.89,-604.06C1089.06,-619.46 1152.22,-648.77 1190.38,-666.48"/>
<polygon fill="black" stroke="black" points="1188.52,-669.47 1199.06,-670.51 1191.46,-663.12 1188.52,-669.47"/>
<text xml:space="preserve" text-anchor="middle" x="1149.34" y="-632.85" font-family="Times,serif" font-size="14.00">4</text>
</g>
<!-- 23 -->
<g id="node25" class="node">
<title>23</title>
<ellipse fill="none" stroke="black" cx="1603" cy="-1435.55" rx="27" ry="18"/>
<text xml:space="preserve" text-anchor="middle" x="1603" y="-1430.88" font-family="Times,serif" font-size="14.00">23</text>
</g>
<!-- 12&#45;&gt;23 -->
<g id="edge95" class="edge">
<title>12&#45;&gt;23</title>
<path fill="none" stroke="black" d="M1043.51,-609.74C1086.83,-681.65 1270.59,-984.11 1438,-1221.05 1488.05,-1291.89 1552.02,-1371.94 1583.58,-1410.83"/>
<polygon fill="black" stroke="black" points="1580.55,-1412.64 1589.57,-1418.18 1585.98,-1408.22 1580.55,-1412.64"/>
<text xml:space="preserve" text-anchor="middle" x="1320.84" y="-1029.25" font-family="Times,serif" font-size="14.00">1</text>
</g>
<!-- 13&#45;&gt;0 -->
<g id="edge99" class="edge">
<title>13&#45;&gt;0</title>
<path fill="none" stroke="black" d="M643.89,-987.39C620.04,-994.37 585.14,-1006.77 559,-1025.3 516.02,-1055.77 509.04,-1069.95 481,-1114.55 465.51,-1139.18 286.27,-1569.23 275,-1596.05 273.7,-1599.14 91,-2039.03 91,-2042.38 91,-2364.75 91,-2364.75 91,-2364.75 91,-2458.81 1637.07,-2453.82 1902.46,-2452.26"/>
<polygon fill="black" stroke="black" points="1902.28,-2455.77 1912.26,-2452.2 1902.24,-2448.77 1902.28,-2455.77"/>
<text xml:space="preserve" text-anchor="middle" x="238.69" y="-1706.63" font-family="Times,serif" font-size="14.00">1</text>
</g>
<!-- 13&#45;&gt;8 -->
<g id="edge108" class="edge">
<title>13&#45;&gt;8</title>
<path fill="none" stroke="black" d="M674.14,-1007.44C685.27,-1093.41 729.41,-1365.61 859,-1542.8 1005.15,-1742.64 1124.54,-1732.31 1370,-1764.55 1464.78,-1777 1576.61,-1789.35 1633.93,-1795.52"/>
<polygon fill="black" stroke="black" points="1633.48,-1798.99 1643.8,-1796.57 1634.23,-1792.03 1633.48,-1798.99"/>
<text xml:space="preserve" text-anchor="middle" x="782.44" y="-1386.25" font-family="Times,serif" font-size="14.00">4</text>
</g>
<!-- 13&#45;&gt;10 -->
<g id="edge8" class="edge">
<title>13&#45;&gt;10</title>
<path fill="none" stroke="black" d="M688.08,-957.17C699.13,-944.31 714.32,-928.17 730,-916.35 745.33,-904.8 764.07,-894.64 780.13,-886.92"/>
<polygon fill="black" stroke="black" points="781.28,-890.25 788.87,-882.85 778.33,-883.9 781.28,-890.25"/>
<text xml:space="preserve" text-anchor="middle" x="734.5" y="-920.3" font-family="Times,serif" font-size="14.00">0</text>
</g>
<!-- 13&#45;&gt;11 -->
<g id="edge114" class="edge">
<title>13&#45;&gt;11</title>
<path fill="none" stroke="black" d="M649.02,-961.76C626.57,-942.65 595,-909.09 595,-871.5 595,-871.5 595,-871.5 595,-458.03 595,-379.37 621.36,-289.33 636.18,-244.94"/>
<polygon fill="black" stroke="black" points="639.45,-246.19 639.36,-235.6 632.82,-243.94 639.45,-246.19"/>
<text xml:space="preserve" text-anchor="middle" x="599.5" y="-588.23" font-family="Times,serif" font-size="14.00">2</text>
</g>
<!-- 13&#45;&gt;24 -->
<g id="edge42" class="edge">
<title>13&#45;&gt;24</title>
<path fill="none" stroke="black" d="M662.2,-1006.2C648.6,-1047.36 622.87,-1130.81 612,-1203.8 591.03,-1344.57 600,-1381.48 600,-1523.8 600,-1801.55 600,-1801.55 600,-1801.55 600,-1823.36 609.34,-1846.27 618.23,-1863.14"/>
<polygon fill="black" stroke="black" points="614.95,-1864.45 622.88,-1871.48 621.06,-1861.04 614.95,-1864.45"/>
<text xml:space="preserve" text-anchor="middle" x="603.81" y="-1430.88" font-family="Times,serif" font-size="14.00">3</text>
</g>
<!-- 14&#45;&gt;7 -->
<g id="edge5" class="edge">
<title>14&#45;&gt;7</title>
<path fill="none" stroke="black" d="M1765.37,-510.74C1800.85,-520.95 1861,-545.15 1861,-591.9 1861,-772.4 1861,-772.4 1861,-772.4 1861,-944.43 1927.77,-978.85 1947,-1149.8 1948.79,-1165.7 1950.56,-1170.2 1947,-1185.8 1943.12,-1202.76 1938.72,-1206 1930,-1221.05 1928.12,-1224.3 1926.03,-1227.65 1923.9,-1230.92"/>
<polygon fill="black" stroke="black" points="1921.07,-1228.86 1918.36,-1239.1 1926.87,-1232.78 1921.07,-1228.86"/>
<text xml:space="preserve" text-anchor="middle" x="1880.44" y="-865.83" font-family="Times,serif" font-size="14.00">3</text>
</g>
<!-- 20 -->
<g id="node22" class="node">
<title>20</title>
<ellipse fill="none" stroke="black" cx="1607" cy="-592.9" rx="27" ry="18"/>
<text xml:space="preserve" text-anchor="middle" x="1607" y="-588.23" font-family="Times,serif" font-size="14.00">20</text>
</g>
<!-- 14&#45;&gt;20 -->
<g id="edge123" class="edge">
<title>14&#45;&gt;20</title>
<path fill="none" stroke="black" d="M1714.69,-510.52C1695.39,-515.88 1668.83,-525.18 1649,-539.65 1639.09,-546.88 1630.22,-557.01 1623.22,-566.43"/>
<polygon fill="black" stroke="black" points="1620.37,-564.4 1617.5,-574.6 1626.1,-568.42 1620.37,-564.4"/>
<text xml:space="preserve" text-anchor="middle" x="1653.5" y="-543.6" font-family="Times,serif" font-size="14.00">0</text>
</g>
<!-- 14&#45;&gt;22 -->
<g id="edge77" class="edge">
<title>14&#45;&gt;22</title>
<path fill="none" stroke="black" d="M1746.98,-521.26C1756.66,-544.83 1774.19,-589.52 1785,-628.9 1845.47,-849.27 1811.87,-917.8 1892,-1131.8 1893.1,-1134.74 1894.4,-1137.73 1895.81,-1140.67"/>
<polygon fill="black" stroke="black" points="1892.7,-1142.28 1900.43,-1149.52 1898.91,-1139.04 1892.7,-1142.28"/>
<text xml:space="preserve" text-anchor="middle" x="1828.25" y="-811.35" font-family="Times,serif" font-size="14.00">1</text>
</g>
<!-- 14&#45;&gt;25 -->
<g id="edge70" class="edge">
<title>14&#45;&gt;25</title>
<path fill="none" stroke="black" d="M1718.57,-515.05C1713.23,-517.42 1707.47,-519.78 1702,-521.65 1669.97,-532.61 1659.23,-526.59 1628,-539.65 1533.14,-579.34 1482.15,-573.83 1433,-664.15 1408.81,-708.61 1474,-719.79 1474,-770.4 1474,-925.98 1474,-925.98 1474,-925.98 1474,-1091.01 1328.73,-1485.82 1270,-1640.05 1263.81,-1656.31 1265.7,-1663.42 1253,-1675.3 1238.95,-1688.44 1219.35,-1696.9 1202.3,-1702.21"/>
<polygon fill="black" stroke="black" points="1201.68,-1698.75 1193.01,-1704.85 1203.59,-1705.49 1201.68,-1698.75"/>
<text xml:space="preserve" text-anchor="middle" x="1447.78" y="-1118.5" font-family="Times,serif" font-size="14.00">4</text>
</g>
<!-- 14&#45;&gt;26 -->
<g id="edge19" class="edge">
<title>14&#45;&gt;26</title>
<path fill="none" stroke="black" d="M1761.08,-492.26C1794.7,-475.69 1860.84,-443.09 1901.75,-422.93"/>
<polygon fill="black" stroke="black" points="1903.29,-426.07 1910.71,-418.51 1900.19,-419.79 1903.29,-426.07"/>
<text xml:space="preserve" text-anchor="middle" x="1848.91" y="-454.35" font-family="Times,serif" font-size="14.00">2</text>
</g>
<!-- 15&#45;&gt;1 -->
<g id="edge91" class="edge">
<title>15&#45;&gt;1</title>
<path fill="none" stroke="black" d="M1481.45,-1542.84C1493.02,-1580.61 1519,-1674.39 1519,-1754.93 1519,-1935.43 1519,-1935.43 1519,-1935.43 1519,-1940.54 1584.21,-2239.95 1604.83,-2334.48"/>
<polygon fill="black" stroke="black" points="1601.35,-2334.94 1606.9,-2343.96 1608.19,-2333.45 1601.35,-2334.94"/>
<text xml:space="preserve" text-anchor="middle" x="1524.73" y="-1929.75" font-family="Times,serif" font-size="14.00">2</text>
</g>
<!-- 15&#45;&gt;9 -->
<g id="edge138" class="edge">
<title>15&#45;&gt;9</title>
<path fill="none" stroke="black" d="M1500.65,-1516.74C1571.21,-1496.23 1779.61,-1433.75 1946,-1364.3 1995.52,-1343.63 2007.53,-1337.15 2054,-1310.3 2071.64,-1300.11 2090.7,-1287.55 2105.68,-1277.3"/>
<polygon fill="black" stroke="black" points="2107.4,-1280.37 2113.64,-1271.8 2103.42,-1274.61 2107.4,-1280.37"/>
<text xml:space="preserve" text-anchor="middle" x="1902.56" y="-1386.25" font-family="Times,serif" font-size="14.00">0</text>
</g>
<!-- 15&#45;&gt;13 -->
<g id="edge105" class="edge">
<title>15&#45;&gt;13</title>
<path fill="none" stroke="black" d="M1455.47,-1512.66C1444.49,-1506.29 1431.01,-1497.8 1420,-1488.8 1360.98,-1440.55 1354.3,-1419.77 1302,-1364.3 1270.25,-1330.63 1056.9,-1083.99 1017,-1060.55 917.2,-1001.93 777.71,-986.21 710.4,-982"/>
<polygon fill="black" stroke="black" points="710.78,-978.51 700.6,-981.44 710.38,-985.5 710.78,-978.51"/>
<text xml:space="preserve" text-anchor="middle" x="1226.46" y="-1252.38" font-family="Times,serif" font-size="14.00">3</text>
</g>
<!-- 15&#45;&gt;20 -->
<g id="edge85" class="edge">
<title>15&#45;&gt;20</title>
<path fill="none" stroke="black" d="M1487.82,-1508.45C1508.32,-1481.05 1550.44,-1421.25 1573,-1364.3 1654.13,-1159.5 1626,-1091.79 1626,-871.5 1626,-871.5 1626,-871.5 1626,-681.15 1626,-660.87 1621.04,-638.54 1616.19,-621.54"/>
<polygon fill="black" stroke="black" points="1619.6,-620.72 1613.35,-612.17 1612.9,-622.75 1619.6,-620.72"/>
<text xml:space="preserve" text-anchor="middle" x="1635.22" y="-1073.88" font-family="Times,serif" font-size="14.00">1</text>
</g>
<!-- 15&#45;&gt;23 -->
<g id="edge120" class="edge">
<title>15&#45;&gt;23</title>
<path fill="none" stroke="black" d="M1490.19,-1509.4C1501.64,-1498.24 1518.51,-1482.83 1535,-1471.55 1546.07,-1463.98 1559,-1456.93 1570.6,-1451.17"/>
<polygon fill="black" stroke="black" points="1571.92,-1454.42 1579.41,-1446.92 1568.88,-1448.11 1571.92,-1454.42"/>
<text xml:space="preserve" text-anchor="middle" x="1539.5" y="-1475.5" font-family="Times,serif" font-size="14.00">4</text>
</g>
<!-- 16&#45;&gt;15 -->
<g id="edge146" class="edge">
<title>16&#45;&gt;15</title>
<path fill="none" stroke="black" d="M1364.28,-788.34C1367.72,-794.17 1371.35,-800.92 1374,-807.4 1399.1,-868.74 1399.22,-886.57 1412,-951.6 1429.13,-1038.78 1429.08,-1061.41 1438,-1149.8 1453.16,-1300.08 1428.21,-1341.59 1462,-1488.8 1462.61,-1491.44 1463.38,-1494.14 1464.25,-1496.81"/>
<polygon fill="black" stroke="black" points="1460.91,-1497.85 1467.69,-1505.99 1467.46,-1495.4 1460.91,-1497.85"/>
<text xml:space="preserve" text-anchor="middle" x="1445.47" y="-1163.13" font-family="Times,serif" font-size="14.00">2</text>
</g>
<!-- 16&#45;&gt;16 -->
<g id="edge51" class="edge">
<title>16&#45;&gt;16</title>
<path fill="none" stroke="black" d="M1378.53,-779.64C1389.51,-780.42 1399,-777.68 1399,-771.4 1399,-767.48 1395.29,-764.94 1389.83,-763.77"/>
<polygon fill="black" stroke="black" points="1390.22,-760.29 1380.04,-763.25 1389.84,-767.28 1390.22,-760.29"/>
<text xml:space="preserve" text-anchor="middle" x="1403.5" y="-766.73" font-family="Times,serif" font-size="14.00">4</text>
</g>
<!-- 16&#45;&gt;21 -->
<g id="edge119" class="edge">
<title>16&#45;&gt;21</title>
<path fill="none" stroke="black" d="M1330.37,-762.27C1314.3,-756.16 1292.96,-746.89 1276,-735.4 1263.97,-727.25 1252.19,-716.31 1242.71,-706.54"/>
<polygon fill="black" stroke="black" points="1245.46,-704.35 1236.07,-699.46 1240.36,-709.14 1245.46,-704.35"/>
<text xml:space="preserve" text-anchor="middle" x="1280.5" y="-722.1" font-family="Times,serif" font-size="14.00">3</text>
</g>
<!-- 16&#45;&gt;25 -->
<g id="edge30" class="edge">
<title>16&#45;&gt;25</title>
<path fill="none" stroke="black" d="M1347.16,-789.26C1329.72,-833.11 1283.48,-954.71 1263,-1060.55 1236.98,-1195.07 1283.86,-1556.28 1216,-1675.3 1211.57,-1683.07 1204.63,-1689.52 1197.32,-1694.67"/>
<polygon fill="black" stroke="black" points="1195.9,-1691.43 1189.29,-1699.71 1199.62,-1697.36 1195.9,-1691.43"/>
<text xml:space="preserve" text-anchor="middle" x="1259.01" y="-1252.38" font-family="Times,serif" font-size="14.00">1</text>
</g>
<!-- 16&#45;&gt;26 -->
<g id="edge82" class="edge">
<title>16&#45;&gt;26</title>
<path fill="none" stroke="black" d="M1349.12,-753.3C1336.16,-703.9 1306.69,-559.77 1380,-485.65 1452.33,-412.53 1782.46,-405.5 1897.4,-405.31"/>
<polygon fill="black" stroke="black" points="1897.26,-408.81 1907.26,-405.32 1897.26,-401.81 1897.26,-408.81"/>
<text xml:space="preserve" text-anchor="middle" x="1341.22" y="-588.23" font-family="Times,serif" font-size="14.00">0</text>
</g>
<!-- 17&#45;&gt;1 -->
<g id="edge43" class="edge">
<title>17&#45;&gt;1</title>
<path fill="none" stroke="black" d="M966.25,-1093.81C951.19,-1109.98 930,-1137.85 930,-1166.8 930,-1302.68 930,-1302.68 930,-1302.68 930,-1395.48 900.25,-1415.1 886,-1506.8 856.09,-1699.28 880.17,-1751.65 844,-1943.05 837.68,-1976.52 845.5,-1991.19 823,-2016.75 809.58,-2032 794.3,-2019.4 781,-2034.75 765.26,-2052.92 767,-2062.96 767,-2087 767,-2271.5 767,-2271.5 767,-2271.5 767,-2353.64 1406.98,-2361.92 1572.37,-2362.69"/>
<polygon fill="black" stroke="black" points="1572.35,-2366.19 1582.36,-2362.73 1572.37,-2359.19 1572.35,-2366.19"/>
<text xml:space="preserve" text-anchor="middle" x="873" y="-1706.63" font-family="Times,serif" font-size="14.00">2</text>
</g>
<!-- 17&#45;&gt;11 -->
<g id="edge141" class="edge">
<title>17&#45;&gt;11</title>
<path fill="none" stroke="black" d="M974.37,-1060.82C958.88,-1022.01 918.67,-923.06 880,-842.65 835.43,-749.97 771,-741.37 771,-638.53 771,-638.53 771,-638.53 771,-304.45 771,-260.92 719.4,-237.31 682.5,-225.99"/>
<polygon fill="black" stroke="black" points="683.63,-222.67 673.05,-223.28 681.7,-229.4 683.63,-222.67"/>
<text xml:space="preserve" text-anchor="middle" x="775.58" y="-632.85" font-family="Times,serif" font-size="14.00">0</text>
</g>
<!-- 17&#45;&gt;13 -->
<g id="edge93" class="edge">
<title>17&#45;&gt;13</title>
<path fill="none" stroke="black" d="M956.67,-1069.93C902.68,-1053.02 772.53,-1012.25 708.23,-992.11"/>
<polygon fill="black" stroke="black" points="709.42,-988.82 698.83,-989.17 707.33,-995.5 709.42,-988.82"/>
<text xml:space="preserve" text-anchor="middle" x="867.38" y="-1029.25" font-family="Times,serif" font-size="14.00">3</text>
</g>
<!-- 17&#45;&gt;22 -->
<g id="edge7" class="edge">
<title>17&#45;&gt;22</title>
<path fill="none" stroke="black" d="M1007.06,-1083.72C1070.62,-1093.73 1238.74,-1119.19 1380,-1131.8 1546.64,-1146.68 1589.21,-1136.68 1756,-1149.8 1796.08,-1152.96 1841.83,-1158.17 1873.18,-1162"/>
<polygon fill="black" stroke="black" points="1872.59,-1165.45 1882.94,-1163.2 1873.44,-1158.5 1872.59,-1165.45"/>
<text xml:space="preserve" text-anchor="middle" x="1384.5" y="-1118.5" font-family="Times,serif" font-size="14.00">4</text>
</g>
<!-- 17&#45;&gt;27 -->
<g id="edge65" class="edge">
<title>17&#45;&gt;27</title>
<path fill="none" stroke="black" d="M986.78,-1096.53C988.59,-1102.22 990.51,-1108.62 992,-1114.55 1053.69,-1360.57 1012.01,-1436.69 1098,-1675.3 1134.75,-1777.3 1216,-1780.39 1216,-1888.8 1216,-2089 1216,-2089 1216,-2089 1216,-2108.51 1216,-2130.46 1216,-2147.47"/>
<polygon fill="black" stroke="black" points="1212.5,-2147.36 1216,-2157.36 1219.5,-2147.36 1212.5,-2147.36"/>
<text xml:space="preserve" text-anchor="middle" x="1090.23" y="-1613.38" font-family="Times,serif" font-size="14.00">1</text>
</g>
<!-- 18&#45;&gt;0 -->
<g id="edge101" class="edge">
<title>18&#45;&gt;0</title>
<path fill="none" stroke="black" d="M674.05,-28.9C889.05,-29.4 2272.13,-34.13 2453,-73.7 2521.39,-88.66 2566,-111.21 2566,-125.95 2566,-2364.75 2566,-2364.75 2566,-2364.75 2566,-2427.85 2495.82,-2404.36 2434,-2417 2267.54,-2451.06 2063.64,-2453.37 1979.8,-2452.67"/>
<polygon fill="black" stroke="black" points="1979.88,-2449.17 1969.84,-2452.57 1979.8,-2456.17 1979.88,-2449.17"/>
<text xml:space="preserve" text-anchor="middle" x="2570.5" y="-1252.38" font-family="Times,serif" font-size="14.00">4</text>
</g>
<!-- 18&#45;&gt;5 -->
<g id="edge112" class="edge">
<title>18&#45;&gt;5</title>
<path fill="none" stroke="black" d="M617.97,-28.36C522.15,-27.12 208.75,-26.82 122,-73.7 96.03,-87.73 81,-96.43 81,-125.95 81,-871.5 81,-871.5 81,-871.5 81,-1105.06 167,-1156.37 167,-1389.93 167,-1667.68 167,-1667.68 167,-1667.68 167,-1818.57 276.81,-1831.52 407,-1907.8 576.72,-2007.24 639.88,-1988.2 831,-2034.75 886.98,-2048.39 951.47,-2066.06 990.46,-2076.96"/>
<polygon fill="black" stroke="black" points="989.44,-2080.3 1000.01,-2079.63 991.33,-2073.56 989.44,-2080.3"/>
<text xml:space="preserve" text-anchor="middle" x="117.94" y="-1073.88" font-family="Times,serif" font-size="14.00">0</text>
</g>
<!-- 18&#45;&gt;8 -->
<g id="edge136" class="edge">
<title>18&#45;&gt;8</title>
<path fill="none" stroke="black" d="M674.06,-28.88C864.28,-29.17 1966.97,-32.65 2300,-73.7 2579.51,-108.15 2483,-76.67 2483,-125.95 2483,-727.78 2483,-727.78 2483,-727.78 2483,-822.44 2420.35,-828.95 2384,-916.35 2348.75,-1001.09 2300.67,-1228.03 2260,-1310.3 2199.34,-1433.02 2155.26,-1446.48 2058,-1542.8 1948.39,-1651.35 1932.56,-1703.26 1791,-1764.55 1764.17,-1776.17 1732.32,-1785.31 1708.33,-1791.33"/>
<polygon fill="black" stroke="black" points="1707.6,-1787.91 1698.71,-1793.68 1709.25,-1794.71 1707.6,-1787.91"/>
<text xml:space="preserve" text-anchor="middle" x="2388.5" y="-920.3" font-family="Times,serif" font-size="14.00">3</text>
</g>
<!-- 18&#45;&gt;25 -->
<g id="edge139" class="edge">
<title>18&#45;&gt;25</title>
<path fill="none" stroke="black" d="M673.98,-31.36C761.72,-40.91 1032.05,-83.51 1141,-252.2 1183.56,-318.09 1015.04,-498.34 998,-574.9 975.07,-677.95 1128.52,-921.74 1149,-1025.3 1180.47,-1184.41 1164,-1227.73 1164,-1389.93 1164,-1570.43 1164,-1570.43 1164,-1570.43 1164,-1608.93 1164.77,-1653.39 1165.35,-1681.66"/>
<polygon fill="black" stroke="black" points="1161.85,-1681.64 1165.56,-1691.56 1168.85,-1681.49 1161.85,-1681.64"/>
<text xml:space="preserve" text-anchor="middle" x="1105.67" y="-865.83" font-family="Times,serif" font-size="14.00">2</text>
</g>
<!-- 18&#45;&gt;28 -->
<g id="edge35" class="edge">
<title>18&#45;&gt;28</title>
<path fill="none" stroke="black" d="M617.94,-29.72C517.8,-33.06 181.95,-46.21 143,-73.7 122.12,-88.44 119,-100.4 119,-125.95 119,-817.03 119,-817.03 119,-817.03 119,-918.2 135.16,-942.47 150,-1042.55 165.35,-1146.05 170,-1171.81 187,-1275.05 189.58,-1290.73 189.2,-1294.87 193,-1310.3 207.19,-1367.96 322.91,-1770.66 358,-1818.55 398.34,-1873.62 421.22,-1878.77 483,-1907.8 572.57,-1949.89 687.8,-1972.6 747.03,-1982.23"/>
<polygon fill="black" stroke="black" points="746.18,-1985.64 756.61,-1983.75 747.28,-1978.73 746.18,-1985.64"/>
<text xml:space="preserve" text-anchor="middle" x="154.5" y="-1029.25" font-family="Times,serif" font-size="14.00">1</text>
</g>
<!-- 19&#45;&gt;0 -->
<g id="edge52" class="edge">
<title>19&#45;&gt;0</title>
<path fill="none" stroke="black" d="M2273.09,-223.62C2290.88,-229.09 2314.6,-238.29 2332,-252.2 2347,-264.19 2347.79,-270.6 2357,-287.45 2415.47,-394.44 2445,-425.35 2445,-547.28 2445,-727.78 2445,-727.78 2445,-727.78 2445,-1024.31 2527,-1093.39 2527,-1389.93 2527,-2364.75 2527,-2364.75 2527,-2364.75 2527,-2420.3 2109.79,-2444.23 1979.44,-2450.35"/>
<polygon fill="black" stroke="black" points="1979.43,-2446.84 1969.6,-2450.8 1979.75,-2453.84 1979.43,-2446.84"/>
<text xml:space="preserve" text-anchor="middle" x="2531.27" y="-1341.63" font-family="Times,serif" font-size="14.00">0</text>
</g>
<!-- 19&#45;&gt;3 -->
<g id="edge145" class="edge">
<title>19&#45;&gt;3</title>
<path fill="none" stroke="black" d="M2268.01,-228.76C2276.98,-234.78 2287.08,-242.84 2294,-252.2 2303.93,-265.63 2302.16,-271.47 2307,-287.45 2324.19,-344.27 2369,-487.92 2369,-547.28 2369,-727.78 2369,-727.78 2369,-727.78 2369,-819.87 2397.15,-841.6 2393,-933.6 2391,-977.94 2332.12,-1686.33 2321,-1729.3 2305.85,-1787.87 2304.33,-1807 2266,-1853.8 2182.6,-1955.64 1890.91,-2121.33 1782,-2195.25 1758.29,-2211.35 1752.78,-2216.11 1728,-2230.5 1713.08,-2239.17 1696.02,-2248.01 1681.86,-2255.08"/>
<polygon fill="black" stroke="black" points="1680.44,-2251.88 1673.02,-2259.44 1683.54,-2258.16 1680.44,-2251.88"/>
<text xml:space="preserve" text-anchor="middle" x="2372.83" y="-1252.38" font-family="Times,serif" font-size="14.00">3</text>
</g>
<!-- 19&#45;&gt;7 -->
<g id="edge90" class="edge">
<title>19&#45;&gt;7</title>
<path fill="none" stroke="black" d="M2242.73,-233.99C2220.9,-303.82 2136.08,-578.32 2079,-807.4 2053.17,-911.08 2062.15,-940.98 2029,-1042.55 2002.03,-1125.2 2001.92,-1152.08 1949,-1221.05 1944.62,-1226.77 1939.12,-1232.13 1933.54,-1236.86"/>
<polygon fill="black" stroke="black" points="1931.71,-1233.84 1926.04,-1242.79 1936.05,-1239.34 1931.71,-1233.84"/>
<text xml:space="preserve" text-anchor="middle" x="2106.19" y="-722.1" font-family="Times,serif" font-size="14.00">1</text>
</g>
<!-- 19&#45;&gt;13 -->
<g id="edge45" class="edge">
<title>19&#45;&gt;13</title>
<path fill="none" stroke="black" d="M2228.73,-229.16C2218.71,-235.63 2206.41,-243.96 2196,-252.2 2103.45,-325.41 2095.13,-361.24 2001,-432.4 1628.09,-714.32 1511.48,-784.78 1058,-898.35 931.54,-930.02 779.61,-958.81 709.68,-971.54"/>
<polygon fill="black" stroke="black" points="709.09,-968.09 699.88,-973.32 710.34,-974.98 709.09,-968.09"/>
<text xml:space="preserve" text-anchor="middle" x="1810.44" y="-588.23" font-family="Times,serif" font-size="14.00">2</text>
</g>
<!-- 19&#45;&gt;16 -->
<g id="edge13" class="edge">
<title>19&#45;&gt;16</title>
<path fill="none" stroke="black" d="M2221.14,-219.68C2185.77,-223.57 2122.09,-232.78 2071,-252.2 2042.09,-263.19 2037.44,-271.4 2011,-287.45 2003.45,-292.03 1671.67,-483.95 1571,-574.9 1515.81,-624.77 1516.14,-651.36 1460,-700.15 1436.26,-720.78 1406.12,-740.2 1384.06,-753.37"/>
<polygon fill="black" stroke="black" points="1382.39,-750.29 1375.54,-758.37 1385.94,-756.33 1382.39,-750.29"/>
<text xml:space="preserve" text-anchor="middle" x="1693.33" y="-498.98" font-family="Times,serif" font-size="14.00">4</text>
</g>
<!-- 20&#45;&gt;6 -->
<g id="edge81" class="edge">
<title>20&#45;&gt;6</title>
<path fill="none" stroke="black" d="M1580.29,-588.78C1544.37,-584.14 1478.8,-574.05 1425,-556.9 1333.81,-527.83 1303.63,-527.59 1229,-467.65 1135.59,-392.63 1167.97,-316.69 1067,-252.2 974.96,-193.42 637.66,-146.87 523.82,-132.53"/>
<polygon fill="black" stroke="black" points="524.45,-129.09 514.09,-131.32 523.58,-136.03 524.45,-129.09"/>
<text xml:space="preserve" text-anchor="middle" x="1156.26" y="-345.4" font-family="Times,serif" font-size="14.00">4</text>
</g>
<!-- 20&#45;&gt;8 -->
<g id="edge24" class="edge">
<title>20&#45;&gt;8</title>
<path fill="none" stroke="black" d="M1629.22,-603.75C1640.55,-609.68 1653.84,-618.18 1663,-628.9 1674.06,-641.84 1674.56,-647.48 1678,-664.15 1742.43,-976.76 1680.33,-1063.12 1681,-1382.3 1681.02,-1389.97 1681.25,-1391.89 1681,-1399.55 1679.44,-1447.3 1675.72,-1459.07 1674,-1506.8 1670.52,-1603.44 1671.11,-1718.12 1671.64,-1770.66"/>
<polygon fill="black" stroke="black" points="1668.14,-1770.58 1671.75,-1780.54 1675.14,-1770.51 1668.14,-1770.58"/>
<text xml:space="preserve" text-anchor="middle" x="1691.9" y="-1207.75" font-family="Times,serif" font-size="14.00">1</text>
</g>
<!-- 20&#45;&gt;14 -->
<g id="edge16" class="edge">
<title>20&#45;&gt;14</title>
<path fill="none" stroke="black" d="M1625.77,-579.59C1648.25,-564.84 1686.1,-540.01 1712.03,-523"/>
<polygon fill="black" stroke="black" points="1713.61,-526.15 1720.06,-517.73 1709.78,-520.29 1713.61,-526.15"/>
<text xml:space="preserve" text-anchor="middle" x="1689.91" y="-543.6" font-family="Times,serif" font-size="14.00">0</text>
</g>
<!-- 20&#45;&gt;15 -->
<g id="edge125" class="edge">
<title>20&#45;&gt;15</title>
<path fill="none" stroke="black" d="M1601.09,-610.72C1595.51,-628.12 1588,-656.19 1588,-681.15 1588,-925.98 1588,-925.98 1588,-925.98 1588,-1081.69 1588.04,-1122.26 1558,-1275.05 1554.83,-1291.16 1552.03,-1294.68 1547,-1310.3 1525.46,-1377.13 1499.16,-1455.38 1485.41,-1496.05"/>
<polygon fill="black" stroke="black" points="1482.1,-1494.93 1482.21,-1505.52 1488.73,-1497.17 1482.1,-1494.93"/>
<text xml:space="preserve" text-anchor="middle" x="1591.07" y="-1073.88" font-family="Times,serif" font-size="14.00">2</text>
</g>
<!-- 20&#45;&gt;16 -->
<g id="edge124" class="edge">
<title>20&#45;&gt;16</title>
<path fill="none" stroke="black" d="M1584.69,-603.61C1570.41,-610.13 1551.69,-619.26 1536,-628.9 1475.58,-666.01 1411.62,-719.53 1377.96,-748.97"/>
<polygon fill="black" stroke="black" points="1376.01,-746.02 1370.82,-755.25 1380.64,-751.27 1376.01,-746.02"/>
<text xml:space="preserve" text-anchor="middle" x="1488.05" y="-677.48" font-family="Times,serif" font-size="14.00">3</text>
</g>
<!-- 21&#45;&gt;12 -->
<g id="edge63" class="edge">
<title>21&#45;&gt;12</title>
<path fill="none" stroke="black" d="M1207.99,-666.8C1195.78,-655.07 1177.09,-638.83 1158,-628.9 1130.64,-614.66 1096.78,-605.61 1071.36,-600.28"/>
<polygon fill="black" stroke="black" points="1072.3,-596.9 1061.81,-598.39 1070.94,-603.77 1072.3,-596.9"/>
<text xml:space="preserve" text-anchor="middle" x="1187.14" y="-632.85" font-family="Times,serif" font-size="14.00">3</text>
</g>
<!-- 21&#45;&gt;13 -->
<g id="edge116" class="edge">
<title>21&#45;&gt;13</title>
<path fill="none" stroke="black" d="M1205.95,-696.88C1191.59,-708.55 1169.54,-725.03 1148,-735.4 994.13,-809.51 924.55,-753.3 779,-842.65 738.69,-867.4 707.2,-912.87 688.88,-944.34"/>
<polygon fill="black" stroke="black" points="686.02,-942.28 684.14,-952.7 692.11,-945.73 686.02,-942.28"/>
<text xml:space="preserve" text-anchor="middle" x="851.64" y="-811.35" font-family="Times,serif" font-size="14.00">1</text>
</g>
<!-- 21&#45;&gt;16 -->
<g id="edge36" class="edge">
<title>21&#45;&gt;16</title>
<path fill="none" stroke="black" d="M1243.67,-693.39C1256.83,-699.91 1273.78,-708.86 1288,-718.15 1302.33,-727.51 1317.37,-739.25 1329.46,-749.22"/>
<polygon fill="black" stroke="black" points="1327,-751.73 1336.92,-755.47 1331.5,-746.36 1327,-751.73"/>
<text xml:space="preserve" text-anchor="middle" x="1315.11" y="-722.1" font-family="Times,serif" font-size="14.00">0</text>
</g>
<!-- 21&#45;&gt;20 -->
<g id="edge69" class="edge">
<title>21&#45;&gt;20</title>
<path fill="none" stroke="black" d="M1246.97,-674.73C1286.82,-664.56 1367.34,-644.3 1436,-628.9 1482.09,-618.56 1535.45,-607.84 1570.14,-601.03"/>
<polygon fill="black" stroke="black" points="1570.52,-604.52 1579.67,-599.17 1569.18,-597.65 1570.52,-604.52"/>
<text xml:space="preserve" text-anchor="middle" x="1440.5" y="-632.85" font-family="Times,serif" font-size="14.00">2</text>
</g>
<!-- 21&#45;&gt;29 -->
<g id="edge68" class="edge">
<title>21&#45;&gt;29</title>
<path fill="none" stroke="black" d="M1212.01,-699C1181.13,-750.09 1092.11,-914.58 1140,-1042.55 1158.88,-1093 1175.93,-1103.88 1222,-1131.8 1445.95,-1267.55 1763.86,-1324.07 1872.17,-1340.15"/>
<polygon fill="black" stroke="black" points="1871.56,-1343.6 1881.95,-1341.57 1872.56,-1336.67 1871.56,-1343.6"/>
<text xml:space="preserve" text-anchor="middle" x="1144.5" y="-1029.25" font-family="Times,serif" font-size="14.00">4</text>
</g>
<!-- 22&#45;&gt;1 -->
<g id="edge92" class="edge">
<title>22&#45;&gt;1</title>
<path fill="none" stroke="black" d="M1925.62,-1183.29C1946.48,-1204.98 1984.12,-1248.18 2001,-1293.05 2073.6,-1486.01 2044,-1548.76 2044,-1754.93 2044,-1935.43 2044,-1935.43 2044,-1935.43 2044,-2057.49 2027.02,-2096.7 1955,-2195.25 1893.18,-2279.85 1857.8,-2290.15 1760,-2327.75 1723.27,-2341.88 1679.18,-2351.37 1648.53,-2356.87"/>
<polygon fill="black" stroke="black" points="1648.23,-2353.37 1638.98,-2358.52 1649.43,-2360.26 1648.23,-2353.37"/>
<text xml:space="preserve" text-anchor="middle" x="2048.5" y="-1751.25" font-family="Times,serif" font-size="14.00">3</text>
</g>
<!-- 22&#45;&gt;7 -->
<g id="edge78" class="edge">
<title>22&#45;&gt;7</title>
<path fill="none" stroke="black" d="M1908.68,-1186.22C1908.02,-1191.82 1907.38,-1198.07 1907,-1203.8 1906.49,-1211.41 1906.21,-1219.65 1906.06,-1227.29"/>
<polygon fill="black" stroke="black" points="1902.56,-1227.06 1905.94,-1237.1 1909.56,-1227.15 1902.56,-1227.06"/>
<text xml:space="preserve" text-anchor="middle" x="1911.5" y="-1207.75" font-family="Times,serif" font-size="14.00">0</text>
</g>
<!-- 22&#45;&gt;8 -->
<g id="edge28" class="edge">
<title>22&#45;&gt;8</title>
<path fill="none" stroke="black" d="M1886.42,-1175.6C1870.63,-1181.04 1850.59,-1190.06 1837,-1203.8 1806.31,-1234.84 1809.47,-1251.53 1796,-1293.05 1730.06,-1496.3 1795.46,-1572.4 1702,-1764.55 1699.91,-1768.84 1697.17,-1773.03 1694.19,-1776.94"/>
<polygon fill="black" stroke="black" points="1691.76,-1774.39 1687.98,-1784.29 1697.11,-1778.91 1691.76,-1774.39"/>
<text xml:space="preserve" text-anchor="middle" x="1766.94" y="-1475.5" font-family="Times,serif" font-size="14.00">2</text>
</g>
<!-- 22&#45;&gt;17 -->
<g id="edge106" class="edge">
<title>22&#45;&gt;17</title>
<path fill="none" stroke="black" d="M1884.45,-1163.27C1853.63,-1159.31 1801.23,-1153.03 1756,-1149.8 1515.15,-1132.63 1452.51,-1162.46 1213,-1131.8 1142.36,-1122.76 1061.59,-1102.18 1016.41,-1089.72"/>
<polygon fill="black" stroke="black" points="1017.48,-1086.38 1006.91,-1087.07 1015.6,-1093.13 1017.48,-1086.38"/>
<text xml:space="preserve" text-anchor="middle" x="1217.5" y="-1118.5" font-family="Times,serif" font-size="14.00">1</text>
</g>
<!-- 22&#45;&gt;18 -->
<g id="edge130" class="edge">
<title>22&#45;&gt;18</title>
<path fill="none" stroke="black" d="M1919.97,-1150.36C1959.33,-1078.26 2115.95,-791.85 2141,-753.4 2202.17,-659.51 2445,-463.13 2445,-351.08 2445,-351.08 2445,-351.08 2445,-125.95 2445,-34.69 949.45,-29.13 685.54,-28.85"/>
<polygon fill="black" stroke="black" points="685.77,-25.35 675.77,-28.85 685.77,-32.35 685.77,-25.35"/>
<text xml:space="preserve" text-anchor="middle" x="2305.1" y="-588.23" font-family="Times,serif" font-size="14.00">4</text>
</g>
<!-- 23&#45;&gt;0 -->
<g id="edge49" class="edge">
<title>23&#45;&gt;0</title>
<path fill="none" stroke="black" d="M1616.49,-1451.64C1647.69,-1486.78 1726.66,-1577.24 1786,-1658.05 1905.98,-1821.44 1941,-1884.29 1941,-2087 1941,-2364.75 1941,-2364.75 1941,-2364.75 1941,-2384.26 1941,-2406.21 1941,-2423.22"/>
<polygon fill="black" stroke="black" points="1937.5,-2423.11 1941,-2433.11 1944.5,-2423.11 1937.5,-2423.11"/>
<text xml:space="preserve" text-anchor="middle" x="1935.72" y="-1929.75" font-family="Times,serif" font-size="14.00">2</text>
</g>
<!-- 23&#45;&gt;1 -->
<g id="edge37" class="edge">
<title>23&#45;&gt;1</title>
<path fill="none" stroke="black" d="M1601.88,-1453.72C1598.88,-1500.69 1590.7,-1635.26 1588,-1747.3 1583.68,-1926.33 1709,-1952.55 1709,-2131.63 1709,-2271.5 1709,-2271.5 1709,-2271.5 1709,-2307.94 1672.26,-2333.97 1643.77,-2348.67"/>
<polygon fill="black" stroke="black" points="1642.54,-2345.38 1635.09,-2352.91 1645.61,-2351.67 1642.54,-2345.38"/>
<text xml:space="preserve" text-anchor="middle" x="1632.66" y="-1885.13" font-family="Times,serif" font-size="14.00">0</text>
</g>
<!-- 23&#45;&gt;20 -->
<g id="edge3" class="edge">
<title>23&#45;&gt;20</title>
<path fill="none" stroke="black" d="M1606.8,-1417.4C1613.16,-1388.27 1626.02,-1327.2 1634,-1275.05 1664.84,-1073.39 1664,-1021.03 1664,-817.03 1664,-817.03 1664,-817.03 1664,-681.15 1664,-655.57 1646.62,-631.64 1631.05,-615.33"/>
<polygon fill="black" stroke="black" points="1633.82,-613.15 1624.26,-608.6 1628.9,-618.12 1633.82,-613.15"/>
<text xml:space="preserve" text-anchor="middle" x="1666.14" y="-1029.25" font-family="Times,serif" font-size="14.00">3</text>
</g>
<!-- 23&#45;&gt;28 -->
<g id="edge126" class="edge">
<title>23&#45;&gt;28</title>
<path fill="none" stroke="black" d="M1595.45,-1453.02C1566.88,-1513.33 1458.91,-1723.53 1301,-1818.55 1290.26,-1825.02 940.37,-1938.12 823.55,-1975.8"/>
<polygon fill="black" stroke="black" points="822.56,-1972.44 814.12,-1978.84 824.71,-1979.11 822.56,-1972.44"/>
<text xml:space="preserve" text-anchor="middle" x="1445.74" y="-1706.63" font-family="Times,serif" font-size="14.00">1</text>
</g>
<!-- 23&#45;&gt;29 -->
<g id="edge103" class="edge">
<title>23&#45;&gt;29</title>
<path fill="none" stroke="black" d="M1627.6,-1427.56C1681.72,-1412.18 1811.26,-1375.36 1874.31,-1357.44"/>
<polygon fill="black" stroke="black" points="1875.16,-1360.84 1883.82,-1354.74 1873.25,-1354.11 1875.16,-1360.84"/>
<text xml:space="preserve" text-anchor="middle" x="1788.5" y="-1386.25" font-family="Times,serif" font-size="14.00">4</text>
</g>
<!-- 24&#45;&gt;8 -->
<g id="edge53" class="edge">
<title>24&#45;&gt;8</title>
<path fill="none" stroke="black" d="M657.06,-1879.79C689.8,-1867.47 751.93,-1845.83 807,-1836.55 969.36,-1809.2 1487.37,-1803.03 1633.37,-1801.82"/>
<polygon fill="black" stroke="black" points="1633.3,-1805.32 1643.27,-1801.74 1633.24,-1798.32 1633.3,-1805.32"/>
<text xml:space="preserve" text-anchor="middle" x="811.5" y="-1840.5" font-family="Times,serif" font-size="14.00">1</text>
</g>
<!-- 24&#45;&gt;12 -->
<g id="edge40" class="edge">
<title>24&#45;&gt;12</title>
<path fill="none" stroke="black" d="M614.71,-1876.92C593.38,-1862.14 562,-1834.74 562,-1801.55 562,-1801.55 562,-1801.55 562,-1568.43 562,-1340.92 439.94,-1280.53 498,-1060.55 565.28,-805.63 893.7,-651.14 1000.43,-607.04"/>
<polygon fill="black" stroke="black" points="1001.56,-610.36 1009.5,-603.34 998.92,-603.87 1001.56,-610.36"/>
<text xml:space="preserve" text-anchor="middle" x="501.56" y="-1252.38" font-family="Times,serif" font-size="14.00">4</text>
</g>
<!-- 24&#45;&gt;17 -->
<g id="edge17" class="edge">
<title>24&#45;&gt;17</title>
<path fill="none" stroke="black" d="M642.92,-1872.65C645.99,-1866.8 649.32,-1860.09 652,-1853.8 755.43,-1611.37 753.38,-1540.19 845,-1293.05 874.68,-1213 859.21,-1178.3 916,-1114.55 924.4,-1105.12 935.96,-1097.77 947,-1092.29"/>
<polygon fill="black" stroke="black" points="948.28,-1095.55 955.94,-1088.23 945.39,-1089.18 948.28,-1095.55"/>
<text xml:space="preserve" text-anchor="middle" x="788.7" y="-1475.5" font-family="Times,serif" font-size="14.00">2</text>
</g>
<!-- 24&#45;&gt;18 -->
<g id="edge109" class="edge">
<title>24&#45;&gt;18</title>
<path fill="none" stroke="black" d="M608.75,-1882.54C582.86,-1875.67 544.88,-1864.24 534,-1853.8 521.84,-1842.13 525.25,-1834.57 520,-1818.55 488.19,-1721.44 496.03,-1692.41 462,-1596.05 340.11,-1250.94 195,-1183.03 195,-817.03 195,-817.03 195,-817.03 195,-125.95 195,-42.11 496.67,-30.46 606.56,-29"/>
<polygon fill="black" stroke="black" points="606.31,-32.5 616.27,-28.89 606.24,-25.5 606.31,-32.5"/>
<text xml:space="preserve" text-anchor="middle" x="215.9" y="-974.78" font-family="Times,serif" font-size="14.00">0</text>
</g>
<!-- 24&#45;&gt;29 -->
<g id="edge72" class="edge">
<title>24&#45;&gt;29</title>
<path fill="none" stroke="black" d="M661.04,-1886.9C761.2,-1879.87 1120.56,-1854.83 1417,-1836.55 1487.65,-1832.2 1669.19,-1844.59 1735,-1818.55 1758.18,-1809.38 1758.37,-1797.91 1778,-1782.55 1809.64,-1757.82 1823.99,-1759.02 1851,-1729.3 1904.31,-1670.65 1932,-1649.69 1932,-1570.43 1932,-1570.43 1932,-1570.43 1932,-1434.55 1932,-1414.12 1926.26,-1391.78 1920.64,-1374.83"/>
<polygon fill="black" stroke="black" points="1923.96,-1373.74 1917.34,-1365.47 1917.36,-1376.06 1923.96,-1373.74"/>
<text xml:space="preserve" text-anchor="middle" x="1935.31" y="-1613.38" font-family="Times,serif" font-size="14.00">3</text>
</g>
<!-- 25&#45;&gt;4 -->
<g id="edge100" class="edge">
<title>25&#45;&gt;4</title>
<path fill="none" stroke="black" d="M1147.12,-1698C1123.06,-1682.31 1081.27,-1655.08 1053.63,-1637.06"/>
<polygon fill="black" stroke="black" points="1055.7,-1634.23 1045.41,-1631.7 1051.87,-1640.09 1055.7,-1634.23"/>
<text xml:space="preserve" text-anchor="middle" x="1113.04" y="-1662" font-family="Times,serif" font-size="14.00">4</text>
</g>
<!-- 25&#45;&gt;4 -->
<g id="edge140" class="edge">
<title>25&#45;&gt;4</title>
<path fill="none" stroke="black" d="M1140.85,-1704.21C1121.63,-1698.74 1095.11,-1689.38 1075,-1675.3 1063.63,-1667.34 1053.19,-1656.19 1044.89,-1645.91"/>
<polygon fill="black" stroke="black" points="1047.71,-1643.82 1038.84,-1638.03 1042.16,-1648.09 1047.71,-1643.82"/>
<text xml:space="preserve" text-anchor="middle" x="1079.5" y="-1662" font-family="Times,serif" font-size="14.00">0</text>
</g>
<!-- 25&#45;&gt;16 -->
<g id="edge59" class="edge">
<title>25&#45;&gt;16</title>
<path fill="none" stroke="black" d="M1189.9,-1702.56C1204.21,-1696.91 1221.92,-1688 1234,-1675.3 1245.86,-1662.84 1244.72,-1656.43 1250,-1640.05 1294.03,-1503.56 1362.82,-1150.02 1377,-1007.3 1384.41,-932.76 1369.51,-844.89 1360.38,-800.74"/>
<polygon fill="black" stroke="black" points="1363.81,-800.03 1358.3,-790.98 1356.96,-801.49 1363.81,-800.03"/>
<text xml:space="preserve" text-anchor="middle" x="1345.65" y="-1252.38" font-family="Times,serif" font-size="14.00">2</text>
</g>
<!-- 25&#45;&gt;17 -->
<g id="edge26" class="edge">
<title>25&#45;&gt;17</title>
<path fill="none" stroke="black" d="M1160.41,-1693.28C1158.61,-1687.58 1156.65,-1681.19 1155,-1675.3 1137.71,-1613.51 1048.9,-1170.22 1017,-1114.55 1014.09,-1109.48 1010.24,-1104.67 1006.14,-1100.32"/>
<polygon fill="black" stroke="black" points="1008.84,-1098.07 999.21,-1093.65 1003.99,-1103.11 1008.84,-1098.07"/>
<text xml:space="preserve" text-anchor="middle" x="1097.15" y="-1386.25" font-family="Times,serif" font-size="14.00">3</text>
</g>
<!-- 25&#45;&gt;28 -->
<g id="edge75" class="edge">
<title>25&#45;&gt;28</title>
<path fill="none" stroke="black" d="M1144.06,-1722.22C1087.61,-1748.58 934.95,-1825.32 838,-1925.8 828.41,-1935.74 818.52,-1947.2 809.98,-1957.54"/>
<polygon fill="black" stroke="black" points="807.42,-1955.14 803.81,-1965.11 812.85,-1959.56 807.42,-1955.14"/>
<text xml:space="preserve" text-anchor="middle" x="946.38" y="-1840.5" font-family="Times,serif" font-size="14.00">1</text>
</g>
<!-- 26&#45;&gt;1 -->
<g id="edge107" class="edge">
<title>26&#45;&gt;1</title>
<path fill="none" stroke="black" d="M1961.65,-417.86C1975.45,-425.7 1992.2,-436.92 2004,-450.4 2096.92,-556.62 2079.74,-609.76 2144,-735.4 2256.65,-955.65 2350.16,-993.59 2381,-1239.05 2413.16,-1495.01 2389.24,-1563.9 2348,-1818.55 2345.42,-1834.51 2347.07,-1839.79 2339,-1853.8 2200.11,-2095.04 2127.25,-2143.71 1892,-2292.5 1815.03,-2341.19 1706.32,-2356.15 1649.31,-2360.73"/>
<polygon fill="black" stroke="black" points="1649.18,-2357.23 1639.46,-2361.45 1649.69,-2364.21 1649.18,-2357.23"/>
<text xml:space="preserve" text-anchor="middle" x="2399.63" y="-1386.25" font-family="Times,serif" font-size="14.00">2</text>
</g>
<!-- 26&#45;&gt;2 -->
<g id="edge104" class="edge">
<title>26&#45;&gt;2</title>
<path fill="none" stroke="black" d="M1957.69,-385.29C1976.17,-368.97 2003.26,-345.06 2022.75,-327.85"/>
<polygon fill="black" stroke="black" points="2025.06,-330.48 2030.24,-321.24 2020.43,-325.24 2025.06,-330.48"/>
<text xml:space="preserve" text-anchor="middle" x="2009.59" y="-345.4" font-family="Times,serif" font-size="14.00">3</text>
</g>
<!-- 26&#45;&gt;4 -->
<g id="edge64" class="edge">
<title>26&#45;&gt;4</title>
<path fill="none" stroke="black" d="M1908.85,-406.04C1812.53,-407.99 1496.91,-416.86 1402,-450.4 1375.67,-459.7 1371.14,-467.42 1350,-485.65 1329.6,-503.24 1202.9,-643.18 1186,-664.15 1138.07,-723.64 1112.42,-734.07 1091,-807.4 1088.85,-814.76 1090.89,-816.99 1091,-824.65 1092.88,-961.2 1100.78,-995.26 1099,-1131.8 1097.44,-1250.83 1111.01,-1282.04 1092,-1399.55 1080.92,-1468.06 1053.91,-1545.1 1038.09,-1586.6"/>
<polygon fill="black" stroke="black" points="1034.92,-1585.09 1034.59,-1595.68 1041.46,-1587.61 1034.92,-1585.09"/>
<text xml:space="preserve" text-anchor="middle" x="1103.2" y="-1029.25" font-family="Times,serif" font-size="14.00">0</text>
</g>
<!-- 26&#45;&gt;17 -->
<g id="edge94" class="edge">
<title>26&#45;&gt;17</title>
<path fill="none" stroke="black" d="M1909,-405.19C1801.8,-404.16 1417.98,-403.86 1307,-450.4 1285.68,-459.34 995,-702.66 995,-725.78 995,-980.45 995,-980.45 995,-980.45 995,-1003.87 990.96,-1030.13 987.22,-1049.44"/>
<polygon fill="black" stroke="black" points="983.85,-1048.49 985.28,-1058.99 990.7,-1049.89 983.85,-1048.49"/>
<text xml:space="preserve" text-anchor="middle" x="999.5" y="-722.1" font-family="Times,serif" font-size="14.00">4</text>
</g>
<!-- 26&#45;&gt;26 -->
<g id="edge31" class="edge">
<title>26&#45;&gt;26</title>
<path fill="none" stroke="black" d="M1963.39,-414.7C1973.97,-415.28 1982.85,-411.89 1982.85,-404.55 1982.85,-400.08 1979.55,-397.07 1974.58,-395.54"/>
<polygon fill="black" stroke="black" points="1975.19,-392.08 1964.89,-394.55 1974.49,-399.05 1975.19,-392.08"/>
<text xml:space="preserve" text-anchor="middle" x="1987.35" y="-399.88" font-family="Times,serif" font-size="14.00">1</text>
</g>
<!-- 27&#45;&gt;5 -->
<g id="edge117" class="edge">
<title>27&#45;&gt;5</title>
<path fill="none" stroke="black" d="M1194.2,-2166.24C1160.79,-2150.9 1096.73,-2121.48 1058.03,-2103.71"/>
<polygon fill="black" stroke="black" points="1059.76,-2100.65 1049.21,-2099.66 1056.84,-2107.01 1059.76,-2100.65"/>
<text xml:space="preserve" text-anchor="middle" x="1142.52" y="-2127.95" font-family="Times,serif" font-size="14.00">0</text>
</g>
<!-- 27&#45;&gt;15 -->
<g id="edge151" class="edge">
<title>27&#45;&gt;15</title>
<path fill="none" stroke="black" d="M1242.1,-2171.62C1300.38,-2160.53 1436,-2130.3 1436,-2089 1436,-2089 1436,-2089 1436,-1617.05 1436,-1593.19 1447.61,-1568.56 1458.32,-1550.9"/>
<polygon fill="black" stroke="black" points="1461.16,-1552.96 1463.61,-1542.65 1455.27,-1549.18 1461.16,-1552.96"/>
<text xml:space="preserve" text-anchor="middle" x="1440.5" y="-1840.5" font-family="Times,serif" font-size="14.00">1</text>
</g>
<!-- 27&#45;&gt;18 -->
<g id="edge33" class="edge">
<title>27&#45;&gt;18</title>
<path fill="none" stroke="black" d="M1243.02,-2173.96C1344.93,-2164.11 1712,-2117.57 1944,-1943.05 1945.05,-1942.26 2171.32,-1641.18 2172,-1640.05 2273.76,-1471.34 2257.58,-1406.75 2361,-1239.05 2421.51,-1140.94 2521,-1150.2 2521,-1034.93 2521,-1034.93 2521,-1034.93 2521,-125.95 2521,-95.09 2507.68,-94.11 2395,-73.7 2221.86,-42.34 929.26,-31.01 685.56,-29.14"/>
<polygon fill="black" stroke="black" points="685.67,-25.64 675.64,-29.06 685.61,-32.64 685.67,-25.64"/>
<text xml:space="preserve" text-anchor="middle" x="2499.53" y="-1118.5" font-family="Times,serif" font-size="14.00">4</text>
</g>
<!-- 27&#45;&gt;24 -->
<g id="edge128" class="edge">
<title>27&#45;&gt;24</title>
<path fill="none" stroke="black" d="M1188.85,-2175.06C1123.41,-2171.88 958.67,-2162.01 908,-2141.25 789.53,-2092.73 689.95,-1968.72 651.26,-1915.58"/>
<polygon fill="black" stroke="black" points="654.31,-1913.83 645.64,-1907.75 648.63,-1917.91 654.31,-1913.83"/>
<text xml:space="preserve" text-anchor="middle" x="777.37" y="-2038.7" font-family="Times,serif" font-size="14.00">3</text>
</g>
<!-- 27&#45;&gt;28 -->
<g id="edge137" class="edge">
<title>27&#45;&gt;28</title>
<path fill="none" stroke="black" d="M1188.78,-2175.33C1127.24,-2172.86 979.35,-2164.6 936,-2141.25 881.19,-2111.73 890.26,-2077.5 845,-2034.75 836.67,-2026.88 826.99,-2019.06 817.92,-2012.21"/>
<polygon fill="black" stroke="black" points="820.1,-2009.47 809.98,-2006.35 815.95,-2015.1 820.1,-2009.47"/>
<text xml:space="preserve" text-anchor="middle" x="899.36" y="-2083.33" font-family="Times,serif" font-size="14.00">2</text>
</g>
<!-- 28&#45;&gt;1 -->
<g id="edge87" class="edge">
<title>28&#45;&gt;1</title>
<path fill="none" stroke="black" d="M766.38,-2009.17C749.9,-2027.5 729,-2056.7 729,-2087 729,-2271.5 729,-2271.5 729,-2271.5 729,-2298.68 730.63,-2312.31 753,-2327.75 787.11,-2351.3 1409.7,-2360.35 1572.38,-2362.32"/>
<polygon fill="black" stroke="black" points="1572.15,-2365.82 1582.19,-2362.44 1572.24,-2358.82 1572.15,-2365.82"/>
<text xml:space="preserve" text-anchor="middle" x="733.5" y="-2172.58" font-family="Times,serif" font-size="14.00">0</text>
</g>
<!-- 28&#45;&gt;6 -->
<g id="edge110" class="edge">
<title>28&#45;&gt;6</title>
<path fill="none" stroke="black" d="M762.37,-1973.35C739.08,-1959.53 702.13,-1938.96 668,-1925.8 638.03,-1914.24 627.22,-1921.15 598,-1907.8 559.65,-1890.28 546.64,-1886.49 520,-1853.8 509.24,-1840.6 510.93,-1834.51 505,-1818.55 468.86,-1721.25 470.83,-1693.1 434,-1596.05 378.65,-1450.2 324.25,-1427.68 292,-1275.05 282.73,-1231.19 262.97,-1221.09 299,-1060.55 302.73,-1043.94 306.21,-1040.44 314,-1025.3 318.29,-1016.97 321.29,-1015.91 325,-1007.3 339.8,-972.91 347,-963.42 347,-925.98 347,-925.98 347,-925.98 347,-215.2 347,-167.02 407.65,-144.42 448.82,-134.63"/>
<polygon fill="black" stroke="black" points="449.37,-138.1 458.38,-132.52 447.86,-131.26 449.37,-138.1"/>
<text xml:space="preserve" text-anchor="middle" x="303.5" y="-1073.88" font-family="Times,serif" font-size="14.00">1</text>
</g>
<!-- 28&#45;&gt;18 -->
<g id="edge84" class="edge">
<title>28&#45;&gt;18</title>
<path fill="none" stroke="black" d="M759.02,-1981.55C701.66,-1967.7 569.73,-1933.93 532,-1907.8 449.11,-1850.41 437.44,-1819.31 392,-1729.3 297.66,-1542.42 157,-1026.37 157,-817.03 157,-817.03 157,-817.03 157,-125.95 157,-34.43 490.73,-27.85 606.79,-28.34"/>
<polygon fill="black" stroke="black" points="606.42,-31.83 616.44,-28.4 606.46,-24.83 606.42,-31.83"/>
<text xml:space="preserve" text-anchor="middle" x="188.69" y="-1029.25" font-family="Times,serif" font-size="14.00">3</text>
</g>
<!-- 28&#45;&gt;20 -->
<g id="edge10" class="edge">
<title>28&#45;&gt;20</title>
<path fill="none" stroke="black" d="M811.66,-1977.47C890.34,-1944.37 1131.37,-1834.39 1273,-1675.3 1509.09,-1410.11 1550,-1281.04 1550,-925.98 1550,-925.98 1550,-925.98 1550,-681.15 1550,-655.57 1567.38,-631.64 1582.95,-615.33"/>
<polygon fill="black" stroke="black" points="1585.1,-618.12 1589.74,-608.6 1580.18,-613.15 1585.1,-618.12"/>
<text xml:space="preserve" text-anchor="middle" x="1517.93" y="-1297" font-family="Times,serif" font-size="14.00">4</text>
</g>
<!-- 28&#45;&gt;24 -->
<g id="edge76" class="edge">
<title>28&#45;&gt;24</title>
<path fill="none" stroke="black" d="M765.91,-1969.08C748.88,-1953.37 725.59,-1932.49 715,-1925.8 700.41,-1916.59 682.97,-1908.71 668.02,-1902.77"/>
<polygon fill="black" stroke="black" points="669.66,-1899.64 659.06,-1899.34 667.15,-1906.18 669.66,-1899.64"/>
<text xml:space="preserve" text-anchor="middle" x="740.8" y="-1929.75" font-family="Times,serif" font-size="14.00">2</text>
</g>
<!-- 29&#45;&gt;7 -->
<g id="edge89" class="edge">
<title>29&#45;&gt;7</title>
<path fill="none" stroke="black" d="M1900.83,-1329.07C1898.06,-1323.33 1895.39,-1316.7 1894,-1310.3 1892.24,-1302.24 1893.14,-1293.49 1895.07,-1285.5"/>
<polygon fill="black" stroke="black" points="1898.41,-1286.54 1898,-1275.95 1891.72,-1284.49 1898.41,-1286.54"/>
<text xml:space="preserve" text-anchor="middle" x="1898.5" y="-1297" font-family="Times,serif" font-size="14.00">1</text>
</g>
<!-- 29&#45;&gt;8 -->
<g id="edge61" class="edge">
<title>29&#45;&gt;8</title>
<path fill="none" stroke="black" d="M1902.54,-1363.98C1895.49,-1381.27 1886,-1409.26 1886,-1434.55 1886,-1570.43 1886,-1570.43 1886,-1570.43 1886,-1646.39 1872.77,-1671.92 1823,-1729.3 1822.7,-1729.65 1766.42,-1764.35 1766,-1764.55 1747.05,-1773.83 1724.98,-1782.16 1706.99,-1788.37"/>
<polygon fill="black" stroke="black" points="1705.9,-1785.05 1697.54,-1791.56 1708.14,-1791.68 1705.9,-1785.05"/>
<text xml:space="preserve" text-anchor="middle" x="1890.5" y="-1564.75" font-family="Times,serif" font-size="14.00">0</text>
</g>
<!-- 29&#45;&gt;9 -->
<g id="edge21" class="edge">
<title>29&#45;&gt;9</title>
<path fill="none" stroke="black" d="M1926.47,-1331.59C1941.73,-1319.59 1965.56,-1302.63 1989,-1293.05 2027.97,-1277.13 2041.28,-1285.73 2082,-1275.05 2087.56,-1273.6 2093.39,-1271.86 2099.04,-1270.06"/>
<polygon fill="black" stroke="black" points="2099.75,-1273.51 2108.14,-1267.05 2097.55,-1266.86 2099.75,-1273.51"/>
<text xml:space="preserve" text-anchor="middle" x="1993.5" y="-1297" font-family="Times,serif" font-size="14.00">2</text>
</g>
<!-- 29&#45;&gt;26 -->
<g id="edge12" class="edge">
<title>29&#45;&gt;26</title>
<path fill="none" stroke="black" d="M1915.93,-1328.52C1919.81,-1318.12 1925.21,-1304.59 1931,-1293.05 1935.21,-1284.67 1938.48,-1283.74 1942,-1275.05 1957.25,-1237.37 1957.53,-1226.21 1962,-1185.8 1984.43,-983.17 1937,-931.65 1937,-727.78 1937,-727.78 1937,-727.78 1937,-502.65 1937,-483.38 1937,-461.96 1937,-444.16"/>
<polygon fill="black" stroke="black" points="1940.5,-444.27 1937,-434.27 1933.5,-444.27 1940.5,-444.27"/>
<text xml:space="preserve" text-anchor="middle" x="1953.8" y="-865.83" font-family="Times,serif" font-size="14.00">3</text>
</g>
<!-- 29&#45;&gt;26 -->
<g id="edge71" class="edge">
<title>29&#45;&gt;26</title>
<path fill="none" stroke="black" d="M1923.89,-1330.64C1935.82,-1317.21 1952.55,-1296.26 1962,-1275.05 1978.4,-1238.24 1974.05,-1225.91 1978,-1185.8 1997.96,-983.21 1975,-931.35 1975,-727.78 1975,-727.78 1975,-727.78 1975,-502.65 1975,-480.25 1966.12,-456.83 1956.95,-438.6"/>
<polygon fill="black" stroke="black" points="1960.08,-437.03 1952.29,-429.85 1953.9,-440.32 1960.08,-437.03"/>
<text xml:space="preserve" text-anchor="middle" x="1985.07" y="-865.83" font-family="Times,serif" font-size="14.00">4</text>
</g>
</g>
</svg>
