<?xml version="1.0" encoding="UTF-8" standalone="no"?>
<!DOCTYPE svg PUBLIC "-//W3C//DTD SVG 1.1//EN"
 "http://www.w3.org/Graphics/SVG/1.1/DTD/svg11.dtd">
<!-- Generated by graphviz version 13.0.1 (20250616.1512)
 -->
<!-- Pages: 1 -->
<svg width="2848pt" height="2284pt"
 viewBox="0.00 0.00 2848.00 2284.00" xmlns="http://www.w3.org/2000/svg" xmlns:xlink="http://www.w3.org/1999/xlink">
<g id="graph0" class="graph" transform="scale(1 1) rotate(0) translate(4 2280.25)">
<polygon fill="white" stroke="none" points="-4,4 -4,-2280.25 2844.11,-2280.25 2844.11,4 -4,4"/>
<!-- fake -->
<g id="node1" class="node">
<title>fake</title>
</g>
<!-- 29 -->
<g id="node31" class="node">
<title>29</title>
<ellipse fill="none" stroke="black" cx="2597" cy="-2175.4" rx="23.85" ry="23.85"/>
<ellipse fill="none" stroke="black" cx="2597" cy="-2175.4" rx="27.85" ry="27.85"/>
<text xml:space="preserve" text-anchor="middle" x="2597" y="-2170.73" font-family="Times,serif" font-size="14.00">29</text>
</g>
<!-- fake&#45;&gt;29 -->
<g id="edge1" class="edge">
<title>fake&#45;&gt;29</title>
<path fill="none" stroke="black" stroke-width="2" d="M2597,-2240.11C2597,-2232.76 2597,-2223.85 2597,-2215.06"/>
<polygon fill="black" stroke="black" stroke-width="2" points="2600.5,-2216.73 2597,-2206.73 2593.5,-2216.73 2600.5,-2216.73"/>
</g>
<!-- 0 -->
<g id="node2" class="node">
<title>0</title>
<ellipse fill="none" stroke="black" cx="961" cy="-1318.9" rx="18" ry="18"/>
<ellipse fill="none" stroke="black" cx="961" cy="-1318.9" rx="22" ry="22"/>
<text xml:space="preserve" text-anchor="middle" x="961" y="-1314.23" font-family="Times,serif" font-size="14.00">0</text>
</g>
<!-- 0&#45;&gt;0 -->
<g id="edge143" class="edge">
<title>0&#45;&gt;0</title>
<path fill="none" stroke="black" d="M981.58,-1327.75C991.84,-1328.97 1001,-1326.02 1001,-1318.9 1001,-1314.67 997.77,-1311.91 993,-1310.63"/>
<polygon fill="black" stroke="black" points="993.26,-1307.14 983.09,-1310.13 992.9,-1314.13 993.26,-1307.14"/>
<text xml:space="preserve" text-anchor="middle" x="1005.5" y="-1314.23" font-family="Times,serif" font-size="14.00">0</text>
</g>
<!-- 2 -->
<g id="node4" class="node">
<title>2</title>
<ellipse fill="none" stroke="black" cx="863" cy="-1610.35" rx="27" ry="18"/>
<text xml:space="preserve" text-anchor="middle" x="863" y="-1605.68" font-family="Times,serif" font-size="14.00">2</text>
</g>
<!-- 0&#45;&gt;2 -->
<g id="edge119" class="edge">
<title>0&#45;&gt;2</title>
<path fill="none" stroke="black" d="M939.57,-1324.43C921.28,-1329.52 895.95,-1339.7 883,-1358.9 836.81,-1427.39 848.01,-1531.61 856.97,-1581.21"/>
<polygon fill="black" stroke="black" points="853.5,-1581.67 858.83,-1590.83 860.37,-1580.35 853.5,-1581.67"/>
<text xml:space="preserve" text-anchor="middle" x="854.25" y="-1471.8" font-family="Times,serif" font-size="14.00">4</text>
</g>
<!-- 17 -->
<g id="node19" class="node">
<title>17</title>
<ellipse fill="none" stroke="black" cx="1086" cy="-1136.4" rx="27" ry="18"/>
<text xml:space="preserve" text-anchor="middle" x="1086" y="-1131.73" font-family="Times,serif" font-size="14.00">17</text>
</g>
<!-- 0&#45;&gt;17 -->
<g id="edge136" class="edge">
<title>0&#45;&gt;17</title>
<path fill="none" stroke="black" d="M980.26,-1307.83C992.04,-1300.93 1006.75,-1290.87 1017,-1278.9 1046.47,-1244.48 1066.72,-1195.28 1077.32,-1164.89"/>
<polygon fill="black" stroke="black" points="1080.55,-1166.27 1080.43,-1155.67 1073.92,-1164.03 1080.55,-1166.27"/>
<text xml:space="preserve" text-anchor="middle" x="1064.52" y="-1220.98" font-family="Times,serif" font-size="14.00">3</text>
</g>
<!-- 20 -->
<g id="node22" class="node">
<title>20</title>
<ellipse fill="none" stroke="black" cx="773" cy="-126.95" rx="27" ry="18"/>
<text xml:space="preserve" text-anchor="middle" x="773" y="-122.28" font-family="Times,serif" font-size="14.00">20</text>
</g>
<!-- 0&#45;&gt;20 -->
<g id="edge94" class="edge">
<title>0&#45;&gt;20</title>
<path fill="none" stroke="black" d="M959.23,-1296.55C956.82,-1273.88 951.44,-1237.28 940,-1207.65 936.62,-1198.9 931.56,-1198.67 929,-1189.65 820.5,-807.32 977.65,-689.37 925,-295.45 916.72,-233.52 926.68,-202.12 878,-162.95 858.71,-147.43 832.24,-138.67 810.71,-133.79"/>
<polygon fill="black" stroke="black" points="811.62,-130.4 801.12,-131.82 810.22,-137.26 811.62,-130.4"/>
<text xml:space="preserve" text-anchor="middle" x="913.64" y="-730.1" font-family="Times,serif" font-size="14.00">1</text>
</g>
<!-- 28 -->
<g id="node30" class="node">
<title>28</title>
<ellipse fill="none" stroke="black" cx="904" cy="-1225.65" rx="27" ry="18"/>
<text xml:space="preserve" text-anchor="middle" x="904" y="-1220.98" font-family="Times,serif" font-size="14.00">28</text>
</g>
<!-- 0&#45;&gt;28 -->
<g id="edge103" class="edge">
<title>0&#45;&gt;28</title>
<path fill="none" stroke="black" d="M949.74,-1299.87C941.22,-1286.24 929.42,-1267.34 919.93,-1252.16"/>
<polygon fill="black" stroke="black" points="923.16,-1250.72 914.89,-1244.09 917.22,-1254.43 923.16,-1250.72"/>
<text xml:space="preserve" text-anchor="middle" x="940.41" y="-1265.6" font-family="Times,serif" font-size="14.00">2</text>
</g>
<!-- 1 -->
<g id="node3" class="node">
<title>1</title>
<ellipse fill="none" stroke="black" cx="863" cy="-1699.6" rx="27" ry="18"/>
<text xml:space="preserve" text-anchor="middle" x="863" y="-1694.93" font-family="Times,serif" font-size="14.00">1</text>
</g>
<!-- 1&#45;&gt;2 -->
<g id="edge70" class="edge">
<title>1&#45;&gt;2</title>
<path fill="none" stroke="black" d="M863,-1681.36C863,-1669.53 863,-1653.56 863,-1639.85"/>
<polygon fill="black" stroke="black" points="866.5,-1640.07 863,-1630.07 859.5,-1640.07 866.5,-1640.07"/>
<text xml:space="preserve" text-anchor="middle" x="867.5" y="-1650.3" font-family="Times,serif" font-size="14.00">1</text>
</g>
<!-- 14 -->
<g id="node16" class="node">
<title>14</title>
<ellipse fill="none" stroke="black" cx="668" cy="-868.65" rx="27" ry="18"/>
<text xml:space="preserve" text-anchor="middle" x="668" y="-863.98" font-family="Times,serif" font-size="14.00">14</text>
</g>
<!-- 1&#45;&gt;14 -->
<g id="edge57" class="edge">
<title>1&#45;&gt;14</title>
<path fill="none" stroke="black" d="M841.32,-1688.52C803.88,-1670.22 726.36,-1628.41 677,-1574.35 597.35,-1487.13 587.29,-1452.98 550,-1340.9 518.76,-1246.99 517.86,-1214.63 541,-1118.4 562.26,-1030.02 620.49,-937.68 650.14,-894.58"/>
<polygon fill="black" stroke="black" points="652.97,-896.64 655.82,-886.44 647.23,-892.64 652.97,-896.64"/>
<text xml:space="preserve" text-anchor="middle" x="536.33" y="-1265.6" font-family="Times,serif" font-size="14.00">4</text>
</g>
<!-- 21 -->
<g id="node23" class="node">
<title>21</title>
<ellipse fill="none" stroke="black" cx="1673" cy="-957.9" rx="27" ry="18"/>
<text xml:space="preserve" text-anchor="middle" x="1673" y="-953.23" font-family="Times,serif" font-size="14.00">21</text>
</g>
<!-- 1&#45;&gt;21 -->
<g id="edge43" class="edge">
<title>1&#45;&gt;21</title>
<path fill="none" stroke="black" d="M889.33,-1694.95C914.62,-1691.45 953.91,-1686.07 988,-1681.6 1128.59,-1663.17 1524.53,-1681.85 1617,-1574.35 1705.33,-1471.67 1649,-1406.73 1649,-1271.28 1649,-1271.28 1649,-1271.28 1649,-1046.15 1649,-1025.4 1655.39,-1002.84 1661.57,-985.86"/>
<polygon fill="black" stroke="black" points="1664.66,-987.58 1664.99,-976.99 1658.13,-985.06 1664.66,-987.58"/>
<text xml:space="preserve" text-anchor="middle" x="1657.98" y="-1314.23" font-family="Times,serif" font-size="14.00">2</text>
</g>
<!-- 1&#45;&gt;21 -->
<g id="edge44" class="edge">
<title>1&#45;&gt;21</title>
<path fill="none" stroke="black" d="M889.26,-1694.33C914.5,-1690.4 953.76,-1684.71 988,-1681.6 1117.78,-1669.83 1453.98,-1683.61 1572,-1628.35 1606.01,-1612.43 1610.74,-1601.2 1637,-1574.35 1650.99,-1560.05 1657.06,-1557.47 1665,-1539.1 1680.9,-1502.31 1673.55,-1489.69 1678,-1449.85 1697.04,-1279.41 1701.33,-1236.52 1708,-1065.15 1708.62,-1049.16 1711.66,-1044.73 1708,-1029.15 1704.31,-1013.45 1696.55,-997.25 1689.27,-984.37"/>
<polygon fill="black" stroke="black" points="1692.5,-982.96 1684.4,-976.13 1686.47,-986.52 1692.5,-982.96"/>
<text xml:space="preserve" text-anchor="middle" x="1698.72" y="-1314.23" font-family="Times,serif" font-size="14.00">0</text>
</g>
<!-- 24 -->
<g id="node26" class="node">
<title>24</title>
<ellipse fill="none" stroke="black" cx="589" cy="-581.2" rx="27" ry="18"/>
<text xml:space="preserve" text-anchor="middle" x="589" y="-576.53" font-family="Times,serif" font-size="14.00">24</text>
</g>
<!-- 1&#45;&gt;24 -->
<g id="edge72" class="edge">
<title>1&#45;&gt;24</title>
<path fill="none" stroke="black" d="M835.92,-1696.84C771.64,-1691.19 608.79,-1667.88 522,-1574.35 446.57,-1493.07 458.53,-1449.04 434,-1340.9 400.16,-1191.7 346.22,-773.33 440,-652.45 467.56,-616.92 517.47,-598.54 551.88,-589.64"/>
<polygon fill="black" stroke="black" points="552.53,-593.08 561.43,-587.33 550.89,-586.28 552.53,-593.08"/>
<text xml:space="preserve" text-anchor="middle" x="407.72" y="-1131.73" font-family="Times,serif" font-size="14.00">3</text>
</g>
<!-- 2&#45;&gt;2 -->
<g id="edge56" class="edge">
<title>2&#45;&gt;2</title>
<path fill="none" stroke="black" d="M887.53,-1618.59C898.51,-1619.37 908,-1616.63 908,-1610.35 908,-1606.43 904.29,-1603.89 898.83,-1602.72"/>
<polygon fill="black" stroke="black" points="899.22,-1599.24 889.04,-1602.2 898.84,-1606.23 899.22,-1599.24"/>
<text xml:space="preserve" text-anchor="middle" x="912.5" y="-1605.68" font-family="Times,serif" font-size="14.00">4</text>
</g>
<!-- 16 -->
<g id="node18" class="node">
<title>16</title>
<ellipse fill="none" stroke="black" cx="1365" cy="-1521.1" rx="27" ry="18"/>
<text xml:space="preserve" text-anchor="middle" x="1365" y="-1516.43" font-family="Times,serif" font-size="14.00">16</text>
</g>
<!-- 2&#45;&gt;16 -->
<g id="edge108" class="edge">
<title>2&#45;&gt;16</title>
<path fill="none" stroke="black" d="M888.93,-1604.84C971.81,-1590.44 1230.49,-1545.48 1327.63,-1528.6"/>
<polygon fill="black" stroke="black" points="1328.18,-1532.05 1337.43,-1526.89 1326.98,-1525.16 1328.18,-1532.05"/>
<text xml:space="preserve" text-anchor="middle" x="1163.46" y="-1561.05" font-family="Times,serif" font-size="14.00">1</text>
</g>
<!-- 2&#45;&gt;20 -->
<g id="edge95" class="edge">
<title>2&#45;&gt;20</title>
<path fill="none" stroke="black" d="M838.84,-1601.72C784.03,-1583.39 648.47,-1532.2 564,-1449.85 525.85,-1412.66 525.49,-1392.93 514,-1340.9 476.81,-1172.51 351,-754.65 351,-582.2 351,-582.2 351,-582.2 351,-312.45 351,-145.95 630.19,-128.24 734.39,-127.43"/>
<polygon fill="black" stroke="black" points="734.13,-130.93 744.12,-127.41 734.11,-123.93 734.13,-130.93"/>
<text xml:space="preserve" text-anchor="middle" x="404.39" y="-863.98" font-family="Times,serif" font-size="14.00">2</text>
</g>
<!-- 25 -->
<g id="node27" class="node">
<title>25</title>
<ellipse fill="none" stroke="black" cx="2074" cy="-220.2" rx="27" ry="18"/>
<text xml:space="preserve" text-anchor="middle" x="2074" y="-215.53" font-family="Times,serif" font-size="14.00">25</text>
</g>
<!-- 2&#45;&gt;25 -->
<g id="edge120" class="edge">
<title>2&#45;&gt;25</title>
<path fill="none" stroke="black" d="M890.24,-1608.36C1083.67,-1601.26 2242,-1557.28 2242,-1522.1 2242,-1522.1 2242,-1522.1 2242,-1180.03 2242,-1104.22 2255.98,-1086.3 2266,-1011.15 2294.03,-800.91 2325,-749.68 2325,-537.58 2325,-537.58 2325,-537.58 2325,-312.45 2325,-210.23 2201.75,-277.98 2106,-242.2 2104.25,-241.54 2102.49,-240.78 2100.75,-239.94"/>
<polygon fill="black" stroke="black" points="2102.91,-237.14 2092.49,-235.22 2099.45,-243.22 2102.91,-237.14"/>
<text xml:space="preserve" text-anchor="middle" x="2286.82" y="-908.6" font-family="Times,serif" font-size="14.00">3</text>
</g>
<!-- 26 -->
<g id="node28" class="node">
<title>26</title>
<ellipse fill="none" stroke="black" cx="710" cy="-680.3" rx="23.85" ry="23.85"/>
<ellipse fill="none" stroke="black" cx="710" cy="-680.3" rx="27.85" ry="27.85"/>
<text xml:space="preserve" text-anchor="middle" x="710" y="-675.63" font-family="Times,serif" font-size="14.00">26</text>
</g>
<!-- 2&#45;&gt;26 -->
<g id="edge15" class="edge">
<title>2&#45;&gt;26</title>
<path fill="none" stroke="black" d="M845.39,-1596.67C836.86,-1590.28 826.63,-1582.22 818,-1574.35 802.15,-1559.89 798.3,-1555.95 785,-1539.1 651.17,-1369.59 601.82,-1314.83 576,-1100.4 560.81,-974.23 542.44,-929.2 599,-815.4 619.91,-773.34 656.34,-732.92 681.75,-707.65"/>
<polygon fill="black" stroke="black" points="684.11,-710.23 688.82,-700.74 679.22,-705.23 684.11,-710.23"/>
<text xml:space="preserve" text-anchor="middle" x="587.89" y="-1131.73" font-family="Times,serif" font-size="14.00">0</text>
</g>
<!-- 3 -->
<g id="node5" class="node">
<title>3</title>
<ellipse fill="none" stroke="black" cx="1904" cy="-1788.85" rx="27" ry="18"/>
<text xml:space="preserve" text-anchor="middle" x="1904" y="-1784.18" font-family="Times,serif" font-size="14.00">3</text>
</g>
<!-- 3&#45;&gt;1 -->
<g id="edge14" class="edge">
<title>3&#45;&gt;1</title>
<path fill="none" stroke="black" d="M1876.77,-1786.64C1764.5,-1781.49 1326.7,-1759.65 969,-1717.6 946.1,-1714.91 920.58,-1710.85 900.31,-1707.37"/>
<polygon fill="black" stroke="black" points="901,-1703.94 890.54,-1705.67 899.79,-1710.83 901,-1703.94"/>
<text xml:space="preserve" text-anchor="middle" x="1332.59" y="-1739.55" font-family="Times,serif" font-size="14.00">2</text>
</g>
<!-- 9 -->
<g id="node11" class="node">
<title>9</title>
<ellipse fill="none" stroke="black" cx="1419" cy="-313.45" rx="27" ry="18"/>
<text xml:space="preserve" text-anchor="middle" x="1419" y="-308.78" font-family="Times,serif" font-size="14.00">9</text>
</g>
<!-- 3&#45;&gt;9 -->
<g id="edge35" class="edge">
<title>3&#45;&gt;9</title>
<path fill="none" stroke="black" d="M1930.19,-1783.79C1970.97,-1775.82 2045,-1754 2045,-1700.6 2045,-1700.6 2045,-1700.6 2045,-1180.03 2045,-977.26 1757.44,-1139.02 1637,-975.9 1622.55,-956.33 1630.99,-946.05 1628,-921.9 1613.22,-802.66 1627.99,-770.58 1606,-652.45 1587.87,-555.08 1593.54,-523.88 1543,-438.7 1517.43,-395.61 1473.56,-356.62 1445.44,-334.23"/>
<polygon fill="black" stroke="black" points="1447.79,-331.63 1437.75,-328.23 1443.48,-337.14 1447.79,-331.63"/>
<text xml:space="preserve" text-anchor="middle" x="1918.16" y="-1042.48" font-family="Times,serif" font-size="14.00">1</text>
</g>
<!-- 12 -->
<g id="node14" class="node">
<title>12</title>
<ellipse fill="none" stroke="black" cx="1252" cy="-1422" rx="23.85" ry="23.85"/>
<ellipse fill="none" stroke="black" cx="1252" cy="-1422" rx="27.85" ry="27.85"/>
<text xml:space="preserve" text-anchor="middle" x="1252" y="-1417.33" font-family="Times,serif" font-size="14.00">12</text>
</g>
<!-- 3&#45;&gt;12 -->
<g id="edge18" class="edge">
<title>3&#45;&gt;12</title>
<path fill="none" stroke="black" d="M1876.99,-1785.41C1839.26,-1781.44 1769,-1772.03 1712,-1752.85 1512.73,-1685.8 1441.48,-1684.9 1290,-1539.1 1270.22,-1520.06 1268.57,-1511.18 1260,-1485.1 1257.54,-1477.61 1255.83,-1469.37 1254.64,-1461.42"/>
<polygon fill="black" stroke="black" points="1258.13,-1461.09 1253.44,-1451.59 1251.18,-1461.94 1258.13,-1461.09"/>
<text xml:space="preserve" text-anchor="middle" x="1401.79" y="-1605.68" font-family="Times,serif" font-size="14.00">0</text>
</g>
<!-- 19 -->
<g id="node21" class="node">
<title>19</title>
<ellipse fill="none" stroke="black" cx="2214" cy="-491.95" rx="27" ry="18"/>
<text xml:space="preserve" text-anchor="middle" x="2214" y="-487.28" font-family="Times,serif" font-size="14.00">19</text>
</g>
<!-- 3&#45;&gt;19 -->
<g id="edge125" class="edge">
<title>3&#45;&gt;19</title>
<path fill="none" stroke="black" d="M1931.3,-1786.91C1985.31,-1784.53 2103.32,-1776.7 2135,-1752.85 2155.42,-1737.48 2159,-1726.16 2159,-1700.6 2159,-1700.6 2159,-1700.6 2159,-1475.48 2159,-1285.49 2170,-1238.14 2170,-1048.15 2170,-1048.15 2170,-1048.15 2170,-733.78 2170,-655.55 2192.74,-565.32 2205.53,-520.79"/>
<polygon fill="black" stroke="black" points="2208.81,-522.02 2208.27,-511.44 2202.1,-520.05 2208.81,-522.02"/>
<text xml:space="preserve" text-anchor="middle" x="2173.94" y="-1131.73" font-family="Times,serif" font-size="14.00">4</text>
</g>
<!-- 23 -->
<g id="node25" class="node">
<title>23</title>
<ellipse fill="none" stroke="black" cx="773" cy="-27.85" rx="27" ry="18"/>
<text xml:space="preserve" text-anchor="middle" x="773" y="-23.18" font-family="Times,serif" font-size="14.00">23</text>
</g>
<!-- 3&#45;&gt;23 -->
<g id="edge129" class="edge">
<title>3&#45;&gt;23</title>
<path fill="none" stroke="black" d="M1931.19,-1786.72C1981.26,-1783.03 2083,-1767.32 2083,-1700.6 2083,-1700.6 2083,-1700.6 2083,-1180.03 2083,-1081.7 2090,-1057.23 2090,-958.9 2090,-958.9 2090,-958.9 2090,-624.83 2090,-552.83 2078.49,-528.07 2031,-473.95 2001.14,-439.92 1711.64,-302.61 1674,-277.45 1606.31,-232.21 1603.61,-199.78 1531,-162.95 1448.89,-121.3 1420.3,-131.35 1331,-108.95 1263.74,-92.08 1247.36,-85.36 1179,-73.7 1044.58,-50.77 883.02,-36.98 810.94,-31.54"/>
<polygon fill="black" stroke="black" points="811.49,-28.07 801.26,-30.82 810.98,-35.05 811.49,-28.07"/>
<text xml:space="preserve" text-anchor="middle" x="2094.5" y="-908.6" font-family="Times,serif" font-size="14.00">3</text>
</g>
<!-- 4 -->
<g id="node6" class="node">
<title>4</title>
<ellipse fill="none" stroke="black" cx="1304" cy="-1047.15" rx="27" ry="18"/>
<text xml:space="preserve" text-anchor="middle" x="1304" y="-1042.48" font-family="Times,serif" font-size="14.00">4</text>
</g>
<!-- 4&#45;&gt;3 -->
<g id="edge41" class="edge">
<title>4&#45;&gt;3</title>
<path fill="none" stroke="black" d="M1317.76,-1063.06C1369.44,-1119.25 1556.23,-1324.15 1698,-1503.1 1771.73,-1596.17 1852.4,-1712.28 1886.86,-1762.62"/>
<polygon fill="black" stroke="black" points="1883.92,-1764.53 1892.45,-1770.82 1889.7,-1760.58 1883.92,-1764.53"/>
<text xml:space="preserve" text-anchor="middle" x="1659.06" y="-1417.33" font-family="Times,serif" font-size="14.00">3</text>
</g>
<!-- 13 -->
<g id="node15" class="node">
<title>13</title>
<ellipse fill="none" stroke="black" cx="1462" cy="-220.2" rx="27" ry="18"/>
<text xml:space="preserve" text-anchor="middle" x="1462" y="-215.53" font-family="Times,serif" font-size="14.00">13</text>
</g>
<!-- 4&#45;&gt;13 -->
<g id="edge126" class="edge">
<title>4&#45;&gt;13</title>
<path fill="none" stroke="black" d="M1319.84,-1032.43C1325.95,-1026.43 1332.52,-1018.98 1337,-1011.15 1364.22,-963.58 1475,-592.38 1475,-537.58 1475,-537.58 1475,-537.58 1475,-312.45 1475,-291.16 1471.49,-267.34 1468.11,-249.38"/>
<polygon fill="black" stroke="black" points="1471.58,-248.86 1466.2,-239.74 1464.71,-250.23 1471.58,-248.86"/>
<text xml:space="preserve" text-anchor="middle" x="1464.23" y="-621.15" font-family="Times,serif" font-size="14.00">2</text>
</g>
<!-- 4&#45;&gt;16 -->
<g id="edge99" class="edge">
<title>4&#45;&gt;16</title>
<path fill="none" stroke="black" d="M1308.22,-1065.18C1309.54,-1070.87 1310.93,-1077.26 1312,-1083.15 1342.81,-1252.91 1350.77,-1295.83 1364,-1467.85 1364.58,-1475.45 1364.89,-1483.69 1365.04,-1491.33"/>
<polygon fill="black" stroke="black" points="1361.54,-1491.19 1365.15,-1501.15 1368.54,-1491.11 1361.54,-1491.19"/>
<text xml:space="preserve" text-anchor="middle" x="1349.52" y="-1265.6" font-family="Times,serif" font-size="14.00">1</text>
</g>
<!-- 4&#45;&gt;17 -->
<g id="edge116" class="edge">
<title>4&#45;&gt;17</title>
<path fill="none" stroke="black" d="M1280.45,-1056.17C1263.19,-1062.47 1239.48,-1072.02 1220,-1083.15 1208.91,-1089.49 1208.37,-1094.56 1197,-1100.4 1173.43,-1112.51 1144.88,-1121.4 1122.64,-1127.18"/>
<polygon fill="black" stroke="black" points="1121.96,-1123.75 1113.11,-1129.56 1123.66,-1130.54 1121.96,-1123.75"/>
<text xml:space="preserve" text-anchor="middle" x="1224.5" y="-1087.1" font-family="Times,serif" font-size="14.00">0</text>
</g>
<!-- 4&#45;&gt;21 -->
<g id="edge144" class="edge">
<title>4&#45;&gt;21</title>
<path fill="none" stroke="black" d="M1328.2,-1038.64C1363.53,-1027.84 1431.4,-1007.71 1490,-993.9 1540,-982.12 1598.39,-971.49 1635.52,-965.11"/>
<polygon fill="black" stroke="black" points="1636.03,-968.57 1645.3,-963.45 1634.85,-961.67 1636.03,-968.57"/>
<text xml:space="preserve" text-anchor="middle" x="1494.5" y="-997.85" font-family="Times,serif" font-size="14.00">4</text>
</g>
<!-- 5 -->
<g id="node7" class="node">
<title>5</title>
<ellipse fill="none" stroke="black" cx="2437" cy="-2076.3" rx="27" ry="18"/>
<text xml:space="preserve" text-anchor="middle" x="2437" y="-2071.63" font-family="Times,serif" font-size="14.00">5</text>
</g>
<!-- 8 -->
<g id="node10" class="node">
<title>8</title>
<ellipse fill="none" stroke="black" cx="367" cy="-1987.05" rx="27" ry="18"/>
<text xml:space="preserve" text-anchor="middle" x="367" y="-1982.38" font-family="Times,serif" font-size="14.00">8</text>
</g>
<!-- 5&#45;&gt;8 -->
<g id="edge123" class="edge">
<title>5&#45;&gt;8</title>
<path fill="none" stroke="black" d="M2409.58,-2075.39C2259.54,-2075.74 1522.79,-2075.48 922,-2040.3 726.9,-2028.88 494.27,-2002.97 404.7,-1992.53"/>
<polygon fill="black" stroke="black" points="405.36,-1989.08 395.02,-1991.4 404.55,-1996.04 405.36,-1989.08"/>
<text xml:space="preserve" text-anchor="middle" x="926.5" y="-2027" font-family="Times,serif" font-size="14.00">1</text>
</g>
<!-- 5&#45;&gt;12 -->
<g id="edge109" class="edge">
<title>5&#45;&gt;12</title>
<path fill="none" stroke="black" d="M2409.83,-2075.18C2207.61,-2074.12 945,-2064.43 945,-1988.05 945,-1988.05 945,-1988.05 945,-1520.1 945,-1464.57 1129.93,-1436.75 1212.73,-1427.07"/>
<polygon fill="black" stroke="black" points="1212.9,-1430.58 1222.44,-1425.97 1212.11,-1423.62 1212.9,-1430.58"/>
<text xml:space="preserve" text-anchor="middle" x="949.5" y="-1739.55" font-family="Times,serif" font-size="14.00">2</text>
</g>
<!-- 18 -->
<g id="node20" class="node">
<title>18</title>
<ellipse fill="none" stroke="black" cx="2121" cy="-313.45" rx="27" ry="18"/>
<text xml:space="preserve" text-anchor="middle" x="2121" y="-308.78" font-family="Times,serif" font-size="14.00">18</text>
</g>
<!-- 5&#45;&gt;18 -->
<g id="edge141" class="edge">
<title>5&#45;&gt;18</title>
<path fill="none" stroke="black" d="M2449,-2059.88C2460.78,-2043.16 2477,-2015.21 2477,-1988.05 2477,-1988.05 2477,-1988.05 2477,-624.83 2477,-581.49 2488.12,-565.21 2466,-527.95 2393.33,-405.52 2325.36,-416.95 2200,-349.45 2185.37,-341.57 2168.61,-333.96 2154.3,-327.86"/>
<polygon fill="black" stroke="black" points="2155.89,-324.73 2145.31,-324.09 2153.18,-331.18 2155.89,-324.73"/>
<text xml:space="preserve" text-anchor="middle" x="2481.5" y="-1176.35" font-family="Times,serif" font-size="14.00">0</text>
</g>
<!-- 5&#45;&gt;20 -->
<g id="edge101" class="edge">
<title>5&#45;&gt;20</title>
<path fill="none" stroke="black" d="M2409.89,-2075.25C2179.96,-2074.78 559.69,-2070.4 346,-2040.3 257.58,-2027.85 152,-2077.35 152,-1988.05 152,-1988.05 152,-1988.05 152,-1832.48 152,-1747.43 95.56,-1741.75 62,-1663.6 27.6,-1583.49 0,-1564.67 0,-1477.48 0,-1477.48 0,-1477.48 0,-823.03 0,-712.96 75.21,-434.55 145,-349.45 244.32,-228.35 293.06,-204.75 444,-162.95 546.19,-134.65 672.08,-128.97 734.35,-128"/>
<polygon fill="black" stroke="black" points="734.1,-131.5 744.06,-127.88 734.02,-124.5 734.1,-131.5"/>
<text xml:space="preserve" text-anchor="middle" x="4.5" y="-1087.1" font-family="Times,serif" font-size="14.00">3</text>
</g>
<!-- 5&#45;&gt;25 -->
<g id="edge131" class="edge">
<title>5&#45;&gt;25</title>
<path fill="none" stroke="black" d="M2462.49,-2069.43C2498.51,-2059.43 2560,-2035.44 2560,-1988.05 2560,-1988.05 2560,-1988.05 2560,-1269.28 2560,-1151.12 2553,-1121.68 2553,-1003.53 2553,-1003.53 2553,-1003.53 2553,-733.78 2553,-531.68 2563.17,-449.19 2432,-295.45 2415.51,-276.12 2410.74,-269.25 2387,-260.2 2270.06,-215.62 2224.7,-281.85 2106,-242.2 2104.18,-241.59 2102.36,-240.85 2100.57,-240.02"/>
<polygon fill="black" stroke="black" points="2102.51,-237.1 2092.07,-235.25 2099.08,-243.2 2102.51,-237.1"/>
<text xml:space="preserve" text-anchor="middle" x="2561.8" y="-1131.73" font-family="Times,serif" font-size="14.00">4</text>
</g>
<!-- 6 -->
<g id="node8" class="node">
<title>6</title>
<ellipse fill="none" stroke="black" cx="741" cy="-220.2" rx="18" ry="18"/>
<ellipse fill="none" stroke="black" cx="741" cy="-220.2" rx="22" ry="22"/>
<text xml:space="preserve" text-anchor="middle" x="741" y="-215.53" font-family="Times,serif" font-size="14.00">6</text>
</g>
<!-- 6&#45;&gt;0 -->
<g id="edge61" class="edge">
<title>6&#45;&gt;0</title>
<path fill="none" stroke="black" d="M743.89,-242.18C746.18,-260.64 749,-288.28 749,-312.45 749,-448.33 749,-448.33 749,-448.33 749,-539.89 668.67,-533.75 631,-617.2 590.79,-706.28 566.77,-737.04 587,-832.65 595.08,-870.84 689.27,-1086.1 734,-1154.4 750.98,-1180.32 759.02,-1183.97 779,-1207.65 805.69,-1239.29 804.6,-1255.86 839,-1278.9 866.08,-1297.04 902.13,-1307.19 928.02,-1312.56"/>
<polygon fill="black" stroke="black" points="927.16,-1315.95 937.64,-1314.41 928.48,-1309.08 927.16,-1315.95"/>
<text xml:space="preserve" text-anchor="middle" x="585.63" y="-774.73" font-family="Times,serif" font-size="14.00">0</text>
</g>
<!-- 6&#45;&gt;6 -->
<g id="edge63" class="edge">
<title>6&#45;&gt;6</title>
<path fill="none" stroke="black" d="M762.81,-224.69C772.56,-225.12 781,-223.62 781,-220.2 781,-218.28 778.33,-216.96 774.26,-216.26"/>
<polygon fill="black" stroke="black" points="774.47,-212.76 764.32,-215.79 774.14,-219.76 774.47,-212.76"/>
<text xml:space="preserve" text-anchor="middle" x="785.5" y="-215.53" font-family="Times,serif" font-size="14.00">2</text>
</g>
<!-- 6&#45;&gt;6 -->
<g id="edge64" class="edge">
<title>6&#45;&gt;6</title>
<path fill="none" stroke="black" d="M762.11,-227.87C780.1,-231.26 799,-228.7 799,-220.2 799,-213.49 787.23,-210.49 773.43,-211.18"/>
<polygon fill="black" stroke="black" points="773.13,-207.69 763.62,-212.35 773.96,-214.64 773.13,-207.69"/>
<text xml:space="preserve" text-anchor="middle" x="803.5" y="-215.53" font-family="Times,serif" font-size="14.00">4</text>
</g>
<!-- 6&#45;&gt;20 -->
<g id="edge54" class="edge">
<title>6&#45;&gt;20</title>
<path fill="none" stroke="black" d="M737.96,-197.96C737.25,-187.13 737.71,-173.96 742,-162.95 743.76,-158.44 746.38,-154.13 749.36,-150.18"/>
<polygon fill="black" stroke="black" points="751.85,-152.65 755.77,-142.8 746.57,-148.06 751.85,-152.65"/>
<text xml:space="preserve" text-anchor="middle" x="746.5" y="-166.9" font-family="Times,serif" font-size="14.00">3</text>
</g>
<!-- 6&#45;&gt;24 -->
<g id="edge26" class="edge">
<title>6&#45;&gt;24</title>
<path fill="none" stroke="black" d="M732.61,-241.02C707.03,-301.43 629.99,-483.4 600.58,-552.85"/>
<polygon fill="black" stroke="black" points="597.39,-551.4 596.72,-561.97 603.84,-554.13 597.39,-551.4"/>
<text xml:space="preserve" text-anchor="middle" x="676.2" y="-398.03" font-family="Times,serif" font-size="14.00">1</text>
</g>
<!-- 7 -->
<g id="node9" class="node">
<title>7</title>
<ellipse fill="none" stroke="black" cx="710" cy="-779.4" rx="27" ry="18"/>
<text xml:space="preserve" text-anchor="middle" x="710" y="-774.73" font-family="Times,serif" font-size="14.00">7</text>
</g>
<!-- 7&#45;&gt;1 -->
<g id="edge45" class="edge">
<title>7&#45;&gt;1</title>
<path fill="none" stroke="black" d="M685.53,-787.68C670.66,-793.19 652.25,-802.12 640,-815.4 572.67,-888.43 501.94,-1144.83 512,-1243.65 531.09,-1431.26 542.38,-1512.27 691,-1628.35 732.01,-1660.38 789.63,-1679.94 826.64,-1690.03"/>
<polygon fill="black" stroke="black" points="825.4,-1693.32 835.97,-1692.47 827.18,-1686.55 825.4,-1693.32"/>
<text xml:space="preserve" text-anchor="middle" x="516.5" y="-1220.98" font-family="Times,serif" font-size="14.00">4</text>
</g>
<!-- 7&#45;&gt;12 -->
<g id="edge100" class="edge">
<title>7&#45;&gt;12</title>
<path fill="none" stroke="black" d="M710.89,-797.68C715.39,-883.36 735.91,-1259.45 751,-1278.9 808.82,-1353.44 1105.27,-1400.88 1212.9,-1415.87"/>
<polygon fill="black" stroke="black" points="1212.3,-1419.32 1222.68,-1417.21 1213.25,-1412.39 1212.3,-1419.32"/>
<text xml:space="preserve" text-anchor="middle" x="734.08" y="-1087.1" font-family="Times,serif" font-size="14.00">2</text>
</g>
<!-- 7&#45;&gt;14 -->
<g id="edge46" class="edge">
<title>7&#45;&gt;14</title>
<path fill="none" stroke="black" d="M703.57,-797.1C699.42,-807.48 693.75,-821 688,-832.65 686.55,-835.59 684.96,-838.63 683.33,-841.63"/>
<polygon fill="black" stroke="black" points="680.37,-839.74 678.52,-850.17 686.47,-843.17 680.37,-839.74"/>
<text xml:space="preserve" text-anchor="middle" x="700.33" y="-819.35" font-family="Times,serif" font-size="14.00">1</text>
</g>
<!-- 7&#45;&gt;17 -->
<g id="edge77" class="edge">
<title>7&#45;&gt;17</title>
<path fill="none" stroke="black" d="M733.28,-788.83C746.78,-794.64 763.36,-803.48 775,-815.4 874.32,-917.06 807.21,-1013.94 920,-1100.4 939.71,-1115.51 1005.49,-1125.9 1048.09,-1131.23"/>
<polygon fill="black" stroke="black" points="1047.58,-1134.7 1057.93,-1132.42 1048.42,-1127.75 1047.58,-1134.7"/>
<text xml:space="preserve" text-anchor="middle" x="849.41" y="-953.23" font-family="Times,serif" font-size="14.00">0</text>
</g>
<!-- 7&#45;&gt;26 -->
<g id="edge124" class="edge">
<title>7&#45;&gt;26</title>
<path fill="none" stroke="black" d="M710,-761.04C710,-749.51 710,-733.9 710,-719.55"/>
<polygon fill="black" stroke="black" points="713.5,-719.92 710,-709.92 706.5,-719.92 713.5,-719.92"/>
<text xml:space="preserve" text-anchor="middle" x="714.5" y="-730.1" font-family="Times,serif" font-size="14.00">3</text>
</g>
<!-- 8&#45;&gt;8 -->
<g id="edge66" class="edge">
<title>8&#45;&gt;8</title>
<path fill="none" stroke="black" d="M391.53,-1995.29C402.51,-1996.07 412,-1993.33 412,-1987.05 412,-1983.13 408.29,-1980.59 402.83,-1979.42"/>
<polygon fill="black" stroke="black" points="403.22,-1975.94 393.04,-1978.9 402.84,-1982.93 403.22,-1975.94"/>
<text xml:space="preserve" text-anchor="middle" x="416.5" y="-1982.38" font-family="Times,serif" font-size="14.00">4</text>
</g>
<!-- 10 -->
<g id="node12" class="node">
<title>10</title>
<ellipse fill="none" stroke="black" cx="1603" cy="-1887.95" rx="23.85" ry="23.85"/>
<ellipse fill="none" stroke="black" cx="1603" cy="-1887.95" rx="27.85" ry="27.85"/>
<text xml:space="preserve" text-anchor="middle" x="1603" y="-1883.28" font-family="Times,serif" font-size="14.00">10</text>
</g>
<!-- 8&#45;&gt;10 -->
<g id="edge104" class="edge">
<title>8&#45;&gt;10</title>
<path fill="none" stroke="black" d="M394.13,-1985.01C481.77,-1981.54 765.11,-1969.54 999,-1951.05 1212.61,-1934.17 1467.81,-1904.94 1563.87,-1893.62"/>
<polygon fill="black" stroke="black" points="1564.02,-1897.13 1573.54,-1892.48 1563.2,-1890.18 1564.02,-1897.13"/>
<text xml:space="preserve" text-anchor="middle" x="1186.36" y="-1937.75" font-family="Times,serif" font-size="14.00">0</text>
</g>
<!-- 8&#45;&gt;12 -->
<g id="edge13" class="edge">
<title>8&#45;&gt;12</title>
<path fill="none" stroke="black" d="M393.76,-1983.4C498.59,-1972.43 879.49,-1927.23 959,-1842.1 1016.29,-1780.76 991,-1739.91 991,-1655.98 991,-1655.98 991,-1655.98 991,-1520.1 991,-1473.18 1141.07,-1441.59 1213.62,-1429.05"/>
<polygon fill="black" stroke="black" points="1213.79,-1432.57 1223.07,-1427.46 1212.63,-1425.67 1213.79,-1432.57"/>
<text xml:space="preserve" text-anchor="middle" x="998.97" y="-1694.93" font-family="Times,serif" font-size="14.00">1</text>
</g>
<!-- 8&#45;&gt;17 -->
<g id="edge67" class="edge">
<title>8&#45;&gt;17</title>
<path fill="none" stroke="black" d="M373.15,-1969.09C386.72,-1930.1 418,-1830.92 418,-1745.23 418,-1745.23 418,-1745.23 418,-1564.73 418,-1370.74 505.25,-1311.65 669,-1207.65 731.87,-1167.72 957.01,-1146.96 1047.72,-1140.06"/>
<polygon fill="black" stroke="black" points="1047.88,-1143.56 1057.59,-1139.33 1047.36,-1136.58 1047.88,-1143.56"/>
<text xml:space="preserve" text-anchor="middle" x="422.5" y="-1561.05" font-family="Times,serif" font-size="14.00">2</text>
</g>
<!-- 8&#45;&gt;24 -->
<g id="edge96" class="edge">
<title>8&#45;&gt;24</title>
<path fill="none" stroke="black" d="M362.86,-1969.01C338.82,-1867.36 220.95,-1331.02 302,-904.65 324.71,-785.2 330.96,-746.51 408,-652.45 443.46,-609.16 509.04,-592.48 550.77,-586.09"/>
<polygon fill="black" stroke="black" points="551.19,-589.57 560.62,-584.73 550.23,-582.63 551.19,-589.57"/>
<text xml:space="preserve" text-anchor="middle" x="278.78" y="-1265.6" font-family="Times,serif" font-size="14.00">3</text>
</g>
<!-- 9&#45;&gt;13 -->
<g id="edge105" class="edge">
<title>9&#45;&gt;13</title>
<path fill="none" stroke="black" d="M1416.03,-295.24C1415,-284.68 1415.11,-271.13 1420,-260.2 1423.28,-252.88 1428.66,-246.3 1434.49,-240.72"/>
<polygon fill="black" stroke="black" points="1436.69,-243.44 1442.01,-234.28 1432.14,-238.12 1436.69,-243.44"/>
<text xml:space="preserve" text-anchor="middle" x="1424.5" y="-264.15" font-family="Times,serif" font-size="14.00">4</text>
</g>
<!-- 9&#45;&gt;13 -->
<g id="edge142" class="edge">
<title>9&#45;&gt;13</title>
<path fill="none" stroke="black" d="M1426.69,-296.14C1433.01,-282.73 1442.09,-263.45 1449.46,-247.81"/>
<polygon fill="black" stroke="black" points="1452.49,-249.59 1453.59,-239.05 1446.16,-246.6 1452.49,-249.59"/>
<text xml:space="preserve" text-anchor="middle" x="1447.57" y="-264.15" font-family="Times,serif" font-size="14.00">0</text>
</g>
<!-- 9&#45;&gt;16 -->
<g id="edge8" class="edge">
<title>9&#45;&gt;16</title>
<path fill="none" stroke="black" d="M1412.78,-331.24C1406.91,-348.62 1399,-376.68 1399,-401.7 1399,-537.58 1399,-537.58 1399,-537.58 1399,-625.05 1463.39,-836.89 1484,-921.9 1491.8,-954.07 1495.5,-961.67 1503,-993.9 1519.26,-1063.82 1530.03,-1083.19 1521,-1154.4 1503.64,-1291.35 1418.2,-1437.51 1381.64,-1494.91"/>
<polygon fill="black" stroke="black" points="1378.9,-1492.7 1376.43,-1503 1384.79,-1496.49 1378.9,-1492.7"/>
<text xml:space="preserve" text-anchor="middle" x="1488.5" y="-908.6" font-family="Times,serif" font-size="14.00">3</text>
</g>
<!-- 9&#45;&gt;17 -->
<g id="edge146" class="edge">
<title>9&#45;&gt;17</title>
<path fill="none" stroke="black" d="M1391.92,-316.64C1345.34,-322.04 1255,-340.42 1255,-401.7 1255,-626.83 1255,-626.83 1255,-626.83 1255,-844.18 1254.18,-919.97 1133,-1100.4 1128.5,-1107.1 1122.28,-1113 1115.84,-1117.96"/>
<polygon fill="black" stroke="black" points="1113.85,-1115.08 1107.65,-1123.68 1117.86,-1120.82 1113.85,-1115.08"/>
<text xml:space="preserve" text-anchor="middle" x="1258.85" y="-730.1" font-family="Times,serif" font-size="14.00">1</text>
</g>
<!-- 9&#45;&gt;25 -->
<g id="edge147" class="edge">
<title>9&#45;&gt;25</title>
<path fill="none" stroke="black" d="M1445.49,-308.76C1547.75,-294.51 1917.04,-243.07 2036.46,-226.43"/>
<polygon fill="black" stroke="black" points="2036.62,-229.94 2046.04,-225.1 2035.66,-223.01 2036.62,-229.94"/>
<text xml:space="preserve" text-anchor="middle" x="1790.22" y="-264.15" font-family="Times,serif" font-size="14.00">2</text>
</g>
<!-- 10&#45;&gt;3 -->
<g id="edge71" class="edge">
<title>10&#45;&gt;3</title>
<path fill="none" stroke="black" d="M1629.45,-1878.42C1683.87,-1860.86 1808.39,-1820.7 1869.24,-1801.07"/>
<polygon fill="black" stroke="black" points="1869.95,-1804.52 1878.39,-1798.11 1867.8,-1797.85 1869.95,-1804.52"/>
<text xml:space="preserve" text-anchor="middle" x="1793.81" y="-1828.8" font-family="Times,serif" font-size="14.00">3</text>
</g>
<!-- 10&#45;&gt;6 -->
<g id="edge87" class="edge">
<title>10&#45;&gt;6</title>
<path fill="none" stroke="black" d="M1574.82,-1884.9C1497.73,-1879.2 1276.97,-1862.23 1094,-1842.1 763.73,-1805.77 503.24,-1888.83 396,-1574.35 376.24,-1516.41 307.33,-527.5 337,-473.95 419.15,-325.65 628.65,-252.82 708.98,-229.66"/>
<polygon fill="black" stroke="black" points="709.73,-233.08 718.41,-227.01 707.83,-226.35 709.73,-233.08"/>
<text xml:space="preserve" text-anchor="middle" x="355.01" y="-1042.48" font-family="Times,serif" font-size="14.00">4</text>
</g>
<!-- 10&#45;&gt;17 -->
<g id="edge138" class="edge">
<title>10&#45;&gt;17</title>
<path fill="none" stroke="black" d="M1575.09,-1884.59C1425.8,-1871.42 722.43,-1802.65 564,-1663.6 526.55,-1630.73 518.4,-1605.79 529,-1557.1 536.68,-1521.84 637.11,-1285.72 664,-1261.65 687.62,-1240.51 904.47,-1180.95 935,-1172.4 973.6,-1161.59 1018.41,-1151.51 1049.13,-1144.97"/>
<polygon fill="black" stroke="black" points="1049.63,-1148.44 1058.69,-1142.96 1048.18,-1141.6 1049.63,-1148.44"/>
<text xml:space="preserve" text-anchor="middle" x="552.29" y="-1516.43" font-family="Times,serif" font-size="14.00">2</text>
</g>
<!-- 10&#45;&gt;21 -->
<g id="edge55" class="edge">
<title>10&#45;&gt;21</title>
<path fill="none" stroke="black" d="M1631.18,-1885.42C1750,-1878.59 2204,-1848.64 2204,-1789.85 2204,-1789.85 2204,-1789.85 2204,-1564.73 2204,-1455.92 2204,-1428.71 2204,-1319.9 2204,-1319.9 2204,-1319.9 2204,-1180.03 2204,-1126.12 2179.68,-1106.32 2131,-1083.15 1983.88,-1013.12 1790.72,-977.14 1710.47,-964.39"/>
<polygon fill="black" stroke="black" points="1711.38,-960.99 1700.96,-962.91 1710.3,-967.91 1711.38,-960.99"/>
<text xml:space="preserve" text-anchor="middle" x="2208.5" y="-1417.33" font-family="Times,serif" font-size="14.00">0</text>
</g>
<!-- 10&#45;&gt;23 -->
<g id="edge151" class="edge">
<title>10&#45;&gt;23</title>
<path fill="none" stroke="black" d="M1574.69,-1887.02C1426.22,-1887.07 736.72,-1883.11 540,-1806.85 472.59,-1780.72 451.73,-1771.91 404,-1717.6 367.94,-1676.58 198,-1325.9 198,-1271.28 198,-1271.28 198,-1271.28 198,-1090.78 198,-844.88 190,-783.47 190,-537.58 190,-537.58 190,-537.58 190,-125.95 190,-70.54 605.07,-39.51 734.76,-31.16"/>
<polygon fill="black" stroke="black" points="734.78,-34.67 744.54,-30.54 734.34,-27.68 734.78,-34.67"/>
<text xml:space="preserve" text-anchor="middle" x="201.82" y="-953.23" font-family="Times,serif" font-size="14.00">1</text>
</g>
<!-- 11 -->
<g id="node13" class="node">
<title>11</title>
<ellipse fill="none" stroke="black" cx="1723" cy="-27.85" rx="23.85" ry="23.85"/>
<ellipse fill="none" stroke="black" cx="1723" cy="-27.85" rx="27.85" ry="27.85"/>
<text xml:space="preserve" text-anchor="middle" x="1723" y="-23.18" font-family="Times,serif" font-size="14.00">11</text>
</g>
<!-- 11&#45;&gt;0 -->
<g id="edge132" class="edge">
<title>11&#45;&gt;0</title>
<path fill="none" stroke="black" d="M1710.48,-52.98C1681.45,-111.24 1612,-264.93 1612,-401.7 1612,-537.58 1612,-537.58 1612,-537.58 1612,-698.84 1565.08,-734.03 1513,-886.65 1496.42,-935.25 1483.78,-944.43 1470,-993.9 1446.34,-1078.82 1476.06,-1110.14 1438,-1189.65 1415,-1237.7 1405.52,-1254.83 1358,-1278.9 1341.85,-1287.08 1087.26,-1307.92 994.49,-1315.28"/>
<polygon fill="black" stroke="black" points="994.45,-1311.77 984.76,-1316.04 995.01,-1318.75 994.45,-1311.77"/>
<text xml:space="preserve" text-anchor="middle" x="1605.58" y="-675.63" font-family="Times,serif" font-size="14.00">1</text>
</g>
<!-- 11&#45;&gt;3 -->
<g id="edge23" class="edge">
<title>11&#45;&gt;3</title>
<path fill="none" stroke="black" d="M1751.25,-28.72C1908.32,-28.34 2667,-31.42 2667,-125.95 2667,-269.83 2667,-269.83 2667,-269.83 2667,-415.23 2531.42,-398.1 2466,-527.95 2445.89,-567.87 2439,-580.13 2439,-624.83 2439,-1700.6 2439,-1700.6 2439,-1700.6 2439,-1750.98 2064.73,-1778.12 1942.27,-1785.66"/>
<polygon fill="black" stroke="black" points="1942.18,-1782.15 1932.41,-1786.25 1942.6,-1789.14 1942.18,-1782.15"/>
<text xml:space="preserve" text-anchor="middle" x="2443.5" y="-908.6" font-family="Times,serif" font-size="14.00">3</text>
</g>
<!-- 11&#45;&gt;5 -->
<g id="edge137" class="edge">
<title>11&#45;&gt;5</title>
<path fill="none" stroke="black" d="M1751.25,-29.37C1882.87,-31.92 2436.65,-44.25 2607,-73.7 2686.56,-87.46 2781,-45.21 2781,-125.95 2781,-359.08 2781,-359.08 2781,-359.08 2781,-468.58 2679.16,-459.83 2643,-563.2 2558.78,-803.99 2598,-880.3 2598,-1135.4 2598,-1988.05 2598,-1988.05 2598,-1988.05 2598,-2043.71 2522.71,-2064.05 2475.1,-2071.34"/>
<polygon fill="black" stroke="black" points="2474.87,-2067.84 2465.45,-2072.69 2475.83,-2074.78 2474.87,-2067.84"/>
<text xml:space="preserve" text-anchor="middle" x="2601.49" y="-1042.48" font-family="Times,serif" font-size="14.00">2</text>
</g>
<!-- 11&#45;&gt;17 -->
<g id="edge98" class="edge">
<title>11&#45;&gt;17</title>
<path fill="none" stroke="black" d="M1694.79,-29.56C1638.37,-32.63 1517,-48.26 1517,-125.95 1517,-403.7 1517,-403.7 1517,-403.7 1517,-481.93 1556.23,-767.55 1479,-921.9 1423.58,-1032.67 1383.09,-1063.07 1265,-1100.4 1220.69,-1114.41 1207.58,-1109.33 1162,-1118.4 1149,-1120.99 1134.82,-1124.09 1122.26,-1126.92"/>
<polygon fill="black" stroke="black" points="1121.72,-1123.46 1112.75,-1129.1 1123.27,-1130.28 1121.72,-1123.46"/>
<text xml:space="preserve" text-anchor="middle" x="1531.01" y="-576.53" font-family="Times,serif" font-size="14.00">0</text>
</g>
<!-- 11&#45;&gt;21 -->
<g id="edge127" class="edge">
<title>11&#45;&gt;21</title>
<path fill="none" stroke="black" d="M1722.77,-55.96C1722.47,-92.88 1722,-161.04 1722,-219.2 1722,-359.08 1722,-359.08 1722,-359.08 1722,-484.39 1714.51,-799.64 1687,-921.9 1686.41,-924.54 1685.64,-927.24 1684.77,-929.91"/>
<polygon fill="black" stroke="black" points="1681.56,-928.5 1681.34,-939.09 1688.12,-930.95 1681.56,-928.5"/>
<text xml:space="preserve" text-anchor="middle" x="1725.07" y="-487.28" font-family="Times,serif" font-size="14.00">4</text>
</g>
<!-- 12&#45;&gt;0 -->
<g id="edge36" class="edge">
<title>12&#45;&gt;0</title>
<path fill="none" stroke="black" d="M1225.66,-1411.85C1172.02,-1393.21 1050.29,-1350.92 992.53,-1330.86"/>
<polygon fill="black" stroke="black" points="993.9,-1327.63 983.31,-1327.65 991.6,-1334.24 993.9,-1327.63"/>
<text xml:space="preserve" text-anchor="middle" x="1119.73" y="-1362.85" font-family="Times,serif" font-size="14.00">4</text>
</g>
<!-- 12&#45;&gt;3 -->
<g id="edge111" class="edge">
<title>12&#45;&gt;3</title>
<path fill="none" stroke="black" d="M1262.32,-1448.09C1274.46,-1474.53 1297.08,-1515.56 1329,-1539.1 1465.07,-1639.46 1563.19,-1539.22 1694,-1646.35 1735.37,-1680.24 1707.59,-1720.27 1750,-1752.85 1783.26,-1778.4 1831.75,-1785.92 1865.4,-1787.82"/>
<polygon fill="black" stroke="black" points="1864.99,-1791.31 1875.13,-1788.22 1865.28,-1784.32 1864.99,-1791.31"/>
<text xml:space="preserve" text-anchor="middle" x="1673.5" y="-1605.68" font-family="Times,serif" font-size="14.00">2</text>
</g>
<!-- 12&#45;&gt;4 -->
<g id="edge110" class="edge">
<title>12&#45;&gt;4</title>
<path fill="none" stroke="black" d="M1255.74,-1394.19C1265.25,-1326 1290.29,-1146.45 1300.04,-1076.56"/>
<polygon fill="black" stroke="black" points="1303.45,-1077.46 1301.36,-1067.07 1296.51,-1076.49 1303.45,-1077.46"/>
<text xml:space="preserve" text-anchor="middle" x="1286.16" y="-1220.98" font-family="Times,serif" font-size="14.00">3</text>
</g>
<!-- 12&#45;&gt;12 -->
<g id="edge33" class="edge">
<title>12&#45;&gt;12</title>
<path fill="none" stroke="black" d="M1278.39,-1432.15C1288.97,-1432.73 1297.85,-1429.34 1297.85,-1422 1297.85,-1417.53 1294.55,-1414.52 1289.58,-1412.99"/>
<polygon fill="black" stroke="black" points="1290.19,-1409.53 1279.89,-1412 1289.49,-1416.5 1290.19,-1409.53"/>
<text xml:space="preserve" text-anchor="middle" x="1302.35" y="-1417.33" font-family="Times,serif" font-size="14.00">0</text>
</g>
<!-- 12&#45;&gt;21 -->
<g id="edge88" class="edge">
<title>12&#45;&gt;21</title>
<path fill="none" stroke="black" d="M1279.2,-1415.61C1337.04,-1402.69 1472.86,-1364.5 1545,-1278.9 1573.88,-1244.63 1573,-1226.84 1573,-1182.03 1573,-1182.03 1573,-1182.03 1573,-1046.15 1573,-1010.14 1610.28,-985.58 1639.31,-971.91"/>
<polygon fill="black" stroke="black" points="1640.45,-975.23 1648.17,-967.98 1637.61,-968.83 1640.45,-975.23"/>
<text xml:space="preserve" text-anchor="middle" x="1577.5" y="-1176.35" font-family="Times,serif" font-size="14.00">1</text>
</g>
<!-- 13&#45;&gt;5 -->
<g id="edge34" class="edge">
<title>13&#45;&gt;5</title>
<path fill="none" stroke="black" d="M1488.8,-223.89C1566.07,-231.7 1784.71,-254.21 1799,-260.2 1836.61,-275.97 2360,-692.99 2360,-733.78 2360,-869.65 2360,-869.65 2360,-869.65 2360,-1048.02 2397,-1090.91 2397,-1269.28 2397,-1988.05 2397,-1988.05 2397,-1988.05 2397,-2010.55 2408.12,-2033.58 2418.64,-2050.32"/>
<polygon fill="black" stroke="black" points="2415.7,-2052.24 2424.16,-2058.62 2421.53,-2048.36 2415.7,-2052.24"/>
<text xml:space="preserve" text-anchor="middle" x="2395.39" y="-1131.73" font-family="Times,serif" font-size="14.00">4</text>
</g>
<!-- 13&#45;&gt;23 -->
<g id="edge84" class="edge">
<title>13&#45;&gt;23</title>
<path fill="none" stroke="black" d="M1442.03,-207.6C1392.54,-179.46 1259.54,-107.4 1139,-73.7 1022.68,-41.18 879.01,-32.24 811.49,-29.78"/>
<polygon fill="black" stroke="black" points="811.8,-26.29 801.69,-29.45 811.57,-33.28 811.8,-26.29"/>
<text xml:space="preserve" text-anchor="middle" x="1322.7" y="-122.28" font-family="Times,serif" font-size="14.00">2</text>
</g>
<!-- 13&#45;&gt;24 -->
<g id="edge47" class="edge">
<title>13&#45;&gt;24</title>
<path fill="none" stroke="black" d="M1439,-230.03C1385.61,-250.56 1249.21,-303.31 1136,-349.45 940.06,-429.31 706.63,-529.47 621.83,-566.02"/>
<polygon fill="black" stroke="black" points="620.51,-562.78 612.71,-569.95 623.28,-569.21 620.51,-562.78"/>
<text xml:space="preserve" text-anchor="middle" x="1052.43" y="-398.03" font-family="Times,serif" font-size="14.00">3</text>
</g>
<!-- 13&#45;&gt;29 -->
<g id="edge7" class="edge">
<title>13&#45;&gt;29</title>
<path fill="none" stroke="black" d="M1488.56,-224.26C1529.28,-228.85 1609.59,-237.47 1678,-242.2 2036.98,-267.02 2169.65,-194.31 2475,-384.7 2567.45,-442.34 2606.34,-460.61 2643,-563.2 2679.12,-664.28 2636,-938.82 2636,-1046.15 2636,-2077.3 2636,-2077.3 2636,-2077.3 2636,-2099.78 2626.89,-2123.21 2617.48,-2141.42"/>
<polygon fill="black" stroke="black" points="2614.42,-2139.71 2612.69,-2150.17 2620.56,-2143.07 2614.42,-2139.71"/>
<text xml:space="preserve" text-anchor="middle" x="2640.5" y="-1176.35" font-family="Times,serif" font-size="14.00">1</text>
</g>
<!-- 13&#45;&gt;29 -->
<g id="edge115" class="edge">
<title>13&#45;&gt;29</title>
<path fill="none" stroke="black" d="M1488.56,-224.33C1529.27,-229.01 1609.57,-237.75 1678,-242.2 1919.84,-257.93 1983.29,-224.48 2223,-260.2 2282.63,-269.09 2298.05,-272.98 2354,-295.45 2486.8,-348.79 2536.42,-359.25 2622,-473.95 2739.32,-631.19 2674,-716.1 2674,-912.28 2674,-2077.3 2674,-2077.3 2674,-2077.3 2674,-2107.99 2650.1,-2134.62 2628.93,-2152.19"/>
<polygon fill="black" stroke="black" points="2626.98,-2149.28 2621.29,-2158.22 2631.31,-2154.77 2626.98,-2149.28"/>
<text xml:space="preserve" text-anchor="middle" x="2678.5" y="-1176.35" font-family="Times,serif" font-size="14.00">0</text>
</g>
<!-- 14&#45;&gt;2 -->
<g id="edge121" class="edge">
<title>14&#45;&gt;2</title>
<path fill="none" stroke="black" d="M665.12,-886.88C658.2,-931.56 642.58,-1054.66 662,-1154.4 700.49,-1352.05 725.94,-1403.19 832,-1574.35 834.55,-1578.47 837.59,-1582.56 840.76,-1586.43"/>
<polygon fill="black" stroke="black" points="837.99,-1588.57 847.21,-1593.78 843.25,-1583.95 837.99,-1588.57"/>
<text xml:space="preserve" text-anchor="middle" x="685.09" y="-1220.98" font-family="Times,serif" font-size="14.00">0</text>
</g>
<!-- 14&#45;&gt;7 -->
<g id="edge37" class="edge">
<title>14&#45;&gt;7</title>
<path fill="none" stroke="black" d="M655.03,-852.91C647.19,-842.13 639.96,-827.37 647,-815.4 653.25,-804.78 664.02,-797.15 674.91,-791.78"/>
<polygon fill="black" stroke="black" points="676.06,-795.09 683.84,-787.9 673.28,-788.67 676.06,-795.09"/>
<text xml:space="preserve" text-anchor="middle" x="651.5" y="-819.35" font-family="Times,serif" font-size="14.00">1</text>
</g>
<!-- 14&#45;&gt;7 -->
<g id="edge74" class="edge">
<title>14&#45;&gt;7</title>
<path fill="none" stroke="black" d="M669.37,-850.44C670.75,-839.88 673.5,-826.33 679,-815.4 681.18,-811.08 684.02,-806.87 687.1,-802.96"/>
<polygon fill="black" stroke="black" points="689.59,-805.43 693.53,-795.59 684.32,-800.82 689.59,-805.43"/>
<text xml:space="preserve" text-anchor="middle" x="683.5" y="-819.35" font-family="Times,serif" font-size="14.00">4</text>
</g>
<!-- 14&#45;&gt;25 -->
<g id="edge5" class="edge">
<title>14&#45;&gt;25</title>
<path fill="none" stroke="black" d="M695.09,-866.26C755.06,-863.2 903.59,-855.77 1028,-850.65 1255.95,-841.27 1314.66,-861.23 1541,-832.65 1648.44,-819.09 1779,-888.7 1779,-780.4 1779,-780.4 1779,-780.4 1779,-624.83 1779,-525.68 1834.2,-513.54 1869,-420.7 1895.22,-350.74 1864.72,-311.55 1919,-260.2 1950.33,-230.56 2000.75,-222.54 2035.54,-220.81"/>
<polygon fill="black" stroke="black" points="2035.29,-224.32 2045.17,-220.49 2035.06,-217.32 2035.29,-224.32"/>
<text xml:space="preserve" text-anchor="middle" x="1810.42" y="-531.9" font-family="Times,serif" font-size="14.00">3</text>
</g>
<!-- 14&#45;&gt;28 -->
<g id="edge29" class="edge">
<title>14&#45;&gt;28</title>
<path fill="none" stroke="black" d="M668.72,-886.95C671.12,-927.29 681.41,-1029.6 725,-1100.4 759.23,-1155.99 828.66,-1193.1 870.27,-1211.38"/>
<polygon fill="black" stroke="black" points="868.75,-1214.54 879.32,-1215.23 871.49,-1208.1 868.75,-1214.54"/>
<text xml:space="preserve" text-anchor="middle" x="711.34" y="-1042.48" font-family="Times,serif" font-size="14.00">2</text>
</g>
<!-- 15 -->
<g id="node17" class="node">
<title>15</title>
<ellipse fill="none" stroke="black" cx="2074" cy="-126.95" rx="27" ry="18"/>
<text xml:space="preserve" text-anchor="middle" x="2074" y="-122.28" font-family="Times,serif" font-size="14.00">15</text>
</g>
<!-- 15&#45;&gt;0 -->
<g id="edge31" class="edge">
<title>15&#45;&gt;0</title>
<path fill="none" stroke="black" d="M2047.01,-128.47C1992.38,-130.08 1871.35,-136.6 1841,-162.95 1763.4,-230.34 1817,-522.05 1817,-624.83 1817,-1226.65 1817,-1226.65 1817,-1226.65 1817,-1291.13 1305.3,-1292.11 1241,-1296.9 1151.93,-1303.54 1046.92,-1311.43 994.42,-1315.38"/>
<polygon fill="black" stroke="black" points="994.36,-1311.88 984.65,-1316.12 994.88,-1318.86 994.36,-1311.88"/>
<text xml:space="preserve" text-anchor="middle" x="1821.5" y="-730.1" font-family="Times,serif" font-size="14.00">1</text>
</g>
<!-- 15&#45;&gt;11 -->
<g id="edge42" class="edge">
<title>15&#45;&gt;11</title>
<path fill="none" stroke="black" d="M2049.32,-119.12C1988.89,-102.4 1833.17,-59.33 1760.9,-39.33"/>
<polygon fill="black" stroke="black" points="1762.07,-36.03 1751.5,-36.73 1760.2,-42.77 1762.07,-36.03"/>
<text xml:space="preserve" text-anchor="middle" x="1944.76" y="-77.65" font-family="Times,serif" font-size="14.00">0</text>
</g>
<!-- 15&#45;&gt;17 -->
<g id="edge130" class="edge">
<title>15&#45;&gt;17</title>
<path fill="none" stroke="black" d="M2046.68,-127.86C1982.62,-128.17 1825.07,-132.13 1784,-162.95 1762.26,-179.27 1760,-192.02 1760,-219.2 1760,-403.7 1760,-403.7 1760,-403.7 1760,-498.61 1756.89,-522.3 1756,-617.2 1754.77,-748.49 1770,-780.98 1770,-912.28 1770,-1048.15 1770,-1048.15 1770,-1048.15 1770,-1116.16 1229.32,-1108.75 1162,-1118.4 1148.78,-1120.3 1134.45,-1123.26 1121.83,-1126.18"/>
<polygon fill="black" stroke="black" points="1121.19,-1122.74 1112.28,-1128.47 1122.82,-1129.55 1121.19,-1122.74"/>
<text xml:space="preserve" text-anchor="middle" x="1760.5" y="-621.15" font-family="Times,serif" font-size="14.00">3</text>
</g>
<!-- 15&#45;&gt;18 -->
<g id="edge148" class="edge">
<title>15&#45;&gt;18</title>
<path fill="none" stroke="black" d="M2084.43,-143.96C2092.86,-157.74 2104.22,-178.47 2110,-198.2 2118.3,-226.54 2120.67,-260.35 2121.2,-283.8"/>
<polygon fill="black" stroke="black" points="2117.7,-283.56 2121.32,-293.52 2124.7,-283.48 2117.7,-283.56"/>
<text xml:space="preserve" text-anchor="middle" x="2122.8" y="-215.53" font-family="Times,serif" font-size="14.00">2</text>
</g>
<!-- 15&#45;&gt;29 -->
<g id="edge6" class="edge">
<title>15&#45;&gt;29</title>
<path fill="none" stroke="black" d="M2101.15,-129.42C2202.15,-136.45 2558.67,-175.78 2719,-384.7 2935.2,-666.43 2796,-824.9 2796,-1180.03 2796,-2077.3 2796,-2077.3 2796,-2077.3 2796,-2147.61 2694.42,-2167.02 2636.41,-2172.37"/>
<polygon fill="black" stroke="black" points="2636.28,-2168.87 2626.6,-2173.17 2636.85,-2175.85 2636.28,-2168.87"/>
<text xml:space="preserve" text-anchor="middle" x="2801.88" y="-1131.73" font-family="Times,serif" font-size="14.00">4</text>
</g>
<!-- 16&#45;&gt;12 -->
<g id="edge27" class="edge">
<title>16&#45;&gt;12</title>
<path fill="none" stroke="black" d="M1349.92,-1506.14C1338.32,-1495.5 1321.82,-1480.55 1307,-1467.85 1299.12,-1461.09 1290.46,-1453.92 1282.4,-1447.35"/>
<polygon fill="black" stroke="black" points="1284.77,-1444.76 1274.8,-1441.18 1280.36,-1450.2 1284.77,-1444.76"/>
<text xml:space="preserve" text-anchor="middle" x="1330.87" y="-1471.8" font-family="Times,serif" font-size="14.00">2</text>
</g>
<!-- 16&#45;&gt;15 -->
<g id="edge102" class="edge">
<title>16&#45;&gt;15</title>
<path fill="none" stroke="black" d="M1392.39,-1520.55C1495.59,-1521.52 1855,-1518.07 1855,-1423 1855,-1423 1855,-1423 1855,-219.2 1855,-142 1972.38,-128.93 2035.27,-127.47"/>
<polygon fill="black" stroke="black" points="2035.24,-130.97 2045.19,-127.34 2035.15,-123.97 2035.24,-130.97"/>
<text xml:space="preserve" text-anchor="middle" x="1859.5" y="-819.35" font-family="Times,serif" font-size="14.00">4</text>
</g>
<!-- 16&#45;&gt;17 -->
<g id="edge91" class="edge">
<title>16&#45;&gt;17</title>
<path fill="none" stroke="black" d="M1360.45,-1502.91C1353.35,-1477.79 1338.1,-1430.14 1316,-1394.15 1255.66,-1295.91 1155.88,-1200.12 1110.19,-1158.74"/>
<polygon fill="black" stroke="black" points="1112.71,-1156.29 1102.93,-1152.21 1108.03,-1161.5 1112.71,-1156.29"/>
<text xml:space="preserve" text-anchor="middle" x="1283" y="-1314.23" font-family="Times,serif" font-size="14.00">1</text>
</g>
<!-- 16&#45;&gt;18 -->
<g id="edge4" class="edge">
<title>16&#45;&gt;18</title>
<path fill="none" stroke="black" d="M1392.42,-1519.93C1484.09,-1519.09 1779.17,-1514.13 1869,-1485.1 1918.78,-1469.02 1969,-1475.32 1969,-1423 1969,-1423 1969,-1423 1969,-1180.03 1969,-1022.52 1984.35,-624.39 2031,-473.95 2046.99,-422.38 2081.36,-369.05 2102.7,-338.98"/>
<polygon fill="black" stroke="black" points="2105.49,-341.1 2108.5,-330.94 2099.81,-337 2105.49,-341.1"/>
<text xml:space="preserve" text-anchor="middle" x="1982" y="-908.6" font-family="Times,serif" font-size="14.00">3</text>
</g>
<!-- 16&#45;&gt;28 -->
<g id="edge97" class="edge">
<title>16&#45;&gt;28</title>
<path fill="none" stroke="black" d="M1338.09,-1517.45C1261.46,-1508.38 1040.48,-1471.57 930,-1340.9 909.8,-1317.01 904.48,-1280.58 903.46,-1255.3"/>
<polygon fill="black" stroke="black" points="906.97,-1255.34 903.29,-1245.41 899.97,-1255.47 906.97,-1255.34"/>
<text xml:space="preserve" text-anchor="middle" x="968.37" y="-1362.85" font-family="Times,serif" font-size="14.00">0</text>
</g>
<!-- 17&#45;&gt;4 -->
<g id="edge50" class="edge">
<title>17&#45;&gt;4</title>
<path fill="none" stroke="black" d="M1112.64,-1132.15C1142.2,-1127.82 1190.76,-1118.49 1229,-1100.4 1240.55,-1094.94 1241.59,-1090.55 1252,-1083.15 1259.61,-1077.74 1267.96,-1072.03 1275.69,-1066.82"/>
<polygon fill="black" stroke="black" points="1277.44,-1069.87 1283.81,-1061.4 1273.55,-1064.05 1277.44,-1069.87"/>
<text xml:space="preserve" text-anchor="middle" x="1256.5" y="-1087.1" font-family="Times,serif" font-size="14.00">1</text>
</g>
<!-- 17&#45;&gt;6 -->
<g id="edge59" class="edge">
<title>17&#45;&gt;6</title>
<path fill="none" stroke="black" d="M1064.64,-1124.76C1054.31,-1118.75 1042.36,-1110.43 1034,-1100.4 1005.7,-1066.45 875,-779.97 875,-735.78 875,-735.78 875,-735.78 875,-446.33 875,-361.54 803.96,-280.87 765.33,-243.27"/>
<polygon fill="black" stroke="black" points="767.91,-240.9 758.26,-236.54 763.09,-245.97 767.91,-240.9"/>
<text xml:space="preserve" text-anchor="middle" x="879.5" y="-675.63" font-family="Times,serif" font-size="14.00">0</text>
</g>
<!-- 17&#45;&gt;9 -->
<g id="edge28" class="edge">
<title>17&#45;&gt;9</title>
<path fill="none" stroke="black" d="M1093.64,-1118.97C1096.04,-1113.21 1098.45,-1106.62 1100,-1100.4 1126.98,-992.06 1114.3,-961.57 1127,-850.65 1152.62,-626.81 1040.24,-505.24 1203,-349.45 1227.8,-325.71 1325.25,-318.05 1380.4,-315.59"/>
<polygon fill="black" stroke="black" points="1380.45,-319.09 1390.3,-315.19 1380.17,-312.1 1380.45,-319.09"/>
<text xml:space="preserve" text-anchor="middle" x="1134.55" y="-730.1" font-family="Times,serif" font-size="14.00">3</text>
</g>
<!-- 17&#45;&gt;9 -->
<g id="edge93" class="edge">
<title>17&#45;&gt;9</title>
<path fill="none" stroke="black" d="M1100.8,-1121.19C1106.27,-1115.22 1112.09,-1107.93 1116,-1100.4 1123.46,-1086.05 1121.96,-1081.03 1125,-1065.15 1140.12,-986.02 1182.26,-404.58 1241,-349.45 1260.75,-330.91 1334.33,-321.48 1380.48,-317.29"/>
<polygon fill="black" stroke="black" points="1380.69,-320.79 1390.35,-316.45 1380.09,-313.81 1380.69,-320.79"/>
<text xml:space="preserve" text-anchor="middle" x="1167.68" y="-730.1" font-family="Times,serif" font-size="14.00">4</text>
</g>
<!-- 17&#45;&gt;20 -->
<g id="edge149" class="edge">
<title>17&#45;&gt;20</title>
<path fill="none" stroke="black" d="M1080.78,-1118.4C1079.13,-1112.71 1077.38,-1106.31 1076,-1100.4 1035.84,-927.85 1035.8,-882.62 1005,-708.15 990.87,-628.12 993.14,-606.93 974,-527.95 963.98,-486.63 887.82,-194.21 859,-162.95 846.09,-148.95 826.79,-140.42 809.74,-135.29"/>
<polygon fill="black" stroke="black" points="810.97,-132 800.41,-132.78 809.15,-138.76 810.97,-132"/>
<text xml:space="preserve" text-anchor="middle" x="998.19" y="-621.15" font-family="Times,serif" font-size="14.00">2</text>
</g>
<!-- 18&#45;&gt;2 -->
<g id="edge92" class="edge">
<title>18&#45;&gt;2</title>
<path fill="none" stroke="black" d="M2117.01,-331.72C2096.83,-420.58 2007,-835.58 2007,-1180.03 2007,-1522.1 2007,-1522.1 2007,-1522.1 2007,-1550.47 1100.79,-1597.46 901.47,-1607.45"/>
<polygon fill="black" stroke="black" points="901.47,-1603.94 891.66,-1607.94 901.82,-1610.93 901.47,-1603.94"/>
<text xml:space="preserve" text-anchor="middle" x="2023.36" y="-953.23" font-family="Times,serif" font-size="14.00">1</text>
</g>
<!-- 18&#45;&gt;5 -->
<g id="edge17" class="edge">
<title>18&#45;&gt;5</title>
<path fill="none" stroke="black" d="M2148.22,-314.65C2193.74,-315.79 2287.55,-321.67 2361,-349.45 2426.55,-374.24 2453.72,-379.35 2491,-438.7 2560.98,-550.12 2515,-602.2 2515,-733.78 2515,-1988.05 2515,-1988.05 2515,-1988.05 2515,-2013.61 2507.72,-2020.98 2491,-2040.3 2484.66,-2047.63 2476.42,-2054.01 2468.29,-2059.24"/>
<polygon fill="black" stroke="black" points="2466.66,-2056.14 2459.87,-2064.27 2470.25,-2062.15 2466.66,-2056.14"/>
<text xml:space="preserve" text-anchor="middle" x="2519.5" y="-1176.35" font-family="Times,serif" font-size="14.00">3</text>
</g>
<!-- 18&#45;&gt;6 -->
<g id="edge76" class="edge">
<title>18&#45;&gt;6</title>
<path fill="none" stroke="black" d="M2093.92,-311.48C1998.96,-308.01 1672.28,-295.45 1403,-277.45 1161.85,-261.33 871.95,-233.92 774.67,-224.49"/>
<polygon fill="black" stroke="black" points="775.06,-221.02 764.77,-223.53 774.39,-227.98 775.06,-221.02"/>
<text xml:space="preserve" text-anchor="middle" x="1407.5" y="-264.15" font-family="Times,serif" font-size="14.00">0</text>
</g>
<!-- 18&#45;&gt;13 -->
<g id="edge21" class="edge">
<title>18&#45;&gt;13</title>
<path fill="none" stroke="black" d="M2096.38,-305.51C2054.96,-294.13 1968.55,-271.62 1894,-260.2 1792.21,-244.61 1765.55,-251.55 1663,-242.2 1606.2,-237.02 1540.48,-229.95 1500.08,-225.48"/>
<polygon fill="black" stroke="black" points="1500.47,-222 1490.14,-224.38 1499.7,-228.96 1500.47,-222"/>
<text xml:space="preserve" text-anchor="middle" x="1986.49" y="-264.15" font-family="Times,serif" font-size="14.00">2</text>
</g>
<!-- 18&#45;&gt;25 -->
<g id="edge135" class="edge">
<title>18&#45;&gt;25</title>
<path fill="none" stroke="black" d="M2112.6,-296.14C2105.69,-282.73 2095.76,-263.45 2087.71,-247.81"/>
<polygon fill="black" stroke="black" points="2090.87,-246.31 2083.18,-239.03 2084.65,-249.52 2090.87,-246.31"/>
<text xml:space="preserve" text-anchor="middle" x="2106.21" y="-264.15" font-family="Times,serif" font-size="14.00">4</text>
</g>
<!-- 19&#45;&gt;6 -->
<g id="edge68" class="edge">
<title>19&#45;&gt;6</title>
<path fill="none" stroke="black" d="M2187.13,-489.38C2059.33,-481.48 1500.76,-441.97 1058,-331.45 950.63,-304.65 828.11,-256.94 772,-234.09"/>
<polygon fill="black" stroke="black" points="773.36,-230.86 762.78,-230.31 770.71,-237.34 773.36,-230.86"/>
<text xml:space="preserve" text-anchor="middle" x="1217.15" y="-353.4" font-family="Times,serif" font-size="14.00">2</text>
</g>
<!-- 19&#45;&gt;10 -->
<g id="edge62" class="edge">
<title>19&#45;&gt;10</title>
<path fill="none" stroke="black" d="M2230.36,-506.6C2244.45,-519.51 2263.76,-540.28 2272,-563.2 2277.41,-578.26 2272.31,-583.2 2272,-599.2 2268.41,-782.27 2232.69,-831.1 2266,-1011.15 2280.29,-1088.37 2318,-1101.49 2318,-1180.03 2318,-1789.85 2318,-1789.85 2318,-1789.85 2318,-1858.61 1792.09,-1880.85 1642.35,-1885.79"/>
<polygon fill="black" stroke="black" points="1642.42,-1882.29 1632.54,-1886.1 1642.65,-1889.28 1642.42,-1882.29"/>
<text xml:space="preserve" text-anchor="middle" x="2322.5" y="-1176.35" font-family="Times,serif" font-size="14.00">1</text>
</g>
<!-- 19&#45;&gt;18 -->
<g id="edge69" class="edge">
<title>19&#45;&gt;18</title>
<path fill="none" stroke="black" d="M2214.2,-473.46C2213.66,-444.79 2208.87,-387.2 2181,-349.45 2174.25,-340.31 2164.34,-333.15 2154.5,-327.76"/>
<polygon fill="black" stroke="black" points="2156.29,-324.74 2145.78,-323.44 2153.19,-331.01 2156.29,-324.74"/>
<text xml:space="preserve" text-anchor="middle" x="2213.3" y="-398.03" font-family="Times,serif" font-size="14.00">0</text>
</g>
<!-- 19&#45;&gt;18 -->
<g id="edge78" class="edge">
<title>19&#45;&gt;18</title>
<path fill="none" stroke="black" d="M2205.42,-474.66C2189.33,-444.14 2154.52,-378.07 2135,-341.02"/>
<polygon fill="black" stroke="black" points="2138.16,-339.51 2130.4,-332.3 2131.97,-342.77 2138.16,-339.51"/>
<text xml:space="preserve" text-anchor="middle" x="2181.24" y="-398.03" font-family="Times,serif" font-size="14.00">3</text>
</g>
<!-- 19&#45;&gt;26 -->
<g id="edge117" class="edge">
<title>19&#45;&gt;26</title>
<path fill="none" stroke="black" d="M2191.56,-502.32C2125.8,-529.24 1927.24,-606.63 1754,-634.45 1556.27,-666.2 1052.21,-631.9 853,-652.45 817.22,-656.14 777.01,-664.03 748.36,-670.31"/>
<polygon fill="black" stroke="black" points="747.69,-666.87 738.69,-672.47 749.22,-673.7 747.69,-666.87"/>
<text xml:space="preserve" text-anchor="middle" x="2030.93" y="-576.53" font-family="Times,serif" font-size="14.00">4</text>
</g>
<!-- 20&#45;&gt;0 -->
<g id="edge51" class="edge">
<title>20&#45;&gt;0</title>
<path fill="none" stroke="black" d="M788.17,-142.17C801,-155.3 818.46,-176.07 826,-198.2 881.73,-361.8 826.35,-803.24 834,-975.9 837.52,-1055.4 836.16,-1075.71 848,-1154.4 854.05,-1194.6 846.45,-1209.18 868,-1243.65 883.72,-1268.79 911.04,-1289.08 932.02,-1302.06"/>
<polygon fill="black" stroke="black" points="930.04,-1304.95 940.43,-1307.05 933.62,-1298.93 930.04,-1304.95"/>
<text xml:space="preserve" text-anchor="middle" x="845.78" y="-730.1" font-family="Times,serif" font-size="14.00">2</text>
</g>
<!-- 20&#45;&gt;6 -->
<g id="edge118" class="edge">
<title>20&#45;&gt;6</title>
<path fill="none" stroke="black" d="M767.1,-144.78C762.82,-156.97 756.92,-173.79 751.81,-188.36"/>
<polygon fill="black" stroke="black" points="748.61,-186.93 748.6,-197.52 755.21,-189.24 748.61,-186.93"/>
<text xml:space="preserve" text-anchor="middle" x="764.37" y="-166.9" font-family="Times,serif" font-size="14.00">0</text>
</g>
<!-- 20&#45;&gt;17 -->
<g id="edge38" class="edge">
<title>20&#45;&gt;17</title>
<path fill="none" stroke="black" d="M799.84,-130.03C844.15,-133.97 930.04,-143.88 953,-162.95 1057.17,-249.49 1065,-310.9 1065,-446.33 1065,-825.03 1065,-825.03 1065,-825.03 1065,-929.21 1076.92,-1052.62 1082.8,-1107.12"/>
<polygon fill="black" stroke="black" points="1079.29,-1107.21 1083.86,-1116.76 1086.25,-1106.44 1079.29,-1107.21"/>
<text xml:space="preserve" text-anchor="middle" x="1069.5" y="-621.15" font-family="Times,serif" font-size="14.00">3</text>
</g>
<!-- 20&#45;&gt;23 -->
<g id="edge22" class="edge">
<title>20&#45;&gt;23</title>
<path fill="none" stroke="black" d="M773,-108.59C773,-94.37 773,-73.95 773,-57.34"/>
<polygon fill="black" stroke="black" points="776.5,-57.57 773,-47.57 769.5,-57.57 776.5,-57.57"/>
<text xml:space="preserve" text-anchor="middle" x="777.5" y="-77.65" font-family="Times,serif" font-size="14.00">4</text>
</g>
<!-- 20&#45;&gt;26 -->
<g id="edge25" class="edge">
<title>20&#45;&gt;26</title>
<path fill="none" stroke="black" d="M747.04,-132.85C707.07,-142.07 635,-166.06 635,-219.2 635,-448.33 635,-448.33 635,-448.33 635,-521.36 669.34,-601.3 691.54,-645.37"/>
<polygon fill="black" stroke="black" points="688.38,-646.88 696.07,-654.17 694.61,-643.68 688.38,-646.88"/>
<text xml:space="preserve" text-anchor="middle" x="639.5" y="-398.03" font-family="Times,serif" font-size="14.00">1</text>
</g>
<!-- 21&#45;&gt;0 -->
<g id="edge12" class="edge">
<title>21&#45;&gt;0</title>
<path fill="none" stroke="black" d="M1645.88,-960.8C1620.56,-963.91 1583.15,-972.15 1559,-993.9 1526.96,-1022.75 1535.3,-1042.48 1521,-1083.15 1517.25,-1093.81 1474.73,-1271.74 1466,-1278.9 1464.85,-1279.84 1107.31,-1306.87 994.61,-1315.37"/>
<polygon fill="black" stroke="black" points="994.51,-1311.87 984.8,-1316.11 995.04,-1318.85 994.51,-1311.87"/>
<text xml:space="preserve" text-anchor="middle" x="1516.06" y="-1131.73" font-family="Times,serif" font-size="14.00">2</text>
</g>
<!-- 21&#45;&gt;14 -->
<g id="edge81" class="edge">
<title>21&#45;&gt;14</title>
<path fill="none" stroke="black" d="M1649.47,-948.75C1613.33,-936.66 1541.74,-914.33 1479,-904.65 1402.3,-892.81 857.1,-875.43 706.47,-870.81"/>
<polygon fill="black" stroke="black" points="706.74,-867.32 696.63,-870.51 706.52,-874.32 706.74,-867.32"/>
<text xml:space="preserve" text-anchor="middle" x="1559.04" y="-908.6" font-family="Times,serif" font-size="14.00">3</text>
</g>
<!-- 21&#45;&gt;21 -->
<g id="edge9" class="edge">
<title>21&#45;&gt;21</title>
<path fill="none" stroke="black" d="M1697.53,-966.14C1708.51,-966.92 1718,-964.18 1718,-957.9 1718,-953.98 1714.29,-951.44 1708.83,-950.27"/>
<polygon fill="black" stroke="black" points="1709.22,-946.79 1699.04,-949.75 1708.84,-953.78 1709.22,-946.79"/>
<text xml:space="preserve" text-anchor="middle" x="1722.5" y="-953.23" font-family="Times,serif" font-size="14.00">0</text>
</g>
<!-- 21&#45;&gt;25 -->
<g id="edge2" class="edge">
<title>21&#45;&gt;25</title>
<path fill="none" stroke="black" d="M1700.25,-956.03C1782.39,-953.2 2026.6,-943.17 2103,-921.9 2153.22,-907.92 2208,-921.78 2208,-869.65 2208,-869.65 2208,-869.65 2208,-733.78 2208,-623.36 2269,-603.36 2269,-492.95 2269,-492.95 2269,-492.95 2269,-312.45 2269,-233.56 2175.46,-279.59 2106,-242.2 2104.57,-241.43 2103.13,-240.62 2101.68,-239.78"/>
<polygon fill="black" stroke="black" points="2103.91,-237.05 2093.57,-234.77 2100.24,-243 2103.91,-237.05"/>
<text xml:space="preserve" text-anchor="middle" x="2263.02" y="-576.53" font-family="Times,serif" font-size="14.00">4</text>
</g>
<!-- 21&#45;&gt;26 -->
<g id="edge32" class="edge">
<title>21&#45;&gt;26</title>
<path fill="none" stroke="black" d="M1659.51,-941.8C1638.96,-919.5 1597.77,-877.51 1556,-850.65 1438.02,-774.79 1402.74,-757.38 1266,-726.15 1176.44,-705.7 944.26,-718.65 853,-708.15 817.27,-704.04 777.05,-696.2 748.39,-690.04"/>
<polygon fill="black" stroke="black" points="749.23,-686.65 738.72,-687.93 747.74,-693.48 749.23,-686.65"/>
<text xml:space="preserve" text-anchor="middle" x="1532.22" y="-819.35" font-family="Times,serif" font-size="14.00">1</text>
</g>
<!-- 22 -->
<g id="node24" class="node">
<title>22</title>
<ellipse fill="none" stroke="black" cx="1334" cy="-491.95" rx="27" ry="18"/>
<text xml:space="preserve" text-anchor="middle" x="1334" y="-487.28" font-family="Times,serif" font-size="14.00">22</text>
</g>
<!-- 22&#45;&gt;4 -->
<g id="edge113" class="edge">
<title>22&#45;&gt;4</title>
<path fill="none" stroke="black" d="M1334.55,-510.36C1336.89,-589.2 1344.85,-913.1 1321,-1011.15 1320.32,-1013.97 1319.38,-1016.82 1318.31,-1019.62"/>
<polygon fill="black" stroke="black" points="1315.18,-1018.03 1314.27,-1028.58 1321.57,-1020.9 1315.18,-1018.03"/>
<text xml:space="preserve" text-anchor="middle" x="1342.02" y="-774.73" font-family="Times,serif" font-size="14.00">4</text>
</g>
<!-- 22&#45;&gt;10 -->
<g id="edge83" class="edge">
<title>22&#45;&gt;10</title>
<path fill="none" stroke="black" d="M1351.98,-505.56C1379.4,-525.79 1431.28,-568.25 1458,-617.2 1504.95,-703.23 1479.28,-738.08 1505,-832.65 1535.75,-945.69 1565.29,-968.03 1587,-1083.15 1610.37,-1207.11 1603,-1240.38 1603,-1366.53 1603,-1789.85 1603,-1789.85 1603,-1789.85 1603,-1809.12 1603,-1830.54 1603,-1848.35"/>
<polygon fill="black" stroke="black" points="1599.5,-1848.23 1603,-1858.23 1606.5,-1848.23 1599.5,-1848.23"/>
<text xml:space="preserve" text-anchor="middle" x="1606.5" y="-1176.35" font-family="Times,serif" font-size="14.00">2</text>
</g>
<!-- 22&#45;&gt;20 -->
<g id="edge145" class="edge">
<title>22&#45;&gt;20</title>
<path fill="none" stroke="black" d="M1315.7,-478.44C1278.98,-452.94 1194.48,-392.18 1132,-331.45 1061.98,-263.39 1075.91,-211.18 991,-162.95 960.96,-145.88 865.12,-135.5 811.06,-130.85"/>
<polygon fill="black" stroke="black" points="811.64,-127.38 801.38,-130.04 811.05,-134.36 811.64,-127.38"/>
<text xml:space="preserve" text-anchor="middle" x="1136.5" y="-308.78" font-family="Times,serif" font-size="14.00">0</text>
</g>
<!-- 27 -->
<g id="node29" class="node">
<title>27</title>
<ellipse fill="none" stroke="black" cx="1667" cy="-402.7" rx="27" ry="18"/>
<text xml:space="preserve" text-anchor="middle" x="1667" y="-398.03" font-family="Times,serif" font-size="14.00">27</text>
</g>
<!-- 22&#45;&gt;27 -->
<g id="edge39" class="edge">
<title>22&#45;&gt;27</title>
<path fill="none" stroke="black" d="M1359.03,-484.39C1417.51,-469.07 1563.29,-430.88 1631.17,-413.09"/>
<polygon fill="black" stroke="black" points="1631.88,-416.52 1640.67,-410.6 1630.11,-409.75 1631.88,-416.52"/>
<text xml:space="preserve" text-anchor="middle" x="1534.83" y="-442.65" font-family="Times,serif" font-size="14.00">3</text>
</g>
<!-- 22&#45;&gt;28 -->
<g id="edge122" class="edge">
<title>22&#45;&gt;28</title>
<path fill="none" stroke="black" d="M1341.32,-509.39C1369.58,-575.32 1466.32,-825.89 1392,-1011.15 1336.63,-1149.17 1254.43,-1158.58 1109,-1189.65 1050.87,-1202.07 982.72,-1212.99 941.48,-1219.2"/>
<polygon fill="black" stroke="black" points="941.22,-1215.71 931.84,-1220.64 942.25,-1222.63 941.22,-1215.71"/>
<text xml:space="preserve" text-anchor="middle" x="1424.01" y="-863.98" font-family="Times,serif" font-size="14.00">1</text>
</g>
<!-- 23&#45;&gt;0 -->
<g id="edge58" class="edge">
<title>23&#45;&gt;0</title>
<path fill="none" stroke="black" d="M797.32,-36.3C850.53,-54.12 976.35,-104.78 1024,-198.2 1074.12,-296.44 1027,-336.04 1027,-446.33 1027,-735.78 1027,-735.78 1027,-735.78 1027,-867.14 1004.51,-898.48 991,-1029.15 979.55,-1139.95 987.23,-1168.85 970,-1278.9 969.63,-1281.26 969.2,-1283.69 968.73,-1286.13"/>
<polygon fill="black" stroke="black" points="965.31,-1285.37 966.64,-1295.88 972.15,-1286.84 965.31,-1285.37"/>
<text xml:space="preserve" text-anchor="middle" x="1031.5" y="-675.63" font-family="Times,serif" font-size="14.00">4</text>
</g>
<!-- 23&#45;&gt;0 -->
<g id="edge89" class="edge">
<title>23&#45;&gt;0</title>
<path fill="none" stroke="black" d="M746.06,-30.72C663.28,-36.96 414.45,-59.51 353,-108.95 305.62,-147.06 311,-182.4 322,-242.2 401.71,-675.33 474.48,-781.64 709,-1154.4 714.91,-1163.8 781.24,-1259.97 814,-1278.9 849.78,-1299.58 896.75,-1309.55 927.86,-1314.18"/>
<polygon fill="black" stroke="black" points="927.07,-1317.6 937.45,-1315.5 928.02,-1310.67 927.07,-1317.6"/>
<text xml:space="preserve" text-anchor="middle" x="455.97" y="-675.63" font-family="Times,serif" font-size="14.00">0</text>
</g>
<!-- 23&#45;&gt;4 -->
<g id="edge52" class="edge">
<title>23&#45;&gt;4</title>
<path fill="none" stroke="black" d="M799.95,-29.47C864.74,-31.48 1026.82,-39.85 1067,-73.7 1143.02,-137.74 1272.47,-864.11 1299.12,-1017.73"/>
<polygon fill="black" stroke="black" points="1295.64,-1018.17 1300.8,-1027.43 1302.54,-1016.98 1295.64,-1018.17"/>
<text xml:space="preserve" text-anchor="middle" x="1212.7" y="-531.9" font-family="Times,serif" font-size="14.00">1</text>
</g>
<!-- 23&#45;&gt;8 -->
<g id="edge40" class="edge">
<title>23&#45;&gt;8</title>
<path fill="none" stroke="black" d="M745.75,-28.42C667.19,-27.78 433.97,-29.98 247,-73.7 185.16,-88.16 114,-62.44 114,-125.95 114,-1477.48 114,-1477.48 114,-1477.48 114,-1562.53 165.59,-1570.47 204,-1646.35 262.41,-1761.77 327.85,-1901.58 354.6,-1959.22"/>
<polygon fill="black" stroke="black" points="351.26,-1960.34 358.64,-1967.94 357.61,-1957.4 351.26,-1960.34"/>
<text xml:space="preserve" text-anchor="middle" x="118.5" y="-997.85" font-family="Times,serif" font-size="14.00">3</text>
</g>
<!-- 23&#45;&gt;8 -->
<g id="edge140" class="edge">
<title>23&#45;&gt;8</title>
<path fill="none" stroke="black" d="M745.94,-29.34C609.13,-32.18 0,-49.11 0,-125.95 0,-626.83 0,-626.83 0,-626.83 0,-715.65 38,-734.21 38,-823.03 38,-1477.48 38,-1477.48 38,-1477.48 38,-1591.53 237.34,-1823.99 305,-1915.8 317.27,-1932.45 332.65,-1949.89 345.02,-1963.23"/>
<polygon fill="black" stroke="black" points="342.21,-1965.36 351.61,-1970.25 347.32,-1960.57 342.21,-1965.36"/>
<text xml:space="preserve" text-anchor="middle" x="42.5" y="-997.85" font-family="Times,serif" font-size="14.00">2</text>
</g>
<!-- 24&#45;&gt;5 -->
<g id="edge60" class="edge">
<title>24&#45;&gt;5</title>
<path fill="none" stroke="black" d="M561.77,-583.06C514.92,-586 418.74,-598.67 363,-652.45 208.5,-801.52 160,-876.09 160,-1090.78 160,-1271.28 160,-1271.28 160,-1271.28 160,-1402.38 190,-1433.62 190,-1564.73 190,-1834.48 190,-1834.48 190,-1834.48 190,-2080.56 458.32,-2026.23 704,-2040.3 1382,-2079.13 2211.34,-2076.7 2398.34,-2075.58"/>
<polygon fill="black" stroke="black" points="2398.23,-2079.08 2408.2,-2075.52 2398.18,-2072.08 2398.23,-2079.08"/>
<text xml:space="preserve" text-anchor="middle" x="167.62" y="-1314.23" font-family="Times,serif" font-size="14.00">2</text>
</g>
<!-- 24&#45;&gt;19 -->
<g id="edge73" class="edge">
<title>24&#45;&gt;19</title>
<path fill="none" stroke="black" d="M616.27,-580.37C747.29,-581.01 1325.27,-581.5 1797,-545.2 1870.55,-539.54 2088.07,-510.22 2176.24,-498.15"/>
<polygon fill="black" stroke="black" points="2176.62,-501.63 2186.05,-496.81 2175.67,-494.7 2176.62,-501.63"/>
<text xml:space="preserve" text-anchor="middle" x="1954.71" y="-531.9" font-family="Times,serif" font-size="14.00">0</text>
</g>
<!-- 24&#45;&gt;20 -->
<g id="edge128" class="edge">
<title>24&#45;&gt;20</title>
<path fill="none" stroke="black" d="M589,-562.82C589,-545.21 589,-517.19 589,-492.95 589,-492.95 589,-492.95 589,-219.2 589,-190.44 597.93,-180.13 621,-162.95 653.89,-138.47 701.04,-130.7 734.08,-128.44"/>
<polygon fill="black" stroke="black" points="734.25,-131.94 744.05,-127.92 733.88,-124.95 734.25,-131.94"/>
<text xml:space="preserve" text-anchor="middle" x="593.5" y="-353.4" font-family="Times,serif" font-size="14.00">4</text>
</g>
<!-- 24&#45;&gt;22 -->
<g id="edge85" class="edge">
<title>24&#45;&gt;22</title>
<path fill="none" stroke="black" d="M615.51,-577.1C727.86,-563.94 1164.87,-512.76 1296.36,-497.36"/>
<polygon fill="black" stroke="black" points="1296.39,-500.88 1305.91,-496.24 1295.57,-493.93 1296.39,-500.88"/>
<text xml:space="preserve" text-anchor="middle" x="1032.73" y="-531.9" font-family="Times,serif" font-size="14.00">3</text>
</g>
<!-- 24&#45;&gt;23 -->
<g id="edge134" class="edge">
<title>24&#45;&gt;23</title>
<path fill="none" stroke="black" d="M573.28,-566.42C526.2,-523.93 386.54,-388.97 338,-242.2 326.94,-208.76 317.08,-191.29 338,-162.95 386.38,-97.41 638.93,-50.47 735.45,-34.67"/>
<polygon fill="black" stroke="black" points="735.87,-38.15 745.19,-33.1 734.76,-31.23 735.87,-38.15"/>
<text xml:space="preserve" text-anchor="middle" x="381.87" y="-308.78" font-family="Times,serif" font-size="14.00">1</text>
</g>
<!-- 25&#45;&gt;2 -->
<g id="edge86" class="edge">
<title>25&#45;&gt;2</title>
<path fill="none" stroke="black" d="M2091.11,-234.68C2095.71,-237.65 2100.84,-240.44 2106,-242.2 2130.57,-250.59 2321.36,-241.15 2339,-260.2 2441.35,-370.76 2346.25,-448.71 2339,-599.2 2328.99,-807.01 2315.73,-858.24 2294,-1065.15 2292.35,-1080.83 2291.87,-1084.75 2290,-1100.4 2285.77,-1135.82 2280,-1144.36 2280,-1180.03 2280,-1522.1 2280,-1522.1 2280,-1522.1 2280,-1547.66 2277.38,-1560.35 2256,-1574.35 2234.85,-1588.21 1371.27,-1591.66 1346,-1592.35 1180.69,-1596.9 983.63,-1604.52 901.69,-1607.79"/>
<polygon fill="black" stroke="black" points="901.59,-1604.29 891.74,-1608.19 901.87,-1611.28 901.59,-1604.29"/>
<text xml:space="preserve" text-anchor="middle" x="2316.86" y="-908.6" font-family="Times,serif" font-size="14.00">2</text>
</g>
<!-- 25&#45;&gt;10 -->
<g id="edge79" class="edge">
<title>25&#45;&gt;10</title>
<path fill="none" stroke="black" d="M2090.76,-234.48C2095.45,-237.54 2100.71,-240.41 2106,-242.2 2159.61,-260.31 2309.94,-233.81 2360,-260.2 2504.26,-336.25 2401,-461.75 2401,-624.83 2401,-914.28 2401,-914.28 2401,-914.28 2401,-1021.53 2390.64,-1048.02 2377,-1154.4 2370.43,-1205.66 2359,-1217.6 2359,-1269.28 2359,-1789.85 2359,-1789.85 2359,-1789.85 2359,-1847.21 2296.88,-1829.16 2241,-1842.1 2126.1,-1868.71 1762.59,-1882.04 1642.17,-1885.81"/>
<polygon fill="black" stroke="black" points="1642.37,-1882.3 1632.48,-1886.11 1642.59,-1889.3 1642.37,-1882.3"/>
<text xml:space="preserve" text-anchor="middle" x="2399.21" y="-1042.48" font-family="Times,serif" font-size="14.00">1</text>
</g>
<!-- 25&#45;&gt;12 -->
<g id="edge3" class="edge">
<title>25&#45;&gt;12</title>
<path fill="none" stroke="black" d="M2062.78,-236.77C2029.07,-285.11 1931,-437.97 1931,-580.2 1931,-1319.9 1931,-1319.9 1931,-1319.9 1931,-1352.47 1435.88,-1403.14 1291.23,-1417.24"/>
<polygon fill="black" stroke="black" points="1291,-1413.75 1281.39,-1418.2 1291.68,-1420.72 1291,-1413.75"/>
<text xml:space="preserve" text-anchor="middle" x="1935.5" y="-819.35" font-family="Times,serif" font-size="14.00">4</text>
</g>
<!-- 25&#45;&gt;15 -->
<g id="edge16" class="edge">
<title>25&#45;&gt;15</title>
<path fill="none" stroke="black" d="M2074,-202.04C2074,-189.25 2074,-171.49 2074,-156.56"/>
<polygon fill="black" stroke="black" points="2077.5,-156.86 2074,-146.86 2070.5,-156.86 2077.5,-156.86"/>
<text xml:space="preserve" text-anchor="middle" x="2078.5" y="-166.9" font-family="Times,serif" font-size="14.00">3</text>
</g>
<!-- 25&#45;&gt;28 -->
<g id="edge24" class="edge">
<title>25&#45;&gt;28</title>
<path fill="none" stroke="black" d="M2048.94,-227.72C2031.13,-233.53 2007.83,-243.73 1993,-260.2 1880.54,-385.06 1893,-456.79 1893,-624.83 1893,-1137.4 1893,-1137.4 1893,-1137.4 1893,-1232.61 1133.92,-1200.23 1039,-1207.65 1005.97,-1210.23 968.61,-1215.09 941.58,-1218.95"/>
<polygon fill="black" stroke="black" points="941.2,-1215.47 931.81,-1220.37 942.21,-1222.4 941.2,-1215.47"/>
<text xml:space="preserve" text-anchor="middle" x="1897.5" y="-730.1" font-family="Times,serif" font-size="14.00">0</text>
</g>
<!-- 26&#45;&gt;4 -->
<g id="edge75" class="edge">
<title>26&#45;&gt;4</title>
<path fill="none" stroke="black" d="M734.3,-694.59C750.24,-703.38 771.47,-715.26 790,-726.15 802.6,-733.56 805.31,-736.15 818,-743.4 951.12,-819.49 993.92,-821.89 1123,-904.65 1144.68,-918.55 1148.86,-923.85 1169,-939.9 1207.82,-970.84 1215.67,-980.87 1255,-1011.15 1261.83,-1016.41 1269.35,-1021.92 1276.4,-1026.96"/>
<polygon fill="black" stroke="black" points="1274.2,-1029.69 1284.39,-1032.62 1278.25,-1023.98 1274.2,-1029.69"/>
<text xml:space="preserve" text-anchor="middle" x="1097.27" y="-863.98" font-family="Times,serif" font-size="14.00">0</text>
</g>
<!-- 26&#45;&gt;4 -->
<g id="edge114" class="edge">
<title>26&#45;&gt;4</title>
<path fill="none" stroke="black" d="M736.98,-688.7C765.47,-696.81 811.51,-710.72 850,-726.15 967.43,-773.24 1001.27,-779.67 1106,-850.65 1154.76,-883.7 1161.97,-898.62 1204,-939.9 1232.28,-967.67 1263.34,-1001.18 1283.22,-1023.04"/>
<polygon fill="black" stroke="black" points="1280.44,-1025.19 1289.75,-1030.25 1285.63,-1020.49 1280.44,-1025.19"/>
<text xml:space="preserve" text-anchor="middle" x="1155.9" y="-863.98" font-family="Times,serif" font-size="14.00">1</text>
</g>
<!-- 26&#45;&gt;17 -->
<g id="edge150" class="edge">
<title>26&#45;&gt;17</title>
<path fill="none" stroke="black" d="M725.59,-703.72C748.08,-736.09 790.9,-797.85 827,-850.65 902.65,-961.29 891.23,-1016.82 996,-1100.4 1011.59,-1112.84 1032.12,-1121.27 1049.64,-1126.74"/>
<polygon fill="black" stroke="black" points="1048.6,-1130.08 1059.18,-1129.5 1050.54,-1123.36 1048.6,-1130.08"/>
<text xml:space="preserve" text-anchor="middle" x="873.47" y="-908.6" font-family="Times,serif" font-size="14.00">3</text>
</g>
<!-- 26&#45;&gt;24 -->
<g id="edge90" class="edge">
<title>26&#45;&gt;24</title>
<path fill="none" stroke="black" d="M688.65,-662.16C667.99,-645.59 636.66,-620.44 614.65,-602.79"/>
<polygon fill="black" stroke="black" points="617.02,-600.2 607.03,-596.67 612.64,-605.66 617.02,-600.2"/>
<text xml:space="preserve" text-anchor="middle" x="657.63" y="-621.15" font-family="Times,serif" font-size="14.00">2</text>
</g>
<!-- 26&#45;&gt;29 -->
<g id="edge20" class="edge">
<title>26&#45;&gt;29</title>
<path fill="none" stroke="black" d="M684.81,-693.24C614.8,-727.99 417.96,-836.62 340,-993.9 263.93,-1147.36 313.14,-1206.31 291,-1376.15 280.07,-1459.99 266,-1480.18 266,-1564.73 266,-1745.23 266,-1745.23 266,-1745.23 266,-1834.05 228,-1852.61 228,-1941.43 228,-2077.3 228,-2077.3 228,-2077.3 228,-2185.26 603.27,-2122.46 711,-2129.55 1451.63,-2178.33 2358.95,-2175.9 2557.45,-2174.69"/>
<polygon fill="black" stroke="black" points="2557.22,-2178.2 2567.2,-2174.63 2557.18,-2171.2 2557.22,-2178.2"/>
<text xml:space="preserve" text-anchor="middle" x="292.93" y="-1417.33" font-family="Times,serif" font-size="14.00">4</text>
</g>
<!-- 27&#45;&gt;3 -->
<g id="edge10" class="edge">
<title>27&#45;&gt;3</title>
<path fill="none" stroke="black" d="M1694.12,-404.07C1792.93,-406.97 2128,-431.09 2128,-624.83 2128,-780.4 2128,-780.4 2128,-780.4 2128,-938.21 2121,-977.59 2121,-1135.4 2121,-1700.6 2121,-1700.6 2121,-1700.6 2121,-1726.16 2117.19,-1737.19 2097,-1752.85 2073.45,-1771.12 1991.85,-1780.77 1942.61,-1785.05"/>
<polygon fill="black" stroke="black" points="1942.33,-1781.56 1932.65,-1785.87 1942.91,-1788.54 1942.33,-1781.56"/>
<text xml:space="preserve" text-anchor="middle" x="2125.77" y="-1087.1" font-family="Times,serif" font-size="14.00">3</text>
</g>
<!-- 27&#45;&gt;9 -->
<g id="edge30" class="edge">
<title>27&#45;&gt;9</title>
<path fill="none" stroke="black" d="M1647.54,-389.81C1627.66,-378.11 1595.61,-360.45 1566,-349.45 1529.85,-336.03 1486.75,-326.48 1456.6,-320.78"/>
<polygon fill="black" stroke="black" points="1457.28,-317.35 1446.81,-318.99 1456.02,-324.23 1457.28,-317.35"/>
<text xml:space="preserve" text-anchor="middle" x="1607.67" y="-353.4" font-family="Times,serif" font-size="14.00">2</text>
</g>
<!-- 27&#45;&gt;11 -->
<g id="edge49" class="edge">
<title>27&#45;&gt;11</title>
<path fill="none" stroke="black" d="M1668.14,-384.45C1671.61,-335.36 1683.41,-190.92 1709,-73.7 1709.57,-71.08 1710.23,-68.39 1710.94,-65.69"/>
<polygon fill="black" stroke="black" points="1714.27,-66.76 1713.66,-56.19 1707.54,-64.84 1714.27,-66.76"/>
<text xml:space="preserve" text-anchor="middle" x="1691.67" y="-215.53" font-family="Times,serif" font-size="14.00">0</text>
</g>
<!-- 27&#45;&gt;18 -->
<g id="edge80" class="edge">
<title>27&#45;&gt;18</title>
<path fill="none" stroke="black" d="M1692.71,-396.76C1769.01,-382.1 1994.37,-338.79 2083.81,-321.6"/>
<polygon fill="black" stroke="black" points="2084.36,-325.06 2093.52,-319.73 2083.04,-318.18 2084.36,-325.06"/>
<text xml:space="preserve" text-anchor="middle" x="1939.16" y="-353.4" font-family="Times,serif" font-size="14.00">1</text>
</g>
<!-- 27&#45;&gt;21 -->
<g id="edge106" class="edge">
<title>27&#45;&gt;21</title>
<path fill="none" stroke="black" d="M1667.19,-421.17C1668.05,-500.7 1671.61,-828.8 1672.69,-928.22"/>
<polygon fill="black" stroke="black" points="1669.19,-927.96 1672.79,-937.92 1676.19,-927.88 1669.19,-927.96"/>
<text xml:space="preserve" text-anchor="middle" x="1674.79" y="-675.63" font-family="Times,serif" font-size="14.00">4</text>
</g>
<!-- 28&#45;&gt;2 -->
<g id="edge53" class="edge">
<title>28&#45;&gt;2</title>
<path fill="none" stroke="black" d="M884.43,-1238.49C861.91,-1253.78 828,-1282.65 828,-1317.9 828,-1522.1 828,-1522.1 828,-1522.1 828,-1544 837.61,-1566.91 846.76,-1583.75"/>
<polygon fill="black" stroke="black" points="843.53,-1585.16 851.55,-1592.08 849.6,-1581.67 843.53,-1585.16"/>
<text xml:space="preserve" text-anchor="middle" x="832.5" y="-1417.33" font-family="Times,serif" font-size="14.00">1</text>
</g>
<!-- 28&#45;&gt;4 -->
<g id="edge112" class="edge">
<title>28&#45;&gt;4</title>
<path fill="none" stroke="black" d="M930.15,-1220.85C992.62,-1210.71 1153.34,-1178.3 1261,-1100.4 1271.14,-1093.07 1280.28,-1082.79 1287.5,-1073.29"/>
<polygon fill="black" stroke="black" points="1290.17,-1075.58 1293.17,-1065.42 1284.49,-1071.49 1290.17,-1075.58"/>
<text xml:space="preserve" text-anchor="middle" x="1237.24" y="-1131.73" font-family="Times,serif" font-size="14.00">3</text>
</g>
<!-- 28&#45;&gt;7 -->
<g id="edge133" class="edge">
<title>28&#45;&gt;7</title>
<path fill="none" stroke="black" d="M893.18,-1209.04C889.35,-1203.12 885.21,-1196.23 882,-1189.65 804.5,-1030.71 843.86,-963.34 747,-815.4 743.75,-810.44 739.67,-805.68 735.41,-801.35"/>
<polygon fill="black" stroke="black" points="737.97,-798.95 728.28,-794.66 733.18,-804.06 737.97,-798.95"/>
<text xml:space="preserve" text-anchor="middle" x="828.96" y="-997.85" font-family="Times,serif" font-size="14.00">2</text>
</g>
<!-- 28&#45;&gt;17 -->
<g id="edge82" class="edge">
<title>28&#45;&gt;17</title>
<path fill="none" stroke="black" d="M915.31,-1209.18C924.68,-1197.43 939.03,-1181.75 955,-1172.4 983.8,-1155.55 1020.87,-1146.63 1048.22,-1142.02"/>
<polygon fill="black" stroke="black" points="1048.46,-1145.53 1057.8,-1140.54 1047.38,-1138.61 1048.46,-1145.53"/>
<text xml:space="preserve" text-anchor="middle" x="959.5" y="-1176.35" font-family="Times,serif" font-size="14.00">0</text>
</g>
<!-- 28&#45;&gt;29 -->
<g id="edge11" class="edge">
<title>28&#45;&gt;29</title>
<path fill="none" stroke="black" d="M882.05,-1236.66C842.99,-1255.46 760.93,-1299.57 712,-1358.9 628.59,-1460.03 449,-1755.86 449,-1886.95 449,-2077.3 449,-2077.3 449,-2077.3 449,-2132.24 2266.54,-2168.27 2557.83,-2173.69"/>
<polygon fill="black" stroke="black" points="2557.48,-2177.18 2567.54,-2173.87 2557.61,-2170.19 2557.48,-2177.18"/>
<text xml:space="preserve" text-anchor="middle" x="517.97" y="-1694.93" font-family="Times,serif" font-size="14.00">4</text>
</g>
<!-- 29&#45;&gt;5 -->
<g id="edge139" class="edge">
<title>29&#45;&gt;5</title>
<path fill="none" stroke="black" d="M2573.39,-2160.08C2544.81,-2142.73 2496.68,-2113.52 2465.9,-2094.84"/>
<polygon fill="black" stroke="black" points="2467.84,-2091.93 2457.48,-2089.73 2464.21,-2097.91 2467.84,-2091.93"/>
<text xml:space="preserve" text-anchor="middle" x="2526.3" y="-2116.25" font-family="Times,serif" font-size="14.00">0</text>
</g>
<!-- 29&#45;&gt;6 -->
<g id="edge65" class="edge">
<title>29&#45;&gt;6</title>
<path fill="none" stroke="black" d="M2568.98,-2174.52C2303.75,-2175.53 242.45,-2181.69 125,-2129.55 95.9,-2116.63 76,-2109.14 76,-2077.3 76,-2077.3 76,-2077.3 76,-733.78 76,-699.16 156.09,-467.02 176,-438.7 234.8,-355.06 263.12,-338.2 356,-295.45 477.04,-239.74 638.08,-225.81 707.17,-222.35"/>
<polygon fill="black" stroke="black" points="707.25,-225.85 717.08,-221.9 706.94,-218.85 707.25,-225.85"/>
<text xml:space="preserve" text-anchor="middle" x="80.5" y="-1176.35" font-family="Times,serif" font-size="14.00">2</text>
</g>
<!-- 29&#45;&gt;19 -->
<g id="edge19" class="edge">
<title>29&#45;&gt;19</title>
<path fill="none" stroke="black" d="M2624.68,-2170.54C2670.71,-2162.4 2758,-2138.83 2758,-2077.3 2758,-2077.3 2758,-2077.3 2758,-1366.53 2758,-1244.81 2750,-1214.49 2750,-1092.78 2750,-1092.78 2750,-1092.78 2750,-912.28 2750,-657.61 2370.01,-534.52 2249.92,-501.98"/>
<polygon fill="black" stroke="black" points="2251.16,-498.68 2240.6,-499.5 2249.36,-505.45 2251.16,-498.68"/>
<text xml:space="preserve" text-anchor="middle" x="2762.37" y="-1314.23" font-family="Times,serif" font-size="14.00">3</text>
</g>
<!-- 29&#45;&gt;23 -->
<g id="edge107" class="edge">
<title>29&#45;&gt;23</title>
<path fill="none" stroke="black" d="M2623.38,-2165.47C2657.34,-2152.1 2712,-2123.42 2712,-2077.3 2712,-2077.3 2712,-2077.3 2712,-912.28 2712,-756.9 2732.77,-713.4 2693,-563.2 2657.66,-429.76 2591,-407.87 2591,-269.83 2591,-269.83 2591,-269.83 2591,-125.95 2591,-79.74 1073.28,-36.91 811.29,-29.86"/>
<polygon fill="black" stroke="black" points="811.71,-26.37 801.62,-29.6 811.53,-33.37 811.71,-26.37"/>
<text xml:space="preserve" text-anchor="middle" x="2716.5" y="-1087.1" font-family="Times,serif" font-size="14.00">4</text>
</g>
<!-- 29&#45;&gt;26 -->
<g id="edge48" class="edge">
<title>29&#45;&gt;26</title>
<path fill="none" stroke="black" d="M2568.86,-2174.48C2318.94,-2175.12 482.73,-2178.1 244,-2129.55 182.98,-2117.14 114,-2139.57 114,-2077.3 114,-2077.3 114,-2077.3 114,-1743.23 114,-1526.58 236,-1487.93 236,-1271.28 236,-1271.28 236,-1271.28 236,-1001.53 236,-791.95 558.1,-710.29 671.26,-688.07"/>
<polygon fill="black" stroke="black" points="671.81,-691.53 680.98,-686.22 670.5,-684.65 671.81,-691.53"/>
<text xml:space="preserve" text-anchor="middle" x="224.29" y="-1417.33" font-family="Times,serif" font-size="14.00">1</text>
</g>
</g>
</svg>
