<?xml version="1.0" encoding="UTF-8" standalone="no"?>
<!DOCTYPE svg PUBLIC "-//W3C//DTD SVG 1.1//EN"
 "http://www.w3.org/Graphics/SVG/1.1/DTD/svg11.dtd">
<!-- Generated by graphviz version 2.49.0 (20210829.0051)
 -->
<!-- Pages: 1 -->
<svg width="277pt" height="481pt"
 viewBox="0.00 0.00 277.15 481.00" xmlns="http://www.w3.org/2000/svg" xmlns:xlink="http://www.w3.org/1999/xlink">
<g id="graph0" class="graph" transform="scale(1 1) rotate(0) translate(4 477)">
<polygon fill="white" stroke="transparent" points="-4,4 -4,-477 273.15,-477 273.15,4 -4,4"/>
<!-- fake -->
<g id="node1" class="node">
<title>fake</title>
</g>
<!-- 0 -->
<g id="node2" class="node">
<title>0</title>
<ellipse fill="none" stroke="black" cx="131.15" cy="-378" rx="18" ry="18"/>
<ellipse fill="none" stroke="black" cx="131.15" cy="-378" rx="22" ry="22"/>
<text text-anchor="middle" x="131.15" y="-374.3" font-family="Times,serif" font-size="14.00">0</text>
</g>
<!-- fake&#45;&gt;0 -->
<g id="edge1" class="edge">
<title>fake&#45;&gt;0</title>
<path fill="none" stroke="black" stroke-width="2" d="M131.15,-436.98C131.15,-429.15 131.15,-419.61 131.15,-410.54"/>
<polygon fill="black" stroke="black" stroke-width="2" points="134.65,-410.24 131.15,-400.24 127.65,-410.24 134.65,-410.24"/>
</g>
<!-- 1 -->
<g id="node3" class="node">
<title>1</title>
<ellipse fill="none" stroke="black" cx="80.15" cy="-287" rx="27" ry="18"/>
<text text-anchor="middle" x="80.15" y="-283.3" font-family="Times,serif" font-size="14.00">1</text>
</g>
<!-- 0&#45;&gt;1 -->
<g id="edge5" class="edge">
<title>0&#45;&gt;1</title>
<path fill="none" stroke="black" d="M109.65,-373.23C90.35,-368.59 63.1,-358.62 50.15,-338 44.15,-328.45 49.05,-317.75 56.5,-308.7"/>
<polygon fill="black" stroke="black" points="59.2,-310.94 63.49,-301.25 54.1,-306.15 59.2,-310.94"/>
<text text-anchor="middle" x="55.15" y="-326.8" font-family="Times,serif" font-size="14.00">4</text>
</g>
<!-- 0&#45;&gt;1 -->
<g id="edge10" class="edge">
<title>0&#45;&gt;1</title>
<path fill="none" stroke="black" d="M111.85,-366.67C101.42,-359.98 89.42,-350.23 83.15,-338 79.6,-331.09 78.16,-322.9 77.79,-315.18"/>
<polygon fill="black" stroke="black" points="81.29,-315.13 77.86,-305.1 74.29,-315.08 81.29,-315.13"/>
<text text-anchor="middle" x="88.15" y="-326.8" font-family="Times,serif" font-size="14.00">0</text>
</g>
<!-- 0&#45;&gt;1 -->
<g id="edge12" class="edge">
<title>0&#45;&gt;1</title>
<path fill="none" stroke="black" d="M120.58,-358.56C113.02,-345.36 102.75,-327.44 94.45,-312.96"/>
<polygon fill="black" stroke="black" points="97.34,-310.97 89.33,-304.03 91.27,-314.45 97.34,-310.97"/>
<text text-anchor="middle" x="113.15" y="-326.8" font-family="Times,serif" font-size="14.00">1</text>
</g>
<!-- 0&#45;&gt;1 -->
<g id="edge16" class="edge">
<title>0&#45;&gt;1</title>
<path fill="none" stroke="black" d="M131.03,-355.85C130.15,-345.38 127.82,-332.89 122.15,-323 118.53,-316.69 113.32,-311.03 107.79,-306.18"/>
<polygon fill="black" stroke="black" points="109.62,-303.17 99.61,-299.7 105.27,-308.65 109.62,-303.17"/>
<text text-anchor="middle" x="132.15" y="-326.8" font-family="Times,serif" font-size="14.00">2</text>
</g>
<!-- 4 -->
<g id="node6" class="node">
<title>4</title>
<ellipse fill="none" stroke="black" cx="148.15" cy="-109" rx="18" ry="18"/>
<ellipse fill="none" stroke="black" cx="148.15" cy="-109" rx="22" ry="22"/>
<text text-anchor="middle" x="148.15" y="-105.3" font-family="Times,serif" font-size="14.00">4</text>
</g>
<!-- 0&#45;&gt;4 -->
<g id="edge23" class="edge">
<title>0&#45;&gt;4</title>
<path fill="none" stroke="black" d="M144.64,-360.11C149.12,-353.57 153.6,-345.8 156.15,-338 182.2,-258.11 174.61,-231.94 161.15,-149 160.65,-145.93 159.94,-142.77 159.11,-139.65"/>
<polygon fill="black" stroke="black" points="162.42,-138.48 156.16,-129.93 155.72,-140.52 162.42,-138.48"/>
<text text-anchor="middle" x="178.15" y="-239.8" font-family="Times,serif" font-size="14.00">3</text>
</g>
<!-- 1&#45;&gt;1 -->
<g id="edge13" class="edge">
<title>1&#45;&gt;1</title>
<path fill="none" stroke="black" d="M104.68,-294.75C115.65,-295.49 125.15,-292.91 125.15,-287 125.15,-283.03 120.86,-280.56 114.72,-279.59"/>
<polygon fill="black" stroke="black" points="114.79,-276.09 104.68,-279.25 114.55,-283.09 114.79,-276.09"/>
<text text-anchor="middle" x="130.15" y="-283.3" font-family="Times,serif" font-size="14.00">1</text>
</g>
<!-- 2 -->
<g id="node4" class="node">
<title>2</title>
<ellipse fill="none" stroke="black" cx="52.15" cy="-200" rx="27" ry="18"/>
<text text-anchor="middle" x="52.15" y="-196.3" font-family="Times,serif" font-size="14.00">2</text>
</g>
<!-- 1&#45;&gt;2 -->
<g id="edge3" class="edge">
<title>1&#45;&gt;2</title>
<path fill="none" stroke="black" d="M55.24,-279.76C40.51,-274.65 23.04,-265.78 14.15,-251 7.52,-239.98 15.06,-228.5 25.13,-219.33"/>
<polygon fill="black" stroke="black" points="27.58,-221.84 33.12,-212.81 23.16,-216.41 27.58,-221.84"/>
<text text-anchor="middle" x="19.15" y="-239.8" font-family="Times,serif" font-size="14.00">0</text>
</g>
<!-- 1&#45;&gt;2 -->
<g id="edge19" class="edge">
<title>1&#45;&gt;2</title>
<path fill="none" stroke="black" d="M64.35,-272.23C58.74,-266.32 53.09,-258.96 50.15,-251 47.52,-243.91 46.91,-235.87 47.25,-228.33"/>
<polygon fill="black" stroke="black" points="50.76,-228.47 48.25,-218.18 43.79,-227.79 50.76,-228.47"/>
<text text-anchor="middle" x="55.15" y="-239.8" font-family="Times,serif" font-size="14.00">3</text>
</g>
<!-- 3 -->
<g id="node5" class="node">
<title>3</title>
<ellipse fill="none" stroke="black" cx="96.15" cy="-18" rx="27" ry="18"/>
<text text-anchor="middle" x="96.15" y="-14.3" font-family="Times,serif" font-size="14.00">3</text>
</g>
<!-- 1&#45;&gt;3 -->
<g id="edge17" class="edge">
<title>1&#45;&gt;3</title>
<path fill="none" stroke="black" d="M56.93,-277.8C38.08,-270.61 13.75,-259.95 8.15,-251 4.61,-245.35 7.83,-242.66 8.15,-236 11.97,-154.38 -18.67,-116.35 34.15,-54 42.06,-44.66 53.12,-37.31 63.72,-31.81"/>
<polygon fill="black" stroke="black" points="65.31,-34.93 72.82,-27.45 62.29,-28.61 65.31,-34.93"/>
<text text-anchor="middle" x="10.15" y="-152.8" font-family="Times,serif" font-size="14.00">4</text>
</g>
<!-- 1&#45;&gt;4 -->
<g id="edge18" class="edge">
<title>1&#45;&gt;4</title>
<path fill="none" stroke="black" d="M88.41,-269.76C91.29,-263.9 94.47,-257.2 97.15,-251 113.31,-213.53 128.8,-169.09 138.38,-140.25"/>
<polygon fill="black" stroke="black" points="141.83,-140.97 141.63,-130.38 135.18,-138.78 141.83,-140.97"/>
<text text-anchor="middle" x="128.15" y="-196.3" font-family="Times,serif" font-size="14.00">2</text>
</g>
<!-- 2&#45;&gt;0 -->
<g id="edge2" class="edge">
<title>2&#45;&gt;0</title>
<path fill="none" stroke="black" d="M31.47,-211.8C22.56,-217.66 13.06,-225.8 8.15,-236 -12.68,-279.17 9.85,-303.53 43.15,-338 58.43,-353.82 81.26,-363.68 99.84,-369.53"/>
<polygon fill="black" stroke="black" points="99.06,-372.95 109.64,-372.38 101.02,-366.23 99.06,-372.95"/>
<text text-anchor="middle" x="19.15" y="-283.3" font-family="Times,serif" font-size="14.00">2</text>
</g>
<!-- 2&#45;&gt;1 -->
<g id="edge4" class="edge">
<title>2&#45;&gt;1</title>
<path fill="none" stroke="black" d="M57.67,-217.76C61.58,-229.62 66.9,-245.79 71.38,-259.4"/>
<polygon fill="black" stroke="black" points="68.16,-260.8 74.61,-269.21 74.81,-258.61 68.16,-260.8"/>
<text text-anchor="middle" x="72.15" y="-239.8" font-family="Times,serif" font-size="14.00">3</text>
</g>
<!-- 2&#45;&gt;1 -->
<g id="edge14" class="edge">
<title>2&#45;&gt;1</title>
<path fill="none" stroke="black" d="M67.43,-214.86C72.85,-220.78 78.31,-228.13 81.15,-236 83.71,-243.11 84.41,-251.16 84.23,-258.69"/>
<polygon fill="black" stroke="black" points="80.72,-258.61 83.47,-268.84 87.7,-259.13 80.72,-258.61"/>
<text text-anchor="middle" x="88.15" y="-239.8" font-family="Times,serif" font-size="14.00">0</text>
</g>
<!-- 2&#45;&gt;3 -->
<g id="edge21" class="edge">
<title>2&#45;&gt;3</title>
<path fill="none" stroke="black" d="M43.85,-182.82C33.69,-160.84 19.02,-120.44 29.15,-87 35.47,-66.12 53,-48.74 68.55,-36.77"/>
<polygon fill="black" stroke="black" points="70.87,-39.41 76.89,-30.69 66.75,-33.75 70.87,-39.41"/>
<text text-anchor="middle" x="34.15" y="-105.3" font-family="Times,serif" font-size="14.00">4</text>
</g>
<!-- 2&#45;&gt;4 -->
<g id="edge15" class="edge">
<title>2&#45;&gt;4</title>
<path fill="none" stroke="black" d="M63.37,-183.2C71.11,-172.87 81.98,-159.41 93.15,-149 101.65,-141.08 111.82,-133.43 121.1,-127.04"/>
<polygon fill="black" stroke="black" points="123.27,-129.8 129.63,-121.34 119.38,-123.99 123.27,-129.8"/>
<text text-anchor="middle" x="98.15" y="-152.8" font-family="Times,serif" font-size="14.00">1</text>
</g>
<!-- 3&#45;&gt;0 -->
<g id="edge7" class="edge">
<title>3&#45;&gt;0</title>
<path fill="none" stroke="black" d="M122.7,-21.43C168.89,-27.29 259.15,-46.58 259.15,-108 259.15,-288 259.15,-288 259.15,-288 259.15,-334.88 200.55,-359.07 162.65,-369.81"/>
<polygon fill="black" stroke="black" points="161.33,-366.53 152.57,-372.49 163.13,-373.3 161.33,-366.53"/>
<text text-anchor="middle" x="264.15" y="-196.3" font-family="Times,serif" font-size="14.00">3</text>
</g>
<!-- 3&#45;&gt;2 -->
<g id="edge20" class="edge">
<title>3&#45;&gt;2</title>
<path fill="none" stroke="black" d="M81.27,-33.26C69.27,-46 53.54,-65.86 48.15,-87 40.92,-115.32 43.55,-148.97 46.96,-171.94"/>
<polygon fill="black" stroke="black" points="43.54,-172.68 48.6,-181.99 50.45,-171.55 43.54,-172.68"/>
<text text-anchor="middle" x="53.15" y="-105.3" font-family="Times,serif" font-size="14.00">4</text>
</g>
<!-- 3&#45;&gt;2 -->
<g id="edge22" class="edge">
<title>3&#45;&gt;2</title>
<path fill="none" stroke="black" d="M91.99,-36.02C84.3,-67.44 67.84,-134.78 58.67,-172.32"/>
<polygon fill="black" stroke="black" points="55.26,-171.52 56.29,-182.07 62.06,-173.18 55.26,-171.52"/>
<text text-anchor="middle" x="84.15" y="-105.3" font-family="Times,serif" font-size="14.00">0</text>
</g>
<!-- 3&#45;&gt;4 -->
<g id="edge6" class="edge">
<title>3&#45;&gt;4</title>
<path fill="none" stroke="black" d="M120.46,-26.23C133.82,-31.59 149.25,-40.37 157.15,-54 161.53,-61.57 161.6,-70.67 159.89,-79.23"/>
<polygon fill="black" stroke="black" points="156.51,-78.32 157.22,-88.9 163.25,-80.19 156.51,-78.32"/>
<text text-anchor="middle" x="165.15" y="-57.8" font-family="Times,serif" font-size="14.00">1</text>
</g>
<!-- 3&#45;&gt;4 -->
<g id="edge11" class="edge">
<title>3&#45;&gt;4</title>
<path fill="none" stroke="black" d="M100.52,-35.9C103.52,-45.93 108.07,-58.66 114.15,-69 117.49,-74.69 121.72,-80.33 126.04,-85.48"/>
<polygon fill="black" stroke="black" points="123.56,-87.94 132.81,-93.1 128.79,-83.3 123.56,-87.94"/>
<text text-anchor="middle" x="119.15" y="-57.8" font-family="Times,serif" font-size="14.00">2</text>
</g>
<!-- 4&#45;&gt;0 -->
<g id="edge8" class="edge">
<title>4&#45;&gt;0</title>
<path fill="none" stroke="black" d="M148.2,-131.08C148.18,-166.87 147.66,-241.78 144.15,-305 143.33,-319.7 143.65,-323.49 141.15,-338 140.66,-340.84 140.06,-343.78 139.42,-346.71"/>
<polygon fill="black" stroke="black" points="136,-345.95 137.06,-356.49 142.81,-347.59 136,-345.95"/>
<text text-anchor="middle" x="151.15" y="-239.8" font-family="Times,serif" font-size="14.00">4</text>
</g>
<!-- 4&#45;&gt;2 -->
<g id="edge24" class="edge">
<title>4&#45;&gt;2</title>
<path fill="none" stroke="black" d="M135.46,-127.6C127,-138.71 115.24,-152.99 103.15,-164 96.3,-170.24 88.28,-176.24 80.65,-181.47"/>
<polygon fill="black" stroke="black" points="78.38,-178.77 71.97,-187.21 82.24,-184.61 78.38,-178.77"/>
<text text-anchor="middle" x="121.15" y="-152.8" font-family="Times,serif" font-size="14.00">1</text>
</g>
<!-- 4&#45;&gt;3 -->
<g id="edge25" class="edge">
<title>4&#45;&gt;3</title>
<path fill="none" stroke="black" d="M140.75,-88.15C136.5,-77.67 130.7,-64.78 124.15,-54 121.71,-50 118.88,-45.95 115.97,-42.09"/>
<polygon fill="black" stroke="black" points="118.55,-39.71 109.59,-34.05 113.06,-44.06 118.55,-39.71"/>
<text text-anchor="middle" x="136.15" y="-57.8" font-family="Times,serif" font-size="14.00">3</text>
</g>
<!-- 4&#45;&gt;4 -->
<g id="edge9" class="edge">
<title>4&#45;&gt;4</title>
<path fill="none" stroke="black" d="M169.95,-113.25C179.71,-113.65 188.15,-112.23 188.15,-109 188.15,-106.98 184.85,-105.67 180,-105.07"/>
<polygon fill="black" stroke="black" points="180.06,-101.57 169.95,-104.75 179.84,-108.56 180.06,-101.57"/>
<text text-anchor="middle" x="193.15" y="-105.3" font-family="Times,serif" font-size="14.00">2</text>
</g>
<!-- 4&#45;&gt;4 -->
<g id="edge26" class="edge">
<title>4&#45;&gt;4</title>
<path fill="none" stroke="black" d="M168.96,-116.2C187.03,-119.49 206.15,-117.09 206.15,-109 206.15,-102.43 193.53,-99.61 179.1,-100.55"/>
<polygon fill="black" stroke="black" points="178.46,-97.1 168.96,-101.8 179.31,-104.05 178.46,-97.1"/>
<text text-anchor="middle" x="211.15" y="-105.3" font-family="Times,serif" font-size="14.00">0</text>
</g>
</g>
</svg>
