<?xml version="1.0" encoding="UTF-8" standalone="no"?>
<!DOCTYPE svg PUBLIC "-//W3C//DTD SVG 1.1//EN"
 "http://www.w3.org/Graphics/SVG/1.1/DTD/svg11.dtd">
<!-- Generated by graphviz version 2.49.0 (20210829.0051)
 -->
<!-- Pages: 1 -->
<svg width="457pt" height="481pt"
 viewBox="0.00 0.00 456.92 481.00" xmlns="http://www.w3.org/2000/svg" xmlns:xlink="http://www.w3.org/1999/xlink">
<g id="graph0" class="graph" transform="scale(1 1) rotate(0) translate(4 477)">
<polygon fill="white" stroke="transparent" points="-4,4 -4,-477 452.92,-477 452.92,4 -4,4"/>
<!-- fake -->
<g id="node1" class="node">
<title>fake</title>
</g>
<!-- 0 -->
<g id="node2" class="node">
<title>0</title>
<ellipse fill="none" stroke="black" cx="180" cy="-382" rx="27" ry="18"/>
<text text-anchor="middle" x="180" y="-378.3" font-family="Times,serif" font-size="14.00">0</text>
</g>
<!-- fake&#45;&gt;0 -->
<g id="edge1" class="edge">
<title>fake&#45;&gt;0</title>
<path fill="none" stroke="black" stroke-width="2" d="M180,-436.81C180,-428.79 180,-419.05 180,-410.07"/>
<polygon fill="black" stroke="black" stroke-width="2" points="183.5,-410.03 180,-400.03 176.5,-410.03 183.5,-410.03"/>
</g>
<!-- 2 -->
<g id="node4" class="node">
<title>2</title>
<ellipse fill="none" stroke="black" cx="226" cy="-291" rx="18" ry="18"/>
<ellipse fill="none" stroke="black" cx="226" cy="-291" rx="22" ry="22"/>
<text text-anchor="middle" x="226" y="-287.3" font-family="Times,serif" font-size="14.00">2</text>
</g>
<!-- 0&#45;&gt;2 -->
<g id="edge6" class="edge">
<title>0&#45;&gt;2</title>
<path fill="none" stroke="black" d="M188.44,-364.68C194.86,-352.24 203.86,-334.83 211.44,-320.16"/>
<polygon fill="black" stroke="black" points="214.7,-321.49 216.18,-311 208.48,-318.28 214.7,-321.49"/>
<text text-anchor="middle" x="210" y="-334.8" font-family="Times,serif" font-size="14.00">2</text>
</g>
<!-- 3 -->
<g id="node5" class="node">
<title>3</title>
<ellipse fill="none" stroke="black" cx="206" cy="-22" rx="18" ry="18"/>
<ellipse fill="none" stroke="black" cx="206" cy="-22" rx="22" ry="22"/>
<text text-anchor="middle" x="206" y="-18.3" font-family="Times,serif" font-size="14.00">3</text>
</g>
<!-- 0&#45;&gt;3 -->
<g id="edge5" class="edge">
<title>0&#45;&gt;3</title>
<path fill="none" stroke="black" d="M153.05,-379.74C102.84,-375.79 0,-359.46 0,-292 0,-292 0,-292 0,-112 0,-37.18 115.93,-24.53 173.85,-22.88"/>
<polygon fill="black" stroke="black" points="174.02,-26.38 183.95,-22.69 173.89,-19.38 174.02,-26.38"/>
<text text-anchor="middle" x="5" y="-196.3" font-family="Times,serif" font-size="14.00">3</text>
</g>
<!-- 0&#45;&gt;3 -->
<g id="edge21" class="edge">
<title>0&#45;&gt;3</title>
<path fill="none" stroke="black" d="M154.48,-376.11C115.6,-367.01 46,-343.53 46,-292 46,-292 46,-292 46,-112 46,-53.93 127.48,-33.42 174.15,-26.43"/>
<polygon fill="black" stroke="black" points="174.66,-29.89 184.09,-25.07 173.71,-22.96 174.66,-29.89"/>
<text text-anchor="middle" x="51" y="-196.3" font-family="Times,serif" font-size="14.00">1</text>
</g>
<!-- 4 -->
<g id="node6" class="node">
<title>4</title>
<ellipse fill="none" stroke="black" cx="330" cy="-113" rx="27" ry="18"/>
<text text-anchor="middle" x="330" y="-109.3" font-family="Times,serif" font-size="14.00">4</text>
</g>
<!-- 0&#45;&gt;4 -->
<g id="edge2" class="edge">
<title>0&#45;&gt;4</title>
<path fill="none" stroke="black" d="M201.2,-370.74C223.84,-359.04 259.86,-338.23 285,-313 320.41,-277.45 331.43,-266.01 346,-218 354.91,-188.65 353.87,-178.89 347,-149 346.26,-145.77 345.18,-142.5 343.91,-139.32"/>
<polygon fill="black" stroke="black" points="347.07,-137.81 339.74,-130.17 340.71,-140.72 347.07,-137.81"/>
<text text-anchor="middle" x="345" y="-239.8" font-family="Times,serif" font-size="14.00">4</text>
</g>
<!-- 0&#45;&gt;4 -->
<g id="edge8" class="edge">
<title>0&#45;&gt;4</title>
<path fill="none" stroke="black" d="M205.25,-374.98C254.62,-361.8 363.65,-325.41 416,-251 442.58,-213.22 463.06,-186.44 436,-149 420.47,-127.52 391.28,-119 367.46,-115.73"/>
<polygon fill="black" stroke="black" points="367.63,-112.22 357.3,-114.59 366.85,-119.18 367.63,-112.22"/>
<text text-anchor="middle" x="431" y="-239.8" font-family="Times,serif" font-size="14.00">0</text>
</g>
<!-- 1 -->
<g id="node3" class="node">
<title>1</title>
<ellipse fill="none" stroke="black" cx="231" cy="-200" rx="27" ry="18"/>
<text text-anchor="middle" x="231" y="-196.3" font-family="Times,serif" font-size="14.00">1</text>
</g>
<!-- 1&#45;&gt;0 -->
<g id="edge25" class="edge">
<title>1&#45;&gt;0</title>
<path fill="none" stroke="black" d="M217.4,-215.58C206.32,-228.51 191.48,-248.48 185,-269 176.2,-296.88 176.01,-330.6 177.35,-353.71"/>
<polygon fill="black" stroke="black" points="173.87,-354.1 178.07,-363.83 180.85,-353.6 173.87,-354.1"/>
<text text-anchor="middle" x="190" y="-287.3" font-family="Times,serif" font-size="14.00">2</text>
</g>
<!-- 1&#45;&gt;2 -->
<g id="edge4" class="edge">
<title>1&#45;&gt;2</title>
<path fill="none" stroke="black" d="M228.72,-218.06C228.05,-223.76 227.39,-230.14 227,-236 226.51,-243.38 226.23,-251.33 226.07,-258.81"/>
<polygon fill="black" stroke="black" points="222.57,-258.9 225.92,-268.95 229.57,-259 222.57,-258.9"/>
<text text-anchor="middle" x="232" y="-239.8" font-family="Times,serif" font-size="14.00">1</text>
</g>
<!-- 1&#45;&gt;2 -->
<g id="edge19" class="edge">
<title>1&#45;&gt;2</title>
<path fill="none" stroke="black" d="M234.51,-218.02C235.53,-223.71 236.5,-230.1 237,-236 237.57,-242.64 237.91,-244.4 237,-251 236.58,-254.04 235.98,-257.17 235.28,-260.28"/>
<polygon fill="black" stroke="black" points="231.89,-259.43 232.78,-269.98 238.67,-261.17 231.89,-259.43"/>
<text text-anchor="middle" x="242" y="-239.8" font-family="Times,serif" font-size="14.00">3</text>
</g>
<!-- 1&#45;&gt;3 -->
<g id="edge22" class="edge">
<title>1&#45;&gt;3</title>
<path fill="none" stroke="black" d="M228.09,-181.98C225.78,-168.24 222.53,-148.4 220,-131 216.25,-105.23 212.48,-75.93 209.8,-54.35"/>
<polygon fill="black" stroke="black" points="213.24,-53.63 208.54,-44.14 206.29,-54.49 213.24,-53.63"/>
<text text-anchor="middle" x="225" y="-109.3" font-family="Times,serif" font-size="14.00">0</text>
</g>
<!-- 1&#45;&gt;4 -->
<g id="edge7" class="edge">
<title>1&#45;&gt;4</title>
<path fill="none" stroke="black" d="M244.77,-184.42C254.74,-174.12 268.75,-160.22 282,-149 288.64,-143.38 296.12,-137.66 303.16,-132.52"/>
<polygon fill="black" stroke="black" points="305.66,-135.03 311.75,-126.37 301.58,-129.34 305.66,-135.03"/>
<text text-anchor="middle" x="287" y="-152.8" font-family="Times,serif" font-size="14.00">4</text>
</g>
<!-- 2&#45;&gt;1 -->
<g id="edge10" class="edge">
<title>2&#45;&gt;1</title>
<path fill="none" stroke="black" d="M244.89,-278.79C254.32,-272.05 264.81,-262.54 270,-251 275.17,-239.51 267.93,-228.31 258.34,-219.42"/>
<polygon fill="black" stroke="black" points="260.28,-216.49 250.33,-212.84 255.83,-221.9 260.28,-216.49"/>
<text text-anchor="middle" x="276" y="-239.8" font-family="Times,serif" font-size="14.00">4</text>
</g>
<!-- 2&#45;&gt;1 -->
<g id="edge14" class="edge">
<title>2&#45;&gt;1</title>
<path fill="none" stroke="black" d="M216.31,-271.02C212.24,-260.67 209.04,-247.64 212,-236 212.88,-232.54 214.17,-229.06 215.68,-225.7"/>
<polygon fill="black" stroke="black" points="218.86,-227.18 220.33,-216.69 212.64,-223.97 218.86,-227.18"/>
<text text-anchor="middle" x="217" y="-239.8" font-family="Times,serif" font-size="14.00">1</text>
</g>
<!-- 2&#45;&gt;2 -->
<g id="edge9" class="edge">
<title>2&#45;&gt;2</title>
<path fill="none" stroke="black" d="M246.58,-299.37C256.84,-300.53 266,-297.74 266,-291 266,-286.68 262.24,-283.99 256.84,-282.91"/>
<polygon fill="black" stroke="black" points="256.67,-279.41 246.58,-282.63 256.48,-286.4 256.67,-279.41"/>
<text text-anchor="middle" x="271" y="-287.3" font-family="Times,serif" font-size="14.00">2</text>
</g>
<!-- 2&#45;&gt;3 -->
<g id="edge11" class="edge">
<title>2&#45;&gt;3</title>
<path fill="none" stroke="black" d="M247.99,-288.31C289.88,-284.58 378.58,-274.09 397,-251 440.24,-196.79 427.37,-155.79 394,-95 363.8,-39.97 283.44,-26.72 238.17,-23.71"/>
<polygon fill="black" stroke="black" points="238.17,-20.2 228,-23.16 237.8,-27.19 238.17,-20.2"/>
<text text-anchor="middle" x="427" y="-152.8" font-family="Times,serif" font-size="14.00">3</text>
</g>
<!-- 2&#45;&gt;3 -->
<g id="edge23" class="edge">
<title>2&#45;&gt;3</title>
<path fill="none" stroke="black" d="M209.85,-275.77C206.43,-273.25 202.72,-270.85 199,-269 170.99,-255.12 152.62,-273.58 131,-251 103.63,-222.41 116.25,-203.35 112,-164 107.04,-118.07 101.63,-96.81 132,-62 143.59,-48.71 160.83,-39.26 175.75,-32.99"/>
<polygon fill="black" stroke="black" points="177.1,-36.22 185.14,-29.32 174.56,-29.7 177.1,-36.22"/>
<text text-anchor="middle" x="117" y="-152.8" font-family="Times,serif" font-size="14.00">0</text>
</g>
<!-- 3&#45;&gt;1 -->
<g id="edge24" class="edge">
<title>3&#45;&gt;1</title>
<path fill="none" stroke="black" d="M216.47,-41.57C219.64,-47.89 222.85,-55.1 225,-62 236.37,-98.52 235.83,-143.17 233.85,-171.35"/>
<polygon fill="black" stroke="black" points="230.34,-171.4 233.01,-181.65 237.32,-171.96 230.34,-171.4"/>
<text text-anchor="middle" x="239" y="-109.3" font-family="Times,serif" font-size="14.00">4</text>
</g>
<!-- 3&#45;&gt;2 -->
<g id="edge13" class="edge">
<title>3&#45;&gt;2</title>
<path fill="none" stroke="black" d="M185.67,-31.2C172.35,-37.62 155.67,-47.84 146,-62 120.04,-100.01 123.31,-118.21 128,-164 132.02,-203.28 119.85,-221.41 146,-251 162.47,-269.64 177.1,-257.2 199,-269 199.8,-269.43 200.6,-269.89 201.4,-270.36"/>
<polygon fill="black" stroke="black" points="199.5,-273.3 209.75,-275.97 203.4,-267.49 199.5,-273.3"/>
<text text-anchor="middle" x="133" y="-152.8" font-family="Times,serif" font-size="14.00">3</text>
</g>
<!-- 3&#45;&gt;2 -->
<g id="edge26" class="edge">
<title>3&#45;&gt;2</title>
<path fill="none" stroke="black" d="M201.92,-43.65C195.51,-79.41 184.79,-155.08 195,-218 197.53,-233.57 204.12,-249.79 210.57,-262.89"/>
<polygon fill="black" stroke="black" points="207.49,-264.55 215.19,-271.82 213.71,-261.33 207.49,-264.55"/>
<text text-anchor="middle" x="195" y="-152.8" font-family="Times,serif" font-size="14.00">2</text>
</g>
<!-- 3&#45;&gt;3 -->
<g id="edge12" class="edge">
<title>3&#45;&gt;3</title>
<path fill="none" stroke="black" d="M226.58,-30.37C236.84,-31.53 246,-28.74 246,-22 246,-17.68 242.24,-14.99 236.84,-13.91"/>
<polygon fill="black" stroke="black" points="236.67,-10.41 226.58,-13.63 236.48,-17.4 236.67,-10.41"/>
<text text-anchor="middle" x="251" y="-18.3" font-family="Times,serif" font-size="14.00">1</text>
</g>
<!-- 3&#45;&gt;4 -->
<g id="edge3" class="edge">
<title>3&#45;&gt;4</title>
<path fill="none" stroke="black" d="M223.85,-34.94C235.15,-42.56 250.03,-52.73 263,-62 276.91,-71.94 292.21,-83.32 304.67,-92.71"/>
<polygon fill="black" stroke="black" points="302.7,-95.61 312.79,-98.85 306.92,-90.03 302.7,-95.61"/>
<text text-anchor="middle" x="288" y="-65.8" font-family="Times,serif" font-size="14.00">0</text>
</g>
<!-- 4&#45;&gt;2 -->
<g id="edge17" class="edge">
<title>4&#45;&gt;2</title>
<path fill="none" stroke="black" d="M325.95,-130.82C317.98,-162.97 299.74,-231.7 285,-251 277.03,-261.45 265.41,-269.97 254.58,-276.36"/>
<polygon fill="black" stroke="black" points="252.84,-273.33 245.78,-281.22 256.22,-279.45 252.84,-273.33"/>
<text text-anchor="middle" x="316" y="-196.3" font-family="Times,serif" font-size="14.00">4</text>
</g>
<!-- 4&#45;&gt;2 -->
<g id="edge20" class="edge">
<title>4&#45;&gt;2</title>
<path fill="none" stroke="black" d="M332.37,-131.31C335.32,-160.66 336.43,-220.02 303,-251 289.66,-263.37 271.65,-272.77 256.41,-279.25"/>
<polygon fill="black" stroke="black" points="254.84,-276.11 246.86,-283.08 257.45,-282.6 254.84,-276.11"/>
<text text-anchor="middle" x="337" y="-196.3" font-family="Times,serif" font-size="14.00">0</text>
</g>
<!-- 4&#45;&gt;3 -->
<g id="edge15" class="edge">
<title>4&#45;&gt;3</title>
<path fill="none" stroke="black" d="M334.28,-95.11C335.91,-84.58 335.97,-71.32 329,-62 308.1,-34.03 267.05,-25.66 238.14,-23.4"/>
<polygon fill="black" stroke="black" points="238.29,-19.9 228.1,-22.81 237.88,-26.89 238.29,-19.9"/>
<text text-anchor="middle" x="339" y="-65.8" font-family="Times,serif" font-size="14.00">1</text>
</g>
<!-- 4&#45;&gt;3 -->
<g id="edge16" class="edge">
<title>4&#45;&gt;3</title>
<path fill="none" stroke="black" d="M321.84,-95.34C315.91,-84.64 307,-71.1 296,-62 278.73,-47.71 255.43,-37.81 236.86,-31.55"/>
<polygon fill="black" stroke="black" points="237.69,-28.14 227.1,-28.45 235.57,-34.82 237.69,-28.14"/>
<text text-anchor="middle" x="314" y="-65.8" font-family="Times,serif" font-size="14.00">2</text>
</g>
<!-- 4&#45;&gt;4 -->
<g id="edge18" class="edge">
<title>4&#45;&gt;4</title>
<path fill="none" stroke="black" d="M354.53,-120.75C365.51,-121.49 375,-118.91 375,-113 375,-109.03 370.72,-106.56 364.57,-105.59"/>
<polygon fill="black" stroke="black" points="364.65,-102.09 354.53,-105.25 364.41,-109.09 364.65,-102.09"/>
<text text-anchor="middle" x="380" y="-109.3" font-family="Times,serif" font-size="14.00">3</text>
</g>
</g>
</svg>
