<?xml version="1.0" encoding="UTF-8" standalone="no"?>
<!DOCTYPE svg PUBLIC "-//W3C//DTD SVG 1.1//EN"
 "http://www.w3.org/Graphics/SVG/1.1/DTD/svg11.dtd">
<!-- Generated by graphviz version 2.49.0 (20210829.0051)
 -->
<!-- Pages: 1 -->
<svg width="416pt" height="481pt"
 viewBox="0.00 0.00 416.00 481.00" xmlns="http://www.w3.org/2000/svg" xmlns:xlink="http://www.w3.org/1999/xlink">
<g id="graph0" class="graph" transform="scale(1 1) rotate(0) translate(4 477)">
<polygon fill="white" stroke="transparent" points="-4,4 -4,-477 412,-477 412,4 -4,4"/>
<!-- fake -->
<g id="node1" class="node">
<title>fake</title>
</g>
<!-- 4 -->
<g id="node6" class="node">
<title>4</title>
<ellipse fill="none" stroke="black" cx="230" cy="-382" rx="27" ry="18"/>
<text text-anchor="middle" x="230" y="-378.3" font-family="Times,serif" font-size="14.00">4</text>
</g>
<!-- fake&#45;&gt;4 -->
<g id="edge1" class="edge">
<title>fake&#45;&gt;4</title>
<path fill="none" stroke="black" stroke-width="2" d="M230,-436.81C230,-428.79 230,-419.05 230,-410.07"/>
<polygon fill="black" stroke="black" stroke-width="2" points="233.5,-410.03 230,-400.03 226.5,-410.03 233.5,-410.03"/>
</g>
<!-- 0 -->
<g id="node2" class="node">
<title>0</title>
<ellipse fill="none" stroke="black" cx="27" cy="-200" rx="27" ry="18"/>
<text text-anchor="middle" x="27" y="-196.3" font-family="Times,serif" font-size="14.00">0</text>
</g>
<!-- 0&#45;&gt;0 -->
<g id="edge10" class="edge">
<title>0&#45;&gt;0</title>
<path fill="none" stroke="black" d="M53.79,-203.93C63.78,-204.06 72,-202.75 72,-200 72,-198.28 68.79,-197.13 63.94,-196.53"/>
<polygon fill="black" stroke="black" points="63.94,-193.03 53.79,-196.07 63.63,-200.02 63.94,-193.03"/>
<text text-anchor="middle" x="77" y="-196.3" font-family="Times,serif" font-size="14.00">4</text>
</g>
<!-- 0&#45;&gt;0 -->
<g id="edge22" class="edge">
<title>0&#45;&gt;0</title>
<path fill="none" stroke="black" d="M52.23,-206.94C71.04,-209.37 90,-207.05 90,-200 90,-194.21 77.24,-191.62 62.27,-192.21"/>
<polygon fill="black" stroke="black" points="61.9,-188.73 52.23,-193.06 62.49,-195.7 61.9,-188.73"/>
<text text-anchor="middle" x="95" y="-196.3" font-family="Times,serif" font-size="14.00">2</text>
</g>
<!-- 2 -->
<g id="node4" class="node">
<title>2</title>
<ellipse fill="none" stroke="black" cx="211" cy="-113" rx="27" ry="18"/>
<text text-anchor="middle" x="211" y="-109.3" font-family="Times,serif" font-size="14.00">2</text>
</g>
<!-- 0&#45;&gt;2 -->
<g id="edge24" class="edge">
<title>0&#45;&gt;2</title>
<path fill="none" stroke="black" d="M39.42,-183.76C49.31,-172.58 64.09,-157.87 80,-149 109.63,-132.48 147.4,-123.47 174.77,-118.75"/>
<polygon fill="black" stroke="black" points="175.4,-122.19 184.71,-117.14 174.28,-115.28 175.4,-122.19"/>
<text text-anchor="middle" x="85" y="-152.8" font-family="Times,serif" font-size="14.00">0</text>
</g>
<!-- 3 -->
<g id="node5" class="node">
<title>3</title>
<ellipse fill="none" stroke="black" cx="244" cy="-22" rx="18" ry="18"/>
<ellipse fill="none" stroke="black" cx="244" cy="-22" rx="22" ry="22"/>
<text text-anchor="middle" x="244" y="-18.3" font-family="Times,serif" font-size="14.00">3</text>
</g>
<!-- 0&#45;&gt;3 -->
<g id="edge16" class="edge">
<title>0&#45;&gt;3</title>
<path fill="none" stroke="black" d="M34.22,-182.44C39.29,-172.05 46.8,-158.81 56,-149 103.56,-98.25 175.22,-57.45 214.93,-37.09"/>
<polygon fill="black" stroke="black" points="216.95,-40 224.3,-32.37 213.79,-33.75 216.95,-40"/>
<text text-anchor="middle" x="123" y="-109.3" font-family="Times,serif" font-size="14.00">1</text>
</g>
<!-- 0&#45;&gt;4 -->
<g id="edge18" class="edge">
<title>0&#45;&gt;4</title>
<path fill="none" stroke="black" d="M31.96,-218.09C39.58,-241.85 56.18,-285.11 83,-313 113.6,-344.82 161.96,-363.19 194.78,-372.64"/>
<polygon fill="black" stroke="black" points="194.28,-376.13 204.85,-375.39 196.13,-369.38 194.28,-376.13"/>
<text text-anchor="middle" x="88" y="-287.3" font-family="Times,serif" font-size="14.00">3</text>
</g>
<!-- 1 -->
<g id="node3" class="node">
<title>1</title>
<ellipse fill="none" stroke="black" cx="124" cy="-291" rx="18" ry="18"/>
<ellipse fill="none" stroke="black" cx="124" cy="-291" rx="22" ry="22"/>
<text text-anchor="middle" x="124" y="-287.3" font-family="Times,serif" font-size="14.00">1</text>
</g>
<!-- 1&#45;&gt;0 -->
<g id="edge19" class="edge">
<title>1&#45;&gt;0</title>
<path fill="none" stroke="black" d="M114.34,-271.16C107.96,-259.99 98.78,-246.08 88,-236 79.26,-227.83 68.27,-220.78 58.04,-215.2"/>
<polygon fill="black" stroke="black" points="59.43,-211.98 48.94,-210.49 56.21,-218.2 59.43,-211.98"/>
<text text-anchor="middle" x="105" y="-239.8" font-family="Times,serif" font-size="14.00">1</text>
</g>
<!-- 1&#45;&gt;1 -->
<g id="edge6" class="edge">
<title>1&#45;&gt;1</title>
<path fill="none" stroke="black" d="M145.81,-295.25C155.56,-295.65 164,-294.23 164,-291 164,-288.98 160.7,-287.67 155.85,-287.07"/>
<polygon fill="black" stroke="black" points="155.91,-283.57 145.81,-286.75 155.69,-290.56 155.91,-283.57"/>
<text text-anchor="middle" x="169" y="-287.3" font-family="Times,serif" font-size="14.00">4</text>
</g>
<!-- 1&#45;&gt;1 -->
<g id="edge8" class="edge">
<title>1&#45;&gt;1</title>
<path fill="none" stroke="black" d="M144.81,-298.2C162.88,-301.49 182,-299.09 182,-291 182,-284.43 169.38,-281.61 154.96,-282.55"/>
<polygon fill="black" stroke="black" points="154.31,-279.1 144.81,-283.8 155.17,-286.05 154.31,-279.1"/>
<text text-anchor="middle" x="187" y="-287.3" font-family="Times,serif" font-size="14.00">0</text>
</g>
<!-- 1&#45;&gt;2 -->
<g id="edge7" class="edge">
<title>1&#45;&gt;2</title>
<path fill="none" stroke="black" d="M128.35,-269.23C135.2,-240.18 150.6,-186.77 178,-149 181.31,-144.44 185.17,-139.85 189.06,-135.56"/>
<polygon fill="black" stroke="black" points="191.65,-137.92 195.98,-128.25 186.56,-133.11 191.65,-137.92"/>
<text text-anchor="middle" x="163" y="-196.3" font-family="Times,serif" font-size="14.00">2</text>
</g>
<!-- 1&#45;&gt;2 -->
<g id="edge15" class="edge">
<title>1&#45;&gt;2</title>
<path fill="none" stroke="black" d="M135.46,-272.15C139.72,-265.51 144.58,-257.91 149,-251 158.36,-236.35 162.11,-233.49 170,-218 183.02,-192.44 194.67,-161.72 202.2,-140.33"/>
<polygon fill="black" stroke="black" points="205.59,-141.23 205.55,-130.64 198.97,-138.94 205.59,-141.23"/>
<text text-anchor="middle" x="191" y="-196.3" font-family="Times,serif" font-size="14.00">3</text>
</g>
<!-- 2&#45;&gt;0 -->
<g id="edge20" class="edge">
<title>2&#45;&gt;0</title>
<path fill="none" stroke="black" d="M187.66,-122.38C169.53,-129.08 143.89,-138.97 122,-149 109.42,-154.77 79.45,-170.67 56.51,-183.01"/>
<polygon fill="black" stroke="black" points="54.64,-180.05 47.5,-187.87 57.96,-186.21 54.64,-180.05"/>
<text text-anchor="middle" x="127" y="-152.8" font-family="Times,serif" font-size="14.00">0</text>
</g>
<!-- 2&#45;&gt;2 -->
<g id="edge2" class="edge">
<title>2&#45;&gt;2</title>
<path fill="none" stroke="black" d="M237.79,-116.93C247.78,-117.06 256,-115.75 256,-113 256,-111.28 252.79,-110.13 247.94,-109.53"/>
<polygon fill="black" stroke="black" points="247.94,-106.03 237.79,-109.07 247.63,-113.02 247.94,-106.03"/>
<text text-anchor="middle" x="261" y="-109.3" font-family="Times,serif" font-size="14.00">4</text>
</g>
<!-- 2&#45;&gt;2 -->
<g id="edge17" class="edge">
<title>2&#45;&gt;2</title>
<path fill="none" stroke="black" d="M236.23,-119.94C255.04,-122.37 274,-120.05 274,-113 274,-107.21 261.24,-104.62 246.27,-105.21"/>
<polygon fill="black" stroke="black" points="245.9,-101.73 236.23,-106.06 246.49,-108.7 245.9,-101.73"/>
<text text-anchor="middle" x="279" y="-109.3" font-family="Times,serif" font-size="14.00">3</text>
</g>
<!-- 2&#45;&gt;3 -->
<g id="edge3" class="edge">
<title>2&#45;&gt;3</title>
<path fill="none" stroke="black" d="M208.61,-94.82C207.9,-84.93 208.15,-72.43 212,-62 214.18,-56.1 217.65,-50.45 221.51,-45.36"/>
<polygon fill="black" stroke="black" points="224.46,-47.3 228.24,-37.4 219.11,-42.78 224.46,-47.3"/>
<text text-anchor="middle" x="217" y="-65.8" font-family="Times,serif" font-size="14.00">2</text>
</g>
<!-- 2&#45;&gt;4 -->
<g id="edge12" class="edge">
<title>2&#45;&gt;4</title>
<path fill="none" stroke="black" d="M219.73,-130.34C222.46,-136.09 225.22,-142.7 227,-149 249.01,-227.09 238.39,-249.91 241,-331 241.21,-337.66 242.01,-339.41 241,-346 240.58,-348.74 239.98,-351.56 239.29,-354.35"/>
<polygon fill="black" stroke="black" points="235.87,-353.58 236.43,-364.16 242.59,-355.53 235.87,-353.58"/>
<text text-anchor="middle" x="246" y="-239.8" font-family="Times,serif" font-size="14.00">1</text>
</g>
<!-- 3&#45;&gt;2 -->
<g id="edge11" class="edge">
<title>3&#45;&gt;2</title>
<path fill="none" stroke="black" d="M236.67,-42.77C231.97,-55.45 225.81,-72.06 220.7,-85.83"/>
<polygon fill="black" stroke="black" points="217.4,-84.67 217.21,-95.26 223.97,-87.1 217.4,-84.67"/>
<text text-anchor="middle" x="234" y="-65.8" font-family="Times,serif" font-size="14.00">3</text>
</g>
<!-- 3&#45;&gt;3 -->
<g id="edge9" class="edge">
<title>3&#45;&gt;3</title>
<path fill="none" stroke="black" d="M265.81,-26.25C275.56,-26.65 284,-25.23 284,-22 284,-19.98 280.7,-18.67 275.85,-18.07"/>
<polygon fill="black" stroke="black" points="275.91,-14.57 265.81,-17.75 275.69,-21.56 275.91,-14.57"/>
<text text-anchor="middle" x="289" y="-18.3" font-family="Times,serif" font-size="14.00">0</text>
</g>
<!-- 3&#45;&gt;3 -->
<g id="edge14" class="edge">
<title>3&#45;&gt;3</title>
<path fill="none" stroke="black" d="M264.81,-29.2C282.88,-32.49 302,-30.09 302,-22 302,-15.43 289.38,-12.61 274.96,-13.55"/>
<polygon fill="black" stroke="black" points="274.31,-10.1 264.81,-14.8 275.17,-17.05 274.31,-10.1"/>
<text text-anchor="middle" x="307" y="-18.3" font-family="Times,serif" font-size="14.00">2</text>
</g>
<!-- 3&#45;&gt;4 -->
<g id="edge4" class="edge">
<title>3&#45;&gt;4</title>
<path fill="none" stroke="black" d="M264.82,-29.55C296.21,-40.88 352,-67.29 352,-112 352,-292 352,-292 352,-292 352,-335.5 300.76,-359.99 264.7,-371.85"/>
<polygon fill="black" stroke="black" points="263.5,-368.56 254.98,-374.86 265.57,-375.24 263.5,-368.56"/>
<text text-anchor="middle" x="357" y="-196.3" font-family="Times,serif" font-size="14.00">1</text>
</g>
<!-- 3&#45;&gt;4 -->
<g id="edge26" class="edge">
<title>3&#45;&gt;4</title>
<path fill="none" stroke="black" d="M265.74,-25.45C308.19,-31.56 398,-51.63 398,-112 398,-292 398,-292 398,-292 398,-351.01 316.06,-371.01 266.63,-377.7"/>
<polygon fill="black" stroke="black" points="266.12,-374.24 256.62,-378.94 266.97,-381.18 266.12,-374.24"/>
<text text-anchor="middle" x="403" y="-196.3" font-family="Times,serif" font-size="14.00">4</text>
</g>
<!-- 4&#45;&gt;0 -->
<g id="edge13" class="edge">
<title>4&#45;&gt;0</title>
<path fill="none" stroke="black" d="M203.53,-378.28C161.63,-373.54 82.46,-362.63 60,-346 24.05,-319.39 21.64,-262.39 23.85,-228.31"/>
<polygon fill="black" stroke="black" points="27.35,-228.38 24.69,-218.13 20.38,-227.8 27.35,-228.38"/>
<text text-anchor="middle" x="40" y="-287.3" font-family="Times,serif" font-size="14.00">2</text>
</g>
<!-- 4&#45;&gt;1 -->
<g id="edge23" class="edge">
<title>4&#45;&gt;1</title>
<path fill="none" stroke="black" d="M206.82,-372.68C192.53,-366.76 174.43,-357.78 161,-346 152.45,-338.51 144.93,-328.62 138.95,-319.36"/>
<polygon fill="black" stroke="black" points="141.9,-317.48 133.69,-310.77 135.93,-321.13 141.9,-317.48"/>
<text text-anchor="middle" x="166" y="-334.8" font-family="Times,serif" font-size="14.00">4</text>
</g>
<!-- 4&#45;&gt;1 -->
<g id="edge25" class="edge">
<title>4&#45;&gt;1</title>
<path fill="none" stroke="black" d="M214.01,-367.37C202.16,-357.29 185.61,-343.25 171,-331 163.76,-324.93 155.86,-318.36 148.65,-312.37"/>
<polygon fill="black" stroke="black" points="150.5,-309.36 140.57,-305.68 146.03,-314.75 150.5,-309.36"/>
<text text-anchor="middle" x="192" y="-334.8" font-family="Times,serif" font-size="14.00">0</text>
</g>
<!-- 4&#45;&gt;2 -->
<g id="edge5" class="edge">
<title>4&#45;&gt;2</title>
<path fill="none" stroke="black" d="M228.78,-363.89C225.57,-318.79 216.86,-196.34 212.95,-141.36"/>
<polygon fill="black" stroke="black" points="216.43,-141.04 212.23,-131.31 209.45,-141.53 216.43,-141.04"/>
<text text-anchor="middle" x="225" y="-239.8" font-family="Times,serif" font-size="14.00">3</text>
</g>
<!-- 4&#45;&gt;2 -->
<g id="edge21" class="edge">
<title>4&#45;&gt;2</title>
<path fill="none" stroke="black" d="M243.73,-366.12C248.23,-360.28 252.68,-353.25 255,-346 277.25,-276.57 263.34,-253.86 251,-182 248.43,-167.02 249.23,-162.37 242,-149 239.51,-144.39 236.3,-139.87 232.89,-135.7"/>
<polygon fill="black" stroke="black" points="235.49,-133.35 226.24,-128.17 230.24,-137.98 235.49,-133.35"/>
<text text-anchor="middle" x="269" y="-239.8" font-family="Times,serif" font-size="14.00">1</text>
</g>
</g>
</svg>
