<?xml version="1.0" encoding="UTF-8" standalone="no"?>
<!DOCTYPE svg PUBLIC "-//W3C//DTD SVG 1.1//EN"
 "http://www.w3.org/Graphics/SVG/1.1/DTD/svg11.dtd">
<!-- Generated by graphviz version 2.49.0 (20210829.0051)
 -->
<!-- Pages: 1 -->
<svg width="381pt" height="465pt"
 viewBox="0.00 0.00 380.70 465.00" xmlns="http://www.w3.org/2000/svg" xmlns:xlink="http://www.w3.org/1999/xlink">
<g id="graph0" class="graph" transform="scale(1 1) rotate(0) translate(4 461)">
<polygon fill="white" stroke="transparent" points="-4,4 -4,-461 376.7,-461 376.7,4 -4,4"/>
<!-- fake -->
<g id="node1" class="node">
<title>fake</title>
</g>
<!-- 0 -->
<g id="node2" class="node">
<title>0</title>
<ellipse fill="none" stroke="black" cx="213" cy="-366" rx="27" ry="18"/>
<text text-anchor="middle" x="213" y="-362.3" font-family="Times,serif" font-size="14.00">0</text>
</g>
<!-- fake&#45;&gt;0 -->
<g id="edge1" class="edge">
<title>fake&#45;&gt;0</title>
<path fill="none" stroke="black" stroke-width="2" d="M213,-420.81C213,-412.79 213,-403.05 213,-394.07"/>
<polygon fill="black" stroke="black" stroke-width="2" points="216.5,-394.03 213,-384.03 209.5,-394.03 216.5,-394.03"/>
</g>
<!-- 1 -->
<g id="node3" class="node">
<title>1</title>
<ellipse fill="none" stroke="black" cx="236" cy="-192" rx="27" ry="18"/>
<text text-anchor="middle" x="236" y="-188.3" font-family="Times,serif" font-size="14.00">1</text>
</g>
<!-- 0&#45;&gt;1 -->
<g id="edge13" class="edge">
<title>0&#45;&gt;1</title>
<path fill="none" stroke="black" d="M196.41,-351.35C189.6,-345.25 181.93,-337.71 176,-330 156.66,-304.89 150.17,-291.71 158,-261 162.13,-244.81 164.36,-239.98 176,-228 184.17,-219.59 194.79,-212.52 204.82,-206.98"/>
<polygon fill="black" stroke="black" points="206.51,-210.05 213.78,-202.34 203.29,-203.84 206.51,-210.05"/>
<text text-anchor="middle" x="163" y="-275.3" font-family="Times,serif" font-size="14.00">2</text>
</g>
<!-- 0&#45;&gt;1 -->
<g id="edge22" class="edge">
<title>0&#45;&gt;1</title>
<path fill="none" stroke="black" d="M209.67,-347.88C206.2,-327.12 202.04,-291.15 208,-261 210.89,-246.37 216.97,-230.94 222.73,-218.48"/>
<polygon fill="black" stroke="black" points="226.02,-219.73 227.21,-209.2 219.71,-216.68 226.02,-219.73"/>
<text text-anchor="middle" x="213" y="-275.3" font-family="Times,serif" font-size="14.00">3</text>
</g>
<!-- 2 -->
<g id="node4" class="node">
<title>2</title>
<ellipse fill="none" stroke="black" cx="149" cy="-18" rx="27" ry="18"/>
<text text-anchor="middle" x="149" y="-14.3" font-family="Times,serif" font-size="14.00">2</text>
</g>
<!-- 0&#45;&gt;2 -->
<g id="edge26" class="edge">
<title>0&#45;&gt;2</title>
<path fill="none" stroke="black" d="M186.25,-363.04C154.05,-359.8 99.06,-351.39 57,-330 26.96,-314.73 0,-313.7 0,-280 0,-280 0,-280 0,-104 0,-52.44 68.14,-31.74 112.26,-23.75"/>
<polygon fill="black" stroke="black" points="113.08,-27.16 122.36,-22.06 111.92,-20.26 113.08,-27.16"/>
<text text-anchor="middle" x="5" y="-188.3" font-family="Times,serif" font-size="14.00">1</text>
</g>
<!-- 3 -->
<g id="node5" class="node">
<title>3</title>
<ellipse fill="none" stroke="black" cx="302" cy="-279" rx="27" ry="18"/>
<text text-anchor="middle" x="302" y="-275.3" font-family="Times,serif" font-size="14.00">3</text>
</g>
<!-- 0&#45;&gt;3 -->
<g id="edge10" class="edge">
<title>0&#45;&gt;3</title>
<path fill="none" stroke="black" d="M228.1,-350.58C242.25,-337.07 263.58,-316.7 279.69,-301.31"/>
<polygon fill="black" stroke="black" points="282.31,-303.64 287.13,-294.21 277.48,-298.58 282.31,-303.64"/>
<text text-anchor="middle" x="267" y="-318.8" font-family="Times,serif" font-size="14.00">4</text>
</g>
<!-- 0&#45;&gt;3 -->
<g id="edge18" class="edge">
<title>0&#45;&gt;3</title>
<path fill="none" stroke="black" d="M235.82,-356.25C248.84,-350.37 264.75,-341.57 276,-330 282.57,-323.25 287.88,-314.5 291.94,-306.21"/>
<polygon fill="black" stroke="black" points="295.24,-307.4 296.14,-296.84 288.86,-304.53 295.24,-307.4"/>
<text text-anchor="middle" x="292" y="-318.8" font-family="Times,serif" font-size="14.00">0</text>
</g>
<!-- 1&#45;&gt;0 -->
<g id="edge16" class="edge">
<title>1&#45;&gt;0</title>
<path fill="none" stroke="black" d="M233.72,-210.05C229.73,-239.88 221.46,-301.76 216.66,-337.64"/>
<polygon fill="black" stroke="black" points="213.15,-337.5 215.29,-347.88 220.08,-338.43 213.15,-337.5"/>
<text text-anchor="middle" x="231" y="-275.3" font-family="Times,serif" font-size="14.00">4</text>
</g>
<!-- 4 -->
<g id="node6" class="node">
<title>4</title>
<ellipse fill="none" stroke="black" cx="238" cy="-105" rx="27" ry="18"/>
<text text-anchor="middle" x="238" y="-101.3" font-family="Times,serif" font-size="14.00">4</text>
</g>
<!-- 1&#45;&gt;4 -->
<g id="edge9" class="edge">
<title>1&#45;&gt;4</title>
<path fill="none" stroke="black" d="M209.88,-187.31C176.3,-181.41 124.39,-167.69 143,-141 156.07,-122.25 180.37,-113.52 201.13,-109.47"/>
<polygon fill="black" stroke="black" points="201.98,-112.87 211.27,-107.79 200.83,-105.97 201.98,-112.87"/>
<text text-anchor="middle" x="148" y="-144.8" font-family="Times,serif" font-size="14.00">0</text>
</g>
<!-- 1&#45;&gt;4 -->
<g id="edge11" class="edge">
<title>1&#45;&gt;4</title>
<path fill="none" stroke="black" d="M212.4,-183.08C191.23,-174.58 165.06,-159.74 176,-141 182.33,-130.16 193.4,-122.41 204.44,-117.01"/>
<polygon fill="black" stroke="black" points="205.85,-120.21 213.61,-113 203.05,-113.8 205.85,-120.21"/>
<text text-anchor="middle" x="181" y="-144.8" font-family="Times,serif" font-size="14.00">1</text>
</g>
<!-- 1&#45;&gt;4 -->
<g id="edge17" class="edge">
<title>1&#45;&gt;4</title>
<path fill="none" stroke="black" d="M220.76,-176.66C212.35,-166.94 204.45,-153.62 209,-141 210.68,-136.33 213.29,-131.84 216.27,-127.72"/>
<polygon fill="black" stroke="black" points="219.08,-129.81 222.72,-119.86 213.67,-125.37 219.08,-129.81"/>
<text text-anchor="middle" x="214" y="-144.8" font-family="Times,serif" font-size="14.00">2</text>
</g>
<!-- 1&#45;&gt;4 -->
<g id="edge25" class="edge">
<title>1&#45;&gt;4</title>
<path fill="none" stroke="black" d="M236.4,-173.8C236.68,-162.16 237.05,-146.55 237.36,-133.24"/>
<polygon fill="black" stroke="black" points="240.86,-133.26 237.6,-123.18 233.86,-133.09 240.86,-133.26"/>
<text text-anchor="middle" x="242" y="-144.8" font-family="Times,serif" font-size="14.00">3</text>
</g>
<!-- 2&#45;&gt;0 -->
<g id="edge19" class="edge">
<title>2&#45;&gt;0</title>
<path fill="none" stroke="black" d="M123.96,-25.15C106.97,-30.41 84.97,-39.48 70,-54 52.31,-71.16 46,-79.35 46,-104 46,-280 46,-280 46,-280 46,-338.01 127.03,-356.45 176.2,-362.29"/>
<polygon fill="black" stroke="black" points="175.85,-365.78 186.17,-363.36 176.6,-358.82 175.85,-365.78"/>
<text text-anchor="middle" x="51" y="-188.3" font-family="Times,serif" font-size="14.00">4</text>
</g>
<!-- 2&#45;&gt;0 -->
<g id="edge23" class="edge">
<title>2&#45;&gt;0</title>
<path fill="none" stroke="black" d="M135.96,-34.14C131.54,-40 126.97,-46.98 124,-54 112.01,-82.35 115.69,-92.3 118,-123 125.06,-216.7 104.13,-255.2 161,-330 166.85,-337.7 174.91,-344.27 182.93,-349.57"/>
<polygon fill="black" stroke="black" points="181.16,-352.59 191.52,-354.81 184.81,-346.61 181.16,-352.59"/>
<text text-anchor="middle" x="124" y="-188.3" font-family="Times,serif" font-size="14.00">1</text>
</g>
<!-- 2&#45;&gt;1 -->
<g id="edge12" class="edge">
<title>2&#45;&gt;1</title>
<path fill="none" stroke="black" d="M140.85,-35.55C128.49,-63.26 109.07,-119.58 135,-156 149.47,-176.32 176.58,-184.95 199.08,-188.57"/>
<polygon fill="black" stroke="black" points="198.65,-192.04 209.03,-189.9 199.58,-185.1 198.65,-192.04"/>
<text text-anchor="middle" x="129" y="-101.3" font-family="Times,serif" font-size="14.00">0</text>
</g>
<!-- 2&#45;&gt;4 -->
<g id="edge2" class="edge">
<title>2&#45;&gt;4</title>
<path fill="none" stroke="black" d="M163.61,-33.56C173.75,-43.6 187.6,-57.21 200,-69 204.86,-73.62 210.13,-78.53 215.15,-83.17"/>
<polygon fill="black" stroke="black" points="213.01,-85.95 222.74,-90.14 217.74,-80.8 213.01,-85.95"/>
<text text-anchor="middle" x="205" y="-57.8" font-family="Times,serif" font-size="14.00">3</text>
</g>
<!-- 2&#45;&gt;4 -->
<g id="edge20" class="edge">
<title>2&#45;&gt;4</title>
<path fill="none" stroke="black" d="M171.55,-28.31C183.99,-34.28 199.09,-42.98 210,-54 216.81,-60.88 222.49,-69.76 226.92,-78.13"/>
<polygon fill="black" stroke="black" points="223.83,-79.77 231.37,-87.21 230.11,-76.69 223.83,-79.77"/>
<text text-anchor="middle" x="226" y="-57.8" font-family="Times,serif" font-size="14.00">2</text>
</g>
<!-- 3&#45;&gt;0 -->
<g id="edge7" class="edge">
<title>3&#45;&gt;0</title>
<path fill="none" stroke="black" d="M311.6,-296.16C316.45,-306.65 319.99,-320.14 313,-330 298.85,-349.94 272.43,-358.61 250.3,-362.34"/>
<polygon fill="black" stroke="black" points="249.58,-358.9 240.17,-363.76 250.56,-365.84 249.58,-358.9"/>
<text text-anchor="middle" x="321" y="-318.8" font-family="Times,serif" font-size="14.00">4</text>
</g>
<!-- 3&#45;&gt;1 -->
<g id="edge3" class="edge">
<title>3&#45;&gt;1</title>
<path fill="none" stroke="black" d="M287.81,-263.43C282.07,-257.29 275.51,-249.98 270,-243 263.69,-235.02 257.28,-225.91 251.76,-217.68"/>
<polygon fill="black" stroke="black" points="254.58,-215.6 246.16,-209.18 248.74,-219.45 254.58,-215.6"/>
<text text-anchor="middle" x="275" y="-231.8" font-family="Times,serif" font-size="14.00">1</text>
</g>
<!-- 3&#45;&gt;1 -->
<g id="edge6" class="edge">
<title>3&#45;&gt;1</title>
<path fill="none" stroke="black" d="M296.89,-261.15C293.25,-250.9 287.64,-237.91 280,-228 275.25,-221.83 269.19,-216.11 263.09,-211.16"/>
<polygon fill="black" stroke="black" points="264.96,-208.18 254.88,-204.91 260.72,-213.75 264.96,-208.18"/>
<text text-anchor="middle" x="293" y="-231.8" font-family="Times,serif" font-size="14.00">2</text>
</g>
<!-- 3&#45;&gt;2 -->
<g id="edge21" class="edge">
<title>3&#45;&gt;2</title>
<path fill="none" stroke="black" d="M325.75,-270.2C338.33,-264.72 352.66,-256.01 360,-243 375.16,-216.14 385,-224.38 332,-141 300.93,-92.13 284.54,-83.99 235,-54 218.67,-44.11 199.05,-35.88 182.67,-29.89"/>
<polygon fill="black" stroke="black" points="183.54,-26.49 172.95,-26.46 181.21,-33.09 183.54,-26.49"/>
<text text-anchor="middle" x="346" y="-144.8" font-family="Times,serif" font-size="14.00">0</text>
</g>
<!-- 3&#45;&gt;4 -->
<g id="edge24" class="edge">
<title>3&#45;&gt;4</title>
<path fill="none" stroke="black" d="M306.17,-260.9C311.87,-233.39 318.96,-178.59 296,-141 290.04,-131.24 280.24,-123.85 270.38,-118.43"/>
<polygon fill="black" stroke="black" points="271.92,-115.29 261.41,-114 268.82,-121.56 271.92,-115.29"/>
<text text-anchor="middle" x="316" y="-188.3" font-family="Times,serif" font-size="14.00">3</text>
</g>
<!-- 4&#45;&gt;0 -->
<g id="edge8" class="edge">
<title>4&#45;&gt;0</title>
<path fill="none" stroke="black" d="M262.93,-112.25C279.16,-117.48 299.71,-126.48 313,-141 360.42,-192.78 346.33,-227.28 338,-297 336.21,-311.98 340.39,-319.05 330,-330 309.48,-351.63 276.2,-360.06 250.37,-363.26"/>
<polygon fill="black" stroke="black" points="249.76,-359.81 240.17,-364.31 250.48,-366.77 249.76,-359.81"/>
<text text-anchor="middle" x="351" y="-231.8" font-family="Times,serif" font-size="14.00">0</text>
</g>
<!-- 4&#45;&gt;1 -->
<g id="edge4" class="edge">
<title>4&#45;&gt;1</title>
<path fill="none" stroke="black" d="M246.65,-122.09C250.84,-131.83 254.49,-144.55 252,-156 251.33,-159.1 250.35,-162.25 249.21,-165.33"/>
<polygon fill="black" stroke="black" points="245.89,-164.2 245.17,-174.77 252.32,-166.96 245.89,-164.2"/>
<text text-anchor="middle" x="257" y="-144.8" font-family="Times,serif" font-size="14.00">1</text>
</g>
<!-- 4&#45;&gt;1 -->
<g id="edge5" class="edge">
<title>4&#45;&gt;1</title>
<path fill="none" stroke="black" d="M253.4,-119.87C262.25,-129.6 270.76,-143.12 266,-156 264.25,-160.72 261.55,-165.24 258.47,-169.37"/>
<polygon fill="black" stroke="black" points="255.6,-167.34 251.8,-177.23 260.94,-171.87 255.6,-167.34"/>
<text text-anchor="middle" x="272" y="-144.8" font-family="Times,serif" font-size="14.00">2</text>
</g>
<!-- 4&#45;&gt;1 -->
<g id="edge14" class="edge">
<title>4&#45;&gt;1</title>
<path fill="none" stroke="black" d="M258.48,-117.06C272.91,-126.45 288.44,-140.78 281,-156 277.53,-163.09 271.86,-169.16 265.69,-174.16"/>
<polygon fill="black" stroke="black" points="263.21,-171.63 257.13,-180.3 267.29,-177.31 263.21,-171.63"/>
<text text-anchor="middle" x="287" y="-144.8" font-family="Times,serif" font-size="14.00">3</text>
</g>
<!-- 4&#45;&gt;2 -->
<g id="edge15" class="edge">
<title>4&#45;&gt;2</title>
<path fill="none" stroke="black" d="M213.97,-96.38C199.61,-90.77 181.9,-81.87 170,-69 163.91,-62.42 159.44,-53.81 156.24,-45.59"/>
<polygon fill="black" stroke="black" points="159.48,-44.26 152.92,-35.93 152.86,-46.53 159.48,-44.26"/>
<text text-anchor="middle" x="175" y="-57.8" font-family="Times,serif" font-size="14.00">4</text>
</g>
</g>
</svg>
