<?xml version="1.0" encoding="UTF-8" standalone="no"?>
<!DOCTYPE svg PUBLIC "-//W3C//DTD SVG 1.1//EN"
 "http://www.w3.org/Graphics/SVG/1.1/DTD/svg11.dtd">
<!-- Generated by graphviz version 2.49.0 (20210829.0051)
 -->
<!-- Pages: 1 -->
<svg width="525pt" height="481pt"
 viewBox="0.00 0.00 525.50 481.00" xmlns="http://www.w3.org/2000/svg" xmlns:xlink="http://www.w3.org/1999/xlink">
<g id="graph0" class="graph" transform="scale(1 1) rotate(0) translate(4 477)">
<polygon fill="white" stroke="transparent" points="-4,4 -4,-477 521.5,-477 521.5,4 -4,4"/>
<!-- fake -->
<g id="node1" class="node">
<title>fake</title>
</g>
<!-- 4 -->
<g id="node6" class="node">
<title>4</title>
<ellipse fill="none" stroke="black" cx="400.5" cy="-382" rx="27" ry="18"/>
<text text-anchor="middle" x="400.5" y="-378.3" font-family="Times,serif" font-size="14.00">4</text>
</g>
<!-- fake&#45;&gt;4 -->
<g id="edge1" class="edge">
<title>fake&#45;&gt;4</title>
<path fill="none" stroke="black" stroke-width="2" d="M400.5,-436.81C400.5,-428.79 400.5,-419.05 400.5,-410.07"/>
<polygon fill="black" stroke="black" stroke-width="2" points="404,-410.03 400.5,-400.03 397,-410.03 404,-410.03"/>
</g>
<!-- 0 -->
<g id="node2" class="node">
<title>0</title>
<ellipse fill="none" stroke="black" cx="241.5" cy="-291" rx="18" ry="18"/>
<ellipse fill="none" stroke="black" cx="241.5" cy="-291" rx="22" ry="22"/>
<text text-anchor="middle" x="241.5" y="-287.3" font-family="Times,serif" font-size="14.00">0</text>
</g>
<!-- 0&#45;&gt;0 -->
<g id="edge23" class="edge">
<title>0&#45;&gt;0</title>
<path fill="none" stroke="black" d="M262.08,-299.37C272.34,-300.53 281.5,-297.74 281.5,-291 281.5,-286.68 277.74,-283.99 272.34,-282.91"/>
<polygon fill="black" stroke="black" points="272.17,-279.41 262.08,-282.63 271.98,-286.4 272.17,-279.41"/>
<text text-anchor="middle" x="286.5" y="-287.3" font-family="Times,serif" font-size="14.00">2</text>
</g>
<!-- 1 -->
<g id="node3" class="node">
<title>1</title>
<ellipse fill="none" stroke="black" cx="340.5" cy="-196" rx="18" ry="18"/>
<ellipse fill="none" stroke="black" cx="340.5" cy="-196" rx="22" ry="22"/>
<text text-anchor="middle" x="340.5" y="-192.3" font-family="Times,serif" font-size="14.00">1</text>
</g>
<!-- 0&#45;&gt;1 -->
<g id="edge8" class="edge">
<title>0&#45;&gt;1</title>
<path fill="none" stroke="black" d="M263.67,-289.28C289.63,-287.1 331.62,-279.13 351.5,-251 356.79,-243.51 356.57,-234.05 354.23,-225.15"/>
<polygon fill="black" stroke="black" points="357.46,-223.77 350.87,-215.47 350.85,-226.07 357.46,-223.77"/>
<text text-anchor="middle" x="361.5" y="-239.8" font-family="Times,serif" font-size="14.00">0</text>
</g>
<!-- 0&#45;&gt;1 -->
<g id="edge21" class="edge">
<title>0&#45;&gt;1</title>
<path fill="none" stroke="black" d="M250.35,-270.66C256.1,-259.58 264.4,-245.95 274.5,-236 285.15,-225.5 299.16,-216.71 311.54,-210.14"/>
<polygon fill="black" stroke="black" points="313.25,-213.2 320.6,-205.57 310.09,-206.95 313.25,-213.2"/>
<text text-anchor="middle" x="279.5" y="-239.8" font-family="Times,serif" font-size="14.00">3</text>
</g>
<!-- 2 -->
<g id="node4" class="node">
<title>2</title>
<ellipse fill="none" stroke="black" cx="228.5" cy="-105" rx="27" ry="18"/>
<text text-anchor="middle" x="228.5" y="-101.3" font-family="Times,serif" font-size="14.00">2</text>
</g>
<!-- 0&#45;&gt;2 -->
<g id="edge20" class="edge">
<title>0&#45;&gt;2</title>
<path fill="none" stroke="black" d="M224.73,-276.4C210.21,-263.29 190.6,-241.95 184.5,-218 175.81,-183.94 183.56,-170.6 202.5,-141 204.88,-137.27 207.53,-133.42 210.21,-129.69"/>
<polygon fill="black" stroke="black" points="213.24,-131.47 216.37,-121.35 207.61,-127.32 213.24,-131.47"/>
<text text-anchor="middle" x="189.5" y="-192.3" font-family="Times,serif" font-size="14.00">4</text>
</g>
<!-- 0&#45;&gt;2 -->
<g id="edge26" class="edge">
<title>0&#45;&gt;2</title>
<path fill="none" stroke="black" d="M233.7,-270.2C228.52,-255.93 222.2,-236.1 219.5,-218 215.19,-189.19 218.97,-155.87 222.87,-133.12"/>
<polygon fill="black" stroke="black" points="226.33,-133.63 224.7,-123.16 219.45,-132.36 226.33,-133.63"/>
<text text-anchor="middle" x="224.5" y="-192.3" font-family="Times,serif" font-size="14.00">1</text>
</g>
<!-- 1&#45;&gt;0 -->
<g id="edge9" class="edge">
<title>1&#45;&gt;0</title>
<path fill="none" stroke="black" d="M325.29,-212.34C314.36,-223.27 299.19,-238.22 285.5,-251 279.2,-256.88 272.27,-263.11 265.82,-268.84"/>
<polygon fill="black" stroke="black" points="263.16,-266.51 257.97,-275.75 267.79,-271.76 263.16,-266.51"/>
<text text-anchor="middle" x="306.5" y="-239.8" font-family="Times,serif" font-size="14.00">3</text>
</g>
<!-- 1&#45;&gt;0 -->
<g id="edge25" class="edge">
<title>1&#45;&gt;0</title>
<path fill="none" stroke="black" d="M334.64,-217.33C330.66,-228.33 324.46,-241.56 315.5,-251 303.55,-263.58 286.64,-272.91 272,-279.28"/>
<polygon fill="black" stroke="black" points="270.26,-276.21 262.32,-283.23 272.9,-282.7 270.26,-276.21"/>
<text text-anchor="middle" x="331.5" y="-239.8" font-family="Times,serif" font-size="14.00">2</text>
</g>
<!-- 1&#45;&gt;1 -->
<g id="edge13" class="edge">
<title>1&#45;&gt;1</title>
<path fill="none" stroke="black" d="M361.08,-204.37C371.34,-205.53 380.5,-202.74 380.5,-196 380.5,-191.68 376.74,-188.99 371.34,-187.91"/>
<polygon fill="black" stroke="black" points="371.17,-184.41 361.08,-187.63 370.98,-191.4 371.17,-184.41"/>
<text text-anchor="middle" x="385.5" y="-192.3" font-family="Times,serif" font-size="14.00">1</text>
</g>
<!-- 1&#45;&gt;2 -->
<g id="edge24" class="edge">
<title>1&#45;&gt;2</title>
<path fill="none" stroke="black" d="M321.59,-184.6C308.91,-177.27 292.11,-166.87 278.5,-156 268,-147.63 257.35,-137.28 248.58,-128.18"/>
<polygon fill="black" stroke="black" points="251.12,-125.77 241.71,-120.89 246.03,-130.57 251.12,-125.77"/>
<text text-anchor="middle" x="283.5" y="-144.8" font-family="Times,serif" font-size="14.00">4</text>
</g>
<!-- 3 -->
<g id="node5" class="node">
<title>3</title>
<ellipse fill="none" stroke="black" cx="354.5" cy="-18" rx="27" ry="18"/>
<text text-anchor="middle" x="354.5" y="-14.3" font-family="Times,serif" font-size="14.00">3</text>
</g>
<!-- 1&#45;&gt;3 -->
<g id="edge18" class="edge">
<title>1&#45;&gt;3</title>
<path fill="none" stroke="black" d="M355.65,-179.83C361.68,-173.04 368.2,-164.62 372.5,-156 379.23,-142.49 378.7,-137.98 380.5,-123 384.14,-92.52 387.62,-82.98 377.5,-54 376.16,-50.17 374.31,-46.35 372.24,-42.71"/>
<polygon fill="black" stroke="black" points="375.12,-40.71 366.8,-34.16 369.21,-44.47 375.12,-40.71"/>
<text text-anchor="middle" x="388.5" y="-101.3" font-family="Times,serif" font-size="14.00">0</text>
</g>
<!-- 2&#45;&gt;0 -->
<g id="edge12" class="edge">
<title>2&#45;&gt;0</title>
<path fill="none" stroke="black" d="M229.7,-123.07C231.89,-154 236.53,-219.73 239.29,-258.85"/>
<polygon fill="black" stroke="black" points="235.81,-259.16 240,-268.89 242.79,-258.67 235.81,-259.16"/>
<text text-anchor="middle" x="241.5" y="-192.3" font-family="Times,serif" font-size="14.00">3</text>
</g>
<!-- 2&#45;&gt;0 -->
<g id="edge22" class="edge">
<title>2&#45;&gt;0</title>
<path fill="none" stroke="black" d="M211.69,-119.45C204.46,-125.64 196.17,-133.3 189.5,-141 166.2,-167.91 157.54,-183.83 167.5,-218 174.52,-242.11 196.01,-261.39 214.03,-273.91"/>
<polygon fill="black" stroke="black" points="212.25,-276.93 222.53,-279.5 216.1,-271.08 212.25,-276.93"/>
<text text-anchor="middle" x="172.5" y="-192.3" font-family="Times,serif" font-size="14.00">1</text>
</g>
<!-- 2&#45;&gt;1 -->
<g id="edge14" class="edge">
<title>2&#45;&gt;1</title>
<path fill="none" stroke="black" d="M249.79,-116.24C261.97,-122.58 277.22,-131.33 289.5,-141 300.52,-149.69 311.4,-160.76 320.25,-170.61"/>
<polygon fill="black" stroke="black" points="317.66,-172.96 326.89,-178.18 322.93,-168.35 317.66,-172.96"/>
<text text-anchor="middle" x="311.5" y="-144.8" font-family="Times,serif" font-size="14.00">0</text>
</g>
<!-- 2&#45;&gt;3 -->
<g id="edge19" class="edge">
<title>2&#45;&gt;3</title>
<path fill="none" stroke="black" d="M246.82,-91.64C268.09,-77.29 303.37,-53.49 327.72,-37.06"/>
<polygon fill="black" stroke="black" points="329.82,-39.87 336.15,-31.37 325.9,-34.07 329.82,-39.87"/>
<text text-anchor="middle" x="304.5" y="-57.8" font-family="Times,serif" font-size="14.00">4</text>
</g>
<!-- 2&#45;&gt;4 -->
<g id="edge17" class="edge">
<title>2&#45;&gt;4</title>
<path fill="none" stroke="black" d="M203.32,-111.51C187.2,-116.43 167.35,-125.35 156.5,-141 95.49,-228.96 135.92,-223.37 147.5,-251 183.39,-336.68 303.15,-366.64 364.13,-376.5"/>
<polygon fill="black" stroke="black" points="363.69,-379.97 374.1,-378.02 364.74,-373.05 363.69,-379.97"/>
<text text-anchor="middle" x="152.5" y="-239.8" font-family="Times,serif" font-size="14.00">2</text>
</g>
<!-- 3&#45;&gt;0 -->
<g id="edge10" class="edge">
<title>3&#45;&gt;0</title>
<path fill="none" stroke="black" d="M327.37,-19.19C263.74,-20.1 107.06,-25.29 64.5,-54 27.88,-78.69 27.51,-98.23 16.5,-141 4.3,-188.35 -13.35,-213.9 18.5,-251 42.79,-279.3 153.6,-287.07 209.32,-289.2"/>
<polygon fill="black" stroke="black" points="209.25,-292.7 219.37,-289.55 209.49,-285.71 209.25,-292.7"/>
<text text-anchor="middle" x="21.5" y="-144.8" font-family="Times,serif" font-size="14.00">4</text>
</g>
<!-- 3&#45;&gt;0 -->
<g id="edge11" class="edge">
<title>3&#45;&gt;0</title>
<path fill="none" stroke="black" d="M328.78,-24.04C294.08,-32.01 232.07,-50.5 192.5,-87 172.62,-105.33 172.85,-115.29 164.5,-141 149.34,-187.62 140.33,-214.01 172.5,-251 182.96,-263.03 198.09,-272.16 211.51,-278.55"/>
<polygon fill="black" stroke="black" points="210.34,-281.86 220.9,-282.72 213.18,-275.46 210.34,-281.86"/>
<text text-anchor="middle" x="169.5" y="-144.8" font-family="Times,serif" font-size="14.00">0</text>
</g>
<!-- 3&#45;&gt;1 -->
<g id="edge2" class="edge">
<title>3&#45;&gt;1</title>
<path fill="none" stroke="black" d="M351.84,-36C349.79,-49.73 347.05,-69.56 345.5,-87 343.2,-112.75 341.93,-142.05 341.24,-163.63"/>
<polygon fill="black" stroke="black" points="337.74,-163.76 340.94,-173.86 344.73,-163.96 337.74,-163.76"/>
<text text-anchor="middle" x="350.5" y="-101.3" font-family="Times,serif" font-size="14.00">1</text>
</g>
<!-- 3&#45;&gt;1 -->
<g id="edge6" class="edge">
<title>3&#45;&gt;1</title>
<path fill="none" stroke="black" d="M359.18,-35.96C360.53,-41.65 361.82,-48.05 362.5,-54 367.59,-99.13 366.81,-111.77 356.5,-156 355.69,-159.45 354.62,-163 353.4,-166.48"/>
<polygon fill="black" stroke="black" points="350.08,-165.37 349.73,-175.96 356.61,-167.9 350.08,-165.37"/>
<text text-anchor="middle" x="371.5" y="-101.3" font-family="Times,serif" font-size="14.00">2</text>
</g>
<!-- 3&#45;&gt;3 -->
<g id="edge4" class="edge">
<title>3&#45;&gt;3</title>
<path fill="none" stroke="black" d="M379.03,-25.75C390,-26.49 399.5,-23.91 399.5,-18 399.5,-14.03 395.21,-11.56 389.07,-10.59"/>
<polygon fill="black" stroke="black" points="389.14,-7.09 379.03,-10.25 388.9,-14.09 389.14,-7.09"/>
<text text-anchor="middle" x="404.5" y="-14.3" font-family="Times,serif" font-size="14.00">3</text>
</g>
<!-- 4&#45;&gt;0 -->
<g id="edge16" class="edge">
<title>4&#45;&gt;0</title>
<path fill="none" stroke="black" d="M380.36,-369.73C352.22,-353.98 301.02,-325.32 269.27,-307.55"/>
<polygon fill="black" stroke="black" points="270.91,-304.46 260.48,-302.63 267.5,-310.56 270.91,-304.46"/>
<text text-anchor="middle" x="340.5" y="-334.8" font-family="Times,serif" font-size="14.00">2</text>
</g>
<!-- 4&#45;&gt;1 -->
<g id="edge3" class="edge">
<title>4&#45;&gt;1</title>
<path fill="none" stroke="black" d="M397.94,-363.85C392.82,-330.62 380.91,-258.73 370.5,-236 368.09,-230.76 364.87,-225.57 361.43,-220.77"/>
<polygon fill="black" stroke="black" points="364.01,-218.39 355.13,-212.62 358.48,-222.68 364.01,-218.39"/>
<text text-anchor="middle" x="393.5" y="-287.3" font-family="Times,serif" font-size="14.00">1</text>
</g>
<!-- 4&#45;&gt;1 -->
<g id="edge15" class="edge">
<title>4&#45;&gt;1</title>
<path fill="none" stroke="black" d="M404.59,-364.01C405.78,-358.32 406.91,-351.92 407.5,-346 409.95,-321.21 403.04,-274.79 401.5,-269 397.33,-253.44 396.21,-248.85 386.5,-236 380.87,-228.56 373.59,-221.57 366.48,-215.62"/>
<polygon fill="black" stroke="black" points="368.34,-212.63 358.33,-209.15 363.99,-218.11 368.34,-212.63"/>
<text text-anchor="middle" x="411.5" y="-287.3" font-family="Times,serif" font-size="14.00">3</text>
</g>
<!-- 4&#45;&gt;3 -->
<g id="edge5" class="edge">
<title>4&#45;&gt;3</title>
<path fill="none" stroke="black" d="M417.16,-367.84C435.22,-351.96 461.5,-323.47 461.5,-292 461.5,-292 461.5,-292 461.5,-104 461.5,-66.11 419.85,-42.41 388.52,-29.95"/>
<polygon fill="black" stroke="black" points="389.37,-26.53 378.78,-26.29 386.91,-33.08 389.37,-26.53"/>
<text text-anchor="middle" x="466.5" y="-192.3" font-family="Times,serif" font-size="14.00">4</text>
</g>
<!-- 4&#45;&gt;3 -->
<g id="edge7" class="edge">
<title>4&#45;&gt;3</title>
<path fill="none" stroke="black" d="M424.24,-373.23C455.76,-361.24 507.5,-335.01 507.5,-292 507.5,-292 507.5,-292 507.5,-104 507.5,-51 436.48,-30.76 391.21,-23.25"/>
<polygon fill="black" stroke="black" points="391.56,-19.76 381.15,-21.71 390.5,-26.68 391.56,-19.76"/>
<text text-anchor="middle" x="512.5" y="-192.3" font-family="Times,serif" font-size="14.00">0</text>
</g>
</g>
</svg>
