<?xml version="1.0" encoding="UTF-8" standalone="no"?>
<!DOCTYPE svg PUBLIC "-//W3C//DTD SVG 1.1//EN"
 "http://www.w3.org/Graphics/SVG/1.1/DTD/svg11.dtd">
<!-- Generated by graphviz version 2.49.0 (20210829.0051)
 -->
<!-- Pages: 1 -->
<svg width="278pt" height="489pt"
 viewBox="0.00 0.00 278.12 489.00" xmlns="http://www.w3.org/2000/svg" xmlns:xlink="http://www.w3.org/1999/xlink">
<g id="graph0" class="graph" transform="scale(1 1) rotate(0) translate(4 485)">
<polygon fill="white" stroke="transparent" points="-4,4 -4,-485 274.12,-485 274.12,4 -4,4"/>
<!-- fake -->
<g id="node1" class="node">
<title>fake</title>
</g>
<!-- 0 -->
<g id="node2" class="node">
<title>0</title>
<ellipse fill="none" stroke="black" cx="132.12" cy="-386" rx="18" ry="18"/>
<ellipse fill="none" stroke="black" cx="132.12" cy="-386" rx="22" ry="22"/>
<text text-anchor="middle" x="132.12" y="-382.3" font-family="Times,serif" font-size="14.00">0</text>
</g>
<!-- fake&#45;&gt;0 -->
<g id="edge1" class="edge">
<title>fake&#45;&gt;0</title>
<path fill="none" stroke="black" stroke-width="2" d="M132.12,-444.98C132.12,-437.15 132.12,-427.61 132.12,-418.54"/>
<polygon fill="black" stroke="black" stroke-width="2" points="135.62,-418.24 132.12,-408.24 128.62,-418.24 135.62,-418.24"/>
</g>
<!-- 1 -->
<g id="node3" class="node">
<title>1</title>
<ellipse fill="none" stroke="black" cx="81.12" cy="-291" rx="18" ry="18"/>
<ellipse fill="none" stroke="black" cx="81.12" cy="-291" rx="22" ry="22"/>
<text text-anchor="middle" x="81.12" y="-287.3" font-family="Times,serif" font-size="14.00">1</text>
</g>
<!-- 0&#45;&gt;1 -->
<g id="edge5" class="edge">
<title>0&#45;&gt;1</title>
<path fill="none" stroke="black" d="M110.63,-381.23C91.32,-376.59 64.08,-366.62 51.12,-346 44.55,-335.54 49.97,-323.56 57.91,-313.54"/>
<polygon fill="black" stroke="black" points="60.6,-315.79 64.65,-306 55.38,-311.13 60.6,-315.79"/>
<text text-anchor="middle" x="56.12" y="-334.8" font-family="Times,serif" font-size="14.00">4</text>
</g>
<!-- 0&#45;&gt;1 -->
<g id="edge10" class="edge">
<title>0&#45;&gt;1</title>
<path fill="none" stroke="black" d="M112.81,-374.68C102.37,-367.99 90.37,-358.24 84.12,-346 80.6,-339.1 79.04,-331.04 78.54,-323.28"/>
<polygon fill="black" stroke="black" points="82.03,-322.99 78.43,-313.03 75.03,-323.07 82.03,-322.99"/>
<text text-anchor="middle" x="89.12" y="-334.8" font-family="Times,serif" font-size="14.00">0</text>
</g>
<!-- 0&#45;&gt;1 -->
<g id="edge12" class="edge">
<title>0&#45;&gt;1</title>
<path fill="none" stroke="black" d="M121.8,-366.18C114.47,-352.82 104.52,-334.66 96.29,-319.66"/>
<polygon fill="black" stroke="black" points="99.3,-317.88 91.43,-310.79 93.17,-321.24 99.3,-317.88"/>
<text text-anchor="middle" x="114.12" y="-334.8" font-family="Times,serif" font-size="14.00">1</text>
</g>
<!-- 0&#45;&gt;1 -->
<g id="edge16" class="edge">
<title>0&#45;&gt;1</title>
<path fill="none" stroke="black" d="M131.78,-363.98C130.84,-353.54 128.53,-341.04 123.12,-331 119.08,-323.48 113.03,-316.63 106.77,-310.83"/>
<polygon fill="black" stroke="black" points="108.75,-307.91 98.87,-304.08 104.2,-313.24 108.75,-307.91"/>
<text text-anchor="middle" x="133.12" y="-334.8" font-family="Times,serif" font-size="14.00">2</text>
</g>
<!-- 4 -->
<g id="node6" class="node">
<title>4</title>
<ellipse fill="none" stroke="black" cx="148.12" cy="-113" rx="27" ry="18"/>
<text text-anchor="middle" x="148.12" y="-109.3" font-family="Times,serif" font-size="14.00">4</text>
</g>
<!-- 0&#45;&gt;4 -->
<g id="edge23" class="edge">
<title>0&#45;&gt;4</title>
<path fill="none" stroke="black" d="M144.7,-367.91C148.96,-361.35 153.33,-353.61 156.12,-346 161.22,-332.07 159.89,-327.78 161.12,-313 163.41,-285.59 162.49,-150.9 162.12,-149 161.53,-145.95 160.68,-142.83 159.69,-139.76"/>
<polygon fill="black" stroke="black" points="162.94,-138.48 156.15,-130.34 156.39,-140.93 162.94,-138.48"/>
<text text-anchor="middle" x="167.12" y="-239.8" font-family="Times,serif" font-size="14.00">3</text>
</g>
<!-- 1&#45;&gt;1 -->
<g id="edge13" class="edge">
<title>1&#45;&gt;1</title>
<path fill="none" stroke="black" d="M101.7,-299.37C111.97,-300.53 121.12,-297.74 121.12,-291 121.12,-286.68 117.36,-283.99 111.97,-282.91"/>
<polygon fill="black" stroke="black" points="111.79,-279.41 101.7,-282.63 111.6,-286.4 111.79,-279.41"/>
<text text-anchor="middle" x="126.12" y="-287.3" font-family="Times,serif" font-size="14.00">1</text>
</g>
<!-- 2 -->
<g id="node4" class="node">
<title>2</title>
<ellipse fill="none" stroke="black" cx="53.12" cy="-200" rx="27" ry="18"/>
<text text-anchor="middle" x="53.12" y="-196.3" font-family="Times,serif" font-size="14.00">2</text>
</g>
<!-- 1&#45;&gt;2 -->
<g id="edge3" class="edge">
<title>1&#45;&gt;2</title>
<path fill="none" stroke="black" d="M60.05,-283.82C44.59,-278.05 24.69,-267.76 15.12,-251 8.79,-239.91 16.21,-228.5 26.12,-219.38"/>
<polygon fill="black" stroke="black" points="28.5,-221.96 34,-212.9 24.05,-216.55 28.5,-221.96"/>
<text text-anchor="middle" x="20.12" y="-239.8" font-family="Times,serif" font-size="14.00">0</text>
</g>
<!-- 1&#45;&gt;2 -->
<g id="edge19" class="edge">
<title>1&#45;&gt;2</title>
<path fill="none" stroke="black" d="M65.43,-275.18C59.42,-268.45 53.26,-259.98 50.12,-251 47.63,-243.86 47.18,-235.79 47.67,-228.26"/>
<polygon fill="black" stroke="black" points="51.17,-228.46 48.87,-218.12 44.22,-227.64 51.17,-228.46"/>
<text text-anchor="middle" x="55.12" y="-239.8" font-family="Times,serif" font-size="14.00">3</text>
</g>
<!-- 3 -->
<g id="node5" class="node">
<title>3</title>
<ellipse fill="none" stroke="black" cx="97.12" cy="-22" rx="18" ry="18"/>
<ellipse fill="none" stroke="black" cx="97.12" cy="-22" rx="22" ry="22"/>
<text text-anchor="middle" x="97.12" y="-18.3" font-family="Times,serif" font-size="14.00">3</text>
</g>
<!-- 1&#45;&gt;3 -->
<g id="edge17" class="edge">
<title>1&#45;&gt;3</title>
<path fill="none" stroke="black" d="M60.8,-281.78C41.61,-273.56 14.94,-260.77 9.12,-251 5.71,-245.27 8.78,-242.66 9.12,-236 13.15,-157.98 -13.49,-123.94 34.12,-62 42.78,-50.73 55.7,-41.93 67.59,-35.56"/>
<polygon fill="black" stroke="black" points="69.41,-38.56 76.8,-30.97 66.29,-32.3 69.41,-38.56"/>
<text text-anchor="middle" x="12.12" y="-152.8" font-family="Times,serif" font-size="14.00">4</text>
</g>
<!-- 1&#45;&gt;4 -->
<g id="edge18" class="edge">
<title>1&#45;&gt;4</title>
<path fill="none" stroke="black" d="M90.36,-270.68C93.26,-264.44 96.41,-257.46 99.12,-251 115.13,-212.87 118.48,-203.04 132.12,-164 134.8,-156.34 137.55,-147.97 139.99,-140.3"/>
<polygon fill="black" stroke="black" points="143.34,-141.33 143.01,-130.74 136.66,-139.22 143.34,-141.33"/>
<text text-anchor="middle" x="130.12" y="-196.3" font-family="Times,serif" font-size="14.00">2</text>
</g>
<!-- 2&#45;&gt;0 -->
<g id="edge2" class="edge">
<title>2&#45;&gt;0</title>
<path fill="none" stroke="black" d="M32.45,-211.8C23.54,-217.66 14.04,-225.8 9.12,-236 -13.17,-282.21 9.03,-308.58 44.12,-346 59.17,-362.04 82.01,-371.9 100.65,-377.69"/>
<polygon fill="black" stroke="black" points="99.92,-381.12 110.49,-380.5 101.84,-374.39 99.92,-381.12"/>
<text text-anchor="middle" x="21.12" y="-287.3" font-family="Times,serif" font-size="14.00">2</text>
</g>
<!-- 2&#45;&gt;1 -->
<g id="edge4" class="edge">
<title>2&#45;&gt;1</title>
<path fill="none" stroke="black" d="M58.42,-217.83C62.16,-229.71 67.27,-245.97 71.7,-260.04"/>
<polygon fill="black" stroke="black" points="68.43,-261.32 74.77,-269.8 75.11,-259.22 68.43,-261.32"/>
<text text-anchor="middle" x="73.12" y="-239.8" font-family="Times,serif" font-size="14.00">3</text>
</g>
<!-- 2&#45;&gt;1 -->
<g id="edge14" class="edge">
<title>2&#45;&gt;1</title>
<path fill="none" stroke="black" d="M68.4,-214.86C73.83,-220.78 79.29,-228.13 82.12,-236 84.72,-243.22 85.56,-251.34 85.49,-259.04"/>
<polygon fill="black" stroke="black" points="81.99,-259 84.93,-269.18 88.98,-259.39 81.99,-259"/>
<text text-anchor="middle" x="90.12" y="-239.8" font-family="Times,serif" font-size="14.00">0</text>
</g>
<!-- 2&#45;&gt;3 -->
<g id="edge21" class="edge">
<title>2&#45;&gt;3</title>
<path fill="none" stroke="black" d="M44.45,-182.62C34.67,-161.99 21.23,-125.54 30.12,-95 36.63,-72.66 55.19,-53.71 71.13,-40.86"/>
<polygon fill="black" stroke="black" points="73.34,-43.58 79.15,-34.72 69.08,-38.02 73.34,-43.58"/>
<text text-anchor="middle" x="35.12" y="-109.3" font-family="Times,serif" font-size="14.00">4</text>
</g>
<!-- 2&#45;&gt;4 -->
<g id="edge15" class="edge">
<title>2&#45;&gt;4</title>
<path fill="none" stroke="black" d="M64.2,-183.05C71.88,-172.65 82.74,-159.18 94.12,-149 101.73,-142.2 110.77,-135.8 119.27,-130.38"/>
<polygon fill="black" stroke="black" points="121.15,-133.33 127.84,-125.11 117.48,-127.37 121.15,-133.33"/>
<text text-anchor="middle" x="99.12" y="-152.8" font-family="Times,serif" font-size="14.00">1</text>
</g>
<!-- 3&#45;&gt;0 -->
<g id="edge7" class="edge">
<title>3&#45;&gt;0</title>
<path fill="none" stroke="black" d="M119.1,-24.88C163.6,-30.02 260.12,-48.48 260.12,-112 260.12,-292 260.12,-292 260.12,-292 260.12,-339.58 201.52,-365.35 163.62,-377.04"/>
<polygon fill="black" stroke="black" points="162.17,-373.82 153.55,-379.97 164.13,-380.54 162.17,-373.82"/>
<text text-anchor="middle" x="265.12" y="-196.3" font-family="Times,serif" font-size="14.00">3</text>
</g>
<!-- 3&#45;&gt;2 -->
<g id="edge20" class="edge">
<title>3&#45;&gt;2</title>
<path fill="none" stroke="black" d="M82.35,-38.31C70.42,-51.92 54.73,-73.02 49.12,-95 42.59,-120.61 44.83,-150.91 47.95,-172.18"/>
<polygon fill="black" stroke="black" points="44.51,-172.81 49.57,-182.12 51.41,-171.69 44.51,-172.81"/>
<text text-anchor="middle" x="54.12" y="-109.3" font-family="Times,serif" font-size="14.00">4</text>
</g>
<!-- 3&#45;&gt;2 -->
<g id="edge22" class="edge">
<title>3&#45;&gt;2</title>
<path fill="none" stroke="black" d="M91.97,-43.59C84.01,-75.45 68.7,-136.7 59.86,-172.05"/>
<polygon fill="black" stroke="black" points="56.37,-171.57 57.34,-182.12 63.16,-173.27 56.37,-171.57"/>
<text text-anchor="middle" x="83.12" y="-109.3" font-family="Times,serif" font-size="14.00">0</text>
</g>
<!-- 3&#45;&gt;4 -->
<g id="edge6" class="edge">
<title>3&#45;&gt;4</title>
<path fill="none" stroke="black" d="M117.84,-30.13C131.97,-36.2 149.61,-46.45 158.12,-62 162.13,-69.32 161.83,-78.02 159.85,-86.1"/>
<polygon fill="black" stroke="black" points="156.45,-85.25 156.65,-95.85 163.1,-87.44 156.45,-85.25"/>
<text text-anchor="middle" x="166.12" y="-65.8" font-family="Times,serif" font-size="14.00">1</text>
</g>
<!-- 3&#45;&gt;4 -->
<g id="edge11" class="edge">
<title>3&#45;&gt;4</title>
<path fill="none" stroke="black" d="M101.74,-43.65C104.63,-54.11 108.99,-66.74 115.12,-77 118.01,-81.84 121.68,-86.56 125.5,-90.89"/>
<polygon fill="black" stroke="black" points="123.01,-93.34 132.43,-98.19 128.09,-88.53 123.01,-93.34"/>
<text text-anchor="middle" x="120.12" y="-65.8" font-family="Times,serif" font-size="14.00">2</text>
</g>
<!-- 4&#45;&gt;0 -->
<g id="edge8" class="edge">
<title>4&#45;&gt;0</title>
<path fill="none" stroke="black" d="M148.26,-131.13C148.31,-140.78 148.3,-153.06 148.12,-164 146.79,-244.92 153.57,-265.88 142.12,-346 141.71,-348.85 141.18,-351.8 140.57,-354.74"/>
<polygon fill="black" stroke="black" points="137.15,-353.99 138.26,-364.52 143.96,-355.59 137.15,-353.99"/>
<text text-anchor="middle" x="153.12" y="-239.8" font-family="Times,serif" font-size="14.00">4</text>
</g>
<!-- 4&#45;&gt;2 -->
<g id="edge24" class="edge">
<title>4&#45;&gt;2</title>
<path fill="none" stroke="black" d="M136.31,-129.33C127.92,-139.71 116.06,-153.41 104.12,-164 97.19,-170.14 89.14,-176.12 81.51,-181.35"/>
<polygon fill="black" stroke="black" points="79.24,-178.65 72.85,-187.1 83.11,-184.49 79.24,-178.65"/>
<text text-anchor="middle" x="123.12" y="-152.8" font-family="Times,serif" font-size="14.00">1</text>
</g>
<!-- 4&#45;&gt;3 -->
<g id="edge25" class="edge">
<title>4&#45;&gt;3</title>
<path fill="none" stroke="black" d="M141.43,-95.39C137.2,-85.46 131.37,-72.74 125.12,-62 122.47,-57.43 119.41,-52.74 116.31,-48.26"/>
<polygon fill="black" stroke="black" points="119.07,-46.09 110.4,-40 113.37,-50.17 119.07,-46.09"/>
<text text-anchor="middle" x="137.12" y="-65.8" font-family="Times,serif" font-size="14.00">3</text>
</g>
<!-- 4&#45;&gt;4 -->
<g id="edge9" class="edge">
<title>4&#45;&gt;4</title>
<path fill="none" stroke="black" d="M174.92,-116.93C184.9,-117.06 193.12,-115.75 193.12,-113 193.12,-111.28 189.91,-110.13 185.07,-109.53"/>
<polygon fill="black" stroke="black" points="185.07,-106.03 174.92,-109.07 184.75,-113.02 185.07,-106.03"/>
<text text-anchor="middle" x="198.12" y="-109.3" font-family="Times,serif" font-size="14.00">2</text>
</g>
<!-- 4&#45;&gt;4 -->
<g id="edge26" class="edge">
<title>4&#45;&gt;4</title>
<path fill="none" stroke="black" d="M173.35,-119.94C192.16,-122.37 211.12,-120.05 211.12,-113 211.12,-107.21 198.36,-104.62 183.4,-105.21"/>
<polygon fill="black" stroke="black" points="183.02,-101.73 173.35,-106.06 183.61,-108.7 183.02,-101.73"/>
<text text-anchor="middle" x="216.12" y="-109.3" font-family="Times,serif" font-size="14.00">0</text>
</g>
</g>
</svg>
